M48
METRIC,LZ,000.000
;FILE_FORMAT=3:3
;TYPE=NON_PLATED
;Layer: NPTH_Through
;EasyEDA v6.5.23, 2023-07-06 13:56:57
;b9381c7a78c54a84ad0699960bbaf6d2,5a6b42c53f6a479593ecc07194224c93,10
;Gerber Generator version 0.2
;Holesize 1 = 0.551 mm
T01C0.551
;Holesize 2 = 2.000 mm
T02C2.000
;Holesize 3 = 3.000 mm
T03C3.000
%
G05
G90
T01
X013814Y069015
X013814Y068165
X013814Y067315
X013814Y066465
X013814Y065615
X013814Y064765
X013814Y063915
X013814Y063065
X009998Y069015
X009998Y068165
X009998Y067315
X009998Y066465
X009998Y065615
X009998Y064765
X009998Y063915
X009998Y063065
X027720Y069015
X027720Y068165
X027720Y067315
X027720Y066465
X027720Y065615
X027720Y064765
X027720Y063915
X027720Y063065
X023904Y069015
X023904Y068165
X023904Y067315
X023904Y066465
X023904Y065615
X023904Y064765
X023904Y063915
X023904Y063065
X041626Y069015
X041626Y068165
X041626Y067315
X041626Y066465
X041626Y065615
X041626Y064765
X041626Y063915
X041626Y063065
X037810Y069015
X037810Y068165
X037810Y067315
X037810Y066465
X037810Y065615
X037810Y064765
X037810Y063915
X037810Y063065
X055532Y069015
X055532Y068165
X055532Y067315
X055532Y066465
X055532Y065615
X055532Y064765
X055532Y063915
X055532Y063065
X051716Y069015
X051716Y068165
X051716Y067315
X051716Y066465
X051716Y065615
X051716Y064765
X051716Y063915
X051716Y063065
X069438Y069015
X069438Y068165
X069438Y067315
X069438Y066465
X069438Y065615
X069438Y064765
X069438Y063915
X069438Y063065
X065622Y069015
X065622Y068165
X065622Y067315
X065622Y066465
X065622Y065615
X065622Y064765
X065622Y063915
X065622Y063065
X083344Y069015
X083344Y068165
X083344Y067315
X083344Y066465
X083344Y065615
X083344Y064765
X083344Y063915
X083344Y063065
X079528Y069015
X079528Y068165
X079528Y067315
X079528Y066465
X079528Y065615
X079528Y064765
X079528Y063915
X079528Y063065
X097250Y069015
X097250Y068165
X097250Y067315
X097250Y066465
X097250Y065615
X097250Y064765
X097250Y063915
X097250Y063065
X093434Y069015
X093434Y068165
X093434Y067315
X093434Y066465
X093434Y065615
X093434Y064765
X093434Y063915
X093434Y063065
X111156Y069015
X111156Y068165
X111156Y067315
X111156Y066465
X111156Y065615
X111156Y064765
X111156Y063915
X111156Y063065
X107340Y069015
X107340Y068165
X107340Y067315
X107340Y066465
X107340Y065615
X107340Y064765
X107340Y063915
X107340Y063065
X125062Y069015
X125062Y068165
X125062Y067315
X125062Y066465
X125062Y065615
X125062Y064765
X125062Y063915
X125062Y063065
X121246Y069015
X121246Y068165
X121246Y067315
X121246Y066465
X121246Y065615
X121246Y064765
X121246Y063915
X121246Y063065
X001978Y119472
X002828Y119472
X003678Y119472
X004528Y119472
X005378Y119472
X006228Y119472
X007078Y119472
X007928Y119472
X001978Y012608
X002828Y012608
X003678Y012608
X004528Y012608
X005378Y012608
X006228Y012608
X007078Y012608
X007928Y012608
X015884Y119472
X016734Y119472
X017584Y119472
X018434Y119472
X019284Y119472
X020134Y119472
X020984Y119472
X021834Y119472
X015884Y012608
X016734Y012608
X017584Y012608
X018434Y012608
X019284Y012608
X020134Y012608
X020984Y012608
X021834Y012608
X029790Y119472
X030640Y119472
X031490Y119472
X032340Y119472
X033190Y119472
X034040Y119472
X034890Y119472
X035740Y119472
X029790Y012608
X030640Y012608
X031490Y012608
X032340Y012608
X033190Y012608
X034040Y012608
X034890Y012608
X035740Y012608
X043696Y119472
X044546Y119472
X045396Y119472
X046246Y119472
X047096Y119472
X047946Y119472
X048796Y119472
X049646Y119472
X043696Y012608
X044546Y012608
X045396Y012608
X046246Y012608
X047096Y012608
X047946Y012608
X048796Y012608
X049646Y012608
X057602Y119472
X058452Y119472
X059302Y119472
X060152Y119472
X061002Y119472
X061852Y119472
X062702Y119472
X063552Y119472
X057602Y012608
X058452Y012608
X059302Y012608
X060152Y012608
X061002Y012608
X061852Y012608
X062702Y012608
X063552Y012608
X071508Y119472
X072358Y119472
X073208Y119472
X074058Y119472
X074908Y119472
X075758Y119472
X076608Y119472
X077458Y119472
X071508Y012608
X072358Y012608
X073208Y012608
X074058Y012608
X074908Y012608
X075758Y012608
X076608Y012608
X077458Y012608
X085414Y119472
X086264Y119472
X087114Y119472
X087964Y119472
X088814Y119472
X089664Y119472
X090514Y119472
X091364Y119472
X085414Y012608
X086264Y012608
X087114Y012608
X087964Y012608
X088814Y012608
X089664Y012608
X090514Y012608
X091364Y012608
X099320Y119472
X100170Y119472
X101020Y119472
X101870Y119472
X102720Y119472
X103570Y119472
X104420Y119472
X105270Y119472
X099320Y012608
X100170Y012608
X101020Y012608
X101870Y012608
X102720Y012608
X103570Y012608
X104420Y012608
X105270Y012608
X113226Y119472
X114076Y119472
X114926Y119472
X115776Y119472
X116626Y119472
X117476Y119472
X118326Y119472
X119176Y119472
X113226Y012608
X114076Y012608
X114926Y012608
X115776Y012608
X116626Y012608
X117476Y012608
X118326Y012608
X119176Y012608
X127132Y119472
X127982Y119472
X128832Y119472
X129682Y119472
X130532Y119472
X131382Y119472
X132232Y119472
X133082Y119472
X127132Y012608
X127982Y012608
X128832Y012608
X129682Y012608
X130532Y012608
X131382Y012608
X132232Y012608
X133082Y012608
T02
X005000Y123380
X130060Y123380
X010000Y008700
X125060Y008700
T03
X004935Y070620
X004935Y055380
X004935Y108339
X004935Y093099
M30
