M48
METRIC,LZ,000.000
;FILE_FORMAT=3:3
;TYPE=NON_PLATED
;Layer: NPTH_Through
;EasyEDA v6.5.22, 2023-04-24 22:23:56
;8fb2b6a2d3ec4a02888dd8b65789e586,5a6b42c53f6a479593ecc07194224c93,10
;Gerber Generator version 0.2
;Holesize 1 = 0.551 mm
T01C0.551
;Holesize 2 = 1.000 mm
T02C1.000
;Holesize 3 = 2.000 mm
T03C2.000
;Holesize 4 = 3.000 mm
T04C3.000
%
G05
G90
T01
X011814Y069015
X011814Y068165
X011814Y067315
X011814Y066465
X011814Y065615
X011814Y064765
X011814Y063915
X011814Y063065
X009998Y069015
X009998Y068165
X009998Y067315
X009998Y066465
X009998Y065615
X009998Y064765
X009998Y063915
X009998Y063065
X023720Y069015
X023720Y068165
X023720Y067315
X023720Y066465
X023720Y065615
X023720Y064765
X023720Y063915
X023720Y063065
X021904Y069015
X021904Y068165
X021904Y067315
X021904Y066465
X021904Y065615
X021904Y064765
X021904Y063915
X021904Y063065
X035626Y069015
X035626Y068165
X035626Y067315
X035626Y066465
X035626Y065615
X035626Y064765
X035626Y063915
X035626Y063065
X033810Y069015
X033810Y068165
X033810Y067315
X033810Y066465
X033810Y065615
X033810Y064765
X033810Y063915
X033810Y063065
X047532Y069015
X047532Y068165
X047532Y067315
X047532Y066465
X047532Y065615
X047532Y064765
X047532Y063915
X047532Y063065
X045716Y069015
X045716Y068165
X045716Y067315
X045716Y066465
X045716Y065615
X045716Y064765
X045716Y063915
X045716Y063065
X059438Y069015
X059438Y068165
X059438Y067315
X059438Y066465
X059438Y065615
X059438Y064765
X059438Y063915
X059438Y063065
X057622Y069015
X057622Y068165
X057622Y067315
X057622Y066465
X057622Y065615
X057622Y064765
X057622Y063915
X057622Y063065
X071344Y069015
X071344Y068165
X071344Y067315
X071344Y066465
X071344Y065615
X071344Y064765
X071344Y063915
X071344Y063065
X069528Y069015
X069528Y068165
X069528Y067315
X069528Y066465
X069528Y065615
X069528Y064765
X069528Y063915
X069528Y063065
X083250Y069015
X083250Y068165
X083250Y067315
X083250Y066465
X083250Y065615
X083250Y064765
X083250Y063915
X083250Y063065
X081434Y069015
X081434Y068165
X081434Y067315
X081434Y066465
X081434Y065615
X081434Y064765
X081434Y063915
X081434Y063065
X095156Y069015
X095156Y068165
X095156Y067315
X095156Y066465
X095156Y065615
X095156Y064765
X095156Y063915
X095156Y063065
X093340Y069015
X093340Y068165
X093340Y067315
X093340Y066465
X093340Y065615
X093340Y064765
X093340Y063915
X093340Y063065
X107062Y069015
X107062Y068165
X107062Y067315
X107062Y066465
X107062Y065615
X107062Y064765
X107062Y063915
X107062Y063065
X105246Y069015
X105246Y068165
X105246Y067315
X105246Y066465
X105246Y065615
X105246Y064765
X105246Y063915
X105246Y063065
X001978Y119472
X002828Y119472
X003678Y119472
X004528Y119472
X005378Y119472
X006228Y119472
X007078Y119472
X007928Y119472
X001978Y012608
X002828Y012608
X003678Y012608
X004528Y012608
X005378Y012608
X006228Y012608
X007078Y012608
X007928Y012608
X013884Y119472
X014734Y119472
X015584Y119472
X016434Y119472
X017284Y119472
X018134Y119472
X018984Y119472
X019834Y119472
X013884Y012608
X014734Y012608
X015584Y012608
X016434Y012608
X017284Y012608
X018134Y012608
X018984Y012608
X019834Y012608
X025790Y119472
X026640Y119472
X027490Y119472
X028340Y119472
X029190Y119472
X030040Y119472
X030890Y119472
X031740Y119472
X025790Y012608
X026640Y012608
X027490Y012608
X028340Y012608
X029190Y012608
X030040Y012608
X030890Y012608
X031740Y012608
X037696Y119472
X038546Y119472
X039396Y119472
X040246Y119472
X041096Y119472
X041946Y119472
X042796Y119472
X043646Y119472
X037696Y012608
X038546Y012608
X039396Y012608
X040246Y012608
X041096Y012608
X041946Y012608
X042796Y012608
X043646Y012608
X049602Y119472
X050452Y119472
X051302Y119472
X052152Y119472
X053002Y119472
X053852Y119472
X054702Y119472
X055552Y119472
X049602Y012608
X050452Y012608
X051302Y012608
X052152Y012608
X053002Y012608
X053852Y012608
X054702Y012608
X055552Y012608
X061508Y119472
X062358Y119472
X063208Y119472
X064058Y119472
X064908Y119472
X065758Y119472
X066608Y119472
X067458Y119472
X061508Y012608
X062358Y012608
X063208Y012608
X064058Y012608
X064908Y012608
X065758Y012608
X066608Y012608
X067458Y012608
X073414Y119472
X074264Y119472
X075114Y119472
X075964Y119472
X076814Y119472
X077664Y119472
X078514Y119472
X079364Y119472
X073414Y012608
X074264Y012608
X075114Y012608
X075964Y012608
X076814Y012608
X077664Y012608
X078514Y012608
X079364Y012608
X085320Y119472
X086170Y119472
X087020Y119472
X087870Y119472
X088720Y119472
X089570Y119472
X090420Y119472
X091270Y119472
X085320Y012608
X086170Y012608
X087020Y012608
X087870Y012608
X088720Y012608
X089570Y012608
X090420Y012608
X091270Y012608
X097226Y119472
X098076Y119472
X098926Y119472
X099776Y119472
X100626Y119472
X101476Y119472
X102326Y119472
X103176Y119472
X097226Y012608
X098076Y012608
X098926Y012608
X099776Y012608
X100626Y012608
X101476Y012608
X102326Y012608
X103176Y012608
X109132Y119472
X109982Y119472
X110832Y119472
X111682Y119472
X112532Y119472
X113382Y119472
X114232Y119472
X115082Y119472
X109132Y012608
X109982Y012608
X110832Y012608
X111682Y012608
X112532Y012608
X113382Y012608
X114232Y012608
X115082Y012608
T02
X006453Y068597
X003453Y068598
X003453Y060943
X006453Y060942
T03
X005000Y123380
X112060Y123380
X010000Y008700
X107060Y008700
T04
X004935Y108339
X004935Y093099
M30
