G04 Layer: TopPasteMaskLayer*
G04 EasyEDA v6.5.29, 2023-07-19 21:43:04*
G04 f8bcf56a654e41728208f455603ead28,5a6b42c53f6a479593ecc07194224c93,10*
G04 Gerber Generator version 0.2*
G04 Scale: 100 percent, Rotated: No, Reflected: No *
G04 Dimensions in millimeters *
G04 leading zeros omitted , absolute positions ,4 integer and 5 decimal *
%FSLAX45Y45*%
%MOMM*%

%AMMACRO1*21,1,$1,$2,0,0,$3*%
%ADD10MACRO1,2.592X2.2075X-90.0000*%
%ADD11MACRO1,1.05X2.465X-90.0000*%
%ADD12MACRO1,3.54X2.465X90.0000*%
%ADD13R,1.2000X0.9500*%
%ADD14R,0.8000X0.8000*%
%ADD15MACRO1,1.2X1.4X-90.0000*%
%ADD16R,1.4000X1.2000*%
%ADD17MACRO1,1.2X1.4X90.0000*%
%ADD18R,0.6000X0.2800*%
%ADD19R,0.3000X1.7000*%
%ADD20R,0.5500X0.5500*%
%ADD21R,1.5500X0.6000*%
%ADD22R,2.0000X1.5000*%
%ADD23R,1.0700X0.6000*%
%ADD24R,0.0180X0.6000*%

%LPD*%
G36*
X-4307179Y506069D02*
G01*
X-4312208Y501091D01*
X-4312208Y416102D01*
X-4307179Y411073D01*
X-4227169Y411073D01*
X-4222191Y416102D01*
X-4222191Y501091D01*
X-4227169Y506069D01*
X-4252214Y506069D01*
X-4252214Y476097D01*
X-4282186Y476097D01*
X-4282186Y506069D01*
G37*
G36*
X-4307179Y681075D02*
G01*
X-4312208Y676097D01*
X-4312208Y591108D01*
X-4307179Y586079D01*
X-4282186Y586079D01*
X-4282186Y616102D01*
X-4252214Y616102D01*
X-4252214Y586079D01*
X-4227169Y586079D01*
X-4222191Y591108D01*
X-4222191Y676097D01*
X-4227169Y681075D01*
G37*
G36*
X-4307179Y1387906D02*
G01*
X-4312208Y1382877D01*
X-4312208Y1302918D01*
X-4307179Y1297889D01*
X-4227220Y1297889D01*
X-4222191Y1302918D01*
X-4222191Y1382877D01*
X-4227220Y1387906D01*
X-4249978Y1387906D01*
X-4249978Y1350873D01*
X-4282998Y1350873D01*
X-4282998Y1387906D01*
G37*
G36*
X-4307179Y1546910D02*
G01*
X-4312208Y1541881D01*
X-4312208Y1462887D01*
X-4307179Y1457909D01*
X-4282998Y1457909D01*
X-4282998Y1495907D01*
X-4249978Y1495907D01*
X-4249978Y1457909D01*
X-4227220Y1457909D01*
X-4222191Y1462887D01*
X-4222191Y1541881D01*
X-4227220Y1546910D01*
G37*
G36*
X-3814368Y1521155D02*
G01*
X-3824376Y1511147D01*
X-3824376Y1181252D01*
X-3814368Y1171244D01*
X-3693718Y1171244D01*
X-3683711Y1181252D01*
X-3683711Y1276705D01*
X-3693718Y1286713D01*
X-3721506Y1286713D01*
X-3731514Y1296720D01*
X-3731514Y1395679D01*
X-3721506Y1405686D01*
X-3693718Y1405686D01*
X-3683711Y1415694D01*
X-3683711Y1511147D01*
X-3693718Y1521155D01*
G37*
G36*
X-3443681Y1521155D02*
G01*
X-3453688Y1511147D01*
X-3453688Y1415694D01*
X-3443681Y1405686D01*
X-3415842Y1405686D01*
X-3405886Y1395679D01*
X-3405886Y1296720D01*
X-3415842Y1286713D01*
X-3443681Y1286713D01*
X-3453688Y1276705D01*
X-3453688Y1181252D01*
X-3443681Y1171244D01*
X-3323031Y1171244D01*
X-3313023Y1181252D01*
X-3313023Y1511147D01*
X-3323031Y1521155D01*
G37*
G36*
X-2993999Y2381656D02*
G01*
X-3032506Y2334818D01*
X-3032506Y2290775D01*
X-2993999Y2243937D01*
X-2925216Y2243937D01*
X-2915259Y2253945D01*
X-2915259Y2371648D01*
X-2925216Y2381656D01*
G37*
G36*
X-3211728Y2381656D02*
G01*
X-3221736Y2371648D01*
X-3221736Y2253945D01*
X-3211728Y2243937D01*
X-3142996Y2243937D01*
X-3104489Y2290775D01*
X-3104489Y2334818D01*
X-3142996Y2381656D01*
G37*
G36*
X-2998876Y-515366D02*
G01*
X-3037382Y-562152D01*
X-3037382Y-606247D01*
X-2998876Y-653034D01*
X-2930144Y-653034D01*
X-2920136Y-643077D01*
X-2920136Y-525373D01*
X-2930144Y-515366D01*
G37*
G36*
X-3216656Y-515366D02*
G01*
X-3226663Y-525373D01*
X-3226663Y-643077D01*
X-3216656Y-653034D01*
X-3147923Y-653034D01*
X-3109417Y-606247D01*
X-3109417Y-562152D01*
X-3147923Y-515366D01*
G37*
G36*
X-2763570Y-136652D02*
G01*
X-2773527Y-146659D01*
X-2773527Y-267309D01*
X-2763570Y-277317D01*
X-2668066Y-277317D01*
X-2658059Y-267309D01*
X-2658059Y-239471D01*
X-2648102Y-229463D01*
X-2549093Y-229463D01*
X-2539085Y-239471D01*
X-2539085Y-267309D01*
X-2529128Y-277317D01*
X-2433624Y-277317D01*
X-2423617Y-267309D01*
X-2423617Y-146659D01*
X-2433624Y-136652D01*
G37*
G36*
X-2763570Y-507288D02*
G01*
X-2773527Y-517296D01*
X-2773527Y-637997D01*
X-2763570Y-647954D01*
X-2433624Y-647954D01*
X-2423617Y-637997D01*
X-2423617Y-517296D01*
X-2433624Y-507288D01*
X-2529128Y-507288D01*
X-2539085Y-517296D01*
X-2539085Y-545134D01*
X-2549093Y-555142D01*
X-2648102Y-555142D01*
X-2658059Y-545134D01*
X-2658059Y-517296D01*
X-2668066Y-507288D01*
G37*
G36*
X-1152804Y230378D02*
G01*
X-1157782Y225399D01*
X-1157782Y177393D01*
X-1152804Y170383D01*
X-1107795Y170383D01*
X-1102817Y177393D01*
X-1102817Y225399D01*
X-1107795Y230378D01*
G37*
G36*
X-1152804Y134416D02*
G01*
X-1157782Y127406D01*
X-1157782Y79400D01*
X-1152804Y74422D01*
X-1107795Y74422D01*
X-1102817Y79400D01*
X-1102817Y127406D01*
X-1107795Y134416D01*
G37*
G36*
X-949299Y217982D02*
G01*
X-954278Y213004D01*
X-954278Y167995D01*
X-949299Y163017D01*
X-901293Y163017D01*
X-894283Y167995D01*
X-894283Y213004D01*
X-901293Y217982D01*
G37*
G36*
X-851306Y217982D02*
G01*
X-858316Y213004D01*
X-858316Y167995D01*
X-851306Y163017D01*
X-803300Y163017D01*
X-798322Y167995D01*
X-798322Y213004D01*
X-803300Y217982D01*
G37*
G36*
X-1254404Y235407D02*
G01*
X-1259382Y230378D01*
X-1259382Y177393D01*
X-1254404Y172415D01*
X-1209395Y172415D01*
X-1204417Y177393D01*
X-1204417Y230378D01*
X-1209395Y235407D01*
G37*
G36*
X-1254404Y132384D02*
G01*
X-1259382Y127406D01*
X-1259382Y74422D01*
X-1254404Y69392D01*
X-1209395Y69392D01*
X-1204417Y74422D01*
X-1204417Y127406D01*
X-1209395Y132384D01*
G37*
G36*
X-190906Y1310182D02*
G01*
X-195884Y1305204D01*
X-195884Y1260195D01*
X-190906Y1255217D01*
X-137922Y1255217D01*
X-132892Y1260195D01*
X-132892Y1305204D01*
X-137922Y1310182D01*
G37*
G36*
X-293878Y1310182D02*
G01*
X-298907Y1305204D01*
X-298907Y1260195D01*
X-293878Y1255217D01*
X-240893Y1255217D01*
X-235915Y1260195D01*
X-235915Y1305204D01*
X-240893Y1310182D01*
G37*
G36*
X-914806Y1322882D02*
G01*
X-919784Y1317904D01*
X-919784Y1272895D01*
X-914806Y1267917D01*
X-861771Y1267917D01*
X-856792Y1272895D01*
X-856792Y1317904D01*
X-861771Y1322882D01*
G37*
G36*
X-1017778Y1322882D02*
G01*
X-1022807Y1317904D01*
X-1022807Y1272895D01*
X-1017778Y1267917D01*
X-964793Y1267917D01*
X-959815Y1272895D01*
X-959815Y1317904D01*
X-964793Y1322882D01*
G37*
G36*
X-914806Y1221282D02*
G01*
X-919784Y1216304D01*
X-919784Y1171295D01*
X-914806Y1166317D01*
X-861771Y1166317D01*
X-856792Y1171295D01*
X-856792Y1216304D01*
X-861771Y1221282D01*
G37*
G36*
X-1017778Y1221282D02*
G01*
X-1022807Y1216304D01*
X-1022807Y1171295D01*
X-1017778Y1166317D01*
X-964793Y1166317D01*
X-959815Y1171295D01*
X-959815Y1216304D01*
X-964793Y1221282D01*
G37*
G36*
X-487375Y410413D02*
G01*
X-487375Y390398D01*
X-377393Y390398D01*
X-377393Y410413D01*
G37*
G36*
X-487375Y450392D02*
G01*
X-487375Y430377D01*
X-377393Y430377D01*
X-377393Y450392D01*
G37*
G36*
X-487375Y490423D02*
G01*
X-487375Y470408D01*
X-377393Y470408D01*
X-377393Y490423D01*
G37*
G36*
X-487375Y530402D02*
G01*
X-487375Y510438D01*
X-377393Y510438D01*
X-377393Y530402D01*
G37*
G36*
X-487375Y570382D02*
G01*
X-487375Y550367D01*
X-377393Y550367D01*
X-377393Y570382D01*
G37*
G36*
X-487375Y610412D02*
G01*
X-487375Y590397D01*
X-377393Y590397D01*
X-377393Y610412D01*
G37*
G36*
X-487375Y650392D02*
G01*
X-487375Y630377D01*
X-377393Y630377D01*
X-377393Y650392D01*
G37*
G36*
X-487375Y690422D02*
G01*
X-487375Y670407D01*
X-377393Y670407D01*
X-377393Y690422D01*
G37*
G36*
X-487375Y730402D02*
G01*
X-487375Y710387D01*
X-377393Y710387D01*
X-377393Y730402D01*
G37*
G36*
X-487375Y770382D02*
G01*
X-487375Y750366D01*
X-377393Y750366D01*
X-377393Y770382D01*
G37*
G36*
X-487375Y810412D02*
G01*
X-487375Y790397D01*
X-377393Y790397D01*
X-377393Y810412D01*
G37*
G36*
X-487375Y850392D02*
G01*
X-487375Y830376D01*
X-377393Y830376D01*
X-377393Y850392D01*
G37*
G36*
X-487375Y890422D02*
G01*
X-487375Y870407D01*
X-377393Y870407D01*
X-377393Y890422D01*
G37*
G36*
X-487375Y930402D02*
G01*
X-487375Y910386D01*
X-377393Y910386D01*
X-377393Y930402D01*
G37*
G36*
X-537413Y1070406D02*
G01*
X-537413Y960374D01*
X-517398Y960374D01*
X-517398Y1070406D01*
G37*
G36*
X-577392Y1070406D02*
G01*
X-577392Y960374D01*
X-557377Y960374D01*
X-557377Y1070406D01*
G37*
G36*
X-617372Y1070406D02*
G01*
X-617372Y960374D01*
X-597408Y960374D01*
X-597408Y1070406D01*
G37*
G36*
X-657402Y1070406D02*
G01*
X-657402Y960374D01*
X-637387Y960374D01*
X-637387Y1070406D01*
G37*
G36*
X-697382Y1070406D02*
G01*
X-697382Y960374D01*
X-677418Y960374D01*
X-677418Y1070406D01*
G37*
G36*
X-737412Y1070406D02*
G01*
X-737412Y960374D01*
X-717397Y960374D01*
X-717397Y1070406D01*
G37*
G36*
X-777392Y1070406D02*
G01*
X-777392Y960374D01*
X-757377Y960374D01*
X-757377Y1070406D01*
G37*
G36*
X-817372Y1070406D02*
G01*
X-817372Y960374D01*
X-797407Y960374D01*
X-797407Y1070406D01*
G37*
G36*
X-857402Y1070406D02*
G01*
X-857402Y960374D01*
X-837387Y960374D01*
X-837387Y1070406D01*
G37*
G36*
X-897382Y1070406D02*
G01*
X-897382Y960374D01*
X-877417Y960374D01*
X-877417Y1070406D01*
G37*
G36*
X-937412Y1070406D02*
G01*
X-937412Y960374D01*
X-917397Y960374D01*
X-917397Y1070406D01*
G37*
G36*
X-977392Y1070406D02*
G01*
X-977392Y960374D01*
X-957376Y960374D01*
X-957376Y1070406D01*
G37*
G36*
X-1017371Y1070406D02*
G01*
X-1017371Y960374D01*
X-997407Y960374D01*
X-997407Y1070406D01*
G37*
G36*
X-1057402Y1070406D02*
G01*
X-1057402Y960374D01*
X-1037386Y960374D01*
X-1037386Y1070406D01*
G37*
G36*
X-1197406Y930402D02*
G01*
X-1197406Y910386D01*
X-1087424Y910386D01*
X-1087424Y930402D01*
G37*
G36*
X-1197406Y890422D02*
G01*
X-1197406Y870407D01*
X-1087424Y870407D01*
X-1087424Y890422D01*
G37*
G36*
X-1197406Y850392D02*
G01*
X-1197406Y830376D01*
X-1087424Y830376D01*
X-1087424Y850392D01*
G37*
G36*
X-1197406Y810412D02*
G01*
X-1197406Y790397D01*
X-1087424Y790397D01*
X-1087424Y810412D01*
G37*
G36*
X-1197406Y770382D02*
G01*
X-1197406Y750366D01*
X-1087424Y750366D01*
X-1087424Y770382D01*
G37*
G36*
X-1197406Y730402D02*
G01*
X-1197406Y710387D01*
X-1087424Y710387D01*
X-1087424Y730402D01*
G37*
G36*
X-1197406Y690422D02*
G01*
X-1197406Y670407D01*
X-1087424Y670407D01*
X-1087424Y690422D01*
G37*
G36*
X-1197406Y650392D02*
G01*
X-1197406Y630377D01*
X-1087424Y630377D01*
X-1087424Y650392D01*
G37*
G36*
X-1197406Y610412D02*
G01*
X-1197406Y590397D01*
X-1087424Y590397D01*
X-1087424Y610412D01*
G37*
G36*
X-1197406Y570382D02*
G01*
X-1197406Y550367D01*
X-1087424Y550367D01*
X-1087424Y570382D01*
G37*
G36*
X-1197406Y530402D02*
G01*
X-1197406Y510438D01*
X-1087424Y510438D01*
X-1087424Y530402D01*
G37*
G36*
X-1197406Y490423D02*
G01*
X-1197406Y470408D01*
X-1087424Y470408D01*
X-1087424Y490423D01*
G37*
G36*
X-1197406Y450392D02*
G01*
X-1197406Y430377D01*
X-1087424Y430377D01*
X-1087424Y450392D01*
G37*
G36*
X-1197406Y410413D02*
G01*
X-1197406Y390398D01*
X-1087424Y390398D01*
X-1087424Y410413D01*
G37*
G36*
X-1057402Y360426D02*
G01*
X-1057402Y250393D01*
X-1037386Y250393D01*
X-1037386Y360426D01*
G37*
G36*
X-1017371Y360426D02*
G01*
X-1017371Y250393D01*
X-997407Y250393D01*
X-997407Y360426D01*
G37*
G36*
X-977392Y360426D02*
G01*
X-977392Y250393D01*
X-957376Y250393D01*
X-957376Y360426D01*
G37*
G36*
X-937412Y360426D02*
G01*
X-937412Y250393D01*
X-917397Y250393D01*
X-917397Y360426D01*
G37*
G36*
X-897382Y360426D02*
G01*
X-897382Y250393D01*
X-877417Y250393D01*
X-877417Y360426D01*
G37*
G36*
X-857402Y360426D02*
G01*
X-857402Y250393D01*
X-837387Y250393D01*
X-837387Y360426D01*
G37*
G36*
X-817372Y360426D02*
G01*
X-817372Y250393D01*
X-797407Y250393D01*
X-797407Y360426D01*
G37*
G36*
X-777392Y360426D02*
G01*
X-777392Y250393D01*
X-757377Y250393D01*
X-757377Y360426D01*
G37*
G36*
X-737412Y360426D02*
G01*
X-737412Y250393D01*
X-717397Y250393D01*
X-717397Y360426D01*
G37*
G36*
X-697382Y360426D02*
G01*
X-697382Y250393D01*
X-677418Y250393D01*
X-677418Y360426D01*
G37*
G36*
X-657402Y360426D02*
G01*
X-657402Y250393D01*
X-637387Y250393D01*
X-637387Y360426D01*
G37*
G36*
X-617372Y360426D02*
G01*
X-617372Y250393D01*
X-597408Y250393D01*
X-597408Y360426D01*
G37*
G36*
X-577392Y360426D02*
G01*
X-577392Y250393D01*
X-557377Y250393D01*
X-557377Y360426D01*
G37*
G36*
X-537413Y360426D02*
G01*
X-537413Y250393D01*
X-517398Y250393D01*
X-517398Y360426D01*
G37*
G36*
X-932383Y595376D02*
G01*
X-932383Y515416D01*
X-852424Y515416D01*
X-852424Y595376D01*
G37*
G36*
X-722426Y595376D02*
G01*
X-722426Y515416D01*
X-642416Y515416D01*
X-642416Y595376D01*
G37*
G36*
X-722376Y805383D02*
G01*
X-722376Y725373D01*
X-642416Y725373D01*
X-642416Y805383D01*
G37*
G36*
X-932383Y805383D02*
G01*
X-932383Y725373D01*
X-852373Y725373D01*
X-852373Y805383D01*
G37*
G36*
X-932383Y700430D02*
G01*
X-932383Y620420D01*
X-852373Y620420D01*
X-852373Y700430D01*
G37*
G36*
X-827379Y595376D02*
G01*
X-827379Y515366D01*
X-747420Y515366D01*
X-747420Y595376D01*
G37*
G36*
X-722376Y700430D02*
G01*
X-722376Y620420D01*
X-642416Y620420D01*
X-642416Y700430D01*
G37*
G36*
X-827379Y700379D02*
G01*
X-827379Y620420D01*
X-747420Y620420D01*
X-747420Y700379D01*
G37*
G36*
X-827379Y805891D02*
G01*
X-827379Y725881D01*
X-747420Y725881D01*
X-747420Y805891D01*
G37*
G36*
X-954278Y116382D02*
G01*
X-959307Y111404D01*
X-959307Y66395D01*
X-954278Y61417D01*
X-901293Y61417D01*
X-896315Y66395D01*
X-896315Y111404D01*
X-901293Y116382D01*
G37*
G36*
X-851306Y116382D02*
G01*
X-856284Y111404D01*
X-856284Y66395D01*
X-851306Y61417D01*
X-798322Y61417D01*
X-793292Y66395D01*
X-793292Y111404D01*
X-798322Y116382D01*
G37*
G36*
X-1156106Y1119682D02*
G01*
X-1161084Y1114704D01*
X-1161084Y1069695D01*
X-1156106Y1064717D01*
X-1103071Y1064717D01*
X-1098092Y1069695D01*
X-1098092Y1114704D01*
X-1103071Y1119682D01*
G37*
G36*
X-1259078Y1119682D02*
G01*
X-1264107Y1114704D01*
X-1264107Y1069695D01*
X-1259078Y1064717D01*
X-1206093Y1064717D01*
X-1201115Y1069695D01*
X-1201115Y1114704D01*
X-1206093Y1119682D01*
G37*
G36*
X-1333906Y789482D02*
G01*
X-1338884Y784504D01*
X-1338884Y739495D01*
X-1333906Y734517D01*
X-1280871Y734517D01*
X-1275892Y739495D01*
X-1275892Y784504D01*
X-1280871Y789482D01*
G37*
G36*
X-1436878Y789482D02*
G01*
X-1441907Y784504D01*
X-1441907Y739495D01*
X-1436878Y734517D01*
X-1383893Y734517D01*
X-1378915Y739495D01*
X-1378915Y784504D01*
X-1383893Y789482D01*
G37*
G36*
X-314604Y424484D02*
G01*
X-319582Y419506D01*
X-319582Y366522D01*
X-314604Y361492D01*
X-269595Y361492D01*
X-264617Y366522D01*
X-264617Y419506D01*
X-269595Y424484D01*
G37*
G36*
X-314604Y527507D02*
G01*
X-319582Y522478D01*
X-319582Y469493D01*
X-314604Y464515D01*
X-269595Y464515D01*
X-264617Y469493D01*
X-264617Y522478D01*
X-269595Y527507D01*
G37*
G36*
X-213004Y424484D02*
G01*
X-217982Y419506D01*
X-217982Y366522D01*
X-213004Y361492D01*
X-167995Y361492D01*
X-163017Y366522D01*
X-163017Y419506D01*
X-167995Y424484D01*
G37*
G36*
X-213004Y527507D02*
G01*
X-217982Y522478D01*
X-217982Y469493D01*
X-213004Y464515D01*
X-167995Y464515D01*
X-163017Y469493D01*
X-163017Y522478D01*
X-167995Y527507D01*
G37*
G36*
X-268528Y802182D02*
G01*
X-273507Y797204D01*
X-273507Y752195D01*
X-268528Y747217D01*
X-215493Y747217D01*
X-210515Y752195D01*
X-210515Y797204D01*
X-215493Y802182D01*
G37*
G36*
X-165506Y802182D02*
G01*
X-170484Y797204D01*
X-170484Y752195D01*
X-165506Y747217D01*
X-112522Y747217D01*
X-107492Y752195D01*
X-107492Y797204D01*
X-112522Y802182D01*
G37*
G36*
X-103378Y1081582D02*
G01*
X-108407Y1076604D01*
X-108407Y1031595D01*
X-103378Y1026617D01*
X-50393Y1026617D01*
X-45415Y1031595D01*
X-45415Y1076604D01*
X-50393Y1081582D01*
G37*
G36*
X-406Y1081582D02*
G01*
X-5384Y1076604D01*
X-5384Y1031595D01*
X-406Y1026617D01*
X52578Y1026617D01*
X57607Y1031595D01*
X57607Y1076604D01*
X52578Y1081582D01*
G37*
G36*
X-1148181Y-43891D02*
G01*
X-1153210Y-48920D01*
X-1153210Y-128879D01*
X-1148181Y-133908D01*
X-1068222Y-133908D01*
X-1063193Y-128879D01*
X-1063193Y-106121D01*
X-1100175Y-106121D01*
X-1100175Y-73101D01*
X-1063193Y-73101D01*
X-1063193Y-48920D01*
X-1068222Y-43891D01*
G37*
G36*
X-988212Y-43891D02*
G01*
X-993190Y-48920D01*
X-993190Y-73101D01*
X-955192Y-73101D01*
X-955192Y-106121D01*
X-993190Y-106121D01*
X-993190Y-128879D01*
X-988212Y-133908D01*
X-909218Y-133908D01*
X-904189Y-128879D01*
X-904189Y-48920D01*
X-909218Y-43891D01*
G37*
D10*
G01*
X-4008716Y1955794D03*
G01*
X-3306467Y1955794D03*
G01*
X-4008716Y-5D03*
G01*
X-3306467Y-5D03*
D11*
G01*
X-3917942Y853693D03*
G01*
X-3917942Y623694D03*
G01*
X-3917942Y393694D03*
D12*
G01*
X-3346442Y623694D03*
D13*
G01*
X-3408484Y-355594D03*
G01*
X-3068480Y-355594D03*
G01*
X-3776784Y2312802D03*
G01*
X-3436780Y2312802D03*
D14*
G01*
X-4267182Y275595D03*
G01*
X-4267182Y105415D03*
G01*
X-4267182Y1705615D03*
G01*
X-4267182Y1875795D03*
D15*
G01*
X-474200Y1342288D03*
G01*
X-694199Y1342288D03*
D16*
G01*
X-694189Y1172291D03*
D17*
G01*
X-474200Y1172286D03*
D18*
G01*
X-442831Y252811D03*
G01*
X-442831Y202798D03*
G01*
X-442831Y152811D03*
G01*
X-442831Y102798D03*
G01*
X-141358Y252811D03*
G01*
X-141358Y202798D03*
G01*
X-141358Y152811D03*
G01*
X-141358Y102798D03*
D19*
G01*
X-292082Y177805D03*
D20*
G01*
X-301505Y1152428D03*
G01*
X-301505Y1057407D03*
G01*
X-206484Y1057407D03*
G01*
X-206484Y1152428D03*
D21*
G01*
X377741Y1690705D03*
G01*
X377741Y1790705D03*
G01*
X377741Y1890704D03*
D22*
G01*
X765243Y2020702D03*
G01*
X765243Y1560708D03*
D23*
G01*
X-1520502Y6101D03*
G01*
X-1520502Y-183890D03*
G01*
X-1273487Y-88894D03*
D21*
G01*
X377741Y2325705D03*
G01*
X377741Y2425705D03*
G01*
X377741Y2525704D03*
D22*
G01*
X765243Y2655702D03*
G01*
X765243Y2195708D03*
M02*
