G04 Layer: TopLayer*
G04 EasyEDA v6.5.29, 2023-07-19 21:43:04*
G04 f8bcf56a654e41728208f455603ead28,5a6b42c53f6a479593ecc07194224c93,10*
G04 Gerber Generator version 0.2*
G04 Scale: 100 percent, Rotated: No, Reflected: No *
G04 Dimensions in millimeters *
G04 leading zeros omitted , absolute positions ,4 integer and 5 decimal *
%FSLAX45Y45*%
%MOMM*%

%AMMACRO1*21,1,$1,$2,0,0,$3*%
%ADD10C,0.2540*%
%ADD11C,0.5000*%
%ADD12C,0.1270*%
%ADD13C,0.2000*%
%ADD14MACRO1,0.864X0.8065X0.0000*%
%ADD15R,0.8640X0.8065*%
%ADD16MACRO1,3.4992X1.4067X-90.0000*%
%ADD17MACRO1,2.592X2.2075X-90.0000*%
%ADD18MACRO1,1.05X2.465X-90.0000*%
%ADD19MACRO1,3.54X2.465X90.0000*%
%ADD20R,1.2000X0.9500*%
%ADD21MACRO1,1.377X1.1325X-90.0000*%
%ADD22R,0.8000X0.8000*%
%ADD23MACRO1,3.4992X1.4067X0.0000*%
%ADD24R,3.4992X1.4067*%
%ADD25MACRO1,0.54X0.7901X0.0000*%
%ADD26R,0.5400X0.7901*%
%ADD27MACRO1,0.54X0.7901X90.0000*%
%ADD28MACRO1,1.2X1.4X-90.0000*%
%ADD29R,1.4000X1.2000*%
%ADD30MACRO1,1.2X1.4X90.0000*%
%ADD31R,1.1000X0.2000*%
%ADD32R,0.2000X1.1000*%
%ADD33R,3.1000X3.1000*%
%ADD34MACRO1,0.54X0.7901X-90.0000*%
%ADD35R,0.6000X0.2800*%
%ADD36R,0.3000X1.7000*%
%ADD37R,0.5500X0.5500*%
%ADD38R,1.5500X0.6000*%
%ADD39R,2.0000X1.5000*%
%ADD40R,1.0700X0.6000*%
%ADD41MACRO1,0.864X0.8065X-90.0000*%
%ADD42C,1.0000*%
%ADD43MACRO1,1.8X1.8X90.0000*%
%ADD44C,1.8000*%
%ADD45R,1.5000X1.5000*%
%ADD46C,1.5000*%
%ADD47C,0.6096*%
%ADD48C,0.0162*%

%LPD*%
G36*
X-7266431Y-748792D02*
G01*
X-7270343Y-748030D01*
X-7273594Y-745794D01*
X-7275830Y-742543D01*
X-7276592Y-738632D01*
X-7276592Y2719832D01*
X-7275830Y2723692D01*
X-7273594Y2726994D01*
X-7270343Y2729230D01*
X-7266431Y2729992D01*
X629158Y2729992D01*
X633069Y2729230D01*
X636371Y2726994D01*
X638556Y2723692D01*
X639318Y2719832D01*
X639318Y2668422D01*
X752551Y2668422D01*
X752551Y2719832D01*
X753313Y2723692D01*
X755497Y2726994D01*
X758799Y2729230D01*
X762711Y2729992D01*
X767791Y2729992D01*
X771652Y2729230D01*
X774954Y2726994D01*
X777138Y2723692D01*
X777951Y2719832D01*
X777951Y2668422D01*
X814832Y2668422D01*
X818692Y2667609D01*
X821994Y2665425D01*
X824179Y2662123D01*
X824992Y2658262D01*
X824992Y2653182D01*
X824179Y2649270D01*
X821994Y2645968D01*
X818692Y2643784D01*
X814832Y2643022D01*
X777951Y2643022D01*
X777951Y2554782D01*
X814832Y2554782D01*
X818692Y2554020D01*
X821994Y2551836D01*
X824179Y2548534D01*
X824992Y2544622D01*
X824992Y2306726D01*
X824179Y2302865D01*
X821994Y2299563D01*
X818692Y2297379D01*
X814832Y2296566D01*
X777951Y2296566D01*
X777951Y2208377D01*
X814832Y2208377D01*
X818692Y2207615D01*
X821994Y2205380D01*
X824179Y2202129D01*
X824992Y2198217D01*
X824992Y2193137D01*
X824179Y2189276D01*
X821994Y2185974D01*
X818692Y2183739D01*
X814832Y2182977D01*
X777951Y2182977D01*
X777951Y2033422D01*
X814832Y2033422D01*
X818692Y2032609D01*
X821994Y2030425D01*
X824179Y2027123D01*
X824992Y2023262D01*
X824992Y2018182D01*
X824179Y2014270D01*
X821994Y2010968D01*
X818692Y2008784D01*
X814832Y2008022D01*
X777951Y2008022D01*
X777951Y1919782D01*
X814832Y1919782D01*
X818692Y1919020D01*
X821994Y1916836D01*
X824179Y1913534D01*
X824992Y1909622D01*
X824992Y1671726D01*
X824179Y1667865D01*
X821994Y1664563D01*
X818692Y1662379D01*
X814832Y1661566D01*
X777951Y1661566D01*
X777951Y1573377D01*
X814832Y1573377D01*
X818692Y1572615D01*
X821994Y1570431D01*
X824179Y1567129D01*
X824992Y1563217D01*
X824992Y1558137D01*
X824179Y1554276D01*
X821994Y1550974D01*
X818692Y1548739D01*
X814832Y1547977D01*
X777951Y1547977D01*
X777951Y1459788D01*
X814832Y1459788D01*
X818692Y1458976D01*
X821994Y1456791D01*
X824179Y1453489D01*
X824992Y1449628D01*
X824992Y-738632D01*
X824179Y-742543D01*
X821994Y-745794D01*
X818692Y-748030D01*
X814832Y-748792D01*
X-1788668Y-748792D01*
X-1792986Y-747826D01*
X-1796491Y-745185D01*
X-1798523Y-741273D01*
X-1798675Y-736854D01*
X-1796999Y-732790D01*
X-1792732Y-726694D01*
X-1788566Y-717753D01*
X-1786026Y-708304D01*
X-1785162Y-698500D01*
X-1786026Y-688695D01*
X-1788566Y-679246D01*
X-1792732Y-670306D01*
X-1798370Y-662279D01*
X-1805279Y-655320D01*
X-1813356Y-649681D01*
X-1821027Y-646125D01*
X-1823923Y-644093D01*
X-2194001Y-273964D01*
X-2196236Y-270713D01*
X-2196998Y-266801D01*
X-2196998Y2450592D01*
X-2196033Y2454859D01*
X-2194966Y2457196D01*
X-2192426Y2466695D01*
X-2191562Y2476449D01*
X-2192426Y2486253D01*
X-2194966Y2495753D01*
X-2199081Y2504643D01*
X-2204720Y2512720D01*
X-2211679Y2519629D01*
X-2219706Y2525268D01*
X-2228646Y2529433D01*
X-2238095Y2531973D01*
X-2247900Y2532837D01*
X-2257704Y2531973D01*
X-2267153Y2529433D01*
X-2276094Y2525268D01*
X-2284120Y2519629D01*
X-2291080Y2512720D01*
X-2296718Y2504643D01*
X-2300833Y2495753D01*
X-2303373Y2486253D01*
X-2304237Y2476449D01*
X-2303373Y2466695D01*
X-2300833Y2457196D01*
X-2299766Y2454859D01*
X-2298801Y2450592D01*
X-2298801Y-291896D01*
X-2298598Y-296519D01*
X-2298039Y-300939D01*
X-2297074Y-305257D01*
X-2295753Y-309524D01*
X-2294026Y-313588D01*
X-2291994Y-317550D01*
X-2289606Y-321310D01*
X-2286914Y-324815D01*
X-2283764Y-328269D01*
X-1895957Y-716026D01*
X-1893925Y-718921D01*
X-1890318Y-726694D01*
X-1886000Y-732790D01*
X-1884324Y-736854D01*
X-1884527Y-741273D01*
X-1886559Y-745185D01*
X-1890064Y-747826D01*
X-1894332Y-748792D01*
X-2220468Y-748792D01*
X-2224633Y-747928D01*
X-2228088Y-745388D01*
X-2230170Y-741680D01*
X-2230577Y-737463D01*
X-2229205Y-733450D01*
X-2226310Y-730300D01*
X-2224379Y-728980D01*
X-2217420Y-722020D01*
X-2211781Y-713994D01*
X-2207666Y-705053D01*
X-2205126Y-695604D01*
X-2204262Y-685800D01*
X-2205126Y-675995D01*
X-2207666Y-666546D01*
X-2208733Y-664159D01*
X-2209698Y-659892D01*
X-2209698Y-470103D01*
X-2209901Y-465480D01*
X-2210511Y-461060D01*
X-2211425Y-456742D01*
X-2212797Y-452475D01*
X-2214473Y-448411D01*
X-2216556Y-444449D01*
X-2218944Y-440690D01*
X-2221636Y-437184D01*
X-2224786Y-433730D01*
X-2287981Y-370586D01*
X-2291384Y-367436D01*
X-2294940Y-364693D01*
X-2298649Y-362305D01*
X-2302611Y-360273D01*
X-2306726Y-358597D01*
X-2310942Y-357225D01*
X-2315260Y-356260D01*
X-2319680Y-355701D01*
X-2324354Y-355498D01*
X-2832201Y-355498D01*
X-2836113Y-354736D01*
X-2839415Y-352501D01*
X-2872130Y-319786D01*
X-2875584Y-316636D01*
X-2879090Y-313944D01*
X-2882849Y-311556D01*
X-2886811Y-309473D01*
X-2890875Y-307797D01*
X-2895142Y-306425D01*
X-2899460Y-305511D01*
X-2903880Y-304901D01*
X-2908503Y-304698D01*
X-2975305Y-304698D01*
X-2979369Y-303834D01*
X-2982722Y-301447D01*
X-2985211Y-296875D01*
X-2988310Y-291998D01*
X-2992374Y-287883D01*
X-2997301Y-284835D01*
X-3002737Y-282905D01*
X-3009087Y-282194D01*
X-3127959Y-282194D01*
X-3134258Y-282905D01*
X-3139744Y-284835D01*
X-3144621Y-287883D01*
X-3148736Y-291998D01*
X-3151784Y-296875D01*
X-3153714Y-302361D01*
X-3154426Y-308660D01*
X-3154426Y-402539D01*
X-3153714Y-408838D01*
X-3151784Y-414324D01*
X-3148736Y-419201D01*
X-3144621Y-423316D01*
X-3139744Y-426415D01*
X-3134258Y-428294D01*
X-3127959Y-429006D01*
X-3009087Y-429006D01*
X-3002737Y-428294D01*
X-2997301Y-426415D01*
X-2992374Y-423316D01*
X-2988310Y-419201D01*
X-2985211Y-414324D01*
X-2982722Y-409752D01*
X-2979369Y-407365D01*
X-2975305Y-406501D01*
X-2933598Y-406501D01*
X-2929686Y-407314D01*
X-2926435Y-409498D01*
X-2893669Y-442264D01*
X-2890215Y-445414D01*
X-2886710Y-448106D01*
X-2882950Y-450494D01*
X-2879039Y-452526D01*
X-2874924Y-454253D01*
X-2870708Y-455574D01*
X-2866339Y-456539D01*
X-2861970Y-457098D01*
X-2857296Y-457301D01*
X-2349398Y-457301D01*
X-2345537Y-458063D01*
X-2342235Y-460298D01*
X-2314498Y-488035D01*
X-2312314Y-491337D01*
X-2311501Y-495198D01*
X-2311501Y-659942D01*
X-2312466Y-664210D01*
X-2313533Y-666546D01*
X-2316073Y-675995D01*
X-2316937Y-685800D01*
X-2316073Y-695604D01*
X-2313533Y-705053D01*
X-2309418Y-713994D01*
X-2303780Y-722020D01*
X-2296820Y-728980D01*
X-2294890Y-730300D01*
X-2291994Y-733450D01*
X-2290622Y-737463D01*
X-2291029Y-741680D01*
X-2293112Y-745388D01*
X-2296566Y-747928D01*
X-2300732Y-748792D01*
G37*

%LPC*%
G36*
X-2820060Y598271D02*
G01*
X-2717800Y598271D01*
X-2717800Y700684D01*
X-2719628Y700582D01*
X-2733954Y697839D01*
X-2747772Y693318D01*
X-2760929Y687120D01*
X-2773222Y679348D01*
X-2784449Y670052D01*
X-2794406Y659485D01*
X-2802940Y647700D01*
X-2809951Y634949D01*
X-2815336Y621385D01*
X-2818942Y607314D01*
G37*
G36*
X665784Y2554782D02*
G01*
X752551Y2554782D01*
X752551Y2643022D01*
X639318Y2643022D01*
X639318Y2581249D01*
X640029Y2574950D01*
X641959Y2569464D01*
X645007Y2564587D01*
X649122Y2560472D01*
X653999Y2557424D01*
X659485Y2555494D01*
G37*
G36*
X-6945122Y-697788D02*
G01*
X-6883400Y-697788D01*
X-6883400Y-609600D01*
X-6971588Y-609600D01*
X-6971588Y-671322D01*
X-6970877Y-677672D01*
X-6968998Y-683107D01*
X-6965899Y-688035D01*
X-6961835Y-692099D01*
X-6956907Y-695198D01*
X-6951472Y-697077D01*
G37*
G36*
X-7112000Y-697788D02*
G01*
X-7050278Y-697788D01*
X-7043928Y-697077D01*
X-7038492Y-695198D01*
X-7033564Y-692099D01*
X-7029500Y-688035D01*
X-7026402Y-683107D01*
X-7024522Y-677672D01*
X-7023811Y-671322D01*
X-7023811Y-609600D01*
X-7112000Y-609600D01*
G37*
G36*
X-7199122Y-697788D02*
G01*
X-7137400Y-697788D01*
X-7137400Y-609600D01*
X-7225588Y-609600D01*
X-7225588Y-671322D01*
X-7224877Y-677672D01*
X-7222998Y-683107D01*
X-7219899Y-688035D01*
X-7215835Y-692099D01*
X-7210907Y-695198D01*
X-7205472Y-697077D01*
G37*
G36*
X685800Y-697788D02*
G01*
X747522Y-697788D01*
X753821Y-697077D01*
X759307Y-695198D01*
X764184Y-692099D01*
X768299Y-688035D01*
X771347Y-683107D01*
X773277Y-677672D01*
X773988Y-671322D01*
X773988Y-609600D01*
X685800Y-609600D01*
G37*
G36*
X431800Y-697788D02*
G01*
X493522Y-697788D01*
X499821Y-697077D01*
X505307Y-695198D01*
X510184Y-692099D01*
X514299Y-688035D01*
X517347Y-683107D01*
X519277Y-677672D01*
X519988Y-671322D01*
X519988Y-609600D01*
X431800Y-609600D01*
G37*
G36*
X344678Y-697788D02*
G01*
X406400Y-697788D01*
X406400Y-609600D01*
X318160Y-609600D01*
X318160Y-671322D01*
X318871Y-677672D01*
X320802Y-683107D01*
X323900Y-688035D01*
X327964Y-692099D01*
X332892Y-695198D01*
X338328Y-697077D01*
G37*
G36*
X598627Y-697788D02*
G01*
X660400Y-697788D01*
X660400Y-609600D01*
X572160Y-609600D01*
X572160Y-671322D01*
X572871Y-677672D01*
X574802Y-683107D01*
X577850Y-688035D01*
X581964Y-692099D01*
X586841Y-695198D01*
X592328Y-697077D01*
G37*
G36*
X-6858000Y-697788D02*
G01*
X-6796278Y-697788D01*
X-6789978Y-697077D01*
X-6784492Y-695198D01*
X-6779615Y-692099D01*
X-6775500Y-688035D01*
X-6772402Y-683107D01*
X-6770522Y-677672D01*
X-6769811Y-671322D01*
X-6769811Y-609600D01*
X-6858000Y-609600D01*
G37*
G36*
X-3032810Y-678992D02*
G01*
X-2920746Y-678992D01*
X-2914396Y-678281D01*
X-2908960Y-676351D01*
X-2904032Y-673252D01*
X-2899968Y-669188D01*
X-2896870Y-664260D01*
X-2894939Y-658825D01*
X-2894228Y-652475D01*
X-2894228Y-638708D01*
X-2893466Y-634847D01*
X-2891282Y-631545D01*
X-2887980Y-629361D01*
X-2884068Y-628548D01*
X-2809646Y-628548D01*
X-2805734Y-629361D01*
X-2802432Y-631545D01*
X-2800248Y-634847D01*
X-2799486Y-638708D01*
X-2799486Y-647395D01*
X-2798775Y-653745D01*
X-2796844Y-659180D01*
X-2793796Y-664108D01*
X-2789682Y-668172D01*
X-2784805Y-671271D01*
X-2779318Y-673150D01*
X-2773019Y-673862D01*
X-2424226Y-673862D01*
X-2417876Y-673150D01*
X-2412441Y-671271D01*
X-2407513Y-668172D01*
X-2403449Y-664108D01*
X-2400350Y-659180D01*
X-2398471Y-653745D01*
X-2397760Y-647395D01*
X-2397760Y-507898D01*
X-2398471Y-501548D01*
X-2400350Y-496112D01*
X-2403449Y-491185D01*
X-2407513Y-487121D01*
X-2412441Y-484022D01*
X-2417876Y-482092D01*
X-2424226Y-481380D01*
X-2773019Y-481380D01*
X-2779318Y-482092D01*
X-2784805Y-484022D01*
X-2789682Y-487121D01*
X-2793796Y-491185D01*
X-2796844Y-496112D01*
X-2798775Y-501548D01*
X-2799486Y-507898D01*
X-2799486Y-516585D01*
X-2800248Y-520496D01*
X-2802432Y-523748D01*
X-2805734Y-525983D01*
X-2809646Y-526745D01*
X-2884068Y-526745D01*
X-2887726Y-526084D01*
X-2890926Y-524103D01*
X-2893161Y-521157D01*
X-2894177Y-517601D01*
X-2894990Y-509524D01*
X-2896870Y-504139D01*
X-2899968Y-499262D01*
X-2904032Y-495147D01*
X-2908960Y-492099D01*
X-2914396Y-490169D01*
X-2920746Y-489458D01*
X-3032810Y-489458D01*
X-3039160Y-490169D01*
X-3044596Y-492099D01*
X-3049524Y-495147D01*
X-3053588Y-499262D01*
X-3056686Y-504139D01*
X-3058617Y-509625D01*
X-3059328Y-515924D01*
X-3059328Y-652475D01*
X-3058617Y-658825D01*
X-3056686Y-664260D01*
X-3053588Y-669188D01*
X-3049524Y-673252D01*
X-3044596Y-676351D01*
X-3039160Y-678281D01*
G37*
G36*
X-3226104Y-678992D02*
G01*
X-3113989Y-678992D01*
X-3107639Y-678281D01*
X-3102203Y-676351D01*
X-3097276Y-673252D01*
X-3093212Y-669188D01*
X-3090113Y-664260D01*
X-3088233Y-658825D01*
X-3087471Y-652475D01*
X-3087471Y-515924D01*
X-3088233Y-509625D01*
X-3090113Y-504139D01*
X-3093212Y-499262D01*
X-3097276Y-495147D01*
X-3102203Y-492099D01*
X-3107639Y-490169D01*
X-3113989Y-489458D01*
X-3226104Y-489458D01*
X-3232404Y-490169D01*
X-3237890Y-492099D01*
X-3242767Y-495147D01*
X-3246882Y-499262D01*
X-3249930Y-504139D01*
X-3251860Y-509625D01*
X-3252571Y-515924D01*
X-3252571Y-523138D01*
X-3253333Y-526999D01*
X-3255517Y-530301D01*
X-3258820Y-532536D01*
X-3262731Y-533298D01*
X-3327501Y-533298D01*
X-3331413Y-532536D01*
X-3334715Y-530301D01*
X-3354628Y-510387D01*
X-3356864Y-507085D01*
X-3357626Y-503174D01*
X-3357626Y-439064D01*
X-3356965Y-435406D01*
X-3355035Y-432308D01*
X-3352139Y-430022D01*
X-3348583Y-428955D01*
X-3342741Y-428294D01*
X-3337306Y-426415D01*
X-3332378Y-423316D01*
X-3328314Y-419201D01*
X-3325215Y-414324D01*
X-3323336Y-408838D01*
X-3322624Y-402539D01*
X-3322624Y-308660D01*
X-3323336Y-302361D01*
X-3325215Y-296875D01*
X-3328314Y-291998D01*
X-3332378Y-287883D01*
X-3337306Y-284835D01*
X-3342741Y-282905D01*
X-3349091Y-282194D01*
X-3467963Y-282194D01*
X-3474262Y-282905D01*
X-3479698Y-284835D01*
X-3484626Y-287883D01*
X-3488690Y-291998D01*
X-3491788Y-296875D01*
X-3493719Y-302361D01*
X-3494430Y-308660D01*
X-3494430Y-402539D01*
X-3493719Y-408838D01*
X-3491788Y-414324D01*
X-3488690Y-419201D01*
X-3484626Y-423316D01*
X-3479698Y-426415D01*
X-3474262Y-428294D01*
X-3468471Y-428955D01*
X-3464915Y-430022D01*
X-3462020Y-432257D01*
X-3460089Y-435406D01*
X-3459429Y-439064D01*
X-3459429Y-528269D01*
X-3459226Y-532942D01*
X-3458667Y-537311D01*
X-3457701Y-541680D01*
X-3456330Y-545896D01*
X-3454654Y-550011D01*
X-3452622Y-553923D01*
X-3450234Y-557682D01*
X-3447491Y-561187D01*
X-3444341Y-564642D01*
X-3388969Y-620014D01*
X-3385515Y-623163D01*
X-3382010Y-625906D01*
X-3378250Y-628294D01*
X-3374339Y-630326D01*
X-3370224Y-632002D01*
X-3366008Y-633374D01*
X-3361639Y-634339D01*
X-3357270Y-634898D01*
X-3352596Y-635101D01*
X-3262731Y-635101D01*
X-3258820Y-635863D01*
X-3255517Y-638098D01*
X-3253333Y-641400D01*
X-3252571Y-645261D01*
X-3252571Y-652475D01*
X-3251860Y-658825D01*
X-3249930Y-664260D01*
X-3246882Y-669188D01*
X-3242767Y-673252D01*
X-3237890Y-676351D01*
X-3232404Y-678281D01*
G37*
G36*
X274320Y2438400D02*
G01*
X365048Y2438400D01*
X365048Y2459634D01*
X365810Y2463546D01*
X367995Y2466797D01*
X371297Y2469032D01*
X375208Y2469794D01*
X380288Y2469794D01*
X384149Y2469032D01*
X387451Y2466797D01*
X389636Y2463546D01*
X390448Y2459634D01*
X390448Y2438400D01*
X481126Y2438400D01*
X481126Y2455113D01*
X480415Y2461463D01*
X478535Y2466898D01*
X476402Y2470302D01*
X475030Y2473807D01*
X475030Y2477566D01*
X476402Y2481122D01*
X478535Y2484475D01*
X480415Y2489962D01*
X481126Y2496261D01*
X481126Y2555138D01*
X480415Y2561437D01*
X478535Y2566924D01*
X475437Y2571800D01*
X471322Y2575915D01*
X466445Y2578963D01*
X460959Y2580894D01*
X454659Y2581605D01*
X300786Y2581605D01*
X294487Y2580894D01*
X289001Y2578963D01*
X284124Y2575915D01*
X280009Y2571800D01*
X276961Y2566924D01*
X276199Y2564739D01*
X274066Y2561183D01*
X270662Y2558796D01*
X266598Y2557932D01*
X166624Y2557932D01*
X163423Y2558491D01*
X160578Y2559964D01*
X157429Y2563520D01*
X150520Y2570480D01*
X142443Y2576118D01*
X133553Y2580233D01*
X124053Y2582773D01*
X114300Y2583637D01*
X104495Y2582773D01*
X94996Y2580233D01*
X86106Y2576118D01*
X78028Y2570480D01*
X71120Y2563520D01*
X65481Y2555494D01*
X61315Y2546553D01*
X58775Y2537104D01*
X57912Y2527300D01*
X58775Y2517495D01*
X61315Y2508046D01*
X65481Y2499106D01*
X71120Y2491079D01*
X78028Y2484120D01*
X86106Y2478481D01*
X94996Y2474366D01*
X104495Y2471826D01*
X114300Y2470962D01*
X124053Y2471826D01*
X133553Y2474366D01*
X142443Y2478481D01*
X150520Y2484120D01*
X156819Y2490470D01*
X160121Y2492654D01*
X164033Y2493416D01*
X266598Y2493416D01*
X270662Y2492603D01*
X274066Y2490216D01*
X276199Y2486660D01*
X276961Y2484475D01*
X279095Y2481122D01*
X280466Y2477566D01*
X280466Y2473807D01*
X279095Y2470302D01*
X276961Y2466898D01*
X275031Y2461463D01*
X274320Y2455113D01*
G37*
G36*
X-7112000Y-584200D02*
G01*
X-7023811Y-584200D01*
X-7023811Y-522478D01*
X-7024522Y-516178D01*
X-7026402Y-510692D01*
X-7029500Y-505815D01*
X-7033564Y-501700D01*
X-7038492Y-498601D01*
X-7043928Y-496722D01*
X-7050278Y-496011D01*
X-7112000Y-496011D01*
G37*
G36*
X-7225588Y-584200D02*
G01*
X-7137400Y-584200D01*
X-7137400Y-496011D01*
X-7199122Y-496011D01*
X-7205472Y-496722D01*
X-7210907Y-498601D01*
X-7215835Y-501700D01*
X-7219899Y-505815D01*
X-7222998Y-510692D01*
X-7224877Y-516178D01*
X-7225588Y-522478D01*
G37*
G36*
X-6971588Y-584200D02*
G01*
X-6883400Y-584200D01*
X-6883400Y-496011D01*
X-6945122Y-496011D01*
X-6951472Y-496722D01*
X-6956907Y-498601D01*
X-6961835Y-501700D01*
X-6965899Y-505815D01*
X-6968998Y-510692D01*
X-6970877Y-516178D01*
X-6971588Y-522478D01*
G37*
G36*
X-6858000Y-584200D02*
G01*
X-6769811Y-584200D01*
X-6769811Y-522478D01*
X-6770522Y-516178D01*
X-6772402Y-510692D01*
X-6775500Y-505815D01*
X-6779615Y-501700D01*
X-6784492Y-498601D01*
X-6789978Y-496722D01*
X-6796278Y-496011D01*
X-6858000Y-496011D01*
G37*
G36*
X572160Y-584200D02*
G01*
X660400Y-584200D01*
X660400Y-496011D01*
X598627Y-496011D01*
X592328Y-496722D01*
X586841Y-498601D01*
X581964Y-501700D01*
X577850Y-505815D01*
X574802Y-510692D01*
X572871Y-516178D01*
X572160Y-522478D01*
G37*
G36*
X685800Y-584200D02*
G01*
X773988Y-584200D01*
X773988Y-522478D01*
X773277Y-516178D01*
X771347Y-510692D01*
X768299Y-505815D01*
X764184Y-501700D01*
X759307Y-498601D01*
X753821Y-496722D01*
X747522Y-496011D01*
X685800Y-496011D01*
G37*
G36*
X318160Y-584200D02*
G01*
X406400Y-584200D01*
X406400Y-496011D01*
X344678Y-496011D01*
X338328Y-496722D01*
X332892Y-498601D01*
X327964Y-501700D01*
X323900Y-505815D01*
X320802Y-510692D01*
X318871Y-516178D01*
X318160Y-522478D01*
G37*
G36*
X431800Y-584200D02*
G01*
X519988Y-584200D01*
X519988Y-522478D01*
X519277Y-516178D01*
X517347Y-510692D01*
X514299Y-505815D01*
X510184Y-501700D01*
X505307Y-498601D01*
X499821Y-496722D01*
X493522Y-496011D01*
X431800Y-496011D01*
G37*
G36*
X-165100Y2267762D02*
G01*
X-155346Y2268626D01*
X-145846Y2271166D01*
X-136956Y2275281D01*
X-128879Y2280920D01*
X-121970Y2287879D01*
X-118821Y2291435D01*
X-115976Y2292908D01*
X-112776Y2293416D01*
X266598Y2293416D01*
X270662Y2292604D01*
X274066Y2290216D01*
X276199Y2286660D01*
X276961Y2284476D01*
X280009Y2279548D01*
X284124Y2275484D01*
X289001Y2272385D01*
X294487Y2270506D01*
X300786Y2269744D01*
X454659Y2269744D01*
X460959Y2270506D01*
X466445Y2272385D01*
X471322Y2275484D01*
X475437Y2279548D01*
X478535Y2284476D01*
X480415Y2289911D01*
X481126Y2296261D01*
X481126Y2355088D01*
X480415Y2361438D01*
X478535Y2366873D01*
X476402Y2370277D01*
X474980Y2373782D01*
X474980Y2377592D01*
X476402Y2381097D01*
X478535Y2384501D01*
X480415Y2389936D01*
X481126Y2396286D01*
X481126Y2413000D01*
X390448Y2413000D01*
X390448Y2391765D01*
X389636Y2387854D01*
X387451Y2384552D01*
X384149Y2382367D01*
X380288Y2381605D01*
X375208Y2381605D01*
X371297Y2382367D01*
X367995Y2384552D01*
X365810Y2387854D01*
X365048Y2391765D01*
X365048Y2413000D01*
X274320Y2413000D01*
X274320Y2396286D01*
X275031Y2389936D01*
X276961Y2384501D01*
X279095Y2381097D01*
X280466Y2377592D01*
X280466Y2373782D01*
X279095Y2370277D01*
X276961Y2366873D01*
X276199Y2364740D01*
X274066Y2361184D01*
X270662Y2358796D01*
X266598Y2357932D01*
X-115366Y2357932D01*
X-119278Y2358745D01*
X-122580Y2360930D01*
X-128879Y2367280D01*
X-136956Y2372918D01*
X-145846Y2377033D01*
X-155346Y2379573D01*
X-165100Y2380437D01*
X-174904Y2379573D01*
X-184404Y2377033D01*
X-193294Y2372918D01*
X-201371Y2367280D01*
X-208279Y2360320D01*
X-213918Y2352294D01*
X-218084Y2343353D01*
X-220624Y2333904D01*
X-221488Y2324100D01*
X-220624Y2314295D01*
X-218084Y2304846D01*
X-213918Y2295906D01*
X-208279Y2287879D01*
X-201371Y2280920D01*
X-193294Y2275281D01*
X-184404Y2271166D01*
X-174904Y2268626D01*
G37*
G36*
X-3221177Y2218029D02*
G01*
X-3109061Y2218029D01*
X-3102762Y2218740D01*
X-3097276Y2220620D01*
X-3092399Y2223719D01*
X-3088284Y2227834D01*
X-3085236Y2232710D01*
X-3083306Y2238197D01*
X-3082594Y2244496D01*
X-3082594Y2381046D01*
X-3083306Y2387396D01*
X-3085236Y2392832D01*
X-3088284Y2397760D01*
X-3092399Y2401824D01*
X-3097276Y2404922D01*
X-3102762Y2406802D01*
X-3109061Y2407513D01*
X-3221177Y2407513D01*
X-3227527Y2406802D01*
X-3232962Y2404922D01*
X-3237890Y2401824D01*
X-3241954Y2397760D01*
X-3245053Y2392832D01*
X-3246932Y2387396D01*
X-3247644Y2381046D01*
X-3247644Y2373833D01*
X-3248456Y2369972D01*
X-3250641Y2366670D01*
X-3253943Y2364486D01*
X-3257803Y2363673D01*
X-3343605Y2363673D01*
X-3347669Y2364536D01*
X-3351022Y2366924D01*
X-3353511Y2371496D01*
X-3356610Y2376424D01*
X-3360674Y2380488D01*
X-3365601Y2383586D01*
X-3371037Y2385466D01*
X-3377387Y2386177D01*
X-3496259Y2386177D01*
X-3502558Y2385466D01*
X-3508044Y2383586D01*
X-3512921Y2380488D01*
X-3517036Y2376424D01*
X-3520084Y2371496D01*
X-3522014Y2366060D01*
X-3522726Y2359710D01*
X-3522726Y2265883D01*
X-3522014Y2259533D01*
X-3520084Y2254097D01*
X-3517036Y2249170D01*
X-3512921Y2245106D01*
X-3508044Y2242007D01*
X-3502558Y2240076D01*
X-3496259Y2239365D01*
X-3377387Y2239365D01*
X-3371037Y2240076D01*
X-3365601Y2242007D01*
X-3360674Y2245106D01*
X-3356610Y2249170D01*
X-3353511Y2254097D01*
X-3351022Y2258618D01*
X-3347669Y2261057D01*
X-3343605Y2261870D01*
X-3257803Y2261870D01*
X-3253943Y2261108D01*
X-3250641Y2258923D01*
X-3248456Y2255621D01*
X-3247644Y2251710D01*
X-3247644Y2244496D01*
X-3246932Y2238197D01*
X-3245053Y2232710D01*
X-3241954Y2227834D01*
X-3237890Y2223719D01*
X-3232962Y2220620D01*
X-3227527Y2218740D01*
G37*
G36*
X-1917700Y-450037D02*
G01*
X-1907946Y-449173D01*
X-1898446Y-446633D01*
X-1889556Y-442518D01*
X-1881479Y-436880D01*
X-1874570Y-429920D01*
X-1868932Y-421893D01*
X-1864766Y-412953D01*
X-1862226Y-403504D01*
X-1861362Y-393700D01*
X-1862226Y-383895D01*
X-1864766Y-374446D01*
X-1868932Y-365506D01*
X-1874570Y-357479D01*
X-1881479Y-350520D01*
X-1889556Y-344881D01*
X-1897227Y-341325D01*
X-1900123Y-339293D01*
X-1940052Y-299364D01*
X-1942236Y-296062D01*
X-1942998Y-292201D01*
X-1942998Y-170535D01*
X-1942033Y-166268D01*
X-1941169Y-165100D01*
X-1942033Y-163931D01*
X-1942998Y-159664D01*
X-1942998Y-45262D01*
X-1942033Y-40995D01*
X-1939848Y-38100D01*
X-1942033Y-35204D01*
X-1942998Y-30937D01*
X-1942998Y107137D01*
X-1942033Y111404D01*
X-1939848Y114300D01*
X-1942033Y117195D01*
X-1942998Y121462D01*
X-1942998Y2577592D01*
X-1942033Y2581859D01*
X-1940966Y2584196D01*
X-1938426Y2593695D01*
X-1937562Y2603500D01*
X-1938426Y2613253D01*
X-1940966Y2622753D01*
X-1945132Y2631643D01*
X-1950770Y2639720D01*
X-1957679Y2646680D01*
X-1965756Y2652268D01*
X-1974646Y2656433D01*
X-1984146Y2658973D01*
X-1993900Y2659837D01*
X-2003704Y2658973D01*
X-2013204Y2656433D01*
X-2022093Y2652268D01*
X-2030120Y2646680D01*
X-2037080Y2639720D01*
X-2042718Y2631643D01*
X-2046884Y2622753D01*
X-2049424Y2613253D01*
X-2050237Y2603500D01*
X-2049424Y2593695D01*
X-2046884Y2584196D01*
X-2045766Y2581859D01*
X-2044801Y2577592D01*
X-2044801Y-317246D01*
X-2044598Y-321919D01*
X-2044039Y-326339D01*
X-2043074Y-330657D01*
X-2041753Y-334873D01*
X-2040026Y-338988D01*
X-2037994Y-342950D01*
X-2035606Y-346659D01*
X-2032914Y-350215D01*
X-2029764Y-353618D01*
X-1972157Y-411226D01*
X-1970125Y-414121D01*
X-1966518Y-421893D01*
X-1960880Y-429920D01*
X-1953920Y-436880D01*
X-1945893Y-442518D01*
X-1937004Y-446633D01*
X-1927504Y-449173D01*
G37*
G36*
X412343Y-443585D02*
G01*
X425805Y-443585D01*
X439166Y-441756D01*
X452170Y-438200D01*
X464566Y-432968D01*
X476199Y-426059D01*
X486765Y-417728D01*
X496112Y-408025D01*
X504139Y-397205D01*
X510590Y-385368D01*
X515416Y-372770D01*
X518566Y-359664D01*
X519887Y-346252D01*
X519480Y-332790D01*
X517194Y-319532D01*
X513232Y-306628D01*
X507542Y-294436D01*
X500278Y-283057D01*
X491591Y-272796D01*
X481584Y-263753D01*
X470509Y-256082D01*
X458470Y-250037D01*
X445719Y-245617D01*
X432511Y-242925D01*
X419100Y-242011D01*
X405638Y-242925D01*
X392430Y-245617D01*
X379679Y-250037D01*
X367690Y-256082D01*
X356565Y-263753D01*
X346557Y-272796D01*
X337870Y-283057D01*
X330606Y-294436D01*
X324916Y-306628D01*
X320954Y-319532D01*
X318719Y-332790D01*
X318262Y-346252D01*
X319582Y-359664D01*
X322732Y-372770D01*
X327558Y-385368D01*
X334060Y-397205D01*
X342036Y-408025D01*
X351434Y-417728D01*
X362000Y-426059D01*
X373583Y-432968D01*
X385978Y-438200D01*
X398983Y-441756D01*
G37*
G36*
X666343Y-443585D02*
G01*
X679805Y-443585D01*
X693166Y-441756D01*
X706170Y-438200D01*
X718566Y-432968D01*
X730199Y-426059D01*
X740765Y-417728D01*
X750112Y-408025D01*
X758139Y-397205D01*
X764590Y-385368D01*
X769416Y-372770D01*
X772566Y-359664D01*
X773887Y-346252D01*
X773480Y-332790D01*
X771194Y-319532D01*
X767232Y-306628D01*
X761542Y-294436D01*
X754278Y-283057D01*
X745591Y-272796D01*
X735584Y-263753D01*
X724509Y-256082D01*
X712470Y-250037D01*
X699719Y-245617D01*
X686511Y-242925D01*
X673100Y-242011D01*
X659638Y-242925D01*
X646430Y-245617D01*
X633679Y-250037D01*
X621690Y-256082D01*
X610565Y-263753D01*
X600557Y-272796D01*
X591870Y-283057D01*
X584606Y-294436D01*
X578916Y-306628D01*
X574954Y-319532D01*
X572719Y-332790D01*
X572262Y-346252D01*
X573582Y-359664D01*
X576732Y-372770D01*
X581558Y-385368D01*
X588060Y-397205D01*
X596036Y-408025D01*
X605383Y-417728D01*
X616000Y-426059D01*
X627583Y-432968D01*
X639978Y-438200D01*
X652983Y-441756D01*
G37*
G36*
X-6877456Y-443585D02*
G01*
X-6863943Y-443585D01*
X-6850634Y-441756D01*
X-6837629Y-438200D01*
X-6825183Y-432968D01*
X-6813600Y-426059D01*
X-6803034Y-417728D01*
X-6793687Y-408025D01*
X-6785660Y-397205D01*
X-6779209Y-385368D01*
X-6774332Y-372770D01*
X-6771233Y-359664D01*
X-6769862Y-346252D01*
X-6770319Y-332790D01*
X-6772554Y-319532D01*
X-6776567Y-306628D01*
X-6782257Y-294436D01*
X-6789470Y-283057D01*
X-6798208Y-272796D01*
X-6808165Y-263753D01*
X-6819290Y-256082D01*
X-6831330Y-250037D01*
X-6844030Y-245617D01*
X-6857238Y-242925D01*
X-6870700Y-242011D01*
X-6884162Y-242925D01*
X-6897370Y-245617D01*
X-6910070Y-250037D01*
X-6922109Y-256082D01*
X-6933234Y-263753D01*
X-6943242Y-272796D01*
X-6951929Y-283057D01*
X-6959193Y-294436D01*
X-6964832Y-306628D01*
X-6968845Y-319532D01*
X-6971080Y-332790D01*
X-6971538Y-346252D01*
X-6970166Y-359664D01*
X-6967067Y-372770D01*
X-6962241Y-385368D01*
X-6955739Y-397205D01*
X-6947763Y-408025D01*
X-6938365Y-417728D01*
X-6927799Y-426059D01*
X-6916216Y-432968D01*
X-6903821Y-438200D01*
X-6890816Y-441756D01*
G37*
G36*
X-7131456Y-443585D02*
G01*
X-7117943Y-443585D01*
X-7104583Y-441756D01*
X-7091629Y-438200D01*
X-7079183Y-432968D01*
X-7067600Y-426059D01*
X-7057034Y-417728D01*
X-7047636Y-408025D01*
X-7039660Y-397205D01*
X-7033209Y-385368D01*
X-7028332Y-372770D01*
X-7025233Y-359664D01*
X-7023862Y-346252D01*
X-7024319Y-332790D01*
X-7026554Y-319532D01*
X-7030567Y-306628D01*
X-7036206Y-294436D01*
X-7043470Y-283057D01*
X-7052208Y-272796D01*
X-7062165Y-263753D01*
X-7073290Y-256082D01*
X-7085330Y-250037D01*
X-7098030Y-245617D01*
X-7111238Y-242925D01*
X-7124700Y-242011D01*
X-7138162Y-242925D01*
X-7151370Y-245617D01*
X-7164070Y-250037D01*
X-7176109Y-256082D01*
X-7187234Y-263753D01*
X-7197242Y-272796D01*
X-7205929Y-283057D01*
X-7213193Y-294436D01*
X-7218832Y-306628D01*
X-7222845Y-319532D01*
X-7225080Y-332790D01*
X-7225538Y-346252D01*
X-7224166Y-359664D01*
X-7221067Y-372770D01*
X-7216190Y-385368D01*
X-7209739Y-397205D01*
X-7201763Y-408025D01*
X-7192365Y-417728D01*
X-7181799Y-426059D01*
X-7170216Y-432968D01*
X-7157770Y-438200D01*
X-7144816Y-441756D01*
G37*
G36*
X-3027934Y2218029D02*
G01*
X-2915818Y2218029D01*
X-2909519Y2218740D01*
X-2904032Y2220620D01*
X-2899156Y2223719D01*
X-2895041Y2227834D01*
X-2891942Y2232710D01*
X-2890062Y2238197D01*
X-2889351Y2244496D01*
X-2889351Y2251710D01*
X-2888589Y2255621D01*
X-2886354Y2258923D01*
X-2883052Y2261108D01*
X-2879191Y2261870D01*
X-2840380Y2261870D01*
X-2836113Y2260904D01*
X-2833776Y2259838D01*
X-2824276Y2257298D01*
X-2814472Y2256434D01*
X-2804718Y2257298D01*
X-2795219Y2259838D01*
X-2786329Y2264003D01*
X-2778252Y2269642D01*
X-2771343Y2276551D01*
X-2765704Y2284628D01*
X-2761538Y2293518D01*
X-2758998Y2303018D01*
X-2758135Y2312771D01*
X-2758998Y2322576D01*
X-2761538Y2332075D01*
X-2765704Y2340965D01*
X-2771343Y2349042D01*
X-2778252Y2355951D01*
X-2786329Y2361590D01*
X-2795219Y2365756D01*
X-2804718Y2368296D01*
X-2814472Y2369159D01*
X-2824276Y2368296D01*
X-2833776Y2365756D01*
X-2836113Y2364638D01*
X-2840431Y2363673D01*
X-2879191Y2363673D01*
X-2883052Y2364486D01*
X-2886354Y2366670D01*
X-2888589Y2369972D01*
X-2889351Y2373833D01*
X-2889351Y2381046D01*
X-2890062Y2387396D01*
X-2891942Y2392832D01*
X-2895041Y2397760D01*
X-2899156Y2401824D01*
X-2904032Y2404922D01*
X-2909519Y2406802D01*
X-2915818Y2407513D01*
X-3027934Y2407513D01*
X-3034233Y2406802D01*
X-3039719Y2404922D01*
X-3044596Y2401824D01*
X-3048711Y2397760D01*
X-3051810Y2392832D01*
X-3053689Y2387396D01*
X-3054400Y2381046D01*
X-3054400Y2244496D01*
X-3053689Y2238197D01*
X-3051810Y2232710D01*
X-3048711Y2227834D01*
X-3044596Y2223719D01*
X-3039719Y2220620D01*
X-3034233Y2218740D01*
G37*
G36*
X-1816100Y-348437D02*
G01*
X-1806346Y-347573D01*
X-1796846Y-345033D01*
X-1787956Y-340918D01*
X-1779930Y-335280D01*
X-1772107Y-327355D01*
X-1768805Y-325120D01*
X-1764893Y-324358D01*
X-191008Y-324358D01*
X-183794Y-323596D01*
X-177393Y-321513D01*
X-171450Y-318109D01*
X-167386Y-314604D01*
X88392Y-58826D01*
X92100Y-56489D01*
X96469Y-55880D01*
X101600Y-56337D01*
X111404Y-55473D01*
X120853Y-52933D01*
X129794Y-48818D01*
X137820Y-43180D01*
X144780Y-36220D01*
X150418Y-28194D01*
X154533Y-19253D01*
X157073Y-9804D01*
X157937Y0D01*
X157073Y9804D01*
X154533Y19253D01*
X150418Y28194D01*
X144780Y36220D01*
X137820Y43180D01*
X129794Y48818D01*
X120853Y52933D01*
X111404Y55473D01*
X101600Y56337D01*
X91795Y55473D01*
X82346Y52933D01*
X73406Y48818D01*
X65379Y43180D01*
X57962Y35763D01*
X54660Y33578D01*
X50800Y32766D01*
X46888Y33578D01*
X43586Y35763D01*
X36220Y43180D01*
X28143Y48818D01*
X19253Y52933D01*
X9753Y55473D01*
X0Y56337D01*
X-9804Y55473D01*
X-19304Y52933D01*
X-28194Y48818D01*
X-36271Y43180D01*
X-43180Y36220D01*
X-48818Y28194D01*
X-52984Y19253D01*
X-55524Y9804D01*
X-56388Y0D01*
X-55930Y-5181D01*
X-56489Y-9499D01*
X-58877Y-13208D01*
X-264414Y-218795D01*
X-267716Y-220979D01*
X-271576Y-221742D01*
X-1430934Y-221742D01*
X-1434846Y-220979D01*
X-1438097Y-218795D01*
X-1440332Y-215493D01*
X-1441094Y-211582D01*
X-1441094Y-196596D01*
X-1507794Y-196596D01*
X-1507794Y-211582D01*
X-1508556Y-215493D01*
X-1510792Y-218795D01*
X-1514094Y-220979D01*
X-1517954Y-221742D01*
X-1523034Y-221742D01*
X-1526946Y-220979D01*
X-1530248Y-218795D01*
X-1532432Y-215493D01*
X-1533194Y-211582D01*
X-1533194Y-196596D01*
X-1599895Y-196596D01*
X-1599895Y-211582D01*
X-1600708Y-215493D01*
X-1602892Y-218795D01*
X-1606194Y-220979D01*
X-1610055Y-221742D01*
X-1633423Y-221742D01*
X-1637334Y-220979D01*
X-1640636Y-218795D01*
X-1716735Y-142697D01*
X-1722374Y-138074D01*
X-1728368Y-135026D01*
X-1735023Y-133248D01*
X-1740306Y-132842D01*
X-1815541Y-132842D01*
X-1819452Y-132080D01*
X-1822754Y-129844D01*
X-1830578Y-121920D01*
X-1838604Y-116281D01*
X-1847494Y-112166D01*
X-1850339Y-111404D01*
X-1854200Y-109372D01*
X-1856892Y-105867D01*
X-1857857Y-101600D01*
X-1856892Y-97282D01*
X-1854200Y-93776D01*
X-1850339Y-91744D01*
X-1847646Y-91033D01*
X-1838756Y-86918D01*
X-1830679Y-81280D01*
X-1823770Y-74320D01*
X-1818132Y-66294D01*
X-1813966Y-57353D01*
X-1811426Y-47904D01*
X-1810562Y-38100D01*
X-1811020Y-32969D01*
X-1810461Y-28600D01*
X-1808073Y-24892D01*
X-1780997Y2184D01*
X-1776425Y7823D01*
X-1773377Y13868D01*
X-1771599Y20472D01*
X-1771142Y25806D01*
X-1771142Y820928D01*
X-1770430Y824788D01*
X-1768297Y828040D01*
X-1765046Y830275D01*
X-1761236Y831087D01*
X-1757425Y830427D01*
X-1754073Y828395D01*
X-1751787Y825246D01*
X-1750618Y822706D01*
X-1744980Y814679D01*
X-1738071Y807720D01*
X-1729993Y802081D01*
X-1723948Y799287D01*
X-1721053Y797255D01*
X-1719021Y794359D01*
X-1718106Y790956D01*
X-1718411Y787450D01*
X-1719224Y784504D01*
X-1720088Y774700D01*
X-1719224Y764895D01*
X-1716684Y755446D01*
X-1712518Y746506D01*
X-1706880Y738479D01*
X-1699971Y731520D01*
X-1691893Y725881D01*
X-1685848Y723087D01*
X-1682953Y721055D01*
X-1680921Y718159D01*
X-1680006Y714756D01*
X-1680311Y711250D01*
X-1681124Y708304D01*
X-1681988Y698500D01*
X-1681124Y688695D01*
X-1678584Y679246D01*
X-1674418Y670306D01*
X-1668780Y662279D01*
X-1661871Y655320D01*
X-1653793Y649681D01*
X-1647748Y646887D01*
X-1644853Y644855D01*
X-1642821Y641959D01*
X-1641906Y638556D01*
X-1642211Y635050D01*
X-1643024Y632104D01*
X-1643888Y622300D01*
X-1643024Y612495D01*
X-1640484Y603046D01*
X-1636318Y594106D01*
X-1630680Y586079D01*
X-1623771Y579120D01*
X-1615694Y573481D01*
X-1609648Y570687D01*
X-1606753Y568655D01*
X-1604721Y565759D01*
X-1603806Y562356D01*
X-1604111Y558850D01*
X-1604924Y555904D01*
X-1605788Y546100D01*
X-1604924Y536295D01*
X-1602384Y526846D01*
X-1598218Y517906D01*
X-1592580Y509879D01*
X-1585671Y502920D01*
X-1577594Y497281D01*
X-1571548Y494487D01*
X-1568653Y492455D01*
X-1566621Y489559D01*
X-1565706Y486156D01*
X-1566011Y482650D01*
X-1566824Y479704D01*
X-1567688Y469900D01*
X-1566824Y460095D01*
X-1564284Y450646D01*
X-1560118Y441706D01*
X-1554480Y433679D01*
X-1547571Y426720D01*
X-1539494Y421081D01*
X-1533448Y418287D01*
X-1530553Y416255D01*
X-1528521Y413359D01*
X-1527606Y409956D01*
X-1527911Y406450D01*
X-1528724Y403504D01*
X-1529588Y393700D01*
X-1528724Y383895D01*
X-1526184Y374446D01*
X-1522018Y365506D01*
X-1516380Y357479D01*
X-1509471Y350520D01*
X-1501394Y344881D01*
X-1495348Y342087D01*
X-1492453Y340055D01*
X-1490421Y337159D01*
X-1489506Y333756D01*
X-1489811Y330250D01*
X-1490624Y327304D01*
X-1491488Y317500D01*
X-1490624Y307695D01*
X-1488084Y298246D01*
X-1483918Y289306D01*
X-1478280Y281279D01*
X-1471371Y274320D01*
X-1463294Y268681D01*
X-1454404Y264566D01*
X-1444904Y262026D01*
X-1435100Y261162D01*
X-1425346Y262026D01*
X-1415846Y264566D01*
X-1406956Y268681D01*
X-1398879Y274320D01*
X-1391970Y281279D01*
X-1386332Y289306D01*
X-1382166Y298246D01*
X-1379626Y307695D01*
X-1378762Y317500D01*
X-1379220Y322630D01*
X-1378661Y326999D01*
X-1376273Y330708D01*
X-1261821Y445160D01*
X-1258519Y447395D01*
X-1254658Y448157D01*
X-1233474Y448157D01*
X-1229614Y447395D01*
X-1226312Y445160D01*
X-1224076Y441858D01*
X-1223314Y437997D01*
X-1223314Y435559D01*
X-1224280Y431190D01*
X-1227480Y427329D01*
X-1258874Y395935D01*
X-1263954Y389737D01*
X-1267561Y383032D01*
X-1269746Y375818D01*
X-1270508Y367792D01*
X-1270508Y275031D01*
X-1271066Y271780D01*
X-1272590Y268884D01*
X-1279144Y262534D01*
X-1282192Y257606D01*
X-1284122Y252171D01*
X-1284833Y245821D01*
X-1284833Y167944D01*
X-1284122Y161645D01*
X-1282039Y155752D01*
X-1281480Y152400D01*
X-1282039Y149047D01*
X-1284122Y143154D01*
X-1284833Y136804D01*
X-1284833Y110591D01*
X-1244600Y110591D01*
X-1244600Y131318D01*
X-1243838Y135229D01*
X-1241653Y138531D01*
X-1238351Y140716D01*
X-1234440Y141478D01*
X-1229360Y141478D01*
X-1225499Y140716D01*
X-1222197Y138531D01*
X-1220012Y135229D01*
X-1219200Y131318D01*
X-1219200Y110591D01*
X-1143000Y110591D01*
X-1143000Y131318D01*
X-1142238Y135229D01*
X-1140053Y138531D01*
X-1136751Y140716D01*
X-1132840Y141478D01*
X-1127760Y141478D01*
X-1123899Y140716D01*
X-1120597Y138531D01*
X-1118412Y135229D01*
X-1117600Y131318D01*
X-1117600Y110591D01*
X-1089914Y110591D01*
X-1086053Y109829D01*
X-1082751Y107594D01*
X-1080566Y104292D01*
X-1079754Y100431D01*
X-1079754Y95351D01*
X-1080566Y91440D01*
X-1082751Y88138D01*
X-1086053Y85953D01*
X-1089914Y85191D01*
X-1117600Y85191D01*
X-1117600Y32461D01*
X-1103884Y32461D01*
X-1097584Y33172D01*
X-1093317Y34696D01*
X-1089456Y35255D01*
X-1085748Y34340D01*
X-1082598Y32105D01*
X-1080516Y28854D01*
X-1079754Y25095D01*
X-1079754Y-9652D01*
X-1080566Y-13512D01*
X-1082751Y-16814D01*
X-1086053Y-19050D01*
X-1089914Y-19812D01*
X-1127912Y-19812D01*
X-1131824Y-19050D01*
X-1135126Y-16814D01*
X-1167384Y15443D01*
X-1169670Y18948D01*
X-1170330Y23012D01*
X-1169365Y27025D01*
X-1166825Y30327D01*
X-1163218Y32359D01*
X-1159052Y32715D01*
X-1156766Y32461D01*
X-1143000Y32461D01*
X-1143000Y85191D01*
X-1219200Y85191D01*
X-1219200Y54864D01*
X-1220012Y50952D01*
X-1222197Y47650D01*
X-1225499Y45466D01*
X-1229360Y44704D01*
X-1234440Y44704D01*
X-1238351Y45466D01*
X-1241653Y47650D01*
X-1243838Y50952D01*
X-1244600Y54864D01*
X-1244600Y85191D01*
X-1284833Y85191D01*
X-1284833Y58928D01*
X-1284478Y55981D01*
X-1284884Y51765D01*
X-1287018Y48107D01*
X-1290421Y45567D01*
X-1294587Y44704D01*
X-1436471Y44704D01*
X-1439824Y45262D01*
X-1442821Y46888D01*
X-1445056Y49428D01*
X-1446784Y52222D01*
X-1450898Y56286D01*
X-1455775Y59385D01*
X-1461262Y61264D01*
X-1467561Y61976D01*
X-1573428Y61976D01*
X-1579778Y61264D01*
X-1585214Y59385D01*
X-1590090Y56286D01*
X-1594205Y52222D01*
X-1597304Y47294D01*
X-1599184Y41859D01*
X-1599895Y35509D01*
X-1599895Y-23317D01*
X-1599184Y-29667D01*
X-1597304Y-35102D01*
X-1594205Y-40030D01*
X-1590090Y-44094D01*
X-1585214Y-47193D01*
X-1579778Y-49123D01*
X-1573428Y-49834D01*
X-1467561Y-49834D01*
X-1461262Y-49123D01*
X-1455775Y-47193D01*
X-1450898Y-44094D01*
X-1446784Y-40030D01*
X-1445056Y-37287D01*
X-1442821Y-34747D01*
X-1439824Y-33070D01*
X-1436471Y-32512D01*
X-1359154Y-32512D01*
X-1355344Y-33274D01*
X-1352042Y-35407D01*
X-1349857Y-38557D01*
X-1348994Y-42367D01*
X-1349603Y-46177D01*
X-1352194Y-53238D01*
X-1352905Y-59486D01*
X-1352905Y-118313D01*
X-1352194Y-124663D01*
X-1350264Y-130098D01*
X-1347216Y-135026D01*
X-1343101Y-139090D01*
X-1338224Y-142189D01*
X-1332738Y-144119D01*
X-1326438Y-144830D01*
X-1220571Y-144830D01*
X-1214272Y-144119D01*
X-1208786Y-142189D01*
X-1203909Y-139090D01*
X-1199794Y-135026D01*
X-1196695Y-130098D01*
X-1194816Y-124663D01*
X-1194104Y-118313D01*
X-1194104Y-91541D01*
X-1193342Y-87680D01*
X-1191107Y-84378D01*
X-1187805Y-82194D01*
X-1183944Y-81381D01*
X-1180033Y-82194D01*
X-1176731Y-84378D01*
X-1173226Y-87884D01*
X-1171041Y-91186D01*
X-1170279Y-95046D01*
X-1170279Y-131521D01*
X-1169568Y-137871D01*
X-1167638Y-143306D01*
X-1164590Y-148234D01*
X-1160475Y-152298D01*
X-1155598Y-155397D01*
X-1150112Y-157327D01*
X-1143812Y-158038D01*
X-1064310Y-158038D01*
X-1057960Y-157327D01*
X-1052525Y-155397D01*
X-1047597Y-152298D01*
X-1043533Y-148234D01*
X-1040434Y-143306D01*
X-1038301Y-137261D01*
X-1036167Y-133705D01*
X-1032764Y-131267D01*
X-1028700Y-130454D01*
X-1024636Y-131267D01*
X-1021283Y-133705D01*
X-1019149Y-137261D01*
X-1017016Y-143306D01*
X-1013917Y-148234D01*
X-1009853Y-152298D01*
X-1004925Y-155397D01*
X-999490Y-157327D01*
X-993140Y-158038D01*
X-913637Y-158038D01*
X-907338Y-157327D01*
X-901852Y-155397D01*
X-896975Y-152298D01*
X-892860Y-148234D01*
X-889762Y-143306D01*
X-887882Y-137871D01*
X-887171Y-131521D01*
X-887171Y-46278D01*
X-887882Y-39979D01*
X-889762Y-34493D01*
X-892860Y-29616D01*
X-896975Y-25501D01*
X-901852Y-22402D01*
X-904697Y-21437D01*
X-907897Y-19558D01*
X-910234Y-16662D01*
X-911402Y-13157D01*
X-911199Y-9398D01*
X-909624Y-5994D01*
X-903732Y2438D01*
X-899566Y11328D01*
X-897026Y20828D01*
X-896467Y27279D01*
X-895603Y30632D01*
X-893622Y33477D01*
X-890828Y35509D01*
X-885545Y36677D01*
X-879652Y38760D01*
X-876300Y39319D01*
X-872947Y38760D01*
X-867054Y36677D01*
X-860755Y35966D01*
X-834491Y35966D01*
X-834491Y76200D01*
X-855268Y76200D01*
X-859129Y76962D01*
X-862431Y79146D01*
X-864616Y82448D01*
X-865428Y86360D01*
X-865428Y91440D01*
X-864616Y95300D01*
X-862431Y98602D01*
X-859129Y100838D01*
X-855268Y101600D01*
X-834491Y101600D01*
X-834491Y177800D01*
X-855268Y177800D01*
X-859129Y178562D01*
X-862431Y180746D01*
X-864616Y184048D01*
X-865428Y187960D01*
X-865428Y193040D01*
X-864616Y196900D01*
X-862431Y200202D01*
X-859129Y202438D01*
X-855268Y203200D01*
X-834491Y203200D01*
X-834491Y215087D01*
X-833628Y219252D01*
X-831138Y222656D01*
X-827430Y224790D01*
X-823214Y225196D01*
X-818134Y224637D01*
X-814628Y223570D01*
X-811682Y221284D01*
X-809752Y218135D01*
X-809091Y214528D01*
X-809091Y203200D01*
X-788466Y203200D01*
X-784098Y202184D01*
X-780542Y199390D01*
X-778611Y195376D01*
X-778560Y190855D01*
X-779678Y185775D01*
X-780948Y182626D01*
X-783234Y180035D01*
X-786231Y178358D01*
X-789584Y177800D01*
X-809091Y177800D01*
X-809091Y101600D01*
X-756412Y101600D01*
X-756412Y115163D01*
X-755700Y118770D01*
X-753770Y121920D01*
X-750824Y124206D01*
X-747318Y125272D01*
X-743610Y124968D01*
X-733704Y122326D01*
X-723900Y121462D01*
X-714146Y122326D01*
X-711200Y123088D01*
X-707694Y123393D01*
X-704240Y122478D01*
X-701395Y120446D01*
X-699363Y117602D01*
X-696518Y111506D01*
X-690880Y103479D01*
X-683971Y96520D01*
X-675894Y90881D01*
X-667004Y86766D01*
X-657504Y84226D01*
X-647700Y83362D01*
X-637946Y84226D01*
X-628446Y86766D01*
X-619556Y90881D01*
X-611479Y96520D01*
X-604570Y103479D01*
X-598932Y111506D01*
X-597662Y114198D01*
X-595376Y117348D01*
X-592124Y119380D01*
X-588314Y120091D01*
X-584504Y119278D01*
X-581304Y117094D01*
X-505256Y41046D01*
X-499618Y36474D01*
X-493623Y33426D01*
X-486968Y31648D01*
X-481634Y31242D01*
X-229158Y31242D01*
X-221945Y32004D01*
X-215493Y34086D01*
X-209550Y37490D01*
X-205536Y40944D01*
X-185775Y60706D01*
X-183337Y62534D01*
X-180441Y63500D01*
X-177444Y63652D01*
X-170789Y62890D01*
X-111912Y62890D01*
X-105613Y63601D01*
X-100177Y65532D01*
X-95250Y68580D01*
X-91186Y72694D01*
X-88087Y77571D01*
X-86156Y83058D01*
X-85445Y89357D01*
X-85445Y116230D01*
X-86156Y122529D01*
X-87426Y127812D01*
X-86207Y133045D01*
X-85445Y139395D01*
X-85445Y166217D01*
X-86207Y172567D01*
X-87426Y177800D01*
X-86156Y183032D01*
X-85445Y189382D01*
X-85445Y216204D01*
X-86156Y222554D01*
X-87426Y227838D01*
X-86156Y233070D01*
X-85445Y239369D01*
X-85445Y266242D01*
X-86156Y272542D01*
X-88087Y278028D01*
X-91186Y282905D01*
X-95250Y287020D01*
X-100177Y290118D01*
X-102311Y290830D01*
X-105867Y292963D01*
X-108254Y296367D01*
X-109118Y300431D01*
X-109118Y318617D01*
X-109880Y325831D01*
X-111963Y332232D01*
X-115366Y338175D01*
X-118821Y342239D01*
X-134620Y358038D01*
X-136855Y361340D01*
X-137617Y365201D01*
X-137617Y428904D01*
X-138328Y435254D01*
X-140360Y441147D01*
X-140970Y444500D01*
X-140360Y447852D01*
X-138328Y453745D01*
X-137617Y460044D01*
X-137617Y486308D01*
X-177800Y486308D01*
X-177800Y465582D01*
X-178612Y461670D01*
X-180797Y458368D01*
X-184099Y456184D01*
X-187960Y455422D01*
X-193040Y455422D01*
X-196951Y456184D01*
X-200253Y458368D01*
X-202438Y461670D01*
X-203200Y465582D01*
X-203200Y486308D01*
X-279400Y486308D01*
X-279400Y465582D01*
X-280212Y461670D01*
X-282397Y458368D01*
X-285699Y456184D01*
X-289560Y455422D01*
X-294640Y455422D01*
X-298551Y456184D01*
X-301853Y458368D01*
X-304038Y461670D01*
X-304800Y465582D01*
X-304800Y486308D01*
X-342036Y486308D01*
X-346405Y487324D01*
X-349961Y490118D01*
X-351942Y494182D01*
X-352856Y498093D01*
X-353060Y500938D01*
X-352145Y504901D01*
X-349961Y508457D01*
X-346608Y510844D01*
X-342544Y511708D01*
X-304800Y511708D01*
X-304800Y517906D01*
X-304038Y521817D01*
X-301853Y525068D01*
X-298551Y527304D01*
X-294640Y528066D01*
X-289560Y528066D01*
X-285699Y527304D01*
X-282397Y525068D01*
X-280212Y521817D01*
X-279400Y517906D01*
X-279400Y511708D01*
X-203200Y511708D01*
X-203200Y517906D01*
X-202438Y521817D01*
X-200253Y525068D01*
X-196951Y527304D01*
X-193040Y528066D01*
X-187960Y528066D01*
X-184099Y527304D01*
X-180797Y525068D01*
X-178612Y521817D01*
X-177800Y517906D01*
X-177800Y511708D01*
X-137617Y511708D01*
X-137617Y517906D01*
X-136855Y521817D01*
X-134620Y525068D01*
X-131318Y527304D01*
X-127457Y528066D01*
X158699Y528066D01*
X162610Y527304D01*
X165912Y525068D01*
X218744Y472236D01*
X220979Y468934D01*
X221742Y465023D01*
X221742Y356108D01*
X222504Y348894D01*
X224586Y342493D01*
X227990Y336550D01*
X231495Y332486D01*
X319735Y244246D01*
X325374Y239674D01*
X331927Y236372D01*
X335178Y233679D01*
X337108Y229971D01*
X337362Y225755D01*
X335889Y221843D01*
X330606Y213563D01*
X324916Y201371D01*
X320954Y188468D01*
X318719Y175209D01*
X318262Y161747D01*
X319582Y148336D01*
X322732Y135229D01*
X327558Y122631D01*
X334060Y110794D01*
X342036Y99974D01*
X351434Y90271D01*
X362000Y81940D01*
X373583Y75031D01*
X385978Y69799D01*
X398983Y66243D01*
X412343Y64414D01*
X425805Y64414D01*
X439166Y66243D01*
X452170Y69799D01*
X464566Y75031D01*
X476199Y81940D01*
X486765Y90271D01*
X496366Y100228D01*
X499668Y102514D01*
X503580Y103327D01*
X507492Y102565D01*
X510844Y100380D01*
X513080Y97078D01*
X513842Y93167D01*
X513842Y38608D01*
X514604Y31394D01*
X516686Y24993D01*
X520090Y19050D01*
X523595Y14985D01*
X577799Y-39217D01*
X580085Y-42672D01*
X580796Y-46685D01*
X579831Y-50698D01*
X578916Y-52628D01*
X574954Y-65532D01*
X572719Y-78790D01*
X572262Y-92252D01*
X573582Y-105664D01*
X576732Y-118770D01*
X581558Y-131368D01*
X588060Y-143205D01*
X596036Y-154025D01*
X605383Y-163728D01*
X616000Y-172059D01*
X627583Y-178968D01*
X639978Y-184200D01*
X652983Y-187756D01*
X666343Y-189585D01*
X679805Y-189585D01*
X693166Y-187756D01*
X706170Y-184200D01*
X718566Y-178968D01*
X730199Y-172059D01*
X740765Y-163728D01*
X750112Y-154025D01*
X758139Y-143205D01*
X764590Y-131368D01*
X769416Y-118770D01*
X772566Y-105664D01*
X773887Y-92252D01*
X773480Y-78790D01*
X771194Y-65532D01*
X767232Y-52628D01*
X761542Y-40436D01*
X754278Y-29057D01*
X745591Y-18796D01*
X735584Y-9753D01*
X724509Y-2082D01*
X712470Y3962D01*
X699719Y8382D01*
X686511Y11074D01*
X673100Y11988D01*
X659638Y11074D01*
X646430Y8382D01*
X633882Y4064D01*
X630174Y3505D01*
X626465Y4318D01*
X623366Y6451D01*
X581355Y48463D01*
X579120Y51765D01*
X578358Y55676D01*
X578358Y93116D01*
X579120Y97028D01*
X581355Y100330D01*
X584708Y102565D01*
X588619Y103276D01*
X592531Y102463D01*
X595833Y100177D01*
X605383Y90271D01*
X616000Y81940D01*
X627583Y75031D01*
X639978Y69799D01*
X652983Y66243D01*
X666343Y64414D01*
X679805Y64414D01*
X693166Y66243D01*
X706170Y69799D01*
X718566Y75031D01*
X730199Y81940D01*
X740765Y90271D01*
X750112Y99974D01*
X758139Y110794D01*
X764590Y122631D01*
X769416Y135229D01*
X772566Y148336D01*
X773887Y161747D01*
X773480Y175209D01*
X771194Y188468D01*
X767232Y201371D01*
X761542Y213563D01*
X754278Y224942D01*
X745591Y235204D01*
X735584Y244246D01*
X724509Y251917D01*
X712470Y257962D01*
X699719Y262382D01*
X686511Y265074D01*
X673100Y265988D01*
X659638Y265074D01*
X646430Y262382D01*
X633882Y258013D01*
X630123Y257505D01*
X626465Y258317D01*
X623366Y260451D01*
X543864Y339902D01*
X538226Y344525D01*
X532231Y347573D01*
X525627Y349351D01*
X520293Y349758D01*
X513029Y349758D01*
X508914Y350621D01*
X505510Y353060D01*
X503377Y356666D01*
X502920Y360781D01*
X504088Y364794D01*
X510590Y376631D01*
X515416Y389229D01*
X518566Y402336D01*
X519887Y415747D01*
X519480Y429209D01*
X517194Y442468D01*
X513232Y455371D01*
X507542Y467563D01*
X504190Y472795D01*
X502716Y476859D01*
X503021Y481177D01*
X505104Y484936D01*
X508558Y487527D01*
X512775Y488442D01*
X553923Y488442D01*
X557834Y487680D01*
X561086Y485444D01*
X577799Y468782D01*
X580085Y465328D01*
X580796Y461314D01*
X579831Y457301D01*
X578916Y455371D01*
X574954Y442468D01*
X572719Y429209D01*
X572262Y415747D01*
X573582Y402336D01*
X576732Y389229D01*
X581558Y376631D01*
X588060Y364794D01*
X596036Y353974D01*
X605383Y344271D01*
X616000Y335940D01*
X627583Y329031D01*
X639978Y323799D01*
X652983Y320243D01*
X666343Y318414D01*
X679805Y318414D01*
X693166Y320243D01*
X706170Y323799D01*
X718566Y329031D01*
X730199Y335940D01*
X740765Y344271D01*
X750112Y353974D01*
X758139Y364794D01*
X764590Y376631D01*
X769416Y389229D01*
X772566Y402336D01*
X773887Y415747D01*
X773480Y429209D01*
X771194Y442468D01*
X767232Y455371D01*
X761542Y467563D01*
X754278Y478942D01*
X745591Y489204D01*
X735584Y498246D01*
X724509Y505917D01*
X712470Y511962D01*
X699719Y516382D01*
X686511Y519074D01*
X673100Y519988D01*
X659638Y519074D01*
X646430Y516382D01*
X633882Y512013D01*
X630123Y511505D01*
X626465Y512318D01*
X623366Y514451D01*
X598881Y538886D01*
X596696Y542188D01*
X595934Y546100D01*
X596696Y549960D01*
X598881Y553262D01*
X623519Y577900D01*
X626821Y580085D01*
X630732Y580847D01*
X634644Y580034D01*
X639978Y577799D01*
X652983Y574243D01*
X666343Y572414D01*
X679805Y572414D01*
X693166Y574243D01*
X706170Y577799D01*
X718566Y583031D01*
X730199Y589940D01*
X740765Y598271D01*
X750112Y607974D01*
X758139Y618794D01*
X764590Y630631D01*
X769416Y643229D01*
X772566Y656336D01*
X773887Y669747D01*
X773480Y683209D01*
X771194Y696468D01*
X767232Y709371D01*
X761542Y721563D01*
X754278Y732942D01*
X745591Y743204D01*
X735584Y752246D01*
X724509Y759917D01*
X712470Y765962D01*
X699719Y770382D01*
X686511Y773074D01*
X673100Y773988D01*
X659638Y773074D01*
X646430Y770382D01*
X633679Y765962D01*
X621690Y759917D01*
X610565Y752246D01*
X600557Y743204D01*
X591870Y732942D01*
X584606Y721563D01*
X578916Y709371D01*
X574954Y696468D01*
X572719Y683209D01*
X572262Y669747D01*
X573582Y656336D01*
X576732Y643229D01*
X580136Y634288D01*
X580847Y630478D01*
X580034Y626668D01*
X577850Y623468D01*
X561136Y606755D01*
X557834Y604520D01*
X553923Y603758D01*
X513029Y603758D01*
X508914Y604621D01*
X505510Y607060D01*
X503377Y610666D01*
X502920Y614781D01*
X504088Y618794D01*
X510590Y630631D01*
X515416Y643229D01*
X518566Y656336D01*
X519887Y669747D01*
X519480Y683209D01*
X517194Y696468D01*
X513232Y709371D01*
X507542Y721563D01*
X500278Y732942D01*
X491591Y743204D01*
X483971Y750163D01*
X481533Y753414D01*
X480618Y757326D01*
X481279Y761339D01*
X483463Y764743D01*
X486816Y767029D01*
X490778Y767842D01*
X545541Y767842D01*
X552754Y768604D01*
X559206Y770686D01*
X565150Y774090D01*
X569163Y777544D01*
X623519Y831900D01*
X626821Y834085D01*
X630732Y834847D01*
X634644Y834034D01*
X639978Y831799D01*
X652983Y828243D01*
X666343Y826414D01*
X679805Y826414D01*
X693166Y828243D01*
X706170Y831799D01*
X718566Y837031D01*
X730199Y843940D01*
X740765Y852271D01*
X750112Y861974D01*
X758139Y872794D01*
X764590Y884631D01*
X769416Y897229D01*
X772566Y910336D01*
X773887Y923747D01*
X773480Y937209D01*
X771194Y950468D01*
X767232Y963371D01*
X761542Y975563D01*
X754278Y986942D01*
X745591Y997203D01*
X735584Y1006246D01*
X724509Y1013917D01*
X712470Y1019962D01*
X699719Y1024382D01*
X686511Y1027074D01*
X673100Y1027988D01*
X659638Y1027074D01*
X646430Y1024382D01*
X633679Y1019962D01*
X621690Y1013917D01*
X610565Y1006246D01*
X600557Y997203D01*
X591870Y986942D01*
X584606Y975563D01*
X578916Y963371D01*
X574954Y950468D01*
X572719Y937209D01*
X572262Y923747D01*
X573582Y910336D01*
X576732Y897229D01*
X580136Y888339D01*
X580847Y884478D01*
X580034Y880719D01*
X577850Y877468D01*
X535686Y835304D01*
X532384Y833119D01*
X528523Y832358D01*
X490778Y832358D01*
X486714Y833221D01*
X483311Y835609D01*
X481177Y839165D01*
X480669Y843280D01*
X481838Y847293D01*
X484479Y850493D01*
X486765Y852271D01*
X496112Y861974D01*
X504139Y872794D01*
X510590Y884631D01*
X515416Y897229D01*
X518566Y910336D01*
X519887Y923747D01*
X519480Y937209D01*
X517194Y950468D01*
X513232Y963371D01*
X507542Y975563D01*
X500278Y986942D01*
X491591Y997203D01*
X483971Y1004163D01*
X481533Y1007414D01*
X480618Y1011326D01*
X481279Y1015339D01*
X483463Y1018743D01*
X486816Y1021029D01*
X490778Y1021842D01*
X545592Y1021842D01*
X552805Y1022603D01*
X559206Y1024686D01*
X565150Y1028090D01*
X569214Y1031595D01*
X623519Y1085900D01*
X626821Y1088085D01*
X630732Y1088847D01*
X634644Y1088034D01*
X639978Y1085799D01*
X652983Y1082243D01*
X666343Y1080414D01*
X679805Y1080414D01*
X693166Y1082243D01*
X706170Y1085799D01*
X718566Y1091031D01*
X730199Y1097940D01*
X740765Y1106271D01*
X750112Y1115974D01*
X758139Y1126794D01*
X764590Y1138631D01*
X769416Y1151229D01*
X772566Y1164336D01*
X773887Y1177747D01*
X773480Y1191209D01*
X771194Y1204468D01*
X767232Y1217371D01*
X761542Y1229563D01*
X754278Y1240942D01*
X745591Y1251204D01*
X735584Y1260246D01*
X724509Y1267917D01*
X712470Y1273962D01*
X699719Y1278382D01*
X686511Y1281074D01*
X673100Y1281988D01*
X659638Y1281074D01*
X646430Y1278382D01*
X633679Y1273962D01*
X621690Y1267917D01*
X610565Y1260246D01*
X600557Y1251204D01*
X591870Y1240942D01*
X584606Y1229563D01*
X578916Y1217371D01*
X574954Y1204468D01*
X572719Y1191209D01*
X572262Y1177747D01*
X573582Y1164336D01*
X576732Y1151229D01*
X580136Y1142288D01*
X580847Y1138478D01*
X580034Y1134668D01*
X577850Y1131468D01*
X535736Y1089355D01*
X532434Y1087120D01*
X528523Y1086358D01*
X490778Y1086358D01*
X486714Y1087221D01*
X483311Y1089609D01*
X481177Y1093165D01*
X480669Y1097330D01*
X481838Y1101293D01*
X484479Y1104493D01*
X486765Y1106271D01*
X496112Y1115974D01*
X504139Y1126794D01*
X510590Y1138631D01*
X515416Y1151229D01*
X518566Y1164336D01*
X519887Y1177747D01*
X519480Y1191209D01*
X517194Y1204468D01*
X513232Y1217371D01*
X507542Y1229563D01*
X500278Y1240942D01*
X491591Y1251204D01*
X481584Y1260246D01*
X470509Y1267917D01*
X458470Y1273962D01*
X445719Y1278382D01*
X432511Y1281074D01*
X419100Y1281988D01*
X405638Y1281074D01*
X392430Y1278382D01*
X379679Y1273962D01*
X367690Y1267917D01*
X356565Y1260246D01*
X346557Y1251204D01*
X337870Y1240942D01*
X330606Y1229563D01*
X324916Y1217371D01*
X320954Y1204468D01*
X318719Y1191209D01*
X318262Y1177747D01*
X319582Y1164336D01*
X322732Y1151229D01*
X326136Y1142288D01*
X326847Y1138478D01*
X326034Y1134668D01*
X323850Y1131468D01*
X218236Y1025855D01*
X214934Y1023619D01*
X211023Y1022858D01*
X104648Y1022858D01*
X100787Y1023619D01*
X97485Y1025855D01*
X95300Y1029106D01*
X94488Y1033018D01*
X94488Y1041400D01*
X41808Y1041400D01*
X41808Y1033018D01*
X40995Y1029106D01*
X38811Y1025855D01*
X35509Y1023619D01*
X31648Y1022858D01*
X26568Y1022858D01*
X22656Y1023619D01*
X19354Y1025855D01*
X17170Y1029106D01*
X16408Y1033018D01*
X16408Y1041400D01*
X-4368Y1041400D01*
X-8229Y1042162D01*
X-11531Y1044346D01*
X-13716Y1047648D01*
X-14528Y1051560D01*
X-14528Y1056640D01*
X-13716Y1060500D01*
X-11531Y1063802D01*
X-8229Y1066038D01*
X-4368Y1066800D01*
X16408Y1066800D01*
X16408Y1106982D01*
X-9855Y1106982D01*
X-16154Y1106271D01*
X-21285Y1104493D01*
X-25603Y1103985D01*
X-29768Y1105306D01*
X-32969Y1108303D01*
X-34645Y1112367D01*
X-34442Y1116736D01*
X-33426Y1120495D01*
X-32562Y1130300D01*
X-33426Y1140104D01*
X-35966Y1149553D01*
X-40132Y1158494D01*
X-45770Y1166520D01*
X-52679Y1173480D01*
X-60756Y1179118D01*
X-69646Y1183233D01*
X-79146Y1185773D01*
X-88900Y1186637D01*
X-98704Y1185773D01*
X-108204Y1183233D01*
X-117094Y1179118D01*
X-125171Y1173480D01*
X-132080Y1166520D01*
X-134620Y1162913D01*
X-137718Y1160018D01*
X-141732Y1158646D01*
X-145999Y1159052D01*
X-149656Y1161186D01*
X-152196Y1164590D01*
X-153060Y1168755D01*
X-153060Y1179322D01*
X-153822Y1185672D01*
X-155702Y1191107D01*
X-158800Y1196035D01*
X-162864Y1200099D01*
X-167792Y1203198D01*
X-173228Y1205077D01*
X-179578Y1205788D01*
X-233425Y1205788D01*
X-239725Y1205077D01*
X-245211Y1203198D01*
X-248564Y1201064D01*
X-252120Y1199692D01*
X-255879Y1199692D01*
X-259384Y1201064D01*
X-262788Y1203198D01*
X-268224Y1205077D01*
X-273507Y1206398D01*
X-276453Y1208735D01*
X-278384Y1212037D01*
X-278942Y1215745D01*
X-278079Y1219454D01*
X-275945Y1222552D01*
X-271729Y1226820D01*
X-268427Y1229004D01*
X-264515Y1229766D01*
X-231495Y1229766D01*
X-225145Y1230477D01*
X-219252Y1232560D01*
X-215900Y1233119D01*
X-212547Y1232560D01*
X-206654Y1230477D01*
X-200355Y1229766D01*
X-174091Y1229766D01*
X-174091Y1270000D01*
X-194868Y1270000D01*
X-198729Y1270762D01*
X-202031Y1272946D01*
X-204216Y1276248D01*
X-205028Y1280160D01*
X-205028Y1285240D01*
X-204216Y1289100D01*
X-202031Y1292402D01*
X-198729Y1294638D01*
X-194868Y1295400D01*
X-174091Y1295400D01*
X-174091Y1335582D01*
X-200355Y1335582D01*
X-206654Y1334871D01*
X-211785Y1333093D01*
X-216103Y1332585D01*
X-220268Y1333906D01*
X-223469Y1336903D01*
X-225145Y1340967D01*
X-224942Y1345336D01*
X-223926Y1349095D01*
X-223062Y1358900D01*
X-223926Y1368704D01*
X-226466Y1378153D01*
X-230632Y1387094D01*
X-236270Y1395120D01*
X-243179Y1402080D01*
X-251256Y1407718D01*
X-260146Y1411833D01*
X-269646Y1414373D01*
X-279400Y1415237D01*
X-289204Y1414373D01*
X-298704Y1411833D01*
X-307594Y1407718D01*
X-315671Y1402080D01*
X-322580Y1395120D01*
X-328218Y1387094D01*
X-332384Y1378153D01*
X-334924Y1368704D01*
X-335788Y1358900D01*
X-334924Y1349095D01*
X-332384Y1339646D01*
X-330047Y1334668D01*
X-329184Y1331417D01*
X-329387Y1328064D01*
X-330657Y1324965D01*
X-333197Y1320901D01*
X-335127Y1315466D01*
X-335838Y1309116D01*
X-335838Y1276096D01*
X-336600Y1272184D01*
X-338836Y1268933D01*
X-365455Y1242263D01*
X-368452Y1240180D01*
X-371957Y1239266D01*
X-375564Y1239672D01*
X-378815Y1241348D01*
X-381254Y1244041D01*
X-383997Y1248410D01*
X-385724Y1250086D01*
X-387908Y1253388D01*
X-388670Y1257300D01*
X-387908Y1261160D01*
X-385724Y1264462D01*
X-383997Y1266190D01*
X-380949Y1271066D01*
X-379018Y1276553D01*
X-378307Y1282852D01*
X-378307Y1401724D01*
X-379018Y1408023D01*
X-380949Y1413510D01*
X-383997Y1418386D01*
X-388112Y1422501D01*
X-392988Y1425549D01*
X-398475Y1427480D01*
X-404774Y1428191D01*
X-543661Y1428191D01*
X-549960Y1427480D01*
X-555447Y1425549D01*
X-560324Y1422501D01*
X-564438Y1418386D01*
X-567486Y1413510D01*
X-569417Y1408023D01*
X-570128Y1401724D01*
X-570128Y1282852D01*
X-569417Y1276553D01*
X-567486Y1271066D01*
X-564438Y1266190D01*
X-562711Y1264462D01*
X-560527Y1261160D01*
X-559765Y1257300D01*
X-560527Y1253388D01*
X-562711Y1250086D01*
X-564438Y1248410D01*
X-567486Y1243482D01*
X-569417Y1238046D01*
X-570128Y1231696D01*
X-570128Y1112875D01*
X-569518Y1107338D01*
X-569823Y1103376D01*
X-571652Y1099870D01*
X-574700Y1097330D01*
X-578459Y1096111D01*
X-587400Y1094689D01*
X-592277Y1095806D01*
X-595274Y1097432D01*
X-597509Y1099972D01*
X-598830Y1103122D01*
X-599033Y1106525D01*
X-598322Y1112875D01*
X-598322Y1231696D01*
X-599033Y1238046D01*
X-600913Y1243482D01*
X-604012Y1248410D01*
X-605739Y1250086D01*
X-607923Y1253388D01*
X-608685Y1257300D01*
X-607923Y1261160D01*
X-605739Y1264462D01*
X-604012Y1266190D01*
X-600913Y1271066D01*
X-599033Y1276553D01*
X-598322Y1282852D01*
X-598322Y1329588D01*
X-681532Y1329588D01*
X-681532Y1268323D01*
X-682294Y1264462D01*
X-684479Y1261160D01*
X-687781Y1258976D01*
X-691692Y1258163D01*
X-696772Y1258163D01*
X-700633Y1258976D01*
X-703935Y1261160D01*
X-706120Y1264462D01*
X-706932Y1268323D01*
X-706932Y1329588D01*
X-787501Y1329588D01*
X-789990Y1329893D01*
X-792734Y1331010D01*
X-799947Y1333195D01*
X-807974Y1334008D01*
X-817168Y1334008D01*
X-820419Y1334516D01*
X-823315Y1336090D01*
X-829716Y1342593D01*
X-834593Y1345692D01*
X-840028Y1347571D01*
X-846378Y1348282D01*
X-924255Y1348282D01*
X-930554Y1347571D01*
X-936447Y1345539D01*
X-939800Y1344930D01*
X-943152Y1345539D01*
X-949045Y1347571D01*
X-955395Y1348282D01*
X-981608Y1348282D01*
X-981608Y1308100D01*
X-960882Y1308100D01*
X-956970Y1307338D01*
X-953719Y1305102D01*
X-951484Y1301800D01*
X-950721Y1297940D01*
X-950721Y1292860D01*
X-951484Y1288948D01*
X-953719Y1285646D01*
X-956970Y1283462D01*
X-960882Y1282700D01*
X-981608Y1282700D01*
X-981608Y1206500D01*
X-960882Y1206500D01*
X-956970Y1205738D01*
X-953719Y1203502D01*
X-951484Y1200200D01*
X-950721Y1196340D01*
X-950721Y1191260D01*
X-951484Y1187348D01*
X-953719Y1184046D01*
X-956970Y1181862D01*
X-960882Y1181100D01*
X-981608Y1181100D01*
X-981608Y1147318D01*
X-982370Y1143406D01*
X-984605Y1140104D01*
X-987907Y1137920D01*
X-991768Y1137158D01*
X-996848Y1137158D01*
X-1000760Y1137920D01*
X-1004062Y1140104D01*
X-1006246Y1143406D01*
X-1007008Y1147318D01*
X-1007008Y1181100D01*
X-1013866Y1181100D01*
X-1017219Y1181658D01*
X-1020216Y1183335D01*
X-1022502Y1185926D01*
X-1023772Y1189075D01*
X-1024890Y1194155D01*
X-1024839Y1198676D01*
X-1022908Y1202690D01*
X-1019352Y1205484D01*
X-1014984Y1206500D01*
X-1007008Y1206500D01*
X-1007008Y1282700D01*
X-1059738Y1282700D01*
X-1059738Y1268984D01*
X-1059027Y1262634D01*
X-1057097Y1257198D01*
X-1051306Y1248206D01*
X-1050747Y1243838D01*
X-1052068Y1239672D01*
X-1055014Y1236421D01*
X-1059078Y1234744D01*
X-1063498Y1234897D01*
X-1069746Y1236573D01*
X-1079500Y1237437D01*
X-1089304Y1236573D01*
X-1098804Y1234033D01*
X-1101140Y1232966D01*
X-1105408Y1232001D01*
X-1320342Y1232001D01*
X-1324610Y1232966D01*
X-1326946Y1234033D01*
X-1336446Y1236573D01*
X-1346200Y1237437D01*
X-1356004Y1236573D01*
X-1365504Y1234033D01*
X-1374394Y1229918D01*
X-1382471Y1224280D01*
X-1389380Y1217320D01*
X-1395018Y1209294D01*
X-1399184Y1200353D01*
X-1401724Y1190904D01*
X-1402588Y1181100D01*
X-1401724Y1171295D01*
X-1399184Y1161846D01*
X-1395018Y1152906D01*
X-1389380Y1144879D01*
X-1382471Y1137920D01*
X-1374394Y1132281D01*
X-1365504Y1128166D01*
X-1356004Y1125626D01*
X-1346200Y1124762D01*
X-1336446Y1125626D01*
X-1326946Y1128166D01*
X-1324610Y1129233D01*
X-1320342Y1130198D01*
X-1311097Y1130198D01*
X-1306931Y1129284D01*
X-1303528Y1126794D01*
X-1301394Y1123137D01*
X-1301038Y1118616D01*
X-1301038Y1104900D01*
X-1248308Y1104900D01*
X-1248308Y1120038D01*
X-1247546Y1123899D01*
X-1245362Y1127201D01*
X-1242060Y1129436D01*
X-1238148Y1130198D01*
X-1233068Y1130198D01*
X-1229207Y1129436D01*
X-1225905Y1127201D01*
X-1223670Y1123899D01*
X-1222908Y1120038D01*
X-1222908Y1104900D01*
X-1202182Y1104900D01*
X-1198270Y1104138D01*
X-1195019Y1101902D01*
X-1192784Y1098600D01*
X-1192022Y1094740D01*
X-1192022Y1089660D01*
X-1192784Y1085748D01*
X-1195019Y1082446D01*
X-1198270Y1080262D01*
X-1202182Y1079500D01*
X-1222908Y1079500D01*
X-1222908Y1039266D01*
X-1196695Y1039266D01*
X-1190345Y1039977D01*
X-1184452Y1042060D01*
X-1181100Y1042619D01*
X-1177747Y1042060D01*
X-1171854Y1039977D01*
X-1165555Y1039266D01*
X-1093470Y1039266D01*
X-1089609Y1038504D01*
X-1086307Y1036319D01*
X-1084072Y1033018D01*
X-1083310Y1029106D01*
X-1083310Y966469D01*
X-1084072Y962558D01*
X-1086307Y959256D01*
X-1089609Y957071D01*
X-1093470Y956310D01*
X-1173175Y956310D01*
X-1177086Y957071D01*
X-1180388Y959256D01*
X-1245362Y1024229D01*
X-1247546Y1027531D01*
X-1248308Y1031443D01*
X-1248308Y1079500D01*
X-1301038Y1079500D01*
X-1301038Y1071118D01*
X-1301800Y1067206D01*
X-1303985Y1063955D01*
X-1307287Y1061720D01*
X-1311198Y1060958D01*
X-1815592Y1060958D01*
X-1822805Y1060196D01*
X-1829206Y1058113D01*
X-1835150Y1054658D01*
X-1839214Y1051204D01*
X-1889353Y1001064D01*
X-1893925Y995426D01*
X-1896973Y989431D01*
X-1898751Y982827D01*
X-1899157Y977493D01*
X-1899157Y165557D01*
X-1899920Y161645D01*
X-1902206Y158292D01*
X-1910130Y150469D01*
X-1915718Y142494D01*
X-1919884Y133553D01*
X-1922424Y124104D01*
X-1922729Y120599D01*
X-1924050Y116382D01*
X-1925980Y114300D01*
X-1924050Y112217D01*
X-1922729Y108000D01*
X-1922424Y104495D01*
X-1919884Y95046D01*
X-1915718Y86106D01*
X-1910080Y78079D01*
X-1903171Y71120D01*
X-1895093Y65481D01*
X-1886204Y61366D01*
X-1876704Y58826D01*
X-1866900Y57962D01*
X-1857146Y58826D01*
X-1848459Y61112D01*
X-1844802Y61417D01*
X-1841246Y60350D01*
X-1838299Y58115D01*
X-1836369Y54965D01*
X-1835657Y51308D01*
X-1835657Y42976D01*
X-1836470Y39065D01*
X-1838655Y35763D01*
X-1853692Y20726D01*
X-1857400Y18389D01*
X-1861769Y17780D01*
X-1866900Y18237D01*
X-1876704Y17373D01*
X-1886204Y14833D01*
X-1895093Y10718D01*
X-1903171Y5080D01*
X-1910080Y-1879D01*
X-1915718Y-9906D01*
X-1919884Y-18846D01*
X-1922424Y-28295D01*
X-1922729Y-31800D01*
X-1924050Y-36017D01*
X-1925980Y-38100D01*
X-1924050Y-40182D01*
X-1922729Y-44399D01*
X-1922424Y-47904D01*
X-1919884Y-57353D01*
X-1915718Y-66294D01*
X-1910080Y-74320D01*
X-1903171Y-81280D01*
X-1895093Y-86918D01*
X-1886204Y-91033D01*
X-1883359Y-91795D01*
X-1879498Y-93827D01*
X-1876806Y-97332D01*
X-1875840Y-101600D01*
X-1876806Y-105918D01*
X-1879498Y-109423D01*
X-1883359Y-111455D01*
X-1886051Y-112166D01*
X-1894941Y-116281D01*
X-1903018Y-121920D01*
X-1909927Y-128879D01*
X-1915566Y-136906D01*
X-1919732Y-145846D01*
X-1922272Y-155295D01*
X-1922729Y-160528D01*
X-1924354Y-165100D01*
X-1922729Y-169672D01*
X-1922272Y-174904D01*
X-1919732Y-184353D01*
X-1915566Y-193294D01*
X-1909927Y-201320D01*
X-1903018Y-208279D01*
X-1894941Y-213918D01*
X-1886051Y-218033D01*
X-1876552Y-220573D01*
X-1866747Y-221437D01*
X-1856993Y-220573D01*
X-1847494Y-218033D01*
X-1838604Y-213918D01*
X-1830578Y-208279D01*
X-1822754Y-200406D01*
X-1819452Y-198170D01*
X-1815541Y-197358D01*
X-1757476Y-197358D01*
X-1753616Y-198120D01*
X-1750314Y-200355D01*
X-1708150Y-242519D01*
X-1705914Y-245770D01*
X-1705152Y-249682D01*
X-1705914Y-253593D01*
X-1708150Y-256844D01*
X-1711452Y-259079D01*
X-1715312Y-259842D01*
X-1764893Y-259842D01*
X-1768805Y-259079D01*
X-1772107Y-256844D01*
X-1779930Y-248920D01*
X-1787956Y-243281D01*
X-1796846Y-239166D01*
X-1806346Y-236626D01*
X-1816100Y-235762D01*
X-1825904Y-236626D01*
X-1835404Y-239166D01*
X-1844293Y-243281D01*
X-1852320Y-248920D01*
X-1859280Y-255879D01*
X-1864918Y-263906D01*
X-1869084Y-272846D01*
X-1871624Y-282295D01*
X-1872488Y-292100D01*
X-1871624Y-301904D01*
X-1869084Y-311353D01*
X-1864918Y-320294D01*
X-1859280Y-328320D01*
X-1852320Y-335280D01*
X-1844293Y-340918D01*
X-1835404Y-345033D01*
X-1825904Y-347573D01*
G37*
G36*
X-2773019Y-303225D02*
G01*
X-2424226Y-303225D01*
X-2417876Y-302514D01*
X-2412441Y-300583D01*
X-2407513Y-297535D01*
X-2403449Y-293420D01*
X-2400350Y-288544D01*
X-2398471Y-283057D01*
X-2397760Y-276758D01*
X-2397760Y-137210D01*
X-2398471Y-130911D01*
X-2400401Y-125272D01*
X-2400960Y-122885D01*
X-2400401Y-117246D01*
X-2400198Y-112674D01*
X-2400198Y1029868D01*
X-2400401Y1034542D01*
X-2400960Y1038910D01*
X-2401925Y1043279D01*
X-2403297Y1047496D01*
X-2404973Y1051610D01*
X-2407005Y1055522D01*
X-2409393Y1059281D01*
X-2412136Y1062786D01*
X-2415286Y1066241D01*
X-2478481Y1129436D01*
X-2481884Y1132586D01*
X-2485440Y1135278D01*
X-2489149Y1137666D01*
X-2493111Y1139698D01*
X-2497226Y1141425D01*
X-2501442Y1142746D01*
X-2505760Y1143711D01*
X-2510180Y1144270D01*
X-2514854Y1144473D01*
X-2595118Y1144473D01*
X-2598623Y1145133D01*
X-2601722Y1146962D01*
X-2604008Y1149756D01*
X-2607259Y1155700D01*
X-2615793Y1167485D01*
X-2625801Y1178052D01*
X-2636977Y1187348D01*
X-2649270Y1195120D01*
X-2662428Y1201318D01*
X-2676296Y1205839D01*
X-2690571Y1208582D01*
X-2705100Y1209497D01*
X-2719628Y1208582D01*
X-2733954Y1205839D01*
X-2747772Y1201318D01*
X-2760929Y1195120D01*
X-2773222Y1187348D01*
X-2784449Y1178052D01*
X-2794406Y1167485D01*
X-2802940Y1155700D01*
X-2806192Y1149756D01*
X-2808478Y1146962D01*
X-2811576Y1145133D01*
X-2815132Y1144473D01*
X-2849118Y1144473D01*
X-2852623Y1145133D01*
X-2855722Y1146962D01*
X-2858008Y1149756D01*
X-2861259Y1155700D01*
X-2869793Y1167485D01*
X-2879801Y1178052D01*
X-2890977Y1187348D01*
X-2903270Y1195120D01*
X-2916428Y1201318D01*
X-2930296Y1205839D01*
X-2944571Y1208582D01*
X-2959100Y1209497D01*
X-2973628Y1208582D01*
X-2987954Y1205839D01*
X-3001772Y1201318D01*
X-3014929Y1195120D01*
X-3027222Y1187348D01*
X-3038449Y1178052D01*
X-3048406Y1167485D01*
X-3056940Y1155700D01*
X-3063951Y1142949D01*
X-3069336Y1129385D01*
X-3072942Y1115314D01*
X-3074771Y1100886D01*
X-3074771Y1086307D01*
X-3072942Y1071880D01*
X-3069336Y1057757D01*
X-3063951Y1044244D01*
X-3056940Y1031494D01*
X-3048406Y1019708D01*
X-3038449Y1009091D01*
X-3027222Y999845D01*
X-3014929Y992022D01*
X-3001772Y985824D01*
X-2987954Y981354D01*
X-2973628Y978611D01*
X-2959100Y977696D01*
X-2944571Y978611D01*
X-2930296Y981354D01*
X-2916428Y985824D01*
X-2903270Y992022D01*
X-2890977Y999845D01*
X-2879801Y1009091D01*
X-2869793Y1019708D01*
X-2861259Y1031494D01*
X-2858008Y1037437D01*
X-2855722Y1040231D01*
X-2852623Y1042060D01*
X-2849118Y1042669D01*
X-2815132Y1042669D01*
X-2811576Y1042060D01*
X-2808478Y1040231D01*
X-2806192Y1037437D01*
X-2802940Y1031494D01*
X-2794406Y1019708D01*
X-2784449Y1009091D01*
X-2773222Y999845D01*
X-2760929Y992022D01*
X-2747772Y985824D01*
X-2733954Y981354D01*
X-2719628Y978611D01*
X-2705100Y977696D01*
X-2690571Y978611D01*
X-2676296Y981354D01*
X-2662428Y985824D01*
X-2649270Y992022D01*
X-2636977Y999845D01*
X-2625801Y1009091D01*
X-2615793Y1019708D01*
X-2607259Y1031494D01*
X-2604008Y1037437D01*
X-2601722Y1040231D01*
X-2598623Y1042060D01*
X-2595118Y1042669D01*
X-2539898Y1042669D01*
X-2536037Y1041908D01*
X-2532735Y1039723D01*
X-2504998Y1011986D01*
X-2502814Y1008684D01*
X-2502001Y1004773D01*
X-2502001Y-87630D01*
X-2502814Y-91490D01*
X-2504998Y-94792D01*
X-2517952Y-107746D01*
X-2521254Y-109982D01*
X-2525115Y-110744D01*
X-2773019Y-110744D01*
X-2779318Y-111455D01*
X-2784805Y-113334D01*
X-2789682Y-116433D01*
X-2793796Y-120548D01*
X-2796844Y-125425D01*
X-2798775Y-130911D01*
X-2799486Y-137210D01*
X-2799486Y-276758D01*
X-2798775Y-283057D01*
X-2796844Y-288544D01*
X-2793796Y-293420D01*
X-2789682Y-297535D01*
X-2784805Y-300583D01*
X-2779318Y-302514D01*
G37*
G36*
X639318Y2208377D02*
G01*
X752551Y2208377D01*
X752551Y2296566D01*
X665784Y2296566D01*
X659485Y2295855D01*
X653999Y2293975D01*
X649122Y2290876D01*
X645007Y2286812D01*
X641959Y2281885D01*
X640029Y2276449D01*
X639318Y2270099D01*
G37*
G36*
X639318Y2033422D02*
G01*
X752551Y2033422D01*
X752551Y2182977D01*
X639318Y2182977D01*
X639318Y2121255D01*
X640029Y2114905D01*
X641197Y2111552D01*
X641807Y2108200D01*
X641197Y2104847D01*
X640029Y2101443D01*
X639318Y2095144D01*
G37*
G36*
X-3293770Y1968500D02*
G01*
X-3170224Y1968500D01*
X-3170224Y2084832D01*
X-3170936Y2091131D01*
X-3172815Y2096617D01*
X-3175914Y2101494D01*
X-3179978Y2105609D01*
X-3184906Y2108657D01*
X-3190341Y2110587D01*
X-3196691Y2111298D01*
X-3293770Y2111298D01*
G37*
G36*
X-3442766Y1968500D02*
G01*
X-3319170Y1968500D01*
X-3319170Y2111298D01*
X-3416300Y2111298D01*
X-3422599Y2110587D01*
X-3428085Y2108657D01*
X-3432962Y2105609D01*
X-3437077Y2101494D01*
X-3440125Y2096617D01*
X-3442055Y2091131D01*
X-3442766Y2084832D01*
G37*
G36*
X665784Y1919782D02*
G01*
X752551Y1919782D01*
X752551Y2008022D01*
X639318Y2008022D01*
X639318Y1946249D01*
X640029Y1939950D01*
X641959Y1934464D01*
X645007Y1929587D01*
X649122Y1925472D01*
X653999Y1922424D01*
X659485Y1920493D01*
G37*
G36*
X412343Y-189585D02*
G01*
X425805Y-189585D01*
X439166Y-187756D01*
X452170Y-184200D01*
X464566Y-178968D01*
X476199Y-172059D01*
X486765Y-163728D01*
X496112Y-154025D01*
X504139Y-143205D01*
X510590Y-131368D01*
X515416Y-118770D01*
X518566Y-105664D01*
X519887Y-92252D01*
X519480Y-78790D01*
X517194Y-65532D01*
X513232Y-52628D01*
X507542Y-40436D01*
X500278Y-29057D01*
X491591Y-18796D01*
X481584Y-9753D01*
X470509Y-2082D01*
X458470Y3962D01*
X445719Y8382D01*
X432511Y11074D01*
X419100Y11988D01*
X405638Y11074D01*
X392430Y8382D01*
X379679Y3962D01*
X367690Y-2082D01*
X356565Y-9753D01*
X346557Y-18796D01*
X337870Y-29057D01*
X330606Y-40436D01*
X324916Y-52628D01*
X320954Y-65532D01*
X318719Y-78790D01*
X318262Y-92252D01*
X319582Y-105664D01*
X322732Y-118770D01*
X327558Y-131368D01*
X334060Y-143205D01*
X342036Y-154025D01*
X351434Y-163728D01*
X362000Y-172059D01*
X373583Y-178968D01*
X385978Y-184200D01*
X398983Y-187756D01*
G37*
G36*
X-6877456Y-189585D02*
G01*
X-6863943Y-189585D01*
X-6850634Y-187756D01*
X-6837629Y-184200D01*
X-6825183Y-178968D01*
X-6813600Y-172059D01*
X-6803034Y-163728D01*
X-6793687Y-154025D01*
X-6785660Y-143205D01*
X-6779209Y-131368D01*
X-6774332Y-118770D01*
X-6771233Y-105664D01*
X-6769862Y-92252D01*
X-6770319Y-78790D01*
X-6772554Y-65532D01*
X-6776567Y-52628D01*
X-6782257Y-40436D01*
X-6789470Y-29057D01*
X-6798208Y-18796D01*
X-6808165Y-9753D01*
X-6819290Y-2082D01*
X-6831330Y3962D01*
X-6844030Y8382D01*
X-6857238Y11074D01*
X-6870700Y11988D01*
X-6884162Y11074D01*
X-6897370Y8382D01*
X-6910070Y3962D01*
X-6922109Y-2082D01*
X-6933234Y-9753D01*
X-6943242Y-18796D01*
X-6951929Y-29057D01*
X-6959193Y-40436D01*
X-6964832Y-52628D01*
X-6968845Y-65532D01*
X-6971080Y-78790D01*
X-6971538Y-92252D01*
X-6970166Y-105664D01*
X-6967067Y-118770D01*
X-6962241Y-131368D01*
X-6955739Y-143205D01*
X-6947763Y-154025D01*
X-6938365Y-163728D01*
X-6927799Y-172059D01*
X-6916216Y-178968D01*
X-6903821Y-184200D01*
X-6890816Y-187756D01*
G37*
G36*
X-7131456Y-189585D02*
G01*
X-7117943Y-189585D01*
X-7104583Y-187756D01*
X-7091629Y-184200D01*
X-7079183Y-178968D01*
X-7067600Y-172059D01*
X-7057034Y-163728D01*
X-7047636Y-154025D01*
X-7039660Y-143205D01*
X-7033209Y-131368D01*
X-7028332Y-118770D01*
X-7025233Y-105664D01*
X-7023862Y-92252D01*
X-7024319Y-78790D01*
X-7026554Y-65532D01*
X-7030567Y-52628D01*
X-7036206Y-40436D01*
X-7043470Y-29057D01*
X-7052208Y-18796D01*
X-7062165Y-9753D01*
X-7073290Y-2082D01*
X-7085330Y3962D01*
X-7098030Y8382D01*
X-7111238Y11074D01*
X-7124700Y11988D01*
X-7138162Y11074D01*
X-7151370Y8382D01*
X-7164070Y3962D01*
X-7176109Y-2082D01*
X-7187234Y-9753D01*
X-7197242Y-18796D01*
X-7205929Y-29057D01*
X-7213193Y-40436D01*
X-7218832Y-52628D01*
X-7222845Y-65532D01*
X-7225080Y-78790D01*
X-7225538Y-92252D01*
X-7224166Y-105664D01*
X-7221067Y-118770D01*
X-7216190Y-131368D01*
X-7209739Y-143205D01*
X-7201763Y-154025D01*
X-7192365Y-163728D01*
X-7181799Y-172059D01*
X-7170216Y-178968D01*
X-7157770Y-184200D01*
X-7144816Y-187756D01*
G37*
G36*
X-4333138Y1888489D02*
G01*
X-4279900Y1888489D01*
X-4279900Y1941677D01*
X-4306620Y1941677D01*
X-4312970Y1940966D01*
X-4318406Y1939086D01*
X-4323334Y1935988D01*
X-4327398Y1931873D01*
X-4330496Y1926996D01*
X-4332427Y1921510D01*
X-4333138Y1915210D01*
G37*
G36*
X-1599895Y-171196D02*
G01*
X-1533194Y-171196D01*
X-1533194Y-128016D01*
X-1573428Y-128016D01*
X-1579778Y-128727D01*
X-1585214Y-130606D01*
X-1590090Y-133705D01*
X-1594205Y-137820D01*
X-1597304Y-142697D01*
X-1599184Y-148132D01*
X-1599895Y-154482D01*
G37*
G36*
X-1507794Y-171196D02*
G01*
X-1441094Y-171196D01*
X-1441094Y-154482D01*
X-1441805Y-148132D01*
X-1443736Y-142697D01*
X-1446784Y-137820D01*
X-1450898Y-133705D01*
X-1455775Y-130606D01*
X-1461262Y-128727D01*
X-1467561Y-128016D01*
X-1507794Y-128016D01*
G37*
G36*
X-4254500Y1888489D02*
G01*
X-4201312Y1888489D01*
X-4201312Y1915210D01*
X-4202023Y1921510D01*
X-4203903Y1926996D01*
X-4207002Y1931873D01*
X-4211116Y1935988D01*
X-4215993Y1939086D01*
X-4221480Y1940966D01*
X-4227779Y1941677D01*
X-4254500Y1941677D01*
G37*
G36*
X-4306620Y1809851D02*
G01*
X-4279900Y1809851D01*
X-4279900Y1863089D01*
X-4333138Y1863089D01*
X-4333138Y1836369D01*
X-4332427Y1830019D01*
X-4330496Y1824583D01*
X-4327398Y1819656D01*
X-4323334Y1815592D01*
X-4318406Y1812493D01*
X-4312970Y1810562D01*
G37*
G36*
X-3416300Y-155498D02*
G01*
X-3319170Y-155498D01*
X-3319170Y-12700D01*
X-3442766Y-12700D01*
X-3442766Y-129032D01*
X-3442055Y-135331D01*
X-3440125Y-140817D01*
X-3437077Y-145694D01*
X-3432962Y-149809D01*
X-3428085Y-152908D01*
X-3422599Y-154787D01*
G37*
G36*
X-3293770Y-155498D02*
G01*
X-3196691Y-155498D01*
X-3190341Y-154787D01*
X-3184906Y-152908D01*
X-3179978Y-149809D01*
X-3175914Y-145694D01*
X-3172815Y-140817D01*
X-3170936Y-135331D01*
X-3170224Y-129032D01*
X-3170224Y-12700D01*
X-3293770Y-12700D01*
G37*
G36*
X-4118559Y-155498D02*
G01*
X-3898950Y-155498D01*
X-3892600Y-154787D01*
X-3887165Y-152908D01*
X-3882237Y-149809D01*
X-3878173Y-145694D01*
X-3875074Y-140817D01*
X-3873144Y-135331D01*
X-3872433Y-129032D01*
X-3872433Y-59791D01*
X-3871671Y-55930D01*
X-3869486Y-52628D01*
X-3866184Y-50393D01*
X-3862273Y-49631D01*
X-3734308Y-49631D01*
X-3729990Y-50596D01*
X-3727653Y-51663D01*
X-3718204Y-54203D01*
X-3708400Y-55067D01*
X-3698595Y-54203D01*
X-3689146Y-51663D01*
X-3680206Y-47548D01*
X-3672179Y-41910D01*
X-3665220Y-34950D01*
X-3659581Y-26924D01*
X-3655466Y-17983D01*
X-3652926Y-8534D01*
X-3652062Y1270D01*
X-3652926Y11074D01*
X-3655466Y20523D01*
X-3656533Y22860D01*
X-3657498Y27178D01*
X-3657498Y590092D01*
X-3657701Y594715D01*
X-3658260Y599135D01*
X-3659225Y603453D01*
X-3660546Y607720D01*
X-3662273Y611784D01*
X-3664305Y615746D01*
X-3666693Y619506D01*
X-3669385Y623011D01*
X-3672535Y626465D01*
X-3705504Y659434D01*
X-3708958Y662584D01*
X-3712464Y665276D01*
X-3716223Y667664D01*
X-3720185Y669696D01*
X-3724249Y671423D01*
X-3728516Y672744D01*
X-3732834Y673709D01*
X-3737254Y674268D01*
X-3741877Y674471D01*
X-3759708Y674471D01*
X-3763772Y675335D01*
X-3767124Y677722D01*
X-3769309Y681278D01*
X-3771442Y687425D01*
X-3774490Y692302D01*
X-3778605Y696417D01*
X-3783482Y699465D01*
X-3788968Y701395D01*
X-3795268Y702106D01*
X-4040632Y702106D01*
X-4046982Y701395D01*
X-4052417Y699465D01*
X-4057345Y696417D01*
X-4061409Y692302D01*
X-4064508Y687425D01*
X-4066387Y681939D01*
X-4067098Y675640D01*
X-4067098Y670204D01*
X-4067911Y666292D01*
X-4070096Y663041D01*
X-4073398Y660806D01*
X-4077258Y660044D01*
X-4189018Y660044D01*
X-4193082Y660908D01*
X-4196435Y663295D01*
X-4198569Y666851D01*
X-4200702Y672947D01*
X-4203801Y677875D01*
X-4207916Y681939D01*
X-4212793Y685038D01*
X-4218279Y686917D01*
X-4224578Y687628D01*
X-4309821Y687628D01*
X-4316171Y686917D01*
X-4321606Y685038D01*
X-4326534Y681939D01*
X-4330598Y677875D01*
X-4333697Y672947D01*
X-4335627Y667512D01*
X-4336338Y661162D01*
X-4336338Y581660D01*
X-4335627Y575360D01*
X-4333697Y569874D01*
X-4330598Y564997D01*
X-4326534Y560882D01*
X-4321606Y557834D01*
X-4315561Y555701D01*
X-4312005Y553567D01*
X-4309567Y550164D01*
X-4308754Y546100D01*
X-4309567Y542036D01*
X-4312005Y538632D01*
X-4315561Y536498D01*
X-4321606Y534365D01*
X-4326534Y531317D01*
X-4330598Y527202D01*
X-4333697Y522325D01*
X-4335627Y516839D01*
X-4336338Y510540D01*
X-4336338Y431038D01*
X-4335627Y424688D01*
X-4333697Y419252D01*
X-4330598Y414324D01*
X-4326534Y410260D01*
X-4321606Y407162D01*
X-4316171Y405231D01*
X-4311294Y404012D01*
X-4308398Y401777D01*
X-4306468Y398627D01*
X-4305808Y395020D01*
X-4305808Y350469D01*
X-4306671Y346405D01*
X-4309059Y343052D01*
X-4312615Y340918D01*
X-4318406Y338886D01*
X-4323334Y335788D01*
X-4327398Y331673D01*
X-4330496Y326796D01*
X-4332427Y321360D01*
X-4333138Y315010D01*
X-4333138Y236169D01*
X-4332427Y229819D01*
X-4330496Y224383D01*
X-4327398Y219456D01*
X-4323334Y215392D01*
X-4318406Y212293D01*
X-4312970Y210413D01*
X-4306620Y209651D01*
X-4227779Y209651D01*
X-4221480Y210413D01*
X-4215993Y212293D01*
X-4211116Y215392D01*
X-4207002Y219456D01*
X-4203903Y224383D01*
X-4202023Y229819D01*
X-4201312Y236169D01*
X-4201312Y315010D01*
X-4202023Y321360D01*
X-4203903Y326796D01*
X-4207002Y331673D01*
X-4211116Y335788D01*
X-4215993Y338886D01*
X-4221784Y340918D01*
X-4225340Y343052D01*
X-4227728Y346405D01*
X-4228592Y350469D01*
X-4228592Y395020D01*
X-4227931Y398627D01*
X-4226001Y401777D01*
X-4223105Y404012D01*
X-4218279Y405231D01*
X-4212793Y407162D01*
X-4207916Y410260D01*
X-4203801Y414324D01*
X-4200702Y419252D01*
X-4198823Y424688D01*
X-4198112Y431038D01*
X-4198112Y510540D01*
X-4198823Y516839D01*
X-4200702Y522325D01*
X-4203801Y527202D01*
X-4207916Y531317D01*
X-4212793Y534365D01*
X-4218889Y536498D01*
X-4222445Y538632D01*
X-4224832Y542036D01*
X-4225696Y546100D01*
X-4224832Y550164D01*
X-4222445Y553567D01*
X-4218889Y555701D01*
X-4212793Y557834D01*
X-4207916Y560882D01*
X-4203801Y564997D01*
X-4200702Y569874D01*
X-4198569Y576021D01*
X-4196435Y579577D01*
X-4193032Y581964D01*
X-4188968Y582828D01*
X-4077258Y582828D01*
X-4073398Y582066D01*
X-4070096Y579831D01*
X-4067911Y576580D01*
X-4067098Y571754D01*
X-4066387Y565454D01*
X-4064508Y559968D01*
X-4061409Y555091D01*
X-4057345Y550976D01*
X-4052417Y547928D01*
X-4046982Y545998D01*
X-4040632Y545287D01*
X-3795268Y545287D01*
X-3788968Y545998D01*
X-3783482Y547928D01*
X-3778605Y550976D01*
X-3776675Y552907D01*
X-3773373Y555142D01*
X-3769461Y555904D01*
X-3765600Y555142D01*
X-3762298Y552907D01*
X-3760063Y549656D01*
X-3759301Y545744D01*
X-3759301Y471627D01*
X-3760063Y467766D01*
X-3762298Y464464D01*
X-3765600Y462229D01*
X-3769461Y461467D01*
X-3773373Y462229D01*
X-3776675Y464464D01*
X-3778605Y466394D01*
X-3783482Y469493D01*
X-3788968Y471373D01*
X-3795268Y472084D01*
X-4040632Y472084D01*
X-4046982Y471373D01*
X-4052417Y469493D01*
X-4057345Y466394D01*
X-4061409Y462280D01*
X-4064508Y457403D01*
X-4065422Y454710D01*
X-4067301Y451459D01*
X-4070248Y449122D01*
X-4073855Y448005D01*
X-4077665Y448259D01*
X-4081068Y449173D01*
X-4090822Y450037D01*
X-4100626Y449173D01*
X-4110126Y446633D01*
X-4119016Y442518D01*
X-4127093Y436880D01*
X-4134002Y429920D01*
X-4139641Y421893D01*
X-4143806Y412953D01*
X-4146346Y403504D01*
X-4147210Y393700D01*
X-4146346Y383895D01*
X-4143806Y374446D01*
X-4139641Y365506D01*
X-4134002Y357479D01*
X-4127093Y350520D01*
X-4119016Y344881D01*
X-4110126Y340766D01*
X-4100626Y338226D01*
X-4090822Y337362D01*
X-4081068Y338226D01*
X-4077665Y339140D01*
X-4073906Y339394D01*
X-4070299Y338277D01*
X-4067301Y335940D01*
X-4065422Y332638D01*
X-4064508Y329996D01*
X-4061409Y325069D01*
X-4057345Y321005D01*
X-4052417Y317906D01*
X-4046982Y315976D01*
X-4040632Y315264D01*
X-3795268Y315264D01*
X-3788968Y315976D01*
X-3783482Y317906D01*
X-3778605Y321005D01*
X-3776675Y322935D01*
X-3773373Y325120D01*
X-3769461Y325882D01*
X-3765600Y325120D01*
X-3762298Y322935D01*
X-3760063Y319633D01*
X-3759301Y315722D01*
X-3759301Y62331D01*
X-3760063Y58470D01*
X-3762298Y55168D01*
X-3765600Y52933D01*
X-3769461Y52171D01*
X-3862273Y52171D01*
X-3866184Y52933D01*
X-3869486Y55168D01*
X-3871671Y58470D01*
X-3872433Y62331D01*
X-3872433Y129032D01*
X-3873144Y135331D01*
X-3875074Y140817D01*
X-3878173Y145694D01*
X-3882237Y149809D01*
X-3887165Y152857D01*
X-3892600Y154787D01*
X-3898950Y155498D01*
X-4118559Y155498D01*
X-4124858Y154787D01*
X-4130344Y152857D01*
X-4135221Y149809D01*
X-4139336Y145694D01*
X-4142384Y140817D01*
X-4144314Y135331D01*
X-4145026Y129032D01*
X-4145026Y-129032D01*
X-4144314Y-135331D01*
X-4142384Y-140817D01*
X-4139336Y-145694D01*
X-4135221Y-149809D01*
X-4130344Y-152908D01*
X-4124858Y-154787D01*
G37*
G36*
X-4254500Y1809851D02*
G01*
X-4227779Y1809851D01*
X-4221480Y1810562D01*
X-4215993Y1812493D01*
X-4211116Y1815592D01*
X-4207002Y1819656D01*
X-4203903Y1824583D01*
X-4202023Y1830019D01*
X-4201312Y1836369D01*
X-4201312Y1863089D01*
X-4254500Y1863089D01*
G37*
G36*
X274320Y1803400D02*
G01*
X365048Y1803400D01*
X365048Y1824634D01*
X365810Y1828546D01*
X367995Y1831797D01*
X371297Y1834032D01*
X375208Y1834794D01*
X380288Y1834794D01*
X384149Y1834032D01*
X387451Y1831797D01*
X389636Y1828546D01*
X390448Y1824634D01*
X390448Y1803400D01*
X481126Y1803400D01*
X481126Y1820113D01*
X480415Y1826463D01*
X478535Y1831898D01*
X476402Y1835302D01*
X475030Y1838807D01*
X475030Y1842617D01*
X476402Y1846122D01*
X478535Y1849475D01*
X480415Y1854962D01*
X481126Y1861261D01*
X481126Y1920138D01*
X480415Y1926437D01*
X478535Y1931924D01*
X475437Y1936800D01*
X471322Y1940915D01*
X466445Y1944014D01*
X460959Y1945893D01*
X454659Y1946605D01*
X300786Y1946605D01*
X294487Y1945893D01*
X289001Y1944014D01*
X281228Y1938934D01*
X277825Y1938070D01*
X274370Y1938375D01*
X269443Y1941118D01*
X260553Y1945233D01*
X251053Y1947773D01*
X241300Y1948637D01*
X231495Y1947773D01*
X221996Y1945233D01*
X213106Y1941118D01*
X205028Y1935480D01*
X198120Y1928520D01*
X192481Y1920493D01*
X188315Y1911553D01*
X185775Y1902104D01*
X184912Y1892300D01*
X185775Y1882495D01*
X188315Y1873046D01*
X192481Y1864106D01*
X198120Y1856079D01*
X205028Y1849120D01*
X213106Y1843481D01*
X221996Y1839366D01*
X231495Y1836826D01*
X241300Y1835962D01*
X251053Y1836826D01*
X265226Y1840687D01*
X269138Y1840128D01*
X272542Y1838096D01*
X274878Y1834896D01*
X275844Y1831086D01*
X275031Y1826463D01*
X274320Y1820113D01*
G37*
G36*
X-3293770Y1800301D02*
G01*
X-3196691Y1800301D01*
X-3190341Y1801012D01*
X-3184906Y1802892D01*
X-3179978Y1805990D01*
X-3175914Y1810054D01*
X-3172815Y1814982D01*
X-3170936Y1820418D01*
X-3170224Y1826768D01*
X-3170224Y1943100D01*
X-3293770Y1943100D01*
G37*
G36*
X-3416300Y1800301D02*
G01*
X-3319170Y1800301D01*
X-3319170Y1943100D01*
X-3442766Y1943100D01*
X-3442766Y1826768D01*
X-3442055Y1820418D01*
X-3440125Y1814982D01*
X-3437077Y1810054D01*
X-3432962Y1805990D01*
X-3428085Y1802892D01*
X-3422599Y1801012D01*
G37*
G36*
X-3048558Y-38303D02*
G01*
X-2869692Y-38303D01*
X-2863342Y-37592D01*
X-2857906Y-35712D01*
X-2852978Y-32613D01*
X-2848914Y-28498D01*
X-2845816Y-23622D01*
X-2843936Y-18135D01*
X-2843225Y-11836D01*
X-2843225Y16510D01*
X-2842412Y20421D01*
X-2840228Y23723D01*
X-2836926Y25908D01*
X-2833065Y26670D01*
X-2815132Y26670D01*
X-2811576Y26060D01*
X-2808478Y24231D01*
X-2806192Y21437D01*
X-2802940Y15494D01*
X-2794406Y3708D01*
X-2784449Y-6908D01*
X-2773222Y-16154D01*
X-2760929Y-23977D01*
X-2747772Y-30175D01*
X-2733954Y-34645D01*
X-2719628Y-37388D01*
X-2705100Y-38303D01*
X-2690571Y-37388D01*
X-2676296Y-34645D01*
X-2662428Y-30175D01*
X-2649270Y-23977D01*
X-2636977Y-16154D01*
X-2625801Y-6908D01*
X-2615793Y3708D01*
X-2607259Y15494D01*
X-2600248Y28244D01*
X-2594914Y41757D01*
X-2591257Y55880D01*
X-2589428Y70307D01*
X-2589428Y84886D01*
X-2591257Y99314D01*
X-2594914Y113385D01*
X-2600248Y126949D01*
X-2607259Y139700D01*
X-2615793Y151485D01*
X-2625801Y162052D01*
X-2636977Y171348D01*
X-2649270Y179120D01*
X-2662428Y185318D01*
X-2676296Y189839D01*
X-2690571Y192582D01*
X-2705100Y193497D01*
X-2719628Y192582D01*
X-2733954Y189839D01*
X-2747772Y185318D01*
X-2760929Y179120D01*
X-2773222Y171348D01*
X-2784449Y162052D01*
X-2794406Y151485D01*
X-2802940Y139700D01*
X-2806192Y133756D01*
X-2808478Y130962D01*
X-2811576Y129133D01*
X-2815132Y128473D01*
X-2833065Y128473D01*
X-2836926Y129285D01*
X-2840228Y131470D01*
X-2842412Y134772D01*
X-2843225Y138633D01*
X-2843225Y167030D01*
X-2843936Y173329D01*
X-2845816Y178816D01*
X-2848914Y183692D01*
X-2852978Y187807D01*
X-2857906Y190855D01*
X-2863342Y192786D01*
X-2869692Y193497D01*
X-3048558Y193497D01*
X-3054858Y192786D01*
X-3060344Y190855D01*
X-3065221Y187807D01*
X-3069336Y183692D01*
X-3072384Y178816D01*
X-3074314Y173329D01*
X-3075025Y167030D01*
X-3075025Y-11836D01*
X-3074314Y-18135D01*
X-3072384Y-23622D01*
X-3069336Y-28498D01*
X-3065221Y-32613D01*
X-3060344Y-35712D01*
X-3054858Y-37592D01*
G37*
G36*
X-2959100Y1739696D02*
G01*
X-2944571Y1740611D01*
X-2930296Y1743354D01*
X-2916428Y1747824D01*
X-2903270Y1754022D01*
X-2890977Y1761845D01*
X-2879801Y1771091D01*
X-2869793Y1781708D01*
X-2861259Y1793493D01*
X-2854248Y1806244D01*
X-2848914Y1819757D01*
X-2845257Y1833880D01*
X-2843428Y1848307D01*
X-2843428Y1862886D01*
X-2845257Y1877314D01*
X-2848914Y1891385D01*
X-2854248Y1904949D01*
X-2861259Y1917700D01*
X-2869793Y1929485D01*
X-2879801Y1940052D01*
X-2890977Y1949348D01*
X-2903270Y1957120D01*
X-2916428Y1963318D01*
X-2930296Y1967839D01*
X-2944571Y1970582D01*
X-2959100Y1971497D01*
X-2973628Y1970582D01*
X-2987954Y1967839D01*
X-3001772Y1963318D01*
X-3014929Y1957120D01*
X-3027222Y1949348D01*
X-3038449Y1940052D01*
X-3048406Y1929485D01*
X-3056940Y1917700D01*
X-3063951Y1904949D01*
X-3069336Y1891385D01*
X-3072942Y1877314D01*
X-3074771Y1862886D01*
X-3074771Y1848307D01*
X-3072942Y1833880D01*
X-3069336Y1819757D01*
X-3063951Y1806244D01*
X-3056940Y1793493D01*
X-3048406Y1781708D01*
X-3038449Y1771091D01*
X-3027222Y1761845D01*
X-3014929Y1754022D01*
X-3001772Y1747824D01*
X-2987954Y1743354D01*
X-2973628Y1740611D01*
G37*
G36*
X-2705100Y1739696D02*
G01*
X-2690571Y1740611D01*
X-2676296Y1743354D01*
X-2662428Y1747824D01*
X-2649270Y1754022D01*
X-2636977Y1761845D01*
X-2625801Y1771091D01*
X-2615793Y1781708D01*
X-2607259Y1793493D01*
X-2600248Y1806244D01*
X-2594914Y1819757D01*
X-2591257Y1833880D01*
X-2589428Y1848307D01*
X-2589428Y1862886D01*
X-2591257Y1877314D01*
X-2594914Y1891385D01*
X-2600248Y1904949D01*
X-2607259Y1917700D01*
X-2615793Y1929485D01*
X-2625801Y1940052D01*
X-2636977Y1949348D01*
X-2649270Y1957120D01*
X-2662428Y1963318D01*
X-2676296Y1967839D01*
X-2690571Y1970582D01*
X-2705100Y1971497D01*
X-2719628Y1970582D01*
X-2733954Y1967839D01*
X-2747772Y1963318D01*
X-2760929Y1957120D01*
X-2773222Y1949348D01*
X-2784449Y1940052D01*
X-2794406Y1929485D01*
X-2802940Y1917700D01*
X-2809951Y1904949D01*
X-2815336Y1891385D01*
X-2818942Y1877314D01*
X-2820771Y1862886D01*
X-2820771Y1848307D01*
X-2818942Y1833880D01*
X-2815336Y1819757D01*
X-2809951Y1806244D01*
X-2802940Y1793493D01*
X-2794406Y1781708D01*
X-2784449Y1771091D01*
X-2773222Y1761845D01*
X-2760929Y1754022D01*
X-2747772Y1747824D01*
X-2733954Y1743354D01*
X-2719628Y1740611D01*
G37*
G36*
X241300Y1632762D02*
G01*
X251053Y1633626D01*
X260553Y1636166D01*
X269443Y1640281D01*
X274370Y1643024D01*
X277825Y1643329D01*
X281228Y1642465D01*
X289001Y1637385D01*
X294487Y1635506D01*
X300786Y1634794D01*
X454659Y1634794D01*
X460959Y1635506D01*
X466445Y1637385D01*
X471322Y1640484D01*
X475437Y1644548D01*
X478535Y1649475D01*
X480415Y1654911D01*
X481126Y1661261D01*
X481126Y1720088D01*
X480415Y1726438D01*
X478535Y1731873D01*
X476402Y1735277D01*
X474980Y1738782D01*
X474980Y1742592D01*
X476402Y1746097D01*
X478535Y1749501D01*
X480415Y1754936D01*
X481126Y1761286D01*
X481126Y1778000D01*
X390448Y1778000D01*
X390448Y1756765D01*
X389636Y1752854D01*
X387451Y1749552D01*
X384149Y1747367D01*
X380288Y1746605D01*
X375208Y1746605D01*
X371297Y1747367D01*
X367995Y1749552D01*
X365810Y1752854D01*
X365048Y1756765D01*
X365048Y1778000D01*
X274320Y1778000D01*
X274320Y1761286D01*
X275844Y1750314D01*
X274878Y1746504D01*
X272542Y1743303D01*
X269138Y1741271D01*
X265226Y1740712D01*
X251053Y1744573D01*
X241300Y1745437D01*
X231495Y1744573D01*
X221996Y1742033D01*
X213106Y1737918D01*
X205028Y1732280D01*
X198120Y1725320D01*
X192481Y1717293D01*
X188315Y1708353D01*
X185775Y1698904D01*
X184912Y1689100D01*
X185775Y1679295D01*
X188315Y1669846D01*
X192481Y1660906D01*
X198120Y1652879D01*
X205028Y1645920D01*
X213106Y1640281D01*
X221996Y1636166D01*
X231495Y1633626D01*
G37*
G36*
X-3293770Y12700D02*
G01*
X-3170224Y12700D01*
X-3170224Y129032D01*
X-3170936Y135331D01*
X-3172815Y140817D01*
X-3175914Y145694D01*
X-3179978Y149809D01*
X-3184906Y152857D01*
X-3190341Y154787D01*
X-3196691Y155498D01*
X-3293770Y155498D01*
G37*
G36*
X-3442766Y12700D02*
G01*
X-3319170Y12700D01*
X-3319170Y155498D01*
X-3416300Y155498D01*
X-3422599Y154787D01*
X-3428085Y152857D01*
X-3432962Y149809D01*
X-3437077Y145694D01*
X-3440125Y140817D01*
X-3442055Y135331D01*
X-3442766Y129032D01*
G37*
G36*
X639318Y1573377D02*
G01*
X752551Y1573377D01*
X752551Y1661566D01*
X665784Y1661566D01*
X659485Y1660855D01*
X653999Y1658975D01*
X649122Y1655876D01*
X645007Y1651812D01*
X641959Y1646885D01*
X640029Y1641449D01*
X639318Y1635099D01*
G37*
G36*
X-2705100Y1485696D02*
G01*
X-2690571Y1486611D01*
X-2676296Y1489354D01*
X-2662428Y1493824D01*
X-2649270Y1500022D01*
X-2636977Y1507845D01*
X-2625801Y1517091D01*
X-2615793Y1527708D01*
X-2607259Y1539494D01*
X-2600248Y1552244D01*
X-2594914Y1565757D01*
X-2591257Y1579880D01*
X-2589428Y1594307D01*
X-2589428Y1608886D01*
X-2591257Y1623314D01*
X-2594914Y1637385D01*
X-2600248Y1650949D01*
X-2607259Y1663700D01*
X-2615793Y1675485D01*
X-2625801Y1686052D01*
X-2636977Y1695348D01*
X-2649270Y1703120D01*
X-2662428Y1709318D01*
X-2676296Y1713839D01*
X-2690571Y1716582D01*
X-2705100Y1717497D01*
X-2719628Y1716582D01*
X-2733954Y1713839D01*
X-2747772Y1709318D01*
X-2760929Y1703120D01*
X-2773222Y1695348D01*
X-2784449Y1686052D01*
X-2794406Y1675485D01*
X-2802940Y1663700D01*
X-2809951Y1650949D01*
X-2815336Y1637385D01*
X-2818942Y1623314D01*
X-2820771Y1608886D01*
X-2820771Y1594307D01*
X-2818942Y1579880D01*
X-2815336Y1565757D01*
X-2809951Y1552244D01*
X-2802940Y1539494D01*
X-2794406Y1527708D01*
X-2784449Y1517091D01*
X-2773222Y1507845D01*
X-2760929Y1500022D01*
X-2747772Y1493824D01*
X-2733954Y1489354D01*
X-2719628Y1486611D01*
G37*
G36*
X-2959100Y1485696D02*
G01*
X-2944571Y1486611D01*
X-2930296Y1489354D01*
X-2916428Y1493824D01*
X-2903270Y1500022D01*
X-2890977Y1507845D01*
X-2879801Y1517091D01*
X-2869793Y1527708D01*
X-2861259Y1539494D01*
X-2854248Y1552244D01*
X-2848914Y1565757D01*
X-2845257Y1579880D01*
X-2843428Y1594307D01*
X-2843428Y1608886D01*
X-2845257Y1623314D01*
X-2848914Y1637385D01*
X-2854248Y1650949D01*
X-2861259Y1663700D01*
X-2869793Y1675485D01*
X-2879801Y1686052D01*
X-2890977Y1695348D01*
X-2903270Y1703120D01*
X-2916428Y1709318D01*
X-2930296Y1713839D01*
X-2944571Y1716582D01*
X-2959100Y1717497D01*
X-2973628Y1716582D01*
X-2987954Y1713839D01*
X-3001772Y1709318D01*
X-3014929Y1703120D01*
X-3027222Y1695348D01*
X-3038449Y1686052D01*
X-3048406Y1675485D01*
X-3056940Y1663700D01*
X-3063951Y1650949D01*
X-3069336Y1637385D01*
X-3072942Y1623314D01*
X-3074771Y1608886D01*
X-3074771Y1594307D01*
X-3072942Y1579880D01*
X-3069336Y1565757D01*
X-3063951Y1552244D01*
X-3056940Y1539494D01*
X-3048406Y1527708D01*
X-3038449Y1517091D01*
X-3027222Y1507845D01*
X-3014929Y1500022D01*
X-3001772Y1493824D01*
X-2987954Y1489354D01*
X-2973628Y1486611D01*
G37*
G36*
X665784Y1459788D02*
G01*
X752551Y1459788D01*
X752551Y1547977D01*
X639318Y1547977D01*
X639318Y1486255D01*
X640029Y1479956D01*
X641959Y1474470D01*
X645007Y1469593D01*
X649122Y1465478D01*
X653999Y1462379D01*
X659485Y1460500D01*
G37*
G36*
X-790143Y1354988D02*
G01*
X-706932Y1354988D01*
X-706932Y1428191D01*
X-763625Y1428191D01*
X-769975Y1427480D01*
X-775411Y1425549D01*
X-780338Y1422501D01*
X-784402Y1418386D01*
X-787501Y1413510D01*
X-789432Y1408023D01*
X-790143Y1401724D01*
G37*
G36*
X-809091Y35966D02*
G01*
X-782878Y35966D01*
X-776528Y36677D01*
X-771093Y38608D01*
X-766216Y41706D01*
X-762101Y45770D01*
X-759002Y50698D01*
X-757123Y56134D01*
X-756412Y62484D01*
X-756412Y76200D01*
X-809091Y76200D01*
G37*
G36*
X-681532Y1354988D02*
G01*
X-598322Y1354988D01*
X-598322Y1401724D01*
X-599033Y1408023D01*
X-600913Y1413510D01*
X-604012Y1418386D01*
X-608126Y1422501D01*
X-613003Y1425549D01*
X-618490Y1427480D01*
X-624789Y1428191D01*
X-681532Y1428191D01*
G37*
G36*
X-4254500Y39471D02*
G01*
X-4227779Y39471D01*
X-4221480Y40233D01*
X-4215993Y42113D01*
X-4211116Y45212D01*
X-4207002Y49276D01*
X-4203903Y54203D01*
X-4202023Y59639D01*
X-4201312Y65989D01*
X-4201312Y92710D01*
X-4254500Y92710D01*
G37*
G36*
X-4306620Y39471D02*
G01*
X-4279900Y39471D01*
X-4279900Y92710D01*
X-4333138Y92710D01*
X-4333138Y65989D01*
X-4332427Y59639D01*
X-4330496Y54203D01*
X-4327398Y49276D01*
X-4323334Y45212D01*
X-4318406Y42113D01*
X-4312970Y40233D01*
G37*
G36*
X-1059738Y1308100D02*
G01*
X-1007008Y1308100D01*
X-1007008Y1348282D01*
X-1033271Y1348282D01*
X-1039571Y1347571D01*
X-1045057Y1345692D01*
X-1049934Y1342593D01*
X-1054049Y1338529D01*
X-1057097Y1333601D01*
X-1059027Y1328166D01*
X-1059738Y1321816D01*
G37*
G36*
X-148691Y1295400D02*
G01*
X-96012Y1295400D01*
X-96012Y1309116D01*
X-96723Y1315466D01*
X-98602Y1320901D01*
X-101701Y1325829D01*
X-105816Y1329893D01*
X-110693Y1332992D01*
X-116179Y1334871D01*
X-122478Y1335582D01*
X-148691Y1335582D01*
G37*
G36*
X-148691Y1229766D02*
G01*
X-122478Y1229766D01*
X-116179Y1230477D01*
X-110693Y1232408D01*
X-105816Y1235506D01*
X-101701Y1239570D01*
X-98602Y1244498D01*
X-96723Y1249934D01*
X-96012Y1256284D01*
X-96012Y1270000D01*
X-148691Y1270000D01*
G37*
G36*
X-3823817Y1145336D02*
G01*
X-3684270Y1145336D01*
X-3677970Y1146048D01*
X-3672484Y1147927D01*
X-3667607Y1151026D01*
X-3663492Y1155141D01*
X-3660444Y1160018D01*
X-3658514Y1165504D01*
X-3657803Y1171803D01*
X-3657803Y1520596D01*
X-3658514Y1526895D01*
X-3660444Y1532382D01*
X-3663492Y1537258D01*
X-3667607Y1541373D01*
X-3672484Y1544421D01*
X-3677970Y1546352D01*
X-3684270Y1547063D01*
X-3823817Y1547063D01*
X-3830116Y1546352D01*
X-3835603Y1544421D01*
X-3840479Y1541373D01*
X-3844594Y1537258D01*
X-3847642Y1532382D01*
X-3849573Y1526895D01*
X-3850284Y1520596D01*
X-3850284Y1407261D01*
X-3851046Y1403400D01*
X-3853281Y1400098D01*
X-3856532Y1397863D01*
X-3860444Y1397101D01*
X-4029760Y1397101D01*
X-4033672Y1397863D01*
X-4036974Y1400098D01*
X-4039158Y1403400D01*
X-4039920Y1407261D01*
X-4039920Y1535379D01*
X-4039158Y1539240D01*
X-4036974Y1542542D01*
X-3972915Y1606600D01*
X-3969765Y1610055D01*
X-3967073Y1613560D01*
X-3964686Y1617319D01*
X-3962603Y1621231D01*
X-3960926Y1625346D01*
X-3959606Y1629562D01*
X-3958640Y1633931D01*
X-3958031Y1638300D01*
X-3957828Y1642973D01*
X-3957828Y1790141D01*
X-3957065Y1794002D01*
X-3954881Y1797304D01*
X-3951579Y1799488D01*
X-3947668Y1800301D01*
X-3898950Y1800301D01*
X-3892600Y1801012D01*
X-3887165Y1802892D01*
X-3882237Y1805990D01*
X-3878173Y1810054D01*
X-3875074Y1814982D01*
X-3873144Y1820418D01*
X-3872433Y1826768D01*
X-3872433Y2084832D01*
X-3873144Y2091131D01*
X-3875074Y2096617D01*
X-3878173Y2101494D01*
X-3882237Y2105609D01*
X-3887165Y2108657D01*
X-3892600Y2110587D01*
X-3898950Y2111298D01*
X-3947566Y2111298D01*
X-3951427Y2112060D01*
X-3954729Y2114296D01*
X-3956964Y2117547D01*
X-3957726Y2121458D01*
X-3957726Y2273706D01*
X-3956812Y2277872D01*
X-3954322Y2281275D01*
X-3950614Y2283409D01*
X-3946398Y2283815D01*
X-3942334Y2282444D01*
X-3939235Y2279548D01*
X-3937152Y2276551D01*
X-3930243Y2269642D01*
X-3922166Y2264003D01*
X-3913276Y2259838D01*
X-3903776Y2257298D01*
X-3893972Y2256434D01*
X-3884218Y2257298D01*
X-3874058Y2260142D01*
X-3869944Y2261108D01*
X-3865829Y2260295D01*
X-3862374Y2257907D01*
X-3856990Y2249170D01*
X-3852926Y2245106D01*
X-3847998Y2242007D01*
X-3842562Y2240076D01*
X-3836263Y2239365D01*
X-3717391Y2239365D01*
X-3711041Y2240076D01*
X-3705606Y2242007D01*
X-3700678Y2245106D01*
X-3696614Y2249170D01*
X-3693515Y2254097D01*
X-3691636Y2259533D01*
X-3690924Y2265883D01*
X-3690924Y2359710D01*
X-3691636Y2366060D01*
X-3693515Y2371496D01*
X-3696614Y2376424D01*
X-3700678Y2380488D01*
X-3705606Y2383586D01*
X-3711041Y2385466D01*
X-3717391Y2386177D01*
X-3836263Y2386177D01*
X-3840937Y2386584D01*
X-3844594Y2388666D01*
X-3847084Y2392070D01*
X-3847998Y2396236D01*
X-3847998Y2577592D01*
X-3847033Y2581910D01*
X-3845966Y2584196D01*
X-3843426Y2593695D01*
X-3842562Y2603500D01*
X-3843426Y2613253D01*
X-3845966Y2622753D01*
X-3850132Y2631643D01*
X-3855720Y2639720D01*
X-3862679Y2646680D01*
X-3870756Y2652268D01*
X-3879646Y2656433D01*
X-3889146Y2658973D01*
X-3898900Y2659837D01*
X-3908704Y2658973D01*
X-3918204Y2656433D01*
X-3927094Y2652268D01*
X-3935120Y2646680D01*
X-3942079Y2639720D01*
X-3947718Y2631643D01*
X-3951884Y2622753D01*
X-3954424Y2613253D01*
X-3955237Y2603500D01*
X-3954424Y2593695D01*
X-3951884Y2584196D01*
X-3950766Y2581859D01*
X-3949801Y2577541D01*
X-3949801Y2521458D01*
X-3950563Y2517597D01*
X-3952798Y2514295D01*
X-3956100Y2512060D01*
X-3959961Y2511298D01*
X-3963873Y2512060D01*
X-3967175Y2514295D01*
X-3972509Y2519629D01*
X-3980535Y2525268D01*
X-3989476Y2529433D01*
X-3998925Y2531973D01*
X-4008729Y2532837D01*
X-4018534Y2531973D01*
X-4027982Y2529433D01*
X-4036923Y2525268D01*
X-4044950Y2519629D01*
X-4051909Y2512720D01*
X-4057548Y2504643D01*
X-4061663Y2495753D01*
X-4064203Y2486253D01*
X-4065066Y2476449D01*
X-4064203Y2466695D01*
X-4061663Y2457196D01*
X-4060494Y2454656D01*
X-4059529Y2450338D01*
X-4059529Y2121458D01*
X-4060291Y2117547D01*
X-4062526Y2114296D01*
X-4065828Y2112060D01*
X-4069689Y2111298D01*
X-4118559Y2111298D01*
X-4124858Y2110587D01*
X-4130344Y2108657D01*
X-4135221Y2105609D01*
X-4139336Y2101494D01*
X-4142384Y2096617D01*
X-4144314Y2091131D01*
X-4145026Y2084832D01*
X-4145026Y1826768D01*
X-4144314Y1820418D01*
X-4142384Y1814982D01*
X-4139336Y1810054D01*
X-4135221Y1805990D01*
X-4130344Y1802892D01*
X-4124858Y1801012D01*
X-4118559Y1800301D01*
X-4069791Y1800301D01*
X-4065930Y1799488D01*
X-4062628Y1797304D01*
X-4060444Y1794002D01*
X-4059631Y1790141D01*
X-4059631Y1668068D01*
X-4060444Y1664157D01*
X-4062628Y1660855D01*
X-4126687Y1596796D01*
X-4129836Y1593392D01*
X-4132529Y1589836D01*
X-4134916Y1586128D01*
X-4136999Y1582166D01*
X-4138676Y1578051D01*
X-4139996Y1573834D01*
X-4140962Y1569516D01*
X-4141571Y1565097D01*
X-4141774Y1560423D01*
X-4141774Y1395222D01*
X-4142536Y1391310D01*
X-4144772Y1388008D01*
X-4148074Y1385824D01*
X-4151934Y1385062D01*
X-4188866Y1385214D01*
X-4192930Y1386078D01*
X-4196283Y1388516D01*
X-4198416Y1392021D01*
X-4200702Y1398625D01*
X-4203801Y1403502D01*
X-4207916Y1407617D01*
X-4212793Y1410665D01*
X-4218889Y1412798D01*
X-4222445Y1414932D01*
X-4224832Y1418336D01*
X-4225696Y1422400D01*
X-4224832Y1426464D01*
X-4222445Y1429816D01*
X-4218889Y1432001D01*
X-4212793Y1434084D01*
X-4207916Y1437182D01*
X-4203801Y1441297D01*
X-4200702Y1446174D01*
X-4198823Y1451660D01*
X-4198112Y1457960D01*
X-4198112Y1537462D01*
X-4198823Y1543812D01*
X-4200702Y1549247D01*
X-4203801Y1554175D01*
X-4207916Y1558239D01*
X-4212793Y1561338D01*
X-4218279Y1563217D01*
X-4223105Y1564436D01*
X-4226001Y1566722D01*
X-4227931Y1569872D01*
X-4228592Y1573479D01*
X-4228592Y1630680D01*
X-4227728Y1634744D01*
X-4225340Y1638147D01*
X-4221784Y1640281D01*
X-4215993Y1642313D01*
X-4211116Y1645412D01*
X-4207002Y1649475D01*
X-4203903Y1654403D01*
X-4202023Y1659839D01*
X-4201312Y1666189D01*
X-4201312Y1745030D01*
X-4202023Y1751330D01*
X-4203903Y1756816D01*
X-4207002Y1761693D01*
X-4211116Y1765807D01*
X-4215993Y1768906D01*
X-4221480Y1770786D01*
X-4227779Y1771497D01*
X-4306620Y1771497D01*
X-4312970Y1770786D01*
X-4318406Y1768906D01*
X-4323334Y1765807D01*
X-4327398Y1761693D01*
X-4330496Y1756816D01*
X-4332427Y1751330D01*
X-4333138Y1745030D01*
X-4333138Y1666189D01*
X-4332427Y1659839D01*
X-4330496Y1654403D01*
X-4327398Y1649475D01*
X-4323334Y1645412D01*
X-4318406Y1642313D01*
X-4312615Y1640281D01*
X-4309059Y1638147D01*
X-4306671Y1634744D01*
X-4305808Y1630680D01*
X-4305808Y1573479D01*
X-4306468Y1569872D01*
X-4308398Y1566722D01*
X-4311294Y1564436D01*
X-4316171Y1563217D01*
X-4321606Y1561338D01*
X-4326534Y1558239D01*
X-4330598Y1554175D01*
X-4333697Y1549247D01*
X-4335627Y1543812D01*
X-4336338Y1537462D01*
X-4336338Y1457960D01*
X-4335627Y1451660D01*
X-4333697Y1446174D01*
X-4330598Y1441297D01*
X-4326534Y1437182D01*
X-4321606Y1434084D01*
X-4315561Y1432001D01*
X-4312005Y1429816D01*
X-4309567Y1426464D01*
X-4308754Y1422400D01*
X-4309567Y1418336D01*
X-4312005Y1414932D01*
X-4315561Y1412798D01*
X-4321606Y1410665D01*
X-4326534Y1407617D01*
X-4330598Y1403502D01*
X-4333697Y1398625D01*
X-4335627Y1393139D01*
X-4336338Y1386840D01*
X-4336338Y1307338D01*
X-4335627Y1300988D01*
X-4333697Y1295552D01*
X-4330598Y1290624D01*
X-4326534Y1286560D01*
X-4321606Y1283462D01*
X-4316171Y1281531D01*
X-4309821Y1280820D01*
X-4224578Y1280820D01*
X-4218279Y1281531D01*
X-4212793Y1283462D01*
X-4207916Y1286560D01*
X-4203801Y1290624D01*
X-4200702Y1295552D01*
X-4198721Y1301191D01*
X-4196588Y1304798D01*
X-4193184Y1307185D01*
X-4189120Y1307998D01*
X-4135983Y1307795D01*
X-4132122Y1306982D01*
X-4128820Y1304798D01*
X-4127093Y1303020D01*
X-4119016Y1297381D01*
X-4110126Y1293266D01*
X-4100626Y1290726D01*
X-4090822Y1289862D01*
X-4081068Y1290726D01*
X-4071569Y1293266D01*
X-4069232Y1294333D01*
X-4064965Y1295298D01*
X-3860444Y1295298D01*
X-3856532Y1294536D01*
X-3853281Y1292301D01*
X-3851046Y1288999D01*
X-3850284Y1285138D01*
X-3850284Y1171803D01*
X-3849573Y1165504D01*
X-3847642Y1160018D01*
X-3844594Y1155141D01*
X-3840479Y1151026D01*
X-3835603Y1147927D01*
X-3830116Y1146048D01*
G37*
G36*
X-3453129Y1145336D02*
G01*
X-3313633Y1145336D01*
X-3307283Y1146048D01*
X-3301847Y1147927D01*
X-3296920Y1151026D01*
X-3292856Y1155141D01*
X-3289757Y1160018D01*
X-3287826Y1165504D01*
X-3287115Y1171803D01*
X-3287115Y1285138D01*
X-3286353Y1288999D01*
X-3284169Y1292301D01*
X-3280867Y1294536D01*
X-3276955Y1295298D01*
X-3068370Y1295298D01*
X-3064814Y1294638D01*
X-3061716Y1292809D01*
X-3059430Y1290015D01*
X-3056940Y1285494D01*
X-3048406Y1273708D01*
X-3038449Y1263091D01*
X-3027222Y1253845D01*
X-3014929Y1246022D01*
X-3001772Y1239824D01*
X-2987954Y1235354D01*
X-2973628Y1232611D01*
X-2959100Y1231696D01*
X-2944571Y1232611D01*
X-2930296Y1235354D01*
X-2916428Y1239824D01*
X-2903270Y1246022D01*
X-2890977Y1253845D01*
X-2879801Y1263091D01*
X-2869793Y1273708D01*
X-2861259Y1285494D01*
X-2858008Y1291437D01*
X-2855722Y1294231D01*
X-2852623Y1296060D01*
X-2849118Y1296670D01*
X-2815132Y1296670D01*
X-2811576Y1296060D01*
X-2808478Y1294231D01*
X-2806192Y1291437D01*
X-2802940Y1285494D01*
X-2794406Y1273708D01*
X-2784449Y1263091D01*
X-2773222Y1253845D01*
X-2760929Y1246022D01*
X-2747772Y1239824D01*
X-2733954Y1235354D01*
X-2719628Y1232611D01*
X-2705100Y1231696D01*
X-2690571Y1232611D01*
X-2676296Y1235354D01*
X-2662428Y1239824D01*
X-2649270Y1246022D01*
X-2636977Y1253845D01*
X-2625801Y1263091D01*
X-2615793Y1273708D01*
X-2607259Y1285494D01*
X-2600248Y1298244D01*
X-2594914Y1311757D01*
X-2591257Y1325880D01*
X-2589428Y1340307D01*
X-2589428Y1354886D01*
X-2591257Y1369314D01*
X-2594914Y1383385D01*
X-2600248Y1396949D01*
X-2607259Y1409700D01*
X-2615793Y1421485D01*
X-2625801Y1432052D01*
X-2636977Y1441348D01*
X-2649270Y1449120D01*
X-2662428Y1455318D01*
X-2676296Y1459839D01*
X-2690571Y1462582D01*
X-2705100Y1463497D01*
X-2719628Y1462582D01*
X-2733954Y1459839D01*
X-2747772Y1455318D01*
X-2760929Y1449120D01*
X-2773222Y1441348D01*
X-2784449Y1432052D01*
X-2794406Y1421485D01*
X-2802940Y1409700D01*
X-2806192Y1403756D01*
X-2808478Y1400962D01*
X-2811576Y1399133D01*
X-2815132Y1398524D01*
X-2849118Y1398524D01*
X-2852623Y1399133D01*
X-2855722Y1400962D01*
X-2858008Y1403756D01*
X-2861259Y1409700D01*
X-2869793Y1421485D01*
X-2879801Y1432052D01*
X-2890977Y1441348D01*
X-2903270Y1449120D01*
X-2916428Y1455318D01*
X-2930296Y1459839D01*
X-2944571Y1462582D01*
X-2959100Y1463497D01*
X-2973628Y1462582D01*
X-2987954Y1459839D01*
X-3001772Y1455318D01*
X-3014929Y1449120D01*
X-3027222Y1441348D01*
X-3038449Y1432052D01*
X-3048406Y1421485D01*
X-3056940Y1409700D01*
X-3060954Y1402384D01*
X-3063240Y1399590D01*
X-3066338Y1397762D01*
X-3069894Y1397101D01*
X-3276955Y1397101D01*
X-3280867Y1397863D01*
X-3284169Y1400098D01*
X-3286353Y1403400D01*
X-3287115Y1407261D01*
X-3287115Y1520596D01*
X-3287826Y1526895D01*
X-3289757Y1532382D01*
X-3292856Y1537258D01*
X-3296920Y1541373D01*
X-3301847Y1544421D01*
X-3307283Y1546352D01*
X-3313633Y1547063D01*
X-3453129Y1547063D01*
X-3459479Y1546352D01*
X-3464915Y1544421D01*
X-3469843Y1541373D01*
X-3473907Y1537258D01*
X-3477006Y1532382D01*
X-3478885Y1526895D01*
X-3479596Y1520596D01*
X-3479596Y1171803D01*
X-3478885Y1165504D01*
X-3477006Y1160018D01*
X-3473907Y1155141D01*
X-3469843Y1151026D01*
X-3464915Y1147927D01*
X-3459479Y1146048D01*
G37*
G36*
X-6877456Y64414D02*
G01*
X-6863943Y64414D01*
X-6850634Y66243D01*
X-6837629Y69799D01*
X-6825183Y75031D01*
X-6813600Y81940D01*
X-6803034Y90271D01*
X-6793687Y99974D01*
X-6785660Y110794D01*
X-6779209Y122631D01*
X-6774332Y135229D01*
X-6771233Y148336D01*
X-6769862Y161747D01*
X-6770319Y175209D01*
X-6772554Y188468D01*
X-6776567Y201371D01*
X-6782257Y213563D01*
X-6789470Y224942D01*
X-6798208Y235204D01*
X-6808165Y244246D01*
X-6819290Y251917D01*
X-6831330Y257962D01*
X-6844030Y262382D01*
X-6857238Y265074D01*
X-6870700Y265988D01*
X-6884162Y265074D01*
X-6897370Y262382D01*
X-6910070Y257962D01*
X-6922109Y251917D01*
X-6933234Y244246D01*
X-6943242Y235204D01*
X-6951929Y224942D01*
X-6959193Y213563D01*
X-6964832Y201371D01*
X-6968845Y188468D01*
X-6971080Y175209D01*
X-6971538Y161747D01*
X-6970166Y148336D01*
X-6967067Y135229D01*
X-6962241Y122631D01*
X-6955739Y110794D01*
X-6947763Y99974D01*
X-6938365Y90271D01*
X-6927799Y81940D01*
X-6916216Y75031D01*
X-6903821Y69799D01*
X-6890816Y66243D01*
G37*
G36*
X-7131456Y64414D02*
G01*
X-7117943Y64414D01*
X-7104583Y66243D01*
X-7091629Y69799D01*
X-7079183Y75031D01*
X-7067600Y81940D01*
X-7057034Y90271D01*
X-7047636Y99974D01*
X-7039660Y110794D01*
X-7033209Y122631D01*
X-7028332Y135229D01*
X-7025233Y148336D01*
X-7023862Y161747D01*
X-7024319Y175209D01*
X-7026554Y188468D01*
X-7030567Y201371D01*
X-7036206Y213563D01*
X-7043470Y224942D01*
X-7052208Y235204D01*
X-7062165Y244246D01*
X-7073290Y251917D01*
X-7085330Y257962D01*
X-7098030Y262382D01*
X-7111238Y265074D01*
X-7124700Y265988D01*
X-7138162Y265074D01*
X-7151370Y262382D01*
X-7164070Y257962D01*
X-7176109Y251917D01*
X-7187234Y244246D01*
X-7197242Y235204D01*
X-7205929Y224942D01*
X-7213193Y213563D01*
X-7218832Y201371D01*
X-7222845Y188468D01*
X-7225080Y175209D01*
X-7225538Y161747D01*
X-7224166Y148336D01*
X-7221067Y135229D01*
X-7216190Y122631D01*
X-7209739Y110794D01*
X-7201763Y99974D01*
X-7192365Y90271D01*
X-7181799Y81940D01*
X-7170216Y75031D01*
X-7157770Y69799D01*
X-7144816Y66243D01*
G37*
G36*
X-7131456Y1080414D02*
G01*
X-7117943Y1080414D01*
X-7104583Y1082243D01*
X-7091629Y1085799D01*
X-7079183Y1091031D01*
X-7067600Y1097940D01*
X-7057034Y1106271D01*
X-7047636Y1115974D01*
X-7039660Y1126794D01*
X-7033209Y1138631D01*
X-7028332Y1151229D01*
X-7025233Y1164336D01*
X-7023862Y1177747D01*
X-7024319Y1191209D01*
X-7026554Y1204468D01*
X-7030567Y1217371D01*
X-7036206Y1229563D01*
X-7043470Y1240942D01*
X-7052208Y1251204D01*
X-7062165Y1260246D01*
X-7073290Y1267917D01*
X-7085330Y1273962D01*
X-7098030Y1278382D01*
X-7111238Y1281074D01*
X-7124700Y1281988D01*
X-7138162Y1281074D01*
X-7151370Y1278382D01*
X-7164070Y1273962D01*
X-7176109Y1267917D01*
X-7187234Y1260246D01*
X-7197242Y1251204D01*
X-7205929Y1240942D01*
X-7213193Y1229563D01*
X-7218832Y1217371D01*
X-7222845Y1204468D01*
X-7225080Y1191209D01*
X-7225538Y1177747D01*
X-7224166Y1164336D01*
X-7221067Y1151229D01*
X-7216190Y1138631D01*
X-7209739Y1126794D01*
X-7201763Y1115974D01*
X-7192365Y1106271D01*
X-7181799Y1097940D01*
X-7170216Y1091031D01*
X-7157770Y1085799D01*
X-7144816Y1082243D01*
G37*
G36*
X-6877456Y1080414D02*
G01*
X-6863943Y1080414D01*
X-6850634Y1082243D01*
X-6837629Y1085799D01*
X-6825183Y1091031D01*
X-6813600Y1097940D01*
X-6803034Y1106271D01*
X-6793687Y1115974D01*
X-6785660Y1126794D01*
X-6779209Y1138631D01*
X-6774332Y1151229D01*
X-6771233Y1164336D01*
X-6769862Y1177747D01*
X-6770319Y1191209D01*
X-6772554Y1204468D01*
X-6776567Y1217371D01*
X-6782257Y1229563D01*
X-6789470Y1240942D01*
X-6798208Y1251204D01*
X-6808165Y1260246D01*
X-6819290Y1267917D01*
X-6831330Y1273962D01*
X-6844030Y1278382D01*
X-6857238Y1281074D01*
X-6870700Y1281988D01*
X-6884162Y1281074D01*
X-6897370Y1278382D01*
X-6910070Y1273962D01*
X-6922109Y1267917D01*
X-6933234Y1260246D01*
X-6943242Y1251204D01*
X-6951929Y1240942D01*
X-6959193Y1229563D01*
X-6964832Y1217371D01*
X-6968845Y1204468D01*
X-6971080Y1191209D01*
X-6971538Y1177747D01*
X-6970166Y1164336D01*
X-6967067Y1151229D01*
X-6962241Y1138631D01*
X-6955739Y1126794D01*
X-6947763Y1115974D01*
X-6938365Y1106271D01*
X-6927799Y1097940D01*
X-6916216Y1091031D01*
X-6903821Y1085799D01*
X-6890816Y1082243D01*
G37*
G36*
X41808Y1066800D02*
G01*
X94488Y1066800D01*
X94488Y1080516D01*
X93776Y1086866D01*
X91897Y1092301D01*
X88798Y1097229D01*
X84683Y1101293D01*
X79806Y1104392D01*
X74371Y1106271D01*
X68021Y1106982D01*
X41808Y1106982D01*
G37*
G36*
X-4067098Y866394D02*
G01*
X-3930650Y866394D01*
X-3930650Y932078D01*
X-4040632Y932078D01*
X-4046982Y931367D01*
X-4052417Y929487D01*
X-4057345Y926388D01*
X-4061409Y922324D01*
X-4064508Y917397D01*
X-4066387Y911961D01*
X-4067098Y905611D01*
G37*
G36*
X-3905250Y866394D02*
G01*
X-3768801Y866394D01*
X-3768801Y905611D01*
X-3769512Y911961D01*
X-3771442Y917397D01*
X-3774490Y922324D01*
X-3778605Y926388D01*
X-3783482Y929487D01*
X-3788968Y931367D01*
X-3795268Y932078D01*
X-3905250Y932078D01*
G37*
G36*
X-2946400Y852271D02*
G01*
X-2844139Y852271D01*
X-2845257Y861314D01*
X-2848914Y875385D01*
X-2854248Y888949D01*
X-2861259Y901700D01*
X-2869793Y913485D01*
X-2879801Y924052D01*
X-2890977Y933348D01*
X-2903270Y941120D01*
X-2916428Y947318D01*
X-2930296Y951839D01*
X-2944571Y954582D01*
X-2946400Y954684D01*
G37*
G36*
X-2692400Y852271D02*
G01*
X-2590139Y852271D01*
X-2591257Y861314D01*
X-2594914Y875385D01*
X-2600248Y888949D01*
X-2607259Y901700D01*
X-2615793Y913485D01*
X-2625801Y924052D01*
X-2636977Y933348D01*
X-2649270Y941120D01*
X-2662428Y947318D01*
X-2676296Y951839D01*
X-2690571Y954582D01*
X-2692400Y954684D01*
G37*
G36*
X-3074060Y852271D02*
G01*
X-2971800Y852271D01*
X-2971800Y954684D01*
X-2973628Y954582D01*
X-2987954Y951839D01*
X-3001772Y947318D01*
X-3014929Y941120D01*
X-3027222Y933348D01*
X-3038449Y924052D01*
X-3048406Y913485D01*
X-3056940Y901700D01*
X-3063951Y888949D01*
X-3069336Y875385D01*
X-3072942Y861314D01*
G37*
G36*
X-4333138Y118110D02*
G01*
X-4279900Y118110D01*
X-4279900Y171297D01*
X-4306620Y171297D01*
X-4312970Y170586D01*
X-4318406Y168706D01*
X-4323334Y165608D01*
X-4327398Y161493D01*
X-4330496Y156616D01*
X-4332427Y151180D01*
X-4333138Y144830D01*
G37*
G36*
X-4254500Y118110D02*
G01*
X-4201312Y118110D01*
X-4201312Y144830D01*
X-4202023Y151180D01*
X-4203903Y156616D01*
X-4207002Y161493D01*
X-4211116Y165608D01*
X-4215993Y168706D01*
X-4221480Y170586D01*
X-4227779Y171297D01*
X-4254500Y171297D01*
G37*
G36*
X-2820060Y852271D02*
G01*
X-2717800Y852271D01*
X-2717800Y954684D01*
X-2719628Y954582D01*
X-2733954Y951839D01*
X-2747772Y947318D01*
X-2760929Y941120D01*
X-2773222Y933348D01*
X-2784449Y924052D01*
X-2794406Y913485D01*
X-2802940Y901700D01*
X-2809951Y888949D01*
X-2815336Y875385D01*
X-2818942Y861314D01*
G37*
G36*
X-7131456Y826414D02*
G01*
X-7117943Y826414D01*
X-7104583Y828243D01*
X-7091629Y831799D01*
X-7079183Y837031D01*
X-7067600Y843940D01*
X-7057034Y852271D01*
X-7047636Y861974D01*
X-7039660Y872794D01*
X-7033209Y884631D01*
X-7028332Y897229D01*
X-7025233Y910336D01*
X-7023862Y923747D01*
X-7024319Y937209D01*
X-7026554Y950468D01*
X-7030567Y963371D01*
X-7036206Y975563D01*
X-7043470Y986942D01*
X-7052208Y997203D01*
X-7062165Y1006246D01*
X-7073290Y1013917D01*
X-7085330Y1019962D01*
X-7098030Y1024382D01*
X-7111238Y1027074D01*
X-7124700Y1027988D01*
X-7138162Y1027074D01*
X-7151370Y1024382D01*
X-7164070Y1019962D01*
X-7176109Y1013917D01*
X-7187234Y1006246D01*
X-7197242Y997203D01*
X-7205929Y986942D01*
X-7213193Y975563D01*
X-7218832Y963371D01*
X-7222845Y950468D01*
X-7225080Y937209D01*
X-7225538Y923747D01*
X-7224166Y910336D01*
X-7221067Y897229D01*
X-7216190Y884631D01*
X-7209739Y872794D01*
X-7201763Y861974D01*
X-7192365Y852271D01*
X-7181799Y843940D01*
X-7170216Y837031D01*
X-7157770Y831799D01*
X-7144816Y828243D01*
G37*
G36*
X-6877456Y826414D02*
G01*
X-6863943Y826414D01*
X-6850634Y828243D01*
X-6837629Y831799D01*
X-6825183Y837031D01*
X-6813600Y843940D01*
X-6803034Y852271D01*
X-6793687Y861974D01*
X-6785660Y872794D01*
X-6779209Y884631D01*
X-6774332Y897229D01*
X-6771233Y910336D01*
X-6769862Y923747D01*
X-6770319Y937209D01*
X-6772554Y950468D01*
X-6776567Y963371D01*
X-6782257Y975563D01*
X-6789470Y986942D01*
X-6798208Y997203D01*
X-6808165Y1006246D01*
X-6819290Y1013917D01*
X-6831330Y1019962D01*
X-6844030Y1024382D01*
X-6857238Y1027074D01*
X-6870700Y1027988D01*
X-6884162Y1027074D01*
X-6897370Y1024382D01*
X-6910070Y1019962D01*
X-6922109Y1013917D01*
X-6933234Y1006246D01*
X-6943242Y997203D01*
X-6951929Y986942D01*
X-6959193Y975563D01*
X-6964832Y963371D01*
X-6968845Y950468D01*
X-6971080Y937209D01*
X-6971538Y923747D01*
X-6970166Y910336D01*
X-6967067Y897229D01*
X-6962241Y884631D01*
X-6955739Y872794D01*
X-6947763Y861974D01*
X-6938365Y852271D01*
X-6927799Y843940D01*
X-6916216Y837031D01*
X-6903821Y831799D01*
X-6890816Y828243D01*
G37*
G36*
X-4040632Y775258D02*
G01*
X-3930650Y775258D01*
X-3930650Y840994D01*
X-4067098Y840994D01*
X-4067098Y801776D01*
X-4066387Y795426D01*
X-4064508Y789990D01*
X-4061409Y785063D01*
X-4057345Y780999D01*
X-4052417Y777900D01*
X-4046982Y775970D01*
G37*
G36*
X-2946400Y216509D02*
G01*
X-2944571Y216611D01*
X-2930296Y219354D01*
X-2916428Y223824D01*
X-2903270Y230022D01*
X-2890977Y237845D01*
X-2879801Y247091D01*
X-2869793Y257708D01*
X-2861259Y269494D01*
X-2854248Y282244D01*
X-2848914Y295757D01*
X-2845257Y309880D01*
X-2844139Y318871D01*
X-2946400Y318871D01*
G37*
G36*
X-2717800Y216509D02*
G01*
X-2717800Y318871D01*
X-2820060Y318871D01*
X-2818942Y309880D01*
X-2815336Y295757D01*
X-2809951Y282244D01*
X-2802940Y269494D01*
X-2794406Y257708D01*
X-2784449Y247091D01*
X-2773222Y237845D01*
X-2760929Y230022D01*
X-2747772Y223824D01*
X-2733954Y219354D01*
X-2719628Y216611D01*
G37*
G36*
X-2971800Y216509D02*
G01*
X-2971800Y318871D01*
X-3074060Y318871D01*
X-3072942Y309880D01*
X-3069336Y295757D01*
X-3063951Y282244D01*
X-3056940Y269494D01*
X-3048406Y257708D01*
X-3038449Y247091D01*
X-3027222Y237845D01*
X-3014929Y230022D01*
X-3001772Y223824D01*
X-2987954Y219354D01*
X-2973628Y216611D01*
G37*
G36*
X-2692400Y216509D02*
G01*
X-2690571Y216611D01*
X-2676296Y219354D01*
X-2662428Y223824D01*
X-2649270Y230022D01*
X-2636977Y237845D01*
X-2625801Y247091D01*
X-2615793Y257708D01*
X-2607259Y269494D01*
X-2600248Y282244D01*
X-2594914Y295757D01*
X-2591257Y309880D01*
X-2590139Y318871D01*
X-2692400Y318871D01*
G37*
G36*
X-3905250Y775258D02*
G01*
X-3795268Y775258D01*
X-3788968Y775970D01*
X-3783482Y777900D01*
X-3778605Y780999D01*
X-3774490Y785063D01*
X-3771442Y789990D01*
X-3769512Y795426D01*
X-3768801Y801776D01*
X-3768801Y840994D01*
X-3905250Y840994D01*
G37*
G36*
X-2971800Y724509D02*
G01*
X-2971800Y826871D01*
X-3074060Y826871D01*
X-3072942Y817880D01*
X-3069336Y803757D01*
X-3063951Y790244D01*
X-3056940Y777494D01*
X-3048406Y765708D01*
X-3038449Y755091D01*
X-3027222Y745845D01*
X-3014929Y738022D01*
X-3001772Y731824D01*
X-2987954Y727354D01*
X-2973628Y724611D01*
G37*
G36*
X-2692400Y724509D02*
G01*
X-2690571Y724611D01*
X-2676296Y727354D01*
X-2662428Y731824D01*
X-2649270Y738022D01*
X-2636977Y745845D01*
X-2625801Y755091D01*
X-2615793Y765708D01*
X-2607259Y777494D01*
X-2600248Y790244D01*
X-2594914Y803757D01*
X-2591257Y817880D01*
X-2590139Y826871D01*
X-2692400Y826871D01*
G37*
G36*
X-2717800Y724509D02*
G01*
X-2717800Y826871D01*
X-2820060Y826871D01*
X-2818942Y817880D01*
X-2815336Y803757D01*
X-2809951Y790244D01*
X-2802940Y777494D01*
X-2794406Y765708D01*
X-2784449Y755091D01*
X-2773222Y745845D01*
X-2760929Y738022D01*
X-2747772Y731824D01*
X-2733954Y727354D01*
X-2719628Y724611D01*
G37*
G36*
X-6877456Y318414D02*
G01*
X-6863943Y318414D01*
X-6850634Y320243D01*
X-6837629Y323799D01*
X-6825183Y329031D01*
X-6813600Y335940D01*
X-6803034Y344271D01*
X-6793687Y353974D01*
X-6785660Y364794D01*
X-6779209Y376631D01*
X-6774332Y389229D01*
X-6771233Y402336D01*
X-6769862Y415747D01*
X-6770319Y429209D01*
X-6772554Y442468D01*
X-6776567Y455371D01*
X-6782257Y467563D01*
X-6789470Y478942D01*
X-6798208Y489204D01*
X-6808165Y498246D01*
X-6819290Y505917D01*
X-6831330Y511962D01*
X-6844030Y516382D01*
X-6857238Y519074D01*
X-6870700Y519988D01*
X-6884162Y519074D01*
X-6897370Y516382D01*
X-6910070Y511962D01*
X-6922109Y505917D01*
X-6933234Y498246D01*
X-6943242Y489204D01*
X-6951929Y478942D01*
X-6959193Y467563D01*
X-6964832Y455371D01*
X-6968845Y442468D01*
X-6971080Y429209D01*
X-6971538Y415747D01*
X-6970166Y402336D01*
X-6967067Y389229D01*
X-6962241Y376631D01*
X-6955739Y364794D01*
X-6947763Y353974D01*
X-6938365Y344271D01*
X-6927799Y335940D01*
X-6916216Y329031D01*
X-6903821Y323799D01*
X-6890816Y320243D01*
G37*
G36*
X-7131456Y318414D02*
G01*
X-7117943Y318414D01*
X-7104583Y320243D01*
X-7091629Y323799D01*
X-7079183Y329031D01*
X-7067600Y335940D01*
X-7057034Y344271D01*
X-7047636Y353974D01*
X-7039660Y364794D01*
X-7033209Y376631D01*
X-7028332Y389229D01*
X-7025233Y402336D01*
X-7023862Y415747D01*
X-7024319Y429209D01*
X-7026554Y442468D01*
X-7030567Y455371D01*
X-7036206Y467563D01*
X-7043470Y478942D01*
X-7052208Y489204D01*
X-7062165Y498246D01*
X-7073290Y505917D01*
X-7085330Y511962D01*
X-7098030Y516382D01*
X-7111238Y519074D01*
X-7124700Y519988D01*
X-7138162Y519074D01*
X-7151370Y516382D01*
X-7164070Y511962D01*
X-7176109Y505917D01*
X-7187234Y498246D01*
X-7197242Y489204D01*
X-7205929Y478942D01*
X-7213193Y467563D01*
X-7218832Y455371D01*
X-7222845Y442468D01*
X-7225080Y429209D01*
X-7225538Y415747D01*
X-7224166Y402336D01*
X-7221067Y389229D01*
X-7216190Y376631D01*
X-7209739Y364794D01*
X-7201763Y353974D01*
X-7192365Y344271D01*
X-7181799Y335940D01*
X-7170216Y329031D01*
X-7157770Y323799D01*
X-7144816Y320243D01*
G37*
G36*
X-2946400Y724509D02*
G01*
X-2944571Y724611D01*
X-2930296Y727354D01*
X-2916428Y731824D01*
X-2903270Y738022D01*
X-2890977Y745845D01*
X-2879801Y755091D01*
X-2869793Y765708D01*
X-2861259Y777494D01*
X-2854248Y790244D01*
X-2848914Y803757D01*
X-2845257Y817880D01*
X-2844139Y826871D01*
X-2946400Y826871D01*
G37*
G36*
X-3074060Y598271D02*
G01*
X-2971800Y598271D01*
X-2971800Y700684D01*
X-2973628Y700582D01*
X-2987954Y697839D01*
X-3001772Y693318D01*
X-3014929Y687120D01*
X-3027222Y679348D01*
X-3038449Y670052D01*
X-3048406Y659485D01*
X-3056940Y647700D01*
X-3063951Y634949D01*
X-3069336Y621385D01*
X-3072942Y607314D01*
G37*
G36*
X-2946400Y344271D02*
G01*
X-2844139Y344271D01*
X-2845257Y353314D01*
X-2848914Y367385D01*
X-2854248Y380949D01*
X-2861259Y393700D01*
X-2869793Y405485D01*
X-2879801Y416051D01*
X-2890977Y425348D01*
X-2903270Y433120D01*
X-2916428Y439318D01*
X-2930296Y443839D01*
X-2944571Y446582D01*
X-2946400Y446684D01*
G37*
G36*
X-3074060Y344271D02*
G01*
X-2971800Y344271D01*
X-2971800Y446684D01*
X-2973628Y446582D01*
X-2987954Y443839D01*
X-3001772Y439318D01*
X-3014929Y433120D01*
X-3027222Y425348D01*
X-3038449Y416051D01*
X-3048406Y405485D01*
X-3056940Y393700D01*
X-3063951Y380949D01*
X-3069336Y367385D01*
X-3072942Y353314D01*
G37*
G36*
X-2820060Y344271D02*
G01*
X-2717800Y344271D01*
X-2717800Y446684D01*
X-2719628Y446582D01*
X-2733954Y443839D01*
X-2747772Y439318D01*
X-2760929Y433120D01*
X-2773222Y425348D01*
X-2784449Y416051D01*
X-2794406Y405485D01*
X-2802940Y393700D01*
X-2809951Y380949D01*
X-2815336Y367385D01*
X-2818942Y353314D01*
G37*
G36*
X-2692400Y344271D02*
G01*
X-2590139Y344271D01*
X-2591257Y353314D01*
X-2594914Y367385D01*
X-2600248Y380949D01*
X-2607259Y393700D01*
X-2615793Y405485D01*
X-2625801Y416051D01*
X-2636977Y425348D01*
X-2649270Y433120D01*
X-2662428Y439318D01*
X-2676296Y443839D01*
X-2690571Y446582D01*
X-2692400Y446684D01*
G37*
G36*
X-2692400Y598271D02*
G01*
X-2590139Y598271D01*
X-2591257Y607314D01*
X-2594914Y621385D01*
X-2600248Y634949D01*
X-2607259Y647700D01*
X-2615793Y659485D01*
X-2625801Y670052D01*
X-2636977Y679348D01*
X-2649270Y687120D01*
X-2662428Y693318D01*
X-2676296Y697839D01*
X-2690571Y700582D01*
X-2692400Y700684D01*
G37*
G36*
X-3469132Y420776D02*
G01*
X-3223768Y420776D01*
X-3217468Y421487D01*
X-3211982Y423418D01*
X-3207105Y426466D01*
X-3202990Y430580D01*
X-3199942Y435457D01*
X-3198012Y440943D01*
X-3197301Y447243D01*
X-3197301Y800100D01*
X-3198012Y806450D01*
X-3199942Y811885D01*
X-3202990Y816813D01*
X-3207105Y820877D01*
X-3211982Y823976D01*
X-3217468Y825906D01*
X-3223768Y826617D01*
X-3469132Y826617D01*
X-3475482Y825906D01*
X-3480917Y823976D01*
X-3485845Y820877D01*
X-3489909Y816813D01*
X-3493008Y811885D01*
X-3494887Y806450D01*
X-3495598Y800100D01*
X-3495598Y447243D01*
X-3494887Y440943D01*
X-3493008Y435457D01*
X-3489909Y430580D01*
X-3485845Y426466D01*
X-3480917Y423418D01*
X-3475482Y421487D01*
G37*
G36*
X-2946400Y598271D02*
G01*
X-2844139Y598271D01*
X-2845257Y607314D01*
X-2848914Y621385D01*
X-2854248Y634949D01*
X-2861259Y647700D01*
X-2869793Y659485D01*
X-2879801Y670052D01*
X-2890977Y679348D01*
X-2903270Y687120D01*
X-2916428Y693318D01*
X-2930296Y697839D01*
X-2944571Y700582D01*
X-2946400Y700684D01*
G37*
G36*
X-7131456Y572414D02*
G01*
X-7117943Y572414D01*
X-7104583Y574243D01*
X-7091629Y577799D01*
X-7079183Y583031D01*
X-7067600Y589940D01*
X-7057034Y598271D01*
X-7047636Y607974D01*
X-7039660Y618794D01*
X-7033209Y630631D01*
X-7028332Y643229D01*
X-7025233Y656336D01*
X-7023862Y669747D01*
X-7024319Y683209D01*
X-7026554Y696468D01*
X-7030567Y709371D01*
X-7036206Y721563D01*
X-7043470Y732942D01*
X-7052208Y743204D01*
X-7062165Y752246D01*
X-7073290Y759917D01*
X-7085330Y765962D01*
X-7098030Y770382D01*
X-7111238Y773074D01*
X-7124700Y773988D01*
X-7138162Y773074D01*
X-7151370Y770382D01*
X-7164070Y765962D01*
X-7176109Y759917D01*
X-7187234Y752246D01*
X-7197242Y743204D01*
X-7205929Y732942D01*
X-7213193Y721563D01*
X-7218832Y709371D01*
X-7222845Y696468D01*
X-7225080Y683209D01*
X-7225538Y669747D01*
X-7224166Y656336D01*
X-7221067Y643229D01*
X-7216190Y630631D01*
X-7209739Y618794D01*
X-7201763Y607974D01*
X-7192365Y598271D01*
X-7181799Y589940D01*
X-7170216Y583031D01*
X-7157770Y577799D01*
X-7144816Y574243D01*
G37*
G36*
X-6877456Y572414D02*
G01*
X-6863943Y572414D01*
X-6850634Y574243D01*
X-6837629Y577799D01*
X-6825183Y583031D01*
X-6813600Y589940D01*
X-6803034Y598271D01*
X-6793687Y607974D01*
X-6785660Y618794D01*
X-6779209Y630631D01*
X-6774332Y643229D01*
X-6771233Y656336D01*
X-6769862Y669747D01*
X-6770319Y683209D01*
X-6772554Y696468D01*
X-6776567Y709371D01*
X-6782257Y721563D01*
X-6789470Y732942D01*
X-6798208Y743204D01*
X-6808165Y752246D01*
X-6819290Y759917D01*
X-6831330Y765962D01*
X-6844030Y770382D01*
X-6857238Y773074D01*
X-6870700Y773988D01*
X-6884162Y773074D01*
X-6897370Y770382D01*
X-6910070Y765962D01*
X-6922109Y759917D01*
X-6933234Y752246D01*
X-6943242Y743204D01*
X-6951929Y732942D01*
X-6959193Y721563D01*
X-6964832Y709371D01*
X-6968845Y696468D01*
X-6971080Y683209D01*
X-6971538Y669747D01*
X-6970166Y656336D01*
X-6967067Y643229D01*
X-6962241Y630631D01*
X-6955739Y618794D01*
X-6947763Y607974D01*
X-6938365Y598271D01*
X-6927799Y589940D01*
X-6916216Y583031D01*
X-6903821Y577799D01*
X-6890816Y574243D01*
G37*
G36*
X-2692400Y470509D02*
G01*
X-2690571Y470611D01*
X-2676296Y473354D01*
X-2662428Y477824D01*
X-2649270Y484022D01*
X-2636977Y491845D01*
X-2625801Y501091D01*
X-2615793Y511708D01*
X-2607259Y523493D01*
X-2600248Y536244D01*
X-2594914Y549757D01*
X-2591257Y563880D01*
X-2590139Y572871D01*
X-2692400Y572871D01*
G37*
G36*
X-2946400Y470509D02*
G01*
X-2944571Y470611D01*
X-2930296Y473354D01*
X-2916428Y477824D01*
X-2903270Y484022D01*
X-2890977Y491845D01*
X-2879801Y501091D01*
X-2869793Y511708D01*
X-2861259Y523493D01*
X-2854248Y536244D01*
X-2848914Y549757D01*
X-2845257Y563880D01*
X-2844139Y572871D01*
X-2946400Y572871D01*
G37*
G36*
X-2717800Y470509D02*
G01*
X-2717800Y572871D01*
X-2820060Y572871D01*
X-2818942Y563880D01*
X-2815336Y549757D01*
X-2809951Y536244D01*
X-2802940Y523493D01*
X-2794406Y511708D01*
X-2784449Y501091D01*
X-2773222Y491845D01*
X-2760929Y484022D01*
X-2747772Y477824D01*
X-2733954Y473354D01*
X-2719628Y470611D01*
G37*
G36*
X-2971800Y470509D02*
G01*
X-2971800Y572871D01*
X-3074060Y572871D01*
X-3072942Y563880D01*
X-3069336Y549757D01*
X-3063951Y536244D01*
X-3056940Y523493D01*
X-3048406Y511708D01*
X-3038449Y501091D01*
X-3027222Y491845D01*
X-3014929Y484022D01*
X-3001772Y477824D01*
X-2987954Y473354D01*
X-2973628Y470611D01*
G37*

%LPD*%
G36*
X-304038Y1110843D02*
G01*
X-307898Y1111605D01*
X-311200Y1113790D01*
X-313436Y1117092D01*
X-314198Y1121003D01*
X-314198Y1139698D01*
X-334314Y1139698D01*
X-338175Y1140460D01*
X-341477Y1142695D01*
X-343662Y1145997D01*
X-344474Y1149858D01*
X-343662Y1153769D01*
X-341477Y1157071D01*
X-336397Y1162151D01*
X-333095Y1164336D01*
X-329234Y1165098D01*
X-314198Y1165098D01*
X-314198Y1180134D01*
X-313436Y1183995D01*
X-311200Y1187297D01*
X-306120Y1192377D01*
X-302818Y1194612D01*
X-298958Y1195374D01*
X-295046Y1194612D01*
X-291744Y1192377D01*
X-289560Y1189075D01*
X-288798Y1185214D01*
X-288798Y1165098D01*
X-270052Y1165098D01*
X-266192Y1164336D01*
X-262890Y1162151D01*
X-260654Y1158849D01*
X-259892Y1154938D01*
X-259892Y1149858D01*
X-260654Y1145997D01*
X-262890Y1142695D01*
X-266192Y1140460D01*
X-270052Y1139698D01*
X-288798Y1139698D01*
X-288798Y1121003D01*
X-289560Y1117092D01*
X-291744Y1113790D01*
X-295046Y1111605D01*
X-298958Y1110843D01*
G37*

%LPD*%
G36*
X-481330Y956310D02*
G01*
X-485241Y957071D01*
X-488543Y959256D01*
X-490728Y962558D01*
X-491490Y966469D01*
X-491490Y1069797D01*
X-492099Y1075080D01*
X-491693Y1079296D01*
X-489559Y1083005D01*
X-486156Y1085494D01*
X-481990Y1086358D01*
X-404774Y1086358D01*
X-398475Y1087069D01*
X-392988Y1088999D01*
X-388112Y1092098D01*
X-383997Y1096162D01*
X-380949Y1101090D01*
X-379018Y1106525D01*
X-378307Y1112875D01*
X-378307Y1125423D01*
X-377393Y1129588D01*
X-374853Y1133043D01*
X-371094Y1135126D01*
X-367995Y1136091D01*
X-364236Y1136497D01*
X-360629Y1135481D01*
X-357581Y1133246D01*
X-355600Y1130046D01*
X-354177Y1119174D01*
X-352298Y1113688D01*
X-350164Y1110335D01*
X-348792Y1106779D01*
X-348792Y1103020D01*
X-350164Y1099515D01*
X-352298Y1096111D01*
X-354177Y1090676D01*
X-354888Y1084326D01*
X-354888Y1030478D01*
X-354177Y1024178D01*
X-352298Y1018692D01*
X-349199Y1013815D01*
X-345389Y1010005D01*
X-343204Y1006703D01*
X-342442Y1002792D01*
X-343204Y998931D01*
X-345389Y995629D01*
X-381762Y959256D01*
X-385064Y957071D01*
X-388924Y956310D01*
G37*

%LPD*%
G36*
X-611225Y833424D02*
G01*
X-615238Y834898D01*
X-621233Y838657D01*
X-626668Y840587D01*
X-632968Y841298D01*
X-734720Y841298D01*
X-738835Y842162D01*
X-742289Y844600D01*
X-744372Y848258D01*
X-744880Y852424D01*
X-743762Y863650D01*
X-744626Y873404D01*
X-747166Y882853D01*
X-751332Y891794D01*
X-756970Y899820D01*
X-766826Y909421D01*
X-768299Y912317D01*
X-768807Y915466D01*
X-768807Y924306D01*
X-768146Y927963D01*
X-766165Y931164D01*
X-763219Y933399D01*
X-759663Y934415D01*
X-751586Y935228D01*
X-747420Y936091D01*
X-743153Y935177D01*
X-736854Y934466D01*
X-718007Y934466D01*
X-711657Y935177D01*
X-707390Y936091D01*
X-700125Y934872D01*
X-699617Y940257D01*
X-698246Y943000D01*
X-695706Y946607D01*
X-692912Y949299D01*
X-689356Y950721D01*
X-685495Y950721D01*
X-681888Y949299D01*
X-679094Y946607D01*
X-676554Y943000D01*
X-675182Y940257D01*
X-674725Y934872D01*
X-667410Y936091D01*
X-663143Y935177D01*
X-656844Y934466D01*
X-637997Y934466D01*
X-631647Y935177D01*
X-627430Y936091D01*
X-623163Y935177D01*
X-616864Y934466D01*
X-609803Y934466D01*
X-605942Y933703D01*
X-602640Y931519D01*
X-600405Y928217D01*
X-599643Y924306D01*
X-599643Y843483D01*
X-600557Y839266D01*
X-603148Y835812D01*
X-606907Y833729D01*
G37*

%LPD*%
G36*
X-138531Y752652D02*
G01*
X-142240Y753364D01*
X-145440Y755345D01*
X-147675Y758393D01*
X-148691Y762000D01*
X-169468Y762000D01*
X-173329Y762762D01*
X-176631Y764946D01*
X-178816Y768248D01*
X-179628Y772160D01*
X-179628Y777240D01*
X-178816Y781100D01*
X-176631Y784402D01*
X-173329Y786638D01*
X-169468Y787400D01*
X-148691Y787400D01*
X-148691Y809548D01*
X-148234Y812596D01*
X-146862Y815390D01*
X-141782Y822604D01*
X-138684Y825500D01*
X-134670Y826871D01*
X-130403Y826465D01*
X-126695Y824382D01*
X-124206Y820978D01*
X-123291Y816813D01*
X-123291Y787400D01*
X-70612Y787400D01*
X-70612Y801116D01*
X-71323Y807466D01*
X-73202Y812901D01*
X-76301Y817829D01*
X-80416Y821893D01*
X-85293Y824992D01*
X-90779Y826871D01*
X-97078Y827582D01*
X-125425Y827582D01*
X-129032Y828294D01*
X-132232Y830224D01*
X-134467Y833170D01*
X-135534Y836676D01*
X-134162Y850900D01*
X-135026Y860704D01*
X-137363Y869340D01*
X-137668Y873048D01*
X-136601Y876604D01*
X-134315Y879551D01*
X-131165Y881481D01*
X-127558Y882142D01*
X322935Y882142D01*
X326440Y881481D01*
X329539Y879652D01*
X331825Y876858D01*
X334060Y872794D01*
X342036Y861974D01*
X351434Y852271D01*
X353669Y850493D01*
X356362Y847293D01*
X357530Y843280D01*
X356971Y839165D01*
X354838Y835609D01*
X351434Y833221D01*
X347370Y832358D01*
X343408Y832358D01*
X336194Y831596D01*
X329793Y829513D01*
X323850Y826058D01*
X319786Y822604D01*
X252831Y755650D01*
X249529Y753465D01*
X245617Y752652D01*
X-60452Y752652D01*
X-64109Y753364D01*
X-67310Y755345D01*
X-69545Y758393D01*
X-70561Y762000D01*
X-123342Y762000D01*
X-124358Y758393D01*
X-126593Y755345D01*
X-129794Y753364D01*
X-133451Y752652D01*
G37*

%LPD*%
G36*
X-1493723Y743458D02*
G01*
X-1497634Y744220D01*
X-1500936Y746455D01*
X-1551635Y797153D01*
X-1557274Y801725D01*
X-1563268Y804773D01*
X-1569872Y806551D01*
X-1575206Y806958D01*
X-1612493Y806958D01*
X-1616405Y807720D01*
X-1619707Y809955D01*
X-1627530Y817880D01*
X-1635556Y823518D01*
X-1641602Y826312D01*
X-1644497Y828344D01*
X-1646529Y831240D01*
X-1647443Y834644D01*
X-1647139Y838149D01*
X-1646326Y841095D01*
X-1645462Y850900D01*
X-1645920Y856030D01*
X-1645361Y860399D01*
X-1642973Y864108D01*
X-1627936Y879144D01*
X-1624634Y881380D01*
X-1620774Y882142D01*
X-1403502Y882142D01*
X-1399540Y881329D01*
X-1396187Y878992D01*
X-1394002Y875588D01*
X-1393342Y871575D01*
X-1394358Y867613D01*
X-1399184Y857453D01*
X-1401724Y848004D01*
X-1402588Y838200D01*
X-1401724Y828395D01*
X-1400708Y823366D01*
X-1400708Y774700D01*
X-1379982Y774700D01*
X-1376070Y773938D01*
X-1372819Y771702D01*
X-1370584Y768400D01*
X-1369822Y764540D01*
X-1369822Y759460D01*
X-1370584Y755548D01*
X-1372819Y752246D01*
X-1376070Y750062D01*
X-1379982Y749300D01*
X-1401673Y749300D01*
X-1403908Y746201D01*
X-1407160Y744169D01*
X-1410868Y743458D01*
X-1415948Y743458D01*
X-1419707Y744169D01*
X-1422908Y746201D01*
X-1425143Y749300D01*
X-1479804Y749300D01*
X-1481785Y746455D01*
X-1485087Y744220D01*
X-1488998Y743458D01*
G37*

%LPC*%
G36*
X-1478838Y774700D02*
G01*
X-1426108Y774700D01*
X-1426108Y814882D01*
X-1452372Y814882D01*
X-1458671Y814171D01*
X-1464157Y812292D01*
X-1469034Y809193D01*
X-1473149Y805129D01*
X-1476197Y800201D01*
X-1478127Y794766D01*
X-1478838Y788416D01*
G37*

%LPD*%
G36*
X-1008634Y682548D02*
G01*
X-1012545Y683463D01*
X-1022146Y687933D01*
X-1031646Y690473D01*
X-1041400Y691337D01*
X-1052017Y690422D01*
X-1055979Y690880D01*
X-1059535Y692861D01*
X-1061974Y696010D01*
X-1063040Y699922D01*
X-1062228Y704646D01*
X-1061516Y710946D01*
X-1061516Y729843D01*
X-1062228Y736142D01*
X-1063091Y740410D01*
X-1062228Y744626D01*
X-1061516Y750976D01*
X-1061516Y769823D01*
X-1062228Y776122D01*
X-1063091Y780389D01*
X-1062228Y784656D01*
X-1061516Y790956D01*
X-1061516Y809802D01*
X-1062228Y816152D01*
X-1063091Y820369D01*
X-1062228Y824636D01*
X-1061516Y830935D01*
X-1061516Y849833D01*
X-1062228Y856132D01*
X-1063091Y860399D01*
X-1062228Y864616D01*
X-1061516Y870966D01*
X-1061516Y889812D01*
X-1062228Y896162D01*
X-1063091Y900379D01*
X-1062228Y904646D01*
X-1061516Y910945D01*
X-1061516Y924306D01*
X-1060754Y928217D01*
X-1058519Y931519D01*
X-1055217Y933703D01*
X-1051356Y934466D01*
X-1037996Y934466D01*
X-1031646Y935177D01*
X-1027430Y936091D01*
X-1023162Y935177D01*
X-1016863Y934466D01*
X-997966Y934466D01*
X-991666Y935177D01*
X-987399Y936091D01*
X-983183Y935177D01*
X-976833Y934466D01*
X-967384Y934466D01*
X-963320Y933602D01*
X-959916Y931164D01*
X-957783Y927608D01*
X-957275Y923442D01*
X-958087Y914400D01*
X-957224Y904646D01*
X-954379Y894130D01*
X-954074Y890269D01*
X-955243Y886612D01*
X-957681Y883666D01*
X-961034Y881786D01*
X-965606Y880313D01*
X-971550Y876858D01*
X-975614Y873404D01*
X-987653Y861364D01*
X-992225Y855726D01*
X-995273Y849731D01*
X-997051Y843076D01*
X-997458Y837946D01*
X-998118Y692658D01*
X-998931Y688695D01*
X-1001217Y685342D01*
X-1004620Y683209D01*
G37*

%LPD*%
G36*
X-785266Y514654D02*
G01*
X-790346Y514858D01*
X-794105Y515721D01*
X-797255Y517956D01*
X-799388Y521208D01*
X-800100Y525018D01*
X-800100Y647700D01*
X-923594Y647700D01*
X-927455Y648462D01*
X-930757Y650697D01*
X-932992Y653999D01*
X-933703Y657910D01*
X-933703Y662990D01*
X-932942Y666851D01*
X-930706Y670153D01*
X-927404Y672338D01*
X-923544Y673100D01*
X-800100Y673100D01*
X-800100Y797966D01*
X-799541Y801319D01*
X-797864Y804316D01*
X-795324Y806602D01*
X-792124Y807872D01*
X-787044Y808990D01*
X-782523Y808939D01*
X-778510Y806958D01*
X-775716Y803452D01*
X-774700Y799033D01*
X-774700Y673100D01*
X-623620Y673100D01*
X-619506Y672185D01*
X-616051Y669696D01*
X-613968Y665988D01*
X-613562Y661771D01*
X-614934Y657707D01*
X-617829Y654608D01*
X-620471Y652780D01*
X-622554Y650646D01*
X-625856Y648462D01*
X-629716Y647700D01*
X-774700Y647700D01*
X-774700Y524814D01*
X-775512Y520801D01*
X-777849Y517499D01*
X-781253Y515315D01*
G37*

%LPD*%
G36*
X-707390Y384708D02*
G01*
X-711657Y385572D01*
X-718007Y386283D01*
X-724916Y386283D01*
X-728827Y387045D01*
X-732078Y389280D01*
X-734314Y392582D01*
X-735076Y396443D01*
X-735076Y461975D01*
X-735736Y468274D01*
X-735330Y472440D01*
X-733196Y476097D01*
X-729792Y478586D01*
X-725627Y479501D01*
X-665835Y479501D01*
X-661974Y478688D01*
X-658672Y476504D01*
X-656488Y473201D01*
X-655675Y469341D01*
X-656488Y465429D01*
X-658672Y462127D01*
X-665480Y455320D01*
X-671118Y447293D01*
X-675284Y438353D01*
X-677824Y428904D01*
X-678688Y419100D01*
X-677824Y409295D01*
X-675081Y399084D01*
X-674776Y395376D01*
X-675843Y391820D01*
X-678078Y388924D01*
X-681228Y386994D01*
X-684885Y386283D01*
X-696823Y386283D01*
X-703173Y385572D01*
G37*

%LPD*%
G36*
X-376783Y95758D02*
G01*
X-380644Y96520D01*
X-383946Y98704D01*
X-386181Y102006D01*
X-386943Y105918D01*
X-386943Y116230D01*
X-387654Y122529D01*
X-388874Y127812D01*
X-387654Y133045D01*
X-386943Y139344D01*
X-386943Y166217D01*
X-387654Y172567D01*
X-388874Y177749D01*
X-387654Y183032D01*
X-386943Y189331D01*
X-386943Y216204D01*
X-387654Y222554D01*
X-388874Y227787D01*
X-387654Y233019D01*
X-386943Y239369D01*
X-386943Y266242D01*
X-387654Y272542D01*
X-389585Y278028D01*
X-392633Y282905D01*
X-396748Y287020D01*
X-401624Y290068D01*
X-407111Y291998D01*
X-413410Y292709D01*
X-472236Y292709D01*
X-480059Y291693D01*
X-484327Y292100D01*
X-488086Y294182D01*
X-490626Y297637D01*
X-491490Y301802D01*
X-491490Y354330D01*
X-490728Y358190D01*
X-488543Y361492D01*
X-485241Y363728D01*
X-481330Y364490D01*
X-378002Y364490D01*
X-371652Y365201D01*
X-365099Y367487D01*
X-361899Y368046D01*
X-355346Y368147D01*
X-351383Y367436D01*
X-348030Y365201D01*
X-345795Y361899D01*
X-345033Y357987D01*
X-345033Y351078D01*
X-344322Y344728D01*
X-342392Y339293D01*
X-339344Y334365D01*
X-335229Y330301D01*
X-330352Y327202D01*
X-324866Y325272D01*
X-318566Y324561D01*
X-294894Y324561D01*
X-291236Y323900D01*
X-288036Y321919D01*
X-285800Y318922D01*
X-284784Y315315D01*
X-284124Y307695D01*
X-281584Y298246D01*
X-280365Y295656D01*
X-279400Y291338D01*
X-279400Y267462D01*
X-280365Y263144D01*
X-281584Y260553D01*
X-284124Y251104D01*
X-284530Y246329D01*
X-285851Y242163D01*
X-286613Y241300D01*
X-285851Y240436D01*
X-284530Y236270D01*
X-284124Y231495D01*
X-281584Y222046D01*
X-280365Y219456D01*
X-279400Y215138D01*
X-279400Y191262D01*
X-280365Y186944D01*
X-281584Y184353D01*
X-284124Y174904D01*
X-284530Y170129D01*
X-285699Y166217D01*
X-286613Y165100D01*
X-285851Y164236D01*
X-284530Y160070D01*
X-284124Y155295D01*
X-281584Y145846D01*
X-280365Y143256D01*
X-279400Y138938D01*
X-279400Y105918D01*
X-280212Y102006D01*
X-282397Y98704D01*
X-285699Y96520D01*
X-289560Y95758D01*
X-294640Y95758D01*
X-298551Y96520D01*
X-301853Y98704D01*
X-304038Y102006D01*
X-304800Y105918D01*
X-304800Y159156D01*
X-303885Y163474D01*
X-302920Y165100D01*
X-333044Y165100D01*
X-333044Y105918D01*
X-333806Y102006D01*
X-335991Y98704D01*
X-339293Y96520D01*
X-343204Y95758D01*
G37*

%LPC*%
G36*
X-333044Y190500D02*
G01*
X-304800Y190500D01*
X-304800Y235356D01*
X-303885Y239674D01*
X-302615Y241300D01*
X-303885Y242925D01*
X-304800Y247243D01*
X-304800Y288696D01*
X-312877Y287985D01*
X-318312Y286054D01*
X-323240Y283006D01*
X-327304Y278892D01*
X-330403Y274015D01*
X-332333Y268528D01*
X-333044Y262229D01*
G37*

%LPD*%
D10*
X-4090906Y1346205D02*
G01*
X-4267182Y1346967D01*
D11*
X-4090830Y1346197D02*
G01*
X-4090830Y1560659D01*
X-4008727Y1642762D01*
X-4008727Y1955800D01*
X-4090832Y1346200D02*
G01*
X-4090827Y1346205D01*
X-3754026Y1346205D01*
X-4090842Y393700D02*
G01*
X-3917942Y393700D01*
D12*
X-190497Y389884D02*
G01*
X-190497Y368292D01*
X-141348Y319153D01*
X-141348Y252801D01*
X-114307Y469905D02*
G01*
X-143403Y499000D01*
X-292107Y499000D01*
X-114307Y469905D02*
G01*
X-143403Y499000D01*
X-190507Y499000D01*
D10*
X-807402Y1015390D02*
G01*
X-807402Y870897D01*
X-800097Y863592D01*
D12*
X-432394Y440405D02*
G01*
X-512091Y440405D01*
X-533397Y419092D01*
X-292084Y389994D02*
G01*
X-302491Y400408D01*
X-432394Y400408D01*
X-228597Y317492D02*
G01*
X-228597Y355592D01*
X-262890Y389884D01*
X-292097Y389884D01*
X-228597Y317492D02*
G01*
X-228597Y351784D01*
X-190497Y389884D01*
X-727420Y305399D02*
G01*
X-727420Y181320D01*
X-723897Y177797D01*
X-141348Y202780D02*
G01*
X-190088Y202780D01*
X-228597Y241292D01*
X-141348Y152801D02*
G01*
X-216293Y152801D01*
X-228597Y165092D01*
X-442836Y152801D02*
G01*
X-521083Y152801D01*
X-607402Y239115D01*
X-607402Y305399D01*
X-442836Y252801D02*
G01*
X-527309Y252801D01*
X-527309Y305300D01*
X-847399Y305399D02*
G01*
X-847399Y397189D01*
X-825497Y419102D01*
X-807402Y305399D02*
G01*
X-807402Y400997D01*
X-825497Y419102D01*
X-767331Y305300D02*
G01*
X-767331Y462531D01*
X-787397Y482592D01*
X-967232Y482592D01*
D10*
X-1142403Y400408D02*
G01*
X-1199789Y400408D01*
X-1231897Y368297D01*
X-1231897Y206905D01*
X-1130297Y206905D02*
G01*
X-1231897Y206905D01*
X-1130297Y97889D02*
G01*
X-1231897Y97889D01*
D12*
X-1079497Y1181097D02*
G01*
X-1126589Y1134005D01*
X-1126589Y1092197D01*
X-847399Y1015390D02*
G01*
X-847399Y1142992D01*
X-885289Y1180881D01*
X-885289Y1193797D01*
X-887409Y1015390D02*
G01*
X-887409Y928684D01*
X-901697Y914397D01*
X-767392Y1015390D02*
G01*
X-767392Y1112207D01*
X-707303Y1172286D01*
X-694207Y1172286D01*
D10*
X-270405Y1282702D02*
G01*
X-380824Y1172286D01*
X-474190Y1172286D01*
X-279397Y1358897D02*
G01*
X-279397Y1291539D01*
X-270504Y1282646D01*
X-1041397Y419102D02*
G01*
X-1041397Y634997D01*
D12*
X-442836Y202780D02*
G01*
X-520288Y202780D01*
X-567367Y249872D01*
X-567367Y305399D01*
X-355597Y177797D02*
G01*
X-355597Y129379D01*
X-382188Y102788D01*
X-442823Y102788D01*
X-647400Y305300D02*
G01*
X-647400Y228846D01*
X-482041Y63492D01*
X-228597Y63492D01*
X-189306Y102788D01*
X-141348Y102788D01*
D10*
X-967369Y305399D02*
G01*
X-967369Y228602D01*
X-930805Y192041D01*
X-930805Y190497D01*
D12*
X-432381Y480415D02*
G01*
X-560992Y480415D01*
X-622297Y419102D01*
X241292Y1892305D02*
G01*
X242892Y1890704D01*
X377743Y1890704D01*
X377743Y1690705D02*
G01*
X242892Y1690705D01*
X241292Y1689105D01*
X-1142489Y760470D02*
G01*
X-1304290Y761997D01*
X-1346207Y838205D02*
G01*
X-1304386Y796383D01*
X-1304386Y762000D01*
X-79905Y1054097D02*
G01*
X-83218Y1057402D01*
X-206471Y1057402D01*
X-88897Y1130297D02*
G01*
X-88897Y1054097D01*
X-79905Y1054097D01*
X-687324Y1015489D02*
G01*
X-687324Y938270D01*
X-723897Y901697D01*
X-723897Y863597D01*
D10*
X-1104028Y-88902D02*
G01*
X-1117597Y-88902D01*
X-1212601Y6093D01*
X-1520499Y6093D01*
X-301498Y1152423D02*
G01*
X-301498Y1171696D01*
X-266697Y1206497D01*
D12*
X-687324Y305305D02*
G01*
X-687324Y217423D01*
X-647697Y177797D01*
X-647697Y139697D01*
X-432305Y920493D02*
G01*
X-374896Y920493D01*
X-301498Y993896D01*
X-301498Y1057396D01*
D10*
X-1130297Y330197D02*
G01*
X-1130297Y206905D01*
D13*
X-1007391Y305404D02*
G01*
X-1007391Y118384D01*
X-977897Y88897D01*
X-930805Y88897D01*
D10*
X-301498Y1152397D02*
G01*
X-320796Y1152397D01*
X-368297Y1104897D01*
X-368297Y1079497D01*
X-437390Y1010409D01*
X-807465Y1015446D02*
G01*
X-807465Y1295397D01*
X-885289Y1295397D01*
D12*
X-1047501Y305305D02*
G01*
X-1047501Y-32260D01*
X-1104140Y-88902D01*
X-967480Y1015489D02*
G01*
X-967480Y1069086D01*
X-990597Y1104897D01*
X-1126490Y1104897D01*
X-1126490Y1092197D01*
D10*
X-952497Y25397D02*
G01*
X-952497Y30606D01*
X-953366Y-88902D01*
X-930904Y88897D02*
G01*
X-930904Y59689D01*
X-952497Y38097D01*
X-952497Y25397D01*
D12*
X-876297Y850892D02*
G01*
X-952497Y850892D01*
X-965197Y838192D01*
X-967480Y305300D01*
X-847338Y1015489D02*
G01*
X-847338Y892550D01*
X-876297Y850897D01*
X-927407Y1015390D02*
G01*
X-927097Y1110609D01*
X377743Y2325705D02*
G01*
X-163507Y2325705D01*
X-165107Y2324105D01*
X377743Y2525704D02*
G01*
X115892Y2525704D01*
X114292Y2527305D01*
D11*
X-3776802Y2312794D02*
G01*
X-3893992Y2312794D01*
D10*
X-4267182Y1497718D02*
G01*
X-4267182Y1705615D01*
X-3917944Y623694D02*
G01*
X-3920197Y621441D01*
X-4267182Y621441D01*
X-4267182Y470768D02*
G01*
X-4267182Y275597D01*
D11*
X-2814492Y2312794D02*
G01*
X-2971866Y2312794D01*
X-2705092Y1093594D02*
G01*
X-2514592Y1093594D01*
X-2451092Y1030094D01*
X-2451092Y-112905D01*
X-2705092Y77594D02*
G01*
X-2959092Y77594D01*
X-3436792Y2312794D02*
G01*
X-3165106Y2312794D01*
X-2603494Y-577651D02*
G01*
X-2913453Y-577651D01*
X-2919996Y-584194D01*
X-2976760Y-584194D01*
X-2451092Y-112905D02*
G01*
X-2545151Y-206959D01*
X-2603492Y-206959D01*
X-2959092Y1093594D02*
G01*
X-2705092Y1093594D01*
X-3898882Y2603505D02*
G01*
X-3898882Y2317501D01*
X-3894058Y2312675D01*
D12*
X-190482Y850905D02*
G01*
X-245092Y796295D01*
X-245092Y774705D01*
X-432290Y760481D02*
G01*
X-306306Y760481D01*
X-292082Y774705D01*
X-245092Y774705D01*
X-432381Y720417D02*
G01*
X263217Y720417D01*
X342900Y800100D01*
X546102Y800100D01*
X673107Y927105D01*
X-432290Y680471D02*
G01*
X233951Y680471D01*
X342917Y571505D01*
X571517Y571505D01*
X673117Y673105D01*
X-432381Y640407D02*
G01*
X223192Y640407D01*
X342900Y520700D01*
X571512Y520700D01*
X673107Y419105D01*
X-432381Y600402D02*
G01*
X186997Y600402D01*
X292100Y495300D01*
X292100Y368300D01*
X342900Y317500D01*
X520712Y317500D01*
X673107Y165105D01*
D11*
X-3708382Y1275D02*
G01*
X-3708382Y1275D01*
X-4008610Y1275D01*
X-3917932Y623575D02*
G01*
X-3741656Y623575D01*
X-3708382Y590301D01*
X-3708382Y1275D01*
D12*
X-567377Y1015385D02*
G01*
X-567377Y626435D01*
X-584207Y609605D01*
X-527403Y1015387D02*
G01*
X-527403Y564794D01*
X-571497Y533400D01*
X-1142410Y880409D02*
G01*
X-1197912Y880409D01*
X-1308094Y990600D01*
X-1778012Y990600D01*
X-1803407Y965205D01*
X-1142410Y840407D02*
G01*
X-1208702Y840407D01*
X-1320794Y952500D01*
X-1714512Y952500D01*
X-1739907Y927105D01*
D11*
X-1079494Y1181100D02*
G01*
X-1079500Y1181105D01*
X-1346207Y1181105D01*
D12*
X-1142410Y800402D02*
G01*
X-1219504Y800402D01*
X-1333494Y914400D01*
X-1638312Y914400D01*
X-1701807Y850905D01*
X-1142410Y680410D02*
G01*
X-1607512Y680410D01*
X-1625607Y698505D01*
X-1142410Y640405D02*
G01*
X-1569407Y640405D01*
X-1587507Y622305D01*
X-1142410Y600402D02*
G01*
X-1495110Y600402D01*
X-1549407Y546105D01*
X-1142410Y560397D02*
G01*
X-1420815Y560397D01*
X-1511307Y469905D01*
X-1142410Y520420D02*
G01*
X-1346492Y520420D01*
X-1473207Y393705D01*
X-1142410Y480415D02*
G01*
X-1272197Y480415D01*
X-1435107Y317505D01*
X101617Y5D02*
G01*
X101617Y5D01*
X-190482Y-292094D01*
X-1816107Y-292094D01*
X0Y0D02*
G01*
X-254000Y-254000D01*
X-1650997Y-254000D01*
X-1739897Y-165100D01*
X-1866757Y-165100D01*
X-1803407Y965205D02*
G01*
X-1803407Y25389D01*
X-1866897Y-38100D01*
X-1142410Y920419D02*
G01*
X-1187109Y920419D01*
X-1295394Y1028705D01*
X-1816097Y1028697D01*
X-1816097Y1028697D02*
G01*
X-1866882Y977905D01*
X-1866882Y114305D01*
D11*
X-4008610Y2476505D02*
G01*
X-4008610Y1957075D01*
D12*
X-432290Y560329D02*
G01*
X176293Y560329D01*
X254017Y482605D01*
X254017Y355605D01*
X342917Y266705D01*
X495317Y266705D01*
X546117Y215905D01*
X546117Y38105D01*
X673117Y-88894D01*
X-432290Y800359D02*
G01*
X-342628Y800359D01*
X-228582Y914405D01*
X419117Y914405D01*
X419117Y927105D01*
X-432290Y840491D02*
G01*
X-353296Y840491D01*
X-241282Y952505D01*
X266717Y952505D01*
X368317Y1054105D01*
X546117Y1054105D01*
X673117Y1181105D01*
X-432290Y880369D02*
G01*
X-364218Y880369D01*
X-253982Y990605D01*
X228617Y990605D01*
X419117Y1181105D01*
X-1142474Y720349D02*
G01*
X-1235438Y720349D01*
X-1244582Y711205D01*
X-1511282Y711205D01*
X-1574782Y774705D01*
X-1663682Y774705D01*
D11*
X-3383363Y1346205D02*
G01*
X-2960476Y1346205D01*
X-2959082Y1347599D01*
X-2959082Y1347602D02*
G01*
X-2705082Y1347602D01*
X-3170031Y-584192D02*
G01*
X-3352800Y-584192D01*
X-3408504Y-528487D01*
X-3408504Y-355607D01*
X-3068500Y-355607D02*
G01*
X-2908287Y-355607D01*
X-2857494Y-406400D01*
X-2324094Y-406400D01*
X-2260594Y-469900D01*
X-2260594Y-685782D01*
X-1841482Y-698494D02*
G01*
X-2247882Y-292094D01*
X-2247882Y2476505D01*
X-1993894Y2603492D02*
G01*
X-1993894Y-317482D01*
X-1917682Y-393694D01*
D14*
G01*
X-4267192Y621424D03*
D15*
G01*
X-4267182Y470768D03*
D14*
G01*
X-4267192Y1347072D03*
D15*
G01*
X-4267182Y1497716D03*
D16*
G01*
X-3754026Y1346197D03*
G01*
X-3383358Y1346197D03*
D17*
G01*
X-4008716Y1955794D03*
G01*
X-3306467Y1955794D03*
G01*
X-4008716Y-5D03*
G01*
X-3306467Y-5D03*
D18*
G01*
X-3917942Y853693D03*
G01*
X-3917942Y623694D03*
G01*
X-3917942Y393694D03*
D19*
G01*
X-3346442Y623694D03*
D20*
G01*
X-3408484Y-355594D03*
G01*
X-3068480Y-355594D03*
G01*
X-3776784Y2312802D03*
G01*
X-3436780Y2312802D03*
D21*
G01*
X-2971863Y2312790D03*
G01*
X-3165116Y2312790D03*
G01*
X-2976768Y-584203D03*
G01*
X-3170021Y-584203D03*
D22*
G01*
X-4267182Y275595D03*
G01*
X-4267182Y105415D03*
G01*
X-4267182Y1705615D03*
G01*
X-4267182Y1875795D03*
D23*
G01*
X-2598590Y-206971D03*
D24*
G01*
X-2598580Y-577641D03*
D25*
G01*
X-1130297Y97891D03*
D26*
G01*
X-1130307Y206913D03*
D27*
G01*
X-821791Y190497D03*
G01*
X-930803Y190497D03*
D25*
G01*
X-1231897Y206903D03*
D26*
G01*
X-1231907Y97896D03*
D28*
G01*
X-474200Y1342288D03*
G01*
X-694199Y1342288D03*
D29*
G01*
X-694189Y1172291D03*
D30*
G01*
X-474200Y1172286D03*
D27*
G01*
X-161394Y1282700D03*
G01*
X-270405Y1282700D03*
G01*
X-885291Y1295397D03*
G01*
X-994303Y1295397D03*
G01*
X-885291Y1193797D03*
G01*
X-994303Y1193797D03*
D31*
G01*
X-432391Y400385D03*
G01*
X-432391Y440390D03*
G01*
X-432391Y480395D03*
G01*
X-432391Y520400D03*
G01*
X-432391Y560379D03*
G01*
X-432391Y600384D03*
G01*
X-432391Y640389D03*
G01*
X-432391Y680394D03*
G01*
X-432391Y720399D03*
G01*
X-432391Y760379D03*
G01*
X-432391Y800384D03*
G01*
X-432391Y840389D03*
G01*
X-432391Y880394D03*
G01*
X-432391Y920399D03*
D32*
G01*
X-527413Y1015395D03*
G01*
X-567392Y1015395D03*
G01*
X-607397Y1015395D03*
G01*
X-647402Y1015395D03*
G01*
X-687407Y1015395D03*
G01*
X-727412Y1015395D03*
G01*
X-767392Y1015395D03*
G01*
X-807397Y1015395D03*
G01*
X-847402Y1015395D03*
G01*
X-887407Y1015395D03*
G01*
X-927412Y1015395D03*
G01*
X-967392Y1015395D03*
G01*
X-1007397Y1015395D03*
G01*
X-1047402Y1015395D03*
D31*
G01*
X-1142398Y920399D03*
G01*
X-1142398Y880394D03*
G01*
X-1142398Y840389D03*
G01*
X-1142398Y800384D03*
G01*
X-1142398Y760379D03*
G01*
X-1142398Y720399D03*
G01*
X-1142398Y680394D03*
G01*
X-1142398Y640389D03*
G01*
X-1142398Y600384D03*
G01*
X-1142398Y560379D03*
G01*
X-1142398Y520400D03*
G01*
X-1142398Y480395D03*
G01*
X-1142398Y440390D03*
G01*
X-1142398Y400385D03*
D32*
G01*
X-1047402Y305414D03*
G01*
X-1007397Y305414D03*
G01*
X-967392Y305414D03*
G01*
X-927412Y305414D03*
G01*
X-887407Y305414D03*
G01*
X-847402Y305414D03*
G01*
X-807397Y305414D03*
G01*
X-767392Y305414D03*
G01*
X-727412Y305414D03*
G01*
X-687407Y305414D03*
G01*
X-647402Y305414D03*
G01*
X-607397Y305414D03*
G01*
X-567392Y305414D03*
G01*
X-527413Y305414D03*
D33*
G01*
X-787382Y660405D03*
D34*
G01*
X-930803Y88897D03*
G01*
X-821791Y88897D03*
D27*
G01*
X-1126591Y1092197D03*
G01*
X-1235603Y1092197D03*
G01*
X-1304391Y761997D03*
G01*
X-1413403Y761997D03*
D35*
G01*
X-442831Y252811D03*
G01*
X-442831Y202798D03*
G01*
X-442831Y152811D03*
G01*
X-442831Y102798D03*
G01*
X-141358Y252811D03*
G01*
X-141358Y202798D03*
G01*
X-141358Y152811D03*
G01*
X-141358Y102798D03*
D36*
G01*
X-292082Y177805D03*
D25*
G01*
X-292100Y389996D03*
D26*
G01*
X-292107Y499013D03*
D25*
G01*
X-190500Y389996D03*
D26*
G01*
X-190507Y499013D03*
D34*
G01*
X-245005Y774700D03*
G01*
X-135994Y774700D03*
G01*
X-79903Y1054097D03*
G01*
X29108Y1054097D03*
D37*
G01*
X-301505Y1152428D03*
G01*
X-301505Y1057407D03*
G01*
X-206484Y1057407D03*
G01*
X-206484Y1152428D03*
D38*
G01*
X377741Y1690705D03*
G01*
X377741Y1790705D03*
G01*
X377741Y1890704D03*
D39*
G01*
X765243Y2020702D03*
G01*
X765243Y1560708D03*
D40*
G01*
X-1520502Y6101D03*
G01*
X-1520502Y-183890D03*
G01*
X-1273487Y-88894D03*
D38*
G01*
X377741Y2325705D03*
G01*
X377741Y2425705D03*
G01*
X377741Y2525704D03*
D39*
G01*
X765243Y2655702D03*
G01*
X765243Y2195708D03*
D41*
G01*
X-1104022Y-88902D03*
G01*
X-953372Y-88902D03*
D42*
G01*
X-6302484Y3555891D03*
G01*
X8604268Y3555891D03*
G01*
X-5802485Y-5705279D03*
G01*
X8104269Y-5705279D03*
D43*
G01*
X-2959092Y77597D03*
D44*
G01*
X-2705082Y77602D03*
G01*
X-2959082Y331602D03*
G01*
X-2705082Y331602D03*
G01*
X-2959082Y585602D03*
G01*
X-2705082Y585602D03*
G01*
X-2959082Y839602D03*
G01*
X-2705082Y839602D03*
G01*
X-2959082Y1093602D03*
G01*
X-2705082Y1093602D03*
G01*
X-2959082Y1347602D03*
G01*
X-2705082Y1347602D03*
G01*
X-2959082Y1601602D03*
G01*
X-2705082Y1601602D03*
G01*
X-2959082Y1855602D03*
G01*
X-2705082Y1855602D03*
D45*
G01*
X-6870682Y-596894D03*
D46*
G01*
X-6870682Y-342894D03*
G01*
X-6870682Y-88894D03*
G01*
X-6870682Y165105D03*
G01*
X-6870682Y419105D03*
G01*
X-6870682Y673105D03*
G01*
X-6870682Y927105D03*
G01*
X-6870682Y1181105D03*
D45*
G01*
X419092Y-596894D03*
D46*
G01*
X419117Y-342894D03*
G01*
X419117Y-88894D03*
G01*
X419117Y165105D03*
G01*
X419117Y419105D03*
G01*
X419117Y673105D03*
G01*
X419117Y927105D03*
G01*
X419117Y1181105D03*
D45*
G01*
X-7124682Y-596894D03*
D46*
G01*
X-7124682Y-342894D03*
G01*
X-7124682Y-88894D03*
G01*
X-7124682Y165105D03*
G01*
X-7124682Y419105D03*
G01*
X-7124682Y673105D03*
G01*
X-7124682Y927105D03*
G01*
X-7124682Y1181105D03*
G01*
X673117Y1181105D03*
D45*
G01*
X673092Y-596894D03*
D46*
G01*
X673117Y-342894D03*
G01*
X673117Y-88894D03*
G01*
X673117Y165105D03*
G01*
X673117Y419105D03*
G01*
X673117Y673105D03*
G01*
X673117Y927105D03*
D47*
G01*
X-437395Y1010391D03*
G01*
X-1003307Y889005D03*
G01*
X-1130307Y330205D03*
G01*
X-1346207Y1181105D03*
G01*
X-88907Y1130305D03*
G01*
X-1346207Y838205D03*
G01*
X-101607Y5D03*
G01*
X-723907Y88905D03*
G01*
X-901707Y635005D03*
G01*
X-673107Y635005D03*
G01*
X-673107Y774705D03*
G01*
X-901707Y774705D03*
G01*
X-1041407Y635005D03*
G01*
X-190507Y850905D03*
G01*
X-114307Y469905D03*
G01*
X-368307Y295610D03*
G01*
X-622307Y419105D03*
G01*
X-533407Y419105D03*
G01*
X-228607Y317505D03*
G01*
X-355607Y177805D03*
G01*
X-723907Y177805D03*
G01*
X-647707Y139705D03*
G01*
X-228607Y241305D03*
G01*
X-228607Y165105D03*
G01*
X-800107Y863605D03*
G01*
X-825507Y419105D03*
G01*
X-952507Y30612D03*
G01*
X-927107Y1110620D03*
G01*
X-901707Y914405D03*
G01*
X-1079507Y1181105D03*
G01*
X-279407Y1358905D03*
G01*
X-1041407Y419105D03*
G01*
X-723907Y863605D03*
G01*
X-711207Y419105D03*
G01*
X114292Y2527305D03*
G01*
X-165107Y2324105D03*
G01*
X241292Y1689105D03*
G01*
X241292Y1892305D03*
G01*
X-876307Y1384305D03*
G01*
X-3893980Y2312802D03*
G01*
X-2814480Y2312802D03*
G01*
X-4090830Y393705D03*
G01*
X-2247882Y2476479D03*
G01*
X-4008711Y2476479D03*
G01*
X-1841507Y-698494D03*
G01*
X-1993882Y2603505D03*
G01*
X-3898882Y2603505D03*
G01*
X-63507Y825505D03*
G01*
X114292Y1054105D03*
G01*
X-3708382Y1275D03*
G01*
X-571507Y533405D03*
G01*
X-584207Y609605D03*
G01*
X-1739907Y927105D03*
G01*
X-1701807Y850905D03*
G01*
X-1663707Y774705D03*
G01*
X-1625607Y698505D03*
G01*
X-1587507Y622305D03*
G01*
X-1549407Y546105D03*
G01*
X-1511307Y469905D03*
G01*
X-1473207Y393705D03*
G01*
X-1435107Y317505D03*
G01*
X-1816107Y-292094D03*
G01*
X101617Y5D03*
G01*
X-1866755Y-165094D03*
G01*
X-7Y5D03*
G01*
X-1866907Y-38094D03*
G01*
X-1866907Y114305D03*
G01*
X-1803407Y1295405D03*
G01*
X-1841507Y-469894D03*
G01*
X-2070082Y-622294D03*
G01*
X-1511307Y838205D03*
G01*
X-4090830Y1346205D03*
G01*
X-2260582Y-685794D03*
G01*
X-1917682Y-393694D03*
G01*
X-1778007Y-622294D03*
G01*
X-2120882Y419105D03*
G01*
X-2578082Y2184405D03*
G01*
X-2336782Y2184405D03*
G01*
X-2120882Y2184405D03*
G01*
X-1803407Y2171705D03*
G01*
X-2349482Y-711194D03*
G01*
X-2158982Y-711194D03*
G01*
X-1409707Y-177794D03*
G01*
X-1435107Y1104905D03*
G01*
X-1308107Y342905D03*
G01*
X-76207Y1346205D03*
M02*
