M48
METRIC,LZ,000.000
;FILE_FORMAT=3:3
;TYPE=PLATED
;Layer: PTH_Through_Via
;EasyEDA v6.5.42, 2024-03-10 10:04:45
;fe9a7845ffe14e3b902077880b4d51a8,5a6b42c53f6a479593ecc07194224c93,10
;Gerber Generator version 0.2
;Holesize 1 = 0.310 mm
T01C0.310
%
G05
G90
T01
X019558Y100965
X022352Y100965
X017145Y100748
X017145Y088048
X022352Y088265
X019558Y088265
X021336Y081026
X018415Y093218
X017780Y093853
X019812Y097409
X020828Y097409
X019812Y084709
X020828Y084709
X017780Y081153
X018415Y080518
X017145Y079883
X021717Y075311
X023749Y076581
X019812Y072009
X020812Y072009
X023735Y069342
X023749Y061849
X017780Y063119
X018415Y064389
X017145Y065659
X018415Y034290
X017145Y035052
X026035Y059436
X026035Y068199
X023749Y058039
X021082Y067183
X021717Y060833
X022098Y073914
X034544Y102870
X034544Y039751
X024295Y039751
M30
