G04 Layer: BottomPasteMaskLayer*
G04 EasyEDA v6.5.42, 2024-03-10 10:04:45*
G04 fe9a7845ffe14e3b902077880b4d51a8,5a6b42c53f6a479593ecc07194224c93,10*
G04 Gerber Generator version 0.2*
G04 Scale: 100 percent, Rotated: No, Reflected: No *
G04 Dimensions in millimeters *
G04 leading zeros omitted , absolute positions ,4 integer and 5 decimal *
%FSLAX45Y45*%
%MOMM*%

%AMMACRO1*21,1,$1,$2,0,0,$3*%
%ADD10O,0.2800096X1.620012*%
%ADD11MACRO1,1.05X2.4648X0.0000*%
%ADD12MACRO1,3.54X2.4648X0.0000*%
%ADD13O,2.0450048X0.58801*%

%LPD*%
G36*
X1333093Y6593382D02*
G01*
X1328115Y6588404D01*
X1328115Y6543395D01*
X1333093Y6538417D01*
X1386078Y6538417D01*
X1391107Y6543395D01*
X1391107Y6588404D01*
X1386078Y6593382D01*
G37*
G36*
X1230122Y6593382D02*
G01*
X1225092Y6588404D01*
X1225092Y6543395D01*
X1230122Y6538417D01*
X1283106Y6538417D01*
X1288084Y6543395D01*
X1288084Y6588404D01*
X1283106Y6593382D01*
G37*
G36*
X1806600Y5971082D02*
G01*
X1801622Y5966104D01*
X1801622Y5921095D01*
X1806600Y5916117D01*
X1854606Y5916117D01*
X1861616Y5921095D01*
X1861616Y5966104D01*
X1854606Y5971082D01*
G37*
G36*
X1904593Y5971082D02*
G01*
X1897583Y5966104D01*
X1897583Y5921095D01*
X1904593Y5916117D01*
X1952599Y5916117D01*
X1957578Y5921095D01*
X1957578Y5966104D01*
X1952599Y5971082D01*
G37*
G36*
X2517495Y6217716D02*
G01*
X2512517Y6210706D01*
X2512517Y6162700D01*
X2517495Y6157722D01*
X2562504Y6157722D01*
X2567482Y6162700D01*
X2567482Y6210706D01*
X2562504Y6217716D01*
G37*
G36*
X2517495Y6313678D02*
G01*
X2512517Y6308699D01*
X2512517Y6260693D01*
X2517495Y6253683D01*
X2562504Y6253683D01*
X2567482Y6260693D01*
X2567482Y6308699D01*
X2562504Y6313678D01*
G37*
G36*
X1235100Y6466382D02*
G01*
X1230122Y6461404D01*
X1230122Y6416395D01*
X1235100Y6411417D01*
X1283106Y6411417D01*
X1290116Y6416395D01*
X1290116Y6461404D01*
X1283106Y6466382D01*
G37*
G36*
X1333093Y6466382D02*
G01*
X1326083Y6461404D01*
X1326083Y6416395D01*
X1333093Y6411417D01*
X1381099Y6411417D01*
X1386078Y6416395D01*
X1386078Y6461404D01*
X1381099Y6466382D01*
G37*
G36*
X1235100Y6339382D02*
G01*
X1230122Y6334404D01*
X1230122Y6289395D01*
X1235100Y6284417D01*
X1283106Y6284417D01*
X1290116Y6289395D01*
X1290116Y6334404D01*
X1283106Y6339382D01*
G37*
G36*
X1333093Y6339382D02*
G01*
X1326083Y6334404D01*
X1326083Y6289395D01*
X1333093Y6284417D01*
X1381099Y6284417D01*
X1386078Y6289395D01*
X1386078Y6334404D01*
X1381099Y6339382D01*
G37*
G36*
X2299868Y7545222D02*
G01*
X2289860Y7535214D01*
X2289860Y7434427D01*
X2299868Y7424470D01*
X2449931Y7424470D01*
X2459939Y7434427D01*
X2459939Y7535214D01*
X2449931Y7545222D01*
X2413812Y7545222D01*
X2403805Y7535214D01*
X2403805Y7514132D01*
X2393797Y7504125D01*
X2356002Y7504125D01*
X2345994Y7514132D01*
X2345994Y7535214D01*
X2335987Y7545222D01*
G37*
G36*
X2299868Y7840929D02*
G01*
X2289860Y7830972D01*
X2289860Y7730185D01*
X2299868Y7720177D01*
X2335987Y7720177D01*
X2345994Y7730185D01*
X2345994Y7751267D01*
X2356002Y7761274D01*
X2393797Y7761274D01*
X2403805Y7751267D01*
X2403805Y7730185D01*
X2413812Y7720177D01*
X2449931Y7720177D01*
X2459939Y7730185D01*
X2459939Y7830972D01*
X2449931Y7840929D01*
G37*
G36*
X1909927Y10372039D02*
G01*
X1899970Y10362031D01*
X1899970Y10211968D01*
X1909927Y10201960D01*
X2010714Y10201960D01*
X2020722Y10211968D01*
X2020722Y10248087D01*
X2010714Y10258094D01*
X1989632Y10258094D01*
X1979625Y10268102D01*
X1979625Y10305897D01*
X1989632Y10315905D01*
X2010714Y10315905D01*
X2020722Y10325912D01*
X2020722Y10362031D01*
X2010714Y10372039D01*
G37*
G36*
X2205685Y10372039D02*
G01*
X2195677Y10362031D01*
X2195677Y10325912D01*
X2205685Y10315905D01*
X2226767Y10315905D01*
X2236774Y10305897D01*
X2236774Y10268102D01*
X2226767Y10258094D01*
X2205685Y10258094D01*
X2195677Y10248087D01*
X2195677Y10211968D01*
X2205685Y10201960D01*
X2306472Y10201960D01*
X2316429Y10211968D01*
X2316429Y10362031D01*
X2306472Y10372039D01*
G37*
G36*
X1909927Y9102039D02*
G01*
X1899970Y9092031D01*
X1899970Y8941968D01*
X1909927Y8931960D01*
X2010714Y8931960D01*
X2020722Y8941968D01*
X2020722Y8978087D01*
X2010714Y8988094D01*
X1989632Y8988094D01*
X1979625Y8998102D01*
X1979625Y9035897D01*
X1989632Y9045905D01*
X2010714Y9045905D01*
X2020722Y9055912D01*
X2020722Y9092031D01*
X2010714Y9102039D01*
G37*
G36*
X2205685Y9102039D02*
G01*
X2195677Y9092031D01*
X2195677Y9055912D01*
X2205685Y9045905D01*
X2226767Y9045905D01*
X2236774Y9035897D01*
X2236774Y8998102D01*
X2226767Y8988094D01*
X2205685Y8988094D01*
X2195677Y8978087D01*
X2195677Y8941968D01*
X2205685Y8931960D01*
X2306472Y8931960D01*
X2316429Y8941968D01*
X2316429Y9092031D01*
X2306472Y9102039D01*
G37*
G36*
X2639720Y6201206D02*
G01*
X2634691Y6196177D01*
X2634691Y6116218D01*
X2639720Y6111189D01*
X2719679Y6111189D01*
X2724708Y6116218D01*
X2724708Y6196177D01*
X2719679Y6201206D01*
X2695498Y6201206D01*
X2695498Y6164173D01*
X2662478Y6164173D01*
X2662478Y6201206D01*
G37*
G36*
X2639720Y6360210D02*
G01*
X2634691Y6355181D01*
X2634691Y6276187D01*
X2639720Y6271209D01*
X2662478Y6271209D01*
X2662478Y6309207D01*
X2695498Y6309207D01*
X2695498Y6271209D01*
X2719679Y6271209D01*
X2724708Y6276187D01*
X2724708Y6355181D01*
X2719679Y6360210D01*
G37*
G36*
X2211222Y5988608D02*
G01*
X2206193Y5983579D01*
X2206193Y5959398D01*
X2243175Y5959398D01*
X2243175Y5926378D01*
X2206193Y5926378D01*
X2206193Y5903620D01*
X2211222Y5898591D01*
X2291181Y5898591D01*
X2296210Y5903620D01*
X2296210Y5983579D01*
X2291181Y5988608D01*
G37*
G36*
X2052218Y5988608D02*
G01*
X2047189Y5983579D01*
X2047189Y5903620D01*
X2052218Y5898591D01*
X2131212Y5898591D01*
X2136190Y5903620D01*
X2136190Y5926378D01*
X2098192Y5926378D01*
X2098192Y5959398D01*
X2136190Y5959398D01*
X2136190Y5983579D01*
X2131212Y5988608D01*
G37*
G36*
X1780895Y7563307D02*
G01*
X1775917Y7558278D01*
X1775917Y7505293D01*
X1780895Y7500315D01*
X1825904Y7500315D01*
X1830882Y7505293D01*
X1830882Y7558278D01*
X1825904Y7563307D01*
G37*
G36*
X1780895Y7460284D02*
G01*
X1775917Y7455306D01*
X1775917Y7402322D01*
X1780895Y7397292D01*
X1825904Y7397292D01*
X1830882Y7402322D01*
X1830882Y7455306D01*
X1825904Y7460284D01*
G37*
G36*
X1780895Y10103307D02*
G01*
X1775917Y10098278D01*
X1775917Y10045293D01*
X1780895Y10040315D01*
X1825904Y10040315D01*
X1830882Y10045293D01*
X1830882Y10098278D01*
X1825904Y10103307D01*
G37*
G36*
X1780895Y10000284D02*
G01*
X1775917Y9995306D01*
X1775917Y9942322D01*
X1780895Y9937292D01*
X1825904Y9937292D01*
X1830882Y9942322D01*
X1830882Y9995306D01*
X1825904Y10000284D01*
G37*
G36*
X1780895Y8833307D02*
G01*
X1775917Y8828278D01*
X1775917Y8775293D01*
X1780895Y8770315D01*
X1825904Y8770315D01*
X1830882Y8775293D01*
X1830882Y8828278D01*
X1825904Y8833307D01*
G37*
G36*
X1780895Y8730284D02*
G01*
X1775917Y8725306D01*
X1775917Y8672322D01*
X1780895Y8667292D01*
X1825904Y8667292D01*
X1830882Y8672322D01*
X1830882Y8725306D01*
X1825904Y8730284D01*
G37*
D10*
G01*
X2131999Y6989902D03*
G01*
X2081987Y6989902D03*
G01*
X2032000Y6989902D03*
G01*
X1981987Y6989902D03*
G01*
X1932000Y6989902D03*
G01*
X2131999Y7411897D03*
G01*
X2081987Y7411897D03*
G01*
X2032000Y7411897D03*
G01*
X1981987Y7411897D03*
G01*
X1932000Y7411897D03*
G01*
X2131999Y9529902D03*
G01*
X2081987Y9529902D03*
G01*
X2032000Y9529902D03*
G01*
X1981987Y9529902D03*
G01*
X1932000Y9529902D03*
G01*
X2131999Y9951897D03*
G01*
X2081987Y9951897D03*
G01*
X2032000Y9951897D03*
G01*
X1981987Y9951897D03*
G01*
X1932000Y9951897D03*
G01*
X2131999Y8259902D03*
G01*
X2081987Y8259902D03*
G01*
X2032000Y8259902D03*
G01*
X1981987Y8259902D03*
G01*
X1932000Y8259902D03*
G01*
X2131999Y8681897D03*
G01*
X2081987Y8681897D03*
G01*
X2032000Y8681897D03*
G01*
X1981987Y8681897D03*
G01*
X1932000Y8681897D03*
D11*
G01*
X2373502Y7156450D03*
G01*
X2603500Y7156450D03*
G01*
X2833497Y7156450D03*
D12*
G01*
X2603512Y6584950D03*
D13*
G01*
X2144140Y6565900D03*
G01*
X2144140Y6438900D03*
G01*
X2144140Y6311900D03*
G01*
X2144140Y6184900D03*
G01*
X1589659Y6565900D03*
G01*
X1589659Y6438900D03*
G01*
X1589659Y6311900D03*
G01*
X1589659Y6184900D03*
M02*
