G04 Layer: BottomSilkscreenLayer*
G04 EasyEDA v6.5.22, 2023-04-16 14:26:35*
G04 51217559d0e847a7a878f2b7aee661c0,5a6b42c53f6a479593ecc07194224c93,10*
G04 Gerber Generator version 0.2*
G04 Scale: 100 percent, Rotated: No, Reflected: No *
G04 Dimensions in millimeters *
G04 leading zeros omitted , absolute positions ,4 integer and 5 decimal *
%FSLAX45Y45*%
%MOMM*%

%ADD10C,0.2032*%
%ADD11C,0.2540*%

%LPD*%
D10*
X850900Y12097189D02*
G01*
X850900Y11982645D01*
X850900Y12097189D02*
G01*
X774537Y11982645D01*
X774537Y12097189D02*
G01*
X774537Y11982645D01*
X694900Y12097189D02*
G01*
X738535Y11982645D01*
X694900Y12097189D02*
G01*
X651263Y11982645D01*
X722172Y12020826D02*
G01*
X667628Y12020826D01*
X615264Y12097189D02*
G01*
X615264Y11982645D01*
X615264Y12097189D02*
G01*
X538901Y11982645D01*
X538901Y12097189D02*
G01*
X538901Y11982645D01*
X470174Y12097189D02*
G01*
X481083Y12091736D01*
X491990Y12080826D01*
X497446Y12069917D01*
X502899Y12053554D01*
X502899Y12026282D01*
X497446Y12009917D01*
X491990Y11999008D01*
X481083Y11988098D01*
X470174Y11982645D01*
X448355Y11982645D01*
X437446Y11988098D01*
X426537Y11999008D01*
X421083Y12009917D01*
X415627Y12026282D01*
X415627Y12053554D01*
X421083Y12069917D01*
X426537Y12080826D01*
X437446Y12091736D01*
X448355Y12097189D01*
X470174Y12097189D01*
X379628Y12097189D02*
G01*
X379628Y11982645D01*
X379628Y12097189D02*
G01*
X335991Y11982645D01*
X292356Y12097189D02*
G01*
X335991Y11982645D01*
X292356Y12097189D02*
G01*
X292356Y11982645D01*
X256354Y12097189D02*
G01*
X256354Y11982645D01*
X176720Y12097189D02*
G01*
X220355Y11982645D01*
X176720Y12097189D02*
G01*
X133083Y11982645D01*
X203992Y12020826D02*
G01*
X149445Y12020826D01*
X945172Y11906689D02*
G01*
X956081Y11901236D01*
X966990Y11890326D01*
X972446Y11879417D01*
X977900Y11863054D01*
X977900Y11835782D01*
X972446Y11819417D01*
X966990Y11808508D01*
X956081Y11797598D01*
X945172Y11792145D01*
X923353Y11792145D01*
X912446Y11797598D01*
X901537Y11808508D01*
X896081Y11819417D01*
X890628Y11835782D01*
X890628Y11863054D01*
X896081Y11879417D01*
X901537Y11890326D01*
X912446Y11901236D01*
X923353Y11906689D01*
X945172Y11906689D01*
X854628Y11906689D02*
G01*
X854628Y11824873D01*
X849172Y11808508D01*
X838263Y11797598D01*
X821900Y11792145D01*
X810991Y11792145D01*
X794628Y11797598D01*
X783719Y11808508D01*
X778263Y11824873D01*
X778263Y11906689D01*
X704082Y11906689D02*
G01*
X704082Y11792145D01*
X742264Y11906689D02*
G01*
X665901Y11906689D01*
X553537Y11890326D02*
G01*
X564446Y11901236D01*
X580809Y11906689D01*
X602627Y11906689D01*
X618990Y11901236D01*
X629899Y11890326D01*
X629899Y11879417D01*
X624446Y11868508D01*
X618990Y11863054D01*
X608083Y11857598D01*
X575355Y11846689D01*
X564446Y11841236D01*
X558990Y11835782D01*
X553537Y11824873D01*
X553537Y11808508D01*
X564446Y11797598D01*
X580809Y11792145D01*
X602627Y11792145D01*
X618990Y11797598D01*
X629899Y11808508D01*
X433537Y11906689D02*
G01*
X433537Y11792145D01*
X433537Y11906689D02*
G01*
X395356Y11906689D01*
X378990Y11901236D01*
X368084Y11890326D01*
X362628Y11879417D01*
X357174Y11863054D01*
X357174Y11835782D01*
X362628Y11819417D01*
X368084Y11808508D01*
X378990Y11797598D01*
X395356Y11792145D01*
X433537Y11792145D01*
X321172Y11906689D02*
G01*
X321172Y11824873D01*
X315719Y11808508D01*
X304810Y11797598D01*
X288447Y11792145D01*
X277538Y11792145D01*
X261172Y11797598D01*
X250266Y11808508D01*
X244810Y11824873D01*
X244810Y11906689D01*
X165173Y11906689D02*
G01*
X208810Y11792145D01*
X165173Y11906689D02*
G01*
X121538Y11792145D01*
X192448Y11830326D02*
G01*
X137901Y11830326D01*
X85537Y11906689D02*
G01*
X85537Y11792145D01*
X85537Y11792145D02*
G01*
X20083Y11792145D01*
X584200Y11716189D02*
G01*
X540562Y11601645D01*
X496928Y11716189D02*
G01*
X540562Y11601645D01*
X460928Y11694373D02*
G01*
X450019Y11699826D01*
X433654Y11716189D01*
X433654Y11601645D01*
X711647Y1276789D02*
G01*
X711647Y1162245D01*
X711647Y1276789D02*
G01*
X662556Y1276789D01*
X646193Y1271336D01*
X640737Y1265882D01*
X635284Y1254973D01*
X635284Y1238608D01*
X640737Y1227698D01*
X646193Y1222245D01*
X662556Y1216789D01*
X711647Y1216789D01*
X555647Y1276789D02*
G01*
X599282Y1162245D01*
X555647Y1276789D02*
G01*
X512010Y1162245D01*
X582919Y1200426D02*
G01*
X528375Y1200426D01*
X476011Y1276789D02*
G01*
X476011Y1162245D01*
X476011Y1276789D02*
G01*
X426920Y1276789D01*
X410557Y1271336D01*
X405102Y1265882D01*
X399648Y1254973D01*
X399648Y1244064D01*
X405102Y1233154D01*
X410557Y1227698D01*
X426920Y1222245D01*
X476011Y1222245D01*
X437829Y1222245D02*
G01*
X399648Y1162245D01*
X325465Y1276789D02*
G01*
X325465Y1162245D01*
X363646Y1276789D02*
G01*
X287284Y1276789D01*
X821283Y1086289D02*
G01*
X821283Y971745D01*
X821283Y1086289D02*
G01*
X744921Y971745D01*
X744921Y1086289D02*
G01*
X744921Y971745D01*
X708919Y1086289D02*
G01*
X708919Y1004473D01*
X703465Y988108D01*
X692556Y977198D01*
X676193Y971745D01*
X665284Y971745D01*
X648919Y977198D01*
X638012Y988108D01*
X632556Y1004473D01*
X632556Y1086289D01*
X596557Y1086289D02*
G01*
X596557Y971745D01*
X596557Y1086289D02*
G01*
X552919Y971745D01*
X509285Y1086289D02*
G01*
X552919Y971745D01*
X509285Y1086289D02*
G01*
X509285Y971745D01*
X473283Y1086289D02*
G01*
X473283Y971745D01*
X473283Y1086289D02*
G01*
X424192Y1086289D01*
X407830Y1080836D01*
X402374Y1075382D01*
X396920Y1064473D01*
X396920Y1053564D01*
X402374Y1042654D01*
X407830Y1037198D01*
X424192Y1031745D01*
X473283Y1031745D02*
G01*
X424192Y1031745D01*
X407830Y1026289D01*
X402374Y1020836D01*
X396920Y1009926D01*
X396920Y993564D01*
X402374Y982654D01*
X407830Y977198D01*
X424192Y971745D01*
X473283Y971745D01*
X360921Y1086289D02*
G01*
X360921Y971745D01*
X360921Y1086289D02*
G01*
X290012Y1086289D01*
X360921Y1031745D02*
G01*
X317284Y1031745D01*
X360921Y971745D02*
G01*
X290012Y971745D01*
X254012Y1086289D02*
G01*
X254012Y971745D01*
X254012Y1086289D02*
G01*
X204922Y1086289D01*
X188556Y1080836D01*
X183103Y1075382D01*
X177647Y1064473D01*
X177647Y1053564D01*
X183103Y1042654D01*
X188556Y1037198D01*
X204922Y1031745D01*
X254012Y1031745D01*
X215831Y1031745D02*
G01*
X177647Y971745D01*
X921646Y868517D02*
G01*
X921646Y873973D01*
X916190Y884882D01*
X910737Y890336D01*
X899828Y895789D01*
X878009Y895789D01*
X867100Y890336D01*
X861646Y884882D01*
X856190Y873973D01*
X856190Y863064D01*
X861646Y852154D01*
X872553Y835789D01*
X927100Y781245D01*
X850737Y781245D01*
X760191Y895789D02*
G01*
X814735Y819426D01*
X732919Y819426D01*
X760191Y895789D02*
G01*
X760191Y781245D01*
X696917Y873973D02*
G01*
X686010Y879426D01*
X669645Y895789D01*
X669645Y781245D01*
X628190Y868517D02*
G01*
X628190Y873973D01*
X622736Y884882D01*
X617283Y890336D01*
X606374Y895789D01*
X584555Y895789D01*
X573646Y890336D01*
X568190Y884882D01*
X562737Y873973D01*
X562737Y863064D01*
X568190Y852154D01*
X579099Y835789D01*
X633646Y781245D01*
X557283Y781245D01*
X521281Y830336D02*
G01*
X423100Y830336D01*
X354373Y895789D02*
G01*
X370738Y890336D01*
X381647Y873973D01*
X387101Y846698D01*
X387101Y830336D01*
X381647Y803064D01*
X370738Y786698D01*
X354373Y781245D01*
X343463Y781245D01*
X327101Y786698D01*
X316191Y803064D01*
X310738Y830336D01*
X310738Y846698D01*
X316191Y873973D01*
X327101Y890336D01*
X343463Y895789D01*
X354373Y895789D01*
X274736Y873973D02*
G01*
X263829Y879426D01*
X247464Y895789D01*
X247464Y781245D01*
X178737Y895789D02*
G01*
X195102Y890336D01*
X206011Y873973D01*
X211465Y846698D01*
X211465Y830336D01*
X206011Y803064D01*
X195102Y786698D01*
X178737Y781245D01*
X167827Y781245D01*
X151465Y786698D01*
X140555Y803064D01*
X135102Y830336D01*
X135102Y846698D01*
X140555Y873973D01*
X151465Y890336D01*
X167827Y895789D01*
X178737Y895789D01*
X99100Y873973D02*
G01*
X88191Y879426D01*
X71828Y895789D01*
X71828Y781245D01*
X132910Y7378700D02*
G01*
X247454Y7378700D01*
X132910Y7378700D02*
G01*
X247454Y7302337D01*
X132910Y7302337D02*
G01*
X247454Y7302337D01*
X132910Y7222700D02*
G01*
X247454Y7266335D01*
X132910Y7222700D02*
G01*
X247454Y7179063D01*
X209273Y7249972D02*
G01*
X209273Y7195428D01*
X132910Y7143064D02*
G01*
X247454Y7143064D01*
X132910Y7143064D02*
G01*
X247454Y7066701D01*
X132910Y7066701D02*
G01*
X247454Y7066701D01*
X132910Y6997974D02*
G01*
X138363Y7008883D01*
X149273Y7019790D01*
X160182Y7025246D01*
X176545Y7030699D01*
X203817Y7030699D01*
X220182Y7025246D01*
X231091Y7019790D01*
X242001Y7008883D01*
X247454Y6997974D01*
X247454Y6976155D01*
X242001Y6965246D01*
X231091Y6954337D01*
X220182Y6948883D01*
X203817Y6943427D01*
X176545Y6943427D01*
X160182Y6948883D01*
X149273Y6954337D01*
X138363Y6965246D01*
X132910Y6976155D01*
X132910Y6997974D01*
X132910Y6907428D02*
G01*
X247454Y6907428D01*
X132910Y6907428D02*
G01*
X247454Y6863791D01*
X132910Y6820156D02*
G01*
X247454Y6863791D01*
X132910Y6820156D02*
G01*
X247454Y6820156D01*
X132910Y6784154D02*
G01*
X247454Y6784154D01*
X132910Y6704520D02*
G01*
X247454Y6748155D01*
X132910Y6704520D02*
G01*
X247454Y6660883D01*
X209273Y6731792D02*
G01*
X209273Y6677245D01*
X132910Y6508155D02*
G01*
X138363Y6519064D01*
X149273Y6529974D01*
X160182Y6535430D01*
X176545Y6540883D01*
X203817Y6540883D01*
X220182Y6535430D01*
X231091Y6529974D01*
X242001Y6519064D01*
X247454Y6508155D01*
X247454Y6486337D01*
X242001Y6475430D01*
X231091Y6464520D01*
X220182Y6459065D01*
X203817Y6453611D01*
X176545Y6453611D01*
X160182Y6459065D01*
X149273Y6464520D01*
X138363Y6475430D01*
X132910Y6486337D01*
X132910Y6508155D01*
X132910Y6417612D02*
G01*
X214726Y6417612D01*
X231091Y6412156D01*
X242001Y6401247D01*
X247454Y6384884D01*
X247454Y6373975D01*
X242001Y6357612D01*
X231091Y6346703D01*
X214726Y6341247D01*
X132910Y6341247D01*
X132910Y6267066D02*
G01*
X247454Y6267066D01*
X132910Y6305247D02*
G01*
X132910Y6228885D01*
X149273Y6116520D02*
G01*
X138363Y6127429D01*
X132910Y6143792D01*
X132910Y6165611D01*
X138363Y6181973D01*
X149273Y6192883D01*
X160182Y6192883D01*
X171091Y6187429D01*
X176545Y6181973D01*
X182001Y6171067D01*
X192910Y6138339D01*
X198363Y6127429D01*
X203817Y6121974D01*
X214726Y6116520D01*
X231091Y6116520D01*
X242001Y6127429D01*
X247454Y6143792D01*
X247454Y6165611D01*
X242001Y6181973D01*
X231091Y6192883D01*
X132910Y5996520D02*
G01*
X247454Y5996520D01*
X132910Y5996520D02*
G01*
X132910Y5958339D01*
X138363Y5941974D01*
X149273Y5931067D01*
X160182Y5925611D01*
X176545Y5920158D01*
X203817Y5920158D01*
X220182Y5925611D01*
X231091Y5931067D01*
X242001Y5941974D01*
X247454Y5958339D01*
X247454Y5996520D01*
X132910Y5884156D02*
G01*
X214726Y5884156D01*
X231091Y5878703D01*
X242001Y5867793D01*
X247454Y5851431D01*
X247454Y5840521D01*
X242001Y5824156D01*
X231091Y5813249D01*
X214726Y5807793D01*
X132910Y5807793D01*
X132910Y5728157D02*
G01*
X247454Y5771794D01*
X132910Y5728157D02*
G01*
X247454Y5684522D01*
X209273Y5755431D02*
G01*
X209273Y5700885D01*
X132910Y5648520D02*
G01*
X247454Y5648520D01*
X247454Y5648520D02*
G01*
X247454Y5583067D01*
X742510Y7289800D02*
G01*
X857054Y7289800D01*
X742510Y7289800D02*
G01*
X742510Y7218890D01*
X797054Y7289800D02*
G01*
X797054Y7246162D01*
X742510Y7182891D02*
G01*
X857054Y7182891D01*
X742510Y7182891D02*
G01*
X742510Y7133800D01*
X747963Y7117435D01*
X753417Y7111982D01*
X764326Y7106528D01*
X775235Y7106528D01*
X786145Y7111982D01*
X791601Y7117435D01*
X797054Y7133800D01*
X797054Y7182891D01*
X797054Y7144710D02*
G01*
X857054Y7106528D01*
X742510Y7037801D02*
G01*
X747963Y7048710D01*
X758873Y7059617D01*
X769782Y7065073D01*
X786145Y7070526D01*
X813417Y7070526D01*
X829782Y7065073D01*
X840691Y7059617D01*
X851601Y7048710D01*
X857054Y7037801D01*
X857054Y7015982D01*
X851601Y7005073D01*
X840691Y6994164D01*
X829782Y6988710D01*
X813417Y6983255D01*
X786145Y6983255D01*
X769782Y6988710D01*
X758873Y6994164D01*
X747963Y7005073D01*
X742510Y7015982D01*
X742510Y7037801D01*
X742510Y6947255D02*
G01*
X857054Y6947255D01*
X742510Y6947255D02*
G01*
X857054Y6870890D01*
X742510Y6870890D02*
G01*
X857054Y6870890D01*
X742510Y6796709D02*
G01*
X857054Y6796709D01*
X742510Y6834891D02*
G01*
X742510Y6758528D01*
X742510Y6638528D02*
G01*
X857054Y6638528D01*
X742510Y6638528D02*
G01*
X742510Y6589438D01*
X747963Y6573072D01*
X753417Y6567619D01*
X764326Y6562166D01*
X780691Y6562166D01*
X791601Y6567619D01*
X797054Y6573072D01*
X802510Y6589438D01*
X802510Y6638528D01*
X742510Y6482529D02*
G01*
X857054Y6526164D01*
X742510Y6482529D02*
G01*
X857054Y6438892D01*
X818873Y6509801D02*
G01*
X818873Y6455255D01*
X742510Y6402892D02*
G01*
X857054Y6402892D01*
X742510Y6402892D02*
G01*
X857054Y6326530D01*
X742510Y6326530D02*
G01*
X857054Y6326530D01*
X742510Y6290528D02*
G01*
X857054Y6290528D01*
X742510Y6290528D02*
G01*
X742510Y6219619D01*
X797054Y6290528D02*
G01*
X797054Y6246893D01*
X857054Y6290528D02*
G01*
X857054Y6219619D01*
X742510Y6183619D02*
G01*
X857054Y6183619D01*
X857054Y6183619D02*
G01*
X857054Y6118166D01*
X742510Y5998166D02*
G01*
X857054Y5954529D01*
X742510Y5910892D02*
G01*
X857054Y5954529D01*
X742510Y5842167D02*
G01*
X747963Y5858530D01*
X764326Y5869439D01*
X791601Y5874893D01*
X807963Y5874893D01*
X835235Y5869439D01*
X851601Y5858530D01*
X857054Y5842167D01*
X857054Y5831258D01*
X851601Y5814893D01*
X835235Y5803983D01*
X807963Y5798530D01*
X791601Y5798530D01*
X764326Y5803983D01*
X747963Y5814893D01*
X742510Y5831258D01*
X742510Y5842167D01*
X829782Y5757075D02*
G01*
X835235Y5762531D01*
X840691Y5757075D01*
X835235Y5751621D01*
X829782Y5757075D01*
X742510Y5704712D02*
G01*
X742510Y5644713D01*
X786145Y5677438D01*
X786145Y5661075D01*
X791601Y5650166D01*
X797054Y5644713D01*
X813417Y5639257D01*
X824326Y5639257D01*
X840691Y5644713D01*
X851601Y5655622D01*
X857054Y5671985D01*
X857054Y5688347D01*
X851601Y5704712D01*
X846145Y5710166D01*
X835235Y5715622D01*
X742441Y3517595D02*
G01*
X829818Y3517595D01*
X846074Y3523183D01*
X851661Y3528517D01*
X856995Y3539439D01*
X856995Y3550361D01*
X851661Y3561283D01*
X846074Y3566871D01*
X829818Y3572205D01*
X818895Y3572205D01*
X742441Y3481781D02*
G01*
X856995Y3481781D01*
X856995Y3481781D02*
G01*
X856995Y3416249D01*
X769874Y3298393D02*
G01*
X758952Y3303727D01*
X748029Y3314649D01*
X742441Y3325571D01*
X742441Y3347415D01*
X748029Y3358337D01*
X758952Y3369259D01*
X769874Y3374847D01*
X786129Y3380181D01*
X813308Y3380181D01*
X829818Y3374847D01*
X840740Y3369259D01*
X851661Y3358337D01*
X856995Y3347415D01*
X856995Y3325571D01*
X851661Y3314649D01*
X840740Y3303727D01*
X829818Y3298393D01*
X742441Y3207969D02*
G01*
X829818Y3207969D01*
X846074Y3213303D01*
X851661Y3218637D01*
X856995Y3229559D01*
X856995Y3240481D01*
X851661Y3251403D01*
X846074Y3256991D01*
X829818Y3262325D01*
X818895Y3262325D01*
X742441Y3171901D02*
G01*
X856995Y3171901D01*
X856995Y3171901D02*
G01*
X856995Y3106369D01*
X769874Y2988513D02*
G01*
X758952Y2994101D01*
X748029Y3005023D01*
X742441Y3015945D01*
X742441Y3037535D01*
X748029Y3048457D01*
X758952Y3059379D01*
X769874Y3064967D01*
X786129Y3070301D01*
X813308Y3070301D01*
X829818Y3064967D01*
X840740Y3059379D01*
X851661Y3048457D01*
X856995Y3037535D01*
X856995Y3015945D01*
X851661Y3005023D01*
X840740Y2994101D01*
X829818Y2988513D01*
X742441Y2898089D02*
G01*
X829818Y2898089D01*
X846074Y2903423D01*
X851661Y2909011D01*
X856995Y2919933D01*
X856995Y2930855D01*
X851661Y2941777D01*
X846074Y2947111D01*
X829818Y2952445D01*
X818895Y2952445D01*
X742441Y2862021D02*
G01*
X856995Y2862021D01*
X856995Y2862021D02*
G01*
X856995Y2796489D01*
X769874Y2678633D02*
G01*
X758952Y2684221D01*
X748029Y2695143D01*
X742441Y2706065D01*
X742441Y2727909D01*
X748029Y2738831D01*
X758952Y2749753D01*
X769874Y2755087D01*
X786129Y2760675D01*
X813308Y2760675D01*
X829818Y2755087D01*
X840740Y2749753D01*
X851661Y2738831D01*
X856995Y2727909D01*
X856995Y2706065D01*
X851661Y2695143D01*
X840740Y2684221D01*
X829818Y2678633D01*
X742441Y2588209D02*
G01*
X829818Y2588209D01*
X846074Y2593543D01*
X851661Y2599131D01*
X856995Y2610053D01*
X856995Y2620975D01*
X851661Y2631897D01*
X846074Y2637231D01*
X829818Y2642819D01*
X818895Y2642819D01*
X742441Y2552141D02*
G01*
X856995Y2552141D01*
X856995Y2552141D02*
G01*
X856995Y2486863D01*
X769874Y2369007D02*
G01*
X758952Y2374341D01*
X748029Y2385263D01*
X742441Y2396185D01*
X742441Y2418029D01*
X748029Y2428951D01*
X758952Y2439873D01*
X769874Y2445207D01*
X786129Y2450795D01*
X813308Y2450795D01*
X829818Y2445207D01*
X840740Y2439873D01*
X851661Y2428951D01*
X856995Y2418029D01*
X856995Y2396185D01*
X851661Y2385263D01*
X840740Y2374341D01*
X829818Y2369007D01*
X132910Y3991300D02*
G01*
X247454Y3991300D01*
X132910Y3991300D02*
G01*
X132910Y3942209D01*
X138363Y3925846D01*
X143817Y3920390D01*
X154726Y3914937D01*
X171091Y3914937D01*
X182001Y3920390D01*
X187454Y3925846D01*
X192910Y3942209D01*
X192910Y3991300D01*
X132910Y3835300D02*
G01*
X247454Y3878935D01*
X132910Y3835300D02*
G01*
X247454Y3791663D01*
X209273Y3862572D02*
G01*
X209273Y3808028D01*
X132910Y3755664D02*
G01*
X247454Y3755664D01*
X132910Y3755664D02*
G01*
X132910Y3706573D01*
X138363Y3690211D01*
X143817Y3684755D01*
X154726Y3679301D01*
X165635Y3679301D01*
X176545Y3684755D01*
X182001Y3690211D01*
X187454Y3706573D01*
X187454Y3755664D01*
X187454Y3717483D02*
G01*
X247454Y3679301D01*
X132910Y3605118D02*
G01*
X247454Y3605118D01*
X132910Y3643299D02*
G01*
X132910Y3566937D01*
X132910Y3446937D02*
G01*
X247454Y3446937D01*
X132910Y3446937D02*
G01*
X247454Y3370574D01*
X132910Y3370574D02*
G01*
X247454Y3370574D01*
X132910Y3334572D02*
G01*
X214726Y3334572D01*
X231091Y3329119D01*
X242001Y3318210D01*
X247454Y3301847D01*
X247454Y3290938D01*
X242001Y3274573D01*
X231091Y3263666D01*
X214726Y3258210D01*
X132910Y3258210D01*
X132910Y3222210D02*
G01*
X247454Y3222210D01*
X132910Y3222210D02*
G01*
X247454Y3178573D01*
X132910Y3134939D02*
G01*
X247454Y3178573D01*
X132910Y3134939D02*
G01*
X247454Y3134939D01*
X132910Y3098937D02*
G01*
X247454Y3098937D01*
X132910Y3098937D02*
G01*
X132910Y3049846D01*
X138363Y3033483D01*
X143817Y3028030D01*
X154726Y3022574D01*
X165635Y3022574D01*
X176545Y3028030D01*
X182001Y3033483D01*
X187454Y3049846D01*
X187454Y3098937D02*
G01*
X187454Y3049846D01*
X192910Y3033483D01*
X198363Y3028030D01*
X209273Y3022574D01*
X225635Y3022574D01*
X236545Y3028030D01*
X242001Y3033483D01*
X247454Y3049846D01*
X247454Y3098937D01*
X132910Y2986575D02*
G01*
X247454Y2986575D01*
X132910Y2986575D02*
G01*
X132910Y2915665D01*
X187454Y2986575D02*
G01*
X187454Y2942937D01*
X247454Y2986575D02*
G01*
X247454Y2915665D01*
X132910Y2879666D02*
G01*
X247454Y2879666D01*
X132910Y2879666D02*
G01*
X132910Y2830576D01*
X138363Y2814210D01*
X143817Y2808757D01*
X154726Y2803301D01*
X165635Y2803301D01*
X176545Y2808757D01*
X182001Y2814210D01*
X187454Y2830576D01*
X187454Y2879666D01*
X187454Y2841485D02*
G01*
X247454Y2803301D01*
X160182Y2677848D02*
G01*
X154726Y2677848D01*
X143817Y2672392D01*
X138363Y2666939D01*
X132910Y2656029D01*
X132910Y2634211D01*
X138363Y2623301D01*
X143817Y2617848D01*
X154726Y2612392D01*
X165635Y2612392D01*
X176545Y2617848D01*
X192910Y2628757D01*
X247454Y2683301D01*
X247454Y2606939D01*
X132910Y2516393D02*
G01*
X209273Y2570939D01*
X209273Y2489121D01*
X132910Y2516393D02*
G01*
X247454Y2516393D01*
X154726Y2453121D02*
G01*
X149273Y2442212D01*
X132910Y2425849D01*
X247454Y2425849D01*
X160182Y2384394D02*
G01*
X154726Y2384394D01*
X143817Y2378938D01*
X138363Y2373485D01*
X132910Y2362575D01*
X132910Y2340757D01*
X138363Y2329848D01*
X143817Y2324394D01*
X154726Y2318938D01*
X165635Y2318938D01*
X176545Y2324394D01*
X192910Y2335303D01*
X247454Y2389847D01*
X247454Y2313485D01*
X198363Y2277485D02*
G01*
X198363Y2179304D01*
X132910Y2110577D02*
G01*
X138363Y2126940D01*
X154726Y2137849D01*
X182001Y2143302D01*
X198363Y2143302D01*
X225635Y2137849D01*
X242001Y2126940D01*
X247454Y2110577D01*
X247454Y2099668D01*
X242001Y2083302D01*
X225635Y2072393D01*
X198363Y2066940D01*
X182001Y2066940D01*
X154726Y2072393D01*
X138363Y2083302D01*
X132910Y2099668D01*
X132910Y2110577D01*
X154726Y2030940D02*
G01*
X149273Y2020031D01*
X132910Y2003668D01*
X247454Y2003668D01*
X132910Y1934941D02*
G01*
X138363Y1951304D01*
X154726Y1962213D01*
X182001Y1967666D01*
X198363Y1967666D01*
X225635Y1962213D01*
X242001Y1951304D01*
X247454Y1934941D01*
X247454Y1924032D01*
X242001Y1907667D01*
X225635Y1896757D01*
X198363Y1891304D01*
X182001Y1891304D01*
X154726Y1896757D01*
X138363Y1907667D01*
X132910Y1924032D01*
X132910Y1934941D01*
X154726Y1855304D02*
G01*
X149273Y1844395D01*
X132910Y1828032D01*
X247454Y1828032D01*
D11*
X95300Y7948091D02*
G01*
X895299Y7948091D01*
X895299Y4948097D01*
X95300Y4948097D01*
X95300Y7948091D01*
X95300Y4395596D02*
G01*
X895299Y4395596D01*
X895299Y1395602D01*
X95300Y1395602D01*
X95300Y4395596D01*
M02*
