M48
METRIC,LZ,000.000
;FILE_FORMAT=3:3
;TYPE=PLATED
;Layer: PTH_Through
;EasyEDA v6.5.34, 2023-09-22 05:33:05
;483193eee7e04f69b81b85979c1b7fa7,5a6b42c53f6a479593ecc07194224c93,10
;Gerber Generator version 0.2
;Holesize 1 = 0.305 mm
T01C0.305
;Holesize 2 = 0.915 mm
T02C0.915
;Holesize 3 = 1.000 mm
T03C1.000
%
G05
G90
T01
X048895Y116586
X042545Y116586
X014224Y076581
X014224Y051562
T02
X013970Y099060
X013970Y101600
X011430Y099060
X011430Y101600
X007620Y099060
X007620Y101600
X005080Y099060
X005080Y101600
T03
X075600Y016256
X075600Y018796
X075600Y021336
X075600Y023876
X075529Y054229
X075529Y056769
X075529Y059309
X075529Y061849
X075529Y064389
X075529Y066929
X075529Y069469
X075529Y072009
X015275Y054229
X015275Y056769
X015275Y059309
X015275Y061849
X015275Y064389
X015275Y066929
X015275Y069469
X015275Y072009
X015275Y016256
X015275Y018796
X015275Y021336
X015275Y023876
M30
