G04 Layer: BoardOutlineLayer*
G04 EasyEDA v6.5.34, 2023-09-22 05:33:05*
G04 483193eee7e04f69b81b85979c1b7fa7,5a6b42c53f6a479593ecc07194224c93,10*
G04 Gerber Generator version 0.2*
G04 Scale: 100 percent, Rotated: No, Reflected: No *
G04 Dimensions in millimeters *
G04 leading zeros omitted , absolute positions ,4 integer and 5 decimal *
%FSLAX45Y45*%
%MOMM*%

%ADD10C,0.2540*%
D10*
X254000Y11938000D02*
G01*
X8890000Y11938000D01*
X8890000Y876300D01*
X263525Y876300D01*
X254000Y11938000D01*
X1828800Y11569700D02*
G01*
X1828800Y1069720D01*
X1828800Y1069720D02*
G01*
X7328788Y1069720D01*
X7328788Y1069720D02*
G01*
X7328788Y11569700D01*
X7328788Y11569700D02*
G01*
X1828800Y11569700D01*
X444500Y9307296D02*
G01*
X444500Y7924800D01*
X444500Y7924800D02*
G01*
X1384300Y7924800D01*
X1384300Y7924800D02*
G01*
X1384300Y9307296D01*
X1384300Y9307296D02*
G01*
X444500Y9307296D01*
X444500Y4584700D02*
G01*
X444500Y3202203D01*
X444500Y3202203D02*
G01*
X1384300Y3202203D01*
X1384300Y3202203D02*
G01*
X1384300Y4584700D01*
X1384300Y4584700D02*
G01*
X444500Y4584700D01*
X7763230Y4585893D02*
G01*
X7763230Y3203397D01*
X7763230Y3203397D02*
G01*
X8703030Y3203397D01*
X8703030Y3203397D02*
G01*
X8703030Y4585893D01*
X8703030Y4585893D02*
G01*
X7763230Y4585893D01*
X7763256Y9305036D02*
G01*
X7763256Y7922539D01*
X7763256Y7922539D02*
G01*
X8703056Y7922539D01*
X8703056Y7922539D02*
G01*
X8703056Y9305036D01*
X8703056Y9305036D02*
G01*
X7763256Y9305036D01*
X444500Y7264400D02*
G01*
X444500Y5384800D01*
X444500Y5384800D02*
G01*
X1371600Y5384800D01*
X1371600Y5384800D02*
G01*
X1371600Y7264400D01*
X1371600Y7264400D02*
G01*
X444500Y7264400D01*
X7766050Y7264400D02*
G01*
X7766050Y5384800D01*
X7766050Y5384800D02*
G01*
X8693150Y5384800D01*
X8693150Y5384800D02*
G01*
X8693150Y7264400D01*
X8693150Y7264400D02*
G01*
X7766050Y7264400D01*
X7766050Y2933700D02*
G01*
X7766050Y1054100D01*
X7766050Y1054100D02*
G01*
X8693150Y1054100D01*
X8693150Y1054100D02*
G01*
X8693150Y2933700D01*
X8693150Y2933700D02*
G01*
X7766050Y2933700D01*
X450850Y2933700D02*
G01*
X450850Y1054100D01*
X450850Y1054100D02*
G01*
X1377950Y1054100D01*
X1377950Y1054100D02*
G01*
X1377950Y2933700D01*
X1377950Y2933700D02*
G01*
X450850Y2933700D01*
X4347001Y11720898D02*
G01*
X4347001Y11565897D01*
X4347001Y11565897D02*
G01*
X4797000Y11565897D01*
X4797000Y11565897D02*
G01*
X4797000Y11720898D01*
X4797000Y11720898D02*
G01*
X4347001Y11720898D01*
X1675102Y6096896D02*
G01*
X1830103Y6096896D01*
X1830103Y6096896D02*
G01*
X1830103Y6546895D01*
X1830103Y6546895D02*
G01*
X1675102Y6546895D01*
X1675102Y6546895D02*
G01*
X1675102Y6096896D01*
X1675102Y2396904D02*
G01*
X1830103Y2396904D01*
X1830103Y2396904D02*
G01*
X1830103Y2846903D01*
X1830103Y2846903D02*
G01*
X1675102Y2846903D01*
X1675102Y2846903D02*
G01*
X1675102Y2396904D01*
X1675102Y9796889D02*
G01*
X1830103Y9796889D01*
X1830103Y9796889D02*
G01*
X1830103Y10246888D01*
X1830103Y10246888D02*
G01*
X1675102Y10246888D01*
X1675102Y10246888D02*
G01*
X1675102Y9796889D01*
X419100Y11569700D02*
G01*
X419100Y10299700D01*
X419100Y10299700D02*
G01*
X1409700Y10299700D01*
X1409700Y10299700D02*
G01*
X1409098Y11569700D01*
X1409098Y11569700D02*
G01*
X419100Y11569700D01*

%LPD*%
M02*
