G04 Layer: TopSilkscreenLayer*
G04 EasyEDA v6.5.34, 2023-09-22 05:33:05*
G04 483193eee7e04f69b81b85979c1b7fa7,5a6b42c53f6a479593ecc07194224c93,10*
G04 Gerber Generator version 0.2*
G04 Scale: 100 percent, Rotated: No, Reflected: No *
G04 Dimensions in millimeters *
G04 leading zeros omitted , absolute positions ,4 integer and 5 decimal *
%FSLAX45Y45*%
%MOMM*%

%ADD10C,0.2032*%
%ADD11C,0.1524*%
%ADD12C,0.1520*%
%ADD13C,0.2540*%

%LPD*%
D10*
X3991609Y1035557D02*
G01*
X3991609Y948181D01*
X3986022Y931926D01*
X3980688Y926337D01*
X3969765Y921004D01*
X3958843Y921004D01*
X3947922Y926337D01*
X3942334Y931926D01*
X3937000Y948181D01*
X3937000Y959104D01*
X4027424Y1035557D02*
G01*
X4027424Y921004D01*
X4027424Y921004D02*
G01*
X4092956Y921004D01*
X4210811Y1008126D02*
G01*
X4205477Y1019047D01*
X4194556Y1029970D01*
X4183634Y1035557D01*
X4161790Y1035557D01*
X4150868Y1029970D01*
X4139945Y1019047D01*
X4134358Y1008126D01*
X4129024Y991870D01*
X4129024Y964692D01*
X4134358Y948181D01*
X4139945Y937260D01*
X4150868Y926337D01*
X4161790Y921004D01*
X4183634Y921004D01*
X4194556Y926337D01*
X4205477Y937260D01*
X4210811Y948181D01*
X4301236Y1035557D02*
G01*
X4301236Y948181D01*
X4295902Y931926D01*
X4290568Y926337D01*
X4279645Y921004D01*
X4268724Y921004D01*
X4257802Y926337D01*
X4252213Y931926D01*
X4246879Y948181D01*
X4246879Y959104D01*
X4337304Y1035557D02*
G01*
X4337304Y921004D01*
X4337304Y921004D02*
G01*
X4402836Y921004D01*
X4520691Y1008126D02*
G01*
X4515104Y1019047D01*
X4504181Y1029970D01*
X4493259Y1035557D01*
X4471670Y1035557D01*
X4460747Y1029970D01*
X4449825Y1019047D01*
X4444238Y1008126D01*
X4438904Y991870D01*
X4438904Y964692D01*
X4444238Y948181D01*
X4449825Y937260D01*
X4460747Y926337D01*
X4471670Y921004D01*
X4493259Y921004D01*
X4504181Y926337D01*
X4515104Y937260D01*
X4520691Y948181D01*
X4611115Y1035557D02*
G01*
X4611115Y948181D01*
X4605781Y931926D01*
X4600193Y926337D01*
X4589272Y921004D01*
X4578350Y921004D01*
X4567427Y926337D01*
X4562093Y931926D01*
X4556759Y948181D01*
X4556759Y959104D01*
X4647184Y1035557D02*
G01*
X4647184Y921004D01*
X4647184Y921004D02*
G01*
X4712715Y921004D01*
X4830572Y1008126D02*
G01*
X4824984Y1019047D01*
X4814061Y1029970D01*
X4803140Y1035557D01*
X4781295Y1035557D01*
X4770374Y1029970D01*
X4759452Y1019047D01*
X4754118Y1008126D01*
X4748529Y991870D01*
X4748529Y964692D01*
X4754118Y948181D01*
X4759452Y937260D01*
X4770374Y926337D01*
X4781295Y921004D01*
X4803140Y921004D01*
X4814061Y926337D01*
X4824984Y937260D01*
X4830572Y948181D01*
X4920995Y1035557D02*
G01*
X4920995Y948181D01*
X4915661Y931926D01*
X4910074Y926337D01*
X4899152Y921004D01*
X4888229Y921004D01*
X4877308Y926337D01*
X4871974Y931926D01*
X4866386Y948181D01*
X4866386Y959104D01*
X4957063Y1035557D02*
G01*
X4957063Y921004D01*
X4957063Y921004D02*
G01*
X5022341Y921004D01*
X5140197Y1008126D02*
G01*
X5134863Y1019047D01*
X5123941Y1029970D01*
X5113020Y1035557D01*
X5091175Y1035557D01*
X5080254Y1029970D01*
X5069331Y1019047D01*
X5063997Y1008126D01*
X5058409Y991870D01*
X5058409Y964692D01*
X5063997Y948181D01*
X5069331Y937260D01*
X5080254Y926337D01*
X5091175Y921004D01*
X5113020Y921004D01*
X5123941Y926337D01*
X5134863Y937260D01*
X5140197Y948181D01*
X2438400Y11881358D02*
G01*
X2438400Y11766804D01*
X2438400Y11881358D02*
G01*
X2514854Y11766804D01*
X2514854Y11881358D02*
G01*
X2514854Y11766804D01*
X2594356Y11881358D02*
G01*
X2550668Y11766804D01*
X2594356Y11881358D02*
G01*
X2638043Y11766804D01*
X2567177Y11804904D02*
G01*
X2621788Y11804904D01*
X2674111Y11881358D02*
G01*
X2674111Y11766804D01*
X2674111Y11881358D02*
G01*
X2750311Y11766804D01*
X2750311Y11881358D02*
G01*
X2750311Y11766804D01*
X2819145Y11881358D02*
G01*
X2808224Y11875770D01*
X2797302Y11864847D01*
X2791968Y11853926D01*
X2786379Y11837670D01*
X2786379Y11810492D01*
X2791968Y11793981D01*
X2797302Y11783060D01*
X2808224Y11772137D01*
X2819145Y11766804D01*
X2840990Y11766804D01*
X2851911Y11772137D01*
X2862834Y11783060D01*
X2868168Y11793981D01*
X2873756Y11810492D01*
X2873756Y11837670D01*
X2868168Y11853926D01*
X2862834Y11864847D01*
X2851911Y11875770D01*
X2840990Y11881358D01*
X2819145Y11881358D01*
X2909570Y11881358D02*
G01*
X2909570Y11766804D01*
X2909570Y11881358D02*
G01*
X2953258Y11766804D01*
X2996945Y11881358D02*
G01*
X2953258Y11766804D01*
X2996945Y11881358D02*
G01*
X2996945Y11766804D01*
X3033013Y11881358D02*
G01*
X3033013Y11766804D01*
X3112515Y11881358D02*
G01*
X3068827Y11766804D01*
X3112515Y11881358D02*
G01*
X3156204Y11766804D01*
X3085338Y11804904D02*
G01*
X3139947Y11804904D01*
X3276091Y11881358D02*
G01*
X3276091Y11766804D01*
X3276091Y11881358D02*
G01*
X3325368Y11881358D01*
X3341624Y11875770D01*
X3347211Y11870436D01*
X3352545Y11859513D01*
X3352545Y11848592D01*
X3347211Y11837670D01*
X3341624Y11832081D01*
X3325368Y11826747D01*
X3276091Y11826747D02*
G01*
X3325368Y11826747D01*
X3341624Y11821413D01*
X3347211Y11815826D01*
X3352545Y11804904D01*
X3352545Y11788647D01*
X3347211Y11777726D01*
X3341624Y11772137D01*
X3325368Y11766804D01*
X3276091Y11766804D01*
X3388613Y11881358D02*
G01*
X3388613Y11766804D01*
X3388613Y11881358D02*
G01*
X3437636Y11881358D01*
X3454145Y11875770D01*
X3459479Y11870436D01*
X3465068Y11859513D01*
X3465068Y11848592D01*
X3459479Y11837670D01*
X3454145Y11832081D01*
X3437636Y11826747D01*
X3388613Y11826747D01*
X3426713Y11826747D02*
G01*
X3465068Y11766804D01*
X3500881Y11881358D02*
G01*
X3500881Y11766804D01*
X3500881Y11881358D02*
G01*
X3571747Y11881358D01*
X3500881Y11826747D02*
G01*
X3544570Y11826747D01*
X3500881Y11766804D02*
G01*
X3571747Y11766804D01*
X3651504Y11881358D02*
G01*
X3607815Y11766804D01*
X3651504Y11881358D02*
G01*
X3695191Y11766804D01*
X3624325Y11804904D02*
G01*
X3678681Y11804904D01*
X3731006Y11881358D02*
G01*
X3731006Y11766804D01*
X3731006Y11881358D02*
G01*
X3769359Y11881358D01*
X3785615Y11875770D01*
X3796538Y11864847D01*
X3802125Y11853926D01*
X3807459Y11837670D01*
X3807459Y11810492D01*
X3802125Y11793981D01*
X3796538Y11783060D01*
X3785615Y11772137D01*
X3769359Y11766804D01*
X3731006Y11766804D01*
X3843527Y11881358D02*
G01*
X3843527Y11766804D01*
X3843527Y11881358D02*
G01*
X3892550Y11881358D01*
X3909059Y11875770D01*
X3914393Y11870436D01*
X3919727Y11859513D01*
X3919727Y11848592D01*
X3914393Y11837670D01*
X3909059Y11832081D01*
X3892550Y11826747D01*
X3843527Y11826747D02*
G01*
X3892550Y11826747D01*
X3909059Y11821413D01*
X3914393Y11815826D01*
X3919727Y11804904D01*
X3919727Y11788647D01*
X3914393Y11777726D01*
X3909059Y11772137D01*
X3892550Y11766804D01*
X3843527Y11766804D01*
X3988561Y11881358D02*
G01*
X3977640Y11875770D01*
X3966718Y11864847D01*
X3961384Y11853926D01*
X3955795Y11837670D01*
X3955795Y11810492D01*
X3961384Y11793981D01*
X3966718Y11783060D01*
X3977640Y11772137D01*
X3988561Y11766804D01*
X4010406Y11766804D01*
X4021327Y11772137D01*
X4032250Y11783060D01*
X4037584Y11793981D01*
X4043172Y11810492D01*
X4043172Y11837670D01*
X4037584Y11853926D01*
X4032250Y11864847D01*
X4021327Y11875770D01*
X4010406Y11881358D01*
X3988561Y11881358D01*
X4122674Y11881358D02*
G01*
X4079240Y11766804D01*
X4122674Y11881358D02*
G01*
X4166361Y11766804D01*
X4095495Y11804904D02*
G01*
X4150106Y11804904D01*
X4202429Y11881358D02*
G01*
X4202429Y11766804D01*
X4202429Y11881358D02*
G01*
X4251452Y11881358D01*
X4267961Y11875770D01*
X4273295Y11870436D01*
X4278884Y11859513D01*
X4278884Y11848592D01*
X4273295Y11837670D01*
X4267961Y11832081D01*
X4251452Y11826747D01*
X4202429Y11826747D01*
X4240529Y11826747D02*
G01*
X4278884Y11766804D01*
X4314697Y11881358D02*
G01*
X4314697Y11766804D01*
X4314697Y11881358D02*
G01*
X4353052Y11881358D01*
X4369308Y11875770D01*
X4380229Y11864847D01*
X4385563Y11853926D01*
X4391152Y11837670D01*
X4391152Y11810492D01*
X4385563Y11793981D01*
X4380229Y11783060D01*
X4369308Y11772137D01*
X4353052Y11766804D01*
X4314697Y11766804D01*
X4511040Y11881358D02*
G01*
X4511040Y11766804D01*
X4511040Y11766804D02*
G01*
X4576572Y11766804D01*
X4612640Y11881358D02*
G01*
X4612640Y11766804D01*
X4612640Y11881358D02*
G01*
X4683506Y11881358D01*
X4612640Y11826747D02*
G01*
X4656327Y11826747D01*
X4612640Y11766804D02*
G01*
X4683506Y11766804D01*
X4719574Y11881358D02*
G01*
X4719574Y11766804D01*
X4719574Y11881358D02*
G01*
X4757674Y11881358D01*
X4773929Y11875770D01*
X4784852Y11864847D01*
X4790440Y11853926D01*
X4795774Y11837670D01*
X4795774Y11810492D01*
X4790440Y11793981D01*
X4784852Y11783060D01*
X4773929Y11772137D01*
X4757674Y11766804D01*
X4719574Y11766804D01*
X4915915Y11881358D02*
G01*
X4915915Y11766804D01*
X4915915Y11881358D02*
G01*
X4964938Y11881358D01*
X4981193Y11875770D01*
X4986781Y11870436D01*
X4992115Y11859513D01*
X4992115Y11848592D01*
X4986781Y11837670D01*
X4981193Y11832081D01*
X4964938Y11826747D01*
X4915915Y11826747D02*
G01*
X4964938Y11826747D01*
X4981193Y11821413D01*
X4986781Y11815826D01*
X4992115Y11804904D01*
X4992115Y11788647D01*
X4986781Y11777726D01*
X4981193Y11772137D01*
X4964938Y11766804D01*
X4915915Y11766804D01*
X5060950Y11881358D02*
G01*
X5050027Y11875770D01*
X5039106Y11864847D01*
X5033772Y11853926D01*
X5028184Y11837670D01*
X5028184Y11810492D01*
X5033772Y11793981D01*
X5039106Y11783060D01*
X5050027Y11772137D01*
X5060950Y11766804D01*
X5082793Y11766804D01*
X5093715Y11772137D01*
X5104638Y11783060D01*
X5109972Y11793981D01*
X5115559Y11810492D01*
X5115559Y11837670D01*
X5109972Y11853926D01*
X5104638Y11864847D01*
X5093715Y11875770D01*
X5082793Y11881358D01*
X5060950Y11881358D01*
X5195061Y11881358D02*
G01*
X5151374Y11766804D01*
X5195061Y11881358D02*
G01*
X5238750Y11766804D01*
X5167884Y11804904D02*
G01*
X5222493Y11804904D01*
X5274818Y11881358D02*
G01*
X5274818Y11766804D01*
X5274818Y11881358D02*
G01*
X5323840Y11881358D01*
X5340095Y11875770D01*
X5345684Y11870436D01*
X5351018Y11859513D01*
X5351018Y11848592D01*
X5345684Y11837670D01*
X5340095Y11832081D01*
X5323840Y11826747D01*
X5274818Y11826747D01*
X5312918Y11826747D02*
G01*
X5351018Y11766804D01*
X5387086Y11881358D02*
G01*
X5387086Y11766804D01*
X5387086Y11881358D02*
G01*
X5425186Y11881358D01*
X5441695Y11875770D01*
X5452618Y11864847D01*
X5457952Y11853926D01*
X5463540Y11837670D01*
X5463540Y11810492D01*
X5457952Y11793981D01*
X5452618Y11783060D01*
X5441695Y11772137D01*
X5425186Y11766804D01*
X5387086Y11766804D01*
X5583427Y11881358D02*
G01*
X5627115Y11766804D01*
X5670804Y11881358D02*
G01*
X5627115Y11766804D01*
X5706872Y11859513D02*
G01*
X5717540Y11864847D01*
X5734050Y11881358D01*
X5734050Y11766804D01*
X5775452Y11793981D02*
G01*
X5770118Y11788647D01*
X5775452Y11783060D01*
X5781040Y11788647D01*
X5775452Y11793981D01*
X5822441Y11853926D02*
G01*
X5822441Y11859513D01*
X5827775Y11870436D01*
X5833363Y11875770D01*
X5844286Y11881358D01*
X5866129Y11881358D01*
X5877052Y11875770D01*
X5882386Y11870436D01*
X5887974Y11859513D01*
X5887974Y11848592D01*
X5882386Y11837670D01*
X5871463Y11821413D01*
X5816854Y11766804D01*
X5893308Y11766804D01*
X6013195Y11815826D02*
G01*
X6111493Y11815826D01*
X6231381Y11881358D02*
G01*
X6231381Y11766804D01*
X6231381Y11881358D02*
G01*
X6302502Y11881358D01*
X6231381Y11826747D02*
G01*
X6275070Y11826747D01*
X6338315Y11881358D02*
G01*
X6338315Y11766804D01*
X6338315Y11881358D02*
G01*
X6387591Y11881358D01*
X6403847Y11875770D01*
X6409181Y11870436D01*
X6414770Y11859513D01*
X6414770Y11848592D01*
X6409181Y11837670D01*
X6403847Y11832081D01*
X6387591Y11826747D01*
X6338315Y11826747D01*
X6376670Y11826747D02*
G01*
X6414770Y11766804D01*
X6483604Y11881358D02*
G01*
X6472681Y11875770D01*
X6461759Y11864847D01*
X6456172Y11853926D01*
X6450838Y11837670D01*
X6450838Y11810492D01*
X6456172Y11793981D01*
X6461759Y11783060D01*
X6472681Y11772137D01*
X6483604Y11766804D01*
X6505193Y11766804D01*
X6516115Y11772137D01*
X6527038Y11783060D01*
X6532625Y11793981D01*
X6537959Y11810492D01*
X6537959Y11837670D01*
X6532625Y11853926D01*
X6527038Y11864847D01*
X6516115Y11875770D01*
X6505193Y11881358D01*
X6483604Y11881358D01*
X6574027Y11881358D02*
G01*
X6574027Y11766804D01*
X6574027Y11881358D02*
G01*
X6650481Y11766804D01*
X6650481Y11881358D02*
G01*
X6650481Y11766804D01*
X6724650Y11881358D02*
G01*
X6724650Y11766804D01*
X6686295Y11881358D02*
G01*
X6762750Y11881358D01*
D11*
X7658100Y11276837D02*
G01*
X7658100Y11181334D01*
X7658100Y11276837D02*
G01*
X7689850Y11276837D01*
X7703565Y11272265D01*
X7712709Y11263376D01*
X7717281Y11254231D01*
X7721854Y11240515D01*
X7721854Y11217910D01*
X7717281Y11204194D01*
X7712709Y11195050D01*
X7703565Y11185905D01*
X7689850Y11181334D01*
X7658100Y11181334D01*
X7806181Y11276837D02*
G01*
X7760715Y11276837D01*
X7756397Y11235944D01*
X7760715Y11240515D01*
X7774431Y11245087D01*
X7788147Y11245087D01*
X7801609Y11240515D01*
X7810754Y11231371D01*
X7815325Y11217910D01*
X7815325Y11208765D01*
X7810754Y11195050D01*
X7801609Y11185905D01*
X7788147Y11181334D01*
X7774431Y11181334D01*
X7760715Y11185905D01*
X7756397Y11190478D01*
X7751825Y11199621D01*
X7658100Y10730915D02*
G01*
X7658100Y10635411D01*
X7658100Y10730915D02*
G01*
X7689850Y10730915D01*
X7703565Y10726343D01*
X7712709Y10717199D01*
X7717281Y10708055D01*
X7721854Y10694339D01*
X7721854Y10671733D01*
X7717281Y10658017D01*
X7712709Y10648873D01*
X7703565Y10639983D01*
X7689850Y10635411D01*
X7658100Y10635411D01*
X7806181Y10717199D02*
G01*
X7801609Y10726343D01*
X7788147Y10730915D01*
X7779004Y10730915D01*
X7765288Y10726343D01*
X7756397Y10712627D01*
X7751825Y10690021D01*
X7751825Y10667161D01*
X7756397Y10648873D01*
X7765288Y10639983D01*
X7779004Y10635411D01*
X7783575Y10635411D01*
X7797291Y10639983D01*
X7806181Y10648873D01*
X7810754Y10662589D01*
X7810754Y10667161D01*
X7806181Y10680877D01*
X7797291Y10690021D01*
X7783575Y10694339D01*
X7779004Y10694339D01*
X7765288Y10690021D01*
X7756397Y10680877D01*
X7751825Y10667161D01*
X7658100Y10184739D02*
G01*
X7658100Y10089235D01*
X7658100Y10184739D02*
G01*
X7689850Y10184739D01*
X7703565Y10180167D01*
X7712709Y10171023D01*
X7717281Y10161879D01*
X7721854Y10148417D01*
X7721854Y10125557D01*
X7717281Y10112095D01*
X7712709Y10102951D01*
X7703565Y10093807D01*
X7689850Y10089235D01*
X7658100Y10089235D01*
X7815325Y10184739D02*
G01*
X7769859Y10089235D01*
X7751825Y10184739D02*
G01*
X7815325Y10184739D01*
X1435100Y7708137D02*
G01*
X1435100Y7612634D01*
X1435100Y7708137D02*
G01*
X1475994Y7708137D01*
X1489710Y7703565D01*
X1494281Y7698994D01*
X1498854Y7690104D01*
X1498854Y7680960D01*
X1494281Y7671815D01*
X1489710Y7667244D01*
X1475994Y7662671D01*
X1435100Y7662671D01*
X1466850Y7662671D02*
G01*
X1498854Y7612634D01*
X1528826Y7690104D02*
G01*
X1537715Y7694676D01*
X1551431Y7708137D01*
X1551431Y7612634D01*
X635000Y7631937D02*
G01*
X635000Y7536434D01*
X635000Y7631937D02*
G01*
X666750Y7631937D01*
X680465Y7627365D01*
X689610Y7618476D01*
X694181Y7609331D01*
X698754Y7595615D01*
X698754Y7573010D01*
X694181Y7559294D01*
X689610Y7550150D01*
X680465Y7541005D01*
X666750Y7536434D01*
X635000Y7536434D01*
X728726Y7613904D02*
G01*
X737615Y7618476D01*
X751331Y7631937D01*
X751331Y7536434D01*
X635000Y5130037D02*
G01*
X635000Y5034534D01*
X635000Y5130037D02*
G01*
X666750Y5130037D01*
X680465Y5125465D01*
X689610Y5116576D01*
X694181Y5107431D01*
X698754Y5093715D01*
X698754Y5071110D01*
X694181Y5057394D01*
X689610Y5048250D01*
X680465Y5039105D01*
X666750Y5034534D01*
X635000Y5034534D01*
X733297Y5107431D02*
G01*
X733297Y5112004D01*
X737615Y5120894D01*
X742187Y5125465D01*
X751331Y5130037D01*
X769620Y5130037D01*
X778510Y5125465D01*
X783081Y5120894D01*
X787654Y5112004D01*
X787654Y5102860D01*
X783081Y5093715D01*
X774192Y5080000D01*
X728726Y5034534D01*
X792226Y5034534D01*
X1435100Y5206237D02*
G01*
X1435100Y5110734D01*
X1435100Y5206237D02*
G01*
X1475994Y5206237D01*
X1489710Y5201665D01*
X1494281Y5197094D01*
X1498854Y5188204D01*
X1498854Y5179060D01*
X1494281Y5169915D01*
X1489710Y5165344D01*
X1475994Y5160771D01*
X1435100Y5160771D01*
X1466850Y5160771D02*
G01*
X1498854Y5110734D01*
X1533397Y5183631D02*
G01*
X1533397Y5188204D01*
X1537715Y5197094D01*
X1542287Y5201665D01*
X1551431Y5206237D01*
X1569720Y5206237D01*
X1578610Y5201665D01*
X1583181Y5197094D01*
X1587754Y5188204D01*
X1587754Y5179060D01*
X1583181Y5169915D01*
X1574292Y5156200D01*
X1528826Y5110734D01*
X1592326Y5110734D01*
X8479205Y5082946D02*
G01*
X8479205Y4987442D01*
X8479205Y5082946D02*
G01*
X8520099Y5082946D01*
X8533815Y5078374D01*
X8538387Y5073802D01*
X8542959Y5064912D01*
X8542959Y5055768D01*
X8538387Y5046624D01*
X8533815Y5042052D01*
X8520099Y5037480D01*
X8479205Y5037480D01*
X8510955Y5037480D02*
G01*
X8542959Y4987442D01*
X8618397Y5082946D02*
G01*
X8572931Y5019446D01*
X8641003Y5019446D01*
X8618397Y5082946D02*
G01*
X8618397Y4987442D01*
X7950200Y5168137D02*
G01*
X7950200Y5072634D01*
X7950200Y5168137D02*
G01*
X7981950Y5168137D01*
X7995665Y5163565D01*
X8004809Y5154676D01*
X8009381Y5145531D01*
X8013954Y5131815D01*
X8013954Y5109210D01*
X8009381Y5095494D01*
X8004809Y5086350D01*
X7995665Y5077205D01*
X7981950Y5072634D01*
X7950200Y5072634D01*
X8089391Y5168137D02*
G01*
X8043925Y5104637D01*
X8111997Y5104637D01*
X8089391Y5168137D02*
G01*
X8089391Y5072634D01*
X7950200Y7568437D02*
G01*
X7950200Y7472934D01*
X7950200Y7568437D02*
G01*
X7981950Y7568437D01*
X7995665Y7563865D01*
X8004809Y7554976D01*
X8009381Y7545831D01*
X8013954Y7532115D01*
X8013954Y7509510D01*
X8009381Y7495794D01*
X8004809Y7486650D01*
X7995665Y7477505D01*
X7981950Y7472934D01*
X7950200Y7472934D01*
X8052815Y7568437D02*
G01*
X8102854Y7568437D01*
X8075675Y7532115D01*
X8089391Y7532115D01*
X8098281Y7527544D01*
X8102854Y7522971D01*
X8107425Y7509510D01*
X8107425Y7500365D01*
X8102854Y7486650D01*
X8093709Y7477505D01*
X8080247Y7472934D01*
X8066531Y7472934D01*
X8052815Y7477505D01*
X8048497Y7482078D01*
X8043925Y7491221D01*
X8479281Y7470647D02*
G01*
X8479281Y7375144D01*
X8479281Y7470647D02*
G01*
X8520175Y7470647D01*
X8533638Y7466076D01*
X8538209Y7461504D01*
X8542781Y7452360D01*
X8542781Y7443470D01*
X8538209Y7434326D01*
X8533638Y7429754D01*
X8520175Y7425181D01*
X8479281Y7425181D01*
X8511031Y7425181D02*
G01*
X8542781Y7375144D01*
X8581897Y7470647D02*
G01*
X8631936Y7470647D01*
X8604758Y7434326D01*
X8618220Y7434326D01*
X8627363Y7429754D01*
X8631936Y7425181D01*
X8636508Y7411465D01*
X8636508Y7402321D01*
X8631936Y7388860D01*
X8622791Y7379715D01*
X8609329Y7375144D01*
X8595613Y7375144D01*
X8581897Y7379715D01*
X8577325Y7384287D01*
X8572754Y7393431D01*
X8005800Y11073637D02*
G01*
X8005800Y10978134D01*
X8005800Y11073637D02*
G01*
X8046694Y11073637D01*
X8060410Y11069065D01*
X8064982Y11064494D01*
X8069554Y11055604D01*
X8069554Y11046460D01*
X8064982Y11037315D01*
X8060410Y11032744D01*
X8046694Y11028171D01*
X8005800Y11028171D01*
X8037550Y11028171D02*
G01*
X8069554Y10978134D01*
X8153882Y11073637D02*
G01*
X8108416Y11073637D01*
X8104098Y11032744D01*
X8108416Y11037315D01*
X8122132Y11041887D01*
X8135848Y11041887D01*
X8149310Y11037315D01*
X8158454Y11028171D01*
X8163026Y11014710D01*
X8163026Y11005565D01*
X8158454Y10991850D01*
X8149310Y10982705D01*
X8135848Y10978134D01*
X8122132Y10978134D01*
X8108416Y10982705D01*
X8104098Y10987278D01*
X8099526Y10996421D01*
X8018500Y9971938D02*
G01*
X8018500Y9876434D01*
X8018500Y9971938D02*
G01*
X8059394Y9971938D01*
X8073110Y9967366D01*
X8077682Y9962794D01*
X8082254Y9953904D01*
X8082254Y9944760D01*
X8077682Y9935616D01*
X8073110Y9931044D01*
X8059394Y9926472D01*
X8018500Y9926472D01*
X8050250Y9926472D02*
G01*
X8082254Y9876434D01*
X8175726Y9971938D02*
G01*
X8130260Y9876434D01*
X8112226Y9971938D02*
G01*
X8175726Y9971938D01*
X8005800Y10529138D02*
G01*
X8005800Y10433634D01*
X8005800Y10529138D02*
G01*
X8046694Y10529138D01*
X8060410Y10524566D01*
X8064982Y10519994D01*
X8069554Y10511104D01*
X8069554Y10501960D01*
X8064982Y10492816D01*
X8060410Y10488244D01*
X8046694Y10483672D01*
X8005800Y10483672D01*
X8037550Y10483672D02*
G01*
X8069554Y10433634D01*
X8153882Y10515676D02*
G01*
X8149310Y10524566D01*
X8135848Y10529138D01*
X8126704Y10529138D01*
X8112988Y10524566D01*
X8104098Y10511104D01*
X8099526Y10488244D01*
X8099526Y10465638D01*
X8104098Y10447350D01*
X8112988Y10438206D01*
X8126704Y10433634D01*
X8131276Y10433634D01*
X8144992Y10438206D01*
X8153882Y10447350D01*
X8158454Y10461066D01*
X8158454Y10465638D01*
X8153882Y10479100D01*
X8144992Y10488244D01*
X8131276Y10492816D01*
X8126704Y10492816D01*
X8112988Y10488244D01*
X8104098Y10479100D01*
X8099526Y10465638D01*
D12*
X7853400Y11146797D02*
G01*
X7853400Y11306802D01*
X8031200Y11306802D02*
G01*
X8031200Y11146797D01*
X7942300Y11239500D02*
G01*
X7942300Y11214100D01*
X7974050Y11214100D02*
G01*
X7910550Y11214100D01*
X7853400Y10602297D02*
G01*
X7853400Y10762302D01*
X8031200Y10762302D02*
G01*
X8031200Y10602297D01*
X7942300Y10695000D02*
G01*
X7942300Y10669600D01*
X7974050Y10669600D02*
G01*
X7910550Y10669600D01*
X7853400Y10057798D02*
G01*
X7853400Y10217802D01*
X8031200Y10217802D02*
G01*
X8031200Y10057798D01*
X7942300Y10150500D02*
G01*
X7942300Y10125100D01*
X7974050Y10125100D02*
G01*
X7910550Y10125100D01*
D13*
X1386961Y7738612D02*
G01*
X1386961Y7578608D01*
X1076904Y7738102D02*
G01*
X1076904Y7578097D01*
X1261965Y7578608D02*
G01*
X1386961Y7578608D01*
X1261965Y7738612D02*
G01*
X1386961Y7738612D01*
X1201907Y7578097D02*
G01*
X1076904Y7578097D01*
X1201907Y7738102D02*
G01*
X1076904Y7738102D01*
D12*
X825500Y7501897D02*
G01*
X825500Y7661902D01*
X1003300Y7661902D02*
G01*
X1003300Y7501897D01*
X914400Y7594600D02*
G01*
X914400Y7569200D01*
X946150Y7569200D02*
G01*
X882650Y7569200D01*
X825500Y4999997D02*
G01*
X825500Y5160002D01*
X1003300Y5160002D02*
G01*
X1003300Y4999997D01*
X914400Y5092700D02*
G01*
X914400Y5067300D01*
X946150Y5067300D02*
G01*
X882650Y5067300D01*
D13*
X1386961Y5236712D02*
G01*
X1386961Y5076708D01*
X1076904Y5236202D02*
G01*
X1076904Y5076197D01*
X1261965Y5076708D02*
G01*
X1386961Y5076708D01*
X1261965Y5236712D02*
G01*
X1386961Y5236712D01*
X1201907Y5076197D02*
G01*
X1076904Y5076197D01*
X1201907Y5236202D02*
G01*
X1076904Y5236202D01*
X8714861Y5287512D02*
G01*
X8714861Y5127508D01*
X8404804Y5287002D02*
G01*
X8404804Y5126997D01*
X8589865Y5127508D02*
G01*
X8714861Y5127508D01*
X8589865Y5287512D02*
G01*
X8714861Y5287512D01*
X8529807Y5126997D02*
G01*
X8404804Y5126997D01*
X8529807Y5287002D02*
G01*
X8404804Y5287002D01*
D12*
X8140700Y5050797D02*
G01*
X8140700Y5210802D01*
X8318500Y5210802D02*
G01*
X8318500Y5050797D01*
X8229600Y5143500D02*
G01*
X8229600Y5118100D01*
X8261350Y5118100D02*
G01*
X8197850Y5118100D01*
X8140700Y7438397D02*
G01*
X8140700Y7598402D01*
X8318500Y7598402D02*
G01*
X8318500Y7438397D01*
X8229600Y7531100D02*
G01*
X8229600Y7505700D01*
X8261350Y7505700D02*
G01*
X8197850Y7505700D01*
D13*
X8714861Y7675112D02*
G01*
X8714861Y7515108D01*
X8404804Y7674602D02*
G01*
X8404804Y7514597D01*
X8589865Y7515108D02*
G01*
X8714861Y7515108D01*
X8589865Y7675112D02*
G01*
X8714861Y7675112D01*
X8529807Y7514597D02*
G01*
X8404804Y7514597D01*
X8529807Y7674602D02*
G01*
X8404804Y7674602D01*
D11*
X7772679Y11089660D02*
G01*
X7676791Y11089660D01*
X7676791Y10957539D01*
X7772679Y10957539D01*
X7857921Y11089660D02*
G01*
X7953809Y11089660D01*
X7953809Y10957539D01*
X7857921Y10957539D01*
X7772679Y9997460D02*
G01*
X7676791Y9997460D01*
X7676791Y9865339D01*
X7772679Y9865339D01*
X7857921Y9997460D02*
G01*
X7953809Y9997460D01*
X7953809Y9865339D01*
X7857921Y9865339D01*
X7772679Y10543560D02*
G01*
X7676791Y10543560D01*
X7676791Y10411439D01*
X7772679Y10411439D01*
X7857921Y10543560D02*
G01*
X7953809Y10543560D01*
X7953809Y10411439D01*
X7857921Y10411439D01*
M02*
