G04 Layer: TopSilkscreenLayer*
G04 Panelize: Stamp Hole, Column: 10, Row: 1, Board Size: 9.91mm x 106.68mm, Panelized Board Size: 153.06mm x 106.68mm*
G04 EasyEDA v6.5.34, 2023-08-21 18:11:39*
G04 ba324229fcc8424cbbcbecf3e9f9a0b2,5a6b42c53f6a479593ecc07194224c93,10*
G04 Gerber Generator version 0.2*
G04 Scale: 100 percent, Rotated: No, Reflected: No *
G04 Dimensions in millimeters *
G04 leading zeros omitted , absolute positions ,4 integer and 5 decimal *
%FSLAX45Y45*%
%MOMM*%

%ADD10C,0.1524*%
%ADD11C,0.2032*%
%ADD12C,0.1270*%
%ADD13C,0.2540*%

%LPD*%
D10*
X101600Y8089137D02*
G01*
X101600Y7993634D01*
X101600Y8089137D02*
G01*
X142494Y8089137D01*
X156210Y8084565D01*
X160781Y8079994D01*
X165354Y8071104D01*
X165354Y8061960D01*
X160781Y8052815D01*
X156210Y8048244D01*
X142494Y8043671D01*
X101600Y8043671D01*
X133350Y8043671D02*
G01*
X165354Y7993634D01*
X195326Y8071104D02*
G01*
X204215Y8075676D01*
X217931Y8089137D01*
X217931Y7993634D01*
X101600Y4536694D02*
G01*
X101600Y4441189D01*
X101600Y4536694D02*
G01*
X142494Y4536694D01*
X156210Y4532121D01*
X160781Y4527550D01*
X165354Y4518405D01*
X165354Y4509515D01*
X160781Y4500371D01*
X156210Y4495800D01*
X142494Y4491228D01*
X101600Y4491228D01*
X133350Y4491228D02*
G01*
X165354Y4441189D01*
X199897Y4514087D02*
G01*
X199897Y4518405D01*
X204215Y4527550D01*
X208787Y4532121D01*
X217931Y4536694D01*
X236220Y4536694D01*
X245110Y4532121D01*
X249681Y4527550D01*
X254254Y4518405D01*
X254254Y4509515D01*
X249681Y4500371D01*
X240792Y4486655D01*
X195326Y4441189D01*
X258826Y4441189D01*
D11*
X717041Y2378710D02*
G01*
X804418Y2378710D01*
X820674Y2373121D01*
X826261Y2367787D01*
X831595Y2356865D01*
X831595Y2345944D01*
X826261Y2335021D01*
X820674Y2329434D01*
X804418Y2324100D01*
X793495Y2324100D01*
X717041Y2414523D02*
G01*
X831595Y2414523D01*
X831595Y2414523D02*
G01*
X831595Y2480055D01*
X744474Y2597912D02*
G01*
X733552Y2592578D01*
X722629Y2581655D01*
X717041Y2570734D01*
X717041Y2548889D01*
X722629Y2537968D01*
X733552Y2527045D01*
X744474Y2521457D01*
X760729Y2516123D01*
X787908Y2516123D01*
X804418Y2521457D01*
X815340Y2527045D01*
X826261Y2537968D01*
X831595Y2548889D01*
X831595Y2570734D01*
X826261Y2581655D01*
X815340Y2592578D01*
X804418Y2597912D01*
X717041Y2688336D02*
G01*
X804418Y2688336D01*
X820674Y2683002D01*
X826261Y2677668D01*
X831595Y2666745D01*
X831595Y2655823D01*
X826261Y2644902D01*
X820674Y2639313D01*
X804418Y2633979D01*
X793495Y2633979D01*
X717041Y2724404D02*
G01*
X831595Y2724404D01*
X831595Y2724404D02*
G01*
X831595Y2789936D01*
X744474Y2907792D02*
G01*
X733552Y2902204D01*
X722629Y2891281D01*
X717041Y2880360D01*
X717041Y2858770D01*
X722629Y2847847D01*
X733552Y2836926D01*
X744474Y2831337D01*
X760729Y2826004D01*
X787908Y2826004D01*
X804418Y2831337D01*
X815340Y2836926D01*
X826261Y2847847D01*
X831595Y2858770D01*
X831595Y2880360D01*
X826261Y2891281D01*
X815340Y2902204D01*
X804418Y2907792D01*
X717041Y2998215D02*
G01*
X804418Y2998215D01*
X820674Y2992881D01*
X826261Y2987294D01*
X831595Y2976371D01*
X831595Y2965450D01*
X826261Y2954528D01*
X820674Y2949194D01*
X804418Y2943860D01*
X793495Y2943860D01*
X717041Y3034284D02*
G01*
X831595Y3034284D01*
X831595Y3034284D02*
G01*
X831595Y3099815D01*
X744474Y3217671D02*
G01*
X733552Y3212084D01*
X722629Y3201162D01*
X717041Y3190239D01*
X717041Y3168395D01*
X722629Y3157473D01*
X733552Y3146552D01*
X744474Y3141218D01*
X760729Y3135629D01*
X787908Y3135629D01*
X804418Y3141218D01*
X815340Y3146552D01*
X826261Y3157473D01*
X831595Y3168395D01*
X831595Y3190239D01*
X826261Y3201162D01*
X815340Y3212084D01*
X804418Y3217671D01*
X717041Y3308095D02*
G01*
X804418Y3308095D01*
X820674Y3302762D01*
X826261Y3297173D01*
X831595Y3286252D01*
X831595Y3275329D01*
X826261Y3264407D01*
X820674Y3259073D01*
X804418Y3253486D01*
X793495Y3253486D01*
X717041Y3344163D02*
G01*
X831595Y3344163D01*
X831595Y3344163D02*
G01*
X831595Y3409442D01*
X744474Y3527297D02*
G01*
X733552Y3521963D01*
X722629Y3511042D01*
X717041Y3500120D01*
X717041Y3478276D01*
X722629Y3467354D01*
X733552Y3456431D01*
X744474Y3451097D01*
X760729Y3445510D01*
X787908Y3445510D01*
X804418Y3451097D01*
X815340Y3456431D01*
X826261Y3467354D01*
X831595Y3478276D01*
X831595Y3500120D01*
X826261Y3511042D01*
X815340Y3521963D01*
X804418Y3527297D01*
D10*
X78005Y11581571D02*
G01*
X68861Y11576999D01*
X59971Y11568109D01*
X55399Y11558965D01*
X50827Y11545249D01*
X50827Y11522643D01*
X55399Y11508927D01*
X59971Y11499783D01*
X68861Y11490639D01*
X78005Y11486321D01*
X96293Y11486321D01*
X105437Y11490639D01*
X114327Y11499783D01*
X118899Y11508927D01*
X123471Y11522643D01*
X123471Y11545249D01*
X118899Y11558965D01*
X114327Y11568109D01*
X105437Y11576999D01*
X96293Y11581571D01*
X78005Y11581571D01*
X153443Y11581571D02*
G01*
X153443Y11513499D01*
X158015Y11499783D01*
X167159Y11490639D01*
X180875Y11486321D01*
X189765Y11486321D01*
X203481Y11490639D01*
X212625Y11499783D01*
X217197Y11513499D01*
X217197Y11581571D01*
X278919Y11581571D02*
G01*
X278919Y11486321D01*
X247169Y11581571D02*
G01*
X310669Y11581571D01*
X340895Y11563537D02*
G01*
X349785Y11568109D01*
X363501Y11581571D01*
X363501Y11486321D01*
D12*
X943485Y11433876D02*
G01*
X943485Y10383890D01*
X513488Y10383890D01*
X43512Y10383890D01*
X43512Y11433876D01*
X343486Y11433876D01*
X643511Y11433876D01*
X943485Y11433876D01*
X343486Y11433876D02*
G01*
X343486Y11233876D01*
X643511Y11233876D01*
X643511Y11433876D01*
X473509Y10373883D02*
G01*
X473509Y10163876D01*
X513488Y10163876D01*
X513488Y10383890D01*
G75*
G01*
X809729Y10833877D02*
G03*
X809729Y10833115I-316230J-381D01*
G75*
G01*
X762561Y10833877D02*
G03*
X762561Y10833217I-269062J-330D01*
D13*
X95300Y4395596D02*
G01*
X895299Y4395596D01*
X895299Y1395602D01*
X95300Y1395602D01*
X95300Y4395596D01*
X95300Y7948091D02*
G01*
X895299Y7948091D01*
X895299Y4948097D01*
X95300Y4948097D01*
X95300Y7948091D01*
M02*
