M48
METRIC,LZ,000.000
;FILE_FORMAT=3:3
;TYPE=PLATED
;Layer: PTH_Through
;EasyEDA v6.5.34, 2023-08-15 01:36:41
;4f68baccf90e46bd970f154785848b76,5a6b42c53f6a479593ecc07194224c93,10
;Gerber Generator version 0.2
;Holesize 1 = 0.305 mm
T01C0.305
;Holesize 2 = 0.310 mm
T02C0.310
;Holesize 3 = 0.901 mm
T03C0.901
;Holesize 4 = 1.000 mm
T04C1.000
;Holesize 5 = 1.100 mm
T05C1.100
;Holesize 6 = 1.200 mm
T06C1.200
;Holesize 7 = 2.120 mm
T07C2.120
%
G05
G90
T01
X185547Y062865
X185547Y055753
X189357Y055753
X188722Y055118
X202819Y057912
X202311Y058547
X194056Y059309
X186944Y059436
X202819Y054737
X203454Y055372
X193294Y076200
X196850Y076200
X206375Y070612
X206375Y061468
X189230Y056896
X209169Y066929
X195961Y066929
X209804Y066294
X194183Y066294
X195072Y070612
X209804Y051689
X209169Y052324
X208280Y065532
X208280Y056388
X207645Y057023
X207645Y068199
X188468Y052959
X186309Y058801
X186309Y057912
X186309Y057023
X187198Y057023
X196723Y050927
X195580Y060579
X195707Y056134
X198882Y060579
X191262Y051181
X199263Y052959
X197485Y055626
X197739Y053664
X198247Y064516
X196723Y060579
X196469Y056134
X190754Y063119
X190754Y062357
X194945Y063373
X195707Y062992
X192024Y062992
X190754Y061595
X193802Y060579
X194691Y060579
X192151Y061814
X189611Y059817
X190881Y056388
X198882Y058420
X197485Y057023
X195199Y057023
X195199Y058420
X197485Y058420
X195707Y063881
X189357Y064516
X201803Y057912
X189357Y053467
X199771Y061468
X198501Y055880
X192842Y054666
X194056Y058420
X212090Y070612
X172925Y021576
X170639Y050532
X156337Y042164
X157431Y054723
X156337Y053340
X168275Y051816
X157480Y051816
X337185Y026670
X338328Y040767
X341122Y033298
X336677Y035965
X335407Y030226
X333375Y035433
X337693Y032536
X339979Y032536
X339979Y034822
X337693Y034822
X343916Y035560
X342773Y029996
X341122Y032258
X340614Y031647
X344297Y030504
X339725Y028448
X340614Y028091
X344297Y028980
X344297Y028091
X337439Y038181
X337693Y036219
X335788Y038862
X343535Y039624
X339598Y031266
X334772Y036981
X343027Y028599
X342519Y062357
X342646Y076200
X339090Y076200
X332486Y036830
X332232Y038481
X336042Y040640
T02
X047371Y007620
X053063Y006350
X077470Y007620
X066421Y007620
X071755Y006350
X065151Y006350
X068072Y-005080
X062611Y-005080
X069596Y-003810
X063881Y-003810
X080264Y-002540
X065151Y-002540
X081788Y-001270
X066421Y-001270
X045212Y-002540
X058166Y-002540
X055880Y-003810
X059436Y-003810
X057404Y-005080
X060706Y-005080
X043688Y-001270
X056896Y-001270
X063881Y006350
X062611Y007620
X089639Y007620
X111379Y007620
X101831Y006350
X112649Y006350
X092456Y-001270
X105664Y-001270
X093980Y-002540
X106934Y-002540
X104648Y-003810
X108204Y-003810
X106172Y-005080
X109474Y-005080
X116840Y-005080
X111379Y-005080
X118364Y-003810
X112649Y-003810
X129032Y-002540
X113919Y-002540
X130556Y-001270
X115189Y-001270
X120523Y006223
X113919Y006223
X126215Y007620
X115189Y007620
X050927Y077470
X063119Y077470
X075311Y077470
X087503Y077470
X058166Y059690
X050546Y059690
X059436Y059690
X062738Y059690
X060706Y058420
X074930Y058420
X061976Y057023
X087122Y057023
X099695Y077470
X111887Y077470
X124079Y077470
X136271Y077470
X109474Y058420
X123698Y058420
X110744Y057023
X135890Y057023
X108204Y059690
X111506Y059690
X106934Y059690
X099314Y059690
X163322Y078867
X175514Y078867
X213995Y-001016
X208915Y-001016
X215519Y-000381
X210185Y-000381
X205105Y-001016
X207645Y-001016
X190246Y009017
X201295Y009017
X191770Y008382
X202565Y008382
X200787Y-000381
X206375Y-000381
X213106Y060706
X211201Y059563
X208300Y070612
X215138Y055372
X215138Y062992
X183388Y062865
X184404Y068072
X184404Y065532
X181610Y055118
X182372Y060706
X147320Y078867
X147320Y059103
X178054Y060071
X165862Y058801
X145923Y063103
X145923Y057531
X215138Y003302
X197485Y003302
X102489Y003302
X053721Y003302
X458724Y031115
X458724Y059103
X449580Y063103
X449580Y022225
X242443Y007620
X248135Y006350
X272542Y007620
X261493Y007620
X266827Y006350
X260223Y006350
X263144Y-005080
X257683Y-005080
X264668Y-003810
X258953Y-003810
X275336Y-002540
X260223Y-002540
X276860Y-001270
X261493Y-001270
X240284Y-002540
X253238Y-002540
X250952Y-003810
X254508Y-003810
X252476Y-005080
X255778Y-005080
X238760Y-001270
X251968Y-001270
X258953Y006350
X257683Y007620
X284711Y007620
X306451Y007620
X296903Y006350
X307721Y006350
X287528Y-001270
X300736Y-001270
X289052Y-002540
X302006Y-002540
X299720Y-003810
X303276Y-003810
X301244Y-005080
X304546Y-005080
X311912Y-005080
X306451Y-005080
X313436Y-003810
X307721Y-003810
X324104Y-002540
X308991Y-002540
X325628Y-001270
X310261Y-001270
X315595Y006223
X308991Y006223
X321287Y007620
X310261Y007620
X297561Y003302
X248793Y003302
X356235Y007620
X361927Y006350
X386334Y007620
X375285Y007620
X380619Y006350
X374015Y006350
X376936Y-005080
X371475Y-005080
X378460Y-003810
X372745Y-003810
X389128Y-002540
X374015Y-002540
X390652Y-001270
X375285Y-001270
X354076Y-002540
X367030Y-002540
X364744Y-003810
X368300Y-003810
X366268Y-005080
X369570Y-005080
X352552Y-001270
X365760Y-001270
X372745Y006350
X371475Y007620
X398503Y007620
X420243Y007620
X410695Y006350
X421513Y006350
X401320Y-001270
X414528Y-001270
X402844Y-002540
X415798Y-002540
X413512Y-003810
X417068Y-003810
X415036Y-005080
X418338Y-005080
X425704Y-005080
X420243Y-005080
X427228Y-003810
X421513Y-003810
X437896Y-002540
X422783Y-002540
X439420Y-001270
X424053Y-001270
X429387Y006223
X422783Y006223
X435079Y007620
X424053Y007620
X411353Y003302
X362585Y003302
X187429Y007620
X206375Y007620
X199367Y006985
X207645Y006985
X194945Y015367
X186309Y015367
X196215Y016129
X187198Y016129
X101219Y016129
X099949Y015367
X052451Y016129
X051181Y015367
X057531Y013970
X056326Y020320
X051181Y020320
X052451Y020320
X106299Y013970
X201295Y013970
X252603Y013970
X301371Y013970
X366395Y013970
X415163Y013970
X250063Y004064
X298831Y004064
X300101Y004826
X251333Y004826
X365125Y004826
X363855Y004064
X413893Y004826
X412623Y004064
X247523Y016129
X246253Y015367
X295021Y015367
X296291Y016129
X360045Y015367
X361315Y016129
X410083Y016129
X408813Y015367
X293116Y013970
X359410Y013970
X406908Y013970
X408178Y013970
X194310Y013970
X098044Y013970
X200025Y004826
X198755Y004064
X103759Y004064
X105029Y004826
X054991Y004064
X056261Y004826
X194818Y055753
X193929Y057150
X194310Y056388
X193548Y049784
X194183Y049149
X194818Y049784
X213360Y023495
X194818Y022225
X245999Y077470
X245618Y025019
X253238Y025019
X177800Y077470
X177800Y070612
X223520Y077470
X223520Y070603
X258191Y077470
X270383Y077470
X282575Y077470
X282194Y025019
X257048Y025019
X270002Y025781
X255778Y025781
X257810Y026543
X254508Y026543
X294767Y077470
X306959Y077470
X319151Y077470
X331343Y077470
X294386Y025019
X302006Y025019
X306578Y026543
X303276Y026543
X318770Y025781
X304546Y025781
X330962Y025019
X305816Y025019
X358394Y078867
X458724Y078867
X370586Y078867
X382778Y078867
X394970Y078867
X385318Y025781
X369570Y025781
X397510Y025019
X370840Y025019
X373126Y026543
X368300Y026543
X360934Y025019
X367030Y025019
X247523Y020202
X246253Y020202
X251398Y020202
X407162Y078867
X419354Y078867
X431546Y078867
X443738Y078867
X421894Y026543
X417068Y026543
X434086Y025781
X418338Y025781
X446278Y025019
X419608Y025019
X409702Y025019
X415798Y025019
X231140Y035560
X231140Y078867
X147320Y053340
X173101Y029463
X173101Y051815
X167132Y025132
X175260Y054723
X175260Y032004
X175260Y025132
X175260Y030480
X177800Y053340
X177800Y035560
X139700Y077470
X152509Y034902
X139700Y034902
X335280Y077470
X335280Y062357
X332955Y041021
X335280Y041021
X204851Y065532
X203454Y068199
X204094Y056007
X203581Y056642
X204724Y043180
X182880Y043180
X205359Y042418
X183642Y004826
X182880Y004064
X183642Y042418
X212598Y020955
X205994Y043180
X213360Y043180
X206629Y042418
X212598Y042418
X345886Y034279
X350520Y034279
X345567Y033528
X350520Y016129
X349758Y015240
X349758Y033528
X336677Y041402
X337566Y041402
X341569Y044450
X336677Y044450
X337566Y043688
X343469Y043688
X332359Y033782
X058166Y018669
X331724Y037592
X331724Y003302
X332359Y032893
X333121Y032512
X333121Y004826
X332359Y004064
X347980Y032258
X347345Y031623
X347980Y018034
X193548Y018034
X347345Y017399
X194183Y017399
X330200Y033782
X330200Y018669
X139700Y013970
T03
X143764Y059103
X143764Y061103
X143764Y063103
X143764Y065103
X454660Y059103
X454660Y061103
X454660Y063103
X454660Y065103
T04
X221142Y073143
X221142Y070603
X221142Y068063
X221142Y065523
X221142Y062983
X221142Y060443
X221142Y057903
X221142Y055363
T05
X279016Y-018542G85X279022Y-018542
X272517Y-018542G85X272522Y-018542
X279016Y-014041G85X279022Y-014041
X272517Y-014041G85X272522Y-014041
X275768Y-012692G85X275770Y-012692
X279367Y-016292G85X279372Y-016292
X275970Y-019812G85X275972Y-019812
X272160Y-016256G85X272162Y-016256
X266824Y-018542G85X266830Y-018542
X260325Y-018542G85X260330Y-018542
X266824Y-014041G85X266830Y-014041
X260327Y-014041G85X260327Y-014041
X263576Y-012692G85X263578Y-012692
X267175Y-016292G85X267180Y-016292
X263778Y-019812G85X263780Y-019812
X259968Y-016256G85X259970Y-016256
X254632Y-018542G85X254638Y-018542
X248133Y-018542G85X248138Y-018542
X254632Y-014041G85X254638Y-014041
X248133Y-014041G85X248138Y-014041
X251384Y-012692G85X251386Y-012692
X254983Y-016292G85X254988Y-016292
X251586Y-019812G85X251588Y-019812
X247776Y-016256G85X247778Y-016256
X242440Y-018542G85X242446Y-018542
X235941Y-018542G85X235946Y-018542
X242440Y-014041G85X242446Y-014041
X235943Y-014041G85X235943Y-014041
X239192Y-012692G85X239194Y-012692
X242791Y-016292G85X242796Y-016292
X239394Y-019812G85X239396Y-019812
X235584Y-016256G85X235586Y-016256
X327784Y-018542G85X327790Y-018542
X321285Y-018542G85X321290Y-018542
X327784Y-014041G85X327790Y-014041
X321285Y-014041G85X321290Y-014041
X324536Y-012692G85X324538Y-012692
X328135Y-016292G85X328140Y-016292
X324738Y-019812G85X324740Y-019812
X320928Y-016256G85X320930Y-016256
X315592Y-018542G85X315598Y-018542
X309093Y-018542G85X309098Y-018542
X315592Y-014041G85X315598Y-014041
X309093Y-014041G85X309098Y-014041
X312344Y-012692G85X312346Y-012692
X315943Y-016292G85X315948Y-016292
X312546Y-019812G85X312548Y-019812
X308736Y-016256G85X308738Y-016256
X303400Y-018542G85X303406Y-018542
X296901Y-018542G85X296906Y-018542
X303400Y-014041G85X303406Y-014041
X296901Y-014041G85X296906Y-014041
X300152Y-012692G85X300154Y-012692
X303751Y-016292G85X303756Y-016292
X300354Y-019812G85X300356Y-019812
X296544Y-016256G85X296546Y-016256
X291208Y-018542G85X291214Y-018542
X284709Y-018542G85X284714Y-018542
X291208Y-014041G85X291214Y-014041
X284709Y-014041G85X284714Y-014041
X287960Y-012692G85X287962Y-012692
X291559Y-016292G85X291564Y-016292
X288162Y-019812G85X288164Y-019812
X284352Y-016256G85X284354Y-016256
X392808Y-018542G85X392814Y-018542
X386309Y-018542G85X386314Y-018542
X392808Y-014041G85X392814Y-014041
X386309Y-014041G85X386314Y-014041
X389560Y-012692G85X389562Y-012692
X393159Y-016292G85X393164Y-016292
X389762Y-019812G85X389764Y-019812
X385952Y-016256G85X385954Y-016256
X380616Y-018542G85X380622Y-018542
X374117Y-018542G85X374122Y-018542
X380616Y-014041G85X380622Y-014041
X374119Y-014041G85X374119Y-014041
X377368Y-012692G85X377370Y-012692
X380967Y-016292G85X380972Y-016292
X377570Y-019812G85X377572Y-019812
X373760Y-016256G85X373762Y-016256
X368424Y-018542G85X368430Y-018542
X361925Y-018542G85X361930Y-018542
X368424Y-014041G85X368430Y-014041
X361925Y-014041G85X361930Y-014041
X365176Y-012692G85X365178Y-012692
X368775Y-016292G85X368780Y-016292
X365378Y-019812G85X365380Y-019812
X361568Y-016256G85X361570Y-016256
X356232Y-018542G85X356238Y-018542
X349733Y-018542G85X349738Y-018542
X356232Y-014041G85X356238Y-014041
X349735Y-014041G85X349735Y-014041
X352984Y-012692G85X352986Y-012692
X356583Y-016292G85X356588Y-016292
X353186Y-019812G85X353188Y-019812
X349376Y-016256G85X349378Y-016256
X441576Y-018542G85X441582Y-018542
X435077Y-018542G85X435082Y-018542
X441576Y-014041G85X441582Y-014041
X435077Y-014041G85X435082Y-014041
X438328Y-012692G85X438330Y-012692
X441927Y-016292G85X441932Y-016292
X438530Y-019812G85X438532Y-019812
X434720Y-016256G85X434722Y-016256
X429384Y-018542G85X429390Y-018542
X422885Y-018542G85X422890Y-018542
X429384Y-014041G85X429390Y-014041
X422885Y-014041G85X422890Y-014041
X426136Y-012692G85X426138Y-012692
X429735Y-016292G85X429740Y-016292
X426338Y-019812G85X426340Y-019812
X422528Y-016256G85X422530Y-016256
X417192Y-018542G85X417198Y-018542
X410693Y-018542G85X410698Y-018542
X417192Y-014041G85X417198Y-014041
X410693Y-014041G85X410698Y-014041
X413944Y-012692G85X413946Y-012692
X417543Y-016292G85X417548Y-016292
X414146Y-019812G85X414148Y-019812
X410336Y-016256G85X410338Y-016256
X405000Y-018542G85X405006Y-018542
X398501Y-018542G85X398506Y-018542
X405000Y-014041G85X405006Y-014041
X398501Y-014041G85X398506Y-014041
X401752Y-012692G85X401754Y-012692
X405351Y-016292G85X405356Y-016292
X401954Y-019812G85X401956Y-019812
X398144Y-016256G85X398146Y-016256
X193926Y-018542G85X193932Y-018542
X187427Y-018542G85X187432Y-018542
X193926Y-014041G85X193932Y-014041
X187427Y-014041G85X187432Y-014041
X190678Y-012692G85X190680Y-012692
X194277Y-016292G85X194282Y-016292
X190880Y-019812G85X190882Y-019812
X187070Y-016256G85X187072Y-016256
X205864Y-012827G85X205870Y-012827
X199365Y-012827G85X199370Y-012827
X205864Y-008326G85X205870Y-008326
X199365Y-008326G85X199370Y-008326
X202616Y-006977G85X202618Y-006977
X206215Y-010577G85X206220Y-010577
X202818Y-014097G85X202820Y-014097
X199008Y-010541G85X199010Y-010541
X205864Y-024638G85X205870Y-024638
X199365Y-024638G85X199370Y-024638
X205864Y-020137G85X205870Y-020137
X199365Y-020137G85X199370Y-020137
X202616Y-018788G85X202618Y-018788
X206215Y-022388G85X206220Y-022388
X202818Y-025908G85X202820Y-025908
X199008Y-022352G85X199010Y-022352
X217675Y-018542G85X217681Y-018542
X211176Y-018542G85X211181Y-018542
X217675Y-014041G85X217681Y-014041
X211176Y-014041G85X211181Y-014041
X214427Y-012692G85X214429Y-012692
X218026Y-016292G85X218031Y-016292
X214629Y-019812G85X214631Y-019812
X210819Y-016256G85X210821Y-016256
X044196Y074596G85X044196Y074596
X044196Y066096G85X044196Y066096
X044196Y063096G85X044196Y063096
X056388Y074596G85X056388Y074596
X056388Y066096G85X056388Y066096
X056388Y063096G85X056388Y063096
X068580Y074596G85X068580Y074596
X068580Y066096G85X068580Y066096
X068580Y063096G85X068580Y063096
X080772Y074596G85X080772Y074596
X080772Y066096G85X080772Y066096
X080772Y063096G85X080772Y063096
X092964Y074596G85X092964Y074596
X092964Y066096G85X092964Y066096
X092964Y063096G85X092964Y063096
X105156Y074596G85X105156Y074596
X105156Y066096G85X105156Y066096
X105156Y063096G85X105156Y063096
X117348Y074596G85X117348Y074596
X117348Y066096G85X117348Y066096
X117348Y063096G85X117348Y063096
X129540Y074596G85X129540Y074596
X129540Y066096G85X129540Y066096
X129540Y063096G85X129540Y063096
X157988Y074596G85X157988Y074596
X157988Y066096G85X157988Y066096
X157988Y063096G85X157988Y063096
X170180Y074596G85X170180Y074596
X170180Y066096G85X170180Y066096
X170180Y063096G85X170180Y063096
X239268Y074596G85X239268Y074596
X239268Y066096G85X239268Y066096
X239268Y063096G85X239268Y063096
X251460Y074596G85X251460Y074596
X251460Y066096G85X251460Y066096
X251460Y063096G85X251460Y063096
X263652Y074596G85X263652Y074596
X263652Y066096G85X263652Y066096
X263652Y063096G85X263652Y063096
X275844Y074596G85X275844Y074596
X275844Y066096G85X275844Y066096
X275844Y063096G85X275844Y063096
X288036Y074596G85X288036Y074596
X288036Y066096G85X288036Y066096
X288036Y063096G85X288036Y063096
X300228Y074596G85X300228Y074596
X300228Y066096G85X300228Y066096
X300228Y063096G85X300228Y063096
X312420Y074596G85X312420Y074596
X312420Y066096G85X312420Y066096
X312420Y063096G85X312420Y063096
X324612Y074596G85X324612Y074596
X324612Y066096G85X324612Y066096
X324612Y063096G85X324612Y063096
X239268Y059356G85X239268Y059356
X239268Y050856G85X239268Y050856
X239268Y047856G85X239268Y047856
X251460Y059356G85X251460Y059356
X251460Y050856G85X251460Y050856
X251460Y047856G85X251460Y047856
X263652Y059356G85X263652Y059356
X263652Y050856G85X263652Y050856
X263652Y047856G85X263652Y047856
X275844Y059356G85X275844Y059356
X275844Y050856G85X275844Y050856
X275844Y047856G85X275844Y047856
X288036Y059356G85X288036Y059356
X288036Y050856G85X288036Y050856
X288036Y047856G85X288036Y047856
X300228Y059356G85X300228Y059356
X300228Y050856G85X300228Y050856
X300228Y047856G85X300228Y047856
X312420Y059356G85X312420Y059356
X312420Y050856G85X312420Y050856
X312420Y047856G85X312420Y047856
X324612Y059356G85X324612Y059356
X324612Y050856G85X324612Y050856
X324612Y047856G85X324612Y047856
X353060Y074596G85X353060Y074596
X353060Y066096G85X353060Y066096
X353060Y063096G85X353060Y063096
X365252Y074596G85X365252Y074596
X365252Y066096G85X365252Y066096
X365252Y063096G85X365252Y063096
X377444Y074596G85X377444Y074596
X377444Y066096G85X377444Y066096
X377444Y063096G85X377444Y063096
X389636Y074596G85X389636Y074596
X389636Y066096G85X389636Y066096
X389636Y063096G85X389636Y063096
X401828Y074596G85X401828Y074596
X401828Y066096G85X401828Y066096
X401828Y063096G85X401828Y063096
X414020Y074596G85X414020Y074596
X414020Y066096G85X414020Y066096
X414020Y063096G85X414020Y063096
X426212Y074596G85X426212Y074596
X426212Y066096G85X426212Y066096
X426212Y063096G85X426212Y063096
X438404Y074596G85X438404Y074596
X438404Y066096G85X438404Y066096
X438404Y063096G85X438404Y063096
X353060Y059356G85X353060Y059356
X353060Y050856G85X353060Y050856
X353060Y047856G85X353060Y047856
X365252Y059356G85X365252Y059356
X365252Y050856G85X365252Y050856
X365252Y047856G85X365252Y047856
X377444Y059356G85X377444Y059356
X377444Y050856G85X377444Y050856
X377444Y047856G85X377444Y047856
X389636Y059356G85X389636Y059356
X389636Y050856G85X389636Y050856
X389636Y047856G85X389636Y047856
X401828Y059356G85X401828Y059356
X401828Y050856G85X401828Y050856
X401828Y047856G85X401828Y047856
X414020Y059356G85X414020Y059356
X414020Y050856G85X414020Y050856
X414020Y047856G85X414020Y047856
X426212Y059356G85X426212Y059356
X426212Y050856G85X426212Y050856
X426212Y047856G85X426212Y047856
X438404Y059356G85X438404Y059356
X438404Y050856G85X438404Y050856
X438404Y047856G85X438404Y047856
X083944Y-018542G85X083950Y-018542
X077445Y-018542G85X077450Y-018542
X083944Y-014041G85X083950Y-014041
X077445Y-014041G85X077450Y-014041
X080696Y-012692G85X080698Y-012692
X084295Y-016292G85X084300Y-016292
X080898Y-019812G85X080900Y-019812
X077088Y-016256G85X077090Y-016256
X071752Y-018542G85X071758Y-018542
X065253Y-018542G85X065258Y-018542
X071752Y-014041G85X071758Y-014041
X065255Y-014041G85X065255Y-014041
X068504Y-012692G85X068506Y-012692
X072103Y-016292G85X072108Y-016292
X068706Y-019812G85X068708Y-019812
X064896Y-016256G85X064898Y-016256
X059560Y-018542G85X059566Y-018542
X053061Y-018542G85X053066Y-018542
X059560Y-014041G85X059566Y-014041
X053061Y-014041G85X053066Y-014041
X056312Y-012692G85X056314Y-012692
X059911Y-016292G85X059916Y-016292
X056514Y-019812G85X056516Y-019812
X052704Y-016256G85X052706Y-016256
X047368Y-018542G85X047374Y-018542
X040869Y-018542G85X040874Y-018542
X047368Y-014041G85X047374Y-014041
X040871Y-014041G85X040871Y-014041
X044120Y-012692G85X044122Y-012692
X047719Y-016292G85X047724Y-016292
X044322Y-019812G85X044324Y-019812
X040512Y-016256G85X040514Y-016256
X132712Y-018542G85X132718Y-018542
X126213Y-018542G85X126218Y-018542
X132712Y-014041G85X132718Y-014041
X126213Y-014041G85X126218Y-014041
X129464Y-012692G85X129466Y-012692
X133063Y-016292G85X133068Y-016292
X129666Y-019812G85X129668Y-019812
X125856Y-016256G85X125858Y-016256
X120520Y-018542G85X120526Y-018542
X114021Y-018542G85X114026Y-018542
X120520Y-014041G85X120526Y-014041
X114021Y-014041G85X114026Y-014041
X117272Y-012692G85X117274Y-012692
X120871Y-016292G85X120876Y-016292
X117474Y-019812G85X117476Y-019812
X113664Y-016256G85X113666Y-016256
X108328Y-018542G85X108334Y-018542
X101829Y-018542G85X101834Y-018542
X108328Y-014041G85X108334Y-014041
X101829Y-014041G85X101834Y-014041
X105080Y-012692G85X105082Y-012692
X108679Y-016292G85X108684Y-016292
X105282Y-019812G85X105284Y-019812
X101472Y-016256G85X101474Y-016256
X096136Y-018542G85X096142Y-018542
X089637Y-018542G85X089642Y-018542
X096136Y-014041G85X096142Y-014041
X089637Y-014041G85X089642Y-014041
X092888Y-012692G85X092890Y-012692
X096487Y-016292G85X096492Y-016292
X093090Y-019812G85X093092Y-019812
X089280Y-016256G85X089282Y-016256
T06
X166829Y029464
X169369Y029464
X166829Y032004
X169369Y032004
X166829Y034544
X169369Y034544
X166829Y037084
X169369Y037084
X166829Y039624
X169369Y039624
X166829Y042164
X169369Y042164
X166829Y044704
X169369Y044704
X166829Y047244
X169369Y047244
X454660Y013335
X454660Y015875
X454660Y018415
X454660Y020955
X454660Y023495
X454660Y026035
X454660Y028575
X454660Y031115
T07
X027940Y038100
X027940Y006350
X454660Y006350
X454660Y038100
X143764Y069723
X143764Y054356
X027940Y069723
X027940Y054356
X338836Y054356
X338836Y069723
X454660Y069723
X454660Y054356
X182289Y-016255
X143764Y-016256
X027940Y-016256
X223010Y-016257
X338836Y-016256
X454660Y-016256
M30
