M48
METRIC,LZ,000.000
;FILE_FORMAT=3:3
;TYPE=PLATED
;Layer: PTH_Through
;EasyEDA v6.5.29, 2023-07-19 21:57:34
;a2853ea9601d4119b13b16b9b4b396c2,5a6b42c53f6a479593ecc07194224c93,10
;Gerber Generator version 0.2
;Holesize 1 = 0.305 mm
T01C0.305
;Holesize 2 = 0.501 mm
T02C0.501
;Holesize 3 = 0.701 mm
T03C0.701
;Holesize 4 = 0.915 mm
T04C0.915
%
G05
G90
T01
X011557Y015621
X012954Y019685
X007112Y018288
X003937Y013208
X004064Y021209
X016256Y018542
X004064Y017780
X008128Y014859
X010414Y014859
X010414Y017145
X008128Y017145
X006731Y015748
X014859Y017907
X013208Y012319
X011811Y014351
X011049Y013970
X014732Y012827
X009652Y011430
X011049Y010414
X014732Y011303
X014732Y010414
X009144Y018034
X008890Y013589
X007874Y020504
X008128Y018542
X006350Y021209
X013716Y022479
X006731Y013589
X010033Y013589
X038100Y013462
X005334Y022098
X003175Y017780
X005207Y019304
X000762Y013716
X001270Y024511
X000762Y009652
X003175Y021209
X039370Y024384
X016510Y024384
X025146Y018542
X031877Y014605
X034798Y015240
X025527Y015875
X029591Y016891
X028829Y016383
X019812Y020574
X025527Y022987
X019050Y023368
X011811Y018034
X011176Y018542
X013970Y024511
X003810Y024511
X006350Y024511
X008890Y024511
X011430Y024511
X019050Y024384
X021590Y024384
X024130Y024384
X026670Y024384
X029210Y024384
X031750Y024384
X034290Y024384
X036830Y024384
X005842Y012573
X039878Y009652
X008890Y009906
X010287Y010033
X013462Y010922
T02
X017057Y014162G85X017082Y014162
X018007Y014162G85X018032Y014162
X019857Y014162G85X019882Y014162
X020758Y014162G85X020783Y014162
X021658Y014162G85X021683Y014162
X022608Y014162G85X022633Y014162
X023557Y014162G85X023582Y014162
X023557Y012762G85X023582Y012762
X022608Y012762G85X022633Y012762
X020758Y012762G85X020783Y012762
X019857Y012762G85X019882Y012762
X018957Y012762G85X018982Y012762
X018007Y012762G85X018032Y012762
X017057Y012762G85X017082Y012762
T03
X022820Y011532G85X021820Y011532
X018820Y011532G85X017820Y011532
X022820Y015392G85X021820Y015392
X018820Y015392G85X017820Y015392
T04
X002540Y025273
X007620Y025273
X010160Y025273
X012700Y025273
X015240Y025273
X017780Y025273
X020320Y025273
X022860Y025273
X025400Y025273
X027940Y025273
X030480Y025273
X033020Y025273
X035560Y025273
X005080Y025273
X038100Y025273
M30
