G04 Layer: TopLayer*
G04 EasyEDA v6.5.29, 2023-07-19 21:57:34*
G04 a2853ea9601d4119b13b16b9b4b396c2,5a6b42c53f6a479593ecc07194224c93,10*
G04 Gerber Generator version 0.2*
G04 Scale: 100 percent, Rotated: No, Reflected: No *
G04 Dimensions in millimeters *
G04 leading zeros omitted , absolute positions ,4 integer and 5 decimal *
%FSLAX45Y45*%
%MOMM*%

%AMMACRO1*21,1,$1,$2,0,0,$3*%
%ADD10C,0.1270*%
%ADD11C,0.5000*%
%ADD12C,0.2540*%
%ADD13MACRO1,3.4992X1.4067X0.0000*%
%ADD14R,3.4992X1.4067*%
%ADD15MACRO1,0.54X0.5656X0.0000*%
%ADD16R,0.5400X0.5657*%
%ADD17MACRO1,0.54X0.5656X90.0000*%
%ADD18MACRO1,0.54X0.5656X-90.0000*%
%ADD19R,0.8000X0.8000*%
%ADD20R,1.0700X0.6000*%
%ADD21R,1.0500X2.4650*%
%ADD22MACRO1,3.54X2.465X0.0000*%
%ADD23MACRO1,2.592X2.2075X90.0000*%
%ADD24MACRO1,0.54X0.7901X0.0000*%
%ADD25R,0.5400X0.7901*%
%ADD26MACRO1,1.2X1.4X-90.0000*%
%ADD27R,1.4000X1.2000*%
%ADD28MACRO1,1.2X1.4X90.0000*%
%ADD29MACRO1,0.54X0.7901X90.0000*%
%ADD30R,1.1000X0.2000*%
%ADD31R,0.2000X1.1000*%
%ADD32R,3.1000X3.1000*%
%ADD33R,0.6000X0.2800*%
%ADD34R,0.3000X1.7000*%
%ADD35MACRO1,0.54X0.7901X-90.0000*%
%ADD36R,0.5500X0.5500*%
%ADD37R,0.6000X1.5500*%
%ADD38R,1.5000X2.0000*%
%ADD39O,0.6999986X0.6999986*%
%ADD40O,1.9999959999999999X0.9999979999999999*%
%ADD41C,1.5240*%
%ADD42C,0.6096*%
%ADD43C,0.0110*%

%LPD*%
G36*
X360070Y2419858D02*
G01*
X356158Y2420620D01*
X352856Y2422855D01*
X350672Y2426106D01*
X349910Y2430018D01*
X349910Y2491232D01*
X350469Y2494584D01*
X352450Y2500325D01*
X353618Y2505964D01*
X354838Y2509164D01*
X357124Y2511806D01*
X360121Y2513482D01*
X363575Y2514092D01*
X398272Y2514092D01*
X402539Y2513126D01*
X405993Y2510485D01*
X408076Y2506624D01*
X411734Y2493213D01*
X412089Y2490571D01*
X412089Y2443124D01*
X411327Y2439212D01*
X409092Y2435910D01*
X396036Y2422855D01*
X392734Y2420620D01*
X388823Y2419858D01*
G37*

%LPD*%
G36*
X1122070Y2419858D02*
G01*
X1118158Y2420620D01*
X1114856Y2422855D01*
X1112672Y2426106D01*
X1111910Y2430018D01*
X1111910Y2491232D01*
X1112469Y2494584D01*
X1114450Y2500325D01*
X1115618Y2505964D01*
X1116838Y2509164D01*
X1119124Y2511806D01*
X1122121Y2513482D01*
X1125575Y2514092D01*
X1160272Y2514092D01*
X1164539Y2513126D01*
X1167993Y2510485D01*
X1170076Y2506624D01*
X1173734Y2493213D01*
X1174089Y2490571D01*
X1174089Y2443124D01*
X1173327Y2439212D01*
X1171092Y2435910D01*
X1158036Y2422855D01*
X1154734Y2420620D01*
X1150823Y2419858D01*
G37*

%LPD*%
G36*
X868070Y2419858D02*
G01*
X864158Y2420620D01*
X860856Y2422855D01*
X858672Y2426106D01*
X857910Y2430018D01*
X857910Y2491232D01*
X858469Y2494584D01*
X860450Y2500325D01*
X861618Y2505964D01*
X862837Y2509164D01*
X865124Y2511806D01*
X868121Y2513482D01*
X871575Y2514092D01*
X906271Y2514092D01*
X910539Y2513126D01*
X913993Y2510485D01*
X916076Y2506624D01*
X919734Y2493213D01*
X920089Y2490571D01*
X920089Y2443124D01*
X919327Y2439212D01*
X917092Y2435910D01*
X904036Y2422855D01*
X900734Y2420620D01*
X896823Y2419858D01*
G37*

%LPD*%
G36*
X614070Y2419858D02*
G01*
X610158Y2420620D01*
X606856Y2422855D01*
X604672Y2426106D01*
X603910Y2430018D01*
X603910Y2491232D01*
X604469Y2494584D01*
X606450Y2500325D01*
X607618Y2505964D01*
X608838Y2509164D01*
X611124Y2511806D01*
X614121Y2513482D01*
X617575Y2514092D01*
X652272Y2514092D01*
X656539Y2513126D01*
X659993Y2510485D01*
X662076Y2506624D01*
X665734Y2493213D01*
X666089Y2490571D01*
X666089Y2443124D01*
X665327Y2439212D01*
X663092Y2435910D01*
X650036Y2422855D01*
X646734Y2420620D01*
X642823Y2419858D01*
G37*

%LPD*%
G36*
X2646070Y2407158D02*
G01*
X2642158Y2407920D01*
X2638856Y2410155D01*
X2636672Y2413406D01*
X2635910Y2417318D01*
X2635910Y2491232D01*
X2636469Y2494584D01*
X2638450Y2500325D01*
X2639618Y2505964D01*
X2640838Y2509164D01*
X2643124Y2511806D01*
X2646121Y2513482D01*
X2649575Y2514092D01*
X2684272Y2514092D01*
X2688539Y2513126D01*
X2691993Y2510485D01*
X2694076Y2506624D01*
X2697734Y2493213D01*
X2698089Y2490571D01*
X2698089Y2443124D01*
X2697327Y2439212D01*
X2695092Y2435910D01*
X2669336Y2410155D01*
X2666034Y2407920D01*
X2662123Y2407158D01*
G37*

%LPD*%
G36*
X1446580Y2349754D02*
G01*
X1442669Y2350516D01*
X1439367Y2352751D01*
X1432255Y2359863D01*
X1430020Y2363165D01*
X1429258Y2367076D01*
X1429258Y2383637D01*
X1429969Y2387396D01*
X1432052Y2390648D01*
X1435201Y2392883D01*
X1438960Y2393797D01*
X1442770Y2393238D01*
X1448257Y2391308D01*
X1454556Y2390597D01*
X1593443Y2390597D01*
X1599742Y2391308D01*
X1605178Y2393238D01*
X1610106Y2396286D01*
X1614170Y2400401D01*
X1617268Y2405278D01*
X1619199Y2410764D01*
X1619910Y2417064D01*
X1619910Y2491232D01*
X1620469Y2494584D01*
X1622450Y2500325D01*
X1623618Y2505964D01*
X1624838Y2509164D01*
X1627124Y2511806D01*
X1630121Y2513482D01*
X1633575Y2514092D01*
X1668272Y2514092D01*
X1672539Y2513126D01*
X1675993Y2510485D01*
X1678076Y2506624D01*
X1681734Y2493213D01*
X1682089Y2490571D01*
X1682089Y2417064D01*
X1682800Y2410764D01*
X1684680Y2405278D01*
X1687779Y2400401D01*
X1691893Y2396286D01*
X1700428Y2391105D01*
X1702816Y2387854D01*
X1703730Y2383891D01*
X1703070Y2379929D01*
X1700885Y2376525D01*
X1697532Y2374188D01*
X1693570Y2373426D01*
X1652371Y2373426D01*
X1646072Y2372715D01*
X1640586Y2370785D01*
X1635709Y2367686D01*
X1631594Y2363622D01*
X1628546Y2358694D01*
X1627784Y2356561D01*
X1625650Y2353005D01*
X1622247Y2350617D01*
X1618183Y2349754D01*
G37*

%LPD*%
G36*
X2328418Y2327452D02*
G01*
X2324506Y2328214D01*
X2321255Y2330399D01*
X2319020Y2333701D01*
X2318258Y2337612D01*
X2318258Y2380437D01*
X2319020Y2384298D01*
X2321255Y2387600D01*
X2324506Y2389835D01*
X2328418Y2390597D01*
X2355443Y2390597D01*
X2361742Y2391308D01*
X2367178Y2393238D01*
X2372106Y2396286D01*
X2376170Y2400401D01*
X2379268Y2405278D01*
X2381199Y2410764D01*
X2381910Y2417064D01*
X2381910Y2491232D01*
X2382469Y2494584D01*
X2384450Y2500325D01*
X2385618Y2505964D01*
X2386838Y2509164D01*
X2389124Y2511806D01*
X2392121Y2513482D01*
X2395575Y2514092D01*
X2430272Y2514092D01*
X2434539Y2513126D01*
X2437993Y2510485D01*
X2440076Y2506624D01*
X2443734Y2493213D01*
X2444089Y2490571D01*
X2444089Y2443124D01*
X2443327Y2439212D01*
X2441092Y2435910D01*
X2335580Y2330399D01*
X2332329Y2328214D01*
G37*

%LPD*%
G36*
X1410512Y2050643D02*
G01*
X1406601Y2051405D01*
X1403299Y2053589D01*
X1401114Y2056892D01*
X1400352Y2060803D01*
X1400352Y2079498D01*
X1380236Y2079498D01*
X1376324Y2080260D01*
X1373022Y2082495D01*
X1370838Y2085797D01*
X1370076Y2089657D01*
X1370838Y2093569D01*
X1373022Y2096871D01*
X1378102Y2101951D01*
X1381404Y2104136D01*
X1385316Y2104898D01*
X1400352Y2104898D01*
X1400352Y2119934D01*
X1401114Y2123795D01*
X1403299Y2127097D01*
X1408379Y2132177D01*
X1411681Y2134412D01*
X1415592Y2135174D01*
X1419453Y2134412D01*
X1422755Y2132177D01*
X1424940Y2128875D01*
X1425752Y2125014D01*
X1425752Y2104898D01*
X1444447Y2104898D01*
X1448358Y2104136D01*
X1451660Y2101951D01*
X1453845Y2098649D01*
X1454607Y2094738D01*
X1454607Y2089657D01*
X1453845Y2085797D01*
X1451660Y2082495D01*
X1448358Y2080260D01*
X1444447Y2079498D01*
X1425752Y2079498D01*
X1425752Y2060803D01*
X1424940Y2056892D01*
X1422755Y2053589D01*
X1419453Y2051405D01*
X1415592Y2050643D01*
G37*

%LPD*%
G36*
X4026408Y2039874D02*
G01*
X4022344Y2041448D01*
X4019346Y2044547D01*
X4016044Y2049729D01*
X4011980Y2053793D01*
X4002989Y2059228D01*
X4000601Y2062581D01*
X3999737Y2066645D01*
X3999737Y2122678D01*
X3998976Y2129891D01*
X3996893Y2136292D01*
X3993438Y2142236D01*
X3990035Y2146249D01*
X3963974Y2172411D01*
X3961790Y2175713D01*
X3960977Y2179574D01*
X3960977Y2235200D01*
X3960266Y2241550D01*
X3958386Y2246985D01*
X3955287Y2251862D01*
X3951224Y2255977D01*
X3946296Y2259076D01*
X3940860Y2260955D01*
X3934510Y2261666D01*
X3871061Y2261666D01*
X3867200Y2262479D01*
X3863898Y2264664D01*
X3861663Y2267966D01*
X3860901Y2271826D01*
X3860901Y2380437D01*
X3861663Y2384298D01*
X3863898Y2387600D01*
X3867200Y2389835D01*
X3871061Y2390597D01*
X3879443Y2390597D01*
X3885742Y2391308D01*
X3891178Y2393238D01*
X3896106Y2396286D01*
X3900170Y2400401D01*
X3903268Y2405278D01*
X3905199Y2410764D01*
X3905910Y2417064D01*
X3905910Y2491232D01*
X3906469Y2494584D01*
X3908450Y2500325D01*
X3909618Y2505964D01*
X3910837Y2509164D01*
X3913124Y2511806D01*
X3916121Y2513482D01*
X3919575Y2514092D01*
X4027932Y2514092D01*
X4031843Y2513330D01*
X4035094Y2511094D01*
X4037329Y2507843D01*
X4038092Y2503932D01*
X4038092Y2049932D01*
X4037177Y2045716D01*
X4034536Y2042210D01*
X4030726Y2040178D01*
G37*

%LPD*%
G36*
X1127099Y2034489D02*
G01*
X1122222Y2035606D01*
X1119276Y2037232D01*
X1116990Y2039772D01*
X1115669Y2042922D01*
X1115517Y2046325D01*
X1116228Y2052675D01*
X1116228Y2171496D01*
X1115517Y2177846D01*
X1113586Y2183282D01*
X1110488Y2188210D01*
X1108811Y2189886D01*
X1106576Y2193188D01*
X1105814Y2197100D01*
X1106576Y2200960D01*
X1108811Y2204262D01*
X1110488Y2205990D01*
X1113586Y2210866D01*
X1115517Y2216353D01*
X1116228Y2222652D01*
X1116228Y2269388D01*
X1033018Y2269388D01*
X1033018Y2208174D01*
X1032205Y2204262D01*
X1030020Y2200960D01*
X1026718Y2198776D01*
X1022858Y2198014D01*
X1017778Y2198014D01*
X1013866Y2198776D01*
X1010564Y2200960D01*
X1008380Y2204262D01*
X1007618Y2208174D01*
X1007618Y2269388D01*
X926998Y2269388D01*
X924560Y2269693D01*
X921816Y2270810D01*
X914552Y2272995D01*
X906526Y2273808D01*
X897382Y2273808D01*
X894130Y2274316D01*
X891184Y2275890D01*
X884834Y2282393D01*
X879906Y2285492D01*
X874471Y2287371D01*
X868121Y2288082D01*
X790295Y2288082D01*
X783945Y2287371D01*
X778052Y2285339D01*
X774700Y2284780D01*
X771347Y2285339D01*
X765454Y2287371D01*
X759155Y2288082D01*
X745337Y2288082D01*
X741476Y2288895D01*
X738174Y2291080D01*
X735990Y2294382D01*
X735177Y2298242D01*
X735990Y2302154D01*
X738174Y2305456D01*
X746963Y2314244D01*
X750265Y2316480D01*
X754176Y2317242D01*
X914247Y2317242D01*
X918108Y2316480D01*
X921410Y2314244D01*
X923594Y2310993D01*
X924407Y2307082D01*
X924407Y2294788D01*
X1007618Y2294788D01*
X1007618Y2345182D01*
X1008380Y2349093D01*
X1010564Y2352344D01*
X1013866Y2354580D01*
X1017778Y2355342D01*
X1022858Y2355342D01*
X1026718Y2354580D01*
X1030020Y2352344D01*
X1032205Y2349093D01*
X1033018Y2345182D01*
X1033018Y2294788D01*
X1116228Y2294788D01*
X1116228Y2341524D01*
X1115923Y2344064D01*
X1116330Y2348280D01*
X1118463Y2351938D01*
X1121867Y2354478D01*
X1126032Y2355342D01*
X1134567Y2355342D01*
X1138732Y2354478D01*
X1142136Y2351938D01*
X1144270Y2348280D01*
X1144676Y2344064D01*
X1144371Y2341524D01*
X1144371Y2222652D01*
X1145082Y2216353D01*
X1147013Y2210866D01*
X1150112Y2205990D01*
X1151788Y2204262D01*
X1154023Y2200960D01*
X1154785Y2197100D01*
X1154023Y2193188D01*
X1151788Y2189886D01*
X1150112Y2188210D01*
X1147013Y2183282D01*
X1145082Y2177846D01*
X1144371Y2171496D01*
X1144371Y2052675D01*
X1145032Y2047138D01*
X1144676Y2043226D01*
X1142847Y2039670D01*
X1139850Y2037130D01*
X1136040Y2035911D01*
G37*

%LPD*%
G36*
X1233170Y1896110D02*
G01*
X1229309Y1896872D01*
X1226007Y1899056D01*
X1223772Y1902358D01*
X1223010Y1906270D01*
X1223010Y2009648D01*
X1222400Y2014880D01*
X1222857Y2019096D01*
X1224940Y2022805D01*
X1228344Y2025294D01*
X1232509Y2026157D01*
X1309725Y2026157D01*
X1316075Y2026869D01*
X1321511Y2028799D01*
X1326388Y2031898D01*
X1330502Y2035962D01*
X1333601Y2040889D01*
X1335481Y2046325D01*
X1336192Y2052675D01*
X1336192Y2065223D01*
X1337106Y2069388D01*
X1339646Y2072843D01*
X1343406Y2074925D01*
X1346504Y2075891D01*
X1350264Y2076297D01*
X1353870Y2075281D01*
X1356918Y2073046D01*
X1358900Y2069846D01*
X1360322Y2058974D01*
X1362252Y2053488D01*
X1364386Y2050135D01*
X1365758Y2046579D01*
X1365758Y2042820D01*
X1364386Y2039315D01*
X1362252Y2035911D01*
X1360322Y2030475D01*
X1359611Y2024125D01*
X1359611Y1970278D01*
X1360322Y1963978D01*
X1362252Y1958492D01*
X1365300Y1953615D01*
X1369110Y1949805D01*
X1371346Y1946503D01*
X1372108Y1942642D01*
X1371346Y1938731D01*
X1369110Y1935429D01*
X1332788Y1899056D01*
X1329486Y1896872D01*
X1325575Y1896110D01*
G37*

%LPD*%
G36*
X1983130Y1734057D02*
G01*
X1979269Y1734820D01*
X1975967Y1737055D01*
X1973732Y1740306D01*
X1972970Y1744218D01*
X1972970Y1841500D01*
X1883918Y1841500D01*
X1880006Y1842262D01*
X1876755Y1844497D01*
X1874520Y1847748D01*
X1873757Y1851660D01*
X1873757Y1856739D01*
X1874520Y1860651D01*
X1876755Y1863902D01*
X1880006Y1866138D01*
X1883918Y1866900D01*
X1972970Y1866900D01*
X1972970Y2009698D01*
X1883918Y2009698D01*
X1880006Y2010460D01*
X1876755Y2012696D01*
X1874520Y2015998D01*
X1873757Y2019858D01*
X1873757Y2090623D01*
X1874520Y2094534D01*
X1877263Y2098344D01*
X1880565Y2100580D01*
X1884476Y2101342D01*
X2006092Y2101342D01*
X2013305Y2102104D01*
X2019706Y2104186D01*
X2025650Y2107590D01*
X2029714Y2111095D01*
X2054453Y2135835D01*
X2059025Y2141474D01*
X2062073Y2147468D01*
X2063851Y2154072D01*
X2064257Y2159406D01*
X2064257Y2380437D01*
X2065020Y2384298D01*
X2067255Y2387600D01*
X2070506Y2389835D01*
X2074418Y2390597D01*
X2101443Y2390597D01*
X2107742Y2391308D01*
X2113178Y2393238D01*
X2118106Y2396286D01*
X2122170Y2400401D01*
X2125268Y2405278D01*
X2127199Y2410764D01*
X2127910Y2417064D01*
X2127910Y2491232D01*
X2128469Y2494584D01*
X2130450Y2500325D01*
X2131618Y2505964D01*
X2132838Y2509164D01*
X2135124Y2511806D01*
X2138121Y2513482D01*
X2141575Y2514092D01*
X2176272Y2514092D01*
X2180539Y2513126D01*
X2183993Y2510485D01*
X2186076Y2506624D01*
X2189734Y2493213D01*
X2190089Y2490571D01*
X2190089Y2417064D01*
X2190800Y2410764D01*
X2192680Y2405278D01*
X2195779Y2400401D01*
X2199894Y2396286D01*
X2204770Y2393238D01*
X2210257Y2391308D01*
X2216556Y2390597D01*
X2243582Y2390597D01*
X2247493Y2389835D01*
X2250744Y2387600D01*
X2252980Y2384298D01*
X2253742Y2380437D01*
X2253742Y1744776D01*
X2252980Y1740865D01*
X2250236Y1737055D01*
X2246934Y1734820D01*
X2243023Y1734057D01*
X2132126Y1734057D01*
X2128215Y1734820D01*
X2124913Y1737055D01*
X2122728Y1740306D01*
X2121966Y1744218D01*
X2121966Y1841500D01*
X1998370Y1841500D01*
X1998370Y1744218D01*
X1997608Y1740306D01*
X1995424Y1737055D01*
X1992122Y1734820D01*
X1988210Y1734057D01*
G37*

%LPC*%
G36*
X1998370Y1866900D02*
G01*
X2121966Y1866900D01*
X2121966Y1983232D01*
X2121255Y1989531D01*
X2119325Y1995017D01*
X2116277Y1999894D01*
X2112162Y2004009D01*
X2107285Y2007107D01*
X2101799Y2008987D01*
X2095500Y2009698D01*
X1998370Y2009698D01*
G37*

%LPD*%
G36*
X1537868Y1683257D02*
G01*
X1533956Y1684020D01*
X1530705Y1686255D01*
X1528470Y1689506D01*
X1527708Y1693418D01*
X1527708Y1701800D01*
X1506982Y1701800D01*
X1503070Y1702562D01*
X1499768Y1704797D01*
X1497584Y1708048D01*
X1496822Y1711960D01*
X1496822Y1717039D01*
X1497584Y1720900D01*
X1499768Y1724202D01*
X1503070Y1726438D01*
X1506982Y1727200D01*
X1527708Y1727200D01*
X1527708Y1749348D01*
X1528165Y1752396D01*
X1529537Y1755139D01*
X1534617Y1762404D01*
X1537716Y1765300D01*
X1541780Y1766671D01*
X1545996Y1766265D01*
X1549704Y1764182D01*
X1552194Y1760728D01*
X1553108Y1756613D01*
X1553108Y1727200D01*
X1605838Y1727200D01*
X1605838Y1740916D01*
X1605127Y1747266D01*
X1603197Y1752701D01*
X1600098Y1757629D01*
X1596034Y1761693D01*
X1591106Y1764792D01*
X1585671Y1766671D01*
X1579321Y1767382D01*
X1551025Y1767382D01*
X1547368Y1768093D01*
X1544218Y1770024D01*
X1541983Y1772970D01*
X1540916Y1776526D01*
X1542237Y1790700D01*
X1541373Y1800504D01*
X1538833Y1809953D01*
X1534718Y1818893D01*
X1529080Y1826920D01*
X1522120Y1833880D01*
X1514094Y1839518D01*
X1505153Y1843633D01*
X1495704Y1846173D01*
X1485900Y1847037D01*
X1476095Y1846173D01*
X1466646Y1843633D01*
X1457706Y1839518D01*
X1449679Y1833880D01*
X1442720Y1826920D01*
X1437081Y1818893D01*
X1432966Y1809953D01*
X1430426Y1800504D01*
X1429562Y1790700D01*
X1430020Y1785569D01*
X1429410Y1781200D01*
X1427073Y1777492D01*
X1419961Y1770380D01*
X1416659Y1768195D01*
X1412798Y1767382D01*
X1392478Y1767382D01*
X1386128Y1766671D01*
X1380693Y1764792D01*
X1378559Y1763471D01*
X1374546Y1761998D01*
X1370228Y1762353D01*
X1366469Y1764436D01*
X1363929Y1767839D01*
X1363014Y1772056D01*
X1363014Y1789633D01*
X1362303Y1795932D01*
X1361440Y1800199D01*
X1362303Y1804466D01*
X1363014Y1810766D01*
X1363014Y1829612D01*
X1362811Y1835404D01*
X1363827Y1838248D01*
X1365605Y1840687D01*
X1435455Y1910486D01*
X1440027Y1916175D01*
X1443075Y1922170D01*
X1444802Y1928672D01*
X1445260Y1937512D01*
X1445971Y1940763D01*
X1447698Y1943607D01*
X1450289Y1945741D01*
X1455369Y1948738D01*
X1458823Y1949957D01*
X1462532Y1949907D01*
X1465935Y1948535D01*
X1469288Y1946452D01*
X1474774Y1944522D01*
X1481074Y1943811D01*
X1534972Y1943811D01*
X1541272Y1944522D01*
X1546758Y1946452D01*
X1551635Y1949500D01*
X1558645Y1956714D01*
X1562404Y1958289D01*
X1566468Y1958289D01*
X1570228Y1956714D01*
X1573022Y1953768D01*
X1574901Y1950770D01*
X1578965Y1946706D01*
X1583893Y1943607D01*
X1586534Y1942693D01*
X1590090Y1940560D01*
X1592478Y1937156D01*
X1593342Y1933092D01*
X1593342Y1905406D01*
X1592580Y1901494D01*
X1590344Y1898192D01*
X1582420Y1890369D01*
X1576781Y1882393D01*
X1572666Y1873453D01*
X1570126Y1864004D01*
X1569262Y1854200D01*
X1570126Y1844395D01*
X1572666Y1834946D01*
X1576781Y1826006D01*
X1582420Y1817979D01*
X1589379Y1811020D01*
X1597406Y1805381D01*
X1606346Y1801266D01*
X1615795Y1798726D01*
X1625600Y1797862D01*
X1635404Y1798726D01*
X1644853Y1801266D01*
X1653793Y1805381D01*
X1661820Y1811020D01*
X1668780Y1817979D01*
X1674418Y1826006D01*
X1678533Y1834946D01*
X1681073Y1844395D01*
X1681937Y1854200D01*
X1681073Y1864004D01*
X1678533Y1873453D01*
X1674418Y1882393D01*
X1668780Y1890369D01*
X1660855Y1898192D01*
X1658620Y1901494D01*
X1657857Y1905406D01*
X1657857Y1930806D01*
X1658620Y1934718D01*
X1660855Y1938020D01*
X1664106Y1940204D01*
X1668018Y1940966D01*
X1673555Y1940966D01*
X1679854Y1941677D01*
X1685747Y1943760D01*
X1689100Y1944319D01*
X1692452Y1943760D01*
X1698345Y1941677D01*
X1704695Y1940966D01*
X1730908Y1940966D01*
X1730908Y1981200D01*
X1710182Y1981200D01*
X1706270Y1981962D01*
X1702968Y1984197D01*
X1700784Y1987448D01*
X1700022Y1991360D01*
X1700022Y1996439D01*
X1700784Y2000300D01*
X1702968Y2003602D01*
X1706270Y2005838D01*
X1710182Y2006600D01*
X1730908Y2006600D01*
X1730908Y2046782D01*
X1704695Y2046782D01*
X1698345Y2046071D01*
X1692452Y2044039D01*
X1689100Y2043480D01*
X1685747Y2044039D01*
X1679854Y2046071D01*
X1673555Y2046782D01*
X1595678Y2046782D01*
X1589328Y2046071D01*
X1583893Y2044192D01*
X1578965Y2041093D01*
X1572006Y2034235D01*
X1568246Y2032762D01*
X1564284Y2032863D01*
X1560626Y2034489D01*
X1557883Y2037384D01*
X1556664Y2039315D01*
X1555292Y2042820D01*
X1555292Y2046579D01*
X1556664Y2050135D01*
X1558798Y2053488D01*
X1560728Y2058974D01*
X1561439Y2065274D01*
X1561439Y2119122D01*
X1560728Y2125472D01*
X1558798Y2130907D01*
X1555750Y2135835D01*
X1551635Y2139899D01*
X1546758Y2142998D01*
X1541272Y2144928D01*
X1534972Y2145639D01*
X1481074Y2145639D01*
X1474774Y2144928D01*
X1469288Y2142998D01*
X1465935Y2140864D01*
X1462430Y2139492D01*
X1458620Y2139492D01*
X1455115Y2140864D01*
X1451762Y2142998D01*
X1446276Y2144928D01*
X1440992Y2146198D01*
X1438046Y2148586D01*
X1436166Y2151837D01*
X1435608Y2155545D01*
X1436420Y2159254D01*
X1438554Y2162352D01*
X1442821Y2166620D01*
X1446123Y2168804D01*
X1449984Y2169566D01*
X1483004Y2169566D01*
X1489354Y2170328D01*
X1495247Y2172360D01*
X1498600Y2172919D01*
X1501952Y2172360D01*
X1507845Y2170328D01*
X1514195Y2169566D01*
X1540408Y2169566D01*
X1540408Y2209800D01*
X1519682Y2209800D01*
X1515770Y2210562D01*
X1512468Y2212797D01*
X1510284Y2216048D01*
X1509522Y2219960D01*
X1509522Y2225040D01*
X1510284Y2228951D01*
X1512468Y2232202D01*
X1515770Y2234438D01*
X1519682Y2235200D01*
X1540408Y2235200D01*
X1540408Y2275078D01*
X1541170Y2278989D01*
X1543405Y2282240D01*
X1546656Y2284476D01*
X1550568Y2285238D01*
X1555648Y2285238D01*
X1559509Y2284476D01*
X1562811Y2282240D01*
X1565046Y2278989D01*
X1565808Y2275078D01*
X1565808Y2235200D01*
X1618538Y2235200D01*
X1618538Y2248916D01*
X1617827Y2255266D01*
X1616405Y2259279D01*
X1615846Y2263140D01*
X1616760Y2266899D01*
X1619046Y2270048D01*
X1622298Y2272131D01*
X1626158Y2272792D01*
X1629968Y2271979D01*
X1633169Y2269845D01*
X1635709Y2267305D01*
X1640586Y2264206D01*
X1646072Y2262327D01*
X1652371Y2261616D01*
X1758238Y2261616D01*
X1764588Y2262327D01*
X1770024Y2264206D01*
X1774901Y2267305D01*
X1779016Y2271369D01*
X1782114Y2276297D01*
X1783994Y2281732D01*
X1784705Y2288082D01*
X1784705Y2346909D01*
X1783994Y2353259D01*
X1782114Y2358694D01*
X1779016Y2363622D01*
X1774901Y2367686D01*
X1766366Y2372918D01*
X1763979Y2376170D01*
X1763064Y2380132D01*
X1763725Y2384094D01*
X1765909Y2387498D01*
X1769262Y2389784D01*
X1773224Y2390597D01*
X1847443Y2390597D01*
X1853742Y2391308D01*
X1859178Y2393238D01*
X1864106Y2396286D01*
X1868170Y2400401D01*
X1871268Y2405278D01*
X1873199Y2410764D01*
X1873910Y2417064D01*
X1873910Y2491232D01*
X1874469Y2494584D01*
X1876450Y2500325D01*
X1877618Y2505964D01*
X1878838Y2509164D01*
X1881124Y2511806D01*
X1884121Y2513482D01*
X1887575Y2514092D01*
X1922272Y2514092D01*
X1926539Y2513126D01*
X1929993Y2510485D01*
X1932076Y2506624D01*
X1935734Y2493213D01*
X1936089Y2490571D01*
X1936089Y2417064D01*
X1936800Y2410764D01*
X1938680Y2405278D01*
X1941779Y2400401D01*
X1945893Y2396286D01*
X1950770Y2393238D01*
X1956257Y2391308D01*
X1962556Y2390597D01*
X1989582Y2390597D01*
X1993493Y2389835D01*
X1996744Y2387600D01*
X1998980Y2384298D01*
X1999742Y2380437D01*
X1999742Y2288590D01*
X1998980Y2284679D01*
X1996744Y2281377D01*
X1993493Y2279192D01*
X1989582Y2278430D01*
X1899361Y2278430D01*
X1893062Y2277719D01*
X1887575Y2275789D01*
X1882698Y2272690D01*
X1878584Y2268626D01*
X1875536Y2263698D01*
X1873605Y2258263D01*
X1872894Y2251913D01*
X1872894Y2193086D01*
X1873605Y2186736D01*
X1876907Y2177440D01*
X1876653Y2173427D01*
X1874875Y2169769D01*
X1871776Y2167128D01*
X1867916Y2165908D01*
X1860194Y2165096D01*
X1853793Y2163013D01*
X1847850Y2159609D01*
X1843786Y2156104D01*
X1819046Y2131364D01*
X1814474Y2125726D01*
X1811426Y2119731D01*
X1809648Y2113127D01*
X1809242Y2107793D01*
X1809242Y2053183D01*
X1808480Y2049373D01*
X1806397Y2046122D01*
X1803247Y2043938D01*
X1799437Y2043023D01*
X1795627Y2043633D01*
X1788820Y2046122D01*
X1782521Y2046782D01*
X1756308Y2046782D01*
X1756308Y2006600D01*
X1799082Y2006600D01*
X1802993Y2005838D01*
X1806244Y2003602D01*
X1808480Y2000300D01*
X1809242Y1996439D01*
X1809242Y1991360D01*
X1808480Y1987448D01*
X1806244Y1984197D01*
X1802993Y1981962D01*
X1799082Y1981200D01*
X1756308Y1981200D01*
X1756308Y1940966D01*
X1782521Y1940966D01*
X1788820Y1941677D01*
X1795627Y1944166D01*
X1799437Y1944776D01*
X1803247Y1943862D01*
X1806397Y1941677D01*
X1808480Y1938426D01*
X1809242Y1934616D01*
X1809242Y1782876D01*
X1808480Y1778965D01*
X1805736Y1775155D01*
X1802434Y1772920D01*
X1798523Y1772157D01*
X1702307Y1772157D01*
X1695094Y1771396D01*
X1688693Y1769313D01*
X1682750Y1765909D01*
X1678686Y1762404D01*
X1621078Y1704797D01*
X1617776Y1702562D01*
X1613865Y1701800D01*
X1553108Y1701800D01*
X1553108Y1693418D01*
X1552346Y1689506D01*
X1550111Y1686255D01*
X1546860Y1684020D01*
X1542948Y1683257D01*
G37*

%LPC*%
G36*
X1652371Y2071573D02*
G01*
X1692605Y2071573D01*
X1692605Y2114804D01*
X1625904Y2114804D01*
X1625904Y2098090D01*
X1626616Y2091740D01*
X1628546Y2086305D01*
X1631594Y2081377D01*
X1635709Y2077313D01*
X1640586Y2074214D01*
X1646072Y2072284D01*
G37*
G36*
X1625904Y2140204D02*
G01*
X1692605Y2140204D01*
X1692605Y2183384D01*
X1652371Y2183384D01*
X1646072Y2182672D01*
X1640586Y2180793D01*
X1635709Y2177694D01*
X1633169Y2175154D01*
X1629968Y2173020D01*
X1628241Y2172614D01*
X1628597Y2171141D01*
X1628038Y2167280D01*
X1626616Y2163267D01*
X1625904Y2156917D01*
G37*
G36*
X1718005Y2140204D02*
G01*
X1784705Y2140204D01*
X1784705Y2156917D01*
X1783994Y2163267D01*
X1782114Y2168702D01*
X1779016Y2173630D01*
X1774901Y2177694D01*
X1770024Y2180793D01*
X1764588Y2182672D01*
X1758238Y2183384D01*
X1718005Y2183384D01*
G37*
G36*
X1718005Y2071573D02*
G01*
X1758238Y2071573D01*
X1764588Y2072284D01*
X1770024Y2074214D01*
X1774901Y2077313D01*
X1779016Y2081377D01*
X1782114Y2086305D01*
X1783994Y2091740D01*
X1784705Y2098090D01*
X1784705Y2114804D01*
X1718005Y2114804D01*
G37*
G36*
X1565808Y2169566D02*
G01*
X1592021Y2169566D01*
X1598371Y2170328D01*
X1603806Y2172208D01*
X1608734Y2175306D01*
X1611274Y2177846D01*
X1614474Y2179980D01*
X1616202Y2180386D01*
X1615846Y2181860D01*
X1616405Y2185720D01*
X1617827Y2189734D01*
X1618538Y2196084D01*
X1618538Y2209800D01*
X1565808Y2209800D01*
G37*

%LPD*%
G36*
X705916Y1622348D02*
G01*
X701954Y1623263D01*
X692353Y1627733D01*
X682904Y1630273D01*
X673100Y1631137D01*
X662533Y1630222D01*
X658520Y1630680D01*
X655015Y1632661D01*
X652526Y1635810D01*
X651510Y1639722D01*
X652322Y1644446D01*
X653034Y1650746D01*
X653034Y1669643D01*
X652322Y1675942D01*
X651408Y1680210D01*
X652322Y1684426D01*
X653034Y1690776D01*
X653034Y1709623D01*
X652322Y1715922D01*
X651408Y1720189D01*
X652322Y1724456D01*
X653034Y1730756D01*
X653034Y1749602D01*
X652322Y1755952D01*
X651408Y1760169D01*
X652322Y1764436D01*
X653034Y1770786D01*
X653034Y1789633D01*
X652322Y1795932D01*
X651408Y1800199D01*
X652322Y1804466D01*
X653034Y1810766D01*
X653034Y1829612D01*
X652322Y1835962D01*
X651408Y1840179D01*
X652322Y1844446D01*
X653034Y1850745D01*
X653034Y1864106D01*
X653796Y1868017D01*
X655980Y1871319D01*
X659282Y1873504D01*
X663194Y1874266D01*
X676554Y1874266D01*
X682853Y1874977D01*
X687120Y1875891D01*
X691337Y1874977D01*
X697687Y1874266D01*
X716534Y1874266D01*
X722833Y1874977D01*
X727100Y1875891D01*
X731367Y1874977D01*
X737666Y1874266D01*
X747115Y1874266D01*
X751230Y1873402D01*
X754634Y1871014D01*
X756716Y1867407D01*
X757224Y1863242D01*
X756462Y1854200D01*
X757326Y1844446D01*
X760171Y1833930D01*
X760425Y1830070D01*
X759307Y1826412D01*
X756869Y1823466D01*
X753465Y1821586D01*
X748893Y1820113D01*
X742950Y1816658D01*
X738886Y1813204D01*
X726846Y1801164D01*
X722274Y1795525D01*
X719226Y1789531D01*
X717448Y1782876D01*
X717042Y1777746D01*
X716432Y1632457D01*
X715619Y1628495D01*
X713282Y1625142D01*
X709879Y1623009D01*
G37*

%LPD*%
G36*
X293420Y1572514D02*
G01*
X289509Y1573276D01*
X286207Y1575511D01*
X276555Y1585163D01*
X274320Y1588465D01*
X273558Y1592376D01*
X273558Y1638706D01*
X274320Y1642618D01*
X276555Y1645920D01*
X279806Y1648104D01*
X283718Y1648866D01*
X301091Y1648866D01*
X301091Y1689100D01*
X283718Y1689100D01*
X279806Y1689862D01*
X276555Y1692097D01*
X274320Y1695348D01*
X273558Y1699260D01*
X273558Y1704339D01*
X274320Y1708251D01*
X276555Y1711502D01*
X279806Y1713738D01*
X283718Y1714500D01*
X301091Y1714500D01*
X301091Y1754682D01*
X283718Y1754682D01*
X279806Y1755495D01*
X276555Y1757680D01*
X274320Y1760982D01*
X273558Y1764842D01*
X273558Y2204923D01*
X274320Y2208834D01*
X276555Y2212136D01*
X302463Y2238044D01*
X305765Y2240280D01*
X309676Y2241042D01*
X469392Y2241042D01*
X476605Y2241804D01*
X483006Y2243886D01*
X488950Y2247290D01*
X493014Y2250795D01*
X518363Y2276144D01*
X521665Y2278380D01*
X525576Y2279142D01*
X645363Y2279142D01*
X649528Y2278278D01*
X652983Y2275738D01*
X655066Y2272080D01*
X655472Y2267864D01*
X654761Y2261616D01*
X654761Y2247900D01*
X707491Y2247900D01*
X707491Y2273757D01*
X708101Y2277211D01*
X709879Y2280259D01*
X712571Y2282545D01*
X717651Y2285492D01*
X721664Y2286762D01*
X725881Y2286355D01*
X729538Y2284222D01*
X732028Y2280818D01*
X732891Y2276703D01*
X732891Y2247900D01*
X753618Y2247900D01*
X757529Y2247138D01*
X760831Y2244902D01*
X763016Y2241600D01*
X763778Y2237740D01*
X763778Y2232660D01*
X763016Y2228748D01*
X760831Y2225497D01*
X757529Y2223262D01*
X753618Y2222500D01*
X732891Y2222500D01*
X732891Y2146300D01*
X753618Y2146300D01*
X757529Y2145538D01*
X760831Y2143302D01*
X763016Y2140000D01*
X763778Y2136140D01*
X763778Y2131060D01*
X763016Y2127148D01*
X760831Y2123897D01*
X757529Y2121662D01*
X753618Y2120900D01*
X732891Y2120900D01*
X732891Y2087118D01*
X732129Y2083206D01*
X729945Y2079955D01*
X726643Y2077720D01*
X722731Y2076957D01*
X717651Y2076957D01*
X713790Y2077720D01*
X710488Y2079955D01*
X708253Y2083206D01*
X707491Y2087118D01*
X707491Y2120900D01*
X700684Y2120900D01*
X697280Y2121458D01*
X694283Y2123135D01*
X691997Y2125726D01*
X690727Y2128875D01*
X689610Y2133955D01*
X689660Y2138476D01*
X691642Y2142490D01*
X695147Y2145284D01*
X699566Y2146300D01*
X707491Y2146300D01*
X707491Y2222500D01*
X654761Y2222500D01*
X654761Y2208784D01*
X655472Y2202434D01*
X657402Y2196998D01*
X663194Y2188006D01*
X663803Y2183638D01*
X662482Y2179472D01*
X659485Y2176221D01*
X655421Y2174544D01*
X651052Y2174697D01*
X644804Y2176373D01*
X635000Y2177237D01*
X625195Y2176373D01*
X615746Y2173833D01*
X606806Y2169718D01*
X598779Y2164080D01*
X597204Y2162505D01*
X593902Y2160270D01*
X589991Y2159508D01*
X451408Y2159508D01*
X447497Y2160270D01*
X444195Y2162505D01*
X442620Y2164080D01*
X434593Y2169718D01*
X425653Y2173833D01*
X416204Y2176373D01*
X406400Y2177237D01*
X396595Y2176373D01*
X387146Y2173833D01*
X378206Y2169718D01*
X370179Y2164080D01*
X363220Y2157120D01*
X357581Y2149094D01*
X353466Y2140153D01*
X350926Y2130704D01*
X350062Y2120900D01*
X350926Y2111095D01*
X353466Y2101646D01*
X357581Y2092706D01*
X363220Y2084679D01*
X370179Y2077720D01*
X378206Y2072081D01*
X387146Y2067966D01*
X396595Y2065426D01*
X404215Y2064766D01*
X407822Y2063750D01*
X410819Y2061464D01*
X412800Y2058314D01*
X413461Y2054606D01*
X413461Y2044700D01*
X466191Y2044700D01*
X466191Y2072132D01*
X466953Y2075992D01*
X469188Y2079294D01*
X472490Y2081530D01*
X476351Y2082292D01*
X481431Y2082292D01*
X485343Y2081530D01*
X488645Y2079294D01*
X490829Y2075992D01*
X491591Y2072132D01*
X491591Y2044700D01*
X512318Y2044700D01*
X516229Y2043938D01*
X519531Y2041702D01*
X521716Y2038400D01*
X522478Y2034539D01*
X522478Y2029460D01*
X521716Y2025548D01*
X519531Y2022297D01*
X516229Y2020062D01*
X512318Y2019300D01*
X491591Y2019300D01*
X491591Y1979066D01*
X517855Y1979066D01*
X524154Y1979777D01*
X530047Y1981860D01*
X533400Y1982419D01*
X536752Y1981860D01*
X542645Y1979777D01*
X548995Y1979066D01*
X621030Y1979066D01*
X624941Y1978304D01*
X628243Y1976120D01*
X630428Y1972818D01*
X631190Y1968906D01*
X631190Y1906270D01*
X630428Y1902358D01*
X628243Y1899056D01*
X624941Y1896872D01*
X621030Y1896110D01*
X517651Y1896110D01*
X511352Y1895398D01*
X505866Y1893468D01*
X500989Y1890420D01*
X496874Y1886305D01*
X493826Y1881428D01*
X491896Y1875942D01*
X491185Y1869643D01*
X491185Y1850745D01*
X491896Y1844446D01*
X492810Y1840179D01*
X491896Y1835962D01*
X491185Y1829612D01*
X491185Y1810766D01*
X491896Y1804466D01*
X492810Y1800199D01*
X491896Y1795932D01*
X491185Y1789633D01*
X491185Y1770786D01*
X491896Y1764436D01*
X492810Y1760169D01*
X491693Y1755343D01*
X489915Y1752193D01*
X487121Y1749856D01*
X483717Y1748637D01*
X480059Y1748739D01*
X476707Y1750110D01*
X473506Y1752092D01*
X467817Y1754073D01*
X464566Y1755952D01*
X462229Y1758899D01*
X461111Y1762506D01*
X461365Y1766316D01*
X461873Y1768195D01*
X462737Y1778000D01*
X461873Y1787804D01*
X459333Y1797253D01*
X455218Y1806193D01*
X449580Y1814220D01*
X442620Y1821180D01*
X434593Y1826818D01*
X425653Y1830933D01*
X416204Y1833473D01*
X406400Y1834337D01*
X396595Y1833473D01*
X387146Y1830933D01*
X378206Y1826818D01*
X370179Y1821180D01*
X363220Y1814220D01*
X357581Y1806193D01*
X353466Y1797253D01*
X350926Y1787804D01*
X350062Y1778000D01*
X351383Y1763826D01*
X350316Y1760270D01*
X348081Y1757324D01*
X344932Y1755393D01*
X341274Y1754682D01*
X326491Y1754682D01*
X326491Y1714500D01*
X347218Y1714500D01*
X351129Y1713738D01*
X354431Y1711502D01*
X356616Y1708251D01*
X357378Y1704339D01*
X357378Y1699260D01*
X356616Y1695348D01*
X354431Y1692097D01*
X351129Y1689862D01*
X347218Y1689100D01*
X326491Y1689100D01*
X326491Y1648866D01*
X352704Y1648866D01*
X359054Y1649628D01*
X364947Y1651660D01*
X368300Y1652219D01*
X371652Y1651660D01*
X377545Y1649628D01*
X383895Y1648866D01*
X461721Y1648866D01*
X468071Y1649628D01*
X473506Y1651507D01*
X476250Y1653235D01*
X479856Y1654606D01*
X483717Y1654556D01*
X487324Y1653082D01*
X490067Y1650339D01*
X491591Y1646783D01*
X492556Y1642364D01*
X492759Y1639570D01*
X491896Y1635963D01*
X491185Y1629613D01*
X491185Y1610766D01*
X491896Y1604467D01*
X492810Y1600200D01*
X491896Y1595932D01*
X491185Y1589633D01*
X491185Y1582674D01*
X490423Y1578762D01*
X488238Y1575511D01*
X484936Y1573276D01*
X481025Y1572514D01*
G37*

%LPC*%
G36*
X439978Y1979066D02*
G01*
X466191Y1979066D01*
X466191Y2019300D01*
X413461Y2019300D01*
X413461Y2005584D01*
X414172Y1999234D01*
X416102Y1993798D01*
X419201Y1988870D01*
X423265Y1984806D01*
X428193Y1981707D01*
X433628Y1979777D01*
G37*

%LPD*%
G36*
X1121156Y1451406D02*
G01*
X1117650Y1451711D01*
X1115568Y1452270D01*
X1111656Y1454302D01*
X1108964Y1457807D01*
X1107998Y1462074D01*
X1107998Y1587500D01*
X939800Y1587500D01*
X939800Y1464614D01*
X938987Y1460652D01*
X936701Y1457299D01*
X933246Y1455115D01*
X929233Y1454454D01*
X924153Y1454658D01*
X920394Y1455521D01*
X917244Y1457756D01*
X915162Y1461008D01*
X914400Y1464818D01*
X914400Y1587500D01*
X790956Y1587500D01*
X787044Y1588262D01*
X783742Y1590497D01*
X781558Y1593799D01*
X780796Y1597710D01*
X780796Y1602790D01*
X781608Y1606651D01*
X783793Y1609953D01*
X787095Y1612138D01*
X790956Y1612900D01*
X914400Y1612900D01*
X914400Y1737766D01*
X914958Y1741119D01*
X916635Y1744116D01*
X919226Y1746402D01*
X922375Y1747672D01*
X927455Y1748789D01*
X931976Y1748739D01*
X936040Y1746757D01*
X938784Y1743252D01*
X939800Y1738833D01*
X939800Y1612900D01*
X1107998Y1612900D01*
X1107998Y1754632D01*
X1107287Y1760931D01*
X1105408Y1766417D01*
X1102309Y1771294D01*
X1098194Y1775409D01*
X1093317Y1778457D01*
X1087831Y1780387D01*
X1081532Y1781098D01*
X979779Y1781098D01*
X975664Y1781962D01*
X972261Y1784451D01*
X970127Y1788058D01*
X969670Y1792224D01*
X970737Y1803450D01*
X969873Y1813204D01*
X967333Y1822653D01*
X963218Y1831593D01*
X957580Y1839620D01*
X947724Y1849221D01*
X946200Y1852117D01*
X945692Y1855317D01*
X945692Y1864106D01*
X946403Y1867763D01*
X948334Y1870964D01*
X951280Y1873199D01*
X954887Y1874215D01*
X962914Y1875028D01*
X967130Y1875891D01*
X971346Y1874977D01*
X977696Y1874266D01*
X996543Y1874266D01*
X1002842Y1874977D01*
X1007110Y1875891D01*
X1014425Y1874672D01*
X1014882Y1880057D01*
X1016253Y1882800D01*
X1018794Y1886407D01*
X1021587Y1889099D01*
X1025194Y1890572D01*
X1029055Y1890572D01*
X1032611Y1889099D01*
X1035405Y1886407D01*
X1037945Y1882800D01*
X1039317Y1880057D01*
X1039825Y1874672D01*
X1047089Y1875891D01*
X1053084Y1874824D01*
X1056843Y1873605D01*
X1059840Y1871116D01*
X1061669Y1867712D01*
X1062075Y1863801D01*
X1061262Y1854200D01*
X1062126Y1844395D01*
X1064666Y1834946D01*
X1068781Y1826006D01*
X1074420Y1817979D01*
X1081379Y1811020D01*
X1089406Y1805381D01*
X1098346Y1801266D01*
X1107795Y1798726D01*
X1117549Y1797862D01*
X1121511Y1796694D01*
X1124610Y1794052D01*
X1126490Y1790344D01*
X1128166Y1784146D01*
X1132281Y1775206D01*
X1137920Y1767179D01*
X1144879Y1760220D01*
X1152906Y1754581D01*
X1161846Y1750466D01*
X1171295Y1747926D01*
X1181100Y1747062D01*
X1190142Y1747824D01*
X1194308Y1747316D01*
X1197914Y1745234D01*
X1200353Y1741830D01*
X1201216Y1737715D01*
X1201216Y1730756D01*
X1201928Y1724456D01*
X1202791Y1720189D01*
X1201928Y1715922D01*
X1201216Y1709623D01*
X1201216Y1690776D01*
X1201928Y1684426D01*
X1202791Y1680210D01*
X1201928Y1675942D01*
X1201216Y1669643D01*
X1201216Y1650746D01*
X1201928Y1644446D01*
X1202791Y1640179D01*
X1201928Y1635963D01*
X1201216Y1629613D01*
X1201216Y1610766D01*
X1201928Y1604467D01*
X1202791Y1600200D01*
X1201928Y1595932D01*
X1201216Y1589633D01*
X1201216Y1570786D01*
X1201928Y1564436D01*
X1202791Y1560169D01*
X1201928Y1555953D01*
X1201216Y1549603D01*
X1201216Y1530756D01*
X1201928Y1524457D01*
X1202791Y1520190D01*
X1201928Y1515922D01*
X1201216Y1509623D01*
X1201216Y1500784D01*
X1200353Y1496669D01*
X1197914Y1493266D01*
X1194308Y1491132D01*
X1190142Y1490675D01*
X1181100Y1491437D01*
X1171295Y1490573D01*
X1161846Y1488033D01*
X1152906Y1483918D01*
X1144879Y1478280D01*
X1137920Y1471320D01*
X1132281Y1463294D01*
X1129487Y1457198D01*
X1127455Y1454353D01*
X1124559Y1452321D01*
G37*

%LPD*%
G36*
X1007110Y1324508D02*
G01*
X1002842Y1325372D01*
X996543Y1326083D01*
X989584Y1326083D01*
X985723Y1326896D01*
X982421Y1329080D01*
X980236Y1332382D01*
X979424Y1336243D01*
X979424Y1401775D01*
X978763Y1408074D01*
X979220Y1412290D01*
X981303Y1415948D01*
X984758Y1418386D01*
X988872Y1419301D01*
X1039520Y1419301D01*
X1043635Y1418437D01*
X1047038Y1415948D01*
X1049172Y1412341D01*
X1049629Y1408176D01*
X1048562Y1396949D01*
X1049426Y1387195D01*
X1051966Y1377746D01*
X1056081Y1368806D01*
X1061720Y1360779D01*
X1068679Y1353820D01*
X1076706Y1348181D01*
X1082954Y1345285D01*
X1086205Y1342898D01*
X1088288Y1339392D01*
X1088796Y1335328D01*
X1087678Y1331417D01*
X1085138Y1328267D01*
X1081582Y1326337D01*
X1076553Y1326083D01*
X1057656Y1326083D01*
X1051356Y1325372D01*
X1047089Y1324508D01*
X1042873Y1325372D01*
X1036523Y1326083D01*
X1017676Y1326083D01*
X1011377Y1325372D01*
G37*

%LPD*%
G36*
X1325016Y984758D02*
G01*
X1321155Y985519D01*
X1317853Y987755D01*
X1315669Y991006D01*
X1314856Y994918D01*
X1314856Y1005230D01*
X1314145Y1011529D01*
X1312926Y1016812D01*
X1314145Y1022045D01*
X1314856Y1028344D01*
X1314856Y1055217D01*
X1314145Y1061567D01*
X1312926Y1066749D01*
X1314145Y1072032D01*
X1314907Y1078331D01*
X1314907Y1105204D01*
X1314145Y1111554D01*
X1312926Y1116787D01*
X1314145Y1122070D01*
X1314856Y1128369D01*
X1314856Y1155242D01*
X1314145Y1161542D01*
X1312265Y1167028D01*
X1309166Y1171905D01*
X1305052Y1176020D01*
X1300175Y1179068D01*
X1294688Y1180998D01*
X1288389Y1181709D01*
X1255725Y1181709D01*
X1251813Y1182471D01*
X1248511Y1184706D01*
X1226007Y1207211D01*
X1223772Y1210513D01*
X1223010Y1214424D01*
X1223010Y1294130D01*
X1223772Y1297990D01*
X1226007Y1301292D01*
X1229309Y1303528D01*
X1233170Y1304290D01*
X1336548Y1304290D01*
X1342847Y1305001D01*
X1349502Y1307338D01*
X1352905Y1307947D01*
X1408633Y1307947D01*
X1412240Y1307287D01*
X1415389Y1305356D01*
X1417675Y1302410D01*
X1418691Y1298854D01*
X1418437Y1295146D01*
X1417726Y1292504D01*
X1416862Y1282700D01*
X1417726Y1272895D01*
X1420266Y1263446D01*
X1424381Y1254506D01*
X1430020Y1246479D01*
X1436979Y1239520D01*
X1445006Y1233881D01*
X1453946Y1229766D01*
X1463395Y1227226D01*
X1473200Y1226362D01*
X1483004Y1227226D01*
X1492453Y1229766D01*
X1501394Y1233881D01*
X1509420Y1239520D01*
X1510842Y1240942D01*
X1514144Y1243177D01*
X1518056Y1243939D01*
X1521917Y1243177D01*
X1525219Y1240942D01*
X1527403Y1237691D01*
X1528216Y1233779D01*
X1528216Y1189431D01*
X1527352Y1185367D01*
X1524965Y1182014D01*
X1521409Y1179830D01*
X1519224Y1179118D01*
X1515516Y1176782D01*
X1511858Y1175359D01*
X1507896Y1175461D01*
X1504289Y1177036D01*
X1501394Y1179118D01*
X1492453Y1183233D01*
X1483004Y1185773D01*
X1473200Y1186637D01*
X1463395Y1185773D01*
X1453946Y1183233D01*
X1445006Y1179118D01*
X1442415Y1177290D01*
X1439570Y1175867D01*
X1436370Y1175461D01*
X1433220Y1176020D01*
X1430477Y1176985D01*
X1422400Y1177696D01*
X1422400Y1156462D01*
X1421434Y1152144D01*
X1420266Y1149553D01*
X1417726Y1140104D01*
X1417269Y1135278D01*
X1415948Y1131062D01*
X1415948Y1129538D01*
X1417269Y1125321D01*
X1417726Y1120495D01*
X1420266Y1111046D01*
X1421434Y1108456D01*
X1422400Y1104138D01*
X1422400Y1073353D01*
X1423212Y1069187D01*
X1422298Y1065022D01*
X1420266Y1060653D01*
X1417726Y1051204D01*
X1417269Y1046378D01*
X1415948Y1042162D01*
X1415948Y1040637D01*
X1417269Y1036421D01*
X1417726Y1031595D01*
X1420266Y1022146D01*
X1421434Y1019556D01*
X1422400Y1015237D01*
X1422400Y994918D01*
X1421638Y991006D01*
X1419453Y987755D01*
X1416151Y985519D01*
X1412240Y984758D01*
X1407160Y984758D01*
X1403299Y985519D01*
X1399997Y987755D01*
X1397762Y991006D01*
X1397000Y994918D01*
X1397000Y1035558D01*
X1397965Y1039825D01*
X1399184Y1041400D01*
X1397965Y1042974D01*
X1397000Y1047242D01*
X1397000Y1054100D01*
X1368806Y1054100D01*
X1368806Y994918D01*
X1368044Y991006D01*
X1365808Y987755D01*
X1362506Y985519D01*
X1358646Y984758D01*
G37*

%LPC*%
G36*
X1368806Y1079500D02*
G01*
X1397000Y1079500D01*
X1397000Y1124458D01*
X1397965Y1128725D01*
X1399184Y1130300D01*
X1397965Y1131874D01*
X1397000Y1136142D01*
X1397000Y1177696D01*
X1388973Y1176985D01*
X1383487Y1175054D01*
X1378610Y1172006D01*
X1374495Y1167892D01*
X1371396Y1163015D01*
X1369517Y1157528D01*
X1368806Y1151229D01*
G37*

%LPD*%
G36*
X900582Y914908D02*
G01*
X896518Y915771D01*
X893114Y918159D01*
X890981Y921715D01*
X890422Y925830D01*
X891590Y929792D01*
X894232Y932992D01*
X897940Y934872D01*
X908253Y937666D01*
X917194Y941781D01*
X925220Y947419D01*
X932180Y954379D01*
X937818Y962406D01*
X941933Y971346D01*
X944473Y980795D01*
X945337Y990600D01*
X943965Y1005840D01*
X945591Y1009903D01*
X948740Y1012850D01*
X952855Y1014272D01*
X955954Y1014628D01*
X959053Y1015695D01*
X963015Y1016253D01*
X966927Y1015187D01*
X970076Y1012698D01*
X972058Y1009192D01*
X972515Y1005230D01*
X972362Y1003300D01*
X973226Y993495D01*
X975766Y984046D01*
X979881Y975106D01*
X985519Y967079D01*
X992479Y960119D01*
X1000506Y954481D01*
X1009446Y950366D01*
X1018895Y947826D01*
X1028700Y946962D01*
X1038504Y947826D01*
X1047953Y950366D01*
X1056894Y954481D01*
X1064920Y960119D01*
X1071880Y967079D01*
X1077518Y975106D01*
X1080312Y981202D01*
X1082344Y984046D01*
X1085240Y986078D01*
X1088644Y986993D01*
X1092149Y986688D01*
X1095095Y985926D01*
X1104900Y985062D01*
X1114704Y985926D01*
X1124153Y988466D01*
X1133094Y992581D01*
X1141120Y998219D01*
X1144219Y1001318D01*
X1147470Y1003503D01*
X1151382Y1004265D01*
X1155293Y1003503D01*
X1158544Y1001318D01*
X1160780Y998016D01*
X1161542Y994105D01*
X1161542Y965708D01*
X1162304Y958494D01*
X1164386Y952093D01*
X1167790Y946150D01*
X1171295Y942086D01*
X1181150Y932230D01*
X1183335Y928979D01*
X1184097Y925068D01*
X1183335Y921156D01*
X1181150Y917905D01*
X1177848Y915669D01*
X1173937Y914908D01*
G37*

%LPD*%
G36*
X1505762Y914908D02*
G01*
X1501851Y915669D01*
X1498549Y917905D01*
X1496364Y921156D01*
X1495602Y925068D01*
X1496364Y928979D01*
X1498549Y932230D01*
X1516075Y949706D01*
X1518462Y951534D01*
X1521358Y952550D01*
X1524355Y952652D01*
X1531010Y951890D01*
X1589887Y951890D01*
X1596186Y952601D01*
X1601673Y954532D01*
X1606550Y957580D01*
X1610664Y961694D01*
X1613763Y966571D01*
X1615643Y972058D01*
X1616354Y978357D01*
X1616354Y1005230D01*
X1615643Y1011529D01*
X1614424Y1016812D01*
X1615643Y1022045D01*
X1616354Y1028395D01*
X1616354Y1055268D01*
X1615643Y1061567D01*
X1614424Y1066800D01*
X1615643Y1072032D01*
X1616354Y1078382D01*
X1616354Y1105255D01*
X1615643Y1111554D01*
X1614424Y1116838D01*
X1615643Y1122070D01*
X1616354Y1128369D01*
X1616354Y1155242D01*
X1615643Y1161542D01*
X1613712Y1167028D01*
X1610664Y1171905D01*
X1606550Y1176020D01*
X1601673Y1179118D01*
X1599488Y1179830D01*
X1595983Y1182014D01*
X1593545Y1185367D01*
X1592732Y1189431D01*
X1592732Y1254048D01*
X1593494Y1257960D01*
X1595678Y1261262D01*
X1597253Y1262786D01*
X1601825Y1268476D01*
X1604924Y1274572D01*
X1606296Y1279144D01*
X1606804Y1284071D01*
X1607616Y1287068D01*
X1609242Y1289710D01*
X1611630Y1291691D01*
X1617980Y1295552D01*
X1621993Y1299565D01*
X1625092Y1304493D01*
X1626971Y1309928D01*
X1627682Y1316278D01*
X1627682Y1394104D01*
X1626971Y1400454D01*
X1624939Y1406347D01*
X1624380Y1409954D01*
X1625092Y1413510D01*
X1625955Y1415643D01*
X1625955Y1418742D01*
X1626717Y1422603D01*
X1629562Y1426311D01*
X1628546Y1427683D01*
X1627682Y1431747D01*
X1627682Y1451508D01*
X1587500Y1451508D01*
X1587500Y1430782D01*
X1586738Y1426870D01*
X1584502Y1423568D01*
X1581251Y1421384D01*
X1577340Y1420622D01*
X1572260Y1420622D01*
X1568348Y1421384D01*
X1565097Y1423568D01*
X1562862Y1426870D01*
X1562100Y1430782D01*
X1562100Y1451508D01*
X1485900Y1451508D01*
X1485900Y1430782D01*
X1485138Y1426870D01*
X1482902Y1423568D01*
X1479651Y1421384D01*
X1475740Y1420622D01*
X1470660Y1420622D01*
X1466748Y1421384D01*
X1463497Y1423568D01*
X1461262Y1426870D01*
X1460500Y1430782D01*
X1460500Y1451508D01*
X1432763Y1451508D01*
X1428851Y1452270D01*
X1425549Y1454505D01*
X1423365Y1457756D01*
X1422603Y1461668D01*
X1423365Y1465529D01*
X1425549Y1468831D01*
X1430629Y1473911D01*
X1433931Y1476146D01*
X1437843Y1476908D01*
X1460500Y1476908D01*
X1460500Y1494282D01*
X1461262Y1498193D01*
X1463497Y1501444D01*
X1466748Y1503680D01*
X1470660Y1504442D01*
X1475740Y1504442D01*
X1479651Y1503680D01*
X1482902Y1501444D01*
X1485138Y1498193D01*
X1485900Y1494282D01*
X1485900Y1476908D01*
X1562100Y1476908D01*
X1562100Y1494282D01*
X1562862Y1498193D01*
X1565097Y1501444D01*
X1568348Y1503680D01*
X1572260Y1504442D01*
X1577340Y1504442D01*
X1581251Y1503680D01*
X1584502Y1501444D01*
X1586738Y1498193D01*
X1587500Y1494282D01*
X1587500Y1476908D01*
X1627682Y1476908D01*
X1627682Y1494282D01*
X1628495Y1498193D01*
X1630680Y1501444D01*
X1633982Y1503680D01*
X1637893Y1504442D01*
X1650492Y1504442D01*
X1657705Y1505204D01*
X1664106Y1507286D01*
X1670050Y1510690D01*
X1674114Y1514195D01*
X1690420Y1530502D01*
X1694180Y1532839D01*
X1698548Y1533398D01*
X1701546Y1532788D01*
X1700784Y1536649D01*
X1701546Y1540560D01*
X1703781Y1543862D01*
X1708861Y1548942D01*
X1712163Y1551127D01*
X1716024Y1551889D01*
X1819300Y1551889D01*
X1819300Y1583182D01*
X1820062Y1587093D01*
X1822246Y1590344D01*
X1825548Y1592580D01*
X1829460Y1593342D01*
X1834540Y1593342D01*
X1838401Y1592580D01*
X1841703Y1590344D01*
X1843938Y1587093D01*
X1844700Y1583182D01*
X1844700Y1551889D01*
X1956612Y1551889D01*
X1955952Y1556105D01*
X1952599Y1566926D01*
X1947468Y1577441D01*
X1945843Y1581505D01*
X1946097Y1585874D01*
X1948129Y1589735D01*
X1951583Y1592376D01*
X1955901Y1593342D01*
X2108098Y1593342D01*
X2112365Y1592376D01*
X2115870Y1589735D01*
X2117902Y1585874D01*
X2118106Y1581505D01*
X2116277Y1577136D01*
X2111349Y1566926D01*
X2107996Y1556105D01*
X2107387Y1551889D01*
X2219299Y1551889D01*
X2219299Y1583182D01*
X2220061Y1587093D01*
X2222246Y1590344D01*
X2225548Y1592580D01*
X2229459Y1593342D01*
X2234539Y1593342D01*
X2238400Y1592580D01*
X2241702Y1590344D01*
X2243937Y1587093D01*
X2244699Y1583182D01*
X2244699Y1551889D01*
X2356612Y1551889D01*
X2355951Y1556105D01*
X2352598Y1566926D01*
X2347722Y1577136D01*
X2341321Y1586484D01*
X2333599Y1594815D01*
X2324252Y1602282D01*
X2321560Y1605534D01*
X2320442Y1609648D01*
X2321102Y1613814D01*
X2323388Y1617370D01*
X2384653Y1678635D01*
X2389225Y1684274D01*
X2392273Y1690268D01*
X2394051Y1696872D01*
X2394458Y1702206D01*
X2394458Y2129383D01*
X2395372Y2133650D01*
X2398014Y2137105D01*
X2401824Y2139188D01*
X2406142Y2139442D01*
X2410155Y2137918D01*
X2416505Y2133803D01*
X2421839Y2131923D01*
X2428189Y2131212D01*
X2454910Y2131212D01*
X2454910Y2184400D01*
X2404618Y2184400D01*
X2400706Y2185162D01*
X2397455Y2187397D01*
X2395220Y2190648D01*
X2394458Y2194560D01*
X2394458Y2199640D01*
X2395220Y2203551D01*
X2397455Y2206802D01*
X2400706Y2209038D01*
X2404618Y2209800D01*
X2454910Y2209800D01*
X2454910Y2262987D01*
X2447442Y2262987D01*
X2443581Y2263800D01*
X2440279Y2265984D01*
X2438044Y2269286D01*
X2437282Y2273147D01*
X2438044Y2277059D01*
X2440279Y2280361D01*
X2499563Y2339644D01*
X2502865Y2341880D01*
X2506776Y2342642D01*
X2679192Y2342642D01*
X2686405Y2343404D01*
X2692806Y2345486D01*
X2698750Y2348890D01*
X2702814Y2352395D01*
X2738018Y2387600D01*
X2741320Y2389835D01*
X2745232Y2390597D01*
X2863443Y2390597D01*
X2869742Y2391308D01*
X2875178Y2393238D01*
X2880106Y2396286D01*
X2884170Y2400401D01*
X2887268Y2405278D01*
X2889199Y2410764D01*
X2889910Y2417064D01*
X2889910Y2491232D01*
X2890469Y2494584D01*
X2892450Y2500325D01*
X2893618Y2505964D01*
X2894838Y2509164D01*
X2897124Y2511806D01*
X2900121Y2513482D01*
X2903575Y2514092D01*
X2938272Y2514092D01*
X2942539Y2513126D01*
X2945993Y2510485D01*
X2948076Y2506624D01*
X2951734Y2493213D01*
X2952089Y2490571D01*
X2952089Y2417064D01*
X2952800Y2410764D01*
X2954680Y2405278D01*
X2957779Y2400401D01*
X2959658Y2398522D01*
X2961792Y2395321D01*
X2962605Y2391562D01*
X2961944Y2387752D01*
X2959912Y2384450D01*
X2956661Y2380945D01*
X2954070Y2377541D01*
X2951632Y2373731D01*
X2950057Y2370632D01*
X2948076Y2367940D01*
X2945333Y2366010D01*
X2942132Y2365095D01*
X2937560Y2364587D01*
X2932074Y2362708D01*
X2927197Y2359609D01*
X2923082Y2355494D01*
X2920034Y2350617D01*
X2918104Y2345131D01*
X2917393Y2338832D01*
X2917393Y2093468D01*
X2918104Y2087168D01*
X2920034Y2081682D01*
X2923082Y2076805D01*
X2927197Y2072690D01*
X2932074Y2069592D01*
X2937560Y2067712D01*
X2943860Y2067001D01*
X3047746Y2067001D01*
X3054045Y2067712D01*
X3059531Y2069592D01*
X3064408Y2072690D01*
X3068523Y2076805D01*
X3071571Y2081682D01*
X3073501Y2087168D01*
X3074212Y2093468D01*
X3074212Y2338832D01*
X3072790Y2349296D01*
X3073654Y2353005D01*
X3075787Y2356104D01*
X3087014Y2367584D01*
X3089605Y2370988D01*
X3092094Y2374849D01*
X3094024Y2378557D01*
X3096209Y2384145D01*
X3098393Y2387498D01*
X3101695Y2389784D01*
X3105658Y2390597D01*
X3117443Y2390597D01*
X3123742Y2391308D01*
X3129178Y2393238D01*
X3134106Y2396286D01*
X3138170Y2400401D01*
X3141268Y2405278D01*
X3143199Y2410764D01*
X3143910Y2417064D01*
X3143910Y2491232D01*
X3144469Y2494584D01*
X3146450Y2500325D01*
X3147618Y2505964D01*
X3148838Y2509164D01*
X3151124Y2511806D01*
X3154121Y2513482D01*
X3157575Y2514092D01*
X3192272Y2514092D01*
X3196539Y2513126D01*
X3199993Y2510485D01*
X3202076Y2506624D01*
X3205734Y2493213D01*
X3206089Y2490571D01*
X3206089Y2417064D01*
X3206800Y2410764D01*
X3208680Y2405278D01*
X3210966Y2400655D01*
X3211118Y2397252D01*
X3210204Y2394000D01*
X3208223Y2391206D01*
X3190036Y2373020D01*
X3186226Y2368702D01*
X3182772Y2366213D01*
X3178606Y2365298D01*
X3173882Y2365298D01*
X3167532Y2364587D01*
X3162096Y2362708D01*
X3157169Y2359609D01*
X3153105Y2355494D01*
X3150006Y2350617D01*
X3148126Y2345131D01*
X3147415Y2338832D01*
X3147415Y2093468D01*
X3148126Y2087168D01*
X3150006Y2081682D01*
X3153105Y2076805D01*
X3157169Y2072690D01*
X3162096Y2069592D01*
X3168091Y2067509D01*
X3171647Y2065375D01*
X3174034Y2061972D01*
X3174898Y2057907D01*
X3174898Y2031898D01*
X3174136Y2027986D01*
X3171901Y2024735D01*
X3055264Y1908098D01*
X3052013Y1905863D01*
X3048101Y1905101D01*
X2834386Y1905101D01*
X2830474Y1905863D01*
X2827172Y1908098D01*
X2824988Y1911400D01*
X2824226Y1915261D01*
X2824226Y1961591D01*
X2824988Y1965452D01*
X2827172Y1968754D01*
X2841853Y1983435D01*
X2846425Y1989074D01*
X2849473Y1995068D01*
X2851251Y2001672D01*
X2851658Y2007006D01*
X2851658Y2092960D01*
X2852216Y2096312D01*
X2853893Y2099310D01*
X2856484Y2101596D01*
X2862529Y2105355D01*
X2866593Y2109419D01*
X2869692Y2114346D01*
X2871571Y2119782D01*
X2872282Y2126081D01*
X2872282Y2181555D01*
X2871571Y2187854D01*
X2869539Y2193747D01*
X2868980Y2197100D01*
X2869539Y2200452D01*
X2871571Y2206345D01*
X2872282Y2212644D01*
X2872282Y2268118D01*
X2871571Y2274417D01*
X2869692Y2279853D01*
X2866593Y2284780D01*
X2862529Y2288844D01*
X2857601Y2291943D01*
X2852166Y2293874D01*
X2845816Y2294585D01*
X2792984Y2294585D01*
X2786634Y2293874D01*
X2781198Y2291943D01*
X2776270Y2288844D01*
X2772206Y2284780D01*
X2766822Y2275890D01*
X2763418Y2273503D01*
X2759354Y2272639D01*
X2681579Y2272639D01*
X2674366Y2271877D01*
X2667863Y2269744D01*
X2663596Y2267458D01*
X2660751Y2265172D01*
X2657754Y2263546D01*
X2654452Y2262987D01*
X2598369Y2262987D01*
X2592019Y2262276D01*
X2586583Y2260396D01*
X2581656Y2257298D01*
X2577592Y2253234D01*
X2574493Y2248306D01*
X2572613Y2242870D01*
X2571902Y2236520D01*
X2571902Y2157679D01*
X2572613Y2151329D01*
X2574493Y2145893D01*
X2577592Y2140966D01*
X2581656Y2136902D01*
X2586583Y2133803D01*
X2592019Y2131923D01*
X2598369Y2131212D01*
X2677210Y2131212D01*
X2683560Y2131923D01*
X2688996Y2133803D01*
X2693924Y2136902D01*
X2697988Y2140966D01*
X2701086Y2145893D01*
X2702966Y2151329D01*
X2703677Y2157679D01*
X2703677Y2197963D01*
X2704490Y2201875D01*
X2706674Y2205126D01*
X2709976Y2207361D01*
X2713837Y2208123D01*
X2759354Y2208123D01*
X2763418Y2207260D01*
X2766822Y2204872D01*
X2769260Y2200452D01*
X2769819Y2197100D01*
X2769260Y2193747D01*
X2767228Y2187854D01*
X2766517Y2181555D01*
X2766517Y2126081D01*
X2767228Y2119782D01*
X2769108Y2114346D01*
X2772206Y2109419D01*
X2776270Y2105355D01*
X2782316Y2101596D01*
X2784906Y2099310D01*
X2786583Y2096312D01*
X2787142Y2092960D01*
X2787142Y2024176D01*
X2786380Y2020265D01*
X2784144Y2016963D01*
X2779877Y2012696D01*
X2776575Y2010460D01*
X2772664Y2009698D01*
X2578100Y2009698D01*
X2571800Y2008987D01*
X2566314Y2007107D01*
X2561437Y2004009D01*
X2557322Y1999894D01*
X2554274Y1995017D01*
X2552344Y1989531D01*
X2551633Y1983232D01*
X2551633Y1915261D01*
X2550871Y1911400D01*
X2548686Y1908098D01*
X2545384Y1905863D01*
X2540508Y1905101D01*
X2536190Y1906066D01*
X2533853Y1907133D01*
X2524404Y1909673D01*
X2514600Y1910537D01*
X2504795Y1909673D01*
X2495346Y1907133D01*
X2486406Y1903018D01*
X2478379Y1897380D01*
X2471420Y1890420D01*
X2465781Y1882393D01*
X2461666Y1873453D01*
X2459126Y1864004D01*
X2458262Y1854200D01*
X2459126Y1844395D01*
X2461666Y1834946D01*
X2465781Y1826006D01*
X2471420Y1817979D01*
X2478379Y1811020D01*
X2486406Y1805381D01*
X2495346Y1801266D01*
X2504795Y1798726D01*
X2514600Y1797862D01*
X2524404Y1798726D01*
X2533853Y1801266D01*
X2536190Y1802333D01*
X2541473Y1803298D01*
X2545384Y1802536D01*
X2548686Y1800301D01*
X2550871Y1796999D01*
X2551633Y1793138D01*
X2551633Y1725168D01*
X2552344Y1718868D01*
X2554274Y1713382D01*
X2557322Y1708505D01*
X2561437Y1704390D01*
X2566314Y1701292D01*
X2571800Y1699412D01*
X2578100Y1698701D01*
X2797708Y1698701D01*
X2804058Y1699412D01*
X2809494Y1701292D01*
X2814421Y1704390D01*
X2818485Y1708505D01*
X2821584Y1713382D01*
X2823514Y1718868D01*
X2824226Y1725168D01*
X2824226Y1793138D01*
X2824988Y1796999D01*
X2827172Y1800301D01*
X2830474Y1802536D01*
X2834386Y1803298D01*
X3023362Y1803298D01*
X3027222Y1802536D01*
X3030524Y1800301D01*
X3032709Y1796999D01*
X3033522Y1793138D01*
X3032709Y1789226D01*
X3030524Y1785924D01*
X3028594Y1783994D01*
X3025495Y1779117D01*
X3023616Y1773631D01*
X3022904Y1767332D01*
X3022904Y1728063D01*
X3021990Y1723948D01*
X3019501Y1720494D01*
X3015792Y1718411D01*
X3011576Y1718005D01*
X3007512Y1719376D01*
X3004413Y1722272D01*
X3002280Y1725320D01*
X2995320Y1732280D01*
X2987294Y1737918D01*
X2978353Y1742033D01*
X2968904Y1744573D01*
X2959100Y1745437D01*
X2949295Y1744573D01*
X2939846Y1742033D01*
X2930906Y1737918D01*
X2922879Y1732280D01*
X2915920Y1725320D01*
X2910281Y1717293D01*
X2906166Y1708353D01*
X2904236Y1701190D01*
X2902762Y1697989D01*
X2900222Y1695500D01*
X2897022Y1694027D01*
X2893517Y1693722D01*
X2882900Y1694637D01*
X2873095Y1693773D01*
X2863646Y1691233D01*
X2854706Y1687118D01*
X2846679Y1681480D01*
X2839720Y1674520D01*
X2834081Y1666493D01*
X2829966Y1657553D01*
X2827426Y1648104D01*
X2826562Y1638300D01*
X2827426Y1628495D01*
X2829966Y1619046D01*
X2834081Y1610106D01*
X2839821Y1601927D01*
X2841345Y1598726D01*
X2841650Y1595221D01*
X2840736Y1591818D01*
X2838704Y1588922D01*
X2809036Y1559255D01*
X2805734Y1557020D01*
X2801823Y1556258D01*
X2680208Y1556258D01*
X2672994Y1555496D01*
X2666593Y1553413D01*
X2660650Y1550009D01*
X2656586Y1546504D01*
X2633472Y1523390D01*
X2628900Y1517751D01*
X2625852Y1511757D01*
X2624074Y1505102D01*
X2623616Y1499819D01*
X2623616Y1486001D01*
X2622804Y1481937D01*
X2620416Y1478534D01*
X2616860Y1476400D01*
X2614676Y1475638D01*
X2609799Y1472539D01*
X2605684Y1468475D01*
X2602585Y1463548D01*
X2600706Y1458112D01*
X2599994Y1451762D01*
X2599994Y1297940D01*
X2600706Y1291590D01*
X2602585Y1286154D01*
X2605684Y1281226D01*
X2609799Y1277162D01*
X2614676Y1274064D01*
X2620111Y1272133D01*
X2626461Y1271422D01*
X2685338Y1271422D01*
X2691638Y1272133D01*
X2697124Y1274064D01*
X2700477Y1276197D01*
X2704033Y1277569D01*
X2707792Y1277569D01*
X2711297Y1276197D01*
X2714701Y1274064D01*
X2720136Y1272133D01*
X2726486Y1271422D01*
X2743200Y1271422D01*
X2743200Y1362151D01*
X2721965Y1362151D01*
X2718054Y1362913D01*
X2714752Y1365148D01*
X2712567Y1368399D01*
X2711805Y1372311D01*
X2711805Y1377391D01*
X2712567Y1381302D01*
X2714752Y1384554D01*
X2718054Y1386789D01*
X2721965Y1387551D01*
X2743200Y1387551D01*
X2743200Y1481582D01*
X2743962Y1485493D01*
X2746197Y1488744D01*
X2749499Y1490980D01*
X2753360Y1491742D01*
X2758440Y1491742D01*
X2762351Y1490980D01*
X2765653Y1488744D01*
X2767838Y1485493D01*
X2768600Y1481582D01*
X2768600Y1387551D01*
X2789834Y1387551D01*
X2793746Y1386789D01*
X2797048Y1384554D01*
X2799232Y1381302D01*
X2799994Y1377391D01*
X2799994Y1372311D01*
X2799232Y1368399D01*
X2797048Y1365148D01*
X2793746Y1362913D01*
X2789834Y1362151D01*
X2768600Y1362151D01*
X2768600Y1271422D01*
X2785364Y1271422D01*
X2791663Y1272133D01*
X2797149Y1274064D01*
X2800502Y1276197D01*
X2804007Y1277569D01*
X2807817Y1277569D01*
X2811322Y1276197D01*
X2814675Y1274064D01*
X2820162Y1272133D01*
X2826461Y1271422D01*
X2885338Y1271422D01*
X2891688Y1272133D01*
X2897124Y1274064D01*
X2902000Y1277162D01*
X2906115Y1281226D01*
X2909214Y1286154D01*
X2911094Y1291590D01*
X2911805Y1297940D01*
X2911805Y1451762D01*
X2911094Y1458112D01*
X2909976Y1463497D01*
X2910789Y1467205D01*
X2912922Y1470304D01*
X2981553Y1538935D01*
X2986125Y1544574D01*
X2989173Y1550568D01*
X2990951Y1557172D01*
X2991358Y1562506D01*
X2991358Y1637893D01*
X2992120Y1641805D01*
X2994355Y1645107D01*
X3002280Y1652930D01*
X3004413Y1655927D01*
X3007512Y1658823D01*
X3011576Y1660194D01*
X3015792Y1659788D01*
X3019501Y1657705D01*
X3021990Y1654251D01*
X3022904Y1650136D01*
X3022904Y1521968D01*
X3023616Y1515668D01*
X3025495Y1510182D01*
X3028594Y1505305D01*
X3032709Y1501190D01*
X3037586Y1498092D01*
X3043072Y1496212D01*
X3049371Y1495501D01*
X3126130Y1495501D01*
X3130092Y1494688D01*
X3133445Y1492402D01*
X3135630Y1488948D01*
X3136290Y1484985D01*
X3132226Y1470304D01*
X3131362Y1460500D01*
X3132226Y1450695D01*
X3134766Y1441246D01*
X3138881Y1432306D01*
X3144520Y1424279D01*
X3151479Y1417320D01*
X3159506Y1411681D01*
X3168446Y1407566D01*
X3177895Y1405026D01*
X3187700Y1404162D01*
X3197504Y1405026D01*
X3211779Y1408887D01*
X3215741Y1408226D01*
X3219196Y1406042D01*
X3221482Y1402689D01*
X3222294Y1398727D01*
X3222294Y1297940D01*
X3223006Y1291590D01*
X3224885Y1286154D01*
X3227984Y1281226D01*
X3232099Y1277162D01*
X3236976Y1274064D01*
X3242411Y1272133D01*
X3248761Y1271422D01*
X3307638Y1271422D01*
X3313937Y1272133D01*
X3319424Y1274064D01*
X3322777Y1276197D01*
X3326333Y1277569D01*
X3330092Y1277569D01*
X3333597Y1276197D01*
X3337001Y1274064D01*
X3342436Y1272133D01*
X3348786Y1271422D01*
X3365500Y1271422D01*
X3365500Y1362151D01*
X3344265Y1362151D01*
X3340354Y1362913D01*
X3337051Y1365148D01*
X3334867Y1368399D01*
X3334105Y1372311D01*
X3334105Y1377391D01*
X3334867Y1381302D01*
X3337051Y1384554D01*
X3340354Y1386789D01*
X3344265Y1387551D01*
X3365500Y1387551D01*
X3365500Y1485341D01*
X3366262Y1489202D01*
X3368497Y1492504D01*
X3371799Y1494739D01*
X3375660Y1495501D01*
X3380740Y1495501D01*
X3384651Y1494739D01*
X3387953Y1492504D01*
X3390137Y1489202D01*
X3390900Y1485341D01*
X3390900Y1387551D01*
X3412134Y1387551D01*
X3416046Y1386789D01*
X3419348Y1384554D01*
X3421532Y1381302D01*
X3422294Y1377391D01*
X3422294Y1372311D01*
X3421532Y1368399D01*
X3419348Y1365148D01*
X3416046Y1362913D01*
X3412134Y1362151D01*
X3390900Y1362151D01*
X3390900Y1271422D01*
X3407664Y1271422D01*
X3413963Y1272133D01*
X3419449Y1274064D01*
X3422802Y1276197D01*
X3426307Y1277569D01*
X3430117Y1277569D01*
X3433622Y1276197D01*
X3436975Y1274064D01*
X3442462Y1272133D01*
X3448761Y1271422D01*
X3507638Y1271422D01*
X3513988Y1272133D01*
X3519424Y1274064D01*
X3524300Y1277162D01*
X3528415Y1281226D01*
X3531514Y1286154D01*
X3533394Y1291590D01*
X3534105Y1297940D01*
X3534105Y1451762D01*
X3533394Y1458112D01*
X3531514Y1463548D01*
X3528466Y1468424D01*
X3523234Y1473504D01*
X3521151Y1476451D01*
X3520236Y1479905D01*
X3520541Y1483461D01*
X3522065Y1486662D01*
X3528618Y1495856D01*
X3532733Y1504746D01*
X3535273Y1514195D01*
X3536137Y1524000D01*
X3535273Y1533804D01*
X3532733Y1543253D01*
X3528618Y1552194D01*
X3522979Y1560220D01*
X3516020Y1567180D01*
X3507994Y1572818D01*
X3499053Y1576933D01*
X3489604Y1579473D01*
X3479800Y1580337D01*
X3469995Y1579473D01*
X3460546Y1576933D01*
X3451606Y1572818D01*
X3444697Y1567942D01*
X3440633Y1566265D01*
X3436213Y1566468D01*
X3432352Y1568500D01*
X3429660Y1571955D01*
X3428695Y1576273D01*
X3428695Y1767332D01*
X3427984Y1773631D01*
X3426104Y1779117D01*
X3423005Y1783994D01*
X3418890Y1788109D01*
X3414014Y1791207D01*
X3408527Y1793087D01*
X3402228Y1793798D01*
X3108096Y1793798D01*
X3103981Y1794662D01*
X3100578Y1797100D01*
X3098444Y1800707D01*
X3097987Y1804873D01*
X3099206Y1808886D01*
X3101949Y1812086D01*
X3106115Y1815236D01*
X3109569Y1818335D01*
X3261664Y1970430D01*
X3264814Y1973884D01*
X3267506Y1977389D01*
X3269894Y1981149D01*
X3271926Y1985111D01*
X3273653Y1989175D01*
X3274974Y1993442D01*
X3275939Y1997760D01*
X3276498Y2002180D01*
X3276701Y2006803D01*
X3276701Y2057907D01*
X3277565Y2061972D01*
X3279952Y2065375D01*
X3283508Y2067509D01*
X3289503Y2069592D01*
X3294430Y2072690D01*
X3298494Y2076805D01*
X3301593Y2081682D01*
X3303473Y2087168D01*
X3304184Y2093468D01*
X3304184Y2338984D01*
X3304997Y2342896D01*
X3307181Y2346198D01*
X3337864Y2376830D01*
X3340862Y2380132D01*
X3345129Y2386279D01*
X3347415Y2388565D01*
X3350260Y2390089D01*
X3353460Y2390597D01*
X3371443Y2390597D01*
X3377742Y2391308D01*
X3383178Y2393238D01*
X3388106Y2396286D01*
X3392170Y2400401D01*
X3395268Y2405278D01*
X3397199Y2410764D01*
X3397910Y2417064D01*
X3397910Y2491232D01*
X3398469Y2494584D01*
X3400450Y2500325D01*
X3401618Y2505964D01*
X3402837Y2509164D01*
X3405124Y2511806D01*
X3408121Y2513482D01*
X3411575Y2514092D01*
X3446272Y2514092D01*
X3450539Y2513126D01*
X3453993Y2510485D01*
X3456076Y2506624D01*
X3459734Y2493213D01*
X3460089Y2489200D01*
X3543300Y2489200D01*
X3543300Y2503932D01*
X3544062Y2507843D01*
X3546297Y2511094D01*
X3549548Y2513330D01*
X3553460Y2514092D01*
X3558540Y2514092D01*
X3562451Y2513330D01*
X3565702Y2511094D01*
X3567937Y2507843D01*
X3568700Y2503932D01*
X3568700Y2489200D01*
X3651910Y2489200D01*
X3652469Y2494584D01*
X3654450Y2500325D01*
X3655618Y2505964D01*
X3656837Y2509164D01*
X3659124Y2511806D01*
X3662121Y2513482D01*
X3665575Y2514092D01*
X3700272Y2514092D01*
X3704539Y2513126D01*
X3707993Y2510485D01*
X3710076Y2506624D01*
X3713734Y2493213D01*
X3714089Y2490571D01*
X3714089Y2417064D01*
X3714800Y2410764D01*
X3716680Y2405278D01*
X3719779Y2400401D01*
X3723894Y2396286D01*
X3728770Y2393238D01*
X3734257Y2391308D01*
X3740556Y2390597D01*
X3748938Y2390597D01*
X3752799Y2389835D01*
X3756101Y2387600D01*
X3758336Y2384298D01*
X3759098Y2380437D01*
X3759098Y2271826D01*
X3758336Y2267966D01*
X3756101Y2264664D01*
X3752799Y2262479D01*
X3748938Y2261666D01*
X3737610Y2261666D01*
X3737610Y2208479D01*
X3748938Y2208479D01*
X3752799Y2207717D01*
X3756101Y2205482D01*
X3758336Y2202180D01*
X3759098Y2198319D01*
X3759098Y2193239D01*
X3758336Y2189327D01*
X3756101Y2186025D01*
X3752799Y2183841D01*
X3748938Y2183079D01*
X3737610Y2183079D01*
X3737610Y2129840D01*
X3748938Y2129840D01*
X3752799Y2129078D01*
X3756101Y2126894D01*
X3758336Y2123592D01*
X3759098Y2119680D01*
X3759098Y1942744D01*
X3758336Y1938832D01*
X3756101Y1935530D01*
X3752799Y1933346D01*
X3748938Y1932584D01*
X3635603Y1932584D01*
X3629304Y1931873D01*
X3623818Y1929942D01*
X3618941Y1926894D01*
X3614826Y1922780D01*
X3611778Y1917903D01*
X3609848Y1912416D01*
X3609136Y1906117D01*
X3609136Y1766570D01*
X3609848Y1760270D01*
X3611778Y1754784D01*
X3614826Y1749907D01*
X3618941Y1745792D01*
X3623818Y1742693D01*
X3629304Y1740814D01*
X3635603Y1740103D01*
X3984396Y1740103D01*
X3990695Y1740814D01*
X3996182Y1742693D01*
X4001058Y1745792D01*
X4005173Y1749907D01*
X4008221Y1754784D01*
X4010151Y1760270D01*
X4010863Y1766570D01*
X4010863Y1906117D01*
X4010151Y1912416D01*
X4008221Y1917903D01*
X4005173Y1922780D01*
X4001058Y1926894D01*
X3996182Y1929942D01*
X3990695Y1931873D01*
X3984396Y1932584D01*
X3871061Y1932584D01*
X3867200Y1933346D01*
X3863898Y1935530D01*
X3861663Y1938832D01*
X3860901Y1943506D01*
X3861663Y1947418D01*
X3863898Y1950720D01*
X3867200Y1952904D01*
X3871061Y1953666D01*
X3908755Y1953666D01*
X3915054Y1954428D01*
X3920947Y1956460D01*
X3924300Y1957019D01*
X3927652Y1956460D01*
X3933545Y1954428D01*
X3939844Y1953666D01*
X3995318Y1953666D01*
X4001617Y1954428D01*
X4007053Y1956307D01*
X4011980Y1959406D01*
X4016044Y1963470D01*
X4019346Y1968652D01*
X4022344Y1971751D01*
X4026408Y1973325D01*
X4030726Y1973021D01*
X4034536Y1970989D01*
X4037177Y1967484D01*
X4038092Y1963267D01*
X4038092Y925068D01*
X4037329Y921156D01*
X4035094Y917905D01*
X4031843Y915669D01*
X4027932Y914908D01*
X3719271Y914908D01*
X3715410Y915669D01*
X3712108Y917905D01*
X3709873Y921156D01*
X3709111Y925068D01*
X3709111Y974648D01*
X3620922Y974648D01*
X3620922Y925068D01*
X3620160Y921156D01*
X3617925Y917905D01*
X3614623Y915669D01*
X3610762Y914908D01*
X3605682Y914908D01*
X3601770Y915669D01*
X3598468Y917905D01*
X3596284Y921156D01*
X3595522Y925068D01*
X3595522Y974648D01*
X3507282Y974648D01*
X3507282Y925068D01*
X3506520Y921156D01*
X3504336Y917905D01*
X3501034Y915669D01*
X3497122Y914908D01*
X3259277Y914908D01*
X3255365Y915669D01*
X3252063Y917905D01*
X3249879Y921156D01*
X3249117Y925068D01*
X3249117Y974648D01*
X3160877Y974648D01*
X3160877Y925068D01*
X3160115Y921156D01*
X3157931Y917905D01*
X3154629Y915669D01*
X3150717Y914908D01*
X3145637Y914908D01*
X3141776Y915669D01*
X3138474Y917905D01*
X3136239Y921156D01*
X3135477Y925068D01*
X3135477Y974648D01*
X2998622Y974648D01*
X2998622Y925068D01*
X2997860Y921156D01*
X2995625Y917905D01*
X2992323Y915669D01*
X2988462Y914908D01*
X2983382Y914908D01*
X2979470Y915669D01*
X2976168Y917905D01*
X2973984Y921156D01*
X2973222Y925068D01*
X2973222Y974648D01*
X2884982Y974648D01*
X2884982Y925068D01*
X2884220Y921156D01*
X2882036Y917905D01*
X2878734Y915669D01*
X2874822Y914908D01*
X2636977Y914908D01*
X2633065Y915669D01*
X2629763Y917905D01*
X2627579Y921156D01*
X2626817Y925068D01*
X2626817Y974648D01*
X2538577Y974648D01*
X2538577Y925068D01*
X2537815Y921156D01*
X2535631Y917905D01*
X2532329Y915669D01*
X2528417Y914908D01*
X2523337Y914908D01*
X2519476Y915669D01*
X2516174Y917905D01*
X2513939Y921156D01*
X2513177Y925068D01*
X2513177Y974648D01*
X2424988Y974648D01*
X2424988Y925068D01*
X2424226Y921156D01*
X2421991Y917905D01*
X2418689Y915669D01*
X2414828Y914908D01*
G37*

%LPC*%
G36*
X3403854Y2067001D02*
G01*
X3443122Y2067001D01*
X3443122Y2203450D01*
X3377387Y2203450D01*
X3377387Y2093468D01*
X3378098Y2087168D01*
X3380028Y2081682D01*
X3383076Y2076805D01*
X3387191Y2072690D01*
X3392068Y2069592D01*
X3397554Y2067712D01*
G37*
G36*
X3860800Y979017D02*
G01*
X3875989Y979932D01*
X3890924Y982675D01*
X3905453Y987196D01*
X3919321Y993444D01*
X3932326Y1001318D01*
X3944264Y1010666D01*
X3955034Y1021435D01*
X3964381Y1033373D01*
X3972255Y1046378D01*
X3978503Y1060246D01*
X3983024Y1074775D01*
X3985768Y1089710D01*
X3986682Y1104900D01*
X3985768Y1120089D01*
X3983024Y1135024D01*
X3978503Y1149553D01*
X3972255Y1163421D01*
X3964381Y1176426D01*
X3955034Y1188364D01*
X3944264Y1199134D01*
X3932326Y1208481D01*
X3919321Y1216355D01*
X3905453Y1222603D01*
X3890924Y1227124D01*
X3875989Y1229868D01*
X3860800Y1230782D01*
X3845610Y1229868D01*
X3830675Y1227124D01*
X3816146Y1222603D01*
X3802278Y1216355D01*
X3789273Y1208481D01*
X3777335Y1199134D01*
X3766565Y1188364D01*
X3757218Y1176426D01*
X3749344Y1163421D01*
X3743096Y1149553D01*
X3738575Y1135024D01*
X3735832Y1120089D01*
X3734917Y1104900D01*
X3735832Y1089710D01*
X3738575Y1074775D01*
X3743096Y1060246D01*
X3749344Y1046378D01*
X3757218Y1033373D01*
X3766565Y1021435D01*
X3777335Y1010666D01*
X3789273Y1001318D01*
X3802278Y993444D01*
X3816146Y987196D01*
X3830675Y982675D01*
X3845610Y979932D01*
G37*
G36*
X3685489Y2129840D02*
G01*
X3712210Y2129840D01*
X3712210Y2183079D01*
X3659022Y2183079D01*
X3659022Y2156358D01*
X3659733Y2150008D01*
X3661613Y2144572D01*
X3664712Y2139645D01*
X3668776Y2135581D01*
X3673703Y2132482D01*
X3679139Y2130602D01*
G37*
G36*
X3468522Y2067001D02*
G01*
X3507740Y2067001D01*
X3514039Y2067712D01*
X3519525Y2069592D01*
X3524402Y2072690D01*
X3528517Y2076805D01*
X3531565Y2081682D01*
X3533495Y2087168D01*
X3534206Y2093468D01*
X3534206Y2203450D01*
X3468522Y2203450D01*
G37*
G36*
X2202281Y963066D02*
G01*
X2217318Y963066D01*
X2223617Y963828D01*
X2229053Y965708D01*
X2233980Y968806D01*
X2238044Y972870D01*
X2241143Y977798D01*
X2243074Y983234D01*
X2243785Y989584D01*
X2243785Y1003300D01*
X2202281Y1003300D01*
G37*
G36*
X3160877Y1000048D02*
G01*
X3249117Y1000048D01*
X3249117Y1086764D01*
X3248406Y1093114D01*
X3246475Y1098550D01*
X3243376Y1103477D01*
X3239312Y1107541D01*
X3234385Y1110640D01*
X3228949Y1112520D01*
X3222599Y1113231D01*
X3160877Y1113231D01*
G37*
G36*
X2424988Y1000048D02*
G01*
X2513177Y1000048D01*
X2513177Y1113231D01*
X2451455Y1113231D01*
X2445156Y1112520D01*
X2439670Y1110640D01*
X2434793Y1107541D01*
X2430678Y1103477D01*
X2427630Y1098550D01*
X2425700Y1093114D01*
X2424988Y1086764D01*
G37*
G36*
X3620922Y1000048D02*
G01*
X3709111Y1000048D01*
X3709111Y1086764D01*
X3708400Y1093114D01*
X3706469Y1098550D01*
X3703421Y1103477D01*
X3699306Y1107541D01*
X3694429Y1110640D01*
X3688943Y1112520D01*
X3682644Y1113231D01*
X3620922Y1113231D01*
G37*
G36*
X2538577Y1000048D02*
G01*
X2626817Y1000048D01*
X2626817Y1086764D01*
X2626106Y1093114D01*
X2624175Y1098550D01*
X2621076Y1103477D01*
X2617012Y1107541D01*
X2612085Y1110640D01*
X2606649Y1112520D01*
X2600299Y1113231D01*
X2538577Y1113231D01*
G37*
G36*
X3507282Y1000048D02*
G01*
X3595522Y1000048D01*
X3595522Y1113231D01*
X3533800Y1113231D01*
X3527450Y1112520D01*
X3522014Y1110640D01*
X3517087Y1107541D01*
X3513023Y1103477D01*
X3509924Y1098550D01*
X3507994Y1093114D01*
X3507282Y1086764D01*
G37*
G36*
X2884982Y1000048D02*
G01*
X2973222Y1000048D01*
X2973222Y1113231D01*
X2911500Y1113231D01*
X2905150Y1112520D01*
X2899714Y1110640D01*
X2894787Y1107541D01*
X2890723Y1103477D01*
X2887624Y1098550D01*
X2885694Y1093114D01*
X2884982Y1086764D01*
G37*
G36*
X2998622Y1000048D02*
G01*
X3135477Y1000048D01*
X3135477Y1113231D01*
X3073755Y1113231D01*
X3068167Y1112621D01*
X3065932Y1112621D01*
X3060344Y1113231D01*
X2998622Y1113231D01*
G37*
G36*
X2244699Y1077315D02*
G01*
X2281631Y1077315D01*
X2293315Y1078179D01*
X2304338Y1080668D01*
X2314905Y1084834D01*
X2324709Y1090523D01*
X2333599Y1097584D01*
X2341321Y1105865D01*
X2347722Y1115263D01*
X2352598Y1125474D01*
X2355951Y1136294D01*
X2356612Y1140510D01*
X2244699Y1140510D01*
G37*
G36*
X1782368Y1077315D02*
G01*
X1819300Y1077315D01*
X1819300Y1140510D01*
X1707388Y1140510D01*
X1707997Y1136294D01*
X1711350Y1125474D01*
X1716278Y1115263D01*
X1722678Y1105865D01*
X1730400Y1097584D01*
X1739239Y1090523D01*
X1749043Y1084834D01*
X1759610Y1080668D01*
X1770684Y1078179D01*
G37*
G36*
X2480310Y2131212D02*
G01*
X2507030Y2131212D01*
X2513380Y2131923D01*
X2518816Y2133803D01*
X2523744Y2136902D01*
X2527808Y2140966D01*
X2530906Y2145893D01*
X2532786Y2151329D01*
X2533497Y2157679D01*
X2533497Y2184400D01*
X2480310Y2184400D01*
G37*
G36*
X1846681Y963066D02*
G01*
X1861718Y963066D01*
X1861718Y1003300D01*
X1820214Y1003300D01*
X1820214Y989584D01*
X1820925Y983234D01*
X1822856Y977798D01*
X1825955Y972870D01*
X1830019Y968806D01*
X1834946Y965708D01*
X1840382Y963828D01*
G37*
G36*
X1694281Y1216812D02*
G01*
X1694281Y1263497D01*
X1647647Y1263497D01*
X1649425Y1256436D01*
X1653438Y1247241D01*
X1658924Y1238808D01*
X1665782Y1231392D01*
X1673707Y1225245D01*
X1682546Y1220470D01*
X1692046Y1217168D01*
G37*
G36*
X2369667Y1288897D02*
G01*
X2416352Y1288897D01*
X2414574Y1295958D01*
X2410510Y1305153D01*
X2405024Y1313586D01*
X2398217Y1321003D01*
X2390292Y1327150D01*
X2381453Y1331925D01*
X2371953Y1335227D01*
X2369667Y1335582D01*
G37*
G36*
X1647647Y1288897D02*
G01*
X1694281Y1288897D01*
X1694281Y1335582D01*
X1692046Y1335227D01*
X1682546Y1331925D01*
X1673707Y1327150D01*
X1665782Y1321003D01*
X1658924Y1313586D01*
X1653438Y1305153D01*
X1649425Y1295958D01*
G37*
G36*
X3810000Y1289862D02*
G01*
X3819804Y1290726D01*
X3829253Y1293266D01*
X3838194Y1297381D01*
X3846220Y1303020D01*
X3853179Y1309979D01*
X3858818Y1318006D01*
X3862933Y1326946D01*
X3865473Y1336395D01*
X3866337Y1346200D01*
X3865016Y1360322D01*
X3866083Y1363878D01*
X3868318Y1366824D01*
X3871468Y1368755D01*
X3875125Y1369415D01*
X3984396Y1369415D01*
X3990695Y1370126D01*
X3996182Y1372057D01*
X4001058Y1375105D01*
X4005173Y1379220D01*
X4008221Y1384096D01*
X4010151Y1389583D01*
X4010863Y1395882D01*
X4010863Y1535430D01*
X4010151Y1541729D01*
X4008221Y1547215D01*
X4005173Y1552092D01*
X4001058Y1556207D01*
X3996182Y1559306D01*
X3990695Y1561185D01*
X3984396Y1561896D01*
X3834688Y1561896D01*
X3830370Y1562862D01*
X3827373Y1564233D01*
X3818839Y1566570D01*
X3810000Y1567332D01*
X3801160Y1566570D01*
X3792626Y1564233D01*
X3789629Y1562862D01*
X3785311Y1561896D01*
X3635603Y1561896D01*
X3629304Y1561185D01*
X3623818Y1559306D01*
X3618941Y1556207D01*
X3614826Y1552092D01*
X3611778Y1547215D01*
X3609848Y1541729D01*
X3609136Y1535430D01*
X3609136Y1395882D01*
X3609848Y1389583D01*
X3611778Y1384096D01*
X3614826Y1379220D01*
X3618941Y1375105D01*
X3623818Y1372057D01*
X3629304Y1370126D01*
X3635603Y1369415D01*
X3744874Y1369415D01*
X3748532Y1368755D01*
X3751681Y1366824D01*
X3753916Y1363878D01*
X3754983Y1360322D01*
X3753662Y1346200D01*
X3754526Y1336395D01*
X3757066Y1326946D01*
X3761181Y1318006D01*
X3766820Y1309979D01*
X3773779Y1303020D01*
X3781806Y1297381D01*
X3790746Y1293266D01*
X3800195Y1290726D01*
G37*
G36*
X3659022Y2208479D02*
G01*
X3712210Y2208479D01*
X3712210Y2261666D01*
X3685489Y2261666D01*
X3679139Y2260955D01*
X3673703Y2259076D01*
X3668776Y2255977D01*
X3664712Y2251862D01*
X3661613Y2246985D01*
X3659733Y2241550D01*
X3659022Y2235200D01*
G37*
G36*
X2369667Y1356817D02*
G01*
X2371953Y1357172D01*
X2381453Y1360474D01*
X2390292Y1365250D01*
X2398217Y1371396D01*
X2405024Y1378813D01*
X2410510Y1387246D01*
X2414574Y1396441D01*
X2416352Y1403502D01*
X2369667Y1403502D01*
G37*
G36*
X1694281Y1356817D02*
G01*
X1694281Y1403502D01*
X1647647Y1403502D01*
X1649425Y1396441D01*
X1653438Y1387246D01*
X1658924Y1378813D01*
X1665782Y1371396D01*
X1673707Y1365250D01*
X1682546Y1360474D01*
X1692046Y1357172D01*
G37*
G36*
X2369667Y1428902D02*
G01*
X2416352Y1428902D01*
X2414574Y1435963D01*
X2410510Y1445158D01*
X2405024Y1453591D01*
X2398217Y1461008D01*
X2390292Y1467154D01*
X2381453Y1471930D01*
X2371953Y1475232D01*
X2369667Y1475587D01*
G37*
G36*
X1647545Y1428902D02*
G01*
X1694281Y1428902D01*
X1694281Y1475587D01*
X1692046Y1475232D01*
X1682546Y1471930D01*
X1673707Y1467154D01*
X1665782Y1461008D01*
X1658924Y1453591D01*
X1653438Y1445158D01*
X1649425Y1435963D01*
G37*
G36*
X1887118Y963066D02*
G01*
X1902155Y963066D01*
X1908454Y963828D01*
X1914347Y965860D01*
X1917700Y966419D01*
X1921052Y965860D01*
X1926945Y963828D01*
X1933244Y963066D01*
X1988718Y963066D01*
X1995017Y963828D01*
X2000453Y965708D01*
X2005380Y968806D01*
X2009444Y972870D01*
X2012543Y977798D01*
X2014474Y983234D01*
X2015185Y989584D01*
X2015185Y1042416D01*
X2014474Y1048766D01*
X2012543Y1054201D01*
X2009444Y1059129D01*
X2005380Y1063193D01*
X1996389Y1068628D01*
X1994001Y1071981D01*
X1993138Y1076045D01*
X1993138Y1207109D01*
X1993747Y1210614D01*
X1995525Y1213662D01*
X1998268Y1215948D01*
X2011425Y1220470D01*
X2020265Y1225245D01*
X2025751Y1229512D01*
X2029764Y1231392D01*
X2034235Y1231392D01*
X2038248Y1229512D01*
X2043734Y1225245D01*
X2052574Y1220470D01*
X2066340Y1215796D01*
X2069134Y1213307D01*
X2070862Y1209954D01*
X2071268Y1206246D01*
X2070862Y1201013D01*
X2070862Y1076045D01*
X2069998Y1071981D01*
X2067610Y1068628D01*
X2058619Y1063193D01*
X2054555Y1059129D01*
X2051456Y1054201D01*
X2049525Y1048766D01*
X2048814Y1042416D01*
X2048814Y989584D01*
X2049525Y983234D01*
X2051456Y977798D01*
X2054555Y972870D01*
X2058619Y968806D01*
X2063546Y965708D01*
X2068982Y963828D01*
X2075281Y963066D01*
X2130755Y963066D01*
X2137054Y963828D01*
X2142947Y965860D01*
X2146300Y966419D01*
X2149652Y965860D01*
X2155545Y963828D01*
X2161844Y963066D01*
X2176881Y963066D01*
X2176881Y1003300D01*
X2167382Y1003300D01*
X2163470Y1004062D01*
X2160168Y1006297D01*
X2157984Y1009548D01*
X2157222Y1013460D01*
X2157222Y1018540D01*
X2157984Y1022451D01*
X2160168Y1025702D01*
X2163470Y1027937D01*
X2167382Y1028700D01*
X2176881Y1028700D01*
X2176881Y1079042D01*
X2177643Y1082954D01*
X2179878Y1086256D01*
X2183130Y1088440D01*
X2187041Y1089202D01*
X2192121Y1089202D01*
X2196033Y1088440D01*
X2199284Y1086256D01*
X2201519Y1082954D01*
X2202281Y1079042D01*
X2202281Y1028700D01*
X2243785Y1028700D01*
X2243785Y1042416D01*
X2243074Y1048766D01*
X2241143Y1054201D01*
X2238756Y1058011D01*
X2234539Y1056995D01*
X2229459Y1056995D01*
X2225548Y1057757D01*
X2222246Y1059942D01*
X2220061Y1063244D01*
X2219299Y1067155D01*
X2219299Y1140510D01*
X2145538Y1140510D01*
X2141626Y1141272D01*
X2138375Y1143457D01*
X2136140Y1146759D01*
X2135378Y1150670D01*
X2135378Y1155750D01*
X2136140Y1159611D01*
X2138375Y1162913D01*
X2141626Y1165148D01*
X2145538Y1165910D01*
X2219299Y1165910D01*
X2219299Y1213307D01*
X2220112Y1217320D01*
X2222449Y1220673D01*
X2225954Y1222806D01*
X2230018Y1223416D01*
X2233980Y1222400D01*
X2239060Y1219860D01*
X2242058Y1217574D01*
X2243988Y1214424D01*
X2244699Y1210767D01*
X2244699Y1165910D01*
X2356612Y1165910D01*
X2355951Y1170076D01*
X2352598Y1180947D01*
X2347722Y1191158D01*
X2341778Y1199794D01*
X2340254Y1203401D01*
X2340203Y1207312D01*
X2341575Y1210970D01*
X2344267Y1213815D01*
X2344267Y1263497D01*
X2332888Y1263497D01*
X2328976Y1264259D01*
X2325674Y1266494D01*
X2323490Y1269746D01*
X2322728Y1273657D01*
X2322728Y1278737D01*
X2323490Y1282649D01*
X2325674Y1285900D01*
X2328976Y1288135D01*
X2332888Y1288897D01*
X2344267Y1288897D01*
X2344267Y1335582D01*
X2342032Y1335227D01*
X2332532Y1331925D01*
X2323693Y1327150D01*
X2315718Y1320952D01*
X2311704Y1319072D01*
X2307285Y1319072D01*
X2303272Y1320952D01*
X2295296Y1327150D01*
X2286457Y1331925D01*
X2276957Y1335227D01*
X2271166Y1336192D01*
X2267356Y1337614D01*
X2264460Y1340459D01*
X2262886Y1344168D01*
X2262886Y1348232D01*
X2264460Y1351940D01*
X2267356Y1354785D01*
X2271166Y1356207D01*
X2276957Y1357172D01*
X2286457Y1360474D01*
X2295296Y1365250D01*
X2303272Y1371447D01*
X2307285Y1373327D01*
X2311704Y1373327D01*
X2315718Y1371447D01*
X2323693Y1365250D01*
X2332532Y1360474D01*
X2342032Y1357172D01*
X2344267Y1356817D01*
X2344267Y1403502D01*
X2332888Y1403502D01*
X2328976Y1404264D01*
X2325674Y1406448D01*
X2323490Y1409750D01*
X2322728Y1413662D01*
X2322728Y1418742D01*
X2323490Y1422603D01*
X2325674Y1425905D01*
X2328976Y1428140D01*
X2332888Y1428902D01*
X2344267Y1428902D01*
X2344267Y1478584D01*
X2341575Y1481429D01*
X2340203Y1485087D01*
X2340254Y1488998D01*
X2341778Y1492605D01*
X2347722Y1501241D01*
X2352598Y1511452D01*
X2355951Y1522323D01*
X2356612Y1526489D01*
X2244699Y1526489D01*
X2244699Y1481632D01*
X2243988Y1477975D01*
X2242058Y1474825D01*
X2239060Y1472539D01*
X2233980Y1469999D01*
X2230018Y1468983D01*
X2225954Y1469542D01*
X2222449Y1471726D01*
X2220112Y1475079D01*
X2219299Y1479092D01*
X2219299Y1526489D01*
X2107387Y1526489D01*
X2107996Y1522323D01*
X2111349Y1511452D01*
X2116277Y1501241D01*
X2122678Y1491894D01*
X2130399Y1483563D01*
X2132380Y1481988D01*
X2134768Y1479245D01*
X2136038Y1475841D01*
X2135987Y1472184D01*
X2134717Y1468780D01*
X2132279Y1466037D01*
X2128266Y1462887D01*
X2124202Y1461008D01*
X2119782Y1461008D01*
X2115769Y1462887D01*
X2110282Y1467154D01*
X2101443Y1471930D01*
X2091943Y1475232D01*
X2082038Y1476857D01*
X2071979Y1476857D01*
X2062073Y1475232D01*
X2052574Y1471930D01*
X2043734Y1467154D01*
X2038248Y1462887D01*
X2034235Y1461008D01*
X2029764Y1461008D01*
X2025751Y1462887D01*
X2020265Y1467154D01*
X2011425Y1471930D01*
X2001926Y1475232D01*
X1992020Y1476857D01*
X1981962Y1476857D01*
X1972056Y1475232D01*
X1962556Y1471930D01*
X1953717Y1467154D01*
X1945792Y1461008D01*
X1938934Y1453591D01*
X1933448Y1445158D01*
X1929434Y1435963D01*
X1926945Y1426210D01*
X1926132Y1416202D01*
X1926945Y1406194D01*
X1929434Y1396441D01*
X1933448Y1387246D01*
X1938934Y1378813D01*
X1945792Y1371396D01*
X1953717Y1365250D01*
X1962556Y1360474D01*
X1972056Y1357172D01*
X1977847Y1356207D01*
X1981657Y1354785D01*
X1984552Y1351940D01*
X1986127Y1348232D01*
X1986127Y1344168D01*
X1984552Y1340459D01*
X1981657Y1337614D01*
X1977847Y1336192D01*
X1972056Y1335227D01*
X1962556Y1331925D01*
X1953717Y1327150D01*
X1948230Y1322882D01*
X1944217Y1321003D01*
X1939798Y1321003D01*
X1935734Y1322882D01*
X1930298Y1327150D01*
X1921459Y1331925D01*
X1911959Y1335227D01*
X1902002Y1336852D01*
X1891944Y1336852D01*
X1882038Y1335227D01*
X1872538Y1331925D01*
X1863699Y1327150D01*
X1855724Y1320952D01*
X1851710Y1319072D01*
X1847291Y1319072D01*
X1843227Y1320952D01*
X1835302Y1327150D01*
X1826463Y1331925D01*
X1816912Y1335227D01*
X1811121Y1336192D01*
X1807362Y1337614D01*
X1804416Y1340459D01*
X1802841Y1344168D01*
X1802841Y1348232D01*
X1804416Y1351940D01*
X1807362Y1354785D01*
X1811121Y1356207D01*
X1816912Y1357172D01*
X1826463Y1360474D01*
X1835302Y1365250D01*
X1843227Y1371396D01*
X1850034Y1378813D01*
X1855520Y1387246D01*
X1859584Y1396441D01*
X1862023Y1406194D01*
X1862886Y1416202D01*
X1862023Y1426210D01*
X1859584Y1435963D01*
X1855520Y1445158D01*
X1853946Y1447596D01*
X1852422Y1451610D01*
X1852675Y1455928D01*
X1854758Y1459738D01*
X1858213Y1462379D01*
X1862480Y1463294D01*
X1881632Y1463294D01*
X1893316Y1464157D01*
X1904339Y1466697D01*
X1914906Y1470812D01*
X1924710Y1476502D01*
X1933600Y1483563D01*
X1941322Y1491894D01*
X1947722Y1501241D01*
X1952599Y1511452D01*
X1955952Y1522323D01*
X1956612Y1526489D01*
X1844700Y1526489D01*
X1844700Y1479143D01*
X1843836Y1475079D01*
X1841500Y1471726D01*
X1837994Y1469593D01*
X1833981Y1468983D01*
X1829968Y1470050D01*
X1824888Y1472539D01*
X1821942Y1474825D01*
X1819960Y1477975D01*
X1819300Y1481632D01*
X1819300Y1526489D01*
X1710943Y1526489D01*
X1706524Y1527606D01*
X1707642Y1524812D01*
X1707997Y1522323D01*
X1711350Y1511452D01*
X1716278Y1501241D01*
X1722170Y1492605D01*
X1723745Y1488998D01*
X1723796Y1485087D01*
X1722374Y1481429D01*
X1719681Y1478584D01*
X1719681Y1428902D01*
X1731111Y1428902D01*
X1735023Y1428140D01*
X1738325Y1425905D01*
X1740509Y1422603D01*
X1741271Y1418742D01*
X1741271Y1413662D01*
X1740509Y1409750D01*
X1738325Y1406499D01*
X1735023Y1404264D01*
X1731111Y1403502D01*
X1719681Y1403502D01*
X1719681Y1356817D01*
X1721916Y1357172D01*
X1731416Y1360474D01*
X1740306Y1365250D01*
X1748231Y1371447D01*
X1752244Y1373327D01*
X1756714Y1373327D01*
X1760728Y1371447D01*
X1768703Y1365250D01*
X1777542Y1360474D01*
X1787042Y1357172D01*
X1792833Y1356207D01*
X1796643Y1354785D01*
X1799539Y1351940D01*
X1801114Y1348232D01*
X1801114Y1344168D01*
X1799539Y1340459D01*
X1796643Y1337614D01*
X1792833Y1336192D01*
X1787042Y1335227D01*
X1777542Y1331925D01*
X1768703Y1327150D01*
X1760728Y1320952D01*
X1756714Y1319072D01*
X1752244Y1319072D01*
X1748231Y1320952D01*
X1740306Y1327150D01*
X1731416Y1331925D01*
X1721916Y1335227D01*
X1719681Y1335582D01*
X1719681Y1288897D01*
X1731111Y1288897D01*
X1735023Y1288135D01*
X1738325Y1285900D01*
X1740509Y1282649D01*
X1741271Y1278737D01*
X1741271Y1273657D01*
X1740509Y1269746D01*
X1738325Y1266494D01*
X1735023Y1264259D01*
X1731111Y1263497D01*
X1719681Y1263497D01*
X1719681Y1213815D01*
X1722374Y1210970D01*
X1723796Y1207312D01*
X1723745Y1203401D01*
X1722170Y1199794D01*
X1716278Y1191158D01*
X1711350Y1180947D01*
X1707997Y1170076D01*
X1707388Y1165910D01*
X1819300Y1165910D01*
X1819300Y1210716D01*
X1819960Y1214424D01*
X1821942Y1217574D01*
X1824888Y1219809D01*
X1829968Y1222349D01*
X1833981Y1223416D01*
X1837994Y1222806D01*
X1841500Y1220673D01*
X1843836Y1217269D01*
X1844700Y1213256D01*
X1844700Y1165910D01*
X1918462Y1165910D01*
X1922373Y1165148D01*
X1925624Y1162913D01*
X1927860Y1159611D01*
X1928622Y1155750D01*
X1928622Y1150670D01*
X1927860Y1146759D01*
X1925624Y1143457D01*
X1922373Y1141272D01*
X1918462Y1140510D01*
X1844700Y1140510D01*
X1844700Y1067155D01*
X1843938Y1063244D01*
X1841703Y1059942D01*
X1838401Y1057757D01*
X1834540Y1056995D01*
X1829460Y1056995D01*
X1825193Y1057960D01*
X1822856Y1054201D01*
X1820925Y1048766D01*
X1820214Y1042416D01*
X1820214Y1028700D01*
X1861718Y1028700D01*
X1861718Y1079042D01*
X1862480Y1082954D01*
X1864715Y1086256D01*
X1867966Y1088440D01*
X1871878Y1089202D01*
X1876958Y1089202D01*
X1880870Y1088440D01*
X1884121Y1086256D01*
X1886356Y1082954D01*
X1887118Y1079042D01*
X1887118Y1028700D01*
X1896618Y1028700D01*
X1900529Y1027937D01*
X1903831Y1025702D01*
X1906016Y1022451D01*
X1906778Y1018540D01*
X1906778Y1013460D01*
X1906016Y1009548D01*
X1903831Y1006297D01*
X1900529Y1004062D01*
X1896618Y1003300D01*
X1887118Y1003300D01*
G37*
G36*
X3486556Y2390597D02*
G01*
X3543300Y2390597D01*
X3543300Y2463800D01*
X3460089Y2463800D01*
X3460089Y2417064D01*
X3460800Y2410764D01*
X3462680Y2405278D01*
X3465779Y2400401D01*
X3469894Y2396286D01*
X3474770Y2393238D01*
X3480257Y2391308D01*
G37*
G36*
X3568700Y2390597D02*
G01*
X3625443Y2390597D01*
X3631742Y2391308D01*
X3637178Y2393238D01*
X3642106Y2396286D01*
X3646170Y2400401D01*
X3649268Y2405278D01*
X3651199Y2410764D01*
X3651910Y2417064D01*
X3651910Y2463800D01*
X3568700Y2463800D01*
G37*
G36*
X3468522Y2228850D02*
G01*
X3534206Y2228850D01*
X3534206Y2338832D01*
X3533495Y2345131D01*
X3531565Y2350617D01*
X3528517Y2355494D01*
X3524402Y2359609D01*
X3519525Y2362708D01*
X3514039Y2364587D01*
X3507740Y2365298D01*
X3468522Y2365298D01*
G37*
G36*
X3377387Y2228850D02*
G01*
X3443122Y2228850D01*
X3443122Y2365298D01*
X3403854Y2365298D01*
X3397554Y2364587D01*
X3392068Y2362708D01*
X3387191Y2359609D01*
X3383076Y2355494D01*
X3380028Y2350617D01*
X3378098Y2345131D01*
X3377387Y2338832D01*
G37*
G36*
X2480310Y2209800D02*
G01*
X2533497Y2209800D01*
X2533497Y2236520D01*
X2532786Y2242870D01*
X2530906Y2248306D01*
X2527808Y2253234D01*
X2523744Y2257298D01*
X2518816Y2260396D01*
X2513380Y2262276D01*
X2507030Y2262987D01*
X2480310Y2262987D01*
G37*
G36*
X2369667Y1216812D02*
G01*
X2371953Y1217168D01*
X2381453Y1220470D01*
X2390292Y1225245D01*
X2398217Y1231392D01*
X2405024Y1238808D01*
X2410510Y1247241D01*
X2414574Y1256436D01*
X2416352Y1263497D01*
X2369667Y1263497D01*
G37*

%LPD*%
G36*
X753821Y914908D02*
G01*
X749604Y915822D01*
X746150Y918362D01*
X744067Y922121D01*
X743712Y926439D01*
X745185Y930452D01*
X748792Y936193D01*
X750671Y941628D01*
X751382Y947978D01*
X751382Y956056D01*
X752195Y959967D01*
X754380Y963269D01*
X757682Y965453D01*
X761593Y966216D01*
X765454Y965453D01*
X769670Y962355D01*
X774598Y959256D01*
X780034Y957326D01*
X786384Y956614D01*
X839368Y956614D01*
X843280Y955852D01*
X846582Y953668D01*
X852779Y947419D01*
X860806Y941781D01*
X869746Y937666D01*
X880059Y934872D01*
X883767Y932992D01*
X886409Y929792D01*
X887577Y925830D01*
X887018Y921715D01*
X884885Y918159D01*
X881481Y915771D01*
X877417Y914908D01*
G37*

%LPD*%
G36*
X36068Y914908D02*
G01*
X32156Y915669D01*
X28905Y917905D01*
X26670Y921156D01*
X25908Y925068D01*
X25908Y2503932D01*
X26670Y2507843D01*
X28905Y2511094D01*
X32156Y2513330D01*
X36068Y2514092D01*
X144272Y2514092D01*
X148539Y2513126D01*
X151993Y2510485D01*
X154076Y2506624D01*
X157734Y2493213D01*
X158089Y2490571D01*
X158089Y2443124D01*
X157327Y2439212D01*
X155092Y2435910D01*
X66446Y2347264D01*
X61874Y2341626D01*
X58826Y2335631D01*
X57048Y2329027D01*
X56641Y2323693D01*
X56641Y1473708D01*
X57404Y1466494D01*
X59486Y1460093D01*
X62890Y1454150D01*
X66395Y1450086D01*
X158699Y1357782D01*
X164338Y1353210D01*
X170332Y1350162D01*
X176936Y1348384D01*
X182270Y1347978D01*
X329641Y1347978D01*
X333248Y1347317D01*
X336448Y1345387D01*
X338683Y1342440D01*
X339750Y1338884D01*
X339445Y1335176D01*
X338226Y1330604D01*
X337362Y1320800D01*
X338226Y1310995D01*
X340766Y1301546D01*
X344881Y1292606D01*
X350520Y1284579D01*
X352094Y1283004D01*
X354330Y1279702D01*
X355092Y1275791D01*
X355092Y1248918D01*
X355904Y1240891D01*
X358089Y1233678D01*
X361645Y1226972D01*
X366776Y1220774D01*
X426720Y1160780D01*
X428904Y1157478D01*
X429717Y1153617D01*
X429717Y1120495D01*
X430428Y1114145D01*
X432460Y1108252D01*
X433019Y1104900D01*
X432460Y1101547D01*
X430428Y1095654D01*
X429717Y1089304D01*
X429717Y1063091D01*
X469900Y1063091D01*
X469900Y1083818D01*
X470662Y1087729D01*
X472897Y1091031D01*
X476148Y1093216D01*
X480059Y1093978D01*
X485140Y1093978D01*
X489051Y1093216D01*
X492302Y1091031D01*
X494538Y1087729D01*
X495300Y1083818D01*
X495300Y1063091D01*
X571500Y1063091D01*
X571500Y1083818D01*
X572262Y1087729D01*
X574497Y1091031D01*
X577748Y1093216D01*
X581660Y1093978D01*
X586740Y1093978D01*
X590651Y1093216D01*
X593902Y1091031D01*
X596138Y1087729D01*
X596900Y1083818D01*
X596900Y1063091D01*
X635812Y1063091D01*
X639368Y1062431D01*
X642518Y1060602D01*
X644753Y1057757D01*
X645871Y1054303D01*
X646582Y1049223D01*
X646277Y1044956D01*
X644194Y1041196D01*
X640740Y1038606D01*
X636524Y1037691D01*
X596900Y1037691D01*
X596900Y984961D01*
X610616Y984961D01*
X616966Y985672D01*
X622401Y987602D01*
X625297Y989431D01*
X626059Y993343D01*
X628243Y996594D01*
X631545Y998829D01*
X635457Y999591D01*
X685800Y999591D01*
X685800Y1020318D01*
X686562Y1024229D01*
X688797Y1027531D01*
X692048Y1029716D01*
X695960Y1030478D01*
X701040Y1030478D01*
X704951Y1029716D01*
X708202Y1027531D01*
X710438Y1024229D01*
X711200Y1020318D01*
X711200Y999591D01*
X749757Y999591D01*
X753618Y998829D01*
X756920Y996594D01*
X759104Y993343D01*
X759917Y989431D01*
X759917Y984351D01*
X759104Y980490D01*
X756920Y977188D01*
X753618Y974953D01*
X749757Y974191D01*
X711200Y974191D01*
X711200Y925068D01*
X710438Y921156D01*
X708202Y917905D01*
X704951Y915669D01*
X701040Y914908D01*
X695960Y914908D01*
X692048Y915669D01*
X688797Y917905D01*
X686562Y921156D01*
X685800Y925068D01*
X685800Y974191D01*
X645617Y974191D01*
X645617Y947978D01*
X646328Y941628D01*
X648208Y936193D01*
X651814Y930452D01*
X653288Y926439D01*
X652932Y922121D01*
X650849Y918362D01*
X647395Y915822D01*
X643178Y914908D01*
G37*

%LPC*%
G36*
X228600Y979017D02*
G01*
X243789Y979932D01*
X258724Y982675D01*
X273253Y987196D01*
X287121Y993444D01*
X300126Y1001318D01*
X312064Y1010666D01*
X322834Y1021435D01*
X332181Y1033373D01*
X340055Y1046378D01*
X346303Y1060246D01*
X350824Y1074775D01*
X353568Y1089710D01*
X354482Y1104900D01*
X353568Y1120089D01*
X350824Y1135024D01*
X346303Y1149553D01*
X340055Y1163421D01*
X332181Y1176426D01*
X322834Y1188364D01*
X312064Y1199134D01*
X300126Y1208481D01*
X287121Y1216355D01*
X273253Y1222603D01*
X258724Y1227124D01*
X243789Y1229868D01*
X228600Y1230782D01*
X213410Y1229868D01*
X198475Y1227124D01*
X183946Y1222603D01*
X170078Y1216355D01*
X157073Y1208481D01*
X145135Y1199134D01*
X134366Y1188364D01*
X125018Y1176426D01*
X117144Y1163421D01*
X110896Y1149553D01*
X106375Y1135024D01*
X103632Y1120089D01*
X102717Y1104900D01*
X103632Y1089710D01*
X106375Y1074775D01*
X110896Y1060246D01*
X117144Y1046378D01*
X125018Y1033373D01*
X134366Y1021435D01*
X145135Y1010666D01*
X157073Y1001318D01*
X170078Y993444D01*
X183946Y987196D01*
X198475Y982675D01*
X213410Y979932D01*
G37*
G36*
X456184Y984961D02*
G01*
X469900Y984961D01*
X469900Y1037691D01*
X429717Y1037691D01*
X429717Y1011478D01*
X430428Y1005128D01*
X432308Y999693D01*
X435406Y994765D01*
X439470Y990701D01*
X444398Y987602D01*
X449834Y985672D01*
G37*
G36*
X495300Y984961D02*
G01*
X509016Y984961D01*
X515366Y985672D01*
X520801Y987602D01*
X529488Y993394D01*
X533400Y994156D01*
X537311Y993394D01*
X541070Y990701D01*
X545998Y987602D01*
X551434Y985672D01*
X557784Y984961D01*
X571500Y984961D01*
X571500Y1037691D01*
X495300Y1037691D01*
G37*

%LPD*%
D10*
X827024Y1245107D02*
G01*
X827024Y1179576D01*
X922020Y1084579D01*
X922020Y1066800D01*
X787102Y1245207D02*
G01*
X787102Y1155700D01*
X812800Y1130002D01*
X812800Y1097381D01*
X667110Y1245207D02*
G01*
X596292Y1245207D01*
X584200Y1257300D01*
X707136Y1245107D02*
G01*
X707136Y1177036D01*
X689609Y1159510D01*
X584200Y1159510D01*
X520700Y920998D02*
G01*
X914400Y920998D01*
X1008484Y1066800D02*
G01*
X1028700Y1046584D01*
X1028700Y1003300D01*
X1117600Y920998D02*
G01*
X1511300Y920998D01*
X747118Y1245207D02*
G01*
X747118Y1166218D01*
X698500Y1117600D01*
X698500Y1095908D01*
X1067054Y1245107D02*
G01*
X1067054Y1155445D01*
X1193800Y1028700D01*
X1193800Y965200D01*
X1206500Y952500D01*
X1473200Y952500D01*
X1512570Y991870D01*
X1560575Y991870D01*
X812800Y1010818D02*
G01*
X833018Y990600D01*
X889000Y990600D01*
X3967479Y2006600D02*
G01*
X3967479Y2123186D01*
X3895090Y2195829D01*
X3881018Y2006600D02*
G01*
X3810000Y2006600D01*
X2819400Y2153818D02*
G01*
X2819400Y2006600D01*
X2687929Y1875129D01*
X2687929Y1854200D01*
X2637790Y2197100D02*
G01*
X2681071Y2240381D01*
X2819400Y2240381D01*
X2362200Y1701800D02*
G01*
X2362200Y2247900D01*
X2489200Y2374900D01*
X2679700Y2374900D01*
X2781300Y2476500D01*
X2794000Y2476500D01*
X1651000Y1536700D02*
G01*
X1739900Y1625600D01*
X2286000Y1625600D01*
X2362200Y1701800D01*
X1705356Y2317495D02*
G01*
X1429004Y2317495D01*
X1397000Y2349500D01*
X1397000Y2451100D01*
X1651000Y2438400D02*
G01*
X1651000Y2413000D01*
X1689100Y2374900D01*
X1841500Y2374900D01*
X1282118Y1860217D02*
G01*
X1123617Y1860217D01*
X1117600Y1854200D01*
X1181100Y1803400D02*
G01*
X1197912Y1820212D01*
X1282118Y1820212D01*
X1027175Y1955292D02*
G01*
X1027175Y1878076D01*
X1282191Y1580134D02*
G01*
X1338834Y1580134D01*
X1409700Y1651000D01*
X1612900Y1651000D01*
X1701800Y1739900D01*
X1816100Y1739900D01*
X1841500Y1765300D01*
X1841500Y2108200D01*
X1866900Y2133600D01*
X2006600Y2133600D01*
X2032000Y2159000D01*
X2032000Y2540000D01*
X1638300Y1574800D02*
G01*
X1727200Y1663700D01*
X2273300Y1663700D01*
X2324100Y1714500D01*
X2324100Y2273300D01*
X2527300Y2476500D01*
X2540000Y2476500D01*
X1282191Y1540255D02*
G01*
X1349756Y1540255D01*
X1422400Y1612900D01*
X1625600Y1612900D01*
X1714500Y1701800D01*
X2260600Y1701800D01*
X2286000Y1727200D01*
X2286000Y2540000D01*
X1282191Y1500123D02*
G01*
X1360424Y1500123D01*
X1435100Y1574800D01*
X1638300Y1574800D01*
X1282191Y1460245D02*
G01*
X1371345Y1460245D01*
X1447800Y1536700D01*
X1651000Y1536700D01*
X1282118Y1340203D02*
G01*
X1435100Y1340203D01*
X1450083Y1355186D01*
X1473202Y1355186D01*
X572007Y1420113D02*
G01*
X205486Y1420113D01*
X127000Y1498600D01*
X127000Y2247900D01*
X2655900Y1374851D02*
G01*
X2655900Y1500200D01*
X2679700Y1524000D01*
X2819400Y1524000D01*
X2882900Y1587500D01*
X2882900Y1638300D01*
X2855975Y1374902D02*
G01*
X2855975Y1458976D01*
X2959100Y1562100D01*
X2959100Y1689100D01*
X3278200Y1374848D02*
G01*
X3278200Y1420799D01*
X3238500Y1460500D01*
X3187700Y1460500D01*
X3478199Y1374848D02*
G01*
X3479800Y1376448D01*
X3479800Y1524000D01*
D11*
X2687934Y1854200D02*
G01*
X2514600Y1854200D01*
D10*
X1258824Y1091692D02*
G01*
X1232408Y1091692D01*
X1147063Y1177036D01*
X1147063Y1245107D01*
X1560451Y1091791D02*
G01*
X1524408Y1091791D01*
X1485900Y1130300D01*
X1473200Y1130300D01*
X1027173Y1245107D02*
G01*
X1027173Y1144526D01*
X1104900Y1066800D01*
X1104900Y1041400D01*
X1258824Y1041907D02*
G01*
X1231391Y1041907D01*
X1107186Y1166113D01*
X1107186Y1245107D01*
X720090Y2235200D02*
G01*
X720090Y2282189D01*
X749300Y2311400D01*
X838200Y2311400D01*
X292100Y2273300D02*
G01*
X469900Y2273300D01*
X508000Y2311400D01*
X698500Y2311400D01*
X736600Y2349500D01*
X572007Y1540255D02*
G01*
X275844Y1540255D01*
X241300Y1574800D01*
X241300Y2222500D01*
X292100Y2273300D01*
X495300Y2349500D02*
G01*
X685800Y2349500D01*
X723900Y2387600D01*
X914400Y2387600D01*
X1003300Y2476500D01*
X1016000Y2476500D01*
X572007Y1500123D02*
G01*
X252476Y1500123D01*
X203200Y1549400D01*
X203200Y2247900D01*
X266700Y2311400D01*
X457200Y2311400D01*
X495300Y2349500D01*
X368300Y2349500D02*
G01*
X431800Y2349500D01*
X469900Y2387600D01*
X660400Y2387600D01*
X749300Y2476500D01*
X762000Y2476500D01*
X572007Y1460245D02*
G01*
X228854Y1460245D01*
X165100Y1524000D01*
X165100Y2273300D01*
X241300Y2349500D01*
X368300Y2349500D01*
X736600Y2349500D02*
G01*
X927100Y2349500D01*
X965200Y2387600D01*
X1168400Y2387600D01*
X1257300Y2476500D01*
X1270000Y2476500D01*
X508000Y2540000D02*
G01*
X508000Y2489200D01*
X406400Y2387600D01*
X215900Y2387600D01*
X127000Y2298700D01*
X127000Y2247900D01*
X254000Y2476500D02*
G01*
X241300Y2476500D01*
X88900Y2324100D01*
X88900Y1473200D01*
X181863Y1380236D01*
X572007Y1380236D01*
D11*
X2995675Y2216150D02*
G01*
X2995675Y2348229D01*
X3048000Y2400300D01*
X3048000Y2476500D01*
X3048000Y2476500D02*
G01*
X3048000Y2540000D01*
X3225800Y2216150D02*
G01*
X3225800Y2336800D01*
X3302000Y2413000D01*
X3302000Y2476500D01*
X3302000Y2476500D02*
G01*
X3302000Y2540000D01*
D10*
X406400Y1778000D02*
G01*
X406400Y1701800D01*
X422910Y1701800D01*
X254000Y2540000D02*
G01*
X254000Y2476500D01*
D11*
X2687929Y1854200D02*
G01*
X3073400Y1854200D01*
X3225800Y2006600D01*
X3225800Y2216150D01*
X3810000Y1516453D02*
G01*
X3810000Y1346200D01*
X3810000Y2540000D02*
G01*
X3810000Y2476500D01*
X3810000Y2476500D02*
G01*
X3810000Y1887143D01*
D10*
X1987041Y1416304D02*
G01*
X2076958Y1276095D01*
X1358900Y1041400D02*
G01*
X1309370Y991870D01*
X1258824Y991870D01*
X2166874Y1416304D02*
G01*
X2166874Y1265173D01*
X2103120Y1201420D01*
X2103120Y1016000D01*
X1960879Y1016000D02*
G01*
X1960879Y1212087D01*
X1897125Y1276095D01*
X1187195Y1245107D02*
G01*
X1187195Y1200404D01*
X1245870Y1141729D01*
X1259077Y1141729D01*
X1574800Y1355191D02*
G01*
X1574800Y1285991D01*
X1560451Y1271643D01*
X1560451Y1141803D01*
X1587500Y1435100D02*
G01*
X1587500Y1451508D01*
X1574800Y1464208D01*
X1473200Y1464208D01*
X1473200Y1464208D01*
D12*
X907097Y1955190D02*
G01*
X907097Y1810697D01*
X914402Y1803392D01*
D10*
X1282105Y1380208D02*
G01*
X1121691Y1380208D01*
X1104900Y1397000D01*
X1473200Y1282700D02*
G01*
X1473200Y1355191D01*
X1473200Y1282700D02*
G01*
X1502308Y1282700D01*
X1574800Y1355191D01*
X987077Y1245201D02*
G01*
X987077Y1164877D01*
X965200Y1143000D01*
X1560451Y1041808D02*
G01*
X1473608Y1041808D01*
X1473200Y1041400D01*
X867100Y1245199D02*
G01*
X867100Y1336989D01*
X889002Y1358902D01*
X907097Y1245199D02*
G01*
X907097Y1340797D01*
X889002Y1358902D01*
X947168Y1245100D02*
G01*
X947168Y1402331D01*
X927102Y1422392D01*
X747268Y1422392D01*
D12*
X572094Y1340210D02*
G01*
X514715Y1340210D01*
X482600Y1308094D01*
X482600Y1159408D01*
X584200Y1159408D02*
G01*
X482600Y1159408D01*
X482600Y1159408D01*
X584200Y1050391D02*
G01*
X482600Y1050391D01*
X482600Y1050391D01*
D10*
X635002Y2120897D02*
G01*
X587910Y2073805D01*
X587910Y2031997D01*
X867100Y1955190D02*
G01*
X867100Y2082792D01*
X829210Y2120681D01*
X829210Y2133597D01*
X827090Y1955190D02*
G01*
X827090Y1868484D01*
X812802Y1854197D01*
X947107Y1955190D02*
G01*
X947107Y2052007D01*
X1007196Y2112086D01*
X1020292Y2112086D01*
D12*
X1444094Y2222502D02*
G01*
X1333675Y2112086D01*
X1240312Y2112086D01*
X1371600Y2247900D02*
G01*
X1418536Y2247900D01*
X1443992Y2222444D01*
X673100Y1358900D02*
G01*
X673100Y1574800D01*
D10*
X1282118Y1420218D02*
G01*
X1195981Y1420218D01*
X1181100Y1435100D01*
X572007Y1700268D02*
G01*
X570476Y1701800D01*
X422808Y1701800D01*
X1634594Y1993897D02*
G01*
X1631281Y1997202D01*
X1508028Y1997202D01*
X1625600Y1854200D02*
G01*
X1625600Y1993900D01*
X1634591Y1993900D01*
X1485902Y1790697D02*
G01*
X1431394Y1736189D01*
X1431394Y1714497D01*
X1282120Y1700197D02*
G01*
X1370002Y1700197D01*
X1384302Y1714497D01*
X1431394Y1714497D01*
D12*
X635002Y2120897D02*
G01*
X406402Y2120897D01*
X1413002Y2092223D02*
G01*
X1413002Y2111496D01*
X1447802Y2146297D01*
D10*
X1282194Y1860293D02*
G01*
X1339603Y1860293D01*
X1413002Y1933696D01*
X1413002Y1997196D01*
D12*
X1412999Y2092200D02*
G01*
X1393700Y2092200D01*
X1346200Y2044700D01*
X1346200Y2019300D01*
X1295400Y1968500D01*
X907036Y1955246D02*
G01*
X907036Y2235197D01*
X829210Y2235197D01*
D10*
X747021Y1955289D02*
G01*
X747021Y2008886D01*
X723902Y2044697D01*
X588010Y2044697D01*
X588010Y2031997D01*
X838202Y1790692D02*
G01*
X762002Y1790692D01*
X749302Y1777992D01*
X747021Y1245100D01*
X867161Y1955289D02*
G01*
X867161Y1832350D01*
X838202Y1790697D01*
X787092Y1955190D02*
G01*
X787402Y2050409D01*
D12*
X393700Y1320800D02*
G01*
X393700Y1248410D01*
X482600Y1159510D01*
D13*
G01*
X3810000Y1836333D03*
D14*
G01*
X3810000Y1465656D03*
D15*
G01*
X2819400Y2240382D03*
D16*
G01*
X2819400Y2153818D03*
D17*
G01*
X3967582Y2006600D03*
G01*
X3881017Y2006600D03*
D18*
G01*
X921917Y1066800D03*
G01*
X1008482Y1066800D03*
D15*
G01*
X812800Y1097382D03*
D16*
G01*
X812800Y1010818D03*
D19*
G01*
X2637790Y2197100D03*
G01*
X2467609Y2197100D03*
G01*
X3895090Y2195779D03*
G01*
X3724909Y2195779D03*
D20*
G01*
X1705305Y2317495D03*
G01*
X1705305Y2127504D03*
G01*
X1952294Y2222500D03*
D21*
G01*
X3455797Y2216150D03*
G01*
X3225800Y2216150D03*
G01*
X2995802Y2216150D03*
D22*
G01*
X3225800Y1644650D03*
D23*
G01*
X2687924Y1854200D03*
G01*
X1985675Y1854200D03*
D17*
G01*
X1960982Y1016000D03*
G01*
X1874417Y1016000D03*
G01*
X2189582Y1016000D03*
G01*
X2103017Y1016000D03*
D24*
G01*
X584200Y1050394D03*
D25*
G01*
X584200Y1159408D03*
D24*
G01*
X698500Y986894D03*
D25*
G01*
X698500Y1095908D03*
D24*
G01*
X482600Y1159405D03*
D25*
G01*
X482600Y1050391D03*
D26*
G01*
X1240299Y2282088D03*
G01*
X1020300Y2282088D03*
D27*
G01*
X1020292Y2112086D03*
D28*
G01*
X1240299Y2112086D03*
D29*
G01*
X1553105Y2222500D03*
G01*
X1444094Y2222500D03*
G01*
X829208Y2235197D03*
G01*
X720196Y2235197D03*
G01*
X829208Y2133597D03*
G01*
X720196Y2133597D03*
D30*
G01*
X1282115Y1340180D03*
G01*
X1282115Y1380185D03*
G01*
X1282115Y1420190D03*
G01*
X1282115Y1460195D03*
G01*
X1282115Y1500174D03*
G01*
X1282115Y1540179D03*
G01*
X1282115Y1580184D03*
G01*
X1282115Y1620189D03*
G01*
X1282115Y1660194D03*
G01*
X1282115Y1700174D03*
G01*
X1282115Y1740179D03*
G01*
X1282115Y1780184D03*
G01*
X1282115Y1820189D03*
G01*
X1282115Y1860194D03*
D31*
G01*
X1187094Y1955190D03*
G01*
X1147114Y1955190D03*
G01*
X1107109Y1955190D03*
G01*
X1067104Y1955190D03*
G01*
X1027099Y1955190D03*
G01*
X987094Y1955190D03*
G01*
X947115Y1955190D03*
G01*
X907110Y1955190D03*
G01*
X867105Y1955190D03*
G01*
X827100Y1955190D03*
G01*
X787095Y1955190D03*
G01*
X747115Y1955190D03*
G01*
X707110Y1955190D03*
G01*
X667105Y1955190D03*
D30*
G01*
X572084Y1860194D03*
G01*
X572084Y1820189D03*
G01*
X572084Y1780184D03*
G01*
X572084Y1740179D03*
G01*
X572084Y1700174D03*
G01*
X572084Y1660194D03*
G01*
X572084Y1620189D03*
G01*
X572084Y1580184D03*
G01*
X572084Y1540179D03*
G01*
X572084Y1500174D03*
G01*
X572084Y1460195D03*
G01*
X572084Y1420190D03*
G01*
X572084Y1380185D03*
G01*
X572084Y1340180D03*
D31*
G01*
X667105Y1245209D03*
G01*
X707110Y1245209D03*
G01*
X747115Y1245209D03*
G01*
X787095Y1245209D03*
G01*
X827100Y1245209D03*
G01*
X867105Y1245209D03*
G01*
X907110Y1245209D03*
G01*
X947115Y1245209D03*
G01*
X987094Y1245209D03*
G01*
X1027099Y1245209D03*
G01*
X1067104Y1245209D03*
G01*
X1107109Y1245209D03*
G01*
X1147114Y1245209D03*
G01*
X1187094Y1245209D03*
D32*
G01*
X927100Y1600200D03*
D29*
G01*
X587908Y2031997D03*
G01*
X478896Y2031997D03*
G01*
X422805Y1701800D03*
G01*
X313794Y1701800D03*
D33*
G01*
X1258976Y1141806D03*
G01*
X1258976Y1091793D03*
G01*
X1258976Y1041806D03*
G01*
X1258976Y991793D03*
G01*
X1560449Y1141806D03*
G01*
X1560449Y1091793D03*
G01*
X1560449Y1041806D03*
G01*
X1560449Y991793D03*
D34*
G01*
X1409700Y1066800D03*
D24*
G01*
X1473200Y1355194D03*
D25*
G01*
X1473200Y1464208D03*
D24*
G01*
X1574800Y1355194D03*
D25*
G01*
X1574800Y1464208D03*
D35*
G01*
X1431396Y1714497D03*
G01*
X1540408Y1714497D03*
G01*
X1634596Y1993897D03*
G01*
X1743608Y1993897D03*
D36*
G01*
X1413002Y2092223D03*
G01*
X1413002Y1997202D03*
G01*
X1508023Y1997202D03*
G01*
X1508023Y2092223D03*
D37*
G01*
X2655900Y1374851D03*
G01*
X2755900Y1374851D03*
G01*
X2855899Y1374851D03*
D38*
G01*
X2985897Y987348D03*
G01*
X2525902Y987348D03*
D37*
G01*
X3278200Y1374851D03*
G01*
X3378200Y1374851D03*
G01*
X3478199Y1374851D03*
D38*
G01*
X3608197Y987348D03*
G01*
X3148202Y987348D03*
D26*
G01*
X1523989Y2476502D03*
G01*
X1777989Y2476502D03*
G01*
X3809989Y2476502D03*
G01*
X3555989Y2476502D03*
G01*
X3301989Y2476502D03*
G01*
X3047989Y2476502D03*
G01*
X2793989Y2476502D03*
G01*
X253989Y2476502D03*
G01*
X507989Y2476502D03*
G01*
X761989Y2476502D03*
G01*
X1015989Y2476502D03*
G01*
X1269989Y2476502D03*
G01*
X2031989Y2476502D03*
G01*
X2285989Y2476502D03*
G01*
X2539989Y2476502D03*
D39*
G01*
X1706981Y1416202D03*
G01*
X1801977Y1416202D03*
G01*
X1986991Y1416202D03*
G01*
X2076983Y1416202D03*
G01*
X2167000Y1416202D03*
G01*
X2261997Y1416202D03*
G01*
X2356993Y1416202D03*
G01*
X2356993Y1276197D03*
G01*
X2261997Y1276197D03*
G01*
X2076983Y1276197D03*
G01*
X1986991Y1276197D03*
G01*
X1896999Y1276197D03*
G01*
X1801977Y1276197D03*
G01*
X1706981Y1276197D03*
D40*
G01*
X2231974Y1153210D03*
G01*
X1831975Y1153210D03*
G01*
X2231974Y1539189D03*
G01*
X1831975Y1539189D03*
D41*
G01*
X254000Y2527300D03*
G01*
X762000Y2527300D03*
G01*
X1016000Y2527300D03*
G01*
X1270000Y2527300D03*
G01*
X1524000Y2527300D03*
G01*
X1778000Y2527300D03*
G01*
X2032000Y2527300D03*
G01*
X2286000Y2527300D03*
G01*
X2540000Y2527300D03*
G01*
X2794000Y2527300D03*
G01*
X3048000Y2527300D03*
G01*
X3302000Y2527300D03*
G01*
X3556000Y2527300D03*
G01*
X508000Y2527300D03*
G01*
X3810000Y2527300D03*
D42*
G01*
X1155700Y1562100D03*
G01*
X1295400Y1968500D03*
G01*
X711200Y1828800D03*
G01*
X393700Y1320800D03*
G01*
X406400Y2120900D03*
G01*
X1625600Y1854200D03*
G01*
X406400Y1778000D03*
G01*
X812800Y1485900D03*
G01*
X1041400Y1485900D03*
G01*
X1041400Y1714500D03*
G01*
X812800Y1714500D03*
G01*
X673100Y1574800D03*
G01*
X1485900Y1790700D03*
G01*
X1320800Y1231900D03*
G01*
X1181100Y1435100D03*
G01*
X1104900Y1397000D03*
G01*
X1473200Y1282700D03*
G01*
X965200Y1143000D03*
G01*
X1104900Y1041400D03*
G01*
X1473200Y1130300D03*
G01*
X1473200Y1041400D03*
G01*
X914400Y1803400D03*
G01*
X889000Y1358900D03*
G01*
X787400Y2050414D03*
G01*
X812800Y1854200D03*
G01*
X635000Y2120900D03*
G01*
X1371600Y2247900D03*
G01*
X673100Y1358900D03*
G01*
X1003300Y1358900D03*
G01*
X3810000Y1346200D03*
G01*
X533400Y2209800D03*
G01*
X317500Y1778000D03*
G01*
X520700Y1930400D03*
G01*
X76200Y1371600D03*
G01*
X127000Y2451100D03*
G01*
X76200Y965200D03*
G01*
X317500Y2120900D03*
G01*
X3937000Y2438400D03*
G01*
X1651000Y2438400D03*
G01*
X2514600Y1854200D03*
G01*
X3187700Y1460500D03*
G01*
X3479800Y1524000D03*
G01*
X2552700Y1587500D03*
G01*
X2959100Y1689100D03*
G01*
X2882900Y1638300D03*
G01*
X1981200Y2057400D03*
G01*
X2552700Y2298700D03*
G01*
X1905000Y2336800D03*
G01*
X1181100Y1803400D03*
G01*
X1117600Y1854200D03*
G01*
X1397000Y2451100D03*
G01*
X381000Y2451100D03*
G01*
X635000Y2451100D03*
G01*
X889000Y2451100D03*
G01*
X1143000Y2451100D03*
G01*
X1905000Y2438400D03*
G01*
X2159000Y2438400D03*
G01*
X2413000Y2438400D03*
G01*
X2667000Y2438400D03*
G01*
X2921000Y2438400D03*
G01*
X3175000Y2438400D03*
G01*
X3429000Y2438400D03*
G01*
X3683000Y2438400D03*
G01*
X584200Y1257300D03*
G01*
X3987800Y965200D03*
G01*
X889000Y990600D03*
G01*
X1028700Y1003300D03*
G01*
X1346200Y1092200D03*
M02*
