M48
METRIC,LZ,000.000
;FILE_FORMAT=3:3
;TYPE=PLATED
;Layer: PTH_Through_Via
;EasyEDA v6.5.29, 2023-07-19 21:52:00
;a52da41988e34a0299b0951248bc5a60,5a6b42c53f6a479593ecc07194224c93,10
;Gerber Generator version 0.2
;Holesize 1 = 0.305 mm
T01C0.305
%
G05
G90
T01
X011811Y113157
X039497Y113030
X011811Y090297
X039497Y090170
X011811Y067437
X039497Y067310
X011811Y044577
X039497Y044450
X017320Y115189
X029972Y015367
X027178Y043095
X027178Y017272
X001143Y111760
X001143Y095631
X027178Y111676
X027178Y091440
X001143Y088900
X001143Y072771
X027178Y088815
X027178Y068580
X001143Y066040
X001143Y049911
X027178Y065956
X027178Y045720
X001143Y043180
X001143Y027051
M30
