M48
METRIC,LZ,000.000
;FILE_FORMAT=3:3
;TYPE=PLATED
;Layer: PTH_Through
;EasyEDA v6.5.29, 2023-07-18 11:26:45
;266af627963149579cffd9687d2698f5,5a6b42c53f6a479593ecc07194224c93,10
;Gerber Generator version 0.2
;Holesize 1 = 0.305 mm
T01C0.305
;Holesize 2 = 0.915 mm
T02C0.915
;Holesize 3 = 1.100 mm
T03C1.100
;Holesize 4 = 1.101 mm
T04C1.101
%
G05
G90
T01
X001270Y023495
X003556Y064770
X006223Y064770
X001651Y064770
X005969Y056769
X001143Y045212
X003683Y044196
X007620Y057404
X004953Y064770
X006350Y078740
X008763Y080518
X003683Y078740
X001143Y078740
X003683Y075311
X006223Y075311
X001524Y059436
X001524Y057150
X007493Y040386
X001143Y040259
T02
X001143Y041637
X003683Y041637
X008763Y041637
X006223Y016637
X001143Y016637
X001143Y052162
X008763Y077162
X006223Y077162
X003683Y077162
X001143Y077162
X006223Y041637
X006223Y052162
T03
X004935Y113339G85X004935Y113339
X004935Y104839G85X004935Y104839
X004935Y101839G85X004935Y101839
T04
X001143Y082550
X003683Y082550
X006223Y082550
X008763Y082550
X001143Y118110
X003683Y118110
X006223Y118110
X008763Y118110
M30
