G04 Layer: BottomLayer*
G04 EasyEDA v6.5.29, 2023-07-19 21:43:04*
G04 f8bcf56a654e41728208f455603ead28,5a6b42c53f6a479593ecc07194224c93,10*
G04 Gerber Generator version 0.2*
G04 Scale: 100 percent, Rotated: No, Reflected: No *
G04 Dimensions in millimeters *
G04 leading zeros omitted , absolute positions ,4 integer and 5 decimal *
%FSLAX45Y45*%
%MOMM*%

%AMMACRO1*21,1,$1,$2,0,0,$3*%
%ADD10C,0.5000*%
%ADD11C,0.2540*%
%ADD12C,0.1270*%
%ADD13C,1.0000*%
%ADD14MACRO1,1.8X1.8X90.0000*%
%ADD15C,1.8000*%
%ADD16R,1.5000X1.5000*%
%ADD17C,1.5000*%
%ADD18C,0.6096*%
%ADD19C,0.0115*%

%LPD*%
G36*
X-978458Y603758D02*
G01*
X-982065Y604418D01*
X-985215Y606348D01*
X-987501Y609295D01*
X-988568Y612851D01*
X-988263Y616559D01*
X-985926Y625195D01*
X-985062Y635000D01*
X-985926Y644804D01*
X-986536Y647090D01*
X-986840Y650798D01*
X-985774Y654354D01*
X-983538Y657301D01*
X-980389Y659231D01*
X-976731Y659892D01*
X-848868Y659892D01*
X-845007Y659130D01*
X-841705Y656894D01*
X-839520Y653592D01*
X-838708Y649732D01*
X-838708Y635508D01*
X-837946Y627481D01*
X-835761Y620217D01*
X-834898Y618693D01*
X-833729Y614730D01*
X-834288Y610565D01*
X-836421Y607009D01*
X-839825Y604621D01*
X-843889Y603758D01*
G37*

%LPD*%
G36*
X-647903Y584352D02*
G01*
X-652272Y584911D01*
X-655980Y587298D01*
X-662635Y593953D01*
X-668274Y598525D01*
X-674268Y601573D01*
X-680923Y603351D01*
X-686206Y603758D01*
X-756361Y603758D01*
X-760425Y604621D01*
X-763828Y607009D01*
X-765962Y610565D01*
X-766470Y614730D01*
X-765302Y618693D01*
X-764489Y620217D01*
X-762304Y627481D01*
X-761492Y635508D01*
X-761492Y649732D01*
X-760730Y653592D01*
X-758545Y656894D01*
X-755243Y659130D01*
X-751332Y659892D01*
X-637082Y659892D01*
X-632764Y658926D01*
X-629259Y656234D01*
X-627227Y652373D01*
X-627075Y647954D01*
X-628751Y643890D01*
X-633018Y637794D01*
X-637184Y628853D01*
X-639724Y619404D01*
X-640588Y609600D01*
X-639724Y599795D01*
X-639013Y597103D01*
X-638810Y592734D01*
X-640486Y588670D01*
X-643737Y585673D01*
G37*

%LPD*%
G36*
X-583641Y146558D02*
G01*
X-587959Y147523D01*
X-591413Y150164D01*
X-593445Y154076D01*
X-594766Y158953D01*
X-598932Y167894D01*
X-604570Y175920D01*
X-611479Y182880D01*
X-619556Y188518D01*
X-622046Y189636D01*
X-625195Y191973D01*
X-627227Y195275D01*
X-627888Y199136D01*
X-627075Y202946D01*
X-624840Y206146D01*
X-621588Y208279D01*
X-617728Y209042D01*
X-285902Y209042D01*
X-281940Y208229D01*
X-278587Y205892D01*
X-276402Y202438D01*
X-275742Y198424D01*
X-276758Y194513D01*
X-281584Y184353D01*
X-284124Y174904D01*
X-284988Y165100D01*
X-284530Y159918D01*
X-285089Y155600D01*
X-287477Y151892D01*
X-289814Y149504D01*
X-293116Y147320D01*
X-296976Y146558D01*
G37*

%LPD*%
G36*
X-7266431Y-748792D02*
G01*
X-7270343Y-748030D01*
X-7273594Y-745794D01*
X-7275830Y-742543D01*
X-7276592Y-738632D01*
X-7276592Y2719832D01*
X-7275830Y2723692D01*
X-7273594Y2726994D01*
X-7270343Y2729230D01*
X-7266431Y2729992D01*
X814832Y2729992D01*
X818692Y2729230D01*
X821994Y2726994D01*
X824179Y2723692D01*
X824992Y2719832D01*
X824992Y-738632D01*
X824179Y-742543D01*
X821994Y-745794D01*
X818692Y-748030D01*
X814832Y-748792D01*
X58928Y-748792D01*
X55016Y-748030D01*
X51765Y-745794D01*
X49530Y-742543D01*
X48768Y-738632D01*
X49530Y-734771D01*
X51765Y-731469D01*
X353364Y-429818D01*
X357073Y-427482D01*
X361492Y-426923D01*
X365709Y-428294D01*
X373583Y-432968D01*
X385978Y-438200D01*
X398983Y-441756D01*
X412343Y-443585D01*
X425805Y-443585D01*
X439166Y-441756D01*
X452170Y-438200D01*
X464566Y-432968D01*
X476199Y-426059D01*
X486765Y-417728D01*
X496112Y-408025D01*
X504139Y-397205D01*
X510590Y-385368D01*
X515416Y-372770D01*
X518566Y-359664D01*
X519887Y-346252D01*
X519480Y-332790D01*
X517194Y-319532D01*
X513232Y-306628D01*
X507542Y-294436D01*
X500278Y-283057D01*
X491591Y-272796D01*
X481584Y-263753D01*
X470509Y-256082D01*
X458470Y-250037D01*
X445719Y-245617D01*
X432511Y-242925D01*
X419100Y-242011D01*
X405638Y-242925D01*
X392430Y-245617D01*
X379679Y-250037D01*
X367690Y-256082D01*
X356565Y-263753D01*
X346557Y-272796D01*
X337870Y-283057D01*
X330606Y-294436D01*
X324916Y-306628D01*
X322275Y-315315D01*
X321259Y-317550D01*
X319735Y-319481D01*
X-5435Y-644601D01*
X-8686Y-646836D01*
X-12598Y-647598D01*
X-1815592Y-647598D01*
X-1819910Y-646633D01*
X-1822246Y-645566D01*
X-1831746Y-643026D01*
X-1841500Y-642162D01*
X-1851304Y-643026D01*
X-1860804Y-645566D01*
X-1869693Y-649681D01*
X-1877720Y-655320D01*
X-1884680Y-662279D01*
X-1890318Y-670306D01*
X-1894484Y-679246D01*
X-1897024Y-688695D01*
X-1897888Y-698500D01*
X-1897024Y-708304D01*
X-1894484Y-717753D01*
X-1890318Y-726694D01*
X-1886000Y-732790D01*
X-1884324Y-736854D01*
X-1884527Y-741273D01*
X-1886559Y-745185D01*
X-1890064Y-747826D01*
X-1894332Y-748792D01*
X-2220468Y-748792D01*
X-2224633Y-747928D01*
X-2228088Y-745388D01*
X-2230170Y-741680D01*
X-2230577Y-737463D01*
X-2229205Y-733450D01*
X-2226310Y-730300D01*
X-2224379Y-728980D01*
X-2217420Y-722020D01*
X-2211781Y-713994D01*
X-2208225Y-706272D01*
X-2206193Y-703376D01*
X-2102764Y-599998D01*
X-2099513Y-597763D01*
X-2095601Y-597001D01*
X-38354Y-597001D01*
X-33680Y-596798D01*
X-29260Y-596239D01*
X-24942Y-595274D01*
X-20726Y-593953D01*
X-16611Y-592226D01*
X-12649Y-590194D01*
X-8940Y-587806D01*
X-5384Y-585114D01*
X-1981Y-581964D01*
X389483Y-190500D01*
X392023Y-188671D01*
X394970Y-187655D01*
X398068Y-187604D01*
X412343Y-189585D01*
X425805Y-189585D01*
X439166Y-187756D01*
X452170Y-184200D01*
X464566Y-178968D01*
X476199Y-172059D01*
X486765Y-163728D01*
X496112Y-154025D01*
X504139Y-143205D01*
X510590Y-131368D01*
X515416Y-118770D01*
X518566Y-105664D01*
X519887Y-92252D01*
X519480Y-78790D01*
X517194Y-65532D01*
X513232Y-52628D01*
X507542Y-40436D01*
X500278Y-29057D01*
X491591Y-18796D01*
X481584Y-9753D01*
X470509Y-2082D01*
X458470Y3962D01*
X445719Y8382D01*
X432511Y11074D01*
X419100Y11988D01*
X405638Y11074D01*
X392430Y8382D01*
X379679Y3962D01*
X367690Y-2082D01*
X356565Y-9753D01*
X346557Y-18796D01*
X337870Y-29057D01*
X330606Y-40436D01*
X324916Y-52628D01*
X320954Y-65532D01*
X318719Y-78790D01*
X318262Y-92252D01*
X319582Y-105664D01*
X320344Y-108813D01*
X320548Y-112217D01*
X319633Y-115519D01*
X317652Y-118364D01*
X-56235Y-492201D01*
X-59537Y-494436D01*
X-63398Y-495198D01*
X-2120696Y-495198D01*
X-2125319Y-495401D01*
X-2129739Y-495960D01*
X-2134057Y-496925D01*
X-2138324Y-498246D01*
X-2142388Y-499973D01*
X-2146300Y-502005D01*
X-2150821Y-504951D01*
X-2154834Y-506476D01*
X-2159050Y-506222D01*
X-2162810Y-504291D01*
X-2165451Y-500938D01*
X-2166518Y-496824D01*
X-2165807Y-492658D01*
X-2163470Y-489153D01*
X-1996490Y-327202D01*
X-1993239Y-325120D01*
X-1989429Y-324358D01*
X-1947672Y-324358D01*
X-1943811Y-325120D01*
X-1940560Y-327253D01*
X-1938324Y-330454D01*
X-1937512Y-334264D01*
X-1938172Y-338124D01*
X-1940204Y-341426D01*
X-1943354Y-343712D01*
X-1945893Y-344881D01*
X-1953920Y-350520D01*
X-1960880Y-357479D01*
X-1966518Y-365506D01*
X-1970684Y-374446D01*
X-1973224Y-383895D01*
X-1974037Y-393700D01*
X-1973224Y-403504D01*
X-1970684Y-412953D01*
X-1966518Y-421893D01*
X-1960880Y-429920D01*
X-1953920Y-436880D01*
X-1945893Y-442518D01*
X-1937004Y-446633D01*
X-1927504Y-449173D01*
X-1917700Y-450037D01*
X-1907946Y-449173D01*
X-1898446Y-446633D01*
X-1896110Y-445566D01*
X-1891792Y-444601D01*
X-139903Y-444601D01*
X-135280Y-444398D01*
X-130860Y-443839D01*
X-126542Y-442874D01*
X-122275Y-441553D01*
X-118211Y-439826D01*
X-114249Y-437794D01*
X-110489Y-435406D01*
X-106984Y-432714D01*
X-103530Y-429564D01*
X389483Y63500D01*
X392023Y65328D01*
X394970Y66344D01*
X398068Y66395D01*
X412343Y64414D01*
X425805Y64414D01*
X439166Y66243D01*
X452170Y69799D01*
X464566Y75031D01*
X476199Y81940D01*
X486765Y90271D01*
X496112Y99974D01*
X504139Y110794D01*
X510590Y122631D01*
X515416Y135229D01*
X518566Y148336D01*
X519887Y161747D01*
X519480Y175209D01*
X517194Y188468D01*
X513232Y201371D01*
X507542Y213563D01*
X500278Y224942D01*
X491591Y235204D01*
X481584Y244246D01*
X470509Y251917D01*
X458470Y257962D01*
X445719Y262382D01*
X432511Y265074D01*
X419100Y265988D01*
X405638Y265074D01*
X392430Y262382D01*
X379679Y257962D01*
X367690Y251917D01*
X356565Y244246D01*
X346557Y235204D01*
X337870Y224942D01*
X330606Y213563D01*
X324916Y201371D01*
X320954Y188468D01*
X318719Y175209D01*
X318262Y161747D01*
X319582Y148336D01*
X320344Y145186D01*
X320548Y141732D01*
X319633Y138430D01*
X317652Y135636D01*
X175310Y-6705D01*
X172110Y-8839D01*
X168402Y-9702D01*
X164642Y-9093D01*
X161340Y-7112D01*
X159004Y-4114D01*
X157988Y-406D01*
X157073Y9804D01*
X154533Y19253D01*
X150418Y28194D01*
X144780Y36169D01*
X136855Y43992D01*
X134620Y47294D01*
X133858Y51206D01*
X133858Y583692D01*
X133096Y590905D01*
X131013Y597306D01*
X127609Y603250D01*
X124104Y607314D01*
X99364Y632053D01*
X93726Y636625D01*
X87731Y639673D01*
X81127Y641451D01*
X75793Y641858D01*
X-328930Y641858D01*
X-332994Y642670D01*
X-336346Y645058D01*
X-338480Y648512D01*
X-339090Y652576D01*
X-338023Y656539D01*
X-335483Y659790D01*
X-331927Y661720D01*
X-328168Y662889D01*
X-321513Y666445D01*
X-315264Y671525D01*
X-195072Y791768D01*
X-192176Y793800D01*
X-188772Y794715D01*
X-180746Y795426D01*
X-171246Y797966D01*
X-162356Y802081D01*
X-154279Y807720D01*
X-147370Y814679D01*
X-141732Y822706D01*
X-137566Y831646D01*
X-135026Y841095D01*
X-134315Y849121D01*
X-133400Y852525D01*
X-131368Y855421D01*
X-61976Y924864D01*
X-56845Y931113D01*
X-53289Y937768D01*
X-51104Y944981D01*
X-50292Y953008D01*
X-50292Y1085342D01*
X-49530Y1089202D01*
X-47345Y1092504D01*
X-45770Y1094079D01*
X-40132Y1102106D01*
X-35966Y1111046D01*
X-33426Y1120495D01*
X-32562Y1130300D01*
X-33426Y1140104D01*
X-35966Y1149553D01*
X-40132Y1158494D01*
X-45770Y1166520D01*
X-47345Y1168095D01*
X-49530Y1171397D01*
X-50292Y1175258D01*
X-50292Y1256792D01*
X-51104Y1264818D01*
X-53289Y1272032D01*
X-56845Y1278737D01*
X-61976Y1284935D01*
X-162864Y1385824D01*
X-169113Y1390954D01*
X-175768Y1394510D01*
X-182981Y1396695D01*
X-191008Y1397508D01*
X-234442Y1397508D01*
X-238302Y1398270D01*
X-241604Y1400454D01*
X-243179Y1402080D01*
X-251256Y1407718D01*
X-260146Y1411833D01*
X-269646Y1414373D01*
X-279400Y1415237D01*
X-289204Y1414373D01*
X-298704Y1411833D01*
X-307594Y1407718D01*
X-315671Y1402080D01*
X-322580Y1395120D01*
X-328218Y1387094D01*
X-332384Y1378153D01*
X-334924Y1368704D01*
X-335788Y1358900D01*
X-334924Y1349095D01*
X-332384Y1339646D01*
X-328218Y1330706D01*
X-322580Y1322679D01*
X-315671Y1315720D01*
X-307594Y1310081D01*
X-298704Y1305966D01*
X-289204Y1303426D01*
X-279400Y1302562D01*
X-269646Y1303426D01*
X-260146Y1305966D01*
X-251256Y1310081D01*
X-243179Y1315720D01*
X-241604Y1317294D01*
X-238353Y1319530D01*
X-234442Y1320292D01*
X-210718Y1320292D01*
X-206806Y1319530D01*
X-203555Y1317294D01*
X-130505Y1244295D01*
X-128320Y1240993D01*
X-127508Y1237081D01*
X-127508Y1175308D01*
X-128320Y1171397D01*
X-130505Y1168095D01*
X-132080Y1166520D01*
X-137718Y1158494D01*
X-141884Y1149553D01*
X-144424Y1140104D01*
X-145288Y1130300D01*
X-144424Y1120495D01*
X-141884Y1111046D01*
X-137718Y1102106D01*
X-132080Y1094079D01*
X-130505Y1092504D01*
X-128270Y1089202D01*
X-127508Y1085291D01*
X-127508Y972718D01*
X-128270Y968806D01*
X-130505Y965504D01*
X-185978Y910031D01*
X-188874Y907999D01*
X-192278Y907084D01*
X-200304Y906373D01*
X-209804Y903833D01*
X-218694Y899718D01*
X-226771Y894080D01*
X-233679Y887120D01*
X-239318Y879094D01*
X-243484Y870153D01*
X-246024Y860704D01*
X-246735Y852678D01*
X-247650Y849274D01*
X-249682Y846378D01*
X-355955Y740054D01*
X-359257Y737870D01*
X-363118Y737108D01*
X-751332Y737108D01*
X-755243Y737870D01*
X-758545Y740054D01*
X-760730Y743356D01*
X-761492Y747268D01*
X-761492Y818641D01*
X-760730Y822502D01*
X-758545Y825804D01*
X-756970Y827379D01*
X-751332Y835406D01*
X-747166Y844346D01*
X-744626Y853795D01*
X-743762Y863600D01*
X-744626Y873404D01*
X-747166Y882853D01*
X-751332Y891794D01*
X-756970Y899820D01*
X-763879Y906780D01*
X-771956Y912418D01*
X-780846Y916533D01*
X-790346Y919073D01*
X-800100Y919937D01*
X-809904Y919073D01*
X-819403Y916533D01*
X-828294Y912418D01*
X-829818Y911352D01*
X-833678Y909675D01*
X-837946Y909777D01*
X-841756Y911555D01*
X-844499Y914755D01*
X-845769Y918768D01*
X-846226Y924204D01*
X-848766Y933653D01*
X-852932Y942594D01*
X-858519Y950569D01*
X-866444Y958392D01*
X-868680Y961694D01*
X-869442Y965606D01*
X-869442Y1023823D01*
X-868680Y1027734D01*
X-866495Y1030986D01*
X-841197Y1056284D01*
X-836625Y1061974D01*
X-833526Y1067968D01*
X-831748Y1074572D01*
X-831342Y1079906D01*
X-831342Y1188923D01*
X-830580Y1192834D01*
X-828395Y1196086D01*
X-370636Y1653844D01*
X-367334Y1656080D01*
X-363423Y1656842D01*
X190042Y1656842D01*
X193954Y1656080D01*
X197256Y1653844D01*
X205079Y1645920D01*
X213106Y1640281D01*
X221996Y1636166D01*
X231495Y1633626D01*
X241300Y1632762D01*
X251053Y1633626D01*
X260553Y1636166D01*
X269443Y1640281D01*
X277520Y1645920D01*
X284429Y1652879D01*
X290068Y1660906D01*
X294233Y1669846D01*
X296773Y1679295D01*
X297637Y1689100D01*
X296773Y1698904D01*
X294233Y1708353D01*
X290068Y1717293D01*
X284429Y1725320D01*
X277520Y1732280D01*
X269443Y1737918D01*
X260553Y1742033D01*
X251053Y1744573D01*
X241300Y1745437D01*
X231495Y1744573D01*
X221996Y1742033D01*
X213106Y1737918D01*
X205079Y1732280D01*
X197256Y1724355D01*
X193954Y1722120D01*
X190042Y1721357D01*
X-329387Y1721357D01*
X-333298Y1722120D01*
X-336600Y1724355D01*
X-338785Y1727606D01*
X-339547Y1731518D01*
X-338785Y1735429D01*
X-336600Y1738680D01*
X-218236Y1857044D01*
X-214934Y1859280D01*
X-211023Y1860042D01*
X190042Y1860042D01*
X193954Y1859280D01*
X197256Y1857044D01*
X205079Y1849120D01*
X213106Y1843481D01*
X221996Y1839366D01*
X231495Y1836826D01*
X241300Y1835962D01*
X251053Y1836826D01*
X260553Y1839366D01*
X269443Y1843481D01*
X277520Y1849120D01*
X284429Y1856079D01*
X290068Y1864106D01*
X294233Y1873046D01*
X296773Y1882495D01*
X297637Y1892300D01*
X296773Y1902104D01*
X294233Y1911553D01*
X290068Y1920493D01*
X284429Y1928520D01*
X277520Y1935480D01*
X269443Y1941118D01*
X260553Y1945233D01*
X251053Y1947773D01*
X241300Y1948637D01*
X231495Y1947773D01*
X221996Y1945233D01*
X213106Y1941118D01*
X205079Y1935480D01*
X197256Y1927555D01*
X193954Y1925320D01*
X190042Y1924557D01*
X-228092Y1924557D01*
X-235305Y1923796D01*
X-241706Y1921713D01*
X-247650Y1918309D01*
X-251714Y1914804D01*
X-949553Y1216964D01*
X-954125Y1211326D01*
X-957173Y1205331D01*
X-958951Y1198727D01*
X-959358Y1193393D01*
X-959358Y1161846D01*
X-960170Y1157935D01*
X-962406Y1154633D01*
X-970330Y1146810D01*
X-975918Y1138783D01*
X-980084Y1129893D01*
X-982624Y1120394D01*
X-983487Y1110589D01*
X-982624Y1100836D01*
X-980084Y1091336D01*
X-975918Y1082446D01*
X-970280Y1074369D01*
X-963371Y1067460D01*
X-955294Y1061821D01*
X-946403Y1057656D01*
X-941120Y1056233D01*
X-937920Y1054760D01*
X-935431Y1052271D01*
X-933958Y1049121D01*
X-933602Y1045616D01*
X-933958Y1040993D01*
X-933958Y965657D01*
X-934770Y961694D01*
X-937006Y958392D01*
X-944930Y950569D01*
X-950518Y942594D01*
X-954684Y933653D01*
X-957224Y924204D01*
X-958087Y914400D01*
X-957224Y904595D01*
X-954684Y895146D01*
X-950518Y886206D01*
X-944880Y878179D01*
X-937971Y871219D01*
X-929894Y865581D01*
X-921003Y861466D01*
X-911504Y858926D01*
X-901700Y858062D01*
X-891946Y858926D01*
X-882446Y861466D01*
X-873556Y865581D01*
X-872032Y866648D01*
X-868171Y868324D01*
X-863904Y868222D01*
X-860094Y866444D01*
X-857351Y863244D01*
X-856081Y859231D01*
X-855624Y853795D01*
X-853084Y844346D01*
X-848918Y835406D01*
X-843280Y827379D01*
X-841705Y825804D01*
X-839520Y822502D01*
X-838708Y818591D01*
X-838708Y747268D01*
X-839520Y743356D01*
X-841705Y740054D01*
X-845007Y737870D01*
X-848868Y737108D01*
X-992632Y737108D01*
X-996543Y737870D01*
X-999845Y740054D01*
X-1002030Y743356D01*
X-1002792Y747268D01*
X-1002792Y761441D01*
X-1003604Y769518D01*
X-1005789Y776732D01*
X-1009345Y783386D01*
X-1014476Y789635D01*
X-1037945Y813104D01*
X-1040130Y816406D01*
X-1040892Y820267D01*
X-1040892Y1136142D01*
X-1040130Y1140002D01*
X-1037945Y1143304D01*
X-1036370Y1144879D01*
X-1030732Y1152906D01*
X-1026566Y1161846D01*
X-1024026Y1171295D01*
X-1023162Y1181100D01*
X-1024026Y1190904D01*
X-1026566Y1200353D01*
X-1030732Y1209294D01*
X-1036370Y1217320D01*
X-1043279Y1224280D01*
X-1051356Y1229918D01*
X-1060246Y1234033D01*
X-1069746Y1236573D01*
X-1079500Y1237437D01*
X-1089304Y1236573D01*
X-1097940Y1234287D01*
X-1101648Y1233982D01*
X-1105204Y1235049D01*
X-1108151Y1237284D01*
X-1110081Y1240434D01*
X-1110742Y1244092D01*
X-1110742Y1252423D01*
X-1109980Y1256334D01*
X-1107795Y1259586D01*
X101041Y2468473D01*
X104749Y2470810D01*
X109118Y2471420D01*
X114300Y2470962D01*
X124053Y2471826D01*
X133553Y2474366D01*
X142443Y2478481D01*
X150520Y2484120D01*
X157429Y2491079D01*
X163068Y2499106D01*
X167233Y2508046D01*
X169773Y2517495D01*
X170637Y2527300D01*
X169773Y2537104D01*
X167233Y2546553D01*
X163068Y2555494D01*
X157429Y2563520D01*
X150520Y2570480D01*
X142443Y2576118D01*
X133553Y2580233D01*
X124053Y2582773D01*
X114300Y2583637D01*
X104495Y2582773D01*
X94996Y2580233D01*
X86106Y2576118D01*
X78028Y2570480D01*
X71120Y2563520D01*
X65481Y2555494D01*
X61315Y2546553D01*
X58775Y2537104D01*
X57912Y2527300D01*
X58369Y2522169D01*
X57810Y2517800D01*
X55422Y2514092D01*
X-103682Y2354986D01*
X-107391Y2352598D01*
X-111709Y2352040D01*
X-115925Y2353360D01*
X-119176Y2356358D01*
X-121970Y2360320D01*
X-128879Y2367280D01*
X-136956Y2372918D01*
X-145846Y2377033D01*
X-155346Y2379573D01*
X-165100Y2380437D01*
X-174904Y2379573D01*
X-184404Y2377033D01*
X-193294Y2372918D01*
X-201371Y2367280D01*
X-208279Y2360320D01*
X-213918Y2352294D01*
X-218084Y2343353D01*
X-220624Y2333904D01*
X-221488Y2324100D01*
X-221030Y2318969D01*
X-221589Y2314600D01*
X-223977Y2310892D01*
X-1216253Y1318615D01*
X-1220825Y1312926D01*
X-1223873Y1306931D01*
X-1225651Y1300327D01*
X-1226058Y1294993D01*
X-1226058Y622808D01*
X-1225296Y615594D01*
X-1223213Y609193D01*
X-1219809Y603250D01*
X-1216355Y599186D01*
X-1128115Y510946D01*
X-1122476Y506374D01*
X-1116431Y503326D01*
X-1109827Y501548D01*
X-1104493Y501142D01*
X-716076Y501142D01*
X-712216Y500380D01*
X-708914Y498144D01*
X-671779Y461009D01*
X-669747Y458114D01*
X-668832Y454710D01*
X-669137Y451205D01*
X-675284Y438353D01*
X-677824Y428904D01*
X-678688Y419100D01*
X-677824Y409295D01*
X-677164Y406958D01*
X-676910Y403250D01*
X-677926Y399694D01*
X-680212Y396748D01*
X-683361Y394817D01*
X-687019Y394157D01*
X-741832Y394157D01*
X-745693Y394919D01*
X-748995Y397154D01*
X-766368Y414528D01*
X-768400Y417423D01*
X-769315Y420827D01*
X-770026Y428904D01*
X-772566Y438353D01*
X-776732Y447293D01*
X-782370Y455320D01*
X-789279Y462280D01*
X-797356Y467918D01*
X-806246Y472033D01*
X-815746Y474573D01*
X-825500Y475437D01*
X-835304Y474573D01*
X-844803Y472033D01*
X-853694Y467918D01*
X-861771Y462280D01*
X-863346Y460705D01*
X-866648Y458470D01*
X-870508Y457708D01*
X-996442Y457708D01*
X-1000302Y458470D01*
X-1003604Y460705D01*
X-1005179Y462280D01*
X-1013256Y467918D01*
X-1022146Y472033D01*
X-1031646Y474573D01*
X-1041400Y475437D01*
X-1051204Y474573D01*
X-1060704Y472033D01*
X-1069594Y467918D01*
X-1077671Y462280D01*
X-1084580Y455320D01*
X-1090218Y447293D01*
X-1094384Y438353D01*
X-1096924Y428904D01*
X-1097788Y419100D01*
X-1096924Y409295D01*
X-1094384Y399846D01*
X-1091590Y393903D01*
X-1090676Y389890D01*
X-1091387Y385826D01*
X-1093622Y382422D01*
X-1097076Y380136D01*
X-1101090Y379425D01*
X-1105103Y380390D01*
X-1111046Y383133D01*
X-1120546Y385673D01*
X-1130300Y386537D01*
X-1140104Y385673D01*
X-1149604Y383133D01*
X-1158494Y379018D01*
X-1166571Y373380D01*
X-1173480Y366420D01*
X-1179118Y358394D01*
X-1183284Y349453D01*
X-1185824Y340004D01*
X-1186688Y330200D01*
X-1185824Y320395D01*
X-1183284Y310946D01*
X-1179118Y302006D01*
X-1173480Y293979D01*
X-1166571Y287020D01*
X-1158494Y281381D01*
X-1149604Y277266D01*
X-1140104Y274726D01*
X-1130300Y273862D01*
X-1120546Y274726D01*
X-1111046Y277266D01*
X-1102156Y281381D01*
X-1096010Y285699D01*
X-1091946Y287375D01*
X-1087577Y287172D01*
X-1083665Y285140D01*
X-1080973Y281686D01*
X-1080008Y277368D01*
X-1080008Y114808D01*
X-1079246Y106781D01*
X-1077061Y99517D01*
X-1073454Y92862D01*
X-1068374Y86614D01*
X-1011174Y29413D01*
X-1009142Y26568D01*
X-1008227Y23114D01*
X-1008024Y20828D01*
X-1005484Y11328D01*
X-1001318Y2438D01*
X-995680Y-5638D01*
X-988771Y-12547D01*
X-980694Y-18186D01*
X-971803Y-22352D01*
X-962304Y-24892D01*
X-952500Y-25755D01*
X-942746Y-24892D01*
X-933246Y-22352D01*
X-924356Y-18186D01*
X-916279Y-12547D01*
X-909370Y-5638D01*
X-903732Y2438D01*
X-899566Y11328D01*
X-897026Y20828D01*
X-896162Y30581D01*
X-897026Y40386D01*
X-899566Y49885D01*
X-903732Y58775D01*
X-909370Y66852D01*
X-916279Y73761D01*
X-924356Y79400D01*
X-933246Y83566D01*
X-942746Y86106D01*
X-952500Y86969D01*
X-954176Y86817D01*
X-958545Y87376D01*
X-962253Y89763D01*
X-999845Y127304D01*
X-1002030Y130606D01*
X-1002792Y134467D01*
X-1002792Y370332D01*
X-1002030Y374192D01*
X-999845Y377494D01*
X-996543Y379730D01*
X-992632Y380492D01*
X-870508Y380492D01*
X-866597Y379730D01*
X-863346Y377494D01*
X-861771Y375920D01*
X-853694Y370281D01*
X-844803Y366166D01*
X-835304Y363626D01*
X-827328Y362915D01*
X-823925Y362000D01*
X-821029Y359968D01*
X-789686Y328625D01*
X-783437Y323494D01*
X-776782Y319938D01*
X-769518Y317754D01*
X-761492Y316941D01*
X-325018Y316941D01*
X-321106Y316179D01*
X-317855Y313944D01*
X-294741Y290880D01*
X-292557Y287578D01*
X-291795Y283718D01*
X-292557Y279806D01*
X-294741Y276504D01*
X-298043Y274320D01*
X-301955Y273558D01*
X-647192Y273558D01*
X-654405Y272796D01*
X-660806Y270713D01*
X-666750Y267258D01*
X-670814Y263804D01*
X-699871Y234746D01*
X-702767Y232714D01*
X-706170Y231800D01*
X-709726Y232105D01*
X-714146Y233273D01*
X-723900Y234137D01*
X-733704Y233273D01*
X-743204Y230733D01*
X-752094Y226618D01*
X-760171Y220979D01*
X-767080Y214020D01*
X-772718Y205994D01*
X-776884Y197053D01*
X-779424Y187604D01*
X-780288Y177800D01*
X-779424Y167995D01*
X-776884Y158546D01*
X-772718Y149606D01*
X-767080Y141579D01*
X-760171Y134620D01*
X-752094Y128981D01*
X-743204Y124866D01*
X-733704Y122326D01*
X-723900Y121462D01*
X-714146Y122326D01*
X-711200Y123088D01*
X-707694Y123393D01*
X-704240Y122478D01*
X-701395Y120446D01*
X-699363Y117602D01*
X-696518Y111506D01*
X-690880Y103479D01*
X-683971Y96520D01*
X-675894Y90881D01*
X-667004Y86766D01*
X-657504Y84226D01*
X-647700Y83362D01*
X-637032Y84277D01*
X-633730Y84023D01*
X-627329Y82448D01*
X-621893Y82042D01*
X-279958Y82042D01*
X-272745Y82804D01*
X-266293Y84886D01*
X-260350Y88290D01*
X-256336Y91744D01*
X-241808Y106273D01*
X-238099Y108610D01*
X-233730Y109220D01*
X-228600Y108762D01*
X-218846Y109626D01*
X-209346Y112166D01*
X-200456Y116281D01*
X-192379Y121920D01*
X-185470Y128879D01*
X-179832Y136906D01*
X-175666Y145846D01*
X-173126Y155295D01*
X-172262Y165100D01*
X-173126Y174904D01*
X-175666Y184353D01*
X-179832Y193294D01*
X-182676Y197358D01*
X-184302Y201168D01*
X-184302Y205232D01*
X-182676Y209042D01*
X-179832Y213106D01*
X-175666Y222046D01*
X-173126Y231495D01*
X-172262Y241300D01*
X-173126Y251104D01*
X-175666Y260553D01*
X-179832Y269494D01*
X-182676Y273558D01*
X-184302Y277368D01*
X-184302Y281432D01*
X-182676Y285242D01*
X-179832Y289306D01*
X-175666Y298246D01*
X-173126Y307695D01*
X-172262Y317500D01*
X-173126Y327304D01*
X-175666Y336753D01*
X-179832Y345694D01*
X-185470Y353720D01*
X-192379Y360680D01*
X-200456Y366318D01*
X-209346Y370433D01*
X-218846Y372973D01*
X-228600Y373837D01*
X-238404Y372973D01*
X-247904Y370433D01*
X-253187Y367995D01*
X-257200Y367030D01*
X-261213Y367741D01*
X-264668Y370027D01*
X-277164Y382473D01*
X-283413Y387604D01*
X-290068Y391160D01*
X-297281Y393344D01*
X-305308Y394157D01*
X-468731Y394157D01*
X-472389Y394817D01*
X-475538Y396748D01*
X-477824Y399694D01*
X-478840Y403250D01*
X-478586Y406958D01*
X-477926Y409295D01*
X-477062Y419100D01*
X-477926Y428904D01*
X-480466Y438353D01*
X-484632Y447293D01*
X-490270Y455320D01*
X-497179Y462280D01*
X-505256Y467918D01*
X-514146Y472033D01*
X-523646Y474573D01*
X-527050Y474878D01*
X-530758Y475945D01*
X-533755Y478231D01*
X-535736Y481533D01*
X-536346Y485292D01*
X-535533Y489000D01*
X-533400Y492150D01*
X-527507Y498144D01*
X-524205Y500380D01*
X-520293Y501142D01*
X-42418Y501142D01*
X-38557Y500380D01*
X-35255Y498144D01*
X-33070Y494893D01*
X-32258Y490982D01*
X-32258Y51206D01*
X-33070Y47294D01*
X-35306Y43992D01*
X-43230Y36169D01*
X-48818Y28194D01*
X-52984Y19253D01*
X-55524Y9804D01*
X-56388Y0D01*
X-55524Y-9804D01*
X-52984Y-19253D01*
X-48818Y-28194D01*
X-43180Y-36220D01*
X-36271Y-43180D01*
X-28194Y-48818D01*
X-19304Y-52933D01*
X-9804Y-55473D01*
X0Y-56337D01*
X9753Y-55473D01*
X19253Y-52933D01*
X28143Y-48818D01*
X36220Y-43180D01*
X43586Y-35763D01*
X46888Y-33578D01*
X50800Y-32766D01*
X54660Y-33578D01*
X57962Y-35763D01*
X65379Y-43180D01*
X73406Y-48818D01*
X82346Y-52933D01*
X91795Y-55473D01*
X102006Y-56388D01*
X105714Y-57404D01*
X108712Y-59740D01*
X110693Y-63042D01*
X111302Y-66802D01*
X110439Y-70510D01*
X108305Y-73710D01*
X-157835Y-339801D01*
X-161086Y-342036D01*
X-164998Y-342798D01*
X-1763572Y-342798D01*
X-1767839Y-341833D01*
X-1771345Y-339140D01*
X-1773377Y-335280D01*
X-1773580Y-330860D01*
X-1771904Y-326796D01*
X-1767332Y-320294D01*
X-1763166Y-311353D01*
X-1760626Y-301904D01*
X-1759762Y-292100D01*
X-1760626Y-282295D01*
X-1762963Y-273659D01*
X-1763217Y-269951D01*
X-1762201Y-266395D01*
X-1759915Y-263448D01*
X-1756765Y-261518D01*
X-1753107Y-260858D01*
X-1740458Y-260858D01*
X-1733194Y-260096D01*
X-1726793Y-258013D01*
X-1720850Y-254609D01*
X-1716836Y-251155D01*
X-1603197Y-137464D01*
X-1598625Y-131826D01*
X-1595526Y-125831D01*
X-1593748Y-119227D01*
X-1593342Y-113893D01*
X-1593342Y109423D01*
X-1592580Y113334D01*
X-1590395Y116636D01*
X-1448358Y258673D01*
X-1444650Y261010D01*
X-1440281Y261620D01*
X-1435100Y261162D01*
X-1425346Y262026D01*
X-1415846Y264566D01*
X-1406956Y268681D01*
X-1398879Y274320D01*
X-1391970Y281279D01*
X-1386332Y289306D01*
X-1382166Y298246D01*
X-1379626Y307695D01*
X-1378762Y317500D01*
X-1379626Y327304D01*
X-1382166Y336753D01*
X-1386332Y345694D01*
X-1391970Y353720D01*
X-1398879Y360680D01*
X-1406956Y366318D01*
X-1413002Y369112D01*
X-1415897Y371144D01*
X-1417929Y374040D01*
X-1418844Y377444D01*
X-1418539Y380949D01*
X-1417726Y383895D01*
X-1416862Y393700D01*
X-1417726Y403504D01*
X-1420266Y412953D01*
X-1424432Y421893D01*
X-1430070Y429920D01*
X-1436979Y436880D01*
X-1445056Y442518D01*
X-1451102Y445312D01*
X-1453997Y447344D01*
X-1456029Y450240D01*
X-1456944Y453643D01*
X-1456639Y457149D01*
X-1455826Y460095D01*
X-1454962Y469900D01*
X-1455826Y479704D01*
X-1458366Y489153D01*
X-1462532Y498093D01*
X-1468170Y506120D01*
X-1475079Y513080D01*
X-1483156Y518718D01*
X-1489202Y521512D01*
X-1492097Y523544D01*
X-1494129Y526440D01*
X-1495044Y529844D01*
X-1494739Y533349D01*
X-1493926Y536295D01*
X-1493062Y546100D01*
X-1493926Y555904D01*
X-1496466Y565353D01*
X-1500632Y574294D01*
X-1506270Y582320D01*
X-1513179Y589280D01*
X-1521256Y594918D01*
X-1527302Y597712D01*
X-1530197Y599744D01*
X-1532229Y602640D01*
X-1533144Y606044D01*
X-1532839Y609549D01*
X-1532026Y612495D01*
X-1531162Y622300D01*
X-1532026Y632104D01*
X-1534566Y641553D01*
X-1538732Y650494D01*
X-1544370Y658520D01*
X-1551279Y665480D01*
X-1559356Y671118D01*
X-1565402Y673912D01*
X-1568297Y675944D01*
X-1570329Y678840D01*
X-1571244Y682244D01*
X-1570939Y685749D01*
X-1570126Y688695D01*
X-1569262Y698500D01*
X-1570126Y708304D01*
X-1572666Y717753D01*
X-1576832Y726694D01*
X-1582470Y734720D01*
X-1589379Y741680D01*
X-1597456Y747318D01*
X-1603502Y750112D01*
X-1606397Y752144D01*
X-1608429Y755040D01*
X-1609344Y758444D01*
X-1609039Y761949D01*
X-1608226Y764895D01*
X-1607362Y774700D01*
X-1608226Y784504D01*
X-1610766Y793953D01*
X-1614932Y802894D01*
X-1620570Y810920D01*
X-1627479Y817880D01*
X-1635556Y823518D01*
X-1641602Y826312D01*
X-1644497Y828344D01*
X-1646529Y831240D01*
X-1647443Y834644D01*
X-1647139Y838149D01*
X-1646326Y841095D01*
X-1645462Y850900D01*
X-1646326Y860704D01*
X-1648866Y870153D01*
X-1653032Y879094D01*
X-1658670Y887120D01*
X-1665579Y894080D01*
X-1673656Y899718D01*
X-1679702Y902512D01*
X-1682597Y904544D01*
X-1684629Y907440D01*
X-1685543Y910844D01*
X-1685239Y914349D01*
X-1684426Y917295D01*
X-1683562Y927100D01*
X-1684426Y936904D01*
X-1686966Y946353D01*
X-1691132Y955294D01*
X-1696770Y963320D01*
X-1703679Y970280D01*
X-1711756Y975918D01*
X-1720646Y980033D01*
X-1730146Y982573D01*
X-1739900Y983437D01*
X-1749704Y982573D01*
X-1759204Y980033D01*
X-1768093Y975918D01*
X-1776171Y970280D01*
X-1783080Y963320D01*
X-1788718Y955294D01*
X-1792884Y946353D01*
X-1795424Y936904D01*
X-1796288Y927100D01*
X-1795830Y921969D01*
X-1796389Y917600D01*
X-1798777Y913892D01*
X-1851253Y861415D01*
X-1855825Y855726D01*
X-1858873Y849731D01*
X-1860651Y843127D01*
X-1861057Y837793D01*
X-1861057Y525576D01*
X-1861820Y521665D01*
X-1864055Y518363D01*
X-2588463Y-206044D01*
X-2591765Y-208279D01*
X-2595676Y-209042D01*
X-5430723Y-209042D01*
X-5434634Y-208279D01*
X-5437936Y-206044D01*
X-6775450Y1131468D01*
X-6777634Y1134719D01*
X-6778447Y1138529D01*
X-6777786Y1142339D01*
X-6774332Y1151229D01*
X-6771233Y1164336D01*
X-6769862Y1177747D01*
X-6770319Y1191209D01*
X-6772554Y1204468D01*
X-6776567Y1217371D01*
X-6782257Y1229563D01*
X-6789470Y1240942D01*
X-6798208Y1251204D01*
X-6808165Y1260246D01*
X-6819290Y1267917D01*
X-6831330Y1273962D01*
X-6844030Y1278382D01*
X-6857238Y1281074D01*
X-6870700Y1281988D01*
X-6884162Y1281074D01*
X-6897370Y1278382D01*
X-6910070Y1273962D01*
X-6922109Y1267917D01*
X-6933234Y1260246D01*
X-6943242Y1251204D01*
X-6951929Y1240942D01*
X-6959193Y1229563D01*
X-6964832Y1217371D01*
X-6968845Y1204468D01*
X-6971080Y1191209D01*
X-6971538Y1177747D01*
X-6970166Y1164336D01*
X-6967067Y1151229D01*
X-6962241Y1138631D01*
X-6955739Y1126794D01*
X-6947763Y1115974D01*
X-6938365Y1106271D01*
X-6936130Y1104493D01*
X-6933438Y1101293D01*
X-6932269Y1097330D01*
X-6932828Y1093165D01*
X-6934962Y1089609D01*
X-6938365Y1087221D01*
X-6942429Y1086358D01*
X-6980123Y1086358D01*
X-6984034Y1087120D01*
X-6987336Y1089355D01*
X-7029450Y1131468D01*
X-7031634Y1134719D01*
X-7032447Y1138478D01*
X-7031786Y1142339D01*
X-7028332Y1151229D01*
X-7025233Y1164336D01*
X-7023862Y1177747D01*
X-7024319Y1191209D01*
X-7026554Y1204468D01*
X-7030567Y1217371D01*
X-7036206Y1229563D01*
X-7043470Y1240942D01*
X-7052208Y1251204D01*
X-7062165Y1260246D01*
X-7073290Y1267917D01*
X-7085330Y1273962D01*
X-7098030Y1278382D01*
X-7111238Y1281074D01*
X-7124700Y1281988D01*
X-7138162Y1281074D01*
X-7151370Y1278382D01*
X-7164070Y1273962D01*
X-7176109Y1267917D01*
X-7187234Y1260246D01*
X-7197242Y1251204D01*
X-7205929Y1240942D01*
X-7213193Y1229563D01*
X-7218832Y1217371D01*
X-7222845Y1204468D01*
X-7225080Y1191209D01*
X-7225538Y1177747D01*
X-7224166Y1164336D01*
X-7221067Y1151229D01*
X-7216190Y1138631D01*
X-7209739Y1126794D01*
X-7201763Y1115974D01*
X-7192365Y1106271D01*
X-7181799Y1097940D01*
X-7170216Y1091031D01*
X-7157770Y1085799D01*
X-7144816Y1082243D01*
X-7131456Y1080414D01*
X-7117943Y1080414D01*
X-7104583Y1082243D01*
X-7091629Y1085799D01*
X-7086244Y1088085D01*
X-7082332Y1088847D01*
X-7078421Y1088085D01*
X-7075119Y1085900D01*
X-7020864Y1031646D01*
X-7015225Y1027074D01*
X-7009231Y1024026D01*
X-7002627Y1022248D01*
X-6997293Y1021842D01*
X-6942378Y1021842D01*
X-6938416Y1021029D01*
X-6935063Y1018743D01*
X-6932930Y1015339D01*
X-6932218Y1011326D01*
X-6933184Y1007414D01*
X-6935571Y1004163D01*
X-6943242Y997203D01*
X-6951929Y986942D01*
X-6959193Y975563D01*
X-6964832Y963371D01*
X-6968845Y950468D01*
X-6971080Y937209D01*
X-6971538Y923747D01*
X-6970166Y910336D01*
X-6967067Y897229D01*
X-6962241Y884631D01*
X-6955739Y872794D01*
X-6947763Y861974D01*
X-6938365Y852271D01*
X-6936130Y850493D01*
X-6933438Y847293D01*
X-6932269Y843330D01*
X-6932828Y839165D01*
X-6934962Y835609D01*
X-6938365Y833221D01*
X-6942429Y832358D01*
X-6980123Y832358D01*
X-6984034Y833119D01*
X-6987336Y835355D01*
X-7029450Y877468D01*
X-7031634Y880719D01*
X-7032447Y884478D01*
X-7031786Y888339D01*
X-7028332Y897229D01*
X-7025233Y910336D01*
X-7023862Y923747D01*
X-7024319Y937209D01*
X-7026554Y950468D01*
X-7030567Y963371D01*
X-7036206Y975563D01*
X-7043470Y986942D01*
X-7052208Y997203D01*
X-7062165Y1006246D01*
X-7073290Y1013917D01*
X-7085330Y1019962D01*
X-7098030Y1024382D01*
X-7111238Y1027074D01*
X-7124700Y1027988D01*
X-7138162Y1027074D01*
X-7151370Y1024382D01*
X-7164070Y1019962D01*
X-7176109Y1013917D01*
X-7187234Y1006246D01*
X-7197242Y997203D01*
X-7205929Y986942D01*
X-7213193Y975563D01*
X-7218832Y963371D01*
X-7222845Y950468D01*
X-7225080Y937209D01*
X-7225538Y923747D01*
X-7224166Y910336D01*
X-7221067Y897229D01*
X-7216190Y884631D01*
X-7209739Y872794D01*
X-7201763Y861974D01*
X-7192365Y852271D01*
X-7181799Y843940D01*
X-7170216Y837031D01*
X-7157770Y831799D01*
X-7144816Y828243D01*
X-7131456Y826414D01*
X-7117943Y826414D01*
X-7104583Y828243D01*
X-7091629Y831799D01*
X-7086244Y834085D01*
X-7082332Y834847D01*
X-7078421Y834085D01*
X-7075119Y831900D01*
X-7020864Y777646D01*
X-7015225Y773074D01*
X-7009231Y770026D01*
X-7002627Y768248D01*
X-6997293Y767842D01*
X-6942378Y767842D01*
X-6938416Y767029D01*
X-6935063Y764743D01*
X-6932930Y761339D01*
X-6932218Y757326D01*
X-6933184Y753414D01*
X-6935571Y750163D01*
X-6943242Y743204D01*
X-6951929Y732942D01*
X-6959193Y721563D01*
X-6964832Y709371D01*
X-6968845Y696468D01*
X-6971080Y683209D01*
X-6971538Y669747D01*
X-6970166Y656336D01*
X-6967067Y643229D01*
X-6962241Y630631D01*
X-6955739Y618794D01*
X-6947763Y607974D01*
X-6938365Y598271D01*
X-6936130Y596493D01*
X-6933438Y593293D01*
X-6932269Y589330D01*
X-6932828Y585165D01*
X-6934962Y581609D01*
X-6938365Y579221D01*
X-6942429Y578358D01*
X-6980123Y578358D01*
X-6984034Y579120D01*
X-6987336Y581355D01*
X-7029450Y623468D01*
X-7031634Y626719D01*
X-7032447Y630478D01*
X-7031786Y634339D01*
X-7028332Y643229D01*
X-7025233Y656336D01*
X-7023862Y669747D01*
X-7024319Y683209D01*
X-7026554Y696468D01*
X-7030567Y709371D01*
X-7036206Y721563D01*
X-7043470Y732942D01*
X-7052208Y743204D01*
X-7062165Y752246D01*
X-7073290Y759917D01*
X-7085330Y765962D01*
X-7098030Y770382D01*
X-7111238Y773074D01*
X-7124700Y773988D01*
X-7138162Y773074D01*
X-7151370Y770382D01*
X-7164070Y765962D01*
X-7176109Y759917D01*
X-7187234Y752246D01*
X-7197242Y743204D01*
X-7205929Y732942D01*
X-7213193Y721563D01*
X-7218832Y709371D01*
X-7222845Y696468D01*
X-7225080Y683209D01*
X-7225538Y669747D01*
X-7224166Y656336D01*
X-7221067Y643229D01*
X-7216190Y630631D01*
X-7209739Y618794D01*
X-7201763Y607974D01*
X-7192365Y598271D01*
X-7181799Y589940D01*
X-7170216Y583031D01*
X-7157770Y577799D01*
X-7144816Y574243D01*
X-7131456Y572414D01*
X-7117943Y572414D01*
X-7104583Y574243D01*
X-7091629Y577799D01*
X-7086244Y580085D01*
X-7082332Y580847D01*
X-7078421Y580085D01*
X-7075119Y577900D01*
X-7020864Y523646D01*
X-7015225Y519074D01*
X-7009231Y516026D01*
X-7002627Y514248D01*
X-6997293Y513842D01*
X-6942378Y513842D01*
X-6938416Y513029D01*
X-6935063Y510743D01*
X-6932930Y507339D01*
X-6932218Y503326D01*
X-6933184Y499414D01*
X-6935571Y496163D01*
X-6943242Y489204D01*
X-6951929Y478942D01*
X-6959193Y467563D01*
X-6964832Y455371D01*
X-6968845Y442468D01*
X-6971080Y429209D01*
X-6971538Y415747D01*
X-6970166Y402336D01*
X-6967067Y389229D01*
X-6962241Y376631D01*
X-6955739Y364794D01*
X-6947763Y353974D01*
X-6938365Y344271D01*
X-6936130Y342493D01*
X-6933438Y339293D01*
X-6932269Y335330D01*
X-6932828Y331165D01*
X-6934962Y327609D01*
X-6938365Y325221D01*
X-6942429Y324358D01*
X-6980123Y324358D01*
X-6984034Y325120D01*
X-6987336Y327355D01*
X-7029450Y369468D01*
X-7031634Y372719D01*
X-7032447Y376478D01*
X-7031786Y380339D01*
X-7028332Y389229D01*
X-7025233Y402336D01*
X-7023862Y415747D01*
X-7024319Y429209D01*
X-7026554Y442468D01*
X-7030567Y455371D01*
X-7036206Y467563D01*
X-7043470Y478942D01*
X-7052208Y489204D01*
X-7062165Y498246D01*
X-7073290Y505917D01*
X-7085330Y511962D01*
X-7098030Y516382D01*
X-7111238Y519074D01*
X-7124700Y519988D01*
X-7138162Y519074D01*
X-7151370Y516382D01*
X-7164070Y511962D01*
X-7176109Y505917D01*
X-7187234Y498246D01*
X-7197242Y489204D01*
X-7205929Y478942D01*
X-7213193Y467563D01*
X-7218832Y455371D01*
X-7222845Y442468D01*
X-7225080Y429209D01*
X-7225538Y415747D01*
X-7224166Y402336D01*
X-7221067Y389229D01*
X-7216190Y376631D01*
X-7209739Y364794D01*
X-7201763Y353974D01*
X-7192365Y344271D01*
X-7181799Y335940D01*
X-7170216Y329031D01*
X-7157770Y323799D01*
X-7144816Y320243D01*
X-7131456Y318414D01*
X-7117943Y318414D01*
X-7104583Y320243D01*
X-7091629Y323799D01*
X-7086244Y326085D01*
X-7082332Y326847D01*
X-7078421Y326085D01*
X-7075119Y323900D01*
X-7020864Y269646D01*
X-7015225Y265074D01*
X-7009231Y262026D01*
X-7002627Y260248D01*
X-6997293Y259842D01*
X-6942378Y259842D01*
X-6938416Y259029D01*
X-6935063Y256743D01*
X-6932930Y253339D01*
X-6932218Y249326D01*
X-6933184Y245414D01*
X-6935571Y242163D01*
X-6943242Y235204D01*
X-6951929Y224942D01*
X-6959193Y213563D01*
X-6964832Y201371D01*
X-6968845Y188468D01*
X-6971080Y175209D01*
X-6971538Y161747D01*
X-6970166Y148336D01*
X-6967067Y135229D01*
X-6962241Y122631D01*
X-6955739Y110794D01*
X-6947763Y99974D01*
X-6938365Y90271D01*
X-6936130Y88493D01*
X-6933438Y85293D01*
X-6932269Y81330D01*
X-6932828Y77165D01*
X-6934962Y73609D01*
X-6938365Y71221D01*
X-6942429Y70358D01*
X-6980123Y70358D01*
X-6984034Y71120D01*
X-6987336Y73355D01*
X-7029450Y115468D01*
X-7031634Y118719D01*
X-7032447Y122478D01*
X-7031786Y126339D01*
X-7028332Y135229D01*
X-7025233Y148336D01*
X-7023862Y161747D01*
X-7024319Y175209D01*
X-7026554Y188468D01*
X-7030567Y201371D01*
X-7036206Y213563D01*
X-7043470Y224942D01*
X-7052208Y235204D01*
X-7062165Y244246D01*
X-7073290Y251917D01*
X-7085330Y257962D01*
X-7098030Y262382D01*
X-7111238Y265074D01*
X-7124700Y265988D01*
X-7138162Y265074D01*
X-7151370Y262382D01*
X-7164070Y257962D01*
X-7176109Y251917D01*
X-7187234Y244246D01*
X-7197242Y235204D01*
X-7205929Y224942D01*
X-7213193Y213563D01*
X-7218832Y201371D01*
X-7222845Y188468D01*
X-7225080Y175209D01*
X-7225538Y161747D01*
X-7224166Y148336D01*
X-7221067Y135229D01*
X-7216190Y122631D01*
X-7209739Y110794D01*
X-7201763Y99974D01*
X-7192365Y90271D01*
X-7181799Y81940D01*
X-7170216Y75031D01*
X-7157770Y69799D01*
X-7144816Y66243D01*
X-7131456Y64414D01*
X-7117943Y64414D01*
X-7104583Y66243D01*
X-7091629Y69799D01*
X-7086244Y72085D01*
X-7082332Y72847D01*
X-7078421Y72085D01*
X-7075119Y69900D01*
X-7020864Y15646D01*
X-7015225Y11074D01*
X-7009231Y8026D01*
X-7002627Y6248D01*
X-6997293Y5842D01*
X-6942378Y5842D01*
X-6938416Y5029D01*
X-6935063Y2743D01*
X-6932930Y-660D01*
X-6932218Y-4673D01*
X-6933184Y-8585D01*
X-6935571Y-11836D01*
X-6943242Y-18796D01*
X-6951929Y-29057D01*
X-6959193Y-40436D01*
X-6964832Y-52628D01*
X-6968845Y-65532D01*
X-6971080Y-78790D01*
X-6971538Y-92252D01*
X-6970166Y-105664D01*
X-6967067Y-118770D01*
X-6962241Y-131368D01*
X-6955739Y-143205D01*
X-6947763Y-154025D01*
X-6938365Y-163728D01*
X-6936130Y-165506D01*
X-6933438Y-168706D01*
X-6932269Y-172720D01*
X-6932828Y-176834D01*
X-6934962Y-180390D01*
X-6938365Y-182778D01*
X-6942429Y-183642D01*
X-6980123Y-183642D01*
X-6984034Y-182880D01*
X-6987336Y-180695D01*
X-7029450Y-138531D01*
X-7031634Y-135280D01*
X-7032447Y-131521D01*
X-7031786Y-127660D01*
X-7028332Y-118770D01*
X-7025233Y-105664D01*
X-7023862Y-92252D01*
X-7024319Y-78790D01*
X-7026554Y-65532D01*
X-7030567Y-52628D01*
X-7036206Y-40436D01*
X-7043470Y-29057D01*
X-7052208Y-18796D01*
X-7062165Y-9753D01*
X-7073290Y-2082D01*
X-7085330Y3962D01*
X-7098030Y8382D01*
X-7111238Y11074D01*
X-7124700Y11988D01*
X-7138162Y11074D01*
X-7151370Y8382D01*
X-7164070Y3962D01*
X-7176109Y-2082D01*
X-7187234Y-9753D01*
X-7197242Y-18796D01*
X-7205929Y-29057D01*
X-7213193Y-40436D01*
X-7218832Y-52628D01*
X-7222845Y-65532D01*
X-7225080Y-78790D01*
X-7225538Y-92252D01*
X-7224166Y-105664D01*
X-7221067Y-118770D01*
X-7216190Y-131368D01*
X-7209739Y-143205D01*
X-7201763Y-154025D01*
X-7192365Y-163728D01*
X-7181799Y-172059D01*
X-7170216Y-178968D01*
X-7157770Y-184200D01*
X-7144816Y-187756D01*
X-7131456Y-189585D01*
X-7117943Y-189585D01*
X-7104583Y-187756D01*
X-7091629Y-184200D01*
X-7086244Y-181965D01*
X-7082332Y-181152D01*
X-7078421Y-181914D01*
X-7075119Y-184099D01*
X-7020864Y-238353D01*
X-7015225Y-242925D01*
X-7009231Y-245973D01*
X-7002627Y-247751D01*
X-6997293Y-248158D01*
X-6942378Y-248158D01*
X-6938416Y-248970D01*
X-6935114Y-251256D01*
X-6932930Y-254660D01*
X-6932218Y-258673D01*
X-6933184Y-262585D01*
X-6935571Y-265836D01*
X-6943242Y-272796D01*
X-6951929Y-283057D01*
X-6959193Y-294436D01*
X-6964832Y-306628D01*
X-6968845Y-319532D01*
X-6971080Y-332790D01*
X-6971538Y-346252D01*
X-6970166Y-359664D01*
X-6967067Y-372770D01*
X-6962241Y-385368D01*
X-6955739Y-397205D01*
X-6947763Y-408025D01*
X-6938365Y-417728D01*
X-6927799Y-426059D01*
X-6916216Y-432968D01*
X-6903821Y-438200D01*
X-6890816Y-441756D01*
X-6877456Y-443585D01*
X-6863943Y-443585D01*
X-6850634Y-441756D01*
X-6837629Y-438200D01*
X-6832244Y-435914D01*
X-6828332Y-435152D01*
X-6824421Y-435914D01*
X-6821119Y-438099D01*
X-6779209Y-480009D01*
X-6777024Y-483209D01*
X-6776262Y-487019D01*
X-6776923Y-490829D01*
X-6779006Y-494131D01*
X-6782155Y-496417D01*
X-6785914Y-497332D01*
X-6796278Y-496011D01*
X-6858000Y-496011D01*
X-6858000Y-584200D01*
X-6769811Y-584200D01*
X-6769811Y-522478D01*
X-6771131Y-512114D01*
X-6770217Y-508355D01*
X-6767931Y-505206D01*
X-6764629Y-503123D01*
X-6760819Y-502462D01*
X-6757009Y-503224D01*
X-6753809Y-505409D01*
X-6538264Y-720953D01*
X-6532626Y-725525D01*
X-6521957Y-730707D01*
X-6519316Y-733907D01*
X-6518198Y-737870D01*
X-6518706Y-741984D01*
X-6520840Y-745540D01*
X-6524244Y-747928D01*
X-6528307Y-748792D01*
G37*

%LPC*%
G36*
X-3898900Y2544572D02*
G01*
X-3896969Y2546350D01*
X-3892804Y2547670D01*
X-3889146Y2547975D01*
X-3879646Y2550515D01*
X-3877259Y2551633D01*
X-3872992Y2552598D01*
X-2254656Y2552598D01*
X-2250338Y2551633D01*
X-2247900Y2549753D01*
X-2245461Y2551633D01*
X-2241143Y2552598D01*
X-2019858Y2552598D01*
X-2015540Y2551633D01*
X-2013204Y2550515D01*
X-2003704Y2547975D01*
X-1993900Y2547162D01*
X-1984146Y2547975D01*
X-1974646Y2550515D01*
X-1965756Y2554681D01*
X-1957679Y2560320D01*
X-1950770Y2567279D01*
X-1945132Y2575306D01*
X-1940966Y2584196D01*
X-1938426Y2593695D01*
X-1937562Y2603500D01*
X-1938426Y2613253D01*
X-1940966Y2622753D01*
X-1945132Y2631643D01*
X-1950770Y2639720D01*
X-1957679Y2646680D01*
X-1965756Y2652268D01*
X-1974646Y2656433D01*
X-1984146Y2658973D01*
X-1993900Y2659837D01*
X-2003704Y2658973D01*
X-2013204Y2656433D01*
X-2015489Y2655366D01*
X-2019807Y2654401D01*
X-3873042Y2654401D01*
X-3877310Y2655366D01*
X-3879646Y2656433D01*
X-3889146Y2658973D01*
X-3898900Y2659837D01*
X-3908704Y2658973D01*
X-3918204Y2656433D01*
X-3927094Y2652268D01*
X-3935120Y2646680D01*
X-3942079Y2639720D01*
X-3947718Y2631643D01*
X-3951884Y2622753D01*
X-3954424Y2613253D01*
X-3955237Y2603500D01*
X-3954424Y2593695D01*
X-3951884Y2584196D01*
X-3947718Y2575306D01*
X-3942079Y2567279D01*
X-3935120Y2560320D01*
X-3927094Y2554681D01*
X-3918204Y2550515D01*
X-3908704Y2547975D01*
X-3905046Y2547670D01*
X-3900830Y2546350D01*
G37*
G36*
X-4008729Y2420112D02*
G01*
X-3998925Y2420975D01*
X-3989476Y2423515D01*
X-3987088Y2424633D01*
X-3982770Y2425598D01*
X-2273808Y2425598D01*
X-2269540Y2424633D01*
X-2267153Y2423515D01*
X-2257704Y2420975D01*
X-2247900Y2420112D01*
X-2238095Y2420975D01*
X-2228646Y2423515D01*
X-2219706Y2427681D01*
X-2211679Y2433320D01*
X-2204720Y2440228D01*
X-2199081Y2448306D01*
X-2194966Y2457196D01*
X-2192426Y2466695D01*
X-2191562Y2476449D01*
X-2192426Y2486253D01*
X-2194966Y2495753D01*
X-2199081Y2504643D01*
X-2204720Y2512720D01*
X-2211679Y2519629D01*
X-2219706Y2525268D01*
X-2228646Y2529433D01*
X-2238095Y2531973D01*
X-2242058Y2532329D01*
X-2246223Y2533650D01*
X-2247900Y2535174D01*
X-2249576Y2533650D01*
X-2253742Y2532329D01*
X-2257704Y2531973D01*
X-2267153Y2529433D01*
X-2269490Y2528366D01*
X-2273757Y2527401D01*
X-3891889Y2527401D01*
X-3896207Y2528366D01*
X-3898900Y2530449D01*
X-3901643Y2528366D01*
X-3905910Y2527401D01*
X-3982872Y2527401D01*
X-3987139Y2528366D01*
X-3989476Y2529433D01*
X-3998925Y2531973D01*
X-4008729Y2532837D01*
X-4018534Y2531973D01*
X-4027982Y2529433D01*
X-4036923Y2525268D01*
X-4044950Y2519629D01*
X-4051909Y2512720D01*
X-4057548Y2504643D01*
X-4061663Y2495753D01*
X-4064203Y2486253D01*
X-4065066Y2476449D01*
X-4064203Y2466695D01*
X-4061663Y2457196D01*
X-4057548Y2448306D01*
X-4051909Y2440228D01*
X-4044950Y2433320D01*
X-4036923Y2427681D01*
X-4027982Y2423515D01*
X-4018534Y2420975D01*
G37*
G36*
X-6945122Y-697788D02*
G01*
X-6883400Y-697788D01*
X-6883400Y-609600D01*
X-6971588Y-609600D01*
X-6971588Y-671322D01*
X-6970877Y-677672D01*
X-6968998Y-683107D01*
X-6965899Y-688035D01*
X-6961835Y-692099D01*
X-6956907Y-695198D01*
X-6951472Y-697077D01*
G37*
G36*
X-7112000Y-697788D02*
G01*
X-7050278Y-697788D01*
X-7043928Y-697077D01*
X-7038492Y-695198D01*
X-7033564Y-692099D01*
X-7029500Y-688035D01*
X-7026402Y-683107D01*
X-7024522Y-677672D01*
X-7023811Y-671322D01*
X-7023811Y-609600D01*
X-7112000Y-609600D01*
G37*
G36*
X-7199122Y-697788D02*
G01*
X-7137400Y-697788D01*
X-7137400Y-609600D01*
X-7225588Y-609600D01*
X-7225588Y-671322D01*
X-7224877Y-677672D01*
X-7222998Y-683107D01*
X-7219899Y-688035D01*
X-7215835Y-692099D01*
X-7210907Y-695198D01*
X-7205472Y-697077D01*
G37*
G36*
X598627Y-697788D02*
G01*
X660400Y-697788D01*
X660400Y-609600D01*
X572160Y-609600D01*
X572160Y-671322D01*
X572871Y-677672D01*
X574802Y-683107D01*
X577850Y-688035D01*
X581964Y-692099D01*
X586841Y-695198D01*
X592328Y-697077D01*
G37*
G36*
X685800Y-697788D02*
G01*
X747522Y-697788D01*
X753821Y-697077D01*
X759307Y-695198D01*
X764184Y-692099D01*
X768299Y-688035D01*
X771347Y-683107D01*
X773277Y-677672D01*
X773988Y-671322D01*
X773988Y-609600D01*
X685800Y-609600D01*
G37*
G36*
X344678Y-697788D02*
G01*
X406400Y-697788D01*
X406400Y-609600D01*
X318160Y-609600D01*
X318160Y-671322D01*
X318871Y-677672D01*
X320802Y-683107D01*
X323900Y-688035D01*
X327964Y-692099D01*
X332892Y-695198D01*
X338328Y-697077D01*
G37*
G36*
X431800Y-697788D02*
G01*
X493522Y-697788D01*
X499821Y-697077D01*
X505307Y-695198D01*
X510184Y-692099D01*
X514299Y-688035D01*
X517347Y-683107D01*
X519277Y-677672D01*
X519988Y-671322D01*
X519988Y-609600D01*
X431800Y-609600D01*
G37*
G36*
X-6858000Y-697788D02*
G01*
X-6796278Y-697788D01*
X-6789978Y-697077D01*
X-6784492Y-695198D01*
X-6779615Y-692099D01*
X-6775500Y-688035D01*
X-6772402Y-683107D01*
X-6770522Y-677672D01*
X-6769811Y-671322D01*
X-6769811Y-609600D01*
X-6858000Y-609600D01*
G37*
G36*
X-3893972Y2256434D02*
G01*
X-3884218Y2257298D01*
X-3874719Y2259838D01*
X-3865829Y2264003D01*
X-3857751Y2269642D01*
X-3850843Y2276551D01*
X-3845204Y2284628D01*
X-3841038Y2293518D01*
X-3838498Y2303018D01*
X-3837635Y2312771D01*
X-3838498Y2322576D01*
X-3841038Y2332075D01*
X-3845204Y2340965D01*
X-3850843Y2349042D01*
X-3857751Y2355951D01*
X-3865829Y2361590D01*
X-3874719Y2365756D01*
X-3884218Y2368296D01*
X-3893972Y2369159D01*
X-3903776Y2368296D01*
X-3913276Y2365756D01*
X-3922166Y2361590D01*
X-3930243Y2355951D01*
X-3937152Y2349042D01*
X-3942791Y2340965D01*
X-3946956Y2332075D01*
X-3949496Y2322576D01*
X-3950360Y2312771D01*
X-3949496Y2303018D01*
X-3946956Y2293518D01*
X-3942791Y2284628D01*
X-3937152Y2276551D01*
X-3930243Y2269642D01*
X-3922166Y2264003D01*
X-3913276Y2259838D01*
X-3903776Y2257298D01*
G37*
G36*
X-6971588Y-584200D02*
G01*
X-6883400Y-584200D01*
X-6883400Y-496011D01*
X-6945122Y-496011D01*
X-6951472Y-496722D01*
X-6956907Y-498601D01*
X-6961835Y-501700D01*
X-6965899Y-505815D01*
X-6968998Y-510692D01*
X-6970877Y-516178D01*
X-6971588Y-522478D01*
G37*
G36*
X-7112000Y-584200D02*
G01*
X-7023811Y-584200D01*
X-7023811Y-522478D01*
X-7024522Y-516178D01*
X-7026402Y-510692D01*
X-7029500Y-505815D01*
X-7033564Y-501700D01*
X-7038492Y-498601D01*
X-7043928Y-496722D01*
X-7050278Y-496011D01*
X-7112000Y-496011D01*
G37*
G36*
X-7225588Y-584200D02*
G01*
X-7137400Y-584200D01*
X-7137400Y-496011D01*
X-7199122Y-496011D01*
X-7205472Y-496722D01*
X-7210907Y-498601D01*
X-7215835Y-501700D01*
X-7219899Y-505815D01*
X-7222998Y-510692D01*
X-7224877Y-516178D01*
X-7225588Y-522478D01*
G37*
G36*
X318160Y-584200D02*
G01*
X406400Y-584200D01*
X406400Y-496011D01*
X344678Y-496011D01*
X338328Y-496722D01*
X332892Y-498601D01*
X327964Y-501700D01*
X323900Y-505815D01*
X320802Y-510692D01*
X318871Y-516178D01*
X318160Y-522478D01*
G37*
G36*
X431800Y-584200D02*
G01*
X519988Y-584200D01*
X519988Y-522478D01*
X519277Y-516178D01*
X517347Y-510692D01*
X514299Y-505815D01*
X510184Y-501700D01*
X505307Y-498601D01*
X499821Y-496722D01*
X493522Y-496011D01*
X431800Y-496011D01*
G37*
G36*
X572160Y-584200D02*
G01*
X660400Y-584200D01*
X660400Y-496011D01*
X598627Y-496011D01*
X592328Y-496722D01*
X586841Y-498601D01*
X581964Y-501700D01*
X577850Y-505815D01*
X574802Y-510692D01*
X572871Y-516178D01*
X572160Y-522478D01*
G37*
G36*
X685800Y-584200D02*
G01*
X773988Y-584200D01*
X773988Y-522478D01*
X773277Y-516178D01*
X771347Y-510692D01*
X768299Y-505815D01*
X764184Y-501700D01*
X759307Y-498601D01*
X753821Y-496722D01*
X747522Y-496011D01*
X685800Y-496011D01*
G37*
G36*
X-2959100Y1739696D02*
G01*
X-2944571Y1740611D01*
X-2930296Y1743354D01*
X-2916428Y1747824D01*
X-2903270Y1754022D01*
X-2890977Y1761845D01*
X-2879801Y1771091D01*
X-2869793Y1781708D01*
X-2861259Y1793493D01*
X-2854248Y1806244D01*
X-2848914Y1819757D01*
X-2845257Y1833880D01*
X-2843428Y1848307D01*
X-2843428Y1862886D01*
X-2845257Y1877314D01*
X-2848914Y1891385D01*
X-2854248Y1904949D01*
X-2861259Y1917700D01*
X-2869793Y1929485D01*
X-2879801Y1940052D01*
X-2890977Y1949348D01*
X-2903270Y1957120D01*
X-2916428Y1963318D01*
X-2930296Y1967839D01*
X-2944571Y1970582D01*
X-2959100Y1971497D01*
X-2973628Y1970582D01*
X-2987954Y1967839D01*
X-3001772Y1963318D01*
X-3014929Y1957120D01*
X-3027222Y1949348D01*
X-3038449Y1940052D01*
X-3048406Y1929485D01*
X-3056940Y1917700D01*
X-3063951Y1904949D01*
X-3069336Y1891385D01*
X-3072942Y1877314D01*
X-3074771Y1862886D01*
X-3074771Y1848307D01*
X-3072942Y1833880D01*
X-3069336Y1819757D01*
X-3063951Y1806244D01*
X-3056940Y1793493D01*
X-3048406Y1781708D01*
X-3038449Y1771091D01*
X-3027222Y1761845D01*
X-3014929Y1754022D01*
X-3001772Y1747824D01*
X-2987954Y1743354D01*
X-2973628Y1740611D01*
G37*
G36*
X-2705100Y1739696D02*
G01*
X-2690571Y1740611D01*
X-2676296Y1743354D01*
X-2662428Y1747824D01*
X-2649270Y1754022D01*
X-2636977Y1761845D01*
X-2625801Y1771091D01*
X-2615793Y1781708D01*
X-2607259Y1793493D01*
X-2600248Y1806244D01*
X-2594914Y1819757D01*
X-2591257Y1833880D01*
X-2589428Y1848307D01*
X-2589428Y1862886D01*
X-2591257Y1877314D01*
X-2594914Y1891385D01*
X-2600248Y1904949D01*
X-2607259Y1917700D01*
X-2615793Y1929485D01*
X-2625801Y1940052D01*
X-2636977Y1949348D01*
X-2649270Y1957120D01*
X-2662428Y1963318D01*
X-2676296Y1967839D01*
X-2690571Y1970582D01*
X-2705100Y1971497D01*
X-2719628Y1970582D01*
X-2733954Y1967839D01*
X-2747772Y1963318D01*
X-2760929Y1957120D01*
X-2773222Y1949348D01*
X-2784449Y1940052D01*
X-2794406Y1929485D01*
X-2802940Y1917700D01*
X-2809951Y1904949D01*
X-2815336Y1891385D01*
X-2818942Y1877314D01*
X-2820771Y1862886D01*
X-2820771Y1848307D01*
X-2818942Y1833880D01*
X-2815336Y1819757D01*
X-2809951Y1806244D01*
X-2802940Y1793493D01*
X-2794406Y1781708D01*
X-2784449Y1771091D01*
X-2773222Y1761845D01*
X-2760929Y1754022D01*
X-2747772Y1747824D01*
X-2733954Y1743354D01*
X-2719628Y1740611D01*
G37*
G36*
X-2959100Y1485696D02*
G01*
X-2944571Y1486611D01*
X-2930296Y1489354D01*
X-2916428Y1493824D01*
X-2903270Y1500022D01*
X-2890977Y1507845D01*
X-2879801Y1517091D01*
X-2869793Y1527708D01*
X-2861259Y1539494D01*
X-2854248Y1552244D01*
X-2848914Y1565757D01*
X-2845257Y1579880D01*
X-2843428Y1594307D01*
X-2843428Y1608886D01*
X-2845257Y1623314D01*
X-2848914Y1637385D01*
X-2854248Y1650949D01*
X-2861259Y1663700D01*
X-2869793Y1675485D01*
X-2879801Y1686052D01*
X-2890977Y1695348D01*
X-2903270Y1703120D01*
X-2916428Y1709318D01*
X-2930296Y1713839D01*
X-2944571Y1716582D01*
X-2959100Y1717497D01*
X-2973628Y1716582D01*
X-2987954Y1713839D01*
X-3001772Y1709318D01*
X-3014929Y1703120D01*
X-3027222Y1695348D01*
X-3038449Y1686052D01*
X-3048406Y1675485D01*
X-3056940Y1663700D01*
X-3063951Y1650949D01*
X-3069336Y1637385D01*
X-3072942Y1623314D01*
X-3074771Y1608886D01*
X-3074771Y1594307D01*
X-3072942Y1579880D01*
X-3069336Y1565757D01*
X-3063951Y1552244D01*
X-3056940Y1539494D01*
X-3048406Y1527708D01*
X-3038449Y1517091D01*
X-3027222Y1507845D01*
X-3014929Y1500022D01*
X-3001772Y1493824D01*
X-2987954Y1489354D01*
X-2973628Y1486611D01*
G37*
G36*
X-2705100Y1485696D02*
G01*
X-2690571Y1486611D01*
X-2676296Y1489354D01*
X-2662428Y1493824D01*
X-2649270Y1500022D01*
X-2636977Y1507845D01*
X-2625801Y1517091D01*
X-2615793Y1527708D01*
X-2607259Y1539494D01*
X-2600248Y1552244D01*
X-2594914Y1565757D01*
X-2591257Y1579880D01*
X-2589428Y1594307D01*
X-2589428Y1608886D01*
X-2591257Y1623314D01*
X-2594914Y1637385D01*
X-2600248Y1650949D01*
X-2607259Y1663700D01*
X-2615793Y1675485D01*
X-2625801Y1686052D01*
X-2636977Y1695348D01*
X-2649270Y1703120D01*
X-2662428Y1709318D01*
X-2676296Y1713839D01*
X-2690571Y1716582D01*
X-2705100Y1717497D01*
X-2719628Y1716582D01*
X-2733954Y1713839D01*
X-2747772Y1709318D01*
X-2760929Y1703120D01*
X-2773222Y1695348D01*
X-2784449Y1686052D01*
X-2794406Y1675485D01*
X-2802940Y1663700D01*
X-2809951Y1650949D01*
X-2815336Y1637385D01*
X-2818942Y1623314D01*
X-2820771Y1608886D01*
X-2820771Y1594307D01*
X-2818942Y1579880D01*
X-2815336Y1565757D01*
X-2809951Y1552244D01*
X-2802940Y1539494D01*
X-2794406Y1527708D01*
X-2784449Y1517091D01*
X-2773222Y1507845D01*
X-2760929Y1500022D01*
X-2747772Y1493824D01*
X-2733954Y1489354D01*
X-2719628Y1486611D01*
G37*
G36*
X666343Y-443585D02*
G01*
X679805Y-443585D01*
X693166Y-441756D01*
X706170Y-438200D01*
X718566Y-432968D01*
X730199Y-426059D01*
X740765Y-417728D01*
X750112Y-408025D01*
X758139Y-397205D01*
X764590Y-385368D01*
X769416Y-372770D01*
X772566Y-359664D01*
X773887Y-346252D01*
X773480Y-332790D01*
X771194Y-319532D01*
X767232Y-306628D01*
X761542Y-294436D01*
X754278Y-283057D01*
X745591Y-272796D01*
X735584Y-263753D01*
X724509Y-256082D01*
X712470Y-250037D01*
X699719Y-245617D01*
X686511Y-242925D01*
X673100Y-242011D01*
X659638Y-242925D01*
X646430Y-245617D01*
X633679Y-250037D01*
X621690Y-256082D01*
X610565Y-263753D01*
X600557Y-272796D01*
X591870Y-283057D01*
X584606Y-294436D01*
X578916Y-306628D01*
X574954Y-319532D01*
X572719Y-332790D01*
X572262Y-346252D01*
X573582Y-359664D01*
X576732Y-372770D01*
X581558Y-385368D01*
X588060Y-397205D01*
X596036Y-408025D01*
X605383Y-417728D01*
X616000Y-426059D01*
X627583Y-432968D01*
X639978Y-438200D01*
X652983Y-441756D01*
G37*
G36*
X-7131456Y-443585D02*
G01*
X-7117943Y-443585D01*
X-7104583Y-441756D01*
X-7091629Y-438200D01*
X-7079183Y-432968D01*
X-7067600Y-426059D01*
X-7057034Y-417728D01*
X-7047636Y-408025D01*
X-7039660Y-397205D01*
X-7033209Y-385368D01*
X-7028332Y-372770D01*
X-7025233Y-359664D01*
X-7023862Y-346252D01*
X-7024319Y-332790D01*
X-7026554Y-319532D01*
X-7030567Y-306628D01*
X-7036206Y-294436D01*
X-7043470Y-283057D01*
X-7052208Y-272796D01*
X-7062165Y-263753D01*
X-7073290Y-256082D01*
X-7085330Y-250037D01*
X-7098030Y-245617D01*
X-7111238Y-242925D01*
X-7124700Y-242011D01*
X-7138162Y-242925D01*
X-7151370Y-245617D01*
X-7164070Y-250037D01*
X-7176109Y-256082D01*
X-7187234Y-263753D01*
X-7197242Y-272796D01*
X-7205929Y-283057D01*
X-7213193Y-294436D01*
X-7218832Y-306628D01*
X-7222845Y-319532D01*
X-7225080Y-332790D01*
X-7225538Y-346252D01*
X-7224166Y-359664D01*
X-7221067Y-372770D01*
X-7216190Y-385368D01*
X-7209739Y-397205D01*
X-7201763Y-408025D01*
X-7192365Y-417728D01*
X-7181799Y-426059D01*
X-7170216Y-432968D01*
X-7157770Y-438200D01*
X-7144816Y-441756D01*
G37*
G36*
X-2959100Y1231696D02*
G01*
X-2944571Y1232611D01*
X-2930296Y1235354D01*
X-2916428Y1239824D01*
X-2903270Y1246022D01*
X-2890977Y1253845D01*
X-2879801Y1263091D01*
X-2869793Y1273708D01*
X-2861259Y1285494D01*
X-2854248Y1298244D01*
X-2848914Y1311757D01*
X-2845257Y1325880D01*
X-2843428Y1340307D01*
X-2843428Y1354886D01*
X-2845257Y1369314D01*
X-2848914Y1383385D01*
X-2854248Y1396949D01*
X-2861259Y1409700D01*
X-2869793Y1421485D01*
X-2879801Y1432052D01*
X-2890977Y1441348D01*
X-2903270Y1449120D01*
X-2916428Y1455318D01*
X-2930296Y1459839D01*
X-2944571Y1462582D01*
X-2959100Y1463497D01*
X-2973628Y1462582D01*
X-2987954Y1459839D01*
X-3001772Y1455318D01*
X-3014929Y1449120D01*
X-3027222Y1441348D01*
X-3038449Y1432052D01*
X-3048406Y1421485D01*
X-3056940Y1409700D01*
X-3063951Y1396949D01*
X-3069336Y1383385D01*
X-3072942Y1369314D01*
X-3074771Y1354886D01*
X-3074771Y1340307D01*
X-3072942Y1325880D01*
X-3069336Y1311757D01*
X-3063951Y1298244D01*
X-3056940Y1285494D01*
X-3048406Y1273708D01*
X-3038449Y1263091D01*
X-3027222Y1253845D01*
X-3014929Y1246022D01*
X-3001772Y1239824D01*
X-2987954Y1235354D01*
X-2973628Y1232611D01*
G37*
G36*
X-2705100Y1231696D02*
G01*
X-2690571Y1232611D01*
X-2676296Y1235354D01*
X-2662428Y1239824D01*
X-2649270Y1246022D01*
X-2636977Y1253845D01*
X-2625801Y1263091D01*
X-2615793Y1273708D01*
X-2607259Y1285494D01*
X-2600248Y1298244D01*
X-2594914Y1311757D01*
X-2591257Y1325880D01*
X-2589428Y1340307D01*
X-2589428Y1354886D01*
X-2591257Y1369314D01*
X-2594914Y1383385D01*
X-2600248Y1396949D01*
X-2607259Y1409700D01*
X-2615793Y1421485D01*
X-2625801Y1432052D01*
X-2636977Y1441348D01*
X-2649270Y1449120D01*
X-2662428Y1455318D01*
X-2676296Y1459839D01*
X-2690571Y1462582D01*
X-2705100Y1463497D01*
X-2719628Y1462582D01*
X-2733954Y1459839D01*
X-2747772Y1455318D01*
X-2760929Y1449120D01*
X-2773222Y1441348D01*
X-2784449Y1432052D01*
X-2794406Y1421485D01*
X-2802940Y1409700D01*
X-2809951Y1396949D01*
X-2815336Y1383385D01*
X-2818942Y1369314D01*
X-2820771Y1354886D01*
X-2820771Y1340307D01*
X-2818942Y1325880D01*
X-2815336Y1311757D01*
X-2809951Y1298244D01*
X-2802940Y1285494D01*
X-2794406Y1273708D01*
X-2784449Y1263091D01*
X-2773222Y1253845D01*
X-2760929Y1246022D01*
X-2747772Y1239824D01*
X-2733954Y1235354D01*
X-2719628Y1232611D01*
G37*
G36*
X412343Y1080414D02*
G01*
X425805Y1080414D01*
X439166Y1082243D01*
X452170Y1085799D01*
X464566Y1091031D01*
X476199Y1097940D01*
X486765Y1106271D01*
X496112Y1115974D01*
X504139Y1126794D01*
X510590Y1138631D01*
X515416Y1151229D01*
X518566Y1164336D01*
X519887Y1177747D01*
X519480Y1191209D01*
X517194Y1204468D01*
X513232Y1217371D01*
X507542Y1229563D01*
X500278Y1240942D01*
X491591Y1251204D01*
X481584Y1260246D01*
X470509Y1267917D01*
X458470Y1273962D01*
X445719Y1278382D01*
X432511Y1281074D01*
X419100Y1281988D01*
X405638Y1281074D01*
X392430Y1278382D01*
X379679Y1273962D01*
X367690Y1267917D01*
X356565Y1260246D01*
X346557Y1251204D01*
X337870Y1240942D01*
X330606Y1229563D01*
X324916Y1217371D01*
X320954Y1204468D01*
X318719Y1191209D01*
X318262Y1177747D01*
X319582Y1164336D01*
X322732Y1151229D01*
X327558Y1138631D01*
X334060Y1126794D01*
X342036Y1115974D01*
X351434Y1106271D01*
X362000Y1097940D01*
X373583Y1091031D01*
X385978Y1085799D01*
X398983Y1082243D01*
G37*
G36*
X666343Y1080414D02*
G01*
X679805Y1080414D01*
X693166Y1082243D01*
X706170Y1085799D01*
X718566Y1091031D01*
X730199Y1097940D01*
X740765Y1106271D01*
X750112Y1115974D01*
X758139Y1126794D01*
X764590Y1138631D01*
X769416Y1151229D01*
X772566Y1164336D01*
X773887Y1177747D01*
X773480Y1191209D01*
X771194Y1204468D01*
X767232Y1217371D01*
X761542Y1229563D01*
X754278Y1240942D01*
X745591Y1251204D01*
X735584Y1260246D01*
X724509Y1267917D01*
X712470Y1273962D01*
X699719Y1278382D01*
X686511Y1281074D01*
X673100Y1281988D01*
X659638Y1281074D01*
X646430Y1278382D01*
X633679Y1273962D01*
X621690Y1267917D01*
X610565Y1260246D01*
X600557Y1251204D01*
X591870Y1240942D01*
X584606Y1229563D01*
X578916Y1217371D01*
X574954Y1204468D01*
X572719Y1191209D01*
X572262Y1177747D01*
X573582Y1164336D01*
X576732Y1151229D01*
X581558Y1138631D01*
X588060Y1126794D01*
X596036Y1115974D01*
X605383Y1106271D01*
X616000Y1097940D01*
X627583Y1091031D01*
X639978Y1085799D01*
X652983Y1082243D01*
G37*
G36*
X666343Y-189585D02*
G01*
X679805Y-189585D01*
X693166Y-187756D01*
X706170Y-184200D01*
X718566Y-178968D01*
X730199Y-172059D01*
X740765Y-163728D01*
X750112Y-154025D01*
X758139Y-143205D01*
X764590Y-131368D01*
X769416Y-118770D01*
X772566Y-105664D01*
X773887Y-92252D01*
X773480Y-78790D01*
X771194Y-65532D01*
X767232Y-52628D01*
X761542Y-40436D01*
X754278Y-29057D01*
X745591Y-18796D01*
X735584Y-9753D01*
X724509Y-2082D01*
X712470Y3962D01*
X699719Y8382D01*
X686511Y11074D01*
X673100Y11988D01*
X659638Y11074D01*
X646430Y8382D01*
X633679Y3962D01*
X621690Y-2082D01*
X610565Y-9753D01*
X600557Y-18796D01*
X591870Y-29057D01*
X584606Y-40436D01*
X578916Y-52628D01*
X574954Y-65532D01*
X572719Y-78790D01*
X572262Y-92252D01*
X573582Y-105664D01*
X576732Y-118770D01*
X581558Y-131368D01*
X588060Y-143205D01*
X596036Y-154025D01*
X605383Y-163728D01*
X616000Y-172059D01*
X627583Y-178968D01*
X639978Y-184200D01*
X652983Y-187756D01*
G37*
G36*
X-2959100Y977696D02*
G01*
X-2944571Y978611D01*
X-2930296Y981354D01*
X-2916428Y985824D01*
X-2903270Y992022D01*
X-2890977Y999845D01*
X-2879801Y1009091D01*
X-2869793Y1019708D01*
X-2861259Y1031494D01*
X-2854248Y1044244D01*
X-2848914Y1057757D01*
X-2845257Y1071880D01*
X-2843428Y1086307D01*
X-2843428Y1100886D01*
X-2845257Y1115314D01*
X-2848914Y1129385D01*
X-2854248Y1142949D01*
X-2861259Y1155700D01*
X-2869793Y1167485D01*
X-2879801Y1178052D01*
X-2890977Y1187348D01*
X-2903270Y1195120D01*
X-2916428Y1201318D01*
X-2930296Y1205839D01*
X-2944571Y1208582D01*
X-2959100Y1209497D01*
X-2973628Y1208582D01*
X-2987954Y1205839D01*
X-3001772Y1201318D01*
X-3014929Y1195120D01*
X-3027222Y1187348D01*
X-3038449Y1178052D01*
X-3048406Y1167485D01*
X-3056940Y1155700D01*
X-3063951Y1142949D01*
X-3069336Y1129385D01*
X-3072942Y1115314D01*
X-3074771Y1100886D01*
X-3074771Y1086307D01*
X-3072942Y1071880D01*
X-3069336Y1057757D01*
X-3063951Y1044244D01*
X-3056940Y1031494D01*
X-3048406Y1019708D01*
X-3038449Y1009091D01*
X-3027222Y999845D01*
X-3014929Y992022D01*
X-3001772Y985824D01*
X-2987954Y981354D01*
X-2973628Y978611D01*
G37*
G36*
X-2705100Y977696D02*
G01*
X-2690571Y978611D01*
X-2676296Y981354D01*
X-2662428Y985824D01*
X-2649270Y992022D01*
X-2636977Y999845D01*
X-2625801Y1009091D01*
X-2615793Y1019708D01*
X-2607259Y1031494D01*
X-2600248Y1044244D01*
X-2594914Y1057757D01*
X-2591257Y1071880D01*
X-2589428Y1086307D01*
X-2589428Y1100886D01*
X-2591257Y1115314D01*
X-2594914Y1129385D01*
X-2600248Y1142949D01*
X-2607259Y1155700D01*
X-2615793Y1167485D01*
X-2625801Y1178052D01*
X-2636977Y1187348D01*
X-2649270Y1195120D01*
X-2662428Y1201318D01*
X-2676296Y1205839D01*
X-2690571Y1208582D01*
X-2705100Y1209497D01*
X-2719628Y1208582D01*
X-2733954Y1205839D01*
X-2747772Y1201318D01*
X-2760929Y1195120D01*
X-2773222Y1187348D01*
X-2784449Y1178052D01*
X-2794406Y1167485D01*
X-2802940Y1155700D01*
X-2809951Y1142949D01*
X-2815336Y1129385D01*
X-2818942Y1115314D01*
X-2820771Y1100886D01*
X-2820771Y1086307D01*
X-2818942Y1071880D01*
X-2815336Y1057757D01*
X-2809951Y1044244D01*
X-2802940Y1031494D01*
X-2794406Y1019708D01*
X-2784449Y1009091D01*
X-2773222Y999845D01*
X-2760929Y992022D01*
X-2747772Y985824D01*
X-2733954Y981354D01*
X-2719628Y978611D01*
G37*
G36*
X-2692400Y852271D02*
G01*
X-2590139Y852271D01*
X-2591257Y861314D01*
X-2594914Y875385D01*
X-2600248Y888949D01*
X-2607259Y901700D01*
X-2615793Y913485D01*
X-2625801Y924052D01*
X-2636977Y933348D01*
X-2649270Y941120D01*
X-2662428Y947318D01*
X-2676296Y951839D01*
X-2690571Y954582D01*
X-2692400Y954684D01*
G37*
G36*
X-3162096Y-139801D02*
G01*
X-2629103Y-139801D01*
X-2624480Y-139598D01*
X-2620060Y-139039D01*
X-2615742Y-138074D01*
X-2611475Y-136753D01*
X-2607411Y-135026D01*
X-2603449Y-132994D01*
X-2599690Y-130606D01*
X-2596184Y-127914D01*
X-2592730Y-124764D01*
X-2262835Y205130D01*
X-2259685Y208584D01*
X-2256993Y212090D01*
X-2254605Y215849D01*
X-2252573Y219811D01*
X-2250846Y223875D01*
X-2249525Y228142D01*
X-2248560Y232460D01*
X-2248001Y236880D01*
X-2247798Y241503D01*
X-2247798Y1120038D01*
X-2247036Y1123899D01*
X-2244801Y1127201D01*
X-2241499Y1129436D01*
X-2237638Y1130198D01*
X-1394968Y1130198D01*
X-1391107Y1129436D01*
X-1387805Y1127201D01*
X-1385620Y1123899D01*
X-1384808Y1120038D01*
X-1384808Y883208D01*
X-1385620Y879297D01*
X-1387805Y875995D01*
X-1389380Y874420D01*
X-1395018Y866394D01*
X-1399184Y857453D01*
X-1401724Y848004D01*
X-1402588Y838200D01*
X-1401724Y828395D01*
X-1399184Y818946D01*
X-1395018Y810006D01*
X-1389380Y801979D01*
X-1382471Y795020D01*
X-1374394Y789381D01*
X-1365504Y785266D01*
X-1356004Y782726D01*
X-1346200Y781862D01*
X-1336446Y782726D01*
X-1326946Y785266D01*
X-1318056Y789381D01*
X-1309979Y795020D01*
X-1303070Y801979D01*
X-1297432Y810006D01*
X-1293266Y818946D01*
X-1290726Y828395D01*
X-1289862Y838200D01*
X-1290726Y848004D01*
X-1293266Y857453D01*
X-1297432Y866394D01*
X-1303070Y874420D01*
X-1304645Y875995D01*
X-1306830Y879297D01*
X-1307592Y883208D01*
X-1307592Y1136091D01*
X-1306830Y1140002D01*
X-1304645Y1143304D01*
X-1303070Y1144879D01*
X-1297432Y1152906D01*
X-1293266Y1161846D01*
X-1290726Y1171295D01*
X-1289862Y1181100D01*
X-1290726Y1190904D01*
X-1293266Y1200353D01*
X-1297432Y1209294D01*
X-1303070Y1217320D01*
X-1309979Y1224280D01*
X-1318056Y1229918D01*
X-1326946Y1234033D01*
X-1336446Y1236573D01*
X-1346200Y1237437D01*
X-1356004Y1236573D01*
X-1365504Y1234033D01*
X-1367840Y1232966D01*
X-1372108Y1232001D01*
X-2273096Y1232001D01*
X-2277719Y1231798D01*
X-2282139Y1231239D01*
X-2286457Y1230274D01*
X-2290724Y1228953D01*
X-2294788Y1227226D01*
X-2298750Y1225194D01*
X-2302510Y1222806D01*
X-2306015Y1220114D01*
X-2309469Y1216964D01*
X-2334564Y1191869D01*
X-2337714Y1188415D01*
X-2340406Y1184910D01*
X-2342794Y1181150D01*
X-2344826Y1177188D01*
X-2346553Y1173124D01*
X-2347874Y1168857D01*
X-2348839Y1164539D01*
X-2349398Y1160119D01*
X-2349601Y1155496D01*
X-2349601Y266598D01*
X-2350363Y262686D01*
X-2352598Y259435D01*
X-2577134Y34848D01*
X-2580843Y32461D01*
X-2585212Y31902D01*
X-2589377Y33172D01*
X-2592628Y36118D01*
X-2594356Y40182D01*
X-2594203Y44551D01*
X-2591257Y55880D01*
X-2589428Y70307D01*
X-2589428Y84886D01*
X-2591257Y99314D01*
X-2593949Y109677D01*
X-2594203Y113131D01*
X-2593289Y116535D01*
X-2591257Y119380D01*
X-2410409Y300431D01*
X-2407310Y303834D01*
X-2404567Y307390D01*
X-2402179Y311099D01*
X-2400147Y315061D01*
X-2398471Y319125D01*
X-2397099Y323392D01*
X-2396134Y327710D01*
X-2395575Y332130D01*
X-2395372Y336753D01*
X-2395372Y2261666D01*
X-2395575Y2266289D01*
X-2396134Y2270709D01*
X-2397099Y2275027D01*
X-2398420Y2279294D01*
X-2400147Y2283358D01*
X-2402179Y2287320D01*
X-2404567Y2291080D01*
X-2407259Y2294585D01*
X-2410409Y2298039D01*
X-2460904Y2348534D01*
X-2464358Y2351684D01*
X-2467864Y2354376D01*
X-2471623Y2356764D01*
X-2475585Y2358796D01*
X-2479649Y2360523D01*
X-2483916Y2361844D01*
X-2488234Y2362809D01*
X-2492654Y2363368D01*
X-2497277Y2363571D01*
X-2788310Y2363571D01*
X-2792628Y2364536D01*
X-2795219Y2365756D01*
X-2804718Y2368296D01*
X-2814472Y2369159D01*
X-2824276Y2368296D01*
X-2833776Y2365756D01*
X-2842666Y2361590D01*
X-2850743Y2355951D01*
X-2857652Y2349042D01*
X-2863291Y2340965D01*
X-2867456Y2332075D01*
X-2869996Y2322576D01*
X-2870860Y2312771D01*
X-2869996Y2303018D01*
X-2867456Y2293518D01*
X-2863291Y2284628D01*
X-2857652Y2276551D01*
X-2850743Y2269642D01*
X-2842666Y2264003D01*
X-2833776Y2259838D01*
X-2824276Y2257298D01*
X-2814472Y2256434D01*
X-2804718Y2257298D01*
X-2795219Y2259838D01*
X-2793136Y2260803D01*
X-2788869Y2261768D01*
X-2522372Y2261768D01*
X-2518460Y2261006D01*
X-2515209Y2258771D01*
X-2500172Y2243734D01*
X-2497937Y2240483D01*
X-2497175Y2236571D01*
X-2497175Y361848D01*
X-2497937Y357936D01*
X-2500172Y354634D01*
X-2583789Y270967D01*
X-2587040Y268732D01*
X-2590901Y267970D01*
X-2594762Y268732D01*
X-2598064Y270865D01*
X-2600299Y274116D01*
X-2601112Y277977D01*
X-2600401Y281889D01*
X-2594914Y295757D01*
X-2591257Y309880D01*
X-2590139Y318871D01*
X-2692400Y318871D01*
X-2692400Y216509D01*
X-2690571Y216611D01*
X-2676296Y219354D01*
X-2662428Y223824D01*
X-2655366Y227177D01*
X-2651455Y228142D01*
X-2647492Y227482D01*
X-2644089Y225348D01*
X-2641752Y222046D01*
X-2640888Y218135D01*
X-2641650Y214172D01*
X-2643886Y210820D01*
X-2663190Y191414D01*
X-2666288Y189331D01*
X-2669844Y188468D01*
X-2673553Y188925D01*
X-2676296Y189839D01*
X-2690571Y192582D01*
X-2705100Y193497D01*
X-2719628Y192582D01*
X-2733954Y189839D01*
X-2747772Y185318D01*
X-2760929Y179120D01*
X-2773222Y171348D01*
X-2784449Y162052D01*
X-2794406Y151485D01*
X-2802940Y139700D01*
X-2809951Y126949D01*
X-2815336Y113385D01*
X-2818942Y99314D01*
X-2820771Y84886D01*
X-2820771Y70307D01*
X-2818942Y55880D01*
X-2815336Y41757D01*
X-2809951Y28244D01*
X-2802940Y15494D01*
X-2794406Y3708D01*
X-2784449Y-6908D01*
X-2773222Y-16154D01*
X-2768346Y-19253D01*
X-2765298Y-22301D01*
X-2763774Y-26365D01*
X-2764028Y-30683D01*
X-2766110Y-34493D01*
X-2769565Y-37084D01*
X-2773781Y-37998D01*
X-2836519Y-37998D01*
X-2840329Y-37287D01*
X-2843580Y-35153D01*
X-2845765Y-32054D01*
X-2846679Y-28295D01*
X-2846120Y-24485D01*
X-2843936Y-18135D01*
X-2843225Y-11836D01*
X-2843225Y167030D01*
X-2843936Y173329D01*
X-2845816Y178816D01*
X-2848914Y183692D01*
X-2852978Y187807D01*
X-2857906Y190855D01*
X-2863342Y192786D01*
X-2869692Y193497D01*
X-3048558Y193497D01*
X-3054858Y192786D01*
X-3060344Y190855D01*
X-3065221Y187807D01*
X-3069336Y183692D01*
X-3072384Y178816D01*
X-3074314Y173329D01*
X-3075025Y167030D01*
X-3075025Y-11836D01*
X-3074314Y-18135D01*
X-3072079Y-24485D01*
X-3071520Y-28295D01*
X-3072434Y-32054D01*
X-3074670Y-35153D01*
X-3077921Y-37287D01*
X-3081680Y-37998D01*
X-3137001Y-37998D01*
X-3140913Y-37236D01*
X-3144164Y-35001D01*
X-3216300Y37134D01*
X-3219754Y40284D01*
X-3223260Y42976D01*
X-3227019Y45364D01*
X-3230981Y47396D01*
X-3235045Y49123D01*
X-3239312Y50444D01*
X-3243630Y51409D01*
X-3248050Y51968D01*
X-3252673Y52171D01*
X-3682492Y52171D01*
X-3686810Y53136D01*
X-3689146Y54203D01*
X-3698595Y56743D01*
X-3708400Y57607D01*
X-3718204Y56743D01*
X-3727653Y54203D01*
X-3736594Y50088D01*
X-3744620Y44450D01*
X-3751579Y37490D01*
X-3757218Y29464D01*
X-3761333Y20523D01*
X-3763873Y11074D01*
X-3764737Y1270D01*
X-3763873Y-8534D01*
X-3761333Y-17983D01*
X-3757218Y-26924D01*
X-3751579Y-34950D01*
X-3744620Y-41910D01*
X-3736594Y-47548D01*
X-3727653Y-51663D01*
X-3718204Y-54203D01*
X-3708400Y-55067D01*
X-3698595Y-54203D01*
X-3689146Y-51663D01*
X-3686810Y-50596D01*
X-3682492Y-49631D01*
X-3277768Y-49631D01*
X-3273856Y-50393D01*
X-3270605Y-52628D01*
X-3198469Y-124764D01*
X-3195015Y-127914D01*
X-3191510Y-130606D01*
X-3187750Y-132994D01*
X-3183788Y-135026D01*
X-3179724Y-136753D01*
X-3175457Y-138074D01*
X-3171139Y-139039D01*
X-3166719Y-139598D01*
G37*
G36*
X-2946400Y852271D02*
G01*
X-2844139Y852271D01*
X-2845257Y861314D01*
X-2848914Y875385D01*
X-2854248Y888949D01*
X-2861259Y901700D01*
X-2869793Y913485D01*
X-2879801Y924052D01*
X-2890977Y933348D01*
X-2903270Y941120D01*
X-2916428Y947318D01*
X-2930296Y951839D01*
X-2944571Y954582D01*
X-2946400Y954684D01*
G37*
G36*
X-3074060Y852271D02*
G01*
X-2971800Y852271D01*
X-2971800Y954684D01*
X-2973628Y954582D01*
X-2987954Y951839D01*
X-3001772Y947318D01*
X-3014929Y941120D01*
X-3027222Y933348D01*
X-3038449Y924052D01*
X-3048406Y913485D01*
X-3056940Y901700D01*
X-3063951Y888949D01*
X-3069336Y875385D01*
X-3072942Y861314D01*
G37*
G36*
X-2820060Y852271D02*
G01*
X-2717800Y852271D01*
X-2717800Y954684D01*
X-2719628Y954582D01*
X-2733954Y951839D01*
X-2747772Y947318D01*
X-2760929Y941120D01*
X-2773222Y933348D01*
X-2784449Y924052D01*
X-2794406Y913485D01*
X-2802940Y901700D01*
X-2809951Y888949D01*
X-2815336Y875385D01*
X-2818942Y861314D01*
G37*
G36*
X412343Y826414D02*
G01*
X425805Y826414D01*
X439166Y828243D01*
X452170Y831799D01*
X464566Y837031D01*
X476199Y843940D01*
X486765Y852271D01*
X496112Y861974D01*
X504139Y872794D01*
X510590Y884631D01*
X515416Y897229D01*
X518566Y910336D01*
X519887Y923747D01*
X519480Y937209D01*
X517194Y950468D01*
X513232Y963371D01*
X507542Y975563D01*
X500278Y986942D01*
X491591Y997203D01*
X481584Y1006246D01*
X470509Y1013917D01*
X458470Y1019962D01*
X445719Y1024382D01*
X432511Y1027074D01*
X419100Y1027988D01*
X405638Y1027074D01*
X392430Y1024382D01*
X379679Y1019962D01*
X367690Y1013917D01*
X356565Y1006246D01*
X346557Y997203D01*
X337870Y986942D01*
X330606Y975563D01*
X324916Y963371D01*
X320954Y950468D01*
X318719Y937209D01*
X318262Y923747D01*
X319582Y910336D01*
X322732Y897229D01*
X327558Y884631D01*
X334060Y872794D01*
X342036Y861974D01*
X351434Y852271D01*
X362000Y843940D01*
X373583Y837031D01*
X385978Y831799D01*
X398983Y828243D01*
G37*
G36*
X666343Y826414D02*
G01*
X679805Y826414D01*
X693166Y828243D01*
X706170Y831799D01*
X718566Y837031D01*
X730199Y843940D01*
X740765Y852271D01*
X750112Y861974D01*
X758139Y872794D01*
X764590Y884631D01*
X769416Y897229D01*
X772566Y910336D01*
X773887Y923747D01*
X773480Y937209D01*
X771194Y950468D01*
X767232Y963371D01*
X761542Y975563D01*
X754278Y986942D01*
X745591Y997203D01*
X735584Y1006246D01*
X724509Y1013917D01*
X712470Y1019962D01*
X699719Y1024382D01*
X686511Y1027074D01*
X673100Y1027988D01*
X659638Y1027074D01*
X646430Y1024382D01*
X633679Y1019962D01*
X621690Y1013917D01*
X610565Y1006246D01*
X600557Y997203D01*
X591870Y986942D01*
X584606Y975563D01*
X578916Y963371D01*
X574954Y950468D01*
X572719Y937209D01*
X572262Y923747D01*
X573582Y910336D01*
X576732Y897229D01*
X581558Y884631D01*
X588060Y872794D01*
X596036Y861974D01*
X605383Y852271D01*
X616000Y843940D01*
X627583Y837031D01*
X639978Y831799D01*
X652983Y828243D01*
G37*
G36*
X-2692400Y724509D02*
G01*
X-2690571Y724611D01*
X-2676296Y727354D01*
X-2662428Y731824D01*
X-2649270Y738022D01*
X-2636977Y745845D01*
X-2625801Y755091D01*
X-2615793Y765708D01*
X-2607259Y777494D01*
X-2600248Y790244D01*
X-2594914Y803757D01*
X-2591257Y817880D01*
X-2590139Y826871D01*
X-2692400Y826871D01*
G37*
G36*
X-2946400Y724509D02*
G01*
X-2944571Y724611D01*
X-2930296Y727354D01*
X-2916428Y731824D01*
X-2903270Y738022D01*
X-2890977Y745845D01*
X-2879801Y755091D01*
X-2869793Y765708D01*
X-2861259Y777494D01*
X-2854248Y790244D01*
X-2848914Y803757D01*
X-2845257Y817880D01*
X-2844139Y826871D01*
X-2946400Y826871D01*
G37*
G36*
X666343Y64414D02*
G01*
X679805Y64414D01*
X693166Y66243D01*
X706170Y69799D01*
X718566Y75031D01*
X730199Y81940D01*
X740765Y90271D01*
X750112Y99974D01*
X758139Y110794D01*
X764590Y122631D01*
X769416Y135229D01*
X772566Y148336D01*
X773887Y161747D01*
X773480Y175209D01*
X771194Y188468D01*
X767232Y201371D01*
X761542Y213563D01*
X754278Y224942D01*
X745591Y235204D01*
X735584Y244246D01*
X724509Y251917D01*
X712470Y257962D01*
X699719Y262382D01*
X686511Y265074D01*
X673100Y265988D01*
X659638Y265074D01*
X646430Y262382D01*
X633679Y257962D01*
X621690Y251917D01*
X610565Y244246D01*
X600557Y235204D01*
X591870Y224942D01*
X584606Y213563D01*
X578916Y201371D01*
X574954Y188468D01*
X572719Y175209D01*
X572262Y161747D01*
X573582Y148336D01*
X576732Y135229D01*
X581558Y122631D01*
X588060Y110794D01*
X596036Y99974D01*
X605383Y90271D01*
X616000Y81940D01*
X627583Y75031D01*
X639978Y69799D01*
X652983Y66243D01*
G37*
G36*
X-2971800Y724509D02*
G01*
X-2971800Y826871D01*
X-3074060Y826871D01*
X-3072942Y817880D01*
X-3069336Y803757D01*
X-3063951Y790244D01*
X-3056940Y777494D01*
X-3048406Y765708D01*
X-3038449Y755091D01*
X-3027222Y745845D01*
X-3014929Y738022D01*
X-3001772Y731824D01*
X-2987954Y727354D01*
X-2973628Y724611D01*
G37*
G36*
X-2717800Y724509D02*
G01*
X-2717800Y826871D01*
X-2820060Y826871D01*
X-2818942Y817880D01*
X-2815336Y803757D01*
X-2809951Y790244D01*
X-2802940Y777494D01*
X-2794406Y765708D01*
X-2784449Y755091D01*
X-2773222Y745845D01*
X-2760929Y738022D01*
X-2747772Y731824D01*
X-2733954Y727354D01*
X-2719628Y724611D01*
G37*
G36*
X-2692400Y598271D02*
G01*
X-2590139Y598271D01*
X-2591257Y607314D01*
X-2594914Y621385D01*
X-2600248Y634949D01*
X-2607259Y647700D01*
X-2615793Y659485D01*
X-2625801Y670052D01*
X-2636977Y679348D01*
X-2649270Y687120D01*
X-2662428Y693318D01*
X-2676296Y697839D01*
X-2690571Y700582D01*
X-2692400Y700684D01*
G37*
G36*
X-2946400Y598271D02*
G01*
X-2844139Y598271D01*
X-2845257Y607314D01*
X-2848914Y621385D01*
X-2854248Y634949D01*
X-2861259Y647700D01*
X-2869793Y659485D01*
X-2879801Y670052D01*
X-2890977Y679348D01*
X-2903270Y687120D01*
X-2916428Y693318D01*
X-2930296Y697839D01*
X-2944571Y700582D01*
X-2946400Y700684D01*
G37*
G36*
X-3074060Y598271D02*
G01*
X-2971800Y598271D01*
X-2971800Y700684D01*
X-2973628Y700582D01*
X-2987954Y697839D01*
X-3001772Y693318D01*
X-3014929Y687120D01*
X-3027222Y679348D01*
X-3038449Y670052D01*
X-3048406Y659485D01*
X-3056940Y647700D01*
X-3063951Y634949D01*
X-3069336Y621385D01*
X-3072942Y607314D01*
G37*
G36*
X-2820060Y598271D02*
G01*
X-2717800Y598271D01*
X-2717800Y700684D01*
X-2719628Y700582D01*
X-2733954Y697839D01*
X-2747772Y693318D01*
X-2760929Y687120D01*
X-2773222Y679348D01*
X-2784449Y670052D01*
X-2794406Y659485D01*
X-2802940Y647700D01*
X-2809951Y634949D01*
X-2815336Y621385D01*
X-2818942Y607314D01*
G37*
G36*
X666343Y572414D02*
G01*
X679805Y572414D01*
X693166Y574243D01*
X706170Y577799D01*
X718566Y583031D01*
X730199Y589940D01*
X740765Y598271D01*
X750112Y607974D01*
X758139Y618794D01*
X764590Y630631D01*
X769416Y643229D01*
X772566Y656336D01*
X773887Y669747D01*
X773480Y683209D01*
X771194Y696468D01*
X767232Y709371D01*
X761542Y721563D01*
X754278Y732942D01*
X745591Y743204D01*
X735584Y752246D01*
X724509Y759917D01*
X712470Y765962D01*
X699719Y770382D01*
X686511Y773074D01*
X673100Y773988D01*
X659638Y773074D01*
X646430Y770382D01*
X633679Y765962D01*
X621690Y759917D01*
X610565Y752246D01*
X600557Y743204D01*
X591870Y732942D01*
X584606Y721563D01*
X578916Y709371D01*
X574954Y696468D01*
X572719Y683209D01*
X572262Y669747D01*
X573582Y656336D01*
X576732Y643229D01*
X581558Y630631D01*
X588060Y618794D01*
X596036Y607974D01*
X605383Y598271D01*
X616000Y589940D01*
X627583Y583031D01*
X639978Y577799D01*
X652983Y574243D01*
G37*
G36*
X412343Y572414D02*
G01*
X425805Y572414D01*
X439166Y574243D01*
X452170Y577799D01*
X464566Y583031D01*
X476199Y589940D01*
X486765Y598271D01*
X496112Y607974D01*
X504139Y618794D01*
X510590Y630631D01*
X515416Y643229D01*
X518566Y656336D01*
X519887Y669747D01*
X519480Y683209D01*
X517194Y696468D01*
X513232Y709371D01*
X507542Y721563D01*
X500278Y732942D01*
X491591Y743204D01*
X481584Y752246D01*
X470509Y759917D01*
X458470Y765962D01*
X445719Y770382D01*
X432511Y773074D01*
X419100Y773988D01*
X405638Y773074D01*
X392430Y770382D01*
X379679Y765962D01*
X367690Y759917D01*
X356565Y752246D01*
X346557Y743204D01*
X337870Y732942D01*
X330606Y721563D01*
X324916Y709371D01*
X320954Y696468D01*
X318719Y683209D01*
X318262Y669747D01*
X319582Y656336D01*
X322732Y643229D01*
X327558Y630631D01*
X334060Y618794D01*
X342036Y607974D01*
X351434Y598271D01*
X362000Y589940D01*
X373583Y583031D01*
X385978Y577799D01*
X398983Y574243D01*
G37*
G36*
X-2692400Y470509D02*
G01*
X-2690571Y470611D01*
X-2676296Y473354D01*
X-2662428Y477824D01*
X-2649270Y484022D01*
X-2636977Y491845D01*
X-2625801Y501091D01*
X-2615793Y511708D01*
X-2607259Y523493D01*
X-2600248Y536244D01*
X-2594914Y549757D01*
X-2591257Y563880D01*
X-2590139Y572871D01*
X-2692400Y572871D01*
G37*
G36*
X-2946400Y470509D02*
G01*
X-2944571Y470611D01*
X-2930296Y473354D01*
X-2916428Y477824D01*
X-2903270Y484022D01*
X-2890977Y491845D01*
X-2879801Y501091D01*
X-2869793Y511708D01*
X-2861259Y523493D01*
X-2854248Y536244D01*
X-2848914Y549757D01*
X-2845257Y563880D01*
X-2844139Y572871D01*
X-2946400Y572871D01*
G37*
G36*
X-2946400Y216509D02*
G01*
X-2944571Y216611D01*
X-2930296Y219354D01*
X-2916428Y223824D01*
X-2903270Y230022D01*
X-2890977Y237845D01*
X-2879801Y247091D01*
X-2869793Y257708D01*
X-2861259Y269494D01*
X-2854248Y282244D01*
X-2848914Y295757D01*
X-2845257Y309880D01*
X-2844139Y318871D01*
X-2946400Y318871D01*
G37*
G36*
X-2717800Y216509D02*
G01*
X-2717800Y318871D01*
X-2820060Y318871D01*
X-2818942Y309880D01*
X-2815336Y295757D01*
X-2809951Y282244D01*
X-2802940Y269494D01*
X-2794406Y257708D01*
X-2784449Y247091D01*
X-2773222Y237845D01*
X-2760929Y230022D01*
X-2747772Y223824D01*
X-2733954Y219354D01*
X-2719628Y216611D01*
G37*
G36*
X-2971800Y216509D02*
G01*
X-2971800Y318871D01*
X-3074060Y318871D01*
X-3072942Y309880D01*
X-3069336Y295757D01*
X-3063951Y282244D01*
X-3056940Y269494D01*
X-3048406Y257708D01*
X-3038449Y247091D01*
X-3027222Y237845D01*
X-3014929Y230022D01*
X-3001772Y223824D01*
X-2987954Y219354D01*
X-2973628Y216611D01*
G37*
G36*
X-2971800Y470509D02*
G01*
X-2971800Y572871D01*
X-3074060Y572871D01*
X-3072942Y563880D01*
X-3069336Y549757D01*
X-3063951Y536244D01*
X-3056940Y523493D01*
X-3048406Y511708D01*
X-3038449Y501091D01*
X-3027222Y491845D01*
X-3014929Y484022D01*
X-3001772Y477824D01*
X-2987954Y473354D01*
X-2973628Y470611D01*
G37*
G36*
X-2717800Y470509D02*
G01*
X-2717800Y572871D01*
X-2820060Y572871D01*
X-2818942Y563880D01*
X-2815336Y549757D01*
X-2809951Y536244D01*
X-2802940Y523493D01*
X-2794406Y511708D01*
X-2784449Y501091D01*
X-2773222Y491845D01*
X-2760929Y484022D01*
X-2747772Y477824D01*
X-2733954Y473354D01*
X-2719628Y470611D01*
G37*
G36*
X-2692400Y344271D02*
G01*
X-2590139Y344271D01*
X-2591257Y353314D01*
X-2594914Y367385D01*
X-2600248Y380949D01*
X-2607259Y393700D01*
X-2615793Y405485D01*
X-2625801Y416051D01*
X-2636977Y425348D01*
X-2649270Y433120D01*
X-2662428Y439318D01*
X-2676296Y443839D01*
X-2690571Y446582D01*
X-2692400Y446684D01*
G37*
G36*
X-3074060Y344271D02*
G01*
X-2971800Y344271D01*
X-2971800Y446684D01*
X-2973628Y446582D01*
X-2987954Y443839D01*
X-3001772Y439318D01*
X-3014929Y433120D01*
X-3027222Y425348D01*
X-3038449Y416051D01*
X-3048406Y405485D01*
X-3056940Y393700D01*
X-3063951Y380949D01*
X-3069336Y367385D01*
X-3072942Y353314D01*
G37*
G36*
X-2946400Y344271D02*
G01*
X-2844139Y344271D01*
X-2845257Y353314D01*
X-2848914Y367385D01*
X-2854248Y380949D01*
X-2861259Y393700D01*
X-2869793Y405485D01*
X-2879801Y416051D01*
X-2890977Y425348D01*
X-2903270Y433120D01*
X-2916428Y439318D01*
X-2930296Y443839D01*
X-2944571Y446582D01*
X-2946400Y446684D01*
G37*
G36*
X412343Y318414D02*
G01*
X425805Y318414D01*
X439166Y320243D01*
X452170Y323799D01*
X464566Y329031D01*
X476199Y335940D01*
X486765Y344271D01*
X496112Y353974D01*
X504139Y364794D01*
X510590Y376631D01*
X515416Y389229D01*
X518566Y402336D01*
X519887Y415747D01*
X519480Y429209D01*
X517194Y442468D01*
X513232Y455371D01*
X507542Y467563D01*
X500278Y478942D01*
X491591Y489204D01*
X481584Y498246D01*
X470509Y505917D01*
X458470Y511962D01*
X445719Y516382D01*
X432511Y519074D01*
X419100Y519988D01*
X405638Y519074D01*
X392430Y516382D01*
X379679Y511962D01*
X367690Y505917D01*
X356565Y498246D01*
X346557Y489204D01*
X337870Y478942D01*
X330606Y467563D01*
X324916Y455371D01*
X320954Y442468D01*
X318719Y429209D01*
X318262Y415747D01*
X319582Y402336D01*
X322732Y389229D01*
X327558Y376631D01*
X334060Y364794D01*
X342036Y353974D01*
X351434Y344271D01*
X362000Y335940D01*
X373583Y329031D01*
X385978Y323799D01*
X398983Y320243D01*
G37*
G36*
X666343Y318414D02*
G01*
X679805Y318414D01*
X693166Y320243D01*
X706170Y323799D01*
X718566Y329031D01*
X730199Y335940D01*
X740765Y344271D01*
X750112Y353974D01*
X758139Y364794D01*
X764590Y376631D01*
X769416Y389229D01*
X772566Y402336D01*
X773887Y415747D01*
X773480Y429209D01*
X771194Y442468D01*
X767232Y455371D01*
X761542Y467563D01*
X754278Y478942D01*
X745591Y489204D01*
X735584Y498246D01*
X724509Y505917D01*
X712470Y511962D01*
X699719Y516382D01*
X686511Y519074D01*
X673100Y519988D01*
X659638Y519074D01*
X646430Y516382D01*
X633679Y511962D01*
X621690Y505917D01*
X610565Y498246D01*
X600557Y489204D01*
X591870Y478942D01*
X584606Y467563D01*
X578916Y455371D01*
X574954Y442468D01*
X572719Y429209D01*
X572262Y415747D01*
X573582Y402336D01*
X576732Y389229D01*
X581558Y376631D01*
X588060Y364794D01*
X596036Y353974D01*
X605383Y344271D01*
X616000Y335940D01*
X627583Y329031D01*
X639978Y323799D01*
X652983Y320243D01*
G37*
G36*
X-2820060Y344271D02*
G01*
X-2717800Y344271D01*
X-2717800Y446684D01*
X-2719628Y446582D01*
X-2733954Y443839D01*
X-2747772Y439318D01*
X-2760929Y433120D01*
X-2773222Y425348D01*
X-2784449Y416051D01*
X-2794406Y405485D01*
X-2802940Y393700D01*
X-2809951Y380949D01*
X-2815336Y367385D01*
X-2818942Y353314D01*
G37*
G36*
X-4090822Y337362D02*
G01*
X-4081068Y338226D01*
X-4071569Y340766D01*
X-4062679Y344881D01*
X-4054601Y350520D01*
X-4047693Y357479D01*
X-4042054Y365506D01*
X-4037888Y374446D01*
X-4035348Y383895D01*
X-4034485Y393700D01*
X-4035348Y403504D01*
X-4037888Y412953D01*
X-4039006Y415290D01*
X-4039920Y419608D01*
X-4039920Y1320292D01*
X-4039006Y1324610D01*
X-4037888Y1326946D01*
X-4035348Y1336395D01*
X-4034485Y1346200D01*
X-4035348Y1356004D01*
X-4037888Y1365453D01*
X-4042054Y1374394D01*
X-4047693Y1382420D01*
X-4054601Y1389380D01*
X-4062679Y1395018D01*
X-4071569Y1399133D01*
X-4081068Y1401673D01*
X-4090822Y1402537D01*
X-4100626Y1401673D01*
X-4110126Y1399133D01*
X-4119016Y1395018D01*
X-4127093Y1389380D01*
X-4134002Y1382420D01*
X-4139641Y1374394D01*
X-4143806Y1365453D01*
X-4146346Y1356004D01*
X-4147210Y1346200D01*
X-4146346Y1336395D01*
X-4143806Y1326946D01*
X-4142689Y1324610D01*
X-4141774Y1320292D01*
X-4141774Y419608D01*
X-4142689Y415290D01*
X-4143806Y412953D01*
X-4146346Y403504D01*
X-4147210Y393700D01*
X-4146346Y383895D01*
X-4143806Y374446D01*
X-4139641Y365506D01*
X-4134002Y357479D01*
X-4127093Y350520D01*
X-4119016Y344881D01*
X-4110126Y340766D01*
X-4100626Y338226D01*
G37*

%LPD*%
G36*
X-2412695Y-748792D02*
G01*
X-2416708Y-747979D01*
X-2420061Y-745642D01*
X-2422194Y-742188D01*
X-2422855Y-738174D01*
X-2421839Y-734212D01*
X-2419400Y-730961D01*
X-2415844Y-728980D01*
X-2412593Y-727913D01*
X-2406599Y-724458D01*
X-2402992Y-721410D01*
X-2326030Y-646785D01*
X-2322677Y-644601D01*
X-2318715Y-643940D01*
X-2314803Y-644804D01*
X-2311552Y-647141D01*
X-2309418Y-650544D01*
X-2308809Y-654456D01*
X-2309723Y-658368D01*
X-2313533Y-666546D01*
X-2316073Y-675995D01*
X-2316937Y-685800D01*
X-2316073Y-695604D01*
X-2313533Y-705053D01*
X-2309418Y-713994D01*
X-2303780Y-722020D01*
X-2296820Y-728980D01*
X-2294890Y-730300D01*
X-2291994Y-733450D01*
X-2290622Y-737463D01*
X-2291029Y-741680D01*
X-2293112Y-745388D01*
X-2296566Y-747928D01*
X-2300732Y-748792D01*
G37*

%LPD*%
D10*
X-4090830Y393705D02*
G01*
X-4090830Y1346197D01*
D11*
X-800097Y863592D02*
G01*
X-800097Y634992D01*
D12*
X-723897Y177797D02*
G01*
X-711197Y177797D01*
X-647697Y241292D01*
X-228597Y241292D01*
D11*
X-1041397Y761992D02*
G01*
X-1079497Y800092D01*
X-1079497Y1181097D01*
X-825497Y419102D02*
G01*
X-1041397Y419102D01*
X-1041397Y634997D02*
G01*
X-1041397Y761954D01*
D12*
X-634997Y520692D02*
G01*
X-533397Y419092D01*
D11*
X-228597Y317454D02*
G01*
X-266697Y317454D01*
X-304797Y355554D01*
X-761997Y355554D01*
X-825497Y419054D01*
X-190507Y850905D02*
G01*
X-342912Y698500D01*
X-1041394Y698500D01*
X-190507Y850905D02*
G01*
X-88894Y952517D01*
X-88894Y1130300D01*
X-88897Y1130297D02*
G01*
X-88897Y1257297D01*
X-190497Y1358897D01*
X-279397Y1358897D01*
D12*
X-647697Y482597D02*
G01*
X-622297Y457197D01*
X-622297Y419097D01*
D11*
X-1346207Y1181105D02*
G01*
X-1346207Y1181105D01*
X-1346207Y838205D01*
X-1130297Y330197D02*
G01*
X-1041397Y330197D01*
D12*
X-165107Y2324105D02*
G01*
X-1193794Y1295417D01*
X-1193794Y1270005D01*
X-1193797Y1269997D02*
G01*
X-1193797Y622297D01*
X-1104897Y533397D01*
X-698497Y533397D01*
X-643890Y478789D01*
D11*
X-952497Y25397D02*
G01*
X-1041397Y114297D01*
X-1041397Y419097D01*
D12*
X-647697Y139697D02*
G01*
X-622297Y114297D01*
X-279397Y114297D01*
X-228597Y165097D01*
X-901694Y914400D02*
G01*
X-901694Y1041400D01*
X-863594Y1079500D01*
X-863594Y1206500D01*
X-380987Y1689105D01*
X241292Y1689105D01*
X241292Y1892305D02*
G01*
X-228587Y1892305D01*
X-927094Y1193800D01*
X-927094Y1110609D01*
X-634994Y520700D02*
G01*
X-685794Y571500D01*
X-1066794Y571500D01*
X-1142994Y647700D01*
X-1142994Y1270000D01*
X-876294Y1536700D01*
X-876294Y1536717D01*
X114292Y2527305D01*
D10*
X-2247894Y2476492D02*
G01*
X-4008716Y2476492D01*
X419117Y-342894D02*
G01*
X368317Y-342894D01*
X12717Y-698494D01*
X-1841507Y-698494D01*
X-1993882Y2603505D02*
G01*
X-3898882Y2603505D01*
X419105Y-88894D02*
G01*
X-38094Y-546094D01*
X-2120894Y-546094D01*
X-1346207Y1181105D02*
G01*
X-2273282Y1181105D01*
X-2298682Y1155705D01*
X-2298694Y292100D01*
X-2705082Y77475D02*
G01*
X-2446256Y336555D01*
X-2446256Y2261875D01*
X-2497056Y2312675D01*
X-2814556Y2312675D01*
X-3708382Y1275D02*
G01*
X-3252452Y1275D01*
X-3162282Y-88894D01*
X-2628882Y-88894D01*
X-2298682Y241305D01*
X-2298682Y292105D01*
D12*
X-7124682Y1181105D02*
G01*
X-6997682Y1054105D01*
X-6819882Y1054105D01*
X-5486382Y-279394D01*
X-2565382Y-279394D01*
X-1892282Y393705D01*
X-7124682Y673105D02*
G01*
X-6997682Y546105D01*
X-6819882Y546105D01*
X-5841982Y-431794D01*
X-2514582Y-431794D01*
X-1841482Y241305D01*
X-6870682Y673105D02*
G01*
X-5803882Y-393694D01*
X-2527282Y-393694D01*
X-1841482Y292105D01*
X-7124682Y927105D02*
G01*
X-6997682Y800105D01*
X-6819882Y800105D01*
X-5664182Y-355594D01*
X-2539982Y-355594D01*
X-1816082Y368305D01*
X-6870682Y-342894D02*
G01*
X-6515082Y-698494D01*
X-2425682Y-698494D01*
X-2006594Y-292097D01*
X-1816107Y-292094D02*
G01*
X-2006594Y-292094D01*
X-584182Y609605D02*
G01*
X76217Y609605D01*
X101617Y584205D01*
X101617Y5D01*
X-6870682Y-88894D02*
G01*
X-6337282Y-622294D01*
X-2451082Y-622294D01*
X-1993894Y-165100D01*
X-1993894Y-165100D02*
G01*
X-1866757Y-165100D01*
X-571482Y533405D02*
G01*
X-12682Y533405D01*
X-7Y520730D01*
X-7Y5D01*
X-1892282Y393705D02*
G01*
X-1790694Y495292D01*
X-1790694Y762017D01*
X-1701807Y850905D01*
X-6870682Y927105D02*
G01*
X-5626082Y-317494D01*
X-2552682Y-317494D01*
X-1866882Y368305D01*
X-1866882Y368305D02*
G01*
X-1752594Y482600D01*
X-1752594Y685817D01*
X-1663707Y774705D01*
X-1816082Y368305D02*
G01*
X-1714494Y469900D01*
X-1714494Y609617D01*
X-1625607Y698505D01*
X-1841482Y292105D02*
G01*
X-1663694Y469900D01*
X-1663694Y546117D01*
X-1587507Y622305D01*
X-1549407Y546105D02*
G01*
X-1549407Y533379D01*
X-1841482Y241305D01*
X-1828794Y508000D02*
G01*
X-1828794Y838217D01*
X-1739907Y927105D01*
X-1435107Y317505D02*
G01*
X-1625594Y127017D01*
X-1625594Y-114294D01*
X-1739894Y-228600D01*
X-2006594Y-228600D01*
X-2044694Y-266694D01*
X-7124682Y165105D02*
G01*
X-6997682Y38105D01*
X-6819882Y38105D01*
X-6197582Y-584194D01*
X-2463782Y-584194D01*
X-2019294Y-139700D01*
X-2019294Y-139700D02*
G01*
X-1981194Y-101600D01*
X-1727194Y-101600D01*
X-1689094Y-63500D01*
X-1689094Y177817D01*
X-1473207Y393705D01*
X-1997628Y-67233D02*
G01*
X-1968487Y-38094D01*
X-1866907Y-38094D01*
X-7124682Y419105D02*
G01*
X-6997682Y292105D01*
X-6819882Y292105D01*
X-6019782Y-507994D01*
X-2489182Y-507994D01*
X-1943094Y38100D01*
X-1943094Y38100D02*
G01*
X-1790682Y38105D01*
X-1739882Y88905D01*
X-1739882Y241330D01*
X-1511307Y469905D01*
X-6870682Y419105D02*
G01*
X-5981682Y-469894D01*
X-2501882Y-469894D01*
X-1943094Y88900D01*
X-1943094Y88900D02*
G01*
X-1917694Y114300D01*
X-1866897Y114300D01*
X-6870682Y165105D02*
G01*
X-6159482Y-546094D01*
X-2476482Y-546094D01*
X-1993894Y-63500D01*
X-6870682Y1181105D02*
G01*
X-5448282Y-241294D01*
X-2578082Y-241294D01*
X-1828782Y508005D01*
X-7124684Y-88900D02*
G01*
X-6997684Y-215900D01*
X-6819884Y-215900D01*
X-6375384Y-660400D01*
X-2438384Y-660400D01*
X-2044694Y-266697D01*
D10*
X-2120882Y-546094D02*
G01*
X-2260582Y-685794D01*
X419117Y165105D02*
G01*
X-139682Y-393694D01*
X-1917682Y-393694D01*
D13*
G01*
X-6302484Y3555891D03*
G01*
X8604268Y3555891D03*
G01*
X-5802485Y-5705279D03*
G01*
X8104269Y-5705279D03*
D14*
G01*
X-2959092Y77597D03*
D15*
G01*
X-2705082Y77602D03*
G01*
X-2959082Y331602D03*
G01*
X-2705082Y331602D03*
G01*
X-2959082Y585602D03*
G01*
X-2705082Y585602D03*
G01*
X-2959082Y839602D03*
G01*
X-2705082Y839602D03*
G01*
X-2959082Y1093602D03*
G01*
X-2705082Y1093602D03*
G01*
X-2959082Y1347602D03*
G01*
X-2705082Y1347602D03*
G01*
X-2959082Y1601602D03*
G01*
X-2705082Y1601602D03*
G01*
X-2959082Y1855602D03*
G01*
X-2705082Y1855602D03*
D16*
G01*
X-6870682Y-596894D03*
D17*
G01*
X-6870682Y-342894D03*
G01*
X-6870682Y-88894D03*
G01*
X-6870682Y165105D03*
G01*
X-6870682Y419105D03*
G01*
X-6870682Y673105D03*
G01*
X-6870682Y927105D03*
G01*
X-6870682Y1181105D03*
D16*
G01*
X419092Y-596894D03*
D17*
G01*
X419117Y-342894D03*
G01*
X419117Y-88894D03*
G01*
X419117Y165105D03*
G01*
X419117Y419105D03*
G01*
X419117Y673105D03*
G01*
X419117Y927105D03*
G01*
X419117Y1181105D03*
D16*
G01*
X-7124682Y-596894D03*
D17*
G01*
X-7124682Y-342894D03*
G01*
X-7124682Y-88894D03*
G01*
X-7124682Y165105D03*
G01*
X-7124682Y419105D03*
G01*
X-7124682Y673105D03*
G01*
X-7124682Y927105D03*
G01*
X-7124682Y1181105D03*
G01*
X673117Y1181105D03*
D16*
G01*
X673092Y-596894D03*
D17*
G01*
X673117Y-342894D03*
G01*
X673117Y-88894D03*
G01*
X673117Y165105D03*
G01*
X673117Y419105D03*
G01*
X673117Y673105D03*
G01*
X673117Y927105D03*
D18*
G01*
X-437395Y1010391D03*
G01*
X-1003307Y889005D03*
G01*
X-1130307Y330205D03*
G01*
X-1346207Y1181105D03*
G01*
X-88907Y1130305D03*
G01*
X-1346207Y838205D03*
G01*
X-101607Y5D03*
G01*
X-723907Y88905D03*
G01*
X-901707Y635005D03*
G01*
X-673107Y635005D03*
G01*
X-673107Y774705D03*
G01*
X-901707Y774705D03*
G01*
X-1041407Y635005D03*
G01*
X-190507Y850905D03*
G01*
X-114307Y469905D03*
G01*
X-368307Y295610D03*
G01*
X-622307Y419105D03*
G01*
X-533407Y419105D03*
G01*
X-228607Y317505D03*
G01*
X-355607Y177805D03*
G01*
X-723907Y177805D03*
G01*
X-647707Y139705D03*
G01*
X-228607Y241305D03*
G01*
X-228607Y165105D03*
G01*
X-800107Y863605D03*
G01*
X-825507Y419105D03*
G01*
X-952507Y30612D03*
G01*
X-927107Y1110620D03*
G01*
X-901707Y914405D03*
G01*
X-1079507Y1181105D03*
G01*
X-279407Y1358905D03*
G01*
X-1041407Y419105D03*
G01*
X-723907Y863605D03*
G01*
X-711207Y419105D03*
G01*
X114292Y2527305D03*
G01*
X-165107Y2324105D03*
G01*
X241292Y1689105D03*
G01*
X241292Y1892305D03*
G01*
X-876307Y1384305D03*
G01*
X-3893980Y2312802D03*
G01*
X-2814480Y2312802D03*
G01*
X-4090830Y393705D03*
G01*
X-2247882Y2476479D03*
G01*
X-4008711Y2476479D03*
G01*
X-1841507Y-698494D03*
G01*
X-1993882Y2603505D03*
G01*
X-3898882Y2603505D03*
G01*
X-63507Y825505D03*
G01*
X114292Y1054105D03*
G01*
X-3708382Y1275D03*
G01*
X-571507Y533405D03*
G01*
X-584207Y609605D03*
G01*
X-1739907Y927105D03*
G01*
X-1701807Y850905D03*
G01*
X-1663707Y774705D03*
G01*
X-1625607Y698505D03*
G01*
X-1587507Y622305D03*
G01*
X-1549407Y546105D03*
G01*
X-1511307Y469905D03*
G01*
X-1473207Y393705D03*
G01*
X-1435107Y317505D03*
G01*
X-1816107Y-292094D03*
G01*
X101617Y5D03*
G01*
X-1866755Y-165094D03*
G01*
X-7Y5D03*
G01*
X-1866907Y-38094D03*
G01*
X-1866907Y114305D03*
G01*
X-1803407Y1295405D03*
G01*
X-1841507Y-469894D03*
G01*
X-2070082Y-622294D03*
G01*
X-1511307Y838205D03*
G01*
X-4090830Y1346205D03*
G01*
X-2260582Y-685794D03*
G01*
X-1917682Y-393694D03*
G01*
X-1778007Y-622294D03*
G01*
X-2120882Y419105D03*
G01*
X-2578082Y2184405D03*
G01*
X-2336782Y2184405D03*
G01*
X-2120882Y2184405D03*
G01*
X-1803407Y2171705D03*
G01*
X-2349482Y-711194D03*
G01*
X-2158982Y-711194D03*
G01*
X-1409707Y-177794D03*
G01*
X-1435107Y1104905D03*
G01*
X-1308107Y342905D03*
G01*
X-76207Y1346205D03*
M02*
