G04 Layer: TopSilkscreenLayer*
G04 EasyEDA v6.5.34, 2023-08-01 23:33:27*
G04 d5b1b88f56c4446086ecb81e1243fcf9,5a6b42c53f6a479593ecc07194224c93,10*
G04 Gerber Generator version 0.2*
G04 Scale: 100 percent, Rotated: No, Reflected: No *
G04 Dimensions in millimeters *
G04 leading zeros omitted , absolute positions ,4 integer and 5 decimal *
%FSLAX45Y45*%
%MOMM*%

%ADD10C,0.2540*%
%ADD11C,0.1524*%
%ADD12C,0.2032*%

%LPD*%
D10*
X349757Y384047D02*
G01*
X349757Y390905D01*
X356615Y404368D01*
X363473Y411226D01*
X376936Y418084D01*
X404368Y418084D01*
X417829Y411226D01*
X424687Y404368D01*
X431545Y390905D01*
X431545Y377189D01*
X424687Y363473D01*
X410971Y343154D01*
X342900Y274828D01*
X438404Y274828D01*
X551434Y418084D02*
G01*
X483362Y322579D01*
X585723Y322579D01*
X551434Y418084D02*
G01*
X551434Y274828D01*
X630681Y390905D02*
G01*
X644144Y397510D01*
X664718Y418084D01*
X664718Y274828D01*
X778002Y418084D02*
G01*
X709675Y322579D01*
X812038Y322579D01*
X778002Y418084D02*
G01*
X778002Y274828D01*
X911606Y418084D02*
G01*
X856995Y274828D01*
X911606Y418084D02*
G01*
X965961Y274828D01*
X877570Y322579D02*
G01*
X945641Y322579D01*
D11*
X169671Y4561235D02*
G01*
X165354Y4570379D01*
X156210Y4579523D01*
X147065Y4584095D01*
X128778Y4584095D01*
X119887Y4579523D01*
X110744Y4570379D01*
X106171Y4561235D01*
X101600Y4547519D01*
X101600Y4524913D01*
X106171Y4511197D01*
X110744Y4502307D01*
X119887Y4493163D01*
X128778Y4488591D01*
X147065Y4488591D01*
X156210Y4493163D01*
X165354Y4502307D01*
X169671Y4511197D01*
X199897Y4584095D02*
G01*
X199897Y4488591D01*
X263397Y4584095D02*
G01*
X263397Y4488591D01*
X199897Y4538629D02*
G01*
X263397Y4538629D01*
X329692Y4584095D02*
G01*
X293370Y4488591D01*
X329692Y4584095D02*
G01*
X366268Y4488591D01*
X307086Y4520341D02*
G01*
X352552Y4520341D01*
X396239Y4584095D02*
G01*
X396239Y4488591D01*
X396239Y4584095D02*
G01*
X459739Y4488591D01*
X459739Y4584095D02*
G01*
X459739Y4488591D01*
X489712Y4584095D02*
G01*
X489712Y4488591D01*
X489712Y4584095D02*
G01*
X553465Y4488591D01*
X553465Y4584095D02*
G01*
X553465Y4488591D01*
X583437Y4584095D02*
G01*
X583437Y4488591D01*
X583437Y4584095D02*
G01*
X642620Y4584095D01*
X583437Y4538629D02*
G01*
X619760Y4538629D01*
X583437Y4488591D02*
G01*
X642620Y4488591D01*
X672591Y4584095D02*
G01*
X672591Y4488591D01*
X672591Y4488591D02*
G01*
X726947Y4488591D01*
X831595Y4561235D02*
G01*
X831595Y4565807D01*
X836168Y4574951D01*
X840740Y4579523D01*
X849884Y4584095D01*
X867918Y4584095D01*
X877061Y4579523D01*
X881634Y4574951D01*
X886206Y4565807D01*
X886206Y4556663D01*
X881634Y4547519D01*
X872490Y4534057D01*
X827024Y4488591D01*
X890777Y4488591D01*
X182371Y8117331D02*
G01*
X178054Y8126476D01*
X168910Y8135365D01*
X159765Y8139937D01*
X141478Y8139937D01*
X132587Y8135365D01*
X123444Y8126476D01*
X118871Y8117331D01*
X114300Y8103615D01*
X114300Y8081010D01*
X118871Y8067294D01*
X123444Y8058150D01*
X132587Y8049005D01*
X141478Y8044434D01*
X159765Y8044434D01*
X168910Y8049005D01*
X178054Y8058150D01*
X182371Y8067294D01*
X212597Y8139937D02*
G01*
X212597Y8044434D01*
X276097Y8139937D02*
G01*
X276097Y8044434D01*
X212597Y8094471D02*
G01*
X276097Y8094471D01*
X342392Y8139937D02*
G01*
X306070Y8044434D01*
X342392Y8139937D02*
G01*
X378968Y8044434D01*
X319786Y8076437D02*
G01*
X365252Y8076437D01*
X408939Y8139937D02*
G01*
X408939Y8044434D01*
X408939Y8139937D02*
G01*
X472439Y8044434D01*
X472439Y8139937D02*
G01*
X472439Y8044434D01*
X502412Y8139937D02*
G01*
X502412Y8044434D01*
X502412Y8139937D02*
G01*
X566165Y8044434D01*
X566165Y8139937D02*
G01*
X566165Y8044434D01*
X596137Y8139937D02*
G01*
X596137Y8044434D01*
X596137Y8139937D02*
G01*
X655320Y8139937D01*
X596137Y8094471D02*
G01*
X632460Y8094471D01*
X596137Y8044434D02*
G01*
X655320Y8044434D01*
X685291Y8139937D02*
G01*
X685291Y8044434D01*
X685291Y8044434D02*
G01*
X739647Y8044434D01*
X839724Y8121904D02*
G01*
X848868Y8126476D01*
X862584Y8139937D01*
X862584Y8044434D01*
X1198372Y8117281D02*
G01*
X1194054Y8126425D01*
X1184909Y8135569D01*
X1175765Y8139887D01*
X1157477Y8139887D01*
X1148588Y8135569D01*
X1139443Y8126425D01*
X1134872Y8117281D01*
X1130300Y8103565D01*
X1130300Y8080959D01*
X1134872Y8067243D01*
X1139443Y8058099D01*
X1148588Y8049209D01*
X1157477Y8044637D01*
X1175765Y8044637D01*
X1184909Y8049209D01*
X1194054Y8058099D01*
X1198372Y8067243D01*
X1228597Y8139887D02*
G01*
X1228597Y8044637D01*
X1292097Y8139887D02*
G01*
X1292097Y8044637D01*
X1228597Y8094675D02*
G01*
X1292097Y8094675D01*
X1358391Y8139887D02*
G01*
X1322070Y8044637D01*
X1358391Y8139887D02*
G01*
X1394968Y8044637D01*
X1335786Y8076387D02*
G01*
X1381252Y8076387D01*
X1424940Y8139887D02*
G01*
X1424940Y8044637D01*
X1424940Y8139887D02*
G01*
X1488440Y8044637D01*
X1488440Y8139887D02*
G01*
X1488440Y8044637D01*
X1518411Y8139887D02*
G01*
X1518411Y8044637D01*
X1518411Y8139887D02*
G01*
X1582165Y8044637D01*
X1582165Y8139887D02*
G01*
X1582165Y8044637D01*
X1612138Y8139887D02*
G01*
X1612138Y8044637D01*
X1612138Y8139887D02*
G01*
X1671320Y8139887D01*
X1612138Y8094675D02*
G01*
X1648459Y8094675D01*
X1612138Y8044637D02*
G01*
X1671320Y8044637D01*
X1701291Y8139887D02*
G01*
X1701291Y8044637D01*
X1701291Y8044637D02*
G01*
X1755647Y8044637D01*
X1864868Y8139887D02*
G01*
X1914906Y8139887D01*
X1887474Y8103565D01*
X1901190Y8103565D01*
X1910334Y8098993D01*
X1914906Y8094675D01*
X1919477Y8080959D01*
X1919477Y8071815D01*
X1914906Y8058099D01*
X1905761Y8049209D01*
X1892045Y8044637D01*
X1878584Y8044637D01*
X1864868Y8049209D01*
X1860295Y8053527D01*
X1855724Y8062671D01*
X1198372Y4561230D02*
G01*
X1194054Y4570374D01*
X1184909Y4579518D01*
X1175765Y4584090D01*
X1157477Y4584090D01*
X1148588Y4579518D01*
X1139443Y4570374D01*
X1134872Y4561230D01*
X1130300Y4547768D01*
X1130300Y4524908D01*
X1134872Y4511192D01*
X1139443Y4502302D01*
X1148588Y4493158D01*
X1157477Y4488586D01*
X1175765Y4488586D01*
X1184909Y4493158D01*
X1194054Y4502302D01*
X1198372Y4511192D01*
X1228597Y4584090D02*
G01*
X1228597Y4488586D01*
X1292097Y4584090D02*
G01*
X1292097Y4488586D01*
X1228597Y4538624D02*
G01*
X1292097Y4538624D01*
X1358391Y4584090D02*
G01*
X1322070Y4488586D01*
X1358391Y4584090D02*
G01*
X1394968Y4488586D01*
X1335786Y4520336D02*
G01*
X1381252Y4520336D01*
X1424940Y4584090D02*
G01*
X1424940Y4488586D01*
X1424940Y4584090D02*
G01*
X1488440Y4488586D01*
X1488440Y4584090D02*
G01*
X1488440Y4488586D01*
X1518411Y4584090D02*
G01*
X1518411Y4488586D01*
X1518411Y4584090D02*
G01*
X1582165Y4488586D01*
X1582165Y4584090D02*
G01*
X1582165Y4488586D01*
X1612138Y4584090D02*
G01*
X1612138Y4488586D01*
X1612138Y4584090D02*
G01*
X1671320Y4584090D01*
X1612138Y4538624D02*
G01*
X1648459Y4538624D01*
X1612138Y4488586D02*
G01*
X1671320Y4488586D01*
X1701291Y4584090D02*
G01*
X1701291Y4488586D01*
X1701291Y4488586D02*
G01*
X1755647Y4488586D01*
X1901190Y4584090D02*
G01*
X1855724Y4520336D01*
X1924050Y4520336D01*
X1901190Y4584090D02*
G01*
X1901190Y4488586D01*
D12*
X165100Y11550904D02*
G01*
X174244Y11555476D01*
X187705Y11568937D01*
X187705Y11473434D01*
X156971Y10022331D02*
G01*
X156971Y10026904D01*
X161544Y10035794D01*
X166115Y10040365D01*
X175005Y10044937D01*
X193294Y10044937D01*
X202437Y10040365D01*
X207010Y10035794D01*
X211581Y10026904D01*
X211581Y10017760D01*
X207010Y10008615D01*
X197865Y9994900D01*
X152400Y9949434D01*
X216154Y9949434D01*
X1213865Y10044937D02*
G01*
X1168400Y9981437D01*
X1236472Y9981437D01*
X1213865Y10044937D02*
G01*
X1213865Y9949434D01*
X1190243Y11568937D02*
G01*
X1240281Y11568937D01*
X1212850Y11532615D01*
X1226565Y11532615D01*
X1235709Y11528044D01*
X1240281Y11523471D01*
X1244854Y11510010D01*
X1244854Y11500865D01*
X1240281Y11487150D01*
X1231138Y11478005D01*
X1217422Y11473434D01*
X1203706Y11473434D01*
X1190243Y11478005D01*
X1185672Y11482578D01*
X1181100Y11491721D01*
D10*
X1523900Y9867900D02*
G01*
X1523900Y10121900D01*
X1523900Y10121900D02*
G01*
X1587400Y10058400D01*
X1523900Y10121900D02*
G01*
X1460400Y10058400D01*
X1523900Y11391900D02*
G01*
X1523900Y11645900D01*
X1523900Y11645900D02*
G01*
X1587400Y11582400D01*
X1523900Y11645900D02*
G01*
X1460400Y11582400D01*
X495200Y9867900D02*
G01*
X495200Y10121900D01*
X495200Y10121900D02*
G01*
X558700Y10058400D01*
X495200Y10121900D02*
G01*
X431700Y10058400D01*
X495200Y11391900D02*
G01*
X495200Y11645900D01*
X495200Y11645900D02*
G01*
X558700Y11582400D01*
X495200Y11645900D02*
G01*
X431700Y11582400D01*
X1651000Y7256487D02*
G01*
X1730994Y7256492D01*
X1651000Y6456486D02*
G01*
X1730994Y6456492D01*
X1651000Y5659381D02*
G01*
X1730994Y5659394D01*
X1320998Y5659381D02*
G01*
X1400992Y5659394D01*
X1320998Y6456486D02*
G01*
X1400992Y6456492D01*
X1320998Y7256487D02*
G01*
X1400992Y7256492D01*
X1651000Y3703990D02*
G01*
X1730994Y3704003D01*
X1651000Y2903984D02*
G01*
X1730994Y2904002D01*
X1651000Y2106879D02*
G01*
X1730994Y2106891D01*
X1320998Y2106884D02*
G01*
X1400992Y2106896D01*
X1320998Y2903984D02*
G01*
X1400992Y2904002D01*
X1320998Y3703990D02*
G01*
X1400992Y3704003D01*
X622300Y7256487D02*
G01*
X702294Y7256492D01*
X622300Y6456486D02*
G01*
X702294Y6456492D01*
X622300Y5659381D02*
G01*
X702294Y5659394D01*
X292298Y5659381D02*
G01*
X372292Y5659394D01*
X292298Y6456486D02*
G01*
X372292Y6456492D01*
X292298Y7256487D02*
G01*
X372292Y7256492D01*
X622300Y3703990D02*
G01*
X702294Y3704003D01*
X622300Y2903984D02*
G01*
X702294Y2904002D01*
X622300Y2106879D02*
G01*
X702294Y2106891D01*
X292298Y2106884D02*
G01*
X372292Y2106896D01*
X292298Y2903984D02*
G01*
X372292Y2904002D01*
X292298Y3703990D02*
G01*
X372292Y3704003D01*
X2015070Y12192000D02*
G01*
X15069Y12192000D01*
X2015070Y11836400D02*
G01*
X15069Y11836400D01*
G75*
G01
X317500Y11518900D02*
G03X317500Y11518900I-139700J0D01*
G75*
G01
X317500Y9994900D02*
G03X317500Y9994900I-139700J0D01*
G75*
G01
X1346200Y9994900D02*
G03X1346200Y9994900I-139700J0D01*
G75*
G01
X1346200Y11518900D02*
G03X1346200Y11518900I-139700J0D01*
M02*
