G04 Layer: TopSilkscreenLayer*
G04 EasyEDA v6.5.22, 2023-04-16 14:26:35*
G04 bb8b18280e224fb8820cbfc46fcd3399,5a6b42c53f6a479593ecc07194224c93,10*
G04 Gerber Generator version 0.2*
G04 Scale: 100 percent, Rotated: No, Reflected: No *
G04 Dimensions in millimeters *
G04 leading zeros omitted , absolute positions ,4 integer and 5 decimal *
%FSLAX45Y45*%
%MOMM*%

%ADD10C,0.2032*%
%ADD11C,0.1524*%
%ADD12C,0.2030*%

%LPD*%
D10*
X780541Y9541510D02*
G01*
X867918Y9541510D01*
X884174Y9535921D01*
X889761Y9530587D01*
X895095Y9519665D01*
X895095Y9508744D01*
X889761Y9497821D01*
X884174Y9492234D01*
X867918Y9486900D01*
X856995Y9486900D01*
X780541Y9577324D02*
G01*
X895095Y9577324D01*
X895095Y9577324D02*
G01*
X895095Y9642855D01*
X807974Y9760712D02*
G01*
X797052Y9755378D01*
X786129Y9744455D01*
X780541Y9733534D01*
X780541Y9711689D01*
X786129Y9700768D01*
X797052Y9689845D01*
X807974Y9684258D01*
X824229Y9678924D01*
X851408Y9678924D01*
X867918Y9684258D01*
X878840Y9689845D01*
X889761Y9700768D01*
X895095Y9711689D01*
X895095Y9733534D01*
X889761Y9744455D01*
X878840Y9755378D01*
X867918Y9760712D01*
X780541Y9851136D02*
G01*
X867918Y9851136D01*
X884174Y9845802D01*
X889761Y9840468D01*
X895095Y9829545D01*
X895095Y9818624D01*
X889761Y9807702D01*
X884174Y9802113D01*
X867918Y9796779D01*
X856995Y9796779D01*
X780541Y9887204D02*
G01*
X895095Y9887204D01*
X895095Y9887204D02*
G01*
X895095Y9952736D01*
X807974Y10070592D02*
G01*
X797052Y10065004D01*
X786129Y10054081D01*
X780541Y10043160D01*
X780541Y10021570D01*
X786129Y10010647D01*
X797052Y9999726D01*
X807974Y9994137D01*
X824229Y9988804D01*
X851408Y9988804D01*
X867918Y9994137D01*
X878840Y9999726D01*
X889761Y10010647D01*
X895095Y10021570D01*
X895095Y10043160D01*
X889761Y10054081D01*
X878840Y10065004D01*
X867918Y10070592D01*
X780541Y10161015D02*
G01*
X867918Y10161015D01*
X884174Y10155681D01*
X889761Y10150094D01*
X895095Y10139171D01*
X895095Y10128250D01*
X889761Y10117328D01*
X884174Y10111994D01*
X867918Y10106660D01*
X856995Y10106660D01*
X780541Y10197084D02*
G01*
X895095Y10197084D01*
X895095Y10197084D02*
G01*
X895095Y10262615D01*
X807974Y10380471D02*
G01*
X797052Y10374884D01*
X786129Y10363962D01*
X780541Y10353039D01*
X780541Y10331195D01*
X786129Y10320274D01*
X797052Y10309352D01*
X807974Y10304018D01*
X824229Y10298429D01*
X851408Y10298429D01*
X867918Y10304018D01*
X878840Y10309352D01*
X889761Y10320274D01*
X895095Y10331195D01*
X895095Y10353039D01*
X889761Y10363962D01*
X878840Y10374884D01*
X867918Y10380471D01*
X780541Y10470895D02*
G01*
X867918Y10470895D01*
X884174Y10465562D01*
X889761Y10459974D01*
X895095Y10449052D01*
X895095Y10438129D01*
X889761Y10427208D01*
X884174Y10421874D01*
X867918Y10416286D01*
X856995Y10416286D01*
X780541Y10506963D02*
G01*
X895095Y10506963D01*
X895095Y10506963D02*
G01*
X895095Y10572242D01*
X807974Y10690097D02*
G01*
X797052Y10684763D01*
X786129Y10673842D01*
X780541Y10662920D01*
X780541Y10641076D01*
X786129Y10630154D01*
X797052Y10619231D01*
X807974Y10613897D01*
X824229Y10608310D01*
X851408Y10608310D01*
X867918Y10613897D01*
X878840Y10619231D01*
X889761Y10630154D01*
X895095Y10641076D01*
X895095Y10662920D01*
X889761Y10673842D01*
X878840Y10684763D01*
X867918Y10690097D01*
D11*
X1886965Y11645137D02*
G01*
X1886965Y11572494D01*
X1882393Y11558778D01*
X1877822Y11554205D01*
X1868677Y11549634D01*
X1859788Y11549634D01*
X1850643Y11554205D01*
X1846072Y11558778D01*
X1841500Y11572494D01*
X1841500Y11581637D01*
X1962404Y11645137D02*
G01*
X1916938Y11581637D01*
X1985009Y11581637D01*
X1962404Y11645137D02*
G01*
X1962404Y11549634D01*
X1861565Y8520937D02*
G01*
X1861565Y8448294D01*
X1856993Y8434578D01*
X1852422Y8430005D01*
X1843277Y8425434D01*
X1834388Y8425434D01*
X1825243Y8430005D01*
X1820672Y8434578D01*
X1816100Y8448294D01*
X1816100Y8457437D01*
X1946147Y8520937D02*
G01*
X1900681Y8520937D01*
X1896109Y8480044D01*
X1900681Y8484615D01*
X1914397Y8489187D01*
X1927859Y8489187D01*
X1941575Y8484615D01*
X1950720Y8475471D01*
X1955291Y8462010D01*
X1955291Y8452865D01*
X1950720Y8439150D01*
X1941575Y8430005D01*
X1927859Y8425434D01*
X1914397Y8425434D01*
X1900681Y8430005D01*
X1896109Y8434578D01*
X1891538Y8443721D01*
X845565Y8520937D02*
G01*
X845565Y8448294D01*
X840993Y8434578D01*
X836422Y8430005D01*
X827277Y8425434D01*
X818388Y8425434D01*
X809243Y8430005D01*
X804672Y8434578D01*
X800100Y8448294D01*
X800100Y8457437D01*
X880109Y8498331D02*
G01*
X880109Y8502904D01*
X884681Y8511794D01*
X889254Y8516365D01*
X898397Y8520937D01*
X916431Y8520937D01*
X925575Y8516365D01*
X930147Y8511794D01*
X934720Y8502904D01*
X934720Y8493760D01*
X930147Y8484615D01*
X921004Y8470900D01*
X875538Y8425434D01*
X939291Y8425434D01*
X870953Y11645209D02*
G01*
X870953Y11572481D01*
X866409Y11558846D01*
X861862Y11554299D01*
X852771Y11549753D01*
X843681Y11549753D01*
X834590Y11554299D01*
X830046Y11558846D01*
X825500Y11572481D01*
X825500Y11581571D01*
X900953Y11627027D02*
G01*
X910046Y11631571D01*
X923681Y11645209D01*
X923681Y11549753D01*
D10*
X1003300Y11684000D02*
G01*
X1003300Y11938000D01*
X2019300Y11938000D01*
X2019300Y11684000D01*
X1828800Y11684000D01*
D12*
X1003300Y11684000D02*
G01*
X1828800Y11684000D01*
D10*
X1003300Y8128000D02*
G01*
X1003300Y8382000D01*
X2019300Y8382000D01*
X2019300Y8128000D01*
X1828800Y8128000D01*
D12*
X1003300Y8128000D02*
G01*
X1828800Y8128000D01*
D10*
X-12700Y8128000D02*
G01*
X-12700Y8382000D01*
X1003300Y8382000D01*
X1003300Y8128000D01*
X812800Y8128000D01*
D12*
X-12700Y8128000D02*
G01*
X812800Y8128000D01*
D10*
X-12700Y11684000D02*
G01*
X-12700Y11938000D01*
X1003300Y11938000D01*
X1003300Y11684000D01*
X812800Y11684000D01*
D12*
X-12700Y11684000D02*
G01*
X812800Y11684000D01*
M02*
