G04 Layer: BottomSilkscreenLayer*
G04 EasyEDA v6.5.23, 2023-06-01 15:37:06*
G04 23eb6b4696734b44af23c16f2827e462,5a6b42c53f6a479593ecc07194224c93,10*
G04 Gerber Generator version 0.2*
G04 Scale: 100 percent, Rotated: No, Reflected: No *
G04 Dimensions in millimeters *
G04 leading zeros omitted , absolute positions ,4 integer and 5 decimal *
%FSLAX45Y45*%
%MOMM*%

%ADD10C,0.2032*%

%LPD*%
D10*
X1943100Y11652689D02*
G01*
X1943100Y11538145D01*
X1943100Y11652689D02*
G01*
X1894009Y11652689D01*
X1877646Y11647236D01*
X1872190Y11641782D01*
X1866737Y11630873D01*
X1866737Y11614508D01*
X1872190Y11603598D01*
X1877646Y11598145D01*
X1894009Y11592689D01*
X1943100Y11592689D01*
X1787100Y11652689D02*
G01*
X1830735Y11538145D01*
X1787100Y11652689D02*
G01*
X1743463Y11538145D01*
X1814372Y11576326D02*
G01*
X1759828Y11576326D01*
X1707464Y11652689D02*
G01*
X1707464Y11538145D01*
X1707464Y11652689D02*
G01*
X1658373Y11652689D01*
X1642010Y11647236D01*
X1636555Y11641782D01*
X1631101Y11630873D01*
X1631101Y11619964D01*
X1636555Y11609054D01*
X1642010Y11603598D01*
X1658373Y11598145D01*
X1707464Y11598145D01*
X1669282Y11598145D02*
G01*
X1631101Y11538145D01*
X1556918Y11652689D02*
G01*
X1556918Y11538145D01*
X1595099Y11652689D02*
G01*
X1518737Y11652689D01*
X1398737Y11652689D02*
G01*
X1398737Y11538145D01*
X1398737Y11652689D02*
G01*
X1322374Y11538145D01*
X1322374Y11652689D02*
G01*
X1322374Y11538145D01*
X1286372Y11652689D02*
G01*
X1286372Y11570873D01*
X1280919Y11554508D01*
X1270010Y11543598D01*
X1253647Y11538145D01*
X1242738Y11538145D01*
X1226372Y11543598D01*
X1215466Y11554508D01*
X1210010Y11570873D01*
X1210010Y11652689D01*
X1174010Y11652689D02*
G01*
X1174010Y11538145D01*
X1174010Y11652689D02*
G01*
X1130373Y11538145D01*
X1086738Y11652689D02*
G01*
X1130373Y11538145D01*
X1086738Y11652689D02*
G01*
X1086738Y11538145D01*
X961283Y11625417D02*
G01*
X961283Y11630873D01*
X955829Y11641782D01*
X950374Y11647236D01*
X939464Y11652689D01*
X917648Y11652689D01*
X906739Y11647236D01*
X901283Y11641782D01*
X895830Y11630873D01*
X895830Y11619964D01*
X901283Y11609054D01*
X912192Y11592689D01*
X966739Y11538145D01*
X890374Y11538145D01*
X799830Y11652689D02*
G01*
X854374Y11576326D01*
X772556Y11576326D01*
X799830Y11652689D02*
G01*
X799830Y11538145D01*
X725647Y11652689D02*
G01*
X665647Y11652689D01*
X698375Y11609054D01*
X682012Y11609054D01*
X671103Y11603598D01*
X665647Y11598145D01*
X660194Y11581782D01*
X660194Y11570873D01*
X665647Y11554508D01*
X676556Y11543598D01*
X692919Y11538145D01*
X709284Y11538145D01*
X725647Y11543598D01*
X731103Y11549054D01*
X736556Y11559964D01*
X618738Y11625417D02*
G01*
X618738Y11630873D01*
X613285Y11641782D01*
X607829Y11647236D01*
X596920Y11652689D01*
X575101Y11652689D01*
X564192Y11647236D01*
X558739Y11641782D01*
X553285Y11630873D01*
X553285Y11619964D01*
X558739Y11609054D01*
X569648Y11592689D01*
X624192Y11538145D01*
X547829Y11538145D01*
X511830Y11587236D02*
G01*
X413649Y11587236D01*
X344921Y11652689D02*
G01*
X361284Y11647236D01*
X372193Y11630873D01*
X377649Y11603598D01*
X377649Y11587236D01*
X372193Y11559964D01*
X361284Y11543598D01*
X344921Y11538145D01*
X334012Y11538145D01*
X317649Y11543598D01*
X306740Y11559964D01*
X301284Y11587236D01*
X301284Y11603598D01*
X306740Y11630873D01*
X317649Y11647236D01*
X334012Y11652689D01*
X344921Y11652689D01*
X265285Y11630873D02*
G01*
X254375Y11636326D01*
X238013Y11652689D01*
X238013Y11538145D01*
X169285Y11652689D02*
G01*
X185648Y11647236D01*
X196557Y11630873D01*
X202013Y11603598D01*
X202013Y11587236D01*
X196557Y11559964D01*
X185648Y11543598D01*
X169285Y11538145D01*
X158376Y11538145D01*
X142013Y11543598D01*
X131104Y11559964D01*
X125648Y11587236D01*
X125648Y11603598D01*
X131104Y11630873D01*
X142013Y11647236D01*
X158376Y11652689D01*
X169285Y11652689D01*
X89649Y11630873D02*
G01*
X78739Y11636326D01*
X62377Y11652689D01*
X62377Y11538145D01*
X1570990Y8846058D02*
G01*
X1570990Y8758681D01*
X1576577Y8742426D01*
X1581911Y8736837D01*
X1592834Y8731504D01*
X1603756Y8731504D01*
X1614677Y8736837D01*
X1620265Y8742426D01*
X1625600Y8758681D01*
X1625600Y8769604D01*
X1535175Y8846058D02*
G01*
X1535175Y8731504D01*
X1535175Y8731504D02*
G01*
X1469643Y8731504D01*
X1351788Y8818626D02*
G01*
X1357122Y8829547D01*
X1368043Y8840470D01*
X1378965Y8846058D01*
X1400809Y8846058D01*
X1411731Y8840470D01*
X1422654Y8829547D01*
X1428241Y8818626D01*
X1433575Y8802370D01*
X1433575Y8775192D01*
X1428241Y8758681D01*
X1422654Y8747760D01*
X1411731Y8736837D01*
X1400809Y8731504D01*
X1378965Y8731504D01*
X1368043Y8736837D01*
X1357122Y8747760D01*
X1351788Y8758681D01*
X1261363Y8846058D02*
G01*
X1261363Y8758681D01*
X1266697Y8742426D01*
X1272031Y8736837D01*
X1282954Y8731504D01*
X1293875Y8731504D01*
X1304797Y8736837D01*
X1310386Y8742426D01*
X1315720Y8758681D01*
X1315720Y8769604D01*
X1225295Y8846058D02*
G01*
X1225295Y8731504D01*
X1225295Y8731504D02*
G01*
X1159763Y8731504D01*
X1041908Y8818626D02*
G01*
X1047495Y8829547D01*
X1058418Y8840470D01*
X1069340Y8846058D01*
X1090929Y8846058D01*
X1101852Y8840470D01*
X1112774Y8829547D01*
X1118361Y8818626D01*
X1123695Y8802370D01*
X1123695Y8775192D01*
X1118361Y8758681D01*
X1112774Y8747760D01*
X1101852Y8736837D01*
X1090929Y8731504D01*
X1069340Y8731504D01*
X1058418Y8736837D01*
X1047495Y8747760D01*
X1041908Y8758681D01*
X951484Y8846058D02*
G01*
X951484Y8758681D01*
X956818Y8742426D01*
X962406Y8736837D01*
X973327Y8731504D01*
X984250Y8731504D01*
X995172Y8736837D01*
X1000506Y8742426D01*
X1005840Y8758681D01*
X1005840Y8769604D01*
X915415Y8846058D02*
G01*
X915415Y8731504D01*
X915415Y8731504D02*
G01*
X849884Y8731504D01*
X732027Y8818626D02*
G01*
X737615Y8829547D01*
X748538Y8840470D01*
X759459Y8846058D01*
X781304Y8846058D01*
X792225Y8840470D01*
X803147Y8829547D01*
X808481Y8818626D01*
X814070Y8802370D01*
X814070Y8775192D01*
X808481Y8758681D01*
X803147Y8747760D01*
X792225Y8736837D01*
X781304Y8731504D01*
X759459Y8731504D01*
X748538Y8736837D01*
X737615Y8747760D01*
X732027Y8758681D01*
X641604Y8846058D02*
G01*
X641604Y8758681D01*
X646937Y8742426D01*
X652526Y8736837D01*
X663447Y8731504D01*
X674370Y8731504D01*
X685291Y8736837D01*
X690625Y8742426D01*
X696213Y8758681D01*
X696213Y8769604D01*
X605536Y8846058D02*
G01*
X605536Y8731504D01*
X605536Y8731504D02*
G01*
X540257Y8731504D01*
X422402Y8818626D02*
G01*
X427736Y8829547D01*
X438657Y8840470D01*
X449579Y8846058D01*
X471423Y8846058D01*
X482345Y8840470D01*
X493268Y8829547D01*
X498602Y8818626D01*
X504189Y8802370D01*
X504189Y8775192D01*
X498602Y8758681D01*
X493268Y8747760D01*
X482345Y8736837D01*
X471423Y8731504D01*
X449579Y8731504D01*
X438657Y8736837D01*
X427736Y8747760D01*
X422402Y8758681D01*
X1701800Y12059089D02*
G01*
X1701800Y11944545D01*
X1701800Y12059089D02*
G01*
X1630890Y12059089D01*
X1701800Y12004545D02*
G01*
X1658162Y12004545D01*
X1701800Y11944545D02*
G01*
X1630890Y11944545D01*
X1594891Y12059089D02*
G01*
X1594891Y11944545D01*
X1594891Y12059089D02*
G01*
X1545800Y12059089D01*
X1529435Y12053636D01*
X1523982Y12048182D01*
X1518528Y12037273D01*
X1518528Y12026364D01*
X1523982Y12015454D01*
X1529435Y12009998D01*
X1545800Y12004545D01*
X1594891Y12004545D02*
G01*
X1545800Y12004545D01*
X1529435Y11999089D01*
X1523982Y11993636D01*
X1518528Y11982726D01*
X1518528Y11966364D01*
X1523982Y11955454D01*
X1529435Y11949998D01*
X1545800Y11944545D01*
X1594891Y11944545D01*
X1482526Y12059089D02*
G01*
X1482526Y11977273D01*
X1477073Y11960908D01*
X1466164Y11949998D01*
X1449801Y11944545D01*
X1438892Y11944545D01*
X1422527Y11949998D01*
X1411617Y11960908D01*
X1406164Y11977273D01*
X1406164Y12059089D01*
X1286164Y12059089D02*
G01*
X1286164Y11944545D01*
X1286164Y12059089D02*
G01*
X1237073Y12059089D01*
X1220711Y12053636D01*
X1215255Y12048182D01*
X1209802Y12037273D01*
X1209802Y12020908D01*
X1215255Y12009998D01*
X1220711Y12004545D01*
X1237073Y11999089D01*
X1286164Y11999089D01*
X1173800Y12059089D02*
G01*
X1173800Y11944545D01*
X1173800Y12059089D02*
G01*
X1124709Y12059089D01*
X1108346Y12053636D01*
X1102890Y12048182D01*
X1097437Y12037273D01*
X1097437Y12020908D01*
X1102890Y12009998D01*
X1108346Y12004545D01*
X1124709Y11999089D01*
X1173800Y11999089D01*
X1061438Y12059089D02*
G01*
X1061438Y11944545D01*
X1061438Y12059089D02*
G01*
X1017800Y11944545D01*
X974166Y12059089D02*
G01*
X1017800Y11944545D01*
X974166Y12059089D02*
G01*
X974166Y11944545D01*
X854166Y12059089D02*
G01*
X854166Y11944545D01*
X854166Y12059089D02*
G01*
X810529Y11944545D01*
X766892Y12059089D02*
G01*
X810529Y11944545D01*
X766892Y12059089D02*
G01*
X766892Y11944545D01*
X730892Y12059089D02*
G01*
X730892Y11944545D01*
X730892Y12059089D02*
G01*
X659983Y12059089D01*
X730892Y12004545D02*
G01*
X687255Y12004545D01*
X730892Y11944545D02*
G01*
X659983Y11944545D01*
X585802Y12059089D02*
G01*
X585802Y11944545D01*
X623984Y12059089D02*
G01*
X547621Y12059089D01*
X511619Y12059089D02*
G01*
X511619Y11944545D01*
X511619Y12059089D02*
G01*
X440712Y12059089D01*
X511619Y12004545D02*
G01*
X467984Y12004545D01*
X511619Y11944545D02*
G01*
X440712Y11944545D01*
X404710Y12059089D02*
G01*
X404710Y11944545D01*
X404710Y12059089D02*
G01*
X355620Y12059089D01*
X339257Y12053636D01*
X333801Y12048182D01*
X328348Y12037273D01*
X328348Y12026364D01*
X333801Y12015454D01*
X339257Y12009998D01*
X355620Y12004545D01*
X404710Y12004545D01*
X366529Y12004545D02*
G01*
X328348Y11944545D01*
X1727200Y11855889D02*
G01*
X1727200Y11741345D01*
X1727200Y11855889D02*
G01*
X1656290Y11855889D01*
X1727200Y11801345D02*
G01*
X1683562Y11801345D01*
X1620291Y11855889D02*
G01*
X1620291Y11741345D01*
X1620291Y11855889D02*
G01*
X1571200Y11855889D01*
X1554835Y11850436D01*
X1549382Y11844982D01*
X1543928Y11834073D01*
X1543928Y11823164D01*
X1549382Y11812254D01*
X1554835Y11806798D01*
X1571200Y11801345D01*
X1620291Y11801345D01*
X1582110Y11801345D02*
G01*
X1543928Y11741345D01*
X1475201Y11855889D02*
G01*
X1486110Y11850436D01*
X1497017Y11839526D01*
X1502473Y11828617D01*
X1507926Y11812254D01*
X1507926Y11784982D01*
X1502473Y11768617D01*
X1497017Y11757708D01*
X1486110Y11746798D01*
X1475201Y11741345D01*
X1453382Y11741345D01*
X1442473Y11746798D01*
X1431564Y11757708D01*
X1426110Y11768617D01*
X1420655Y11784982D01*
X1420655Y11812254D01*
X1426110Y11828617D01*
X1431564Y11839526D01*
X1442473Y11850436D01*
X1453382Y11855889D01*
X1475201Y11855889D01*
X1384655Y11855889D02*
G01*
X1384655Y11741345D01*
X1384655Y11855889D02*
G01*
X1308290Y11741345D01*
X1308290Y11855889D02*
G01*
X1308290Y11741345D01*
X1234109Y11855889D02*
G01*
X1234109Y11741345D01*
X1272291Y11855889D02*
G01*
X1195928Y11855889D01*
X1075928Y11855889D02*
G01*
X1075928Y11741345D01*
X1075928Y11855889D02*
G01*
X1026838Y11855889D01*
X1010472Y11850436D01*
X1005019Y11844982D01*
X999566Y11834073D01*
X999566Y11817708D01*
X1005019Y11806798D01*
X1010472Y11801345D01*
X1026838Y11795889D01*
X1075928Y11795889D01*
X919929Y11855889D02*
G01*
X963564Y11741345D01*
X919929Y11855889D02*
G01*
X876292Y11741345D01*
X947201Y11779526D02*
G01*
X892655Y11779526D01*
X840292Y11855889D02*
G01*
X840292Y11741345D01*
X840292Y11855889D02*
G01*
X763930Y11741345D01*
X763930Y11855889D02*
G01*
X763930Y11741345D01*
X727928Y11855889D02*
G01*
X727928Y11741345D01*
X727928Y11855889D02*
G01*
X657019Y11855889D01*
X727928Y11801345D02*
G01*
X684293Y11801345D01*
X727928Y11741345D02*
G01*
X657019Y11741345D01*
X621019Y11855889D02*
G01*
X621019Y11741345D01*
X621019Y11741345D02*
G01*
X555566Y11741345D01*
X435566Y11855889D02*
G01*
X391929Y11741345D01*
X348292Y11855889D02*
G01*
X391929Y11741345D01*
X312293Y11834073D02*
G01*
X301383Y11839526D01*
X285021Y11855889D01*
X285021Y11741345D01*
M02*
