G04 Layer: TopSilkscreenLayer*
G04 EasyEDA v6.5.23, 2023-06-01 15:37:06*
G04 23eb6b4696734b44af23c16f2827e462,5a6b42c53f6a479593ecc07194224c93,10*
G04 Gerber Generator version 0.2*
G04 Scale: 100 percent, Rotated: No, Reflected: No *
G04 Dimensions in millimeters *
G04 leading zeros omitted , absolute positions ,4 integer and 5 decimal *
%FSLAX45Y45*%
%MOMM*%

%ADD10C,0.1524*%
%ADD11C,0.2032*%
%ADD12C,0.2540*%
%ADD13C,0.3000*%

%LPD*%
G36*
X1286916Y12713919D02*
G01*
X1282141Y12713665D01*
X1271930Y12712192D01*
X1261059Y12709499D01*
X1255420Y12707721D01*
X1243838Y12703251D01*
X1231849Y12697612D01*
X1219708Y12690805D01*
X1213561Y12686995D01*
X1201318Y12678511D01*
X1189228Y12668961D01*
X1167384Y12649911D01*
X1154633Y12639903D01*
X1149299Y12636195D01*
X1144524Y12633350D01*
X1140256Y12631318D01*
X1136396Y12630048D01*
X1132941Y12629489D01*
X1129792Y12629642D01*
X1126896Y12630454D01*
X1124102Y12631826D01*
X1118514Y12635687D01*
X1113536Y12639700D01*
X1109218Y12643866D01*
X1105560Y12648133D01*
X1102512Y12652451D01*
X1100124Y12656769D01*
X1098346Y12661036D01*
X1097229Y12665303D01*
X1096670Y12669418D01*
X1096772Y12673380D01*
X1097483Y12677190D01*
X1098804Y12680746D01*
X1100683Y12684048D01*
X1103223Y12687046D01*
X1106322Y12689687D01*
X1110030Y12691973D01*
X1114348Y12693751D01*
X1119225Y12695123D01*
X1124661Y12695986D01*
X1141018Y12696952D01*
X1149451Y12698831D01*
X1155141Y12701625D01*
X1157224Y12704978D01*
X1156258Y12708128D01*
X1153464Y12710515D01*
X1149197Y12712242D01*
X1143711Y12713258D01*
X1137361Y12713614D01*
X1130401Y12713411D01*
X1123086Y12712547D01*
X1115771Y12711125D01*
X1108760Y12709093D01*
X1102258Y12706604D01*
X1096670Y12703556D01*
X1092200Y12700000D01*
X1088593Y12696037D01*
X1085596Y12692024D01*
X1083157Y12687858D01*
X1081278Y12683591D01*
X1080008Y12679273D01*
X1079347Y12674803D01*
X1079246Y12670282D01*
X1079703Y12665608D01*
X1080770Y12660884D01*
X1082395Y12656058D01*
X1084630Y12651130D01*
X1087475Y12646101D01*
X1090879Y12641021D01*
X1094841Y12635788D01*
X1099362Y12630505D01*
X1109522Y12620142D01*
X1186230Y12620142D01*
X1186535Y12623139D01*
X1188262Y12627406D01*
X1194155Y12638176D01*
X1197508Y12643205D01*
X1201216Y12648082D01*
X1205230Y12652806D01*
X1209497Y12657378D01*
X1218692Y12665964D01*
X1223568Y12669926D01*
X1233627Y12677140D01*
X1243838Y12683286D01*
X1248968Y12685979D01*
X1253998Y12688316D01*
X1263700Y12691973D01*
X1268323Y12693294D01*
X1272743Y12694208D01*
X1276908Y12694767D01*
X1280820Y12694869D01*
X1284376Y12694615D01*
X1287576Y12693853D01*
X1290421Y12692684D01*
X1292809Y12691008D01*
X1294688Y12688874D01*
X1296111Y12686233D01*
X1297025Y12683083D01*
X1297279Y12679375D01*
X1296974Y12676022D01*
X1296060Y12672568D01*
X1294485Y12669012D01*
X1292453Y12665405D01*
X1289862Y12661747D01*
X1286764Y12658140D01*
X1283258Y12654483D01*
X1279347Y12650927D01*
X1275029Y12647371D01*
X1265478Y12640614D01*
X1254810Y12634468D01*
X1249172Y12631623D01*
X1237437Y12626644D01*
X1231442Y12624562D01*
X1225397Y12622733D01*
X1219301Y12621260D01*
X1203299Y12618516D01*
X1195832Y12617653D01*
X1190650Y12617551D01*
X1187500Y12618313D01*
X1186230Y12620142D01*
X1109522Y12620142D01*
X1130604Y12599060D01*
X1089355Y12533934D01*
X1078636Y12517882D01*
X1068628Y12503912D01*
X1059180Y12491923D01*
X1050036Y12481763D01*
X1045565Y12477343D01*
X1041095Y12473330D01*
X1036675Y12469723D01*
X1032205Y12466472D01*
X1027734Y12463576D01*
X1018590Y12458852D01*
X1013866Y12456972D01*
X1009040Y12455398D01*
X1004112Y12454128D01*
X998982Y12453112D01*
X988212Y12451791D01*
X966876Y12451232D01*
X958748Y12450724D01*
X952144Y12449810D01*
X946912Y12448489D01*
X943051Y12446660D01*
X940358Y12444425D01*
X938834Y12441631D01*
X938377Y12438278D01*
X938834Y12434773D01*
X940308Y12431826D01*
X942594Y12429388D01*
X945794Y12427610D01*
X949756Y12426340D01*
X954481Y12425680D01*
X959916Y12425629D01*
X965962Y12426137D01*
X972667Y12427254D01*
X979932Y12428931D01*
X987653Y12431268D01*
X1002131Y12436144D01*
X1008278Y12437313D01*
X1014272Y12437821D01*
X1020114Y12437567D01*
X1025753Y12436652D01*
X1031138Y12435078D01*
X1036218Y12432842D01*
X1040942Y12430048D01*
X1045260Y12426696D01*
X1049172Y12422835D01*
X1052576Y12418415D01*
X1055471Y12413589D01*
X1057808Y12408255D01*
X1059484Y12402566D01*
X1060551Y12396470D01*
X1061313Y12379909D01*
X1062329Y12371628D01*
X1063802Y12365990D01*
X1065631Y12363958D01*
X1066749Y12364466D01*
X1071676Y12368530D01*
X1079754Y12376048D01*
X1090422Y12386462D01*
X1117041Y12413945D01*
X1149299Y12448133D01*
X1160881Y12459716D01*
X1165453Y12463881D01*
X1169263Y12467031D01*
X1172464Y12469164D01*
X1175156Y12470384D01*
X1177340Y12470739D01*
X1179169Y12470231D01*
X1180744Y12468961D01*
X1182116Y12466980D01*
X1184656Y12460986D01*
X1187754Y12452350D01*
X1189736Y12448082D01*
X1191920Y12444222D01*
X1194358Y12440767D01*
X1197051Y12437770D01*
X1199997Y12435230D01*
X1203198Y12433147D01*
X1206652Y12431471D01*
X1210360Y12430201D01*
X1214374Y12429388D01*
X1218692Y12429032D01*
X1223314Y12429083D01*
X1228191Y12429591D01*
X1233424Y12430506D01*
X1238961Y12431826D01*
X1244803Y12433604D01*
X1251000Y12435789D01*
X1257554Y12438380D01*
X1281633Y12449657D01*
X1290320Y12453416D01*
X1297736Y12456261D01*
X1303832Y12458090D01*
X1308608Y12458903D01*
X1312062Y12458801D01*
X1314094Y12457633D01*
X1314805Y12455499D01*
X1315821Y12450521D01*
X1318564Y12444831D01*
X1322628Y12439192D01*
X1327607Y12434214D01*
X1330960Y12431826D01*
X1334668Y12429896D01*
X1338681Y12428474D01*
X1342999Y12427610D01*
X1347520Y12427153D01*
X1352346Y12427204D01*
X1357376Y12427762D01*
X1362608Y12428728D01*
X1367993Y12430201D01*
X1373581Y12432131D01*
X1379321Y12434468D01*
X1385214Y12437262D01*
X1391208Y12440462D01*
X1397254Y12444120D01*
X1403400Y12448184D01*
X1409649Y12452654D01*
X1415897Y12457480D01*
X1422146Y12462764D01*
X1428394Y12468402D01*
X1440688Y12480391D01*
X1451660Y12490500D01*
X1461109Y12498171D01*
X1469034Y12503404D01*
X1472438Y12505131D01*
X1475435Y12506248D01*
X1478076Y12506756D01*
X1480362Y12506655D01*
X1482293Y12505994D01*
X1483817Y12504674D01*
X1484985Y12502794D01*
X1485798Y12500254D01*
X1486255Y12497155D01*
X1486306Y12493447D01*
X1486052Y12489180D01*
X1485442Y12484252D01*
X1483512Y12472771D01*
X1483207Y12467082D01*
X1483461Y12461748D01*
X1484376Y12456718D01*
X1485900Y12452045D01*
X1488033Y12447625D01*
X1490726Y12443510D01*
X1494078Y12439700D01*
X1498447Y12435586D01*
X1502562Y12432182D01*
X1506575Y12429540D01*
X1510690Y12427712D01*
X1514957Y12426645D01*
X1519631Y12426391D01*
X1524812Y12426899D01*
X1530705Y12428169D01*
X1537462Y12430252D01*
X1545132Y12433147D01*
X1575562Y12446304D01*
X1584401Y12449911D01*
X1591157Y12451943D01*
X1596491Y12452502D01*
X1600860Y12451486D01*
X1604924Y12448895D01*
X1609140Y12444679D01*
X1618996Y12433096D01*
X1623110Y12428880D01*
X1626870Y12426340D01*
X1630781Y12425324D01*
X1635302Y12425883D01*
X1640890Y12427915D01*
X1648053Y12431471D01*
X1663293Y12439700D01*
X1669034Y12442291D01*
X1674266Y12444222D01*
X1678990Y12445492D01*
X1683054Y12446152D01*
X1686407Y12446050D01*
X1688947Y12445288D01*
X1694434Y12440005D01*
X1701088Y12436094D01*
X1709572Y12432436D01*
X1719021Y12429490D01*
X1723339Y12428626D01*
X1727860Y12428169D01*
X1732686Y12428067D01*
X1737664Y12428321D01*
X1742846Y12428931D01*
X1748231Y12429896D01*
X1753717Y12431166D01*
X1759356Y12432741D01*
X1765147Y12434671D01*
X1776933Y12439446D01*
X1788922Y12445288D01*
X1800961Y12452248D01*
X1806956Y12456058D01*
X1818792Y12464440D01*
X1830324Y12473686D01*
X1841347Y12483744D01*
X1846630Y12489027D01*
X1857298Y12500813D01*
X1866595Y12511887D01*
X1873402Y12520879D01*
X1877872Y12527737D01*
X1879244Y12530429D01*
X1880057Y12532563D01*
X1880362Y12534138D01*
X1880107Y12535204D01*
X1879396Y12535712D01*
X1878126Y12535662D01*
X1876348Y12535103D01*
X1874113Y12533985D01*
X1868271Y12530074D01*
X1860651Y12523927D01*
X1851355Y12515545D01*
X1840484Y12504877D01*
X1793646Y12455804D01*
X1775409Y12527127D01*
X1773428Y12535916D01*
X1772157Y12542723D01*
X1771599Y12547854D01*
X1771751Y12551460D01*
X1772513Y12553899D01*
X1773986Y12555321D01*
X1776069Y12556083D01*
X1778812Y12556337D01*
X1782165Y12556337D01*
X1787855Y12555067D01*
X1792376Y12551460D01*
X1795272Y12545923D01*
X1796288Y12538862D01*
X1796745Y12532258D01*
X1797964Y12527280D01*
X1799945Y12523927D01*
X1802739Y12522149D01*
X1806193Y12521996D01*
X1810308Y12523520D01*
X1815084Y12526619D01*
X1820418Y12531445D01*
X1823770Y12535712D01*
X1825752Y12540284D01*
X1826361Y12545009D01*
X1825802Y12549733D01*
X1824075Y12554356D01*
X1821332Y12558776D01*
X1817624Y12562890D01*
X1813102Y12566497D01*
X1807768Y12569494D01*
X1801825Y12571831D01*
X1795272Y12573304D01*
X1788261Y12573812D01*
X1783791Y12573660D01*
X1779473Y12573101D01*
X1775307Y12572136D01*
X1771294Y12570764D01*
X1767332Y12568936D01*
X1763420Y12566650D01*
X1759508Y12563856D01*
X1755597Y12560503D01*
X1751584Y12556642D01*
X1747418Y12552222D01*
X1743151Y12547193D01*
X1734616Y12536271D01*
X1725675Y12525349D01*
X1715973Y12514173D01*
X1705813Y12502946D01*
X1685086Y12481458D01*
X1669646Y12466726D01*
X1700733Y12466726D01*
X1703425Y12468504D01*
X1711248Y12468910D01*
X1717293Y12470079D01*
X1722018Y12473432D01*
X1725168Y12478512D01*
X1726285Y12484912D01*
X1726692Y12491567D01*
X1727911Y12497866D01*
X1729689Y12503099D01*
X1731873Y12506553D01*
X1735836Y12509398D01*
X1739595Y12510008D01*
X1743100Y12508636D01*
X1746199Y12505385D01*
X1748789Y12500406D01*
X1750822Y12493904D01*
X1752092Y12485979D01*
X1752549Y12476835D01*
X1752092Y12469469D01*
X1750872Y12462967D01*
X1748840Y12457328D01*
X1746199Y12452654D01*
X1742948Y12448997D01*
X1739239Y12446355D01*
X1735074Y12444780D01*
X1730552Y12444374D01*
X1725777Y12445085D01*
X1720799Y12446965D01*
X1715719Y12450165D01*
X1710588Y12454585D01*
X1703120Y12462408D01*
X1700733Y12466726D01*
X1669646Y12466726D01*
X1661058Y12459055D01*
X1652879Y12452248D01*
X1645970Y12447117D01*
X1643024Y12445187D01*
X1640484Y12443815D01*
X1638350Y12442952D01*
X1636725Y12442647D01*
X1634134Y12443002D01*
X1633169Y12443409D01*
X1632407Y12444069D01*
X1631899Y12444933D01*
X1631645Y12446050D01*
X1631645Y12447524D01*
X1632508Y12451283D01*
X1634591Y12456515D01*
X1637995Y12463373D01*
X1642821Y12472060D01*
X1657248Y12495530D01*
X1678635Y12528550D01*
X1732280Y12609271D01*
X1751228Y12638633D01*
X1767179Y12664389D01*
X1779473Y12685268D01*
X1787347Y12700152D01*
X1789988Y12706604D01*
X1790141Y12707772D01*
X1789988Y12708382D01*
X1786585Y12711176D01*
X1784857Y12712090D01*
X1783029Y12712750D01*
X1781098Y12713055D01*
X1779117Y12713055D01*
X1777034Y12712750D01*
X1772513Y12711023D01*
X1767433Y12707772D01*
X1761794Y12702997D01*
X1755393Y12696494D01*
X1748180Y12688214D01*
X1740052Y12678054D01*
X1730959Y12665964D01*
X1720748Y12651790D01*
X1696720Y12616942D01*
X1670608Y12578232D01*
X1648917Y12546787D01*
X1635099Y12527635D01*
X1626819Y12516662D01*
X1619148Y12507010D01*
X1611934Y12498476D01*
X1605076Y12491008D01*
X1598472Y12484354D01*
X1591970Y12478461D01*
X1585468Y12473127D01*
X1578813Y12468250D01*
X1571853Y12463678D01*
X1564589Y12459258D01*
X1556766Y12454839D01*
X1550060Y12451588D01*
X1543913Y12449200D01*
X1538274Y12447778D01*
X1533194Y12447270D01*
X1528724Y12447676D01*
X1524863Y12448895D01*
X1521764Y12450978D01*
X1519326Y12453924D01*
X1517650Y12457633D01*
X1516735Y12462205D01*
X1516735Y12467488D01*
X1517548Y12473584D01*
X1518310Y12477242D01*
X1519275Y12480493D01*
X1520647Y12483439D01*
X1522526Y12486182D01*
X1525168Y12488926D01*
X1528775Y12491770D01*
X1533550Y12494920D01*
X1539697Y12498425D01*
X1556867Y12507264D01*
X1588008Y12522504D01*
X1593596Y12525756D01*
X1598625Y12529058D01*
X1603044Y12532410D01*
X1606905Y12535763D01*
X1610207Y12539065D01*
X1612849Y12542418D01*
X1614932Y12545669D01*
X1616405Y12548870D01*
X1617319Y12551968D01*
X1617573Y12554915D01*
X1617218Y12557760D01*
X1616252Y12560401D01*
X1614678Y12562840D01*
X1612442Y12565126D01*
X1609598Y12567107D01*
X1606092Y12568885D01*
X1601978Y12570307D01*
X1597202Y12571476D01*
X1591767Y12572339D01*
X1587347Y12572644D01*
X1582877Y12572542D01*
X1578406Y12572085D01*
X1573885Y12571171D01*
X1569262Y12569850D01*
X1564538Y12568072D01*
X1559661Y12565837D01*
X1554632Y12563144D01*
X1549400Y12559995D01*
X1538224Y12552172D01*
X1525422Y12542215D01*
X1519021Y12537643D01*
X1513027Y12533782D01*
X1507439Y12530632D01*
X1502257Y12528245D01*
X1497482Y12526518D01*
X1493113Y12525552D01*
X1489151Y12525298D01*
X1485544Y12525756D01*
X1482344Y12526924D01*
X1479550Y12528854D01*
X1477060Y12531445D01*
X1474978Y12534798D01*
X1473250Y12538862D01*
X1471879Y12543637D01*
X1470863Y12549174D01*
X1468577Y12557201D01*
X1464360Y12564211D01*
X1458874Y12569494D01*
X1452676Y12572187D01*
X1445361Y12572390D01*
X1440637Y12569190D01*
X1438097Y12562078D01*
X1437081Y12545161D01*
X1436370Y12539675D01*
X1435150Y12534087D01*
X1433576Y12528397D01*
X1431594Y12522657D01*
X1429258Y12516866D01*
X1426229Y12510414D01*
X1529283Y12510414D01*
X1550517Y12533376D01*
X1558340Y12541402D01*
X1565351Y12547701D01*
X1571447Y12552273D01*
X1576578Y12555067D01*
X1580692Y12556032D01*
X1583690Y12555169D01*
X1585569Y12552426D01*
X1586179Y12547803D01*
X1585620Y12545822D01*
X1583944Y12543383D01*
X1581302Y12540589D01*
X1577848Y12537541D01*
X1573631Y12534392D01*
X1568805Y12531140D01*
X1563471Y12527940D01*
X1557731Y12524841D01*
X1529283Y12510414D01*
X1426229Y12510414D01*
X1423619Y12505283D01*
X1416913Y12494006D01*
X1413256Y12488519D01*
X1405382Y12478156D01*
X1397050Y12468758D01*
X1392783Y12464491D01*
X1388516Y12460579D01*
X1384249Y12457023D01*
X1379982Y12453874D01*
X1375765Y12451130D01*
X1371701Y12448946D01*
X1367739Y12447219D01*
X1363929Y12446050D01*
X1360271Y12445441D01*
X1356868Y12445441D01*
X1353718Y12446101D01*
X1350822Y12447473D01*
X1348232Y12449505D01*
X1347063Y12451080D01*
X1346301Y12453112D01*
X1345946Y12455499D01*
X1345946Y12458293D01*
X1346403Y12461494D01*
X1347216Y12465100D01*
X1350060Y12473432D01*
X1354480Y12483338D01*
X1360424Y12494666D01*
X1367840Y12507468D01*
X1376832Y12521692D01*
X1387246Y12537236D01*
X1403502Y12560350D01*
X1406550Y12565075D01*
X1408226Y12568529D01*
X1408582Y12570968D01*
X1407515Y12572492D01*
X1404975Y12573355D01*
X1400962Y12573762D01*
X1395425Y12573812D01*
X1391056Y12573152D01*
X1386027Y12571120D01*
X1380439Y12567869D01*
X1374394Y12563500D01*
X1368094Y12558115D01*
X1361541Y12551765D01*
X1354937Y12544602D01*
X1343456Y12530480D01*
X1333500Y12518644D01*
X1323543Y12507569D01*
X1313586Y12497308D01*
X1303832Y12487859D01*
X1294231Y12479274D01*
X1284884Y12471603D01*
X1275842Y12464846D01*
X1267256Y12459106D01*
X1259128Y12454331D01*
X1251559Y12450622D01*
X1244549Y12447930D01*
X1238250Y12446406D01*
X1235405Y12446050D01*
X1232712Y12446000D01*
X1230274Y12446254D01*
X1227988Y12446762D01*
X1225956Y12447625D01*
X1224178Y12448743D01*
X1222603Y12450216D01*
X1221333Y12451994D01*
X1220266Y12454077D01*
X1219504Y12456515D01*
X1218996Y12459258D01*
X1218742Y12462306D01*
X1219200Y12469469D01*
X1220673Y12477242D01*
X1221638Y12480493D01*
X1222959Y12483439D01*
X1224838Y12486182D01*
X1227531Y12488926D01*
X1231138Y12491770D01*
X1235913Y12494920D01*
X1242060Y12498425D01*
X1259230Y12507264D01*
X1290523Y12522606D01*
X1296263Y12525908D01*
X1301394Y12529261D01*
X1305915Y12532664D01*
X1309827Y12536068D01*
X1313078Y12539421D01*
X1315720Y12542723D01*
X1317752Y12546025D01*
X1319123Y12549174D01*
X1319885Y12552273D01*
X1319987Y12555220D01*
X1319479Y12557963D01*
X1318310Y12560604D01*
X1316482Y12562992D01*
X1313992Y12565227D01*
X1310843Y12567158D01*
X1307084Y12568834D01*
X1302613Y12570256D01*
X1297533Y12571374D01*
X1289202Y12572339D01*
X1284325Y12572542D01*
X1279550Y12572288D01*
X1274673Y12571425D01*
X1269542Y12569799D01*
X1263904Y12567259D01*
X1257604Y12563652D01*
X1250391Y12558877D01*
X1242110Y12552730D01*
X1232560Y12545110D01*
X1221486Y12535814D01*
X1192651Y12510414D01*
X1231646Y12510414D01*
X1252880Y12533376D01*
X1260703Y12541402D01*
X1267714Y12547701D01*
X1273810Y12552273D01*
X1278940Y12555067D01*
X1283055Y12556032D01*
X1286052Y12555169D01*
X1287932Y12552426D01*
X1288542Y12547803D01*
X1287983Y12545822D01*
X1286306Y12543383D01*
X1283665Y12540589D01*
X1280210Y12537541D01*
X1275994Y12534392D01*
X1271168Y12531140D01*
X1265834Y12527940D01*
X1260094Y12524841D01*
X1231646Y12510414D01*
X1192651Y12510414D01*
X1116279Y12440666D01*
X1109319Y12434824D01*
X1103731Y12430963D01*
X1099159Y12428931D01*
X1095095Y12428626D01*
X1091285Y12429947D01*
X1087323Y12432842D01*
X1076452Y12442647D01*
X1069898Y12447219D01*
X1063802Y12450267D01*
X1059027Y12451384D01*
X1058164Y12451842D01*
X1058113Y12453061D01*
X1058875Y12455093D01*
X1062482Y12461087D01*
X1068730Y12469520D01*
X1077264Y12479782D01*
X1087729Y12491567D01*
X1098143Y12502692D01*
X1107287Y12512852D01*
X1116228Y12523266D01*
X1124813Y12533680D01*
X1132738Y12543790D01*
X1139799Y12553238D01*
X1145692Y12561773D01*
X1150264Y12569088D01*
X1156157Y12579654D01*
X1160221Y12585801D01*
X1164437Y12590627D01*
X1168857Y12594336D01*
X1173734Y12597028D01*
X1179220Y12598806D01*
X1185519Y12599771D01*
X1198930Y12600228D01*
X1211630Y12601600D01*
X1218082Y12602768D01*
X1230934Y12605969D01*
X1237386Y12608001D01*
X1250086Y12612776D01*
X1256284Y12615468D01*
X1268323Y12621514D01*
X1279652Y12628270D01*
X1285036Y12631826D01*
X1294993Y12639344D01*
X1303782Y12647269D01*
X1311198Y12655397D01*
X1314348Y12659512D01*
X1317040Y12663678D01*
X1319326Y12667843D01*
X1321155Y12671958D01*
X1322476Y12676022D01*
X1323289Y12680086D01*
X1323543Y12684048D01*
X1323340Y12688366D01*
X1322679Y12692329D01*
X1321612Y12695936D01*
X1320139Y12699187D01*
X1318260Y12702133D01*
X1316024Y12704775D01*
X1313434Y12707010D01*
X1310538Y12708991D01*
X1307287Y12710617D01*
X1303782Y12711887D01*
X1299921Y12712903D01*
X1295857Y12713563D01*
X1291488Y12713919D01*
G37*
D10*
X1231900Y902715D02*
G01*
X1231900Y793750D01*
X1231900Y902715D02*
G01*
X1278636Y902715D01*
X1294129Y897636D01*
X1299463Y892302D01*
X1304543Y881887D01*
X1304543Y871473D01*
X1299463Y861060D01*
X1294129Y855979D01*
X1278636Y850900D01*
X1231900Y850900D01*
X1268222Y850900D02*
G01*
X1304543Y793750D01*
X736600Y902715D02*
G01*
X736600Y793750D01*
X736600Y793750D02*
G01*
X798829Y793750D01*
X976629Y8167115D02*
G01*
X976629Y8058150D01*
X976629Y8115300D02*
G01*
X966470Y8125460D01*
X956056Y8130794D01*
X940308Y8130794D01*
X929893Y8125460D01*
X919479Y8115300D01*
X914400Y8099552D01*
X914400Y8089137D01*
X919479Y8073644D01*
X929893Y8063229D01*
X940308Y8058150D01*
X956056Y8058150D01*
X966470Y8063229D01*
X976629Y8073644D01*
X1010920Y8167115D02*
G01*
X1010920Y8058150D01*
X1010920Y8167115D02*
G01*
X1057909Y8167115D01*
X1073404Y8162036D01*
X1078484Y8156702D01*
X1083818Y8146287D01*
X1083818Y8135873D01*
X1078484Y8125460D01*
X1073404Y8120379D01*
X1057909Y8115300D01*
X1010920Y8115300D02*
G01*
X1057909Y8115300D01*
X1073404Y8109965D01*
X1078484Y8104886D01*
X1083818Y8094471D01*
X1083818Y8078723D01*
X1078484Y8068310D01*
X1073404Y8063229D01*
X1057909Y8058150D01*
X1010920Y8058150D01*
D11*
X1190243Y11568937D02*
G01*
X1240281Y11568937D01*
X1212850Y11532615D01*
X1226565Y11532615D01*
X1235709Y11528044D01*
X1240281Y11523471D01*
X1244854Y11510010D01*
X1244854Y11500865D01*
X1240281Y11487150D01*
X1231138Y11478005D01*
X1217422Y11473434D01*
X1203706Y11473434D01*
X1190243Y11478005D01*
X1185672Y11482578D01*
X1181100Y11491721D01*
X165100Y11550904D02*
G01*
X174244Y11555476D01*
X187705Y11568937D01*
X187705Y11473434D01*
D12*
X273557Y384047D02*
G01*
X273557Y390905D01*
X280415Y404368D01*
X287273Y411226D01*
X300736Y418084D01*
X328168Y418084D01*
X341629Y411226D01*
X348487Y404368D01*
X355345Y390905D01*
X355345Y377189D01*
X348487Y363473D01*
X334771Y343154D01*
X266700Y274828D01*
X362204Y274828D01*
X475234Y418084D02*
G01*
X407162Y322579D01*
X509523Y322579D01*
X475234Y418084D02*
G01*
X475234Y274828D01*
X567944Y418084D02*
G01*
X643128Y418084D01*
X602234Y363473D01*
X622554Y363473D01*
X636270Y356615D01*
X643128Y349757D01*
X649986Y329437D01*
X649986Y315721D01*
X643128Y295402D01*
X629412Y281686D01*
X609092Y274828D01*
X588518Y274828D01*
X567944Y281686D01*
X561339Y288544D01*
X554481Y302260D01*
X701802Y384047D02*
G01*
X701802Y390905D01*
X708406Y404368D01*
X715263Y411226D01*
X728979Y418084D01*
X756158Y418084D01*
X769874Y411226D01*
X776731Y404368D01*
X783590Y390905D01*
X783590Y377189D01*
X776731Y363473D01*
X763015Y343154D01*
X694943Y274828D01*
X790447Y274828D01*
X889761Y418084D02*
G01*
X835406Y274828D01*
X889761Y418084D02*
G01*
X944372Y274828D01*
X855725Y322579D02*
G01*
X924052Y322579D01*
D11*
X1213865Y10044937D02*
G01*
X1168400Y9981437D01*
X1236472Y9981437D01*
X1213865Y10044937D02*
G01*
X1213865Y9949434D01*
X156971Y10022331D02*
G01*
X156971Y10026904D01*
X161544Y10035794D01*
X166115Y10040365D01*
X175005Y10044937D01*
X193294Y10044937D01*
X202437Y10040365D01*
X207010Y10035794D01*
X211581Y10026904D01*
X211581Y10017760D01*
X207010Y10008615D01*
X197865Y9994900D01*
X152400Y9949434D01*
X216154Y9949434D01*
D10*
X1651000Y1564386D02*
G01*
X1744472Y1564386D01*
X1778761Y1605787D02*
G01*
X1789175Y1611121D01*
X1804670Y1626615D01*
X1804670Y1517650D01*
X1844293Y1600707D02*
G01*
X1844293Y1605787D01*
X1849374Y1616202D01*
X1854708Y1621536D01*
X1865122Y1626615D01*
X1885950Y1626615D01*
X1896109Y1621536D01*
X1901443Y1616202D01*
X1906524Y1605787D01*
X1906524Y1595373D01*
X1901443Y1584960D01*
X1891029Y1569465D01*
X1838959Y1517650D01*
X1911858Y1517650D01*
X101600Y1564386D02*
G01*
X195071Y1564386D01*
X229362Y1605787D02*
G01*
X239776Y1611121D01*
X255270Y1626615D01*
X255270Y1517650D01*
X294894Y1600707D02*
G01*
X294894Y1605787D01*
X299973Y1616202D01*
X305307Y1621536D01*
X315721Y1626615D01*
X336550Y1626615D01*
X346710Y1621536D01*
X352044Y1616202D01*
X357123Y1605787D01*
X357123Y1595373D01*
X352044Y1584960D01*
X341629Y1569465D01*
X289560Y1517650D01*
X362457Y1517650D01*
X1745741Y4560315D02*
G01*
X1729993Y4555236D01*
X1719579Y4539487D01*
X1714500Y4513579D01*
X1714500Y4498086D01*
X1719579Y4471923D01*
X1729993Y4456429D01*
X1745741Y4451350D01*
X1756156Y4451350D01*
X1771650Y4456429D01*
X1782063Y4471923D01*
X1787143Y4498086D01*
X1787143Y4513579D01*
X1782063Y4539487D01*
X1771650Y4555236D01*
X1756156Y4560315D01*
X1745741Y4560315D01*
X259842Y4560315D02*
G01*
X244094Y4555236D01*
X233679Y4539487D01*
X228600Y4513579D01*
X228600Y4498086D01*
X233679Y4471923D01*
X244094Y4456429D01*
X259842Y4451350D01*
X270255Y4451350D01*
X285750Y4456429D01*
X296163Y4471923D01*
X301244Y4498086D01*
X301244Y4513579D01*
X296163Y4539487D01*
X285750Y4555236D01*
X270255Y4560315D01*
X259842Y4560315D01*
X152400Y2542286D02*
G01*
X245871Y2542286D01*
X306070Y2604515D02*
G01*
X290576Y2599436D01*
X285495Y2589021D01*
X285495Y2578607D01*
X290576Y2568194D01*
X300989Y2562860D01*
X321818Y2557779D01*
X337312Y2552700D01*
X347726Y2542286D01*
X353060Y2531871D01*
X353060Y2516123D01*
X347726Y2505710D01*
X342645Y2500629D01*
X326897Y2495550D01*
X306070Y2495550D01*
X290576Y2500629D01*
X285495Y2505710D01*
X280162Y2516123D01*
X280162Y2531871D01*
X285495Y2542286D01*
X295910Y2552700D01*
X311404Y2557779D01*
X332231Y2562860D01*
X342645Y2568194D01*
X347726Y2578607D01*
X347726Y2589021D01*
X342645Y2599436D01*
X326897Y2604515D01*
X306070Y2604515D01*
X1651000Y2542286D02*
G01*
X1744472Y2542286D01*
X1804670Y2604515D02*
G01*
X1789175Y2599436D01*
X1784095Y2589021D01*
X1784095Y2578607D01*
X1789175Y2568194D01*
X1799590Y2562860D01*
X1820418Y2557779D01*
X1835911Y2552700D01*
X1846325Y2542286D01*
X1851659Y2531871D01*
X1851659Y2516123D01*
X1846325Y2505710D01*
X1841245Y2500629D01*
X1825497Y2495550D01*
X1804670Y2495550D01*
X1789175Y2500629D01*
X1784095Y2505710D01*
X1778761Y2516123D01*
X1778761Y2531871D01*
X1784095Y2542286D01*
X1794509Y2552700D01*
X1810004Y2557779D01*
X1830831Y2562860D01*
X1841245Y2568194D01*
X1846325Y2578607D01*
X1846325Y2589021D01*
X1841245Y2599436D01*
X1825497Y2604515D01*
X1804670Y2604515D01*
X152400Y3520186D02*
G01*
X245871Y3520186D01*
X332231Y3582415D02*
G01*
X280162Y3509771D01*
X358139Y3509771D01*
X332231Y3582415D02*
G01*
X332231Y3473450D01*
X1651000Y3520186D02*
G01*
X1744472Y3520186D01*
X1830831Y3582415D02*
G01*
X1778761Y3509771D01*
X1856740Y3509771D01*
X1830831Y3582415D02*
G01*
X1830831Y3473450D01*
X318770Y5538215D02*
G01*
X266700Y5465571D01*
X344678Y5465571D01*
X318770Y5538215D02*
G01*
X318770Y5429250D01*
X1728470Y5538215D02*
G01*
X1676400Y5465571D01*
X1754377Y5465571D01*
X1728470Y5538215D02*
G01*
X1728470Y5429250D01*
X292607Y6516115D02*
G01*
X277113Y6511036D01*
X271779Y6500621D01*
X271779Y6490207D01*
X277113Y6479794D01*
X287528Y6474460D01*
X308355Y6469379D01*
X323850Y6464300D01*
X334263Y6453886D01*
X339344Y6443471D01*
X339344Y6427723D01*
X334263Y6417310D01*
X328929Y6412229D01*
X313436Y6407150D01*
X292607Y6407150D01*
X277113Y6412229D01*
X271779Y6417310D01*
X266700Y6427723D01*
X266700Y6443471D01*
X271779Y6453886D01*
X282194Y6464300D01*
X297942Y6469379D01*
X318770Y6474460D01*
X328929Y6479794D01*
X334263Y6490207D01*
X334263Y6500621D01*
X328929Y6511036D01*
X313436Y6516115D01*
X292607Y6516115D01*
X1702308Y6516115D02*
G01*
X1686813Y6511036D01*
X1681479Y6500621D01*
X1681479Y6490207D01*
X1686813Y6479794D01*
X1697227Y6474460D01*
X1718056Y6469379D01*
X1733550Y6464300D01*
X1743963Y6453886D01*
X1749043Y6443471D01*
X1749043Y6427723D01*
X1743963Y6417310D01*
X1738629Y6412229D01*
X1723136Y6407150D01*
X1702308Y6407150D01*
X1686813Y6412229D01*
X1681479Y6417310D01*
X1676400Y6427723D01*
X1676400Y6443471D01*
X1681479Y6453886D01*
X1691893Y6464300D01*
X1707641Y6469379D01*
X1728470Y6474460D01*
X1738629Y6479794D01*
X1743963Y6490207D01*
X1743963Y6500621D01*
X1738629Y6511036D01*
X1723136Y6516115D01*
X1702308Y6516115D01*
X203200Y7473187D02*
G01*
X213613Y7478521D01*
X229107Y7494015D01*
X229107Y7385050D01*
X268731Y7468108D02*
G01*
X268731Y7473187D01*
X273812Y7483602D01*
X279145Y7488936D01*
X289560Y7494015D01*
X310134Y7494015D01*
X320547Y7488936D01*
X325881Y7483602D01*
X330962Y7473187D01*
X330962Y7462773D01*
X325881Y7452360D01*
X315468Y7436865D01*
X263397Y7385050D01*
X336295Y7385050D01*
X1676400Y7473187D02*
G01*
X1686813Y7478521D01*
X1702308Y7494015D01*
X1702308Y7385050D01*
X1741931Y7468108D02*
G01*
X1741931Y7473187D01*
X1747011Y7483602D01*
X1752345Y7488936D01*
X1762759Y7494015D01*
X1783334Y7494015D01*
X1793747Y7488936D01*
X1799081Y7483602D01*
X1804161Y7473187D01*
X1804161Y7462773D01*
X1799081Y7452360D01*
X1788668Y7436865D01*
X1736597Y7385050D01*
X1809495Y7385050D01*
X882141Y8548115D02*
G01*
X871727Y8543036D01*
X861313Y8532621D01*
X855979Y8522208D01*
X850900Y8506460D01*
X850900Y8480552D01*
X855979Y8465058D01*
X861313Y8454644D01*
X871727Y8444229D01*
X882141Y8439150D01*
X902970Y8439150D01*
X913129Y8444229D01*
X923543Y8454644D01*
X928877Y8465058D01*
X933958Y8480552D01*
X933958Y8506460D01*
X928877Y8522208D01*
X923543Y8532621D01*
X913129Y8543036D01*
X902970Y8548115D01*
X882141Y8548115D01*
X968247Y8548115D02*
G01*
X1009904Y8439150D01*
X1051559Y8548115D02*
G01*
X1009904Y8439150D01*
X1085850Y8548115D02*
G01*
X1085850Y8439150D01*
X1085850Y8548115D02*
G01*
X1132586Y8548115D01*
X1148079Y8543036D01*
X1153159Y8537702D01*
X1158493Y8527287D01*
X1158493Y8516874D01*
X1153159Y8506460D01*
X1148079Y8501379D01*
X1132586Y8496300D01*
X1085850Y8496300D01*
X1122172Y8496300D02*
G01*
X1158493Y8439150D01*
D13*
X1435100Y1562100D02*
G01*
X1600200Y1562100D01*
X419100Y1562100D02*
G01*
X584200Y1562100D01*
X1435100Y2540000D02*
G01*
X1600200Y2540000D01*
X419100Y2540000D02*
G01*
X584200Y2540000D01*
X1435100Y3517900D02*
G01*
X1600200Y3517900D01*
X419100Y3517900D02*
G01*
X584200Y3517900D01*
X1435100Y5473700D02*
G01*
X1600200Y5473700D01*
X584200Y5473700D02*
G01*
X419100Y5473700D01*
X1435100Y6451600D02*
G01*
X1600200Y6451600D01*
X584200Y6451600D02*
G01*
X419100Y6451600D01*
X1435100Y7429500D02*
G01*
X1600200Y7429500D01*
X584200Y7429500D02*
G01*
X419100Y7429500D01*
X1435100Y6680200D02*
G01*
X1536700Y6680200D01*
X1435100Y6946900D02*
G01*
X1536700Y6946900D01*
X482600Y6680200D02*
G01*
X584200Y6680200D01*
X482600Y6946900D02*
G01*
X584200Y6946900D01*
X1435100Y5969000D02*
G01*
X1536700Y5969000D01*
X482600Y5969000D02*
G01*
X584200Y5969000D01*
X1435100Y4991100D02*
G01*
X1536700Y4991100D01*
X482600Y4991100D02*
G01*
X584200Y4991100D01*
X1435100Y4495800D02*
G01*
X1638300Y4495800D01*
X1435100Y4013200D02*
G01*
X1536700Y4013200D01*
X482600Y4013200D02*
G01*
X584200Y4013200D01*
X584200Y4495800D02*
G01*
X381000Y4495800D01*
X1435100Y3035300D02*
G01*
X1536700Y3035300D01*
X482600Y3035300D02*
G01*
X584200Y3035300D01*
X1435100Y2057400D02*
G01*
X1536700Y2057400D01*
X482600Y2057400D02*
G01*
X584200Y2057400D01*
D12*
X1523900Y9867900D02*
G01*
X1523900Y10121900D01*
X1523900Y10121900D02*
G01*
X1587400Y10058400D01*
X1523900Y10121900D02*
G01*
X1460400Y10058400D01*
X495200Y9867900D02*
G01*
X495200Y10121900D01*
X495200Y10121900D02*
G01*
X558700Y10058400D01*
X495200Y10121900D02*
G01*
X431700Y10058400D01*
X1523900Y11645900D02*
G01*
X1523900Y11391900D01*
X1523900Y11391900D02*
G01*
X1587400Y11455400D01*
X1523900Y11391900D02*
G01*
X1460400Y11455400D01*
X495200Y11645900D02*
G01*
X495200Y11391900D01*
X495200Y11391900D02*
G01*
X558700Y11455400D01*
X495200Y11391900D02*
G01*
X431700Y11455400D01*
X2015070Y12192000D02*
G01*
X15069Y12192000D01*
X2015070Y11836400D02*
G01*
X15069Y11836400D01*
G75*
G01
X1346200Y11518900D02*
G03X1346200Y11518900I-139700J0D01*
G75*
G01
X317500Y11518900D02*
G03X317500Y11518900I-139700J0D01*
G75*
G01
X1346200Y9994900D02*
G03X1346200Y9994900I-139700J0D01*
G75*
G01
X317500Y9994900D02*
G03X317500Y9994900I-139700J0D01*
M02*
