G04 Layer: BoardOutlineLayer*
G04 EasyEDA v6.5.23, 2023-06-01 15:37:06*
G04 23eb6b4696734b44af23c16f2827e462,5a6b42c53f6a479593ecc07194224c93,10*
G04 Gerber Generator version 0.2*
G04 Scale: 100 percent, Rotated: No, Reflected: No *
G04 Dimensions in millimeters *
G04 leading zeros omitted , absolute positions ,4 integer and 5 decimal *
%FSLAX45Y45*%
%MOMM*%

%ADD10C,0.2540*%
D10*
X0Y12852400D02*
G01*
X2006600Y12852400D01*
X2006600Y0D01*
X0Y0D01*
X0Y12852400D01*
G75*
G01*
X1289705Y10521147D02*
G02*
X1289949Y11119843I234195J299253D01*
X1289949Y11119843D02*
G01*
X1289705Y10521147D01*
X1289502Y11120399D02*
G01*
X1289502Y10520400D01*
X1289502Y10520400D02*
G01*
X1758502Y10520400D01*
X1758502Y10520400D02*
G01*
X1758502Y11120399D01*
X1758502Y11120399D02*
G01*
X1289502Y11120399D01*
G75*
G01*
X1758097Y10521147D02*
G03*
X1757853Y11119843I-234196J299253D01*
X1757852Y11119843D02*
G01*
X1758096Y10521147D01*
G75*
G01*
X729397Y10521147D02*
G03*
X729153Y11119843I-234196J299253D01*
X729152Y11119843D02*
G01*
X729396Y10521147D01*
X260802Y11120399D02*
G01*
X260802Y10520400D01*
X260802Y10520400D02*
G01*
X729802Y10520400D01*
X729802Y10520400D02*
G01*
X729802Y11120399D01*
X729802Y11120399D02*
G01*
X260802Y11120399D01*
G75*
G01*
X261005Y10521147D02*
G02*
X261249Y11119843I234195J299253D01*
X261249Y11119843D02*
G01*
X261005Y10521147D01*
G75*
G01*
X1289705Y8997147D02*
G02*
X1289949Y9595843I234195J299253D01*
X1289949Y9595843D02*
G01*
X1289705Y8997147D01*
X1289502Y9596399D02*
G01*
X1289502Y8996400D01*
X1289502Y8996400D02*
G01*
X1758502Y8996400D01*
X1758502Y8996400D02*
G01*
X1758502Y9596399D01*
X1758502Y9596399D02*
G01*
X1289502Y9596399D01*
G75*
G01*
X1758097Y8997147D02*
G03*
X1757853Y9595843I-234196J299253D01*
X1757852Y9595843D02*
G01*
X1758096Y8997147D01*
G75*
G01*
X729397Y8997147D02*
G03*
X729153Y9595843I-234196J299253D01*
X729152Y9595843D02*
G01*
X729396Y8997147D01*
X260802Y9596399D02*
G01*
X260802Y8996400D01*
X260802Y8996400D02*
G01*
X729802Y8996400D01*
X729802Y8996400D02*
G01*
X729802Y9596399D01*
X729802Y9596399D02*
G01*
X260802Y9596399D01*
G75*
G01*
X261005Y8997147D02*
G02*
X261249Y9595843I234195J299253D01*
X261249Y9595843D02*
G01*
X261005Y8997147D01*

%LPD*%
M02*
