G04 Layer: TopSolderMaskLayer*
G04 EasyEDA v6.5.29, 2023-07-19 21:38:56*
G04 0acaec5f7f514605885a2f2b0e5249c4,5a6b42c53f6a479593ecc07194224c93,10*
G04 Gerber Generator version 0.2*
G04 Scale: 100 percent, Rotated: No, Reflected: No *
G04 Dimensions in millimeters *
G04 leading zeros omitted , absolute positions ,4 integer and 5 decimal *
%FSLAX45Y45*%
%MOMM*%

%AMMACRO1*1,1,$1,$2,$3*1,1,$1,$4,$5*1,1,$1,0-$2,0-$3*1,1,$1,0-$4,0-$5*20,1,$1,$2,$3,$4,$5,0*20,1,$1,$4,$5,0-$2,0-$3,0*20,1,$1,0-$2,0-$3,0-$4,0-$5,0*20,1,$1,0-$4,0-$5,$2,$3,0*4,1,4,$2,$3,$4,$5,0-$2,0-$3,0-$4,0-$5,$2,$3,0*%
%ADD10MACRO1,0.1016X-0.275X-0.275X-0.275X0.275*%
%ADD11MACRO1,0.1016X-0.45X0.35X0.45X0.35*%
%ADD12MACRO1,0.1016X-0.4X0.45X0.4X0.45*%
%ADD13MACRO1,0.1016X0.4X-0.45X-0.4X-0.45*%
%ADD14MACRO1,0.2032X0.55X0.5X0.55X-0.5*%
%ADD15MACRO1,0.1016X-0.3X-0.425X-0.3X0.425*%
%ADD16MACRO1,0.2032X-0.55X-0.5X-0.55X0.5*%
%ADD17MACRO1,0.2032X0.5X-0.55X-0.5X-0.55*%
%ADD18C,1.9016*%
%ADD19MACRO1,0.1016X0.9X0.9X-0.9X0.9*%
%ADD20MACRO1,0.1016X-0.9X0.9X-0.9X-0.9*%
%ADD21MACRO1,0.1016X0.9X-0.9X0.9X0.9*%
%ADD22MACRO1,0.1016X-0.9X-0.9X0.9X-0.9*%
%ADD23C,0.0138*%

%LPD*%
D10*
G01*
X181076Y-8150101D03*
G01*
X276092Y-8150101D03*
G01*
X276097Y-8055079D03*
G01*
X181076Y-8055080D03*
G01*
X181076Y-7743701D03*
G01*
X276092Y-7743701D03*
G01*
X276097Y-7648679D03*
G01*
X181076Y-7648680D03*
G01*
X181076Y-7337301D03*
G01*
X276092Y-7337301D03*
G01*
X276097Y-7242279D03*
G01*
X181076Y-7242280D03*
G01*
X181076Y-6930901D03*
G01*
X276092Y-6930901D03*
G01*
X276097Y-6835879D03*
G01*
X181076Y-6835880D03*
G01*
X181076Y-6524501D03*
G01*
X276092Y-6524501D03*
G01*
X276097Y-6429479D03*
G01*
X181076Y-6429480D03*
G01*
X181076Y-6118101D03*
G01*
X276092Y-6118101D03*
G01*
X276097Y-6023079D03*
G01*
X181076Y-6023080D03*
G01*
X181076Y-5711701D03*
G01*
X276092Y-5711701D03*
G01*
X276097Y-5616679D03*
G01*
X181076Y-5616680D03*
G01*
X181076Y-5305301D03*
G01*
X276092Y-5305301D03*
G01*
X276097Y-5210279D03*
G01*
X181076Y-5210280D03*
G01*
X181076Y-4898901D03*
G01*
X276092Y-4898901D03*
G01*
X276097Y-4803879D03*
G01*
X181076Y-4803880D03*
G01*
X181076Y-4492501D03*
G01*
X276092Y-4492501D03*
G01*
X276097Y-4397479D03*
G01*
X181076Y-4397480D03*
G01*
X181076Y-4086101D03*
G01*
X276092Y-4086101D03*
G01*
X276097Y-3991079D03*
G01*
X181076Y-3991080D03*
G01*
X181076Y-3679701D03*
G01*
X276092Y-3679701D03*
G01*
X276097Y-3584679D03*
G01*
X181076Y-3584680D03*
G01*
X181076Y-3273301D03*
G01*
X276092Y-3273301D03*
G01*
X276097Y-3178279D03*
G01*
X181076Y-3178280D03*
G01*
X181076Y-2866901D03*
G01*
X276092Y-2866901D03*
G01*
X276097Y-2771879D03*
G01*
X181076Y-2771880D03*
G01*
X181076Y-2460501D03*
G01*
X276092Y-2460501D03*
G01*
X276097Y-2365479D03*
G01*
X181076Y-2365480D03*
G01*
X181076Y-2054101D03*
G01*
X276092Y-2054101D03*
G01*
X276097Y-1959079D03*
G01*
X181076Y-1959080D03*
G01*
X-225323Y-8150101D03*
G01*
X-130307Y-8150101D03*
G01*
X-130302Y-8055079D03*
G01*
X-225323Y-8055080D03*
G01*
X-225323Y-7743701D03*
G01*
X-130307Y-7743701D03*
G01*
X-130302Y-7648679D03*
G01*
X-225323Y-7648680D03*
G01*
X-225323Y-7337301D03*
G01*
X-130307Y-7337301D03*
G01*
X-130302Y-7242279D03*
G01*
X-225323Y-7242280D03*
G01*
X-225323Y-6930901D03*
G01*
X-130307Y-6930901D03*
G01*
X-130302Y-6835879D03*
G01*
X-225323Y-6835880D03*
G01*
X-225323Y-6524501D03*
G01*
X-130307Y-6524501D03*
G01*
X-130302Y-6429479D03*
G01*
X-225323Y-6429480D03*
G01*
X-225323Y-6118101D03*
G01*
X-130307Y-6118101D03*
G01*
X-130302Y-6023079D03*
G01*
X-225323Y-6023080D03*
G01*
X-225323Y-5711701D03*
G01*
X-130307Y-5711701D03*
G01*
X-130302Y-5616679D03*
G01*
X-225323Y-5616680D03*
G01*
X-225323Y-5305301D03*
G01*
X-130307Y-5305301D03*
G01*
X-130302Y-5210279D03*
G01*
X-225323Y-5210280D03*
G01*
X-225323Y-4898901D03*
G01*
X-130307Y-4898901D03*
G01*
X-130302Y-4803879D03*
G01*
X-225323Y-4803880D03*
G01*
X-225323Y-4492501D03*
G01*
X-130307Y-4492501D03*
G01*
X-130302Y-4397479D03*
G01*
X-225323Y-4397480D03*
G01*
X-225323Y-4086101D03*
G01*
X-130307Y-4086101D03*
G01*
X-130302Y-3991079D03*
G01*
X-225323Y-3991080D03*
G01*
X-225323Y-3679701D03*
G01*
X-130307Y-3679701D03*
G01*
X-130302Y-3584679D03*
G01*
X-225323Y-3584680D03*
G01*
X-225323Y-3273301D03*
G01*
X-130307Y-3273301D03*
G01*
X-130302Y-3178279D03*
G01*
X-225323Y-3178280D03*
G01*
X-225323Y-2866901D03*
G01*
X-130307Y-2866901D03*
G01*
X-130302Y-2771879D03*
G01*
X-225323Y-2771880D03*
G01*
X-225323Y-2460501D03*
G01*
X-130307Y-2460501D03*
G01*
X-130302Y-2365479D03*
G01*
X-225323Y-2365480D03*
G01*
X-225323Y-2054101D03*
G01*
X-130307Y-2054101D03*
G01*
X-130302Y-1959079D03*
G01*
X-225323Y-1959080D03*
G01*
X-631723Y-8150101D03*
G01*
X-536707Y-8150101D03*
G01*
X-536702Y-8055079D03*
G01*
X-631723Y-8055080D03*
G01*
X-631723Y-7743701D03*
G01*
X-536707Y-7743701D03*
G01*
X-536702Y-7648679D03*
G01*
X-631723Y-7648680D03*
G01*
X-631723Y-7337301D03*
G01*
X-536707Y-7337301D03*
G01*
X-536702Y-7242279D03*
G01*
X-631723Y-7242280D03*
G01*
X-631723Y-6930901D03*
G01*
X-536707Y-6930901D03*
G01*
X-536702Y-6835879D03*
G01*
X-631723Y-6835880D03*
G01*
X-631723Y-6524501D03*
G01*
X-536707Y-6524501D03*
G01*
X-536702Y-6429479D03*
G01*
X-631723Y-6429480D03*
G01*
X-631723Y-6118101D03*
G01*
X-536707Y-6118101D03*
G01*
X-536702Y-6023079D03*
G01*
X-631723Y-6023080D03*
G01*
X-631723Y-5711701D03*
G01*
X-536707Y-5711701D03*
G01*
X-536702Y-5616679D03*
G01*
X-631723Y-5616680D03*
G01*
X-631723Y-5305301D03*
G01*
X-536707Y-5305301D03*
G01*
X-536702Y-5210279D03*
G01*
X-631723Y-5210280D03*
G01*
X-631723Y-4898901D03*
G01*
X-536707Y-4898901D03*
G01*
X-536702Y-4803879D03*
G01*
X-631723Y-4803880D03*
G01*
X-631723Y-4492501D03*
G01*
X-536707Y-4492501D03*
G01*
X-536702Y-4397479D03*
G01*
X-631723Y-4397480D03*
G01*
X-631723Y-4086101D03*
G01*
X-536707Y-4086101D03*
G01*
X-536702Y-3991079D03*
G01*
X-631723Y-3991080D03*
G01*
X-631723Y-3679701D03*
G01*
X-536707Y-3679701D03*
G01*
X-536702Y-3584679D03*
G01*
X-631723Y-3584680D03*
G01*
X-631723Y-3273301D03*
G01*
X-536707Y-3273301D03*
G01*
X-536702Y-3178279D03*
G01*
X-631723Y-3178280D03*
G01*
X-631723Y-2866901D03*
G01*
X-536707Y-2866901D03*
G01*
X-536702Y-2771879D03*
G01*
X-631723Y-2771880D03*
G01*
X-631723Y-2460501D03*
G01*
X-536707Y-2460501D03*
G01*
X-536702Y-2365479D03*
G01*
X-631723Y-2365480D03*
G01*
X-631723Y-2054101D03*
G01*
X-536707Y-2054101D03*
G01*
X-536702Y-1959079D03*
G01*
X-631723Y-1959080D03*
G01*
X-1038123Y-8150101D03*
G01*
X-943107Y-8150101D03*
G01*
X-943102Y-8055079D03*
G01*
X-1038123Y-8055080D03*
G01*
X-1038123Y-7743701D03*
G01*
X-943107Y-7743701D03*
G01*
X-943102Y-7648679D03*
G01*
X-1038123Y-7648680D03*
G01*
X-1038123Y-7337301D03*
G01*
X-943107Y-7337301D03*
G01*
X-943102Y-7242279D03*
G01*
X-1038123Y-7242280D03*
G01*
X-1038123Y-6930901D03*
G01*
X-943107Y-6930901D03*
G01*
X-943102Y-6835879D03*
G01*
X-1038123Y-6835880D03*
G01*
X-1038123Y-6524501D03*
G01*
X-943107Y-6524501D03*
G01*
X-943102Y-6429479D03*
G01*
X-1038123Y-6429480D03*
G01*
X-1038123Y-6118101D03*
G01*
X-943107Y-6118101D03*
G01*
X-943102Y-6023079D03*
G01*
X-1038123Y-6023080D03*
G01*
X-1038123Y-5711701D03*
G01*
X-943107Y-5711701D03*
G01*
X-943102Y-5616679D03*
G01*
X-1038123Y-5616680D03*
G01*
X-1038123Y-5305301D03*
G01*
X-943107Y-5305301D03*
G01*
X-943102Y-5210279D03*
G01*
X-1038123Y-5210280D03*
G01*
X-1038123Y-4898901D03*
G01*
X-943107Y-4898901D03*
G01*
X-943102Y-4803879D03*
G01*
X-1038123Y-4803880D03*
G01*
X-1038123Y-4492501D03*
G01*
X-943107Y-4492501D03*
G01*
X-943102Y-4397479D03*
G01*
X-1038123Y-4397480D03*
G01*
X-1038123Y-4086101D03*
G01*
X-943107Y-4086101D03*
G01*
X-943102Y-3991079D03*
G01*
X-1038123Y-3991080D03*
G01*
X-1038123Y-3679701D03*
G01*
X-943107Y-3679701D03*
G01*
X-943102Y-3584679D03*
G01*
X-1038123Y-3584680D03*
G01*
X-1038123Y-3273301D03*
G01*
X-943107Y-3273301D03*
G01*
X-943102Y-3178279D03*
G01*
X-1038123Y-3178280D03*
G01*
X-1038123Y-2866901D03*
G01*
X-943107Y-2866901D03*
G01*
X-943102Y-2771879D03*
G01*
X-1038123Y-2771880D03*
G01*
X-1038123Y-2460501D03*
G01*
X-943107Y-2460501D03*
G01*
X-943102Y-2365479D03*
G01*
X-1038123Y-2365480D03*
G01*
X-1038123Y-2054101D03*
G01*
X-943107Y-2054101D03*
G01*
X-943102Y-1959079D03*
G01*
X-1038123Y-1959080D03*
G01*
X-1444523Y-8150101D03*
G01*
X-1349507Y-8150101D03*
G01*
X-1349502Y-8055079D03*
G01*
X-1444523Y-8055080D03*
G01*
X-1444523Y-7743701D03*
G01*
X-1349507Y-7743701D03*
G01*
X-1349502Y-7648679D03*
G01*
X-1444523Y-7648680D03*
G01*
X-1444523Y-7337301D03*
G01*
X-1349507Y-7337301D03*
G01*
X-1349502Y-7242279D03*
G01*
X-1444523Y-7242280D03*
G01*
X-1444523Y-6930901D03*
G01*
X-1349507Y-6930901D03*
G01*
X-1349502Y-6835879D03*
G01*
X-1444523Y-6835880D03*
G01*
X-1444523Y-6524501D03*
G01*
X-1349507Y-6524501D03*
G01*
X-1349502Y-6429479D03*
G01*
X-1444523Y-6429480D03*
G01*
X-1444523Y-6118101D03*
G01*
X-1349507Y-6118101D03*
G01*
X-1349502Y-6023079D03*
G01*
X-1444523Y-6023080D03*
G01*
X-1444523Y-5711701D03*
G01*
X-1349507Y-5711701D03*
G01*
X-1349502Y-5616679D03*
G01*
X-1444523Y-5616680D03*
G01*
X-1444523Y-5305301D03*
G01*
X-1349507Y-5305301D03*
G01*
X-1349502Y-5210279D03*
G01*
X-1444523Y-5210280D03*
G01*
X-1444523Y-4898901D03*
G01*
X-1349507Y-4898901D03*
G01*
X-1349502Y-4803879D03*
G01*
X-1444523Y-4803880D03*
G01*
X-1444523Y-4492501D03*
G01*
X-1349507Y-4492501D03*
G01*
X-1349502Y-4397479D03*
G01*
X-1444523Y-4397480D03*
G01*
X-1444523Y-4086101D03*
G01*
X-1349507Y-4086101D03*
G01*
X-1349502Y-3991079D03*
G01*
X-1444523Y-3991080D03*
G01*
X-1444523Y-3679701D03*
G01*
X-1349507Y-3679701D03*
G01*
X-1349502Y-3584679D03*
G01*
X-1444523Y-3584680D03*
G01*
X-1444523Y-3273301D03*
G01*
X-1349507Y-3273301D03*
G01*
X-1349502Y-3178279D03*
G01*
X-1444523Y-3178280D03*
G01*
X-1444523Y-2866901D03*
G01*
X-1349507Y-2866901D03*
G01*
X-1349502Y-2771879D03*
G01*
X-1444523Y-2771880D03*
G01*
X-1444523Y-2460501D03*
G01*
X-1349507Y-2460501D03*
G01*
X-1349502Y-2365479D03*
G01*
X-1444523Y-2365480D03*
G01*
X-1444523Y-2054101D03*
G01*
X-1349507Y-2054101D03*
G01*
X-1349502Y-1959079D03*
G01*
X-1444523Y-1959080D03*
G01*
X-1850923Y-8150101D03*
G01*
X-1755907Y-8150101D03*
G01*
X-1755902Y-8055079D03*
G01*
X-1850923Y-8055080D03*
G01*
X-1850923Y-7743701D03*
G01*
X-1755907Y-7743701D03*
G01*
X-1755902Y-7648679D03*
G01*
X-1850923Y-7648680D03*
G01*
X-1850923Y-7337301D03*
G01*
X-1755907Y-7337301D03*
G01*
X-1755902Y-7242279D03*
G01*
X-1850923Y-7242280D03*
G01*
X-1850923Y-6930901D03*
G01*
X-1755907Y-6930901D03*
G01*
X-1755902Y-6835879D03*
G01*
X-1850923Y-6835880D03*
G01*
X-1850923Y-6524501D03*
G01*
X-1755907Y-6524501D03*
G01*
X-1755902Y-6429479D03*
G01*
X-1850923Y-6429480D03*
G01*
X-1850923Y-6118101D03*
G01*
X-1755907Y-6118101D03*
G01*
X-1755902Y-6023079D03*
G01*
X-1850923Y-6023080D03*
G01*
X-1850923Y-5711701D03*
G01*
X-1755907Y-5711701D03*
G01*
X-1755902Y-5616679D03*
G01*
X-1850923Y-5616680D03*
G01*
X-1850923Y-5305301D03*
G01*
X-1755907Y-5305301D03*
G01*
X-1755902Y-5210279D03*
G01*
X-1850923Y-5210280D03*
G01*
X-1850923Y-4898901D03*
G01*
X-1755907Y-4898901D03*
G01*
X-1755902Y-4803879D03*
G01*
X-1850923Y-4803880D03*
G01*
X-1850923Y-4492501D03*
G01*
X-1755907Y-4492501D03*
G01*
X-1755902Y-4397479D03*
G01*
X-1850923Y-4397480D03*
G01*
X-1850923Y-4086101D03*
G01*
X-1755907Y-4086101D03*
G01*
X-1755902Y-3991079D03*
G01*
X-1850923Y-3991080D03*
G01*
X-1850923Y-3679701D03*
G01*
X-1755907Y-3679701D03*
G01*
X-1755902Y-3584679D03*
G01*
X-1850923Y-3584680D03*
G01*
X-1850923Y-3273301D03*
G01*
X-1755907Y-3273301D03*
G01*
X-1755902Y-3178279D03*
G01*
X-1850923Y-3178280D03*
G01*
X-1850923Y-2866901D03*
G01*
X-1755907Y-2866901D03*
G01*
X-1755902Y-2771879D03*
G01*
X-1850923Y-2771880D03*
G01*
X-1850923Y-2460501D03*
G01*
X-1755907Y-2460501D03*
G01*
X-1755902Y-2365479D03*
G01*
X-1850923Y-2365480D03*
G01*
X-1850923Y-2054101D03*
G01*
X-1755907Y-2054101D03*
G01*
X-1755902Y-1959079D03*
G01*
X-1850923Y-1959080D03*
G01*
X-2257323Y-8150101D03*
G01*
X-2162307Y-8150101D03*
G01*
X-2162302Y-8055079D03*
G01*
X-2257323Y-8055080D03*
G01*
X-2257323Y-7743701D03*
G01*
X-2162307Y-7743701D03*
G01*
X-2162302Y-7648679D03*
G01*
X-2257323Y-7648680D03*
G01*
X-2257323Y-7337301D03*
G01*
X-2162307Y-7337301D03*
G01*
X-2162302Y-7242279D03*
G01*
X-2257323Y-7242280D03*
G01*
X-2257323Y-6930901D03*
G01*
X-2162307Y-6930901D03*
G01*
X-2162302Y-6835879D03*
G01*
X-2257323Y-6835880D03*
G01*
X-2257323Y-6524501D03*
G01*
X-2162307Y-6524501D03*
G01*
X-2162302Y-6429479D03*
G01*
X-2257323Y-6429480D03*
G01*
X-2257323Y-6118101D03*
G01*
X-2162307Y-6118101D03*
G01*
X-2162302Y-6023079D03*
G01*
X-2257323Y-6023080D03*
G01*
X-2257323Y-5711701D03*
G01*
X-2162307Y-5711701D03*
G01*
X-2162302Y-5616679D03*
G01*
X-2257323Y-5616680D03*
G01*
X-2257323Y-5305301D03*
G01*
X-2162307Y-5305301D03*
G01*
X-2162302Y-5210279D03*
G01*
X-2257323Y-5210280D03*
G01*
X-2257323Y-4898901D03*
G01*
X-2162307Y-4898901D03*
G01*
X-2162302Y-4803879D03*
G01*
X-2257323Y-4803880D03*
G01*
X-2257323Y-4492501D03*
G01*
X-2162307Y-4492501D03*
G01*
X-2162302Y-4397479D03*
G01*
X-2257323Y-4397480D03*
G01*
X-2257323Y-4086101D03*
G01*
X-2162307Y-4086101D03*
G01*
X-2162302Y-3991079D03*
G01*
X-2257323Y-3991080D03*
G01*
X-2257323Y-3679701D03*
G01*
X-2162307Y-3679701D03*
G01*
X-2162302Y-3584679D03*
G01*
X-2257323Y-3584680D03*
G01*
X-2257323Y-3273301D03*
G01*
X-2162307Y-3273301D03*
G01*
X-2162302Y-3178279D03*
G01*
X-2257323Y-3178280D03*
G01*
X-2257323Y-2866901D03*
G01*
X-2162307Y-2866901D03*
G01*
X-2162302Y-2771879D03*
G01*
X-2257323Y-2771880D03*
G01*
X-2257323Y-2460501D03*
G01*
X-2162307Y-2460501D03*
G01*
X-2162302Y-2365479D03*
G01*
X-2257323Y-2365480D03*
G01*
X-2257323Y-2054101D03*
G01*
X-2162307Y-2054101D03*
G01*
X-2162302Y-1959079D03*
G01*
X-2257323Y-1959080D03*
G01*
X-2663723Y-8150101D03*
G01*
X-2568707Y-8150101D03*
G01*
X-2568702Y-8055079D03*
G01*
X-2663723Y-8055080D03*
G01*
X-2663723Y-7743701D03*
G01*
X-2568707Y-7743701D03*
G01*
X-2568702Y-7648679D03*
G01*
X-2663723Y-7648680D03*
G01*
X-2663723Y-7337301D03*
G01*
X-2568707Y-7337301D03*
G01*
X-2568702Y-7242279D03*
G01*
X-2663723Y-7242280D03*
G01*
X-2663723Y-6930901D03*
G01*
X-2568707Y-6930901D03*
G01*
X-2568702Y-6835879D03*
G01*
X-2663723Y-6835880D03*
G01*
X-2663723Y-6524501D03*
G01*
X-2568707Y-6524501D03*
G01*
X-2568702Y-6429479D03*
G01*
X-2663723Y-6429480D03*
G01*
X-2663723Y-6118101D03*
G01*
X-2568707Y-6118101D03*
G01*
X-2568702Y-6023079D03*
G01*
X-2663723Y-6023080D03*
G01*
X-2663723Y-5711701D03*
G01*
X-2568707Y-5711701D03*
G01*
X-2568702Y-5616679D03*
G01*
X-2663723Y-5616680D03*
G01*
X-2663723Y-5305301D03*
G01*
X-2568707Y-5305301D03*
G01*
X-2568702Y-5210279D03*
G01*
X-2663723Y-5210280D03*
G01*
X-2663723Y-4898901D03*
G01*
X-2568707Y-4898901D03*
G01*
X-2568702Y-4803879D03*
G01*
X-2663723Y-4803880D03*
G01*
X-2663723Y-4492501D03*
G01*
X-2568707Y-4492501D03*
G01*
X-2568702Y-4397479D03*
G01*
X-2663723Y-4397480D03*
G01*
X-2663723Y-4086101D03*
G01*
X-2568707Y-4086101D03*
G01*
X-2568702Y-3991079D03*
G01*
X-2663723Y-3991080D03*
G01*
X-2663723Y-3679701D03*
G01*
X-2568707Y-3679701D03*
G01*
X-2568702Y-3584679D03*
G01*
X-2663723Y-3584680D03*
G01*
X-2663723Y-3273301D03*
G01*
X-2568707Y-3273301D03*
G01*
X-2568702Y-3178279D03*
G01*
X-2663723Y-3178280D03*
G01*
X-2663723Y-2866901D03*
G01*
X-2568707Y-2866901D03*
G01*
X-2568702Y-2771879D03*
G01*
X-2663723Y-2771880D03*
G01*
X-2663723Y-2460501D03*
G01*
X-2568707Y-2460501D03*
G01*
X-2568702Y-2365479D03*
G01*
X-2663723Y-2365480D03*
G01*
X-2663723Y-2054101D03*
G01*
X-2568707Y-2054101D03*
G01*
X-2568702Y-1959079D03*
G01*
X-2663723Y-1959080D03*
G01*
X-3070123Y-8150101D03*
G01*
X-2975107Y-8150101D03*
G01*
X-2975102Y-8055079D03*
G01*
X-3070123Y-8055080D03*
G01*
X-3070123Y-7743701D03*
G01*
X-2975107Y-7743701D03*
G01*
X-2975102Y-7648679D03*
G01*
X-3070123Y-7648680D03*
G01*
X-3070123Y-7337301D03*
G01*
X-2975107Y-7337301D03*
G01*
X-2975102Y-7242279D03*
G01*
X-3070123Y-7242280D03*
G01*
X-3070123Y-6930901D03*
G01*
X-2975107Y-6930901D03*
G01*
X-2975102Y-6835879D03*
G01*
X-3070123Y-6835880D03*
G01*
X-3070123Y-6524501D03*
G01*
X-2975107Y-6524501D03*
G01*
X-2975102Y-6429479D03*
G01*
X-3070123Y-6429480D03*
G01*
X-3070123Y-6118101D03*
G01*
X-2975107Y-6118101D03*
G01*
X-2975102Y-6023079D03*
G01*
X-3070123Y-6023080D03*
G01*
X-3070123Y-5711701D03*
G01*
X-2975107Y-5711701D03*
G01*
X-2975102Y-5616679D03*
G01*
X-3070123Y-5616680D03*
G01*
X-3070123Y-5305301D03*
G01*
X-2975107Y-5305301D03*
G01*
X-2975102Y-5210279D03*
G01*
X-3070123Y-5210280D03*
G01*
X-3070123Y-4898901D03*
G01*
X-2975107Y-4898901D03*
G01*
X-2975102Y-4803879D03*
G01*
X-3070123Y-4803880D03*
G01*
X-3070123Y-4492501D03*
G01*
X-2975107Y-4492501D03*
G01*
X-2975102Y-4397479D03*
G01*
X-3070123Y-4397480D03*
G01*
X-3070123Y-4086101D03*
G01*
X-2975107Y-4086101D03*
G01*
X-2975102Y-3991079D03*
G01*
X-3070123Y-3991080D03*
G01*
X-3070123Y-3679701D03*
G01*
X-2975107Y-3679701D03*
G01*
X-2975102Y-3584679D03*
G01*
X-3070123Y-3584680D03*
G01*
X-3070123Y-3273301D03*
G01*
X-2975107Y-3273301D03*
G01*
X-2975102Y-3178279D03*
G01*
X-3070123Y-3178280D03*
G01*
X-3070123Y-2866901D03*
G01*
X-2975107Y-2866901D03*
G01*
X-2975102Y-2771879D03*
G01*
X-3070123Y-2771880D03*
G01*
X-3070123Y-2460501D03*
G01*
X-2975107Y-2460501D03*
G01*
X-2975102Y-2365479D03*
G01*
X-3070123Y-2365480D03*
G01*
X-3070123Y-2054101D03*
G01*
X-2975107Y-2054101D03*
G01*
X-2975102Y-1959079D03*
G01*
X-3070123Y-1959080D03*
G01*
X-3476523Y-8150101D03*
G01*
X-3381507Y-8150101D03*
G01*
X-3381502Y-8055079D03*
G01*
X-3476523Y-8055080D03*
G01*
X-3476523Y-7743701D03*
G01*
X-3381507Y-7743701D03*
G01*
X-3381502Y-7648679D03*
G01*
X-3476523Y-7648680D03*
G01*
X-3476523Y-7337301D03*
G01*
X-3381507Y-7337301D03*
G01*
X-3381502Y-7242279D03*
G01*
X-3476523Y-7242280D03*
G01*
X-3476523Y-6930901D03*
G01*
X-3381507Y-6930901D03*
G01*
X-3381502Y-6835879D03*
G01*
X-3476523Y-6835880D03*
G01*
X-3476523Y-6524501D03*
G01*
X-3381507Y-6524501D03*
G01*
X-3381502Y-6429479D03*
G01*
X-3476523Y-6429480D03*
G01*
X-3476523Y-6118101D03*
G01*
X-3381507Y-6118101D03*
G01*
X-3381502Y-6023079D03*
G01*
X-3476523Y-6023080D03*
G01*
X-3476523Y-5711701D03*
G01*
X-3381507Y-5711701D03*
G01*
X-3381502Y-5616679D03*
G01*
X-3476523Y-5616680D03*
G01*
X-3476523Y-5305301D03*
G01*
X-3381507Y-5305301D03*
G01*
X-3381502Y-5210279D03*
G01*
X-3476523Y-5210280D03*
G01*
X-3476523Y-4898901D03*
G01*
X-3381507Y-4898901D03*
G01*
X-3381502Y-4803879D03*
G01*
X-3476523Y-4803880D03*
G01*
X-3476523Y-4492501D03*
G01*
X-3381507Y-4492501D03*
G01*
X-3381502Y-4397479D03*
G01*
X-3476523Y-4397480D03*
G01*
X-3476523Y-4086101D03*
G01*
X-3381507Y-4086101D03*
G01*
X-3381502Y-3991079D03*
G01*
X-3476523Y-3991080D03*
G01*
X-3476523Y-3679701D03*
G01*
X-3381507Y-3679701D03*
G01*
X-3381502Y-3584679D03*
G01*
X-3476523Y-3584680D03*
G01*
X-3476523Y-3273301D03*
G01*
X-3381507Y-3273301D03*
G01*
X-3381502Y-3178279D03*
G01*
X-3476523Y-3178280D03*
G01*
X-3476523Y-2866901D03*
G01*
X-3381507Y-2866901D03*
G01*
X-3381502Y-2771879D03*
G01*
X-3476523Y-2771880D03*
G01*
X-3476523Y-2460501D03*
G01*
X-3381507Y-2460501D03*
G01*
X-3381502Y-2365479D03*
G01*
X-3476523Y-2365480D03*
G01*
X-3476523Y-2054101D03*
G01*
X-3381507Y-2054101D03*
G01*
X-3381502Y-1959079D03*
G01*
X-3476523Y-1959080D03*
G01*
X-3882923Y-8150101D03*
G01*
X-3787907Y-8150101D03*
G01*
X-3787902Y-8055079D03*
G01*
X-3882923Y-8055080D03*
G01*
X-3882923Y-7743701D03*
G01*
X-3787907Y-7743701D03*
G01*
X-3787902Y-7648679D03*
G01*
X-3882923Y-7648680D03*
G01*
X-3882923Y-7337301D03*
G01*
X-3787907Y-7337301D03*
G01*
X-3787902Y-7242279D03*
G01*
X-3882923Y-7242280D03*
G01*
X-3882923Y-6930901D03*
G01*
X-3787907Y-6930901D03*
G01*
X-3787902Y-6835879D03*
G01*
X-3882923Y-6835880D03*
G01*
X-3882923Y-6524501D03*
G01*
X-3787907Y-6524501D03*
G01*
X-3787902Y-6429479D03*
G01*
X-3882923Y-6429480D03*
G01*
X-3882923Y-6118101D03*
G01*
X-3787907Y-6118101D03*
G01*
X-3787902Y-6023079D03*
G01*
X-3882923Y-6023080D03*
G01*
X-3882923Y-5711701D03*
G01*
X-3787907Y-5711701D03*
G01*
X-3787902Y-5616679D03*
G01*
X-3882923Y-5616680D03*
G01*
X-3882923Y-5305301D03*
G01*
X-3787907Y-5305301D03*
G01*
X-3787902Y-5210279D03*
G01*
X-3882923Y-5210280D03*
G01*
X-3882923Y-4898901D03*
G01*
X-3787907Y-4898901D03*
G01*
X-3787902Y-4803879D03*
G01*
X-3882923Y-4803880D03*
G01*
X-3882923Y-4492501D03*
G01*
X-3787907Y-4492501D03*
G01*
X-3787902Y-4397479D03*
G01*
X-3882923Y-4397480D03*
G01*
X-3882923Y-4086101D03*
G01*
X-3787907Y-4086101D03*
G01*
X-3787902Y-3991079D03*
G01*
X-3882923Y-3991080D03*
G01*
X-3882923Y-3679701D03*
G01*
X-3787907Y-3679701D03*
G01*
X-3787902Y-3584679D03*
G01*
X-3882923Y-3584680D03*
G01*
X-3882923Y-3273301D03*
G01*
X-3787907Y-3273301D03*
G01*
X-3787902Y-3178279D03*
G01*
X-3882923Y-3178280D03*
G01*
X-3882923Y-2866901D03*
G01*
X-3787907Y-2866901D03*
G01*
X-3787902Y-2771879D03*
G01*
X-3882923Y-2771880D03*
G01*
X-3882923Y-2460501D03*
G01*
X-3787907Y-2460501D03*
G01*
X-3787902Y-2365479D03*
G01*
X-3882923Y-2365480D03*
G01*
X-3882923Y-2054101D03*
G01*
X-3787907Y-2054101D03*
G01*
X-3787902Y-1959079D03*
G01*
X-3882923Y-1959080D03*
G01*
X-4289323Y-8150101D03*
G01*
X-4194307Y-8150101D03*
G01*
X-4194302Y-8055079D03*
G01*
X-4289323Y-8055080D03*
G01*
X-4289323Y-7743701D03*
G01*
X-4194307Y-7743701D03*
G01*
X-4194302Y-7648679D03*
G01*
X-4289323Y-7648680D03*
G01*
X-4289323Y-7337301D03*
G01*
X-4194307Y-7337301D03*
G01*
X-4194302Y-7242279D03*
G01*
X-4289323Y-7242280D03*
G01*
X-4289323Y-6930901D03*
G01*
X-4194307Y-6930901D03*
G01*
X-4194302Y-6835879D03*
G01*
X-4289323Y-6835880D03*
G01*
X-4289323Y-6524501D03*
G01*
X-4194307Y-6524501D03*
G01*
X-4194302Y-6429479D03*
G01*
X-4289323Y-6429480D03*
G01*
X-4289323Y-6118101D03*
G01*
X-4194307Y-6118101D03*
G01*
X-4194302Y-6023079D03*
G01*
X-4289323Y-6023080D03*
G01*
X-4289323Y-5711701D03*
G01*
X-4194307Y-5711701D03*
G01*
X-4194302Y-5616679D03*
G01*
X-4289323Y-5616680D03*
G01*
X-4289323Y-5305301D03*
G01*
X-4194307Y-5305301D03*
G01*
X-4194302Y-5210279D03*
G01*
X-4289323Y-5210280D03*
G01*
X-4289323Y-4898901D03*
G01*
X-4194307Y-4898901D03*
G01*
X-4194302Y-4803879D03*
G01*
X-4289323Y-4803880D03*
G01*
X-4289323Y-4492501D03*
G01*
X-4194307Y-4492501D03*
G01*
X-4194302Y-4397479D03*
G01*
X-4289323Y-4397480D03*
G01*
X-4289323Y-4086101D03*
G01*
X-4194307Y-4086101D03*
G01*
X-4194302Y-3991079D03*
G01*
X-4289323Y-3991080D03*
G01*
X-4289323Y-3679701D03*
G01*
X-4194307Y-3679701D03*
G01*
X-4194302Y-3584679D03*
G01*
X-4289323Y-3584680D03*
G01*
X-4289323Y-3273301D03*
G01*
X-4194307Y-3273301D03*
G01*
X-4194302Y-3178279D03*
G01*
X-4289323Y-3178280D03*
G01*
X-4289323Y-2866901D03*
G01*
X-4194307Y-2866901D03*
G01*
X-4194302Y-2771879D03*
G01*
X-4289323Y-2771880D03*
G01*
X-4289323Y-2460501D03*
G01*
X-4194307Y-2460501D03*
G01*
X-4194302Y-2365479D03*
G01*
X-4289323Y-2365480D03*
G01*
X-4289323Y-2054101D03*
G01*
X-4194307Y-2054101D03*
G01*
X-4194302Y-1959079D03*
G01*
X-4289323Y-1959080D03*
G01*
X-4695723Y-8150101D03*
G01*
X-4600707Y-8150101D03*
G01*
X-4600702Y-8055079D03*
G01*
X-4695723Y-8055080D03*
G01*
X-4695723Y-7743701D03*
G01*
X-4600707Y-7743701D03*
G01*
X-4600702Y-7648679D03*
G01*
X-4695723Y-7648680D03*
G01*
X-4695723Y-7337301D03*
G01*
X-4600707Y-7337301D03*
G01*
X-4600702Y-7242279D03*
G01*
X-4695723Y-7242280D03*
G01*
X-4695723Y-6930901D03*
G01*
X-4600707Y-6930901D03*
G01*
X-4600702Y-6835879D03*
G01*
X-4695723Y-6835880D03*
G01*
X-4695723Y-6524501D03*
G01*
X-4600707Y-6524501D03*
G01*
X-4600702Y-6429479D03*
G01*
X-4695723Y-6429480D03*
G01*
X-4695723Y-6118101D03*
G01*
X-4600707Y-6118101D03*
G01*
X-4600702Y-6023079D03*
G01*
X-4695723Y-6023080D03*
G01*
X-4695723Y-5711701D03*
G01*
X-4600707Y-5711701D03*
G01*
X-4600702Y-5616679D03*
G01*
X-4695723Y-5616680D03*
G01*
X-4695723Y-5305301D03*
G01*
X-4600707Y-5305301D03*
G01*
X-4600702Y-5210279D03*
G01*
X-4695723Y-5210280D03*
G01*
X-4695723Y-4898901D03*
G01*
X-4600707Y-4898901D03*
G01*
X-4600702Y-4803879D03*
G01*
X-4695723Y-4803880D03*
G01*
X-4695723Y-4492501D03*
G01*
X-4600707Y-4492501D03*
G01*
X-4600702Y-4397479D03*
G01*
X-4695723Y-4397480D03*
G01*
X-4695723Y-4086101D03*
G01*
X-4600707Y-4086101D03*
G01*
X-4600702Y-3991079D03*
G01*
X-4695723Y-3991080D03*
G01*
X-4695723Y-3679701D03*
G01*
X-4600707Y-3679701D03*
G01*
X-4600702Y-3584679D03*
G01*
X-4695723Y-3584680D03*
G01*
X-4695723Y-3273301D03*
G01*
X-4600707Y-3273301D03*
G01*
X-4600702Y-3178279D03*
G01*
X-4695723Y-3178280D03*
G01*
X-4695723Y-2866901D03*
G01*
X-4600707Y-2866901D03*
G01*
X-4600702Y-2771879D03*
G01*
X-4695723Y-2771880D03*
G01*
X-4695723Y-2460501D03*
G01*
X-4600707Y-2460501D03*
G01*
X-4600702Y-2365479D03*
G01*
X-4695723Y-2365480D03*
G01*
X-4695723Y-2054101D03*
G01*
X-4600707Y-2054101D03*
G01*
X-4600702Y-1959079D03*
G01*
X-4695723Y-1959080D03*
G01*
X-5102123Y-8150101D03*
G01*
X-5007107Y-8150101D03*
G01*
X-5007102Y-8055079D03*
G01*
X-5102123Y-8055080D03*
G01*
X-5102123Y-7743701D03*
G01*
X-5007107Y-7743701D03*
G01*
X-5007102Y-7648679D03*
G01*
X-5102123Y-7648680D03*
G01*
X-5102123Y-7337301D03*
G01*
X-5007107Y-7337301D03*
G01*
X-5007102Y-7242279D03*
G01*
X-5102123Y-7242280D03*
G01*
X-5102123Y-6930901D03*
G01*
X-5007107Y-6930901D03*
G01*
X-5007102Y-6835879D03*
G01*
X-5102123Y-6835880D03*
G01*
X-5102123Y-6524501D03*
G01*
X-5007107Y-6524501D03*
G01*
X-5007102Y-6429479D03*
G01*
X-5102123Y-6429480D03*
G01*
X-5102123Y-6118101D03*
G01*
X-5007107Y-6118101D03*
G01*
X-5007102Y-6023079D03*
G01*
X-5102123Y-6023080D03*
G01*
X-5102123Y-5711701D03*
G01*
X-5007107Y-5711701D03*
G01*
X-5007102Y-5616679D03*
G01*
X-5102123Y-5616680D03*
G01*
X-5102123Y-5305301D03*
G01*
X-5007107Y-5305301D03*
G01*
X-5007102Y-5210279D03*
G01*
X-5102123Y-5210280D03*
G01*
X-5102123Y-4898901D03*
G01*
X-5007107Y-4898901D03*
G01*
X-5007102Y-4803879D03*
G01*
X-5102123Y-4803880D03*
G01*
X-5102123Y-4492501D03*
G01*
X-5007107Y-4492501D03*
G01*
X-5007102Y-4397479D03*
G01*
X-5102123Y-4397480D03*
G01*
X-5102123Y-4086101D03*
G01*
X-5007107Y-4086101D03*
G01*
X-5007102Y-3991079D03*
G01*
X-5102123Y-3991080D03*
G01*
X-5102123Y-3679701D03*
G01*
X-5007107Y-3679701D03*
G01*
X-5007102Y-3584679D03*
G01*
X-5102123Y-3584680D03*
G01*
X-5102123Y-3273301D03*
G01*
X-5007107Y-3273301D03*
G01*
X-5007102Y-3178279D03*
G01*
X-5102123Y-3178280D03*
G01*
X-5102123Y-2866901D03*
G01*
X-5007107Y-2866901D03*
G01*
X-5007102Y-2771879D03*
G01*
X-5102123Y-2771880D03*
G01*
X-5102123Y-2460501D03*
G01*
X-5007107Y-2460501D03*
G01*
X-5007102Y-2365479D03*
G01*
X-5102123Y-2365480D03*
G01*
X-5102123Y-2054101D03*
G01*
X-5007107Y-2054101D03*
G01*
X-5007102Y-1959079D03*
G01*
X-5102123Y-1959080D03*
G01*
X-5508523Y-8150101D03*
G01*
X-5413507Y-8150101D03*
G01*
X-5413502Y-8055079D03*
G01*
X-5508523Y-8055080D03*
G01*
X-5508523Y-7743701D03*
G01*
X-5413507Y-7743701D03*
G01*
X-5413502Y-7648679D03*
G01*
X-5508523Y-7648680D03*
G01*
X-5508523Y-7337301D03*
G01*
X-5413507Y-7337301D03*
G01*
X-5413502Y-7242279D03*
G01*
X-5508523Y-7242280D03*
G01*
X-5508523Y-6930901D03*
G01*
X-5413507Y-6930901D03*
G01*
X-5413502Y-6835879D03*
G01*
X-5508523Y-6835880D03*
G01*
X-5508523Y-6524501D03*
G01*
X-5413507Y-6524501D03*
G01*
X-5413502Y-6429479D03*
G01*
X-5508523Y-6429480D03*
G01*
X-5508523Y-6118101D03*
G01*
X-5413507Y-6118101D03*
G01*
X-5413502Y-6023079D03*
G01*
X-5508523Y-6023080D03*
G01*
X-5508523Y-5711701D03*
G01*
X-5413507Y-5711701D03*
G01*
X-5413502Y-5616679D03*
G01*
X-5508523Y-5616680D03*
G01*
X-5508523Y-5305301D03*
G01*
X-5413507Y-5305301D03*
G01*
X-5413502Y-5210279D03*
G01*
X-5508523Y-5210280D03*
G01*
X-5508523Y-4898901D03*
G01*
X-5413507Y-4898901D03*
G01*
X-5413502Y-4803879D03*
G01*
X-5508523Y-4803880D03*
G01*
X-5508523Y-4492501D03*
G01*
X-5413507Y-4492501D03*
G01*
X-5413502Y-4397479D03*
G01*
X-5508523Y-4397480D03*
G01*
X-5508523Y-4086101D03*
G01*
X-5413507Y-4086101D03*
G01*
X-5413502Y-3991079D03*
G01*
X-5508523Y-3991080D03*
G01*
X-5508523Y-3679701D03*
G01*
X-5413507Y-3679701D03*
G01*
X-5413502Y-3584679D03*
G01*
X-5508523Y-3584680D03*
G01*
X-5508523Y-3273301D03*
G01*
X-5413507Y-3273301D03*
G01*
X-5413502Y-3178279D03*
G01*
X-5508523Y-3178280D03*
G01*
X-5508523Y-2866901D03*
G01*
X-5413507Y-2866901D03*
G01*
X-5413502Y-2771879D03*
G01*
X-5508523Y-2771880D03*
G01*
X-5508523Y-2460501D03*
G01*
X-5413507Y-2460501D03*
G01*
X-5413502Y-2365479D03*
G01*
X-5508523Y-2365480D03*
G01*
X-5508523Y-2054101D03*
G01*
X-5413507Y-2054101D03*
G01*
X-5413502Y-1959079D03*
G01*
X-5508523Y-1959080D03*
G01*
X-5914923Y-8150101D03*
G01*
X-5819907Y-8150101D03*
G01*
X-5819902Y-8055079D03*
G01*
X-5914923Y-8055080D03*
G01*
X-5914923Y-7743701D03*
G01*
X-5819907Y-7743701D03*
G01*
X-5819902Y-7648679D03*
G01*
X-5914923Y-7648680D03*
G01*
X-5914923Y-7337301D03*
G01*
X-5819907Y-7337301D03*
G01*
X-5819902Y-7242279D03*
G01*
X-5914923Y-7242280D03*
G01*
X-5914923Y-6930901D03*
G01*
X-5819907Y-6930901D03*
G01*
X-5819902Y-6835879D03*
G01*
X-5914923Y-6835880D03*
G01*
X-5914923Y-6524501D03*
G01*
X-5819907Y-6524501D03*
G01*
X-5819902Y-6429479D03*
G01*
X-5914923Y-6429480D03*
G01*
X-5914923Y-6118101D03*
G01*
X-5819907Y-6118101D03*
G01*
X-5819902Y-6023079D03*
G01*
X-5914923Y-6023080D03*
G01*
X-5914923Y-5711701D03*
G01*
X-5819907Y-5711701D03*
G01*
X-5819902Y-5616679D03*
G01*
X-5914923Y-5616680D03*
G01*
X-5914923Y-5305301D03*
G01*
X-5819907Y-5305301D03*
G01*
X-5819902Y-5210279D03*
G01*
X-5914923Y-5210280D03*
G01*
X-5914923Y-4898901D03*
G01*
X-5819907Y-4898901D03*
G01*
X-5819902Y-4803879D03*
G01*
X-5914923Y-4803880D03*
G01*
X-5914923Y-4492501D03*
G01*
X-5819907Y-4492501D03*
G01*
X-5819902Y-4397479D03*
G01*
X-5914923Y-4397480D03*
G01*
X-5914923Y-4086101D03*
G01*
X-5819907Y-4086101D03*
G01*
X-5819902Y-3991079D03*
G01*
X-5914923Y-3991080D03*
G01*
X-5914923Y-3679701D03*
G01*
X-5819907Y-3679701D03*
G01*
X-5819902Y-3584679D03*
G01*
X-5914923Y-3584680D03*
G01*
X-5914923Y-3273301D03*
G01*
X-5819907Y-3273301D03*
G01*
X-5819902Y-3178279D03*
G01*
X-5914923Y-3178280D03*
G01*
X-5914923Y-2866901D03*
G01*
X-5819907Y-2866901D03*
G01*
X-5819902Y-2771879D03*
G01*
X-5914923Y-2771880D03*
G01*
X-5914923Y-2460501D03*
G01*
X-5819907Y-2460501D03*
G01*
X-5819902Y-2365479D03*
G01*
X-5914923Y-2365480D03*
G01*
X-5914923Y-2054101D03*
G01*
X-5819907Y-2054101D03*
G01*
X-5819902Y-1959079D03*
G01*
X-5914923Y-1959080D03*
D11*
G01*
X-4826012Y-10088079D03*
G01*
X-5009019Y-10088081D03*
G01*
X-5009019Y-10198088D03*
G01*
X-4826012Y-10198088D03*
G01*
X-3619512Y-10088079D03*
G01*
X-3802519Y-10088081D03*
G01*
X-3802519Y-10198088D03*
G01*
X-3619512Y-10198088D03*
G01*
X-2413012Y-10088079D03*
G01*
X-2596019Y-10088081D03*
G01*
X-2596019Y-10198088D03*
G01*
X-2413012Y-10198088D03*
G01*
X-1206512Y-10088079D03*
G01*
X-1389519Y-10088081D03*
G01*
X-1389519Y-10198088D03*
G01*
X-1206512Y-10198088D03*
G01*
X2273287Y-7395679D03*
G01*
X2090280Y-7395681D03*
G01*
X2090280Y-7505688D03*
G01*
X2273287Y-7505688D03*
G01*
X2273287Y-1299679D03*
G01*
X2090280Y-1299681D03*
G01*
X2090280Y-1409688D03*
G01*
X2273287Y-1409688D03*
G01*
X2273287Y-2823679D03*
G01*
X2090280Y-2823681D03*
G01*
X2090280Y-2933688D03*
G01*
X2273287Y-2933688D03*
G01*
X2273287Y-4347679D03*
G01*
X2090280Y-4347681D03*
G01*
X2090280Y-4457688D03*
G01*
X2273287Y-4457688D03*
G01*
X2273287Y-5871679D03*
G01*
X2090280Y-5871681D03*
G01*
X2090280Y-5981688D03*
G01*
X2273287Y-5981688D03*
G01*
X-7099312Y-7395679D03*
G01*
X-7282319Y-7395681D03*
G01*
X-7282319Y-7505688D03*
G01*
X-7099312Y-7505688D03*
G01*
X-7099312Y-5871679D03*
G01*
X-7282319Y-5871681D03*
G01*
X-7282319Y-5981688D03*
G01*
X-7099312Y-5981688D03*
G01*
X-7099312Y-4347679D03*
G01*
X-7282319Y-4347681D03*
G01*
X-7282319Y-4457688D03*
G01*
X-7099312Y-4457688D03*
G01*
X-7099312Y-2823679D03*
G01*
X-7282319Y-2823681D03*
G01*
X-7282319Y-2933688D03*
G01*
X-7099312Y-2933688D03*
G01*
X-7099312Y-1299679D03*
G01*
X-7282319Y-1299681D03*
G01*
X-7282319Y-1409688D03*
G01*
X-7099312Y-1409688D03*
G01*
X-4826012Y110020D03*
G01*
X-5009019Y110018D03*
G01*
X-5009019Y11D03*
G01*
X-4826012Y11D03*
G01*
X-3619512Y110020D03*
G01*
X-3802519Y110018D03*
G01*
X-3802519Y11D03*
G01*
X-3619512Y11D03*
G01*
X-2413012Y110020D03*
G01*
X-2596019Y110018D03*
G01*
X-2596019Y11D03*
G01*
X-2413012Y11D03*
G01*
X-1206512Y110020D03*
G01*
X-1389519Y110018D03*
G01*
X-1389519Y11D03*
G01*
X-1206512Y11D03*
G01*
X-12Y110020D03*
G01*
X-183019Y110018D03*
G01*
X-183019Y11D03*
G01*
X-12Y11D03*
G01*
X-12Y-10088079D03*
G01*
X-183019Y-10088081D03*
G01*
X-183019Y-10198088D03*
G01*
X-12Y-10198088D03*
D12*
G01*
X283283Y105816D03*
G01*
X143283Y105816D03*
G01*
X-923216Y105816D03*
G01*
X-1063216Y105816D03*
G01*
X-2129716Y105816D03*
G01*
X-2269716Y105816D03*
G01*
X-3336216Y105816D03*
G01*
X-3476216Y105816D03*
G01*
X-4542716Y105816D03*
G01*
X-4682716Y105816D03*
D13*
G01*
X-7235416Y-1164183D03*
G01*
X-7095416Y-1164183D03*
G01*
X-7235416Y-2688183D03*
G01*
X-7095416Y-2688183D03*
G01*
X-7235416Y-4212183D03*
G01*
X-7095416Y-4212183D03*
G01*
X-7235416Y-5736183D03*
G01*
X-7095416Y-5736183D03*
G01*
X-7235416Y-7260183D03*
G01*
X-7095416Y-7260183D03*
G01*
X2137183Y-2688183D03*
G01*
X2277183Y-2688183D03*
G01*
X2137183Y-1164183D03*
G01*
X2277183Y-1164183D03*
D12*
G01*
X283283Y-10092283D03*
G01*
X143283Y-10092283D03*
G01*
X-923216Y-10092283D03*
G01*
X-1063216Y-10092283D03*
G01*
X-2129716Y-10092283D03*
G01*
X-2269716Y-10092283D03*
G01*
X-3336216Y-10092283D03*
G01*
X-3476216Y-10092283D03*
G01*
X-4542716Y-10092283D03*
G01*
X-4682716Y-10092283D03*
D13*
G01*
X2137183Y-4212183D03*
G01*
X2277183Y-4212183D03*
G01*
X2137183Y-5736183D03*
G01*
X2277183Y-5736183D03*
G01*
X2137183Y-7260183D03*
G01*
X2277183Y-7260183D03*
D14*
G01*
X-4003116Y-8533991D03*
G01*
X-4003116Y-8373991D03*
D15*
G01*
X-4286915Y-8513773D03*
G01*
X-4201916Y-8368790D03*
G01*
X-4286915Y-8368790D03*
G01*
X-4201916Y-8513773D03*
D14*
G01*
X-1564716Y-8533991D03*
G01*
X-1564716Y-8373991D03*
D15*
G01*
X-1848515Y-8513773D03*
G01*
X-1763516Y-8368790D03*
G01*
X-1848515Y-8368790D03*
G01*
X-1763516Y-8513773D03*
D14*
G01*
X-751916Y-8533991D03*
G01*
X-751916Y-8373991D03*
D15*
G01*
X-1035715Y-8513773D03*
G01*
X-950716Y-8368790D03*
G01*
X-1035715Y-8368790D03*
G01*
X-950716Y-8513773D03*
D16*
G01*
X-2428316Y-1427076D03*
G01*
X-2428316Y-1587075D03*
D15*
G01*
X-2254915Y-1719273D03*
G01*
X-2169916Y-1574290D03*
G01*
X-2254915Y-1574290D03*
G01*
X-2169916Y-1719273D03*
G01*
X-3067715Y-1719273D03*
G01*
X-2982716Y-1574290D03*
G01*
X-3067715Y-1574290D03*
G01*
X-2982716Y-1719273D03*
D16*
G01*
X-2809316Y-1427076D03*
G01*
X-2809316Y-1587075D03*
D15*
G01*
X-3880515Y-1719273D03*
G01*
X-3795516Y-1574290D03*
G01*
X-3880515Y-1574290D03*
G01*
X-3795516Y-1719273D03*
D16*
G01*
X-4053916Y-1427076D03*
G01*
X-4053916Y-1587075D03*
D15*
G01*
X-4693315Y-1719273D03*
G01*
X-4608316Y-1574290D03*
G01*
X-4693315Y-1574290D03*
G01*
X-4608316Y-1719273D03*
D16*
G01*
X-4866716Y-1427076D03*
G01*
X-4866716Y-1587075D03*
D15*
G01*
X-6293515Y-3294073D03*
G01*
X-6208516Y-3149090D03*
G01*
X-6293515Y-3149090D03*
G01*
X-6208516Y-3294073D03*
D17*
G01*
X-6432623Y-3462883D03*
G01*
X-6272623Y-3462883D03*
G01*
X-6432623Y-4275683D03*
G01*
X-6272623Y-4275683D03*
D15*
G01*
X-6293515Y-4106873D03*
G01*
X-6208516Y-3961890D03*
G01*
X-6293515Y-3961890D03*
G01*
X-6208516Y-4106873D03*
G01*
X-6293515Y-4919673D03*
G01*
X-6208516Y-4774690D03*
G01*
X-6293515Y-4774690D03*
G01*
X-6208516Y-4919673D03*
D17*
G01*
X-6432623Y-5088483D03*
G01*
X-6272623Y-5088483D03*
D15*
G01*
X-6293515Y-5732473D03*
G01*
X-6208516Y-5587490D03*
G01*
X-6293515Y-5587490D03*
G01*
X-6208516Y-5732473D03*
D17*
G01*
X-6432623Y-5901283D03*
G01*
X-6272623Y-5901283D03*
D15*
G01*
X-6293515Y-6545273D03*
G01*
X-6208516Y-6400290D03*
G01*
X-6293515Y-6400290D03*
G01*
X-6208516Y-6545273D03*
D17*
G01*
X-6432623Y-6714083D03*
G01*
X-6272623Y-6714083D03*
D15*
G01*
X551784Y-2074873D03*
G01*
X636783Y-1929890D03*
G01*
X551784Y-1929890D03*
G01*
X636783Y-2074873D03*
D17*
G01*
X501576Y-2256383D03*
G01*
X661576Y-2256383D03*
D15*
G01*
X551784Y-4513273D03*
G01*
X636783Y-4368290D03*
G01*
X551784Y-4368290D03*
G01*
X636783Y-4513273D03*
D17*
G01*
X501576Y-4186783D03*
G01*
X661576Y-4186783D03*
G01*
X501576Y-3373983D03*
G01*
X661576Y-3373983D03*
D15*
G01*
X551784Y-3700473D03*
G01*
X636783Y-3555490D03*
G01*
X551784Y-3555490D03*
G01*
X636783Y-3700473D03*
D17*
G01*
X501576Y-4999583D03*
G01*
X661576Y-4999583D03*
D15*
G01*
X551784Y-5326073D03*
G01*
X636783Y-5181090D03*
G01*
X551784Y-5181090D03*
G01*
X636783Y-5326073D03*
D17*
G01*
X498020Y-5810249D03*
G01*
X658020Y-5810249D03*
D15*
G01*
X548228Y-6136740D03*
G01*
X633227Y-5991757D03*
G01*
X548228Y-5991757D03*
G01*
X633227Y-6136740D03*
D17*
G01*
X498020Y-6623049D03*
G01*
X658020Y-6623049D03*
D15*
G01*
X548228Y-6949540D03*
G01*
X633227Y-6804557D03*
G01*
X548228Y-6804557D03*
G01*
X633227Y-6949540D03*
G01*
X-6293515Y-8170873D03*
G01*
X-6208516Y-8025890D03*
G01*
X-6293515Y-8025890D03*
G01*
X-6208516Y-8170873D03*
D17*
G01*
X-6432623Y-7857083D03*
G01*
X-6272623Y-7857083D03*
D15*
G01*
X-3474115Y-8513773D03*
G01*
X-3389116Y-8368790D03*
G01*
X-3474115Y-8368790D03*
G01*
X-3389116Y-8513773D03*
D14*
G01*
X-3190316Y-8533991D03*
G01*
X-3190316Y-8373991D03*
D15*
G01*
X-2661315Y-8513773D03*
G01*
X-2576316Y-8368790D03*
G01*
X-2661315Y-8368790D03*
G01*
X-2576316Y-8513773D03*
D14*
G01*
X-2860116Y-8533991D03*
G01*
X-2860116Y-8373991D03*
D15*
G01*
X-1357116Y-1574290D03*
G01*
X-1442115Y-1574290D03*
G01*
X-1357116Y-1719273D03*
G01*
X-1442115Y-1719273D03*
D16*
G01*
X-1615516Y-1427076D03*
G01*
X-1615516Y-1587075D03*
D18*
G01*
X568858Y-7920583D03*
D19*
G01*
X568858Y-8174583D03*
D18*
G01*
X314858Y-8428583D03*
D20*
G01*
X568866Y-8428583D03*
D18*
G01*
X-5958484Y-1671751D03*
D21*
G01*
X-6212494Y-1671769D03*
D18*
G01*
X-4536516Y-8415883D03*
D19*
G01*
X-4536516Y-8669883D03*
D18*
G01*
X-3723716Y-8415883D03*
D19*
G01*
X-3723716Y-8669883D03*
D18*
G01*
X-2352116Y-8415883D03*
D19*
G01*
X-2352116Y-8669883D03*
D18*
G01*
X-2098116Y-8415883D03*
D19*
G01*
X-2098116Y-8669883D03*
D18*
G01*
X-1285316Y-8415883D03*
D19*
G01*
X-1285316Y-8669883D03*
D18*
G01*
X-6187516Y-6180683D03*
D21*
G01*
X-6441516Y-6180683D03*
D18*
G01*
X-6187516Y-5367883D03*
D21*
G01*
X-6441516Y-5367883D03*
D18*
G01*
X-6187516Y-4555083D03*
D21*
G01*
X-6441516Y-4555083D03*
D18*
G01*
X-6187516Y-3742283D03*
D21*
G01*
X-6441516Y-3742283D03*
D18*
G01*
X-6187516Y-2929483D03*
D21*
G01*
X-6441516Y-2929483D03*
D18*
G01*
X-4358716Y-1684883D03*
D22*
G01*
X-4358716Y-1430883D03*
D18*
G01*
X-3545916Y-1684883D03*
D22*
G01*
X-3545916Y-1430883D03*
D18*
G01*
X-3291916Y-1684883D03*
D22*
G01*
X-3291916Y-1430883D03*
D18*
G01*
X-1920316Y-1684883D03*
D22*
G01*
X-1920316Y-1430883D03*
D18*
G01*
X-1107516Y-1684883D03*
D22*
G01*
X-1107516Y-1430883D03*
D18*
G01*
X543483Y-3920083D03*
D20*
G01*
X797483Y-3920083D03*
D18*
G01*
X543483Y-4732883D03*
D20*
G01*
X797483Y-4732883D03*
D18*
G01*
X543483Y-5545683D03*
D20*
G01*
X797483Y-5545683D03*
D18*
G01*
X539927Y-6356350D03*
D20*
G01*
X793937Y-6356355D03*
D18*
G01*
X314883Y-1672183D03*
D20*
G01*
X568883Y-1672183D03*
D18*
G01*
X539927Y-7169150D03*
D20*
G01*
X793937Y-7169155D03*
D18*
G01*
X-5958509Y-8428151D03*
D21*
G01*
X-6212512Y-8428169D03*
M02*
