M48
METRIC,LZ,000.000
;FILE_FORMAT=3:3
;TYPE=NON_PLATED
;Layer: NPTH_Through
;EasyEDA v6.5.34, 2023-08-21 18:11:39
;fac92c3893cd48509e925d7eb78dc15b,5a6b42c53f6a479593ecc07194224c93,10
;Gerber Generator version 0.2
;Holesize 1 = 1.800 mm
T01C1.800
;Holesize 2 = 2.000 mm
T02C2.000
;Holesize 3 = 3.200 mm
T03C3.200
%
G05
G90
T01
X009109Y070677
X009145Y027440
X009109Y055906
X009145Y012669
X082296Y070704
X082332Y027502
X082296Y055884
X082332Y012681
T02
X006894Y016244
X006894Y018784
X006894Y021324
X006894Y023864
X006859Y059482
X006859Y062022
X006859Y064562
X006859Y067102
X084546Y067079
X084546Y064539
X084546Y061999
X084546Y059459
X084582Y016256
X084582Y018796
X084582Y021336
X084582Y023876
X005335Y113076
X005335Y110536
X005335Y107996
X005335Y105456
X012955Y113076
X012955Y110536
X012955Y107996
X012955Y105456
T03
X068397Y111482
X023439Y111482
X054497Y111482
X037339Y111482
X068397Y014651
X023439Y014651
X054497Y014651
X037339Y014651
M30
