G04 Layer: TopSilkscreenLayer*
G04 EasyEDA v6.5.34, 2023-08-21 18:11:39*
G04 fac92c3893cd48509e925d7eb78dc15b,5a6b42c53f6a479593ecc07194224c93,10*
G04 Gerber Generator version 0.2*
G04 Scale: 100 percent, Rotated: No, Reflected: No *
G04 Dimensions in millimeters *
G04 leading zeros omitted , absolute positions ,4 integer and 5 decimal *
%FSLAX45Y45*%
%MOMM*%

%ADD10C,0.1524*%
%ADD11C,0.2032*%
%ADD12C,0.2540*%

%LPD*%
D10*
X524560Y7423150D02*
G01*
X524560Y7350252D01*
X519988Y7336789D01*
X515416Y7332218D01*
X506272Y7327645D01*
X497128Y7327645D01*
X488238Y7332218D01*
X483666Y7336789D01*
X479094Y7350252D01*
X479094Y7359395D01*
X609142Y7423150D02*
G01*
X563676Y7423150D01*
X559104Y7382255D01*
X563676Y7386828D01*
X577138Y7391400D01*
X590854Y7391400D01*
X604570Y7386828D01*
X613714Y7377684D01*
X618032Y7363968D01*
X618032Y7354823D01*
X613714Y7341362D01*
X604570Y7332218D01*
X590854Y7327645D01*
X577138Y7327645D01*
X563676Y7332218D01*
X559104Y7336789D01*
X554532Y7345934D01*
X7843316Y7417308D02*
G01*
X7843316Y7344663D01*
X7838744Y7330947D01*
X7834172Y7326376D01*
X7825028Y7321804D01*
X7815884Y7321804D01*
X7806994Y7326376D01*
X7802422Y7330947D01*
X7797850Y7344663D01*
X7797850Y7353808D01*
X7927898Y7403592D02*
G01*
X7923326Y7412736D01*
X7909610Y7417308D01*
X7900466Y7417308D01*
X7887004Y7412736D01*
X7877860Y7399273D01*
X7873288Y7376413D01*
X7873288Y7353808D01*
X7877860Y7335520D01*
X7887004Y7326376D01*
X7900466Y7321804D01*
X7905038Y7321804D01*
X7918754Y7326376D01*
X7927898Y7335520D01*
X7932470Y7349236D01*
X7932470Y7353808D01*
X7927898Y7367270D01*
X7918754Y7376413D01*
X7905038Y7380986D01*
X7900466Y7380986D01*
X7887004Y7376413D01*
X7877860Y7367270D01*
X7873288Y7353808D01*
X528116Y3099307D02*
G01*
X528116Y3026663D01*
X523544Y3012947D01*
X518972Y3008376D01*
X509828Y3003804D01*
X500684Y3003804D01*
X491794Y3008376D01*
X487222Y3012947D01*
X482650Y3026663D01*
X482650Y3035807D01*
X621842Y3099307D02*
G01*
X576376Y3003804D01*
X558088Y3099307D02*
G01*
X621842Y3099307D01*
X7846872Y3097021D02*
G01*
X7846872Y3024378D01*
X7842300Y3010662D01*
X7837728Y3006089D01*
X7828584Y3001518D01*
X7819440Y3001518D01*
X7810550Y3006089D01*
X7805978Y3010662D01*
X7801406Y3024378D01*
X7801406Y3033521D01*
X7899450Y3097021D02*
G01*
X7885988Y3092450D01*
X7881416Y3083560D01*
X7881416Y3074415D01*
X7885988Y3065271D01*
X7895132Y3060700D01*
X7913166Y3056128D01*
X7926882Y3051555D01*
X7936026Y3042665D01*
X7940598Y3033521D01*
X7940598Y3019805D01*
X7936026Y3010662D01*
X7931454Y3006089D01*
X7917738Y3001518D01*
X7899450Y3001518D01*
X7885988Y3006089D01*
X7881416Y3010662D01*
X7876844Y3019805D01*
X7876844Y3033521D01*
X7881416Y3042665D01*
X7890560Y3051555D01*
X7904022Y3056128D01*
X7922310Y3060700D01*
X7931454Y3065271D01*
X7936026Y3074415D01*
X7936026Y3083560D01*
X7931454Y3092450D01*
X7917738Y3097021D01*
X7899450Y3097021D01*
D11*
X2895658Y11454124D02*
G01*
X2972112Y11339570D01*
X2972112Y11454124D02*
G01*
X2895658Y11339570D01*
X3007926Y11432280D02*
G01*
X3018848Y11437614D01*
X3035358Y11454124D01*
X3035358Y11339570D01*
X4029709Y1048257D02*
G01*
X4029709Y960881D01*
X4024122Y944626D01*
X4018788Y939037D01*
X4007865Y933704D01*
X3996943Y933704D01*
X3986022Y939037D01*
X3980434Y944626D01*
X3975100Y960881D01*
X3975100Y971804D01*
X4065524Y1048257D02*
G01*
X4065524Y933704D01*
X4065524Y933704D02*
G01*
X4131056Y933704D01*
X4248911Y1020826D02*
G01*
X4243577Y1031747D01*
X4232656Y1042670D01*
X4221734Y1048257D01*
X4199890Y1048257D01*
X4188968Y1042670D01*
X4178045Y1031747D01*
X4172458Y1020826D01*
X4167124Y1004570D01*
X4167124Y977392D01*
X4172458Y960881D01*
X4178045Y949960D01*
X4188968Y939037D01*
X4199890Y933704D01*
X4221734Y933704D01*
X4232656Y939037D01*
X4243577Y949960D01*
X4248911Y960881D01*
X4339336Y1048257D02*
G01*
X4339336Y960881D01*
X4334002Y944626D01*
X4328668Y939037D01*
X4317745Y933704D01*
X4306824Y933704D01*
X4295902Y939037D01*
X4290313Y944626D01*
X4284979Y960881D01*
X4284979Y971804D01*
X4375404Y1048257D02*
G01*
X4375404Y933704D01*
X4375404Y933704D02*
G01*
X4440936Y933704D01*
X4558791Y1020826D02*
G01*
X4553204Y1031747D01*
X4542281Y1042670D01*
X4531359Y1048257D01*
X4509770Y1048257D01*
X4498847Y1042670D01*
X4487925Y1031747D01*
X4482338Y1020826D01*
X4477004Y1004570D01*
X4477004Y977392D01*
X4482338Y960881D01*
X4487925Y949960D01*
X4498847Y939037D01*
X4509770Y933704D01*
X4531359Y933704D01*
X4542281Y939037D01*
X4553204Y949960D01*
X4558791Y960881D01*
X4649215Y1048257D02*
G01*
X4649215Y960881D01*
X4643881Y944626D01*
X4638293Y939037D01*
X4627372Y933704D01*
X4616450Y933704D01*
X4605527Y939037D01*
X4600193Y944626D01*
X4594859Y960881D01*
X4594859Y971804D01*
X4685284Y1048257D02*
G01*
X4685284Y933704D01*
X4685284Y933704D02*
G01*
X4750815Y933704D01*
X4868672Y1020826D02*
G01*
X4863084Y1031747D01*
X4852161Y1042670D01*
X4841240Y1048257D01*
X4819395Y1048257D01*
X4808474Y1042670D01*
X4797552Y1031747D01*
X4792218Y1020826D01*
X4786629Y1004570D01*
X4786629Y977392D01*
X4792218Y960881D01*
X4797552Y949960D01*
X4808474Y939037D01*
X4819395Y933704D01*
X4841240Y933704D01*
X4852161Y939037D01*
X4863084Y949960D01*
X4868672Y960881D01*
X4959095Y1048257D02*
G01*
X4959095Y960881D01*
X4953761Y944626D01*
X4948174Y939037D01*
X4937252Y933704D01*
X4926329Y933704D01*
X4915408Y939037D01*
X4910074Y944626D01*
X4904486Y960881D01*
X4904486Y971804D01*
X4995163Y1048257D02*
G01*
X4995163Y933704D01*
X4995163Y933704D02*
G01*
X5060441Y933704D01*
X5178297Y1020826D02*
G01*
X5172963Y1031747D01*
X5162041Y1042670D01*
X5151120Y1048257D01*
X5129275Y1048257D01*
X5118354Y1042670D01*
X5107431Y1031747D01*
X5102097Y1020826D01*
X5096509Y1004570D01*
X5096509Y977392D01*
X5102097Y960881D01*
X5107431Y949960D01*
X5118354Y939037D01*
X5129275Y933704D01*
X5151120Y933704D01*
X5162041Y939037D01*
X5172963Y949960D01*
X5178297Y960881D01*
X2298700Y11830558D02*
G01*
X2298700Y11716004D01*
X2298700Y11830558D02*
G01*
X2375154Y11716004D01*
X2375154Y11830558D02*
G01*
X2375154Y11716004D01*
X2454656Y11830558D02*
G01*
X2410968Y11716004D01*
X2454656Y11830558D02*
G01*
X2498343Y11716004D01*
X2427477Y11754104D02*
G01*
X2482088Y11754104D01*
X2534411Y11830558D02*
G01*
X2534411Y11716004D01*
X2534411Y11830558D02*
G01*
X2610611Y11716004D01*
X2610611Y11830558D02*
G01*
X2610611Y11716004D01*
X2679445Y11830558D02*
G01*
X2668524Y11824970D01*
X2657602Y11814047D01*
X2652268Y11803126D01*
X2646679Y11786870D01*
X2646679Y11759692D01*
X2652268Y11743181D01*
X2657602Y11732260D01*
X2668524Y11721337D01*
X2679445Y11716004D01*
X2701290Y11716004D01*
X2712211Y11721337D01*
X2723134Y11732260D01*
X2728468Y11743181D01*
X2734056Y11759692D01*
X2734056Y11786870D01*
X2728468Y11803126D01*
X2723134Y11814047D01*
X2712211Y11824970D01*
X2701290Y11830558D01*
X2679445Y11830558D01*
X2769870Y11830558D02*
G01*
X2769870Y11716004D01*
X2769870Y11830558D02*
G01*
X2813558Y11716004D01*
X2857245Y11830558D02*
G01*
X2813558Y11716004D01*
X2857245Y11830558D02*
G01*
X2857245Y11716004D01*
X2893313Y11830558D02*
G01*
X2893313Y11716004D01*
X2972815Y11830558D02*
G01*
X2929127Y11716004D01*
X2972815Y11830558D02*
G01*
X3016504Y11716004D01*
X2945638Y11754104D02*
G01*
X3000247Y11754104D01*
X3136391Y11830558D02*
G01*
X3136391Y11716004D01*
X3136391Y11830558D02*
G01*
X3185668Y11830558D01*
X3201924Y11824970D01*
X3207511Y11819636D01*
X3212845Y11808713D01*
X3212845Y11797792D01*
X3207511Y11786870D01*
X3201924Y11781281D01*
X3185668Y11775947D01*
X3136391Y11775947D02*
G01*
X3185668Y11775947D01*
X3201924Y11770613D01*
X3207511Y11765026D01*
X3212845Y11754104D01*
X3212845Y11737847D01*
X3207511Y11726926D01*
X3201924Y11721337D01*
X3185668Y11716004D01*
X3136391Y11716004D01*
X3248913Y11830558D02*
G01*
X3248913Y11716004D01*
X3248913Y11830558D02*
G01*
X3297936Y11830558D01*
X3314445Y11824970D01*
X3319779Y11819636D01*
X3325368Y11808713D01*
X3325368Y11797792D01*
X3319779Y11786870D01*
X3314445Y11781281D01*
X3297936Y11775947D01*
X3248913Y11775947D01*
X3287013Y11775947D02*
G01*
X3325368Y11716004D01*
X3361181Y11830558D02*
G01*
X3361181Y11716004D01*
X3361181Y11830558D02*
G01*
X3432047Y11830558D01*
X3361181Y11775947D02*
G01*
X3404870Y11775947D01*
X3361181Y11716004D02*
G01*
X3432047Y11716004D01*
X3511804Y11830558D02*
G01*
X3468115Y11716004D01*
X3511804Y11830558D02*
G01*
X3555491Y11716004D01*
X3484625Y11754104D02*
G01*
X3538981Y11754104D01*
X3591306Y11830558D02*
G01*
X3591306Y11716004D01*
X3591306Y11830558D02*
G01*
X3629659Y11830558D01*
X3645915Y11824970D01*
X3656838Y11814047D01*
X3662425Y11803126D01*
X3667759Y11786870D01*
X3667759Y11759692D01*
X3662425Y11743181D01*
X3656838Y11732260D01*
X3645915Y11721337D01*
X3629659Y11716004D01*
X3591306Y11716004D01*
X3703827Y11830558D02*
G01*
X3703827Y11716004D01*
X3703827Y11830558D02*
G01*
X3752850Y11830558D01*
X3769359Y11824970D01*
X3774693Y11819636D01*
X3780027Y11808713D01*
X3780027Y11797792D01*
X3774693Y11786870D01*
X3769359Y11781281D01*
X3752850Y11775947D01*
X3703827Y11775947D02*
G01*
X3752850Y11775947D01*
X3769359Y11770613D01*
X3774693Y11765026D01*
X3780027Y11754104D01*
X3780027Y11737847D01*
X3774693Y11726926D01*
X3769359Y11721337D01*
X3752850Y11716004D01*
X3703827Y11716004D01*
X3848861Y11830558D02*
G01*
X3837940Y11824970D01*
X3827018Y11814047D01*
X3821684Y11803126D01*
X3816095Y11786870D01*
X3816095Y11759692D01*
X3821684Y11743181D01*
X3827018Y11732260D01*
X3837940Y11721337D01*
X3848861Y11716004D01*
X3870706Y11716004D01*
X3881627Y11721337D01*
X3892550Y11732260D01*
X3897884Y11743181D01*
X3903472Y11759692D01*
X3903472Y11786870D01*
X3897884Y11803126D01*
X3892550Y11814047D01*
X3881627Y11824970D01*
X3870706Y11830558D01*
X3848861Y11830558D01*
X3982974Y11830558D02*
G01*
X3939540Y11716004D01*
X3982974Y11830558D02*
G01*
X4026661Y11716004D01*
X3955795Y11754104D02*
G01*
X4010406Y11754104D01*
X4062729Y11830558D02*
G01*
X4062729Y11716004D01*
X4062729Y11830558D02*
G01*
X4111752Y11830558D01*
X4128261Y11824970D01*
X4133595Y11819636D01*
X4139184Y11808713D01*
X4139184Y11797792D01*
X4133595Y11786870D01*
X4128261Y11781281D01*
X4111752Y11775947D01*
X4062729Y11775947D01*
X4100829Y11775947D02*
G01*
X4139184Y11716004D01*
X4174997Y11830558D02*
G01*
X4174997Y11716004D01*
X4174997Y11830558D02*
G01*
X4213352Y11830558D01*
X4229608Y11824970D01*
X4240529Y11814047D01*
X4245863Y11803126D01*
X4251452Y11786870D01*
X4251452Y11759692D01*
X4245863Y11743181D01*
X4240529Y11732260D01*
X4229608Y11721337D01*
X4213352Y11716004D01*
X4174997Y11716004D01*
X4371340Y11830558D02*
G01*
X4371340Y11716004D01*
X4407408Y11830558D02*
G01*
X4407408Y11716004D01*
X4407408Y11830558D02*
G01*
X4483861Y11716004D01*
X4483861Y11830558D02*
G01*
X4483861Y11716004D01*
X4519675Y11830558D02*
G01*
X4519675Y11716004D01*
X4519675Y11830558D02*
G01*
X4596129Y11716004D01*
X4596129Y11830558D02*
G01*
X4596129Y11716004D01*
X4632197Y11830558D02*
G01*
X4632197Y11716004D01*
X4632197Y11830558D02*
G01*
X4703063Y11830558D01*
X4632197Y11775947D02*
G01*
X4675886Y11775947D01*
X4632197Y11716004D02*
G01*
X4703063Y11716004D01*
X4739131Y11830558D02*
G01*
X4739131Y11716004D01*
X4739131Y11830558D02*
G01*
X4788154Y11830558D01*
X4804409Y11824970D01*
X4809997Y11819636D01*
X4815331Y11808713D01*
X4815331Y11797792D01*
X4809997Y11786870D01*
X4804409Y11781281D01*
X4788154Y11775947D01*
X4739131Y11775947D01*
X4777231Y11775947D02*
G01*
X4815331Y11716004D01*
X5011674Y11814047D02*
G01*
X5000752Y11824970D01*
X4984495Y11830558D01*
X4962652Y11830558D01*
X4946395Y11824970D01*
X4935474Y11814047D01*
X4935474Y11803126D01*
X4940808Y11792204D01*
X4946395Y11786870D01*
X4957318Y11781281D01*
X4990084Y11770613D01*
X5000752Y11765026D01*
X5006340Y11759692D01*
X5011674Y11748770D01*
X5011674Y11732260D01*
X5000752Y11721337D01*
X4984495Y11716004D01*
X4962652Y11716004D01*
X4946395Y11721337D01*
X4935474Y11732260D01*
X5047741Y11830558D02*
G01*
X5047741Y11716004D01*
X5047741Y11830558D02*
G01*
X5096763Y11830558D01*
X5113274Y11824970D01*
X5118608Y11819636D01*
X5124195Y11808713D01*
X5124195Y11792204D01*
X5118608Y11781281D01*
X5113274Y11775947D01*
X5096763Y11770613D01*
X5047741Y11770613D01*
X5203697Y11830558D02*
G01*
X5160263Y11716004D01*
X5203697Y11830558D02*
G01*
X5247386Y11716004D01*
X5176520Y11754104D02*
G01*
X5231129Y11754104D01*
X5365241Y11803126D02*
G01*
X5359908Y11814047D01*
X5348986Y11824970D01*
X5338063Y11830558D01*
X5316220Y11830558D01*
X5305297Y11824970D01*
X5294375Y11814047D01*
X5288788Y11803126D01*
X5283454Y11786870D01*
X5283454Y11759692D01*
X5288788Y11743181D01*
X5294375Y11732260D01*
X5305297Y11721337D01*
X5316220Y11716004D01*
X5338063Y11716004D01*
X5348986Y11721337D01*
X5359908Y11732260D01*
X5365241Y11743181D01*
X5401309Y11830558D02*
G01*
X5401309Y11716004D01*
X5401309Y11830558D02*
G01*
X5472175Y11830558D01*
X5401309Y11775947D02*
G01*
X5444997Y11775947D01*
X5401309Y11716004D02*
G01*
X5472175Y11716004D01*
X5508243Y11830558D02*
G01*
X5508243Y11716004D01*
X5508243Y11830558D02*
G01*
X5557265Y11830558D01*
X5573522Y11824970D01*
X5579109Y11819636D01*
X5584443Y11808713D01*
X5584443Y11797792D01*
X5579109Y11786870D01*
X5573522Y11781281D01*
X5557265Y11775947D01*
X5508243Y11775947D01*
X5546343Y11775947D02*
G01*
X5584443Y11716004D01*
X5704586Y11830558D02*
G01*
X5748274Y11716004D01*
X5791708Y11830558D02*
G01*
X5748274Y11716004D01*
X5827775Y11808713D02*
G01*
X5838697Y11814047D01*
X5854954Y11830558D01*
X5854954Y11716004D01*
X5896609Y11743181D02*
G01*
X5891022Y11737847D01*
X5896609Y11732260D01*
X5901943Y11737847D01*
X5896609Y11743181D01*
X5943345Y11803126D02*
G01*
X5943345Y11808713D01*
X5948934Y11819636D01*
X5954268Y11824970D01*
X5965190Y11830558D01*
X5987034Y11830558D01*
X5997956Y11824970D01*
X6003543Y11819636D01*
X6008877Y11808713D01*
X6008877Y11797792D01*
X6003543Y11786870D01*
X5992622Y11770613D01*
X5938011Y11716004D01*
X6014211Y11716004D01*
X6134354Y11765026D02*
G01*
X6232397Y11765026D01*
X6352540Y11830558D02*
G01*
X6352540Y11716004D01*
X6352540Y11830558D02*
G01*
X6423406Y11830558D01*
X6352540Y11775947D02*
G01*
X6396227Y11775947D01*
X6459474Y11830558D02*
G01*
X6459474Y11716004D01*
X6459474Y11830558D02*
G01*
X6508495Y11830558D01*
X6524752Y11824970D01*
X6530340Y11819636D01*
X6535674Y11808713D01*
X6535674Y11797792D01*
X6530340Y11786870D01*
X6524752Y11781281D01*
X6508495Y11775947D01*
X6459474Y11775947D01*
X6497574Y11775947D02*
G01*
X6535674Y11716004D01*
X6604508Y11830558D02*
G01*
X6593586Y11824970D01*
X6582663Y11814047D01*
X6577329Y11803126D01*
X6571741Y11786870D01*
X6571741Y11759692D01*
X6577329Y11743181D01*
X6582663Y11732260D01*
X6593586Y11721337D01*
X6604508Y11716004D01*
X6626352Y11716004D01*
X6637274Y11721337D01*
X6648195Y11732260D01*
X6653529Y11743181D01*
X6659118Y11759692D01*
X6659118Y11786870D01*
X6653529Y11803126D01*
X6648195Y11814047D01*
X6637274Y11824970D01*
X6626352Y11830558D01*
X6604508Y11830558D01*
X6694931Y11830558D02*
G01*
X6694931Y11716004D01*
X6694931Y11830558D02*
G01*
X6771386Y11716004D01*
X6771386Y11830558D02*
G01*
X6771386Y11716004D01*
X6845554Y11830558D02*
G01*
X6845554Y11716004D01*
X6807454Y11830558D02*
G01*
X6883908Y11830558D01*
D12*
X800150Y7649971D02*
G01*
X1028750Y7649971D01*
X914450Y7459471D01*
X800150Y7649971D01*
X8118934Y7453729D02*
G01*
X8347534Y7453729D01*
X8233234Y7644229D01*
X8118934Y7453729D01*
X8347534Y5205829D02*
G01*
X8118934Y5205829D01*
X8233234Y5015329D01*
X8347534Y5205829D01*
X1028750Y5021071D02*
G01*
X800150Y5021071D01*
X914450Y5211571D01*
X1028750Y5021071D01*
X485851Y7230897D02*
G01*
X1335862Y7230897D01*
X1335862Y5430901D01*
X485851Y5430901D01*
X485851Y7230897D01*
X7804632Y7225156D02*
G01*
X8654643Y7225156D01*
X8654643Y5425160D01*
X7804632Y5425160D01*
X7804632Y7225156D01*
X489432Y2907156D02*
G01*
X1339443Y2907156D01*
X1339443Y1107160D01*
X489432Y1107160D01*
X489432Y2907156D01*
X7808188Y2904870D02*
G01*
X8658199Y2904870D01*
X8658199Y1104874D01*
X7808188Y1104874D01*
X7808188Y2904870D01*
X1834261Y11561571D02*
G01*
X2781350Y11561571D01*
X2781350Y1083284D01*
X1834261Y1083284D01*
X1834261Y11561571D01*
X2794050Y11561571D02*
G01*
X6349466Y11561571D01*
X6349466Y1083284D01*
X2794050Y1083284D01*
X2794050Y11561571D01*
X6362750Y11561571D02*
G01*
X7318171Y11561571D01*
X7318171Y1083284D01*
X6362750Y1083284D01*
X6362750Y11561571D01*
M02*
