G04 Layer: TopLayer*
G04 EasyEDA v6.5.34, 2023-08-21 18:11:39*
G04 c862416320f94afeacbf5464a4b7dd8e,5a6b42c53f6a479593ecc07194224c93,10*
G04 Gerber Generator version 0.2*
G04 Scale: 100 percent, Rotated: No, Reflected: No *
G04 Dimensions in millimeters *
G04 leading zeros omitted , absolute positions ,4 integer and 5 decimal *
%FSLAX45Y45*%
%MOMM*%

%AMMACRO1*21,1,$1,$2,0,0,$3*%
%ADD10C,0.2540*%
%ADD11C,0.5000*%
%ADD12C,0.6350*%
%ADD13MACRO1,1.524X1.524X0.0000*%
%ADD14C,1.5240*%
%ADD15MACRO1,1.7X1.7X90.0000*%
%ADD16C,1.7000*%
%ADD17R,1.7000X1.7000*%
%ADD18C,2.0000*%
%ADD19C,3.0000*%
%ADD20C,0.0159*%

%LPD*%
G36*
X299567Y902208D02*
G01*
X295656Y902969D01*
X292404Y905205D01*
X290169Y908456D01*
X289407Y912368D01*
X279958Y11901932D01*
X280720Y11905792D01*
X282905Y11909094D01*
X286207Y11911330D01*
X290118Y11912092D01*
X8853932Y11912092D01*
X8857843Y11911330D01*
X8861094Y11909094D01*
X8863330Y11905843D01*
X8864092Y11901932D01*
X8864092Y912368D01*
X8863330Y908456D01*
X8861094Y905205D01*
X8857843Y902969D01*
X8853932Y902208D01*
G37*

%LPC*%
G36*
X1412240Y11684000D02*
G01*
X1574800Y11684000D01*
X1574800Y11846712D01*
X1555953Y11844324D01*
X1538325Y11840210D01*
X1521256Y11834215D01*
X1504848Y11826544D01*
X1489303Y11817248D01*
X1474825Y11806377D01*
X1461516Y11794083D01*
X1449578Y11780469D01*
X1439113Y11765686D01*
X1430172Y11749938D01*
X1422908Y11733326D01*
X1417421Y11716105D01*
X1413713Y11698376D01*
G37*
G36*
X7543800Y954887D02*
G01*
X7543800Y1117600D01*
X7381189Y1117600D01*
X7382713Y1103223D01*
X7386421Y1085494D01*
X7391908Y1068273D01*
X7399172Y1051661D01*
X7408062Y1035913D01*
X7418578Y1021130D01*
X7430516Y1007516D01*
X7443825Y995222D01*
X7458303Y984351D01*
X7473848Y975055D01*
X7490206Y967384D01*
X7507325Y961440D01*
X7524953Y957275D01*
G37*
G36*
X1600200Y955090D02*
G01*
X1610106Y955852D01*
X1627886Y959103D01*
X1645310Y964184D01*
X1662074Y970991D01*
X1678076Y979525D01*
X1693062Y989634D01*
X1706981Y1001217D01*
X1719630Y1014171D01*
X1730857Y1028395D01*
X1740560Y1043686D01*
X1748688Y1059891D01*
X1755089Y1076807D01*
X1759661Y1094333D01*
X1762455Y1112215D01*
X1762760Y1117600D01*
X1600200Y1117600D01*
G37*
G36*
X7569200Y955090D02*
G01*
X7579055Y955852D01*
X7596886Y959103D01*
X7614259Y964184D01*
X7631074Y970991D01*
X7647025Y979525D01*
X7662062Y989634D01*
X7675981Y1001217D01*
X7688630Y1014171D01*
X7699857Y1028395D01*
X7709560Y1043686D01*
X7717688Y1059891D01*
X7724038Y1076807D01*
X7728661Y1094333D01*
X7731455Y1112215D01*
X7731759Y1117600D01*
X7569200Y1117600D01*
G37*
G36*
X1829358Y1043787D02*
G01*
X7328204Y1043787D01*
X7334554Y1044549D01*
X7339990Y1046429D01*
X7344918Y1049528D01*
X7348981Y1053592D01*
X7352080Y1058519D01*
X7353960Y1063955D01*
X7354722Y1070305D01*
X7354722Y7888630D01*
X7355484Y7892542D01*
X7357668Y7895844D01*
X7360970Y7898028D01*
X7364882Y7898790D01*
X8702446Y7896656D01*
X8708745Y7897317D01*
X8714232Y7899247D01*
X8719159Y7902295D01*
X8723223Y7906410D01*
X8726322Y7911287D01*
X8728252Y7916722D01*
X8728964Y7923123D01*
X8728964Y9304477D01*
X8728252Y9310725D01*
X8726373Y9316161D01*
X8723325Y9321088D01*
X8719210Y9325203D01*
X8714333Y9328302D01*
X8708898Y9330232D01*
X8702548Y9330944D01*
X7960817Y9333128D01*
X7956956Y9333890D01*
X7953654Y9336125D01*
X7951470Y9339376D01*
X7950708Y9343288D01*
X7950708Y11416741D01*
X7949996Y11423040D01*
X7948066Y11428526D01*
X7945018Y11433403D01*
X7940903Y11437518D01*
X7936026Y11440566D01*
X7930540Y11442496D01*
X7924241Y11443208D01*
X7364882Y11443208D01*
X7360970Y11443970D01*
X7357668Y11446205D01*
X7355484Y11449456D01*
X7354722Y11453368D01*
X7354722Y11569141D01*
X7353960Y11575440D01*
X7352080Y11580926D01*
X7348981Y11585803D01*
X7344918Y11589918D01*
X7339990Y11592966D01*
X7334554Y11594896D01*
X7328204Y11595608D01*
X4833061Y11595608D01*
X4829200Y11596370D01*
X4825898Y11598605D01*
X4823663Y11601856D01*
X4822901Y11605768D01*
X4822901Y11720322D01*
X4822190Y11726672D01*
X4820310Y11732107D01*
X4817211Y11737035D01*
X4813096Y11741099D01*
X4808220Y11744198D01*
X4802733Y11746077D01*
X4796434Y11746788D01*
X4347565Y11746788D01*
X4341266Y11746077D01*
X4335780Y11744198D01*
X4330903Y11741099D01*
X4326788Y11737035D01*
X4323740Y11732107D01*
X4321810Y11726672D01*
X4321098Y11720322D01*
X4321098Y11605768D01*
X4320336Y11601856D01*
X4318101Y11598605D01*
X4314799Y11596370D01*
X4310938Y11595608D01*
X1829358Y11595608D01*
X1823059Y11594896D01*
X1817573Y11592966D01*
X1812696Y11589918D01*
X1808581Y11585803D01*
X1805533Y11580926D01*
X1803603Y11575440D01*
X1802892Y11569141D01*
X1802892Y10282936D01*
X1802130Y10279075D01*
X1799894Y10275773D01*
X1796643Y10273588D01*
X1792732Y10272776D01*
X1675688Y10272776D01*
X1669338Y10272064D01*
X1664614Y10270439D01*
X1660804Y10269880D01*
X1657045Y10270744D01*
X1653946Y10272979D01*
X1651863Y10276230D01*
X1651101Y10280040D01*
X1651101Y11239296D01*
X1650898Y11243919D01*
X1650339Y11248339D01*
X1649374Y11252657D01*
X1648053Y11256924D01*
X1646326Y11260988D01*
X1644294Y11264950D01*
X1641906Y11268710D01*
X1639214Y11272215D01*
X1636064Y11275669D01*
X1572869Y11338864D01*
X1569415Y11342014D01*
X1565910Y11344706D01*
X1562150Y11347094D01*
X1558188Y11349126D01*
X1554124Y11350853D01*
X1549857Y11352174D01*
X1545539Y11353139D01*
X1541119Y11353698D01*
X1536496Y11353901D01*
X1416456Y11353901D01*
X1412595Y11354663D01*
X1409293Y11356898D01*
X1407058Y11360200D01*
X1406296Y11364061D01*
X1406296Y11387429D01*
X1405585Y11393728D01*
X1403705Y11399215D01*
X1400606Y11404092D01*
X1396492Y11408206D01*
X1391615Y11411305D01*
X1386128Y11413185D01*
X1379829Y11413896D01*
X1210970Y11413896D01*
X1204671Y11413185D01*
X1199184Y11411305D01*
X1194308Y11408206D01*
X1190193Y11404092D01*
X1187094Y11399215D01*
X1185214Y11393728D01*
X1184503Y11387429D01*
X1184503Y11218570D01*
X1185214Y11212271D01*
X1187094Y11206784D01*
X1190193Y11201908D01*
X1194308Y11197793D01*
X1199184Y11194694D01*
X1204671Y11192814D01*
X1210970Y11192103D01*
X1379829Y11192103D01*
X1386128Y11192814D01*
X1391615Y11194694D01*
X1396492Y11197793D01*
X1400606Y11201908D01*
X1403705Y11206784D01*
X1405585Y11212271D01*
X1406296Y11218570D01*
X1406296Y11241938D01*
X1407058Y11245799D01*
X1409293Y11249101D01*
X1412595Y11251336D01*
X1416456Y11252098D01*
X1511401Y11252098D01*
X1515313Y11251336D01*
X1518564Y11249101D01*
X1546301Y11221364D01*
X1548536Y11218113D01*
X1549298Y11214201D01*
X1549298Y9766198D01*
X1548536Y9762286D01*
X1546301Y9759035D01*
X1518564Y9731298D01*
X1515313Y9729063D01*
X1511401Y9728301D01*
X584098Y9728301D01*
X580186Y9729063D01*
X576935Y9731298D01*
X561898Y9746335D01*
X559663Y9749586D01*
X558901Y9753498D01*
X558901Y9812070D01*
X559460Y9815423D01*
X561086Y9818370D01*
X563626Y9820656D01*
X568553Y9823805D01*
X578967Y9832594D01*
X588111Y9842754D01*
X595833Y9853980D01*
X601980Y9866122D01*
X606450Y9879025D01*
X609193Y9892385D01*
X610108Y9906000D01*
X609193Y9919614D01*
X606450Y9932974D01*
X601980Y9945878D01*
X595833Y9958019D01*
X588111Y9969246D01*
X578967Y9979406D01*
X568553Y9988194D01*
X557072Y9995509D01*
X544677Y10001250D01*
X531672Y10005314D01*
X518210Y10007549D01*
X504596Y10008006D01*
X491032Y10006685D01*
X477774Y10003485D01*
X465023Y9998608D01*
X453085Y9992055D01*
X442112Y9983978D01*
X432308Y9974478D01*
X423824Y9963759D01*
X416864Y9952024D01*
X411581Y9939477D01*
X407974Y9926320D01*
X406146Y9912807D01*
X406146Y9899192D01*
X407974Y9885680D01*
X411581Y9872522D01*
X416864Y9859975D01*
X423824Y9848240D01*
X432308Y9837521D01*
X442112Y9828022D01*
X452983Y9820046D01*
X455168Y9817811D01*
X456590Y9814966D01*
X457098Y9811867D01*
X457098Y9728403D01*
X457301Y9723780D01*
X457860Y9719360D01*
X458825Y9715042D01*
X460146Y9710775D01*
X461873Y9706711D01*
X463905Y9702749D01*
X466293Y9698990D01*
X468985Y9695484D01*
X472135Y9692030D01*
X522630Y9641535D01*
X526084Y9638385D01*
X529590Y9635693D01*
X533349Y9633305D01*
X537311Y9631273D01*
X541375Y9629546D01*
X545642Y9628225D01*
X549960Y9627260D01*
X554380Y9626701D01*
X559003Y9626498D01*
X1536496Y9626498D01*
X1541119Y9626701D01*
X1545539Y9627260D01*
X1549857Y9628225D01*
X1554124Y9629546D01*
X1558188Y9631273D01*
X1562150Y9633305D01*
X1565910Y9635693D01*
X1569415Y9638385D01*
X1572869Y9641535D01*
X1636064Y9704730D01*
X1639214Y9708184D01*
X1641906Y9711690D01*
X1644294Y9715449D01*
X1646326Y9719411D01*
X1648053Y9723475D01*
X1649374Y9727742D01*
X1650339Y9732060D01*
X1650898Y9736480D01*
X1651101Y9741103D01*
X1651101Y9763760D01*
X1651863Y9767519D01*
X1653946Y9770770D01*
X1657045Y9773005D01*
X1660804Y9773920D01*
X1664614Y9773361D01*
X1669338Y9771684D01*
X1675688Y9770973D01*
X1792732Y9770973D01*
X1796643Y9770211D01*
X1799894Y9768027D01*
X1802130Y9764725D01*
X1802892Y9760813D01*
X1802892Y6582968D01*
X1802130Y6579057D01*
X1799894Y6575755D01*
X1796643Y6573570D01*
X1792732Y6572808D01*
X1675688Y6572808D01*
X1669338Y6572097D01*
X1663903Y6570167D01*
X1658975Y6567119D01*
X1654911Y6563004D01*
X1651812Y6558127D01*
X1649882Y6552641D01*
X1649171Y6546342D01*
X1649171Y6485382D01*
X1648409Y6481572D01*
X1646275Y6478270D01*
X1643024Y6476034D01*
X1639163Y6475222D01*
X1635302Y6475933D01*
X1632000Y6478066D01*
X1629765Y6481267D01*
X1625803Y6490157D01*
X1618437Y6502349D01*
X1609598Y6513423D01*
X1599387Y6523329D01*
X1588008Y6531813D01*
X1575612Y6538772D01*
X1562455Y6544106D01*
X1548688Y6547713D01*
X1540205Y6548831D01*
X1540205Y6451600D01*
X1639011Y6451600D01*
X1642922Y6450838D01*
X1646224Y6448602D01*
X1648409Y6445300D01*
X1649171Y6441440D01*
X1649171Y6436360D01*
X1648409Y6432448D01*
X1646224Y6429146D01*
X1642922Y6426962D01*
X1639011Y6426200D01*
X1540205Y6426200D01*
X1540205Y6328816D01*
X1541678Y6328918D01*
X1555648Y6331610D01*
X1569110Y6336080D01*
X1581912Y6342278D01*
X1593799Y6350000D01*
X1604619Y6359245D01*
X1614170Y6369761D01*
X1622298Y6381394D01*
X1628901Y6393992D01*
X1629511Y6395669D01*
X1631594Y6399072D01*
X1634896Y6401409D01*
X1638807Y6402273D01*
X1642770Y6401612D01*
X1646123Y6399428D01*
X1648409Y6396075D01*
X1649171Y6392113D01*
X1649171Y6231382D01*
X1648409Y6227572D01*
X1646275Y6224270D01*
X1643024Y6222034D01*
X1639163Y6221222D01*
X1635302Y6221933D01*
X1632000Y6224066D01*
X1629765Y6227267D01*
X1625803Y6236157D01*
X1618437Y6248349D01*
X1609598Y6259423D01*
X1599387Y6269329D01*
X1588008Y6277813D01*
X1575612Y6284772D01*
X1562455Y6290106D01*
X1548688Y6293713D01*
X1540205Y6294831D01*
X1540205Y6197600D01*
X1639011Y6197600D01*
X1642922Y6196838D01*
X1646224Y6194602D01*
X1648409Y6191300D01*
X1649171Y6187440D01*
X1649171Y6182360D01*
X1648409Y6178448D01*
X1646224Y6175146D01*
X1642922Y6172962D01*
X1639011Y6172200D01*
X1540205Y6172200D01*
X1540205Y6074816D01*
X1541678Y6074918D01*
X1555648Y6077610D01*
X1569110Y6082080D01*
X1581912Y6088278D01*
X1593799Y6096000D01*
X1604619Y6105245D01*
X1614170Y6115761D01*
X1622298Y6127394D01*
X1628901Y6139992D01*
X1629511Y6141669D01*
X1631594Y6145072D01*
X1634896Y6147409D01*
X1638807Y6148273D01*
X1642770Y6147612D01*
X1646123Y6145428D01*
X1648409Y6142075D01*
X1649171Y6138113D01*
X1649171Y6097473D01*
X1649882Y6091123D01*
X1651812Y6085687D01*
X1654911Y6080760D01*
X1658975Y6076696D01*
X1663903Y6073597D01*
X1669338Y6071717D01*
X1675688Y6071006D01*
X1792732Y6071006D01*
X1796643Y6070193D01*
X1799894Y6068009D01*
X1802130Y6064707D01*
X1802892Y6060846D01*
X1802892Y2882950D01*
X1802130Y2879090D01*
X1799894Y2875788D01*
X1796643Y2873603D01*
X1792732Y2872790D01*
X1675688Y2872790D01*
X1669338Y2872079D01*
X1663903Y2870200D01*
X1658975Y2867101D01*
X1654911Y2863037D01*
X1651812Y2858109D01*
X1649882Y2852674D01*
X1649171Y2846324D01*
X1649171Y2434132D01*
X1648409Y2430272D01*
X1646275Y2426970D01*
X1643024Y2424785D01*
X1639163Y2423972D01*
X1635302Y2424684D01*
X1632000Y2426766D01*
X1629765Y2430018D01*
X1625803Y2438908D01*
X1618437Y2451049D01*
X1609598Y2462174D01*
X1599387Y2472029D01*
X1588008Y2480513D01*
X1575612Y2487523D01*
X1562455Y2492857D01*
X1548688Y2496464D01*
X1534617Y2498242D01*
X1520393Y2498242D01*
X1506321Y2496464D01*
X1492554Y2492857D01*
X1479397Y2487523D01*
X1467002Y2480513D01*
X1455623Y2472029D01*
X1445412Y2462174D01*
X1433728Y2447544D01*
X1430731Y2445867D01*
X1427327Y2445258D01*
X803656Y2445258D01*
X800201Y2445867D01*
X797204Y2447544D01*
X794918Y2450185D01*
X792988Y2453386D01*
X783640Y2465324D01*
X772871Y2476093D01*
X760882Y2485491D01*
X747877Y2493314D01*
X734009Y2499563D01*
X719531Y2504084D01*
X704545Y2506827D01*
X689406Y2507742D01*
X674217Y2506827D01*
X659282Y2504084D01*
X644753Y2499563D01*
X630885Y2493314D01*
X617880Y2485491D01*
X605891Y2476093D01*
X595172Y2465324D01*
X585774Y2453386D01*
X577900Y2440381D01*
X571703Y2426512D01*
X567182Y2411984D01*
X564438Y2397048D01*
X563524Y2381859D01*
X564438Y2366670D01*
X567182Y2351735D01*
X571703Y2337206D01*
X577900Y2323388D01*
X585774Y2310333D01*
X595172Y2298395D01*
X605891Y2287625D01*
X617880Y2278278D01*
X630885Y2270404D01*
X644804Y2264156D01*
X647954Y2261920D01*
X650087Y2258669D01*
X650798Y2254859D01*
X650087Y2251049D01*
X647954Y2247849D01*
X644804Y2245614D01*
X630885Y2239314D01*
X617880Y2231491D01*
X605891Y2222093D01*
X595172Y2211324D01*
X585774Y2199386D01*
X577900Y2186381D01*
X571703Y2172512D01*
X567182Y2157984D01*
X564438Y2143048D01*
X563524Y2127859D01*
X564438Y2112670D01*
X567182Y2097735D01*
X571703Y2083206D01*
X577900Y2069388D01*
X585774Y2056333D01*
X595172Y2044395D01*
X605891Y2033625D01*
X617880Y2024278D01*
X630885Y2016404D01*
X644804Y2010156D01*
X647954Y2007920D01*
X650087Y2004669D01*
X650798Y2000859D01*
X650087Y1997049D01*
X647954Y1993849D01*
X644804Y1991614D01*
X630885Y1985314D01*
X617880Y1977491D01*
X605891Y1968093D01*
X595172Y1957324D01*
X585774Y1945386D01*
X577900Y1932381D01*
X571703Y1918512D01*
X567182Y1903984D01*
X564438Y1889048D01*
X563524Y1873859D01*
X564438Y1858670D01*
X567182Y1843735D01*
X571703Y1829206D01*
X577900Y1815388D01*
X585774Y1802333D01*
X595172Y1790395D01*
X605891Y1779625D01*
X617880Y1770278D01*
X630885Y1762404D01*
X644804Y1756156D01*
X647954Y1753920D01*
X650087Y1750669D01*
X650798Y1746859D01*
X650087Y1743049D01*
X647954Y1739849D01*
X644804Y1737614D01*
X630885Y1731314D01*
X617880Y1723491D01*
X605891Y1714093D01*
X595172Y1703324D01*
X585774Y1691386D01*
X577900Y1678381D01*
X571703Y1664512D01*
X567182Y1649984D01*
X564438Y1635048D01*
X564286Y1632559D01*
X676706Y1632559D01*
X676706Y1737969D01*
X677468Y1741830D01*
X679653Y1745132D01*
X682955Y1747316D01*
X686866Y1748129D01*
X691946Y1748129D01*
X695807Y1747316D01*
X699109Y1745132D01*
X701294Y1741830D01*
X702106Y1737969D01*
X702106Y1632559D01*
X814527Y1632559D01*
X814374Y1635048D01*
X811631Y1649984D01*
X807110Y1664512D01*
X800862Y1678381D01*
X792988Y1691386D01*
X783640Y1703324D01*
X772871Y1714093D01*
X760882Y1723491D01*
X747877Y1731314D01*
X733958Y1737614D01*
X730808Y1739849D01*
X728726Y1743049D01*
X727964Y1746859D01*
X728726Y1750669D01*
X730808Y1753920D01*
X733958Y1756156D01*
X747877Y1762404D01*
X760882Y1770278D01*
X772871Y1779625D01*
X783640Y1790395D01*
X792988Y1802333D01*
X801116Y1815947D01*
X803351Y1819097D01*
X806602Y1821230D01*
X810412Y1821942D01*
X1427480Y1821942D01*
X1430680Y1821434D01*
X1433576Y1819910D01*
X1435811Y1817573D01*
X1440789Y1810461D01*
X1450340Y1799945D01*
X1461160Y1790750D01*
X1473098Y1782978D01*
X1485900Y1776831D01*
X1499362Y1772361D01*
X1513332Y1769618D01*
X1527505Y1768703D01*
X1541678Y1769618D01*
X1555648Y1772361D01*
X1569110Y1776831D01*
X1581912Y1782978D01*
X1593799Y1790750D01*
X1604619Y1799945D01*
X1614170Y1810461D01*
X1622298Y1822094D01*
X1628901Y1834692D01*
X1633778Y1848053D01*
X1636979Y1861921D01*
X1638350Y1876043D01*
X1637893Y1890268D01*
X1635607Y1904288D01*
X1631543Y1917903D01*
X1625803Y1930907D01*
X1618437Y1943049D01*
X1609598Y1954174D01*
X1599387Y1964029D01*
X1588008Y1972513D01*
X1575612Y1979523D01*
X1562455Y1984857D01*
X1548688Y1988464D01*
X1534617Y1990242D01*
X1520393Y1990242D01*
X1506321Y1988464D01*
X1492554Y1984857D01*
X1479397Y1979523D01*
X1467002Y1972513D01*
X1455623Y1964029D01*
X1445412Y1954174D01*
X1433728Y1939543D01*
X1430731Y1937867D01*
X1427327Y1937257D01*
X803656Y1937257D01*
X800201Y1937867D01*
X797204Y1939543D01*
X794918Y1942185D01*
X792988Y1945386D01*
X783640Y1957324D01*
X772871Y1968093D01*
X760882Y1977491D01*
X747877Y1985314D01*
X733958Y1991614D01*
X730808Y1993849D01*
X728726Y1997049D01*
X727964Y2000859D01*
X728726Y2004669D01*
X730808Y2007920D01*
X733958Y2010156D01*
X747877Y2016404D01*
X760882Y2024278D01*
X772871Y2033625D01*
X783640Y2044395D01*
X792988Y2056333D01*
X801116Y2069947D01*
X803351Y2073097D01*
X806602Y2075230D01*
X810412Y2075942D01*
X1427480Y2075942D01*
X1430680Y2075434D01*
X1433576Y2073910D01*
X1435811Y2071573D01*
X1440789Y2064461D01*
X1450340Y2053945D01*
X1461160Y2044750D01*
X1473098Y2036978D01*
X1485900Y2030831D01*
X1499362Y2026361D01*
X1513332Y2023618D01*
X1527505Y2022703D01*
X1541678Y2023618D01*
X1555648Y2026361D01*
X1569110Y2030831D01*
X1581912Y2036978D01*
X1593799Y2044750D01*
X1604619Y2053945D01*
X1614170Y2064461D01*
X1622298Y2076094D01*
X1628901Y2088692D01*
X1633778Y2102053D01*
X1636979Y2115921D01*
X1638350Y2130044D01*
X1637893Y2144268D01*
X1635607Y2158288D01*
X1631543Y2171903D01*
X1625803Y2184908D01*
X1618437Y2197049D01*
X1609598Y2208174D01*
X1599387Y2218029D01*
X1588008Y2226513D01*
X1575612Y2233523D01*
X1562455Y2238857D01*
X1548688Y2242464D01*
X1534617Y2244242D01*
X1520393Y2244242D01*
X1506321Y2242464D01*
X1492554Y2238857D01*
X1479397Y2233523D01*
X1467002Y2226513D01*
X1455623Y2218029D01*
X1445412Y2208174D01*
X1433728Y2193544D01*
X1430731Y2191867D01*
X1427327Y2191258D01*
X803656Y2191258D01*
X800201Y2191867D01*
X797204Y2193544D01*
X794918Y2196185D01*
X792988Y2199386D01*
X783640Y2211324D01*
X772871Y2222093D01*
X760882Y2231491D01*
X747877Y2239314D01*
X733958Y2245614D01*
X730808Y2247849D01*
X728726Y2251049D01*
X727964Y2254859D01*
X728726Y2258669D01*
X730808Y2261920D01*
X733958Y2264156D01*
X747877Y2270404D01*
X760882Y2278278D01*
X772871Y2287625D01*
X783640Y2298395D01*
X792988Y2310333D01*
X801116Y2323947D01*
X803351Y2327097D01*
X806602Y2329230D01*
X810412Y2329942D01*
X1427480Y2329942D01*
X1430680Y2329434D01*
X1433576Y2327910D01*
X1435811Y2325573D01*
X1440789Y2318461D01*
X1450340Y2307945D01*
X1461160Y2298750D01*
X1473098Y2290978D01*
X1485900Y2284831D01*
X1499362Y2280361D01*
X1513332Y2277618D01*
X1527505Y2276703D01*
X1541678Y2277618D01*
X1555648Y2280361D01*
X1569110Y2284831D01*
X1581912Y2290978D01*
X1593799Y2298750D01*
X1604619Y2307945D01*
X1614170Y2318461D01*
X1622298Y2330094D01*
X1628901Y2342692D01*
X1633778Y2356053D01*
X1636979Y2369921D01*
X1637436Y2374747D01*
X1638503Y2378405D01*
X1640839Y2381402D01*
X1644091Y2383332D01*
X1647850Y2383942D01*
X1651558Y2383078D01*
X1654708Y2380945D01*
X1658975Y2376678D01*
X1663903Y2373630D01*
X1669338Y2371699D01*
X1675688Y2370988D01*
X1792732Y2370988D01*
X1796643Y2370226D01*
X1799894Y2368042D01*
X1802130Y2364740D01*
X1802892Y2360828D01*
X1802892Y1070305D01*
X1803603Y1063955D01*
X1805533Y1058519D01*
X1808581Y1053592D01*
X1812696Y1049528D01*
X1817573Y1046429D01*
X1823059Y1044549D01*
G37*
G36*
X7569200Y1143000D02*
G01*
X7731759Y1143000D01*
X7731455Y1148384D01*
X7728661Y1166266D01*
X7724038Y1183792D01*
X7717688Y1200759D01*
X7709560Y1216964D01*
X7699857Y1232204D01*
X7688630Y1246428D01*
X7675981Y1259382D01*
X7662062Y1271016D01*
X7647025Y1281125D01*
X7631074Y1289608D01*
X7614259Y1296416D01*
X7596886Y1301496D01*
X7579055Y1304747D01*
X7569200Y1305509D01*
G37*
G36*
X1600200Y1143000D02*
G01*
X1762760Y1143000D01*
X1762455Y1148384D01*
X1759661Y1166266D01*
X1755089Y1183792D01*
X1748688Y1200759D01*
X1740560Y1216964D01*
X1730857Y1232204D01*
X1719630Y1246428D01*
X1706981Y1259382D01*
X1693062Y1271016D01*
X1678076Y1281125D01*
X1662074Y1289608D01*
X1645310Y1296416D01*
X1627886Y1301496D01*
X1610106Y1304747D01*
X1600200Y1305509D01*
G37*
G36*
X7381189Y1143000D02*
G01*
X7543800Y1143000D01*
X7543800Y1305712D01*
X7524953Y1303324D01*
X7507325Y1299210D01*
X7490206Y1293215D01*
X7473848Y1285544D01*
X7458303Y1276248D01*
X7443825Y1265377D01*
X7430516Y1253083D01*
X7418578Y1239469D01*
X7408062Y1224686D01*
X7399172Y1208938D01*
X7391908Y1192326D01*
X7386421Y1175105D01*
X7382713Y1157376D01*
G37*
G36*
X1412240Y1143000D02*
G01*
X1574800Y1143000D01*
X1574800Y1305712D01*
X1555953Y1303324D01*
X1538325Y1299210D01*
X1521256Y1293215D01*
X1504848Y1285544D01*
X1489303Y1276248D01*
X1474825Y1265377D01*
X1461516Y1253083D01*
X1449578Y1239469D01*
X1439113Y1224686D01*
X1430172Y1208938D01*
X1422908Y1192326D01*
X1417421Y1175105D01*
X1413713Y1157376D01*
G37*
G36*
X914400Y1156411D02*
G01*
X928217Y1157325D01*
X941781Y1160018D01*
X954938Y1164488D01*
X967333Y1170584D01*
X978865Y1178306D01*
X989279Y1187450D01*
X998423Y1197864D01*
X1006094Y1209344D01*
X1012240Y1221790D01*
X1016660Y1234897D01*
X1019403Y1248460D01*
X1020267Y1262278D01*
X1019403Y1276146D01*
X1016660Y1289710D01*
X1012240Y1302816D01*
X1006094Y1315262D01*
X998423Y1326743D01*
X989279Y1337157D01*
X978865Y1346301D01*
X967333Y1354023D01*
X954938Y1360119D01*
X941781Y1364589D01*
X928217Y1367282D01*
X914400Y1368196D01*
X900582Y1367282D01*
X887018Y1364589D01*
X873861Y1360119D01*
X861466Y1354023D01*
X849934Y1346301D01*
X839520Y1337157D01*
X830376Y1326743D01*
X822706Y1315262D01*
X816559Y1302816D01*
X812139Y1289710D01*
X809396Y1276146D01*
X808532Y1262278D01*
X809396Y1248460D01*
X812139Y1234897D01*
X816559Y1221790D01*
X822706Y1209344D01*
X830376Y1197864D01*
X839520Y1187450D01*
X849934Y1178306D01*
X861466Y1170584D01*
X873861Y1164488D01*
X887018Y1160018D01*
X900582Y1157325D01*
G37*
G36*
X8233156Y1157630D02*
G01*
X8246973Y1158494D01*
X8260537Y1161237D01*
X8273643Y1165656D01*
X8286089Y1171803D01*
X8297570Y1179474D01*
X8307984Y1188618D01*
X8317128Y1199032D01*
X8324850Y1210564D01*
X8330946Y1222959D01*
X8335416Y1236116D01*
X8338108Y1249680D01*
X8339023Y1263497D01*
X8338108Y1277315D01*
X8335416Y1290878D01*
X8330946Y1304036D01*
X8324850Y1316431D01*
X8317128Y1327962D01*
X8307984Y1338376D01*
X8297570Y1347520D01*
X8286089Y1355191D01*
X8273643Y1361338D01*
X8260537Y1365758D01*
X8246973Y1368501D01*
X8233156Y1369364D01*
X8219287Y1368501D01*
X8205724Y1365758D01*
X8192617Y1361338D01*
X8180171Y1355191D01*
X8168690Y1347520D01*
X8158276Y1338376D01*
X8149132Y1327962D01*
X8141411Y1316431D01*
X8135315Y1304036D01*
X8130844Y1290878D01*
X8128152Y1277315D01*
X8127238Y1263497D01*
X8128152Y1249680D01*
X8130844Y1236116D01*
X8135315Y1222959D01*
X8141411Y1210564D01*
X8149132Y1199032D01*
X8158276Y1188618D01*
X8168690Y1179474D01*
X8180171Y1171803D01*
X8192617Y1165656D01*
X8205724Y1161237D01*
X8219287Y1158494D01*
G37*
G36*
X702106Y1494739D02*
G01*
X704545Y1494891D01*
X719531Y1497634D01*
X734009Y1502156D01*
X747877Y1508404D01*
X760882Y1516278D01*
X772871Y1525625D01*
X783640Y1536395D01*
X792988Y1548333D01*
X800862Y1561388D01*
X807110Y1575206D01*
X811631Y1589735D01*
X814374Y1604670D01*
X814527Y1607159D01*
X702106Y1607159D01*
G37*
G36*
X676706Y1494739D02*
G01*
X676706Y1607159D01*
X564286Y1607159D01*
X564438Y1604670D01*
X567182Y1589735D01*
X571703Y1575206D01*
X577900Y1561388D01*
X585774Y1548333D01*
X595172Y1536395D01*
X605891Y1525625D01*
X617880Y1516278D01*
X630885Y1508404D01*
X644753Y1502156D01*
X659282Y1497634D01*
X674217Y1494891D01*
G37*
G36*
X8470849Y1495907D02*
G01*
X8473287Y1496060D01*
X8488273Y1498803D01*
X8502802Y1503324D01*
X8516620Y1509572D01*
X8529624Y1517446D01*
X8541613Y1526794D01*
X8552383Y1537563D01*
X8561730Y1549501D01*
X8569604Y1562506D01*
X8575852Y1576374D01*
X8580374Y1590903D01*
X8583117Y1605838D01*
X8583269Y1608328D01*
X8470849Y1608328D01*
G37*
G36*
X8445449Y1495907D02*
G01*
X8445449Y1608328D01*
X8333028Y1608328D01*
X8333181Y1605838D01*
X8335924Y1590903D01*
X8340445Y1576374D01*
X8346643Y1562506D01*
X8354517Y1549501D01*
X8363915Y1537563D01*
X8374634Y1526794D01*
X8386622Y1517446D01*
X8399627Y1509572D01*
X8413496Y1503324D01*
X8428024Y1498803D01*
X8442960Y1496060D01*
G37*
G36*
X1540205Y1514703D02*
G01*
X1611934Y1514703D01*
X1618234Y1515414D01*
X1623720Y1517294D01*
X1628597Y1520393D01*
X1632712Y1524508D01*
X1635760Y1529384D01*
X1637690Y1534871D01*
X1638401Y1541170D01*
X1638401Y1612900D01*
X1540205Y1612900D01*
G37*
G36*
X7572756Y1514703D02*
G01*
X7644485Y1514703D01*
X7650784Y1515414D01*
X7656271Y1517294D01*
X7661148Y1520393D01*
X7665262Y1524457D01*
X7668310Y1529384D01*
X7670241Y1534820D01*
X7670952Y1541170D01*
X7670952Y1612900D01*
X7572756Y1612900D01*
G37*
G36*
X1443075Y1514703D02*
G01*
X1514805Y1514703D01*
X1514805Y1612900D01*
X1416608Y1612900D01*
X1416608Y1541170D01*
X1417320Y1534871D01*
X1419199Y1529384D01*
X1422298Y1524508D01*
X1426362Y1520393D01*
X1431290Y1517294D01*
X1436725Y1515414D01*
G37*
G36*
X7475626Y1514703D02*
G01*
X7547356Y1514703D01*
X7547356Y1612900D01*
X7449108Y1612900D01*
X7449108Y1541170D01*
X7449820Y1534820D01*
X7451750Y1529384D01*
X7454849Y1524457D01*
X7458913Y1520393D01*
X7463840Y1517294D01*
X7469276Y1515414D01*
G37*
G36*
X8460689Y11684000D02*
G01*
X8623300Y11684000D01*
X8623300Y11846712D01*
X8604453Y11844324D01*
X8586825Y11840210D01*
X8569706Y11834215D01*
X8553348Y11826544D01*
X8537803Y11817248D01*
X8523325Y11806377D01*
X8510016Y11794083D01*
X8498078Y11780469D01*
X8487562Y11765686D01*
X8478672Y11749938D01*
X8471408Y11733326D01*
X8465921Y11716105D01*
X8462213Y11698376D01*
G37*
G36*
X1600200Y11684000D02*
G01*
X1762760Y11684000D01*
X1762455Y11689384D01*
X1759661Y11707266D01*
X1755089Y11724792D01*
X1748688Y11741759D01*
X1740611Y11757964D01*
X1730857Y11773204D01*
X1719630Y11787428D01*
X1706981Y11800382D01*
X1693062Y11812016D01*
X1678076Y11822125D01*
X1662074Y11830608D01*
X1645310Y11837416D01*
X1627886Y11842496D01*
X1610106Y11845747D01*
X1600200Y11846509D01*
G37*
G36*
X8333028Y1633728D02*
G01*
X8445449Y1633728D01*
X8445449Y1739138D01*
X8446211Y1742998D01*
X8448395Y1746300D01*
X8451697Y1748485D01*
X8455609Y1749298D01*
X8460689Y1749298D01*
X8464550Y1748485D01*
X8467852Y1746300D01*
X8470087Y1742998D01*
X8470849Y1739138D01*
X8470849Y1633728D01*
X8583269Y1633728D01*
X8583117Y1636217D01*
X8580374Y1651152D01*
X8575852Y1665681D01*
X8569604Y1679549D01*
X8561730Y1692554D01*
X8552383Y1704492D01*
X8541613Y1715262D01*
X8529624Y1724660D01*
X8516620Y1732483D01*
X8502700Y1738782D01*
X8499551Y1741017D01*
X8497468Y1744218D01*
X8496706Y1748028D01*
X8497468Y1751838D01*
X8499551Y1755089D01*
X8502700Y1757273D01*
X8516620Y1763572D01*
X8529624Y1771446D01*
X8541613Y1780793D01*
X8552383Y1791563D01*
X8561730Y1803501D01*
X8569604Y1816506D01*
X8575852Y1830374D01*
X8580374Y1844903D01*
X8583117Y1859838D01*
X8584031Y1875028D01*
X8583117Y1890217D01*
X8580374Y1905152D01*
X8575852Y1919681D01*
X8569604Y1933549D01*
X8561730Y1946554D01*
X8552383Y1958492D01*
X8541613Y1969262D01*
X8529624Y1978660D01*
X8516620Y1986483D01*
X8502700Y1992782D01*
X8499551Y1995017D01*
X8497468Y1998218D01*
X8496706Y2002028D01*
X8497468Y2005838D01*
X8499551Y2009089D01*
X8502700Y2011273D01*
X8516620Y2017572D01*
X8529624Y2025446D01*
X8541613Y2034793D01*
X8552383Y2045563D01*
X8561730Y2057501D01*
X8569604Y2070506D01*
X8575852Y2084374D01*
X8580374Y2098903D01*
X8583117Y2113838D01*
X8584031Y2129028D01*
X8583117Y2144217D01*
X8580374Y2159152D01*
X8575852Y2173681D01*
X8569604Y2187549D01*
X8561730Y2200554D01*
X8552383Y2212492D01*
X8541613Y2223262D01*
X8529624Y2232660D01*
X8516620Y2240483D01*
X8502700Y2246782D01*
X8499551Y2249017D01*
X8497468Y2252218D01*
X8496706Y2256028D01*
X8497468Y2259838D01*
X8499551Y2263089D01*
X8502700Y2265273D01*
X8516620Y2271572D01*
X8529624Y2279446D01*
X8541613Y2288794D01*
X8552383Y2299563D01*
X8561730Y2311501D01*
X8569604Y2324506D01*
X8575852Y2338374D01*
X8580374Y2352903D01*
X8583117Y2367838D01*
X8584031Y2383028D01*
X8583117Y2398217D01*
X8580374Y2413152D01*
X8575852Y2427681D01*
X8569604Y2441549D01*
X8561730Y2454554D01*
X8552383Y2466492D01*
X8541613Y2477262D01*
X8529624Y2486660D01*
X8516620Y2494483D01*
X8502802Y2500731D01*
X8488273Y2505252D01*
X8473287Y2507996D01*
X8458149Y2508910D01*
X8442960Y2507996D01*
X8428024Y2505252D01*
X8413496Y2500731D01*
X8399627Y2494483D01*
X8386622Y2486660D01*
X8374634Y2477262D01*
X8363915Y2466492D01*
X8354517Y2454554D01*
X8351875Y2450185D01*
X8349589Y2447544D01*
X8346592Y2445867D01*
X8343188Y2445258D01*
X7660182Y2445258D01*
X7656779Y2445867D01*
X7653781Y2447544D01*
X7642098Y2462123D01*
X7631938Y2472029D01*
X7620508Y2480513D01*
X7608163Y2487523D01*
X7594955Y2492857D01*
X7581239Y2496413D01*
X7567117Y2498242D01*
X7552944Y2498242D01*
X7538821Y2496413D01*
X7525105Y2492857D01*
X7511897Y2487523D01*
X7499553Y2480513D01*
X7488174Y2472029D01*
X7477963Y2462123D01*
X7469073Y2451049D01*
X7461707Y2438908D01*
X7455966Y2425903D01*
X7451902Y2412288D01*
X7449667Y2398217D01*
X7449210Y2384044D01*
X7450581Y2369921D01*
X7453731Y2356053D01*
X7458659Y2342692D01*
X7465212Y2330094D01*
X7473340Y2318461D01*
X7482890Y2307945D01*
X7493711Y2298750D01*
X7505598Y2290978D01*
X7518400Y2284831D01*
X7531912Y2280310D01*
X7545831Y2277618D01*
X7560056Y2276703D01*
X7574229Y2277618D01*
X7588148Y2280310D01*
X7601661Y2284831D01*
X7614462Y2290978D01*
X7626350Y2298750D01*
X7637170Y2307945D01*
X7646720Y2318461D01*
X7651699Y2325573D01*
X7653985Y2327910D01*
X7656830Y2329434D01*
X7660030Y2329942D01*
X8337651Y2329942D01*
X8341055Y2329332D01*
X8344103Y2327656D01*
X8346338Y2325014D01*
X8354517Y2311501D01*
X8363915Y2299563D01*
X8374634Y2288794D01*
X8386622Y2279446D01*
X8399627Y2271572D01*
X8413546Y2265273D01*
X8416696Y2263089D01*
X8418830Y2259838D01*
X8419541Y2256028D01*
X8418830Y2252218D01*
X8416696Y2249017D01*
X8413546Y2246782D01*
X8399627Y2240483D01*
X8386622Y2232660D01*
X8374634Y2223262D01*
X8363915Y2212492D01*
X8354517Y2200554D01*
X8351875Y2196185D01*
X8349589Y2193544D01*
X8346592Y2191867D01*
X8343188Y2191258D01*
X7660182Y2191258D01*
X7656779Y2191867D01*
X7653781Y2193544D01*
X7642098Y2208123D01*
X7631938Y2218029D01*
X7620508Y2226513D01*
X7608163Y2233523D01*
X7594955Y2238857D01*
X7581239Y2242413D01*
X7567117Y2244242D01*
X7552944Y2244242D01*
X7538821Y2242413D01*
X7525105Y2238857D01*
X7511897Y2233523D01*
X7499553Y2226513D01*
X7488174Y2218029D01*
X7477963Y2208123D01*
X7469073Y2197049D01*
X7461707Y2184908D01*
X7455966Y2171903D01*
X7451902Y2158288D01*
X7449667Y2144217D01*
X7449210Y2130044D01*
X7450581Y2115921D01*
X7453731Y2102053D01*
X7458659Y2088692D01*
X7465212Y2076094D01*
X7473340Y2064461D01*
X7482890Y2053945D01*
X7493711Y2044750D01*
X7505598Y2036978D01*
X7518400Y2030831D01*
X7531912Y2026310D01*
X7545831Y2023618D01*
X7560056Y2022703D01*
X7574229Y2023618D01*
X7588148Y2026310D01*
X7601661Y2030831D01*
X7614462Y2036978D01*
X7626350Y2044750D01*
X7637170Y2053945D01*
X7646720Y2064461D01*
X7651699Y2071573D01*
X7653985Y2073910D01*
X7656830Y2075434D01*
X7660030Y2075942D01*
X8337651Y2075942D01*
X8341055Y2075332D01*
X8344103Y2073656D01*
X8346338Y2071014D01*
X8354517Y2057501D01*
X8363915Y2045563D01*
X8374634Y2034793D01*
X8386622Y2025446D01*
X8399627Y2017572D01*
X8413546Y2011273D01*
X8416696Y2009089D01*
X8418830Y2005838D01*
X8419541Y2002028D01*
X8418830Y1998218D01*
X8416696Y1995017D01*
X8413546Y1992782D01*
X8399627Y1986483D01*
X8386622Y1978660D01*
X8374634Y1969262D01*
X8363915Y1958492D01*
X8354517Y1946554D01*
X8351875Y1942185D01*
X8349589Y1939543D01*
X8346592Y1937867D01*
X8343188Y1937257D01*
X7660182Y1937257D01*
X7656779Y1937867D01*
X7653781Y1939543D01*
X7642098Y1954123D01*
X7631938Y1964029D01*
X7620508Y1972513D01*
X7608163Y1979523D01*
X7594955Y1984857D01*
X7581239Y1988413D01*
X7567117Y1990242D01*
X7552944Y1990242D01*
X7538821Y1988413D01*
X7525105Y1984857D01*
X7511897Y1979523D01*
X7499553Y1972513D01*
X7488174Y1964029D01*
X7477963Y1954123D01*
X7469073Y1943049D01*
X7461707Y1930907D01*
X7455966Y1917903D01*
X7451902Y1904288D01*
X7449667Y1890217D01*
X7449210Y1876043D01*
X7450581Y1861921D01*
X7453731Y1848053D01*
X7458659Y1834692D01*
X7465212Y1822094D01*
X7473340Y1810461D01*
X7482890Y1799945D01*
X7493711Y1790750D01*
X7505598Y1782978D01*
X7518400Y1776831D01*
X7531912Y1772310D01*
X7545831Y1769618D01*
X7560056Y1768703D01*
X7574229Y1769618D01*
X7588148Y1772310D01*
X7601661Y1776831D01*
X7614462Y1782978D01*
X7626350Y1790750D01*
X7637170Y1799945D01*
X7646720Y1810461D01*
X7651699Y1817573D01*
X7653985Y1819910D01*
X7656830Y1821434D01*
X7660030Y1821942D01*
X8337651Y1821942D01*
X8341055Y1821332D01*
X8344103Y1819656D01*
X8346338Y1817014D01*
X8354517Y1803501D01*
X8363915Y1791563D01*
X8374634Y1780793D01*
X8386622Y1771446D01*
X8399627Y1763572D01*
X8413546Y1757273D01*
X8416696Y1755089D01*
X8418830Y1751838D01*
X8419541Y1748028D01*
X8418830Y1744218D01*
X8416696Y1741017D01*
X8413546Y1738782D01*
X8399627Y1732483D01*
X8386622Y1724660D01*
X8374634Y1715262D01*
X8363915Y1704492D01*
X8354517Y1692554D01*
X8346643Y1679549D01*
X8340445Y1665681D01*
X8335924Y1651152D01*
X8333181Y1636217D01*
G37*
G36*
X8648700Y11684000D02*
G01*
X8811260Y11684000D01*
X8810955Y11689384D01*
X8808161Y11707266D01*
X8803538Y11724792D01*
X8797188Y11741759D01*
X8789060Y11757964D01*
X8779357Y11773204D01*
X8768130Y11787428D01*
X8755481Y11800382D01*
X8741562Y11812016D01*
X8726525Y11822125D01*
X8710574Y11830608D01*
X8693759Y11837416D01*
X8676386Y11842496D01*
X8658555Y11845747D01*
X8648700Y11846509D01*
G37*
G36*
X7572756Y1638300D02*
G01*
X7670952Y1638300D01*
X7670952Y1710029D01*
X7670241Y1716328D01*
X7668310Y1721815D01*
X7665262Y1726692D01*
X7661148Y1730806D01*
X7656271Y1733854D01*
X7650784Y1735785D01*
X7644485Y1736496D01*
X7572756Y1736496D01*
G37*
G36*
X1540205Y1638300D02*
G01*
X1638401Y1638300D01*
X1638401Y1710029D01*
X1637690Y1716328D01*
X1635760Y1721815D01*
X1632712Y1726692D01*
X1628597Y1730806D01*
X1623720Y1733905D01*
X1618234Y1735785D01*
X1611934Y1736496D01*
X1540205Y1736496D01*
G37*
G36*
X1416608Y1638300D02*
G01*
X1514805Y1638300D01*
X1514805Y1736496D01*
X1443075Y1736496D01*
X1436725Y1735785D01*
X1431290Y1733905D01*
X1426362Y1730806D01*
X1422298Y1726692D01*
X1419199Y1721815D01*
X1417320Y1716328D01*
X1416608Y1710029D01*
G37*
G36*
X7449108Y1638300D02*
G01*
X7547356Y1638300D01*
X7547356Y1736496D01*
X7475626Y1736496D01*
X7469276Y1735785D01*
X7463840Y1733854D01*
X7458913Y1730806D01*
X7454849Y1726692D01*
X7451750Y1721815D01*
X7449820Y1716328D01*
X7449108Y1710029D01*
G37*
G36*
X8648700Y11496090D02*
G01*
X8658555Y11496852D01*
X8676386Y11500104D01*
X8693759Y11505184D01*
X8710574Y11511991D01*
X8726525Y11520525D01*
X8741562Y11530634D01*
X8755481Y11542217D01*
X8768130Y11555171D01*
X8779357Y11569395D01*
X8789060Y11584686D01*
X8797188Y11600891D01*
X8803538Y11617807D01*
X8808161Y11635333D01*
X8810955Y11653215D01*
X8811260Y11658600D01*
X8648700Y11658600D01*
G37*
G36*
X1600200Y11496090D02*
G01*
X1610106Y11496852D01*
X1627886Y11500104D01*
X1645310Y11505184D01*
X1662074Y11511991D01*
X1678076Y11520525D01*
X1693062Y11530634D01*
X1706981Y11542217D01*
X1719630Y11555171D01*
X1730857Y11569395D01*
X1740611Y11584686D01*
X1748688Y11600891D01*
X1755089Y11617807D01*
X1759661Y11635333D01*
X1762455Y11653215D01*
X1762760Y11658600D01*
X1600200Y11658600D01*
G37*
G36*
X8623300Y11495887D02*
G01*
X8623300Y11658600D01*
X8460689Y11658600D01*
X8462213Y11644223D01*
X8465921Y11626494D01*
X8471408Y11609273D01*
X8478672Y11592661D01*
X8487562Y11576913D01*
X8498078Y11562130D01*
X8510016Y11548516D01*
X8523325Y11536222D01*
X8537803Y11525351D01*
X8553348Y11516055D01*
X8569706Y11508384D01*
X8586825Y11502440D01*
X8604453Y11498275D01*
G37*
G36*
X1574800Y11495887D02*
G01*
X1574800Y11658600D01*
X1412240Y11658600D01*
X1413713Y11644223D01*
X1417421Y11626494D01*
X1422908Y11609273D01*
X1430172Y11592661D01*
X1439113Y11576913D01*
X1449578Y11562130D01*
X1461516Y11548516D01*
X1474825Y11536222D01*
X1489303Y11525351D01*
X1504848Y11516055D01*
X1521256Y11508384D01*
X1538325Y11502440D01*
X1555953Y11498275D01*
G37*
G36*
X546100Y11061700D02*
G01*
X643432Y11061700D01*
X641502Y11073688D01*
X637438Y11087303D01*
X631698Y11100308D01*
X624332Y11112449D01*
X615492Y11123574D01*
X605282Y11133429D01*
X593902Y11141964D01*
X581507Y11148923D01*
X568350Y11154257D01*
X554583Y11157864D01*
X546100Y11158931D01*
G37*
G36*
X546100Y10938916D02*
G01*
X547573Y10939018D01*
X561543Y10941761D01*
X575005Y10946231D01*
X587806Y10952378D01*
X599694Y10960150D01*
X610514Y10969345D01*
X620064Y10979861D01*
X628192Y10991545D01*
X634796Y11004143D01*
X639673Y11017453D01*
X642874Y11031321D01*
X643331Y11036300D01*
X546100Y11036300D01*
G37*
G36*
X546100Y10553700D02*
G01*
X643432Y10553700D01*
X641502Y10565688D01*
X637438Y10579303D01*
X631698Y10592308D01*
X624332Y10604449D01*
X615492Y10615574D01*
X605282Y10625429D01*
X593902Y10633964D01*
X581507Y10640923D01*
X568350Y10646257D01*
X554583Y10649864D01*
X546100Y10650931D01*
G37*
G36*
X546100Y10430916D02*
G01*
X547573Y10431018D01*
X561543Y10433761D01*
X575005Y10438231D01*
X587806Y10444378D01*
X599694Y10452150D01*
X610514Y10461345D01*
X620064Y10471861D01*
X628192Y10483545D01*
X634796Y10496143D01*
X639673Y10509453D01*
X642874Y10523321D01*
X643331Y10528300D01*
X546100Y10528300D01*
G37*
G36*
X504596Y10057993D02*
G01*
X518210Y10058450D01*
X531672Y10060686D01*
X544677Y10064750D01*
X557072Y10070490D01*
X568553Y10077805D01*
X578967Y10086594D01*
X588111Y10096754D01*
X595833Y10107980D01*
X601980Y10120122D01*
X606450Y10133025D01*
X609193Y10146385D01*
X610108Y10160000D01*
X609193Y10173614D01*
X606450Y10186974D01*
X601980Y10199878D01*
X595833Y10212019D01*
X588111Y10223246D01*
X578967Y10233406D01*
X568553Y10242194D01*
X557072Y10249509D01*
X544677Y10255250D01*
X531672Y10259314D01*
X518210Y10261549D01*
X504596Y10262006D01*
X491032Y10260685D01*
X487121Y10259720D01*
X483666Y10259517D01*
X480364Y10260431D01*
X477570Y10262412D01*
X422198Y10317835D01*
X419963Y10321086D01*
X419201Y10324998D01*
X419201Y10479176D01*
X420166Y10483545D01*
X422960Y10487050D01*
X426974Y10489082D01*
X431393Y10489133D01*
X435508Y10487304D01*
X438556Y10483545D01*
X446684Y10471861D01*
X456234Y10461345D01*
X467055Y10452150D01*
X478993Y10444378D01*
X491794Y10438231D01*
X505256Y10433761D01*
X519226Y10431018D01*
X520700Y10430916D01*
X520700Y10528300D01*
X429361Y10528300D01*
X425500Y10529062D01*
X422198Y10531297D01*
X419963Y10534599D01*
X419201Y10538460D01*
X419201Y10543540D01*
X419963Y10547451D01*
X422198Y10550753D01*
X425500Y10552938D01*
X429361Y10553700D01*
X520700Y10553700D01*
X520700Y10650931D01*
X512216Y10649864D01*
X498449Y10646257D01*
X485292Y10640923D01*
X472897Y10633964D01*
X461518Y10625429D01*
X451307Y10615574D01*
X442468Y10604449D01*
X438048Y10597235D01*
X435051Y10594035D01*
X430987Y10592460D01*
X426618Y10592714D01*
X422757Y10594746D01*
X420166Y10598200D01*
X419201Y10602468D01*
X419201Y10733176D01*
X420166Y10737545D01*
X422960Y10741050D01*
X426974Y10743082D01*
X431393Y10743133D01*
X435508Y10741304D01*
X438556Y10737545D01*
X446684Y10725861D01*
X456234Y10715345D01*
X467055Y10706150D01*
X478993Y10698378D01*
X491794Y10692231D01*
X505256Y10687761D01*
X519226Y10685018D01*
X533400Y10684103D01*
X547573Y10685018D01*
X561543Y10687761D01*
X575005Y10692231D01*
X587806Y10698378D01*
X599694Y10706150D01*
X610514Y10715345D01*
X620064Y10725861D01*
X631037Y10741507D01*
X634187Y10743438D01*
X637794Y10744098D01*
X685901Y10744098D01*
X689813Y10743336D01*
X693064Y10741101D01*
X708101Y10726064D01*
X710336Y10722813D01*
X711098Y10718901D01*
X711098Y10254132D01*
X710590Y10251033D01*
X709168Y10248188D01*
X706983Y10245953D01*
X696112Y10237978D01*
X686308Y10228478D01*
X677824Y10217759D01*
X670864Y10206024D01*
X665581Y10193477D01*
X661974Y10180320D01*
X660146Y10166807D01*
X660146Y10153192D01*
X661974Y10139680D01*
X665581Y10126522D01*
X670864Y10113975D01*
X677824Y10102240D01*
X686308Y10091521D01*
X696112Y10082022D01*
X707085Y10073944D01*
X719023Y10067391D01*
X731774Y10062514D01*
X745032Y10059314D01*
X758596Y10057993D01*
X772210Y10058450D01*
X785672Y10060686D01*
X798677Y10064750D01*
X811072Y10070490D01*
X822553Y10077805D01*
X832967Y10086594D01*
X842111Y10096754D01*
X849833Y10107980D01*
X855980Y10120122D01*
X860450Y10133025D01*
X863193Y10146385D01*
X864108Y10160000D01*
X863193Y10173614D01*
X860450Y10186974D01*
X855980Y10199878D01*
X849833Y10212019D01*
X842111Y10223246D01*
X832967Y10233406D01*
X822553Y10242194D01*
X817625Y10245344D01*
X815086Y10247630D01*
X813460Y10250576D01*
X812901Y10253929D01*
X812901Y10743996D01*
X812698Y10748619D01*
X812139Y10753039D01*
X811174Y10757357D01*
X809853Y10761624D01*
X808126Y10765688D01*
X806094Y10769650D01*
X803706Y10773410D01*
X801014Y10776915D01*
X797864Y10780369D01*
X747369Y10830864D01*
X743915Y10834014D01*
X740410Y10836706D01*
X736650Y10839094D01*
X732688Y10841126D01*
X728624Y10842853D01*
X724357Y10844174D01*
X720039Y10845139D01*
X715619Y10845698D01*
X710996Y10845901D01*
X637641Y10845901D01*
X634238Y10846511D01*
X631240Y10848187D01*
X628954Y10850778D01*
X624332Y10858449D01*
X615492Y10869574D01*
X605282Y10879429D01*
X593902Y10887964D01*
X581507Y10894923D01*
X568350Y10900257D01*
X554583Y10903864D01*
X540512Y10905693D01*
X526288Y10905693D01*
X512216Y10903864D01*
X498449Y10900257D01*
X485292Y10894923D01*
X472897Y10887964D01*
X461518Y10879429D01*
X451307Y10869574D01*
X442468Y10858449D01*
X438048Y10851235D01*
X435051Y10848035D01*
X430987Y10846460D01*
X426618Y10846714D01*
X422757Y10848746D01*
X420166Y10852200D01*
X419201Y10856468D01*
X419201Y10987176D01*
X420166Y10991545D01*
X422960Y10995050D01*
X426974Y10997082D01*
X431393Y10997133D01*
X435508Y10995304D01*
X438556Y10991545D01*
X446684Y10979861D01*
X456234Y10969345D01*
X467055Y10960150D01*
X478993Y10952378D01*
X491794Y10946231D01*
X505256Y10941761D01*
X519226Y10939018D01*
X520700Y10938916D01*
X520700Y11036300D01*
X429361Y11036300D01*
X425500Y11037062D01*
X422198Y11039297D01*
X419963Y11042599D01*
X419201Y11046460D01*
X419201Y11051540D01*
X419963Y11055451D01*
X422198Y11058753D01*
X425500Y11060938D01*
X429361Y11061700D01*
X520700Y11061700D01*
X520700Y11158931D01*
X512216Y11157864D01*
X498449Y11154257D01*
X485292Y11148923D01*
X471932Y11141354D01*
X468020Y11140084D01*
X463905Y11140490D01*
X460298Y11142472D01*
X457758Y11145774D01*
X456793Y11149787D01*
X457504Y11153902D01*
X459740Y11157356D01*
X495503Y11193068D01*
X498144Y11194999D01*
X501294Y11195964D01*
X504596Y11195862D01*
X519226Y11193018D01*
X533400Y11192103D01*
X547573Y11193018D01*
X561543Y11195761D01*
X575005Y11200231D01*
X587806Y11206378D01*
X599694Y11214150D01*
X610514Y11223345D01*
X620064Y11233861D01*
X628192Y11245545D01*
X634796Y11258143D01*
X639673Y11271453D01*
X642874Y11285321D01*
X644245Y11299444D01*
X643788Y11313668D01*
X641502Y11327688D01*
X637438Y11341303D01*
X631698Y11354308D01*
X624332Y11366449D01*
X615492Y11377574D01*
X605282Y11387429D01*
X593902Y11395964D01*
X581507Y11402923D01*
X568350Y11408257D01*
X554583Y11411864D01*
X540512Y11413693D01*
X526288Y11413693D01*
X512216Y11411864D01*
X498449Y11408257D01*
X485292Y11402923D01*
X472897Y11395964D01*
X461518Y11387429D01*
X451307Y11377574D01*
X442468Y11366449D01*
X435101Y11354308D01*
X429310Y11341303D01*
X425297Y11327688D01*
X423011Y11313668D01*
X422554Y11299444D01*
X423926Y11285321D01*
X426364Y11274653D01*
X426567Y11271300D01*
X425602Y11267998D01*
X423621Y11265204D01*
X332435Y11174069D01*
X329285Y11170615D01*
X326593Y11167110D01*
X324205Y11163350D01*
X322173Y11159388D01*
X320446Y11155324D01*
X319125Y11151057D01*
X318160Y11146739D01*
X317601Y11142319D01*
X317398Y11137696D01*
X317398Y10299903D01*
X317601Y10295280D01*
X318160Y10290860D01*
X319125Y10286542D01*
X320446Y10282275D01*
X322173Y10278211D01*
X324205Y10274249D01*
X326593Y10270490D01*
X329285Y10266984D01*
X332435Y10263530D01*
X405434Y10190581D01*
X407466Y10187635D01*
X408381Y10184231D01*
X406146Y10166807D01*
X406146Y10153192D01*
X407974Y10139680D01*
X411581Y10126522D01*
X416864Y10113975D01*
X423824Y10102240D01*
X432308Y10091521D01*
X442112Y10082022D01*
X453085Y10073944D01*
X465023Y10067391D01*
X477774Y10062514D01*
X491032Y10059314D01*
G37*
G36*
X1393596Y10057993D02*
G01*
X1407210Y10058450D01*
X1420672Y10060686D01*
X1433677Y10064750D01*
X1446072Y10070490D01*
X1457553Y10077805D01*
X1467967Y10086594D01*
X1477111Y10096754D01*
X1484833Y10107980D01*
X1490980Y10120122D01*
X1495450Y10133025D01*
X1498193Y10146385D01*
X1499108Y10160000D01*
X1498193Y10173614D01*
X1495450Y10186974D01*
X1490980Y10199878D01*
X1490218Y10201402D01*
X1489100Y10205466D01*
X1489760Y10209631D01*
X1492097Y10213187D01*
X1500124Y10221264D01*
X1505254Y10227462D01*
X1508810Y10234168D01*
X1510995Y10241381D01*
X1511808Y10249408D01*
X1511808Y10997692D01*
X1510995Y11005718D01*
X1508810Y11012932D01*
X1505254Y11019637D01*
X1500124Y11025835D01*
X1450035Y11075924D01*
X1443837Y11081054D01*
X1437132Y11084610D01*
X1429918Y11086795D01*
X1421892Y11087608D01*
X1405940Y11087608D01*
X1402130Y11088370D01*
X1398879Y11090452D01*
X1396644Y11093653D01*
X1393698Y11100308D01*
X1386332Y11112449D01*
X1377492Y11123574D01*
X1367282Y11133429D01*
X1355902Y11141964D01*
X1343507Y11148923D01*
X1330350Y11154257D01*
X1316583Y11157864D01*
X1302512Y11159693D01*
X1288288Y11159693D01*
X1274216Y11157864D01*
X1260449Y11154257D01*
X1247292Y11148923D01*
X1234897Y11141964D01*
X1223518Y11133429D01*
X1213307Y11123574D01*
X1204468Y11112449D01*
X1197102Y11100308D01*
X1191310Y11087303D01*
X1187297Y11073688D01*
X1185011Y11059668D01*
X1184554Y11045444D01*
X1185926Y11031321D01*
X1189075Y11017453D01*
X1194003Y11004143D01*
X1200556Y10991545D01*
X1208684Y10979861D01*
X1218234Y10969345D01*
X1229055Y10960150D01*
X1240993Y10952378D01*
X1253794Y10946231D01*
X1267256Y10941761D01*
X1281226Y10939018D01*
X1295400Y10938103D01*
X1309573Y10939018D01*
X1323543Y10941761D01*
X1337005Y10946231D01*
X1349806Y10952378D01*
X1361694Y10960150D01*
X1372514Y10969345D01*
X1382064Y10979861D01*
X1390192Y10991545D01*
X1395831Y11002314D01*
X1398168Y11005261D01*
X1401470Y11007191D01*
X1405178Y11007750D01*
X1408887Y11006886D01*
X1412036Y11004753D01*
X1431594Y10985195D01*
X1433830Y10981893D01*
X1434592Y10977981D01*
X1434592Y10269118D01*
X1433728Y10265054D01*
X1431340Y10261650D01*
X1427784Y10259517D01*
X1421333Y10259212D01*
X1407210Y10261549D01*
X1393596Y10262006D01*
X1380032Y10260685D01*
X1366774Y10257485D01*
X1354023Y10252608D01*
X1342085Y10246055D01*
X1331112Y10237978D01*
X1321308Y10228478D01*
X1312824Y10217759D01*
X1305864Y10206024D01*
X1300581Y10193477D01*
X1296974Y10180320D01*
X1295146Y10166807D01*
X1295146Y10153192D01*
X1296974Y10139680D01*
X1300581Y10126522D01*
X1305864Y10113975D01*
X1312824Y10102240D01*
X1321308Y10091521D01*
X1331112Y10082022D01*
X1342085Y10073944D01*
X1354023Y10067391D01*
X1366774Y10062514D01*
X1380032Y10059314D01*
G37*
G36*
X1139596Y10057993D02*
G01*
X1153210Y10058450D01*
X1166672Y10060686D01*
X1179677Y10064750D01*
X1192072Y10070490D01*
X1203553Y10077805D01*
X1213967Y10086594D01*
X1223111Y10096754D01*
X1230833Y10107980D01*
X1236980Y10120122D01*
X1241450Y10133025D01*
X1244193Y10146385D01*
X1245108Y10160000D01*
X1244193Y10173614D01*
X1241450Y10186974D01*
X1236980Y10199878D01*
X1230833Y10212019D01*
X1223111Y10223246D01*
X1213967Y10233406D01*
X1203553Y10242194D01*
X1192072Y10249509D01*
X1187500Y10251643D01*
X1184402Y10253878D01*
X1182319Y10257078D01*
X1181608Y10260838D01*
X1181608Y10478414D01*
X1182522Y10482580D01*
X1185011Y10486034D01*
X1188720Y10488117D01*
X1192987Y10488523D01*
X1197000Y10487152D01*
X1200099Y10484256D01*
X1208684Y10471861D01*
X1218234Y10461345D01*
X1229055Y10452150D01*
X1240993Y10444378D01*
X1253794Y10438231D01*
X1267256Y10433761D01*
X1281226Y10431018D01*
X1295400Y10430103D01*
X1309573Y10431018D01*
X1323543Y10433761D01*
X1337005Y10438231D01*
X1349806Y10444378D01*
X1361694Y10452150D01*
X1372514Y10461345D01*
X1382064Y10471861D01*
X1390192Y10483545D01*
X1396796Y10496143D01*
X1401673Y10509453D01*
X1404874Y10523321D01*
X1406245Y10537444D01*
X1405788Y10551668D01*
X1403502Y10565688D01*
X1399438Y10579303D01*
X1393698Y10592308D01*
X1386332Y10604449D01*
X1377492Y10615574D01*
X1367282Y10625429D01*
X1355902Y10633964D01*
X1343507Y10640923D01*
X1330350Y10646257D01*
X1316583Y10649864D01*
X1302512Y10651693D01*
X1288288Y10651693D01*
X1274216Y10649864D01*
X1260449Y10646257D01*
X1247292Y10640923D01*
X1234897Y10633964D01*
X1223518Y10625429D01*
X1213307Y10615574D01*
X1204468Y10604449D01*
X1197102Y10592308D01*
X1194155Y10585653D01*
X1191920Y10582452D01*
X1188669Y10580370D01*
X1184859Y10579608D01*
X1181608Y10579608D01*
X1173581Y10578795D01*
X1166368Y10576610D01*
X1159662Y10573054D01*
X1153464Y10567924D01*
X1116076Y10530535D01*
X1110945Y10524337D01*
X1107389Y10517632D01*
X1105204Y10510418D01*
X1104392Y10502392D01*
X1104392Y10260990D01*
X1103731Y10257485D01*
X1101902Y10254386D01*
X1099108Y10252100D01*
X1088085Y10246055D01*
X1077112Y10237978D01*
X1067308Y10228478D01*
X1058824Y10217759D01*
X1051864Y10206024D01*
X1046581Y10193477D01*
X1042974Y10180320D01*
X1041146Y10166807D01*
X1041146Y10153192D01*
X1042974Y10139680D01*
X1046581Y10126522D01*
X1051864Y10113975D01*
X1058824Y10102240D01*
X1067308Y10091521D01*
X1077112Y10082022D01*
X1088085Y10073944D01*
X1100023Y10067391D01*
X1112774Y10062514D01*
X1126032Y10059314D01*
G37*
G36*
X1294892Y9918700D02*
G01*
X1384300Y9918700D01*
X1384300Y10008108D01*
X1321358Y10008108D01*
X1315059Y10007396D01*
X1309573Y10005466D01*
X1304696Y10002418D01*
X1300581Y9998303D01*
X1297533Y9993426D01*
X1295603Y9987940D01*
X1294892Y9981641D01*
G37*
G36*
X1409700Y9918700D02*
G01*
X1499108Y9918700D01*
X1499108Y9981641D01*
X1498396Y9987940D01*
X1496466Y9993426D01*
X1493418Y9998303D01*
X1489303Y10002418D01*
X1484426Y10005466D01*
X1478940Y10007396D01*
X1472641Y10008108D01*
X1409700Y10008108D01*
G37*
G36*
X914400Y2633522D02*
G01*
X928217Y2634386D01*
X941781Y2637129D01*
X954938Y2641549D01*
X967333Y2647696D01*
X978865Y2655366D01*
X989279Y2664510D01*
X998423Y2674924D01*
X1006094Y2686456D01*
X1012240Y2698851D01*
X1016660Y2712008D01*
X1019403Y2725572D01*
X1020267Y2739390D01*
X1019403Y2753207D01*
X1016660Y2766771D01*
X1012240Y2779928D01*
X1006094Y2792323D01*
X998423Y2803855D01*
X989279Y2814269D01*
X978865Y2823413D01*
X967333Y2831084D01*
X954938Y2837230D01*
X941781Y2841650D01*
X928217Y2844393D01*
X914400Y2845257D01*
X900582Y2844393D01*
X887018Y2841650D01*
X873861Y2837230D01*
X861466Y2831084D01*
X849934Y2823413D01*
X839520Y2814269D01*
X830376Y2803855D01*
X822706Y2792323D01*
X816559Y2779928D01*
X812139Y2766771D01*
X809396Y2753207D01*
X808532Y2739390D01*
X809396Y2725572D01*
X812139Y2712008D01*
X816559Y2698851D01*
X822706Y2686456D01*
X830376Y2674924D01*
X839520Y2664510D01*
X849934Y2655366D01*
X861466Y2647696D01*
X873861Y2641549D01*
X887018Y2637129D01*
X900582Y2634386D01*
G37*
G36*
X8233156Y2639720D02*
G01*
X8246973Y2640584D01*
X8260537Y2643327D01*
X8273643Y2647746D01*
X8286089Y2653893D01*
X8297570Y2661564D01*
X8307984Y2670708D01*
X8317128Y2681122D01*
X8324850Y2692654D01*
X8330946Y2705049D01*
X8335416Y2718206D01*
X8338108Y2731770D01*
X8339023Y2745587D01*
X8338108Y2759405D01*
X8335416Y2772968D01*
X8330946Y2786126D01*
X8324850Y2798521D01*
X8317128Y2810052D01*
X8307984Y2820466D01*
X8297570Y2829610D01*
X8286089Y2837281D01*
X8273643Y2843428D01*
X8260537Y2847848D01*
X8246973Y2850591D01*
X8233156Y2851454D01*
X8219287Y2850591D01*
X8205724Y2847848D01*
X8192617Y2843428D01*
X8180171Y2837281D01*
X8168690Y2829610D01*
X8158276Y2820466D01*
X8149132Y2810052D01*
X8141411Y2798521D01*
X8135315Y2786126D01*
X8130844Y2772968D01*
X8128152Y2759405D01*
X8127238Y2745587D01*
X8128152Y2731770D01*
X8130844Y2718206D01*
X8135315Y2705049D01*
X8141411Y2692654D01*
X8149132Y2681122D01*
X8158276Y2670708D01*
X8168690Y2661564D01*
X8180171Y2653893D01*
X8192617Y2647746D01*
X8205724Y2643327D01*
X8219287Y2640584D01*
G37*
G36*
X445058Y3176270D02*
G01*
X1383741Y3176270D01*
X1390040Y3177032D01*
X1395526Y3178911D01*
X1400403Y3182010D01*
X1404518Y3186074D01*
X1407566Y3191002D01*
X1409496Y3196437D01*
X1410208Y3202787D01*
X1410208Y4584141D01*
X1409496Y4590440D01*
X1407566Y4595926D01*
X1404518Y4600803D01*
X1400403Y4604918D01*
X1395526Y4607966D01*
X1390040Y4609896D01*
X1383741Y4610608D01*
X445058Y4610608D01*
X438759Y4609896D01*
X433273Y4607966D01*
X428396Y4604918D01*
X424281Y4600803D01*
X421233Y4595926D01*
X419303Y4590440D01*
X418592Y4584141D01*
X418592Y3202787D01*
X419303Y3196437D01*
X421233Y3191002D01*
X424281Y3186074D01*
X428396Y3182010D01*
X433273Y3178911D01*
X438759Y3177032D01*
G37*
G36*
X7763814Y3177489D02*
G01*
X8702446Y3177489D01*
X8708796Y3178200D01*
X8714232Y3180130D01*
X8719159Y3183178D01*
X8723223Y3187293D01*
X8726322Y3192170D01*
X8728202Y3197656D01*
X8728964Y3203956D01*
X8728964Y4585309D01*
X8728202Y4591659D01*
X8726322Y4597095D01*
X8723223Y4602022D01*
X8719159Y4606086D01*
X8714232Y4609185D01*
X8708796Y4611065D01*
X8702446Y4611776D01*
X7763814Y4611776D01*
X7757464Y4611065D01*
X7752029Y4609185D01*
X7747101Y4606086D01*
X7743037Y4602022D01*
X7739938Y4597095D01*
X7738059Y4591659D01*
X7737348Y4585309D01*
X7737348Y3203956D01*
X7738059Y3197656D01*
X7739938Y3192170D01*
X7743037Y3187293D01*
X7747101Y3183178D01*
X7752029Y3180130D01*
X7757464Y3178200D01*
G37*
G36*
X1443075Y5312003D02*
G01*
X1611934Y5312003D01*
X1618234Y5312714D01*
X1623720Y5314594D01*
X1628597Y5317693D01*
X1632712Y5321757D01*
X1635760Y5326684D01*
X1637690Y5332120D01*
X1638401Y5338470D01*
X1638401Y5507329D01*
X1637690Y5513628D01*
X1635760Y5519115D01*
X1632712Y5523992D01*
X1628597Y5528106D01*
X1623720Y5531154D01*
X1618234Y5533085D01*
X1611934Y5533796D01*
X1443075Y5533796D01*
X1436725Y5533085D01*
X1431290Y5531154D01*
X1426362Y5528106D01*
X1422298Y5523992D01*
X1419199Y5519115D01*
X1417320Y5513628D01*
X1416608Y5507329D01*
X1416608Y5338470D01*
X1417320Y5332120D01*
X1419199Y5326684D01*
X1422298Y5321757D01*
X1426362Y5317693D01*
X1431290Y5314594D01*
X1436725Y5312714D01*
G37*
G36*
X7468463Y5312003D02*
G01*
X7637322Y5312003D01*
X7643622Y5312714D01*
X7649108Y5314594D01*
X7653985Y5317693D01*
X7658100Y5321757D01*
X7661198Y5326684D01*
X7663078Y5332120D01*
X7663789Y5338470D01*
X7663789Y5507329D01*
X7663078Y5513628D01*
X7661198Y5519115D01*
X7658100Y5523992D01*
X7653985Y5528106D01*
X7649108Y5531154D01*
X7643622Y5533085D01*
X7637322Y5533796D01*
X7468463Y5533796D01*
X7462164Y5533085D01*
X7456678Y5531154D01*
X7451801Y5528106D01*
X7447686Y5523992D01*
X7444587Y5519115D01*
X7442708Y5513628D01*
X7441996Y5507329D01*
X7441996Y5338470D01*
X7442708Y5332120D01*
X7444587Y5326684D01*
X7447686Y5321757D01*
X7451801Y5317693D01*
X7456678Y5314594D01*
X7462164Y5312714D01*
G37*
G36*
X8229600Y5477916D02*
G01*
X8243417Y5478780D01*
X8256981Y5481523D01*
X8270087Y5485942D01*
X8282533Y5492089D01*
X8294014Y5499760D01*
X8304428Y5508904D01*
X8313572Y5519318D01*
X8321294Y5530850D01*
X8327390Y5543245D01*
X8331860Y5556402D01*
X8334552Y5569966D01*
X8335467Y5583783D01*
X8334552Y5597601D01*
X8331860Y5611164D01*
X8327390Y5624322D01*
X8321294Y5636717D01*
X8313572Y5648248D01*
X8304428Y5658662D01*
X8294014Y5667806D01*
X8282533Y5675477D01*
X8270087Y5681624D01*
X8256981Y5686044D01*
X8243417Y5688787D01*
X8229600Y5689650D01*
X8215731Y5688787D01*
X8202168Y5686044D01*
X8189061Y5681624D01*
X8176615Y5675477D01*
X8165134Y5667806D01*
X8154720Y5658662D01*
X8145576Y5648248D01*
X8137855Y5636717D01*
X8131759Y5624322D01*
X8127288Y5611164D01*
X8124596Y5597601D01*
X8123681Y5583783D01*
X8124596Y5569966D01*
X8127288Y5556402D01*
X8131759Y5543245D01*
X8137855Y5530850D01*
X8145576Y5519318D01*
X8154720Y5508904D01*
X8165134Y5499760D01*
X8176615Y5492089D01*
X8189061Y5485942D01*
X8202168Y5481523D01*
X8215731Y5478780D01*
G37*
G36*
X910844Y5480151D02*
G01*
X924661Y5481066D01*
X938225Y5483758D01*
X951331Y5488228D01*
X963777Y5494324D01*
X975258Y5502046D01*
X985672Y5511190D01*
X994816Y5521604D01*
X1002537Y5533085D01*
X1008634Y5545531D01*
X1013104Y5558637D01*
X1015796Y5572201D01*
X1016711Y5586018D01*
X1015796Y5599887D01*
X1013104Y5613450D01*
X1008634Y5626557D01*
X1002537Y5639003D01*
X994816Y5650484D01*
X985672Y5660898D01*
X975258Y5670042D01*
X963777Y5677763D01*
X951331Y5683859D01*
X938225Y5688330D01*
X924661Y5691022D01*
X910844Y5691936D01*
X896975Y5691022D01*
X883412Y5688330D01*
X870305Y5683859D01*
X857859Y5677763D01*
X846378Y5670042D01*
X835964Y5660898D01*
X826820Y5650484D01*
X819099Y5639003D01*
X813003Y5626557D01*
X808532Y5613450D01*
X805840Y5599887D01*
X804926Y5586018D01*
X805840Y5572201D01*
X808532Y5558637D01*
X813003Y5545531D01*
X819099Y5533085D01*
X826820Y5521604D01*
X835964Y5511190D01*
X846378Y5502046D01*
X857859Y5494324D01*
X870305Y5488228D01*
X883412Y5483758D01*
X896975Y5481066D01*
G37*
G36*
X1527505Y5566003D02*
G01*
X1541678Y5566918D01*
X1555648Y5569610D01*
X1569110Y5574080D01*
X1581912Y5580278D01*
X1593799Y5588000D01*
X1604619Y5597245D01*
X1614170Y5607761D01*
X1622298Y5619394D01*
X1628901Y5631992D01*
X1633778Y5645353D01*
X1636979Y5659170D01*
X1638350Y5673344D01*
X1637893Y5687517D01*
X1635607Y5701538D01*
X1631543Y5715203D01*
X1625803Y5728157D01*
X1618437Y5740349D01*
X1609598Y5751423D01*
X1599387Y5761329D01*
X1588008Y5769813D01*
X1575612Y5776772D01*
X1562455Y5782106D01*
X1548688Y5785713D01*
X1534617Y5787542D01*
X1520393Y5787542D01*
X1506321Y5785713D01*
X1492554Y5782106D01*
X1479397Y5776772D01*
X1467002Y5769813D01*
X1455623Y5761329D01*
X1445412Y5751423D01*
X1436573Y5740349D01*
X1429207Y5728157D01*
X1423416Y5715203D01*
X1419402Y5701538D01*
X1417116Y5687517D01*
X1416659Y5673344D01*
X1418031Y5659170D01*
X1421180Y5645353D01*
X1426108Y5631992D01*
X1432661Y5619394D01*
X1440789Y5607761D01*
X1450340Y5597245D01*
X1461160Y5588000D01*
X1473098Y5580278D01*
X1485900Y5574080D01*
X1499362Y5569610D01*
X1513332Y5566918D01*
G37*
G36*
X7552893Y5566003D02*
G01*
X7567066Y5566918D01*
X7581036Y5569610D01*
X7594498Y5574080D01*
X7607300Y5580278D01*
X7619238Y5588000D01*
X7630058Y5597245D01*
X7639608Y5607761D01*
X7647736Y5619394D01*
X7654290Y5631992D01*
X7659217Y5645353D01*
X7662367Y5659170D01*
X7663738Y5673344D01*
X7663281Y5687517D01*
X7660995Y5701538D01*
X7656982Y5715203D01*
X7651191Y5728157D01*
X7643825Y5740349D01*
X7634986Y5751423D01*
X7624775Y5761329D01*
X7613396Y5769813D01*
X7601000Y5776772D01*
X7587843Y5782106D01*
X7574076Y5785713D01*
X7560005Y5787542D01*
X7545781Y5787542D01*
X7531709Y5785713D01*
X7517942Y5782106D01*
X7504785Y5776772D01*
X7492390Y5769813D01*
X7481011Y5761329D01*
X7470800Y5751423D01*
X7461961Y5740349D01*
X7454595Y5728157D01*
X7448854Y5715203D01*
X7444790Y5701538D01*
X7442504Y5687517D01*
X7442047Y5673344D01*
X7443419Y5659170D01*
X7446568Y5645353D01*
X7451496Y5631992D01*
X7458049Y5619394D01*
X7466177Y5607761D01*
X7475778Y5597245D01*
X7486548Y5588000D01*
X7498486Y5580278D01*
X7511288Y5574080D01*
X7524750Y5569610D01*
X7538720Y5566918D01*
G37*
G36*
X8454593Y5815431D02*
G01*
X8469782Y5816346D01*
X8484717Y5819089D01*
X8499246Y5823610D01*
X8513064Y5829808D01*
X8526119Y5837682D01*
X8538057Y5847080D01*
X8548827Y5857798D01*
X8558174Y5869787D01*
X8566048Y5882792D01*
X8572296Y5896660D01*
X8576818Y5911189D01*
X8579561Y5926124D01*
X8580475Y5941314D01*
X8579561Y5956452D01*
X8576818Y5971438D01*
X8572296Y5985967D01*
X8566048Y5999784D01*
X8558174Y6012789D01*
X8548827Y6024778D01*
X8538057Y6035548D01*
X8526119Y6044895D01*
X8513064Y6052769D01*
X8499144Y6059017D01*
X8495995Y6061252D01*
X8493912Y6064504D01*
X8493150Y6068314D01*
X8493912Y6072073D01*
X8495995Y6075324D01*
X8499144Y6077559D01*
X8513064Y6083808D01*
X8526119Y6091682D01*
X8538057Y6101080D01*
X8548827Y6111798D01*
X8558174Y6123787D01*
X8566048Y6136792D01*
X8572296Y6150660D01*
X8576818Y6165189D01*
X8579561Y6180124D01*
X8579713Y6182614D01*
X8467293Y6182614D01*
X8467293Y6077204D01*
X8466531Y6073343D01*
X8464296Y6070041D01*
X8460994Y6067806D01*
X8457133Y6067044D01*
X8452053Y6067044D01*
X8448141Y6067806D01*
X8444839Y6070041D01*
X8442655Y6073343D01*
X8441893Y6077204D01*
X8441893Y6182614D01*
X8329472Y6182614D01*
X8329625Y6180124D01*
X8332368Y6165189D01*
X8336889Y6150660D01*
X8343138Y6136792D01*
X8350961Y6123787D01*
X8360359Y6111798D01*
X8371078Y6101080D01*
X8383066Y6091682D01*
X8396071Y6083808D01*
X8409990Y6077559D01*
X8413140Y6075324D01*
X8415274Y6072073D01*
X8415985Y6068314D01*
X8415274Y6064504D01*
X8413140Y6061252D01*
X8409990Y6059017D01*
X8396071Y6052769D01*
X8383066Y6044895D01*
X8371078Y6035548D01*
X8360359Y6024778D01*
X8350961Y6012789D01*
X8343138Y5999784D01*
X8336889Y5985967D01*
X8333994Y5976620D01*
X8331860Y5972911D01*
X8328456Y5970371D01*
X8324291Y5969457D01*
X7663434Y5969457D01*
X7659624Y5970219D01*
X7656372Y5972352D01*
X7654137Y5975553D01*
X7651191Y5982157D01*
X7643825Y5994349D01*
X7634986Y6005423D01*
X7624775Y6015329D01*
X7613396Y6023813D01*
X7601000Y6030772D01*
X7587843Y6036106D01*
X7574076Y6039713D01*
X7560005Y6041542D01*
X7545781Y6041542D01*
X7531709Y6039713D01*
X7517942Y6036106D01*
X7504785Y6030772D01*
X7492390Y6023813D01*
X7481011Y6015329D01*
X7470800Y6005423D01*
X7461961Y5994349D01*
X7454595Y5982157D01*
X7448854Y5969203D01*
X7444790Y5955538D01*
X7442504Y5941517D01*
X7442047Y5927344D01*
X7443419Y5913170D01*
X7446568Y5899353D01*
X7451496Y5885992D01*
X7458049Y5873394D01*
X7466177Y5861761D01*
X7475778Y5851245D01*
X7486548Y5842000D01*
X7498486Y5834278D01*
X7511288Y5828080D01*
X7524750Y5823610D01*
X7538720Y5820918D01*
X7552893Y5820003D01*
X7567066Y5820918D01*
X7581036Y5823610D01*
X7594498Y5828080D01*
X7607300Y5834278D01*
X7619238Y5842000D01*
X7630058Y5851245D01*
X7639608Y5861761D01*
X7647736Y5873394D01*
X7654645Y5886805D01*
X7656931Y5889701D01*
X7660081Y5891580D01*
X7663688Y5892241D01*
X8332266Y5892241D01*
X8336076Y5891530D01*
X8339328Y5889447D01*
X8341563Y5886297D01*
X8343138Y5882792D01*
X8350961Y5869787D01*
X8360359Y5857798D01*
X8371078Y5847080D01*
X8383066Y5837682D01*
X8396071Y5829808D01*
X8409940Y5823610D01*
X8424468Y5819089D01*
X8439404Y5816346D01*
G37*
G36*
X685800Y5817717D02*
G01*
X700989Y5818632D01*
X715924Y5821375D01*
X730453Y5825896D01*
X744321Y5832144D01*
X757326Y5840018D01*
X769315Y5849366D01*
X780034Y5860135D01*
X789432Y5872073D01*
X797255Y5885129D01*
X800049Y5889447D01*
X803300Y5891530D01*
X807059Y5892241D01*
X1416710Y5892241D01*
X1420317Y5891580D01*
X1423466Y5889701D01*
X1425702Y5886805D01*
X1432661Y5873394D01*
X1440789Y5861761D01*
X1450340Y5851245D01*
X1461160Y5842000D01*
X1473098Y5834278D01*
X1485900Y5828080D01*
X1499362Y5823610D01*
X1513332Y5820918D01*
X1527505Y5820003D01*
X1541678Y5820918D01*
X1555648Y5823610D01*
X1569110Y5828080D01*
X1581912Y5834278D01*
X1593799Y5842000D01*
X1604619Y5851245D01*
X1614170Y5861761D01*
X1622298Y5873394D01*
X1628901Y5885992D01*
X1633778Y5899353D01*
X1636979Y5913170D01*
X1638350Y5927344D01*
X1637893Y5941517D01*
X1635607Y5955538D01*
X1631543Y5969203D01*
X1625803Y5982157D01*
X1618437Y5994349D01*
X1609598Y6005423D01*
X1599387Y6015329D01*
X1588008Y6023813D01*
X1575612Y6030772D01*
X1562455Y6036106D01*
X1548688Y6039713D01*
X1534617Y6041542D01*
X1520393Y6041542D01*
X1506321Y6039713D01*
X1492554Y6036106D01*
X1479397Y6030772D01*
X1467002Y6023813D01*
X1455623Y6015329D01*
X1445412Y6005423D01*
X1436573Y5994349D01*
X1429207Y5982157D01*
X1426260Y5975553D01*
X1424025Y5972352D01*
X1420774Y5970219D01*
X1416964Y5969457D01*
X816864Y5969457D01*
X812647Y5970371D01*
X809244Y5972911D01*
X807161Y5976620D01*
X803503Y5988253D01*
X797255Y6002121D01*
X789432Y6015126D01*
X780034Y6027064D01*
X769315Y6037834D01*
X757326Y6047232D01*
X744321Y6055055D01*
X730402Y6061354D01*
X727252Y6063589D01*
X725119Y6066790D01*
X724408Y6070600D01*
X725119Y6074410D01*
X727252Y6077661D01*
X730402Y6079896D01*
X744321Y6086144D01*
X757326Y6094018D01*
X769315Y6103366D01*
X780034Y6114135D01*
X789432Y6126073D01*
X797255Y6139129D01*
X803503Y6152946D01*
X808024Y6167475D01*
X810768Y6182410D01*
X810920Y6184900D01*
X698500Y6184900D01*
X698500Y6079540D01*
X697738Y6075629D01*
X695553Y6072327D01*
X692251Y6070142D01*
X688340Y6069380D01*
X683260Y6069380D01*
X679399Y6070142D01*
X676097Y6072327D01*
X673862Y6075629D01*
X673100Y6079540D01*
X673100Y6184900D01*
X560679Y6184900D01*
X560832Y6182410D01*
X563575Y6167475D01*
X568096Y6152946D01*
X574344Y6139129D01*
X582218Y6126073D01*
X591566Y6114135D01*
X602335Y6103366D01*
X614273Y6094018D01*
X627329Y6086144D01*
X641248Y6079896D01*
X644398Y6077661D01*
X646480Y6074410D01*
X647242Y6070600D01*
X646480Y6066790D01*
X644398Y6063589D01*
X641248Y6061354D01*
X627329Y6055055D01*
X614273Y6047232D01*
X602335Y6037834D01*
X591566Y6027064D01*
X582218Y6015126D01*
X574344Y6002121D01*
X568096Y5988253D01*
X563575Y5973724D01*
X560832Y5958789D01*
X559917Y5943600D01*
X560832Y5928410D01*
X563575Y5913475D01*
X568096Y5898946D01*
X574344Y5885129D01*
X582218Y5872073D01*
X591566Y5860135D01*
X602335Y5849366D01*
X614273Y5840018D01*
X627329Y5832144D01*
X641146Y5825896D01*
X655675Y5821375D01*
X670610Y5818632D01*
G37*
G36*
X1155700Y9918700D02*
G01*
X1244244Y9918700D01*
X1241450Y9932974D01*
X1236980Y9945878D01*
X1230833Y9958019D01*
X1223111Y9969246D01*
X1213967Y9979406D01*
X1203553Y9988194D01*
X1192072Y9995509D01*
X1179677Y10001250D01*
X1166672Y10005314D01*
X1155700Y10007142D01*
G37*
G36*
X1041908Y9918700D02*
G01*
X1130300Y9918700D01*
X1130300Y10007092D01*
X1126032Y10006685D01*
X1112774Y10003485D01*
X1100023Y9998608D01*
X1088085Y9992055D01*
X1077112Y9983978D01*
X1067308Y9974478D01*
X1058824Y9963759D01*
X1051864Y9952024D01*
X1046581Y9939477D01*
X1042974Y9926320D01*
G37*
G36*
X1130300Y9804908D02*
G01*
X1130300Y9893300D01*
X1041908Y9893300D01*
X1042974Y9885680D01*
X1046581Y9872522D01*
X1051864Y9859975D01*
X1058824Y9848240D01*
X1067308Y9837521D01*
X1077112Y9828022D01*
X1088085Y9819944D01*
X1100023Y9813391D01*
X1112774Y9808514D01*
X1126032Y9805314D01*
G37*
G36*
X1155700Y9804857D02*
G01*
X1166672Y9806686D01*
X1179677Y9810750D01*
X1192072Y9816490D01*
X1203553Y9823805D01*
X1213967Y9832594D01*
X1223111Y9842754D01*
X1230833Y9853980D01*
X1236980Y9866122D01*
X1241450Y9879025D01*
X1244244Y9893300D01*
X1155700Y9893300D01*
G37*
G36*
X686358Y9803892D02*
G01*
X837641Y9803892D01*
X843940Y9804603D01*
X849426Y9806533D01*
X854303Y9809581D01*
X858418Y9813696D01*
X861466Y9818573D01*
X863396Y9824059D01*
X864108Y9830358D01*
X864108Y9844938D01*
X864869Y9848748D01*
X866952Y9851999D01*
X870153Y9854234D01*
X873963Y9855098D01*
X880821Y9855301D01*
X885139Y9855860D01*
X889457Y9856825D01*
X893724Y9858146D01*
X897788Y9859873D01*
X901750Y9861905D01*
X905510Y9864293D01*
X909015Y9866985D01*
X912469Y9870135D01*
X975664Y9933330D01*
X978814Y9936784D01*
X981506Y9940290D01*
X983894Y9944049D01*
X985926Y9948011D01*
X987653Y9952075D01*
X988974Y9956342D01*
X989939Y9960660D01*
X990498Y9965080D01*
X990701Y9969703D01*
X990701Y10706201D01*
X991463Y10710113D01*
X993698Y10713364D01*
X1021435Y10741101D01*
X1024686Y10743336D01*
X1028598Y10744098D01*
X1191006Y10744098D01*
X1194612Y10743438D01*
X1197711Y10741507D01*
X1208684Y10725861D01*
X1218234Y10715345D01*
X1229055Y10706150D01*
X1240993Y10698378D01*
X1253794Y10692231D01*
X1267256Y10687761D01*
X1281226Y10685018D01*
X1295400Y10684103D01*
X1309573Y10685018D01*
X1323543Y10687761D01*
X1337005Y10692231D01*
X1349806Y10698378D01*
X1361694Y10706150D01*
X1372514Y10715345D01*
X1382064Y10725861D01*
X1390192Y10737545D01*
X1396796Y10750143D01*
X1401673Y10763453D01*
X1404874Y10777321D01*
X1406245Y10791444D01*
X1405788Y10805668D01*
X1403502Y10819688D01*
X1399438Y10833303D01*
X1393698Y10846308D01*
X1386332Y10858449D01*
X1377492Y10869574D01*
X1367282Y10879429D01*
X1355902Y10887964D01*
X1343507Y10894923D01*
X1330350Y10900257D01*
X1316583Y10903864D01*
X1302512Y10905693D01*
X1288288Y10905693D01*
X1274216Y10903864D01*
X1260449Y10900257D01*
X1247292Y10894923D01*
X1234897Y10887964D01*
X1223518Y10879429D01*
X1213307Y10869574D01*
X1204468Y10858449D01*
X1199794Y10850778D01*
X1197559Y10848187D01*
X1194511Y10846511D01*
X1191107Y10845901D01*
X1003503Y10845901D01*
X998880Y10845698D01*
X994460Y10845139D01*
X990142Y10844174D01*
X985875Y10842853D01*
X981811Y10841126D01*
X977849Y10839094D01*
X974090Y10836706D01*
X970584Y10834014D01*
X967130Y10830864D01*
X903935Y10767669D01*
X900785Y10764215D01*
X898093Y10760710D01*
X895705Y10756950D01*
X893673Y10752988D01*
X891946Y10748924D01*
X890625Y10744657D01*
X889660Y10740339D01*
X889101Y10735919D01*
X888898Y10731296D01*
X888898Y9994798D01*
X888136Y9990886D01*
X885901Y9987635D01*
X880618Y9982301D01*
X876909Y9979964D01*
X872490Y9979406D01*
X868273Y9980777D01*
X865022Y9983774D01*
X861466Y9993426D01*
X858418Y9998303D01*
X854303Y10002418D01*
X849426Y10005466D01*
X843940Y10007396D01*
X837641Y10008108D01*
X686358Y10008108D01*
X680059Y10007396D01*
X674573Y10005466D01*
X669696Y10002418D01*
X665581Y9998303D01*
X662533Y9993426D01*
X660603Y9987940D01*
X659892Y9981641D01*
X659892Y9830358D01*
X660603Y9824059D01*
X662533Y9818573D01*
X665581Y9813696D01*
X669696Y9809581D01*
X674573Y9806533D01*
X680059Y9804603D01*
G37*
G36*
X1409700Y9803892D02*
G01*
X1472641Y9803892D01*
X1478940Y9804603D01*
X1484426Y9806533D01*
X1489303Y9809581D01*
X1493418Y9813696D01*
X1496466Y9818573D01*
X1498396Y9824059D01*
X1499108Y9830358D01*
X1499108Y9893300D01*
X1409700Y9893300D01*
G37*
G36*
X1514805Y6074816D02*
G01*
X1514805Y6172200D01*
X1417574Y6172200D01*
X1418031Y6167170D01*
X1421180Y6153353D01*
X1426108Y6139992D01*
X1432661Y6127394D01*
X1440789Y6115761D01*
X1450340Y6105245D01*
X1461160Y6096000D01*
X1473098Y6088278D01*
X1485900Y6082080D01*
X1499362Y6077610D01*
X1513332Y6074918D01*
G37*
G36*
X7540193Y6074816D02*
G01*
X7540193Y6172200D01*
X7442962Y6172200D01*
X7443419Y6167170D01*
X7446568Y6153353D01*
X7451496Y6139992D01*
X7458049Y6127394D01*
X7466177Y6115761D01*
X7475778Y6105245D01*
X7486548Y6096000D01*
X7498486Y6088278D01*
X7511288Y6082080D01*
X7524750Y6077610D01*
X7538720Y6074918D01*
G37*
G36*
X7565593Y6074816D02*
G01*
X7567066Y6074918D01*
X7581036Y6077610D01*
X7594498Y6082080D01*
X7607300Y6088278D01*
X7619238Y6096000D01*
X7630058Y6105245D01*
X7639608Y6115761D01*
X7647736Y6127394D01*
X7654290Y6139992D01*
X7659217Y6153353D01*
X7662367Y6167170D01*
X7662824Y6172200D01*
X7565593Y6172200D01*
G37*
G36*
X1321358Y9803892D02*
G01*
X1384300Y9803892D01*
X1384300Y9893300D01*
X1294892Y9893300D01*
X1294892Y9830358D01*
X1295603Y9824059D01*
X1297533Y9818573D01*
X1300581Y9813696D01*
X1304696Y9809581D01*
X1309573Y9806533D01*
X1315059Y9804603D01*
G37*
G36*
X7442860Y6197600D02*
G01*
X7540193Y6197600D01*
X7540193Y6294831D01*
X7531709Y6293713D01*
X7517942Y6290106D01*
X7504785Y6284772D01*
X7492390Y6277813D01*
X7481011Y6269329D01*
X7470800Y6259423D01*
X7461961Y6248349D01*
X7454595Y6236157D01*
X7448854Y6223203D01*
X7444790Y6209538D01*
G37*
G36*
X7565593Y6197600D02*
G01*
X7662925Y6197600D01*
X7660995Y6209538D01*
X7656982Y6223203D01*
X7651191Y6236157D01*
X7643825Y6248349D01*
X7634986Y6259423D01*
X7624775Y6269329D01*
X7613396Y6277813D01*
X7601000Y6284772D01*
X7587843Y6290106D01*
X7574076Y6293713D01*
X7565593Y6294831D01*
G37*
G36*
X1417472Y6197600D02*
G01*
X1514805Y6197600D01*
X1514805Y6294831D01*
X1506321Y6293713D01*
X1492554Y6290106D01*
X1479397Y6284772D01*
X1467002Y6277813D01*
X1455623Y6269329D01*
X1445412Y6259423D01*
X1436573Y6248349D01*
X1429207Y6236157D01*
X1423416Y6223203D01*
X1419402Y6209538D01*
G37*
G36*
X8329472Y6208014D02*
G01*
X8441893Y6208014D01*
X8441893Y6436614D01*
X8329472Y6436614D01*
X8329625Y6434124D01*
X8332368Y6419189D01*
X8336889Y6404660D01*
X8343138Y6390792D01*
X8350961Y6377787D01*
X8360359Y6365798D01*
X8371078Y6355080D01*
X8383066Y6345682D01*
X8396071Y6337808D01*
X8409990Y6331559D01*
X8413140Y6329324D01*
X8415274Y6326073D01*
X8415985Y6322314D01*
X8415274Y6318504D01*
X8413140Y6315252D01*
X8409990Y6313017D01*
X8396071Y6306769D01*
X8383066Y6298895D01*
X8371078Y6289548D01*
X8360359Y6278778D01*
X8350961Y6266789D01*
X8343138Y6253784D01*
X8336889Y6239967D01*
X8332368Y6225438D01*
X8329625Y6210452D01*
G37*
G36*
X8467293Y6208014D02*
G01*
X8579713Y6208014D01*
X8579561Y6210452D01*
X8576818Y6225438D01*
X8572296Y6239967D01*
X8566048Y6253784D01*
X8558174Y6266789D01*
X8548827Y6278778D01*
X8538057Y6289548D01*
X8526119Y6298895D01*
X8513064Y6306769D01*
X8499144Y6313017D01*
X8495995Y6315252D01*
X8493912Y6318504D01*
X8493150Y6322314D01*
X8493912Y6326073D01*
X8495995Y6329324D01*
X8499144Y6331559D01*
X8513064Y6337808D01*
X8526119Y6345682D01*
X8538057Y6355080D01*
X8548827Y6365798D01*
X8558174Y6377787D01*
X8566048Y6390792D01*
X8572296Y6404660D01*
X8576818Y6419189D01*
X8579561Y6434124D01*
X8579713Y6436614D01*
X8467293Y6436614D01*
G37*
G36*
X1574800Y954887D02*
G01*
X1574800Y1117600D01*
X1412240Y1117600D01*
X1413713Y1103223D01*
X1417421Y1085494D01*
X1422908Y1068273D01*
X1430172Y1051661D01*
X1439113Y1035913D01*
X1449578Y1021130D01*
X1461516Y1007516D01*
X1474825Y995222D01*
X1489303Y984351D01*
X1504848Y975055D01*
X1521256Y967384D01*
X1538325Y961440D01*
X1555953Y957275D01*
G37*
G36*
X560679Y6210300D02*
G01*
X673100Y6210300D01*
X673100Y6438900D01*
X560679Y6438900D01*
X560832Y6436410D01*
X563575Y6421475D01*
X568096Y6406946D01*
X574344Y6393129D01*
X582218Y6380073D01*
X591566Y6368135D01*
X602335Y6357366D01*
X614273Y6348018D01*
X627329Y6340144D01*
X641248Y6333896D01*
X644398Y6331661D01*
X646480Y6328410D01*
X647242Y6324600D01*
X646480Y6320790D01*
X644398Y6317589D01*
X641248Y6315354D01*
X627329Y6309055D01*
X614273Y6301232D01*
X602335Y6291834D01*
X591566Y6281064D01*
X582218Y6269126D01*
X574344Y6256121D01*
X568096Y6242253D01*
X563575Y6227724D01*
X560832Y6212789D01*
G37*
G36*
X445058Y7898892D02*
G01*
X1383741Y7898892D01*
X1390040Y7899603D01*
X1395526Y7901533D01*
X1400403Y7904581D01*
X1404518Y7908696D01*
X1407566Y7913573D01*
X1409496Y7919059D01*
X1410208Y7925358D01*
X1410208Y9306712D01*
X1409496Y9313062D01*
X1407566Y9318498D01*
X1404518Y9323425D01*
X1400403Y9327489D01*
X1395526Y9330588D01*
X1390040Y9332468D01*
X1383741Y9333179D01*
X445058Y9333179D01*
X438759Y9332468D01*
X433273Y9330588D01*
X428396Y9327489D01*
X424281Y9323425D01*
X421233Y9318498D01*
X419303Y9313062D01*
X418592Y9306712D01*
X418592Y7925358D01*
X419303Y7919059D01*
X421233Y7913573D01*
X424281Y7908696D01*
X428396Y7904581D01*
X433273Y7901533D01*
X438759Y7899603D01*
G37*
G36*
X1514805Y6328816D02*
G01*
X1514805Y6426200D01*
X1417574Y6426200D01*
X1418031Y6421170D01*
X1421180Y6407353D01*
X1426108Y6393992D01*
X1432661Y6381394D01*
X1440789Y6369761D01*
X1450340Y6359245D01*
X1461160Y6350000D01*
X1473098Y6342278D01*
X1485900Y6336080D01*
X1499362Y6331610D01*
X1513332Y6328918D01*
G37*
G36*
X7565593Y6328816D02*
G01*
X7567066Y6328918D01*
X7581036Y6331610D01*
X7594498Y6336080D01*
X7607300Y6342278D01*
X7619238Y6350000D01*
X7630058Y6359245D01*
X7639608Y6369761D01*
X7647736Y6381394D01*
X7654290Y6393992D01*
X7659217Y6407353D01*
X7662367Y6421170D01*
X7662824Y6426200D01*
X7565593Y6426200D01*
G37*
G36*
X7540193Y6328816D02*
G01*
X7540193Y6426200D01*
X7442962Y6426200D01*
X7443419Y6421170D01*
X7446568Y6407353D01*
X7451496Y6393992D01*
X7458049Y6381394D01*
X7466177Y6369761D01*
X7475778Y6359245D01*
X7486548Y6350000D01*
X7498486Y6342278D01*
X7511288Y6336080D01*
X7524750Y6331610D01*
X7538720Y6328918D01*
G37*
G36*
X7552893Y7090003D02*
G01*
X7567066Y7090918D01*
X7581036Y7093610D01*
X7594498Y7098080D01*
X7607300Y7104278D01*
X7619238Y7112000D01*
X7630058Y7121245D01*
X7639608Y7131761D01*
X7647736Y7143394D01*
X7654290Y7155992D01*
X7659217Y7169353D01*
X7662367Y7183170D01*
X7663738Y7197344D01*
X7663281Y7211517D01*
X7660995Y7225538D01*
X7656982Y7239203D01*
X7651191Y7252157D01*
X7643825Y7264349D01*
X7634986Y7275423D01*
X7624775Y7285329D01*
X7613396Y7293813D01*
X7601000Y7300772D01*
X7587843Y7306106D01*
X7574076Y7309713D01*
X7560005Y7311542D01*
X7545781Y7311542D01*
X7531709Y7309713D01*
X7517942Y7306106D01*
X7504785Y7300772D01*
X7492390Y7293813D01*
X7481011Y7285329D01*
X7470800Y7275423D01*
X7461961Y7264349D01*
X7454595Y7252157D01*
X7448854Y7239203D01*
X7444790Y7225538D01*
X7442504Y7211517D01*
X7442047Y7197344D01*
X7443419Y7183170D01*
X7446568Y7169353D01*
X7451496Y7155992D01*
X7458049Y7143394D01*
X7466177Y7131761D01*
X7475778Y7121245D01*
X7486548Y7112000D01*
X7498486Y7104278D01*
X7511288Y7098080D01*
X7524750Y7093610D01*
X7538720Y7090918D01*
G37*
G36*
X7442860Y6451600D02*
G01*
X7540193Y6451600D01*
X7540193Y6548831D01*
X7531709Y6547713D01*
X7517942Y6544106D01*
X7504785Y6538772D01*
X7492390Y6531813D01*
X7481011Y6523329D01*
X7470800Y6513423D01*
X7461961Y6502349D01*
X7454595Y6490157D01*
X7448854Y6477203D01*
X7444790Y6463538D01*
G37*
G36*
X7565593Y6451600D02*
G01*
X7662925Y6451600D01*
X7660995Y6463538D01*
X7656982Y6477203D01*
X7651191Y6490157D01*
X7643825Y6502349D01*
X7634986Y6513423D01*
X7624775Y6523329D01*
X7613396Y6531813D01*
X7601000Y6538772D01*
X7587843Y6544106D01*
X7574076Y6547713D01*
X7565593Y6548831D01*
G37*
G36*
X1417472Y6451600D02*
G01*
X1514805Y6451600D01*
X1514805Y6548831D01*
X1506321Y6547713D01*
X1492554Y6544106D01*
X1479397Y6538772D01*
X1467002Y6531813D01*
X1455623Y6523329D01*
X1445412Y6513423D01*
X1436573Y6502349D01*
X1429207Y6490157D01*
X1423416Y6477203D01*
X1419402Y6463538D01*
G37*
G36*
X8329472Y6462014D02*
G01*
X8441893Y6462014D01*
X8441893Y6567373D01*
X8442655Y6571284D01*
X8444839Y6574586D01*
X8448141Y6576771D01*
X8452053Y6577533D01*
X8457133Y6577533D01*
X8460994Y6576771D01*
X8464296Y6574586D01*
X8466531Y6571284D01*
X8467293Y6567373D01*
X8467293Y6462014D01*
X8579713Y6462014D01*
X8579561Y6464452D01*
X8576818Y6479438D01*
X8572296Y6493967D01*
X8566048Y6507784D01*
X8558174Y6520789D01*
X8548827Y6532778D01*
X8538057Y6543548D01*
X8526119Y6552895D01*
X8513064Y6560769D01*
X8499144Y6567017D01*
X8495995Y6569252D01*
X8493912Y6572503D01*
X8493150Y6576314D01*
X8493912Y6580073D01*
X8495995Y6583324D01*
X8499144Y6585559D01*
X8513064Y6591808D01*
X8526119Y6599681D01*
X8538057Y6609080D01*
X8548827Y6619798D01*
X8558174Y6631787D01*
X8566048Y6644792D01*
X8572296Y6658660D01*
X8576818Y6673189D01*
X8579561Y6688124D01*
X8580475Y6703314D01*
X8579561Y6718452D01*
X8576818Y6733438D01*
X8572296Y6747967D01*
X8566048Y6761784D01*
X8558174Y6774789D01*
X8548827Y6786778D01*
X8538057Y6797548D01*
X8526119Y6806895D01*
X8513064Y6814769D01*
X8499246Y6821017D01*
X8484717Y6825538D01*
X8469782Y6828281D01*
X8454593Y6829196D01*
X8439404Y6828281D01*
X8424468Y6825538D01*
X8409940Y6821017D01*
X8396071Y6814769D01*
X8383066Y6806895D01*
X8371078Y6797548D01*
X8360359Y6786778D01*
X8350961Y6774789D01*
X8343138Y6761784D01*
X8336889Y6747967D01*
X8333994Y6738620D01*
X8331860Y6734911D01*
X8328456Y6732371D01*
X8324291Y6731457D01*
X7663434Y6731457D01*
X7659624Y6732219D01*
X7656372Y6734352D01*
X7654137Y6737553D01*
X7651191Y6744157D01*
X7643825Y6756349D01*
X7634986Y6767423D01*
X7624775Y6777329D01*
X7613396Y6785813D01*
X7601000Y6792772D01*
X7587843Y6798106D01*
X7574076Y6801713D01*
X7560005Y6803542D01*
X7545781Y6803542D01*
X7531709Y6801713D01*
X7517942Y6798106D01*
X7504785Y6792772D01*
X7492390Y6785813D01*
X7481011Y6777329D01*
X7470800Y6767423D01*
X7461961Y6756349D01*
X7454595Y6744157D01*
X7448854Y6731203D01*
X7444790Y6717538D01*
X7442504Y6703517D01*
X7442047Y6689344D01*
X7443419Y6675170D01*
X7446568Y6661353D01*
X7451496Y6647992D01*
X7458049Y6635394D01*
X7466177Y6623761D01*
X7475778Y6613245D01*
X7486548Y6604000D01*
X7498486Y6596278D01*
X7511288Y6590080D01*
X7524750Y6585610D01*
X7538720Y6582918D01*
X7552893Y6582003D01*
X7567066Y6582918D01*
X7581036Y6585610D01*
X7594498Y6590080D01*
X7607300Y6596278D01*
X7619238Y6604000D01*
X7630058Y6613245D01*
X7639608Y6623761D01*
X7647736Y6635394D01*
X7654645Y6648805D01*
X7656931Y6651701D01*
X7660081Y6653580D01*
X7663688Y6654241D01*
X8332266Y6654241D01*
X8336076Y6653530D01*
X8339328Y6651447D01*
X8341563Y6648297D01*
X8343138Y6644792D01*
X8350961Y6631787D01*
X8360359Y6619798D01*
X8371078Y6609080D01*
X8383066Y6599681D01*
X8396071Y6591808D01*
X8409990Y6585559D01*
X8413140Y6583324D01*
X8415274Y6580073D01*
X8415985Y6576314D01*
X8415274Y6572503D01*
X8413140Y6569252D01*
X8409990Y6567017D01*
X8396071Y6560769D01*
X8383066Y6552895D01*
X8371078Y6543548D01*
X8360359Y6532778D01*
X8350961Y6520789D01*
X8343138Y6507784D01*
X8336889Y6493967D01*
X8332368Y6479438D01*
X8329625Y6464452D01*
G37*
G36*
X1527505Y7090003D02*
G01*
X1541678Y7090918D01*
X1555648Y7093610D01*
X1569110Y7098080D01*
X1581912Y7104278D01*
X1593799Y7112000D01*
X1604619Y7121245D01*
X1614170Y7131761D01*
X1622298Y7143394D01*
X1628901Y7155992D01*
X1633778Y7169353D01*
X1636979Y7183170D01*
X1638350Y7197344D01*
X1637893Y7211517D01*
X1635607Y7225538D01*
X1631543Y7239203D01*
X1625803Y7252157D01*
X1618437Y7264349D01*
X1609598Y7275423D01*
X1599387Y7285329D01*
X1588008Y7293813D01*
X1575612Y7300772D01*
X1562455Y7306106D01*
X1548688Y7309713D01*
X1534617Y7311542D01*
X1520393Y7311542D01*
X1506321Y7309713D01*
X1492554Y7306106D01*
X1479397Y7300772D01*
X1467002Y7293813D01*
X1455623Y7285329D01*
X1445412Y7275423D01*
X1436573Y7264349D01*
X1429207Y7252157D01*
X1423416Y7239203D01*
X1419402Y7225538D01*
X1417116Y7211517D01*
X1416659Y7197344D01*
X1418031Y7183170D01*
X1421180Y7169353D01*
X1426108Y7155992D01*
X1432661Y7143394D01*
X1440789Y7131761D01*
X1450340Y7121245D01*
X1461160Y7112000D01*
X1473098Y7104278D01*
X1485900Y7098080D01*
X1499362Y7093610D01*
X1513332Y7090918D01*
G37*
G36*
X560679Y6464300D02*
G01*
X673100Y6464300D01*
X673100Y6569709D01*
X673862Y6573570D01*
X676097Y6576872D01*
X679399Y6579057D01*
X683260Y6579870D01*
X688340Y6579870D01*
X692251Y6579057D01*
X695553Y6576872D01*
X697738Y6573570D01*
X698500Y6569709D01*
X698500Y6464300D01*
X810920Y6464300D01*
X810768Y6466789D01*
X808024Y6481724D01*
X803503Y6496253D01*
X797255Y6510121D01*
X789432Y6523126D01*
X780034Y6535064D01*
X769315Y6545834D01*
X757326Y6555231D01*
X744321Y6563055D01*
X730402Y6569354D01*
X727252Y6571589D01*
X725119Y6574790D01*
X724408Y6578600D01*
X725119Y6582409D01*
X727252Y6585661D01*
X730402Y6587896D01*
X744321Y6594144D01*
X757326Y6602018D01*
X769315Y6611366D01*
X780034Y6622135D01*
X789432Y6634073D01*
X797255Y6647129D01*
X800049Y6651447D01*
X803300Y6653530D01*
X807059Y6654241D01*
X1416710Y6654241D01*
X1420317Y6653580D01*
X1423466Y6651701D01*
X1425702Y6648805D01*
X1432661Y6635394D01*
X1440789Y6623761D01*
X1450340Y6613245D01*
X1461160Y6604000D01*
X1473098Y6596278D01*
X1485900Y6590080D01*
X1499362Y6585610D01*
X1513332Y6582918D01*
X1527505Y6582003D01*
X1541678Y6582918D01*
X1555648Y6585610D01*
X1569110Y6590080D01*
X1581912Y6596278D01*
X1593799Y6604000D01*
X1604619Y6613245D01*
X1614170Y6623761D01*
X1622298Y6635394D01*
X1628901Y6647992D01*
X1633778Y6661353D01*
X1636979Y6675170D01*
X1638350Y6689344D01*
X1637893Y6703517D01*
X1635607Y6717538D01*
X1631543Y6731203D01*
X1625803Y6744157D01*
X1618437Y6756349D01*
X1609598Y6767423D01*
X1599387Y6777329D01*
X1588008Y6785813D01*
X1575612Y6792772D01*
X1562455Y6798106D01*
X1548688Y6801713D01*
X1534617Y6803542D01*
X1520393Y6803542D01*
X1506321Y6801713D01*
X1492554Y6798106D01*
X1479397Y6792772D01*
X1467002Y6785813D01*
X1455623Y6777329D01*
X1445412Y6767423D01*
X1436573Y6756349D01*
X1429207Y6744157D01*
X1426260Y6737553D01*
X1424025Y6734352D01*
X1420774Y6732219D01*
X1416964Y6731457D01*
X816864Y6731457D01*
X812647Y6732371D01*
X809244Y6734911D01*
X807161Y6738620D01*
X803503Y6750253D01*
X797255Y6764121D01*
X789432Y6777126D01*
X780034Y6789064D01*
X769315Y6799834D01*
X757326Y6809231D01*
X744321Y6817055D01*
X730453Y6823303D01*
X715924Y6827824D01*
X700989Y6830568D01*
X685800Y6831482D01*
X670610Y6830568D01*
X655675Y6827824D01*
X641146Y6823303D01*
X627329Y6817055D01*
X614273Y6809231D01*
X602335Y6799834D01*
X591566Y6789064D01*
X582218Y6777126D01*
X574344Y6764121D01*
X568096Y6750253D01*
X563575Y6735724D01*
X560832Y6720789D01*
X559917Y6705600D01*
X560832Y6690410D01*
X563575Y6675475D01*
X568096Y6660946D01*
X574344Y6647129D01*
X582218Y6634073D01*
X591566Y6622135D01*
X602335Y6611366D01*
X614273Y6602018D01*
X627329Y6594144D01*
X641248Y6587896D01*
X644398Y6585661D01*
X646480Y6582409D01*
X647242Y6578600D01*
X646480Y6574790D01*
X644398Y6571589D01*
X641248Y6569354D01*
X627329Y6563055D01*
X614273Y6555231D01*
X602335Y6545834D01*
X591566Y6535064D01*
X582218Y6523126D01*
X574344Y6510121D01*
X568096Y6496253D01*
X563575Y6481724D01*
X560832Y6466789D01*
G37*
G36*
X8229600Y6960006D02*
G01*
X8243417Y6960870D01*
X8256981Y6963613D01*
X8270087Y6968032D01*
X8282533Y6974179D01*
X8294014Y6981850D01*
X8304428Y6990994D01*
X8313572Y7001408D01*
X8321294Y7012940D01*
X8327390Y7025335D01*
X8331860Y7038492D01*
X8334552Y7052056D01*
X8335467Y7065873D01*
X8334552Y7079691D01*
X8331860Y7093254D01*
X8327390Y7106412D01*
X8321294Y7118807D01*
X8313572Y7130338D01*
X8304428Y7140752D01*
X8294014Y7149896D01*
X8282533Y7157567D01*
X8270087Y7163714D01*
X8256981Y7168134D01*
X8243417Y7170877D01*
X8229600Y7171740D01*
X8215731Y7170877D01*
X8202168Y7168134D01*
X8189061Y7163714D01*
X8176615Y7157567D01*
X8165134Y7149896D01*
X8154720Y7140752D01*
X8145576Y7130338D01*
X8137855Y7118807D01*
X8131759Y7106412D01*
X8127288Y7093254D01*
X8124596Y7079691D01*
X8123681Y7065873D01*
X8124596Y7052056D01*
X8127288Y7038492D01*
X8131759Y7025335D01*
X8137855Y7012940D01*
X8145576Y7001408D01*
X8154720Y6990994D01*
X8165134Y6981850D01*
X8176615Y6974179D01*
X8189061Y6968032D01*
X8202168Y6963613D01*
X8215731Y6960870D01*
G37*
G36*
X910844Y6957263D02*
G01*
X924661Y6958126D01*
X938225Y6960870D01*
X951331Y6965289D01*
X963777Y6971436D01*
X975258Y6979107D01*
X985672Y6988251D01*
X994816Y6998665D01*
X1002537Y7010196D01*
X1008634Y7022592D01*
X1013104Y7035749D01*
X1015796Y7049312D01*
X1016711Y7063130D01*
X1015796Y7076948D01*
X1013104Y7090511D01*
X1008634Y7103668D01*
X1002537Y7116064D01*
X994816Y7127595D01*
X985672Y7138009D01*
X975258Y7147153D01*
X963777Y7154824D01*
X951331Y7160971D01*
X938225Y7165390D01*
X924661Y7168134D01*
X910844Y7168997D01*
X896975Y7168134D01*
X883412Y7165390D01*
X870305Y7160971D01*
X857859Y7154824D01*
X846378Y7147153D01*
X835964Y7138009D01*
X826820Y7127595D01*
X819099Y7116064D01*
X813003Y7103668D01*
X808532Y7090511D01*
X805840Y7076948D01*
X804926Y7063130D01*
X805840Y7049312D01*
X808532Y7035749D01*
X813003Y7022592D01*
X819099Y7010196D01*
X826820Y6998665D01*
X835964Y6988251D01*
X846378Y6979107D01*
X857859Y6971436D01*
X870305Y6965289D01*
X883412Y6960870D01*
X896975Y6958126D01*
G37*
G36*
X7552893Y6836003D02*
G01*
X7567066Y6836918D01*
X7581036Y6839610D01*
X7594498Y6844080D01*
X7607300Y6850278D01*
X7619238Y6858000D01*
X7630058Y6867245D01*
X7639608Y6877761D01*
X7647736Y6889394D01*
X7654290Y6901992D01*
X7659217Y6915353D01*
X7662367Y6929170D01*
X7663738Y6943344D01*
X7663281Y6957517D01*
X7660995Y6971538D01*
X7656982Y6985203D01*
X7651191Y6998157D01*
X7643825Y7010349D01*
X7634986Y7021423D01*
X7624775Y7031329D01*
X7613396Y7039813D01*
X7601000Y7046772D01*
X7587843Y7052106D01*
X7574076Y7055713D01*
X7560005Y7057542D01*
X7545781Y7057542D01*
X7531709Y7055713D01*
X7517942Y7052106D01*
X7504785Y7046772D01*
X7492390Y7039813D01*
X7481011Y7031329D01*
X7470800Y7021423D01*
X7461961Y7010349D01*
X7454595Y6998157D01*
X7448854Y6985203D01*
X7444790Y6971538D01*
X7442504Y6957517D01*
X7442047Y6943344D01*
X7443419Y6929170D01*
X7446568Y6915353D01*
X7451496Y6901992D01*
X7458049Y6889394D01*
X7466177Y6877761D01*
X7475778Y6867245D01*
X7486548Y6858000D01*
X7498486Y6850278D01*
X7511288Y6844080D01*
X7524750Y6839610D01*
X7538720Y6836918D01*
G37*
G36*
X1527505Y6836003D02*
G01*
X1541678Y6836918D01*
X1555648Y6839610D01*
X1569110Y6844080D01*
X1581912Y6850278D01*
X1593799Y6858000D01*
X1604619Y6867245D01*
X1614170Y6877761D01*
X1622298Y6889394D01*
X1628901Y6901992D01*
X1633778Y6915353D01*
X1636979Y6929170D01*
X1638350Y6943344D01*
X1637893Y6957517D01*
X1635607Y6971538D01*
X1631543Y6985203D01*
X1625803Y6998157D01*
X1618437Y7010349D01*
X1609598Y7021423D01*
X1599387Y7031329D01*
X1588008Y7039813D01*
X1575612Y7046772D01*
X1562455Y7052106D01*
X1548688Y7055713D01*
X1534617Y7057542D01*
X1520393Y7057542D01*
X1506321Y7055713D01*
X1492554Y7052106D01*
X1479397Y7046772D01*
X1467002Y7039813D01*
X1455623Y7031329D01*
X1445412Y7021423D01*
X1436573Y7010349D01*
X1429207Y6998157D01*
X1423416Y6985203D01*
X1419402Y6971538D01*
X1417116Y6957517D01*
X1416659Y6943344D01*
X1418031Y6929170D01*
X1421180Y6915353D01*
X1426108Y6901992D01*
X1432661Y6889394D01*
X1440789Y6877761D01*
X1450340Y6867245D01*
X1461160Y6858000D01*
X1473098Y6850278D01*
X1485900Y6844080D01*
X1499362Y6839610D01*
X1513332Y6836918D01*
G37*
G36*
X698500Y6210300D02*
G01*
X810920Y6210300D01*
X810768Y6212789D01*
X808024Y6227724D01*
X803503Y6242253D01*
X797255Y6256121D01*
X789432Y6269126D01*
X780034Y6281064D01*
X769315Y6291834D01*
X757326Y6301232D01*
X744321Y6309055D01*
X730402Y6315354D01*
X727252Y6317589D01*
X725119Y6320790D01*
X724408Y6324600D01*
X725119Y6328410D01*
X727252Y6331661D01*
X730402Y6333896D01*
X744321Y6340144D01*
X757326Y6348018D01*
X769315Y6357366D01*
X780034Y6368135D01*
X789432Y6380073D01*
X797255Y6393129D01*
X803503Y6406946D01*
X808024Y6421475D01*
X810768Y6436410D01*
X810920Y6438900D01*
X698500Y6438900D01*
G37*

%LPD*%
D10*
X1397000Y10160000D02*
G01*
X1397000Y10172700D01*
X1473200Y10248900D01*
X1473200Y10998200D01*
X1422400Y11049000D01*
X1295400Y11049000D01*
D11*
X1295400Y11303000D02*
G01*
X1536700Y11303000D01*
X1600200Y11239500D01*
X1600200Y9740900D01*
X1536700Y9677400D01*
X558800Y9677400D01*
X508000Y9728200D01*
X508000Y9906000D01*
D10*
X1295400Y10541000D02*
G01*
X1181100Y10541000D01*
X1143000Y10502900D01*
X1143000Y10160002D01*
D11*
X761997Y9906000D02*
G01*
X876300Y9906000D01*
X939800Y9969500D01*
X939800Y10731500D01*
X1003300Y10795000D01*
X1295400Y10795000D01*
X533400Y10795000D02*
G01*
X711200Y10795000D01*
X762000Y10744200D01*
X762000Y10160002D01*
X507997Y10160000D02*
G01*
X368300Y10299700D01*
X368300Y11137900D01*
X533400Y11303000D01*
D12*
X1527500Y1879600D02*
G01*
X695119Y1879600D01*
X689383Y1873857D01*
X1527500Y2133600D02*
G01*
X695119Y2133600D01*
X689383Y2127857D01*
X1527500Y2387600D02*
G01*
X695119Y2387600D01*
X689383Y2381857D01*
D10*
X1527500Y5930874D02*
G01*
X698525Y5930874D01*
X685800Y5943600D01*
X1527500Y6692874D02*
G01*
X698525Y6692874D01*
X685800Y6705600D01*
D12*
X7560035Y2387600D02*
G01*
X8453574Y2387600D01*
X8458149Y2383030D01*
X7560035Y2133600D02*
G01*
X8453574Y2133600D01*
X8458149Y2129030D01*
X7560035Y1879600D02*
G01*
X8453574Y1879600D01*
X8458149Y1875030D01*
D10*
X7552890Y5930874D02*
G01*
X8444148Y5930874D01*
X8454590Y5941311D01*
X7552890Y6692874D02*
G01*
X8444148Y6692874D01*
X8454590Y6703311D01*
D13*
G01*
X761997Y9906000D03*
D14*
G01*
X762000Y10160000D03*
G01*
X508000Y9906000D03*
G01*
X508000Y10160000D03*
D13*
G01*
X1396997Y9906000D03*
D14*
G01*
X1397000Y10160000D03*
G01*
X1143000Y9906000D03*
G01*
X1143000Y10160000D03*
D15*
G01*
X7560033Y1625597D03*
D16*
G01*
X7560030Y1879600D03*
G01*
X7560030Y2133600D03*
G01*
X7560030Y2387600D03*
D17*
G01*
X7552893Y5422874D03*
D16*
G01*
X7552893Y5676874D03*
G01*
X7552893Y5930874D03*
G01*
X7552893Y6184874D03*
G01*
X7552893Y6438874D03*
G01*
X7552893Y6692874D03*
G01*
X7552893Y6946874D03*
G01*
X7552893Y7200874D03*
D17*
G01*
X1527505Y5422874D03*
D16*
G01*
X1527505Y5676874D03*
G01*
X1527505Y5930874D03*
G01*
X1527505Y6184874D03*
G01*
X1527505Y6438874D03*
G01*
X1527505Y6692874D03*
G01*
X1527505Y6946874D03*
G01*
X1527505Y7200874D03*
D15*
G01*
X1527497Y1625600D03*
D16*
G01*
X1527505Y1879600D03*
G01*
X1527505Y2133600D03*
G01*
X1527505Y2387600D03*
D18*
G01*
X8454593Y6195313D03*
G01*
X8454593Y6449313D03*
G01*
X8454593Y6703313D03*
G01*
X8454593Y5941313D03*
G01*
X8458149Y1621028D03*
G01*
X8458149Y2383028D03*
G01*
X8458149Y2129028D03*
G01*
X8458149Y1875028D03*
G01*
X689381Y2127859D03*
G01*
X689381Y1873859D03*
G01*
X689381Y1619859D03*
G01*
X689381Y2381859D03*
G01*
X685800Y6705600D03*
G01*
X685800Y5943600D03*
G01*
X685800Y6197600D03*
G01*
X685800Y6451600D03*
D19*
G01*
X1587500Y11671300D03*
G01*
X1587500Y1130300D03*
G01*
X7556474Y1130300D03*
D16*
G01*
X533400Y11303000D03*
G01*
X533400Y11049000D03*
G01*
X533400Y10795000D03*
G01*
X533400Y10541000D03*
G01*
X1295400Y10541000D03*
G01*
X1295400Y10795000D03*
G01*
X1295400Y11049000D03*
D17*
G01*
X1295400Y11303000D03*
D19*
G01*
X8635974Y11671300D03*
M02*
