G04 Layer: BottomSilkscreenLayer*
G04 EasyEDA v6.5.34, 2023-08-21 18:11:39*
G04 c862416320f94afeacbf5464a4b7dd8e,5a6b42c53f6a479593ecc07194224c93,10*
G04 Gerber Generator version 0.2*
G04 Scale: 100 percent, Rotated: No, Reflected: No *
G04 Dimensions in millimeters *
G04 leading zeros omitted , absolute positions ,4 integer and 5 decimal *
%FSLAX45Y45*%
%MOMM*%

%ADD10C,0.2032*%
%ADD11C,0.2030*%
%ADD12C,0.1524*%
%ADD13C,0.2540*%

%LPD*%
D10*
X6858000Y11893989D02*
G01*
X6858000Y11779445D01*
X6858000Y11893989D02*
G01*
X6781637Y11779445D01*
X6781637Y11893989D02*
G01*
X6781637Y11779445D01*
X6702000Y11893989D02*
G01*
X6745635Y11779445D01*
X6702000Y11893989D02*
G01*
X6658363Y11779445D01*
X6729272Y11817626D02*
G01*
X6674728Y11817626D01*
X6622364Y11893989D02*
G01*
X6622364Y11779445D01*
X6622364Y11893989D02*
G01*
X6546001Y11779445D01*
X6546001Y11893989D02*
G01*
X6546001Y11779445D01*
X6477274Y11893989D02*
G01*
X6488183Y11888536D01*
X6499090Y11877626D01*
X6504546Y11866717D01*
X6509999Y11850354D01*
X6509999Y11823082D01*
X6504546Y11806717D01*
X6499090Y11795808D01*
X6488183Y11784898D01*
X6477274Y11779445D01*
X6455455Y11779445D01*
X6444546Y11784898D01*
X6433637Y11795808D01*
X6428183Y11806717D01*
X6422727Y11823082D01*
X6422727Y11850354D01*
X6428183Y11866717D01*
X6433637Y11877626D01*
X6444546Y11888536D01*
X6455455Y11893989D01*
X6477274Y11893989D01*
X6386728Y11893989D02*
G01*
X6386728Y11779445D01*
X6386728Y11893989D02*
G01*
X6343091Y11779445D01*
X6299456Y11893989D02*
G01*
X6343091Y11779445D01*
X6299456Y11893989D02*
G01*
X6299456Y11779445D01*
X6263454Y11893989D02*
G01*
X6263454Y11779445D01*
X6183820Y11893989D02*
G01*
X6227455Y11779445D01*
X6183820Y11893989D02*
G01*
X6140183Y11779445D01*
X6211092Y11817626D02*
G01*
X6156545Y11817626D01*
X6020183Y11893989D02*
G01*
X6020183Y11779445D01*
X6020183Y11893989D02*
G01*
X5971092Y11893989D01*
X5954730Y11888536D01*
X5949274Y11883082D01*
X5943820Y11872173D01*
X5943820Y11861264D01*
X5949274Y11850354D01*
X5954730Y11844898D01*
X5971092Y11839445D01*
X6020183Y11839445D02*
G01*
X5971092Y11839445D01*
X5954730Y11833989D01*
X5949274Y11828536D01*
X5943820Y11817626D01*
X5943820Y11801264D01*
X5949274Y11790354D01*
X5954730Y11784898D01*
X5971092Y11779445D01*
X6020183Y11779445D01*
X5907819Y11893989D02*
G01*
X5907819Y11779445D01*
X5907819Y11893989D02*
G01*
X5858728Y11893989D01*
X5842365Y11888536D01*
X5836912Y11883082D01*
X5831456Y11872173D01*
X5831456Y11861264D01*
X5836912Y11850354D01*
X5842365Y11844898D01*
X5858728Y11839445D01*
X5907819Y11839445D01*
X5869637Y11839445D02*
G01*
X5831456Y11779445D01*
X5795457Y11893989D02*
G01*
X5795457Y11779445D01*
X5795457Y11893989D02*
G01*
X5724547Y11893989D01*
X5795457Y11839445D02*
G01*
X5751819Y11839445D01*
X5795457Y11779445D02*
G01*
X5724547Y11779445D01*
X5644911Y11893989D02*
G01*
X5688548Y11779445D01*
X5644911Y11893989D02*
G01*
X5601274Y11779445D01*
X5672183Y11817626D02*
G01*
X5617639Y11817626D01*
X5565274Y11893989D02*
G01*
X5565274Y11779445D01*
X5565274Y11893989D02*
G01*
X5527093Y11893989D01*
X5510730Y11888536D01*
X5499821Y11877626D01*
X5494365Y11866717D01*
X5488912Y11850354D01*
X5488912Y11823082D01*
X5494365Y11806717D01*
X5499821Y11795808D01*
X5510730Y11784898D01*
X5527093Y11779445D01*
X5565274Y11779445D01*
X5452912Y11893989D02*
G01*
X5452912Y11779445D01*
X5452912Y11893989D02*
G01*
X5403822Y11893989D01*
X5387456Y11888536D01*
X5382003Y11883082D01*
X5376547Y11872173D01*
X5376547Y11861264D01*
X5382003Y11850354D01*
X5387456Y11844898D01*
X5403822Y11839445D01*
X5452912Y11839445D02*
G01*
X5403822Y11839445D01*
X5387456Y11833989D01*
X5382003Y11828536D01*
X5376547Y11817626D01*
X5376547Y11801264D01*
X5382003Y11790354D01*
X5387456Y11784898D01*
X5403822Y11779445D01*
X5452912Y11779445D01*
X5307820Y11893989D02*
G01*
X5318729Y11888536D01*
X5329638Y11877626D01*
X5335094Y11866717D01*
X5340548Y11850354D01*
X5340548Y11823082D01*
X5335094Y11806717D01*
X5329638Y11795808D01*
X5318729Y11784898D01*
X5307820Y11779445D01*
X5286004Y11779445D01*
X5275094Y11784898D01*
X5264185Y11795808D01*
X5258729Y11806717D01*
X5253276Y11823082D01*
X5253276Y11850354D01*
X5258729Y11866717D01*
X5264185Y11877626D01*
X5275094Y11888536D01*
X5286004Y11893989D01*
X5307820Y11893989D01*
X5173639Y11893989D02*
G01*
X5217276Y11779445D01*
X5173639Y11893989D02*
G01*
X5130002Y11779445D01*
X5200911Y11817626D02*
G01*
X5146367Y11817626D01*
X5094003Y11893989D02*
G01*
X5094003Y11779445D01*
X5094003Y11893989D02*
G01*
X5044912Y11893989D01*
X5028549Y11888536D01*
X5023093Y11883082D01*
X5017640Y11872173D01*
X5017640Y11861264D01*
X5023093Y11850354D01*
X5028549Y11844898D01*
X5044912Y11839445D01*
X5094003Y11839445D01*
X5055821Y11839445D02*
G01*
X5017640Y11779445D01*
X4981641Y11893989D02*
G01*
X4981641Y11779445D01*
X4981641Y11893989D02*
G01*
X4943457Y11893989D01*
X4927094Y11888536D01*
X4916185Y11877626D01*
X4910731Y11866717D01*
X4905275Y11850354D01*
X4905275Y11823082D01*
X4910731Y11806717D01*
X4916185Y11795808D01*
X4927094Y11784898D01*
X4943457Y11779445D01*
X4981641Y11779445D01*
X4752550Y11893989D02*
G01*
X4763457Y11888536D01*
X4774366Y11877626D01*
X4779822Y11866717D01*
X4785276Y11850354D01*
X4785276Y11823082D01*
X4779822Y11806717D01*
X4774366Y11795808D01*
X4763457Y11784898D01*
X4752550Y11779445D01*
X4730732Y11779445D01*
X4719822Y11784898D01*
X4708913Y11795808D01*
X4703457Y11806717D01*
X4698004Y11823082D01*
X4698004Y11850354D01*
X4703457Y11866717D01*
X4708913Y11877626D01*
X4719822Y11888536D01*
X4730732Y11893989D01*
X4752550Y11893989D01*
X4662004Y11893989D02*
G01*
X4662004Y11812173D01*
X4656548Y11795808D01*
X4645639Y11784898D01*
X4629277Y11779445D01*
X4618367Y11779445D01*
X4602005Y11784898D01*
X4591095Y11795808D01*
X4585639Y11812173D01*
X4585639Y11893989D01*
X4511459Y11893989D02*
G01*
X4511459Y11779445D01*
X4549640Y11893989D02*
G01*
X4473277Y11893989D01*
X4437278Y11893989D02*
G01*
X4437278Y11779445D01*
X4437278Y11893989D02*
G01*
X4366369Y11893989D01*
X4437278Y11839445D02*
G01*
X4393641Y11839445D01*
X4437278Y11779445D02*
G01*
X4366369Y11779445D01*
X4330369Y11893989D02*
G01*
X4330369Y11779445D01*
X4330369Y11893989D02*
G01*
X4281276Y11893989D01*
X4264913Y11888536D01*
X4259460Y11883082D01*
X4254004Y11872173D01*
X4254004Y11861264D01*
X4259460Y11850354D01*
X4264913Y11844898D01*
X4281276Y11839445D01*
X4330369Y11839445D01*
X4292185Y11839445D02*
G01*
X4254004Y11779445D01*
X4057642Y11877626D02*
G01*
X4068551Y11888536D01*
X4084914Y11893989D01*
X4106732Y11893989D01*
X4123095Y11888536D01*
X4134004Y11877626D01*
X4134004Y11866717D01*
X4128551Y11855808D01*
X4123095Y11850354D01*
X4112186Y11844898D01*
X4079460Y11833989D01*
X4068551Y11828536D01*
X4063095Y11823082D01*
X4057642Y11812173D01*
X4057642Y11795808D01*
X4068551Y11784898D01*
X4084914Y11779445D01*
X4106732Y11779445D01*
X4123095Y11784898D01*
X4134004Y11795808D01*
X4021642Y11893989D02*
G01*
X4021642Y11779445D01*
X4021642Y11893989D02*
G01*
X3972552Y11893989D01*
X3956187Y11888536D01*
X3950733Y11883082D01*
X3945277Y11872173D01*
X3945277Y11855808D01*
X3950733Y11844898D01*
X3956187Y11839445D01*
X3972552Y11833989D01*
X4021642Y11833989D01*
X3865641Y11893989D02*
G01*
X3909278Y11779445D01*
X3865641Y11893989D02*
G01*
X3822006Y11779445D01*
X3892915Y11817626D02*
G01*
X3838369Y11817626D01*
X3704188Y11866717D02*
G01*
X3709642Y11877626D01*
X3720551Y11888536D01*
X3731460Y11893989D01*
X3753279Y11893989D01*
X3764188Y11888536D01*
X3775097Y11877626D01*
X3780551Y11866717D01*
X3786007Y11850354D01*
X3786007Y11823082D01*
X3780551Y11806717D01*
X3775097Y11795808D01*
X3764188Y11784898D01*
X3753279Y11779445D01*
X3731460Y11779445D01*
X3720551Y11784898D01*
X3709642Y11795808D01*
X3704188Y11806717D01*
X3668189Y11893989D02*
G01*
X3668189Y11779445D01*
X3668189Y11893989D02*
G01*
X3597280Y11893989D01*
X3668189Y11839445D02*
G01*
X3624552Y11839445D01*
X3668189Y11779445D02*
G01*
X3597280Y11779445D01*
X3561278Y11893989D02*
G01*
X3561278Y11779445D01*
X3561278Y11893989D02*
G01*
X3512187Y11893989D01*
X3495824Y11888536D01*
X3490371Y11883082D01*
X3484915Y11872173D01*
X3484915Y11861264D01*
X3490371Y11850354D01*
X3495824Y11844898D01*
X3512187Y11839445D01*
X3561278Y11839445D01*
X3523096Y11839445D02*
G01*
X3484915Y11779445D01*
X3364915Y11893989D02*
G01*
X3321278Y11779445D01*
X3277643Y11893989D02*
G01*
X3321278Y11779445D01*
X3241644Y11872173D02*
G01*
X3230735Y11877626D01*
X3214370Y11893989D01*
X3214370Y11779445D01*
X3172917Y11806717D02*
G01*
X3178370Y11801264D01*
X3172917Y11795808D01*
X3167461Y11801264D01*
X3172917Y11806717D01*
X3126008Y11866717D02*
G01*
X3126008Y11872173D01*
X3120552Y11883082D01*
X3115099Y11888536D01*
X3104189Y11893989D01*
X3082371Y11893989D01*
X3071461Y11888536D01*
X3066008Y11883082D01*
X3060552Y11872173D01*
X3060552Y11861264D01*
X3066008Y11850354D01*
X3076917Y11833989D01*
X3131461Y11779445D01*
X3055099Y11779445D01*
X2935099Y11828536D02*
G01*
X2836918Y11828536D01*
X2716918Y11893989D02*
G01*
X2716918Y11779445D01*
X2716918Y11893989D02*
G01*
X2667825Y11893989D01*
X2651462Y11888536D01*
X2646009Y11883082D01*
X2640553Y11872173D01*
X2640553Y11861264D01*
X2646009Y11850354D01*
X2651462Y11844898D01*
X2667825Y11839445D01*
X2716918Y11839445D01*
X2678734Y11839445D02*
G01*
X2640553Y11779445D01*
X2604554Y11893989D02*
G01*
X2604554Y11779445D01*
X2604554Y11893989D02*
G01*
X2533644Y11893989D01*
X2604554Y11839445D02*
G01*
X2560916Y11839445D01*
X2604554Y11779445D02*
G01*
X2533644Y11779445D01*
X2454008Y11893989D02*
G01*
X2497645Y11779445D01*
X2454008Y11893989D02*
G01*
X2410373Y11779445D01*
X2481280Y11817626D02*
G01*
X2426736Y11817626D01*
X2374371Y11893989D02*
G01*
X2374371Y11779445D01*
X2374371Y11893989D02*
G01*
X2325281Y11893989D01*
X2308918Y11888536D01*
X2303462Y11883082D01*
X2298009Y11872173D01*
X2298009Y11861264D01*
X2303462Y11850354D01*
X2308918Y11844898D01*
X2325281Y11839445D01*
X2374371Y11839445D01*
X2336190Y11839445D02*
G01*
X2298009Y11779445D01*
X1638350Y5175689D02*
G01*
X1638350Y5061145D01*
X1638350Y5175689D02*
G01*
X1589260Y5175689D01*
X1572897Y5170236D01*
X1567441Y5164782D01*
X1561988Y5153873D01*
X1561988Y5137508D01*
X1567441Y5126599D01*
X1572897Y5121145D01*
X1589260Y5115689D01*
X1638350Y5115689D01*
X1482351Y5175689D02*
G01*
X1525986Y5061145D01*
X1482351Y5175689D02*
G01*
X1438714Y5061145D01*
X1509623Y5099326D02*
G01*
X1455079Y5099326D01*
X1402714Y5175689D02*
G01*
X1402714Y5061145D01*
X1402714Y5175689D02*
G01*
X1353624Y5175689D01*
X1337261Y5170236D01*
X1331805Y5164782D01*
X1326352Y5153873D01*
X1326352Y5142964D01*
X1331805Y5132054D01*
X1337261Y5126599D01*
X1353624Y5121145D01*
X1402714Y5121145D01*
X1364533Y5121145D02*
G01*
X1326352Y5061145D01*
X1252169Y5175689D02*
G01*
X1252169Y5061145D01*
X1290351Y5175689D02*
G01*
X1213987Y5175689D01*
X1093988Y5175689D02*
G01*
X1093988Y5061145D01*
X1093988Y5175689D02*
G01*
X1017625Y5061145D01*
X1017625Y5175689D02*
G01*
X1017625Y5061145D01*
X981623Y5175689D02*
G01*
X981623Y5093873D01*
X976170Y5077508D01*
X965260Y5066599D01*
X948898Y5061145D01*
X937988Y5061145D01*
X921623Y5066599D01*
X910717Y5077508D01*
X905261Y5093873D01*
X905261Y5175689D01*
X869261Y5175689D02*
G01*
X869261Y5061145D01*
X869261Y5175689D02*
G01*
X825624Y5061145D01*
X781989Y5175689D02*
G01*
X825624Y5061145D01*
X781989Y5175689D02*
G01*
X781989Y5061145D01*
X745987Y5175689D02*
G01*
X745987Y5061145D01*
X745987Y5175689D02*
G01*
X696897Y5175689D01*
X680534Y5170236D01*
X675081Y5164782D01*
X669625Y5153873D01*
X669625Y5142964D01*
X675081Y5132054D01*
X680534Y5126599D01*
X696897Y5121145D01*
X745987Y5121145D02*
G01*
X696897Y5121145D01*
X680534Y5115689D01*
X675081Y5110236D01*
X669625Y5099326D01*
X669625Y5082964D01*
X675081Y5072054D01*
X680534Y5066599D01*
X696897Y5061145D01*
X745987Y5061145D01*
X633625Y5175689D02*
G01*
X633625Y5061145D01*
X633625Y5175689D02*
G01*
X562716Y5175689D01*
X633625Y5121145D02*
G01*
X589988Y5121145D01*
X633625Y5061145D02*
G01*
X562716Y5061145D01*
X526717Y5175689D02*
G01*
X526717Y5061145D01*
X526717Y5175689D02*
G01*
X477626Y5175689D01*
X461261Y5170236D01*
X455808Y5164782D01*
X450352Y5153873D01*
X450352Y5142964D01*
X455808Y5132054D01*
X461261Y5126599D01*
X477626Y5121145D01*
X526717Y5121145D01*
X488535Y5121145D02*
G01*
X450352Y5061145D01*
D11*
X6712706Y1003543D02*
G01*
X6718162Y1014453D01*
X6729069Y1025362D01*
X6739978Y1030818D01*
X6761797Y1030818D01*
X6772706Y1025362D01*
X6783616Y1014453D01*
X6789072Y1003543D01*
X6794525Y987181D01*
X6794525Y959909D01*
X6789072Y943543D01*
X6783616Y932634D01*
X6772706Y921725D01*
X6761797Y916271D01*
X6739978Y916271D01*
X6729069Y921725D01*
X6718162Y932634D01*
X6712706Y943543D01*
X6643979Y1030818D02*
G01*
X6654888Y1025362D01*
X6665798Y1014453D01*
X6671251Y1003543D01*
X6676707Y987181D01*
X6676707Y959909D01*
X6671251Y943543D01*
X6665798Y932634D01*
X6654888Y921725D01*
X6643979Y916271D01*
X6622161Y916271D01*
X6611251Y921725D01*
X6600342Y932634D01*
X6594889Y943543D01*
X6589435Y959909D01*
X6589435Y987181D01*
X6594889Y1003543D01*
X6600342Y1014453D01*
X6611251Y1025362D01*
X6622161Y1030818D01*
X6643979Y1030818D01*
X6553433Y1030818D02*
G01*
X6553433Y916271D01*
X6553433Y1030818D02*
G01*
X6504343Y1030818D01*
X6487980Y1025362D01*
X6482524Y1019909D01*
X6477071Y1008999D01*
X6477071Y992634D01*
X6482524Y981725D01*
X6487980Y976271D01*
X6504343Y970818D01*
X6553433Y970818D01*
X6441071Y1030818D02*
G01*
X6397434Y976271D01*
X6397434Y916271D01*
X6353797Y1030818D02*
G01*
X6397434Y976271D01*
X6317797Y1030818D02*
G01*
X6317797Y916271D01*
X6317797Y1030818D02*
G01*
X6268707Y1030818D01*
X6252344Y1025362D01*
X6246888Y1019909D01*
X6241435Y1008999D01*
X6241435Y998090D01*
X6246888Y987181D01*
X6252344Y981725D01*
X6268707Y976271D01*
X6317797Y976271D01*
X6279616Y976271D02*
G01*
X6241435Y916271D01*
X6205433Y1030818D02*
G01*
X6205433Y916271D01*
X6087615Y1003543D02*
G01*
X6093071Y1014453D01*
X6103980Y1025362D01*
X6114889Y1030818D01*
X6136706Y1030818D01*
X6147615Y1025362D01*
X6158524Y1014453D01*
X6163980Y1003543D01*
X6169433Y987181D01*
X6169433Y959909D01*
X6163980Y943543D01*
X6158524Y932634D01*
X6147615Y921725D01*
X6136706Y916271D01*
X6114889Y916271D01*
X6103980Y921725D01*
X6093071Y932634D01*
X6087615Y943543D01*
X6087615Y959909D01*
X6114889Y959909D02*
G01*
X6087615Y959909D01*
X6051616Y1030818D02*
G01*
X6051616Y916271D01*
X5975253Y1030818D02*
G01*
X5975253Y916271D01*
X6051616Y976271D02*
G01*
X5975253Y976271D01*
X5901070Y1030818D02*
G01*
X5901070Y916271D01*
X5939251Y1030818D02*
G01*
X5862888Y1030818D01*
X5737433Y1003543D02*
G01*
X5737433Y1008999D01*
X5731979Y1019909D01*
X5726526Y1025362D01*
X5715617Y1030818D01*
X5693798Y1030818D01*
X5682889Y1025362D01*
X5677433Y1019909D01*
X5671980Y1008999D01*
X5671980Y998090D01*
X5677433Y987181D01*
X5688342Y970818D01*
X5742889Y916271D01*
X5666526Y916271D01*
X5597799Y1030818D02*
G01*
X5614161Y1025362D01*
X5625071Y1008999D01*
X5630524Y981725D01*
X5630524Y965362D01*
X5625071Y938090D01*
X5614161Y921725D01*
X5597799Y916271D01*
X5586890Y916271D01*
X5570524Y921725D01*
X5559615Y938090D01*
X5554162Y965362D01*
X5554162Y981725D01*
X5559615Y1008999D01*
X5570524Y1025362D01*
X5586890Y1030818D01*
X5597799Y1030818D01*
X5512706Y1003543D02*
G01*
X5512706Y1008999D01*
X5507253Y1019909D01*
X5501797Y1025362D01*
X5490888Y1030818D01*
X5469072Y1030818D01*
X5458162Y1025362D01*
X5452706Y1019909D01*
X5447253Y1008999D01*
X5447253Y998090D01*
X5452706Y987181D01*
X5463616Y970818D01*
X5518162Y916271D01*
X5441797Y916271D01*
X5400344Y1003543D02*
G01*
X5400344Y1008999D01*
X5394888Y1019909D01*
X5389435Y1025362D01*
X5378526Y1030818D01*
X5356707Y1030818D01*
X5345798Y1025362D01*
X5340342Y1019909D01*
X5334888Y1008999D01*
X5334888Y998090D01*
X5340342Y987181D01*
X5351251Y970818D01*
X5405798Y916271D01*
X5329435Y916271D01*
X5209433Y1030818D02*
G01*
X5165798Y916271D01*
X5122161Y1030818D02*
G01*
X5165798Y916271D01*
X5086162Y1030818D02*
G01*
X5086162Y916271D01*
X5086162Y1030818D02*
G01*
X5015252Y1030818D01*
X5086162Y976271D02*
G01*
X5042524Y976271D01*
X5086162Y916271D02*
G01*
X5015252Y916271D01*
X4902888Y1030818D02*
G01*
X4957434Y916271D01*
X4979253Y1030818D02*
G01*
X4902888Y1030818D01*
X4866888Y1030818D02*
G01*
X4866888Y916271D01*
X4866888Y1030818D02*
G01*
X4795979Y1030818D01*
X4866888Y976271D02*
G01*
X4823251Y976271D01*
X4759980Y1030818D02*
G01*
X4759980Y916271D01*
X4723980Y1030818D02*
G01*
X4723980Y916271D01*
X4723980Y1030818D02*
G01*
X4680343Y916271D01*
X4636706Y1030818D02*
G01*
X4680343Y916271D01*
X4636706Y1030818D02*
G01*
X4636706Y916271D01*
X4516706Y965362D02*
G01*
X4418525Y965362D01*
X4254888Y1030818D02*
G01*
X4298525Y916271D01*
X4254888Y1030818D02*
G01*
X4211251Y916271D01*
X4282160Y954453D02*
G01*
X4227616Y954453D01*
X4175252Y1030818D02*
G01*
X4175252Y916271D01*
X4175252Y916271D02*
G01*
X4109798Y916271D01*
X4073799Y1030818D02*
G01*
X4073799Y916271D01*
X4073799Y916271D02*
G01*
X4008343Y916271D01*
X3888343Y1030818D02*
G01*
X3888343Y916271D01*
X3888343Y1030818D02*
G01*
X3839253Y1030818D01*
X3822887Y1025362D01*
X3817434Y1019909D01*
X3811981Y1008999D01*
X3811981Y998090D01*
X3817434Y987181D01*
X3822887Y981725D01*
X3839253Y976271D01*
X3888343Y976271D01*
X3850162Y976271D02*
G01*
X3811981Y916271D01*
X3775979Y1030818D02*
G01*
X3775979Y916271D01*
X3658161Y1003543D02*
G01*
X3663617Y1014453D01*
X3674526Y1025362D01*
X3685433Y1030818D01*
X3707251Y1030818D01*
X3718161Y1025362D01*
X3729070Y1014453D01*
X3734526Y1003543D01*
X3739979Y987181D01*
X3739979Y959909D01*
X3734526Y943543D01*
X3729070Y932634D01*
X3718161Y921725D01*
X3707251Y916271D01*
X3685433Y916271D01*
X3674526Y921725D01*
X3663617Y932634D01*
X3658161Y943543D01*
X3658161Y959909D01*
X3685433Y959909D02*
G01*
X3658161Y959909D01*
X3622161Y1030818D02*
G01*
X3622161Y916271D01*
X3545799Y1030818D02*
G01*
X3545799Y916271D01*
X3622161Y976271D02*
G01*
X3545799Y976271D01*
X3471616Y1030818D02*
G01*
X3471616Y916271D01*
X3509797Y1030818D02*
G01*
X3433434Y1030818D01*
X3321070Y1014453D02*
G01*
X3331979Y1025362D01*
X3348344Y1030818D01*
X3370160Y1030818D01*
X3386526Y1025362D01*
X3397435Y1014453D01*
X3397435Y1003543D01*
X3391979Y992634D01*
X3386526Y987181D01*
X3375616Y981725D01*
X3342888Y970818D01*
X3331979Y965362D01*
X3326526Y959909D01*
X3321070Y948999D01*
X3321070Y932634D01*
X3331979Y921725D01*
X3348344Y916271D01*
X3370160Y916271D01*
X3386526Y921725D01*
X3397435Y932634D01*
X3201070Y1030818D02*
G01*
X3201070Y916271D01*
X3201070Y1030818D02*
G01*
X3151979Y1030818D01*
X3135617Y1025362D01*
X3130161Y1019909D01*
X3124708Y1008999D01*
X3124708Y998090D01*
X3130161Y987181D01*
X3135617Y981725D01*
X3151979Y976271D01*
X3201070Y976271D01*
X3162889Y976271D02*
G01*
X3124708Y916271D01*
X3088706Y1030818D02*
G01*
X3088706Y916271D01*
X3088706Y1030818D02*
G01*
X3017796Y1030818D01*
X3088706Y976271D02*
G01*
X3045071Y976271D01*
X3088706Y916271D02*
G01*
X3017796Y916271D01*
X2905434Y1014453D02*
G01*
X2916344Y1025362D01*
X2932706Y1030818D01*
X2954525Y1030818D01*
X2970888Y1025362D01*
X2981797Y1014453D01*
X2981797Y1003543D01*
X2976344Y992634D01*
X2970888Y987181D01*
X2959978Y981725D01*
X2927253Y970818D01*
X2916344Y965362D01*
X2910888Y959909D01*
X2905434Y948999D01*
X2905434Y932634D01*
X2916344Y921725D01*
X2932706Y916271D01*
X2954525Y916271D01*
X2970888Y921725D01*
X2981797Y932634D01*
X2869435Y1030818D02*
G01*
X2869435Y916271D01*
X2869435Y1030818D02*
G01*
X2798526Y1030818D01*
X2869435Y976271D02*
G01*
X2825798Y976271D01*
X2869435Y916271D02*
G01*
X2798526Y916271D01*
X2762524Y1030818D02*
G01*
X2762524Y916271D01*
X2762524Y1030818D02*
G01*
X2713433Y1030818D01*
X2697071Y1025362D01*
X2691615Y1019909D01*
X2686161Y1008999D01*
X2686161Y998090D01*
X2691615Y987181D01*
X2697071Y981725D01*
X2713433Y976271D01*
X2762524Y976271D01*
X2724343Y976271D02*
G01*
X2686161Y916271D01*
X2650162Y1030818D02*
G01*
X2606525Y916271D01*
X2562887Y1030818D02*
G01*
X2606525Y916271D01*
X2526888Y1030818D02*
G01*
X2526888Y916271D01*
X2526888Y1030818D02*
G01*
X2455979Y1030818D01*
X2526888Y976271D02*
G01*
X2483253Y976271D01*
X2526888Y916271D02*
G01*
X2455979Y916271D01*
X2419979Y1030818D02*
G01*
X2419979Y916271D01*
X2419979Y1030818D02*
G01*
X2381798Y1030818D01*
X2365433Y1025362D01*
X2354526Y1014453D01*
X2349070Y1003543D01*
X2343617Y987181D01*
X2343617Y959909D01*
X2349070Y943543D01*
X2354526Y932634D01*
X2365433Y921725D01*
X2381798Y916271D01*
X2419979Y916271D01*
D10*
X1632846Y4945217D02*
G01*
X1632846Y4950673D01*
X1627390Y4961582D01*
X1621937Y4967036D01*
X1611028Y4972489D01*
X1589209Y4972489D01*
X1578300Y4967036D01*
X1572846Y4961582D01*
X1567390Y4950673D01*
X1567390Y4939764D01*
X1572846Y4928854D01*
X1583753Y4912489D01*
X1638300Y4857945D01*
X1561937Y4857945D01*
X1460482Y4972489D02*
G01*
X1515028Y4972489D01*
X1520482Y4923399D01*
X1515028Y4928854D01*
X1498663Y4934308D01*
X1482300Y4934308D01*
X1465935Y4928854D01*
X1455028Y4917945D01*
X1449572Y4901582D01*
X1449572Y4890673D01*
X1455028Y4874308D01*
X1465935Y4863399D01*
X1482300Y4857945D01*
X1498663Y4857945D01*
X1515028Y4863399D01*
X1520482Y4868854D01*
X1525935Y4879764D01*
X1408117Y4945217D02*
G01*
X1408117Y4950673D01*
X1402664Y4961582D01*
X1397210Y4967036D01*
X1386301Y4972489D01*
X1364482Y4972489D01*
X1353573Y4967036D01*
X1348117Y4961582D01*
X1342664Y4950673D01*
X1342664Y4939764D01*
X1348117Y4928854D01*
X1359027Y4912489D01*
X1413573Y4857945D01*
X1337210Y4857945D01*
X1268483Y4972489D02*
G01*
X1284846Y4967036D01*
X1295755Y4950673D01*
X1301208Y4923399D01*
X1301208Y4907036D01*
X1295755Y4879764D01*
X1284846Y4863399D01*
X1268483Y4857945D01*
X1257574Y4857945D01*
X1241209Y4863399D01*
X1230300Y4879764D01*
X1224846Y4907036D01*
X1224846Y4923399D01*
X1230300Y4950673D01*
X1241209Y4967036D01*
X1257574Y4972489D01*
X1268483Y4972489D01*
X1188846Y4907036D02*
G01*
X1090665Y4907036D01*
X1021938Y4972489D02*
G01*
X1038301Y4967036D01*
X1049210Y4950673D01*
X1054663Y4923399D01*
X1054663Y4907036D01*
X1049210Y4879764D01*
X1038301Y4863399D01*
X1021938Y4857945D01*
X1011029Y4857945D01*
X994663Y4863399D01*
X983754Y4879764D01*
X978301Y4907036D01*
X978301Y4923399D01*
X983754Y4950673D01*
X994663Y4967036D01*
X1011029Y4972489D01*
X1021938Y4972489D01*
X931392Y4972489D02*
G01*
X871392Y4972489D01*
X904120Y4928854D01*
X887755Y4928854D01*
X876846Y4923399D01*
X871392Y4917945D01*
X865936Y4901582D01*
X865936Y4890673D01*
X871392Y4874308D01*
X882302Y4863399D01*
X898664Y4857945D01*
X915029Y4857945D01*
X931392Y4863399D01*
X936845Y4868854D01*
X942301Y4879764D01*
X797212Y4972489D02*
G01*
X813574Y4967036D01*
X824484Y4950673D01*
X829937Y4923399D01*
X829937Y4907036D01*
X824484Y4879764D01*
X813574Y4863399D01*
X797212Y4857945D01*
X786302Y4857945D01*
X769937Y4863399D01*
X759028Y4879764D01*
X753574Y4907036D01*
X753574Y4923399D01*
X759028Y4950673D01*
X769937Y4967036D01*
X786302Y4972489D01*
X797212Y4972489D01*
X717575Y4950673D02*
G01*
X706666Y4956126D01*
X690300Y4972489D01*
X690300Y4857945D01*
D12*
X544941Y9741938D02*
G01*
X544941Y9658812D01*
X550138Y9643224D01*
X555332Y9638029D01*
X565724Y9632835D01*
X576115Y9632835D01*
X586506Y9638029D01*
X591703Y9643224D01*
X596897Y9658812D01*
X596897Y9669203D01*
X510651Y9721156D02*
G01*
X500263Y9726353D01*
X484675Y9741938D01*
X484675Y9632835D01*
X398432Y9741938D02*
G01*
X450385Y9669203D01*
X372452Y9669203D01*
X398432Y9741938D02*
G01*
X398432Y9632835D01*
X1179941Y9741938D02*
G01*
X1179941Y9658812D01*
X1185138Y9643224D01*
X1190332Y9638029D01*
X1200724Y9632835D01*
X1211115Y9632835D01*
X1221506Y9638029D01*
X1226703Y9643224D01*
X1231897Y9658812D01*
X1231897Y9669203D01*
X1145651Y9721156D02*
G01*
X1135263Y9726353D01*
X1119675Y9741938D01*
X1119675Y9632835D01*
X1023040Y9741938D02*
G01*
X1074994Y9741938D01*
X1080190Y9695179D01*
X1074994Y9700374D01*
X1059408Y9705571D01*
X1043823Y9705571D01*
X1028235Y9700374D01*
X1017844Y9689985D01*
X1012649Y9674397D01*
X1012649Y9664006D01*
X1017844Y9648421D01*
X1028235Y9638029D01*
X1043823Y9632835D01*
X1059408Y9632835D01*
X1074994Y9638029D01*
X1080190Y9643224D01*
X1085385Y9653615D01*
X7622374Y2693438D02*
G01*
X7622374Y2610312D01*
X7627571Y2594724D01*
X7632766Y2589529D01*
X7643157Y2584335D01*
X7653548Y2584335D01*
X7663939Y2589529D01*
X7669136Y2594724D01*
X7674330Y2610312D01*
X7674330Y2620703D01*
X7588084Y2672656D02*
G01*
X7577696Y2677853D01*
X7562108Y2693438D01*
X7562108Y2584335D01*
X7517427Y2693438D02*
G01*
X7460277Y2693438D01*
X7491450Y2651874D01*
X7475865Y2651874D01*
X7465474Y2646679D01*
X7460277Y2641485D01*
X7455082Y2625897D01*
X7455082Y2615506D01*
X7460277Y2599921D01*
X7470668Y2589529D01*
X7486256Y2584335D01*
X7501841Y2584335D01*
X7517427Y2589529D01*
X7522624Y2594724D01*
X7527818Y2605115D01*
X7593444Y7494038D02*
G01*
X7593444Y7410912D01*
X7598641Y7395324D01*
X7603835Y7390129D01*
X7614226Y7384935D01*
X7624617Y7384935D01*
X7635008Y7390129D01*
X7640205Y7395324D01*
X7645400Y7410912D01*
X7645400Y7421303D01*
X7559154Y7473256D02*
G01*
X7548765Y7478453D01*
X7533177Y7494038D01*
X7533177Y7384935D01*
X7498887Y7473256D02*
G01*
X7488496Y7478453D01*
X7472911Y7494038D01*
X7472911Y7384935D01*
X1589844Y7494038D02*
G01*
X1589844Y7410912D01*
X1595041Y7395324D01*
X1600235Y7390129D01*
X1610626Y7384935D01*
X1621017Y7384935D01*
X1631408Y7390129D01*
X1636605Y7395324D01*
X1641800Y7410912D01*
X1641800Y7421303D01*
X1555554Y7473256D02*
G01*
X1545165Y7478453D01*
X1529577Y7494038D01*
X1529577Y7384935D01*
X1464114Y7494038D02*
G01*
X1479702Y7488844D01*
X1490093Y7473256D01*
X1495287Y7447279D01*
X1495287Y7431694D01*
X1490093Y7405715D01*
X1479702Y7390129D01*
X1464114Y7384935D01*
X1453725Y7384935D01*
X1438137Y7390129D01*
X1427746Y7405715D01*
X1422552Y7431694D01*
X1422552Y7447279D01*
X1427746Y7473256D01*
X1438137Y7488844D01*
X1453725Y7494038D01*
X1464114Y7494038D01*
X1589844Y2693438D02*
G01*
X1589844Y2610312D01*
X1595041Y2594724D01*
X1600235Y2589529D01*
X1610626Y2584335D01*
X1621017Y2584335D01*
X1631408Y2589529D01*
X1636605Y2594724D01*
X1641800Y2610312D01*
X1641800Y2620703D01*
X1555554Y2672656D02*
G01*
X1545165Y2677853D01*
X1529577Y2693438D01*
X1529577Y2584335D01*
X1490093Y2667462D02*
G01*
X1490093Y2672656D01*
X1484896Y2683047D01*
X1479702Y2688244D01*
X1469311Y2693438D01*
X1448528Y2693438D01*
X1438137Y2688244D01*
X1432943Y2683047D01*
X1427746Y2672656D01*
X1427746Y2662265D01*
X1432943Y2651874D01*
X1443334Y2636288D01*
X1495287Y2584335D01*
X1422552Y2584335D01*
D13*
X888997Y10287000D02*
G01*
X380997Y10287000D01*
X380997Y9779000D01*
X888997Y9779000D01*
X888997Y10287000D01*
X888997Y10033000D02*
G01*
X634997Y10033000D01*
X634997Y9779000D01*
X1523997Y10287000D02*
G01*
X1015997Y10287000D01*
X1015997Y9779000D01*
X1523997Y9779000D01*
X1523997Y10287000D01*
X1523997Y10033000D02*
G01*
X1269997Y10033000D01*
X1269997Y9779000D01*
X7687033Y2535598D02*
G01*
X7433033Y2535598D01*
X7687033Y1477596D02*
G01*
X7687033Y2535598D01*
X7687033Y1754949D02*
G01*
X7433033Y1754949D01*
X7433033Y1477596D02*
G01*
X7433033Y2535598D01*
X7687033Y1477596D02*
G01*
X7433033Y1477596D01*
X7679895Y7327884D02*
G01*
X7425895Y7327884D01*
X7425895Y5295889D01*
X7679895Y5295889D01*
X7679895Y7327884D01*
X7679895Y5552239D02*
G01*
X7425895Y5552239D01*
X1654497Y7327884D02*
G01*
X1400497Y7327884D01*
X1400497Y5295889D01*
X1654497Y5295889D01*
X1654497Y7327884D01*
X1654497Y5552239D02*
G01*
X1400497Y5552239D01*
X1654497Y2535600D02*
G01*
X1400497Y2535600D01*
X1654497Y1477599D02*
G01*
X1654497Y2535600D01*
X1654497Y1754952D02*
G01*
X1400497Y1754952D01*
X1400497Y1477599D02*
G01*
X1400497Y2535600D01*
X1654497Y1477599D02*
G01*
X1400497Y1477599D01*
M02*
