G04 Layer: TopPasteMaskLayer*
G04 EasyEDA v6.5.29, 2023-07-19 21:41:10*
G04 ede76849b6084053bf44eed2514c4286,5a6b42c53f6a479593ecc07194224c93,10*
G04 Gerber Generator version 0.2*
G04 Scale: 100 percent, Rotated: No, Reflected: No *
G04 Dimensions in millimeters *
G04 leading zeros omitted , absolute positions ,4 integer and 5 decimal *
%FSLAX45Y45*%
%MOMM*%

%ADD10O,2.0450048X0.58801*%
%ADD11R,0.8000X0.9000*%
%ADD12R,0.9500X1.1500*%

%LPD*%
G36*
X3490620Y8125459D02*
G01*
X3485591Y8120481D01*
X3485591Y8040471D01*
X3490620Y8035493D01*
X3513378Y8035493D01*
X3513378Y8072475D01*
X3546398Y8072475D01*
X3546398Y8035493D01*
X3570579Y8035493D01*
X3575608Y8040471D01*
X3575608Y8120481D01*
X3570579Y8125459D01*
G37*
G36*
X3490620Y7965490D02*
G01*
X3485591Y7960512D01*
X3485591Y7881467D01*
X3490620Y7876489D01*
X3570579Y7876489D01*
X3575608Y7881467D01*
X3575608Y7960512D01*
X3570579Y7965490D01*
X3546398Y7965490D01*
X3546398Y7927492D01*
X3513378Y7927492D01*
X3513378Y7965490D01*
G37*
G36*
X3643020Y8125459D02*
G01*
X3637991Y8120481D01*
X3637991Y8040471D01*
X3643020Y8035493D01*
X3665778Y8035493D01*
X3665778Y8072475D01*
X3698798Y8072475D01*
X3698798Y8035493D01*
X3722979Y8035493D01*
X3728008Y8040471D01*
X3728008Y8120481D01*
X3722979Y8125459D01*
G37*
G36*
X3643020Y7965490D02*
G01*
X3637991Y7960512D01*
X3637991Y7881467D01*
X3643020Y7876489D01*
X3722979Y7876489D01*
X3728008Y7881467D01*
X3728008Y7960512D01*
X3722979Y7965490D01*
X3698798Y7965490D01*
X3698798Y7927492D01*
X3665778Y7927492D01*
X3665778Y7965490D01*
G37*
G36*
X3795420Y8125459D02*
G01*
X3790391Y8120481D01*
X3790391Y8040471D01*
X3795420Y8035493D01*
X3818178Y8035493D01*
X3818178Y8072475D01*
X3851198Y8072475D01*
X3851198Y8035493D01*
X3875379Y8035493D01*
X3880408Y8040471D01*
X3880408Y8120481D01*
X3875379Y8125459D01*
G37*
G36*
X3795420Y7965490D02*
G01*
X3790391Y7960512D01*
X3790391Y7881467D01*
X3795420Y7876489D01*
X3875379Y7876489D01*
X3880408Y7881467D01*
X3880408Y7960512D01*
X3875379Y7965490D01*
X3851198Y7965490D01*
X3851198Y7927492D01*
X3818178Y7927492D01*
X3818178Y7965490D01*
G37*
G36*
X1708962Y10035082D02*
G01*
X1703984Y10030104D01*
X1703984Y9985095D01*
X1708962Y9980066D01*
X1761947Y9980066D01*
X1766976Y9985095D01*
X1766976Y10030104D01*
X1761947Y10035082D01*
G37*
G36*
X1811985Y10035082D02*
G01*
X1806956Y10030104D01*
X1806956Y9985095D01*
X1811985Y9980066D01*
X1864969Y9980066D01*
X1869948Y9985095D01*
X1869948Y10030104D01*
X1864969Y10035082D01*
G37*
G36*
X2243785Y10720882D02*
G01*
X2238756Y10715904D01*
X2238756Y10670895D01*
X2243785Y10665866D01*
X2296769Y10665866D01*
X2301798Y10670895D01*
X2301798Y10715853D01*
X2296769Y10720882D01*
G37*
G36*
X2140762Y10720882D02*
G01*
X2135784Y10715904D01*
X2135784Y10670895D01*
X2140762Y10665866D01*
X2193798Y10665866D01*
X2198776Y10670895D01*
X2198776Y10715904D01*
X2193798Y10720882D01*
G37*
G36*
X2247493Y11533682D02*
G01*
X2242515Y11528704D01*
X2242515Y11483695D01*
X2247493Y11478717D01*
X2300478Y11478717D01*
X2305507Y11483695D01*
X2305507Y11528704D01*
X2300478Y11533682D01*
G37*
G36*
X2144522Y11533682D02*
G01*
X2139492Y11528704D01*
X2139492Y11483695D01*
X2144522Y11478717D01*
X2197506Y11478717D01*
X2202484Y11483695D01*
X2202484Y11528704D01*
X2197506Y11533682D01*
G37*
G36*
X1700022Y10847882D02*
G01*
X1694992Y10842904D01*
X1694992Y10797895D01*
X1700022Y10792917D01*
X1753006Y10792917D01*
X1757984Y10797895D01*
X1757984Y10842904D01*
X1753006Y10847882D01*
G37*
G36*
X1802993Y10847882D02*
G01*
X1798015Y10842904D01*
X1798015Y10797895D01*
X1802993Y10792917D01*
X1855978Y10792917D01*
X1861007Y10797895D01*
X1861007Y10842904D01*
X1855978Y10847882D01*
G37*
G36*
X2356967Y10077958D02*
G01*
X2351989Y10072979D01*
X2351989Y9992969D01*
X2356967Y9987991D01*
X2436977Y9987991D01*
X2441956Y9992969D01*
X2441956Y10015778D01*
X2404973Y10015778D01*
X2404973Y10048798D01*
X2441956Y10048798D01*
X2441956Y10072979D01*
X2436977Y10077958D01*
G37*
G36*
X2516987Y10077958D02*
G01*
X2511958Y10072979D01*
X2511958Y10048798D01*
X2549956Y10048798D01*
X2549956Y10015778D01*
X2511958Y10015778D01*
X2511958Y9992969D01*
X2516987Y9987991D01*
X2595981Y9987991D01*
X2600960Y9992969D01*
X2600960Y10072979D01*
X2595981Y10077958D01*
G37*
G36*
X2512669Y10563860D02*
G01*
X2507691Y10558881D01*
X2507691Y10478871D01*
X2512669Y10473893D01*
X2535478Y10473893D01*
X2535478Y10510875D01*
X2568498Y10510875D01*
X2568498Y10473893D01*
X2592679Y10473893D01*
X2597658Y10478871D01*
X2597658Y10558881D01*
X2592679Y10563860D01*
G37*
G36*
X2512669Y10403890D02*
G01*
X2507691Y10398861D01*
X2507691Y10319867D01*
X2512669Y10314889D01*
X2592679Y10314889D01*
X2597658Y10319867D01*
X2597658Y10398861D01*
X2592679Y10403890D01*
X2568498Y10403890D01*
X2568498Y10365892D01*
X2535478Y10365892D01*
X2535478Y10403890D01*
G37*
G36*
X2512669Y11376660D02*
G01*
X2507691Y11371681D01*
X2507691Y11291671D01*
X2512669Y11286693D01*
X2535478Y11286693D01*
X2535478Y11323675D01*
X2568498Y11323675D01*
X2568498Y11286693D01*
X2592679Y11286693D01*
X2597658Y11291671D01*
X2597658Y11371681D01*
X2592679Y11376660D01*
G37*
G36*
X2512669Y11216690D02*
G01*
X2507691Y11211661D01*
X2507691Y11132667D01*
X2512669Y11127689D01*
X2592679Y11127689D01*
X2597658Y11132667D01*
X2597658Y11211661D01*
X2592679Y11216690D01*
X2568498Y11216690D01*
X2568498Y11178692D01*
X2535478Y11178692D01*
X2535478Y11216690D01*
G37*
G36*
X7579969Y8125459D02*
G01*
X7574991Y8120481D01*
X7574991Y8040471D01*
X7579969Y8035493D01*
X7602778Y8035493D01*
X7602778Y8072475D01*
X7635798Y8072475D01*
X7635798Y8035493D01*
X7659979Y8035493D01*
X7665008Y8040471D01*
X7665008Y8120481D01*
X7659979Y8125459D01*
G37*
G36*
X7579969Y7965490D02*
G01*
X7574991Y7960512D01*
X7574991Y7881467D01*
X7579969Y7876489D01*
X7659979Y7876489D01*
X7665008Y7881467D01*
X7665008Y7960512D01*
X7659979Y7965490D01*
X7635798Y7965490D01*
X7635798Y7927492D01*
X7602778Y7927492D01*
X7602778Y7965490D01*
G37*
G36*
X7427569Y8125459D02*
G01*
X7422591Y8120481D01*
X7422591Y8040471D01*
X7427569Y8035493D01*
X7450378Y8035493D01*
X7450378Y8072475D01*
X7483398Y8072475D01*
X7483398Y8035493D01*
X7507579Y8035493D01*
X7512608Y8040471D01*
X7512608Y8120481D01*
X7507579Y8125459D01*
G37*
G36*
X7427569Y7965490D02*
G01*
X7422591Y7960512D01*
X7422591Y7881467D01*
X7427569Y7876489D01*
X7507579Y7876489D01*
X7512608Y7881467D01*
X7512608Y7960512D01*
X7507579Y7965490D01*
X7483398Y7965490D01*
X7483398Y7927492D01*
X7450378Y7927492D01*
X7450378Y7965490D01*
G37*
G36*
X7275169Y8125459D02*
G01*
X7270191Y8120481D01*
X7270191Y8040471D01*
X7275169Y8035493D01*
X7297978Y8035493D01*
X7297978Y8072475D01*
X7330998Y8072475D01*
X7330998Y8035493D01*
X7355179Y8035493D01*
X7360208Y8040471D01*
X7360208Y8120481D01*
X7355179Y8125459D01*
G37*
G36*
X7275169Y7965490D02*
G01*
X7270191Y7960512D01*
X7270191Y7881467D01*
X7275169Y7876489D01*
X7355179Y7876489D01*
X7360208Y7881467D01*
X7360208Y7960512D01*
X7355179Y7965490D01*
X7330998Y7965490D01*
X7330998Y7927492D01*
X7297978Y7927492D01*
X7297978Y7965490D01*
G37*
G36*
X9434169Y11376660D02*
G01*
X9429191Y11371681D01*
X9429191Y11291671D01*
X9434169Y11286693D01*
X9456978Y11286693D01*
X9456978Y11323675D01*
X9489998Y11323675D01*
X9489998Y11286693D01*
X9514179Y11286693D01*
X9519158Y11291671D01*
X9519158Y11371681D01*
X9514179Y11376660D01*
G37*
G36*
X9434169Y11216690D02*
G01*
X9429191Y11211661D01*
X9429191Y11132667D01*
X9434169Y11127689D01*
X9514179Y11127689D01*
X9519158Y11132667D01*
X9519158Y11211661D01*
X9514179Y11216690D01*
X9489998Y11216690D01*
X9489998Y11178692D01*
X9456978Y11178692D01*
X9456978Y11216690D01*
G37*
G36*
X9434169Y10563860D02*
G01*
X9429191Y10558881D01*
X9429191Y10478871D01*
X9434169Y10473893D01*
X9456978Y10473893D01*
X9456978Y10510875D01*
X9489998Y10510875D01*
X9489998Y10473893D01*
X9514179Y10473893D01*
X9519158Y10478871D01*
X9519158Y10558881D01*
X9514179Y10563860D01*
G37*
G36*
X9434169Y10403890D02*
G01*
X9429191Y10398861D01*
X9429191Y10319867D01*
X9434169Y10314889D01*
X9514179Y10314889D01*
X9519158Y10319867D01*
X9519158Y10398861D01*
X9514179Y10403890D01*
X9489998Y10403890D01*
X9489998Y10365892D01*
X9456978Y10365892D01*
X9456978Y10403890D01*
G37*
G36*
X9278467Y10077958D02*
G01*
X9273489Y10072979D01*
X9273489Y9992969D01*
X9278467Y9987991D01*
X9358477Y9987991D01*
X9363456Y9992969D01*
X9363456Y10015778D01*
X9326473Y10015778D01*
X9326473Y10048798D01*
X9363456Y10048798D01*
X9363456Y10072979D01*
X9358477Y10077958D01*
G37*
G36*
X9438487Y10077958D02*
G01*
X9433458Y10072979D01*
X9433458Y10048798D01*
X9471456Y10048798D01*
X9471456Y10015778D01*
X9433458Y10015778D01*
X9433458Y9992969D01*
X9438487Y9987991D01*
X9517481Y9987991D01*
X9522460Y9992969D01*
X9522460Y10072979D01*
X9517481Y10077958D01*
G37*
G36*
X8621522Y10847882D02*
G01*
X8616492Y10842904D01*
X8616492Y10797895D01*
X8621522Y10792917D01*
X8674506Y10792917D01*
X8679484Y10797895D01*
X8679484Y10842904D01*
X8674506Y10847882D01*
G37*
G36*
X8724493Y10847882D02*
G01*
X8719515Y10842904D01*
X8719515Y10797895D01*
X8724493Y10792917D01*
X8777478Y10792917D01*
X8782507Y10797895D01*
X8782507Y10842904D01*
X8777478Y10847882D01*
G37*
G36*
X9168993Y11533682D02*
G01*
X9164015Y11528704D01*
X9164015Y11483695D01*
X9168993Y11478717D01*
X9221978Y11478717D01*
X9227007Y11483695D01*
X9227007Y11528704D01*
X9221978Y11533682D01*
G37*
G36*
X9066022Y11533682D02*
G01*
X9060992Y11528704D01*
X9060992Y11483695D01*
X9066022Y11478717D01*
X9119006Y11478717D01*
X9123984Y11483695D01*
X9123984Y11528704D01*
X9119006Y11533682D01*
G37*
G36*
X9165285Y10720882D02*
G01*
X9160256Y10715904D01*
X9160256Y10670895D01*
X9165285Y10665866D01*
X9218269Y10665866D01*
X9223298Y10670895D01*
X9223298Y10715853D01*
X9218269Y10720882D01*
G37*
G36*
X9062262Y10720882D02*
G01*
X9057284Y10715904D01*
X9057284Y10670895D01*
X9062262Y10665866D01*
X9115298Y10665866D01*
X9120276Y10670895D01*
X9120276Y10715904D01*
X9115298Y10720882D01*
G37*
G36*
X8630462Y10035082D02*
G01*
X8625484Y10030104D01*
X8625484Y9985095D01*
X8630462Y9980066D01*
X8683447Y9980066D01*
X8688476Y9985095D01*
X8688476Y10030104D01*
X8683447Y10035082D01*
G37*
G36*
X8733485Y10035082D02*
G01*
X8728456Y10030104D01*
X8728456Y9985095D01*
X8733485Y9980066D01*
X8786469Y9980066D01*
X8791448Y9985095D01*
X8791448Y10030104D01*
X8786469Y10035082D01*
G37*
G36*
X826922Y10255758D02*
G01*
X821893Y10250779D01*
X821893Y10227970D01*
X858875Y10227970D01*
X858875Y10194950D01*
X821893Y10194950D01*
X821893Y10170769D01*
X826922Y10165791D01*
X906881Y10165791D01*
X911910Y10170769D01*
X911910Y10250779D01*
X906881Y10255758D01*
G37*
G36*
X667918Y10255758D02*
G01*
X662889Y10250779D01*
X662889Y10170769D01*
X667918Y10165791D01*
X746912Y10165791D01*
X751890Y10170769D01*
X751890Y10194950D01*
X713892Y10194950D01*
X713892Y10227970D01*
X751890Y10227970D01*
X751890Y10250779D01*
X746912Y10255758D01*
G37*
G36*
X826922Y10408158D02*
G01*
X821893Y10403179D01*
X821893Y10380370D01*
X858875Y10380370D01*
X858875Y10347350D01*
X821893Y10347350D01*
X821893Y10323169D01*
X826922Y10318191D01*
X906881Y10318191D01*
X911910Y10323169D01*
X911910Y10403179D01*
X906881Y10408158D01*
G37*
G36*
X667918Y10408158D02*
G01*
X662889Y10403179D01*
X662889Y10323169D01*
X667918Y10318191D01*
X746912Y10318191D01*
X751890Y10323169D01*
X751890Y10347350D01*
X713892Y10347350D01*
X713892Y10380370D01*
X751890Y10380370D01*
X751890Y10403179D01*
X746912Y10408158D01*
G37*
G36*
X10269067Y10408158D02*
G01*
X10264089Y10403179D01*
X10264089Y10323169D01*
X10269067Y10318191D01*
X10349077Y10318191D01*
X10354056Y10323169D01*
X10354056Y10345978D01*
X10317073Y10345978D01*
X10317073Y10378998D01*
X10354056Y10378998D01*
X10354056Y10403179D01*
X10349077Y10408158D01*
G37*
G36*
X10429087Y10408158D02*
G01*
X10424058Y10403179D01*
X10424058Y10378998D01*
X10462056Y10378998D01*
X10462056Y10345978D01*
X10424058Y10345978D01*
X10424058Y10323169D01*
X10429087Y10318191D01*
X10508081Y10318191D01*
X10513060Y10323169D01*
X10513060Y10403179D01*
X10508081Y10408158D01*
G37*
G36*
X10269067Y10255758D02*
G01*
X10264089Y10250779D01*
X10264089Y10170769D01*
X10269067Y10165791D01*
X10349077Y10165791D01*
X10354056Y10170769D01*
X10354056Y10193578D01*
X10317073Y10193578D01*
X10317073Y10226598D01*
X10354056Y10226598D01*
X10354056Y10250779D01*
X10349077Y10255758D01*
G37*
G36*
X10429087Y10255758D02*
G01*
X10424058Y10250779D01*
X10424058Y10226598D01*
X10462056Y10226598D01*
X10462056Y10193578D01*
X10424058Y10193578D01*
X10424058Y10170769D01*
X10429087Y10165791D01*
X10508081Y10165791D01*
X10513060Y10170769D01*
X10513060Y10250779D01*
X10508081Y10255758D01*
G37*
G36*
X1150518Y2432608D02*
G01*
X1145489Y2427579D01*
X1145489Y2347620D01*
X1150518Y2342591D01*
X1230477Y2342591D01*
X1235506Y2347620D01*
X1235506Y2370378D01*
X1198473Y2370378D01*
X1198473Y2403398D01*
X1235506Y2403398D01*
X1235506Y2427579D01*
X1230477Y2432608D01*
G37*
G36*
X1310487Y2432608D02*
G01*
X1305509Y2427579D01*
X1305509Y2403398D01*
X1343507Y2403398D01*
X1343507Y2370378D01*
X1305509Y2370378D01*
X1305509Y2347620D01*
X1310487Y2342591D01*
X1389481Y2342591D01*
X1394510Y2347620D01*
X1394510Y2427579D01*
X1389481Y2432608D01*
G37*
G36*
X1150518Y2585008D02*
G01*
X1145489Y2579979D01*
X1145489Y2500020D01*
X1150518Y2494991D01*
X1230477Y2494991D01*
X1235506Y2500020D01*
X1235506Y2522778D01*
X1198473Y2522778D01*
X1198473Y2555798D01*
X1235506Y2555798D01*
X1235506Y2579979D01*
X1230477Y2585008D01*
G37*
G36*
X1310487Y2585008D02*
G01*
X1305509Y2579979D01*
X1305509Y2555798D01*
X1343507Y2555798D01*
X1343507Y2522778D01*
X1305509Y2522778D01*
X1305509Y2500020D01*
X1310487Y2494991D01*
X1389481Y2494991D01*
X1394510Y2500020D01*
X1394510Y2579979D01*
X1389481Y2585008D01*
G37*
G36*
X9945471Y2432608D02*
G01*
X9940493Y2427579D01*
X9940493Y2404821D01*
X9977475Y2404821D01*
X9977475Y2371801D01*
X9940493Y2371801D01*
X9940493Y2347569D01*
X9945471Y2342591D01*
X10025481Y2342591D01*
X10030460Y2347569D01*
X10030460Y2427579D01*
X10025481Y2432608D01*
G37*
G36*
X9786467Y2432608D02*
G01*
X9781489Y2427579D01*
X9781489Y2347569D01*
X9786467Y2342591D01*
X9865461Y2342591D01*
X9870490Y2347569D01*
X9870490Y2371801D01*
X9832492Y2371801D01*
X9832492Y2404821D01*
X9870490Y2404821D01*
X9870490Y2427579D01*
X9865461Y2432608D01*
G37*
G36*
X9945471Y2585008D02*
G01*
X9940493Y2579979D01*
X9940493Y2557221D01*
X9977475Y2557221D01*
X9977475Y2524201D01*
X9940493Y2524201D01*
X9940493Y2499969D01*
X9945471Y2494991D01*
X10025481Y2494991D01*
X10030460Y2499969D01*
X10030460Y2579979D01*
X10025481Y2585008D01*
G37*
G36*
X9786467Y2585008D02*
G01*
X9781489Y2579979D01*
X9781489Y2499969D01*
X9786467Y2494991D01*
X9865461Y2494991D01*
X9870490Y2499969D01*
X9870490Y2524201D01*
X9832492Y2524201D01*
X9832492Y2557221D01*
X9870490Y2557221D01*
X9870490Y2579979D01*
X9865461Y2585008D01*
G37*
G36*
X1434541Y9910216D02*
G01*
X1427835Y9903460D01*
X1427835Y9850729D01*
X1458671Y9821011D01*
X1487728Y9821011D01*
X1518564Y9850729D01*
X1518564Y9903460D01*
X1511858Y9910216D01*
G37*
G36*
X1458671Y9787737D02*
G01*
X1427835Y9758019D01*
X1427835Y9705289D01*
X1434541Y9698583D01*
X1511858Y9698583D01*
X1518564Y9705289D01*
X1518564Y9758019D01*
X1487728Y9787737D01*
G37*
G36*
X2449322Y8599982D02*
G01*
X2444292Y8595004D01*
X2444292Y8549995D01*
X2449322Y8545017D01*
X2502306Y8545017D01*
X2507284Y8549995D01*
X2507284Y8595004D01*
X2502306Y8599982D01*
G37*
G36*
X2552293Y8599982D02*
G01*
X2547315Y8595004D01*
X2547315Y8549995D01*
X2552293Y8545017D01*
X2605278Y8545017D01*
X2610307Y8549995D01*
X2610307Y8595004D01*
X2605278Y8599982D01*
G37*
G36*
X2984093Y9285782D02*
G01*
X2979115Y9280804D01*
X2979115Y9235795D01*
X2984093Y9230817D01*
X3037078Y9230817D01*
X3042107Y9235795D01*
X3042107Y9280804D01*
X3037078Y9285782D01*
G37*
G36*
X2881122Y9285782D02*
G01*
X2876092Y9280804D01*
X2876092Y9235795D01*
X2881122Y9230817D01*
X2934106Y9230817D01*
X2939084Y9235795D01*
X2939084Y9280804D01*
X2934106Y9285782D01*
G37*
G36*
X2984093Y8472982D02*
G01*
X2979115Y8468004D01*
X2979115Y8422995D01*
X2984093Y8418017D01*
X3037078Y8418017D01*
X3042107Y8422995D01*
X3042107Y8468004D01*
X3037078Y8472982D01*
G37*
G36*
X2881122Y8472982D02*
G01*
X2876092Y8468004D01*
X2876092Y8422995D01*
X2881122Y8418017D01*
X2934106Y8418017D01*
X2939084Y8422995D01*
X2939084Y8468004D01*
X2934106Y8472982D01*
G37*
G36*
X2449322Y7787182D02*
G01*
X2444292Y7782204D01*
X2444292Y7737195D01*
X2449322Y7732217D01*
X2502306Y7732217D01*
X2507284Y7737195D01*
X2507284Y7782204D01*
X2502306Y7787182D01*
G37*
G36*
X2552293Y7787182D02*
G01*
X2547315Y7782204D01*
X2547315Y7737195D01*
X2552293Y7732217D01*
X2605278Y7732217D01*
X2610307Y7737195D01*
X2610307Y7782204D01*
X2605278Y7787182D01*
G37*
G36*
X1434541Y8386216D02*
G01*
X1427835Y8379459D01*
X1427835Y8326729D01*
X1458671Y8297011D01*
X1487728Y8297011D01*
X1518564Y8326729D01*
X1518564Y8379459D01*
X1511858Y8386216D01*
G37*
G36*
X1458671Y8263737D02*
G01*
X1427835Y8234019D01*
X1427835Y8181289D01*
X1434541Y8174583D01*
X1511858Y8174583D01*
X1518564Y8181289D01*
X1518564Y8234019D01*
X1487728Y8263737D01*
G37*
G36*
X3338220Y9979660D02*
G01*
X3333191Y9974681D01*
X3333191Y9894671D01*
X3338220Y9889693D01*
X3360978Y9889693D01*
X3360978Y9926675D01*
X3393998Y9926675D01*
X3393998Y9889693D01*
X3418179Y9889693D01*
X3423208Y9894671D01*
X3423208Y9974681D01*
X3418179Y9979660D01*
G37*
G36*
X3338220Y9819690D02*
G01*
X3333191Y9814661D01*
X3333191Y9735667D01*
X3338220Y9730689D01*
X3418179Y9730689D01*
X3423208Y9735667D01*
X3423208Y9814661D01*
X3418179Y9819690D01*
X3393998Y9819690D01*
X3393998Y9781692D01*
X3360978Y9781692D01*
X3360978Y9819690D01*
G37*
G36*
X4050893Y9285782D02*
G01*
X4045915Y9280804D01*
X4045915Y9235795D01*
X4050893Y9230817D01*
X4103878Y9230817D01*
X4108907Y9235795D01*
X4108907Y9280804D01*
X4103878Y9285782D01*
G37*
G36*
X3947922Y9285782D02*
G01*
X3942892Y9280804D01*
X3942892Y9235795D01*
X3947922Y9230817D01*
X4000906Y9230817D01*
X4005884Y9235795D01*
X4005884Y9280804D01*
X4000906Y9285782D01*
G37*
G36*
X3516071Y8599982D02*
G01*
X3511092Y8595004D01*
X3511092Y8549995D01*
X3516071Y8545017D01*
X3569106Y8545017D01*
X3574084Y8549995D01*
X3574084Y8595004D01*
X3569106Y8599982D01*
G37*
G36*
X3619093Y8599982D02*
G01*
X3614115Y8595004D01*
X3614115Y8549995D01*
X3619093Y8545017D01*
X3672078Y8545017D01*
X3677107Y8549995D01*
X3677107Y8595004D01*
X3672078Y8599982D01*
G37*
G36*
X4709922Y8595360D02*
G01*
X4704892Y8590330D01*
X4704892Y8545372D01*
X4709922Y8540343D01*
X4762906Y8540343D01*
X4767884Y8545372D01*
X4767884Y8590330D01*
X4762906Y8595360D01*
G37*
G36*
X4812893Y8595360D02*
G01*
X4807915Y8590330D01*
X4807915Y8545322D01*
X4812893Y8540343D01*
X4865878Y8540343D01*
X4870907Y8545372D01*
X4870907Y8590330D01*
X4865878Y8595360D01*
G37*
G36*
X5244693Y9281160D02*
G01*
X5239715Y9276130D01*
X5239715Y9231122D01*
X5244693Y9226143D01*
X5297728Y9226143D01*
X5302707Y9231172D01*
X5302707Y9276130D01*
X5297728Y9281160D01*
G37*
G36*
X5141722Y9281160D02*
G01*
X5136692Y9276130D01*
X5136692Y9231122D01*
X5141722Y9226143D01*
X5194706Y9226143D01*
X5199684Y9231122D01*
X5199684Y9276130D01*
X5194706Y9281160D01*
G37*
G36*
X4531969Y9979660D02*
G01*
X4526991Y9974681D01*
X4526991Y9894671D01*
X4531969Y9889693D01*
X4554778Y9889693D01*
X4554778Y9926675D01*
X4587798Y9926675D01*
X4587798Y9889693D01*
X4611979Y9889693D01*
X4617008Y9894671D01*
X4617008Y9974681D01*
X4611979Y9979660D01*
G37*
G36*
X4531969Y9819690D02*
G01*
X4526991Y9814661D01*
X4526991Y9735667D01*
X4531969Y9730689D01*
X4611979Y9730689D01*
X4617008Y9735667D01*
X4617008Y9814661D01*
X4611979Y9819690D01*
X4587798Y9819690D01*
X4587798Y9781692D01*
X4554778Y9781692D01*
X4554778Y9819690D01*
G37*
G36*
X5738469Y9979660D02*
G01*
X5733491Y9974681D01*
X5733491Y9894671D01*
X5738469Y9889693D01*
X5761278Y9889693D01*
X5761278Y9926675D01*
X5794298Y9926675D01*
X5794298Y9889693D01*
X5818479Y9889693D01*
X5823508Y9894671D01*
X5823508Y9974681D01*
X5818479Y9979660D01*
G37*
G36*
X5738469Y9819690D02*
G01*
X5733491Y9814661D01*
X5733491Y9735667D01*
X5738469Y9730689D01*
X5818479Y9730689D01*
X5823508Y9735667D01*
X5823508Y9814661D01*
X5818479Y9819690D01*
X5794298Y9819690D01*
X5794298Y9781692D01*
X5761278Y9781692D01*
X5761278Y9819690D01*
G37*
G36*
X6944969Y9979660D02*
G01*
X6939991Y9974681D01*
X6939991Y9894671D01*
X6944969Y9889693D01*
X6967778Y9889693D01*
X6967778Y9926675D01*
X7000798Y9926675D01*
X7000798Y9889693D01*
X7024979Y9889693D01*
X7030008Y9894671D01*
X7030008Y9974681D01*
X7024979Y9979660D01*
G37*
G36*
X6944969Y9819690D02*
G01*
X6939991Y9814661D01*
X6939991Y9735667D01*
X6944969Y9730689D01*
X7024979Y9730689D01*
X7030008Y9735667D01*
X7030008Y9814661D01*
X7024979Y9819690D01*
X7000798Y9819690D01*
X7000798Y9781692D01*
X6967778Y9781692D01*
X6967778Y9819690D01*
G37*
G36*
X8151469Y9979660D02*
G01*
X8146491Y9974681D01*
X8146491Y9894671D01*
X8151469Y9889693D01*
X8174278Y9889693D01*
X8174278Y9926675D01*
X8207298Y9926675D01*
X8207298Y9889693D01*
X8231479Y9889693D01*
X8236508Y9894671D01*
X8236508Y9974681D01*
X8231479Y9979660D01*
G37*
G36*
X8151469Y9819690D02*
G01*
X8146491Y9814661D01*
X8146491Y9735667D01*
X8151469Y9730689D01*
X8231479Y9730689D01*
X8236508Y9735667D01*
X8236508Y9814661D01*
X8231479Y9819690D01*
X8207298Y9819690D01*
X8207298Y9781692D01*
X8174278Y9781692D01*
X8174278Y9819690D01*
G37*
G36*
X5916371Y8599982D02*
G01*
X5911392Y8595004D01*
X5911392Y8549995D01*
X5916371Y8545017D01*
X5969406Y8545017D01*
X5974384Y8549995D01*
X5974384Y8595004D01*
X5969406Y8599982D01*
G37*
G36*
X6019393Y8599982D02*
G01*
X6014415Y8595004D01*
X6014415Y8549995D01*
X6019393Y8545017D01*
X6072378Y8545017D01*
X6077407Y8549995D01*
X6077407Y8595004D01*
X6072378Y8599982D01*
G37*
G36*
X6451193Y9285782D02*
G01*
X6446215Y9280804D01*
X6446215Y9235795D01*
X6451193Y9230817D01*
X6504178Y9230817D01*
X6509207Y9235795D01*
X6509207Y9280804D01*
X6504178Y9285782D01*
G37*
G36*
X6348222Y9285782D02*
G01*
X6343192Y9280804D01*
X6343192Y9235795D01*
X6348222Y9230817D01*
X6401206Y9230817D01*
X6406184Y9235795D01*
X6406184Y9280804D01*
X6401206Y9285782D01*
G37*
G36*
X7122871Y8599982D02*
G01*
X7117892Y8595004D01*
X7117892Y8549995D01*
X7122871Y8545017D01*
X7175906Y8545017D01*
X7180884Y8549995D01*
X7180884Y8595004D01*
X7175906Y8599982D01*
G37*
G36*
X7225893Y8599982D02*
G01*
X7220915Y8595004D01*
X7220915Y8549995D01*
X7225893Y8545017D01*
X7278878Y8545017D01*
X7283907Y8549995D01*
X7283907Y8595004D01*
X7278878Y8599982D01*
G37*
G36*
X7657693Y9285782D02*
G01*
X7652715Y9280804D01*
X7652715Y9235795D01*
X7657693Y9230817D01*
X7710678Y9230817D01*
X7715707Y9235795D01*
X7715707Y9280804D01*
X7710678Y9285782D01*
G37*
G36*
X7554722Y9285782D02*
G01*
X7549692Y9280804D01*
X7549692Y9235795D01*
X7554722Y9230817D01*
X7607706Y9230817D01*
X7612684Y9235795D01*
X7612684Y9280804D01*
X7607706Y9285782D01*
G37*
G36*
X8329371Y8599982D02*
G01*
X8324392Y8595004D01*
X8324392Y8549995D01*
X8329371Y8545017D01*
X8382406Y8545017D01*
X8387384Y8549995D01*
X8387384Y8595004D01*
X8382406Y8599982D01*
G37*
G36*
X8432393Y8599982D02*
G01*
X8427415Y8595004D01*
X8427415Y8549995D01*
X8432393Y8545017D01*
X8485378Y8545017D01*
X8490407Y8549995D01*
X8490407Y8595004D01*
X8485378Y8599982D01*
G37*
G36*
X8864193Y9285782D02*
G01*
X8859215Y9280804D01*
X8859215Y9235795D01*
X8864193Y9230817D01*
X8917178Y9230817D01*
X8922207Y9235795D01*
X8922207Y9280804D01*
X8917178Y9285782D01*
G37*
G36*
X8761222Y9285782D02*
G01*
X8756192Y9280804D01*
X8756192Y9235795D01*
X8761222Y9230817D01*
X8814206Y9230817D01*
X8819184Y9235795D01*
X8819184Y9280804D01*
X8814206Y9285782D01*
G37*
G36*
X2449322Y6974382D02*
G01*
X2444292Y6969404D01*
X2444292Y6924395D01*
X2449322Y6919417D01*
X2502306Y6919417D01*
X2507284Y6924395D01*
X2507284Y6969404D01*
X2502306Y6974382D01*
G37*
G36*
X2552293Y6974382D02*
G01*
X2547315Y6969404D01*
X2547315Y6924395D01*
X2552293Y6919417D01*
X2605278Y6919417D01*
X2610307Y6924395D01*
X2610307Y6969404D01*
X2605278Y6974382D01*
G37*
G36*
X2984093Y7660182D02*
G01*
X2979115Y7655204D01*
X2979115Y7610195D01*
X2984093Y7605217D01*
X3037078Y7605217D01*
X3042107Y7610195D01*
X3042107Y7655204D01*
X3037078Y7660182D01*
G37*
G36*
X2881122Y7660182D02*
G01*
X2876092Y7655204D01*
X2876092Y7610195D01*
X2881122Y7605217D01*
X2934106Y7605217D01*
X2939084Y7610195D01*
X2939084Y7655204D01*
X2934106Y7660182D01*
G37*
G36*
X1434541Y6862216D02*
G01*
X1427835Y6855459D01*
X1427835Y6802729D01*
X1458671Y6773011D01*
X1487728Y6773011D01*
X1518564Y6802729D01*
X1518564Y6855459D01*
X1511858Y6862216D01*
G37*
G36*
X1458671Y6739737D02*
G01*
X1427835Y6710019D01*
X1427835Y6657289D01*
X1434541Y6650583D01*
X1511858Y6650583D01*
X1518564Y6657289D01*
X1518564Y6710019D01*
X1487728Y6739737D01*
G37*
G36*
X2984093Y6847382D02*
G01*
X2979115Y6842404D01*
X2979115Y6797395D01*
X2984093Y6792417D01*
X3037078Y6792417D01*
X3042107Y6797395D01*
X3042107Y6842404D01*
X3037078Y6847382D01*
G37*
G36*
X2881122Y6847382D02*
G01*
X2876092Y6842404D01*
X2876092Y6797395D01*
X2881122Y6792417D01*
X2934106Y6792417D01*
X2939084Y6797395D01*
X2939084Y6842404D01*
X2934106Y6847382D01*
G37*
G36*
X2449322Y6161582D02*
G01*
X2444292Y6156604D01*
X2444292Y6111595D01*
X2449322Y6106617D01*
X2502306Y6106617D01*
X2507284Y6111595D01*
X2507284Y6156604D01*
X2502306Y6161582D01*
G37*
G36*
X2552293Y6161582D02*
G01*
X2547315Y6156604D01*
X2547315Y6111595D01*
X2552293Y6106617D01*
X2605278Y6106617D01*
X2610307Y6111595D01*
X2610307Y6156604D01*
X2605278Y6161582D01*
G37*
G36*
X1434541Y5338216D02*
G01*
X1427835Y5331460D01*
X1427835Y5278729D01*
X1458671Y5249011D01*
X1487728Y5249011D01*
X1518564Y5278729D01*
X1518564Y5331460D01*
X1511858Y5338216D01*
G37*
G36*
X1458671Y5215737D02*
G01*
X1427835Y5186019D01*
X1427835Y5133289D01*
X1434541Y5126583D01*
X1511858Y5126583D01*
X1518564Y5133289D01*
X1518564Y5186019D01*
X1487728Y5215737D01*
G37*
G36*
X1434541Y3814216D02*
G01*
X1427835Y3807460D01*
X1427835Y3754729D01*
X1458671Y3725011D01*
X1487728Y3725011D01*
X1518564Y3754729D01*
X1518564Y3807460D01*
X1511858Y3814216D01*
G37*
G36*
X1458671Y3691737D02*
G01*
X1427835Y3662019D01*
X1427835Y3609289D01*
X1434541Y3602583D01*
X1511858Y3602583D01*
X1518564Y3609289D01*
X1518564Y3662019D01*
X1487728Y3691737D01*
G37*
G36*
X2449322Y5348782D02*
G01*
X2444292Y5343804D01*
X2444292Y5298795D01*
X2449322Y5293817D01*
X2502306Y5293817D01*
X2507284Y5298795D01*
X2507284Y5343804D01*
X2502306Y5348782D01*
G37*
G36*
X2552293Y5348782D02*
G01*
X2547315Y5343804D01*
X2547315Y5298795D01*
X2552293Y5293817D01*
X2605278Y5293817D01*
X2610307Y5298795D01*
X2610307Y5343804D01*
X2605278Y5348782D01*
G37*
G36*
X2984093Y6034582D02*
G01*
X2979115Y6029604D01*
X2979115Y5984595D01*
X2984093Y5979617D01*
X3037078Y5979617D01*
X3042107Y5984595D01*
X3042107Y6029604D01*
X3037078Y6034582D01*
G37*
G36*
X2881122Y6034582D02*
G01*
X2876092Y6029604D01*
X2876092Y5984595D01*
X2881122Y5979617D01*
X2934106Y5979617D01*
X2939084Y5984595D01*
X2939084Y6029604D01*
X2934106Y6034582D01*
G37*
G36*
X9638741Y9910216D02*
G01*
X9632035Y9903460D01*
X9632035Y9850729D01*
X9662871Y9821011D01*
X9691878Y9821011D01*
X9722713Y9850729D01*
X9722713Y9903460D01*
X9716008Y9910216D01*
G37*
G36*
X9662871Y9787737D02*
G01*
X9632035Y9758019D01*
X9632035Y9705289D01*
X9638741Y9698583D01*
X9716008Y9698583D01*
X9722713Y9705289D01*
X9722713Y9758019D01*
X9691878Y9787737D01*
G37*
G36*
X9638741Y8386216D02*
G01*
X9632035Y8379459D01*
X9632035Y8326729D01*
X9662871Y8297011D01*
X9691878Y8297011D01*
X9722713Y8326729D01*
X9722713Y8379459D01*
X9716008Y8386216D01*
G37*
G36*
X9662871Y8263737D02*
G01*
X9632035Y8234019D01*
X9632035Y8181289D01*
X9638741Y8174583D01*
X9716008Y8174583D01*
X9722713Y8181289D01*
X9722713Y8234019D01*
X9691878Y8263737D01*
G37*
G36*
X9638741Y6862216D02*
G01*
X9632035Y6855459D01*
X9632035Y6802729D01*
X9662871Y6773011D01*
X9691878Y6773011D01*
X9722713Y6802729D01*
X9722713Y6855459D01*
X9716008Y6862216D01*
G37*
G36*
X9662871Y6739737D02*
G01*
X9632035Y6710019D01*
X9632035Y6657289D01*
X9638741Y6650583D01*
X9716008Y6650583D01*
X9722713Y6657289D01*
X9722713Y6710019D01*
X9691878Y6739737D01*
G37*
G36*
X9638741Y5338216D02*
G01*
X9632035Y5331460D01*
X9632035Y5278729D01*
X9662871Y5249011D01*
X9691878Y5249011D01*
X9722713Y5278729D01*
X9722713Y5331460D01*
X9716008Y5338216D01*
G37*
G36*
X9662871Y5215737D02*
G01*
X9632035Y5186019D01*
X9632035Y5133289D01*
X9638741Y5126583D01*
X9716008Y5126583D01*
X9722713Y5133289D01*
X9722713Y5186019D01*
X9691878Y5215737D01*
G37*
G36*
X9638741Y3814216D02*
G01*
X9632035Y3807460D01*
X9632035Y3754729D01*
X9662871Y3725011D01*
X9691878Y3725011D01*
X9722713Y3754729D01*
X9722713Y3807460D01*
X9716008Y3814216D01*
G37*
G36*
X9662871Y3691737D02*
G01*
X9632035Y3662019D01*
X9632035Y3609289D01*
X9638741Y3602583D01*
X9716008Y3602583D01*
X9722713Y3609289D01*
X9722713Y3662019D01*
X9691878Y3691737D01*
G37*
G36*
X8622893Y8142782D02*
G01*
X8617864Y8137804D01*
X8617915Y8092795D01*
X8622893Y8087817D01*
X8675878Y8087817D01*
X8680907Y8092795D01*
X8680907Y8137804D01*
X8675878Y8142782D01*
G37*
G36*
X8519871Y8142782D02*
G01*
X8514892Y8137804D01*
X8514892Y8092795D01*
X8519871Y8087817D01*
X8572906Y8087817D01*
X8577884Y8092795D01*
X8577884Y8137804D01*
X8572906Y8142782D01*
G37*
G36*
X8088071Y7456982D02*
G01*
X8083092Y7452004D01*
X8083092Y7406995D01*
X8088071Y7402017D01*
X8141106Y7402017D01*
X8146084Y7406995D01*
X8146084Y7452004D01*
X8141106Y7456982D01*
G37*
G36*
X8191093Y7456982D02*
G01*
X8186064Y7452004D01*
X8186064Y7406995D01*
X8191093Y7402017D01*
X8244078Y7402017D01*
X8249107Y7406995D01*
X8249107Y7452004D01*
X8244078Y7456982D01*
G37*
G36*
X8088071Y6644182D02*
G01*
X8083092Y6639204D01*
X8083092Y6594195D01*
X8088071Y6589217D01*
X8141106Y6589217D01*
X8146084Y6594195D01*
X8146084Y6639204D01*
X8141106Y6644182D01*
G37*
G36*
X8191093Y6644182D02*
G01*
X8186064Y6639204D01*
X8186064Y6594195D01*
X8191093Y6589217D01*
X8244078Y6589217D01*
X8249107Y6594195D01*
X8249107Y6639204D01*
X8244078Y6644182D01*
G37*
G36*
X8622893Y7329982D02*
G01*
X8617864Y7325004D01*
X8617915Y7279995D01*
X8622893Y7275017D01*
X8675878Y7275017D01*
X8680907Y7279995D01*
X8680907Y7325004D01*
X8675878Y7329982D01*
G37*
G36*
X8519871Y7329982D02*
G01*
X8514892Y7325004D01*
X8514892Y7279995D01*
X8519871Y7275017D01*
X8572906Y7275017D01*
X8577884Y7279995D01*
X8577884Y7325004D01*
X8572906Y7329982D01*
G37*
G36*
X8088071Y5831382D02*
G01*
X8083092Y5826404D01*
X8083092Y5781395D01*
X8088071Y5776417D01*
X8141106Y5776417D01*
X8146084Y5781395D01*
X8146084Y5826404D01*
X8141106Y5831382D01*
G37*
G36*
X8191093Y5831382D02*
G01*
X8186064Y5826404D01*
X8186064Y5781395D01*
X8191093Y5776417D01*
X8244078Y5776417D01*
X8249107Y5781395D01*
X8249107Y5826404D01*
X8244078Y5831382D01*
G37*
G36*
X8622893Y6517182D02*
G01*
X8617864Y6512204D01*
X8617915Y6467195D01*
X8622893Y6462217D01*
X8675878Y6462217D01*
X8680907Y6467195D01*
X8680907Y6512204D01*
X8675878Y6517182D01*
G37*
G36*
X8519871Y6517182D02*
G01*
X8514892Y6512204D01*
X8514892Y6467195D01*
X8519871Y6462217D01*
X8572906Y6462217D01*
X8577884Y6467195D01*
X8577884Y6512204D01*
X8572906Y6517182D01*
G37*
G36*
X8084515Y5020716D02*
G01*
X8079536Y5015738D01*
X8079536Y4970729D01*
X8084515Y4965750D01*
X8137550Y4965750D01*
X8142528Y4970729D01*
X8142528Y5015738D01*
X8137550Y5020716D01*
G37*
G36*
X8187537Y5020716D02*
G01*
X8182508Y5015738D01*
X8182508Y4970729D01*
X8187537Y4965750D01*
X8240522Y4965750D01*
X8245551Y4970729D01*
X8245551Y5015738D01*
X8240522Y5020716D01*
G37*
G36*
X8619337Y5706516D02*
G01*
X8614308Y5701538D01*
X8614308Y5656529D01*
X8619337Y5651550D01*
X8672322Y5651550D01*
X8677351Y5656529D01*
X8677351Y5701538D01*
X8672322Y5706516D01*
G37*
G36*
X8516315Y5706516D02*
G01*
X8511336Y5701538D01*
X8511336Y5656529D01*
X8516315Y5651550D01*
X8569350Y5651550D01*
X8574328Y5656529D01*
X8574328Y5701538D01*
X8569350Y5706516D01*
G37*
G36*
X8084515Y4207916D02*
G01*
X8079536Y4202938D01*
X8079536Y4157929D01*
X8084515Y4152950D01*
X8137550Y4152950D01*
X8142528Y4157929D01*
X8142528Y4202938D01*
X8137550Y4207916D01*
G37*
G36*
X8187537Y4207916D02*
G01*
X8182508Y4202938D01*
X8182508Y4157929D01*
X8187537Y4152950D01*
X8240522Y4152950D01*
X8245551Y4157929D01*
X8245551Y4202938D01*
X8240522Y4207916D01*
G37*
G36*
X8619337Y4893716D02*
G01*
X8614308Y4888738D01*
X8614308Y4843729D01*
X8619337Y4838750D01*
X8672322Y4838750D01*
X8677351Y4843729D01*
X8677351Y4888738D01*
X8672322Y4893716D01*
G37*
G36*
X8516315Y4893716D02*
G01*
X8511336Y4888738D01*
X8511336Y4843729D01*
X8516315Y4838750D01*
X8569350Y4838750D01*
X8574328Y4843729D01*
X8574328Y4888738D01*
X8569350Y4893716D01*
G37*
G36*
X6890715Y4212590D02*
G01*
X6885736Y4207611D01*
X6885736Y4162602D01*
X6890715Y4157573D01*
X6943699Y4157573D01*
X6948728Y4162602D01*
X6948728Y4207611D01*
X6943699Y4212590D01*
G37*
G36*
X6993737Y4212590D02*
G01*
X6988708Y4207611D01*
X6988708Y4162602D01*
X6993737Y4157573D01*
X7046722Y4157573D01*
X7051700Y4162602D01*
X7051700Y4207611D01*
X7046722Y4212590D01*
G37*
G36*
X7425537Y4898390D02*
G01*
X7420508Y4893411D01*
X7420508Y4848402D01*
X7425537Y4843373D01*
X7478522Y4843373D01*
X7483551Y4848402D01*
X7483551Y4893360D01*
X7478522Y4898390D01*
G37*
G36*
X7322515Y4898390D02*
G01*
X7317536Y4893411D01*
X7317536Y4848402D01*
X7322515Y4843373D01*
X7375550Y4843373D01*
X7380528Y4848402D01*
X7380528Y4893411D01*
X7375550Y4898390D01*
G37*
G36*
X7948320Y2893110D02*
G01*
X7943291Y2888081D01*
X7943291Y2808122D01*
X7948320Y2803093D01*
X7971078Y2803093D01*
X7971078Y2840126D01*
X8004098Y2840126D01*
X8004098Y2803093D01*
X8028279Y2803093D01*
X8033308Y2808122D01*
X8033308Y2888081D01*
X8028279Y2893110D01*
G37*
G36*
X7948320Y2733090D02*
G01*
X7943291Y2728112D01*
X7943291Y2649118D01*
X7948320Y2644089D01*
X8028279Y2644089D01*
X8033308Y2649118D01*
X8033308Y2728112D01*
X8028279Y2733090D01*
X8004098Y2733090D01*
X8004098Y2695092D01*
X7971078Y2695092D01*
X7971078Y2733090D01*
G37*
G36*
X6741820Y2893110D02*
G01*
X6736791Y2888081D01*
X6736791Y2808122D01*
X6741820Y2803093D01*
X6764578Y2803093D01*
X6764578Y2840126D01*
X6797598Y2840126D01*
X6797598Y2803093D01*
X6821779Y2803093D01*
X6826808Y2808122D01*
X6826808Y2888081D01*
X6821779Y2893110D01*
G37*
G36*
X6741820Y2733090D02*
G01*
X6736791Y2728112D01*
X6736791Y2649118D01*
X6741820Y2644089D01*
X6821779Y2644089D01*
X6826808Y2649118D01*
X6826808Y2728112D01*
X6821779Y2733090D01*
X6797598Y2733090D01*
X6797598Y2695092D01*
X6764578Y2695092D01*
X6764578Y2733090D01*
G37*
G36*
X5535320Y2893110D02*
G01*
X5530291Y2888081D01*
X5530291Y2808122D01*
X5535320Y2803093D01*
X5558078Y2803093D01*
X5558078Y2840126D01*
X5591098Y2840126D01*
X5591098Y2803093D01*
X5615279Y2803093D01*
X5620308Y2808122D01*
X5620308Y2888081D01*
X5615279Y2893110D01*
G37*
G36*
X5535320Y2733090D02*
G01*
X5530291Y2728112D01*
X5530291Y2649118D01*
X5535320Y2644089D01*
X5615279Y2644089D01*
X5620308Y2649118D01*
X5620308Y2728112D01*
X5615279Y2733090D01*
X5591098Y2733090D01*
X5591098Y2695092D01*
X5558078Y2695092D01*
X5558078Y2733090D01*
G37*
G36*
X4328820Y2893110D02*
G01*
X4323791Y2888081D01*
X4323791Y2808122D01*
X4328820Y2803093D01*
X4351578Y2803093D01*
X4351578Y2840126D01*
X4384598Y2840126D01*
X4384598Y2803093D01*
X4408779Y2803093D01*
X4413808Y2808122D01*
X4413808Y2888081D01*
X4408779Y2893110D01*
G37*
G36*
X4328820Y2733090D02*
G01*
X4323791Y2728112D01*
X4323791Y2649118D01*
X4328820Y2644089D01*
X4408779Y2644089D01*
X4413808Y2649118D01*
X4413808Y2728112D01*
X4408779Y2733090D01*
X4384598Y2733090D01*
X4384598Y2695092D01*
X4351578Y2695092D01*
X4351578Y2733090D01*
G37*
G36*
X3122320Y2893110D02*
G01*
X3117291Y2888081D01*
X3117291Y2808122D01*
X3122320Y2803093D01*
X3145078Y2803093D01*
X3145078Y2840126D01*
X3178098Y2840126D01*
X3178098Y2803093D01*
X3202279Y2803093D01*
X3207308Y2808122D01*
X3207308Y2888081D01*
X3202279Y2893110D01*
G37*
G36*
X3122320Y2733090D02*
G01*
X3117291Y2728112D01*
X3117291Y2649118D01*
X3122320Y2644089D01*
X3202279Y2644089D01*
X3207308Y2649118D01*
X3207308Y2728112D01*
X3202279Y2733090D01*
X3178098Y2733090D01*
X3178098Y2695092D01*
X3145078Y2695092D01*
X3145078Y2733090D01*
G37*
G36*
X6231737Y4903063D02*
G01*
X6226708Y4898034D01*
X6226708Y4853025D01*
X6231737Y4848047D01*
X6284722Y4848047D01*
X6289700Y4853025D01*
X6289700Y4898034D01*
X6284722Y4903063D01*
G37*
G36*
X6128715Y4903063D02*
G01*
X6123736Y4898034D01*
X6123736Y4853025D01*
X6128715Y4848047D01*
X6181699Y4848047D01*
X6186728Y4853025D01*
X6186728Y4898034D01*
X6181699Y4903012D01*
G37*
G36*
X5696915Y4217263D02*
G01*
X5691936Y4212234D01*
X5691936Y4167225D01*
X5696915Y4162247D01*
X5749899Y4162247D01*
X5754928Y4167225D01*
X5754928Y4212234D01*
X5749899Y4217263D01*
G37*
G36*
X5799886Y4217263D02*
G01*
X5794908Y4212234D01*
X5794908Y4167225D01*
X5799886Y4162247D01*
X5852922Y4162247D01*
X5857900Y4167225D01*
X5857900Y4212234D01*
X5852922Y4217263D01*
G37*
G36*
X5037886Y4907686D02*
G01*
X5032908Y4902708D01*
X5032908Y4857699D01*
X5037886Y4852720D01*
X5090922Y4852670D01*
X5095900Y4857699D01*
X5095900Y4902708D01*
X5090922Y4907686D01*
G37*
G36*
X4934915Y4907686D02*
G01*
X4929936Y4902708D01*
X4929936Y4857699D01*
X4934915Y4852720D01*
X4987899Y4852670D01*
X4992928Y4857699D01*
X4992928Y4902708D01*
X4987899Y4907686D01*
G37*
G36*
X4503115Y4221886D02*
G01*
X4498086Y4216908D01*
X4498086Y4171899D01*
X4503115Y4166870D01*
X4556099Y4166920D01*
X4561128Y4171899D01*
X4561128Y4216908D01*
X4556099Y4221886D01*
G37*
G36*
X4606086Y4221886D02*
G01*
X4601108Y4216908D01*
X4601108Y4171899D01*
X4606086Y4166920D01*
X4659122Y4166920D01*
X4664100Y4171899D01*
X4664100Y4216908D01*
X4659122Y4221886D01*
G37*
G36*
X3844086Y4912360D02*
G01*
X3839108Y4907330D01*
X3839108Y4862372D01*
X3844086Y4857343D01*
X3897122Y4857343D01*
X3902100Y4862372D01*
X3902100Y4907330D01*
X3897122Y4912360D01*
G37*
G36*
X3741115Y4912360D02*
G01*
X3736086Y4907330D01*
X3736086Y4862322D01*
X3741115Y4857343D01*
X3794099Y4857343D01*
X3799078Y4862372D01*
X3799078Y4907330D01*
X3794099Y4912360D01*
G37*
G36*
X3309315Y4226560D02*
G01*
X3304286Y4221530D01*
X3304286Y4176572D01*
X3309315Y4171543D01*
X3362299Y4171543D01*
X3367278Y4176572D01*
X3367278Y4221530D01*
X3362299Y4226560D01*
G37*
G36*
X3412286Y4226560D02*
G01*
X3407308Y4221530D01*
X3407308Y4176572D01*
X3412286Y4171543D01*
X3465271Y4171543D01*
X3470300Y4176572D01*
X3470300Y4221530D01*
X3465271Y4226560D01*
G37*
G36*
X2650286Y4916982D02*
G01*
X2645308Y4912004D01*
X2645308Y4866995D01*
X2650286Y4862017D01*
X2703322Y4862017D01*
X2708300Y4866995D01*
X2708300Y4912004D01*
X2703322Y4916982D01*
G37*
G36*
X2547315Y4916982D02*
G01*
X2542286Y4912004D01*
X2542286Y4866995D01*
X2547315Y4862017D01*
X2600299Y4862017D01*
X2605278Y4866995D01*
X2605278Y4912004D01*
X2600299Y4916982D01*
G37*
G36*
X2115515Y4231182D02*
G01*
X2110486Y4226204D01*
X2110486Y4181195D01*
X2115515Y4176217D01*
X2168499Y4176217D01*
X2173478Y4181195D01*
X2173478Y4226204D01*
X2168499Y4231182D01*
G37*
G36*
X2218486Y4231182D02*
G01*
X2213508Y4226204D01*
X2213508Y4181195D01*
X2218486Y4176217D01*
X2271471Y4176217D01*
X2276500Y4181195D01*
X2276500Y4226204D01*
X2271471Y4231182D01*
G37*
D10*
G01*
X2280107Y10159949D03*
G01*
X2280107Y10286949D03*
G01*
X2280107Y10413949D03*
G01*
X2280107Y10540949D03*
G01*
X1725625Y10159949D03*
G01*
X1725625Y10286949D03*
G01*
X1725625Y10413949D03*
G01*
X1725625Y10540949D03*
G01*
X2271140Y10972800D03*
G01*
X2271140Y11099800D03*
G01*
X2271140Y11226800D03*
G01*
X2271140Y11353800D03*
G01*
X1716659Y10972800D03*
G01*
X1716659Y11099800D03*
G01*
X1716659Y11226800D03*
G01*
X1716659Y11353800D03*
G01*
X9192640Y10972800D03*
G01*
X9192640Y11099800D03*
G01*
X9192640Y11226800D03*
G01*
X9192640Y11353800D03*
G01*
X8638159Y10972800D03*
G01*
X8638159Y11099800D03*
G01*
X8638159Y11226800D03*
G01*
X8638159Y11353800D03*
G01*
X9201607Y10159949D03*
G01*
X9201607Y10286949D03*
G01*
X9201607Y10413949D03*
G01*
X9201607Y10540949D03*
G01*
X8647125Y10159949D03*
G01*
X8647125Y10286949D03*
G01*
X8647125Y10413949D03*
G01*
X8647125Y10540949D03*
G01*
X3020440Y8724874D03*
G01*
X3020440Y8851874D03*
G01*
X3020440Y8978874D03*
G01*
X3020440Y9105874D03*
G01*
X2465959Y8724874D03*
G01*
X2465959Y8851874D03*
G01*
X2465959Y8978874D03*
G01*
X2465959Y9105874D03*
G01*
X3020440Y7912074D03*
G01*
X3020440Y8039074D03*
G01*
X3020440Y8166074D03*
G01*
X3020440Y8293074D03*
G01*
X2465959Y7912074D03*
G01*
X2465959Y8039074D03*
G01*
X2465959Y8166074D03*
G01*
X2465959Y8293074D03*
G01*
X4087240Y8724874D03*
G01*
X4087240Y8851874D03*
G01*
X4087240Y8978874D03*
G01*
X4087240Y9105874D03*
G01*
X3532759Y8724874D03*
G01*
X3532759Y8851874D03*
G01*
X3532759Y8978874D03*
G01*
X3532759Y9105874D03*
G01*
X5281040Y8720226D03*
G01*
X5281040Y8847226D03*
G01*
X5281040Y8974226D03*
G01*
X5281040Y9101226D03*
G01*
X4726559Y8720226D03*
G01*
X4726559Y8847226D03*
G01*
X4726559Y8974226D03*
G01*
X4726559Y9101226D03*
G01*
X6487540Y8724874D03*
G01*
X6487540Y8851874D03*
G01*
X6487540Y8978874D03*
G01*
X6487540Y9105874D03*
G01*
X5933059Y8724874D03*
G01*
X5933059Y8851874D03*
G01*
X5933059Y8978874D03*
G01*
X5933059Y9105874D03*
G01*
X7694040Y8724874D03*
G01*
X7694040Y8851874D03*
G01*
X7694040Y8978874D03*
G01*
X7694040Y9105874D03*
G01*
X7139559Y8724874D03*
G01*
X7139559Y8851874D03*
G01*
X7139559Y8978874D03*
G01*
X7139559Y9105874D03*
G01*
X8900540Y8724874D03*
G01*
X8900540Y8851874D03*
G01*
X8900540Y8978874D03*
G01*
X8900540Y9105874D03*
G01*
X8346059Y8724874D03*
G01*
X8346059Y8851874D03*
G01*
X8346059Y8978874D03*
G01*
X8346059Y9105874D03*
G01*
X3020440Y7099274D03*
G01*
X3020440Y7226274D03*
G01*
X3020440Y7353274D03*
G01*
X3020440Y7480274D03*
G01*
X2465959Y7099274D03*
G01*
X2465959Y7226274D03*
G01*
X2465959Y7353274D03*
G01*
X2465959Y7480274D03*
G01*
X3020440Y6286474D03*
G01*
X3020440Y6413474D03*
G01*
X3020440Y6540474D03*
G01*
X3020440Y6667474D03*
G01*
X2465959Y6286474D03*
G01*
X2465959Y6413474D03*
G01*
X2465959Y6540474D03*
G01*
X2465959Y6667474D03*
G01*
X3020440Y5473674D03*
G01*
X3020440Y5600674D03*
G01*
X3020440Y5727674D03*
G01*
X3020440Y5854674D03*
G01*
X2465959Y5473674D03*
G01*
X2465959Y5600674D03*
G01*
X2465959Y5727674D03*
G01*
X2465959Y5854674D03*
G01*
X8659215Y7581874D03*
G01*
X8659215Y7708874D03*
G01*
X8659215Y7835874D03*
G01*
X8659215Y7962874D03*
G01*
X8104733Y7581874D03*
G01*
X8104733Y7708874D03*
G01*
X8104733Y7835874D03*
G01*
X8104733Y7962874D03*
G01*
X8659215Y6769074D03*
G01*
X8659215Y6896074D03*
G01*
X8659215Y7023074D03*
G01*
X8659215Y7150074D03*
G01*
X8104733Y6769074D03*
G01*
X8104733Y6896074D03*
G01*
X8104733Y7023074D03*
G01*
X8104733Y7150074D03*
G01*
X8659215Y5956274D03*
G01*
X8659215Y6083274D03*
G01*
X8659215Y6210274D03*
G01*
X8659215Y6337274D03*
G01*
X8104733Y5956274D03*
G01*
X8104733Y6083274D03*
G01*
X8104733Y6210274D03*
G01*
X8104733Y6337274D03*
G01*
X8655659Y5145608D03*
G01*
X8655659Y5272608D03*
G01*
X8655659Y5399608D03*
G01*
X8655659Y5526608D03*
G01*
X8101177Y5145608D03*
G01*
X8101177Y5272608D03*
G01*
X8101177Y5399608D03*
G01*
X8101177Y5526608D03*
G01*
X8655659Y4332808D03*
G01*
X8655659Y4459808D03*
G01*
X8655659Y4586808D03*
G01*
X8655659Y4713808D03*
G01*
X8101177Y4332808D03*
G01*
X8101177Y4459808D03*
G01*
X8101177Y4586808D03*
G01*
X8101177Y4713808D03*
G01*
X7461859Y4337481D03*
G01*
X7461859Y4464481D03*
G01*
X7461859Y4591481D03*
G01*
X7461859Y4718481D03*
G01*
X6907377Y4337481D03*
G01*
X6907377Y4464481D03*
G01*
X6907377Y4591481D03*
G01*
X6907377Y4718481D03*
G01*
X6268059Y4342129D03*
G01*
X6268059Y4469129D03*
G01*
X6268059Y4596129D03*
G01*
X6268059Y4723129D03*
G01*
X5713577Y4342129D03*
G01*
X5713577Y4469129D03*
G01*
X5713577Y4596129D03*
G01*
X5713577Y4723129D03*
G01*
X5074234Y4346778D03*
G01*
X5074234Y4473778D03*
G01*
X5074234Y4600778D03*
G01*
X5074234Y4727778D03*
G01*
X4519752Y4346778D03*
G01*
X4519752Y4473778D03*
G01*
X4519752Y4600778D03*
G01*
X4519752Y4727778D03*
G01*
X3880434Y4351426D03*
G01*
X3880434Y4478426D03*
G01*
X3880434Y4605426D03*
G01*
X3880434Y4732426D03*
G01*
X3325952Y4351426D03*
G01*
X3325952Y4478426D03*
G01*
X3325952Y4605426D03*
G01*
X3325952Y4732426D03*
G01*
X2686634Y4356074D03*
G01*
X2686634Y4483074D03*
G01*
X2686634Y4610074D03*
G01*
X2686634Y4737074D03*
G01*
X2132152Y4356074D03*
G01*
X2132152Y4483074D03*
G01*
X2132152Y4610074D03*
G01*
X2132152Y4737074D03*
D11*
G01*
X5695797Y7975574D03*
G01*
X5835777Y7975574D03*
D12*
G01*
X6392240Y7975574D03*
G01*
X6053759Y7975574D03*
D11*
G01*
X5429377Y7975574D03*
G01*
X5289397Y7975574D03*
G01*
X4515002Y7975574D03*
G01*
X4374997Y7975574D03*
D12*
G01*
X4682159Y7975574D03*
G01*
X5020640Y7975574D03*
M02*
