G04 Layer: TopSilkscreenLayer*
G04 EasyEDA v6.5.23, 2023-07-04 19:28:57*
G04 7172542f8ef2491aa5af6c28795758dc,5a6b42c53f6a479593ecc07194224c93,10*
G04 Gerber Generator version 0.2*
G04 Scale: 100 percent, Rotated: No, Reflected: No *
G04 Dimensions in millimeters *
G04 leading zeros omitted , absolute positions ,4 integer and 5 decimal *
%FSLAX45Y45*%
%MOMM*%

%ADD10C,0.2540*%
%ADD11C,0.2032*%
%ADD12C,0.1524*%

%LPD*%
D10*
X210057Y777747D02*
G01*
X210057Y784605D01*
X216915Y798068D01*
X223773Y804926D01*
X237236Y811784D01*
X264668Y811784D01*
X278129Y804926D01*
X284987Y798068D01*
X291845Y784605D01*
X291845Y770889D01*
X284987Y757173D01*
X271271Y736854D01*
X203200Y668528D01*
X298704Y668528D01*
X411734Y811784D02*
G01*
X343662Y716279D01*
X446023Y716279D01*
X411734Y811784D02*
G01*
X411734Y668528D01*
X490981Y784605D02*
G01*
X504444Y791210D01*
X525018Y811784D01*
X525018Y668528D01*
X651763Y811784D02*
G01*
X583692Y811784D01*
X576834Y750315D01*
X583692Y757173D01*
X604012Y764031D01*
X624586Y764031D01*
X644905Y757173D01*
X658621Y743457D01*
X665479Y723137D01*
X665479Y709421D01*
X658621Y689102D01*
X644905Y675386D01*
X624586Y668528D01*
X604012Y668528D01*
X583692Y675386D01*
X576834Y682244D01*
X569976Y695960D01*
X765047Y811784D02*
G01*
X710438Y668528D01*
X765047Y811784D02*
G01*
X819658Y668528D01*
X731011Y716279D02*
G01*
X799084Y716279D01*
D11*
X156971Y10035031D02*
G01*
X156971Y10039604D01*
X161544Y10048494D01*
X166115Y10053065D01*
X175005Y10057637D01*
X193294Y10057637D01*
X202437Y10053065D01*
X207010Y10048494D01*
X211581Y10039604D01*
X211581Y10030460D01*
X207010Y10021315D01*
X197865Y10007600D01*
X152400Y9962134D01*
X216154Y9962134D01*
X165100Y11563604D02*
G01*
X174244Y11568176D01*
X187705Y11581637D01*
X187705Y11486134D01*
D12*
X125221Y4596637D02*
G01*
X88900Y4501134D01*
X125221Y4596637D02*
G01*
X161544Y4501134D01*
X102615Y4533137D02*
G01*
X148081Y4533137D01*
X223520Y4596637D02*
G01*
X223520Y4501134D01*
X191515Y4596637D02*
G01*
X255270Y4596637D01*
X316992Y4596637D02*
G01*
X316992Y4501134D01*
X285242Y4596637D02*
G01*
X348995Y4596637D01*
X378968Y4596637D02*
G01*
X378968Y4501134D01*
X378968Y4596637D02*
G01*
X437895Y4596637D01*
X378968Y4551171D02*
G01*
X415289Y4551171D01*
X378968Y4501134D02*
G01*
X437895Y4501134D01*
X467868Y4596637D02*
G01*
X467868Y4501134D01*
X467868Y4596637D02*
G01*
X531621Y4501134D01*
X531621Y4596637D02*
G01*
X531621Y4501134D01*
X561594Y4596637D02*
G01*
X561594Y4528565D01*
X566165Y4514850D01*
X575310Y4505705D01*
X589026Y4501134D01*
X597915Y4501134D01*
X611631Y4505705D01*
X620776Y4514850D01*
X625347Y4528565D01*
X625347Y4596637D01*
X691641Y4596637D02*
G01*
X655320Y4501134D01*
X691641Y4596637D02*
G01*
X727963Y4501134D01*
X668781Y4533137D02*
G01*
X714247Y4533137D01*
X789686Y4596637D02*
G01*
X789686Y4501134D01*
X757936Y4596637D02*
G01*
X821690Y4596637D01*
X851661Y4596637D02*
G01*
X851661Y4501134D01*
X851661Y4596637D02*
G01*
X910590Y4596637D01*
X851661Y4551171D02*
G01*
X887984Y4551171D01*
X851661Y4501134D02*
G01*
X910590Y4501134D01*
D11*
X161544Y7809737D02*
G01*
X211581Y7809737D01*
X184150Y7773415D01*
X197865Y7773415D01*
X207010Y7768844D01*
X211581Y7764271D01*
X216154Y7750810D01*
X216154Y7741665D01*
X211581Y7727950D01*
X202437Y7718805D01*
X188721Y7714234D01*
X175005Y7714234D01*
X161544Y7718805D01*
X156971Y7723378D01*
X152400Y7732521D01*
X185165Y6285737D02*
G01*
X139700Y6222237D01*
X207771Y6222237D01*
X185165Y6285737D02*
G01*
X185165Y6190234D01*
D10*
X863600Y8763000D02*
G01*
X558800Y8763000D01*
X863600Y8763000D02*
G01*
X914400Y8763000D01*
X914400Y10223500D01*
X698500Y10439400D01*
X491997Y8585200D02*
G01*
X491997Y8689982D01*
X492000Y8829982D02*
G01*
X492000Y8959982D01*
X536549Y8718550D02*
G01*
X447649Y8807450D01*
X536549Y8807450D02*
G01*
X447649Y8718550D01*
X317500Y8496300D02*
G01*
X673100Y8255000D01*
X495300Y8534400D02*
G01*
X558800Y8496300D01*
X431800Y8432800D01*
X558800Y8382000D01*
X431800Y8318500D01*
X558800Y8267700D01*
X495300Y8229600D01*
X495300Y8178800D02*
G01*
X495300Y8051800D01*
X673100Y8255000D02*
G01*
X647700Y8305800D01*
X673100Y8255000D02*
G01*
X622300Y8255000D01*
X495200Y6108700D02*
G01*
X495200Y6362700D01*
X495200Y6362700D02*
G01*
X558700Y6299200D01*
X495200Y6362700D02*
G01*
X431700Y6299200D01*
X495200Y7632700D02*
G01*
X495200Y7886700D01*
X495200Y7886700D02*
G01*
X558700Y7823200D01*
X495200Y7886700D02*
G01*
X431700Y7823200D01*
X495200Y10134600D02*
G01*
X495200Y9880600D01*
X495200Y9880600D02*
G01*
X431700Y9944100D01*
X495200Y9880600D02*
G01*
X558700Y9944100D01*
X495200Y11658600D02*
G01*
X495200Y11404600D01*
X495200Y11404600D02*
G01*
X431700Y11468100D01*
X495200Y11404600D02*
G01*
X558700Y11468100D01*
X622300Y3716690D02*
G01*
X702294Y3716703D01*
X622300Y2916684D02*
G01*
X702294Y2916702D01*
X622300Y2119579D02*
G01*
X702294Y2119591D01*
X292298Y2119584D02*
G01*
X372292Y2119596D01*
X292298Y2916684D02*
G01*
X372292Y2916702D01*
X292298Y3716690D02*
G01*
X372292Y3716703D01*
X0Y12192000D02*
G01*
X980000Y12192000D01*
X0Y11836400D02*
G01*
X980000Y11836400D01*
G75*
G01
X317500Y10007600D02*
G03X317500Y10007600I-139700J0D01*
G75*
G01
X317500Y11531600D02*
G03X317500Y11531600I-139700J0D01*
G75*
G01
X317500Y7759700D02*
G03X317500Y7759700I-139700J0D01*
G75*
G01
X317500Y6235700D02*
G03X317500Y6235700I-139700J0D01*
G75*
G01
X555600Y8763000D02*
G03X555600Y8763000I-63500J0D01*
X279400Y8585200D02*
G01*
X711200Y8585200D01*
X711200Y8178800D01*
X279400Y8178800D01*
X279400Y8585200D01*
M02*
