G04 Layer: BottomLayer*
G04 EasyEDA v6.5.23, 2023-07-04 19:28:57*
G04 7172542f8ef2491aa5af6c28795758dc,5a6b42c53f6a479593ecc07194224c93,10*
G04 Gerber Generator version 0.2*
G04 Scale: 100 percent, Rotated: No, Reflected: No *
G04 Dimensions in millimeters *
G04 leading zeros omitted , absolute positions ,4 integer and 5 decimal *
%FSLAX45Y45*%
%MOMM*%

%ADD10C,0.2540*%
%ADD11O,6.4000126X3.1999936*%

%LPD*%
G36*
X942492Y705104D02*
G01*
X36017Y710946D01*
X32156Y711758D01*
X28854Y713943D01*
X26670Y717245D01*
X25908Y721106D01*
X25908Y12143740D01*
X26670Y12147651D01*
X28905Y12150902D01*
X32156Y12153138D01*
X36068Y12153900D01*
X953820Y12153900D01*
X957732Y12153138D01*
X961034Y12150902D01*
X963218Y12147600D01*
X963980Y12143740D01*
X952703Y715213D01*
X951941Y711352D01*
X949706Y708050D01*
X946403Y705815D01*
G37*

%LPC*%
G36*
X495300Y1490522D02*
G01*
X510489Y1491437D01*
X525424Y1494180D01*
X539953Y1498701D01*
X553821Y1504950D01*
X566826Y1512824D01*
X578764Y1522171D01*
X589534Y1532940D01*
X598881Y1544878D01*
X606755Y1557883D01*
X613003Y1571752D01*
X617524Y1586280D01*
X620268Y1601216D01*
X621182Y1616405D01*
X620268Y1631594D01*
X617524Y1646529D01*
X613003Y1661058D01*
X606755Y1674926D01*
X598881Y1687931D01*
X589534Y1699869D01*
X578764Y1710639D01*
X566826Y1719986D01*
X553821Y1727860D01*
X539953Y1734108D01*
X525424Y1738630D01*
X510489Y1741373D01*
X495300Y1742287D01*
X480110Y1741373D01*
X465175Y1738630D01*
X450646Y1734108D01*
X436778Y1727860D01*
X423773Y1719986D01*
X411835Y1710639D01*
X401066Y1699869D01*
X391718Y1687931D01*
X383844Y1674926D01*
X377596Y1661058D01*
X373075Y1646529D01*
X370332Y1631594D01*
X369417Y1616405D01*
X370332Y1601216D01*
X373075Y1586280D01*
X377596Y1571752D01*
X383844Y1557883D01*
X391718Y1544878D01*
X401066Y1532940D01*
X411835Y1522171D01*
X423773Y1512824D01*
X436778Y1504950D01*
X450646Y1498701D01*
X465175Y1494180D01*
X480110Y1491437D01*
G37*
G36*
X394258Y1780997D02*
G01*
X596341Y1780997D01*
X602640Y1781708D01*
X608126Y1783638D01*
X613003Y1786686D01*
X617118Y1790801D01*
X620166Y1795678D01*
X622096Y1801164D01*
X622808Y1807464D01*
X622808Y4016146D01*
X622096Y4022445D01*
X620166Y4027932D01*
X617118Y4032808D01*
X613003Y4036923D01*
X608126Y4039971D01*
X602640Y4041901D01*
X596341Y4042613D01*
X394258Y4042613D01*
X387959Y4041901D01*
X382473Y4039971D01*
X377596Y4036923D01*
X373481Y4032808D01*
X370433Y4027932D01*
X368503Y4022445D01*
X367792Y4016146D01*
X367792Y1807464D01*
X368503Y1801164D01*
X370433Y1795678D01*
X373481Y1790801D01*
X377596Y1786686D01*
X382473Y1783638D01*
X387959Y1781708D01*
G37*
G36*
X495300Y4090517D02*
G01*
X510489Y4091432D01*
X525424Y4094175D01*
X539953Y4098696D01*
X553821Y4104944D01*
X566826Y4112818D01*
X578764Y4122165D01*
X589534Y4132935D01*
X598881Y4144873D01*
X606755Y4157878D01*
X613003Y4171746D01*
X617524Y4186275D01*
X620268Y4201210D01*
X621182Y4216400D01*
X620268Y4231589D01*
X617524Y4246524D01*
X613003Y4261053D01*
X606755Y4274921D01*
X598881Y4287926D01*
X589534Y4299864D01*
X578764Y4310634D01*
X566826Y4319981D01*
X553821Y4327855D01*
X539953Y4334103D01*
X525424Y4338624D01*
X510489Y4341368D01*
X495300Y4342282D01*
X480110Y4341368D01*
X465175Y4338624D01*
X450646Y4334103D01*
X436778Y4327855D01*
X423773Y4319981D01*
X411835Y4310634D01*
X401066Y4299864D01*
X391718Y4287926D01*
X383844Y4274921D01*
X377596Y4261053D01*
X373075Y4246524D01*
X370332Y4231589D01*
X369417Y4216400D01*
X370332Y4201210D01*
X373075Y4186275D01*
X377596Y4171746D01*
X383844Y4157878D01*
X391718Y4144873D01*
X401066Y4132935D01*
X411835Y4122165D01*
X423773Y4112818D01*
X436778Y4104944D01*
X450646Y4098696D01*
X465175Y4094175D01*
X480110Y4091432D01*
G37*
G36*
X261366Y5211267D02*
G01*
X729234Y5211267D01*
X735533Y5212029D01*
X741019Y5213908D01*
X745845Y5216956D01*
X751738Y5222900D01*
X767029Y5235752D01*
X787400Y5255463D01*
X806348Y5276494D01*
X823721Y5298846D01*
X839571Y5322316D01*
X853694Y5346852D01*
X866089Y5372303D01*
X876706Y5398566D01*
X885444Y5425541D01*
X892251Y5453024D01*
X897178Y5480913D01*
X900125Y5509056D01*
X901090Y5537352D01*
X900125Y5565648D01*
X897128Y5593842D01*
X892200Y5621731D01*
X885342Y5649214D01*
X876604Y5676138D01*
X865987Y5702350D01*
X853541Y5727801D01*
X839368Y5752338D01*
X823569Y5775807D01*
X806094Y5798159D01*
X787146Y5819190D01*
X766775Y5838850D01*
X750976Y5852160D01*
X745845Y5857443D01*
X741019Y5860491D01*
X735533Y5862370D01*
X729234Y5863082D01*
X261366Y5863082D01*
X255066Y5862370D01*
X249580Y5860491D01*
X244703Y5857392D01*
X239115Y5851855D01*
X223621Y5838850D01*
X203250Y5819190D01*
X184302Y5798159D01*
X166827Y5775807D01*
X151028Y5752338D01*
X136855Y5727801D01*
X124409Y5702350D01*
X113792Y5676138D01*
X105054Y5649214D01*
X98196Y5621731D01*
X93268Y5593842D01*
X90322Y5565648D01*
X89306Y5537352D01*
X90271Y5509056D01*
X93218Y5480913D01*
X98145Y5453024D01*
X104952Y5425541D01*
X113690Y5398566D01*
X124307Y5372303D01*
X136702Y5346852D01*
X150825Y5322316D01*
X166674Y5298846D01*
X184099Y5276494D01*
X202996Y5255463D01*
X223367Y5235752D01*
X239775Y5221884D01*
X244703Y5217007D01*
X249580Y5213908D01*
X255066Y5212029D01*
G37*
G36*
X261366Y6735267D02*
G01*
X729234Y6735267D01*
X735533Y6736029D01*
X741019Y6737908D01*
X745845Y6740956D01*
X751738Y6746900D01*
X767029Y6759752D01*
X787400Y6779463D01*
X806348Y6800494D01*
X823721Y6822846D01*
X839571Y6846316D01*
X853694Y6870852D01*
X866089Y6896303D01*
X876706Y6922566D01*
X885444Y6949541D01*
X892251Y6977024D01*
X897178Y7004913D01*
X900125Y7033056D01*
X901090Y7061352D01*
X900125Y7089648D01*
X897128Y7117842D01*
X892200Y7145731D01*
X885342Y7173214D01*
X876604Y7200138D01*
X865987Y7226350D01*
X853541Y7251801D01*
X839368Y7276338D01*
X823569Y7299807D01*
X806094Y7322159D01*
X787146Y7343190D01*
X766775Y7362850D01*
X750976Y7376159D01*
X745845Y7381443D01*
X741019Y7384491D01*
X735533Y7386370D01*
X729234Y7387081D01*
X261366Y7387081D01*
X255066Y7386370D01*
X249580Y7384491D01*
X244703Y7381392D01*
X239115Y7375855D01*
X223621Y7362850D01*
X203250Y7343190D01*
X184302Y7322159D01*
X166827Y7299807D01*
X151028Y7276338D01*
X136855Y7251801D01*
X124409Y7226350D01*
X113792Y7200138D01*
X105054Y7173214D01*
X98196Y7145731D01*
X93268Y7117842D01*
X90322Y7089648D01*
X89306Y7061352D01*
X90271Y7033056D01*
X93218Y7004913D01*
X98145Y6977024D01*
X104952Y6949541D01*
X113690Y6922566D01*
X124307Y6896303D01*
X136702Y6870852D01*
X150825Y6846316D01*
X166674Y6822846D01*
X184099Y6800494D01*
X202996Y6779463D01*
X223367Y6759752D01*
X239775Y6745884D01*
X244703Y6741007D01*
X249580Y6737908D01*
X255066Y6736029D01*
G37*
G36*
X261366Y8983167D02*
G01*
X729234Y8983167D01*
X735533Y8983929D01*
X741019Y8985808D01*
X745845Y8988856D01*
X751738Y8994800D01*
X767029Y9007652D01*
X787400Y9027363D01*
X806348Y9048394D01*
X823721Y9070746D01*
X839571Y9094216D01*
X853694Y9118752D01*
X866089Y9144203D01*
X876706Y9170466D01*
X885444Y9197441D01*
X892251Y9224924D01*
X897178Y9252813D01*
X900125Y9280956D01*
X901090Y9309252D01*
X900125Y9337548D01*
X897128Y9365742D01*
X892200Y9393631D01*
X885342Y9421114D01*
X876604Y9448038D01*
X865987Y9474250D01*
X853541Y9499701D01*
X839368Y9524238D01*
X823569Y9547707D01*
X806094Y9570059D01*
X787146Y9591090D01*
X766775Y9610750D01*
X750976Y9624060D01*
X745845Y9629343D01*
X741019Y9632391D01*
X735533Y9634270D01*
X729234Y9634982D01*
X261366Y9634982D01*
X255066Y9634270D01*
X249580Y9632391D01*
X244703Y9629292D01*
X239115Y9623755D01*
X223621Y9610750D01*
X203250Y9591090D01*
X184302Y9570059D01*
X166827Y9547707D01*
X151028Y9524238D01*
X136855Y9499701D01*
X124409Y9474250D01*
X113792Y9448038D01*
X105054Y9421114D01*
X98196Y9393631D01*
X93268Y9365742D01*
X90322Y9337548D01*
X89306Y9309252D01*
X90271Y9280956D01*
X93218Y9252813D01*
X98145Y9224924D01*
X104952Y9197441D01*
X113690Y9170466D01*
X124307Y9144203D01*
X136702Y9118752D01*
X150825Y9094216D01*
X166674Y9070746D01*
X184099Y9048394D01*
X202996Y9027363D01*
X223367Y9007652D01*
X239775Y8993784D01*
X244703Y8988907D01*
X249580Y8985808D01*
X255066Y8983929D01*
G37*
G36*
X261366Y10507167D02*
G01*
X729234Y10507167D01*
X735533Y10507929D01*
X741019Y10509808D01*
X745845Y10512856D01*
X751738Y10518800D01*
X767029Y10531652D01*
X787400Y10551363D01*
X806348Y10572394D01*
X823721Y10594746D01*
X839571Y10618216D01*
X853694Y10642752D01*
X866089Y10668203D01*
X876706Y10694466D01*
X885444Y10721441D01*
X892251Y10748924D01*
X897178Y10776813D01*
X900125Y10804956D01*
X901090Y10833252D01*
X900125Y10861548D01*
X897128Y10889742D01*
X892200Y10917631D01*
X885342Y10945114D01*
X876604Y10972038D01*
X865987Y10998250D01*
X853541Y11023701D01*
X839368Y11048238D01*
X823569Y11071707D01*
X806094Y11094059D01*
X787146Y11115090D01*
X766775Y11134750D01*
X750976Y11148060D01*
X745845Y11153343D01*
X741019Y11156391D01*
X735533Y11158270D01*
X729234Y11158982D01*
X261366Y11158982D01*
X255066Y11158270D01*
X249580Y11156391D01*
X244703Y11153292D01*
X239115Y11147755D01*
X223621Y11134750D01*
X203250Y11115090D01*
X184302Y11094059D01*
X166827Y11071707D01*
X151028Y11048238D01*
X136855Y11023701D01*
X124409Y10998250D01*
X113792Y10972038D01*
X105054Y10945114D01*
X98196Y10917631D01*
X93268Y10889742D01*
X90322Y10861548D01*
X89306Y10833252D01*
X90271Y10804956D01*
X93218Y10776813D01*
X98145Y10748924D01*
X104952Y10721441D01*
X113690Y10694466D01*
X124307Y10668203D01*
X136702Y10642752D01*
X150825Y10618216D01*
X166674Y10594746D01*
X184099Y10572394D01*
X202996Y10551363D01*
X223367Y10531652D01*
X239775Y10517784D01*
X244703Y10512907D01*
X249580Y10509808D01*
X255066Y10507929D01*
G37*

%LPD*%
D10*
X901700Y647700D02*
G01*
X901700Y711200D01*
X901700Y12115800D02*
G01*
X901700Y12179300D01*
X951060Y12166854D02*
G01*
X38862Y12166854D01*
X38862Y12166854D02*
G01*
X38862Y12813537D01*
X38862Y12813537D02*
G01*
X951699Y12813537D01*
X951699Y12813537D02*
G01*
X951060Y12166854D01*
X194276Y12459543D02*
G01*
X207382Y12445083D01*
X207382Y12445083D02*
G01*
X221842Y12431977D01*
X221842Y12431977D02*
G01*
X237517Y12420352D01*
X237517Y12420352D02*
G01*
X254256Y12410319D01*
X254256Y12410319D02*
G01*
X271897Y12401975D01*
X271897Y12401975D02*
G01*
X290272Y12395401D01*
X290272Y12395401D02*
G01*
X309203Y12390659D01*
X309203Y12390659D02*
G01*
X328507Y12387795D01*
X328507Y12387795D02*
G01*
X347999Y12386838D01*
X347999Y12386838D02*
G01*
X668000Y12386838D01*
X668000Y12386838D02*
G01*
X687492Y12387795D01*
X687492Y12387795D02*
G01*
X706796Y12390659D01*
X706796Y12390659D02*
G01*
X725727Y12395401D01*
X725727Y12395401D02*
G01*
X744102Y12401975D01*
X744102Y12401975D02*
G01*
X761743Y12410319D01*
X761743Y12410319D02*
G01*
X778482Y12420352D01*
X778482Y12420352D02*
G01*
X794157Y12431977D01*
X794157Y12431977D02*
G01*
X808617Y12445083D01*
X808617Y12445083D02*
G01*
X821723Y12459543D01*
X821723Y12459543D02*
G01*
X833348Y12475218D01*
X833348Y12475218D02*
G01*
X843381Y12491957D01*
X843381Y12491957D02*
G01*
X851725Y12509598D01*
X851725Y12509598D02*
G01*
X858299Y12527973D01*
X858299Y12527973D02*
G01*
X863041Y12546904D01*
X863041Y12546904D02*
G01*
X865905Y12566208D01*
X865905Y12566208D02*
G01*
X866862Y12585700D01*
X866862Y12585700D02*
G01*
X865905Y12605191D01*
X865905Y12605191D02*
G01*
X863041Y12624495D01*
X863041Y12624495D02*
G01*
X858299Y12643426D01*
X858299Y12643426D02*
G01*
X851725Y12661801D01*
X851725Y12661801D02*
G01*
X843381Y12679442D01*
X843381Y12679442D02*
G01*
X833348Y12696181D01*
X833348Y12696181D02*
G01*
X821723Y12711856D01*
X821723Y12711856D02*
G01*
X808617Y12726316D01*
X808617Y12726316D02*
G01*
X794157Y12739422D01*
X794157Y12739422D02*
G01*
X778482Y12751047D01*
X778482Y12751047D02*
G01*
X761743Y12761080D01*
X761743Y12761080D02*
G01*
X744102Y12769424D01*
X744102Y12769424D02*
G01*
X725727Y12775998D01*
X725727Y12775998D02*
G01*
X706796Y12780740D01*
X706796Y12780740D02*
G01*
X687492Y12783604D01*
X687492Y12783604D02*
G01*
X668000Y12784561D01*
X668000Y12784561D02*
G01*
X347999Y12784561D01*
X347999Y12784561D02*
G01*
X328507Y12783604D01*
X328507Y12783604D02*
G01*
X309203Y12780740D01*
X309203Y12780740D02*
G01*
X290272Y12775998D01*
X290272Y12775998D02*
G01*
X271897Y12769424D01*
X271897Y12769424D02*
G01*
X254256Y12761080D01*
X254256Y12761080D02*
G01*
X237517Y12751047D01*
X237517Y12751047D02*
G01*
X221842Y12739422D01*
X221842Y12739422D02*
G01*
X207382Y12726316D01*
X207382Y12726316D02*
G01*
X194276Y12711856D01*
X194276Y12711856D02*
G01*
X182651Y12696181D01*
X182651Y12696181D02*
G01*
X172618Y12679442D01*
X172618Y12679442D02*
G01*
X164274Y12661801D01*
X164274Y12661801D02*
G01*
X157700Y12643426D01*
X157700Y12643426D02*
G01*
X152958Y12624495D01*
X152958Y12624495D02*
G01*
X150094Y12605191D01*
X150094Y12605191D02*
G01*
X149137Y12585700D01*
X149137Y12585700D02*
G01*
X150094Y12566208D01*
X150094Y12566208D02*
G01*
X152958Y12546904D01*
X152958Y12546904D02*
G01*
X157700Y12527973D01*
X157700Y12527973D02*
G01*
X164274Y12509598D01*
X164274Y12509598D02*
G01*
X172618Y12491957D01*
X172618Y12491957D02*
G01*
X182651Y12475218D01*
X182651Y12475218D02*
G01*
X194276Y12459543D01*
X38862Y12228167D02*
G01*
X100175Y12166854D01*
X38862Y12335930D02*
G01*
X207938Y12166854D01*
X38862Y12443693D02*
G01*
X315701Y12166854D01*
X38862Y12551456D02*
G01*
X423464Y12166854D01*
X38862Y12659220D02*
G01*
X153553Y12544528D01*
X306827Y12391254D02*
G01*
X531228Y12166854D01*
X38862Y12766983D02*
G01*
X158943Y12646901D01*
X419006Y12386838D02*
G01*
X638991Y12166854D01*
X100070Y12813537D02*
G01*
X197830Y12715777D01*
X526770Y12386838D02*
G01*
X746754Y12166854D01*
X207833Y12813537D02*
G01*
X258353Y12763018D01*
X634533Y12386838D02*
G01*
X854517Y12166854D01*
X315596Y12813537D02*
G01*
X344733Y12784401D01*
X731623Y12397510D02*
G01*
X951071Y12178062D01*
X423359Y12813537D02*
G01*
X452335Y12784561D01*
X799802Y12437094D02*
G01*
X951177Y12285719D01*
X531122Y12813537D02*
G01*
X560098Y12784561D01*
X846374Y12498285D02*
G01*
X951284Y12393376D01*
X638885Y12813537D02*
G01*
X667862Y12784561D01*
X866856Y12585567D02*
G01*
X951390Y12501032D01*
X746648Y12813537D02*
G01*
X951497Y12608689D01*
X854411Y12813537D02*
G01*
X951603Y12716346D01*
X877724Y12166854D02*
G01*
X951133Y12240263D01*
X769961Y12166854D02*
G01*
X951239Y12348132D01*
X662198Y12166854D02*
G01*
X951346Y12456002D01*
X554435Y12166854D02*
G01*
X951452Y12563872D01*
X446671Y12166854D02*
G01*
X666656Y12386838D01*
X866799Y12586981D02*
G01*
X951559Y12671741D01*
X338908Y12166854D02*
G01*
X558893Y12386838D01*
X845987Y12673932D02*
G01*
X951666Y12779611D01*
X231145Y12166854D02*
G01*
X451129Y12386838D01*
X799170Y12734878D02*
G01*
X877829Y12813537D01*
X123382Y12166854D02*
G01*
X343583Y12387055D01*
X730735Y12774206D02*
G01*
X770066Y12813537D01*
X38862Y12190096D02*
G01*
X257534Y12408769D01*
X633327Y12784561D02*
G01*
X662303Y12813537D01*
X38862Y12297859D02*
G01*
X197257Y12456254D01*
X525564Y12784561D02*
G01*
X554540Y12813537D01*
X38862Y12405622D02*
G01*
X158626Y12525386D01*
X417801Y12784561D02*
G01*
X446777Y12813537D01*
X38862Y12513385D02*
G01*
X153956Y12628479D01*
X305219Y12779742D02*
G01*
X339014Y12813537D01*
X38862Y12621148D02*
G01*
X231251Y12813537D01*
X38862Y12728911D02*
G01*
X123488Y12813537D01*
X38862Y38862D02*
G01*
X38862Y697993D01*
X38862Y697993D02*
G01*
X939722Y692143D01*
X939722Y692143D02*
G01*
X939076Y38862D01*
X939076Y38862D02*
G01*
X38862Y38862D01*
X194276Y204043D02*
G01*
X207382Y189583D01*
X207382Y189583D02*
G01*
X221842Y176477D01*
X221842Y176477D02*
G01*
X237517Y164852D01*
X237517Y164852D02*
G01*
X254256Y154819D01*
X254256Y154819D02*
G01*
X271897Y146475D01*
X271897Y146475D02*
G01*
X290272Y139901D01*
X290272Y139901D02*
G01*
X309203Y135159D01*
X309203Y135159D02*
G01*
X328507Y132295D01*
X328507Y132295D02*
G01*
X347999Y131338D01*
X347999Y131338D02*
G01*
X668000Y131338D01*
X668000Y131338D02*
G01*
X687492Y132295D01*
X687492Y132295D02*
G01*
X706796Y135159D01*
X706796Y135159D02*
G01*
X725727Y139901D01*
X725727Y139901D02*
G01*
X744102Y146475D01*
X744102Y146475D02*
G01*
X761743Y154819D01*
X761743Y154819D02*
G01*
X778482Y164852D01*
X778482Y164852D02*
G01*
X794157Y176477D01*
X794157Y176477D02*
G01*
X808617Y189583D01*
X808617Y189583D02*
G01*
X821723Y204043D01*
X821723Y204043D02*
G01*
X833348Y219718D01*
X833348Y219718D02*
G01*
X843381Y236457D01*
X843381Y236457D02*
G01*
X851725Y254098D01*
X851725Y254098D02*
G01*
X858299Y272473D01*
X858299Y272473D02*
G01*
X863041Y291404D01*
X863041Y291404D02*
G01*
X865905Y310708D01*
X865905Y310708D02*
G01*
X866862Y330200D01*
X866862Y330200D02*
G01*
X865905Y349691D01*
X865905Y349691D02*
G01*
X863041Y368995D01*
X863041Y368995D02*
G01*
X858299Y387926D01*
X858299Y387926D02*
G01*
X851725Y406301D01*
X851725Y406301D02*
G01*
X843381Y423942D01*
X843381Y423942D02*
G01*
X833348Y440681D01*
X833348Y440681D02*
G01*
X821723Y456356D01*
X821723Y456356D02*
G01*
X808617Y470816D01*
X808617Y470816D02*
G01*
X794157Y483922D01*
X794157Y483922D02*
G01*
X778482Y495547D01*
X778482Y495547D02*
G01*
X761743Y505580D01*
X761743Y505580D02*
G01*
X744102Y513924D01*
X744102Y513924D02*
G01*
X725727Y520498D01*
X725727Y520498D02*
G01*
X706796Y525240D01*
X706796Y525240D02*
G01*
X687492Y528104D01*
X687492Y528104D02*
G01*
X668000Y529061D01*
X668000Y529061D02*
G01*
X347999Y529061D01*
X347999Y529061D02*
G01*
X328507Y528104D01*
X328507Y528104D02*
G01*
X309203Y525240D01*
X309203Y525240D02*
G01*
X290272Y520498D01*
X290272Y520498D02*
G01*
X271897Y513924D01*
X271897Y513924D02*
G01*
X254256Y505580D01*
X254256Y505580D02*
G01*
X237517Y495547D01*
X237517Y495547D02*
G01*
X221842Y483922D01*
X221842Y483922D02*
G01*
X207382Y470816D01*
X207382Y470816D02*
G01*
X194276Y456356D01*
X194276Y456356D02*
G01*
X182651Y440681D01*
X182651Y440681D02*
G01*
X172618Y423942D01*
X172618Y423942D02*
G01*
X164274Y406301D01*
X164274Y406301D02*
G01*
X157700Y387926D01*
X157700Y387926D02*
G01*
X152958Y368995D01*
X152958Y368995D02*
G01*
X150094Y349691D01*
X150094Y349691D02*
G01*
X149137Y330200D01*
X149137Y330200D02*
G01*
X150094Y310708D01*
X150094Y310708D02*
G01*
X152958Y291404D01*
X152958Y291404D02*
G01*
X157700Y272473D01*
X157700Y272473D02*
G01*
X164274Y254098D01*
X164274Y254098D02*
G01*
X172618Y236457D01*
X172618Y236457D02*
G01*
X182651Y219718D01*
X182651Y219718D02*
G01*
X194276Y204043D01*
X38862Y50940D02*
G01*
X50940Y38862D01*
X38862Y158703D02*
G01*
X158703Y38862D01*
X38862Y266466D02*
G01*
X266466Y38862D01*
X38862Y374229D02*
G01*
X169014Y244076D01*
X261876Y151215D02*
G01*
X374229Y38862D01*
X38862Y481992D02*
G01*
X152816Y368038D01*
X389516Y131338D02*
G01*
X481992Y38862D01*
X38862Y589755D02*
G01*
X184902Y443715D01*
X497279Y131338D02*
G01*
X589755Y38862D01*
X38862Y697519D02*
G01*
X239590Y496790D01*
X605042Y131338D02*
G01*
X697519Y38862D01*
X146851Y697292D02*
G01*
X317650Y526493D01*
X708546Y135597D02*
G01*
X805282Y38862D01*
X255319Y696587D02*
G01*
X422845Y529061D01*
X783404Y168502D02*
G01*
X913045Y38862D01*
X363786Y695883D02*
G01*
X530608Y529061D01*
X835823Y223847D02*
G01*
X939157Y120513D01*
X472254Y695179D02*
G01*
X638371Y529061D01*
X864719Y302714D02*
G01*
X939263Y228169D01*
X580721Y694474D02*
G01*
X782997Y492199D01*
X830000Y445196D02*
G01*
X939369Y335826D01*
X689188Y693770D02*
G01*
X939476Y443483D01*
X797656Y693066D02*
G01*
X939582Y551139D01*
X906123Y692361D02*
G01*
X939689Y658796D01*
X926959Y38862D02*
G01*
X939088Y50991D01*
X819196Y38862D02*
G01*
X939194Y158860D01*
X711433Y38862D02*
G01*
X939301Y266730D01*
X603670Y38862D02*
G01*
X698778Y133970D01*
X864230Y299422D02*
G01*
X939408Y374599D01*
X495907Y38862D02*
G01*
X588383Y131338D01*
X854787Y397742D02*
G01*
X939514Y482469D01*
X388144Y38862D02*
G01*
X480620Y131338D01*
X814075Y464793D02*
G01*
X939621Y590339D01*
X280380Y38862D02*
G01*
X372857Y131338D01*
X751801Y510282D02*
G01*
X933701Y692182D01*
X172617Y38862D02*
G01*
X278035Y144279D01*
X662817Y529061D02*
G01*
X826633Y692877D01*
X64854Y38862D02*
G01*
X211680Y185687D01*
X555054Y529061D02*
G01*
X719565Y693573D01*
X38862Y120632D02*
G01*
X166860Y248631D01*
X447291Y529061D02*
G01*
X612498Y694268D01*
X38862Y228395D02*
G01*
X149575Y339108D01*
X339090Y528624D02*
G01*
X505430Y694963D01*
X38862Y336158D02*
G01*
X398362Y695659D01*
X38862Y443921D02*
G01*
X291294Y696354D01*
X38862Y551684D02*
G01*
X184226Y697049D01*
X38862Y659447D02*
G01*
X77159Y697744D01*
D11*
G01*
X508000Y12585700D03*
G01*
X508000Y330200D03*
M02*
