G04 Layer: BottomSilkscreenLayer*
G04 EasyEDA v6.5.23, 2023-06-10 17:59:46*
G04 2a4cce0fd74440f1b02c58f019cbd83e,5a6b42c53f6a479593ecc07194224c93,10*
G04 Gerber Generator version 0.2*
G04 Scale: 100 percent, Rotated: No, Reflected: No *
G04 Dimensions in millimeters *
G04 leading zeros omitted , absolute positions ,4 integer and 5 decimal *
%FSLAX45Y45*%
%MOMM*%

%ADD10C,0.2032*%
%ADD11C,0.1524*%
%ADD12C,0.2540*%

%LPD*%
D10*
X1600200Y7169589D02*
G01*
X1600200Y7055045D01*
X1600200Y7169589D02*
G01*
X1551109Y7169589D01*
X1534746Y7164136D01*
X1529290Y7158682D01*
X1523837Y7147773D01*
X1523837Y7131408D01*
X1529290Y7120498D01*
X1534746Y7115045D01*
X1551109Y7109589D01*
X1600200Y7109589D01*
X1444200Y7169589D02*
G01*
X1487835Y7055045D01*
X1444200Y7169589D02*
G01*
X1400563Y7055045D01*
X1471472Y7093226D02*
G01*
X1416928Y7093226D01*
X1364564Y7169589D02*
G01*
X1364564Y7055045D01*
X1364564Y7169589D02*
G01*
X1315473Y7169589D01*
X1299110Y7164136D01*
X1293655Y7158682D01*
X1288201Y7147773D01*
X1288201Y7136864D01*
X1293655Y7125954D01*
X1299110Y7120498D01*
X1315473Y7115045D01*
X1364564Y7115045D01*
X1326382Y7115045D02*
G01*
X1288201Y7055045D01*
X1214018Y7169589D02*
G01*
X1214018Y7055045D01*
X1252199Y7169589D02*
G01*
X1175837Y7169589D01*
X1055837Y7169589D02*
G01*
X1055837Y7055045D01*
X1055837Y7169589D02*
G01*
X979474Y7055045D01*
X979474Y7169589D02*
G01*
X979474Y7055045D01*
X943472Y7169589D02*
G01*
X943472Y7087773D01*
X938019Y7071408D01*
X927110Y7060498D01*
X910747Y7055045D01*
X899838Y7055045D01*
X883472Y7060498D01*
X872566Y7071408D01*
X867110Y7087773D01*
X867110Y7169589D01*
X831110Y7169589D02*
G01*
X831110Y7055045D01*
X831110Y7169589D02*
G01*
X787473Y7055045D01*
X743838Y7169589D02*
G01*
X787473Y7055045D01*
X743838Y7169589D02*
G01*
X743838Y7055045D01*
X707837Y7169589D02*
G01*
X707837Y7055045D01*
X707837Y7169589D02*
G01*
X658746Y7169589D01*
X642383Y7164136D01*
X636930Y7158682D01*
X631474Y7147773D01*
X631474Y7136864D01*
X636930Y7125954D01*
X642383Y7120498D01*
X658746Y7115045D01*
X707837Y7115045D02*
G01*
X658746Y7115045D01*
X642383Y7109589D01*
X636930Y7104136D01*
X631474Y7093226D01*
X631474Y7076864D01*
X636930Y7065954D01*
X642383Y7060498D01*
X658746Y7055045D01*
X707837Y7055045D01*
X595475Y7169589D02*
G01*
X595475Y7055045D01*
X595475Y7169589D02*
G01*
X524565Y7169589D01*
X595475Y7115045D02*
G01*
X551837Y7115045D01*
X595475Y7055045D02*
G01*
X524565Y7055045D01*
X488566Y7169589D02*
G01*
X488566Y7055045D01*
X488566Y7169589D02*
G01*
X439475Y7169589D01*
X423110Y7164136D01*
X417657Y7158682D01*
X412201Y7147773D01*
X412201Y7136864D01*
X417657Y7125954D01*
X423110Y7120498D01*
X439475Y7115045D01*
X488566Y7115045D01*
X450385Y7115045D02*
G01*
X412201Y7055045D01*
X1558292Y10052555D02*
G01*
X1558292Y9965179D01*
X1563880Y9948923D01*
X1569214Y9943335D01*
X1580136Y9938001D01*
X1591058Y9938001D01*
X1601980Y9943335D01*
X1607568Y9948923D01*
X1612902Y9965179D01*
X1612902Y9976101D01*
X1522478Y10052555D02*
G01*
X1522478Y9938001D01*
X1522478Y9938001D02*
G01*
X1456946Y9938001D01*
X1339090Y10025123D02*
G01*
X1344424Y10036045D01*
X1355346Y10046967D01*
X1366268Y10052555D01*
X1388112Y10052555D01*
X1399034Y10046967D01*
X1409956Y10036045D01*
X1415544Y10025123D01*
X1420878Y10008867D01*
X1420878Y9981689D01*
X1415544Y9965179D01*
X1409956Y9954257D01*
X1399034Y9943335D01*
X1388112Y9938001D01*
X1366268Y9938001D01*
X1355346Y9943335D01*
X1344424Y9954257D01*
X1339090Y9965179D01*
X1248666Y10052555D02*
G01*
X1248666Y9965179D01*
X1254000Y9948923D01*
X1259334Y9943335D01*
X1270256Y9938001D01*
X1281178Y9938001D01*
X1292100Y9943335D01*
X1297688Y9948923D01*
X1303022Y9965179D01*
X1303022Y9976101D01*
X1212598Y10052555D02*
G01*
X1212598Y9938001D01*
X1212598Y9938001D02*
G01*
X1147066Y9938001D01*
X1029210Y10025123D02*
G01*
X1034798Y10036045D01*
X1045720Y10046967D01*
X1056642Y10052555D01*
X1078232Y10052555D01*
X1089154Y10046967D01*
X1100076Y10036045D01*
X1105664Y10025123D01*
X1110998Y10008867D01*
X1110998Y9981689D01*
X1105664Y9965179D01*
X1100076Y9954257D01*
X1089154Y9943335D01*
X1078232Y9938001D01*
X1056642Y9938001D01*
X1045720Y9943335D01*
X1034798Y9954257D01*
X1029210Y9965179D01*
X938786Y10052555D02*
G01*
X938786Y9965179D01*
X944120Y9948923D01*
X949708Y9943335D01*
X960630Y9938001D01*
X971552Y9938001D01*
X982474Y9943335D01*
X987808Y9948923D01*
X993142Y9965179D01*
X993142Y9976101D01*
X902718Y10052555D02*
G01*
X902718Y9938001D01*
X902718Y9938001D02*
G01*
X837186Y9938001D01*
X719330Y10025123D02*
G01*
X724918Y10036045D01*
X735840Y10046967D01*
X746762Y10052555D01*
X768606Y10052555D01*
X779528Y10046967D01*
X790450Y10036045D01*
X795784Y10025123D01*
X801372Y10008867D01*
X801372Y9981689D01*
X795784Y9965179D01*
X790450Y9954257D01*
X779528Y9943335D01*
X768606Y9938001D01*
X746762Y9938001D01*
X735840Y9943335D01*
X724918Y9954257D01*
X719330Y9965179D01*
X628906Y10052555D02*
G01*
X628906Y9965179D01*
X634240Y9948923D01*
X639828Y9943335D01*
X650750Y9938001D01*
X661672Y9938001D01*
X672594Y9943335D01*
X677928Y9948923D01*
X683516Y9965179D01*
X683516Y9976101D01*
X592838Y10052555D02*
G01*
X592838Y9938001D01*
X592838Y9938001D02*
G01*
X527560Y9938001D01*
X409704Y10025123D02*
G01*
X415038Y10036045D01*
X425960Y10046967D01*
X436882Y10052555D01*
X458726Y10052555D01*
X469648Y10046967D01*
X480570Y10036045D01*
X485904Y10025123D01*
X491492Y10008867D01*
X491492Y9981689D01*
X485904Y9965179D01*
X480570Y9954257D01*
X469648Y9943335D01*
X458726Y9938001D01*
X436882Y9938001D01*
X425960Y9943335D01*
X415038Y9954257D01*
X409704Y9965179D01*
X1651000Y7550589D02*
G01*
X1651000Y7436045D01*
X1651000Y7550589D02*
G01*
X1607362Y7436045D01*
X1563728Y7550589D02*
G01*
X1607362Y7436045D01*
X1563728Y7550589D02*
G01*
X1563728Y7436045D01*
X1484091Y7550589D02*
G01*
X1527728Y7436045D01*
X1484091Y7550589D02*
G01*
X1440454Y7436045D01*
X1511363Y7474226D02*
G01*
X1456819Y7474226D01*
X1404454Y7550589D02*
G01*
X1404454Y7436045D01*
X1368455Y7550589D02*
G01*
X1368455Y7436045D01*
X1368455Y7550589D02*
G01*
X1292090Y7436045D01*
X1292090Y7550589D02*
G01*
X1292090Y7436045D01*
X1172090Y7550589D02*
G01*
X1172090Y7436045D01*
X1172090Y7550589D02*
G01*
X1123000Y7550589D01*
X1106637Y7545136D01*
X1101183Y7539682D01*
X1095728Y7528773D01*
X1095728Y7517864D01*
X1101183Y7506954D01*
X1106637Y7501498D01*
X1123000Y7496045D01*
X1172090Y7496045D02*
G01*
X1123000Y7496045D01*
X1106637Y7490589D01*
X1101183Y7485136D01*
X1095728Y7474226D01*
X1095728Y7457864D01*
X1101183Y7446954D01*
X1106637Y7441498D01*
X1123000Y7436045D01*
X1172090Y7436045D01*
X1027000Y7550589D02*
G01*
X1037910Y7545136D01*
X1048819Y7534226D01*
X1054272Y7523317D01*
X1059728Y7506954D01*
X1059728Y7479682D01*
X1054272Y7463317D01*
X1048819Y7452408D01*
X1037910Y7441498D01*
X1027000Y7436045D01*
X1005182Y7436045D01*
X994272Y7441498D01*
X983366Y7452408D01*
X977910Y7463317D01*
X972456Y7479682D01*
X972456Y7506954D01*
X977910Y7523317D01*
X983366Y7534226D01*
X994272Y7545136D01*
X1005182Y7550589D01*
X1027000Y7550589D01*
X892820Y7550589D02*
G01*
X936454Y7436045D01*
X892820Y7550589D02*
G01*
X849182Y7436045D01*
X920092Y7474226D02*
G01*
X865548Y7474226D01*
X813183Y7550589D02*
G01*
X813183Y7436045D01*
X813183Y7550589D02*
G01*
X764092Y7550589D01*
X747730Y7545136D01*
X742274Y7539682D01*
X736820Y7528773D01*
X736820Y7517864D01*
X742274Y7506954D01*
X747730Y7501498D01*
X764092Y7496045D01*
X813183Y7496045D01*
X775002Y7496045D02*
G01*
X736820Y7436045D01*
X700819Y7550589D02*
G01*
X700819Y7436045D01*
X700819Y7550589D02*
G01*
X662637Y7550589D01*
X646275Y7545136D01*
X635365Y7534226D01*
X629912Y7523317D01*
X624456Y7506954D01*
X624456Y7479682D01*
X629912Y7463317D01*
X635365Y7452408D01*
X646275Y7441498D01*
X662637Y7436045D01*
X700819Y7436045D01*
X504456Y7550589D02*
G01*
X460819Y7436045D01*
X417184Y7550589D02*
G01*
X460819Y7436045D01*
X381185Y7528773D02*
G01*
X370276Y7534226D01*
X353910Y7550589D01*
X353910Y7436045D01*
X1493146Y6951817D02*
G01*
X1493146Y6957273D01*
X1487690Y6968182D01*
X1482237Y6973636D01*
X1471328Y6979089D01*
X1449509Y6979089D01*
X1438600Y6973636D01*
X1433146Y6968182D01*
X1427690Y6957273D01*
X1427690Y6946364D01*
X1433146Y6935454D01*
X1444053Y6919089D01*
X1498600Y6864545D01*
X1422237Y6864545D01*
X1331691Y6979089D02*
G01*
X1386235Y6902726D01*
X1304419Y6902726D01*
X1331691Y6979089D02*
G01*
X1331691Y6864545D01*
X1257510Y6979089D02*
G01*
X1197510Y6979089D01*
X1230236Y6935454D01*
X1213873Y6935454D01*
X1202964Y6929998D01*
X1197510Y6924545D01*
X1192055Y6908182D01*
X1192055Y6897273D01*
X1197510Y6880908D01*
X1208417Y6869998D01*
X1224782Y6864545D01*
X1241145Y6864545D01*
X1257510Y6869998D01*
X1262964Y6875454D01*
X1268417Y6886364D01*
X1150599Y6951817D02*
G01*
X1150599Y6957273D01*
X1145146Y6968182D01*
X1139690Y6973636D01*
X1128783Y6979089D01*
X1106965Y6979089D01*
X1096055Y6973636D01*
X1090599Y6968182D01*
X1085146Y6957273D01*
X1085146Y6946364D01*
X1090599Y6935454D01*
X1101509Y6919089D01*
X1156055Y6864545D01*
X1079690Y6864545D01*
X1043691Y6913636D02*
G01*
X945509Y6913636D01*
X876782Y6979089D02*
G01*
X893147Y6973636D01*
X904054Y6957273D01*
X909510Y6929998D01*
X909510Y6913636D01*
X904054Y6886364D01*
X893147Y6869998D01*
X876782Y6864545D01*
X865873Y6864545D01*
X849510Y6869998D01*
X838601Y6886364D01*
X833147Y6913636D01*
X833147Y6929998D01*
X838601Y6957273D01*
X849510Y6973636D01*
X865873Y6979089D01*
X876782Y6979089D01*
X742602Y6979089D02*
G01*
X797145Y6902726D01*
X715330Y6902726D01*
X742602Y6979089D02*
G01*
X742602Y6864545D01*
X646602Y6979089D02*
G01*
X662965Y6973636D01*
X673874Y6957273D01*
X679328Y6929998D01*
X679328Y6913636D01*
X673874Y6886364D01*
X662965Y6869998D01*
X646602Y6864545D01*
X635693Y6864545D01*
X619328Y6869998D01*
X608418Y6886364D01*
X602965Y6913636D01*
X602965Y6929998D01*
X608418Y6957273D01*
X619328Y6973636D01*
X635693Y6979089D01*
X646602Y6979089D01*
X566966Y6957273D02*
G01*
X556056Y6962726D01*
X539691Y6979089D01*
X539691Y6864545D01*
X1542610Y3086100D02*
G01*
X1657154Y3086100D01*
X1542610Y3086100D02*
G01*
X1542610Y3015190D01*
X1597154Y3086100D02*
G01*
X1597154Y3042462D01*
X1657154Y3086100D02*
G01*
X1657154Y3015190D01*
X1542610Y2979191D02*
G01*
X1624426Y2979191D01*
X1640791Y2973735D01*
X1651701Y2962828D01*
X1657154Y2946463D01*
X1657154Y2935554D01*
X1651701Y2919191D01*
X1640791Y2908282D01*
X1624426Y2902828D01*
X1542610Y2902828D01*
X1542610Y2866826D02*
G01*
X1657154Y2866826D01*
X1542610Y2866826D02*
G01*
X1542610Y2817736D01*
X1548063Y2801373D01*
X1553517Y2795917D01*
X1564426Y2790464D01*
X1575335Y2790464D01*
X1586245Y2795917D01*
X1591701Y2801373D01*
X1597154Y2817736D01*
X1597154Y2866826D01*
X1597154Y2828645D02*
G01*
X1657154Y2790464D01*
X1542610Y2721737D02*
G01*
X1548063Y2732646D01*
X1558973Y2743555D01*
X1569882Y2749008D01*
X1586245Y2754464D01*
X1613517Y2754464D01*
X1629882Y2749008D01*
X1640791Y2743555D01*
X1651701Y2732646D01*
X1657154Y2721737D01*
X1657154Y2699918D01*
X1651701Y2689009D01*
X1640791Y2678099D01*
X1629882Y2672646D01*
X1613517Y2667190D01*
X1586245Y2667190D01*
X1569882Y2672646D01*
X1558973Y2678099D01*
X1548063Y2689009D01*
X1542610Y2699918D01*
X1542610Y2721737D01*
X1542610Y2631191D02*
G01*
X1657154Y2631191D01*
X1542610Y2631191D02*
G01*
X1542610Y2582100D01*
X1548063Y2565737D01*
X1553517Y2560281D01*
X1564426Y2554828D01*
X1575335Y2554828D01*
X1586245Y2560281D01*
X1591701Y2565737D01*
X1597154Y2582100D01*
X1597154Y2631191D01*
X1597154Y2593009D02*
G01*
X1657154Y2554828D01*
X1542610Y2475191D02*
G01*
X1657154Y2518829D01*
X1542610Y2475191D02*
G01*
X1657154Y2431554D01*
X1618973Y2502463D02*
G01*
X1618973Y2447919D01*
X1569882Y2313736D02*
G01*
X1558973Y2319192D01*
X1548063Y2330102D01*
X1542610Y2341011D01*
X1542610Y2362829D01*
X1548063Y2373736D01*
X1558973Y2384645D01*
X1569882Y2390101D01*
X1586245Y2395555D01*
X1613517Y2395555D01*
X1629882Y2390101D01*
X1640791Y2384645D01*
X1651701Y2373736D01*
X1657154Y2362829D01*
X1657154Y2341011D01*
X1651701Y2330102D01*
X1640791Y2319192D01*
X1629882Y2313736D01*
X1542610Y2277737D02*
G01*
X1657154Y2277737D01*
X1542610Y2201374D02*
G01*
X1618973Y2277737D01*
X1591701Y2250465D02*
G01*
X1657154Y2201374D01*
X1542610Y2081375D02*
G01*
X1657154Y2081375D01*
X1542610Y2081375D02*
G01*
X1542610Y2032284D01*
X1548063Y2015919D01*
X1553517Y2010465D01*
X1564426Y2005012D01*
X1580791Y2005012D01*
X1591701Y2010465D01*
X1597154Y2015919D01*
X1602610Y2032284D01*
X1602610Y2081375D01*
X1542610Y1936285D02*
G01*
X1548063Y1947191D01*
X1558973Y1958101D01*
X1569882Y1963557D01*
X1586245Y1969010D01*
X1613517Y1969010D01*
X1629882Y1963557D01*
X1640791Y1958101D01*
X1651701Y1947191D01*
X1657154Y1936285D01*
X1657154Y1914466D01*
X1651701Y1903557D01*
X1640791Y1892647D01*
X1629882Y1887192D01*
X1613517Y1881738D01*
X1586245Y1881738D01*
X1569882Y1887192D01*
X1558973Y1892647D01*
X1548063Y1903557D01*
X1542610Y1914466D01*
X1542610Y1936285D01*
X1542610Y1845739D02*
G01*
X1657154Y1818467D01*
X1542610Y1791192D02*
G01*
X1657154Y1818467D01*
X1542610Y1791192D02*
G01*
X1657154Y1763920D01*
X1542610Y1736648D02*
G01*
X1657154Y1763920D01*
X1542610Y1700649D02*
G01*
X1657154Y1700649D01*
X1542610Y1700649D02*
G01*
X1542610Y1629740D01*
X1597154Y1700649D02*
G01*
X1597154Y1657012D01*
X1657154Y1700649D02*
G01*
X1657154Y1629740D01*
X1542610Y1593738D02*
G01*
X1657154Y1593738D01*
X1542610Y1593738D02*
G01*
X1542610Y1544647D01*
X1548063Y1528284D01*
X1553517Y1522831D01*
X1564426Y1517375D01*
X1575335Y1517375D01*
X1586245Y1522831D01*
X1591701Y1528284D01*
X1597154Y1544647D01*
X1597154Y1593738D01*
X1597154Y1555556D02*
G01*
X1657154Y1517375D01*
D11*
X393237Y3274867D02*
G01*
X382846Y3280064D01*
X372455Y3290455D01*
X367261Y3300844D01*
X367261Y3321626D01*
X372455Y3332017D01*
X382846Y3342408D01*
X393237Y3347605D01*
X408825Y3352800D01*
X434802Y3352800D01*
X450387Y3347605D01*
X460778Y3342408D01*
X471170Y3332017D01*
X476364Y3321626D01*
X476364Y3300844D01*
X471170Y3290455D01*
X460778Y3280064D01*
X450387Y3274867D01*
X367261Y3209404D02*
G01*
X372455Y3219795D01*
X382846Y3230186D01*
X393237Y3235383D01*
X408825Y3240577D01*
X434802Y3240577D01*
X450387Y3235383D01*
X460778Y3230186D01*
X471170Y3219795D01*
X476364Y3209404D01*
X476364Y3188624D01*
X471170Y3178233D01*
X460778Y3167842D01*
X450387Y3162645D01*
X434802Y3157451D01*
X408825Y3157451D01*
X393237Y3162645D01*
X382846Y3167842D01*
X372455Y3178233D01*
X367261Y3188624D01*
X367261Y3209404D01*
X367261Y3123161D02*
G01*
X476364Y3123161D01*
X367261Y3123161D02*
G01*
X367261Y3076402D01*
X372455Y3060814D01*
X377652Y3055620D01*
X388043Y3050425D01*
X403628Y3050425D01*
X414020Y3055620D01*
X419214Y3060814D01*
X424411Y3076402D01*
X424411Y3123161D01*
X367261Y3016135D02*
G01*
X419214Y2974571D01*
X476364Y2974571D01*
X367261Y2933006D02*
G01*
X419214Y2974571D01*
X367261Y2898716D02*
G01*
X476364Y2898716D01*
X367261Y2898716D02*
G01*
X367261Y2851957D01*
X372455Y2836372D01*
X377652Y2831175D01*
X388043Y2825981D01*
X398434Y2825981D01*
X408825Y2831175D01*
X414020Y2836372D01*
X419214Y2851957D01*
X419214Y2898716D01*
X419214Y2862348D02*
G01*
X476364Y2825981D01*
X367261Y2791691D02*
G01*
X476364Y2791691D01*
X393237Y2679468D02*
G01*
X382846Y2684665D01*
X372455Y2695054D01*
X367261Y2705445D01*
X367261Y2726227D01*
X372455Y2736618D01*
X382846Y2747010D01*
X393237Y2752204D01*
X408825Y2757401D01*
X434802Y2757401D01*
X450387Y2752204D01*
X460778Y2747010D01*
X471170Y2736618D01*
X476364Y2726227D01*
X476364Y2705445D01*
X471170Y2695054D01*
X460778Y2684665D01*
X450387Y2679468D01*
X434802Y2679468D01*
X434802Y2705445D02*
G01*
X434802Y2679468D01*
X367261Y2645178D02*
G01*
X476364Y2645178D01*
X367261Y2572443D02*
G01*
X476364Y2572443D01*
X419214Y2645178D02*
G01*
X419214Y2572443D01*
X367261Y2501785D02*
G01*
X476364Y2501785D01*
X367261Y2538153D02*
G01*
X367261Y2465415D01*
X393237Y2345921D02*
G01*
X388043Y2345921D01*
X377652Y2340724D01*
X372455Y2335529D01*
X367261Y2325138D01*
X367261Y2304356D01*
X372455Y2293965D01*
X377652Y2288771D01*
X388043Y2283574D01*
X398434Y2283574D01*
X408825Y2288771D01*
X424411Y2299162D01*
X476364Y2351115D01*
X476364Y2278379D01*
X367261Y2212916D02*
G01*
X372455Y2228504D01*
X388043Y2238895D01*
X414020Y2244089D01*
X429605Y2244089D01*
X455584Y2238895D01*
X471170Y2228504D01*
X476364Y2212916D01*
X476364Y2202525D01*
X471170Y2186939D01*
X455584Y2176548D01*
X429605Y2171354D01*
X414020Y2171354D01*
X388043Y2176548D01*
X372455Y2186939D01*
X367261Y2202525D01*
X367261Y2212916D01*
X393237Y2131867D02*
G01*
X388043Y2131867D01*
X377652Y2126673D01*
X372455Y2121476D01*
X367261Y2111085D01*
X367261Y2090305D01*
X372455Y2079914D01*
X377652Y2074717D01*
X388043Y2069523D01*
X398434Y2069523D01*
X408825Y2074717D01*
X424411Y2085108D01*
X476364Y2137064D01*
X476364Y2064326D01*
X367261Y2019645D02*
G01*
X367261Y1962495D01*
X408825Y1993668D01*
X408825Y1978083D01*
X414020Y1967692D01*
X419214Y1962495D01*
X434802Y1957301D01*
X445193Y1957301D01*
X460778Y1962495D01*
X471170Y1972886D01*
X476364Y1988474D01*
X476364Y2004060D01*
X471170Y2019645D01*
X465975Y2024842D01*
X455584Y2030036D01*
X367261Y1843001D02*
G01*
X476364Y1801436D01*
X367261Y1759874D02*
G01*
X476364Y1801436D01*
X367261Y1725584D02*
G01*
X476364Y1725584D01*
X367261Y1725584D02*
G01*
X367261Y1658043D01*
X419214Y1725584D02*
G01*
X419214Y1684020D01*
X476364Y1725584D02*
G01*
X476364Y1658043D01*
X367261Y1551015D02*
G01*
X476364Y1602971D01*
X367261Y1623753D02*
G01*
X367261Y1551015D01*
X367261Y1516725D02*
G01*
X476364Y1516725D01*
X367261Y1516725D02*
G01*
X367261Y1449184D01*
X419214Y1516725D02*
G01*
X419214Y1475163D01*
X367261Y1414894D02*
G01*
X476364Y1414894D01*
X367261Y1380604D02*
G01*
X476364Y1380604D01*
X367261Y1380604D02*
G01*
X476364Y1339042D01*
X367261Y1297477D02*
G01*
X476364Y1339042D01*
X367261Y1297477D02*
G01*
X476364Y1297477D01*
D10*
X1854200Y7753789D02*
G01*
X1854200Y7639245D01*
X1854200Y7753789D02*
G01*
X1816018Y7753789D01*
X1799653Y7748336D01*
X1788746Y7737426D01*
X1783290Y7726517D01*
X1777837Y7710154D01*
X1777837Y7682882D01*
X1783290Y7666517D01*
X1788746Y7655608D01*
X1799653Y7644698D01*
X1816018Y7639245D01*
X1854200Y7639245D01*
X1741835Y7753789D02*
G01*
X1741835Y7671973D01*
X1736382Y7655608D01*
X1725472Y7644698D01*
X1709110Y7639245D01*
X1698200Y7639245D01*
X1681835Y7644698D01*
X1670928Y7655608D01*
X1665472Y7671973D01*
X1665472Y7753789D01*
X1585836Y7753789D02*
G01*
X1629473Y7639245D01*
X1585836Y7753789D02*
G01*
X1542201Y7639245D01*
X1613110Y7677426D02*
G01*
X1558564Y7677426D01*
X1506199Y7753789D02*
G01*
X1506199Y7639245D01*
X1506199Y7639245D02*
G01*
X1440746Y7639245D01*
X1320746Y7753789D02*
G01*
X1320746Y7639245D01*
X1320746Y7639245D02*
G01*
X1255290Y7639245D01*
X1219291Y7753789D02*
G01*
X1219291Y7639245D01*
X1219291Y7753789D02*
G01*
X1148382Y7753789D01*
X1219291Y7699245D02*
G01*
X1175656Y7699245D01*
X1219291Y7639245D02*
G01*
X1148382Y7639245D01*
X1112382Y7753789D02*
G01*
X1068748Y7639245D01*
X1025110Y7753789D02*
G01*
X1068748Y7639245D01*
X989111Y7753789D02*
G01*
X989111Y7639245D01*
X989111Y7753789D02*
G01*
X918202Y7753789D01*
X989111Y7699245D02*
G01*
X945474Y7699245D01*
X989111Y7639245D02*
G01*
X918202Y7639245D01*
X882202Y7753789D02*
G01*
X882202Y7639245D01*
X882202Y7639245D02*
G01*
X816747Y7639245D01*
X696747Y7753789D02*
G01*
X696747Y7639245D01*
X696747Y7753789D02*
G01*
X653112Y7639245D01*
X609475Y7753789D02*
G01*
X653112Y7639245D01*
X609475Y7753789D02*
G01*
X609475Y7639245D01*
X573476Y7753789D02*
G01*
X573476Y7639245D01*
X573476Y7753789D02*
G01*
X502566Y7753789D01*
X573476Y7699245D02*
G01*
X529838Y7699245D01*
X573476Y7639245D02*
G01*
X502566Y7639245D01*
X428383Y7753789D02*
G01*
X428383Y7639245D01*
X466567Y7753789D02*
G01*
X390202Y7753789D01*
X354203Y7753789D02*
G01*
X354203Y7639245D01*
X354203Y7753789D02*
G01*
X283293Y7753789D01*
X354203Y7699245D02*
G01*
X310565Y7699245D01*
X354203Y7639245D02*
G01*
X283293Y7639245D01*
X247294Y7753789D02*
G01*
X247294Y7639245D01*
X247294Y7753789D02*
G01*
X198203Y7753789D01*
X181838Y7748336D01*
X176385Y7742882D01*
X170931Y7731973D01*
X170931Y7721064D01*
X176385Y7710154D01*
X181838Y7704698D01*
X198203Y7699245D01*
X247294Y7699245D01*
X209113Y7699245D02*
G01*
X170931Y7639245D01*
D11*
X1605546Y3656909D02*
G01*
X1605546Y3584181D01*
X1610090Y3570546D01*
X1614637Y3565999D01*
X1623728Y3561453D01*
X1632818Y3561453D01*
X1641909Y3565999D01*
X1646453Y3570546D01*
X1651000Y3584181D01*
X1651000Y3593271D01*
X1552818Y3656909D02*
G01*
X1566453Y3652362D01*
X1571000Y3643271D01*
X1571000Y3634181D01*
X1566453Y3625090D01*
X1557362Y3620546D01*
X1539181Y3615999D01*
X1525546Y3611453D01*
X1516453Y3602362D01*
X1511909Y3593271D01*
X1511909Y3579637D01*
X1516453Y3570546D01*
X1521000Y3565999D01*
X1534637Y3561453D01*
X1552818Y3561453D01*
X1566453Y3565999D01*
X1571000Y3570546D01*
X1575546Y3579637D01*
X1575546Y3593271D01*
X1571000Y3602362D01*
X1561909Y3611453D01*
X1548272Y3615999D01*
X1530090Y3620546D01*
X1521000Y3625090D01*
X1516453Y3634181D01*
X1516453Y3643271D01*
X1521000Y3652362D01*
X1534637Y3656909D01*
X1552818Y3656909D01*
D12*
X633872Y1058423D02*
G01*
X787400Y1143000D01*
X633872Y1236223D01*
X1455999Y915405D02*
G01*
X1455999Y3707396D01*
X1455999Y3707394D02*
G01*
X576000Y3707396D01*
X576000Y3707396D02*
G01*
X576000Y915405D01*
X576000Y915405D02*
G01*
X1455999Y915405D01*
X584200Y2057400D02*
G01*
X711200Y2057400D01*
X711200Y2565400D01*
X584200Y2565400D01*
X635000Y965200D02*
G01*
X1397000Y965200D01*
X1397000Y3657600D01*
X635000Y3657600D01*
X635000Y2565400D01*
X635000Y2057400D02*
G01*
X635000Y965200D01*
G75*
G01
X1528699Y4914900D02*
G03X1528699Y4914900I-499999J0D01*
M02*
