G04 Layer: BoardOutlineLayer*
G04 EasyEDA v6.5.23, 2023-06-10 17:59:46*
G04 2a4cce0fd74440f1b02c58f019cbd83e,5a6b42c53f6a479593ecc07194224c93,10*
G04 Gerber Generator version 0.2*
G04 Scale: 100 percent, Rotated: No, Reflected: No *
G04 Dimensions in millimeters *
G04 leading zeros omitted , absolute positions ,4 integer and 5 decimal *
%FSLAX45Y45*%
%MOMM*%

%ADD10C,0.2540*%
D10*
X50800Y11493500D02*
G01*
X1968500Y11493500D01*
X1968500Y825500D01*
X50800Y825500D01*
X50800Y11493500D01*
X2268499Y11493500D02*
G01*
X4186199Y11493500D01*
X4186199Y825500D01*
X2268499Y825500D01*
X2268499Y11493500D01*
X4486198Y11493500D02*
G01*
X6403898Y11493500D01*
X6403898Y825500D01*
X4486198Y825500D01*
X4486198Y11493500D01*
X6703898Y11493500D02*
G01*
X8621598Y11493500D01*
X8621598Y825500D01*
X6703898Y825500D01*
X6703898Y11493500D01*
X8921597Y11493500D02*
G01*
X10839297Y11493500D01*
X10839297Y825500D01*
X8921597Y825500D01*
X8921597Y11493500D01*
X50800Y12253498D02*
G01*
X10839297Y12253498D01*
X10839297Y65501D01*
X50800Y65501D01*
X50800Y12253498D01*
X667646Y11653499D02*
G01*
X50800Y11653499D01*
X667646Y665500D02*
G01*
X50800Y665500D01*
X2885346Y11653499D02*
G01*
X1351655Y11653499D01*
X2885346Y665500D02*
G01*
X1351655Y665500D01*
X5103045Y11653499D02*
G01*
X3569355Y11653499D01*
X5103045Y665500D02*
G01*
X3569355Y665500D01*
X7320744Y11653499D02*
G01*
X5787054Y11653499D01*
X7320744Y665500D02*
G01*
X5787054Y665500D01*
X9538444Y11653499D02*
G01*
X8004754Y11653499D01*
X9538444Y665500D02*
G01*
X8004754Y665500D01*
X10839297Y11653499D02*
G01*
X10222453Y11653499D01*
X10839297Y665500D02*
G01*
X10222453Y665500D01*
X2259332Y6501503D02*
G01*
X1977666Y6501503D01*
X2259332Y5817494D02*
G01*
X1977666Y5817494D01*
X4477031Y6501503D02*
G01*
X4195366Y6501503D01*
X4477031Y5817494D02*
G01*
X4195366Y5817494D01*
X6694731Y6501503D02*
G01*
X6413065Y6501503D01*
X6694731Y5817494D02*
G01*
X6413065Y5817494D01*
X8912430Y6501503D02*
G01*
X8630765Y6501503D01*
X8912430Y5817494D02*
G01*
X8630765Y5817494D01*
X667646Y11502666D02*
G01*
X667646Y11653499D01*
X667646Y665500D02*
G01*
X667646Y816333D01*
X1351655Y11502666D02*
G01*
X1351655Y11653499D01*
X1351655Y665500D02*
G01*
X1351655Y816333D01*
X2885346Y11502666D02*
G01*
X2885346Y11653499D01*
X2885346Y665500D02*
G01*
X2885346Y816333D01*
X3569355Y11502666D02*
G01*
X3569355Y11653499D01*
X3569355Y665500D02*
G01*
X3569355Y816333D01*
X5103045Y11502666D02*
G01*
X5103045Y11653499D01*
X5103045Y665500D02*
G01*
X5103045Y816333D01*
X5787054Y11502666D02*
G01*
X5787054Y11653499D01*
X5787054Y665500D02*
G01*
X5787054Y816333D01*
X7320744Y11502666D02*
G01*
X7320744Y11653499D01*
X7320744Y665500D02*
G01*
X7320744Y816333D01*
X8004754Y11502666D02*
G01*
X8004754Y11653499D01*
X8004754Y665500D02*
G01*
X8004754Y816333D01*
X9538444Y11502666D02*
G01*
X9538444Y11653499D01*
X9538444Y665500D02*
G01*
X9538444Y816333D01*
X10222453Y11502666D02*
G01*
X10222453Y11653499D01*
X10222453Y665500D02*
G01*
X10222453Y816333D01*

%LPD*%
M02*
