G04 Layer: TopSilkscreenLayer*
G04 EasyEDA v6.5.29, 2023-07-18 11:26:45*
G04 a794a4778db64c7d861d37b3cbaf2f3d,5a6b42c53f6a479593ecc07194224c93,10*
G04 Gerber Generator version 0.2*
G04 Scale: 100 percent, Rotated: No, Reflected: No *
G04 Dimensions in millimeters *
G04 leading zeros omitted , absolute positions ,4 integer and 5 decimal *
%FSLAX45Y45*%
%MOMM*%

%ADD10C,0.2540*%

%LPD*%
D10*
X451357Y777747D02*
G01*
X451357Y784605D01*
X458215Y798068D01*
X465073Y804926D01*
X478536Y811784D01*
X505968Y811784D01*
X519429Y804926D01*
X526287Y798068D01*
X533145Y784605D01*
X533145Y770889D01*
X526287Y757173D01*
X512571Y736854D01*
X444500Y668528D01*
X540004Y668528D01*
X584962Y784605D02*
G01*
X598678Y791210D01*
X618997Y811784D01*
X618997Y668528D01*
X704850Y811784D02*
G01*
X684529Y804926D01*
X670813Y784605D01*
X663956Y750315D01*
X663956Y729995D01*
X670813Y695960D01*
X684529Y675386D01*
X704850Y668528D01*
X718565Y668528D01*
X739140Y675386D01*
X752602Y695960D01*
X759459Y729995D01*
X759459Y750315D01*
X752602Y784605D01*
X739140Y804926D01*
X718565Y811784D01*
X704850Y811784D01*
X818134Y811784D02*
G01*
X893063Y811784D01*
X852170Y757173D01*
X872743Y757173D01*
X886206Y750315D01*
X893063Y743457D01*
X899922Y723137D01*
X899922Y709421D01*
X893063Y689102D01*
X879602Y675386D01*
X859027Y668528D01*
X838708Y668528D01*
X818134Y675386D01*
X811275Y682244D01*
X804418Y695960D01*
X999490Y811784D02*
G01*
X944879Y668528D01*
X999490Y811784D02*
G01*
X1054100Y668528D01*
X965454Y716279D02*
G01*
X1033525Y716279D01*
X0Y11823700D02*
G01*
X1497208Y11823700D01*
X0Y12179300D02*
G01*
X1497208Y12179300D01*
M02*
