G04 Layer: BottomSilkscreenLayer*
G04 EasyEDA v6.5.34, 2023-08-21 18:11:39*
G04 41bd66247c774cb09e50729edd233ae6,5a6b42c53f6a479593ecc07194224c93,10*
G04 Gerber Generator version 0.2*
G04 Scale: 100 percent, Rotated: No, Reflected: No *
G04 Dimensions in millimeters *
G04 leading zeros omitted , absolute positions ,4 integer and 5 decimal *
%FSLAX45Y45*%
%MOMM*%

%ADD10C,0.2032*%
%ADD11C,0.2540*%

%LPD*%
D10*
X2574290Y997457D02*
G01*
X2574290Y910081D01*
X2579877Y893826D01*
X2585211Y888237D01*
X2596134Y882904D01*
X2607056Y882904D01*
X2617977Y888237D01*
X2623565Y893826D01*
X2628900Y910081D01*
X2628900Y921004D01*
X2538475Y997457D02*
G01*
X2538475Y882904D01*
X2538475Y882904D02*
G01*
X2472943Y882904D01*
X2355088Y970026D02*
G01*
X2360422Y980947D01*
X2371343Y991870D01*
X2382265Y997457D01*
X2404109Y997457D01*
X2415031Y991870D01*
X2425954Y980947D01*
X2431541Y970026D01*
X2436875Y953770D01*
X2436875Y926592D01*
X2431541Y910081D01*
X2425954Y899160D01*
X2415031Y888237D01*
X2404109Y882904D01*
X2382265Y882904D01*
X2371343Y888237D01*
X2360422Y899160D01*
X2355088Y910081D01*
X2264663Y997457D02*
G01*
X2264663Y910081D01*
X2269997Y893826D01*
X2275331Y888237D01*
X2286254Y882904D01*
X2297175Y882904D01*
X2308097Y888237D01*
X2313686Y893826D01*
X2319020Y910081D01*
X2319020Y921004D01*
X2228595Y997457D02*
G01*
X2228595Y882904D01*
X2228595Y882904D02*
G01*
X2163063Y882904D01*
X2045208Y970026D02*
G01*
X2050795Y980947D01*
X2061718Y991870D01*
X2072640Y997457D01*
X2094229Y997457D01*
X2105152Y991870D01*
X2116074Y980947D01*
X2121661Y970026D01*
X2126995Y953770D01*
X2126995Y926592D01*
X2121661Y910081D01*
X2116074Y899160D01*
X2105152Y888237D01*
X2094229Y882904D01*
X2072640Y882904D01*
X2061718Y888237D01*
X2050795Y899160D01*
X2045208Y910081D01*
X1954784Y997457D02*
G01*
X1954784Y910081D01*
X1960118Y893826D01*
X1965706Y888237D01*
X1976627Y882904D01*
X1987550Y882904D01*
X1998472Y888237D01*
X2003806Y893826D01*
X2009140Y910081D01*
X2009140Y921004D01*
X1918715Y997457D02*
G01*
X1918715Y882904D01*
X1918715Y882904D02*
G01*
X1853184Y882904D01*
X1735327Y970026D02*
G01*
X1740915Y980947D01*
X1751838Y991870D01*
X1762759Y997457D01*
X1784604Y997457D01*
X1795525Y991870D01*
X1806447Y980947D01*
X1811781Y970026D01*
X1817370Y953770D01*
X1817370Y926592D01*
X1811781Y910081D01*
X1806447Y899160D01*
X1795525Y888237D01*
X1784604Y882904D01*
X1762759Y882904D01*
X1751838Y888237D01*
X1740915Y899160D01*
X1735327Y910081D01*
X1644904Y997457D02*
G01*
X1644904Y910081D01*
X1650238Y893826D01*
X1655825Y888237D01*
X1666747Y882904D01*
X1677670Y882904D01*
X1688591Y888237D01*
X1693925Y893826D01*
X1699513Y910081D01*
X1699513Y921004D01*
X1608836Y997457D02*
G01*
X1608836Y882904D01*
X1608836Y882904D02*
G01*
X1543558Y882904D01*
X1425702Y970026D02*
G01*
X1431036Y980947D01*
X1441958Y991870D01*
X1452879Y997457D01*
X1474724Y997457D01*
X1485645Y991870D01*
X1496568Y980947D01*
X1501902Y970026D01*
X1507490Y953770D01*
X1507490Y926592D01*
X1501902Y910081D01*
X1496568Y899160D01*
X1485645Y888237D01*
X1474724Y882904D01*
X1452879Y882904D01*
X1441958Y888237D01*
X1431036Y899160D01*
X1425702Y910081D01*
X3822700Y2826189D02*
G01*
X3822700Y2711645D01*
X3822700Y2826189D02*
G01*
X3746337Y2711645D01*
X3746337Y2826189D02*
G01*
X3746337Y2711645D01*
X3666700Y2826189D02*
G01*
X3710335Y2711645D01*
X3666700Y2826189D02*
G01*
X3623063Y2711645D01*
X3693972Y2749826D02*
G01*
X3639428Y2749826D01*
X3587064Y2826189D02*
G01*
X3587064Y2711645D01*
X3587064Y2826189D02*
G01*
X3510701Y2711645D01*
X3510701Y2826189D02*
G01*
X3510701Y2711645D01*
X3441974Y2826189D02*
G01*
X3452883Y2820736D01*
X3463790Y2809826D01*
X3469246Y2798917D01*
X3474699Y2782554D01*
X3474699Y2755282D01*
X3469246Y2738917D01*
X3463790Y2728008D01*
X3452883Y2717098D01*
X3441974Y2711645D01*
X3420155Y2711645D01*
X3409246Y2717098D01*
X3398337Y2728008D01*
X3392883Y2738917D01*
X3387427Y2755282D01*
X3387427Y2782554D01*
X3392883Y2798917D01*
X3398337Y2809826D01*
X3409246Y2820736D01*
X3420155Y2826189D01*
X3441974Y2826189D01*
X3351428Y2826189D02*
G01*
X3351428Y2711645D01*
X3351428Y2826189D02*
G01*
X3307791Y2711645D01*
X3264156Y2826189D02*
G01*
X3307791Y2711645D01*
X3264156Y2826189D02*
G01*
X3264156Y2711645D01*
X3228154Y2826189D02*
G01*
X3228154Y2711645D01*
X3148520Y2826189D02*
G01*
X3192155Y2711645D01*
X3148520Y2826189D02*
G01*
X3104883Y2711645D01*
X3175792Y2749826D02*
G01*
X3121245Y2749826D01*
X2984883Y2826189D02*
G01*
X2984883Y2711645D01*
X2984883Y2826189D02*
G01*
X2935792Y2826189D01*
X2919430Y2820736D01*
X2913974Y2815282D01*
X2908520Y2804373D01*
X2908520Y2788008D01*
X2913974Y2777098D01*
X2919430Y2771645D01*
X2935792Y2766189D01*
X2984883Y2766189D01*
X2839793Y2826189D02*
G01*
X2850702Y2820736D01*
X2861612Y2809826D01*
X2867065Y2798917D01*
X2872519Y2782554D01*
X2872519Y2755282D01*
X2867065Y2738917D01*
X2861612Y2728008D01*
X2850702Y2717098D01*
X2839793Y2711645D01*
X2817975Y2711645D01*
X2807065Y2717098D01*
X2796156Y2728008D01*
X2790703Y2738917D01*
X2785247Y2755282D01*
X2785247Y2782554D01*
X2790703Y2798917D01*
X2796156Y2809826D01*
X2807065Y2820736D01*
X2817975Y2826189D01*
X2839793Y2826189D01*
X2749247Y2826189D02*
G01*
X2721975Y2711645D01*
X2694701Y2826189D02*
G01*
X2721975Y2711645D01*
X2694701Y2826189D02*
G01*
X2667429Y2711645D01*
X2640157Y2826189D02*
G01*
X2667429Y2711645D01*
X2604157Y2826189D02*
G01*
X2604157Y2711645D01*
X2604157Y2826189D02*
G01*
X2533248Y2826189D01*
X2604157Y2771645D02*
G01*
X2560520Y2771645D01*
X2604157Y2711645D02*
G01*
X2533248Y2711645D01*
X2497249Y2826189D02*
G01*
X2497249Y2711645D01*
X2497249Y2826189D02*
G01*
X2448156Y2826189D01*
X2431793Y2820736D01*
X2426340Y2815282D01*
X2420884Y2804373D01*
X2420884Y2793464D01*
X2426340Y2782554D01*
X2431793Y2777098D01*
X2448156Y2771645D01*
X2497249Y2771645D01*
X2459065Y2771645D02*
G01*
X2420884Y2711645D01*
X2300884Y2826189D02*
G01*
X2300884Y2711645D01*
X2300884Y2826189D02*
G01*
X2257249Y2711645D01*
X2213612Y2826189D02*
G01*
X2257249Y2711645D01*
X2213612Y2826189D02*
G01*
X2213612Y2711645D01*
X2177613Y2826189D02*
G01*
X2177613Y2711645D01*
X2177613Y2826189D02*
G01*
X2106703Y2826189D01*
X2177613Y2771645D02*
G01*
X2133975Y2771645D01*
X2177613Y2711645D02*
G01*
X2106703Y2711645D01*
X2032520Y2826189D02*
G01*
X2032520Y2711645D01*
X2070704Y2826189D02*
G01*
X1994339Y2826189D01*
X1958340Y2826189D02*
G01*
X1958340Y2711645D01*
X1958340Y2826189D02*
G01*
X1887430Y2826189D01*
X1958340Y2771645D02*
G01*
X1914702Y2771645D01*
X1958340Y2711645D02*
G01*
X1887430Y2711645D01*
X1851431Y2826189D02*
G01*
X1851431Y2711645D01*
X1851431Y2826189D02*
G01*
X1802340Y2826189D01*
X1785975Y2820736D01*
X1780522Y2815282D01*
X1775068Y2804373D01*
X1775068Y2793464D01*
X1780522Y2782554D01*
X1785975Y2777098D01*
X1802340Y2771645D01*
X1851431Y2771645D01*
X1813250Y2771645D02*
G01*
X1775068Y2711645D01*
X1655069Y2760736D02*
G01*
X1556885Y2760736D01*
X1436885Y2826189D02*
G01*
X1436885Y2711645D01*
X1436885Y2826189D02*
G01*
X1365976Y2826189D01*
X1436885Y2771645D02*
G01*
X1393250Y2771645D01*
X1329977Y2826189D02*
G01*
X1329977Y2711645D01*
X1329977Y2826189D02*
G01*
X1280886Y2826189D01*
X1264523Y2820736D01*
X1259067Y2815282D01*
X1253614Y2804373D01*
X1253614Y2793464D01*
X1259067Y2782554D01*
X1264523Y2777098D01*
X1280886Y2771645D01*
X1329977Y2771645D01*
X1291795Y2771645D02*
G01*
X1253614Y2711645D01*
X1184887Y2826189D02*
G01*
X1195796Y2820736D01*
X1206705Y2809826D01*
X1212159Y2798917D01*
X1217615Y2782554D01*
X1217615Y2755282D01*
X1212159Y2738917D01*
X1206705Y2728008D01*
X1195796Y2717098D01*
X1184887Y2711645D01*
X1163068Y2711645D01*
X1152159Y2717098D01*
X1141249Y2728008D01*
X1135796Y2738917D01*
X1130340Y2755282D01*
X1130340Y2782554D01*
X1135796Y2798917D01*
X1141249Y2809826D01*
X1152159Y2820736D01*
X1163068Y2826189D01*
X1184887Y2826189D01*
X1094341Y2826189D02*
G01*
X1094341Y2711645D01*
X1094341Y2826189D02*
G01*
X1017978Y2711645D01*
X1017978Y2826189D02*
G01*
X1017978Y2711645D01*
X943795Y2826189D02*
G01*
X943795Y2711645D01*
X981979Y2826189D02*
G01*
X905614Y2826189D01*
X785614Y2826189D02*
G01*
X785614Y2711645D01*
X785614Y2826189D02*
G01*
X736523Y2826189D01*
X720161Y2820736D01*
X714705Y2815282D01*
X709251Y2804373D01*
X709251Y2788008D01*
X714705Y2777098D01*
X720161Y2771645D01*
X736523Y2766189D01*
X785614Y2766189D01*
X629615Y2826189D02*
G01*
X673252Y2711645D01*
X629615Y2826189D02*
G01*
X585978Y2711645D01*
X656887Y2749826D02*
G01*
X602343Y2749826D01*
X549978Y2826189D02*
G01*
X549978Y2711645D01*
X549978Y2826189D02*
G01*
X473616Y2711645D01*
X473616Y2826189D02*
G01*
X473616Y2711645D01*
X437616Y2826189D02*
G01*
X437616Y2711645D01*
X437616Y2826189D02*
G01*
X366707Y2826189D01*
X437616Y2771645D02*
G01*
X393979Y2771645D01*
X437616Y2711645D02*
G01*
X366707Y2711645D01*
X330707Y2826189D02*
G01*
X330707Y2711645D01*
X330707Y2711645D02*
G01*
X265252Y2711645D01*
X3365500Y2635689D02*
G01*
X3365500Y2521145D01*
X3365500Y2635689D02*
G01*
X3316409Y2635689D01*
X3300046Y2630236D01*
X3294590Y2624782D01*
X3289137Y2613873D01*
X3289137Y2597508D01*
X3294590Y2586598D01*
X3300046Y2581145D01*
X3316409Y2575689D01*
X3365500Y2575689D01*
X3209500Y2635689D02*
G01*
X3253135Y2521145D01*
X3209500Y2635689D02*
G01*
X3165863Y2521145D01*
X3236772Y2559326D02*
G01*
X3182228Y2559326D01*
X3129864Y2635689D02*
G01*
X3129864Y2521145D01*
X3129864Y2635689D02*
G01*
X3080773Y2635689D01*
X3064410Y2630236D01*
X3058955Y2624782D01*
X3053501Y2613873D01*
X3053501Y2602964D01*
X3058955Y2592054D01*
X3064410Y2586598D01*
X3080773Y2581145D01*
X3129864Y2581145D01*
X3091682Y2581145D02*
G01*
X3053501Y2521145D01*
X2979318Y2635689D02*
G01*
X2979318Y2521145D01*
X3017499Y2635689D02*
G01*
X2941137Y2635689D01*
X2821137Y2635689D02*
G01*
X2821137Y2521145D01*
X2821137Y2635689D02*
G01*
X2744774Y2521145D01*
X2744774Y2635689D02*
G01*
X2744774Y2521145D01*
X2708772Y2635689D02*
G01*
X2708772Y2553873D01*
X2703319Y2537508D01*
X2692410Y2526598D01*
X2676047Y2521145D01*
X2665138Y2521145D01*
X2648772Y2526598D01*
X2637866Y2537508D01*
X2632410Y2553873D01*
X2632410Y2635689D01*
X2596410Y2635689D02*
G01*
X2596410Y2521145D01*
X2596410Y2635689D02*
G01*
X2552773Y2521145D01*
X2509138Y2635689D02*
G01*
X2552773Y2521145D01*
X2509138Y2635689D02*
G01*
X2509138Y2521145D01*
X2473137Y2635689D02*
G01*
X2473137Y2521145D01*
X2473137Y2635689D02*
G01*
X2424046Y2635689D01*
X2407683Y2630236D01*
X2402230Y2624782D01*
X2396774Y2613873D01*
X2396774Y2602964D01*
X2402230Y2592054D01*
X2407683Y2586598D01*
X2424046Y2581145D01*
X2473137Y2581145D02*
G01*
X2424046Y2581145D01*
X2407683Y2575689D01*
X2402230Y2570236D01*
X2396774Y2559326D01*
X2396774Y2542964D01*
X2402230Y2532054D01*
X2407683Y2526598D01*
X2424046Y2521145D01*
X2473137Y2521145D01*
X2360775Y2635689D02*
G01*
X2360775Y2521145D01*
X2360775Y2635689D02*
G01*
X2289865Y2635689D01*
X2360775Y2581145D02*
G01*
X2317137Y2581145D01*
X2360775Y2521145D02*
G01*
X2289865Y2521145D01*
X2253866Y2635689D02*
G01*
X2253866Y2521145D01*
X2253866Y2635689D02*
G01*
X2204775Y2635689D01*
X2188410Y2630236D01*
X2182957Y2624782D01*
X2177501Y2613873D01*
X2177501Y2602964D01*
X2182957Y2592054D01*
X2188410Y2586598D01*
X2204775Y2581145D01*
X2253866Y2581145D01*
X2215685Y2581145D02*
G01*
X2177501Y2521145D01*
X2052048Y2608417D02*
G01*
X2052048Y2613873D01*
X2046592Y2624782D01*
X2041138Y2630236D01*
X2030229Y2635689D01*
X2008411Y2635689D01*
X1997501Y2630236D01*
X1992048Y2624782D01*
X1986592Y2613873D01*
X1986592Y2602964D01*
X1992048Y2592054D01*
X2002957Y2575689D01*
X2057501Y2521145D01*
X1981139Y2521145D01*
X1879683Y2619326D02*
G01*
X1885139Y2630236D01*
X1901502Y2635689D01*
X1912411Y2635689D01*
X1928774Y2630236D01*
X1939683Y2613873D01*
X1945139Y2586598D01*
X1945139Y2559326D01*
X1939683Y2537508D01*
X1928774Y2526598D01*
X1912411Y2521145D01*
X1906958Y2521145D01*
X1890593Y2526598D01*
X1879683Y2537508D01*
X1874230Y2553873D01*
X1874230Y2559326D01*
X1879683Y2575689D01*
X1890593Y2586598D01*
X1906958Y2592054D01*
X1912411Y2592054D01*
X1928774Y2586598D01*
X1939683Y2575689D01*
X1945139Y2559326D01*
X1772775Y2619326D02*
G01*
X1778231Y2630236D01*
X1794593Y2635689D01*
X1805503Y2635689D01*
X1821865Y2630236D01*
X1832775Y2613873D01*
X1838231Y2586598D01*
X1838231Y2559326D01*
X1832775Y2537508D01*
X1821865Y2526598D01*
X1805503Y2521145D01*
X1800049Y2521145D01*
X1783684Y2526598D01*
X1772775Y2537508D01*
X1767321Y2553873D01*
X1767321Y2559326D01*
X1772775Y2575689D01*
X1783684Y2586598D01*
X1800049Y2592054D01*
X1805503Y2592054D01*
X1821865Y2586598D01*
X1832775Y2575689D01*
X1838231Y2559326D01*
X1698594Y2635689D02*
G01*
X1714957Y2630236D01*
X1725866Y2613873D01*
X1731322Y2586598D01*
X1731322Y2570236D01*
X1725866Y2542964D01*
X1714957Y2526598D01*
X1698594Y2521145D01*
X1687685Y2521145D01*
X1671322Y2526598D01*
X1660413Y2542964D01*
X1654957Y2570236D01*
X1654957Y2586598D01*
X1660413Y2613873D01*
X1671322Y2630236D01*
X1687685Y2635689D01*
X1698594Y2635689D01*
X1618957Y2570236D02*
G01*
X1520776Y2570236D01*
X1452049Y2635689D02*
G01*
X1468412Y2630236D01*
X1479321Y2613873D01*
X1484777Y2586598D01*
X1484777Y2570236D01*
X1479321Y2542964D01*
X1468412Y2526598D01*
X1452049Y2521145D01*
X1441140Y2521145D01*
X1424777Y2526598D01*
X1413868Y2542964D01*
X1408412Y2570236D01*
X1408412Y2586598D01*
X1413868Y2613873D01*
X1424777Y2630236D01*
X1441140Y2635689D01*
X1452049Y2635689D01*
X1372412Y2613873D02*
G01*
X1361503Y2619326D01*
X1345140Y2635689D01*
X1345140Y2521145D01*
X1276413Y2635689D02*
G01*
X1292776Y2630236D01*
X1303685Y2613873D01*
X1309141Y2586598D01*
X1309141Y2570236D01*
X1303685Y2542964D01*
X1292776Y2526598D01*
X1276413Y2521145D01*
X1265504Y2521145D01*
X1249141Y2526598D01*
X1238232Y2542964D01*
X1232776Y2570236D01*
X1232776Y2586598D01*
X1238232Y2613873D01*
X1249141Y2630236D01*
X1265504Y2635689D01*
X1276413Y2635689D01*
X1196776Y2613873D02*
G01*
X1185867Y2619326D01*
X1169504Y2635689D01*
X1169504Y2521145D01*
X1049505Y2635689D02*
G01*
X1005867Y2521145D01*
X962233Y2635689D02*
G01*
X1005867Y2521145D01*
X893505Y2635689D02*
G01*
X909868Y2630236D01*
X920777Y2613873D01*
X926231Y2586598D01*
X926231Y2570236D01*
X920777Y2542964D01*
X909868Y2526598D01*
X893505Y2521145D01*
X882596Y2521145D01*
X866231Y2526598D01*
X855322Y2542964D01*
X849868Y2570236D01*
X849868Y2586598D01*
X855322Y2613873D01*
X866231Y2630236D01*
X882596Y2635689D01*
X893505Y2635689D01*
X808413Y2548417D02*
G01*
X813869Y2542964D01*
X808413Y2537508D01*
X802960Y2542964D01*
X808413Y2548417D01*
X766960Y2613873D02*
G01*
X756051Y2619326D01*
X739686Y2635689D01*
X739686Y2521145D01*
D11*
X446176Y7341666D02*
G01*
X3646170Y7341666D01*
X3646170Y2941675D01*
X446176Y2941675D01*
X446176Y7341666D01*
X448818Y11823293D02*
G01*
X3648811Y11823293D01*
X3648811Y7423302D01*
X448818Y7423302D01*
X448818Y11823293D01*
M02*
