G04 Layer: TopLayer*
G04 EasyEDA v6.5.34, 2023-10-04 19:43:08*
G04 c11720abcaec4e6590754cbdbbe34226,5a6b42c53f6a479593ecc07194224c93,10*
G04 Gerber Generator version 0.2*
G04 Scale: 100 percent, Rotated: No, Reflected: No *
G04 Dimensions in millimeters *
G04 leading zeros omitted , absolute positions ,4 integer and 5 decimal *
%FSLAX45Y45*%
%MOMM*%

%AMMACRO1*21,1,$1,$2,0,0,$3*%
%ADD10C,0.1270*%
%ADD11C,0.2540*%
%ADD12C,0.5000*%
%ADD13C,0.2000*%
%ADD14R,1.3770X1.1325*%
%ADD15MACRO1,1.377X1.1325X0.0000*%
%ADD16MACRO1,3.4992X1.4067X0.0000*%
%ADD17R,3.4992X1.4067*%
%ADD18R,0.9500X1.2000*%
%ADD19MACRO1,0.864X0.8065X0.0000*%
%ADD20R,0.8640X0.8065*%
%ADD21R,0.5320X1.0720*%
%ADD22R,0.6000X1.5500*%
%ADD23R,1.5000X2.0000*%
%ADD24MACRO1,0.54X0.7901X0.0000*%
%ADD25R,0.5400X0.7901*%
%ADD26MACRO1,0.54X0.7901X-90.0000*%
%ADD27MACRO1,1.2X1.4X90.0000*%
%ADD28R,1.4000X1.2000*%
%ADD29MACRO1,1.2X1.4X-90.0000*%
%ADD30R,1.1000X0.2000*%
%ADD31R,0.2000X1.1000*%
%ADD32R,3.1000X3.1000*%
%ADD33MACRO1,0.54X0.7901X90.0000*%
%ADD34R,0.6000X0.2800*%
%ADD35R,0.3000X1.7000*%
%ADD36R,0.5500X0.5500*%
%ADD37R,0.8000X0.8000*%
%ADD38R,1.0500X2.4650*%
%ADD39MACRO1,3.54X2.465X0.0000*%
%ADD40MACRO1,2.592X2.2075X0.0000*%
%ADD41R,2.5920X2.2075*%
%ADD42R,0.5500X1.0000*%
%ADD43R,1.7000X1.7000*%
%ADD44C,1.7000*%
%ADD45MACRO1,1.7X1.7X0.0000*%
%ADD46MACRO1,1.7X1.7X90.0000*%
%ADD47C,0.6096*%
%ADD48C,0.6200*%
%ADD49C,0.0104*%

%LPD*%
G36*
X480568Y787908D02*
G01*
X476656Y788670D01*
X473405Y790905D01*
X471170Y794156D01*
X470408Y798068D01*
X470408Y11800332D01*
X471170Y11804243D01*
X473405Y11807494D01*
X476656Y11809730D01*
X480568Y11810492D01*
X1144828Y11810492D01*
X1148689Y11809730D01*
X1151991Y11807494D01*
X1154226Y11804243D01*
X1154988Y11800332D01*
X1154988Y11750751D01*
X1243177Y11750751D01*
X1243177Y11800332D01*
X1243939Y11804243D01*
X1246174Y11807494D01*
X1249476Y11809730D01*
X1253337Y11810492D01*
X1258417Y11810492D01*
X1262329Y11809730D01*
X1265631Y11807494D01*
X1267815Y11804243D01*
X1268577Y11800332D01*
X1268577Y11750751D01*
X1356817Y11750751D01*
X1356817Y11800332D01*
X1357579Y11804243D01*
X1359763Y11807494D01*
X1363065Y11809730D01*
X1366977Y11810492D01*
X1604822Y11810492D01*
X1608734Y11809730D01*
X1612036Y11807494D01*
X1614220Y11804243D01*
X1614982Y11800332D01*
X1614982Y11750751D01*
X1703222Y11750751D01*
X1703222Y11800332D01*
X1703984Y11804243D01*
X1706168Y11807494D01*
X1709470Y11809730D01*
X1713382Y11810492D01*
X1718462Y11810492D01*
X1722323Y11809730D01*
X1725625Y11807494D01*
X1727809Y11804243D01*
X1728622Y11800332D01*
X1728622Y11750751D01*
X1816811Y11750751D01*
X1816811Y11800332D01*
X1817573Y11804243D01*
X1819808Y11807494D01*
X1823110Y11809730D01*
X1826971Y11810492D01*
X2414828Y11810492D01*
X2418689Y11809730D01*
X2421991Y11807494D01*
X2424226Y11804243D01*
X2424988Y11800332D01*
X2424988Y11750751D01*
X2513177Y11750751D01*
X2513177Y11800332D01*
X2513939Y11804243D01*
X2516174Y11807494D01*
X2519476Y11809730D01*
X2523337Y11810492D01*
X2528417Y11810492D01*
X2532329Y11809730D01*
X2535631Y11807494D01*
X2537815Y11804243D01*
X2538577Y11800332D01*
X2538577Y11750751D01*
X2626817Y11750751D01*
X2626817Y11800332D01*
X2627579Y11804243D01*
X2629763Y11807494D01*
X2633065Y11809730D01*
X2636977Y11810492D01*
X2874822Y11810492D01*
X2878734Y11809730D01*
X2882036Y11807494D01*
X2884220Y11804243D01*
X2884982Y11800332D01*
X2884982Y11750751D01*
X2973222Y11750751D01*
X2973222Y11800332D01*
X2973984Y11804243D01*
X2976168Y11807494D01*
X2979470Y11809730D01*
X2983382Y11810492D01*
X2988462Y11810492D01*
X2992323Y11809730D01*
X2995625Y11807494D01*
X2997809Y11804243D01*
X2998622Y11800332D01*
X2998622Y11750751D01*
X3086811Y11750751D01*
X3086811Y11800332D01*
X3087573Y11804243D01*
X3089808Y11807494D01*
X3093110Y11809730D01*
X3096971Y11810492D01*
X3621532Y11810492D01*
X3625443Y11809730D01*
X3628694Y11807494D01*
X3630929Y11804243D01*
X3631692Y11800332D01*
X3631692Y9751110D01*
X3630879Y9747097D01*
X3628491Y9743694D01*
X3624986Y9741560D01*
X3620922Y9740950D01*
X3616960Y9742017D01*
X3615283Y9742881D01*
X3606088Y9745675D01*
X3596538Y9746945D01*
X3586886Y9746488D01*
X3577437Y9744456D01*
X3568496Y9740900D01*
X3560267Y9735820D01*
X3553053Y9729470D01*
X3546957Y9721951D01*
X3542284Y9713518D01*
X3539083Y9704425D01*
X3537458Y9694926D01*
X3537458Y9685274D01*
X3539083Y9675774D01*
X3540556Y9671507D01*
X3541166Y9667748D01*
X3540302Y9664090D01*
X3538220Y9660940D01*
X3535121Y9658807D01*
X3531412Y9657943D01*
X3523386Y9657588D01*
X3513937Y9655556D01*
X3504996Y9652000D01*
X3496767Y9646920D01*
X3489553Y9640570D01*
X3483457Y9633051D01*
X3478784Y9624618D01*
X3475583Y9615525D01*
X3473958Y9606026D01*
X3473958Y9596374D01*
X3475583Y9586874D01*
X3477056Y9582607D01*
X3477666Y9578848D01*
X3476802Y9575190D01*
X3474720Y9572040D01*
X3471621Y9569907D01*
X3467912Y9569043D01*
X3459886Y9568688D01*
X3450437Y9566656D01*
X3441496Y9563100D01*
X3433267Y9558020D01*
X3426053Y9551670D01*
X3419957Y9544151D01*
X3415284Y9535718D01*
X3412083Y9526625D01*
X3410458Y9517126D01*
X3410458Y9507474D01*
X3412083Y9497974D01*
X3415284Y9488881D01*
X3419957Y9480448D01*
X3426256Y9472726D01*
X3427933Y9469729D01*
X3428492Y9466326D01*
X3428492Y6654749D01*
X3427780Y6650939D01*
X3425698Y6647688D01*
X3422548Y6645452D01*
X3418789Y6644589D01*
X3414979Y6645148D01*
X3411931Y6646214D01*
X3405632Y6646925D01*
X3337661Y6646925D01*
X3333800Y6647688D01*
X3330498Y6649872D01*
X3328263Y6653174D01*
X3327501Y6657086D01*
X3327501Y6792772D01*
X3328415Y6796938D01*
X3330244Y6800951D01*
X3332632Y6810298D01*
X3333496Y6819900D01*
X3332632Y6829501D01*
X3330244Y6838848D01*
X3328415Y6842861D01*
X3327501Y6847027D01*
X3327501Y7389672D01*
X3328415Y7393838D01*
X3330244Y7397851D01*
X3332632Y7407198D01*
X3333496Y7416800D01*
X3332632Y7426401D01*
X3330244Y7435748D01*
X3328415Y7439761D01*
X3327501Y7443927D01*
X3327501Y8354872D01*
X3328415Y8359038D01*
X3330244Y8363051D01*
X3332632Y8372398D01*
X3333496Y8382000D01*
X3332632Y8391601D01*
X3330244Y8400948D01*
X3328415Y8404961D01*
X3327501Y8409127D01*
X3327501Y9981692D01*
X3328466Y9986010D01*
X3329533Y9988346D01*
X3332073Y9997795D01*
X3332937Y10007600D01*
X3332073Y10017404D01*
X3329533Y10026853D01*
X3328466Y10029190D01*
X3327501Y10033508D01*
X3327501Y10870692D01*
X3328466Y10875010D01*
X3329533Y10877346D01*
X3332073Y10886795D01*
X3332937Y10896600D01*
X3332073Y10906404D01*
X3329533Y10915853D01*
X3325418Y10924794D01*
X3319779Y10932820D01*
X3312820Y10939780D01*
X3304794Y10945418D01*
X3295853Y10949533D01*
X3286404Y10952073D01*
X3276600Y10952937D01*
X3266795Y10952073D01*
X3257346Y10949533D01*
X3248406Y10945418D01*
X3240379Y10939780D01*
X3233420Y10932820D01*
X3227781Y10924794D01*
X3223666Y10915853D01*
X3221126Y10906404D01*
X3220262Y10896600D01*
X3221126Y10886795D01*
X3223666Y10877346D01*
X3224733Y10874959D01*
X3225698Y10870692D01*
X3225698Y10033508D01*
X3224733Y10029190D01*
X3223666Y10026853D01*
X3221126Y10017404D01*
X3220262Y10007600D01*
X3221126Y9997795D01*
X3223666Y9988346D01*
X3224733Y9985959D01*
X3225698Y9981692D01*
X3225698Y8409686D01*
X3225088Y8406333D01*
X3221583Y8396325D01*
X3219958Y8386825D01*
X3219958Y8377174D01*
X3221583Y8367674D01*
X3225088Y8357666D01*
X3225698Y8354314D01*
X3225698Y7444486D01*
X3225088Y7441133D01*
X3221583Y7431125D01*
X3219958Y7421625D01*
X3219958Y7411974D01*
X3221583Y7402474D01*
X3225088Y7392466D01*
X3225698Y7389114D01*
X3225698Y6847586D01*
X3225088Y6844233D01*
X3221583Y6834225D01*
X3219958Y6824725D01*
X3219958Y6815074D01*
X3221583Y6805574D01*
X3225088Y6795566D01*
X3225698Y6792214D01*
X3225698Y6657086D01*
X3224936Y6653174D01*
X3222701Y6649872D01*
X3219399Y6647688D01*
X3215538Y6646925D01*
X3147568Y6646925D01*
X3141268Y6646214D01*
X3135782Y6644284D01*
X3130905Y6641185D01*
X3126790Y6637121D01*
X3123692Y6632194D01*
X3121812Y6626758D01*
X3121101Y6620408D01*
X3121101Y6400800D01*
X3121812Y6394500D01*
X3123692Y6389014D01*
X3126790Y6384137D01*
X3130905Y6380022D01*
X3135782Y6376974D01*
X3141268Y6375044D01*
X3147568Y6374333D01*
X3215538Y6374333D01*
X3219399Y6373571D01*
X3222701Y6371386D01*
X3224936Y6368084D01*
X3225698Y6364173D01*
X3225698Y6248908D01*
X3224733Y6244590D01*
X3223666Y6242253D01*
X3221126Y6232804D01*
X3220262Y6223000D01*
X3221126Y6213195D01*
X3223666Y6203746D01*
X3227781Y6194806D01*
X3233420Y6186779D01*
X3240379Y6179820D01*
X3248406Y6174181D01*
X3257346Y6170066D01*
X3266795Y6167526D01*
X3276600Y6166662D01*
X3286404Y6167526D01*
X3295853Y6170066D01*
X3304794Y6174181D01*
X3312820Y6179820D01*
X3319779Y6186779D01*
X3325418Y6194806D01*
X3329533Y6203746D01*
X3332073Y6213195D01*
X3332937Y6223000D01*
X3332073Y6232804D01*
X3329533Y6242253D01*
X3328466Y6244590D01*
X3327501Y6248908D01*
X3327501Y6364173D01*
X3328263Y6368084D01*
X3330498Y6371386D01*
X3333800Y6373571D01*
X3337661Y6374333D01*
X3405632Y6374333D01*
X3411931Y6375044D01*
X3414979Y6376111D01*
X3418789Y6376670D01*
X3422548Y6375755D01*
X3425698Y6373520D01*
X3427780Y6370320D01*
X3428492Y6366510D01*
X3428492Y5952490D01*
X3427780Y5948680D01*
X3425698Y5945479D01*
X3422548Y5943244D01*
X3418789Y5942330D01*
X3414979Y5942888D01*
X3411931Y5943955D01*
X3405632Y5944666D01*
X3289300Y5944666D01*
X3289300Y5821070D01*
X3418332Y5821070D01*
X3422243Y5820308D01*
X3425494Y5818124D01*
X3427729Y5814822D01*
X3428492Y5810910D01*
X3428492Y5805830D01*
X3427729Y5801969D01*
X3425494Y5798667D01*
X3422243Y5796432D01*
X3418332Y5795670D01*
X3289300Y5795670D01*
X3289300Y5672074D01*
X3405632Y5672074D01*
X3411931Y5672785D01*
X3414979Y5673852D01*
X3418789Y5674410D01*
X3422548Y5673547D01*
X3425698Y5671312D01*
X3427780Y5668060D01*
X3428492Y5664250D01*
X3428492Y3728974D01*
X3427933Y3725570D01*
X3426256Y3722573D01*
X3419957Y3714851D01*
X3415284Y3706418D01*
X3412083Y3697325D01*
X3410458Y3687826D01*
X3410458Y3678174D01*
X3412083Y3668674D01*
X3415284Y3659581D01*
X3419957Y3651148D01*
X3426561Y3642969D01*
X3429000Y3638346D01*
X3431489Y3630168D01*
X3435045Y3623462D01*
X3439820Y3617620D01*
X3445662Y3612845D01*
X3452368Y3609289D01*
X3459581Y3607104D01*
X3471468Y3605733D01*
X3475177Y3603345D01*
X3477514Y3599586D01*
X3478784Y3596081D01*
X3483457Y3587648D01*
X3489553Y3580129D01*
X3496767Y3573779D01*
X3504996Y3568700D01*
X3513937Y3565144D01*
X3523386Y3563112D01*
X3527704Y3562908D01*
X3531463Y3561994D01*
X3534613Y3559759D01*
X3536696Y3556558D01*
X3539083Y3541674D01*
X3542284Y3532581D01*
X3546957Y3524148D01*
X3553053Y3516629D01*
X3560267Y3510279D01*
X3568496Y3505200D01*
X3577437Y3501644D01*
X3586886Y3499612D01*
X3596538Y3499154D01*
X3606088Y3500424D01*
X3615283Y3503218D01*
X3616960Y3504082D01*
X3620922Y3505149D01*
X3624986Y3504539D01*
X3628491Y3502406D01*
X3630879Y3499002D01*
X3631692Y3494989D01*
X3631692Y798068D01*
X3630929Y794156D01*
X3628694Y790905D01*
X3625443Y788670D01*
X3621532Y787908D01*
G37*

%LPC*%
G36*
X2192782Y8858808D02*
G01*
X2249525Y8858808D01*
X2255824Y8859520D01*
X2261311Y8861399D01*
X2266188Y8864498D01*
X2270302Y8868613D01*
X2273401Y8873490D01*
X2275281Y8878976D01*
X2275992Y8885275D01*
X2275992Y8932011D01*
X2192782Y8932011D01*
G37*
G36*
X2906369Y1451203D02*
G01*
X2978099Y1451203D01*
X2978099Y1549400D01*
X2879902Y1549400D01*
X2879902Y1477670D01*
X2880614Y1471371D01*
X2882493Y1465884D01*
X2885592Y1461008D01*
X2889707Y1456893D01*
X2894584Y1453794D01*
X2900070Y1451914D01*
G37*
G36*
X971499Y1452016D02*
G01*
X972972Y1452118D01*
X986942Y1454861D01*
X1000404Y1459331D01*
X1013206Y1465478D01*
X1025144Y1473250D01*
X1035964Y1482445D01*
X1045514Y1492961D01*
X1053642Y1504594D01*
X1060196Y1517192D01*
X1065123Y1530553D01*
X1068273Y1544421D01*
X1068730Y1549400D01*
X971499Y1549400D01*
G37*
G36*
X946099Y1452016D02*
G01*
X946099Y1549400D01*
X848868Y1549400D01*
X849325Y1544421D01*
X852474Y1530553D01*
X857402Y1517192D01*
X863955Y1504594D01*
X872083Y1492961D01*
X881634Y1482445D01*
X892454Y1473250D01*
X904392Y1465478D01*
X917194Y1459331D01*
X930656Y1454861D01*
X944626Y1452118D01*
G37*
G36*
X2038299Y1504492D02*
G01*
X2067610Y1505458D01*
X2096770Y1508404D01*
X2125675Y1513281D01*
X2154174Y1520088D01*
X2182164Y1528775D01*
X2209546Y1539290D01*
X2236114Y1551635D01*
X2261819Y1565706D01*
X2286508Y1581505D01*
X2310130Y1598879D01*
X2332482Y1617827D01*
X2353564Y1638198D01*
X2373223Y1659940D01*
X2391410Y1682953D01*
X2407970Y1707083D01*
X2422906Y1732330D01*
X2436164Y1758492D01*
X2447594Y1785467D01*
X2457196Y1813153D01*
X2464968Y1841398D01*
X2470810Y1870151D01*
X2474722Y1899208D01*
X2476652Y1928418D01*
X2476652Y1957730D01*
X2474722Y1986991D01*
X2470810Y2016048D01*
X2464968Y2044801D01*
X2457196Y2073046D01*
X2447594Y2100732D01*
X2436164Y2127707D01*
X2422906Y2153869D01*
X2407970Y2179116D01*
X2391410Y2203246D01*
X2373223Y2226259D01*
X2353564Y2248001D01*
X2332482Y2268372D01*
X2310130Y2287320D01*
X2286508Y2304694D01*
X2261819Y2320493D01*
X2236114Y2334564D01*
X2209546Y2346909D01*
X2182164Y2357424D01*
X2154174Y2366111D01*
X2125675Y2372918D01*
X2096770Y2377795D01*
X2067610Y2380742D01*
X2038299Y2381707D01*
X2008987Y2380742D01*
X1979828Y2377795D01*
X1950923Y2372918D01*
X1922424Y2366111D01*
X1894433Y2357424D01*
X1867052Y2346909D01*
X1840484Y2334564D01*
X1814779Y2320493D01*
X1790090Y2304694D01*
X1766468Y2287320D01*
X1744116Y2268372D01*
X1723034Y2248001D01*
X1703374Y2226259D01*
X1685188Y2203246D01*
X1668627Y2179116D01*
X1653692Y2153869D01*
X1640433Y2127707D01*
X1629003Y2100732D01*
X1619402Y2073046D01*
X1611630Y2044801D01*
X1605788Y2016048D01*
X1601876Y1986991D01*
X1599946Y1957730D01*
X1599946Y1928418D01*
X1601876Y1899208D01*
X1605788Y1870151D01*
X1611630Y1841398D01*
X1619402Y1813153D01*
X1629003Y1785467D01*
X1640433Y1758492D01*
X1653692Y1732330D01*
X1668627Y1707083D01*
X1685188Y1682953D01*
X1703374Y1659940D01*
X1723034Y1638198D01*
X1744116Y1617827D01*
X1766468Y1598879D01*
X1790090Y1581505D01*
X1814779Y1565706D01*
X1840484Y1551635D01*
X1867052Y1539290D01*
X1894433Y1528775D01*
X1922424Y1520088D01*
X1950923Y1513281D01*
X1979828Y1508404D01*
X2008987Y1505458D01*
G37*
G36*
X971499Y1574800D02*
G01*
X1068832Y1574800D01*
X1066901Y1586788D01*
X1062888Y1600403D01*
X1057097Y1613408D01*
X1049731Y1625549D01*
X1040892Y1636674D01*
X1030681Y1646529D01*
X1019302Y1655013D01*
X1006906Y1662023D01*
X993749Y1667357D01*
X979982Y1670964D01*
X971499Y1672031D01*
G37*
G36*
X848766Y1574800D02*
G01*
X946099Y1574800D01*
X946099Y1672031D01*
X937615Y1670964D01*
X923848Y1667357D01*
X910691Y1662023D01*
X898296Y1655013D01*
X886917Y1646529D01*
X876706Y1636674D01*
X867867Y1625549D01*
X860501Y1613408D01*
X854760Y1600403D01*
X850696Y1586788D01*
G37*
G36*
X2879902Y1574800D02*
G01*
X2978099Y1574800D01*
X2978099Y1672996D01*
X2906369Y1672996D01*
X2900070Y1672285D01*
X2894584Y1670405D01*
X2889707Y1667306D01*
X2885592Y1663192D01*
X2882493Y1658315D01*
X2880614Y1652828D01*
X2879902Y1646529D01*
G37*
G36*
X3003499Y1574800D02*
G01*
X3101695Y1574800D01*
X3101695Y1646529D01*
X3100984Y1652828D01*
X3099104Y1658315D01*
X3096006Y1663192D01*
X3091891Y1667306D01*
X3087014Y1670405D01*
X3081528Y1672285D01*
X3075228Y1672996D01*
X3003499Y1672996D01*
G37*
G36*
X958799Y1705203D02*
G01*
X972972Y1706118D01*
X986942Y1708861D01*
X1000404Y1713331D01*
X1013206Y1719478D01*
X1025144Y1727250D01*
X1035964Y1736445D01*
X1045514Y1746961D01*
X1053642Y1758594D01*
X1060196Y1771192D01*
X1065123Y1784553D01*
X1068273Y1798421D01*
X1069644Y1812543D01*
X1069187Y1826768D01*
X1066901Y1840788D01*
X1062888Y1854403D01*
X1057097Y1867407D01*
X1049731Y1879549D01*
X1040892Y1890674D01*
X1030681Y1900529D01*
X1019302Y1909013D01*
X1006906Y1916023D01*
X993749Y1921357D01*
X979982Y1924964D01*
X965911Y1926742D01*
X951687Y1926742D01*
X937615Y1924964D01*
X923848Y1921357D01*
X910691Y1916023D01*
X898296Y1909013D01*
X886917Y1900529D01*
X876706Y1890674D01*
X867867Y1879549D01*
X860501Y1867407D01*
X854760Y1854403D01*
X850696Y1840788D01*
X848410Y1826768D01*
X847953Y1812543D01*
X849325Y1798421D01*
X852474Y1784553D01*
X857402Y1771192D01*
X863955Y1758594D01*
X872083Y1746961D01*
X881634Y1736445D01*
X892454Y1727250D01*
X904392Y1719478D01*
X917194Y1713331D01*
X930656Y1708861D01*
X944626Y1706118D01*
G37*
G36*
X2990799Y1705203D02*
G01*
X3004972Y1706118D01*
X3018942Y1708861D01*
X3032404Y1713331D01*
X3045206Y1719478D01*
X3057144Y1727250D01*
X3067964Y1736445D01*
X3077514Y1746961D01*
X3085642Y1758594D01*
X3092196Y1771192D01*
X3097123Y1784553D01*
X3100273Y1798421D01*
X3101644Y1812543D01*
X3101187Y1826768D01*
X3098901Y1840788D01*
X3095498Y1852269D01*
X3095091Y1855876D01*
X3096006Y1859381D01*
X3098038Y1862328D01*
X3163824Y1928164D01*
X3168954Y1934362D01*
X3172510Y1941068D01*
X3174695Y1948281D01*
X3175508Y1956307D01*
X3175508Y3510279D01*
X3176219Y3514090D01*
X3178352Y3517341D01*
X3181146Y3520287D01*
X3186531Y3528263D01*
X3190544Y3537051D01*
X3192932Y3546398D01*
X3193796Y3556000D01*
X3192932Y3565601D01*
X3190544Y3574948D01*
X3186531Y3583736D01*
X3181146Y3591712D01*
X3174492Y3598672D01*
X3166719Y3604412D01*
X3158083Y3608781D01*
X3148888Y3611575D01*
X3138881Y3612896D01*
X3135579Y3613861D01*
X3132836Y3615944D01*
X3130905Y3618788D01*
X3130042Y3622090D01*
X3129432Y3629101D01*
X3127044Y3638448D01*
X3123031Y3647236D01*
X3117646Y3655212D01*
X3110992Y3662172D01*
X3103219Y3667912D01*
X3094583Y3672281D01*
X3085388Y3675075D01*
X3075838Y3676345D01*
X3066186Y3675887D01*
X3056737Y3673856D01*
X3047796Y3670300D01*
X3039567Y3665220D01*
X3032353Y3658870D01*
X3026257Y3651351D01*
X3021584Y3642918D01*
X3018383Y3633825D01*
X3016758Y3624326D01*
X3016758Y3614674D01*
X3018383Y3605174D01*
X3021584Y3596081D01*
X3026257Y3587648D01*
X3032556Y3579926D01*
X3034233Y3576929D01*
X3034792Y3573526D01*
X3034792Y3337712D01*
X3033928Y3333546D01*
X3031388Y3330143D01*
X3027730Y3328060D01*
X3023514Y3327603D01*
X3021939Y3327806D01*
X2950210Y3327806D01*
X2950210Y3229610D01*
X3024632Y3229610D01*
X3028543Y3228797D01*
X3031794Y3226612D01*
X3034030Y3223310D01*
X3034792Y3219450D01*
X3034792Y3214370D01*
X3034030Y3210458D01*
X3031794Y3207156D01*
X3028543Y3204972D01*
X3024632Y3204210D01*
X2950210Y3204210D01*
X2950210Y3105962D01*
X3021939Y3105962D01*
X3023514Y3106166D01*
X3027730Y3105759D01*
X3031388Y3103626D01*
X3033928Y3100222D01*
X3034792Y3096056D01*
X3034792Y2440127D01*
X3034131Y2436520D01*
X3032201Y2433370D01*
X3029254Y2431084D01*
X3025749Y2430018D01*
X3022041Y2430322D01*
X3011982Y2432964D01*
X2997911Y2434742D01*
X2983687Y2434742D01*
X2969615Y2432964D01*
X2955848Y2429357D01*
X2942691Y2424023D01*
X2930296Y2417013D01*
X2918917Y2408529D01*
X2908706Y2398674D01*
X2899867Y2387549D01*
X2892501Y2375408D01*
X2886760Y2362403D01*
X2882696Y2348788D01*
X2880410Y2334768D01*
X2879953Y2320544D01*
X2881325Y2306421D01*
X2884474Y2292553D01*
X2889402Y2279192D01*
X2895955Y2266594D01*
X2904083Y2254961D01*
X2913634Y2244445D01*
X2924454Y2235250D01*
X2936392Y2227478D01*
X2949194Y2221331D01*
X2962656Y2216861D01*
X2976626Y2214118D01*
X2990799Y2213203D01*
X3004972Y2214118D01*
X3018942Y2216861D01*
X3032404Y2221331D01*
X3045206Y2227478D01*
X3057144Y2235250D01*
X3067964Y2244445D01*
X3077514Y2254961D01*
X3079800Y2258263D01*
X3082899Y2261158D01*
X3086963Y2262530D01*
X3091180Y2262124D01*
X3094888Y2260041D01*
X3097377Y2256637D01*
X3098292Y2252472D01*
X3098292Y2141829D01*
X3097428Y2137765D01*
X3095040Y2134362D01*
X3091484Y2132228D01*
X3087370Y2131720D01*
X3083407Y2132838D01*
X3080207Y2135479D01*
X3072892Y2144674D01*
X3062681Y2154529D01*
X3051302Y2163013D01*
X3038906Y2170023D01*
X3025749Y2175357D01*
X3011982Y2178964D01*
X3003499Y2180031D01*
X3003499Y2082800D01*
X3088132Y2082800D01*
X3092043Y2082038D01*
X3095294Y2079802D01*
X3097530Y2076551D01*
X3098292Y2072639D01*
X3098292Y2067560D01*
X3097530Y2063648D01*
X3095294Y2060397D01*
X3092043Y2058162D01*
X3088132Y2057400D01*
X3003499Y2057400D01*
X3003499Y1960016D01*
X3004972Y1960118D01*
X3018942Y1962861D01*
X3032404Y1967331D01*
X3045206Y1973478D01*
X3057144Y1981250D01*
X3067964Y1990445D01*
X3077514Y2000961D01*
X3079800Y2004263D01*
X3082899Y2007158D01*
X3086963Y2008530D01*
X3091180Y2008124D01*
X3094888Y2006041D01*
X3097377Y2002637D01*
X3098292Y1998472D01*
X3098292Y1976018D01*
X3097530Y1972106D01*
X3095294Y1968804D01*
X3046222Y1919732D01*
X3042970Y1917547D01*
X3039110Y1916734D01*
X3035249Y1917496D01*
X3025749Y1921357D01*
X3011982Y1924964D01*
X2997911Y1926742D01*
X2983687Y1926742D01*
X2969615Y1924964D01*
X2955848Y1921357D01*
X2942691Y1916023D01*
X2930296Y1909013D01*
X2918917Y1900529D01*
X2908706Y1890674D01*
X2899867Y1879549D01*
X2892501Y1867407D01*
X2886760Y1854403D01*
X2882696Y1840788D01*
X2880410Y1826768D01*
X2879953Y1812543D01*
X2881325Y1798421D01*
X2884474Y1784553D01*
X2889402Y1771192D01*
X2895955Y1758594D01*
X2904083Y1746961D01*
X2913634Y1736445D01*
X2924454Y1727250D01*
X2936392Y1719478D01*
X2949194Y1713331D01*
X2962656Y1708861D01*
X2976626Y1706118D01*
G37*
G36*
X1297838Y1759254D02*
G01*
X1307388Y1760524D01*
X1316583Y1763318D01*
X1325219Y1767687D01*
X1332992Y1773428D01*
X1339646Y1780387D01*
X1345031Y1788363D01*
X1349044Y1797151D01*
X1351432Y1806498D01*
X1352296Y1816100D01*
X1351432Y1825701D01*
X1349044Y1835048D01*
X1345031Y1843836D01*
X1339646Y1851812D01*
X1336852Y1854758D01*
X1334719Y1858010D01*
X1334008Y1861820D01*
X1334008Y2526741D01*
X1334922Y2530957D01*
X1337462Y2534361D01*
X1341170Y2536494D01*
X1345438Y2536850D01*
X1349502Y2535428D01*
X1352600Y2532430D01*
X1354175Y2528468D01*
X1354683Y2525674D01*
X1357884Y2516581D01*
X1362557Y2508148D01*
X1368653Y2500630D01*
X1375867Y2494280D01*
X1384096Y2489200D01*
X1393037Y2485644D01*
X1402486Y2483612D01*
X1412138Y2483154D01*
X1421688Y2484424D01*
X1430883Y2487218D01*
X1439519Y2491587D01*
X1447292Y2497328D01*
X1453946Y2504287D01*
X1459331Y2512263D01*
X1463344Y2521051D01*
X1465732Y2530398D01*
X1466596Y2540000D01*
X1465732Y2549601D01*
X1463344Y2558948D01*
X1459331Y2567736D01*
X1453946Y2575712D01*
X1451152Y2578658D01*
X1449019Y2581910D01*
X1448308Y2585720D01*
X1448308Y2681020D01*
X1448968Y2684627D01*
X1450898Y2687777D01*
X1453794Y2690063D01*
X1458671Y2691231D01*
X1464106Y2693162D01*
X1469034Y2696260D01*
X1473098Y2700324D01*
X1476197Y2705252D01*
X1478076Y2710688D01*
X1478788Y2717038D01*
X1478788Y2796540D01*
X1478076Y2802839D01*
X1476197Y2808325D01*
X1473098Y2813202D01*
X1469034Y2817317D01*
X1464106Y2820365D01*
X1458061Y2822498D01*
X1454505Y2824632D01*
X1452067Y2828036D01*
X1451254Y2832100D01*
X1452067Y2836164D01*
X1454505Y2839567D01*
X1458061Y2841701D01*
X1464106Y2843834D01*
X1469034Y2846882D01*
X1473098Y2850997D01*
X1476197Y2855874D01*
X1478076Y2861360D01*
X1478788Y2867660D01*
X1478788Y2947162D01*
X1478076Y2953512D01*
X1476197Y2958947D01*
X1473098Y2963875D01*
X1469034Y2967939D01*
X1464106Y2971038D01*
X1458671Y2972968D01*
X1453794Y2974136D01*
X1450898Y2976422D01*
X1448968Y2979572D01*
X1448308Y2983179D01*
X1448308Y3104692D01*
X1449120Y3108706D01*
X1451457Y3112058D01*
X1454962Y3114243D01*
X1458366Y3115513D01*
X1470964Y3122066D01*
X1482648Y3130194D01*
X1493164Y3139744D01*
X1502359Y3150565D01*
X1510131Y3162503D01*
X1516278Y3175304D01*
X1520748Y3188766D01*
X1523492Y3202736D01*
X1524406Y3216910D01*
X1523492Y3231083D01*
X1520748Y3245002D01*
X1516278Y3258515D01*
X1510131Y3271316D01*
X1502359Y3283204D01*
X1493164Y3294024D01*
X1482648Y3303574D01*
X1470964Y3311702D01*
X1458366Y3318306D01*
X1454962Y3319526D01*
X1451457Y3321710D01*
X1449120Y3325063D01*
X1448308Y3329076D01*
X1448308Y3776979D01*
X1449019Y3780790D01*
X1451152Y3784041D01*
X1453946Y3786987D01*
X1459331Y3794963D01*
X1463344Y3803751D01*
X1465732Y3813098D01*
X1466596Y3822700D01*
X1465732Y3832301D01*
X1463344Y3841648D01*
X1459331Y3850436D01*
X1453946Y3858412D01*
X1447292Y3865372D01*
X1439519Y3871112D01*
X1430883Y3875481D01*
X1421688Y3878275D01*
X1412138Y3879545D01*
X1402486Y3879087D01*
X1393037Y3877056D01*
X1384096Y3873500D01*
X1375867Y3868420D01*
X1368653Y3862070D01*
X1362557Y3854551D01*
X1357884Y3846118D01*
X1354683Y3837025D01*
X1353058Y3827526D01*
X1353058Y3817874D01*
X1354683Y3808374D01*
X1357884Y3799281D01*
X1362557Y3790848D01*
X1368856Y3783126D01*
X1370533Y3780129D01*
X1371092Y3776726D01*
X1371092Y3696512D01*
X1370228Y3692448D01*
X1367840Y3689045D01*
X1364234Y3686911D01*
X1360119Y3686403D01*
X1356156Y3687572D01*
X1352956Y3690264D01*
X1351076Y3693972D01*
X1349044Y3701948D01*
X1345031Y3710736D01*
X1339646Y3718712D01*
X1332992Y3725672D01*
X1325219Y3731412D01*
X1316583Y3735781D01*
X1307388Y3738575D01*
X1297838Y3739845D01*
X1288186Y3739387D01*
X1278737Y3737356D01*
X1269796Y3733800D01*
X1261567Y3728720D01*
X1254353Y3722370D01*
X1248257Y3714851D01*
X1243584Y3706418D01*
X1240383Y3697325D01*
X1238758Y3687826D01*
X1238758Y3678174D01*
X1240383Y3668674D01*
X1243584Y3659581D01*
X1248257Y3651148D01*
X1254556Y3643426D01*
X1256233Y3640429D01*
X1256792Y3637026D01*
X1256792Y3300933D01*
X1256030Y3297123D01*
X1253947Y3293872D01*
X1250746Y3291636D01*
X1246936Y3290773D01*
X1243126Y3291382D01*
X1239774Y3293414D01*
X1228598Y3303574D01*
X1216964Y3311702D01*
X1204366Y3318306D01*
X1191056Y3323183D01*
X1177188Y3326384D01*
X1172210Y3326841D01*
X1172210Y3229610D01*
X1246632Y3229610D01*
X1250543Y3228797D01*
X1253794Y3226612D01*
X1256030Y3223310D01*
X1256792Y3219450D01*
X1256792Y3214370D01*
X1256030Y3210458D01*
X1253794Y3207156D01*
X1250543Y3204972D01*
X1246632Y3204210D01*
X1172210Y3204210D01*
X1172210Y3106928D01*
X1177188Y3107436D01*
X1191056Y3110585D01*
X1204366Y3115513D01*
X1216964Y3122066D01*
X1228598Y3130194D01*
X1239774Y3140354D01*
X1243126Y3142386D01*
X1246936Y3143046D01*
X1250746Y3142183D01*
X1253947Y3139948D01*
X1256030Y3136696D01*
X1256792Y3132886D01*
X1256792Y1862074D01*
X1256233Y1858670D01*
X1254556Y1855673D01*
X1248257Y1847951D01*
X1243584Y1839518D01*
X1240383Y1830425D01*
X1238758Y1820925D01*
X1238758Y1811274D01*
X1240383Y1801774D01*
X1243584Y1792681D01*
X1248257Y1784248D01*
X1254353Y1776730D01*
X1261567Y1770380D01*
X1269796Y1765300D01*
X1278737Y1761743D01*
X1288186Y1759712D01*
G37*
G36*
X2911500Y11612118D02*
G01*
X2973222Y11612118D01*
X2973222Y11725351D01*
X2884982Y11725351D01*
X2884982Y11638635D01*
X2885694Y11632285D01*
X2887624Y11626850D01*
X2890723Y11621922D01*
X2894787Y11617858D01*
X2899714Y11614759D01*
X2905150Y11612829D01*
G37*
G36*
X946099Y1960016D02*
G01*
X946099Y2057400D01*
X848868Y2057400D01*
X849325Y2052421D01*
X852474Y2038553D01*
X857402Y2025192D01*
X863955Y2012594D01*
X872083Y2000961D01*
X881634Y1990445D01*
X892454Y1981250D01*
X904392Y1973478D01*
X917194Y1967331D01*
X930656Y1962861D01*
X944626Y1960118D01*
G37*
G36*
X2978099Y1960016D02*
G01*
X2978099Y2057400D01*
X2880868Y2057400D01*
X2881325Y2052421D01*
X2884474Y2038553D01*
X2889402Y2025192D01*
X2895955Y2012594D01*
X2904083Y2000961D01*
X2913634Y1990445D01*
X2924454Y1981250D01*
X2936392Y1973478D01*
X2949194Y1967331D01*
X2962656Y1962861D01*
X2976626Y1960118D01*
G37*
G36*
X971499Y1960016D02*
G01*
X972972Y1960118D01*
X986942Y1962861D01*
X1000404Y1967331D01*
X1013206Y1973478D01*
X1025144Y1981250D01*
X1035964Y1990445D01*
X1045514Y2000961D01*
X1053642Y2012594D01*
X1060196Y2025192D01*
X1065123Y2038553D01*
X1068273Y2052421D01*
X1068730Y2057400D01*
X971499Y2057400D01*
G37*
G36*
X1641500Y11612118D02*
G01*
X1703222Y11612118D01*
X1703222Y11725351D01*
X1614982Y11725351D01*
X1614982Y11638635D01*
X1615694Y11632285D01*
X1617624Y11626850D01*
X1620723Y11621922D01*
X1624787Y11617858D01*
X1629714Y11614759D01*
X1635150Y11612829D01*
G37*
G36*
X848766Y2082800D02*
G01*
X946099Y2082800D01*
X946099Y2180031D01*
X937615Y2178964D01*
X923848Y2175357D01*
X910691Y2170023D01*
X898296Y2163013D01*
X886917Y2154529D01*
X876706Y2144674D01*
X867867Y2133549D01*
X860501Y2121408D01*
X854760Y2108403D01*
X850696Y2094788D01*
G37*
G36*
X971499Y2082800D02*
G01*
X1068832Y2082800D01*
X1066901Y2094788D01*
X1062888Y2108403D01*
X1057097Y2121408D01*
X1049731Y2133549D01*
X1040892Y2144674D01*
X1030681Y2154529D01*
X1019302Y2163013D01*
X1006906Y2170023D01*
X993749Y2175357D01*
X979982Y2178964D01*
X971499Y2180031D01*
G37*
G36*
X2880766Y2082800D02*
G01*
X2978099Y2082800D01*
X2978099Y2180031D01*
X2969615Y2178964D01*
X2955848Y2175357D01*
X2942691Y2170023D01*
X2930296Y2163013D01*
X2918917Y2154529D01*
X2908706Y2144674D01*
X2899867Y2133549D01*
X2892501Y2121408D01*
X2886760Y2108403D01*
X2882696Y2094788D01*
G37*
G36*
X2538577Y11612118D02*
G01*
X2600299Y11612118D01*
X2606649Y11612829D01*
X2612085Y11614759D01*
X2617012Y11617858D01*
X2621076Y11621922D01*
X2624175Y11626850D01*
X2626106Y11632285D01*
X2626817Y11638635D01*
X2626817Y11725351D01*
X2538577Y11725351D01*
G37*
G36*
X1728622Y11612118D02*
G01*
X1790344Y11612118D01*
X1796643Y11612829D01*
X1802130Y11614759D01*
X1807006Y11617858D01*
X1811121Y11621922D01*
X1814169Y11626850D01*
X1816100Y11632285D01*
X1816811Y11638635D01*
X1816811Y11725351D01*
X1728622Y11725351D01*
G37*
G36*
X971499Y2214016D02*
G01*
X972972Y2214118D01*
X986942Y2216861D01*
X1000404Y2221331D01*
X1013206Y2227478D01*
X1025144Y2235250D01*
X1035964Y2244445D01*
X1045514Y2254961D01*
X1053642Y2266594D01*
X1060196Y2279192D01*
X1065123Y2292553D01*
X1068273Y2306421D01*
X1068730Y2311400D01*
X971499Y2311400D01*
G37*
G36*
X946099Y2214016D02*
G01*
X946099Y2311400D01*
X848868Y2311400D01*
X849325Y2306421D01*
X852474Y2292553D01*
X857402Y2279192D01*
X863955Y2266594D01*
X872083Y2254961D01*
X881634Y2244445D01*
X892454Y2235250D01*
X904392Y2227478D01*
X917194Y2221331D01*
X930656Y2216861D01*
X944626Y2214118D01*
G37*
G36*
X848766Y2336800D02*
G01*
X946099Y2336800D01*
X946099Y2434031D01*
X937615Y2432964D01*
X923848Y2429357D01*
X910691Y2424023D01*
X898296Y2417013D01*
X886917Y2408529D01*
X876706Y2398674D01*
X867867Y2387549D01*
X860501Y2375408D01*
X854760Y2362403D01*
X850696Y2348788D01*
G37*
G36*
X971499Y2336800D02*
G01*
X1068832Y2336800D01*
X1066901Y2348788D01*
X1062888Y2362403D01*
X1057097Y2375408D01*
X1049731Y2387549D01*
X1040892Y2398674D01*
X1030681Y2408529D01*
X1019302Y2417013D01*
X1006906Y2424023D01*
X993749Y2429357D01*
X979982Y2432964D01*
X971499Y2434031D01*
G37*
G36*
X2451455Y11612118D02*
G01*
X2513177Y11612118D01*
X2513177Y11725351D01*
X2424988Y11725351D01*
X2424988Y11638635D01*
X2425700Y11632285D01*
X2427579Y11626850D01*
X2430678Y11621922D01*
X2434793Y11617858D01*
X2439670Y11614759D01*
X2445156Y11612829D01*
G37*
G36*
X1666138Y2483154D02*
G01*
X1675688Y2484424D01*
X1684883Y2487218D01*
X1693519Y2491587D01*
X1701292Y2497328D01*
X1707946Y2504287D01*
X1713331Y2512263D01*
X1717344Y2521051D01*
X1719732Y2530398D01*
X1720596Y2540000D01*
X1719732Y2549601D01*
X1717344Y2558948D01*
X1713331Y2567736D01*
X1707946Y2575712D01*
X1705152Y2578658D01*
X1703019Y2581910D01*
X1702307Y2585720D01*
X1702307Y2681020D01*
X1702968Y2684627D01*
X1704898Y2687777D01*
X1707794Y2690063D01*
X1712671Y2691231D01*
X1718106Y2693162D01*
X1723034Y2696260D01*
X1727098Y2700324D01*
X1730197Y2705252D01*
X1732076Y2710688D01*
X1732788Y2717038D01*
X1732788Y2796540D01*
X1732076Y2802839D01*
X1730197Y2808325D01*
X1727098Y2813202D01*
X1723034Y2817317D01*
X1718106Y2820365D01*
X1712061Y2822498D01*
X1708505Y2824632D01*
X1706067Y2828036D01*
X1705254Y2832100D01*
X1706067Y2836164D01*
X1708505Y2839567D01*
X1712061Y2841701D01*
X1718106Y2843834D01*
X1723034Y2846882D01*
X1727098Y2850997D01*
X1730197Y2855874D01*
X1732076Y2861360D01*
X1732788Y2867660D01*
X1732788Y2947162D01*
X1732076Y2953512D01*
X1730197Y2958947D01*
X1727098Y2963875D01*
X1723034Y2967939D01*
X1718106Y2971038D01*
X1712671Y2972968D01*
X1707794Y2974136D01*
X1704898Y2976422D01*
X1702968Y2979572D01*
X1702307Y2983179D01*
X1702307Y3104692D01*
X1703120Y3108706D01*
X1705457Y3112058D01*
X1708962Y3114243D01*
X1712366Y3115513D01*
X1724964Y3122066D01*
X1736648Y3130194D01*
X1747164Y3139744D01*
X1756359Y3150565D01*
X1764131Y3162503D01*
X1770278Y3175304D01*
X1774748Y3188766D01*
X1777492Y3202736D01*
X1778406Y3216910D01*
X1777492Y3231083D01*
X1774748Y3245002D01*
X1770278Y3258515D01*
X1764131Y3271316D01*
X1756359Y3283204D01*
X1747164Y3294024D01*
X1736648Y3303574D01*
X1724964Y3311702D01*
X1712366Y3318306D01*
X1708962Y3319526D01*
X1705457Y3321710D01*
X1703120Y3325063D01*
X1702307Y3329076D01*
X1702307Y3840479D01*
X1703019Y3844290D01*
X1705152Y3847541D01*
X1707946Y3850487D01*
X1713331Y3858463D01*
X1717344Y3867251D01*
X1719732Y3876598D01*
X1720596Y3886200D01*
X1719732Y3895801D01*
X1717344Y3905148D01*
X1713331Y3913936D01*
X1707946Y3921912D01*
X1701292Y3928872D01*
X1693519Y3934612D01*
X1684883Y3938981D01*
X1675688Y3941775D01*
X1666138Y3943045D01*
X1656486Y3942587D01*
X1647037Y3940556D01*
X1638096Y3937000D01*
X1629867Y3931920D01*
X1622653Y3925570D01*
X1616557Y3918051D01*
X1611884Y3909618D01*
X1608683Y3900525D01*
X1607058Y3891026D01*
X1607058Y3881374D01*
X1608683Y3871874D01*
X1611884Y3862781D01*
X1616557Y3854348D01*
X1622856Y3846626D01*
X1624533Y3843629D01*
X1625092Y3840226D01*
X1625092Y3325774D01*
X1624330Y3321964D01*
X1622247Y3318662D01*
X1619046Y3316478D01*
X1616202Y3315208D01*
X1604060Y3307842D01*
X1592935Y3299002D01*
X1583080Y3288792D01*
X1574546Y3277362D01*
X1567586Y3265017D01*
X1562252Y3251860D01*
X1558645Y3238093D01*
X1556816Y3224022D01*
X1556816Y3209798D01*
X1558645Y3195675D01*
X1562252Y3181959D01*
X1567586Y3168802D01*
X1574546Y3156407D01*
X1583080Y3145028D01*
X1592935Y3134817D01*
X1604060Y3125927D01*
X1616202Y3118561D01*
X1619046Y3117342D01*
X1622247Y3115106D01*
X1624330Y3111855D01*
X1625092Y3108045D01*
X1625092Y2983179D01*
X1624431Y2979572D01*
X1622501Y2976422D01*
X1619605Y2974136D01*
X1614728Y2972968D01*
X1609293Y2971038D01*
X1604365Y2967939D01*
X1600301Y2963875D01*
X1597202Y2958947D01*
X1595323Y2953512D01*
X1594612Y2947162D01*
X1594612Y2867660D01*
X1595323Y2861360D01*
X1597202Y2855874D01*
X1600301Y2850997D01*
X1604365Y2846882D01*
X1609293Y2843834D01*
X1615338Y2841701D01*
X1618894Y2839567D01*
X1621332Y2836164D01*
X1622145Y2832100D01*
X1621332Y2828036D01*
X1618894Y2824632D01*
X1615338Y2822498D01*
X1609293Y2820365D01*
X1604365Y2817317D01*
X1600301Y2813202D01*
X1597202Y2808325D01*
X1595323Y2802839D01*
X1594612Y2796540D01*
X1594612Y2717038D01*
X1595323Y2710688D01*
X1597202Y2705252D01*
X1600301Y2700324D01*
X1604365Y2696260D01*
X1609293Y2693162D01*
X1614728Y2691231D01*
X1619605Y2690063D01*
X1622501Y2687777D01*
X1624431Y2684627D01*
X1625092Y2681020D01*
X1625092Y2585974D01*
X1624533Y2582570D01*
X1622856Y2579573D01*
X1616557Y2571851D01*
X1611884Y2563418D01*
X1608683Y2554325D01*
X1607058Y2544826D01*
X1607058Y2535174D01*
X1608683Y2525674D01*
X1611884Y2516581D01*
X1616557Y2508148D01*
X1622653Y2500630D01*
X1629867Y2494280D01*
X1638096Y2489200D01*
X1647037Y2485644D01*
X1656486Y2483612D01*
G37*
G36*
X1181455Y11612118D02*
G01*
X1243177Y11612118D01*
X1243177Y11725351D01*
X1154988Y11725351D01*
X1154988Y11638635D01*
X1155700Y11632285D01*
X1157579Y11626850D01*
X1160678Y11621922D01*
X1164793Y11617858D01*
X1169670Y11614759D01*
X1175156Y11612829D01*
G37*
G36*
X2682138Y2483154D02*
G01*
X2691688Y2484424D01*
X2700883Y2487218D01*
X2709519Y2491587D01*
X2717292Y2497328D01*
X2723946Y2504287D01*
X2729331Y2512263D01*
X2733344Y2521051D01*
X2735732Y2530398D01*
X2736596Y2540000D01*
X2735732Y2549601D01*
X2733344Y2558948D01*
X2729331Y2567736D01*
X2723946Y2575712D01*
X2721152Y2578658D01*
X2719019Y2581910D01*
X2718308Y2585720D01*
X2718308Y3104692D01*
X2719120Y3108706D01*
X2721457Y3112058D01*
X2724962Y3114243D01*
X2728366Y3115513D01*
X2740964Y3122066D01*
X2752648Y3130194D01*
X2763164Y3139744D01*
X2772359Y3150565D01*
X2780131Y3162503D01*
X2786278Y3175304D01*
X2790748Y3188766D01*
X2793492Y3202736D01*
X2794406Y3216910D01*
X2793492Y3231083D01*
X2790748Y3245002D01*
X2786278Y3258515D01*
X2780131Y3271316D01*
X2772359Y3283204D01*
X2763164Y3294024D01*
X2752648Y3303574D01*
X2736951Y3314547D01*
X2735072Y3317697D01*
X2734411Y3321304D01*
X2734411Y3864711D01*
X2735173Y3868572D01*
X2737358Y3871874D01*
X3007664Y4142130D01*
X3010814Y4145584D01*
X3013506Y4149090D01*
X3015894Y4152849D01*
X3017926Y4156811D01*
X3019653Y4160875D01*
X3020974Y4165142D01*
X3021939Y4169460D01*
X3022498Y4173880D01*
X3022701Y4178503D01*
X3022701Y6195872D01*
X3023616Y6200038D01*
X3025444Y6204051D01*
X3027832Y6213398D01*
X3028696Y6223000D01*
X3027832Y6232601D01*
X3025444Y6241948D01*
X3021431Y6250736D01*
X3016046Y6258712D01*
X3009392Y6265672D01*
X3001619Y6271412D01*
X2992983Y6275781D01*
X2983788Y6278575D01*
X2974238Y6279845D01*
X2964586Y6279388D01*
X2955137Y6277356D01*
X2946196Y6273800D01*
X2937967Y6268720D01*
X2930753Y6262370D01*
X2924657Y6254851D01*
X2919984Y6246418D01*
X2916783Y6237325D01*
X2915158Y6227826D01*
X2915158Y6218174D01*
X2916783Y6208674D01*
X2920288Y6198666D01*
X2920898Y6195314D01*
X2920898Y4203598D01*
X2920136Y4199686D01*
X2917901Y4196435D01*
X2647645Y3926128D01*
X2644495Y3922725D01*
X2641803Y3919169D01*
X2639415Y3915460D01*
X2637383Y3911498D01*
X2635656Y3907383D01*
X2634335Y3903167D01*
X2633370Y3898849D01*
X2632811Y3894429D01*
X2632608Y3889756D01*
X2632608Y3321151D01*
X2631998Y3317748D01*
X2630322Y3314750D01*
X2627680Y3312464D01*
X2620060Y3307842D01*
X2608935Y3299002D01*
X2599080Y3288792D01*
X2590546Y3277362D01*
X2583586Y3265017D01*
X2578252Y3251860D01*
X2574645Y3238093D01*
X2572816Y3224022D01*
X2572816Y3209798D01*
X2574645Y3195675D01*
X2578252Y3181959D01*
X2583586Y3168802D01*
X2590546Y3156407D01*
X2599080Y3145028D01*
X2608935Y3134817D01*
X2620060Y3125927D01*
X2632202Y3118561D01*
X2635046Y3117342D01*
X2638247Y3115106D01*
X2640330Y3111855D01*
X2641092Y3108045D01*
X2641092Y2585974D01*
X2640533Y2582570D01*
X2638856Y2579573D01*
X2632557Y2571851D01*
X2627884Y2563418D01*
X2624683Y2554325D01*
X2623058Y2544826D01*
X2623058Y2535174D01*
X2624683Y2525674D01*
X2627884Y2516581D01*
X2632557Y2508148D01*
X2638653Y2500630D01*
X2645867Y2494280D01*
X2654096Y2489200D01*
X2663037Y2485644D01*
X2672486Y2483612D01*
G37*
G36*
X691388Y3090976D02*
G01*
X706577Y3091891D01*
X721512Y3094634D01*
X736041Y3099155D01*
X749909Y3105404D01*
X762914Y3113278D01*
X774852Y3122676D01*
X785622Y3133394D01*
X794969Y3145383D01*
X802843Y3158388D01*
X809091Y3172256D01*
X813612Y3186734D01*
X816356Y3201720D01*
X817270Y3216859D01*
X816356Y3232048D01*
X813612Y3247034D01*
X809091Y3261512D01*
X802843Y3275380D01*
X794969Y3288385D01*
X785622Y3300374D01*
X774852Y3311093D01*
X762914Y3320491D01*
X749909Y3328365D01*
X736041Y3334613D01*
X721512Y3339134D01*
X706577Y3341878D01*
X691388Y3342792D01*
X676198Y3341878D01*
X661263Y3339134D01*
X646734Y3334613D01*
X632866Y3328365D01*
X619861Y3320491D01*
X607923Y3311093D01*
X597154Y3300374D01*
X587806Y3288385D01*
X579932Y3275380D01*
X573684Y3261512D01*
X569163Y3247034D01*
X566420Y3232048D01*
X565505Y3216859D01*
X566420Y3201720D01*
X569163Y3186734D01*
X573684Y3172256D01*
X579932Y3158388D01*
X587806Y3145383D01*
X597154Y3133394D01*
X607923Y3122676D01*
X619861Y3113278D01*
X632866Y3105404D01*
X646734Y3099155D01*
X661263Y3094634D01*
X676198Y3091891D01*
G37*
G36*
X3406394Y3091027D02*
G01*
X3421583Y3091942D01*
X3436518Y3094685D01*
X3451047Y3099206D01*
X3464915Y3105404D01*
X3477920Y3113278D01*
X3489858Y3122676D01*
X3500628Y3133394D01*
X3509975Y3145383D01*
X3517849Y3158388D01*
X3524097Y3172256D01*
X3528618Y3186785D01*
X3531362Y3201720D01*
X3532276Y3216910D01*
X3531362Y3232048D01*
X3528618Y3247034D01*
X3524097Y3261512D01*
X3517849Y3275380D01*
X3509975Y3288385D01*
X3500628Y3300374D01*
X3489858Y3311144D01*
X3477920Y3320491D01*
X3464915Y3328365D01*
X3451047Y3334613D01*
X3436518Y3339134D01*
X3421583Y3341878D01*
X3406394Y3342792D01*
X3391204Y3341878D01*
X3376269Y3339134D01*
X3361740Y3334613D01*
X3347872Y3328365D01*
X3334867Y3320491D01*
X3322929Y3311144D01*
X3312160Y3300374D01*
X3302812Y3288385D01*
X3294938Y3275380D01*
X3288690Y3261512D01*
X3284169Y3247034D01*
X3281426Y3232048D01*
X3280511Y3216910D01*
X3281426Y3201720D01*
X3284169Y3186785D01*
X3288690Y3172256D01*
X3294938Y3158388D01*
X3302812Y3145383D01*
X3312160Y3133394D01*
X3322929Y3122676D01*
X3334867Y3113278D01*
X3347872Y3105404D01*
X3361740Y3099206D01*
X3376269Y3094685D01*
X3391204Y3091942D01*
G37*
G36*
X2853080Y3105962D02*
G01*
X2924810Y3105962D01*
X2924810Y3204210D01*
X2826562Y3204210D01*
X2826562Y3132480D01*
X2827274Y3126130D01*
X2829204Y3120694D01*
X2832303Y3115767D01*
X2836367Y3111703D01*
X2841294Y3108604D01*
X2846730Y3106674D01*
G37*
G36*
X1268577Y11612118D02*
G01*
X1330299Y11612118D01*
X1336649Y11612829D01*
X1342085Y11614759D01*
X1347012Y11617858D01*
X1351076Y11621922D01*
X1354175Y11626850D01*
X1356106Y11632285D01*
X1356817Y11638635D01*
X1356817Y11725351D01*
X1268577Y11725351D01*
G37*
G36*
X2179066Y3106064D02*
G01*
X2193188Y3107436D01*
X2207056Y3110585D01*
X2220366Y3115513D01*
X2232964Y3122066D01*
X2244648Y3130194D01*
X2255164Y3139744D01*
X2264359Y3150565D01*
X2272131Y3162503D01*
X2278278Y3175304D01*
X2282748Y3188766D01*
X2285492Y3202736D01*
X2286406Y3216910D01*
X2285492Y3231083D01*
X2282748Y3245002D01*
X2278278Y3258515D01*
X2272131Y3271316D01*
X2264359Y3283204D01*
X2255164Y3294024D01*
X2244648Y3303574D01*
X2232964Y3311702D01*
X2220366Y3318306D01*
X2207056Y3323183D01*
X2193188Y3326384D01*
X2179066Y3327704D01*
X2164842Y3327247D01*
X2150821Y3325012D01*
X2137206Y3320948D01*
X2124202Y3315208D01*
X2112060Y3307842D01*
X2100935Y3299002D01*
X2091080Y3288792D01*
X2082546Y3277362D01*
X2075586Y3265017D01*
X2070252Y3251860D01*
X2066645Y3238093D01*
X2064816Y3224022D01*
X2064816Y3209798D01*
X2066645Y3195675D01*
X2070252Y3181959D01*
X2075586Y3168802D01*
X2082546Y3156407D01*
X2091080Y3145028D01*
X2100935Y3134817D01*
X2112060Y3125927D01*
X2124202Y3118561D01*
X2137206Y3112820D01*
X2150821Y3108807D01*
X2164842Y3106521D01*
G37*
G36*
X1925066Y3106064D02*
G01*
X1939188Y3107436D01*
X1953056Y3110585D01*
X1966366Y3115513D01*
X1978964Y3122066D01*
X1990648Y3130194D01*
X2001164Y3139744D01*
X2010359Y3150565D01*
X2018131Y3162503D01*
X2024278Y3175304D01*
X2028748Y3188766D01*
X2031492Y3202736D01*
X2032406Y3216910D01*
X2031492Y3231083D01*
X2028748Y3245002D01*
X2024278Y3258515D01*
X2018131Y3271316D01*
X2010359Y3283204D01*
X2001164Y3294024D01*
X1990648Y3303574D01*
X1978964Y3311702D01*
X1966366Y3318306D01*
X1953056Y3323183D01*
X1939188Y3326384D01*
X1925066Y3327704D01*
X1910842Y3327247D01*
X1896821Y3325012D01*
X1883206Y3320948D01*
X1870202Y3315208D01*
X1858060Y3307842D01*
X1846935Y3299002D01*
X1837080Y3288792D01*
X1828546Y3277362D01*
X1821586Y3265017D01*
X1816252Y3251860D01*
X1812645Y3238093D01*
X1810816Y3224022D01*
X1810816Y3209798D01*
X1812645Y3195675D01*
X1816252Y3181959D01*
X1821586Y3168802D01*
X1828546Y3156407D01*
X1837080Y3145028D01*
X1846935Y3134817D01*
X1858060Y3125927D01*
X1870202Y3118561D01*
X1883206Y3112820D01*
X1896821Y3108807D01*
X1910842Y3106521D01*
G37*
G36*
X2433066Y3106064D02*
G01*
X2447188Y3107436D01*
X2461056Y3110585D01*
X2474366Y3115513D01*
X2486964Y3122066D01*
X2498648Y3130194D01*
X2509164Y3139744D01*
X2518359Y3150565D01*
X2526131Y3162503D01*
X2532278Y3175304D01*
X2536748Y3188766D01*
X2539492Y3202736D01*
X2540406Y3216910D01*
X2539492Y3231083D01*
X2536748Y3245002D01*
X2532278Y3258515D01*
X2526131Y3271316D01*
X2518359Y3283204D01*
X2509164Y3294024D01*
X2498648Y3303574D01*
X2486964Y3311702D01*
X2482088Y3314293D01*
X2479192Y3316528D01*
X2477262Y3319678D01*
X2476601Y3323285D01*
X2476601Y3937355D01*
X2477363Y3941267D01*
X2479598Y3944569D01*
X2482900Y3946753D01*
X2486761Y3947515D01*
X2600096Y3947515D01*
X2606395Y3948226D01*
X2611882Y3950157D01*
X2616758Y3953205D01*
X2620873Y3957320D01*
X2623921Y3962196D01*
X2625852Y3967683D01*
X2626563Y3973982D01*
X2626563Y4113529D01*
X2625852Y4119829D01*
X2623921Y4125315D01*
X2620873Y4130192D01*
X2616758Y4134307D01*
X2611882Y4137406D01*
X2606395Y4139285D01*
X2600096Y4139996D01*
X2251303Y4139996D01*
X2245004Y4139285D01*
X2239518Y4137406D01*
X2234641Y4134307D01*
X2230526Y4130192D01*
X2227478Y4125315D01*
X2225548Y4119829D01*
X2224836Y4113529D01*
X2224836Y3973982D01*
X2225548Y3967683D01*
X2227478Y3962196D01*
X2230526Y3957320D01*
X2234641Y3953205D01*
X2239518Y3950157D01*
X2245004Y3948226D01*
X2251303Y3947515D01*
X2364638Y3947515D01*
X2368499Y3946753D01*
X2371801Y3944569D01*
X2374036Y3941267D01*
X2374798Y3937355D01*
X2374798Y3318865D01*
X2374188Y3315462D01*
X2372512Y3312464D01*
X2369921Y3310178D01*
X2366060Y3307842D01*
X2354935Y3299002D01*
X2345080Y3288792D01*
X2336546Y3277362D01*
X2329586Y3265017D01*
X2324252Y3251860D01*
X2320645Y3238093D01*
X2318816Y3224022D01*
X2318816Y3209798D01*
X2320645Y3195675D01*
X2324252Y3181959D01*
X2329586Y3168802D01*
X2336546Y3156407D01*
X2345080Y3145028D01*
X2354935Y3134817D01*
X2366060Y3125927D01*
X2378202Y3118561D01*
X2391206Y3112820D01*
X2404821Y3108807D01*
X2418842Y3106521D01*
G37*
G36*
X1146810Y3106877D02*
G01*
X1146810Y3204210D01*
X1049578Y3204210D01*
X1050645Y3195675D01*
X1054252Y3181959D01*
X1059586Y3168802D01*
X1066546Y3156407D01*
X1075080Y3145028D01*
X1084935Y3134817D01*
X1096060Y3125927D01*
X1108202Y3118561D01*
X1121206Y3112820D01*
X1134821Y3108807D01*
G37*
G36*
X2998622Y11612118D02*
G01*
X3060344Y11612118D01*
X3066643Y11612829D01*
X3072130Y11614759D01*
X3077006Y11617858D01*
X3081121Y11621922D01*
X3084169Y11626850D01*
X3086100Y11632285D01*
X3086811Y11638635D01*
X3086811Y11725351D01*
X2998622Y11725351D01*
G37*
G36*
X1049578Y3229610D02*
G01*
X1146810Y3229610D01*
X1146810Y3326942D01*
X1134821Y3325012D01*
X1121206Y3320948D01*
X1108202Y3315208D01*
X1096060Y3307842D01*
X1084935Y3299002D01*
X1075080Y3288792D01*
X1066546Y3277362D01*
X1059586Y3265017D01*
X1054252Y3251860D01*
X1050645Y3238093D01*
G37*
G36*
X2826562Y3229610D02*
G01*
X2924810Y3229610D01*
X2924810Y3327806D01*
X2853080Y3327806D01*
X2846730Y3327095D01*
X2841294Y3325164D01*
X2836367Y3322116D01*
X2832303Y3318001D01*
X2829204Y3313125D01*
X2827274Y3307638D01*
X2826562Y3301339D01*
G37*
G36*
X691388Y11422176D02*
G01*
X706577Y11423091D01*
X721512Y11425834D01*
X736041Y11430355D01*
X749909Y11436604D01*
X762914Y11444478D01*
X774852Y11453876D01*
X785622Y11464594D01*
X794969Y11476583D01*
X802843Y11489588D01*
X809091Y11503456D01*
X813612Y11517934D01*
X816356Y11532920D01*
X817270Y11548059D01*
X816356Y11563248D01*
X813612Y11578234D01*
X809091Y11592712D01*
X802843Y11606580D01*
X794969Y11619585D01*
X785622Y11631574D01*
X774852Y11642293D01*
X762914Y11651691D01*
X749909Y11659565D01*
X736041Y11665813D01*
X721512Y11670334D01*
X706577Y11673078D01*
X691388Y11673992D01*
X676198Y11673078D01*
X661263Y11670334D01*
X646734Y11665813D01*
X632866Y11659565D01*
X619861Y11651691D01*
X607923Y11642293D01*
X597154Y11631574D01*
X587806Y11619585D01*
X579932Y11606580D01*
X573684Y11592712D01*
X569163Y11578234D01*
X566420Y11563248D01*
X565505Y11548059D01*
X566420Y11532920D01*
X569163Y11517934D01*
X573684Y11503456D01*
X579932Y11489588D01*
X587806Y11476583D01*
X597154Y11464594D01*
X607923Y11453876D01*
X619861Y11444478D01*
X632866Y11436604D01*
X646734Y11430355D01*
X661263Y11425834D01*
X676198Y11423091D01*
G37*
G36*
X3406394Y11422176D02*
G01*
X3421583Y11423091D01*
X3436518Y11425834D01*
X3451047Y11430355D01*
X3464915Y11436604D01*
X3477920Y11444478D01*
X3489858Y11453876D01*
X3500628Y11464594D01*
X3509975Y11476583D01*
X3517849Y11489588D01*
X3524097Y11503456D01*
X3528618Y11517934D01*
X3531362Y11532920D01*
X3532276Y11548059D01*
X3531362Y11563248D01*
X3528618Y11578234D01*
X3524097Y11592712D01*
X3517849Y11606580D01*
X3509975Y11619585D01*
X3500628Y11631574D01*
X3489858Y11642293D01*
X3477920Y11651691D01*
X3464915Y11659565D01*
X3451047Y11665813D01*
X3436518Y11670334D01*
X3421583Y11673078D01*
X3406394Y11673992D01*
X3391204Y11673078D01*
X3376269Y11670334D01*
X3361740Y11665813D01*
X3347872Y11659565D01*
X3334867Y11651691D01*
X3322929Y11642293D01*
X3312160Y11631574D01*
X3302812Y11619585D01*
X3294938Y11606580D01*
X3288690Y11592712D01*
X3284169Y11578234D01*
X3281426Y11563248D01*
X3280511Y11548059D01*
X3281426Y11532920D01*
X3284169Y11517934D01*
X3288690Y11503456D01*
X3294938Y11489588D01*
X3302812Y11476583D01*
X3312160Y11464594D01*
X3322929Y11453876D01*
X3334867Y11444478D01*
X3347872Y11436604D01*
X3361740Y11430355D01*
X3376269Y11425834D01*
X3391204Y11423091D01*
G37*
G36*
X2634843Y10627207D02*
G01*
X2686913Y10627207D01*
X2693263Y10627918D01*
X2698699Y10629798D01*
X2702966Y10632490D01*
X2706522Y10633862D01*
X2710281Y10633862D01*
X2713786Y10632490D01*
X2718104Y10629798D01*
X2723540Y10627918D01*
X2729890Y10627207D01*
X2781909Y10627207D01*
X2788259Y10627918D01*
X2793695Y10629798D01*
X2798013Y10632490D01*
X2801518Y10633862D01*
X2805277Y10633862D01*
X2808782Y10632490D01*
X2813100Y10629798D01*
X2818536Y10627918D01*
X2824886Y10627207D01*
X2876905Y10627207D01*
X2883255Y10627918D01*
X2888691Y10629798D01*
X2893618Y10632897D01*
X2897682Y10636961D01*
X2900781Y10641888D01*
X2902712Y10647324D01*
X2903423Y10653674D01*
X2903423Y10759744D01*
X2902712Y10766044D01*
X2900781Y10771530D01*
X2895295Y10779912D01*
X2894533Y10783824D01*
X2894533Y11242497D01*
X2895092Y11245850D01*
X2896717Y11248847D01*
X2899257Y11251082D01*
X2902000Y11252860D01*
X2906115Y11256924D01*
X2909214Y11261852D01*
X2911094Y11267287D01*
X2911805Y11273637D01*
X2911805Y11427460D01*
X2911094Y11433810D01*
X2909214Y11439245D01*
X2906115Y11444173D01*
X2902000Y11448237D01*
X2897124Y11451336D01*
X2891637Y11453266D01*
X2885338Y11453977D01*
X2826461Y11453977D01*
X2820162Y11453266D01*
X2814675Y11451336D01*
X2811322Y11449202D01*
X2807766Y11447830D01*
X2804007Y11447830D01*
X2800502Y11449202D01*
X2797098Y11451336D01*
X2791612Y11453266D01*
X2785313Y11453977D01*
X2768600Y11453977D01*
X2768600Y11363248D01*
X2789834Y11363248D01*
X2793746Y11362486D01*
X2797048Y11360251D01*
X2799232Y11356949D01*
X2799994Y11353088D01*
X2799994Y11348008D01*
X2799232Y11344097D01*
X2797048Y11340846D01*
X2793746Y11338610D01*
X2789834Y11337848D01*
X2768600Y11337848D01*
X2768600Y11247120D01*
X2785313Y11247120D01*
X2791612Y11247831D01*
X2797098Y11249761D01*
X2800502Y11251895D01*
X2804007Y11253266D01*
X2807766Y11253266D01*
X2812542Y11251133D01*
X2815082Y11248847D01*
X2816707Y11245850D01*
X2817317Y11242497D01*
X2817317Y10936478D01*
X2816402Y10932312D01*
X2813862Y10928858D01*
X2810205Y10926775D01*
X2805938Y10926368D01*
X2801924Y10927740D01*
X2798826Y10930636D01*
X2797302Y10932820D01*
X2790342Y10939780D01*
X2782316Y10945418D01*
X2773375Y10949533D01*
X2763926Y10952073D01*
X2754122Y10952937D01*
X2744317Y10952073D01*
X2734868Y10949533D01*
X2725928Y10945418D01*
X2717901Y10939780D01*
X2711856Y10933734D01*
X2708554Y10931499D01*
X2704693Y10930737D01*
X2700782Y10931499D01*
X2697480Y10933734D01*
X2695295Y10937036D01*
X2694482Y10940897D01*
X2694482Y11242497D01*
X2695092Y11245850D01*
X2696718Y11248847D01*
X2700477Y11251895D01*
X2703982Y11253266D01*
X2707792Y11253266D01*
X2711297Y11251895D01*
X2714650Y11249761D01*
X2720136Y11247831D01*
X2726436Y11247120D01*
X2743200Y11247120D01*
X2743200Y11337848D01*
X2721965Y11337848D01*
X2718054Y11338610D01*
X2714752Y11340846D01*
X2712567Y11344097D01*
X2711805Y11348008D01*
X2711805Y11353088D01*
X2712567Y11356949D01*
X2714752Y11360251D01*
X2718054Y11362486D01*
X2721965Y11363248D01*
X2743200Y11363248D01*
X2743200Y11453977D01*
X2726436Y11453977D01*
X2720136Y11453266D01*
X2714650Y11451336D01*
X2711297Y11449202D01*
X2707792Y11447830D01*
X2703982Y11447830D01*
X2700477Y11449202D01*
X2697073Y11451336D01*
X2691638Y11453266D01*
X2685338Y11453977D01*
X2626461Y11453977D01*
X2620111Y11453266D01*
X2614676Y11451336D01*
X2609748Y11448237D01*
X2605684Y11444173D01*
X2602585Y11439245D01*
X2600706Y11433810D01*
X2599994Y11427460D01*
X2599994Y11273637D01*
X2600706Y11267287D01*
X2602585Y11261852D01*
X2605684Y11256924D01*
X2609748Y11252860D01*
X2612542Y11251082D01*
X2615082Y11248847D01*
X2616708Y11245850D01*
X2617266Y11242497D01*
X2617266Y10783824D01*
X2616504Y10779912D01*
X2611018Y10771530D01*
X2609088Y10766044D01*
X2608376Y10759744D01*
X2608376Y10653674D01*
X2609088Y10647324D01*
X2611018Y10641888D01*
X2614066Y10636961D01*
X2618181Y10632897D01*
X2623058Y10629798D01*
X2628544Y10627918D01*
G37*
G36*
X1364843Y10627207D02*
G01*
X1416913Y10627207D01*
X1423263Y10627918D01*
X1428699Y10629798D01*
X1432966Y10632490D01*
X1436522Y10633862D01*
X1440281Y10633862D01*
X1443786Y10632490D01*
X1448104Y10629798D01*
X1453540Y10627918D01*
X1459890Y10627207D01*
X1511909Y10627207D01*
X1518259Y10627918D01*
X1523695Y10629798D01*
X1528013Y10632490D01*
X1531518Y10633862D01*
X1535277Y10633862D01*
X1538782Y10632490D01*
X1543100Y10629798D01*
X1548536Y10627918D01*
X1554886Y10627207D01*
X1606905Y10627207D01*
X1613255Y10627918D01*
X1618691Y10629798D01*
X1623618Y10632897D01*
X1627682Y10636961D01*
X1630781Y10641888D01*
X1632712Y10647324D01*
X1633423Y10653674D01*
X1633423Y10759744D01*
X1632712Y10766044D01*
X1630781Y10771530D01*
X1625295Y10779912D01*
X1624533Y10783824D01*
X1624533Y11242497D01*
X1625092Y11245850D01*
X1626717Y11248847D01*
X1629257Y11251082D01*
X1632000Y11252860D01*
X1636115Y11256924D01*
X1639214Y11261852D01*
X1641093Y11267287D01*
X1641805Y11273637D01*
X1641805Y11427460D01*
X1641093Y11433810D01*
X1639214Y11439245D01*
X1636115Y11444173D01*
X1632000Y11448237D01*
X1627124Y11451336D01*
X1621637Y11453266D01*
X1615338Y11453977D01*
X1556461Y11453977D01*
X1550162Y11453266D01*
X1544675Y11451336D01*
X1541322Y11449202D01*
X1537766Y11447830D01*
X1534007Y11447830D01*
X1530502Y11449202D01*
X1527098Y11451336D01*
X1521612Y11453266D01*
X1515313Y11453977D01*
X1498600Y11453977D01*
X1498600Y11363248D01*
X1519834Y11363248D01*
X1523746Y11362486D01*
X1527048Y11360251D01*
X1529232Y11356949D01*
X1529994Y11353088D01*
X1529994Y11348008D01*
X1529232Y11344097D01*
X1527048Y11340846D01*
X1523746Y11338610D01*
X1519834Y11337848D01*
X1498600Y11337848D01*
X1498600Y11247120D01*
X1515313Y11247120D01*
X1521612Y11247831D01*
X1527098Y11249761D01*
X1530502Y11251895D01*
X1534007Y11253266D01*
X1537766Y11253266D01*
X1542542Y11251133D01*
X1545082Y11248847D01*
X1546707Y11245850D01*
X1547317Y11242497D01*
X1547317Y10939729D01*
X1546504Y10935817D01*
X1544269Y10932464D01*
X1540916Y10930280D01*
X1537004Y10929569D01*
X1533093Y10930382D01*
X1529791Y10932668D01*
X1523492Y10939272D01*
X1515719Y10945012D01*
X1507083Y10949381D01*
X1497888Y10952175D01*
X1488338Y10953394D01*
X1478686Y10952988D01*
X1469237Y10950956D01*
X1460296Y10947400D01*
X1452067Y10942320D01*
X1444853Y10935970D01*
X1442567Y10933125D01*
X1439367Y10930534D01*
X1435404Y10929366D01*
X1431290Y10929924D01*
X1427734Y10932109D01*
X1425346Y10935462D01*
X1424482Y10939526D01*
X1424482Y11242497D01*
X1425092Y11245850D01*
X1426718Y11248847D01*
X1430477Y11251895D01*
X1433982Y11253266D01*
X1437792Y11253266D01*
X1441297Y11251895D01*
X1444650Y11249761D01*
X1450136Y11247831D01*
X1456436Y11247120D01*
X1473200Y11247120D01*
X1473200Y11337848D01*
X1451965Y11337848D01*
X1448054Y11338610D01*
X1444752Y11340846D01*
X1442567Y11344097D01*
X1441805Y11348008D01*
X1441805Y11353088D01*
X1442567Y11356949D01*
X1444752Y11360251D01*
X1448054Y11362486D01*
X1451965Y11363248D01*
X1473200Y11363248D01*
X1473200Y11453977D01*
X1456436Y11453977D01*
X1450136Y11453266D01*
X1444650Y11451336D01*
X1441297Y11449202D01*
X1437792Y11447830D01*
X1433982Y11447830D01*
X1430477Y11449202D01*
X1427073Y11451336D01*
X1421638Y11453266D01*
X1415338Y11453977D01*
X1356461Y11453977D01*
X1350111Y11453266D01*
X1344676Y11451336D01*
X1339748Y11448237D01*
X1335684Y11444173D01*
X1332585Y11439245D01*
X1330706Y11433810D01*
X1329994Y11427460D01*
X1329994Y11273637D01*
X1330706Y11267287D01*
X1332585Y11261852D01*
X1335684Y11256924D01*
X1339748Y11252860D01*
X1342542Y11251082D01*
X1345082Y11248847D01*
X1346708Y11245850D01*
X1347266Y11242497D01*
X1347266Y10783824D01*
X1346504Y10779912D01*
X1341018Y10771530D01*
X1339088Y10766044D01*
X1338376Y10759744D01*
X1338376Y10653674D01*
X1339088Y10647324D01*
X1341018Y10641888D01*
X1344066Y10636961D01*
X1348181Y10632897D01*
X1353058Y10629798D01*
X1358544Y10627918D01*
G37*
G36*
X561238Y3765854D02*
G01*
X570788Y3767124D01*
X579983Y3769918D01*
X588619Y3774287D01*
X596392Y3780028D01*
X603046Y3786987D01*
X608431Y3794963D01*
X612444Y3803751D01*
X614832Y3813098D01*
X615442Y3820109D01*
X616305Y3823411D01*
X618236Y3826256D01*
X620979Y3828338D01*
X624281Y3829304D01*
X634288Y3830624D01*
X643483Y3833418D01*
X652119Y3837787D01*
X659892Y3843528D01*
X666546Y3850487D01*
X671931Y3858463D01*
X675944Y3867251D01*
X678332Y3876598D01*
X679196Y3886200D01*
X678332Y3895801D01*
X675944Y3905148D01*
X671931Y3913936D01*
X666546Y3921912D01*
X663752Y3924858D01*
X661619Y3928110D01*
X660908Y3931920D01*
X660908Y9580880D01*
X661619Y9584690D01*
X663752Y9587941D01*
X666546Y9590887D01*
X671931Y9598863D01*
X675944Y9607651D01*
X678332Y9616998D01*
X679196Y9626600D01*
X678332Y9636201D01*
X675944Y9645548D01*
X671931Y9654336D01*
X666546Y9662312D01*
X659892Y9669272D01*
X652119Y9675012D01*
X643483Y9679381D01*
X634288Y9682175D01*
X624281Y9683496D01*
X620979Y9684461D01*
X618236Y9686544D01*
X616305Y9689388D01*
X615442Y9692690D01*
X614832Y9699701D01*
X612444Y9709048D01*
X608431Y9717836D01*
X603046Y9725812D01*
X596392Y9732772D01*
X588619Y9738512D01*
X579983Y9742881D01*
X570788Y9745675D01*
X561238Y9746945D01*
X551586Y9746488D01*
X542137Y9744456D01*
X533196Y9740900D01*
X524967Y9735820D01*
X517753Y9729470D01*
X511657Y9721951D01*
X506984Y9713518D01*
X503783Y9704425D01*
X502158Y9694926D01*
X502158Y9685274D01*
X503783Y9675774D01*
X506984Y9666681D01*
X511657Y9658248D01*
X517956Y9650526D01*
X519633Y9647529D01*
X520192Y9644126D01*
X520192Y3868674D01*
X519633Y3865270D01*
X517956Y3862273D01*
X511657Y3854551D01*
X506984Y3846118D01*
X503783Y3837025D01*
X502158Y3827526D01*
X502158Y3817874D01*
X503783Y3808374D01*
X506984Y3799281D01*
X511657Y3790848D01*
X517753Y3783329D01*
X524967Y3776979D01*
X533196Y3771900D01*
X542137Y3768344D01*
X551586Y3766312D01*
G37*
G36*
X2251303Y4318203D02*
G01*
X2600096Y4318203D01*
X2606395Y4318914D01*
X2611882Y4320794D01*
X2616758Y4323892D01*
X2620873Y4328007D01*
X2623921Y4332884D01*
X2625852Y4338370D01*
X2626563Y4344670D01*
X2626563Y4353356D01*
X2627325Y4357268D01*
X2629560Y4360570D01*
X2632862Y4362754D01*
X2636723Y4363516D01*
X2692247Y4363516D01*
X2696311Y4362704D01*
X2699715Y4360265D01*
X2704947Y4351832D01*
X2709011Y4347718D01*
X2713939Y4344670D01*
X2719374Y4342739D01*
X2725724Y4342028D01*
X2862275Y4342028D01*
X2868574Y4342739D01*
X2874060Y4344670D01*
X2878937Y4347718D01*
X2883052Y4351832D01*
X2886100Y4356709D01*
X2888030Y4362196D01*
X2888742Y4368495D01*
X2888742Y4480610D01*
X2888030Y4486960D01*
X2886100Y4492396D01*
X2883052Y4497324D01*
X2878937Y4501388D01*
X2874060Y4504486D01*
X2868574Y4506366D01*
X2862275Y4507077D01*
X2725724Y4507077D01*
X2719374Y4506366D01*
X2713939Y4504486D01*
X2709011Y4501388D01*
X2704947Y4497324D01*
X2701848Y4492396D01*
X2699918Y4486960D01*
X2699207Y4480610D01*
X2699207Y4475530D01*
X2698445Y4471619D01*
X2696260Y4468317D01*
X2692958Y4466132D01*
X2689047Y4465370D01*
X2636723Y4465370D01*
X2632862Y4466132D01*
X2629560Y4468317D01*
X2627325Y4471619D01*
X2626563Y4475530D01*
X2626563Y4484217D01*
X2625852Y4490516D01*
X2623921Y4496003D01*
X2620873Y4500880D01*
X2616758Y4504994D01*
X2611882Y4508042D01*
X2606395Y4509973D01*
X2600096Y4510684D01*
X2251303Y4510684D01*
X2245004Y4509973D01*
X2239518Y4508042D01*
X2234641Y4504994D01*
X2230526Y4500880D01*
X2227478Y4496003D01*
X2225548Y4490516D01*
X2224836Y4484217D01*
X2224836Y4344670D01*
X2225548Y4338370D01*
X2227478Y4332884D01*
X2230526Y4328007D01*
X2234641Y4323892D01*
X2239518Y4320794D01*
X2245004Y4318914D01*
G37*
G36*
X2853334Y10319054D02*
G01*
X2862884Y10320324D01*
X2872130Y10323118D01*
X2880715Y10327487D01*
X2888488Y10333228D01*
X2895142Y10340187D01*
X2900527Y10348163D01*
X2904540Y10356951D01*
X2906979Y10366298D01*
X2907792Y10375900D01*
X2906979Y10385501D01*
X2904540Y10394848D01*
X2900680Y10403382D01*
X2899765Y10407142D01*
X2900375Y10410952D01*
X2902712Y10417556D01*
X2903423Y10423855D01*
X2903423Y10529925D01*
X2902712Y10536224D01*
X2900781Y10541711D01*
X2897682Y10546588D01*
X2893618Y10550702D01*
X2888691Y10553801D01*
X2883255Y10555681D01*
X2876905Y10556392D01*
X2824886Y10556392D01*
X2818536Y10555681D01*
X2813100Y10553801D01*
X2808782Y10551109D01*
X2805277Y10549686D01*
X2801518Y10549686D01*
X2798013Y10551109D01*
X2793695Y10553801D01*
X2788259Y10555681D01*
X2781909Y10556392D01*
X2768600Y10556392D01*
X2768600Y10489590D01*
X2788208Y10489590D01*
X2792120Y10488828D01*
X2795422Y10486644D01*
X2797606Y10483342D01*
X2798368Y10479430D01*
X2798368Y10474350D01*
X2797606Y10470489D01*
X2795422Y10467187D01*
X2792120Y10464952D01*
X2788208Y10464190D01*
X2768600Y10464190D01*
X2768600Y10397388D01*
X2781909Y10397388D01*
X2783941Y10397642D01*
X2787700Y10397337D01*
X2791053Y10395762D01*
X2793644Y10393019D01*
X2795066Y10389565D01*
X2795117Y10385806D01*
X2794254Y10380726D01*
X2794254Y10371074D01*
X2795879Y10361574D01*
X2799080Y10352481D01*
X2803804Y10344048D01*
X2809849Y10336530D01*
X2817063Y10330180D01*
X2825292Y10325100D01*
X2834233Y10321544D01*
X2843682Y10319512D01*
G37*
G36*
X2242261Y10210800D02*
G01*
X2294991Y10210800D01*
X2294991Y10250982D01*
X2268778Y10250982D01*
X2262428Y10250271D01*
X2256993Y10248392D01*
X2252065Y10245293D01*
X2248001Y10241229D01*
X2244902Y10236301D01*
X2242972Y10230866D01*
X2242261Y10224516D01*
G37*
G36*
X2725724Y4535271D02*
G01*
X2862275Y4535271D01*
X2868574Y4535982D01*
X2874060Y4537913D01*
X2878937Y4541012D01*
X2883052Y4545076D01*
X2886100Y4550003D01*
X2888030Y4555439D01*
X2888742Y4561738D01*
X2888742Y4673854D01*
X2888030Y4680204D01*
X2886100Y4685639D01*
X2883052Y4690567D01*
X2878937Y4694631D01*
X2874060Y4697730D01*
X2868574Y4699660D01*
X2862275Y4700371D01*
X2855061Y4700371D01*
X2851200Y4701133D01*
X2847898Y4703318D01*
X2845663Y4706620D01*
X2844901Y4710531D01*
X2844901Y4829454D01*
X2845765Y4833518D01*
X2848152Y4836922D01*
X2852724Y4839411D01*
X2857601Y4842510D01*
X2861716Y4846574D01*
X2864764Y4851501D01*
X2866694Y4856937D01*
X2867406Y4863287D01*
X2867406Y4982108D01*
X2866694Y4988458D01*
X2864764Y4993894D01*
X2861716Y4998821D01*
X2857601Y5002885D01*
X2852724Y5005984D01*
X2847238Y5007914D01*
X2840939Y5008626D01*
X2747060Y5008626D01*
X2740761Y5007914D01*
X2735275Y5005984D01*
X2730398Y5002885D01*
X2726283Y4998821D01*
X2723235Y4993894D01*
X2721305Y4988458D01*
X2720594Y4982108D01*
X2720594Y4863287D01*
X2721305Y4856937D01*
X2723235Y4851501D01*
X2726283Y4846574D01*
X2730398Y4842510D01*
X2735275Y4839411D01*
X2739847Y4836922D01*
X2742234Y4833518D01*
X2743098Y4829454D01*
X2743098Y4710531D01*
X2742336Y4706620D01*
X2740101Y4703318D01*
X2736799Y4701133D01*
X2732938Y4700371D01*
X2725724Y4700371D01*
X2719374Y4699660D01*
X2713939Y4697730D01*
X2709011Y4694631D01*
X2704947Y4690567D01*
X2701848Y4685639D01*
X2699918Y4680204D01*
X2699207Y4673854D01*
X2699207Y4561738D01*
X2699918Y4555439D01*
X2701848Y4550003D01*
X2704947Y4545076D01*
X2709011Y4541012D01*
X2713939Y4537913D01*
X2719374Y4535982D01*
G37*
G36*
X2747060Y5176774D02*
G01*
X2840939Y5176774D01*
X2847238Y5177485D01*
X2852724Y5179415D01*
X2857601Y5182514D01*
X2861716Y5186578D01*
X2864764Y5191506D01*
X2866694Y5196941D01*
X2867406Y5203291D01*
X2867406Y5322112D01*
X2866694Y5328462D01*
X2864764Y5333898D01*
X2861716Y5338826D01*
X2857601Y5342890D01*
X2852724Y5345988D01*
X2848152Y5348478D01*
X2845765Y5351881D01*
X2844901Y5355945D01*
X2844901Y5778754D01*
X2845562Y5782310D01*
X2847390Y5785408D01*
X2850184Y5787644D01*
X2859125Y5790692D01*
X2864002Y5793790D01*
X2868117Y5797905D01*
X2871165Y5802782D01*
X2873095Y5808268D01*
X2873806Y5814568D01*
X2873806Y6059932D01*
X2873095Y6066231D01*
X2871165Y6071717D01*
X2868117Y6076594D01*
X2864002Y6080709D01*
X2859125Y6083808D01*
X2853639Y6085687D01*
X2847340Y6086398D01*
X2743454Y6086398D01*
X2737154Y6085687D01*
X2731668Y6083808D01*
X2726791Y6080709D01*
X2722676Y6076594D01*
X2719628Y6071717D01*
X2717698Y6066231D01*
X2716987Y6059932D01*
X2716987Y5814568D01*
X2717698Y5808268D01*
X2719628Y5802782D01*
X2722676Y5797905D01*
X2726791Y5793790D01*
X2731668Y5790692D01*
X2736291Y5789117D01*
X2739847Y5786983D01*
X2742234Y5783580D01*
X2743098Y5779516D01*
X2743098Y5355945D01*
X2742234Y5351881D01*
X2739847Y5348478D01*
X2735275Y5345988D01*
X2730398Y5342890D01*
X2726283Y5338826D01*
X2723235Y5333898D01*
X2721305Y5328462D01*
X2720594Y5322112D01*
X2720594Y5203291D01*
X2721305Y5196941D01*
X2723235Y5191506D01*
X2726283Y5186578D01*
X2730398Y5182514D01*
X2735275Y5179415D01*
X2740761Y5177485D01*
G37*
G36*
X3147568Y5672074D02*
G01*
X3263900Y5672074D01*
X3263900Y5795670D01*
X3121101Y5795670D01*
X3121101Y5698591D01*
X3121812Y5692241D01*
X3123692Y5686806D01*
X3126790Y5681878D01*
X3130905Y5677814D01*
X3135782Y5674715D01*
X3141268Y5672785D01*
G37*
G36*
X2628900Y10201808D02*
G01*
X2705100Y10201808D01*
X2705100Y10258348D01*
X2703372Y10261600D01*
X2702864Y10265257D01*
X2703779Y10268813D01*
X2705862Y10271861D01*
X2710180Y10276179D01*
X2715818Y10284206D01*
X2719933Y10293146D01*
X2722473Y10302595D01*
X2723337Y10312400D01*
X2722473Y10322204D01*
X2719933Y10331653D01*
X2715818Y10340594D01*
X2710180Y10348620D01*
X2702509Y10356240D01*
X2700274Y10359542D01*
X2699512Y10363454D01*
X2699512Y10393324D01*
X2700426Y10397490D01*
X2702966Y10400944D01*
X2706725Y10403027D01*
X2711043Y10403382D01*
X2715056Y10401909D01*
X2718104Y10400030D01*
X2723540Y10398099D01*
X2729890Y10397388D01*
X2743200Y10397388D01*
X2743200Y10464190D01*
X2723540Y10464190D01*
X2719679Y10464952D01*
X2716377Y10467187D01*
X2714193Y10470489D01*
X2713380Y10474350D01*
X2713380Y10479430D01*
X2714193Y10483342D01*
X2716377Y10486644D01*
X2719679Y10488828D01*
X2723540Y10489590D01*
X2743200Y10489590D01*
X2743200Y10556392D01*
X2729890Y10556392D01*
X2723540Y10555681D01*
X2718104Y10553801D01*
X2713786Y10551109D01*
X2710281Y10549686D01*
X2706522Y10549686D01*
X2702966Y10551109D01*
X2698699Y10553801D01*
X2693263Y10555681D01*
X2686913Y10556392D01*
X2634843Y10556392D01*
X2628544Y10555681D01*
X2623058Y10553801D01*
X2618181Y10550702D01*
X2614066Y10546588D01*
X2611018Y10541711D01*
X2609088Y10536224D01*
X2608376Y10529925D01*
X2608376Y10423855D01*
X2609088Y10417556D01*
X2611018Y10412069D01*
X2614066Y10407243D01*
X2619248Y10402163D01*
X2621483Y10398810D01*
X2622296Y10394899D01*
X2622296Y10349636D01*
X2621838Y10346588D01*
X2620467Y10343794D01*
X2618181Y10340594D01*
X2614066Y10331653D01*
X2611526Y10322204D01*
X2610662Y10312400D01*
X2611526Y10302595D01*
X2614066Y10293146D01*
X2618181Y10284206D01*
X2623820Y10276179D01*
X2628138Y10271861D01*
X2630220Y10268813D01*
X2631084Y10265257D01*
X2630627Y10261600D01*
X2628900Y10258348D01*
G37*
G36*
X2348077Y5788101D02*
G01*
X2387346Y5788101D01*
X2393645Y5788812D01*
X2399131Y5790692D01*
X2404008Y5793790D01*
X2408123Y5797905D01*
X2411171Y5802782D01*
X2413101Y5808268D01*
X2413812Y5814568D01*
X2413812Y5924550D01*
X2348077Y5924550D01*
G37*
G36*
X2283460Y5788101D02*
G01*
X2322677Y5788101D01*
X2322677Y5924550D01*
X2256993Y5924550D01*
X2256993Y5814568D01*
X2257704Y5808268D01*
X2259634Y5802782D01*
X2262682Y5797905D01*
X2266797Y5793790D01*
X2271674Y5790692D01*
X2277160Y5788812D01*
G37*
G36*
X2513482Y5788101D02*
G01*
X2617317Y5788101D01*
X2623667Y5788812D01*
X2629103Y5790692D01*
X2634030Y5793790D01*
X2638094Y5797905D01*
X2641193Y5802782D01*
X2643073Y5808268D01*
X2643784Y5814568D01*
X2643784Y6059932D01*
X2643073Y6066231D01*
X2641193Y6071717D01*
X2638094Y6076594D01*
X2634030Y6080709D01*
X2629103Y6083808D01*
X2623108Y6085890D01*
X2619552Y6088024D01*
X2617165Y6091428D01*
X2616301Y6095492D01*
X2616301Y6197092D01*
X2617266Y6201410D01*
X2618333Y6203746D01*
X2620873Y6213195D01*
X2621737Y6223000D01*
X2620873Y6232804D01*
X2618333Y6242253D01*
X2614218Y6251194D01*
X2608580Y6259220D01*
X2601620Y6266180D01*
X2593594Y6271818D01*
X2584653Y6275933D01*
X2575204Y6278473D01*
X2565400Y6279337D01*
X2555595Y6278473D01*
X2546146Y6275933D01*
X2537206Y6271818D01*
X2529179Y6266180D01*
X2522220Y6259220D01*
X2516581Y6251194D01*
X2512466Y6242253D01*
X2509926Y6232804D01*
X2509062Y6223000D01*
X2509926Y6213195D01*
X2512466Y6203746D01*
X2513533Y6201410D01*
X2514498Y6197092D01*
X2514498Y6095492D01*
X2513634Y6091428D01*
X2511247Y6088024D01*
X2507691Y6085890D01*
X2501696Y6083808D01*
X2496769Y6080709D01*
X2492705Y6076594D01*
X2489606Y6071717D01*
X2487726Y6066231D01*
X2487015Y6059932D01*
X2487015Y5814568D01*
X2487726Y5808268D01*
X2489606Y5802782D01*
X2492705Y5797905D01*
X2496769Y5793790D01*
X2501696Y5790692D01*
X2507132Y5788812D01*
G37*
G36*
X3121101Y5821070D02*
G01*
X3263900Y5821070D01*
X3263900Y5944666D01*
X3147568Y5944666D01*
X3141268Y5943955D01*
X3135782Y5942025D01*
X3130905Y5938977D01*
X3126790Y5934862D01*
X3123692Y5929985D01*
X3121812Y5924499D01*
X3121101Y5918200D01*
G37*
G36*
X2730500Y10201808D02*
G01*
X2770682Y10201808D01*
X2770682Y10228021D01*
X2769971Y10234371D01*
X2768092Y10239806D01*
X2764993Y10244734D01*
X2760929Y10248798D01*
X2756001Y10251897D01*
X2750566Y10253827D01*
X2744216Y10254538D01*
X2730500Y10254538D01*
G37*
G36*
X2348077Y5949950D02*
G01*
X2413812Y5949950D01*
X2413812Y6059932D01*
X2413101Y6066231D01*
X2411171Y6071717D01*
X2408123Y6076594D01*
X2404008Y6080709D01*
X2399131Y6083808D01*
X2393645Y6085687D01*
X2387346Y6086398D01*
X2348077Y6086398D01*
G37*
G36*
X2256993Y5949950D02*
G01*
X2322677Y5949950D01*
X2322677Y6086398D01*
X2283460Y6086398D01*
X2277160Y6085687D01*
X2271674Y6083808D01*
X2266797Y6080709D01*
X2262682Y6076594D01*
X2259634Y6071717D01*
X2257704Y6066231D01*
X2256993Y6059932D01*
G37*
G36*
X1485900Y9925862D02*
G01*
X1495704Y9926726D01*
X1505153Y9929266D01*
X1514094Y9933381D01*
X1522120Y9939020D01*
X1529080Y9945979D01*
X1534718Y9954006D01*
X1538833Y9962946D01*
X1541373Y9972395D01*
X1542237Y9982200D01*
X1541373Y9992004D01*
X1538833Y10001453D01*
X1534718Y10010394D01*
X1529080Y10018420D01*
X1527505Y10019995D01*
X1525270Y10023297D01*
X1524508Y10027158D01*
X1524508Y10241381D01*
X1525270Y10245293D01*
X1527505Y10248595D01*
X1607870Y10328960D01*
X1612950Y10335158D01*
X1616506Y10341864D01*
X1618742Y10349077D01*
X1619504Y10357104D01*
X1619504Y10394899D01*
X1620316Y10398810D01*
X1622552Y10402163D01*
X1627733Y10407243D01*
X1630781Y10412069D01*
X1632712Y10417556D01*
X1633423Y10423855D01*
X1633423Y10529925D01*
X1632712Y10536224D01*
X1630781Y10541711D01*
X1627682Y10546588D01*
X1623618Y10550702D01*
X1618691Y10553801D01*
X1613255Y10555681D01*
X1606905Y10556392D01*
X1554886Y10556392D01*
X1548536Y10555681D01*
X1543100Y10553801D01*
X1538782Y10551109D01*
X1535277Y10549686D01*
X1531518Y10549686D01*
X1528013Y10551109D01*
X1523695Y10553801D01*
X1518259Y10555681D01*
X1511909Y10556392D01*
X1498600Y10556392D01*
X1498600Y10489590D01*
X1518208Y10489590D01*
X1522120Y10488828D01*
X1525422Y10486644D01*
X1527606Y10483342D01*
X1528368Y10479430D01*
X1528368Y10474350D01*
X1527606Y10470489D01*
X1525422Y10467187D01*
X1522120Y10464952D01*
X1518208Y10464190D01*
X1498600Y10464190D01*
X1498600Y10397388D01*
X1511909Y10397388D01*
X1518259Y10398099D01*
X1523695Y10400030D01*
X1526743Y10401909D01*
X1530756Y10403382D01*
X1535074Y10403027D01*
X1538833Y10400944D01*
X1541373Y10397490D01*
X1542288Y10393324D01*
X1542288Y10376814D01*
X1541526Y10372902D01*
X1539341Y10369600D01*
X1458976Y10289235D01*
X1453845Y10283037D01*
X1450289Y10276332D01*
X1449374Y10273436D01*
X1447444Y10269829D01*
X1444193Y10267289D01*
X1440230Y10266222D01*
X1436166Y10266832D01*
X1432661Y10269016D01*
X1430324Y10272369D01*
X1429512Y10276382D01*
X1429512Y10393324D01*
X1430426Y10397490D01*
X1432966Y10400944D01*
X1436725Y10403027D01*
X1441043Y10403382D01*
X1445056Y10401909D01*
X1448104Y10400030D01*
X1453540Y10398099D01*
X1459890Y10397388D01*
X1473200Y10397388D01*
X1473200Y10464190D01*
X1453540Y10464190D01*
X1449679Y10464952D01*
X1446377Y10467187D01*
X1444193Y10470489D01*
X1443380Y10474350D01*
X1443380Y10479430D01*
X1444193Y10483342D01*
X1446377Y10486644D01*
X1449679Y10488828D01*
X1453540Y10489590D01*
X1473200Y10489590D01*
X1473200Y10556392D01*
X1459890Y10556392D01*
X1453540Y10555681D01*
X1448104Y10553801D01*
X1443786Y10551109D01*
X1440281Y10549686D01*
X1436522Y10549686D01*
X1432966Y10551109D01*
X1428699Y10553801D01*
X1423263Y10555681D01*
X1416913Y10556392D01*
X1364843Y10556392D01*
X1358544Y10555681D01*
X1353058Y10553801D01*
X1348181Y10550702D01*
X1344066Y10546588D01*
X1341018Y10541711D01*
X1339088Y10536224D01*
X1338376Y10529925D01*
X1338376Y10423855D01*
X1339088Y10417556D01*
X1341018Y10412069D01*
X1344066Y10407243D01*
X1349248Y10402163D01*
X1351483Y10398810D01*
X1352296Y10394899D01*
X1352296Y10097109D01*
X1351788Y10093960D01*
X1350314Y10091115D01*
X1341120Y10081920D01*
X1335481Y10073894D01*
X1331366Y10064953D01*
X1328826Y10055504D01*
X1327962Y10045700D01*
X1328826Y10035895D01*
X1331366Y10026446D01*
X1335481Y10017506D01*
X1341120Y10009479D01*
X1348079Y10002520D01*
X1356106Y9996881D01*
X1365046Y9992766D01*
X1374495Y9990226D01*
X1384300Y9989362D01*
X1394104Y9990226D01*
X1403553Y9992766D01*
X1412494Y9996881D01*
X1414170Y9998100D01*
X1417675Y9999675D01*
X1421485Y9999827D01*
X1425092Y9998557D01*
X1427988Y9996068D01*
X1429766Y9992664D01*
X1430121Y9988905D01*
X1429562Y9982200D01*
X1430426Y9972395D01*
X1432966Y9962946D01*
X1437081Y9954006D01*
X1442720Y9945979D01*
X1449679Y9939020D01*
X1457706Y9933381D01*
X1466646Y9929266D01*
X1476095Y9926726D01*
G37*
G36*
X2388971Y6359601D02*
G01*
X2741828Y6359601D01*
X2748127Y6360312D01*
X2753614Y6362192D01*
X2758490Y6365290D01*
X2762605Y6369405D01*
X2765704Y6374282D01*
X2767584Y6379768D01*
X2768295Y6386068D01*
X2768295Y6631431D01*
X2767584Y6637731D01*
X2765704Y6643217D01*
X2762605Y6648094D01*
X2758490Y6652209D01*
X2753614Y6655308D01*
X2748127Y6657187D01*
X2741828Y6657898D01*
X2388971Y6657898D01*
X2382672Y6657187D01*
X2377186Y6655308D01*
X2372309Y6652209D01*
X2368194Y6648094D01*
X2365095Y6643217D01*
X2363216Y6637731D01*
X2362504Y6631431D01*
X2362504Y6386068D01*
X2363216Y6379768D01*
X2365095Y6374282D01*
X2368194Y6369405D01*
X2372309Y6365290D01*
X2377186Y6362192D01*
X2382672Y6360312D01*
G37*
G36*
X1308100Y6437020D02*
G01*
X1338021Y6437020D01*
X1344371Y6437731D01*
X1349806Y6439662D01*
X1354734Y6442760D01*
X1358798Y6446824D01*
X1361897Y6451752D01*
X1363776Y6457188D01*
X1364488Y6463538D01*
X1364488Y6490563D01*
X1308100Y6490563D01*
G37*
G36*
X1252778Y6437020D02*
G01*
X1282700Y6437020D01*
X1282700Y6490563D01*
X1226312Y6490563D01*
X1226312Y6463538D01*
X1227023Y6457188D01*
X1228902Y6451752D01*
X1232001Y6446824D01*
X1236065Y6442760D01*
X1240993Y6439662D01*
X1246428Y6437731D01*
G37*
G36*
X1621078Y6437020D02*
G01*
X1706321Y6437020D01*
X1712671Y6437731D01*
X1718106Y6439662D01*
X1723034Y6442760D01*
X1727098Y6446824D01*
X1730197Y6451752D01*
X1732330Y6457848D01*
X1734464Y6461404D01*
X1737868Y6463792D01*
X1741932Y6464655D01*
X1839468Y6464655D01*
X1843532Y6463792D01*
X1846935Y6461404D01*
X1849069Y6457848D01*
X1851202Y6451752D01*
X1854301Y6446824D01*
X1858365Y6442760D01*
X1863293Y6439662D01*
X1868728Y6437731D01*
X1875078Y6437020D01*
X1960321Y6437020D01*
X1966671Y6437731D01*
X1972106Y6439662D01*
X1977034Y6442760D01*
X1981098Y6446824D01*
X1984197Y6451752D01*
X1986076Y6457188D01*
X1986788Y6463538D01*
X1986788Y6543040D01*
X1986076Y6549339D01*
X1984197Y6554825D01*
X1981098Y6559702D01*
X1977034Y6563817D01*
X1972106Y6566865D01*
X1966061Y6568998D01*
X1962505Y6571132D01*
X1960067Y6574536D01*
X1959254Y6578600D01*
X1960067Y6582664D01*
X1962505Y6586067D01*
X1966061Y6588201D01*
X1972106Y6590334D01*
X1977034Y6593382D01*
X1981098Y6597497D01*
X1984197Y6602374D01*
X1986076Y6607860D01*
X1986788Y6614159D01*
X1986788Y6693662D01*
X1986076Y6700012D01*
X1984197Y6705447D01*
X1981098Y6710375D01*
X1977034Y6714439D01*
X1972106Y6717538D01*
X1966671Y6719468D01*
X1961794Y6720636D01*
X1958898Y6722922D01*
X1956968Y6726072D01*
X1956307Y6729679D01*
X1956307Y7074255D01*
X1957120Y7078268D01*
X1959457Y7081672D01*
X1962962Y7083806D01*
X1966366Y7085075D01*
X1978964Y7091629D01*
X1990648Y7099757D01*
X2001164Y7109307D01*
X2010359Y7120128D01*
X2018131Y7132066D01*
X2024278Y7144867D01*
X2028748Y7158329D01*
X2031492Y7172299D01*
X2032406Y7186472D01*
X2031492Y7200646D01*
X2028748Y7214616D01*
X2024634Y7227062D01*
X2024125Y7230770D01*
X2024989Y7234377D01*
X2027072Y7237475D01*
X2111654Y7322007D01*
X2115362Y7324394D01*
X2119731Y7324953D01*
X2123948Y7323632D01*
X2127199Y7320635D01*
X2128824Y7316571D01*
X2129383Y7313574D01*
X2132584Y7304481D01*
X2134311Y7301382D01*
X2135530Y7297369D01*
X2135073Y7293203D01*
X2132939Y7289596D01*
X2129536Y7287158D01*
X2124202Y7284770D01*
X2112060Y7277404D01*
X2100935Y7268565D01*
X2091080Y7258354D01*
X2082546Y7246975D01*
X2075586Y7234580D01*
X2070252Y7221423D01*
X2066645Y7207656D01*
X2064816Y7193584D01*
X2064816Y7179360D01*
X2066645Y7165289D01*
X2070252Y7151522D01*
X2075586Y7138365D01*
X2082546Y7125970D01*
X2091080Y7114590D01*
X2100935Y7104380D01*
X2112060Y7095540D01*
X2124202Y7088174D01*
X2137206Y7082383D01*
X2150821Y7078370D01*
X2164842Y7076084D01*
X2179066Y7075627D01*
X2193188Y7076998D01*
X2207056Y7080148D01*
X2220366Y7085075D01*
X2232964Y7091629D01*
X2244648Y7099757D01*
X2255164Y7109307D01*
X2264359Y7120128D01*
X2272131Y7132066D01*
X2278278Y7144867D01*
X2282748Y7158329D01*
X2285492Y7172299D01*
X2286406Y7186472D01*
X2285492Y7200646D01*
X2282748Y7214616D01*
X2278278Y7228078D01*
X2272131Y7240879D01*
X2264359Y7252817D01*
X2255164Y7263587D01*
X2244648Y7273188D01*
X2233269Y7281113D01*
X2230526Y7283907D01*
X2229053Y7287564D01*
X2229104Y7291527D01*
X2230628Y7295134D01*
X2234031Y7300163D01*
X2238044Y7308951D01*
X2240432Y7318298D01*
X2241296Y7327900D01*
X2240432Y7337501D01*
X2238044Y7346848D01*
X2234031Y7355636D01*
X2228646Y7363612D01*
X2221992Y7370572D01*
X2214219Y7376312D01*
X2205583Y7380681D01*
X2196287Y7383525D01*
X2192070Y7385050D01*
X2188921Y7388250D01*
X2187448Y7392517D01*
X2188006Y7396988D01*
X2190394Y7400747D01*
X2203246Y7413599D01*
X2208377Y7419848D01*
X2211933Y7426502D01*
X2214118Y7433767D01*
X2214930Y7441793D01*
X2214930Y7467955D01*
X2215642Y7471765D01*
X2217775Y7475016D01*
X2220976Y7477252D01*
X2227580Y7480198D01*
X2239721Y7487564D01*
X2250846Y7496403D01*
X2260752Y7506614D01*
X2269236Y7517993D01*
X2276195Y7530388D01*
X2281529Y7543546D01*
X2285136Y7557312D01*
X2286965Y7571384D01*
X2286965Y7585608D01*
X2285136Y7599680D01*
X2281529Y7613446D01*
X2276195Y7626603D01*
X2269236Y7638999D01*
X2260752Y7650378D01*
X2250846Y7660589D01*
X2239721Y7669428D01*
X2227884Y7676642D01*
X2225294Y7678877D01*
X2223617Y7681925D01*
X2223008Y7685328D01*
X2223008Y7828280D01*
X2223719Y7832090D01*
X2225852Y7835341D01*
X2228646Y7838287D01*
X2234031Y7846263D01*
X2238044Y7855051D01*
X2240432Y7864398D01*
X2241296Y7874000D01*
X2240432Y7883601D01*
X2238044Y7892948D01*
X2234031Y7901736D01*
X2228646Y7909712D01*
X2221992Y7916672D01*
X2214219Y7922412D01*
X2205583Y7926781D01*
X2196388Y7929575D01*
X2186838Y7930845D01*
X2177186Y7930388D01*
X2167737Y7928356D01*
X2158796Y7924800D01*
X2150567Y7919720D01*
X2143353Y7913370D01*
X2137257Y7905851D01*
X2132584Y7897418D01*
X2129383Y7888325D01*
X2127758Y7878825D01*
X2127758Y7869174D01*
X2129383Y7859674D01*
X2132584Y7850581D01*
X2137257Y7842148D01*
X2143556Y7834426D01*
X2145233Y7831429D01*
X2145792Y7828025D01*
X2145792Y7692288D01*
X2144979Y7688275D01*
X2142642Y7684922D01*
X2139137Y7682738D01*
X2131415Y7679893D01*
X2118817Y7673340D01*
X2107133Y7665212D01*
X2096617Y7655661D01*
X2087422Y7644841D01*
X2079701Y7632903D01*
X2073503Y7620101D01*
X2069033Y7606639D01*
X2066340Y7592669D01*
X2065426Y7578496D01*
X2066340Y7564323D01*
X2069033Y7550353D01*
X2073503Y7536891D01*
X2079701Y7524089D01*
X2087422Y7512151D01*
X2096617Y7501381D01*
X2107133Y7491780D01*
X2118817Y7483703D01*
X2132228Y7476744D01*
X2135124Y7474458D01*
X2137003Y7471308D01*
X2137714Y7467701D01*
X2137714Y7461453D01*
X2136902Y7457592D01*
X2134717Y7454290D01*
X1996135Y7315708D01*
X1992680Y7313472D01*
X1988667Y7312761D01*
X1984654Y7313675D01*
X1981352Y7316114D01*
X1979320Y7319670D01*
X1978812Y7323734D01*
X1979168Y7327900D01*
X1978355Y7337501D01*
X1975916Y7346848D01*
X1971954Y7355636D01*
X1966569Y7363612D01*
X1963724Y7366609D01*
X1961591Y7369860D01*
X1960880Y7373620D01*
X1960880Y7467955D01*
X1961642Y7471765D01*
X1963724Y7475016D01*
X1966925Y7477252D01*
X1973580Y7480198D01*
X1985721Y7487564D01*
X1996846Y7496403D01*
X2006752Y7506614D01*
X2015236Y7517993D01*
X2022195Y7530388D01*
X2027529Y7543546D01*
X2031136Y7557312D01*
X2032965Y7571384D01*
X2032965Y7585608D01*
X2031136Y7599680D01*
X2027529Y7613446D01*
X2022195Y7626603D01*
X2015236Y7638999D01*
X2006752Y7650378D01*
X1996846Y7660589D01*
X1985721Y7669428D01*
X1973884Y7676642D01*
X1971293Y7678877D01*
X1969617Y7681925D01*
X1969007Y7685328D01*
X1969007Y7701280D01*
X1969719Y7705090D01*
X1971852Y7708341D01*
X1974646Y7711287D01*
X1980031Y7719263D01*
X1984044Y7728051D01*
X1986432Y7737398D01*
X1987296Y7747000D01*
X1986432Y7756601D01*
X1984044Y7765948D01*
X1980031Y7774736D01*
X1974646Y7782712D01*
X1967992Y7789672D01*
X1960219Y7795412D01*
X1951583Y7799781D01*
X1942388Y7802575D01*
X1932838Y7803845D01*
X1923186Y7803388D01*
X1913737Y7801356D01*
X1904796Y7797800D01*
X1896567Y7792720D01*
X1889353Y7786370D01*
X1883257Y7778851D01*
X1878584Y7770418D01*
X1875383Y7761325D01*
X1873757Y7751825D01*
X1873757Y7742174D01*
X1875383Y7732674D01*
X1878584Y7723581D01*
X1883257Y7715148D01*
X1889556Y7707426D01*
X1891233Y7704429D01*
X1891792Y7701025D01*
X1891792Y7692288D01*
X1890979Y7688275D01*
X1888642Y7684922D01*
X1885137Y7682738D01*
X1877415Y7679893D01*
X1864817Y7673340D01*
X1853133Y7665212D01*
X1842617Y7655661D01*
X1833422Y7644841D01*
X1825701Y7632903D01*
X1819503Y7620101D01*
X1815033Y7606639D01*
X1812340Y7592669D01*
X1811426Y7578496D01*
X1812340Y7564323D01*
X1815033Y7550353D01*
X1819503Y7536891D01*
X1825701Y7524089D01*
X1833422Y7512151D01*
X1842617Y7501381D01*
X1853133Y7491780D01*
X1864817Y7483703D01*
X1878177Y7476744D01*
X1881073Y7474458D01*
X1883003Y7471308D01*
X1883664Y7467701D01*
X1883664Y7373823D01*
X1883105Y7370470D01*
X1881428Y7367473D01*
X1875180Y7359751D01*
X1870456Y7351318D01*
X1867255Y7342225D01*
X1865630Y7332725D01*
X1865630Y7323074D01*
X1867255Y7313574D01*
X1870456Y7304481D01*
X1873859Y7298436D01*
X1875078Y7294778D01*
X1874824Y7290917D01*
X1873097Y7287412D01*
X1870252Y7284821D01*
X1858060Y7277404D01*
X1846935Y7268565D01*
X1837080Y7258354D01*
X1828546Y7246975D01*
X1821586Y7234580D01*
X1816252Y7221423D01*
X1812645Y7207656D01*
X1810816Y7193584D01*
X1810816Y7179360D01*
X1812645Y7165289D01*
X1816252Y7151522D01*
X1821586Y7138365D01*
X1828546Y7125970D01*
X1837080Y7114590D01*
X1846935Y7104380D01*
X1858060Y7095540D01*
X1870202Y7088174D01*
X1873046Y7086904D01*
X1876247Y7084669D01*
X1878330Y7081418D01*
X1879092Y7077608D01*
X1879092Y6729679D01*
X1878431Y6726072D01*
X1876501Y6722922D01*
X1873605Y6720636D01*
X1868728Y6719468D01*
X1863293Y6717538D01*
X1858365Y6714439D01*
X1854301Y6710375D01*
X1851202Y6705447D01*
X1849069Y6699300D01*
X1846986Y6695795D01*
X1843735Y6693408D01*
X1839772Y6692493D01*
X1835810Y6693153D01*
X1832406Y6695338D01*
X1830120Y6698691D01*
X1829307Y6702653D01*
X1829307Y6774180D01*
X1830019Y6777990D01*
X1832152Y6781241D01*
X1834946Y6784187D01*
X1840331Y6792163D01*
X1844344Y6800951D01*
X1846732Y6810298D01*
X1847596Y6819900D01*
X1846732Y6829501D01*
X1844344Y6838848D01*
X1840331Y6847636D01*
X1834946Y6855612D01*
X1828292Y6862572D01*
X1820519Y6868312D01*
X1811883Y6872681D01*
X1802688Y6875475D01*
X1793138Y6876745D01*
X1783486Y6876288D01*
X1774037Y6874256D01*
X1765096Y6870700D01*
X1756867Y6865620D01*
X1749653Y6859270D01*
X1743557Y6851751D01*
X1738884Y6843318D01*
X1735683Y6834225D01*
X1734057Y6824725D01*
X1734057Y6815074D01*
X1735683Y6805574D01*
X1738884Y6796481D01*
X1743557Y6788048D01*
X1749856Y6780326D01*
X1751533Y6777329D01*
X1752092Y6773925D01*
X1752092Y6702653D01*
X1751279Y6698691D01*
X1748993Y6695338D01*
X1745589Y6693153D01*
X1741627Y6692493D01*
X1737664Y6693408D01*
X1734413Y6695795D01*
X1732330Y6699300D01*
X1730197Y6705447D01*
X1727098Y6710375D01*
X1723034Y6714439D01*
X1718106Y6717538D01*
X1712671Y6719468D01*
X1707794Y6720636D01*
X1704898Y6722922D01*
X1702968Y6726072D01*
X1702307Y6729679D01*
X1702307Y7074255D01*
X1703120Y7078268D01*
X1705457Y7081672D01*
X1708962Y7083806D01*
X1712366Y7085075D01*
X1724964Y7091629D01*
X1736648Y7099757D01*
X1747164Y7109307D01*
X1756359Y7120128D01*
X1764131Y7132066D01*
X1770278Y7144867D01*
X1774748Y7158329D01*
X1777492Y7172299D01*
X1778406Y7186472D01*
X1777492Y7200646D01*
X1774748Y7214616D01*
X1770278Y7228078D01*
X1764131Y7240879D01*
X1756359Y7252817D01*
X1747164Y7263587D01*
X1736648Y7273188D01*
X1724964Y7281316D01*
X1712366Y7287869D01*
X1708962Y7289139D01*
X1705457Y7291273D01*
X1703120Y7294625D01*
X1702307Y7298639D01*
X1702307Y7396480D01*
X1703019Y7400290D01*
X1705152Y7403541D01*
X1707946Y7406487D01*
X1713331Y7414463D01*
X1717344Y7423251D01*
X1719732Y7432598D01*
X1720596Y7442200D01*
X1719732Y7451801D01*
X1717344Y7461148D01*
X1714754Y7466838D01*
X1713839Y7470394D01*
X1714296Y7474051D01*
X1716024Y7477302D01*
X1718767Y7479741D01*
X1731721Y7487564D01*
X1742846Y7496403D01*
X1752752Y7506614D01*
X1761236Y7517993D01*
X1768195Y7530388D01*
X1773529Y7543546D01*
X1777136Y7557312D01*
X1778965Y7571384D01*
X1778965Y7585608D01*
X1777136Y7599680D01*
X1773529Y7613446D01*
X1768195Y7626603D01*
X1761236Y7638999D01*
X1752752Y7650378D01*
X1742846Y7660589D01*
X1731721Y7669428D01*
X1719580Y7676794D01*
X1708353Y7681772D01*
X1705152Y7684008D01*
X1703070Y7687259D01*
X1702307Y7691069D01*
X1702307Y8006080D01*
X1703019Y8009890D01*
X1705152Y8013141D01*
X1707946Y8016087D01*
X1713331Y8024063D01*
X1717344Y8032851D01*
X1719732Y8042198D01*
X1720596Y8051800D01*
X1719732Y8061401D01*
X1717344Y8070748D01*
X1713331Y8079536D01*
X1707946Y8087512D01*
X1701292Y8094472D01*
X1693519Y8100212D01*
X1684883Y8104581D01*
X1675688Y8107375D01*
X1666138Y8108645D01*
X1656486Y8108188D01*
X1647037Y8106156D01*
X1638096Y8102600D01*
X1629867Y8097520D01*
X1622653Y8091170D01*
X1616557Y8083651D01*
X1611884Y8075218D01*
X1608683Y8066125D01*
X1607058Y8056625D01*
X1607058Y8046974D01*
X1608683Y8037474D01*
X1611884Y8028381D01*
X1616557Y8019948D01*
X1622856Y8012226D01*
X1624533Y8009229D01*
X1625092Y8005825D01*
X1625092Y7686954D01*
X1624431Y7683296D01*
X1622501Y7680198D01*
X1619656Y7677912D01*
X1610817Y7673340D01*
X1599133Y7665212D01*
X1588617Y7655661D01*
X1579422Y7644841D01*
X1571701Y7632903D01*
X1565503Y7620101D01*
X1561033Y7606639D01*
X1558340Y7592669D01*
X1557426Y7578496D01*
X1558340Y7564323D01*
X1561033Y7550353D01*
X1565198Y7537907D01*
X1565656Y7534198D01*
X1564843Y7530592D01*
X1562709Y7527493D01*
X1509776Y7474559D01*
X1504645Y7468311D01*
X1501089Y7461656D01*
X1498904Y7454442D01*
X1498092Y7446416D01*
X1498092Y7281875D01*
X1497126Y7277557D01*
X1494485Y7274102D01*
X1490573Y7272070D01*
X1486204Y7271867D01*
X1482140Y7273544D01*
X1470964Y7281316D01*
X1458366Y7287869D01*
X1445056Y7292797D01*
X1431188Y7295946D01*
X1417066Y7297318D01*
X1402842Y7296861D01*
X1388821Y7294575D01*
X1375206Y7290511D01*
X1362202Y7284770D01*
X1349451Y7277049D01*
X1345387Y7275626D01*
X1341170Y7276033D01*
X1337411Y7278116D01*
X1334922Y7281519D01*
X1334008Y7285736D01*
X1334008Y7428992D01*
X1333195Y7437018D01*
X1331010Y7444231D01*
X1327454Y7450937D01*
X1322324Y7457135D01*
X1261668Y7517841D01*
X1259332Y7521498D01*
X1258722Y7525816D01*
X1260195Y7530388D01*
X1265529Y7543546D01*
X1269136Y7557312D01*
X1270965Y7571384D01*
X1270965Y7585608D01*
X1269136Y7599680D01*
X1265529Y7613446D01*
X1260195Y7626603D01*
X1253236Y7638999D01*
X1244752Y7650378D01*
X1234846Y7660589D01*
X1223721Y7669428D01*
X1211580Y7676794D01*
X1204976Y7679740D01*
X1201775Y7681975D01*
X1199642Y7685227D01*
X1198930Y7689037D01*
X1198930Y8230616D01*
X1199591Y8234222D01*
X1201521Y8237423D01*
X1204468Y8239658D01*
X1208024Y8240725D01*
X1211681Y8240420D01*
X1222095Y8237626D01*
X1231900Y8236762D01*
X1241704Y8237626D01*
X1251153Y8240166D01*
X1260094Y8244281D01*
X1268120Y8249920D01*
X1275080Y8256879D01*
X1280718Y8264906D01*
X1284833Y8273846D01*
X1287373Y8283295D01*
X1288237Y8293100D01*
X1287373Y8302904D01*
X1284833Y8312353D01*
X1280718Y8321294D01*
X1275080Y8329320D01*
X1273505Y8330895D01*
X1271270Y8334197D01*
X1270508Y8338058D01*
X1270508Y9340291D01*
X1271270Y9344202D01*
X1273505Y9347504D01*
X1275080Y9349079D01*
X1280718Y9357106D01*
X1284833Y9366046D01*
X1287373Y9375495D01*
X1288237Y9385300D01*
X1287373Y9395104D01*
X1284833Y9404553D01*
X1280718Y9413494D01*
X1275080Y9421520D01*
X1268120Y9428480D01*
X1260094Y9434118D01*
X1251153Y9438233D01*
X1241704Y9440773D01*
X1231900Y9441637D01*
X1222095Y9440773D01*
X1212646Y9438233D01*
X1203706Y9434118D01*
X1195679Y9428480D01*
X1188720Y9421520D01*
X1183081Y9413494D01*
X1178966Y9404553D01*
X1176426Y9395104D01*
X1175766Y9387586D01*
X1174597Y9383725D01*
X1172006Y9380575D01*
X1168400Y9378696D01*
X1164336Y9378391D01*
X1162710Y9378645D01*
X1153058Y9378188D01*
X1143101Y9376054D01*
X1138631Y9376105D01*
X1134567Y9378086D01*
X1131824Y9381591D01*
X1130808Y9386011D01*
X1130808Y9721291D01*
X1131570Y9725202D01*
X1133805Y9728504D01*
X1135380Y9730079D01*
X1141018Y9738106D01*
X1145133Y9747046D01*
X1147673Y9756495D01*
X1148537Y9766300D01*
X1147673Y9776104D01*
X1145133Y9785553D01*
X1141018Y9794494D01*
X1135380Y9802520D01*
X1128420Y9809480D01*
X1120394Y9815118D01*
X1111453Y9819233D01*
X1102004Y9821773D01*
X1092200Y9822637D01*
X1082395Y9821773D01*
X1072946Y9819233D01*
X1064006Y9815118D01*
X1055979Y9809480D01*
X1049020Y9802520D01*
X1043381Y9794494D01*
X1039266Y9785553D01*
X1036726Y9776104D01*
X1035862Y9766300D01*
X1036726Y9756495D01*
X1039266Y9747046D01*
X1043381Y9738106D01*
X1049020Y9730079D01*
X1050594Y9728504D01*
X1052830Y9725202D01*
X1053592Y9721291D01*
X1053592Y9551568D01*
X1052931Y9547961D01*
X1051001Y9544761D01*
X1048054Y9542526D01*
X1044498Y9541459D01*
X1040790Y9541764D01*
X1038504Y9542373D01*
X1028700Y9543237D01*
X1018895Y9542373D01*
X1009446Y9539833D01*
X1000506Y9535718D01*
X992479Y9530080D01*
X985519Y9523120D01*
X979881Y9515094D01*
X975766Y9506153D01*
X973226Y9496704D01*
X972362Y9486900D01*
X973226Y9477095D01*
X975766Y9467646D01*
X979881Y9458706D01*
X985519Y9450679D01*
X987094Y9449104D01*
X989330Y9445802D01*
X990092Y9441891D01*
X990092Y8034274D01*
X989533Y8030870D01*
X987856Y8027873D01*
X981557Y8020151D01*
X976884Y8011718D01*
X973683Y8002625D01*
X972058Y7993125D01*
X972058Y7983474D01*
X973683Y7973974D01*
X976884Y7964881D01*
X981557Y7956448D01*
X987653Y7948930D01*
X994867Y7942580D01*
X1003096Y7937500D01*
X1012037Y7933944D01*
X1021486Y7931912D01*
X1031138Y7931454D01*
X1040688Y7932724D01*
X1049883Y7935518D01*
X1058519Y7939887D01*
X1066292Y7945628D01*
X1072946Y7952587D01*
X1078331Y7960563D01*
X1082344Y7969351D01*
X1084732Y7978698D01*
X1085342Y7985709D01*
X1086205Y7989011D01*
X1088136Y7991856D01*
X1090879Y7993938D01*
X1094181Y7994903D01*
X1104188Y7996224D01*
X1108557Y7997545D01*
X1112316Y7997952D01*
X1115923Y7996986D01*
X1118971Y7994751D01*
X1121003Y7991551D01*
X1121714Y7987842D01*
X1121714Y7689291D01*
X1121003Y7685684D01*
X1119124Y7682534D01*
X1116228Y7680299D01*
X1102817Y7673340D01*
X1091133Y7665212D01*
X1080617Y7655661D01*
X1071422Y7644841D01*
X1063701Y7632903D01*
X1057503Y7620101D01*
X1053033Y7606639D01*
X1050340Y7592669D01*
X1049426Y7578496D01*
X1050340Y7564323D01*
X1053033Y7550353D01*
X1057503Y7536891D01*
X1063701Y7524089D01*
X1071422Y7512151D01*
X1080617Y7501381D01*
X1091133Y7491780D01*
X1102817Y7483652D01*
X1115415Y7477099D01*
X1128725Y7472172D01*
X1142593Y7469022D01*
X1156716Y7467650D01*
X1170940Y7468108D01*
X1184960Y7470394D01*
X1190701Y7472070D01*
X1194308Y7472476D01*
X1197813Y7471613D01*
X1200759Y7469530D01*
X1253794Y7416495D01*
X1256030Y7413193D01*
X1256792Y7409281D01*
X1256792Y7307275D01*
X1255928Y7303160D01*
X1253388Y7299706D01*
X1249730Y7297623D01*
X1245514Y7297216D01*
X1243939Y7297369D01*
X1172210Y7297369D01*
X1172210Y7199172D01*
X1246632Y7199172D01*
X1250543Y7198410D01*
X1253794Y7196175D01*
X1256030Y7192873D01*
X1256792Y7189012D01*
X1256792Y7183932D01*
X1256030Y7180021D01*
X1253794Y7176770D01*
X1250543Y7174534D01*
X1246632Y7173772D01*
X1172210Y7173772D01*
X1172210Y7075576D01*
X1243939Y7075576D01*
X1245514Y7075728D01*
X1249730Y7075322D01*
X1253388Y7073239D01*
X1255928Y7069785D01*
X1256792Y7065619D01*
X1256792Y7005574D01*
X1256233Y7002170D01*
X1254556Y6999173D01*
X1248257Y6991451D01*
X1243584Y6983018D01*
X1240383Y6973925D01*
X1238758Y6964425D01*
X1238758Y6954774D01*
X1240383Y6945274D01*
X1243584Y6936181D01*
X1248257Y6927748D01*
X1254556Y6920026D01*
X1256233Y6917029D01*
X1256792Y6913625D01*
X1256792Y6729679D01*
X1256131Y6726072D01*
X1254201Y6722922D01*
X1251305Y6720636D01*
X1246428Y6719417D01*
X1240993Y6717538D01*
X1236065Y6714439D01*
X1232001Y6710375D01*
X1228902Y6705447D01*
X1227023Y6700012D01*
X1226312Y6693662D01*
X1226312Y6614159D01*
X1227023Y6607860D01*
X1228902Y6602374D01*
X1232001Y6597497D01*
X1236065Y6593382D01*
X1240993Y6590334D01*
X1247089Y6588201D01*
X1250594Y6586067D01*
X1253032Y6582664D01*
X1253845Y6578600D01*
X1253032Y6574536D01*
X1250594Y6571132D01*
X1247089Y6568998D01*
X1240993Y6566865D01*
X1236065Y6563817D01*
X1232001Y6559702D01*
X1228902Y6554825D01*
X1227023Y6549339D01*
X1226312Y6543040D01*
X1226312Y6515963D01*
X1282700Y6515963D01*
X1282700Y6577533D01*
X1283462Y6581394D01*
X1285697Y6584696D01*
X1288999Y6586931D01*
X1292860Y6587693D01*
X1297940Y6587693D01*
X1301851Y6586931D01*
X1305102Y6584696D01*
X1307338Y6581394D01*
X1308100Y6577533D01*
X1308100Y6515963D01*
X1364488Y6515963D01*
X1364488Y6543040D01*
X1363776Y6549339D01*
X1361897Y6554825D01*
X1358798Y6559702D01*
X1354734Y6563817D01*
X1349806Y6566865D01*
X1343761Y6568998D01*
X1340205Y6571132D01*
X1337767Y6574536D01*
X1336954Y6578600D01*
X1337767Y6582664D01*
X1340205Y6586067D01*
X1343761Y6588201D01*
X1349806Y6590334D01*
X1354734Y6593382D01*
X1358798Y6597497D01*
X1361897Y6602374D01*
X1363776Y6607860D01*
X1364488Y6614159D01*
X1364488Y6693662D01*
X1363776Y6700012D01*
X1361897Y6705447D01*
X1358798Y6710375D01*
X1354734Y6714439D01*
X1349806Y6717538D01*
X1344371Y6719417D01*
X1339494Y6720636D01*
X1336598Y6722922D01*
X1334668Y6726072D01*
X1334008Y6729679D01*
X1334008Y6806641D01*
X1334922Y6810857D01*
X1337462Y6814261D01*
X1341170Y6816394D01*
X1345438Y6816750D01*
X1349502Y6815328D01*
X1352600Y6812330D01*
X1354175Y6808368D01*
X1354683Y6805574D01*
X1357884Y6796481D01*
X1362557Y6788048D01*
X1368653Y6780530D01*
X1375867Y6774180D01*
X1384096Y6769100D01*
X1393037Y6765544D01*
X1402486Y6763512D01*
X1412138Y6763054D01*
X1421688Y6764324D01*
X1430883Y6767118D01*
X1439519Y6771487D01*
X1447292Y6777228D01*
X1453946Y6784187D01*
X1459331Y6792163D01*
X1463344Y6800951D01*
X1465732Y6810298D01*
X1466596Y6819900D01*
X1465732Y6829501D01*
X1463344Y6838848D01*
X1461516Y6842861D01*
X1460601Y6847027D01*
X1460601Y7012178D01*
X1461516Y7016394D01*
X1464056Y7019798D01*
X1467815Y7021931D01*
X1472082Y7022287D01*
X1476095Y7020864D01*
X1479194Y7017867D01*
X1480769Y7013905D01*
X1481683Y7008774D01*
X1484884Y6999681D01*
X1489557Y6991248D01*
X1495653Y6983730D01*
X1502867Y6977380D01*
X1511096Y6972300D01*
X1520037Y6968744D01*
X1529486Y6966712D01*
X1539138Y6966254D01*
X1548688Y6967524D01*
X1557883Y6970318D01*
X1566519Y6974687D01*
X1574292Y6980428D01*
X1580946Y6987387D01*
X1586331Y6995363D01*
X1590344Y7004151D01*
X1592732Y7013498D01*
X1593596Y7023100D01*
X1592732Y7032701D01*
X1590344Y7042048D01*
X1586331Y7050836D01*
X1580946Y7058812D01*
X1578152Y7061758D01*
X1576019Y7065009D01*
X1575308Y7068820D01*
X1575308Y7097522D01*
X1576070Y7101433D01*
X1578305Y7104735D01*
X1581658Y7106920D01*
X1585569Y7107681D01*
X1589481Y7106818D01*
X1592935Y7104380D01*
X1604060Y7095540D01*
X1616202Y7088174D01*
X1619046Y7086904D01*
X1622247Y7084669D01*
X1624330Y7081418D01*
X1625092Y7077608D01*
X1625092Y6729679D01*
X1624431Y6726072D01*
X1622501Y6722922D01*
X1619605Y6720636D01*
X1614728Y6719468D01*
X1609293Y6717538D01*
X1604365Y6714439D01*
X1600301Y6710375D01*
X1597202Y6705447D01*
X1595323Y6700012D01*
X1594612Y6693662D01*
X1594612Y6614159D01*
X1595323Y6607860D01*
X1597202Y6602374D01*
X1600301Y6597497D01*
X1604365Y6593382D01*
X1609293Y6590334D01*
X1615338Y6588201D01*
X1618894Y6586067D01*
X1621332Y6582664D01*
X1622145Y6578600D01*
X1621332Y6574536D01*
X1618894Y6571132D01*
X1615338Y6568998D01*
X1609293Y6566865D01*
X1604365Y6563817D01*
X1600301Y6559702D01*
X1597202Y6554825D01*
X1595323Y6549339D01*
X1594612Y6543040D01*
X1594612Y6463538D01*
X1595323Y6457188D01*
X1597202Y6451752D01*
X1600301Y6446824D01*
X1604365Y6442760D01*
X1609293Y6439662D01*
X1614728Y6437731D01*
G37*
G36*
X2924708Y9472066D02*
G01*
X2950921Y9472066D01*
X2957271Y9472777D01*
X2962706Y9474708D01*
X2967634Y9477806D01*
X2971698Y9481870D01*
X2974797Y9486798D01*
X2976727Y9492234D01*
X2977438Y9498584D01*
X2977438Y9512300D01*
X2924708Y9512300D01*
G37*
G36*
X1581861Y9017000D02*
G01*
X1634591Y9017000D01*
X1634591Y9057182D01*
X1608378Y9057182D01*
X1602028Y9056471D01*
X1596593Y9054592D01*
X1591665Y9051493D01*
X1587601Y9047429D01*
X1584502Y9042501D01*
X1582572Y9037066D01*
X1581861Y9030716D01*
G37*
G36*
X1608378Y8951366D02*
G01*
X1634591Y8951366D01*
X1634591Y8991600D01*
X1581861Y8991600D01*
X1581861Y8977884D01*
X1582572Y8971534D01*
X1584502Y8966098D01*
X1587601Y8961170D01*
X1591665Y8957106D01*
X1596593Y8954008D01*
X1602028Y8952077D01*
G37*
G36*
X2492908Y8938666D02*
G01*
X2519121Y8938666D01*
X2525471Y8939428D01*
X2530906Y8941308D01*
X2535834Y8944406D01*
X2539898Y8948470D01*
X2542997Y8953398D01*
X2544876Y8958834D01*
X2545588Y8965184D01*
X2545588Y8978900D01*
X2492908Y8978900D01*
G37*
G36*
X2110689Y8858808D02*
G01*
X2167382Y8858808D01*
X2167382Y8932011D01*
X2084171Y8932011D01*
X2084171Y8885275D01*
X2084882Y8878976D01*
X2086813Y8873490D01*
X2089912Y8868613D01*
X2093975Y8864498D01*
X2098903Y8861399D01*
X2104339Y8859520D01*
G37*
G36*
X3003499Y1451203D02*
G01*
X3075228Y1451203D01*
X3081528Y1451914D01*
X3087014Y1453794D01*
X3091891Y1456893D01*
X3096006Y1461008D01*
X3099104Y1465884D01*
X3100984Y1471371D01*
X3101695Y1477670D01*
X3101695Y1549400D01*
X3003499Y1549400D01*
G37*
G36*
X901700Y8719362D02*
G01*
X911504Y8720226D01*
X920953Y8722766D01*
X929894Y8726881D01*
X937920Y8732520D01*
X944880Y8739479D01*
X950518Y8747506D01*
X954633Y8756446D01*
X957173Y8765895D01*
X958037Y8775700D01*
X957173Y8785504D01*
X954633Y8794953D01*
X950518Y8803894D01*
X944880Y8811920D01*
X943305Y8813495D01*
X941069Y8816797D01*
X940308Y8820658D01*
X940308Y9937191D01*
X941069Y9941102D01*
X943305Y9944404D01*
X944880Y9945979D01*
X950518Y9954006D01*
X954633Y9962946D01*
X957173Y9972395D01*
X958037Y9982200D01*
X957173Y9992004D01*
X954633Y10001453D01*
X950518Y10010394D01*
X944880Y10018420D01*
X937920Y10025380D01*
X929894Y10031018D01*
X920953Y10035133D01*
X911504Y10037673D01*
X903630Y10038384D01*
X900226Y10039299D01*
X897331Y10041331D01*
X895299Y10044226D01*
X894384Y10047630D01*
X893673Y10055504D01*
X891133Y10064953D01*
X887018Y10073894D01*
X881380Y10081920D01*
X874420Y10088880D01*
X866394Y10094518D01*
X857453Y10098633D01*
X848004Y10101173D01*
X838200Y10102037D01*
X828395Y10101173D01*
X818946Y10098633D01*
X810006Y10094518D01*
X801979Y10088880D01*
X795020Y10081920D01*
X789381Y10073894D01*
X785266Y10064953D01*
X782726Y10055504D01*
X781862Y10045700D01*
X782726Y10035895D01*
X785266Y10026446D01*
X789381Y10017506D01*
X795020Y10009479D01*
X796594Y10007904D01*
X798830Y10004602D01*
X799592Y10000691D01*
X799592Y8884208D01*
X798830Y8880297D01*
X796594Y8876995D01*
X795020Y8875420D01*
X789381Y8867394D01*
X785266Y8858453D01*
X782726Y8849004D01*
X781862Y8839200D01*
X782726Y8829395D01*
X785266Y8819946D01*
X789381Y8811006D01*
X795020Y8802979D01*
X801979Y8796020D01*
X810006Y8790381D01*
X818946Y8786266D01*
X828395Y8783726D01*
X836269Y8783015D01*
X839673Y8782100D01*
X842568Y8780068D01*
X844600Y8777173D01*
X845515Y8773769D01*
X846226Y8765895D01*
X848766Y8756446D01*
X852881Y8747506D01*
X858519Y8739479D01*
X865479Y8732520D01*
X873506Y8726881D01*
X882446Y8722766D01*
X891895Y8720226D01*
G37*
G36*
X2936138Y6902754D02*
G01*
X2945688Y6904024D01*
X2954883Y6906818D01*
X2963519Y6911187D01*
X2971292Y6916928D01*
X2977946Y6923887D01*
X2983331Y6931863D01*
X2987344Y6940651D01*
X2989732Y6949998D01*
X2990596Y6959600D01*
X2989732Y6969201D01*
X2987344Y6978548D01*
X2983331Y6987336D01*
X2977946Y6995312D01*
X2975152Y6998258D01*
X2973019Y7001509D01*
X2972308Y7005320D01*
X2972308Y7074255D01*
X2973120Y7078268D01*
X2975457Y7081672D01*
X2978962Y7083806D01*
X2982366Y7085075D01*
X2994964Y7091629D01*
X3006648Y7099757D01*
X3017164Y7109307D01*
X3026359Y7120128D01*
X3034131Y7132066D01*
X3040278Y7144867D01*
X3044748Y7158329D01*
X3047492Y7172299D01*
X3048406Y7186472D01*
X3047492Y7200646D01*
X3044748Y7214616D01*
X3040278Y7228078D01*
X3034131Y7240879D01*
X3026359Y7252817D01*
X3017164Y7263587D01*
X3006648Y7273188D01*
X2994964Y7281316D01*
X2982366Y7287869D01*
X2969056Y7292797D01*
X2955188Y7295946D01*
X2941066Y7297318D01*
X2926842Y7296861D01*
X2912821Y7294575D01*
X2899206Y7290511D01*
X2886202Y7284770D01*
X2874060Y7277404D01*
X2862935Y7268565D01*
X2853080Y7258354D01*
X2844546Y7246975D01*
X2837586Y7234580D01*
X2832252Y7221423D01*
X2828645Y7207656D01*
X2826816Y7193584D01*
X2826816Y7179360D01*
X2828645Y7165289D01*
X2832252Y7151522D01*
X2837586Y7138365D01*
X2844546Y7125970D01*
X2853080Y7114590D01*
X2862935Y7104380D01*
X2874060Y7095540D01*
X2886202Y7088174D01*
X2889046Y7086904D01*
X2892247Y7084669D01*
X2894330Y7081418D01*
X2895092Y7077608D01*
X2895092Y7005574D01*
X2894533Y7002170D01*
X2892856Y6999173D01*
X2886557Y6991451D01*
X2881884Y6983018D01*
X2878683Y6973925D01*
X2877058Y6964425D01*
X2877058Y6954774D01*
X2878683Y6945274D01*
X2881884Y6936181D01*
X2886557Y6927748D01*
X2892653Y6920230D01*
X2899867Y6913880D01*
X2908096Y6908800D01*
X2917037Y6905244D01*
X2926486Y6903212D01*
G37*
G36*
X2431897Y6966254D02*
G01*
X2441498Y6967524D01*
X2450693Y6970318D01*
X2459329Y6974687D01*
X2467051Y6980428D01*
X2473756Y6987387D01*
X2479141Y6995363D01*
X2483104Y7004151D01*
X2485542Y7013498D01*
X2486355Y7023100D01*
X2485542Y7032701D01*
X2483104Y7042048D01*
X2479141Y7050836D01*
X2473756Y7058812D01*
X2470962Y7061758D01*
X2468829Y7065009D01*
X2468118Y7068769D01*
X2468118Y7075678D01*
X2468778Y7079284D01*
X2470708Y7082434D01*
X2473604Y7084720D01*
X2486964Y7091629D01*
X2498648Y7099757D01*
X2509164Y7109307D01*
X2518359Y7120128D01*
X2526131Y7132066D01*
X2532278Y7144867D01*
X2536748Y7158329D01*
X2539492Y7172299D01*
X2540406Y7186472D01*
X2539492Y7200646D01*
X2536748Y7214616D01*
X2532278Y7228078D01*
X2526131Y7240879D01*
X2518359Y7252817D01*
X2509164Y7263587D01*
X2498648Y7273188D01*
X2486964Y7281316D01*
X2474366Y7287869D01*
X2461056Y7292797D01*
X2447188Y7295946D01*
X2433066Y7297318D01*
X2418842Y7296861D01*
X2404821Y7294575D01*
X2391206Y7290511D01*
X2378202Y7284770D01*
X2366060Y7277404D01*
X2354935Y7268565D01*
X2345080Y7258354D01*
X2336546Y7246975D01*
X2329586Y7234580D01*
X2324252Y7221423D01*
X2320645Y7207656D01*
X2318816Y7193584D01*
X2318816Y7179360D01*
X2320645Y7165289D01*
X2324252Y7151522D01*
X2329586Y7138365D01*
X2336546Y7125970D01*
X2345080Y7114590D01*
X2354935Y7104380D01*
X2366060Y7095540D01*
X2378202Y7088174D01*
X2384856Y7085228D01*
X2388057Y7082993D01*
X2390140Y7079742D01*
X2390902Y7075931D01*
X2390902Y7069074D01*
X2390343Y7065721D01*
X2388666Y7062724D01*
X2382367Y7054951D01*
X2377694Y7046518D01*
X2374442Y7037425D01*
X2372817Y7027925D01*
X2372817Y7018274D01*
X2374442Y7008774D01*
X2377694Y6999681D01*
X2382367Y6991248D01*
X2388412Y6983730D01*
X2395677Y6977380D01*
X2403906Y6972300D01*
X2412847Y6968744D01*
X2422296Y6966712D01*
G37*
G36*
X1968500Y8632190D02*
G01*
X2021687Y8632190D01*
X2021687Y8658910D01*
X2020976Y8665260D01*
X2019096Y8670696D01*
X2015998Y8675624D01*
X2011934Y8679688D01*
X2007006Y8682786D01*
X2001570Y8684666D01*
X1995220Y8685377D01*
X1968500Y8685377D01*
G37*
G36*
X1075080Y7075576D02*
G01*
X1146810Y7075576D01*
X1146810Y7173772D01*
X1048613Y7173772D01*
X1048613Y7102043D01*
X1049324Y7095744D01*
X1051204Y7090257D01*
X1054303Y7085380D01*
X1058367Y7081266D01*
X1063294Y7078167D01*
X1068730Y7076287D01*
G37*
G36*
X1889912Y8632190D02*
G01*
X1943100Y8632190D01*
X1943100Y8685377D01*
X1916379Y8685377D01*
X1910029Y8684666D01*
X1904593Y8682786D01*
X1899666Y8679688D01*
X1895602Y8675624D01*
X1892503Y8670696D01*
X1890623Y8665260D01*
X1889912Y8658910D01*
G37*
G36*
X2687066Y7075627D02*
G01*
X2701188Y7076998D01*
X2715056Y7080148D01*
X2728366Y7085075D01*
X2740964Y7091629D01*
X2752648Y7099757D01*
X2763164Y7109307D01*
X2772359Y7120128D01*
X2780131Y7132066D01*
X2786278Y7144867D01*
X2790748Y7158329D01*
X2793492Y7172299D01*
X2794406Y7186472D01*
X2793492Y7200646D01*
X2790748Y7214616D01*
X2786278Y7228078D01*
X2780131Y7240879D01*
X2772359Y7252817D01*
X2763164Y7263587D01*
X2752648Y7273188D01*
X2740964Y7281316D01*
X2728366Y7287869D01*
X2715056Y7292797D01*
X2701188Y7295946D01*
X2687066Y7297318D01*
X2672842Y7296861D01*
X2658821Y7294575D01*
X2639872Y7289038D01*
X2635859Y7289800D01*
X2632506Y7292035D01*
X2594305Y7330236D01*
X2592070Y7333538D01*
X2591308Y7337450D01*
X2591308Y7490510D01*
X2592070Y7494320D01*
X2594152Y7497572D01*
X2597353Y7499807D01*
X2601163Y7500670D01*
X2604973Y7500061D01*
X2608275Y7498029D01*
X2615133Y7491780D01*
X2624429Y7485329D01*
X2626766Y7483094D01*
X2628290Y7480198D01*
X2628798Y7476998D01*
X2628798Y7444486D01*
X2628188Y7441133D01*
X2624683Y7431125D01*
X2623058Y7421625D01*
X2623058Y7411974D01*
X2624683Y7402474D01*
X2627884Y7393381D01*
X2632557Y7384948D01*
X2638653Y7377430D01*
X2645867Y7371080D01*
X2654096Y7366000D01*
X2663037Y7362444D01*
X2672486Y7360412D01*
X2682138Y7359954D01*
X2691688Y7361224D01*
X2700883Y7364018D01*
X2709519Y7368387D01*
X2717292Y7374128D01*
X2723946Y7381087D01*
X2729331Y7389063D01*
X2733344Y7397851D01*
X2735732Y7407198D01*
X2736596Y7416800D01*
X2735732Y7426401D01*
X2733344Y7435748D01*
X2731516Y7439761D01*
X2730601Y7443927D01*
X2730601Y7471460D01*
X2731211Y7474864D01*
X2732887Y7477861D01*
X2735478Y7480147D01*
X2747721Y7487564D01*
X2758846Y7496403D01*
X2768752Y7506614D01*
X2777236Y7517993D01*
X2784195Y7530388D01*
X2789529Y7543546D01*
X2793136Y7557312D01*
X2794965Y7571384D01*
X2794965Y7585608D01*
X2793136Y7599680D01*
X2789529Y7613446D01*
X2784195Y7626603D01*
X2777236Y7638999D01*
X2768752Y7650378D01*
X2758846Y7660589D01*
X2747721Y7669428D01*
X2735580Y7676794D01*
X2722575Y7682585D01*
X2708960Y7686598D01*
X2694940Y7688884D01*
X2680716Y7689342D01*
X2666593Y7687970D01*
X2652725Y7684820D01*
X2639415Y7679893D01*
X2626817Y7673340D01*
X2615133Y7665212D01*
X2608275Y7658963D01*
X2604973Y7656931D01*
X2601163Y7656322D01*
X2597353Y7657185D01*
X2594152Y7659420D01*
X2592070Y7662672D01*
X2591308Y7666481D01*
X2591308Y8133080D01*
X2592019Y8136890D01*
X2594152Y8140141D01*
X2596946Y8143087D01*
X2602331Y8151063D01*
X2606344Y8159851D01*
X2608732Y8169198D01*
X2609596Y8178800D01*
X2608732Y8188401D01*
X2606344Y8197748D01*
X2602331Y8206536D01*
X2596946Y8214512D01*
X2590292Y8221472D01*
X2582519Y8227212D01*
X2573883Y8231581D01*
X2564688Y8234375D01*
X2555138Y8235645D01*
X2545486Y8235188D01*
X2536037Y8233156D01*
X2527096Y8229600D01*
X2518867Y8224520D01*
X2511653Y8218170D01*
X2505557Y8210651D01*
X2500884Y8202218D01*
X2497683Y8193125D01*
X2496058Y8183625D01*
X2496058Y8173974D01*
X2497683Y8164474D01*
X2500884Y8155381D01*
X2505557Y8146948D01*
X2511856Y8139226D01*
X2513533Y8136229D01*
X2514092Y8132825D01*
X2514092Y7824012D01*
X2513228Y7819948D01*
X2510840Y7816545D01*
X2507234Y7814411D01*
X2503119Y7813903D01*
X2499156Y7815072D01*
X2495956Y7817764D01*
X2494076Y7821472D01*
X2492044Y7829448D01*
X2488031Y7838236D01*
X2482646Y7846212D01*
X2475992Y7853172D01*
X2468219Y7858912D01*
X2459583Y7863281D01*
X2450388Y7866075D01*
X2440838Y7867345D01*
X2431186Y7866888D01*
X2421737Y7864856D01*
X2412796Y7861300D01*
X2404567Y7856220D01*
X2397353Y7849870D01*
X2391257Y7842351D01*
X2386584Y7833918D01*
X2383383Y7824825D01*
X2381758Y7815325D01*
X2381758Y7805674D01*
X2383383Y7796174D01*
X2386584Y7787081D01*
X2391257Y7778648D01*
X2397556Y7770926D01*
X2399233Y7767929D01*
X2399792Y7764525D01*
X2399792Y7692288D01*
X2398979Y7688275D01*
X2396642Y7684922D01*
X2393137Y7682738D01*
X2385415Y7679893D01*
X2372817Y7673340D01*
X2361133Y7665212D01*
X2350617Y7655661D01*
X2341422Y7644841D01*
X2333701Y7632903D01*
X2327503Y7620101D01*
X2323033Y7606639D01*
X2320340Y7592669D01*
X2319426Y7578496D01*
X2320340Y7564323D01*
X2323033Y7550353D01*
X2327503Y7536891D01*
X2333701Y7524089D01*
X2341422Y7512151D01*
X2350617Y7501381D01*
X2361133Y7491780D01*
X2372817Y7483652D01*
X2375763Y7482128D01*
X2378862Y7479588D01*
X2380792Y7476032D01*
X2381148Y7472019D01*
X2379929Y7468209D01*
X2378456Y7465618D01*
X2375255Y7456525D01*
X2373630Y7447025D01*
X2373630Y7437374D01*
X2375255Y7427874D01*
X2378456Y7418781D01*
X2383180Y7410348D01*
X2389225Y7402830D01*
X2396490Y7396480D01*
X2404719Y7391400D01*
X2413660Y7387844D01*
X2423058Y7385812D01*
X2432710Y7385354D01*
X2442260Y7386624D01*
X2451506Y7389418D01*
X2460142Y7393787D01*
X2467864Y7399528D01*
X2474569Y7406487D01*
X2479954Y7414463D01*
X2483916Y7423251D01*
X2486355Y7432598D01*
X2487168Y7442200D01*
X2486355Y7451801D01*
X2483916Y7461148D01*
X2480360Y7469022D01*
X2479497Y7472578D01*
X2479954Y7476185D01*
X2481630Y7479436D01*
X2484374Y7481874D01*
X2493721Y7487564D01*
X2497582Y7490612D01*
X2500934Y7492390D01*
X2504694Y7492796D01*
X2508351Y7491831D01*
X2511399Y7489596D01*
X2513380Y7486396D01*
X2514092Y7482687D01*
X2514092Y7317740D01*
X2514904Y7309713D01*
X2517089Y7302449D01*
X2520645Y7295794D01*
X2525776Y7289596D01*
X2577998Y7237323D01*
X2580182Y7234021D01*
X2580995Y7230160D01*
X2580233Y7226300D01*
X2578252Y7221423D01*
X2574645Y7207656D01*
X2572816Y7193584D01*
X2572816Y7179360D01*
X2574645Y7165289D01*
X2578252Y7151522D01*
X2583586Y7138365D01*
X2590546Y7125970D01*
X2599080Y7114590D01*
X2608935Y7104380D01*
X2620060Y7095540D01*
X2632202Y7088174D01*
X2645206Y7082383D01*
X2658821Y7078370D01*
X2672842Y7076084D01*
G37*
G36*
X2448966Y8601608D02*
G01*
X2489200Y8601608D01*
X2489200Y8654338D01*
X2475484Y8654338D01*
X2469134Y8653627D01*
X2463698Y8651697D01*
X2458770Y8648598D01*
X2454706Y8644534D01*
X2451608Y8639606D01*
X2449677Y8634171D01*
X2448966Y8627821D01*
G37*
G36*
X1048613Y7199172D02*
G01*
X1146810Y7199172D01*
X1146810Y7297369D01*
X1075080Y7297369D01*
X1068730Y7296658D01*
X1063294Y7294778D01*
X1058367Y7291679D01*
X1054303Y7287564D01*
X1051204Y7282688D01*
X1049324Y7277201D01*
X1048613Y7270902D01*
G37*
G36*
X2514600Y8601608D02*
G01*
X2554782Y8601608D01*
X2554782Y8627821D01*
X2554071Y8634171D01*
X2552192Y8639606D01*
X2549093Y8644534D01*
X2545029Y8648598D01*
X2540101Y8651697D01*
X2534666Y8653627D01*
X2528316Y8654338D01*
X2514600Y8654338D01*
G37*
G36*
X2768600Y8598509D02*
G01*
X2782824Y8598509D01*
X2789123Y8599220D01*
X2794609Y8601100D01*
X2797962Y8603234D01*
X2801518Y8604605D01*
X2805277Y8604605D01*
X2808782Y8603234D01*
X2812186Y8601100D01*
X2817622Y8599220D01*
X2823972Y8598509D01*
X2877820Y8598509D01*
X2884119Y8599220D01*
X2889605Y8601100D01*
X2894482Y8604199D01*
X2898597Y8608314D01*
X2901645Y8613190D01*
X2903575Y8618677D01*
X2904286Y8624976D01*
X2904286Y8723833D01*
X2903575Y8730132D01*
X2901645Y8735618D01*
X2899359Y8740343D01*
X2899105Y8743696D01*
X2900019Y8746896D01*
X2904540Y8756802D01*
X2906928Y8766098D01*
X2907792Y8775700D01*
X2906928Y8785301D01*
X2904540Y8794648D01*
X2900527Y8803436D01*
X2895142Y8811412D01*
X2888488Y8818372D01*
X2880715Y8824112D01*
X2872079Y8828481D01*
X2862884Y8831275D01*
X2853334Y8832545D01*
X2843682Y8832088D01*
X2834233Y8830056D01*
X2825292Y8826500D01*
X2817063Y8821420D01*
X2809849Y8815070D01*
X2803753Y8807551D01*
X2799080Y8799118D01*
X2795879Y8790025D01*
X2794254Y8780526D01*
X2794254Y8770874D01*
X2795778Y8761933D01*
X2795727Y8758174D01*
X2794304Y8754719D01*
X2791714Y8751976D01*
X2788361Y8750401D01*
X2768600Y8750300D01*
X2768600Y8687104D01*
X2787294Y8687104D01*
X2791206Y8686342D01*
X2794508Y8684107D01*
X2796692Y8680856D01*
X2797454Y8676944D01*
X2797454Y8671864D01*
X2796692Y8667953D01*
X2794508Y8664702D01*
X2791206Y8662466D01*
X2787294Y8661704D01*
X2768600Y8661704D01*
G37*
G36*
X1916379Y8553602D02*
G01*
X1943100Y8553602D01*
X1943100Y8606790D01*
X1889912Y8606790D01*
X1889912Y8580069D01*
X1890623Y8573719D01*
X1892503Y8568283D01*
X1895602Y8563356D01*
X1899666Y8559292D01*
X1904593Y8556193D01*
X1910029Y8554313D01*
G37*
G36*
X1968500Y8553602D02*
G01*
X1995220Y8553602D01*
X2001570Y8554313D01*
X2007006Y8556193D01*
X2011934Y8559292D01*
X2015998Y8563356D01*
X2019096Y8568283D01*
X2020976Y8573719D01*
X2021687Y8580069D01*
X2021687Y8606790D01*
X1968500Y8606790D01*
G37*
G36*
X2853334Y8236254D02*
G01*
X2862884Y8237524D01*
X2872130Y8240318D01*
X2880715Y8244687D01*
X2888488Y8250428D01*
X2895142Y8257387D01*
X2900527Y8265363D01*
X2904540Y8274151D01*
X2906979Y8283498D01*
X2907792Y8293100D01*
X2906979Y8302701D01*
X2904540Y8312048D01*
X2900172Y8321598D01*
X2899308Y8325967D01*
X2900324Y8330234D01*
X2901492Y8332673D01*
X2903575Y8338616D01*
X2904286Y8344966D01*
X2904286Y8443823D01*
X2903575Y8450122D01*
X2901645Y8455609D01*
X2898597Y8460486D01*
X2894482Y8464600D01*
X2889605Y8467648D01*
X2884119Y8469579D01*
X2877820Y8470290D01*
X2823972Y8470290D01*
X2817622Y8469579D01*
X2812186Y8467648D01*
X2808782Y8465566D01*
X2805277Y8464143D01*
X2801518Y8464143D01*
X2797962Y8465566D01*
X2794609Y8467648D01*
X2789123Y8469579D01*
X2782824Y8470290D01*
X2728976Y8470290D01*
X2722626Y8469579D01*
X2717190Y8467648D01*
X2713990Y8465667D01*
X2710535Y8464296D01*
X2706827Y8464245D01*
X2703372Y8465566D01*
X2700578Y8468055D01*
X2698851Y8471306D01*
X2696514Y8479028D01*
X2692958Y8485733D01*
X2687828Y8491931D01*
X2673045Y8506714D01*
X2666847Y8511844D01*
X2660142Y8515400D01*
X2652928Y8517585D01*
X2644902Y8518398D01*
X2563672Y8518398D01*
X2559608Y8519261D01*
X2556205Y8521649D01*
X2554071Y8525205D01*
X2552039Y8531047D01*
X2551480Y8534400D01*
X2552039Y8537752D01*
X2554071Y8543645D01*
X2554782Y8549944D01*
X2554782Y8576208D01*
X2514600Y8576208D01*
X2514600Y8555482D01*
X2513838Y8551570D01*
X2511602Y8548268D01*
X2508300Y8546084D01*
X2504440Y8545322D01*
X2499360Y8545322D01*
X2495448Y8546084D01*
X2492197Y8548268D01*
X2489962Y8551570D01*
X2489200Y8555482D01*
X2489200Y8576208D01*
X2448966Y8576208D01*
X2448966Y8549944D01*
X2449677Y8543645D01*
X2451760Y8537752D01*
X2452319Y8534400D01*
X2451760Y8531047D01*
X2449677Y8525154D01*
X2448966Y8518804D01*
X2448966Y8440978D01*
X2449677Y8434628D01*
X2451608Y8429193D01*
X2454605Y8424367D01*
X2455976Y8421065D01*
X2456078Y8417458D01*
X2454859Y8414054D01*
X2450084Y8405418D01*
X2446883Y8396325D01*
X2445258Y8386825D01*
X2445258Y8377174D01*
X2446883Y8367674D01*
X2450084Y8358581D01*
X2454757Y8350148D01*
X2460853Y8342630D01*
X2468067Y8336280D01*
X2476296Y8331200D01*
X2485237Y8327644D01*
X2494686Y8325612D01*
X2504338Y8325154D01*
X2513888Y8326424D01*
X2523083Y8329218D01*
X2531719Y8333587D01*
X2539492Y8339328D01*
X2546146Y8346287D01*
X2551531Y8354263D01*
X2555544Y8363051D01*
X2557932Y8372398D01*
X2558796Y8382000D01*
X2557932Y8391601D01*
X2555544Y8400948D01*
X2551531Y8409736D01*
X2549245Y8413140D01*
X2547721Y8416696D01*
X2547670Y8420608D01*
X2549093Y8424214D01*
X2552192Y8429193D01*
X2554020Y8434374D01*
X2556154Y8437930D01*
X2559507Y8440318D01*
X2563571Y8441182D01*
X2597353Y8441182D01*
X2601214Y8440420D01*
X2604516Y8438184D01*
X2606700Y8434933D01*
X2607513Y8431022D01*
X2607513Y8344966D01*
X2608224Y8338616D01*
X2610104Y8333181D01*
X2613202Y8328253D01*
X2617266Y8324189D01*
X2622194Y8321090D01*
X2627630Y8319211D01*
X2633980Y8318500D01*
X2693314Y8318398D01*
X2696718Y8316772D01*
X2699308Y8314080D01*
X2700680Y8310625D01*
X2700731Y8306866D01*
X2699258Y8297976D01*
X2699258Y8288324D01*
X2700883Y8278825D01*
X2704084Y8269731D01*
X2708757Y8261299D01*
X2714853Y8253780D01*
X2722067Y8247430D01*
X2730296Y8242350D01*
X2739237Y8238794D01*
X2748686Y8236762D01*
X2758338Y8236356D01*
X2767888Y8237575D01*
X2777083Y8240369D01*
X2785719Y8244738D01*
X2793492Y8250478D01*
X2795930Y8253018D01*
X2799080Y8255253D01*
X2802839Y8256168D01*
X2806649Y8255558D01*
X2810002Y8253628D01*
X2817063Y8247380D01*
X2825292Y8242300D01*
X2834233Y8238744D01*
X2843682Y8236712D01*
G37*
G36*
X3139338Y7690154D02*
G01*
X3148888Y7691424D01*
X3158083Y7694218D01*
X3166719Y7698587D01*
X3174492Y7704328D01*
X3181146Y7711287D01*
X3186531Y7719263D01*
X3190544Y7728051D01*
X3192932Y7737398D01*
X3193796Y7747000D01*
X3192932Y7756601D01*
X3190544Y7765948D01*
X3186531Y7774736D01*
X3181146Y7782712D01*
X3178352Y7785658D01*
X3176219Y7788909D01*
X3175508Y7792720D01*
X3175508Y9707880D01*
X3176219Y9711690D01*
X3178352Y9714941D01*
X3181146Y9717887D01*
X3186531Y9725863D01*
X3190544Y9734651D01*
X3192932Y9743998D01*
X3193796Y9753600D01*
X3192932Y9763201D01*
X3190544Y9772548D01*
X3186531Y9781336D01*
X3181146Y9789312D01*
X3174492Y9796272D01*
X3166719Y9802012D01*
X3158083Y9806381D01*
X3154019Y9807651D01*
X3150209Y9809734D01*
X3147669Y9813290D01*
X3146806Y9817506D01*
X3147822Y9821722D01*
X3150463Y9825177D01*
X3154324Y9827158D01*
X3156153Y9827666D01*
X3165094Y9831781D01*
X3173120Y9837420D01*
X3180080Y9844379D01*
X3185718Y9852406D01*
X3189833Y9861346D01*
X3192373Y9870795D01*
X3193237Y9880600D01*
X3192373Y9890404D01*
X3189833Y9899853D01*
X3185718Y9908794D01*
X3180080Y9916820D01*
X3178505Y9918395D01*
X3176270Y9921697D01*
X3175508Y9925558D01*
X3175508Y10330180D01*
X3176219Y10333990D01*
X3178352Y10337241D01*
X3181146Y10340187D01*
X3186531Y10348163D01*
X3190544Y10356951D01*
X3192932Y10366298D01*
X3193796Y10375900D01*
X3192932Y10385501D01*
X3190544Y10394848D01*
X3186531Y10403636D01*
X3181146Y10411612D01*
X3174492Y10418572D01*
X3166719Y10424312D01*
X3158083Y10428681D01*
X3148888Y10431475D01*
X3139338Y10432745D01*
X3129686Y10432288D01*
X3120237Y10430256D01*
X3111296Y10426700D01*
X3103067Y10421620D01*
X3095853Y10415270D01*
X3089757Y10407751D01*
X3085084Y10399318D01*
X3081883Y10390225D01*
X3080258Y10380726D01*
X3080258Y10378643D01*
X3079546Y10374985D01*
X3077565Y10371785D01*
X3074568Y10369550D01*
X3070961Y10368534D01*
X3063595Y10367873D01*
X3054146Y10365333D01*
X3045206Y10361218D01*
X3037179Y10355580D01*
X3030220Y10348620D01*
X3024581Y10340594D01*
X3020466Y10331653D01*
X3017926Y10322204D01*
X3017062Y10312400D01*
X3017926Y10302595D01*
X3020466Y10293146D01*
X3024581Y10284206D01*
X3030220Y10276179D01*
X3031794Y10274604D01*
X3034030Y10271302D01*
X3034792Y10267391D01*
X3034792Y9862108D01*
X3034030Y9858197D01*
X3031794Y9854895D01*
X3030220Y9853320D01*
X3024581Y9845294D01*
X3020466Y9836353D01*
X3017926Y9826904D01*
X3017012Y9815779D01*
X3015996Y9812070D01*
X3013659Y9809022D01*
X3010408Y9807041D01*
X3006598Y9806432D01*
X3002889Y9807244D01*
X2999689Y9809429D01*
X2944164Y9864953D01*
X2938526Y9869525D01*
X2932531Y9872573D01*
X2925927Y9874351D01*
X2920593Y9874758D01*
X2769108Y9874758D01*
X2761894Y9873996D01*
X2755493Y9871913D01*
X2751632Y9869678D01*
X2747670Y9868408D01*
X2743555Y9868763D01*
X2739948Y9870795D01*
X2737408Y9874097D01*
X2736392Y9878110D01*
X2737104Y9882174D01*
X2739390Y9885680D01*
X2744724Y9891064D01*
X2749854Y9897262D01*
X2753410Y9903968D01*
X2755595Y9911181D01*
X2756408Y9919208D01*
X2756408Y10011918D01*
X2756966Y10015220D01*
X2758490Y10018115D01*
X2764993Y10024465D01*
X2768092Y10029393D01*
X2769971Y10034828D01*
X2770682Y10041178D01*
X2770682Y10119004D01*
X2769971Y10125354D01*
X2767939Y10131247D01*
X2767380Y10134600D01*
X2767939Y10137952D01*
X2769971Y10143845D01*
X2770682Y10150195D01*
X2770682Y10176408D01*
X2730500Y10176408D01*
X2730500Y10155682D01*
X2729738Y10151770D01*
X2727502Y10148468D01*
X2724200Y10146284D01*
X2720340Y10145522D01*
X2715260Y10145522D01*
X2711348Y10146284D01*
X2708046Y10148468D01*
X2705862Y10151770D01*
X2705100Y10155682D01*
X2705100Y10176408D01*
X2628900Y10176408D01*
X2628900Y10155682D01*
X2628138Y10151770D01*
X2625902Y10148468D01*
X2622600Y10146284D01*
X2618740Y10145522D01*
X2613660Y10145522D01*
X2609748Y10146284D01*
X2606446Y10148468D01*
X2604262Y10151770D01*
X2603500Y10155682D01*
X2603500Y10176408D01*
X2582062Y10176408D01*
X2578150Y10177170D01*
X2574848Y10179405D01*
X2572664Y10182656D01*
X2571902Y10186568D01*
X2571902Y10191648D01*
X2572664Y10195509D01*
X2574848Y10198811D01*
X2578150Y10201046D01*
X2582062Y10201808D01*
X2603500Y10201808D01*
X2603500Y10254538D01*
X2589784Y10254538D01*
X2583434Y10253827D01*
X2577998Y10251897D01*
X2573070Y10248798D01*
X2569006Y10244734D01*
X2565908Y10239806D01*
X2564587Y10235996D01*
X2562504Y10232542D01*
X2559202Y10230104D01*
X2555240Y10229240D01*
X2551226Y10229951D01*
X2547823Y10232186D01*
X2510231Y10269778D01*
X2508199Y10272674D01*
X2507284Y10276078D01*
X2506573Y10284104D01*
X2504033Y10293553D01*
X2499918Y10302494D01*
X2494280Y10310520D01*
X2487320Y10317480D01*
X2479294Y10323118D01*
X2470353Y10327233D01*
X2460904Y10329773D01*
X2451100Y10330637D01*
X2441295Y10329773D01*
X2431846Y10327233D01*
X2422906Y10323118D01*
X2414879Y10317480D01*
X2407920Y10310520D01*
X2402281Y10302494D01*
X2398166Y10293553D01*
X2395626Y10284104D01*
X2394915Y10276078D01*
X2394000Y10272674D01*
X2391968Y10269778D01*
X2389835Y10267645D01*
X2384755Y10261447D01*
X2381808Y10255910D01*
X2379827Y10253268D01*
X2377084Y10251440D01*
X2373985Y10250576D01*
X2371445Y10250271D01*
X2365552Y10248239D01*
X2362200Y10247680D01*
X2358847Y10248239D01*
X2352954Y10250271D01*
X2346604Y10250982D01*
X2320391Y10250982D01*
X2320391Y10210800D01*
X2341118Y10210800D01*
X2345029Y10210038D01*
X2348331Y10207802D01*
X2350516Y10204551D01*
X2351278Y10200640D01*
X2351278Y10195560D01*
X2350516Y10191648D01*
X2348331Y10188397D01*
X2345029Y10186162D01*
X2341118Y10185400D01*
X2320391Y10185400D01*
X2320391Y10109200D01*
X2341118Y10109200D01*
X2345029Y10108438D01*
X2348331Y10106202D01*
X2350516Y10102951D01*
X2351278Y10099040D01*
X2351278Y10093960D01*
X2350516Y10090048D01*
X2348331Y10086797D01*
X2345029Y10084562D01*
X2341118Y10083800D01*
X2320391Y10083800D01*
X2320391Y10071912D01*
X2319528Y10067747D01*
X2316988Y10064292D01*
X2313330Y10062210D01*
X2309114Y10061803D01*
X2304034Y10062362D01*
X2300478Y10063429D01*
X2297582Y10065715D01*
X2295652Y10068814D01*
X2294991Y10072471D01*
X2294991Y10083800D01*
X2274366Y10083800D01*
X2269947Y10084816D01*
X2266442Y10087610D01*
X2264460Y10091623D01*
X2264410Y10096144D01*
X2265527Y10101224D01*
X2266797Y10104374D01*
X2269083Y10106964D01*
X2272080Y10108641D01*
X2275433Y10109200D01*
X2294991Y10109200D01*
X2294991Y10185400D01*
X2242261Y10185400D01*
X2242261Y10171836D01*
X2241600Y10168229D01*
X2239670Y10165029D01*
X2236724Y10162794D01*
X2233168Y10161727D01*
X2229510Y10162032D01*
X2219604Y10164673D01*
X2209800Y10165537D01*
X2199995Y10164673D01*
X2197049Y10163911D01*
X2193544Y10163606D01*
X2190140Y10164521D01*
X2187244Y10166553D01*
X2185212Y10169398D01*
X2182418Y10175494D01*
X2176780Y10183520D01*
X2169820Y10190480D01*
X2161794Y10196118D01*
X2152853Y10200233D01*
X2143404Y10202773D01*
X2133600Y10203637D01*
X2123795Y10202773D01*
X2114346Y10200233D01*
X2105406Y10196118D01*
X2097379Y10190480D01*
X2090420Y10183520D01*
X2084781Y10175494D01*
X2083562Y10172801D01*
X2081275Y10169652D01*
X2077974Y10167620D01*
X2074164Y10166908D01*
X2070354Y10167721D01*
X2067153Y10169906D01*
X1991106Y10245953D01*
X1985467Y10250525D01*
X1979472Y10253573D01*
X1972868Y10255351D01*
X1967534Y10255758D01*
X1715007Y10255758D01*
X1707794Y10254996D01*
X1701393Y10252913D01*
X1695450Y10249509D01*
X1691386Y10246004D01*
X1671675Y10226243D01*
X1669237Y10224465D01*
X1666341Y10223449D01*
X1663344Y10223347D01*
X1656689Y10224109D01*
X1597812Y10224109D01*
X1591513Y10223398D01*
X1586026Y10221468D01*
X1581150Y10218420D01*
X1577035Y10214305D01*
X1573936Y10209428D01*
X1572056Y10203942D01*
X1571345Y10197642D01*
X1571345Y10170769D01*
X1572056Y10164419D01*
X1573276Y10159187D01*
X1572056Y10153954D01*
X1571345Y10147604D01*
X1571345Y10120731D01*
X1572056Y10114432D01*
X1573276Y10109200D01*
X1572056Y10103967D01*
X1571345Y10097617D01*
X1571345Y10070744D01*
X1572056Y10064445D01*
X1573276Y10059162D01*
X1572056Y10053929D01*
X1571345Y10047630D01*
X1571345Y10020757D01*
X1572056Y10014407D01*
X1573987Y10008971D01*
X1577035Y10004094D01*
X1581150Y9999980D01*
X1586026Y9996881D01*
X1588211Y9996170D01*
X1591716Y9993985D01*
X1594154Y9990632D01*
X1594967Y9986568D01*
X1594967Y9968382D01*
X1595729Y9961168D01*
X1597812Y9954768D01*
X1601266Y9948824D01*
X1604721Y9944760D01*
X1620520Y9928961D01*
X1622704Y9925659D01*
X1623466Y9921798D01*
X1623466Y9858044D01*
X1624177Y9851745D01*
X1626260Y9845852D01*
X1626819Y9842500D01*
X1626260Y9839147D01*
X1624177Y9833254D01*
X1623466Y9826904D01*
X1623466Y9800691D01*
X1663700Y9800691D01*
X1663700Y9821418D01*
X1664462Y9825329D01*
X1666697Y9828631D01*
X1669948Y9830816D01*
X1673860Y9831578D01*
X1678939Y9831578D01*
X1682800Y9830816D01*
X1686102Y9828631D01*
X1688338Y9825329D01*
X1689100Y9821418D01*
X1689100Y9800691D01*
X1765300Y9800691D01*
X1765300Y9821418D01*
X1766062Y9825329D01*
X1768297Y9828631D01*
X1771548Y9830816D01*
X1775460Y9831578D01*
X1780539Y9831578D01*
X1784400Y9830816D01*
X1787702Y9828631D01*
X1789938Y9825329D01*
X1790700Y9821418D01*
X1790700Y9800691D01*
X1827885Y9800691D01*
X1832305Y9799675D01*
X1835861Y9796881D01*
X1837791Y9792817D01*
X1838706Y9788906D01*
X1838960Y9786061D01*
X1837994Y9782098D01*
X1835861Y9778542D01*
X1832457Y9776155D01*
X1828393Y9775291D01*
X1790700Y9775291D01*
X1790700Y9768992D01*
X1789938Y9765131D01*
X1787702Y9761829D01*
X1784400Y9759645D01*
X1780539Y9758832D01*
X1775460Y9758832D01*
X1771548Y9759645D01*
X1768297Y9761829D01*
X1766062Y9765131D01*
X1765300Y9768992D01*
X1765300Y9775291D01*
X1689100Y9775291D01*
X1689100Y9768992D01*
X1688338Y9765131D01*
X1686102Y9761829D01*
X1682800Y9759645D01*
X1678939Y9758832D01*
X1673860Y9758832D01*
X1669948Y9759645D01*
X1666697Y9761829D01*
X1664462Y9765131D01*
X1663700Y9768992D01*
X1663700Y9775291D01*
X1623466Y9775291D01*
X1623466Y9768992D01*
X1622704Y9765131D01*
X1620520Y9761829D01*
X1617218Y9759645D01*
X1613306Y9758832D01*
X1564894Y9758832D01*
X1561236Y9759543D01*
X1558036Y9761524D01*
X1555800Y9764522D01*
X1554784Y9768128D01*
X1554073Y9776104D01*
X1551533Y9785553D01*
X1547418Y9794494D01*
X1541780Y9802520D01*
X1534820Y9809480D01*
X1526794Y9815118D01*
X1517853Y9819233D01*
X1508404Y9821773D01*
X1498600Y9822637D01*
X1488795Y9821773D01*
X1479346Y9819233D01*
X1470406Y9815118D01*
X1462379Y9809480D01*
X1455420Y9802520D01*
X1449781Y9794494D01*
X1445666Y9785553D01*
X1443126Y9776104D01*
X1442262Y9766300D01*
X1443126Y9756495D01*
X1445666Y9747046D01*
X1449781Y9738106D01*
X1452067Y9734854D01*
X1453794Y9730790D01*
X1453591Y9726371D01*
X1451559Y9722510D01*
X1448054Y9719818D01*
X1443786Y9718852D01*
X1310995Y9718852D01*
X1307795Y9719360D01*
X1304899Y9720884D01*
X1302664Y9723170D01*
X1300480Y9726320D01*
X1293520Y9733280D01*
X1285494Y9738918D01*
X1276553Y9743033D01*
X1267104Y9745573D01*
X1257300Y9746437D01*
X1247495Y9745573D01*
X1238046Y9743033D01*
X1229106Y9738918D01*
X1221079Y9733280D01*
X1214120Y9726320D01*
X1208481Y9718294D01*
X1204366Y9709353D01*
X1201826Y9699904D01*
X1200962Y9690100D01*
X1201826Y9680295D01*
X1204366Y9670846D01*
X1208481Y9661906D01*
X1214120Y9653879D01*
X1221079Y9646920D01*
X1229106Y9641281D01*
X1238046Y9637166D01*
X1247495Y9634626D01*
X1255369Y9633915D01*
X1258773Y9633000D01*
X1261668Y9630968D01*
X1263700Y9628073D01*
X1264615Y9624669D01*
X1265326Y9616795D01*
X1267866Y9607346D01*
X1271981Y9598406D01*
X1277620Y9590379D01*
X1284579Y9583420D01*
X1292606Y9577781D01*
X1301546Y9573666D01*
X1310995Y9571126D01*
X1318869Y9570415D01*
X1322273Y9569500D01*
X1325168Y9567468D01*
X1327200Y9564573D01*
X1328115Y9561169D01*
X1328826Y9553295D01*
X1331366Y9543846D01*
X1335481Y9534906D01*
X1341120Y9526879D01*
X1342694Y9525304D01*
X1344930Y9522002D01*
X1345692Y9518091D01*
X1345692Y8224774D01*
X1345133Y8221370D01*
X1343456Y8218373D01*
X1337157Y8210651D01*
X1332484Y8202218D01*
X1329283Y8193125D01*
X1327658Y8183625D01*
X1327658Y8173974D01*
X1329283Y8164474D01*
X1332484Y8155381D01*
X1337157Y8146948D01*
X1343253Y8139430D01*
X1350467Y8133080D01*
X1358696Y8128000D01*
X1367637Y8124444D01*
X1377086Y8122412D01*
X1386738Y8121954D01*
X1396288Y8123224D01*
X1405483Y8126018D01*
X1414119Y8130387D01*
X1421892Y8136128D01*
X1428546Y8143087D01*
X1433931Y8151063D01*
X1437944Y8159851D01*
X1440332Y8169198D01*
X1441196Y8178800D01*
X1440332Y8188401D01*
X1437944Y8197748D01*
X1433931Y8206536D01*
X1428546Y8214512D01*
X1425752Y8217458D01*
X1423619Y8220709D01*
X1422908Y8224520D01*
X1422908Y9169806D01*
X1423670Y9173718D01*
X1425905Y9177020D01*
X1429156Y9179204D01*
X1433068Y9179966D01*
X1444091Y9179966D01*
X1444091Y9220200D01*
X1433068Y9220200D01*
X1429156Y9220962D01*
X1425905Y9223197D01*
X1423670Y9226448D01*
X1422908Y9230360D01*
X1422908Y9235440D01*
X1423670Y9239351D01*
X1425905Y9242602D01*
X1429156Y9244838D01*
X1433068Y9245600D01*
X1444091Y9245600D01*
X1444091Y9255810D01*
X1444802Y9259519D01*
X1446733Y9262668D01*
X1449730Y9264904D01*
X1453388Y9265920D01*
X1458468Y9266377D01*
X1462582Y9265869D01*
X1466189Y9263735D01*
X1468628Y9260332D01*
X1469491Y9256268D01*
X1469491Y9245600D01*
X1490218Y9245600D01*
X1494129Y9244838D01*
X1497431Y9242602D01*
X1499616Y9239351D01*
X1500378Y9235440D01*
X1500378Y9230360D01*
X1499616Y9226448D01*
X1497431Y9223197D01*
X1494129Y9220962D01*
X1490218Y9220200D01*
X1469491Y9220200D01*
X1469491Y9179966D01*
X1495704Y9179966D01*
X1502054Y9180728D01*
X1507134Y9182506D01*
X1511503Y9183014D01*
X1515668Y9181642D01*
X1518869Y9178696D01*
X1520494Y9174632D01*
X1520342Y9170263D01*
X1519326Y9166504D01*
X1518462Y9156700D01*
X1519326Y9146895D01*
X1521866Y9137446D01*
X1525981Y9128506D01*
X1531620Y9120479D01*
X1538579Y9113520D01*
X1546606Y9107881D01*
X1555546Y9103766D01*
X1564995Y9101226D01*
X1574800Y9100362D01*
X1584604Y9101226D01*
X1594053Y9103766D01*
X1602994Y9107881D01*
X1611020Y9113520D01*
X1617980Y9120479D01*
X1620469Y9124086D01*
X1623618Y9126982D01*
X1627632Y9128353D01*
X1631848Y9127947D01*
X1635556Y9125813D01*
X1638096Y9122410D01*
X1638960Y9118244D01*
X1638960Y9107678D01*
X1639671Y9101328D01*
X1641602Y9095892D01*
X1644650Y9090964D01*
X1648764Y9086900D01*
X1653641Y9083802D01*
X1659128Y9081871D01*
X1665427Y9081160D01*
X1719325Y9081160D01*
X1725625Y9081871D01*
X1731111Y9083802D01*
X1734464Y9085935D01*
X1737969Y9087307D01*
X1741779Y9087307D01*
X1745284Y9085935D01*
X1748637Y9083802D01*
X1754124Y9081871D01*
X1759407Y9080601D01*
X1762353Y9078214D01*
X1764233Y9074962D01*
X1764792Y9071203D01*
X1763979Y9067546D01*
X1761845Y9064447D01*
X1757578Y9060180D01*
X1754327Y9057995D01*
X1750415Y9057182D01*
X1717344Y9057182D01*
X1711045Y9056471D01*
X1705152Y9054439D01*
X1701800Y9053880D01*
X1698447Y9054439D01*
X1692554Y9056471D01*
X1686204Y9057182D01*
X1659991Y9057182D01*
X1659991Y9017000D01*
X1680718Y9017000D01*
X1684629Y9016238D01*
X1687931Y9014002D01*
X1690116Y9010700D01*
X1690878Y9006840D01*
X1690878Y9001760D01*
X1690116Y8997848D01*
X1687931Y8994597D01*
X1684629Y8992362D01*
X1680718Y8991600D01*
X1659991Y8991600D01*
X1659991Y8951366D01*
X1686204Y8951366D01*
X1692554Y8952077D01*
X1697634Y8953906D01*
X1702003Y8954414D01*
X1706168Y8953042D01*
X1709369Y8950096D01*
X1710994Y8946032D01*
X1710842Y8941663D01*
X1709826Y8937904D01*
X1708962Y8928100D01*
X1709826Y8918295D01*
X1712366Y8908846D01*
X1716481Y8899906D01*
X1722120Y8891879D01*
X1723694Y8890304D01*
X1725930Y8887002D01*
X1726692Y8883091D01*
X1726692Y8685479D01*
X1726031Y8681872D01*
X1724101Y8678722D01*
X1721205Y8676436D01*
X1716328Y8675268D01*
X1710893Y8673338D01*
X1705965Y8670239D01*
X1701901Y8666175D01*
X1698802Y8661247D01*
X1696923Y8655812D01*
X1696212Y8649462D01*
X1696212Y8569960D01*
X1696923Y8563660D01*
X1698802Y8558174D01*
X1701901Y8553297D01*
X1705965Y8549182D01*
X1710893Y8546134D01*
X1716938Y8544001D01*
X1720494Y8541867D01*
X1722932Y8538464D01*
X1723745Y8534400D01*
X1722932Y8530336D01*
X1720494Y8526932D01*
X1716938Y8524798D01*
X1710893Y8522665D01*
X1705965Y8519617D01*
X1701901Y8515502D01*
X1698802Y8510625D01*
X1696923Y8505139D01*
X1696212Y8498840D01*
X1696212Y8419338D01*
X1696923Y8412988D01*
X1698802Y8407552D01*
X1701901Y8402624D01*
X1705965Y8398560D01*
X1710893Y8395462D01*
X1716328Y8393531D01*
X1722678Y8392820D01*
X1807921Y8392820D01*
X1814271Y8393531D01*
X1819706Y8395462D01*
X1824634Y8398560D01*
X1828698Y8402624D01*
X1830781Y8405926D01*
X1833067Y8408466D01*
X1836013Y8410143D01*
X1839366Y8410702D01*
X1880920Y8410702D01*
X1884934Y8409838D01*
X1888337Y8407450D01*
X1890471Y8403894D01*
X1892503Y8398103D01*
X1895602Y8393176D01*
X1899666Y8389112D01*
X1904593Y8386013D01*
X1910029Y8384133D01*
X1916379Y8383422D01*
X1995220Y8383422D01*
X2001570Y8384133D01*
X2007006Y8386013D01*
X2011934Y8389112D01*
X2015998Y8393176D01*
X2019096Y8398103D01*
X2020976Y8403539D01*
X2021687Y8409889D01*
X2021687Y8488730D01*
X2020976Y8495080D01*
X2019096Y8500516D01*
X2015998Y8505444D01*
X2011934Y8509508D01*
X2007006Y8512606D01*
X2001570Y8514486D01*
X1995220Y8515197D01*
X1916379Y8515197D01*
X1910029Y8514486D01*
X1904593Y8512606D01*
X1899666Y8509508D01*
X1895602Y8505444D01*
X1892503Y8500516D01*
X1890471Y8494725D01*
X1888337Y8491169D01*
X1884934Y8488781D01*
X1880870Y8487918D01*
X1844548Y8487918D01*
X1840890Y8488578D01*
X1837740Y8490559D01*
X1835505Y8493506D01*
X1834438Y8497112D01*
X1833676Y8505240D01*
X1831797Y8510625D01*
X1828698Y8515502D01*
X1824634Y8519617D01*
X1819706Y8522665D01*
X1813661Y8524798D01*
X1810105Y8526932D01*
X1807667Y8530336D01*
X1806854Y8534400D01*
X1807667Y8538464D01*
X1810105Y8541867D01*
X1813661Y8544001D01*
X1819706Y8546134D01*
X1824634Y8549182D01*
X1828698Y8553297D01*
X1831797Y8558174D01*
X1833676Y8563660D01*
X1834388Y8569960D01*
X1834388Y8649462D01*
X1833676Y8655812D01*
X1831797Y8661247D01*
X1828698Y8666175D01*
X1824634Y8670239D01*
X1819706Y8673338D01*
X1814271Y8675268D01*
X1809394Y8676436D01*
X1806498Y8678722D01*
X1804568Y8681872D01*
X1803907Y8685479D01*
X1803907Y8883091D01*
X1804670Y8887002D01*
X1806905Y8890304D01*
X1808480Y8891879D01*
X1814118Y8899906D01*
X1818233Y8908846D01*
X1820773Y8918295D01*
X1821637Y8928100D01*
X1820773Y8937904D01*
X1818233Y8947353D01*
X1815947Y8952331D01*
X1815033Y8955582D01*
X1815236Y8958935D01*
X1816557Y8962034D01*
X1819097Y8966098D01*
X1821027Y8971534D01*
X1821738Y8977884D01*
X1821738Y9010904D01*
X1822500Y9014764D01*
X1824685Y9018066D01*
X1851355Y9044736D01*
X1854352Y9046819D01*
X1857857Y9047683D01*
X1861464Y9047276D01*
X1864715Y9045651D01*
X1867154Y9042958D01*
X1869897Y9038590D01*
X1871573Y9036913D01*
X1873808Y9033611D01*
X1874570Y9029700D01*
X1873808Y9025839D01*
X1871573Y9022537D01*
X1869897Y9020810D01*
X1866798Y9015933D01*
X1864918Y9010446D01*
X1864207Y9004147D01*
X1864207Y8885275D01*
X1864918Y8878976D01*
X1866798Y8873490D01*
X1869897Y8868613D01*
X1873961Y8864498D01*
X1878888Y8861399D01*
X1884324Y8859520D01*
X1890674Y8858808D01*
X2029510Y8858808D01*
X2035860Y8859520D01*
X2041296Y8861399D01*
X2046224Y8864498D01*
X2050288Y8868613D01*
X2053386Y8873490D01*
X2055317Y8878976D01*
X2056028Y8885275D01*
X2056028Y9004147D01*
X2055317Y9010446D01*
X2053386Y9015933D01*
X2050288Y9020810D01*
X2048611Y9022537D01*
X2046376Y9025839D01*
X2045614Y9029700D01*
X2046376Y9033611D01*
X2048611Y9036913D01*
X2050288Y9038590D01*
X2053386Y9043517D01*
X2055317Y9048953D01*
X2056028Y9055303D01*
X2056028Y9174124D01*
X2055368Y9179661D01*
X2055723Y9183573D01*
X2057552Y9187129D01*
X2060549Y9189669D01*
X2064359Y9190888D01*
X2073300Y9192310D01*
X2078177Y9191193D01*
X2081123Y9189567D01*
X2083409Y9187027D01*
X2084730Y9183878D01*
X2084882Y9180474D01*
X2084171Y9174124D01*
X2084171Y9055303D01*
X2084882Y9048953D01*
X2086813Y9043517D01*
X2089912Y9038590D01*
X2091588Y9036913D01*
X2093823Y9033611D01*
X2094585Y9029700D01*
X2093823Y9025839D01*
X2091588Y9022537D01*
X2089912Y9020810D01*
X2086813Y9015933D01*
X2084882Y9010446D01*
X2084171Y9004147D01*
X2084171Y8957411D01*
X2167382Y8957411D01*
X2167382Y9018625D01*
X2168194Y9022537D01*
X2170379Y9025839D01*
X2173681Y9028023D01*
X2177542Y9028785D01*
X2182622Y9028785D01*
X2186533Y9028023D01*
X2189835Y9025839D01*
X2192020Y9022537D01*
X2192782Y9018625D01*
X2192782Y8957411D01*
X2273401Y8957411D01*
X2275840Y8957106D01*
X2278634Y8955989D01*
X2285847Y8953804D01*
X2293874Y8952992D01*
X2303018Y8952992D01*
X2306269Y8952433D01*
X2309215Y8950909D01*
X2315565Y8944406D01*
X2320493Y8941308D01*
X2325928Y8939428D01*
X2332278Y8938666D01*
X2410104Y8938666D01*
X2416454Y8939428D01*
X2422347Y8941460D01*
X2425700Y8942019D01*
X2429052Y8941460D01*
X2434945Y8939428D01*
X2441244Y8938666D01*
X2467508Y8938666D01*
X2467508Y8978900D01*
X2446782Y8978900D01*
X2442870Y8979662D01*
X2439568Y8981897D01*
X2437384Y8985148D01*
X2436622Y8989060D01*
X2436622Y8994140D01*
X2437384Y8998051D01*
X2439568Y9001302D01*
X2442870Y9003538D01*
X2446782Y9004300D01*
X2467508Y9004300D01*
X2467508Y9080500D01*
X2446782Y9080500D01*
X2442870Y9081262D01*
X2439568Y9083497D01*
X2437384Y9086748D01*
X2436622Y9090660D01*
X2436622Y9095740D01*
X2437384Y9099651D01*
X2439568Y9102902D01*
X2442870Y9105138D01*
X2446782Y9105900D01*
X2467508Y9105900D01*
X2467508Y9139682D01*
X2468270Y9143593D01*
X2470454Y9146844D01*
X2473756Y9149080D01*
X2477668Y9149842D01*
X2482748Y9149842D01*
X2486609Y9149080D01*
X2489911Y9146844D01*
X2492146Y9143593D01*
X2492908Y9139682D01*
X2492908Y9105900D01*
X2499715Y9105900D01*
X2503119Y9105341D01*
X2506116Y9103664D01*
X2508402Y9101074D01*
X2509672Y9097924D01*
X2510790Y9092844D01*
X2510739Y9088323D01*
X2508758Y9084310D01*
X2505252Y9081516D01*
X2500833Y9080500D01*
X2492908Y9080500D01*
X2492908Y9004300D01*
X2545588Y9004300D01*
X2545588Y9018016D01*
X2544876Y9024366D01*
X2542997Y9029801D01*
X2537155Y9038793D01*
X2536596Y9043162D01*
X2537917Y9047327D01*
X2540914Y9050578D01*
X2544978Y9052255D01*
X2549347Y9052102D01*
X2555595Y9050426D01*
X2565400Y9049562D01*
X2575204Y9050426D01*
X2584653Y9052966D01*
X2593594Y9057081D01*
X2601620Y9062720D01*
X2603195Y9064294D01*
X2606497Y9066530D01*
X2610408Y9067292D01*
X2748991Y9067292D01*
X2752902Y9066530D01*
X2756204Y9064294D01*
X2757779Y9062720D01*
X2765806Y9057081D01*
X2774746Y9052966D01*
X2784195Y9050426D01*
X2794000Y9049562D01*
X2803804Y9050426D01*
X2812440Y9052712D01*
X2816148Y9053017D01*
X2819704Y9051950D01*
X2822651Y9049715D01*
X2824581Y9046565D01*
X2825242Y9042908D01*
X2825242Y8996476D01*
X2824480Y8992565D01*
X2822244Y8989263D01*
X2638450Y8805468D01*
X2633878Y8799830D01*
X2630830Y8793835D01*
X2629052Y8787231D01*
X2628646Y8781897D01*
X2628646Y8757158D01*
X2627833Y8753195D01*
X2625598Y8749893D01*
X2617266Y8744610D01*
X2613202Y8740495D01*
X2610104Y8735618D01*
X2608224Y8730132D01*
X2607513Y8723833D01*
X2607513Y8624976D01*
X2608224Y8618677D01*
X2610104Y8613190D01*
X2613202Y8608314D01*
X2617266Y8604199D01*
X2622194Y8601100D01*
X2627630Y8599220D01*
X2633980Y8598509D01*
X2687828Y8598509D01*
X2694127Y8599220D01*
X2699613Y8601100D01*
X2702966Y8603234D01*
X2706522Y8604605D01*
X2710281Y8604605D01*
X2713786Y8603234D01*
X2717190Y8601100D01*
X2722626Y8599220D01*
X2728976Y8598509D01*
X2743200Y8598509D01*
X2743200Y8661704D01*
X2724454Y8661704D01*
X2720594Y8662466D01*
X2717292Y8664702D01*
X2715056Y8667953D01*
X2714294Y8671864D01*
X2714294Y8676944D01*
X2715056Y8680856D01*
X2717292Y8684107D01*
X2720594Y8686342D01*
X2724454Y8687104D01*
X2743200Y8687104D01*
X2743200Y8750300D01*
X2728976Y8750300D01*
X2722626Y8749588D01*
X2717190Y8747709D01*
X2713786Y8745575D01*
X2710383Y8744204D01*
X2706674Y8744153D01*
X2703220Y8745423D01*
X2698191Y8748420D01*
X2695498Y8750655D01*
X2693771Y8753703D01*
X2693162Y8757158D01*
X2693162Y8764727D01*
X2693924Y8768638D01*
X2696159Y8771940D01*
X2879953Y8955735D01*
X2884525Y8961374D01*
X2887573Y8967368D01*
X2889351Y8973972D01*
X2889758Y8979306D01*
X2889758Y9257792D01*
X2888996Y9265005D01*
X2886913Y9271406D01*
X2883509Y9277350D01*
X2879902Y9281515D01*
X2878074Y9284716D01*
X2877515Y9288424D01*
X2878277Y9292031D01*
X2880309Y9295130D01*
X2883357Y9297314D01*
X2885694Y9298381D01*
X2893720Y9304020D01*
X2900680Y9310979D01*
X2906318Y9319006D01*
X2910433Y9327946D01*
X2912973Y9337395D01*
X2913837Y9347200D01*
X2912973Y9357004D01*
X2910433Y9366453D01*
X2906318Y9375394D01*
X2903423Y9379458D01*
X2901797Y9383268D01*
X2901797Y9387332D01*
X2903423Y9391142D01*
X2906318Y9395206D01*
X2910433Y9404146D01*
X2912973Y9413595D01*
X2913837Y9423400D01*
X2912973Y9433204D01*
X2910433Y9442653D01*
X2906318Y9451594D01*
X2901137Y9458960D01*
X2899765Y9461703D01*
X2899308Y9464751D01*
X2899308Y9512300D01*
X2878582Y9512300D01*
X2874670Y9513062D01*
X2871368Y9515297D01*
X2869184Y9518548D01*
X2868422Y9522460D01*
X2868422Y9527540D01*
X2869184Y9531400D01*
X2871368Y9534702D01*
X2874670Y9536938D01*
X2878582Y9537700D01*
X2899308Y9537700D01*
X2899308Y9577882D01*
X2873044Y9577882D01*
X2866745Y9577171D01*
X2860852Y9575139D01*
X2857500Y9574580D01*
X2854147Y9575139D01*
X2850743Y9576308D01*
X2847136Y9578492D01*
X2844749Y9581946D01*
X2843936Y9586112D01*
X2844901Y9590227D01*
X2846933Y9594646D01*
X2849473Y9604095D01*
X2850337Y9613900D01*
X2849473Y9623704D01*
X2846933Y9633153D01*
X2842818Y9642094D01*
X2839923Y9646158D01*
X2838297Y9649968D01*
X2838297Y9654032D01*
X2839923Y9657842D01*
X2842818Y9661906D01*
X2847086Y9671405D01*
X2849016Y9675164D01*
X2852318Y9677857D01*
X2856382Y9678924D01*
X2860548Y9678263D01*
X2864104Y9675977D01*
X2944825Y9595256D01*
X2947009Y9591954D01*
X2947822Y9588042D01*
X2947009Y9584182D01*
X2944825Y9580880D01*
X2941523Y9578695D01*
X2937662Y9577882D01*
X2924708Y9577882D01*
X2924708Y9537700D01*
X2977438Y9537700D01*
X2978200Y9542018D01*
X2980385Y9545320D01*
X2983687Y9547504D01*
X2987598Y9548317D01*
X2991459Y9547504D01*
X2994761Y9545320D01*
X3013913Y9526168D01*
X3015792Y9523526D01*
X3016808Y9520478D01*
X3016758Y9507474D01*
X3018383Y9497974D01*
X3021584Y9488881D01*
X3026257Y9480448D01*
X3031591Y9473844D01*
X3033369Y9470593D01*
X3033877Y9466935D01*
X3033014Y9463328D01*
X3024581Y9451594D01*
X3020466Y9442653D01*
X3017926Y9433204D01*
X3017062Y9423400D01*
X3017824Y9414459D01*
X3017418Y9410496D01*
X3015488Y9407042D01*
X3012389Y9404553D01*
X3008579Y9403435D01*
X3000095Y9402673D01*
X2990646Y9400133D01*
X2981706Y9396018D01*
X2973679Y9390380D01*
X2966720Y9383420D01*
X2961081Y9375394D01*
X2956966Y9366453D01*
X2954426Y9357004D01*
X2953562Y9347200D01*
X2954426Y9337395D01*
X2956966Y9327946D01*
X2961081Y9319006D01*
X2966720Y9310979D01*
X2968294Y9309404D01*
X2970530Y9306102D01*
X2971292Y9302191D01*
X2971292Y8339074D01*
X2970733Y8335670D01*
X2969056Y8332673D01*
X2962757Y8324951D01*
X2958084Y8316518D01*
X2954883Y8307425D01*
X2953258Y8297925D01*
X2953258Y8288274D01*
X2954883Y8278774D01*
X2958084Y8269681D01*
X2962757Y8261248D01*
X2969056Y8253526D01*
X2970733Y8250529D01*
X2971292Y8247125D01*
X2971292Y7919974D01*
X2970733Y7916570D01*
X2969056Y7913573D01*
X2962757Y7905851D01*
X2958084Y7897418D01*
X2954883Y7888325D01*
X2953258Y7878825D01*
X2953258Y7869174D01*
X2954883Y7859674D01*
X2958084Y7850581D01*
X2962757Y7842148D01*
X2968853Y7834630D01*
X2976067Y7828280D01*
X2984296Y7823200D01*
X2993237Y7819644D01*
X3002686Y7817612D01*
X3007004Y7817408D01*
X3010763Y7816494D01*
X3013913Y7814259D01*
X3015996Y7811058D01*
X3018383Y7796174D01*
X3021584Y7787081D01*
X3026257Y7778648D01*
X3032353Y7771130D01*
X3039567Y7764780D01*
X3047796Y7759700D01*
X3056737Y7756144D01*
X3066186Y7754112D01*
X3070504Y7753908D01*
X3074263Y7752994D01*
X3077413Y7750759D01*
X3079496Y7747558D01*
X3081883Y7732674D01*
X3085084Y7723581D01*
X3089757Y7715148D01*
X3095853Y7707630D01*
X3103067Y7701280D01*
X3111296Y7696200D01*
X3120237Y7692644D01*
X3129686Y7690612D01*
G37*
G36*
X2950972Y7591196D02*
G01*
X3049219Y7591196D01*
X3049219Y7662925D01*
X3048508Y7669225D01*
X3046577Y7674711D01*
X3043478Y7679588D01*
X3039414Y7683703D01*
X3034487Y7686802D01*
X3029051Y7688681D01*
X3022701Y7689392D01*
X2950972Y7689392D01*
G37*
G36*
X2853842Y7467600D02*
G01*
X2925572Y7467600D01*
X2925572Y7565796D01*
X2827375Y7565796D01*
X2827375Y7494066D01*
X2828086Y7487767D01*
X2830017Y7482281D01*
X2833065Y7477404D01*
X2837180Y7473289D01*
X2842056Y7470190D01*
X2847543Y7468311D01*
G37*
G36*
X2950972Y7467600D02*
G01*
X3022701Y7467600D01*
X3029051Y7468311D01*
X3034487Y7470190D01*
X3039414Y7473289D01*
X3043478Y7477404D01*
X3046577Y7482281D01*
X3048508Y7487767D01*
X3049219Y7494066D01*
X3049219Y7565796D01*
X2950972Y7565796D01*
G37*
G36*
X1410716Y7467650D02*
G01*
X1424940Y7468108D01*
X1438960Y7470394D01*
X1452575Y7474458D01*
X1465580Y7480198D01*
X1477721Y7487564D01*
X1488846Y7496403D01*
X1498752Y7506614D01*
X1507236Y7517993D01*
X1514195Y7530388D01*
X1519529Y7543546D01*
X1523136Y7557312D01*
X1524965Y7571384D01*
X1524965Y7585608D01*
X1523136Y7599680D01*
X1519529Y7613446D01*
X1514195Y7626603D01*
X1507236Y7638999D01*
X1498752Y7650378D01*
X1488846Y7660589D01*
X1477721Y7669428D01*
X1465884Y7676642D01*
X1463294Y7678877D01*
X1461617Y7681925D01*
X1461008Y7685328D01*
X1461008Y7942580D01*
X1461719Y7946390D01*
X1463852Y7949641D01*
X1466646Y7952587D01*
X1472031Y7960563D01*
X1476044Y7969351D01*
X1478432Y7978698D01*
X1479296Y7988300D01*
X1478432Y7997901D01*
X1476044Y8007248D01*
X1472031Y8016036D01*
X1466646Y8024012D01*
X1459992Y8030972D01*
X1452219Y8036712D01*
X1443583Y8041081D01*
X1434388Y8043875D01*
X1424838Y8045145D01*
X1415186Y8044688D01*
X1405737Y8042656D01*
X1396796Y8039100D01*
X1388567Y8034020D01*
X1381353Y8027670D01*
X1375257Y8020151D01*
X1370584Y8011718D01*
X1367383Y8002625D01*
X1365758Y7993125D01*
X1365758Y7983474D01*
X1367383Y7973974D01*
X1370584Y7964881D01*
X1375257Y7956448D01*
X1381556Y7948726D01*
X1383233Y7945729D01*
X1383792Y7942325D01*
X1383792Y7692288D01*
X1382979Y7688275D01*
X1380642Y7684922D01*
X1377137Y7682738D01*
X1369415Y7679893D01*
X1356817Y7673340D01*
X1345133Y7665212D01*
X1334617Y7655661D01*
X1325422Y7644841D01*
X1317701Y7632903D01*
X1311503Y7620101D01*
X1307033Y7606639D01*
X1304340Y7592669D01*
X1303426Y7578496D01*
X1304340Y7564323D01*
X1307033Y7550353D01*
X1311503Y7536891D01*
X1317701Y7524089D01*
X1325422Y7512151D01*
X1334617Y7501381D01*
X1345133Y7491780D01*
X1356817Y7483652D01*
X1369415Y7477099D01*
X1382725Y7472172D01*
X1396593Y7469022D01*
G37*
G36*
X2827375Y7591196D02*
G01*
X2925572Y7591196D01*
X2925572Y7689392D01*
X2853842Y7689392D01*
X2847543Y7688681D01*
X2842056Y7686802D01*
X2837180Y7683703D01*
X2833065Y7679588D01*
X2830017Y7674711D01*
X2828086Y7669225D01*
X2827375Y7662925D01*
G37*

%LPD*%
G36*
X1841195Y9918852D02*
G01*
X1837283Y9919563D01*
X1833930Y9921748D01*
X1831695Y9925100D01*
X1830882Y9929012D01*
X1830882Y9935921D01*
X1830171Y9942271D01*
X1828292Y9947706D01*
X1825193Y9952634D01*
X1821129Y9956698D01*
X1816201Y9959797D01*
X1810766Y9961676D01*
X1804416Y9962388D01*
X1780793Y9962388D01*
X1777085Y9963099D01*
X1773936Y9965080D01*
X1771650Y9968077D01*
X1770634Y9971684D01*
X1769973Y9979304D01*
X1767433Y9988753D01*
X1766265Y9991344D01*
X1765300Y9995662D01*
X1765300Y10019538D01*
X1766265Y10023856D01*
X1767433Y10026446D01*
X1769973Y10035895D01*
X1770430Y10040772D01*
X1771751Y10044938D01*
X1771751Y10046462D01*
X1770430Y10050627D01*
X1769973Y10055504D01*
X1767433Y10064953D01*
X1766265Y10067544D01*
X1765300Y10071862D01*
X1765300Y10095738D01*
X1766265Y10100056D01*
X1767433Y10102646D01*
X1769973Y10112095D01*
X1770430Y10116972D01*
X1771599Y10120884D01*
X1772412Y10121900D01*
X1771751Y10122662D01*
X1770430Y10126827D01*
X1769973Y10131704D01*
X1767433Y10141153D01*
X1766265Y10143744D01*
X1765300Y10148062D01*
X1765300Y10181082D01*
X1766062Y10184993D01*
X1768246Y10188244D01*
X1771548Y10190480D01*
X1775460Y10191242D01*
X1780539Y10191242D01*
X1784400Y10190480D01*
X1787702Y10188244D01*
X1789938Y10184993D01*
X1790700Y10181082D01*
X1790700Y10127742D01*
X1789734Y10123424D01*
X1788871Y10121900D01*
X1818893Y10121900D01*
X1818893Y10181082D01*
X1819656Y10184993D01*
X1821891Y10188244D01*
X1825193Y10190480D01*
X1829054Y10191242D01*
X1862683Y10191242D01*
X1866544Y10190480D01*
X1869846Y10188244D01*
X1872030Y10184993D01*
X1872843Y10181082D01*
X1872843Y10170769D01*
X1873554Y10164470D01*
X1874774Y10159187D01*
X1873554Y10153954D01*
X1872843Y10147604D01*
X1872843Y10120782D01*
X1873554Y10114432D01*
X1874774Y10109250D01*
X1873554Y10103967D01*
X1872843Y10097617D01*
X1872843Y10070795D01*
X1873554Y10064445D01*
X1874774Y10059162D01*
X1873554Y10053929D01*
X1872843Y10047630D01*
X1872843Y10020757D01*
X1873554Y10014458D01*
X1875434Y10008971D01*
X1878533Y10004094D01*
X1882648Y9999980D01*
X1887524Y9996932D01*
X1893011Y9995001D01*
X1899310Y9994290D01*
X1958086Y9994290D01*
X1965960Y9995255D01*
X1970227Y9994900D01*
X1973935Y9992817D01*
X1976475Y9989362D01*
X1977389Y9985197D01*
X1977389Y9932670D01*
X1976628Y9928758D01*
X1974392Y9925507D01*
X1971090Y9923272D01*
X1967230Y9922510D01*
X1863852Y9922510D01*
X1857552Y9921798D01*
X1850999Y9919512D01*
X1847799Y9918954D01*
G37*

%LPC*%
G36*
X1790700Y9998303D02*
G01*
X1792427Y9998303D01*
X1798726Y9999014D01*
X1804212Y10000945D01*
X1809089Y10003993D01*
X1813204Y10008108D01*
X1816303Y10012984D01*
X1818182Y10018471D01*
X1818893Y10024770D01*
X1818893Y10096500D01*
X1790700Y10096500D01*
X1790700Y10051542D01*
X1789734Y10047224D01*
X1788566Y10045700D01*
X1789734Y10044176D01*
X1790700Y10039858D01*
G37*

%LPD*%
G36*
X2151735Y9807498D02*
G01*
X2147824Y9808260D01*
X2144522Y9810496D01*
X2142337Y9813798D01*
X2141575Y9817658D01*
X2142337Y9821570D01*
X2144522Y9824872D01*
X2151380Y9831679D01*
X2157018Y9839706D01*
X2161133Y9848646D01*
X2163673Y9858095D01*
X2164537Y9867900D01*
X2163673Y9877704D01*
X2160930Y9887915D01*
X2160676Y9891572D01*
X2161692Y9895128D01*
X2163978Y9898075D01*
X2167128Y9900005D01*
X2170785Y9900716D01*
X2182723Y9900716D01*
X2189022Y9901428D01*
X2193290Y9902291D01*
X2197557Y9901428D01*
X2203856Y9900716D01*
X2210816Y9900716D01*
X2214727Y9899904D01*
X2217978Y9897719D01*
X2220214Y9894417D01*
X2220976Y9890556D01*
X2220976Y9824974D01*
X2221636Y9818725D01*
X2221179Y9814509D01*
X2219096Y9810851D01*
X2215642Y9808413D01*
X2211527Y9807498D01*
G37*

%LPD*%
G36*
X1498650Y9355328D02*
G01*
X1494282Y9355937D01*
X1490573Y9358325D01*
X1483969Y9364980D01*
X1475994Y9370618D01*
X1467053Y9374733D01*
X1457604Y9377273D01*
X1447800Y9378137D01*
X1437995Y9377273D01*
X1435709Y9376664D01*
X1432001Y9376359D01*
X1428445Y9377426D01*
X1425498Y9379661D01*
X1423568Y9382861D01*
X1422908Y9386468D01*
X1422908Y9422231D01*
X1423568Y9425838D01*
X1425498Y9428988D01*
X1428445Y9431274D01*
X1432001Y9432290D01*
X1435709Y9432036D01*
X1437995Y9431426D01*
X1447800Y9430562D01*
X1457604Y9431426D01*
X1467053Y9433966D01*
X1475994Y9438081D01*
X1484020Y9443720D01*
X1490980Y9450679D01*
X1496618Y9458706D01*
X1500733Y9467646D01*
X1503273Y9477095D01*
X1504137Y9486900D01*
X1503680Y9492030D01*
X1504289Y9496399D01*
X1506626Y9500108D01*
X1537868Y9531350D01*
X1541170Y9533534D01*
X1545031Y9534347D01*
X1584401Y9534347D01*
X1588109Y9533636D01*
X1591310Y9531654D01*
X1593545Y9528606D01*
X1594561Y9525000D01*
X1647342Y9525000D01*
X1648307Y9528606D01*
X1650542Y9531654D01*
X1653743Y9533636D01*
X1657451Y9534347D01*
X1662531Y9534347D01*
X1666239Y9533636D01*
X1669389Y9531654D01*
X1671675Y9528606D01*
X1672640Y9525000D01*
X1693418Y9525000D01*
X1697329Y9524238D01*
X1700631Y9522002D01*
X1702816Y9518751D01*
X1703578Y9514840D01*
X1703578Y9509760D01*
X1702816Y9505848D01*
X1700631Y9502597D01*
X1697329Y9500362D01*
X1693418Y9499600D01*
X1672691Y9499600D01*
X1672691Y9463582D01*
X1671726Y9458604D01*
X1670862Y9448800D01*
X1671726Y9438995D01*
X1674012Y9430359D01*
X1674317Y9426651D01*
X1673250Y9423095D01*
X1671015Y9420148D01*
X1667865Y9418218D01*
X1664207Y9417558D01*
X1612341Y9417558D01*
X1608429Y9418320D01*
X1605127Y9420555D01*
X1597304Y9428480D01*
X1589278Y9434118D01*
X1580388Y9438233D01*
X1570888Y9440773D01*
X1561084Y9441637D01*
X1551330Y9440773D01*
X1541830Y9438233D01*
X1532940Y9434118D01*
X1524863Y9428480D01*
X1517954Y9421520D01*
X1512316Y9413494D01*
X1508150Y9404553D01*
X1505610Y9395104D01*
X1504746Y9385300D01*
X1505610Y9375495D01*
X1507591Y9368078D01*
X1507794Y9363710D01*
X1506118Y9359646D01*
X1502816Y9356648D01*
G37*

%LPC*%
G36*
X1621078Y9459366D02*
G01*
X1647291Y9459366D01*
X1647291Y9499600D01*
X1594561Y9499600D01*
X1594561Y9485884D01*
X1595272Y9479534D01*
X1597202Y9474098D01*
X1600301Y9469170D01*
X1604365Y9465106D01*
X1609293Y9462008D01*
X1614728Y9460128D01*
G37*

%LPD*%
G36*
X2473299Y9350908D02*
G01*
X2469032Y9351822D01*
X2462733Y9352534D01*
X2453284Y9352534D01*
X2449169Y9353346D01*
X2445766Y9355785D01*
X2443632Y9359392D01*
X2443175Y9363557D01*
X2443937Y9372600D01*
X2443073Y9382353D01*
X2440228Y9392869D01*
X2439974Y9396679D01*
X2441092Y9400387D01*
X2443530Y9403334D01*
X2446934Y9405213D01*
X2451506Y9406686D01*
X2457450Y9410090D01*
X2461514Y9413595D01*
X2473553Y9425635D01*
X2478125Y9431274D01*
X2481173Y9437268D01*
X2482951Y9443923D01*
X2483358Y9449054D01*
X2483967Y9594342D01*
X2484780Y9598304D01*
X2487117Y9601657D01*
X2490520Y9603790D01*
X2494483Y9604451D01*
X2498445Y9603536D01*
X2508046Y9599066D01*
X2517495Y9596526D01*
X2527300Y9595662D01*
X2537866Y9596577D01*
X2541879Y9596120D01*
X2545384Y9594138D01*
X2547874Y9590989D01*
X2548890Y9587077D01*
X2548077Y9582353D01*
X2547366Y9576054D01*
X2547366Y9557156D01*
X2548077Y9550857D01*
X2548991Y9546590D01*
X2548077Y9542373D01*
X2547366Y9536023D01*
X2547366Y9517176D01*
X2548077Y9510826D01*
X2548991Y9506610D01*
X2548077Y9502343D01*
X2547366Y9496044D01*
X2547366Y9477197D01*
X2548077Y9470847D01*
X2548991Y9466580D01*
X2548077Y9462363D01*
X2547366Y9456013D01*
X2547366Y9437166D01*
X2548077Y9430867D01*
X2548991Y9426600D01*
X2548077Y9422333D01*
X2547366Y9416034D01*
X2547366Y9397187D01*
X2548077Y9390837D01*
X2548991Y9386620D01*
X2548077Y9382353D01*
X2547366Y9376054D01*
X2547366Y9362694D01*
X2546604Y9358782D01*
X2544419Y9355480D01*
X2541117Y9353296D01*
X2537206Y9352534D01*
X2523845Y9352534D01*
X2517546Y9351822D01*
X2513279Y9350908D01*
X2509062Y9351822D01*
X2502712Y9352534D01*
X2483866Y9352534D01*
X2477516Y9351822D01*
G37*

%LPD*%
G36*
X2171344Y9336227D02*
G01*
X2167788Y9337700D01*
X2164994Y9340392D01*
X2162454Y9343999D01*
X2161082Y9346742D01*
X2160574Y9352127D01*
X2153310Y9350908D01*
X2149043Y9351822D01*
X2142744Y9352534D01*
X2123846Y9352534D01*
X2117547Y9351822D01*
X2113280Y9350908D01*
X2109063Y9351822D01*
X2102713Y9352534D01*
X2083866Y9352534D01*
X2077516Y9351822D01*
X2073300Y9350908D01*
X2069033Y9351822D01*
X2062734Y9352534D01*
X2043887Y9352534D01*
X2037537Y9351822D01*
X2033270Y9350908D01*
X2029053Y9351822D01*
X2022703Y9352534D01*
X2009343Y9352534D01*
X2005482Y9353296D01*
X2002180Y9355480D01*
X1999996Y9358782D01*
X1999183Y9362694D01*
X1999183Y9376054D01*
X1998472Y9382353D01*
X1997608Y9386620D01*
X1998472Y9390837D01*
X1999183Y9397187D01*
X1999183Y9416034D01*
X1998472Y9422333D01*
X1997608Y9426600D01*
X1998472Y9430867D01*
X1999183Y9437166D01*
X1999183Y9456013D01*
X1998472Y9462363D01*
X1997608Y9466580D01*
X1998472Y9470847D01*
X1999183Y9477197D01*
X1999183Y9496044D01*
X1998472Y9502343D01*
X1997608Y9506610D01*
X1998472Y9510826D01*
X1999183Y9517176D01*
X1999183Y9536023D01*
X1998472Y9542373D01*
X1997608Y9546590D01*
X1998472Y9550857D01*
X1999183Y9557156D01*
X1999183Y9576054D01*
X1998472Y9582353D01*
X1997608Y9586620D01*
X1998472Y9590836D01*
X1999183Y9597186D01*
X1999183Y9616033D01*
X1998472Y9622332D01*
X1997608Y9626600D01*
X1998472Y9630867D01*
X1999183Y9637166D01*
X1999183Y9656013D01*
X1998472Y9662363D01*
X1997608Y9666579D01*
X1998472Y9670846D01*
X1999183Y9677196D01*
X1999183Y9696043D01*
X1998472Y9702342D01*
X1997608Y9706610D01*
X1998472Y9710826D01*
X1999183Y9717176D01*
X1999183Y9736023D01*
X1998472Y9742373D01*
X1997608Y9746589D01*
X1998472Y9750856D01*
X1999183Y9757156D01*
X1999183Y9764166D01*
X1999996Y9768027D01*
X2002180Y9771329D01*
X2005482Y9773564D01*
X2009343Y9774326D01*
X2046376Y9774326D01*
X2053589Y9775088D01*
X2059990Y9777171D01*
X2065934Y9780574D01*
X2069998Y9784029D01*
X2075078Y9789160D01*
X2078532Y9791395D01*
X2082546Y9792106D01*
X2086559Y9791141D01*
X2089861Y9788702D01*
X2091893Y9785146D01*
X2092401Y9781032D01*
X2092401Y9639300D01*
X2260600Y9639300D01*
X2260600Y9762185D01*
X2261412Y9766147D01*
X2263698Y9769500D01*
X2267153Y9771684D01*
X2271166Y9772345D01*
X2276246Y9772142D01*
X2280005Y9771227D01*
X2283155Y9769043D01*
X2285238Y9765792D01*
X2286000Y9761982D01*
X2286000Y9639300D01*
X2409444Y9639300D01*
X2413355Y9638538D01*
X2416657Y9636302D01*
X2418842Y9633000D01*
X2419604Y9629089D01*
X2419604Y9624009D01*
X2418791Y9620148D01*
X2416606Y9616846D01*
X2413304Y9614662D01*
X2409444Y9613900D01*
X2286000Y9613900D01*
X2286000Y9489033D01*
X2285390Y9485680D01*
X2283764Y9482683D01*
X2281174Y9480397D01*
X2278024Y9479127D01*
X2272944Y9478010D01*
X2268423Y9478060D01*
X2264359Y9480042D01*
X2261565Y9483547D01*
X2260600Y9487966D01*
X2260600Y9613900D01*
X2092401Y9613900D01*
X2092401Y9472168D01*
X2093112Y9465868D01*
X2094992Y9460382D01*
X2098090Y9455505D01*
X2102154Y9451390D01*
X2107082Y9448342D01*
X2112518Y9446412D01*
X2118868Y9445701D01*
X2220620Y9445701D01*
X2224735Y9444837D01*
X2228138Y9442348D01*
X2230272Y9438741D01*
X2230729Y9434576D01*
X2229662Y9423349D01*
X2230526Y9413595D01*
X2233066Y9404146D01*
X2237181Y9395206D01*
X2242820Y9387179D01*
X2252675Y9377578D01*
X2254199Y9374682D01*
X2254707Y9371482D01*
X2254707Y9362694D01*
X2253996Y9358985D01*
X2252065Y9355836D01*
X2249119Y9353600D01*
X2245512Y9352534D01*
X2237486Y9351772D01*
X2233269Y9350908D01*
X2229053Y9351822D01*
X2222703Y9352534D01*
X2203856Y9352534D01*
X2197557Y9351822D01*
X2193290Y9350908D01*
X2185974Y9352127D01*
X2185517Y9346742D01*
X2184146Y9343999D01*
X2181606Y9340392D01*
X2178812Y9337700D01*
X2175205Y9336227D01*
G37*

%LPD*%
G36*
X1850136Y9150502D02*
G01*
X1846478Y9151467D01*
X1843481Y9153753D01*
X1841500Y9156954D01*
X1840077Y9167825D01*
X1838147Y9173311D01*
X1836013Y9176664D01*
X1834642Y9180169D01*
X1834642Y9183979D01*
X1836013Y9187484D01*
X1838147Y9190888D01*
X1840077Y9196324D01*
X1840788Y9202623D01*
X1840788Y9256522D01*
X1840077Y9262821D01*
X1838147Y9268307D01*
X1835048Y9273184D01*
X1831289Y9276994D01*
X1829054Y9280296D01*
X1828292Y9284157D01*
X1829054Y9288068D01*
X1831289Y9291370D01*
X1867611Y9327743D01*
X1870913Y9329928D01*
X1874824Y9330690D01*
X1967230Y9330690D01*
X1971090Y9329928D01*
X1974392Y9327743D01*
X1976628Y9324441D01*
X1977389Y9320530D01*
X1977389Y9217152D01*
X1977999Y9211919D01*
X1977542Y9207703D01*
X1975459Y9203994D01*
X1972056Y9201505D01*
X1967890Y9200642D01*
X1890674Y9200642D01*
X1884324Y9199930D01*
X1878888Y9198000D01*
X1873961Y9194901D01*
X1869897Y9190837D01*
X1866798Y9185910D01*
X1864918Y9180474D01*
X1864207Y9174124D01*
X1864207Y9161576D01*
X1863293Y9157360D01*
X1860753Y9153956D01*
X1856993Y9151874D01*
X1853895Y9150908D01*
G37*

%LPD*%
G36*
X2718968Y9144508D02*
G01*
X2715056Y9145270D01*
X2711754Y9147505D01*
X2709570Y9150756D01*
X2708808Y9154668D01*
X2708808Y9182100D01*
X2688082Y9182100D01*
X2684170Y9182862D01*
X2680868Y9185097D01*
X2678684Y9188348D01*
X2677922Y9192260D01*
X2677922Y9197340D01*
X2678684Y9201251D01*
X2680868Y9204502D01*
X2684170Y9206738D01*
X2688082Y9207500D01*
X2708808Y9207500D01*
X2708808Y9247682D01*
X2682544Y9247682D01*
X2676245Y9246971D01*
X2670352Y9244939D01*
X2667000Y9244380D01*
X2663647Y9244939D01*
X2657754Y9246971D01*
X2651404Y9247682D01*
X2579370Y9247682D01*
X2575458Y9248495D01*
X2572156Y9250680D01*
X2569972Y9253982D01*
X2569210Y9257842D01*
X2569210Y9320530D01*
X2569972Y9324441D01*
X2572156Y9327743D01*
X2575458Y9329928D01*
X2579370Y9330690D01*
X2682697Y9330690D01*
X2689047Y9331401D01*
X2694482Y9333331D01*
X2699410Y9336379D01*
X2703474Y9340494D01*
X2706827Y9345777D01*
X2709265Y9348470D01*
X2712516Y9350095D01*
X2716123Y9350502D01*
X2719628Y9349638D01*
X2722626Y9347555D01*
X2822244Y9247936D01*
X2824480Y9244634D01*
X2825242Y9240723D01*
X2825242Y9168892D01*
X2824581Y9165234D01*
X2822651Y9162084D01*
X2819704Y9159849D01*
X2816148Y9158782D01*
X2812440Y9159087D01*
X2803804Y9161373D01*
X2796184Y9162034D01*
X2792577Y9163050D01*
X2789580Y9165336D01*
X2787599Y9168485D01*
X2786888Y9172194D01*
X2786888Y9182100D01*
X2734208Y9182100D01*
X2734208Y9154668D01*
X2733446Y9150756D01*
X2731211Y9147505D01*
X2727909Y9145270D01*
X2724048Y9144508D01*
G37*

%LPC*%
G36*
X2734208Y9207500D02*
G01*
X2786888Y9207500D01*
X2786888Y9221216D01*
X2786176Y9227566D01*
X2784297Y9233001D01*
X2781198Y9237929D01*
X2777134Y9241993D01*
X2772206Y9245092D01*
X2766771Y9246971D01*
X2760421Y9247682D01*
X2734208Y9247682D01*
G37*

%LPD*%
G36*
X1784807Y9091625D02*
G01*
X1780946Y9092387D01*
X1777644Y9094571D01*
X1775460Y9097873D01*
X1774647Y9101785D01*
X1774647Y9121902D01*
X1755952Y9121902D01*
X1752041Y9122664D01*
X1748739Y9124848D01*
X1746554Y9128150D01*
X1745792Y9132062D01*
X1745792Y9137142D01*
X1746554Y9141002D01*
X1748739Y9144304D01*
X1752041Y9146540D01*
X1755952Y9147302D01*
X1774647Y9147302D01*
X1774647Y9165996D01*
X1775460Y9169908D01*
X1777644Y9173210D01*
X1780946Y9175394D01*
X1784807Y9176156D01*
X1789887Y9176156D01*
X1793798Y9175394D01*
X1797100Y9173210D01*
X1799285Y9169908D01*
X1800047Y9165996D01*
X1800047Y9147302D01*
X1820164Y9147302D01*
X1824075Y9146540D01*
X1827377Y9144304D01*
X1829562Y9141002D01*
X1830324Y9137142D01*
X1829562Y9133230D01*
X1827377Y9129928D01*
X1822297Y9124848D01*
X1818995Y9122664D01*
X1815084Y9121902D01*
X1800047Y9121902D01*
X1800047Y9106865D01*
X1799285Y9102953D01*
X1797100Y9099651D01*
X1792020Y9094571D01*
X1788718Y9092387D01*
G37*

%LPD*%
D10*
X2628391Y9686544D02*
G01*
X2714243Y9686544D01*
X2794000Y9766300D01*
X2819400Y9766300D01*
X3073400Y9512300D01*
X2628391Y9726676D02*
G01*
X2703575Y9726676D01*
X2781300Y9804400D01*
X2870200Y9804400D01*
X3073400Y9601200D01*
X2628391Y9766554D02*
G01*
X2692654Y9766554D01*
X2768600Y9842500D01*
X2921000Y9842500D01*
X3073400Y9690100D01*
X2628391Y9606534D02*
G01*
X2685034Y9606534D01*
X2768600Y9690100D01*
X2794000Y9690100D01*
D11*
X3073400Y9423400D02*
G01*
X3073400Y8775700D01*
X3073400Y7810500D01*
X3009900Y9347200D02*
G01*
X3009900Y8293100D01*
X3009900Y7874000D01*
D12*
X3276600Y10007600D02*
G01*
X3276600Y7416800D01*
X3276600Y6819900D02*
G01*
X3276600Y6510629D01*
X3276600Y6223000D02*
G01*
X3276600Y6510629D01*
D11*
X3175000Y5981700D02*
G01*
X3175000Y5892800D01*
X3378200Y5981700D02*
G01*
X3378200Y5892800D01*
X3467100Y3644900D02*
G01*
X3467100Y9512300D01*
X1295400Y1816100D02*
G01*
X1295400Y3683000D01*
X2990799Y1816100D02*
G01*
X2997200Y1816100D01*
X3136900Y1955800D01*
X3136900Y3556000D01*
X2990799Y2324100D02*
G01*
X2990799Y2330399D01*
X3073400Y2413000D01*
X3073400Y3619500D01*
D12*
X2683494Y3216894D02*
G01*
X2683494Y3889994D01*
X2971800Y4178300D01*
X2971800Y6223000D01*
D11*
X3594100Y9690100D02*
G01*
X3594100Y3556000D01*
X3530600Y9601200D02*
G01*
X3530600Y3619500D01*
X2850895Y10375900D02*
G01*
X2850895Y10476992D01*
X3136900Y9880600D02*
G01*
X3136900Y10375900D01*
D10*
X2832100Y9283700D02*
G01*
X2857500Y9258300D01*
X2857500Y8978900D01*
X2667000Y8788400D01*
D12*
X2425700Y4414446D02*
G01*
X2783867Y4414446D01*
X2794000Y4424578D01*
D11*
X1160272Y7578597D02*
G01*
X1160272Y7564628D01*
X1295400Y7429500D01*
X1295400Y6959600D01*
X1536700Y7023100D02*
G01*
X1536700Y7446898D01*
X1668297Y7578496D01*
X1663700Y8051800D02*
G01*
X1663700Y7583093D01*
X1668297Y7578496D01*
X2501900Y8479891D02*
G01*
X2501900Y8382000D01*
X2660904Y8394445D02*
G01*
X2660904Y8464295D01*
X2645409Y8479789D01*
X2501900Y8479789D01*
X2679700Y2540000D02*
G01*
X2679700Y3213100D01*
X2683497Y3216897D01*
X1409700Y2756763D02*
G01*
X1409700Y2540000D01*
X1663700Y2756763D02*
G01*
X1663700Y2540000D01*
X1790529Y6503263D02*
G01*
X1790700Y6513766D01*
X1790700Y6819900D01*
X1917700Y6503263D02*
G01*
X1663700Y6503263D01*
X622300Y9626600D02*
G01*
X622300Y3886200D01*
X558800Y9690100D02*
G01*
X558800Y3822700D01*
X1663700Y3886200D02*
G01*
X1663700Y3220689D01*
X1667494Y3216894D01*
X1409700Y3822700D02*
G01*
X1409700Y3220697D01*
X1413494Y3216894D01*
X1663700Y2907436D02*
G01*
X1663700Y3213100D01*
X1667497Y3216897D01*
X1409700Y2907436D02*
G01*
X1409700Y3213100D01*
X1413494Y3216894D01*
X1663700Y6653936D02*
G01*
X1663700Y7182680D01*
X1667492Y7186472D01*
X1917700Y6653936D02*
G01*
X1917700Y7182680D01*
X1921492Y7186472D01*
X1295400Y6653936D02*
G01*
X1295400Y6959600D01*
D12*
X2429497Y3216897D02*
G01*
X2425700Y3220694D01*
X2425700Y4043756D01*
X2794000Y4922697D02*
G01*
X2794000Y4617821D01*
X2794000Y5262702D02*
G01*
X2794000Y5935847D01*
X2795402Y5937250D01*
D10*
X1918281Y9646592D02*
G01*
X1340792Y9646592D01*
X1320800Y9626600D01*
X1918281Y9686602D02*
G01*
X1260797Y9686602D01*
X1257300Y9690100D01*
D11*
X1390904Y10706709D02*
G01*
X1385900Y10711713D01*
X1385900Y11350548D01*
X1580895Y10706709D02*
G01*
X1585899Y10711713D01*
X1585899Y11350548D01*
X2660904Y10706709D02*
G01*
X2655900Y10711713D01*
X2655900Y11350548D01*
X2850895Y10706709D02*
G01*
X2855899Y10711713D01*
X2855899Y11350548D01*
D12*
X2565400Y5937250D02*
G01*
X2565400Y6223000D01*
D11*
X1765300Y8609736D02*
G01*
X1765300Y8928094D01*
X1765300Y8459061D02*
G01*
X1775061Y8449307D01*
X1955800Y8449307D01*
X2755900Y8293100D02*
G01*
X2755900Y8394445D01*
X2850895Y8394395D02*
G01*
X2850895Y8293100D01*
X2850895Y8674404D02*
G01*
X2850895Y8775700D01*
D10*
X2660904Y8674404D02*
G01*
X2660904Y8782304D01*
X2666997Y8788397D01*
X2628391Y9406638D02*
G01*
X2709169Y9406638D01*
X2832105Y9283700D01*
D12*
X1409700Y6819900D02*
G01*
X1409700Y7182612D01*
X1413507Y7186419D01*
X3276600Y7416800D02*
G01*
X3276600Y6819900D01*
X2679700Y7416800D02*
G01*
X2679700Y7574023D01*
X2684277Y7578600D01*
D11*
X1485900Y10706707D02*
G01*
X1485900Y10894827D01*
X1484127Y10896600D01*
X2755900Y10706707D02*
G01*
X2755900Y10894827D01*
X2754127Y10896600D01*
X1930400Y7747000D02*
G01*
X1930400Y7586598D01*
X1922297Y7578496D01*
X3136900Y9753600D02*
G01*
X3136900Y7747000D01*
X2429509Y7186421D02*
G01*
X2429509Y7023100D01*
X2933700Y6959600D02*
G01*
X2933700Y7182680D01*
X2937492Y7186472D01*
X2184400Y7327900D02*
G01*
X2184400Y7195312D01*
X2175509Y7186421D01*
X1922272Y7578597D02*
G01*
X1922272Y7327900D01*
X2438400Y7810500D02*
G01*
X2438400Y7586598D01*
X2430297Y7578496D01*
X2184400Y7874000D02*
G01*
X2184400Y7586598D01*
X2176297Y7578496D01*
X1663700Y7442200D02*
G01*
X1663700Y7190265D01*
X1667492Y7186472D01*
X2430297Y7578496D02*
G01*
X2430297Y7442200D01*
X2176297Y7578496D02*
G01*
X2176297Y7441277D01*
X1921492Y7186472D01*
X1422400Y7988300D02*
G01*
X1422400Y7586593D01*
X1414302Y7578496D01*
X1028700Y9486900D02*
G01*
X1028700Y7988300D01*
X1092200Y9766300D02*
G01*
X1092200Y8051800D01*
X2552700Y8178800D02*
G01*
X2552700Y7317226D01*
X2683507Y7186419D01*
X1384300Y9563100D02*
G01*
X1384300Y8178800D01*
X1160297Y7578496D02*
G01*
X1160297Y9321800D01*
D12*
X3276600Y10007600D02*
G01*
X3276600Y10896600D01*
D10*
X1676400Y9897107D02*
G01*
X1676400Y9918700D01*
X1627248Y9967843D01*
X1627248Y10034196D01*
X1600200Y9791700D02*
G01*
X1603908Y9787991D01*
X1778012Y9787991D01*
X1600200Y9791700D02*
G01*
X1603908Y9787991D01*
X1676412Y9787991D01*
D11*
X2293305Y9271601D02*
G01*
X2293305Y9416094D01*
X2286000Y9423400D01*
D10*
X1918294Y9846586D02*
G01*
X1997991Y9846586D01*
X2019300Y9867900D01*
X1714500Y9969500D02*
G01*
X1714500Y9931400D01*
X1748792Y9897107D01*
X1778000Y9897107D01*
X1714500Y9969500D02*
G01*
X1714500Y9935207D01*
X1676400Y9897107D01*
X2213322Y9981598D02*
G01*
X2213322Y10105671D01*
X2209800Y10109200D01*
X1627248Y10084208D02*
G01*
X1675991Y10084208D01*
X1714500Y10045700D01*
X1627248Y10134191D02*
G01*
X1702196Y10134191D01*
X1714500Y10121900D01*
X1928738Y10134191D02*
G01*
X2006983Y10134191D01*
X2093305Y10047876D01*
X2093305Y9981598D01*
X1928738Y10034196D02*
G01*
X2013211Y10034196D01*
X2013211Y9981692D01*
X2333302Y9981598D02*
G01*
X2333302Y9889802D01*
X2311400Y9867887D01*
X2293305Y9981598D02*
G01*
X2293305Y9885994D01*
X2311400Y9867887D01*
X2253234Y9981692D02*
G01*
X2253234Y9824460D01*
X2273300Y9804400D01*
X2453134Y9804400D01*
D11*
X2628305Y9886584D02*
G01*
X2685689Y9886584D01*
X2717800Y9918700D01*
X2717800Y10080091D01*
X2616200Y10080091D02*
G01*
X2717800Y10080091D01*
X2616200Y10189108D02*
G01*
X2717800Y10189108D01*
D10*
X2565400Y9105900D02*
G01*
X2612491Y9152991D01*
X2612491Y9194800D01*
X2333302Y9271601D02*
G01*
X2333302Y9144000D01*
X2371191Y9106110D01*
X2371191Y9093200D01*
X2373312Y9271601D02*
G01*
X2373312Y9358312D01*
X2387600Y9372600D01*
X2253294Y9271601D02*
G01*
X2253294Y9174782D01*
X2193206Y9114706D01*
X2180109Y9114706D01*
D11*
X1756308Y9004287D02*
G01*
X1866727Y9114706D01*
X1960090Y9114706D01*
X1765300Y8928100D02*
G01*
X1765300Y8995463D01*
X1756407Y9004355D01*
X2527300Y9867887D02*
G01*
X2527300Y9652000D01*
D10*
X1928738Y10084208D02*
G01*
X2006191Y10084208D01*
X2053269Y10037117D01*
X2053269Y9981598D01*
X1841500Y10109200D02*
G01*
X1841500Y10157612D01*
X1868091Y10184203D01*
X1928726Y10184203D01*
X2133302Y9981692D02*
G01*
X2133302Y10058145D01*
X1967941Y10223500D01*
X1714500Y10223500D01*
X1675208Y10184203D01*
X1627248Y10184203D01*
D11*
X2453269Y9981598D02*
G01*
X2453269Y10058387D01*
X2416708Y10094955D01*
X2416708Y10096500D01*
D10*
X1918281Y9806576D02*
G01*
X2046894Y9806576D01*
X2108200Y9867887D01*
X2628391Y9526531D02*
G01*
X2629928Y9525000D01*
X2802991Y9525000D01*
X2794000Y9613900D02*
G01*
X2802991Y9604908D01*
X2802991Y9525000D01*
X1565808Y9232900D02*
G01*
X1569120Y9229582D01*
X1692374Y9229582D01*
X1574800Y9156700D02*
G01*
X1574800Y9232900D01*
X1565808Y9232900D01*
X2173226Y9271508D02*
G01*
X2173226Y9348731D01*
X2209800Y9385300D01*
X2209800Y9423400D01*
X1727200Y9448800D02*
G01*
X1769008Y9490608D01*
X1769008Y9512300D01*
X1918281Y9526600D02*
G01*
X1830400Y9526600D01*
X1816100Y9512300D01*
X1769008Y9512300D01*
D11*
X2565400Y9105900D02*
G01*
X2794000Y9105900D01*
X1787400Y9134574D02*
G01*
X1787400Y9115300D01*
X1752600Y9080500D01*
D10*
X2173226Y9981692D02*
G01*
X2173226Y10069568D01*
X2133600Y10109200D01*
X2133600Y10147300D01*
X1918208Y9366504D02*
G01*
X1860798Y9366504D01*
X1787400Y9293100D01*
X1787400Y9229600D01*
D11*
X2616200Y9956800D02*
G01*
X2616200Y10080091D01*
D13*
X2493291Y9981598D02*
G01*
X2493291Y10168613D01*
X2463800Y10198100D01*
X2416708Y10198100D01*
D11*
X1787400Y9134599D02*
G01*
X1806699Y9134599D01*
X1854200Y9182100D01*
X1854200Y9207500D01*
X1923293Y9276575D01*
X2293365Y9271546D02*
G01*
X2293365Y8991600D01*
X2371191Y8991600D01*
D10*
X2453380Y9271508D02*
G01*
X2453380Y9217911D01*
X2476500Y9182100D01*
X2612392Y9182100D01*
X2612392Y9194800D01*
D11*
X2416807Y10198100D02*
G01*
X2416807Y10240007D01*
X2451100Y10274300D01*
D10*
X2362200Y9436100D02*
G01*
X2438400Y9436100D01*
X2451100Y9448800D01*
X2453380Y9981692D01*
X2333241Y9271508D02*
G01*
X2333241Y9394446D01*
X2362200Y9436100D01*
X2413309Y9271601D02*
G01*
X2413000Y9176382D01*
X1777987Y9896995D02*
G01*
X1788393Y9886584D01*
X1918294Y9886584D01*
D11*
X2159000Y9652000D02*
G01*
X2159000Y9829800D01*
X2197100Y9867900D01*
X2209800Y9423400D02*
G01*
X2159000Y9474200D01*
X2159000Y9512300D01*
X1659991Y9512300D02*
G01*
X1612900Y9512300D01*
X1562100Y9461500D01*
X2533289Y9981598D02*
G01*
X2533289Y10192103D01*
X2451100Y10274300D01*
D10*
X1918281Y9606582D02*
G01*
X1427782Y9606582D01*
X1384300Y9563100D01*
X1918281Y9566584D02*
G01*
X1527484Y9566584D01*
X1447800Y9486900D01*
X1918281Y9406587D02*
G01*
X1850082Y9406587D01*
X1765300Y9321800D01*
X1447800Y9321800D01*
X1918281Y9726599D02*
G01*
X1538300Y9726599D01*
X1498600Y9766300D01*
D11*
X838200Y10045700D02*
G01*
X838200Y8839200D01*
X901700Y9982200D02*
G01*
X901700Y8775700D01*
X3073400Y10312400D02*
G01*
X3073400Y9817100D01*
X1384300Y10045700D02*
G01*
X1390898Y10052298D01*
X1390898Y10476892D01*
X2667000Y10312400D02*
G01*
X2660898Y10318501D01*
X2660898Y10476892D01*
X1485900Y9982200D02*
G01*
X1485900Y10261600D01*
X1580901Y10356595D01*
X1580901Y10476992D01*
X1231900Y8293100D02*
G01*
X1231900Y9385300D01*
D10*
X2628391Y9446511D02*
G01*
X2720080Y9446511D01*
X2819394Y9347200D01*
X2857500Y9347200D01*
X2628391Y9486645D02*
G01*
X2730748Y9486645D01*
X2793994Y9423400D01*
X2857500Y9423400D01*
X1918208Y9446511D02*
G01*
X1826519Y9446511D01*
X1765300Y9385300D01*
X1561084Y9385300D01*
D14*
G01*
X2794000Y4424578D03*
D15*
G01*
X2793996Y4617826D03*
D16*
G01*
X2425700Y4414433D03*
D17*
G01*
X2425700Y4043756D03*
D18*
G01*
X2794000Y4922697D03*
G01*
X2794000Y5262702D03*
D19*
G01*
X1917700Y6503275D03*
D20*
G01*
X1917700Y6653936D03*
D19*
G01*
X1663700Y6503275D03*
D20*
G01*
X1663700Y6653936D03*
D19*
G01*
X1663700Y2756775D03*
D20*
G01*
X1663700Y2907436D03*
D19*
G01*
X1409700Y2756775D03*
D20*
G01*
X1409700Y2907436D03*
D21*
G01*
X1390904Y10476890D03*
G01*
X1485900Y10476890D03*
G01*
X1580895Y10476890D03*
G01*
X1580895Y10706709D03*
G01*
X1485900Y10706709D03*
G01*
X1390904Y10706709D03*
D22*
G01*
X1585899Y11350548D03*
G01*
X1485900Y11350548D03*
G01*
X1385900Y11350548D03*
D23*
G01*
X1255902Y11738051D03*
G01*
X1715897Y11738051D03*
D24*
G01*
X2616197Y10189108D03*
D25*
G01*
X2616200Y10080091D03*
D26*
G01*
X2307691Y10096502D03*
G01*
X2416703Y10096502D03*
D24*
G01*
X2717797Y10080096D03*
D25*
G01*
X2717800Y10189108D03*
D27*
G01*
X1960100Y8944711D03*
G01*
X2180099Y8944711D03*
D28*
G01*
X2180107Y9114713D03*
D29*
G01*
X1960100Y9114713D03*
D26*
G01*
X1647294Y9004300D03*
G01*
X1756305Y9004300D03*
G01*
X2371191Y8991602D03*
G01*
X2480203Y8991602D03*
G01*
X2371191Y9093202D03*
G01*
X2480203Y9093202D03*
D30*
G01*
X1918284Y9886594D03*
G01*
X1918284Y9846589D03*
G01*
X1918284Y9806584D03*
G01*
X1918284Y9766579D03*
G01*
X1918284Y9726599D03*
G01*
X1918284Y9686594D03*
G01*
X1918284Y9646589D03*
G01*
X1918284Y9606584D03*
G01*
X1918284Y9566579D03*
G01*
X1918284Y9526600D03*
G01*
X1918284Y9486595D03*
G01*
X1918284Y9446590D03*
G01*
X1918284Y9406585D03*
G01*
X1918284Y9366580D03*
D31*
G01*
X2013305Y9271609D03*
G01*
X2053285Y9271609D03*
G01*
X2093290Y9271609D03*
G01*
X2133295Y9271609D03*
G01*
X2173300Y9271609D03*
G01*
X2213305Y9271609D03*
G01*
X2253284Y9271609D03*
G01*
X2293289Y9271609D03*
G01*
X2333294Y9271609D03*
G01*
X2373299Y9271609D03*
G01*
X2413304Y9271609D03*
G01*
X2453284Y9271609D03*
G01*
X2493289Y9271609D03*
G01*
X2533294Y9271609D03*
D30*
G01*
X2628315Y9366580D03*
G01*
X2628315Y9406585D03*
G01*
X2628315Y9446590D03*
G01*
X2628315Y9486595D03*
G01*
X2628315Y9526600D03*
G01*
X2628315Y9566579D03*
G01*
X2628315Y9606584D03*
G01*
X2628315Y9646589D03*
G01*
X2628315Y9686594D03*
G01*
X2628315Y9726599D03*
G01*
X2628315Y9766579D03*
G01*
X2628315Y9806584D03*
G01*
X2628315Y9846589D03*
G01*
X2628315Y9886594D03*
D31*
G01*
X2533294Y9981590D03*
G01*
X2493289Y9981590D03*
G01*
X2453284Y9981590D03*
G01*
X2413304Y9981590D03*
G01*
X2373299Y9981590D03*
G01*
X2333294Y9981590D03*
G01*
X2293289Y9981590D03*
G01*
X2253284Y9981590D03*
G01*
X2213305Y9981590D03*
G01*
X2173300Y9981590D03*
G01*
X2133295Y9981590D03*
G01*
X2093290Y9981590D03*
G01*
X2053285Y9981590D03*
G01*
X2013305Y9981590D03*
D32*
G01*
X2273300Y9626600D03*
D33*
G01*
X2416703Y10198102D03*
G01*
X2307691Y10198102D03*
D26*
G01*
X2612491Y9194802D03*
G01*
X2721503Y9194802D03*
G01*
X2802994Y9525000D03*
G01*
X2912005Y9525000D03*
D34*
G01*
X1928749Y10034193D03*
G01*
X1928749Y10084206D03*
G01*
X1928749Y10134193D03*
G01*
X1928749Y10184206D03*
G01*
X1627250Y10034193D03*
G01*
X1627250Y10084206D03*
G01*
X1627250Y10134193D03*
G01*
X1627250Y10184206D03*
D35*
G01*
X1778000Y10109200D03*
D24*
G01*
X1778000Y9897003D03*
D25*
G01*
X1778000Y9787991D03*
D24*
G01*
X1676400Y9897003D03*
D25*
G01*
X1676400Y9787991D03*
D33*
G01*
X1769003Y9512302D03*
G01*
X1659991Y9512302D03*
G01*
X1565803Y9232902D03*
G01*
X1456791Y9232902D03*
D36*
G01*
X1787397Y9134576D03*
G01*
X1787397Y9229597D03*
G01*
X1692376Y9229597D03*
G01*
X1692376Y9134576D03*
D37*
G01*
X1955800Y8449310D03*
G01*
X1955800Y8619489D03*
D22*
G01*
X2855899Y11350548D03*
G01*
X2755900Y11350548D03*
G01*
X2655900Y11350548D03*
D23*
G01*
X2525902Y11738051D03*
G01*
X2985897Y11738051D03*
D38*
G01*
X2335402Y5937250D03*
G01*
X2565400Y5937250D03*
G01*
X2795397Y5937250D03*
D39*
G01*
X2565400Y6508750D03*
D21*
G01*
X2660904Y10476890D03*
G01*
X2755900Y10476890D03*
G01*
X2850895Y10476890D03*
G01*
X2850895Y10706709D03*
G01*
X2755900Y10706709D03*
G01*
X2660904Y10706709D03*
D19*
G01*
X1765300Y8609724D03*
D20*
G01*
X1765300Y8459063D03*
D19*
G01*
X1295400Y6503275D03*
D20*
G01*
X1295400Y6653936D03*
D40*
G01*
X3276600Y6510624D03*
D41*
G01*
X3276600Y5808370D03*
D42*
G01*
X2660904Y8674404D03*
G01*
X2755900Y8674404D03*
G01*
X2850895Y8674404D03*
G01*
X2850895Y8394395D03*
G01*
X2755900Y8394395D03*
G01*
X2660904Y8394395D03*
D24*
G01*
X2501900Y8479894D03*
D25*
G01*
X2501900Y8588908D03*
D43*
G01*
X2937497Y3216897D03*
D44*
G01*
X2683497Y3216897D03*
G01*
X2429497Y3216897D03*
G01*
X2175497Y3216897D03*
G01*
X1921497Y3216897D03*
G01*
X1667497Y3216897D03*
G01*
X1413497Y3216897D03*
G01*
X1159497Y3216897D03*
D45*
G01*
X2938294Y7578498D03*
D44*
G01*
X2684297Y7578496D03*
G01*
X2430297Y7578496D03*
G01*
X2176297Y7578496D03*
G01*
X1922297Y7578496D03*
G01*
X1668297Y7578496D03*
G01*
X1414297Y7578496D03*
G01*
X1160297Y7578496D03*
D45*
G01*
X1159494Y7186470D03*
D44*
G01*
X1413492Y7186472D03*
G01*
X1667492Y7186472D03*
G01*
X1921492Y7186472D03*
G01*
X2175492Y7186472D03*
G01*
X2429492Y7186472D03*
G01*
X2683492Y7186472D03*
G01*
X2937492Y7186472D03*
D46*
G01*
X2990799Y1562100D03*
D44*
G01*
X2990799Y1816100D03*
G01*
X2990799Y2070100D03*
G01*
X2990799Y2324100D03*
G01*
X958799Y2324100D03*
G01*
X958799Y1562100D03*
G01*
X958799Y1816100D03*
G01*
X958799Y2070100D03*
D47*
G01*
X2755897Y11226797D03*
G01*
X1485897Y11226797D03*
G01*
X1561106Y9385297D03*
G01*
X1231897Y9385297D03*
G01*
X1231897Y8293097D03*
G01*
X2755897Y10375897D03*
G01*
X1485897Y10375897D03*
G01*
X2641597Y9283697D03*
G01*
X2895597Y9613897D03*
G01*
X3073397Y10312397D03*
G01*
X2666997Y10312397D03*
G01*
X3276600Y6223000D03*
G01*
X2565400Y6223000D03*
G01*
X3378200Y5981700D03*
G01*
X3276600Y5981700D03*
G01*
X3175000Y5981700D03*
G01*
X901697Y9982197D03*
G01*
X1485897Y9982197D03*
G01*
X901697Y8775697D03*
G01*
X838197Y10045697D03*
G01*
X1384297Y10045697D03*
G01*
X838197Y8839197D03*
G01*
X2793997Y9690097D03*
G01*
X3073397Y9817097D03*
G01*
X3136897Y9880597D03*
G01*
X3276597Y10896597D03*
G01*
X2754119Y10896597D03*
G01*
X3009897Y9347197D03*
G01*
X3073397Y9423397D03*
G01*
X2857497Y9347197D03*
G01*
X2857497Y9423397D03*
G01*
X1092197Y9766297D03*
G01*
X1498597Y9766297D03*
G01*
X1447797Y9321797D03*
G01*
X1028697Y9486897D03*
G01*
X2044697Y9715497D03*
G01*
X1923285Y9276610D03*
G01*
X2489197Y9397997D03*
G01*
X2616197Y9956797D03*
G01*
X2793997Y9105897D03*
G01*
X1574797Y9156697D03*
G01*
X2793997Y9613897D03*
G01*
X1612897Y10261597D03*
G01*
X2209797Y10198097D03*
G01*
X2387597Y9651997D03*
G01*
X2158997Y9651997D03*
G01*
X2158997Y9512297D03*
G01*
X2387597Y9512297D03*
G01*
X2527297Y9651997D03*
G01*
X1727197Y9448797D03*
G01*
X1600197Y9791697D03*
G01*
X1854197Y9991392D03*
G01*
X2108197Y9867897D03*
G01*
X2019297Y9867897D03*
G01*
X1714497Y9969497D03*
G01*
X1841497Y10109197D03*
G01*
X2209797Y10109197D03*
G01*
X2133597Y10147297D03*
G01*
X1714497Y10045697D03*
G01*
X1714497Y10121897D03*
G01*
X2285997Y9423397D03*
G01*
X2311397Y9867897D03*
G01*
X2451097Y10274297D03*
G01*
X2412997Y9176382D03*
G01*
X2387597Y9372597D03*
G01*
X2565397Y9105897D03*
G01*
X1765297Y8928097D03*
G01*
X2527297Y9867897D03*
G01*
X2209797Y9423397D03*
G01*
X2197097Y9867897D03*
G01*
X2311397Y8902697D03*
G01*
X1447797Y9486897D03*
G01*
X1384297Y9563097D03*
G01*
X1320797Y9626597D03*
G01*
X1257297Y9690097D03*
G01*
X1485897Y9105897D03*
G01*
X1562097Y9461497D03*
G01*
X3276597Y10007597D03*
D48*
G01*
X1160297Y9321800D03*
G01*
X1384300Y8178800D03*
G01*
X2552700Y8178800D03*
G01*
X1092200Y8051800D03*
G01*
X1663700Y8051800D03*
G01*
X1028700Y7988300D03*
G01*
X1422400Y7988300D03*
G01*
X2430302Y7442200D03*
G01*
X1663700Y7442200D03*
G01*
X3009900Y7874000D03*
G01*
X2184400Y7874000D03*
G01*
X3073400Y7810500D03*
G01*
X2438400Y7810500D03*
G01*
X1922302Y7327900D03*
G01*
X2184400Y7327900D03*
G01*
X1295400Y6959600D03*
G01*
X2933700Y6959600D03*
G01*
X2429494Y7023100D03*
G01*
X1536700Y7023100D03*
G01*
X3136900Y9753600D03*
G01*
X3136900Y7747000D03*
G01*
X1930400Y7747000D03*
G01*
X1485900Y10896597D03*
G01*
X3276600Y7416800D03*
G01*
X2679700Y7416800D03*
G01*
X3276600Y6819900D03*
G01*
X1409700Y6819900D03*
G01*
X2850895Y8775700D03*
G01*
X3073400Y8775700D03*
G01*
X2850901Y8293100D03*
G01*
X3009900Y8293100D03*
G01*
X2755900Y8293155D03*
G01*
X2971800Y6223000D03*
G01*
X558800Y3822700D03*
G01*
X1409700Y3822700D03*
G01*
X622300Y3886200D03*
G01*
X1663700Y3886200D03*
G01*
X558800Y9690100D03*
G01*
X622300Y9626600D03*
G01*
X1790700Y6819900D03*
G01*
X1409700Y2540000D03*
G01*
X2679700Y2540000D03*
G01*
X1663700Y2540000D03*
G01*
X2501900Y8382000D03*
G01*
X3276600Y8382000D03*
G01*
X3136900Y10375900D03*
G01*
X2850901Y10375900D03*
G01*
X3073400Y9690100D03*
G01*
X3073400Y9601200D03*
G01*
X3073400Y9512300D03*
G01*
X3594100Y9690100D03*
G01*
X3530600Y9601200D03*
G01*
X3530600Y3619500D03*
G01*
X3594100Y3556000D03*
G01*
X3073400Y3619500D03*
G01*
X3136900Y3556000D03*
G01*
X3467100Y3683000D03*
G01*
X1295400Y3683000D03*
G01*
X1295400Y1816100D03*
G01*
X3467100Y9512300D03*
M02*
