G04 Layer: BottomSilkscreenLayer*
G04 EasyEDA v6.5.29, 2023-07-18 11:26:45*
G04 057cc5f2e9c144518689141b3c40f3c2,5a6b42c53f6a479593ecc07194224c93,10*
G04 Gerber Generator version 0.2*
G04 Scale: 100 percent, Rotated: No, Reflected: No *
G04 Dimensions in millimeters *
G04 leading zeros omitted , absolute positions ,4 integer and 5 decimal *
%FSLAX45Y45*%
%MOMM*%

%ADD10C,0.2032*%

%LPD*%
D10*
X3029681Y1059017D02*
G01*
X3035137Y1069926D01*
X3046046Y1080836D01*
X3056953Y1086289D01*
X3078772Y1086289D01*
X3089681Y1080836D01*
X3100590Y1069926D01*
X3106046Y1059017D01*
X3111500Y1042654D01*
X3111500Y1015382D01*
X3106046Y999017D01*
X3100590Y988108D01*
X3089681Y977198D01*
X3078772Y971745D01*
X3056953Y971745D01*
X3046046Y977198D01*
X3035137Y988108D01*
X3029681Y999017D01*
X2960954Y1086289D02*
G01*
X2971863Y1080836D01*
X2982772Y1069926D01*
X2988228Y1059017D01*
X2993682Y1042654D01*
X2993682Y1015382D01*
X2988228Y999017D01*
X2982772Y988108D01*
X2971863Y977198D01*
X2960954Y971745D01*
X2939135Y971745D01*
X2928228Y977198D01*
X2917319Y988108D01*
X2911863Y999017D01*
X2906410Y1015382D01*
X2906410Y1042654D01*
X2911863Y1059017D01*
X2917319Y1069926D01*
X2928228Y1080836D01*
X2939135Y1086289D01*
X2960954Y1086289D01*
X2870410Y1086289D02*
G01*
X2870410Y971745D01*
X2870410Y1086289D02*
G01*
X2821317Y1086289D01*
X2804955Y1080836D01*
X2799501Y1075382D01*
X2794045Y1064473D01*
X2794045Y1048108D01*
X2799501Y1037198D01*
X2804955Y1031745D01*
X2821317Y1026289D01*
X2870410Y1026289D01*
X2758046Y1086289D02*
G01*
X2714409Y1031745D01*
X2714409Y971745D01*
X2670774Y1086289D02*
G01*
X2714409Y1031745D01*
X2634772Y1086289D02*
G01*
X2634772Y971745D01*
X2634772Y1086289D02*
G01*
X2585681Y1086289D01*
X2569319Y1080836D01*
X2563865Y1075382D01*
X2558409Y1064473D01*
X2558409Y1053564D01*
X2563865Y1042654D01*
X2569319Y1037198D01*
X2585681Y1031745D01*
X2634772Y1031745D01*
X2596591Y1031745D02*
G01*
X2558409Y971745D01*
X2522410Y1086289D02*
G01*
X2522410Y971745D01*
X2404592Y1059017D02*
G01*
X2410045Y1069926D01*
X2420955Y1080836D01*
X2431864Y1086289D01*
X2453683Y1086289D01*
X2464592Y1080836D01*
X2475501Y1069926D01*
X2480955Y1059017D01*
X2486411Y1042654D01*
X2486411Y1015382D01*
X2480955Y999017D01*
X2475501Y988108D01*
X2464592Y977198D01*
X2453683Y971745D01*
X2431864Y971745D01*
X2420955Y977198D01*
X2410045Y988108D01*
X2404592Y999017D01*
X2404592Y1015382D01*
X2431864Y1015382D02*
G01*
X2404592Y1015382D01*
X2368593Y1086289D02*
G01*
X2368593Y971745D01*
X2292228Y1086289D02*
G01*
X2292228Y971745D01*
X2368593Y1031745D02*
G01*
X2292228Y1031745D01*
X2218047Y1086289D02*
G01*
X2218047Y971745D01*
X2256228Y1086289D02*
G01*
X2179866Y1086289D01*
X2054410Y1059017D02*
G01*
X2054410Y1064473D01*
X2048957Y1075382D01*
X2043501Y1080836D01*
X2032591Y1086289D01*
X2010775Y1086289D01*
X1999866Y1080836D01*
X1994410Y1075382D01*
X1988957Y1064473D01*
X1988957Y1053564D01*
X1994410Y1042654D01*
X2005319Y1026289D01*
X2059866Y971745D01*
X1983501Y971745D01*
X1914773Y1086289D02*
G01*
X1931139Y1080836D01*
X1942048Y1064473D01*
X1947501Y1037198D01*
X1947501Y1020836D01*
X1942048Y993564D01*
X1931139Y977198D01*
X1914773Y971745D01*
X1903867Y971745D01*
X1887501Y977198D01*
X1876592Y993564D01*
X1871139Y1020836D01*
X1871139Y1037198D01*
X1876592Y1064473D01*
X1887501Y1080836D01*
X1903867Y1086289D01*
X1914773Y1086289D01*
X1829683Y1059017D02*
G01*
X1829683Y1064473D01*
X1824230Y1075382D01*
X1818774Y1080836D01*
X1807865Y1086289D01*
X1786049Y1086289D01*
X1775139Y1080836D01*
X1769684Y1075382D01*
X1764230Y1064473D01*
X1764230Y1053564D01*
X1769684Y1042654D01*
X1780593Y1026289D01*
X1835139Y971745D01*
X1758774Y971745D01*
X1711866Y1086289D02*
G01*
X1651866Y1086289D01*
X1684594Y1042654D01*
X1668231Y1042654D01*
X1657322Y1037198D01*
X1651866Y1031745D01*
X1646412Y1015382D01*
X1646412Y1004473D01*
X1651866Y988108D01*
X1662775Y977198D01*
X1679138Y971745D01*
X1695503Y971745D01*
X1711866Y977198D01*
X1717321Y982654D01*
X1722775Y993564D01*
X1526413Y1086289D02*
G01*
X1482775Y971745D01*
X1439138Y1086289D02*
G01*
X1482775Y971745D01*
X1403139Y1086289D02*
G01*
X1403139Y971745D01*
X1403139Y1086289D02*
G01*
X1332229Y1086289D01*
X1403139Y1031745D02*
G01*
X1359504Y1031745D01*
X1403139Y971745D02*
G01*
X1332229Y971745D01*
X1219868Y1086289D02*
G01*
X1274411Y971745D01*
X1296230Y1086289D02*
G01*
X1219868Y1086289D01*
X1183868Y1086289D02*
G01*
X1183868Y971745D01*
X1183868Y1086289D02*
G01*
X1112959Y1086289D01*
X1183868Y1031745D02*
G01*
X1140231Y1031745D01*
X1076957Y1086289D02*
G01*
X1076957Y971745D01*
X1040958Y1086289D02*
G01*
X1040958Y971745D01*
X1040958Y1086289D02*
G01*
X997323Y971745D01*
X953686Y1086289D02*
G01*
X997323Y971745D01*
X953686Y1086289D02*
G01*
X953686Y971745D01*
X2548890Y1810257D02*
G01*
X2548890Y1722881D01*
X2554477Y1706626D01*
X2559811Y1701037D01*
X2570734Y1695704D01*
X2581656Y1695704D01*
X2592577Y1701037D01*
X2598165Y1706626D01*
X2603500Y1722881D01*
X2603500Y1733804D01*
X2513075Y1810257D02*
G01*
X2513075Y1695704D01*
X2513075Y1695704D02*
G01*
X2447543Y1695704D01*
X2329688Y1782826D02*
G01*
X2335022Y1793747D01*
X2345943Y1804670D01*
X2356865Y1810257D01*
X2378709Y1810257D01*
X2389631Y1804670D01*
X2400554Y1793747D01*
X2406141Y1782826D01*
X2411475Y1766570D01*
X2411475Y1739392D01*
X2406141Y1722881D01*
X2400554Y1711960D01*
X2389631Y1701037D01*
X2378709Y1695704D01*
X2356865Y1695704D01*
X2345943Y1701037D01*
X2335022Y1711960D01*
X2329688Y1722881D01*
X2239263Y1810257D02*
G01*
X2239263Y1722881D01*
X2244597Y1706626D01*
X2249931Y1701037D01*
X2260854Y1695704D01*
X2271775Y1695704D01*
X2282697Y1701037D01*
X2288286Y1706626D01*
X2293620Y1722881D01*
X2293620Y1733804D01*
X2203195Y1810257D02*
G01*
X2203195Y1695704D01*
X2203195Y1695704D02*
G01*
X2137663Y1695704D01*
X2019808Y1782826D02*
G01*
X2025395Y1793747D01*
X2036318Y1804670D01*
X2047240Y1810257D01*
X2068829Y1810257D01*
X2079752Y1804670D01*
X2090674Y1793747D01*
X2096261Y1782826D01*
X2101595Y1766570D01*
X2101595Y1739392D01*
X2096261Y1722881D01*
X2090674Y1711960D01*
X2079752Y1701037D01*
X2068829Y1695704D01*
X2047240Y1695704D01*
X2036318Y1701037D01*
X2025395Y1711960D01*
X2019808Y1722881D01*
X1929384Y1810257D02*
G01*
X1929384Y1722881D01*
X1934718Y1706626D01*
X1940306Y1701037D01*
X1951227Y1695704D01*
X1962150Y1695704D01*
X1973072Y1701037D01*
X1978406Y1706626D01*
X1983740Y1722881D01*
X1983740Y1733804D01*
X1893315Y1810257D02*
G01*
X1893315Y1695704D01*
X1893315Y1695704D02*
G01*
X1827784Y1695704D01*
X1709927Y1782826D02*
G01*
X1715515Y1793747D01*
X1726438Y1804670D01*
X1737359Y1810257D01*
X1759204Y1810257D01*
X1770125Y1804670D01*
X1781047Y1793747D01*
X1786381Y1782826D01*
X1791970Y1766570D01*
X1791970Y1739392D01*
X1786381Y1722881D01*
X1781047Y1711960D01*
X1770125Y1701037D01*
X1759204Y1695704D01*
X1737359Y1695704D01*
X1726438Y1701037D01*
X1715515Y1711960D01*
X1709927Y1722881D01*
X1619504Y1810257D02*
G01*
X1619504Y1722881D01*
X1624838Y1706626D01*
X1630425Y1701037D01*
X1641347Y1695704D01*
X1652270Y1695704D01*
X1663191Y1701037D01*
X1668525Y1706626D01*
X1674113Y1722881D01*
X1674113Y1733804D01*
X1583436Y1810257D02*
G01*
X1583436Y1695704D01*
X1583436Y1695704D02*
G01*
X1518158Y1695704D01*
X1400302Y1782826D02*
G01*
X1405636Y1793747D01*
X1416558Y1804670D01*
X1427479Y1810257D01*
X1449324Y1810257D01*
X1460245Y1804670D01*
X1471168Y1793747D01*
X1476502Y1782826D01*
X1482090Y1766570D01*
X1482090Y1739392D01*
X1476502Y1722881D01*
X1471168Y1711960D01*
X1460245Y1701037D01*
X1449324Y1695704D01*
X1427479Y1695704D01*
X1416558Y1701037D01*
X1405636Y1711960D01*
X1400302Y1722881D01*
X3848100Y11843189D02*
G01*
X3848100Y11728645D01*
X3848100Y11843189D02*
G01*
X3771737Y11728645D01*
X3771737Y11843189D02*
G01*
X3771737Y11728645D01*
X3692100Y11843189D02*
G01*
X3735735Y11728645D01*
X3692100Y11843189D02*
G01*
X3648463Y11728645D01*
X3719372Y11766826D02*
G01*
X3664828Y11766826D01*
X3612464Y11843189D02*
G01*
X3612464Y11728645D01*
X3612464Y11843189D02*
G01*
X3536101Y11728645D01*
X3536101Y11843189D02*
G01*
X3536101Y11728645D01*
X3467374Y11843189D02*
G01*
X3478283Y11837736D01*
X3489190Y11826826D01*
X3494646Y11815917D01*
X3500099Y11799554D01*
X3500099Y11772282D01*
X3494646Y11755917D01*
X3489190Y11745008D01*
X3478283Y11734098D01*
X3467374Y11728645D01*
X3445555Y11728645D01*
X3434646Y11734098D01*
X3423737Y11745008D01*
X3418283Y11755917D01*
X3412827Y11772282D01*
X3412827Y11799554D01*
X3418283Y11815917D01*
X3423737Y11826826D01*
X3434646Y11837736D01*
X3445555Y11843189D01*
X3467374Y11843189D01*
X3376828Y11843189D02*
G01*
X3376828Y11728645D01*
X3376828Y11843189D02*
G01*
X3333191Y11728645D01*
X3289556Y11843189D02*
G01*
X3333191Y11728645D01*
X3289556Y11843189D02*
G01*
X3289556Y11728645D01*
X3253554Y11843189D02*
G01*
X3253554Y11728645D01*
X3173920Y11843189D02*
G01*
X3217555Y11728645D01*
X3173920Y11843189D02*
G01*
X3130283Y11728645D01*
X3201192Y11766826D02*
G01*
X3146645Y11766826D01*
X2928465Y11815917D02*
G01*
X2933920Y11826826D01*
X2944830Y11837736D01*
X2955737Y11843189D01*
X2977555Y11843189D01*
X2988464Y11837736D01*
X2999374Y11826826D01*
X3004830Y11815917D01*
X3010283Y11799554D01*
X3010283Y11772282D01*
X3004830Y11755917D01*
X2999374Y11745008D01*
X2988464Y11734098D01*
X2977555Y11728645D01*
X2955737Y11728645D01*
X2944830Y11734098D01*
X2933920Y11745008D01*
X2928465Y11755917D01*
X2928465Y11772282D01*
X2955737Y11772282D02*
G01*
X2928465Y11772282D01*
X2848828Y11843189D02*
G01*
X2892465Y11728645D01*
X2848828Y11843189D02*
G01*
X2805193Y11728645D01*
X2876102Y11766826D02*
G01*
X2821556Y11766826D01*
X2731010Y11843189D02*
G01*
X2731010Y11728645D01*
X2769191Y11843189D02*
G01*
X2692829Y11843189D01*
X2656829Y11843189D02*
G01*
X2656829Y11728645D01*
X2656829Y11843189D02*
G01*
X2585920Y11843189D01*
X2656829Y11788645D02*
G01*
X2613192Y11788645D01*
X2656829Y11728645D02*
G01*
X2585920Y11728645D01*
X2549921Y11843189D02*
G01*
X2522649Y11728645D01*
X2495374Y11843189D02*
G01*
X2522649Y11728645D01*
X2495374Y11843189D02*
G01*
X2468102Y11728645D01*
X2440830Y11843189D02*
G01*
X2468102Y11728645D01*
X2361194Y11843189D02*
G01*
X2404831Y11728645D01*
X2361194Y11843189D02*
G01*
X2317556Y11728645D01*
X2388466Y11766826D02*
G01*
X2333922Y11766826D01*
X2281557Y11843189D02*
G01*
X2237920Y11788645D01*
X2237920Y11728645D01*
X2194285Y11843189D02*
G01*
X2237920Y11788645D01*
X2074285Y11843189D02*
G01*
X2074285Y11728645D01*
X2074285Y11728645D02*
G01*
X2008830Y11728645D01*
X1972830Y11843189D02*
G01*
X1972830Y11728645D01*
X1972830Y11843189D02*
G01*
X1901921Y11843189D01*
X1972830Y11788645D02*
G01*
X1929193Y11788645D01*
X1972830Y11728645D02*
G01*
X1901921Y11728645D01*
X1865922Y11843189D02*
G01*
X1865922Y11728645D01*
X1865922Y11843189D02*
G01*
X1827740Y11843189D01*
X1811375Y11837736D01*
X1800468Y11826826D01*
X1795012Y11815917D01*
X1789559Y11799554D01*
X1789559Y11772282D01*
X1795012Y11755917D01*
X1800468Y11745008D01*
X1811375Y11734098D01*
X1827740Y11728645D01*
X1865922Y11728645D01*
X1593194Y11826826D02*
G01*
X1604103Y11837736D01*
X1620469Y11843189D01*
X1642285Y11843189D01*
X1658650Y11837736D01*
X1669559Y11826826D01*
X1669559Y11815917D01*
X1664103Y11805008D01*
X1658650Y11799554D01*
X1647741Y11794098D01*
X1615013Y11783189D01*
X1604103Y11777736D01*
X1598650Y11772282D01*
X1593194Y11761373D01*
X1593194Y11745008D01*
X1604103Y11734098D01*
X1620469Y11728645D01*
X1642285Y11728645D01*
X1658650Y11734098D01*
X1669559Y11745008D01*
X1557195Y11843189D02*
G01*
X1557195Y11728645D01*
X1557195Y11843189D02*
G01*
X1508104Y11843189D01*
X1491741Y11837736D01*
X1486286Y11832282D01*
X1480832Y11821373D01*
X1480832Y11805008D01*
X1486286Y11794098D01*
X1491741Y11788645D01*
X1508104Y11783189D01*
X1557195Y11783189D01*
X1401196Y11843189D02*
G01*
X1444833Y11728645D01*
X1401196Y11843189D02*
G01*
X1357558Y11728645D01*
X1428468Y11766826D02*
G01*
X1373924Y11766826D01*
X1239740Y11815917D02*
G01*
X1245196Y11826826D01*
X1256106Y11837736D01*
X1267015Y11843189D01*
X1288831Y11843189D01*
X1299740Y11837736D01*
X1310650Y11826826D01*
X1316106Y11815917D01*
X1321559Y11799554D01*
X1321559Y11772282D01*
X1316106Y11755917D01*
X1310650Y11745008D01*
X1299740Y11734098D01*
X1288831Y11728645D01*
X1267015Y11728645D01*
X1256106Y11734098D01*
X1245196Y11745008D01*
X1239740Y11755917D01*
X1203741Y11843189D02*
G01*
X1203741Y11728645D01*
X1203741Y11843189D02*
G01*
X1132832Y11843189D01*
X1203741Y11788645D02*
G01*
X1160104Y11788645D01*
X1203741Y11728645D02*
G01*
X1132832Y11728645D01*
X1096832Y11843189D02*
G01*
X1096832Y11728645D01*
X1096832Y11843189D02*
G01*
X1047742Y11843189D01*
X1031377Y11837736D01*
X1025923Y11832282D01*
X1020470Y11821373D01*
X1020470Y11810464D01*
X1025923Y11799554D01*
X1031377Y11794098D01*
X1047742Y11788645D01*
X1096832Y11788645D01*
X1058651Y11788645D02*
G01*
X1020470Y11728645D01*
X900470Y11843189D02*
G01*
X900470Y11728645D01*
X900470Y11843189D02*
G01*
X851377Y11843189D01*
X835014Y11837736D01*
X829561Y11832282D01*
X824105Y11821373D01*
X824105Y11810464D01*
X829561Y11799554D01*
X835014Y11794098D01*
X851377Y11788645D01*
X900470Y11788645D02*
G01*
X851377Y11788645D01*
X835014Y11783189D01*
X829561Y11777736D01*
X824105Y11766826D01*
X824105Y11750464D01*
X829561Y11739554D01*
X835014Y11734098D01*
X851377Y11728645D01*
X900470Y11728645D01*
X755378Y11843189D02*
G01*
X766287Y11837736D01*
X777196Y11826826D01*
X782652Y11815917D01*
X788106Y11799554D01*
X788106Y11772282D01*
X782652Y11755917D01*
X777196Y11745008D01*
X766287Y11734098D01*
X755378Y11728645D01*
X733559Y11728645D01*
X722652Y11734098D01*
X711743Y11745008D01*
X706287Y11755917D01*
X700834Y11772282D01*
X700834Y11799554D01*
X706287Y11815917D01*
X711743Y11826826D01*
X722652Y11837736D01*
X733559Y11843189D01*
X755378Y11843189D01*
X626651Y11843189D02*
G01*
X626651Y11728645D01*
X664834Y11843189D02*
G01*
X588469Y11843189D01*
X514289Y11843189D02*
G01*
X514289Y11728645D01*
X552470Y11843189D02*
G01*
X476107Y11843189D01*
X407380Y11843189D02*
G01*
X418289Y11837736D01*
X429196Y11826826D01*
X434652Y11815917D01*
X440105Y11799554D01*
X440105Y11772282D01*
X434652Y11755917D01*
X429196Y11745008D01*
X418289Y11734098D01*
X407380Y11728645D01*
X385561Y11728645D01*
X374652Y11734098D01*
X363743Y11745008D01*
X358289Y11755917D01*
X352833Y11772282D01*
X352833Y11799554D01*
X358289Y11815917D01*
X363743Y11826826D01*
X374652Y11837736D01*
X385561Y11843189D01*
X407380Y11843189D01*
X316834Y11843189D02*
G01*
X316834Y11728645D01*
X316834Y11843189D02*
G01*
X273197Y11728645D01*
X229562Y11843189D02*
G01*
X273197Y11728645D01*
X229562Y11843189D02*
G01*
X229562Y11728645D01*
X3327400Y11652689D02*
G01*
X3327400Y11538145D01*
X3327400Y11652689D02*
G01*
X3278309Y11652689D01*
X3261946Y11647236D01*
X3256490Y11641782D01*
X3251037Y11630873D01*
X3251037Y11614508D01*
X3256490Y11603599D01*
X3261946Y11598145D01*
X3278309Y11592689D01*
X3327400Y11592689D01*
X3171400Y11652689D02*
G01*
X3215035Y11538145D01*
X3171400Y11652689D02*
G01*
X3127763Y11538145D01*
X3198672Y11576326D02*
G01*
X3144128Y11576326D01*
X3091764Y11652689D02*
G01*
X3091764Y11538145D01*
X3091764Y11652689D02*
G01*
X3042673Y11652689D01*
X3026310Y11647236D01*
X3020855Y11641782D01*
X3015400Y11630873D01*
X3015400Y11619964D01*
X3020855Y11609054D01*
X3026310Y11603599D01*
X3042673Y11598145D01*
X3091764Y11598145D01*
X3053582Y11598145D02*
G01*
X3015400Y11538145D01*
X2941218Y11652689D02*
G01*
X2941218Y11538145D01*
X2979400Y11652689D02*
G01*
X2903037Y11652689D01*
X2783037Y11652689D02*
G01*
X2783037Y11538145D01*
X2783037Y11652689D02*
G01*
X2706674Y11538145D01*
X2706674Y11652689D02*
G01*
X2706674Y11538145D01*
X2670672Y11652689D02*
G01*
X2670672Y11570873D01*
X2665219Y11554508D01*
X2654310Y11543599D01*
X2637947Y11538145D01*
X2627038Y11538145D01*
X2610672Y11543599D01*
X2599766Y11554508D01*
X2594310Y11570873D01*
X2594310Y11652689D01*
X2558310Y11652689D02*
G01*
X2558310Y11538145D01*
X2558310Y11652689D02*
G01*
X2514673Y11538145D01*
X2471038Y11652689D02*
G01*
X2514673Y11538145D01*
X2471038Y11652689D02*
G01*
X2471038Y11538145D01*
X2435037Y11652689D02*
G01*
X2435037Y11538145D01*
X2435037Y11652689D02*
G01*
X2385946Y11652689D01*
X2369583Y11647236D01*
X2364130Y11641782D01*
X2358674Y11630873D01*
X2358674Y11619964D01*
X2364130Y11609054D01*
X2369583Y11603599D01*
X2385946Y11598145D01*
X2435037Y11598145D02*
G01*
X2385946Y11598145D01*
X2369583Y11592689D01*
X2364130Y11587236D01*
X2358674Y11576326D01*
X2358674Y11559964D01*
X2364130Y11549054D01*
X2369583Y11543599D01*
X2385946Y11538145D01*
X2435037Y11538145D01*
X2322675Y11652689D02*
G01*
X2322675Y11538145D01*
X2322675Y11652689D02*
G01*
X2251765Y11652689D01*
X2322675Y11598145D02*
G01*
X2279037Y11598145D01*
X2322675Y11538145D02*
G01*
X2251765Y11538145D01*
X2215766Y11652689D02*
G01*
X2215766Y11538145D01*
X2215766Y11652689D02*
G01*
X2166675Y11652689D01*
X2150310Y11647236D01*
X2144857Y11641782D01*
X2139401Y11630873D01*
X2139401Y11619964D01*
X2144857Y11609054D01*
X2150310Y11603599D01*
X2166675Y11598145D01*
X2215766Y11598145D01*
X2177585Y11598145D02*
G01*
X2139401Y11538145D01*
X2013948Y11625417D02*
G01*
X2013948Y11630873D01*
X2008492Y11641782D01*
X2003038Y11647236D01*
X1992129Y11652689D01*
X1970311Y11652689D01*
X1959401Y11647236D01*
X1953948Y11641782D01*
X1948492Y11630873D01*
X1948492Y11619964D01*
X1953948Y11609054D01*
X1964857Y11592689D01*
X2019401Y11538145D01*
X1943039Y11538145D01*
X1852493Y11652689D02*
G01*
X1907039Y11576326D01*
X1825221Y11576326D01*
X1852493Y11652689D02*
G01*
X1852493Y11538145D01*
X1712856Y11652689D02*
G01*
X1767403Y11538145D01*
X1789221Y11652689D02*
G01*
X1712856Y11652689D01*
X1644131Y11652689D02*
G01*
X1660494Y11647236D01*
X1671403Y11630873D01*
X1676857Y11603599D01*
X1676857Y11587236D01*
X1671403Y11559964D01*
X1660494Y11543599D01*
X1644131Y11538145D01*
X1633222Y11538145D01*
X1616857Y11543599D01*
X1605948Y11559964D01*
X1600494Y11587236D01*
X1600494Y11603599D01*
X1605948Y11630873D01*
X1616857Y11647236D01*
X1633222Y11652689D01*
X1644131Y11652689D01*
X1564495Y11587236D02*
G01*
X1466314Y11587236D01*
X1397586Y11652689D02*
G01*
X1413949Y11647236D01*
X1424858Y11630873D01*
X1430312Y11603599D01*
X1430312Y11587236D01*
X1424858Y11559964D01*
X1413949Y11543599D01*
X1397586Y11538145D01*
X1386677Y11538145D01*
X1370312Y11543599D01*
X1359402Y11559964D01*
X1353949Y11587236D01*
X1353949Y11603599D01*
X1359402Y11630873D01*
X1370312Y11647236D01*
X1386677Y11652689D01*
X1397586Y11652689D01*
X1312494Y11625417D02*
G01*
X1312494Y11630873D01*
X1307040Y11641782D01*
X1301584Y11647236D01*
X1290675Y11652689D01*
X1268859Y11652689D01*
X1257950Y11647236D01*
X1252494Y11641782D01*
X1247040Y11630873D01*
X1247040Y11619964D01*
X1252494Y11609054D01*
X1263403Y11592689D01*
X1317950Y11538145D01*
X1241585Y11538145D01*
X1172857Y11652689D02*
G01*
X1189222Y11647236D01*
X1200132Y11630873D01*
X1205585Y11603599D01*
X1205585Y11587236D01*
X1200132Y11559964D01*
X1189222Y11543599D01*
X1172857Y11538145D01*
X1161950Y11538145D01*
X1145585Y11543599D01*
X1134676Y11559964D01*
X1129223Y11587236D01*
X1129223Y11603599D01*
X1134676Y11630873D01*
X1145585Y11647236D01*
X1161950Y11652689D01*
X1172857Y11652689D01*
X1093223Y11630873D02*
G01*
X1082314Y11636326D01*
X1065949Y11652689D01*
X1065949Y11538145D01*
X945949Y11652689D02*
G01*
X902314Y11538145D01*
X858677Y11652689D02*
G01*
X902314Y11538145D01*
X822678Y11630873D02*
G01*
X811768Y11636326D01*
X795406Y11652689D01*
X795406Y11538145D01*
M02*
