M48
METRIC,LZ,000.000
;FILE_FORMAT=3:3
;TYPE=NON_PLATED
;Layer: NPTH_Through
;EasyEDA v6.5.29, 2023-07-19 21:52:00
;a52da41988e34a0299b0951248bc5a60,5a6b42c53f6a479593ecc07194224c93,10
;Gerber Generator version 0.2
;Holesize 1 = 0.551 mm
T01C0.551
;Holesize 2 = 2.000 mm
T02C2.000
%
G05
G90
T01
X042148Y067110
X042148Y066260
X042148Y065410
X042148Y064560
X042148Y063710
X042148Y062860
X042148Y062010
X042148Y061160
X040732Y067110
X040732Y066260
X040732Y065410
X040732Y064560
X040732Y063710
X040732Y062860
X040732Y062010
X040732Y061160
X084388Y067110
X084388Y066260
X084388Y065410
X084388Y064560
X084388Y063710
X084388Y062860
X084388Y062010
X084388Y061160
X082972Y067110
X082972Y066260
X082972Y065410
X082972Y064560
X082972Y063710
X082972Y062860
X082972Y062010
X082972Y061160
X126628Y067110
X126628Y066260
X126628Y065410
X126628Y064560
X126628Y063710
X126628Y062860
X126628Y062010
X126628Y061160
X125212Y067110
X125212Y066260
X125212Y065410
X125212Y064560
X125212Y063710
X125212Y062860
X125212Y062010
X125212Y061160
X168868Y067110
X168868Y066260
X168868Y065410
X168868Y064560
X168868Y063710
X168868Y062860
X168868Y062010
X168868Y061160
X167452Y067110
X167452Y066260
X167452Y065410
X167452Y064560
X167452Y063710
X167452Y062860
X167452Y062010
X167452Y061160
X017345Y119472
X018195Y119472
X019045Y119472
X019895Y119472
X020745Y119472
X021595Y119472
X022445Y119472
X023295Y119472
X017345Y008798
X018195Y008798
X019045Y008798
X019895Y008798
X020745Y008798
X021595Y008798
X022445Y008798
X023295Y008798
X059585Y119472
X060435Y119472
X061285Y119472
X062135Y119472
X062985Y119472
X063835Y119472
X064685Y119472
X065535Y119472
X059585Y008798
X060435Y008798
X061285Y008798
X062135Y008798
X062985Y008798
X063835Y008798
X064685Y008798
X065535Y008798
X101825Y119472
X102675Y119472
X103525Y119472
X104375Y119472
X105225Y119472
X106075Y119472
X106925Y119472
X107775Y119472
X101825Y008798
X102675Y008798
X103525Y008798
X104375Y008798
X105225Y008798
X106075Y008798
X106925Y008798
X107775Y008798
X144065Y119472
X144915Y119472
X145765Y119472
X146615Y119472
X147465Y119472
X148315Y119472
X149165Y119472
X150015Y119472
X144065Y008798
X144915Y008798
X145765Y008798
X146615Y008798
X147465Y008798
X148315Y008798
X149165Y008798
X150015Y008798
X186305Y119472
X187155Y119472
X188005Y119472
X188855Y119472
X189705Y119472
X190555Y119472
X191405Y119472
X192255Y119472
X186305Y008798
X187155Y008798
X188005Y008798
X188855Y008798
X189705Y008798
X190555Y008798
X191405Y008798
X192255Y008798
T02
X002286Y011049
X038608Y011049
X038608Y115570
X002286Y115570
X005000Y122980
X204600Y122980
X010000Y005290
X199600Y005290
M30
