G04 Layer: TopSilkscreenLayer*
G04 EasyEDA v6.5.29, 2023-07-19 21:52:00*
G04 a52da41988e34a0299b0951248bc5a60,5a6b42c53f6a479593ecc07194224c93,10*
G04 Gerber Generator version 0.2*
G04 Scale: 100 percent, Rotated: No, Reflected: No *
G04 Dimensions in millimeters *
G04 leading zeros omitted , absolute positions ,4 integer and 5 decimal *
%FSLAX45Y45*%
%MOMM*%

%ADD10C,0.2032*%
%ADD11C,0.1524*%
%ADD12C,0.2540*%

%LPD*%
D10*
X342900Y11843258D02*
G01*
X342900Y11728704D01*
X342900Y11843258D02*
G01*
X419354Y11728704D01*
X419354Y11843258D02*
G01*
X419354Y11728704D01*
X498855Y11843258D02*
G01*
X455168Y11728704D01*
X498855Y11843258D02*
G01*
X542544Y11728704D01*
X471678Y11766804D02*
G01*
X526287Y11766804D01*
X578612Y11843258D02*
G01*
X578612Y11728704D01*
X578612Y11843258D02*
G01*
X654812Y11728704D01*
X654812Y11843258D02*
G01*
X654812Y11728704D01*
X723645Y11843258D02*
G01*
X712724Y11837670D01*
X701802Y11826747D01*
X696468Y11815826D01*
X690879Y11799570D01*
X690879Y11772392D01*
X696468Y11755881D01*
X701802Y11744960D01*
X712724Y11734037D01*
X723645Y11728704D01*
X745490Y11728704D01*
X756411Y11734037D01*
X767334Y11744960D01*
X772668Y11755881D01*
X778256Y11772392D01*
X778256Y11799570D01*
X772668Y11815826D01*
X767334Y11826747D01*
X756411Y11837670D01*
X745490Y11843258D01*
X723645Y11843258D01*
X814070Y11843258D02*
G01*
X814070Y11728704D01*
X814070Y11843258D02*
G01*
X857758Y11728704D01*
X901445Y11843258D02*
G01*
X857758Y11728704D01*
X901445Y11843258D02*
G01*
X901445Y11728704D01*
X937513Y11843258D02*
G01*
X937513Y11728704D01*
X1017015Y11843258D02*
G01*
X973327Y11728704D01*
X1017015Y11843258D02*
G01*
X1060704Y11728704D01*
X989838Y11766804D02*
G01*
X1044447Y11766804D01*
X1262634Y11815826D02*
G01*
X1257045Y11826747D01*
X1246124Y11837670D01*
X1235202Y11843258D01*
X1213358Y11843258D01*
X1202436Y11837670D01*
X1191513Y11826747D01*
X1186179Y11815826D01*
X1180591Y11799570D01*
X1180591Y11772392D01*
X1186179Y11755881D01*
X1191513Y11744960D01*
X1202436Y11734037D01*
X1213358Y11728704D01*
X1235202Y11728704D01*
X1246124Y11734037D01*
X1257045Y11744960D01*
X1262634Y11755881D01*
X1262634Y11772392D01*
X1235202Y11772392D02*
G01*
X1262634Y11772392D01*
X1342136Y11843258D02*
G01*
X1298447Y11728704D01*
X1342136Y11843258D02*
G01*
X1385824Y11728704D01*
X1314958Y11766804D02*
G01*
X1369568Y11766804D01*
X1459991Y11843258D02*
G01*
X1459991Y11728704D01*
X1421891Y11843258D02*
G01*
X1498091Y11843258D01*
X1534159Y11843258D02*
G01*
X1534159Y11728704D01*
X1534159Y11843258D02*
G01*
X1605025Y11843258D01*
X1534159Y11788647D02*
G01*
X1577847Y11788647D01*
X1534159Y11728704D02*
G01*
X1605025Y11728704D01*
X1641093Y11843258D02*
G01*
X1668272Y11728704D01*
X1695704Y11843258D02*
G01*
X1668272Y11728704D01*
X1695704Y11843258D02*
G01*
X1722881Y11728704D01*
X1750059Y11843258D02*
G01*
X1722881Y11728704D01*
X1829815Y11843258D02*
G01*
X1786127Y11728704D01*
X1829815Y11843258D02*
G01*
X1873504Y11728704D01*
X1802638Y11766804D02*
G01*
X1856993Y11766804D01*
X1909318Y11843258D02*
G01*
X1953006Y11788647D01*
X1953006Y11728704D01*
X1996693Y11843258D02*
G01*
X1953006Y11788647D01*
X2116836Y11843258D02*
G01*
X2116836Y11728704D01*
X2116836Y11728704D02*
G01*
X2182113Y11728704D01*
X2218181Y11843258D02*
G01*
X2218181Y11728704D01*
X2218181Y11843258D02*
G01*
X2289047Y11843258D01*
X2218181Y11788647D02*
G01*
X2261870Y11788647D01*
X2218181Y11728704D02*
G01*
X2289047Y11728704D01*
X2325115Y11843258D02*
G01*
X2325115Y11728704D01*
X2325115Y11843258D02*
G01*
X2363215Y11843258D01*
X2379725Y11837670D01*
X2390647Y11826747D01*
X2395981Y11815826D01*
X2401315Y11799570D01*
X2401315Y11772392D01*
X2395981Y11755881D01*
X2390647Y11744960D01*
X2379725Y11734037D01*
X2363215Y11728704D01*
X2325115Y11728704D01*
X2521458Y11843258D02*
G01*
X2521458Y11728704D01*
X2521458Y11843258D02*
G01*
X2570479Y11843258D01*
X2586990Y11837670D01*
X2592324Y11832336D01*
X2597911Y11821413D01*
X2597911Y11810492D01*
X2592324Y11799570D01*
X2586990Y11793981D01*
X2570479Y11788647D01*
X2521458Y11788647D02*
G01*
X2570479Y11788647D01*
X2586990Y11783313D01*
X2592324Y11777726D01*
X2597911Y11766804D01*
X2597911Y11750547D01*
X2592324Y11739626D01*
X2586990Y11734037D01*
X2570479Y11728704D01*
X2521458Y11728704D01*
X2666491Y11843258D02*
G01*
X2655570Y11837670D01*
X2644647Y11826747D01*
X2639313Y11815826D01*
X2633725Y11799570D01*
X2633725Y11772392D01*
X2639313Y11755881D01*
X2644647Y11744960D01*
X2655570Y11734037D01*
X2666491Y11728704D01*
X2688336Y11728704D01*
X2699258Y11734037D01*
X2710179Y11744960D01*
X2715513Y11755881D01*
X2721102Y11772392D01*
X2721102Y11799570D01*
X2715513Y11815826D01*
X2710179Y11826747D01*
X2699258Y11837670D01*
X2688336Y11843258D01*
X2666491Y11843258D01*
X2800604Y11843258D02*
G01*
X2757170Y11728704D01*
X2800604Y11843258D02*
G01*
X2844291Y11728704D01*
X2773425Y11766804D02*
G01*
X2828036Y11766804D01*
X2880359Y11843258D02*
G01*
X2880359Y11728704D01*
X2880359Y11843258D02*
G01*
X2929381Y11843258D01*
X2945891Y11837670D01*
X2951225Y11832336D01*
X2956813Y11821413D01*
X2956813Y11810492D01*
X2951225Y11799570D01*
X2945891Y11793981D01*
X2929381Y11788647D01*
X2880359Y11788647D01*
X2918459Y11788647D02*
G01*
X2956813Y11728704D01*
X2992627Y11843258D02*
G01*
X2992627Y11728704D01*
X2992627Y11843258D02*
G01*
X3030981Y11843258D01*
X3047238Y11837670D01*
X3058159Y11826747D01*
X3063747Y11815826D01*
X3069081Y11799570D01*
X3069081Y11772392D01*
X3063747Y11755881D01*
X3058159Y11744960D01*
X3047238Y11734037D01*
X3030981Y11728704D01*
X2992627Y11728704D01*
X3188970Y11777726D02*
G01*
X3287268Y11777726D01*
X3445509Y11843258D02*
G01*
X3445509Y11728704D01*
X3407156Y11843258D02*
G01*
X3483609Y11843258D01*
X3552443Y11843258D02*
G01*
X3541522Y11837670D01*
X3530600Y11826747D01*
X3525011Y11815826D01*
X3519677Y11799570D01*
X3519677Y11772392D01*
X3525011Y11755881D01*
X3530600Y11744960D01*
X3541522Y11734037D01*
X3552443Y11728704D01*
X3574288Y11728704D01*
X3584956Y11734037D01*
X3595877Y11744960D01*
X3601465Y11755881D01*
X3606800Y11772392D01*
X3606800Y11799570D01*
X3601465Y11815826D01*
X3595877Y11826747D01*
X3584956Y11837670D01*
X3574288Y11843258D01*
X3552443Y11843258D01*
X3642868Y11843258D02*
G01*
X3642868Y11728704D01*
X3642868Y11843258D02*
G01*
X3691890Y11843258D01*
X3708400Y11837670D01*
X3713734Y11832336D01*
X3719322Y11821413D01*
X3719322Y11804904D01*
X3713734Y11793981D01*
X3708400Y11788647D01*
X3691890Y11783313D01*
X3642868Y11783313D01*
X749300Y11652758D02*
G01*
X749300Y11538204D01*
X749300Y11652758D02*
G01*
X798322Y11652758D01*
X814831Y11647170D01*
X820165Y11641836D01*
X825754Y11630913D01*
X825754Y11614404D01*
X820165Y11603481D01*
X814831Y11598147D01*
X798322Y11592813D01*
X749300Y11592813D01*
X905256Y11652758D02*
G01*
X861568Y11538204D01*
X905256Y11652758D02*
G01*
X948943Y11538204D01*
X878077Y11576304D02*
G01*
X932688Y11576304D01*
X985011Y11652758D02*
G01*
X985011Y11538204D01*
X985011Y11652758D02*
G01*
X1034034Y11652758D01*
X1050290Y11647170D01*
X1055877Y11641836D01*
X1061211Y11630913D01*
X1061211Y11619992D01*
X1055877Y11609070D01*
X1050290Y11603481D01*
X1034034Y11598147D01*
X985011Y11598147D01*
X1023111Y11598147D02*
G01*
X1061211Y11538204D01*
X1135379Y11652758D02*
G01*
X1135379Y11538204D01*
X1097279Y11652758D02*
G01*
X1173734Y11652758D01*
X1293622Y11652758D02*
G01*
X1293622Y11538204D01*
X1293622Y11652758D02*
G01*
X1370075Y11538204D01*
X1370075Y11652758D02*
G01*
X1370075Y11538204D01*
X1406143Y11652758D02*
G01*
X1406143Y11570970D01*
X1411477Y11554460D01*
X1422400Y11543537D01*
X1438656Y11538204D01*
X1449577Y11538204D01*
X1466088Y11543537D01*
X1477009Y11554460D01*
X1482343Y11570970D01*
X1482343Y11652758D01*
X1518411Y11652758D02*
G01*
X1518411Y11538204D01*
X1518411Y11652758D02*
G01*
X1562100Y11538204D01*
X1605788Y11652758D02*
G01*
X1562100Y11538204D01*
X1605788Y11652758D02*
G01*
X1605788Y11538204D01*
X1641602Y11652758D02*
G01*
X1641602Y11538204D01*
X1641602Y11652758D02*
G01*
X1690877Y11652758D01*
X1707134Y11647170D01*
X1712468Y11641836D01*
X1718056Y11630913D01*
X1718056Y11619992D01*
X1712468Y11609070D01*
X1707134Y11603481D01*
X1690877Y11598147D01*
X1641602Y11598147D02*
G01*
X1690877Y11598147D01*
X1707134Y11592813D01*
X1712468Y11587226D01*
X1718056Y11576304D01*
X1718056Y11560047D01*
X1712468Y11549126D01*
X1707134Y11543537D01*
X1690877Y11538204D01*
X1641602Y11538204D01*
X1754124Y11652758D02*
G01*
X1754124Y11538204D01*
X1754124Y11652758D02*
G01*
X1824990Y11652758D01*
X1754124Y11598147D02*
G01*
X1797558Y11598147D01*
X1754124Y11538204D02*
G01*
X1824990Y11538204D01*
X1861058Y11652758D02*
G01*
X1861058Y11538204D01*
X1861058Y11652758D02*
G01*
X1910079Y11652758D01*
X1926336Y11647170D01*
X1931924Y11641836D01*
X1937258Y11630913D01*
X1937258Y11619992D01*
X1931924Y11609070D01*
X1926336Y11603481D01*
X1910079Y11598147D01*
X1861058Y11598147D01*
X1899158Y11598147D02*
G01*
X1937258Y11538204D01*
X2062734Y11625326D02*
G01*
X2062734Y11630913D01*
X2068322Y11641836D01*
X2073656Y11647170D01*
X2084577Y11652758D01*
X2106422Y11652758D01*
X2117343Y11647170D01*
X2122677Y11641836D01*
X2128265Y11630913D01*
X2128265Y11619992D01*
X2122677Y11609070D01*
X2111756Y11592813D01*
X2057400Y11538204D01*
X2133600Y11538204D01*
X2224277Y11652758D02*
G01*
X2169668Y11576304D01*
X2251456Y11576304D01*
X2224277Y11652758D02*
G01*
X2224277Y11538204D01*
X2363724Y11652758D02*
G01*
X2309368Y11538204D01*
X2287524Y11652758D02*
G01*
X2363724Y11652758D01*
X2432558Y11652758D02*
G01*
X2416302Y11647170D01*
X2405379Y11630913D01*
X2399791Y11603481D01*
X2399791Y11587226D01*
X2405379Y11560047D01*
X2416302Y11543537D01*
X2432558Y11538204D01*
X2443479Y11538204D01*
X2459736Y11543537D01*
X2470658Y11560047D01*
X2476245Y11587226D01*
X2476245Y11603481D01*
X2470658Y11630913D01*
X2459736Y11647170D01*
X2443479Y11652758D01*
X2432558Y11652758D01*
X2512313Y11587226D02*
G01*
X2610358Y11587226D01*
X2679191Y11652758D02*
G01*
X2662681Y11647170D01*
X2651759Y11630913D01*
X2646425Y11603481D01*
X2646425Y11587226D01*
X2651759Y11560047D01*
X2662681Y11543537D01*
X2679191Y11538204D01*
X2690113Y11538204D01*
X2706370Y11543537D01*
X2717291Y11560047D01*
X2722625Y11587226D01*
X2722625Y11603481D01*
X2717291Y11630913D01*
X2706370Y11647170D01*
X2690113Y11652758D01*
X2679191Y11652758D01*
X2769615Y11652758D02*
G01*
X2829559Y11652758D01*
X2797047Y11609070D01*
X2813304Y11609070D01*
X2824225Y11603481D01*
X2829559Y11598147D01*
X2835147Y11581892D01*
X2835147Y11570970D01*
X2829559Y11554460D01*
X2818638Y11543537D01*
X2802381Y11538204D01*
X2786125Y11538204D01*
X2769615Y11543537D01*
X2764281Y11549126D01*
X2758693Y11560047D01*
X2903727Y11652758D02*
G01*
X2887472Y11647170D01*
X2876550Y11630913D01*
X2871215Y11603481D01*
X2871215Y11587226D01*
X2876550Y11560047D01*
X2887472Y11543537D01*
X2903727Y11538204D01*
X2914650Y11538204D01*
X2931159Y11543537D01*
X2942081Y11560047D01*
X2947415Y11587226D01*
X2947415Y11603481D01*
X2942081Y11630913D01*
X2931159Y11647170D01*
X2914650Y11652758D01*
X2903727Y11652758D01*
X2983484Y11630913D02*
G01*
X2994406Y11636247D01*
X3010661Y11652758D01*
X3010661Y11538204D01*
X3130804Y11652758D02*
G01*
X3174491Y11538204D01*
X3217925Y11652758D02*
G01*
X3174491Y11538204D01*
X3253993Y11630913D02*
G01*
X3264915Y11636247D01*
X3281172Y11652758D01*
X3281172Y11538204D01*
D11*
X3040024Y1564081D02*
G01*
X3035452Y1573225D01*
X3026308Y1582369D01*
X3017164Y1586687D01*
X2999130Y1586687D01*
X2989986Y1582369D01*
X2980842Y1573225D01*
X2976270Y1564081D01*
X2971698Y1550365D01*
X2971698Y1527759D01*
X2976270Y1514043D01*
X2980842Y1504899D01*
X2989986Y1496009D01*
X2999130Y1491437D01*
X3017164Y1491437D01*
X3026308Y1496009D01*
X3035452Y1504899D01*
X3040024Y1514043D01*
X3129178Y1554937D02*
G01*
X3124606Y1541475D01*
X3115462Y1532331D01*
X3101746Y1527759D01*
X3097174Y1527759D01*
X3083712Y1532331D01*
X3074568Y1541475D01*
X3069996Y1554937D01*
X3069996Y1559509D01*
X3074568Y1573225D01*
X3083712Y1582369D01*
X3097174Y1586687D01*
X3101746Y1586687D01*
X3115462Y1582369D01*
X3124606Y1573225D01*
X3129178Y1554937D01*
X3129178Y1532331D01*
X3124606Y1509471D01*
X3115462Y1496009D01*
X3101746Y1491437D01*
X3092602Y1491437D01*
X3079140Y1496009D01*
X3074568Y1504899D01*
X2971723Y1396390D02*
G01*
X2971723Y1300886D01*
X2971723Y1396390D02*
G01*
X3003727Y1396390D01*
X3017189Y1391818D01*
X3026333Y1382674D01*
X3030905Y1373530D01*
X3035477Y1360068D01*
X3035477Y1337208D01*
X3030905Y1323492D01*
X3026333Y1314602D01*
X3017189Y1305458D01*
X3003727Y1300886D01*
X2971723Y1300886D01*
X3124631Y1364386D02*
G01*
X3120059Y1350924D01*
X3110915Y1341780D01*
X3097199Y1337208D01*
X3092627Y1337208D01*
X3079165Y1341780D01*
X3070021Y1350924D01*
X3065449Y1364386D01*
X3065449Y1368958D01*
X3070021Y1382674D01*
X3079165Y1391818D01*
X3092627Y1396390D01*
X3097199Y1396390D01*
X3110915Y1391818D01*
X3120059Y1382674D01*
X3124631Y1364386D01*
X3124631Y1341780D01*
X3120059Y1318920D01*
X3110915Y1305458D01*
X3097199Y1300886D01*
X3088055Y1300886D01*
X3074593Y1305458D01*
X3070021Y1314602D01*
X3479291Y11326113D02*
G01*
X3474720Y11335258D01*
X3465575Y11344402D01*
X3456431Y11348720D01*
X3438397Y11348720D01*
X3429254Y11344402D01*
X3420109Y11335258D01*
X3415538Y11326113D01*
X3410965Y11312397D01*
X3410965Y11289792D01*
X3415538Y11276076D01*
X3420109Y11266931D01*
X3429254Y11258042D01*
X3438397Y11253470D01*
X3456431Y11253470D01*
X3465575Y11258042D01*
X3474720Y11266931D01*
X3479291Y11276076D01*
X3513836Y11326113D02*
G01*
X3513836Y11330686D01*
X3518408Y11339829D01*
X3522979Y11344402D01*
X3531870Y11348720D01*
X3550158Y11348720D01*
X3559302Y11344402D01*
X3563874Y11339829D01*
X3568445Y11330686D01*
X3568445Y11321542D01*
X3563874Y11312397D01*
X3554729Y11298936D01*
X3509263Y11253470D01*
X3572763Y11253470D01*
X3418840Y11145774D02*
G01*
X3418840Y11050270D01*
X3418840Y11145774D02*
G01*
X3450843Y11145774D01*
X3464306Y11141202D01*
X3473450Y11132058D01*
X3478022Y11122913D01*
X3482593Y11109452D01*
X3482593Y11086592D01*
X3478022Y11072876D01*
X3473450Y11063986D01*
X3464306Y11054842D01*
X3450843Y11050270D01*
X3418840Y11050270D01*
X3517138Y11122913D02*
G01*
X3517138Y11127486D01*
X3521709Y11136629D01*
X3526281Y11141202D01*
X3535172Y11145774D01*
X3553459Y11145774D01*
X3562604Y11141202D01*
X3567175Y11136629D01*
X3571747Y11127486D01*
X3571747Y11118342D01*
X3567175Y11109452D01*
X3558031Y11095736D01*
X3512565Y11050270D01*
X3576065Y11050270D01*
X624839Y11158474D02*
G01*
X624839Y11062970D01*
X624839Y11158474D02*
G01*
X656844Y11158474D01*
X670306Y11153902D01*
X679450Y11144758D01*
X684022Y11135613D01*
X688593Y11122152D01*
X688593Y11099292D01*
X684022Y11085576D01*
X679450Y11076686D01*
X670306Y11067542D01*
X656844Y11062970D01*
X624839Y11062970D01*
X718565Y11140186D02*
G01*
X727709Y11144758D01*
X741172Y11158474D01*
X741172Y11062970D01*
X685291Y11338813D02*
G01*
X680720Y11347958D01*
X671575Y11357102D01*
X662431Y11361420D01*
X644397Y11361420D01*
X635254Y11357102D01*
X626110Y11347958D01*
X621537Y11338813D01*
X616965Y11325097D01*
X616965Y11302492D01*
X621537Y11288776D01*
X626110Y11279631D01*
X635254Y11270742D01*
X644397Y11266170D01*
X662431Y11266170D01*
X671575Y11270742D01*
X680720Y11279631D01*
X685291Y11288776D01*
X715263Y11343386D02*
G01*
X724408Y11347958D01*
X737870Y11361420D01*
X737870Y11266170D01*
X624839Y8872448D02*
G01*
X624839Y8776944D01*
X624839Y8872448D02*
G01*
X656844Y8872448D01*
X670306Y8867876D01*
X679450Y8858732D01*
X684022Y8849588D01*
X688593Y8836126D01*
X688593Y8813266D01*
X684022Y8799550D01*
X679450Y8790660D01*
X670306Y8781516D01*
X656844Y8776944D01*
X624839Y8776944D01*
X727709Y8872448D02*
G01*
X777747Y8872448D01*
X750315Y8836126D01*
X764031Y8836126D01*
X773175Y8831554D01*
X777747Y8826982D01*
X782065Y8813266D01*
X782065Y8804122D01*
X777747Y8790660D01*
X768604Y8781516D01*
X754888Y8776944D01*
X741172Y8776944D01*
X727709Y8781516D01*
X723138Y8786088D01*
X718565Y8795232D01*
X685291Y9052788D02*
G01*
X680720Y9061932D01*
X671575Y9071076D01*
X662431Y9075648D01*
X644397Y9075648D01*
X635254Y9071076D01*
X626110Y9061932D01*
X621537Y9052788D01*
X616965Y9039072D01*
X616965Y9016466D01*
X621537Y9002750D01*
X626110Y8993606D01*
X635254Y8984716D01*
X644397Y8980144D01*
X662431Y8980144D01*
X671575Y8984716D01*
X680720Y8993606D01*
X685291Y9002750D01*
X724408Y9075648D02*
G01*
X774445Y9075648D01*
X747013Y9039072D01*
X760729Y9039072D01*
X769874Y9034754D01*
X774445Y9030182D01*
X778763Y9016466D01*
X778763Y9007322D01*
X774445Y8993606D01*
X765302Y8984716D01*
X751586Y8980144D01*
X737870Y8980144D01*
X724408Y8984716D01*
X719836Y8989288D01*
X715263Y8998178D01*
X3418840Y8859748D02*
G01*
X3418840Y8764244D01*
X3418840Y8859748D02*
G01*
X3450843Y8859748D01*
X3464306Y8855176D01*
X3473450Y8846032D01*
X3478022Y8836888D01*
X3482593Y8823426D01*
X3482593Y8800566D01*
X3478022Y8786850D01*
X3473450Y8777960D01*
X3464306Y8768816D01*
X3450843Y8764244D01*
X3418840Y8764244D01*
X3558031Y8859748D02*
G01*
X3512565Y8795994D01*
X3580638Y8795994D01*
X3558031Y8859748D02*
G01*
X3558031Y8764244D01*
X3479291Y9040088D02*
G01*
X3474720Y9049232D01*
X3465575Y9058376D01*
X3456431Y9062948D01*
X3438397Y9062948D01*
X3429254Y9058376D01*
X3420109Y9049232D01*
X3415538Y9040088D01*
X3410965Y9026372D01*
X3410965Y9003766D01*
X3415538Y8990050D01*
X3420109Y8980906D01*
X3429254Y8972016D01*
X3438397Y8967444D01*
X3456431Y8967444D01*
X3465575Y8972016D01*
X3474720Y8980906D01*
X3479291Y8990050D01*
X3554729Y9062948D02*
G01*
X3509263Y8999194D01*
X3577336Y8999194D01*
X3554729Y9062948D02*
G01*
X3554729Y8967444D01*
X624839Y6586448D02*
G01*
X624839Y6490944D01*
X624839Y6586448D02*
G01*
X656844Y6586448D01*
X670306Y6581876D01*
X679450Y6572732D01*
X684022Y6563588D01*
X688593Y6550126D01*
X688593Y6527266D01*
X684022Y6513550D01*
X679450Y6504660D01*
X670306Y6495516D01*
X656844Y6490944D01*
X624839Y6490944D01*
X773175Y6586448D02*
G01*
X727709Y6586448D01*
X723138Y6545554D01*
X727709Y6550126D01*
X741172Y6554698D01*
X754888Y6554698D01*
X768604Y6550126D01*
X777747Y6540982D01*
X782065Y6527266D01*
X782065Y6518122D01*
X777747Y6504660D01*
X768604Y6495516D01*
X754888Y6490944D01*
X741172Y6490944D01*
X727709Y6495516D01*
X723138Y6500088D01*
X718565Y6509232D01*
X685291Y6766788D02*
G01*
X680720Y6775932D01*
X671575Y6785076D01*
X662431Y6789648D01*
X644397Y6789648D01*
X635254Y6785076D01*
X626110Y6775932D01*
X621537Y6766788D01*
X616965Y6753072D01*
X616965Y6730466D01*
X621537Y6716750D01*
X626110Y6707606D01*
X635254Y6698716D01*
X644397Y6694144D01*
X662431Y6694144D01*
X671575Y6698716D01*
X680720Y6707606D01*
X685291Y6716750D01*
X769874Y6789648D02*
G01*
X724408Y6789648D01*
X719836Y6748754D01*
X724408Y6753072D01*
X737870Y6757644D01*
X751586Y6757644D01*
X765302Y6753072D01*
X774445Y6744182D01*
X778763Y6730466D01*
X778763Y6721322D01*
X774445Y6707606D01*
X765302Y6698716D01*
X751586Y6694144D01*
X737870Y6694144D01*
X724408Y6698716D01*
X719836Y6703288D01*
X715263Y6712178D01*
X3418840Y6573748D02*
G01*
X3418840Y6478244D01*
X3418840Y6573748D02*
G01*
X3450843Y6573748D01*
X3464306Y6569176D01*
X3473450Y6560032D01*
X3478022Y6550888D01*
X3482593Y6537426D01*
X3482593Y6514566D01*
X3478022Y6500850D01*
X3473450Y6491960D01*
X3464306Y6482816D01*
X3450843Y6478244D01*
X3418840Y6478244D01*
X3567175Y6560032D02*
G01*
X3562604Y6569176D01*
X3548888Y6573748D01*
X3539743Y6573748D01*
X3526281Y6569176D01*
X3517138Y6555460D01*
X3512565Y6532854D01*
X3512565Y6509994D01*
X3517138Y6491960D01*
X3526281Y6482816D01*
X3539743Y6478244D01*
X3544315Y6478244D01*
X3558031Y6482816D01*
X3567175Y6491960D01*
X3571747Y6505422D01*
X3571747Y6509994D01*
X3567175Y6523710D01*
X3558031Y6532854D01*
X3544315Y6537426D01*
X3539743Y6537426D01*
X3526281Y6532854D01*
X3517138Y6523710D01*
X3512565Y6509994D01*
X3479291Y6754088D02*
G01*
X3474720Y6763232D01*
X3465575Y6772376D01*
X3456431Y6776948D01*
X3438397Y6776948D01*
X3429254Y6772376D01*
X3420109Y6763232D01*
X3415538Y6754088D01*
X3410965Y6740372D01*
X3410965Y6717766D01*
X3415538Y6704050D01*
X3420109Y6694906D01*
X3429254Y6686016D01*
X3438397Y6681444D01*
X3456431Y6681444D01*
X3465575Y6686016D01*
X3474720Y6694906D01*
X3479291Y6704050D01*
X3563874Y6763232D02*
G01*
X3559302Y6772376D01*
X3545586Y6776948D01*
X3536441Y6776948D01*
X3522979Y6772376D01*
X3513836Y6758660D01*
X3509263Y6736054D01*
X3509263Y6713194D01*
X3513836Y6694906D01*
X3522979Y6686016D01*
X3536441Y6681444D01*
X3541013Y6681444D01*
X3554729Y6686016D01*
X3563874Y6694906D01*
X3568445Y6708622D01*
X3568445Y6713194D01*
X3563874Y6726910D01*
X3554729Y6736054D01*
X3541013Y6740372D01*
X3536441Y6740372D01*
X3522979Y6736054D01*
X3513836Y6726910D01*
X3509263Y6713194D01*
X624839Y4300448D02*
G01*
X624839Y4204944D01*
X624839Y4300448D02*
G01*
X656844Y4300448D01*
X670306Y4295876D01*
X679450Y4286732D01*
X684022Y4277588D01*
X688593Y4264126D01*
X688593Y4241266D01*
X684022Y4227550D01*
X679450Y4218660D01*
X670306Y4209516D01*
X656844Y4204944D01*
X624839Y4204944D01*
X782065Y4300448D02*
G01*
X736854Y4204944D01*
X718565Y4300448D02*
G01*
X782065Y4300448D01*
X685291Y4480788D02*
G01*
X680720Y4489932D01*
X671575Y4499076D01*
X662431Y4503648D01*
X644397Y4503648D01*
X635254Y4499076D01*
X626110Y4489932D01*
X621537Y4480788D01*
X616965Y4467072D01*
X616965Y4444466D01*
X621537Y4430750D01*
X626110Y4421606D01*
X635254Y4412716D01*
X644397Y4408144D01*
X662431Y4408144D01*
X671575Y4412716D01*
X680720Y4421606D01*
X685291Y4430750D01*
X778763Y4503648D02*
G01*
X733552Y4408144D01*
X715263Y4503648D02*
G01*
X778763Y4503648D01*
X3418840Y4287748D02*
G01*
X3418840Y4192244D01*
X3418840Y4287748D02*
G01*
X3450843Y4287748D01*
X3464306Y4283176D01*
X3473450Y4274032D01*
X3478022Y4264888D01*
X3482593Y4251426D01*
X3482593Y4228566D01*
X3478022Y4214850D01*
X3473450Y4205960D01*
X3464306Y4196816D01*
X3450843Y4192244D01*
X3418840Y4192244D01*
X3535172Y4287748D02*
G01*
X3521709Y4283176D01*
X3517138Y4274032D01*
X3517138Y4264888D01*
X3521709Y4255998D01*
X3530854Y4251426D01*
X3548888Y4246854D01*
X3562604Y4242282D01*
X3571747Y4233138D01*
X3576065Y4223994D01*
X3576065Y4210532D01*
X3571747Y4201388D01*
X3567175Y4196816D01*
X3553459Y4192244D01*
X3535172Y4192244D01*
X3521709Y4196816D01*
X3517138Y4201388D01*
X3512565Y4210532D01*
X3512565Y4223994D01*
X3517138Y4233138D01*
X3526281Y4242282D01*
X3539743Y4246854D01*
X3558031Y4251426D01*
X3567175Y4255998D01*
X3571747Y4264888D01*
X3571747Y4274032D01*
X3567175Y4283176D01*
X3553459Y4287748D01*
X3535172Y4287748D01*
X3479291Y4468088D02*
G01*
X3474720Y4477232D01*
X3465575Y4486376D01*
X3456431Y4490948D01*
X3438397Y4490948D01*
X3429254Y4486376D01*
X3420109Y4477232D01*
X3415538Y4468088D01*
X3410965Y4454372D01*
X3410965Y4431766D01*
X3415538Y4418050D01*
X3420109Y4408906D01*
X3429254Y4400016D01*
X3438397Y4395444D01*
X3456431Y4395444D01*
X3465575Y4400016D01*
X3474720Y4408906D01*
X3479291Y4418050D01*
X3531870Y4490948D02*
G01*
X3518408Y4486376D01*
X3513836Y4477232D01*
X3513836Y4468088D01*
X3518408Y4458944D01*
X3527552Y4454372D01*
X3545586Y4450054D01*
X3559302Y4445482D01*
X3568445Y4436338D01*
X3572763Y4427194D01*
X3572763Y4413478D01*
X3568445Y4404588D01*
X3563874Y4400016D01*
X3550158Y4395444D01*
X3531870Y4395444D01*
X3518408Y4400016D01*
X3513836Y4404588D01*
X3509263Y4413478D01*
X3509263Y4427194D01*
X3513836Y4436338D01*
X3522979Y4445482D01*
X3536441Y4450054D01*
X3554729Y4454372D01*
X3563874Y4458944D01*
X3568445Y4468088D01*
X3568445Y4477232D01*
X3563874Y4486376D01*
X3550158Y4490948D01*
X3531870Y4490948D01*
D12*
X2654998Y1496722D02*
G01*
X2654998Y1576725D01*
X2765973Y1465737D02*
G01*
X2685976Y1465737D01*
X2765973Y1607703D02*
G01*
X2685976Y1607703D01*
X2823563Y1465155D02*
G01*
X2903562Y1465155D01*
X2934545Y1496138D02*
G01*
X2934545Y1576136D01*
X2823563Y1607116D02*
G01*
X2903562Y1607116D01*
X2616194Y1460507D02*
G01*
X2616194Y1459323D01*
X2732051Y1244607D02*
G01*
X2805145Y1244607D01*
X2732051Y1447807D02*
G01*
X2805140Y1447807D01*
X3632898Y11263022D02*
G01*
X3632898Y11343025D01*
X3743873Y11232037D02*
G01*
X3663876Y11232037D01*
X3743873Y11374003D02*
G01*
X3663876Y11374003D01*
X3801463Y11231455D02*
G01*
X3881462Y11231455D01*
X3912445Y11262438D02*
G01*
X3912445Y11342436D01*
X3801463Y11373416D02*
G01*
X3881462Y11373416D01*
X3594094Y11226807D02*
G01*
X3594094Y11225623D01*
X3709951Y11010907D02*
G01*
X3783045Y11010907D01*
X3709951Y11214107D02*
G01*
X3783040Y11214107D01*
X800094Y11239507D02*
G01*
X800094Y11238323D01*
X915951Y11023607D02*
G01*
X989045Y11023607D01*
X915951Y11226807D02*
G01*
X989040Y11226807D01*
X838898Y11275722D02*
G01*
X838898Y11355725D01*
X949873Y11244737D02*
G01*
X869876Y11244737D01*
X949873Y11386703D02*
G01*
X869876Y11386703D01*
X1007463Y11244155D02*
G01*
X1087462Y11244155D01*
X1118445Y11275138D02*
G01*
X1118445Y11355136D01*
X1007463Y11386116D02*
G01*
X1087462Y11386116D01*
X800094Y8953507D02*
G01*
X800094Y8952323D01*
X915951Y8737607D02*
G01*
X989045Y8737607D01*
X915951Y8940807D02*
G01*
X989040Y8940807D01*
X838898Y8989722D02*
G01*
X838898Y9069725D01*
X949873Y8958737D02*
G01*
X869876Y8958737D01*
X949873Y9100703D02*
G01*
X869876Y9100703D01*
X1007463Y8958155D02*
G01*
X1087462Y8958155D01*
X1118445Y8989138D02*
G01*
X1118445Y9069136D01*
X1007463Y9100116D02*
G01*
X1087462Y9100116D01*
X3594094Y8940807D02*
G01*
X3594094Y8939623D01*
X3709951Y8724907D02*
G01*
X3783045Y8724907D01*
X3709951Y8928107D02*
G01*
X3783040Y8928107D01*
X3632898Y8977022D02*
G01*
X3632898Y9057025D01*
X3743873Y8946037D02*
G01*
X3663876Y8946037D01*
X3743873Y9088003D02*
G01*
X3663876Y9088003D01*
X3801463Y8945455D02*
G01*
X3881462Y8945455D01*
X3912445Y8976438D02*
G01*
X3912445Y9056436D01*
X3801463Y9087416D02*
G01*
X3881462Y9087416D01*
X800094Y6667507D02*
G01*
X800094Y6666323D01*
X915951Y6451607D02*
G01*
X989045Y6451607D01*
X915951Y6654807D02*
G01*
X989040Y6654807D01*
X838898Y6703722D02*
G01*
X838898Y6783725D01*
X949873Y6672737D02*
G01*
X869876Y6672737D01*
X949873Y6814703D02*
G01*
X869876Y6814703D01*
X1007463Y6672155D02*
G01*
X1087462Y6672155D01*
X1118445Y6703138D02*
G01*
X1118445Y6783136D01*
X1007463Y6814116D02*
G01*
X1087462Y6814116D01*
X3594094Y6654807D02*
G01*
X3594094Y6653623D01*
X3709951Y6438907D02*
G01*
X3783045Y6438907D01*
X3709951Y6642107D02*
G01*
X3783040Y6642107D01*
X3632898Y6691022D02*
G01*
X3632898Y6771025D01*
X3743873Y6660037D02*
G01*
X3663876Y6660037D01*
X3743873Y6802003D02*
G01*
X3663876Y6802003D01*
X3801463Y6659455D02*
G01*
X3881462Y6659455D01*
X3912445Y6690438D02*
G01*
X3912445Y6770436D01*
X3801463Y6801416D02*
G01*
X3881462Y6801416D01*
X800094Y4381507D02*
G01*
X800094Y4380323D01*
X915951Y4165607D02*
G01*
X989045Y4165607D01*
X915951Y4368807D02*
G01*
X989040Y4368807D01*
X838898Y4417722D02*
G01*
X838898Y4497725D01*
X949873Y4386737D02*
G01*
X869876Y4386737D01*
X949873Y4528703D02*
G01*
X869876Y4528703D01*
X1007463Y4386155D02*
G01*
X1087462Y4386155D01*
X1118445Y4417138D02*
G01*
X1118445Y4497136D01*
X1007463Y4528116D02*
G01*
X1087462Y4528116D01*
X3594094Y4368807D02*
G01*
X3594094Y4367623D01*
X3709951Y4152907D02*
G01*
X3783045Y4152907D01*
X3709951Y4356107D02*
G01*
X3783040Y4356107D01*
X3632898Y4405022D02*
G01*
X3632898Y4485025D01*
X3743873Y4374037D02*
G01*
X3663876Y4374037D01*
X3743873Y4516003D02*
G01*
X3663876Y4516003D01*
X3801463Y4373455D02*
G01*
X3881462Y4373455D01*
X3912445Y4404438D02*
G01*
X3912445Y4484436D01*
X3801463Y4515416D02*
G01*
X3881462Y4515416D01*
G75*
G01*
X2934551Y1496139D02*
G02*
X2903568Y1465156I-30983J0D01*
G75*
G01*
X2903568Y1607122D02*
G02*
X2934551Y1576136I0J-30983D01*
G75*
G01*
X2685981Y1465737D02*
G02*
X2654999Y1496723I0J30983D01*
G75*
G01*
X2654999Y1576720D02*
G02*
X2685981Y1607703I30982J0D01*
G75*
G01*
X3912451Y11262439D02*
G02*
X3881468Y11231456I-30983J0D01*
G75*
G01*
X3881468Y11373422D02*
G02*
X3912451Y11342436I0J-30983D01*
G75*
G01*
X3663881Y11232037D02*
G02*
X3632899Y11263023I0J30983D01*
G75*
G01*
X3632899Y11343020D02*
G02*
X3663881Y11374003I30982J0D01*
G75*
G01*
X1118451Y11275139D02*
G02*
X1087468Y11244156I-30983J0D01*
G75*
G01*
X1087468Y11386122D02*
G02*
X1118451Y11355136I0J-30983D01*
G75*
G01*
X869881Y11244737D02*
G02*
X838899Y11275723I0J30983D01*
G75*
G01*
X838899Y11355720D02*
G02*
X869881Y11386703I30982J0D01*
G75*
G01*
X1118451Y8989139D02*
G02*
X1087468Y8958156I-30983J0D01*
G75*
G01*
X1087468Y9100122D02*
G02*
X1118451Y9069136I0J-30983D01*
G75*
G01*
X869881Y8958737D02*
G02*
X838899Y8989723I0J30983D01*
G75*
G01*
X838899Y9069720D02*
G02*
X869881Y9100703I30982J0D01*
G75*
G01*
X3912451Y8976439D02*
G02*
X3881468Y8945456I-30983J0D01*
G75*
G01*
X3881468Y9087422D02*
G02*
X3912451Y9056436I0J-30983D01*
G75*
G01*
X3663881Y8946037D02*
G02*
X3632899Y8977023I0J30983D01*
G75*
G01*
X3632899Y9057020D02*
G02*
X3663881Y9088003I30982J0D01*
G75*
G01*
X1118451Y6703139D02*
G02*
X1087468Y6672156I-30983J0D01*
G75*
G01*
X1087468Y6814122D02*
G02*
X1118451Y6783136I0J-30983D01*
G75*
G01*
X869881Y6672737D02*
G02*
X838899Y6703723I0J30983D01*
G75*
G01*
X838899Y6783720D02*
G02*
X869881Y6814703I30982J0D01*
G75*
G01*
X3912451Y6690439D02*
G02*
X3881468Y6659456I-30983J0D01*
G75*
G01*
X3881468Y6801422D02*
G02*
X3912451Y6770436I0J-30983D01*
G75*
G01*
X3663881Y6660037D02*
G02*
X3632899Y6691023I0J30983D01*
G75*
G01*
X3632899Y6771020D02*
G02*
X3663881Y6802003I30982J0D01*
G75*
G01*
X1118451Y4417139D02*
G02*
X1087468Y4386156I-30983J0D01*
G75*
G01*
X1087468Y4528122D02*
G02*
X1118451Y4497136I0J-30983D01*
G75*
G01*
X869881Y4386737D02*
G02*
X838899Y4417723I0J30983D01*
G75*
G01*
X838899Y4497720D02*
G02*
X869881Y4528703I30982J0D01*
G75*
G01*
X3912451Y4404439D02*
G02*
X3881468Y4373456I-30983J0D01*
G75*
G01*
X3881468Y4515422D02*
G02*
X3912451Y4484436I0J-30983D01*
G75*
G01*
X3663881Y4374037D02*
G02*
X3632899Y4405023I0J30983D01*
G75*
G01*
X3632899Y4485020D02*
G02*
X3663881Y4516003I30982J0D01*
M02*
