G04 Layer: TopSolderMaskLayer*
G04 EasyEDA v6.5.29, 2023-07-19 21:52:00*
G04 a52da41988e34a0299b0951248bc5a60,5a6b42c53f6a479593ecc07194224c93,10*
G04 Gerber Generator version 0.2*
G04 Scale: 100 percent, Rotated: No, Reflected: No *
G04 Dimensions in millimeters *
G04 leading zeros omitted , absolute positions ,4 integer and 5 decimal *
%FSLAX45Y45*%
%MOMM*%

%AMMACRO1*1,1,$1,$2,$3*1,1,$1,$4,$5*1,1,$1,0-$2,0-$3*1,1,$1,0-$4,0-$5*20,1,$1,$2,$3,$4,$5,0*20,1,$1,$4,$5,0-$2,0-$3,0*20,1,$1,0-$2,0-$3,0-$4,0-$5,0*20,1,$1,0-$4,0-$5,$2,$3,0*4,1,4,$2,$3,$4,$5,0-$2,0-$3,0-$4,0-$5,$2,$3,0*%
%ADD10C,1.5016*%
%ADD11MACRO1,0.1016X0.762X0.7X-0.762X0.7*%
%ADD12MACRO1,0.1016X0.4X-0.45X-0.4X-0.45*%
%ADD13MACRO1,0.1016X-0.45X0.35X0.45X0.35*%
%ADD14C,3.0000*%

%LPD*%
D10*
G01*
X1732000Y11303000D03*
G01*
X1932000Y11303000D03*
G01*
X2131999Y11303000D03*
D11*
G01*
X2331999Y11303000D03*
D12*
G01*
X2724000Y1536700D03*
G01*
X2863999Y1536700D03*
D13*
G01*
X2860103Y1401203D03*
G01*
X2677096Y1401202D03*
G01*
X2677096Y1291195D03*
G01*
X2860103Y1291195D03*
D12*
G01*
X3701900Y11303000D03*
G01*
X3841899Y11303000D03*
D13*
G01*
X3838003Y11167503D03*
G01*
X3654996Y11167502D03*
G01*
X3654996Y11057495D03*
G01*
X3838003Y11057495D03*
G01*
X1044003Y11180203D03*
G01*
X860996Y11180202D03*
G01*
X860996Y11070195D03*
G01*
X1044003Y11070195D03*
D12*
G01*
X907900Y11315700D03*
G01*
X1047899Y11315700D03*
D13*
G01*
X1044003Y8894203D03*
G01*
X860996Y8894202D03*
G01*
X860996Y8784195D03*
G01*
X1044003Y8784195D03*
D12*
G01*
X907900Y9029700D03*
G01*
X1047899Y9029700D03*
D13*
G01*
X3838003Y8881503D03*
G01*
X3654996Y8881502D03*
G01*
X3654996Y8771495D03*
G01*
X3838003Y8771495D03*
D12*
G01*
X3701900Y9017000D03*
G01*
X3841899Y9017000D03*
D13*
G01*
X1044003Y6608203D03*
G01*
X860996Y6608202D03*
G01*
X860996Y6498195D03*
G01*
X1044003Y6498195D03*
D12*
G01*
X907900Y6743700D03*
G01*
X1047899Y6743700D03*
D13*
G01*
X3838003Y6595503D03*
G01*
X3654996Y6595502D03*
G01*
X3654996Y6485495D03*
G01*
X3838003Y6485495D03*
D12*
G01*
X3701900Y6731000D03*
G01*
X3841899Y6731000D03*
D13*
G01*
X1044003Y4322203D03*
G01*
X860996Y4322202D03*
G01*
X860996Y4212195D03*
G01*
X1044003Y4212195D03*
D12*
G01*
X907900Y4457700D03*
G01*
X1047899Y4457700D03*
D13*
G01*
X3838003Y4309503D03*
G01*
X3654996Y4309502D03*
G01*
X3654996Y4199495D03*
G01*
X3838003Y4199495D03*
D12*
G01*
X3701900Y4445000D03*
G01*
X3841899Y4445000D03*
D14*
G01*
X999997Y12297999D03*
G01*
X19960000Y12297999D03*
G01*
X1499997Y529000D03*
G01*
X19460001Y529000D03*
M02*
