G04 Layer: TopSilkscreenLayer*
G04 EasyEDA v6.5.34, 2023-08-21 18:11:39*
G04 55fea8646dbd4ef485edb4a4bd6a11f4,5a6b42c53f6a479593ecc07194224c93,10*
G04 Gerber Generator version 0.2*
G04 Scale: 100 percent, Rotated: No, Reflected: No *
G04 Dimensions in millimeters *
G04 leading zeros omitted , absolute positions ,4 integer and 5 decimal *
%FSLAX45Y45*%
%MOMM*%

%ADD10C,0.2540*%
%ADD11C,0.2032*%
%ADD12C,0.1524*%

%LPD*%
G36*
X3181604Y12721793D02*
G01*
X3178302Y12721539D01*
X3173984Y12720523D01*
X3168548Y12718694D01*
X3161995Y12716103D01*
X3147822Y12709804D01*
X3142538Y12707670D01*
X3137966Y12706350D01*
X3133750Y12705791D01*
X3129381Y12705943D01*
X3124504Y12706807D01*
X3118612Y12708331D01*
X3106623Y12711887D01*
X3096260Y12714071D01*
X3084626Y12715697D01*
X3072130Y12716814D01*
X3059125Y12717373D01*
X3045866Y12717322D01*
X3032709Y12716764D01*
X3020009Y12715646D01*
X3008122Y12713970D01*
X3002534Y12712954D01*
X2992424Y12710414D01*
X2980029Y12706400D01*
X2967990Y12701778D01*
X2956407Y12696647D01*
X2945282Y12691008D01*
X2934665Y12684861D01*
X2924556Y12678206D01*
X2914954Y12671145D01*
X2905912Y12663678D01*
X2897428Y12655753D01*
X2889605Y12647523D01*
X2882341Y12638887D01*
X2875788Y12629997D01*
X2869895Y12620752D01*
X2864713Y12611252D01*
X2860243Y12601498D01*
X2856534Y12591491D01*
X2853639Y12581331D01*
X2851505Y12570968D01*
X2850896Y12565024D01*
X2850946Y12558826D01*
X2851556Y12552476D01*
X2852775Y12546025D01*
X2854502Y12539624D01*
X2856687Y12533325D01*
X2859328Y12527280D01*
X2862376Y12521590D01*
X2865780Y12516358D01*
X2869488Y12511684D01*
X2873451Y12507671D01*
X2877667Y12504420D01*
X2882442Y12501575D01*
X2887268Y12499136D01*
X2892094Y12497155D01*
X2896971Y12495580D01*
X2901848Y12494463D01*
X2906674Y12493701D01*
X2911500Y12493396D01*
X2916326Y12493447D01*
X2921050Y12493904D01*
X2925775Y12494717D01*
X2930347Y12495936D01*
X2934919Y12497460D01*
X2939338Y12499340D01*
X2943656Y12501575D01*
X2947873Y12504115D01*
X2951937Y12506960D01*
X2955848Y12510160D01*
X2959608Y12513614D01*
X2963214Y12517374D01*
X2966618Y12521387D01*
X2969818Y12525705D01*
X2972816Y12530226D01*
X2975559Y12535052D01*
X2978099Y12540081D01*
X2980385Y12545364D01*
X2982366Y12550851D01*
X2984093Y12556540D01*
X2985566Y12562484D01*
X2986735Y12568580D01*
X2987548Y12574828D01*
X2988056Y12581280D01*
X2988259Y12587884D01*
X2988106Y12595707D01*
X2987649Y12601905D01*
X2987040Y12606528D01*
X2986176Y12609576D01*
X2985211Y12611049D01*
X2984144Y12611049D01*
X2983026Y12609576D01*
X2981909Y12606680D01*
X2980842Y12602362D01*
X2979877Y12596672D01*
X2979013Y12589611D01*
X2977692Y12573762D01*
X2976778Y12566650D01*
X2975559Y12559893D01*
X2974035Y12553492D01*
X2972257Y12547447D01*
X2970225Y12541758D01*
X2967888Y12536424D01*
X2965297Y12531496D01*
X2962452Y12526873D01*
X2959303Y12522657D01*
X2955950Y12518847D01*
X2952292Y12515392D01*
X2948432Y12512344D01*
X2944266Y12509703D01*
X2939897Y12507417D01*
X2935274Y12505537D01*
X2930398Y12504115D01*
X2925318Y12503048D01*
X2919984Y12502438D01*
X2914396Y12502235D01*
X2909671Y12502489D01*
X2905150Y12503200D01*
X2900934Y12504470D01*
X2896920Y12506147D01*
X2893161Y12508230D01*
X2889656Y12510770D01*
X2886405Y12513665D01*
X2883458Y12516967D01*
X2880766Y12520574D01*
X2878328Y12524536D01*
X2876194Y12528753D01*
X2874365Y12533325D01*
X2872790Y12538100D01*
X2871520Y12543129D01*
X2870555Y12548362D01*
X2869895Y12553797D01*
X2869539Y12559385D01*
X2869488Y12565176D01*
X2870352Y12577064D01*
X2871317Y12583109D01*
X2872587Y12589256D01*
X2874162Y12595453D01*
X2876092Y12601651D01*
X2878378Y12607899D01*
X2881020Y12614046D01*
X2884017Y12620193D01*
X2887370Y12626289D01*
X2890266Y12630962D01*
X2896768Y12640005D01*
X2904236Y12648692D01*
X2912516Y12656921D01*
X2921558Y12664744D01*
X2931261Y12672060D01*
X2941624Y12678918D01*
X2952496Y12685166D01*
X2963824Y12690856D01*
X2975559Y12695936D01*
X2987548Y12700355D01*
X2999740Y12704064D01*
X3005886Y12705689D01*
X3018282Y12708280D01*
X3030677Y12710160D01*
X3043021Y12711226D01*
X3055213Y12711430D01*
X3067202Y12710820D01*
X3078886Y12709245D01*
X3092602Y12706654D01*
X3098038Y12705435D01*
X3102508Y12704114D01*
X3106064Y12702692D01*
X3108655Y12701117D01*
X3110331Y12699288D01*
X3111042Y12697206D01*
X3110890Y12694716D01*
X3109823Y12691872D01*
X3107893Y12688519D01*
X3105048Y12684607D01*
X3101340Y12680137D01*
X3081680Y12658953D01*
X3075025Y12651486D01*
X3068269Y12643408D01*
X3061360Y12634722D01*
X3054299Y12625273D01*
X3047034Y12615113D01*
X3031744Y12592202D01*
X3015183Y12565684D01*
X2994710Y12532055D01*
X2984804Y12516510D01*
X2975559Y12502489D01*
X2966821Y12489992D01*
X2958541Y12478867D01*
X2950718Y12469063D01*
X2943199Y12460528D01*
X2935986Y12453264D01*
X2928975Y12447066D01*
X2922117Y12442037D01*
X2918764Y12439853D01*
X2912008Y12436297D01*
X2908655Y12434824D01*
X2901848Y12432588D01*
X2894990Y12431217D01*
X2891485Y12430760D01*
X2884322Y12430455D01*
X2876854Y12430760D01*
X2870809Y12431522D01*
X2866136Y12432792D01*
X2862783Y12434620D01*
X2860802Y12436957D01*
X2860192Y12439802D01*
X2860852Y12443206D01*
X2865120Y12451689D01*
X2866237Y12456007D01*
X2866237Y12460020D01*
X2865221Y12463576D01*
X2863189Y12466574D01*
X2860243Y12468809D01*
X2856433Y12470282D01*
X2851810Y12470790D01*
X2846527Y12470130D01*
X2842310Y12468301D01*
X2839212Y12465507D01*
X2837129Y12461900D01*
X2836113Y12457684D01*
X2836062Y12453112D01*
X2837078Y12448286D01*
X2839008Y12443409D01*
X2841904Y12438786D01*
X2845714Y12434468D01*
X2850489Y12430709D01*
X2856128Y12427762D01*
X2863088Y12425070D01*
X2869590Y12423190D01*
X2875940Y12422124D01*
X2882493Y12421819D01*
X2889504Y12422327D01*
X2897327Y12423597D01*
X2906217Y12425730D01*
X2920136Y12429794D01*
X2927299Y12432639D01*
X2934512Y12436297D01*
X2941828Y12440716D01*
X2949244Y12445949D01*
X2956763Y12451994D01*
X2964383Y12458852D01*
X2972155Y12466523D01*
X2980029Y12475057D01*
X2988056Y12484455D01*
X2996234Y12494717D01*
X3004616Y12505842D01*
X3013151Y12517882D01*
X3021888Y12530836D01*
X3030829Y12544653D01*
X3074263Y12615824D01*
X3092856Y12644577D01*
X3100578Y12655804D01*
X3107334Y12664948D01*
X3113176Y12672161D01*
X3118154Y12677444D01*
X3122320Y12680899D01*
X3124098Y12681966D01*
X3125673Y12682575D01*
X3127095Y12682778D01*
X3128314Y12682575D01*
X3129381Y12681966D01*
X3132226Y12678918D01*
X3134461Y12675108D01*
X3136138Y12670586D01*
X3137255Y12665456D01*
X3137814Y12659868D01*
X3137916Y12653873D01*
X3137509Y12647574D01*
X3136595Y12641122D01*
X3135223Y12634620D01*
X3133445Y12628118D01*
X3131210Y12621717D01*
X3128568Y12615621D01*
X3125520Y12609830D01*
X3122168Y12604445D01*
X3118408Y12599670D01*
X3114294Y12595504D01*
X3111144Y12592913D01*
X3103118Y12587732D01*
X3093923Y12583007D01*
X3089249Y12581026D01*
X3084626Y12579350D01*
X3073044Y12575895D01*
X3067761Y12573711D01*
X3064459Y12571526D01*
X3063189Y12569494D01*
X3063900Y12567716D01*
X3066694Y12566294D01*
X3071571Y12565380D01*
X3078480Y12565075D01*
X3084830Y12564262D01*
X3091230Y12562078D01*
X3097377Y12558623D01*
X3102914Y12554051D01*
X3105962Y12550749D01*
X3108452Y12547498D01*
X3110382Y12544094D01*
X3111804Y12540335D01*
X3112820Y12536068D01*
X3113481Y12531039D01*
X3113836Y12525044D01*
X3113938Y12517932D01*
X3113735Y12511278D01*
X3113125Y12504775D01*
X3112160Y12498476D01*
X3110839Y12492380D01*
X3109163Y12486538D01*
X3107182Y12480899D01*
X3104845Y12475514D01*
X3102203Y12470434D01*
X3099308Y12465608D01*
X3096107Y12461036D01*
X3092653Y12456820D01*
X3088995Y12452908D01*
X3085084Y12449352D01*
X3080969Y12446152D01*
X3076600Y12443307D01*
X3072130Y12440818D01*
X3067456Y12438786D01*
X3062579Y12437110D01*
X3057652Y12435890D01*
X3052521Y12435128D01*
X3047339Y12434773D01*
X3042005Y12434925D01*
X3036620Y12435535D01*
X3031185Y12436652D01*
X3026156Y12438634D01*
X3022092Y12441783D01*
X3019044Y12445796D01*
X3017113Y12450521D01*
X3016300Y12455804D01*
X3016656Y12461341D01*
X3018332Y12467031D01*
X3021228Y12472670D01*
X3024886Y12478562D01*
X3026054Y12482169D01*
X3024784Y12484404D01*
X3021126Y12486182D01*
X3016148Y12487198D01*
X3011170Y12486538D01*
X3006394Y12484506D01*
X3002026Y12481204D01*
X2998266Y12476835D01*
X2995320Y12471603D01*
X2993440Y12465761D01*
X2992729Y12459411D01*
X2993339Y12451181D01*
X2995523Y12445034D01*
X2999994Y12439954D01*
X3007309Y12434824D01*
X3011982Y12432284D01*
X3016808Y12430201D01*
X3021888Y12428474D01*
X3027070Y12427204D01*
X3032455Y12426391D01*
X3037941Y12425934D01*
X3043478Y12425934D01*
X3049168Y12426289D01*
X3054858Y12427051D01*
X3060598Y12428220D01*
X3066338Y12429744D01*
X3072079Y12431674D01*
X3077768Y12434011D01*
X3083407Y12436652D01*
X3088944Y12439700D01*
X3094431Y12443104D01*
X3099765Y12446863D01*
X3104946Y12450927D01*
X3109976Y12455398D01*
X3114802Y12460173D01*
X3119424Y12465202D01*
X3123488Y12470079D01*
X3127095Y12474854D01*
X3130245Y12479528D01*
X3132937Y12484252D01*
X3135172Y12489027D01*
X3137001Y12493853D01*
X3138424Y12498882D01*
X3139541Y12504115D01*
X3140303Y12509652D01*
X3140710Y12515494D01*
X3140862Y12521692D01*
X3140405Y12529769D01*
X3139084Y12537135D01*
X3136849Y12543840D01*
X3133750Y12549886D01*
X3129788Y12555270D01*
X3124911Y12559944D01*
X3119170Y12563906D01*
X3112566Y12567259D01*
X3098901Y12573000D01*
X3119932Y12583820D01*
X3125266Y12587020D01*
X3130245Y12590424D01*
X3134918Y12593980D01*
X3139287Y12597739D01*
X3143250Y12601600D01*
X3146907Y12605562D01*
X3150209Y12609677D01*
X3153156Y12613894D01*
X3155746Y12618212D01*
X3157931Y12622631D01*
X3159810Y12627102D01*
X3161284Y12631623D01*
X3162401Y12636246D01*
X3163112Y12640868D01*
X3163468Y12645542D01*
X3163468Y12650216D01*
X3163011Y12654940D01*
X3162198Y12659664D01*
X3160979Y12664338D01*
X3159353Y12669012D01*
X3157321Y12673634D01*
X3154883Y12678257D01*
X3146094Y12691973D01*
X3143707Y12697460D01*
X3144621Y12700812D01*
X3148685Y12703505D01*
X3152902Y12705334D01*
X3158540Y12707315D01*
X3164890Y12709194D01*
X3176828Y12712293D01*
X3181451Y12714173D01*
X3184601Y12716154D01*
X3185718Y12718034D01*
X3185312Y12720015D01*
X3183940Y12721285D01*
G37*
G36*
X1546148Y12717678D02*
G01*
X1542999Y12716459D01*
X1539290Y12713157D01*
X1535582Y12708331D01*
X1532229Y12702387D01*
X1527098Y12690754D01*
X1525524Y12686538D01*
X1524457Y12682575D01*
X1520799Y12673838D01*
X1505508Y12640564D01*
X1496517Y12621666D01*
X1480159Y12589256D01*
X1464056Y12559842D01*
X1456080Y12546228D01*
X1448206Y12533376D01*
X1440383Y12521285D01*
X1432661Y12509957D01*
X1425041Y12499390D01*
X1417472Y12489586D01*
X1410004Y12480594D01*
X1402689Y12472416D01*
X1395425Y12464999D01*
X1388313Y12458395D01*
X1381302Y12452553D01*
X1374394Y12447574D01*
X1367637Y12443409D01*
X1360982Y12440056D01*
X1354480Y12437516D01*
X1348130Y12435840D01*
X1341932Y12434976D01*
X1338834Y12434874D01*
X1333347Y12435332D01*
X1329791Y12436652D01*
X1327962Y12439091D01*
X1327708Y12442748D01*
X1328216Y12452908D01*
X1326692Y12458700D01*
X1322527Y12461138D01*
X1315110Y12460986D01*
X1309624Y12459665D01*
X1305458Y12457226D01*
X1302664Y12453975D01*
X1301191Y12450064D01*
X1301242Y12445796D01*
X1302715Y12441377D01*
X1305712Y12437059D01*
X1310284Y12433096D01*
X1315618Y12430048D01*
X1321765Y12427915D01*
X1328470Y12426645D01*
X1335633Y12426238D01*
X1342948Y12426696D01*
X1350416Y12428016D01*
X1357680Y12430252D01*
X1364742Y12433300D01*
X1372616Y12437719D01*
X1380439Y12442799D01*
X1388160Y12448540D01*
X1395882Y12455042D01*
X1403553Y12462205D01*
X1411173Y12470130D01*
X1418793Y12478816D01*
X1426464Y12488316D01*
X1434134Y12498578D01*
X1441805Y12509652D01*
X1449527Y12521539D01*
X1457350Y12534290D01*
X1465224Y12547955D01*
X1473200Y12562484D01*
X1481328Y12577876D01*
X1520393Y12657074D01*
X1520494Y12623241D01*
X1521002Y12612065D01*
X1523288Y12583566D01*
X1524863Y12567818D01*
X1528622Y12536881D01*
X1530350Y12520828D01*
X1531620Y12504826D01*
X1532483Y12489484D01*
X1532890Y12475464D01*
X1532737Y12463475D01*
X1531874Y12445542D01*
X1532026Y12435230D01*
X1532839Y12428372D01*
X1534312Y12425934D01*
X1535887Y12426289D01*
X1537208Y12427305D01*
X1538122Y12428829D01*
X1538630Y12431979D01*
X1540205Y12436754D01*
X1547469Y12453518D01*
X1558899Y12477648D01*
X1573123Y12506299D01*
X1588617Y12536627D01*
X1604010Y12565735D01*
X1617776Y12590830D01*
X1628597Y12609068D01*
X1635556Y12619380D01*
X1645412Y12632944D01*
X1655216Y12645339D01*
X1664919Y12656566D01*
X1674418Y12666573D01*
X1683664Y12675311D01*
X1692656Y12682728D01*
X1701292Y12688773D01*
X1709470Y12693396D01*
X1713433Y12695174D01*
X1717243Y12696545D01*
X1720900Y12697561D01*
X1724456Y12698222D01*
X1727860Y12698425D01*
X1731111Y12698272D01*
X1734210Y12697714D01*
X1739442Y12695783D01*
X1742744Y12692735D01*
X1744421Y12687960D01*
X1744929Y12680899D01*
X1744319Y12674752D01*
X1742744Y12668504D01*
X1740357Y12662865D01*
X1737461Y12658547D01*
X1733600Y12654026D01*
X1732330Y12651587D01*
X1733702Y12650520D01*
X1737715Y12650317D01*
X1741424Y12651181D01*
X1745742Y12653467D01*
X1750466Y12656921D01*
X1755190Y12661239D01*
X1759661Y12666065D01*
X1763572Y12671196D01*
X1766570Y12676225D01*
X1768449Y12680950D01*
X1769211Y12685826D01*
X1768957Y12690805D01*
X1767789Y12695631D01*
X1765807Y12700203D01*
X1763064Y12704419D01*
X1759559Y12708128D01*
X1755495Y12711176D01*
X1750822Y12713512D01*
X1747113Y12714630D01*
X1743151Y12715240D01*
X1738985Y12715443D01*
X1734667Y12715138D01*
X1730146Y12714376D01*
X1725472Y12713157D01*
X1720646Y12711480D01*
X1715668Y12709398D01*
X1710588Y12706858D01*
X1705406Y12703911D01*
X1700174Y12700508D01*
X1694840Y12696698D01*
X1689455Y12692532D01*
X1678533Y12682931D01*
X1669237Y12673584D01*
X1661820Y12665557D01*
X1654657Y12657328D01*
X1647698Y12648742D01*
X1640839Y12639649D01*
X1633982Y12630048D01*
X1627124Y12619685D01*
X1620062Y12608509D01*
X1612849Y12596418D01*
X1605280Y12583210D01*
X1589024Y12553188D01*
X1556613Y12491008D01*
X1556410Y12526416D01*
X1555902Y12537135D01*
X1553667Y12562535D01*
X1550263Y12588494D01*
X1548282Y12600686D01*
X1546606Y12613944D01*
X1545336Y12627711D01*
X1544472Y12641630D01*
X1544066Y12655296D01*
X1544015Y12668351D01*
X1544472Y12680442D01*
X1545285Y12691211D01*
X1546555Y12700254D01*
X1547317Y12704013D01*
X1550517Y12713411D01*
X1550466Y12715849D01*
X1549044Y12717221D01*
G37*
G36*
X3869436Y12713868D02*
G01*
X3864610Y12712954D01*
X3859276Y12710871D01*
X3853840Y12707721D01*
X3848760Y12703556D01*
X3844340Y12698577D01*
X3834129Y12683439D01*
X3804462Y12636906D01*
X3768851Y12580213D01*
X3759098Y12565786D01*
X3755491Y12561011D01*
X3752545Y12557658D01*
X3750259Y12555626D01*
X3748379Y12554762D01*
X3746906Y12554864D01*
X3745687Y12555931D01*
X3741826Y12561722D01*
X3737762Y12565583D01*
X3732987Y12568986D01*
X3728008Y12571323D01*
X3724351Y12572288D01*
X3720337Y12572695D01*
X3716070Y12572644D01*
X3711549Y12572085D01*
X3706774Y12571018D01*
X3701796Y12569545D01*
X3696665Y12567666D01*
X3691382Y12565329D01*
X3685997Y12562636D01*
X3680510Y12559588D01*
X3674922Y12556185D01*
X3663797Y12548463D01*
X3658260Y12544145D01*
X3647440Y12534798D01*
X3642156Y12529769D01*
X3632149Y12519152D01*
X3623005Y12507925D01*
X3618788Y12502134D01*
X3614928Y12496241D01*
X3607815Y12484506D01*
X3603904Y12478867D01*
X3599637Y12473381D01*
X3595115Y12468148D01*
X3590340Y12463119D01*
X3585413Y12458395D01*
X3580384Y12453975D01*
X3570325Y12446304D01*
X3565398Y12443104D01*
X3560622Y12440412D01*
X3556101Y12438176D01*
X3551885Y12436551D01*
X3548024Y12435535D01*
X3544570Y12435128D01*
X3541623Y12435433D01*
X3539185Y12436398D01*
X3537356Y12438176D01*
X3536238Y12440716D01*
X3535832Y12444069D01*
X3536340Y12449200D01*
X3537965Y12455144D01*
X3540810Y12462205D01*
X3545027Y12470587D01*
X3550818Y12480645D01*
X3558336Y12492634D01*
X3567684Y12506858D01*
X3590188Y12539827D01*
X3599281Y12553492D01*
X3607104Y12565989D01*
X3607663Y12567310D01*
X3606596Y12568174D01*
X3603751Y12568885D01*
X3599535Y12569393D01*
X3594354Y12569545D01*
X3588258Y12568986D01*
X3583127Y12567208D01*
X3579114Y12564313D01*
X3576065Y12560249D01*
X3573068Y12555118D01*
X3570274Y12553645D01*
X3566312Y12556032D01*
X3556660Y12565176D01*
X3553510Y12567462D01*
X3550259Y12569342D01*
X3546805Y12570866D01*
X3543249Y12572034D01*
X3539540Y12572796D01*
X3535730Y12573203D01*
X3531768Y12573203D01*
X3527755Y12572898D01*
X3523589Y12572187D01*
X3519373Y12571171D01*
X3515055Y12569799D01*
X3510635Y12568072D01*
X3501694Y12563602D01*
X3497122Y12560858D01*
X3487928Y12554458D01*
X3478580Y12546736D01*
X3469233Y12537795D01*
X3459987Y12527635D01*
X3450793Y12516358D01*
X3433216Y12492177D01*
X3428644Y12486640D01*
X3419043Y12476226D01*
X3414064Y12471400D01*
X3403752Y12462459D01*
X3398418Y12458395D01*
X3393033Y12454636D01*
X3382111Y12447981D01*
X3376625Y12445136D01*
X3371087Y12442647D01*
X3365500Y12440462D01*
X3359962Y12438583D01*
X3352037Y12436602D01*
X3345230Y12435840D01*
X3339592Y12436246D01*
X3335020Y12437922D01*
X3331362Y12440920D01*
X3328670Y12445238D01*
X3326841Y12450927D01*
X3325774Y12458039D01*
X3325368Y12464796D01*
X3325368Y12470739D01*
X3325876Y12476022D01*
X3326993Y12480645D01*
X3328720Y12484760D01*
X3331159Y12488468D01*
X3334359Y12491770D01*
X3338372Y12494818D01*
X3343300Y12497612D01*
X3349193Y12500356D01*
X3356152Y12502997D01*
X3371392Y12508179D01*
X3384956Y12513513D01*
X3391306Y12516358D01*
X3402939Y12522403D01*
X3408172Y12525502D01*
X3412998Y12528651D01*
X3421227Y12535052D01*
X3424580Y12538202D01*
X3427374Y12541300D01*
X3429609Y12544348D01*
X3431286Y12547346D01*
X3432251Y12550190D01*
X3432606Y12552984D01*
X3432301Y12557607D01*
X3431286Y12561620D01*
X3429711Y12565075D01*
X3427577Y12567920D01*
X3424834Y12570206D01*
X3421634Y12571933D01*
X3417925Y12573050D01*
X3413810Y12573660D01*
X3409238Y12573711D01*
X3404311Y12573152D01*
X3399028Y12572136D01*
X3393440Y12570510D01*
X3387598Y12568377D01*
X3381451Y12565684D01*
X3375151Y12562535D01*
X3368649Y12558826D01*
X3361994Y12554559D01*
X3355187Y12549835D01*
X3348329Y12544602D01*
X3332734Y12531699D01*
X3324809Y12525959D01*
X3317544Y12521590D01*
X3310991Y12518593D01*
X3305098Y12516967D01*
X3299815Y12516713D01*
X3295192Y12517780D01*
X3291179Y12520218D01*
X3288233Y12523165D01*
X3286201Y12526365D01*
X3285134Y12529921D01*
X3284931Y12533884D01*
X3285693Y12538303D01*
X3287318Y12543282D01*
X3289960Y12548819D01*
X3299764Y12565735D01*
X3301746Y12571425D01*
X3299409Y12573660D01*
X3292703Y12574016D01*
X3290163Y12573558D01*
X3286760Y12572187D01*
X3282594Y12570053D01*
X3272536Y12563754D01*
X3261360Y12555474D01*
X3219704Y12520472D01*
X3217875Y12519863D01*
X3219196Y12523419D01*
X3223412Y12530480D01*
X3240430Y12555270D01*
X3243376Y12560096D01*
X3245002Y12563551D01*
X3245307Y12565837D01*
X3244443Y12567310D01*
X3242513Y12568174D01*
X3239617Y12568783D01*
X3235401Y12569190D01*
X3231134Y12569190D01*
X3227273Y12568783D01*
X3224276Y12568072D01*
X3221532Y12565126D01*
X3216097Y12557760D01*
X3199333Y12533325D01*
X3178505Y12501676D01*
X3149396Y12455753D01*
X3142538Y12444272D01*
X3136798Y12433757D01*
X3136392Y12432436D01*
X3137408Y12431623D01*
X3140303Y12431014D01*
X3144570Y12430556D01*
X3149752Y12430404D01*
X3157067Y12431166D01*
X3162706Y12434214D01*
X3167888Y12440716D01*
X3175914Y12455144D01*
X3178657Y12459258D01*
X3186277Y12469317D01*
X3195980Y12481102D01*
X3207156Y12493904D01*
X3218992Y12506858D01*
X3230778Y12519253D01*
X3241802Y12530277D01*
X3251301Y12539116D01*
X3258515Y12544958D01*
X3261106Y12546533D01*
X3262782Y12547092D01*
X3264255Y12546228D01*
X3265424Y12543790D01*
X3266236Y12540234D01*
X3267252Y12529718D01*
X3269284Y12523978D01*
X3272485Y12518898D01*
X3276650Y12514580D01*
X3281679Y12511125D01*
X3283794Y12510211D01*
X3343503Y12510211D01*
X3344011Y12513208D01*
X3345738Y12517018D01*
X3348736Y12521641D01*
X3352850Y12526924D01*
X3358083Y12532868D01*
X3364382Y12539319D01*
X3371646Y12546279D01*
X3377234Y12551206D01*
X3382518Y12555423D01*
X3387445Y12558877D01*
X3391915Y12561570D01*
X3395979Y12563449D01*
X3399586Y12564567D01*
X3402736Y12564922D01*
X3405327Y12564465D01*
X3407410Y12563195D01*
X3408934Y12561163D01*
X3409848Y12558318D01*
X3410153Y12554610D01*
X3409391Y12549835D01*
X3407206Y12544450D01*
X3403955Y12539167D01*
X3399993Y12534646D01*
X3396640Y12531852D01*
X3392220Y12528753D01*
X3381400Y12522301D01*
X3369310Y12516154D01*
X3357879Y12511125D01*
X3352952Y12509347D01*
X3348939Y12508179D01*
X3345992Y12507772D01*
X3344367Y12508179D01*
X3343503Y12510211D01*
X3283794Y12510211D01*
X3287318Y12508687D01*
X3293465Y12507468D01*
X3299968Y12507518D01*
X3314598Y12509246D01*
X3306368Y12491161D01*
X3302812Y12482322D01*
X3300272Y12473838D01*
X3298799Y12465761D01*
X3298342Y12458242D01*
X3298951Y12451283D01*
X3300577Y12445034D01*
X3303219Y12439548D01*
X3306927Y12434874D01*
X3309772Y12432436D01*
X3313023Y12430404D01*
X3316630Y12428728D01*
X3320592Y12427458D01*
X3324809Y12426594D01*
X3329381Y12426086D01*
X3334156Y12425934D01*
X3339185Y12426137D01*
X3344418Y12426746D01*
X3349853Y12427712D01*
X3355390Y12428982D01*
X3361080Y12430607D01*
X3372764Y12434874D01*
X3378657Y12437516D01*
X3384550Y12440462D01*
X3396386Y12447320D01*
X3402228Y12451232D01*
X3407968Y12455398D01*
X3423615Y12467386D01*
X3423615Y12457836D01*
X3452266Y12457836D01*
X3452317Y12461290D01*
X3452672Y12464948D01*
X3454196Y12472873D01*
X3456787Y12481458D01*
X3460496Y12490602D01*
X3465220Y12500152D01*
X3470960Y12509906D01*
X3477818Y12519761D01*
X3481578Y12524689D01*
X3489960Y12534392D01*
X3499307Y12543840D01*
X3505301Y12549124D01*
X3511092Y12553696D01*
X3516782Y12557556D01*
X3522167Y12560706D01*
X3527348Y12563094D01*
X3532124Y12564719D01*
X3536543Y12565583D01*
X3540556Y12565684D01*
X3544062Y12564973D01*
X3547008Y12563500D01*
X3549345Y12561112D01*
X3551072Y12557963D01*
X3552240Y12554000D01*
X3552850Y12549682D01*
X3552901Y12545009D01*
X3552444Y12539980D01*
X3551529Y12534747D01*
X3550107Y12529312D01*
X3548278Y12523622D01*
X3545992Y12517831D01*
X3543300Y12511938D01*
X3540251Y12505994D01*
X3536848Y12500000D01*
X3533089Y12494056D01*
X3529025Y12488164D01*
X3524656Y12482372D01*
X3520033Y12476734D01*
X3515207Y12471298D01*
X3510076Y12466066D01*
X3504793Y12461087D01*
X3499307Y12456414D01*
X3493668Y12452045D01*
X3488944Y12448794D01*
X3484473Y12446101D01*
X3480358Y12443917D01*
X3476498Y12442240D01*
X3472942Y12441021D01*
X3469640Y12440310D01*
X3466642Y12440005D01*
X3463950Y12440158D01*
X3461512Y12440716D01*
X3459378Y12441682D01*
X3457549Y12443002D01*
X3455974Y12444679D01*
X3454654Y12446711D01*
X3453637Y12449048D01*
X3452418Y12454636D01*
X3452266Y12457836D01*
X3423615Y12457836D01*
X3423970Y12451029D01*
X3424885Y12446050D01*
X3426409Y12441631D01*
X3428441Y12437770D01*
X3431032Y12434468D01*
X3434079Y12431776D01*
X3437585Y12429642D01*
X3441496Y12428067D01*
X3445814Y12427051D01*
X3450437Y12426645D01*
X3455365Y12426797D01*
X3460597Y12427559D01*
X3466033Y12428880D01*
X3471722Y12430810D01*
X3477564Y12433249D01*
X3483508Y12436348D01*
X3489604Y12440005D01*
X3495751Y12444222D01*
X3501948Y12449048D01*
X3508146Y12454432D01*
X3518611Y12464084D01*
X3515715Y12452350D01*
X3514902Y12446762D01*
X3515461Y12441682D01*
X3517188Y12437262D01*
X3519982Y12433503D01*
X3523640Y12430455D01*
X3528110Y12428169D01*
X3533190Y12426746D01*
X3538829Y12426188D01*
X3544773Y12426543D01*
X3550970Y12427915D01*
X3557270Y12430302D01*
X3563518Y12433808D01*
X3576015Y12442393D01*
X3603193Y12462408D01*
X3603193Y12452604D01*
X3630422Y12452604D01*
X3630523Y12459157D01*
X3631641Y12466675D01*
X3633825Y12475006D01*
X3637076Y12483947D01*
X3641344Y12493244D01*
X3644595Y12499390D01*
X3651656Y12511176D01*
X3659327Y12522149D01*
X3667455Y12532156D01*
X3675837Y12541097D01*
X3680104Y12545110D01*
X3688638Y12552121D01*
X3692855Y12555067D01*
X3697020Y12557658D01*
X3701135Y12559842D01*
X3705148Y12561570D01*
X3709060Y12562890D01*
X3712819Y12563754D01*
X3716426Y12564160D01*
X3719880Y12564008D01*
X3725519Y12562789D01*
X3729177Y12560147D01*
X3731361Y12555423D01*
X3732529Y12548006D01*
X3732631Y12543942D01*
X3732174Y12539573D01*
X3731209Y12534950D01*
X3729736Y12530074D01*
X3727856Y12525044D01*
X3725519Y12519812D01*
X3722827Y12514478D01*
X3716426Y12503607D01*
X3708908Y12492736D01*
X3700526Y12482118D01*
X3691534Y12472060D01*
X3682237Y12462865D01*
X3672840Y12454788D01*
X3668217Y12451334D01*
X3663645Y12448235D01*
X3659225Y12445593D01*
X3654958Y12443409D01*
X3650843Y12441732D01*
X3646982Y12440615D01*
X3643325Y12440107D01*
X3639972Y12440208D01*
X3636924Y12440970D01*
X3633622Y12443307D01*
X3631488Y12447270D01*
X3630422Y12452604D01*
X3603193Y12452604D01*
X3603498Y12446863D01*
X3604514Y12442647D01*
X3606088Y12438888D01*
X3608222Y12435687D01*
X3610914Y12432944D01*
X3614064Y12430658D01*
X3617620Y12428931D01*
X3621633Y12427661D01*
X3625951Y12426899D01*
X3630574Y12426645D01*
X3635451Y12426899D01*
X3640582Y12427610D01*
X3645915Y12428880D01*
X3651351Y12430607D01*
X3656888Y12432842D01*
X3662476Y12435535D01*
X3668064Y12438786D01*
X3673652Y12442494D01*
X3679139Y12446711D01*
X3684524Y12451435D01*
X3696309Y12462408D01*
X3694226Y12451588D01*
X3693922Y12446660D01*
X3694785Y12441732D01*
X3696715Y12437160D01*
X3699611Y12433350D01*
X3702558Y12430861D01*
X3705758Y12428829D01*
X3709212Y12427407D01*
X3712921Y12426492D01*
X3716883Y12426086D01*
X3721100Y12426188D01*
X3725519Y12426848D01*
X3730142Y12427966D01*
X3734968Y12429642D01*
X3739997Y12431826D01*
X3745179Y12434468D01*
X3750513Y12437668D01*
X3756050Y12441326D01*
X3761689Y12445492D01*
X3767480Y12450165D01*
X3782872Y12463678D01*
X3787698Y12466980D01*
X3789121Y12465558D01*
X3788359Y12459817D01*
X3788105Y12454229D01*
X3789527Y12448743D01*
X3792728Y12443206D01*
X3797757Y12437414D01*
X3801516Y12434112D01*
X3805580Y12431420D01*
X3810000Y12429236D01*
X3814724Y12427661D01*
X3819804Y12426594D01*
X3825138Y12426086D01*
X3830777Y12426188D01*
X3836670Y12426797D01*
X3842816Y12427966D01*
X3849217Y12429744D01*
X3855872Y12432030D01*
X3862679Y12434925D01*
X3867150Y12437160D01*
X3871925Y12440056D01*
X3877005Y12443510D01*
X3887774Y12451842D01*
X3898747Y12461494D01*
X3909364Y12471908D01*
X3919016Y12482525D01*
X3923334Y12487656D01*
X3927094Y12492634D01*
X3930345Y12497358D01*
X3932986Y12501727D01*
X3938422Y12513411D01*
X3941826Y12516764D01*
X3946956Y12516459D01*
X3955643Y12513106D01*
X3962044Y12510871D01*
X3968343Y12509449D01*
X3973829Y12508941D01*
X3980942Y12510058D01*
X3981754Y12507976D01*
X3980078Y12502438D01*
X3973068Y12486182D01*
X3970883Y12480239D01*
X3969207Y12474651D01*
X3968038Y12469368D01*
X3967378Y12464491D01*
X3967280Y12460020D01*
X3996080Y12460020D01*
X3996385Y12465558D01*
X3997147Y12471298D01*
X3998417Y12477191D01*
X4000093Y12483185D01*
X4002227Y12489281D01*
X4004767Y12495377D01*
X4007662Y12501473D01*
X4010914Y12507569D01*
X4014520Y12513564D01*
X4018432Y12519456D01*
X4022648Y12525146D01*
X4027119Y12530683D01*
X4031894Y12536017D01*
X4036822Y12540996D01*
X4042003Y12545720D01*
X4047337Y12550089D01*
X4053890Y12554864D01*
X4059885Y12558674D01*
X4065422Y12561570D01*
X4070400Y12563551D01*
X4074922Y12564567D01*
X4078884Y12564668D01*
X4082338Y12563906D01*
X4085285Y12562179D01*
X4087672Y12559487D01*
X4089501Y12555931D01*
X4090822Y12551460D01*
X4091584Y12546025D01*
X4091736Y12540691D01*
X4091279Y12535154D01*
X4090365Y12529312D01*
X4088942Y12523317D01*
X4087063Y12517221D01*
X4084777Y12510973D01*
X4082084Y12504724D01*
X4079036Y12498425D01*
X4072077Y12486081D01*
X4064101Y12474295D01*
X4059783Y12468707D01*
X4055364Y12463424D01*
X4050842Y12458446D01*
X4046220Y12453823D01*
X4041546Y12449606D01*
X4036872Y12445898D01*
X4032199Y12442647D01*
X4027576Y12440005D01*
X4023106Y12437922D01*
X4018686Y12436500D01*
X4014470Y12435738D01*
X4010406Y12435738D01*
X4002125Y12436957D01*
X3997858Y12439954D01*
X3996232Y12446914D01*
X3996080Y12460020D01*
X3967280Y12460020D01*
X3967683Y12455550D01*
X3968648Y12451435D01*
X3970121Y12447574D01*
X3972153Y12443866D01*
X3974693Y12440310D01*
X3977792Y12436957D01*
X3981145Y12433960D01*
X3984904Y12431471D01*
X3988968Y12429388D01*
X3993337Y12427813D01*
X3997960Y12426746D01*
X4002887Y12426086D01*
X4008018Y12425934D01*
X4013352Y12426238D01*
X4018838Y12427051D01*
X4024528Y12428321D01*
X4030319Y12430048D01*
X4036212Y12432284D01*
X4040327Y12434214D01*
X4044696Y12436652D01*
X4049268Y12439548D01*
X4058767Y12446508D01*
X4068572Y12454737D01*
X4078173Y12463932D01*
X4087317Y12473686D01*
X4095546Y12483693D01*
X4102506Y12493548D01*
X4112158Y12509550D01*
X4116832Y12515037D01*
X4120946Y12515850D01*
X4130294Y12510566D01*
X4135678Y12508534D01*
X4141470Y12507214D01*
X4146956Y12506706D01*
X4159300Y12506706D01*
X4150664Y12487656D01*
X4147159Y12479274D01*
X4144619Y12471603D01*
X4142994Y12464542D01*
X4142738Y12462002D01*
X4171187Y12462002D01*
X4171492Y12466980D01*
X4172153Y12472111D01*
X4173270Y12477242D01*
X4174744Y12482474D01*
X4176522Y12487757D01*
X4178655Y12492990D01*
X4181094Y12498273D01*
X4183786Y12503454D01*
X4189933Y12513665D01*
X4193336Y12518644D01*
X4200652Y12528092D01*
X4208475Y12536881D01*
X4216603Y12544704D01*
X4220718Y12548260D01*
X4224883Y12551511D01*
X4233113Y12556998D01*
X4237126Y12559182D01*
X4241088Y12561011D01*
X4244898Y12562433D01*
X4248607Y12563398D01*
X4252112Y12563906D01*
X4255465Y12563906D01*
X4258614Y12563449D01*
X4261510Y12562433D01*
X4264152Y12560858D01*
X4266539Y12558725D01*
X4268622Y12555982D01*
X4270095Y12552883D01*
X4270908Y12549327D01*
X4271162Y12545314D01*
X4270857Y12540945D01*
X4270044Y12536271D01*
X4268724Y12531293D01*
X4266946Y12526111D01*
X4264761Y12520676D01*
X4259224Y12509449D01*
X4252366Y12498019D01*
X4248556Y12492278D01*
X4240276Y12481153D01*
X4231335Y12470638D01*
X4222038Y12461087D01*
X4217314Y12456820D01*
X4212640Y12452959D01*
X4207967Y12449505D01*
X4203395Y12446508D01*
X4198874Y12444069D01*
X4194556Y12442139D01*
X4190390Y12440869D01*
X4186377Y12440208D01*
X4182668Y12440259D01*
X4176318Y12441580D01*
X4172864Y12444577D01*
X4171391Y12450876D01*
X4171187Y12462002D01*
X4142738Y12462002D01*
X4142333Y12457988D01*
X4142536Y12451943D01*
X4143705Y12446254D01*
X4145787Y12440970D01*
X4148785Y12435890D01*
X4151680Y12432436D01*
X4154982Y12429744D01*
X4158742Y12427712D01*
X4162907Y12426442D01*
X4167428Y12425832D01*
X4172356Y12425984D01*
X4177588Y12426797D01*
X4183176Y12428321D01*
X4189018Y12430607D01*
X4195216Y12433503D01*
X4201668Y12437160D01*
X4208322Y12441478D01*
X4230979Y12457074D01*
X4232402Y12444933D01*
X4233722Y12439294D01*
X4236313Y12434773D01*
X4240225Y12431268D01*
X4245559Y12428728D01*
X4249877Y12427458D01*
X4254195Y12426696D01*
X4258513Y12426442D01*
X4262882Y12426746D01*
X4267250Y12427610D01*
X4271772Y12428982D01*
X4276394Y12430963D01*
X4281170Y12433503D01*
X4286097Y12436602D01*
X4291279Y12440361D01*
X4296664Y12444679D01*
X4308246Y12454991D01*
X4315917Y12461494D01*
X4317796Y12462764D01*
X4318457Y12462713D01*
X4318000Y12461392D01*
X4304588Y12440818D01*
X4302252Y12436449D01*
X4301439Y12433503D01*
X4302150Y12431725D01*
X4304436Y12430810D01*
X4308297Y12430455D01*
X4313682Y12430404D01*
X4322064Y12430963D01*
X4327855Y12433554D01*
X4332478Y12439294D01*
X4339082Y12452604D01*
X4341266Y12456312D01*
X4347210Y12464999D01*
X4354880Y12475006D01*
X4363821Y12485928D01*
X4373676Y12497257D01*
X4383938Y12508534D01*
X4394149Y12519202D01*
X4404004Y12528854D01*
X4412996Y12536932D01*
X4420666Y12543028D01*
X4432960Y12551765D01*
X4432604Y12538202D01*
X4433011Y12531852D01*
X4434535Y12525908D01*
X4437126Y12520574D01*
X4440580Y12515900D01*
X4444847Y12512090D01*
X4449826Y12509195D01*
X4455312Y12507366D01*
X4461256Y12506706D01*
X4474159Y12506706D01*
X4465066Y12488926D01*
X4462272Y12482982D01*
X4459986Y12477191D01*
X4458309Y12471704D01*
X4457090Y12466472D01*
X4456430Y12461494D01*
X4456314Y12455245D01*
X4483150Y12455245D01*
X4483303Y12459766D01*
X4484116Y12464796D01*
X4485487Y12470333D01*
X4487468Y12476226D01*
X4490059Y12482576D01*
X4493209Y12489281D01*
X4496968Y12496342D01*
X4501286Y12503708D01*
X4506214Y12511379D01*
X4514697Y12523216D01*
X4523435Y12533680D01*
X4527804Y12538456D01*
X4532172Y12542824D01*
X4540808Y12550394D01*
X4545025Y12553645D01*
X4553204Y12558877D01*
X4557064Y12560858D01*
X4560773Y12562433D01*
X4564329Y12563551D01*
X4567682Y12564211D01*
X4570780Y12564414D01*
X4573676Y12564160D01*
X4576318Y12563449D01*
X4578654Y12562179D01*
X4580686Y12560452D01*
X4582363Y12558217D01*
X4583734Y12555474D01*
X4584750Y12552172D01*
X4585309Y12548362D01*
X4585563Y12544247D01*
X4585411Y12540132D01*
X4584852Y12535916D01*
X4583938Y12531648D01*
X4582668Y12527280D01*
X4580991Y12522809D01*
X4578908Y12518186D01*
X4576419Y12513513D01*
X4570171Y12503658D01*
X4562195Y12493091D01*
X4552442Y12481814D01*
X4540859Y12469672D01*
X4526280Y12455601D01*
X4520234Y12450368D01*
X4514900Y12446254D01*
X4510227Y12443155D01*
X4506061Y12441021D01*
X4502353Y12439751D01*
X4498949Y12439396D01*
X4494834Y12439751D01*
X4491380Y12440767D01*
X4488484Y12442444D01*
X4486249Y12444780D01*
X4484573Y12447676D01*
X4483557Y12451181D01*
X4483150Y12455245D01*
X4456314Y12455245D01*
X4456480Y12452350D01*
X4457192Y12448235D01*
X4458309Y12444476D01*
X4459833Y12440970D01*
X4461713Y12437872D01*
X4463999Y12435078D01*
X4466640Y12432639D01*
X4469536Y12430607D01*
X4472787Y12428931D01*
X4476292Y12427712D01*
X4480102Y12426848D01*
X4484116Y12426391D01*
X4488383Y12426442D01*
X4492853Y12426848D01*
X4497476Y12427762D01*
X4502302Y12429134D01*
X4507230Y12431014D01*
X4512310Y12433350D01*
X4517491Y12436246D01*
X4522724Y12439599D01*
X4528058Y12443510D01*
X4542129Y12455398D01*
X4546549Y12458242D01*
X4547768Y12456769D01*
X4547006Y12451232D01*
X4546701Y12446457D01*
X4547616Y12441834D01*
X4549546Y12437567D01*
X4552442Y12433757D01*
X4556099Y12430556D01*
X4560417Y12428067D01*
X4565243Y12426492D01*
X4570476Y12425934D01*
X4574946Y12426086D01*
X4579264Y12426594D01*
X4583582Y12427508D01*
X4587900Y12428829D01*
X4592269Y12430506D01*
X4596688Y12432690D01*
X4601260Y12435332D01*
X4605934Y12438430D01*
X4610862Y12442037D01*
X4621479Y12450876D01*
X4631944Y12460681D01*
X4642104Y12471552D01*
X4652822Y12483896D01*
X4663287Y12496800D01*
X4672787Y12509347D01*
X4680661Y12520523D01*
X4686096Y12529413D01*
X4687722Y12532664D01*
X4688433Y12535052D01*
X4688179Y12536322D01*
X4686503Y12536068D01*
X4683556Y12533630D01*
X4679797Y12529362D01*
X4670450Y12516408D01*
X4659731Y12502184D01*
X4643323Y12482576D01*
X4632401Y12470942D01*
X4621784Y12460630D01*
X4611573Y12451791D01*
X4601972Y12444679D01*
X4597450Y12441783D01*
X4593183Y12439345D01*
X4589170Y12437414D01*
X4585411Y12436043D01*
X4581906Y12435179D01*
X4578756Y12434874D01*
X4575302Y12435128D01*
X4572508Y12435890D01*
X4571390Y12436500D01*
X4569714Y12438278D01*
X4569206Y12439396D01*
X4568799Y12442342D01*
X4569256Y12446254D01*
X4570679Y12451130D01*
X4573066Y12457125D01*
X4576470Y12464389D01*
X4580991Y12472924D01*
X4586630Y12482880D01*
X4601514Y12507366D01*
X4621530Y12538710D01*
X4673600Y12617602D01*
X4694580Y12649860D01*
X4711852Y12676987D01*
X4724196Y12697206D01*
X4730496Y12708636D01*
X4731004Y12710515D01*
X4729124Y12711531D01*
X4726025Y12712395D01*
X4722114Y12712954D01*
X4716526Y12713106D01*
X4713782Y12712496D01*
X4710836Y12710922D01*
X4707483Y12708178D01*
X4703470Y12703860D01*
X4698593Y12697764D01*
X4692650Y12689535D01*
X4685385Y12678867D01*
X4666132Y12649098D01*
X4625086Y12583668D01*
X4614519Y12568021D01*
X4606239Y12557099D01*
X4603242Y12553797D01*
X4601210Y12552172D01*
X4600295Y12552426D01*
X4598873Y12556337D01*
X4597095Y12559842D01*
X4595063Y12562941D01*
X4592777Y12565634D01*
X4590135Y12567869D01*
X4587290Y12569748D01*
X4584141Y12571222D01*
X4580737Y12572288D01*
X4577130Y12572949D01*
X4573270Y12573254D01*
X4569155Y12573101D01*
X4564888Y12572593D01*
X4560417Y12571679D01*
X4555744Y12570358D01*
X4550918Y12568682D01*
X4545939Y12566599D01*
X4540758Y12564110D01*
X4535474Y12561265D01*
X4524451Y12554407D01*
X4513021Y12546076D01*
X4494987Y12530785D01*
X4489450Y12526314D01*
X4484573Y12522809D01*
X4480153Y12520066D01*
X4476191Y12518136D01*
X4472482Y12516967D01*
X4469028Y12516459D01*
X4465675Y12516561D01*
X4460392Y12517983D01*
X4456379Y12520879D01*
X4453686Y12524994D01*
X4452213Y12530226D01*
X4452162Y12536373D01*
X4453382Y12543231D01*
X4456023Y12550698D01*
X4460036Y12558522D01*
X4469180Y12574016D01*
X4457598Y12574016D01*
X4452366Y12573355D01*
X4446625Y12571526D01*
X4441088Y12568885D01*
X4436414Y12565583D01*
X4373727Y12508941D01*
X4399686Y12547752D01*
X4405630Y12557150D01*
X4409643Y12563906D01*
X4411116Y12567056D01*
X4410151Y12568021D01*
X4407509Y12568834D01*
X4403547Y12569342D01*
X4398772Y12569545D01*
X4395012Y12569240D01*
X4391558Y12568224D01*
X4388104Y12566192D01*
X4384497Y12562890D01*
X4380382Y12558115D01*
X4375607Y12551613D01*
X4354880Y12519863D01*
X4346194Y12507772D01*
X4337100Y12496241D01*
X4327804Y12485319D01*
X4318457Y12475159D01*
X4309110Y12465862D01*
X4300016Y12457582D01*
X4291279Y12450419D01*
X4282998Y12444476D01*
X4275328Y12439904D01*
X4271772Y12438176D01*
X4268470Y12436856D01*
X4265371Y12435890D01*
X4262475Y12435382D01*
X4259884Y12435281D01*
X4257548Y12435636D01*
X4255516Y12436449D01*
X4253839Y12437770D01*
X4253026Y12439243D01*
X4252722Y12441428D01*
X4253026Y12444272D01*
X4253839Y12447778D01*
X4255160Y12451842D01*
X4259275Y12461697D01*
X4265218Y12473584D01*
X4272889Y12487198D01*
X4282135Y12502337D01*
X4292803Y12518644D01*
X4326483Y12567310D01*
X4313885Y12568834D01*
X4307789Y12568986D01*
X4302810Y12567818D01*
X4298645Y12565176D01*
X4295089Y12561011D01*
X4288891Y12551664D01*
X4275582Y12562840D01*
X4269587Y12567208D01*
X4262983Y12570764D01*
X4256582Y12573152D01*
X4251248Y12574016D01*
X4246778Y12573711D01*
X4241901Y12572695D01*
X4236567Y12571018D01*
X4230928Y12568834D01*
X4225036Y12566040D01*
X4218940Y12562789D01*
X4212793Y12559080D01*
X4206595Y12554966D01*
X4200499Y12550495D01*
X4194454Y12545669D01*
X4188663Y12540589D01*
X4177792Y12530023D01*
X4173067Y12525756D01*
X4168749Y12522352D01*
X4164787Y12519761D01*
X4160926Y12517831D01*
X4157116Y12516612D01*
X4153204Y12515900D01*
X4149039Y12515697D01*
X4142892Y12516205D01*
X4137253Y12517678D01*
X4132224Y12520066D01*
X4127855Y12523266D01*
X4124299Y12527127D01*
X4121607Y12531598D01*
X4119930Y12536627D01*
X4119372Y12542062D01*
X4118457Y12547549D01*
X4115815Y12553086D01*
X4111853Y12558471D01*
X4106824Y12563398D01*
X4100982Y12567666D01*
X4094683Y12571018D01*
X4088129Y12573203D01*
X4081678Y12573914D01*
X4076446Y12573609D01*
X4071010Y12572746D01*
X4065320Y12571323D01*
X4059428Y12569393D01*
X4053332Y12566954D01*
X4047134Y12564008D01*
X4040784Y12560604D01*
X4034282Y12556642D01*
X4027728Y12552273D01*
X4021124Y12547447D01*
X4014470Y12542164D01*
X3999484Y12529312D01*
X3992321Y12523825D01*
X3986022Y12519863D01*
X3980230Y12517424D01*
X3974642Y12516307D01*
X3968902Y12516459D01*
X3962755Y12517729D01*
X3955846Y12520066D01*
X3949801Y12523012D01*
X3946347Y12527127D01*
X3944721Y12533731D01*
X3943908Y12551613D01*
X3942842Y12558064D01*
X3941064Y12563500D01*
X3938676Y12567869D01*
X3935780Y12571018D01*
X3932377Y12572898D01*
X3928567Y12573457D01*
X3924401Y12572542D01*
X3921404Y12570053D01*
X3919575Y12565075D01*
X3918712Y12557099D01*
X3918915Y12538100D01*
X3918661Y12531699D01*
X3917848Y12525959D01*
X3916273Y12520472D01*
X3913835Y12514732D01*
X3910279Y12508280D01*
X3905554Y12500711D01*
X3895039Y12485268D01*
X3885946Y12473584D01*
X3876649Y12463221D01*
X3871925Y12458547D01*
X3867251Y12454280D01*
X3862578Y12450368D01*
X3857955Y12446863D01*
X3853383Y12443764D01*
X3848912Y12441123D01*
X3844493Y12438938D01*
X3840226Y12437160D01*
X3836111Y12435941D01*
X3832098Y12435128D01*
X3828287Y12434874D01*
X3824884Y12435027D01*
X3821836Y12435433D01*
X3819144Y12436195D01*
X3816908Y12437211D01*
X3814978Y12438532D01*
X3813505Y12440208D01*
X3812387Y12442190D01*
X3811625Y12444577D01*
X3811320Y12447270D01*
X3811371Y12450318D01*
X3811879Y12453721D01*
X3812743Y12457531D01*
X3814013Y12461748D01*
X3815689Y12466320D01*
X3820312Y12476784D01*
X3826611Y12488926D01*
X3834536Y12502845D01*
X3844188Y12518644D01*
X3898849Y12602565D01*
X3937355Y12662154D01*
X3949598Y12681559D01*
X3957828Y12695072D01*
X3962603Y12703606D01*
X3963873Y12706248D01*
X3964432Y12707975D01*
X3964432Y12708839D01*
X3962755Y12709804D01*
X3959504Y12710312D01*
X3955135Y12710312D01*
X3950106Y12709804D01*
X3946194Y12708737D01*
X3944162Y12707721D01*
X3942029Y12706350D01*
X3937355Y12702235D01*
X3931818Y12696037D01*
X3925011Y12687350D01*
X3916679Y12675717D01*
X3906469Y12660782D01*
X3871468Y12607645D01*
X3842512Y12562992D01*
X3817721Y12523927D01*
X3809441Y12511278D01*
X3801668Y12500000D01*
X3794353Y12489992D01*
X3787343Y12481153D01*
X3780586Y12473228D01*
X3773982Y12466218D01*
X3767328Y12459919D01*
X3760571Y12454178D01*
X3753612Y12448895D01*
X3745585Y12443510D01*
X3738270Y12439497D01*
X3731717Y12436703D01*
X3726179Y12435281D01*
X3721608Y12435230D01*
X3718255Y12436500D01*
X3716121Y12439142D01*
X3715410Y12443206D01*
X3715715Y12446406D01*
X3716629Y12450267D01*
X3718306Y12454940D01*
X3720846Y12460579D01*
X3724198Y12467336D01*
X3733952Y12484608D01*
X3748176Y12507823D01*
X3767531Y12537998D01*
X3839413Y12647218D01*
X3856583Y12673990D01*
X3869232Y12694158D01*
X3876090Y12705994D01*
X3877005Y12708178D01*
X3875989Y12711582D01*
X3873347Y12713462D01*
G37*
G36*
X2546908Y12645491D02*
G01*
X2540965Y12644272D01*
X2535123Y12639395D01*
X2532888Y12635890D01*
X2532075Y12632334D01*
X2532684Y12628372D01*
X2534767Y12623698D01*
X2539034Y12617348D01*
X2543454Y12614910D01*
X2548534Y12616281D01*
X2554782Y12621463D01*
X2557881Y12625273D01*
X2559253Y12628880D01*
X2558999Y12632740D01*
X2557170Y12637160D01*
X2552446Y12643104D01*
G37*
G36*
X2095550Y12574016D02*
G01*
X2090826Y12573711D01*
X2085898Y12572898D01*
X2080768Y12571577D01*
X2075434Y12569850D01*
X2069998Y12567615D01*
X2064410Y12564973D01*
X2058720Y12561925D01*
X2053031Y12558522D01*
X2041601Y12550648D01*
X2035911Y12546228D01*
X2030323Y12541554D01*
X2019503Y12531394D01*
X2014321Y12526010D01*
X2009393Y12520472D01*
X2004669Y12514732D01*
X2000199Y12508839D01*
X1996033Y12502896D01*
X1989632Y12492786D01*
X1986483Y12488468D01*
X1978812Y12479274D01*
X1969770Y12469723D01*
X1960067Y12460376D01*
X1950262Y12451842D01*
X1940966Y12444679D01*
X1936750Y12441783D01*
X1932838Y12439446D01*
X1929434Y12437719D01*
X1926488Y12436703D01*
X1915414Y12435078D01*
X1907133Y12436195D01*
X1902206Y12439853D01*
X1901240Y12445898D01*
X1902155Y12448387D01*
X1904085Y12452299D01*
X1910740Y12463627D01*
X1920239Y12478156D01*
X1941830Y12509195D01*
X1949754Y12521793D01*
X1952853Y12527381D01*
X1955393Y12532512D01*
X1957374Y12537186D01*
X1958848Y12541504D01*
X1959762Y12545517D01*
X1960168Y12549174D01*
X1960016Y12552578D01*
X1959406Y12555728D01*
X1958339Y12558674D01*
X1956714Y12561468D01*
X1954682Y12564059D01*
X1952142Y12566599D01*
X1949043Y12569037D01*
X1945792Y12570968D01*
X1942338Y12572390D01*
X1938629Y12573304D01*
X1934768Y12573711D01*
X1930704Y12573558D01*
X1926437Y12572898D01*
X1921967Y12571730D01*
X1917242Y12570053D01*
X1912366Y12567818D01*
X1907235Y12565075D01*
X1901901Y12561824D01*
X1896313Y12558014D01*
X1890522Y12553696D01*
X1884527Y12548870D01*
X1859584Y12526924D01*
X1879701Y12552934D01*
X1884273Y12559436D01*
X1887423Y12564313D01*
X1888540Y12566802D01*
X1887474Y12567869D01*
X1884629Y12568732D01*
X1880362Y12569342D01*
X1875180Y12569545D01*
X1871116Y12569291D01*
X1867458Y12568428D01*
X1864004Y12566650D01*
X1860499Y12563703D01*
X1856638Y12559334D01*
X1852168Y12553238D01*
X1832813Y12523266D01*
X1824431Y12511430D01*
X1815541Y12499594D01*
X1806346Y12488164D01*
X1797050Y12477292D01*
X1787906Y12467285D01*
X1779117Y12458446D01*
X1770989Y12450927D01*
X1763674Y12445085D01*
X1757476Y12441174D01*
X1751838Y12438583D01*
X1746351Y12436703D01*
X1741170Y12435586D01*
X1736547Y12435128D01*
X1732635Y12435382D01*
X1729587Y12436398D01*
X1727657Y12438075D01*
X1726946Y12440513D01*
X1727200Y12442596D01*
X1727962Y12445339D01*
X1730806Y12452553D01*
X1735378Y12461900D01*
X1741474Y12473076D01*
X1748891Y12485674D01*
X1757425Y12499441D01*
X1766976Y12514021D01*
X1777238Y12529159D01*
X1803857Y12567310D01*
X1791360Y12568834D01*
X1785416Y12568936D01*
X1780184Y12567767D01*
X1775612Y12565278D01*
X1771751Y12561570D01*
X1767433Y12556693D01*
X1763928Y12555321D01*
X1759457Y12557455D01*
X1748231Y12566599D01*
X1744167Y12569190D01*
X1740052Y12571171D01*
X1735836Y12572492D01*
X1731467Y12573254D01*
X1726895Y12573355D01*
X1722120Y12572847D01*
X1717039Y12571730D01*
X1711655Y12569952D01*
X1705864Y12567564D01*
X1699717Y12564567D01*
X1693062Y12560960D01*
X1687626Y12557607D01*
X1682242Y12553848D01*
X1676857Y12549682D01*
X1666341Y12540284D01*
X1656334Y12529820D01*
X1647088Y12518542D01*
X1642770Y12512700D01*
X1634998Y12500914D01*
X1631594Y12494971D01*
X1628546Y12489129D01*
X1625904Y12483338D01*
X1623618Y12477699D01*
X1621840Y12472212D01*
X1620469Y12466929D01*
X1619656Y12461951D01*
X1619383Y12456464D01*
X1646732Y12456464D01*
X1647291Y12464135D01*
X1648053Y12469215D01*
X1649171Y12474397D01*
X1650695Y12479629D01*
X1654606Y12490145D01*
X1659737Y12500660D01*
X1665782Y12510922D01*
X1672589Y12520777D01*
X1679956Y12530124D01*
X1687779Y12538659D01*
X1695805Y12546330D01*
X1699818Y12549784D01*
X1707845Y12555728D01*
X1711756Y12558217D01*
X1719325Y12562078D01*
X1722932Y12563398D01*
X1726438Y12564313D01*
X1729689Y12564770D01*
X1732788Y12564770D01*
X1735632Y12564262D01*
X1738274Y12563246D01*
X1740662Y12561722D01*
X1742693Y12559588D01*
X1744472Y12556896D01*
X1745894Y12552781D01*
X1746504Y12547600D01*
X1746351Y12541453D01*
X1745437Y12534646D01*
X1743760Y12527330D01*
X1741424Y12519761D01*
X1738426Y12512040D01*
X1734820Y12504470D01*
X1732534Y12500457D01*
X1729638Y12496038D01*
X1722323Y12486487D01*
X1713585Y12476429D01*
X1704086Y12466523D01*
X1694434Y12457430D01*
X1685340Y12449759D01*
X1681175Y12446660D01*
X1677416Y12444171D01*
X1674063Y12442393D01*
X1671320Y12441326D01*
X1664207Y12439904D01*
X1658416Y12439548D01*
X1653895Y12440310D01*
X1650542Y12442342D01*
X1648256Y12445644D01*
X1647037Y12450318D01*
X1646732Y12456464D01*
X1619383Y12456464D01*
X1619605Y12451181D01*
X1620621Y12445796D01*
X1622196Y12441021D01*
X1624431Y12436957D01*
X1627276Y12433503D01*
X1630578Y12430760D01*
X1634439Y12428677D01*
X1638757Y12427254D01*
X1643532Y12426543D01*
X1648663Y12426543D01*
X1654200Y12427254D01*
X1660042Y12428677D01*
X1666189Y12430810D01*
X1672589Y12433706D01*
X1679244Y12437313D01*
X1699107Y12450470D01*
X1705965Y12453975D01*
X1708556Y12452705D01*
X1709369Y12442444D01*
X1710334Y12438329D01*
X1711960Y12434824D01*
X1714144Y12431826D01*
X1716836Y12429490D01*
X1720037Y12427661D01*
X1723694Y12426442D01*
X1727758Y12425781D01*
X1732127Y12425730D01*
X1736902Y12426238D01*
X1741881Y12427356D01*
X1747164Y12429083D01*
X1752600Y12431369D01*
X1758238Y12434316D01*
X1763979Y12437821D01*
X1779371Y12449098D01*
X1784654Y12452299D01*
X1785924Y12451791D01*
X1778152Y12438989D01*
X1777034Y12433706D01*
X1780438Y12431115D01*
X1788668Y12430404D01*
X1795322Y12431318D01*
X1801164Y12434620D01*
X1807159Y12440970D01*
X1823262Y12464745D01*
X1830476Y12474651D01*
X1838299Y12484912D01*
X1854911Y12505334D01*
X1863191Y12514986D01*
X1871268Y12523927D01*
X1878736Y12531801D01*
X1885492Y12538405D01*
X1895551Y12546990D01*
X1902053Y12552019D01*
X1908048Y12556134D01*
X1913636Y12559436D01*
X1918868Y12561925D01*
X1923846Y12563703D01*
X1928571Y12564719D01*
X1933143Y12565075D01*
X1936648Y12564719D01*
X1939340Y12563754D01*
X1941068Y12562078D01*
X1941931Y12559690D01*
X1941880Y12556540D01*
X1940915Y12552680D01*
X1939036Y12548006D01*
X1936242Y12542520D01*
X1932533Y12536220D01*
X1927809Y12529058D01*
X1904390Y12496800D01*
X1895348Y12483490D01*
X1888388Y12472009D01*
X1883460Y12462306D01*
X1881733Y12458141D01*
X1880514Y12454382D01*
X1879803Y12451029D01*
X1879549Y12448082D01*
X1880260Y12445746D01*
X1882190Y12442444D01*
X1885035Y12438684D01*
X1888540Y12434874D01*
X1891792Y12432030D01*
X1895246Y12429794D01*
X1898904Y12428067D01*
X1902815Y12426899D01*
X1906879Y12426238D01*
X1911197Y12426188D01*
X1915718Y12426696D01*
X1920443Y12427762D01*
X1925370Y12429337D01*
X1930501Y12431471D01*
X1935784Y12434163D01*
X1941271Y12437414D01*
X1946960Y12441224D01*
X1952853Y12445542D01*
X1958898Y12450419D01*
X1975256Y12464846D01*
X1980539Y12468352D01*
X1982520Y12466828D01*
X1982825Y12460732D01*
X1983536Y12455448D01*
X1984775Y12451638D01*
X2009952Y12451638D01*
X2010664Y12463780D01*
X2011375Y12470536D01*
X2012442Y12476784D01*
X2013915Y12482626D01*
X2015896Y12488367D01*
X2018436Y12494158D01*
X2021636Y12500203D01*
X2025548Y12506655D01*
X2030272Y12513818D01*
X2035657Y12521336D01*
X2041296Y12528397D01*
X2047036Y12534950D01*
X2052828Y12540996D01*
X2058670Y12546431D01*
X2064461Y12551257D01*
X2070150Y12555372D01*
X2075688Y12558776D01*
X2080971Y12561417D01*
X2085949Y12563195D01*
X2090623Y12564110D01*
X2094839Y12564160D01*
X2101088Y12562840D01*
X2104440Y12559538D01*
X2105710Y12552476D01*
X2105660Y12539726D01*
X2105304Y12534239D01*
X2104593Y12528702D01*
X2103475Y12523063D01*
X2100173Y12511786D01*
X2098040Y12506147D01*
X2092909Y12495022D01*
X2090013Y12489586D01*
X2083460Y12479070D01*
X2076196Y12469215D01*
X2068372Y12460224D01*
X2060193Y12452350D01*
X2055977Y12448844D01*
X2051761Y12445695D01*
X2047544Y12442901D01*
X2043328Y12440513D01*
X2039112Y12438532D01*
X2034997Y12436957D01*
X2030933Y12435890D01*
X2026970Y12435281D01*
X2023160Y12435230D01*
X2019452Y12435687D01*
X2015947Y12436703D01*
X2012391Y12439142D01*
X2010460Y12443764D01*
X2009952Y12451638D01*
X1984775Y12451638D01*
X1985518Y12449352D01*
X1988515Y12443206D01*
X1992122Y12437719D01*
X1994611Y12434925D01*
X1997405Y12432487D01*
X2000453Y12430404D01*
X2003704Y12428778D01*
X2007209Y12427458D01*
X2010918Y12426543D01*
X2014778Y12425934D01*
X2018792Y12425680D01*
X2022957Y12425781D01*
X2031746Y12426950D01*
X2036267Y12428016D01*
X2040839Y12429388D01*
X2050237Y12432995D01*
X2059787Y12437719D01*
X2064562Y12440462D01*
X2074011Y12446762D01*
X2083307Y12453975D01*
X2092248Y12462103D01*
X2100681Y12470993D01*
X2108504Y12480696D01*
X2112162Y12485776D01*
X2118868Y12496495D01*
X2127351Y12512344D01*
X2131415Y12516916D01*
X2135784Y12516815D01*
X2142337Y12512903D01*
X2148230Y12509804D01*
X2154682Y12508026D01*
X2161641Y12507417D01*
X2169261Y12508128D01*
X2176627Y12509296D01*
X2179116Y12509449D01*
X2180844Y12509195D01*
X2181758Y12508382D01*
X2181758Y12506807D01*
X2180894Y12504470D01*
X2179116Y12501067D01*
X2172665Y12490907D01*
X2155444Y12464897D01*
X2143810Y12446355D01*
X2140407Y12440513D01*
X2137816Y12434976D01*
X2137918Y12431928D01*
X2141321Y12430658D01*
X2148586Y12430404D01*
X2152599Y12430607D01*
X2156155Y12431318D01*
X2159406Y12432741D01*
X2162606Y12435027D01*
X2165908Y12438380D01*
X2169566Y12442850D01*
X2188362Y12470993D01*
X2198370Y12485014D01*
X2208377Y12498222D01*
X2218385Y12510465D01*
X2228291Y12521641D01*
X2237943Y12531750D01*
X2247341Y12540640D01*
X2256332Y12548311D01*
X2264816Y12554559D01*
X2272741Y12559436D01*
X2276500Y12561316D01*
X2280005Y12562789D01*
X2283358Y12563856D01*
X2286558Y12564516D01*
X2289505Y12564770D01*
X2292197Y12564567D01*
X2294686Y12563957D01*
X2296922Y12562840D01*
X2298954Y12560757D01*
X2299817Y12557709D01*
X2299360Y12553492D01*
X2297633Y12548006D01*
X2294585Y12541148D01*
X2290114Y12532817D01*
X2284171Y12522911D01*
X2255418Y12478054D01*
X2225294Y12430404D01*
X2240483Y12430404D01*
X2247087Y12430861D01*
X2252421Y12432233D01*
X2256180Y12434468D01*
X2258364Y12437465D01*
X2261412Y12443815D01*
X2266340Y12452248D01*
X2272792Y12462256D01*
X2280361Y12473279D01*
X2288692Y12484709D01*
X2297277Y12495987D01*
X2305761Y12506604D01*
X2313736Y12515850D01*
X2324709Y12527381D01*
X2335733Y12537643D01*
X2346452Y12546482D01*
X2351633Y12550343D01*
X2361488Y12556794D01*
X2370378Y12561468D01*
X2374392Y12563094D01*
X2378100Y12564211D01*
X2381351Y12564872D01*
X2384247Y12564922D01*
X2386685Y12564465D01*
X2388616Y12563449D01*
X2390089Y12561824D01*
X2390952Y12559538D01*
X2391257Y12556693D01*
X2390749Y12554356D01*
X2389327Y12550851D01*
X2387041Y12546330D01*
X2380386Y12535103D01*
X2371598Y12521996D01*
X2360472Y12506807D01*
X2350109Y12492177D01*
X2342134Y12480188D01*
X2336495Y12470333D01*
X2334463Y12466066D01*
X2332888Y12462154D01*
X2331821Y12458547D01*
X2331161Y12455194D01*
X2330958Y12452096D01*
X2331161Y12449098D01*
X2331720Y12446203D01*
X2332634Y12443358D01*
X2333853Y12440462D01*
X2336038Y12436500D01*
X2338628Y12433147D01*
X2341524Y12430404D01*
X2344724Y12428270D01*
X2348230Y12426797D01*
X2352090Y12425883D01*
X2356256Y12425578D01*
X2360676Y12425832D01*
X2365400Y12426746D01*
X2370429Y12428270D01*
X2375712Y12430353D01*
X2381250Y12433096D01*
X2387041Y12436398D01*
X2393086Y12440310D01*
X2399385Y12444780D01*
X2429662Y12469266D01*
X2427935Y12454280D01*
X2427579Y12448844D01*
X2427884Y12443968D01*
X2428748Y12439700D01*
X2430170Y12436043D01*
X2432151Y12432944D01*
X2434640Y12430455D01*
X2437587Y12428524D01*
X2440940Y12427153D01*
X2444750Y12426442D01*
X2448915Y12426238D01*
X2453436Y12426645D01*
X2458262Y12427661D01*
X2463393Y12429236D01*
X2468778Y12431369D01*
X2474366Y12434112D01*
X2480157Y12437414D01*
X2486101Y12441275D01*
X2492197Y12445746D01*
X2498344Y12450775D01*
X2516936Y12467996D01*
X2516936Y12454382D01*
X2517495Y12448641D01*
X2519019Y12443307D01*
X2521508Y12438481D01*
X2524760Y12434265D01*
X2528671Y12430760D01*
X2533192Y12428169D01*
X2538171Y12426492D01*
X2543556Y12425934D01*
X2549194Y12426442D01*
X2555544Y12427966D01*
X2562250Y12430353D01*
X2569108Y12433452D01*
X2575915Y12437160D01*
X2582418Y12441377D01*
X2588361Y12446000D01*
X2593492Y12450876D01*
X2597658Y12455550D01*
X2600045Y12458852D01*
X2600807Y12460782D01*
X2599944Y12461392D01*
X2597556Y12460630D01*
X2593746Y12458547D01*
X2588514Y12455042D01*
X2576779Y12446609D01*
X2571851Y12443714D01*
X2567228Y12441682D01*
X2563012Y12440462D01*
X2559151Y12439954D01*
X2555646Y12440208D01*
X2552598Y12441224D01*
X2550007Y12442901D01*
X2547874Y12445288D01*
X2546197Y12448336D01*
X2545029Y12452045D01*
X2544419Y12456363D01*
X2544368Y12461290D01*
X2544876Y12466828D01*
X2546045Y12472924D01*
X2547772Y12479578D01*
X2549652Y12485319D01*
X2551938Y12491059D01*
X2554478Y12496698D01*
X2557272Y12502235D01*
X2563672Y12513056D01*
X2570886Y12523317D01*
X2574747Y12528194D01*
X2582824Y12537236D01*
X2591155Y12545314D01*
X2599639Y12552172D01*
X2603804Y12555169D01*
X2607919Y12557760D01*
X2611983Y12559944D01*
X2615946Y12561773D01*
X2619756Y12563195D01*
X2623413Y12564160D01*
X2626868Y12564668D01*
X2630119Y12564668D01*
X2633116Y12564160D01*
X2635859Y12563144D01*
X2638348Y12561570D01*
X2640482Y12559436D01*
X2642260Y12556744D01*
X2643530Y12553696D01*
X2644241Y12550241D01*
X2644546Y12546380D01*
X2644394Y12542215D01*
X2643784Y12537694D01*
X2642717Y12532868D01*
X2641295Y12527838D01*
X2639466Y12522657D01*
X2637282Y12517323D01*
X2631897Y12506401D01*
X2628696Y12500914D01*
X2621432Y12490094D01*
X2617368Y12484862D01*
X2613050Y12479782D01*
X2608173Y12473432D01*
X2605582Y12467336D01*
X2604973Y12460325D01*
X2606040Y12451080D01*
X2607614Y12443663D01*
X2609799Y12437719D01*
X2612644Y12433096D01*
X2616250Y12429794D01*
X2620721Y12427661D01*
X2626207Y12426696D01*
X2632760Y12426797D01*
X2640533Y12427864D01*
X2645460Y12429134D01*
X2650388Y12430963D01*
X2655468Y12433655D01*
X2660904Y12437211D01*
X2666847Y12441834D01*
X2673553Y12447625D01*
X2681122Y12454737D01*
X2695702Y12469368D01*
X2707436Y12482017D01*
X2718511Y12494768D01*
X2728518Y12506960D01*
X2736951Y12517983D01*
X2743352Y12527178D01*
X2747162Y12533934D01*
X2747975Y12536220D01*
X2747924Y12537643D01*
X2747060Y12538151D01*
X2744978Y12537084D01*
X2742133Y12534239D01*
X2738831Y12530023D01*
X2733040Y12521031D01*
X2726385Y12511938D01*
X2717850Y12501473D01*
X2707995Y12490297D01*
X2697480Y12479020D01*
X2686761Y12468199D01*
X2676550Y12458598D01*
X2667304Y12450673D01*
X2663291Y12447574D01*
X2656078Y12442850D01*
X2649067Y12439192D01*
X2642565Y12436703D01*
X2636723Y12435281D01*
X2631795Y12435078D01*
X2627985Y12436094D01*
X2625547Y12438329D01*
X2624683Y12441834D01*
X2624937Y12444628D01*
X2625648Y12447879D01*
X2626918Y12451638D01*
X2628747Y12456007D01*
X2634183Y12466624D01*
X2642209Y12480239D01*
X2653030Y12497155D01*
X2697835Y12563805D01*
X2698699Y12566497D01*
X2697175Y12568275D01*
X2692908Y12569240D01*
X2685796Y12569545D01*
X2678226Y12569088D01*
X2672943Y12567564D01*
X2669438Y12564770D01*
X2667254Y12560452D01*
X2665374Y12555524D01*
X2662986Y12554102D01*
X2658618Y12556439D01*
X2650896Y12562687D01*
X2644902Y12567208D01*
X2639009Y12570510D01*
X2633116Y12572593D01*
X2626969Y12573457D01*
X2620518Y12573152D01*
X2613609Y12571628D01*
X2606040Y12568936D01*
X2597708Y12565024D01*
X2588361Y12559842D01*
X2579420Y12554000D01*
X2570937Y12547549D01*
X2562809Y12540437D01*
X2555138Y12532664D01*
X2547874Y12524232D01*
X2540965Y12515189D01*
X2525217Y12491110D01*
X2516987Y12479578D01*
X2513076Y12474702D01*
X2505151Y12466116D01*
X2496616Y12458547D01*
X2486863Y12451384D01*
X2472944Y12442647D01*
X2465628Y12438888D01*
X2459431Y12436449D01*
X2454300Y12435332D01*
X2450338Y12435484D01*
X2447442Y12436957D01*
X2445715Y12439751D01*
X2445105Y12443866D01*
X2445461Y12445593D01*
X2446477Y12448286D01*
X2450338Y12456109D01*
X2456332Y12466726D01*
X2464054Y12479528D01*
X2473147Y12493853D01*
X2510231Y12549428D01*
X2520086Y12564872D01*
X2521458Y12567412D01*
X2520442Y12568275D01*
X2517698Y12568936D01*
X2513685Y12569393D01*
X2508758Y12569545D01*
X2504948Y12569240D01*
X2501341Y12568224D01*
X2497683Y12566243D01*
X2493822Y12563144D01*
X2489454Y12558623D01*
X2484374Y12552527D01*
X2478328Y12544653D01*
X2465882Y12527534D01*
X2455316Y12513716D01*
X2444699Y12500660D01*
X2434183Y12488570D01*
X2423820Y12477496D01*
X2413711Y12467488D01*
X2404008Y12458700D01*
X2394712Y12451130D01*
X2385974Y12444882D01*
X2377846Y12440107D01*
X2374087Y12438278D01*
X2370480Y12436805D01*
X2367076Y12435789D01*
X2363927Y12435128D01*
X2360980Y12434925D01*
X2357323Y12435179D01*
X2354529Y12436094D01*
X2352598Y12437618D01*
X2351532Y12439802D01*
X2351379Y12442698D01*
X2352090Y12446355D01*
X2353716Y12450826D01*
X2356307Y12456109D01*
X2359761Y12462306D01*
X2364181Y12469368D01*
X2386126Y12501067D01*
X2395626Y12515342D01*
X2403246Y12527584D01*
X2407970Y12536119D01*
X2411679Y12544552D01*
X2412847Y12550495D01*
X2411476Y12555880D01*
X2407564Y12562535D01*
X2404770Y12566091D01*
X2401468Y12568885D01*
X2397709Y12571018D01*
X2393543Y12572390D01*
X2388971Y12573050D01*
X2384094Y12573050D01*
X2378862Y12572339D01*
X2373376Y12570968D01*
X2367635Y12568936D01*
X2361641Y12566243D01*
X2355443Y12562890D01*
X2349093Y12558928D01*
X2342642Y12554305D01*
X2336088Y12549073D01*
X2329434Y12543231D01*
X2314854Y12529058D01*
X2310384Y12525400D01*
X2309418Y12525756D01*
X2314549Y12534849D01*
X2316734Y12539319D01*
X2318359Y12543536D01*
X2319477Y12547498D01*
X2320036Y12551206D01*
X2320137Y12554610D01*
X2319782Y12557760D01*
X2318969Y12560604D01*
X2317750Y12563144D01*
X2316073Y12565430D01*
X2314092Y12567361D01*
X2311704Y12569037D01*
X2309012Y12570358D01*
X2305964Y12571374D01*
X2302662Y12572034D01*
X2299055Y12572390D01*
X2295194Y12572390D01*
X2291130Y12572034D01*
X2282444Y12570307D01*
X2277821Y12568885D01*
X2273096Y12567107D01*
X2268220Y12564922D01*
X2263241Y12562382D01*
X2258212Y12559487D01*
X2253183Y12556185D01*
X2248052Y12552476D01*
X2242921Y12548362D01*
X2222957Y12531445D01*
X2240076Y12554559D01*
X2246680Y12564719D01*
X2247646Y12567005D01*
X2246579Y12567970D01*
X2243785Y12568783D01*
X2239670Y12569342D01*
X2234590Y12569545D01*
X2227580Y12568732D01*
X2221788Y12565684D01*
X2216251Y12559588D01*
X2204516Y12541046D01*
X2199233Y12533934D01*
X2193950Y12528092D01*
X2188565Y12523419D01*
X2182926Y12519964D01*
X2177034Y12517526D01*
X2170734Y12516154D01*
X2163927Y12515697D01*
X2157882Y12516104D01*
X2152497Y12517272D01*
X2147773Y12519304D01*
X2143658Y12522200D01*
X2140204Y12525908D01*
X2137308Y12530531D01*
X2134971Y12536068D01*
X2133193Y12542520D01*
X2131212Y12548565D01*
X2128012Y12554356D01*
X2123897Y12559690D01*
X2118969Y12564414D01*
X2113483Y12568377D01*
X2107641Y12571374D01*
X2101596Y12573304D01*
G37*
G36*
X8592413Y11317833D02*
G01*
X8589416Y11317528D01*
X8580424Y11315598D01*
X8567318Y11311890D01*
X8549792Y11306403D01*
X8531199Y11300256D01*
X8523528Y11297361D01*
X8509355Y11291062D01*
X8496858Y11284305D01*
X8491270Y11280800D01*
X8486190Y11277193D01*
X8481618Y11273586D01*
X8477554Y11269929D01*
X8474049Y11266220D01*
X8471154Y11262563D01*
X8468868Y11258905D01*
X8467191Y11255298D01*
X8466175Y11251793D01*
X8465907Y11249152D01*
X8486495Y11249152D01*
X8486495Y11254689D01*
X8487765Y11260226D01*
X8490305Y11265357D01*
X8494166Y11269573D01*
X8496706Y11271300D01*
X8505088Y11275771D01*
X8516366Y11280952D01*
X8528812Y11286134D01*
X8540750Y11290554D01*
X8550351Y11293551D01*
X8553704Y11294313D01*
X8553653Y11292941D01*
X8549335Y11283340D01*
X8545677Y11276279D01*
X8541258Y11269421D01*
X8536432Y11264239D01*
X8531809Y11261242D01*
X8527948Y11260937D01*
X8524341Y11260988D01*
X8520430Y11258905D01*
X8516721Y11255095D01*
X8510422Y11244478D01*
X8506358Y11240058D01*
X8501938Y11237061D01*
X8497722Y11235944D01*
X8493302Y11237010D01*
X8489950Y11239855D01*
X8487664Y11244021D01*
X8486495Y11249152D01*
X8465907Y11249152D01*
X8465820Y11248288D01*
X8466937Y11242903D01*
X8469985Y11237925D01*
X8474659Y11233454D01*
X8480501Y11229797D01*
X8487105Y11227054D01*
X8494115Y11225530D01*
X8501075Y11225377D01*
X8507679Y11226850D01*
X8512505Y11228578D01*
X8516061Y11229594D01*
X8518347Y11229644D01*
X8519464Y11228578D01*
X8519515Y11226139D01*
X8518550Y11222126D01*
X8513826Y11208613D01*
X8509609Y11197844D01*
X8504631Y11186058D01*
X8499398Y11174679D01*
X8490661Y11157254D01*
X8487867Y11150447D01*
X8486394Y11145418D01*
X8486495Y11142929D01*
X8488070Y11143081D01*
X8491524Y11144402D01*
X8503361Y11150193D01*
X8520277Y11159439D01*
X8540445Y11171123D01*
X8555329Y11180368D01*
X8569604Y11189970D01*
X8583066Y11199825D01*
X8595766Y11209883D01*
X8607552Y11219992D01*
X8618372Y11230102D01*
X8628126Y11240109D01*
X8636762Y11249914D01*
X8644229Y11259464D01*
X8650427Y11268608D01*
X8655304Y11277295D01*
X8658707Y11285423D01*
X8659876Y11289284D01*
X8660638Y11292941D01*
X8660993Y11296396D01*
X8660993Y11299698D01*
X8660536Y11302796D01*
X8659723Y11305641D01*
X8658402Y11308283D01*
X8656675Y11310670D01*
X8652713Y11314074D01*
X8648649Y11315496D01*
X8644737Y11315090D01*
X8641283Y11313058D01*
X8638438Y11309654D01*
X8636508Y11305032D01*
X8635695Y11299393D01*
X8636609Y11289792D01*
X8636406Y11286236D01*
X8635746Y11282476D01*
X8634577Y11278412D01*
X8632901Y11274145D01*
X8630818Y11269675D01*
X8625382Y11260226D01*
X8618321Y11250218D01*
X8609888Y11239906D01*
X8600135Y11229441D01*
X8589213Y11219027D01*
X8577326Y11208867D01*
X8571077Y11203889D01*
X8556955Y11193627D01*
X8543188Y11184178D01*
X8532368Y11177371D01*
X8528558Y11175187D01*
X8525967Y11173968D01*
X8524748Y11173815D01*
X8524494Y11174933D01*
X8524798Y11177066D01*
X8526932Y11184077D01*
X8530793Y11194186D01*
X8536076Y11206632D01*
X8549538Y11235690D01*
X8564473Y11265560D01*
X8571687Y11278971D01*
X8578189Y11290401D01*
X8583676Y11299190D01*
X8585911Y11302339D01*
X8593175Y11310467D01*
X8594902Y11312804D01*
X8595969Y11314684D01*
X8596325Y11316106D01*
X8595868Y11317122D01*
X8594598Y11317681D01*
G37*
G36*
X8428837Y11273993D02*
G01*
X8424113Y11273840D01*
X8419795Y11273434D01*
X8415832Y11272621D01*
X8412022Y11271402D01*
X8408263Y11269675D01*
X8404453Y11267338D01*
X8400440Y11264392D01*
X8396122Y11260734D01*
X8385962Y11251031D01*
X8374075Y11238788D01*
X8363712Y11227714D01*
X8355888Y11218926D01*
X8351520Y11213490D01*
X8350910Y11212372D01*
X8352790Y11211458D01*
X8357971Y11210798D01*
X8365591Y11210493D01*
X8382406Y11210696D01*
X8388197Y11210544D01*
X8392363Y11209883D01*
X8395157Y11208512D01*
X8396884Y11206327D01*
X8397646Y11203076D01*
X8397748Y11198606D01*
X8397443Y11192764D01*
X8396630Y11187328D01*
X8395208Y11182197D01*
X8393226Y11177422D01*
X8390686Y11173002D01*
X8387740Y11168989D01*
X8384438Y11165382D01*
X8380831Y11162233D01*
X8376970Y11159540D01*
X8372957Y11157356D01*
X8368893Y11155680D01*
X8364778Y11154511D01*
X8360765Y11153952D01*
X8356853Y11153952D01*
X8353196Y11154613D01*
X8349792Y11155883D01*
X8346694Y11157813D01*
X8344052Y11160455D01*
X8341918Y11163757D01*
X8340293Y11167872D01*
X8339328Y11172698D01*
X8338972Y11180470D01*
X8340090Y11185753D01*
X8342833Y11188750D01*
X8347303Y11189665D01*
X8351215Y11190173D01*
X8354364Y11191494D01*
X8356498Y11193475D01*
X8357311Y11195862D01*
X8356041Y11198860D01*
X8352586Y11200841D01*
X8347557Y11201806D01*
X8341563Y11201806D01*
X8335111Y11200892D01*
X8328863Y11199114D01*
X8323376Y11196472D01*
X8319262Y11193068D01*
X8316264Y11188750D01*
X8314436Y11184280D01*
X8313724Y11179657D01*
X8313978Y11175034D01*
X8315198Y11170462D01*
X8317280Y11165992D01*
X8320125Y11161674D01*
X8323681Y11157661D01*
X8327847Y11153952D01*
X8332571Y11150701D01*
X8337803Y11147907D01*
X8343442Y11145723D01*
X8349386Y11144148D01*
X8355634Y11143284D01*
X8361984Y11143234D01*
X8368487Y11143996D01*
X8374024Y11145367D01*
X8379307Y11147094D01*
X8384336Y11149279D01*
X8389112Y11151819D01*
X8393582Y11154664D01*
X8397798Y11157813D01*
X8401659Y11161268D01*
X8405215Y11164874D01*
X8408466Y11168684D01*
X8411362Y11172647D01*
X8413902Y11176711D01*
X8416086Y11180826D01*
X8417915Y11185042D01*
X8419338Y11189208D01*
X8420404Y11193322D01*
X8421014Y11197386D01*
X8421268Y11201298D01*
X8421065Y11205108D01*
X8420404Y11208715D01*
X8419338Y11212068D01*
X8417763Y11215217D01*
X8415782Y11218062D01*
X8413292Y11220551D01*
X8410295Y11222634D01*
X8406790Y11224361D01*
X8402828Y11225631D01*
X8398256Y11226444D01*
X8386470Y11227003D01*
X8384387Y11228781D01*
X8387181Y11233200D01*
X8394954Y11241430D01*
X8401608Y11247272D01*
X8408517Y11251285D01*
X8415121Y11253368D01*
X8420912Y11253216D01*
X8426043Y11252657D01*
X8432038Y11253216D01*
X8438388Y11254689D01*
X8444687Y11256822D01*
X8450427Y11259464D01*
X8455101Y11262461D01*
X8458250Y11265509D01*
X8459368Y11268557D01*
X8457387Y11270335D01*
X8451951Y11271961D01*
X8443925Y11273180D01*
X8434120Y11273891D01*
G37*
G36*
X8268868Y11232845D02*
G01*
X8262569Y11231626D01*
X8256422Y11227968D01*
X8250681Y11222126D01*
X8245602Y11214354D01*
X8242808Y11209477D01*
X8239963Y11205514D01*
X8237016Y11202263D01*
X8233867Y11199774D01*
X8230362Y11197996D01*
X8226501Y11196726D01*
X8222132Y11196066D01*
X8209584Y11195354D01*
X8202828Y11194034D01*
X8197545Y11192052D01*
X8194548Y11189665D01*
X8194294Y11187226D01*
X8196630Y11185296D01*
X8201202Y11183975D01*
X8207705Y11183518D01*
X8217204Y11183213D01*
X8221065Y11181486D01*
X8219998Y11176965D01*
X8210143Y11161826D01*
X8207146Y11156746D01*
X8205368Y11152936D01*
X8204860Y11150193D01*
X8205571Y11148314D01*
X8207603Y11147196D01*
X8210905Y11146637D01*
X8215528Y11146485D01*
X8220811Y11147958D01*
X8226907Y11151920D01*
X8232952Y11157813D01*
X8238236Y11164976D01*
X8241385Y11169802D01*
X8244535Y11173764D01*
X8247735Y11176965D01*
X8251139Y11179454D01*
X8254847Y11181334D01*
X8258860Y11182553D01*
X8263331Y11183264D01*
X8275624Y11183975D01*
X8281568Y11185296D01*
X8285632Y11187277D01*
X8287105Y11189665D01*
X8286089Y11192052D01*
X8283346Y11194034D01*
X8279282Y11195354D01*
X8274354Y11195862D01*
X8269274Y11195964D01*
X8265566Y11196523D01*
X8263280Y11197590D01*
X8262366Y11199418D01*
X8262772Y11202162D01*
X8264499Y11206022D01*
X8267547Y11211102D01*
X8277352Y11226139D01*
X8278825Y11230711D01*
X8276081Y11232540D01*
G37*
G36*
X8592159Y10784433D02*
G01*
X8589162Y10784128D01*
X8580221Y10782198D01*
X8567216Y10778490D01*
X8549741Y10773003D01*
X8531250Y10766856D01*
X8523630Y10763961D01*
X8516366Y10760862D01*
X8509508Y10757662D01*
X8503056Y10754309D01*
X8497062Y10750905D01*
X8491524Y10747400D01*
X8486444Y10743793D01*
X8481872Y10740186D01*
X8477859Y10736529D01*
X8474405Y10732820D01*
X8471509Y10729163D01*
X8469223Y10725505D01*
X8467547Y10721898D01*
X8466531Y10718393D01*
X8466263Y10715752D01*
X8486749Y10715752D01*
X8486800Y10721289D01*
X8488019Y10726826D01*
X8490559Y10731957D01*
X8494369Y10736173D01*
X8496909Y10737900D01*
X8505240Y10742371D01*
X8516467Y10747552D01*
X8528913Y10752734D01*
X8540750Y10757154D01*
X8550300Y10760151D01*
X8553653Y10760913D01*
X8553551Y10759541D01*
X8552027Y10755731D01*
X8545677Y10742879D01*
X8541258Y10736021D01*
X8536482Y10730839D01*
X8531860Y10727842D01*
X8527999Y10727537D01*
X8524392Y10727588D01*
X8520531Y10725505D01*
X8516823Y10721695D01*
X8510574Y10711078D01*
X8506510Y10706658D01*
X8502142Y10703661D01*
X8497925Y10702544D01*
X8493556Y10703610D01*
X8490153Y10706455D01*
X8487918Y10710621D01*
X8486749Y10715752D01*
X8466263Y10715752D01*
X8466175Y10714888D01*
X8467293Y10709503D01*
X8470341Y10704525D01*
X8475014Y10700054D01*
X8480806Y10696397D01*
X8487359Y10693654D01*
X8494318Y10692130D01*
X8501278Y10691977D01*
X8507831Y10693450D01*
X8512657Y10695178D01*
X8516162Y10696194D01*
X8518448Y10696244D01*
X8519566Y10695178D01*
X8519617Y10692739D01*
X8518652Y10688726D01*
X8513927Y10675213D01*
X8509762Y10664444D01*
X8504783Y10652658D01*
X8499602Y10641279D01*
X8490915Y10623854D01*
X8488121Y10617047D01*
X8486648Y10612018D01*
X8486749Y10609529D01*
X8488324Y10609681D01*
X8491778Y10611002D01*
X8503564Y10616793D01*
X8520379Y10626039D01*
X8540445Y10637723D01*
X8555278Y10646968D01*
X8569452Y10656570D01*
X8582863Y10666425D01*
X8595461Y10676483D01*
X8607196Y10686592D01*
X8617966Y10696702D01*
X8627719Y10706709D01*
X8636304Y10716514D01*
X8643721Y10726064D01*
X8649868Y10735208D01*
X8654694Y10743895D01*
X8658098Y10752023D01*
X8659266Y10755884D01*
X8660028Y10759541D01*
X8660434Y10762996D01*
X8660384Y10766298D01*
X8659977Y10769396D01*
X8659114Y10772241D01*
X8657844Y10774883D01*
X8656116Y10777270D01*
X8652154Y10780674D01*
X8648090Y10782096D01*
X8644229Y10781690D01*
X8640775Y10779658D01*
X8637930Y10776254D01*
X8636000Y10771632D01*
X8635238Y10765993D01*
X8636101Y10756392D01*
X8635949Y10752836D01*
X8635238Y10749076D01*
X8634069Y10745012D01*
X8632444Y10740745D01*
X8630361Y10736275D01*
X8627872Y10731652D01*
X8621623Y10721898D01*
X8617966Y10716818D01*
X8609533Y10706506D01*
X8599830Y10696041D01*
X8588959Y10685627D01*
X8577122Y10675467D01*
X8564473Y10665663D01*
X8549690Y10655249D01*
X8537346Y10647019D01*
X8528608Y10641787D01*
X8526018Y10640568D01*
X8524849Y10640415D01*
X8524544Y10641533D01*
X8524849Y10643666D01*
X8526983Y10650677D01*
X8530844Y10660786D01*
X8536127Y10673232D01*
X8542426Y10687304D01*
X8556904Y10717479D01*
X8564372Y10732160D01*
X8571484Y10745571D01*
X8577986Y10757001D01*
X8583422Y10765790D01*
X8587536Y10771174D01*
X8592921Y10777067D01*
X8594648Y10779404D01*
X8595715Y10781284D01*
X8596020Y10782706D01*
X8595563Y10783722D01*
X8594293Y10784281D01*
G37*
G36*
X8401812Y10744504D02*
G01*
X8396274Y10743996D01*
X8390534Y10742930D01*
X8385708Y10741355D01*
X8380882Y10738916D01*
X8376158Y10735868D01*
X8371636Y10732211D01*
X8367471Y10728147D01*
X8363712Y10723778D01*
X8360409Y10719206D01*
X8357768Y10714583D01*
X8355838Y10710062D01*
X8354669Y10705693D01*
X8354466Y10701680D01*
X8355228Y10698073D01*
X8357768Y10693298D01*
X8361121Y10689437D01*
X8365134Y10686491D01*
X8369604Y10684611D01*
X8374329Y10683748D01*
X8379104Y10684052D01*
X8383778Y10685526D01*
X8388146Y10688218D01*
X8392464Y10692282D01*
X8393430Y10695228D01*
X8390686Y10697718D01*
X8378698Y10702747D01*
X8374786Y10705185D01*
X8372398Y10707827D01*
X8371636Y10710824D01*
X8372398Y10714177D01*
X8374684Y10718038D01*
X8378545Y10722457D01*
X8383981Y10727537D01*
X8390788Y10732770D01*
X8396579Y10735208D01*
X8402015Y10735056D01*
X8407806Y10732465D01*
X8411362Y10730077D01*
X8414461Y10727537D01*
X8416950Y10724896D01*
X8418982Y10722102D01*
X8420455Y10719257D01*
X8421420Y10716310D01*
X8421827Y10713262D01*
X8421776Y10710062D01*
X8421166Y10706862D01*
X8420049Y10703509D01*
X8418423Y10700105D01*
X8416290Y10696600D01*
X8413648Y10693044D01*
X8410498Y10689386D01*
X8406841Y10685678D01*
X8402726Y10681919D01*
X8398103Y10678058D01*
X8392972Y10674146D01*
X8381238Y10666222D01*
X8367572Y10658094D01*
X8338464Y10642650D01*
X8326323Y10635640D01*
X8316010Y10629036D01*
X8308035Y10623245D01*
X8302853Y10618571D01*
X8301532Y10616742D01*
X8301075Y10615320D01*
X8301634Y10611256D01*
X8303818Y10610037D01*
X8308390Y10611612D01*
X8320582Y10618876D01*
X8324596Y10620908D01*
X8328355Y10622076D01*
X8332165Y10622483D01*
X8336330Y10622127D01*
X8341106Y10620959D01*
X8346846Y10619028D01*
X8360460Y10613898D01*
X8366861Y10612272D01*
X8373109Y10611358D01*
X8379104Y10611154D01*
X8384844Y10611713D01*
X8390382Y10613034D01*
X8395716Y10615015D01*
X8400796Y10617809D01*
X8405672Y10621314D01*
X8410346Y10625531D01*
X8414766Y10630458D01*
X8418982Y10636148D01*
X8423402Y10643412D01*
X8425789Y10648848D01*
X8426348Y10652404D01*
X8425230Y10654030D01*
X8422589Y10653674D01*
X8418525Y10651286D01*
X8413242Y10646867D01*
X8402015Y10634878D01*
X8397951Y10630865D01*
X8394395Y10628122D01*
X8391042Y10626648D01*
X8387537Y10626242D01*
X8383625Y10626902D01*
X8378952Y10628477D01*
X8355025Y10639044D01*
X8392160Y10656620D01*
X8404606Y10662970D01*
X8415528Y10669016D01*
X8423605Y10673943D01*
X8426145Y10675772D01*
X8430463Y10679633D01*
X8434120Y10683595D01*
X8437168Y10687710D01*
X8439607Y10691876D01*
X8441486Y10696143D01*
X8442756Y10700410D01*
X8443518Y10704728D01*
X8443772Y10708944D01*
X8443468Y10713110D01*
X8442706Y10717123D01*
X8441486Y10721035D01*
X8439759Y10724743D01*
X8437626Y10728248D01*
X8435086Y10731500D01*
X8432139Y10734446D01*
X8428837Y10737138D01*
X8425129Y10739424D01*
X8421065Y10741355D01*
X8416696Y10742828D01*
X8412022Y10743895D01*
X8407044Y10744454D01*
G37*
G36*
X8337296Y10741964D02*
G01*
X8334756Y10741863D01*
X8330996Y10740644D01*
X8325866Y10738256D01*
X8319312Y10734700D01*
X8289747Y10716666D01*
X8278977Y10710926D01*
X8270290Y10707065D01*
X8267090Y10705998D01*
X8261654Y10705134D01*
X8259013Y10703814D01*
X8257235Y10701883D01*
X8256625Y10699445D01*
X8257184Y10695178D01*
X8259927Y10693704D01*
X8266582Y10695178D01*
X8286699Y10702290D01*
X8289290Y10702899D01*
X8290966Y10702798D01*
X8291626Y10701782D01*
X8291169Y10699699D01*
X8289544Y10696397D01*
X8282584Y10685272D01*
X8255508Y10645800D01*
X8245906Y10630712D01*
X8242553Y10624820D01*
X8240217Y10619994D01*
X8238794Y10616133D01*
X8238337Y10613288D01*
X8238845Y10611307D01*
X8240217Y10610189D01*
X8242553Y10609935D01*
X8245754Y10610494D01*
X8249869Y10611764D01*
X8251545Y10612780D01*
X8253831Y10614812D01*
X8260080Y10621721D01*
X8268208Y10631627D01*
X8277606Y10643920D01*
X8287867Y10657840D01*
X8308746Y10687608D01*
X8318296Y10701934D01*
X8326678Y10714990D01*
X8333282Y10726013D01*
X8337600Y10734294D01*
X8338769Y10737138D01*
X8339175Y10739018D01*
X8338718Y10740999D01*
G37*
G36*
X8181289Y10699445D02*
G01*
X8175040Y10698226D01*
X8168944Y10694568D01*
X8163204Y10688726D01*
X8158175Y10680954D01*
X8155381Y10676077D01*
X8152536Y10672114D01*
X8149590Y10668863D01*
X8146440Y10666374D01*
X8142986Y10664596D01*
X8139125Y10663326D01*
X8134756Y10662666D01*
X8122310Y10661954D01*
X8115553Y10660634D01*
X8110321Y10658652D01*
X8107375Y10656265D01*
X8107070Y10653826D01*
X8109407Y10651896D01*
X8113979Y10650575D01*
X8120430Y10650118D01*
X8129879Y10649813D01*
X8133740Y10648086D01*
X8132673Y10643565D01*
X8122869Y10628426D01*
X8119872Y10623346D01*
X8118094Y10619536D01*
X8117586Y10616793D01*
X8118348Y10614914D01*
X8120329Y10613796D01*
X8123631Y10613237D01*
X8128203Y10613085D01*
X8133486Y10614558D01*
X8139531Y10618520D01*
X8145525Y10624413D01*
X8150809Y10631576D01*
X8153958Y10636402D01*
X8157057Y10640364D01*
X8160308Y10643565D01*
X8163661Y10646054D01*
X8167319Y10647934D01*
X8171332Y10649153D01*
X8175802Y10649864D01*
X8187994Y10650575D01*
X8193938Y10651896D01*
X8197951Y10653877D01*
X8199424Y10656265D01*
X8198459Y10658652D01*
X8195716Y10660634D01*
X8191652Y10661954D01*
X8186724Y10662462D01*
X8181695Y10662564D01*
X8178038Y10663123D01*
X8175752Y10664190D01*
X8174837Y10666018D01*
X8175244Y10668762D01*
X8176971Y10672622D01*
X8179968Y10677702D01*
X8189722Y10692739D01*
X8191195Y10697311D01*
X8188452Y10699140D01*
G37*
G36*
X8590838Y10238333D02*
G01*
X8587892Y10238028D01*
X8579205Y10236098D01*
X8566505Y10232390D01*
X8549436Y10226903D01*
X8531453Y10220756D01*
X8524036Y10217861D01*
X8510270Y10211562D01*
X8503970Y10208209D01*
X8498128Y10204805D01*
X8492693Y10201300D01*
X8487765Y10197693D01*
X8483346Y10194086D01*
X8479383Y10190429D01*
X8476030Y10186720D01*
X8473186Y10183063D01*
X8470950Y10179405D01*
X8469325Y10175798D01*
X8468309Y10172293D01*
X8468079Y10169652D01*
X8488070Y10169652D01*
X8488070Y10175189D01*
X8489289Y10180726D01*
X8491778Y10185857D01*
X8495487Y10190073D01*
X8497976Y10191800D01*
X8506104Y10196271D01*
X8517026Y10201452D01*
X8529167Y10206634D01*
X8540699Y10211054D01*
X8549995Y10214051D01*
X8553297Y10214813D01*
X8553196Y10213441D01*
X8551722Y10209631D01*
X8545474Y10196779D01*
X8541207Y10189921D01*
X8536533Y10184739D01*
X8532012Y10181742D01*
X8528253Y10181437D01*
X8524798Y10181488D01*
X8520988Y10179405D01*
X8517382Y10175595D01*
X8511286Y10164978D01*
X8507323Y10160558D01*
X8503056Y10157561D01*
X8498941Y10156444D01*
X8494674Y10157510D01*
X8491423Y10160355D01*
X8489188Y10164521D01*
X8488070Y10169652D01*
X8468079Y10169652D01*
X8468004Y10168788D01*
X8469071Y10163403D01*
X8472068Y10158425D01*
X8476589Y10153954D01*
X8482228Y10150297D01*
X8488680Y10147554D01*
X8495436Y10146030D01*
X8502243Y10145877D01*
X8508593Y10147350D01*
X8516721Y10150094D01*
X8518956Y10150144D01*
X8520074Y10149078D01*
X8520125Y10146639D01*
X8519160Y10142626D01*
X8514588Y10129113D01*
X8510524Y10118344D01*
X8505647Y10106558D01*
X8500567Y10095179D01*
X8492134Y10077754D01*
X8489391Y10070947D01*
X8487968Y10065918D01*
X8488070Y10063429D01*
X8489594Y10063581D01*
X8492947Y10064902D01*
X8504428Y10070693D01*
X8520836Y10079939D01*
X8540394Y10091623D01*
X8554872Y10100868D01*
X8568690Y10110470D01*
X8581796Y10120325D01*
X8594090Y10130383D01*
X8605520Y10140492D01*
X8615984Y10150602D01*
X8625484Y10160609D01*
X8633866Y10170414D01*
X8641080Y10179964D01*
X8647125Y10189108D01*
X8651798Y10197795D01*
X8655151Y10205923D01*
X8656269Y10209784D01*
X8656980Y10213441D01*
X8657386Y10216896D01*
X8657336Y10220198D01*
X8656929Y10223296D01*
X8656116Y10226141D01*
X8654846Y10228783D01*
X8653170Y10231170D01*
X8649309Y10234574D01*
X8645347Y10235996D01*
X8641588Y10235590D01*
X8638235Y10233558D01*
X8635492Y10230154D01*
X8633612Y10225532D01*
X8632799Y10219893D01*
X8633663Y10210292D01*
X8633510Y10206736D01*
X8632850Y10202976D01*
X8631682Y10198912D01*
X8630107Y10194645D01*
X8628075Y10190175D01*
X8625636Y10185552D01*
X8622792Y10180726D01*
X8615984Y10170718D01*
X8607755Y10160406D01*
X8598306Y10149941D01*
X8587740Y10139527D01*
X8576208Y10129367D01*
X8563813Y10119563D01*
X8549436Y10109149D01*
X8537397Y10100919D01*
X8528862Y10095687D01*
X8526322Y10094468D01*
X8525205Y10094315D01*
X8524900Y10095433D01*
X8525205Y10097566D01*
X8527288Y10104577D01*
X8531047Y10114686D01*
X8536178Y10127132D01*
X8549233Y10156190D01*
X8563762Y10186060D01*
X8570722Y10199471D01*
X8577021Y10210901D01*
X8582304Y10219690D01*
X8586317Y10225074D01*
X8591550Y10230967D01*
X8593277Y10233304D01*
X8594293Y10235184D01*
X8594598Y10236606D01*
X8594140Y10237622D01*
X8592921Y10238181D01*
G37*
G36*
X8405215Y10198404D02*
G01*
X8399881Y10197896D01*
X8394242Y10196830D01*
X8389518Y10195255D01*
X8384844Y10192816D01*
X8380222Y10189768D01*
X8375853Y10186111D01*
X8371738Y10182047D01*
X8368080Y10177678D01*
X8364880Y10173106D01*
X8362340Y10168483D01*
X8360409Y10163962D01*
X8359292Y10159593D01*
X8359089Y10155580D01*
X8359851Y10151973D01*
X8362340Y10147198D01*
X8365591Y10143337D01*
X8369503Y10140391D01*
X8373821Y10138511D01*
X8378444Y10137648D01*
X8383117Y10137952D01*
X8387689Y10139426D01*
X8391906Y10142118D01*
X8396173Y10146182D01*
X8397036Y10149128D01*
X8394446Y10151618D01*
X8382711Y10156647D01*
X8378901Y10159085D01*
X8376615Y10161727D01*
X8375802Y10164724D01*
X8376564Y10168077D01*
X8378799Y10171938D01*
X8382558Y10176357D01*
X8387842Y10181437D01*
X8394496Y10186670D01*
X8400135Y10189108D01*
X8405469Y10188956D01*
X8411108Y10186365D01*
X8414562Y10183977D01*
X8417560Y10181437D01*
X8420049Y10178796D01*
X8421979Y10176002D01*
X8423452Y10173157D01*
X8424367Y10170210D01*
X8424773Y10167162D01*
X8424722Y10163962D01*
X8424113Y10160762D01*
X8423046Y10157409D01*
X8421420Y10154005D01*
X8419388Y10150500D01*
X8416798Y10146944D01*
X8413750Y10143286D01*
X8410194Y10139578D01*
X8401608Y10131958D01*
X8396630Y10128046D01*
X8385200Y10120122D01*
X8371840Y10111994D01*
X8346694Y10098328D01*
X8337397Y10092994D01*
X8328964Y10087813D01*
X8321598Y10082936D01*
X8315502Y10078516D01*
X8310930Y10074656D01*
X8308035Y10071506D01*
X8307019Y10069220D01*
X8307578Y10065156D01*
X8309711Y10063937D01*
X8314131Y10065512D01*
X8326018Y10072776D01*
X8329980Y10074808D01*
X8333638Y10075976D01*
X8337346Y10076383D01*
X8341410Y10076027D01*
X8346033Y10074859D01*
X8351621Y10072928D01*
X8364931Y10067798D01*
X8371179Y10066172D01*
X8377275Y10065258D01*
X8383117Y10065054D01*
X8388705Y10065613D01*
X8394141Y10066934D01*
X8399322Y10068915D01*
X8404301Y10071709D01*
X8409025Y10075214D01*
X8413546Y10079431D01*
X8417864Y10084358D01*
X8421979Y10090048D01*
X8426297Y10097312D01*
X8428634Y10102748D01*
X8429193Y10106304D01*
X8428075Y10107930D01*
X8425484Y10107574D01*
X8421522Y10105186D01*
X8416391Y10100767D01*
X8405469Y10088778D01*
X8401507Y10084765D01*
X8398052Y10082022D01*
X8394750Y10080548D01*
X8391347Y10080142D01*
X8387537Y10080802D01*
X8382965Y10082377D01*
X8359648Y10092944D01*
X8395868Y10110520D01*
X8407958Y10116870D01*
X8418626Y10122916D01*
X8426500Y10127843D01*
X8428990Y10129672D01*
X8433155Y10133533D01*
X8436762Y10137495D01*
X8439708Y10141610D01*
X8442096Y10145776D01*
X8443925Y10150043D01*
X8445195Y10154310D01*
X8445906Y10158628D01*
X8446160Y10162844D01*
X8445855Y10167010D01*
X8445144Y10171023D01*
X8443925Y10174935D01*
X8442248Y10178643D01*
X8440166Y10182148D01*
X8437727Y10185400D01*
X8434832Y10188346D01*
X8431580Y10191038D01*
X8427974Y10193324D01*
X8424011Y10195255D01*
X8419744Y10196728D01*
X8415172Y10197795D01*
X8410346Y10198354D01*
G37*
G36*
X8336127Y10195864D02*
G01*
X8333689Y10195763D01*
X8329980Y10194544D01*
X8325053Y10192156D01*
X8318652Y10188600D01*
X8289798Y10170566D01*
X8279282Y10164826D01*
X8270849Y10160965D01*
X8267700Y10159898D01*
X8262416Y10159034D01*
X8259825Y10157714D01*
X8258098Y10155783D01*
X8257489Y10153345D01*
X8258048Y10149078D01*
X8260740Y10147604D01*
X8267242Y10149078D01*
X8286800Y10156190D01*
X8289391Y10156799D01*
X8291017Y10156698D01*
X8291626Y10155682D01*
X8291169Y10153599D01*
X8289594Y10150297D01*
X8286851Y10145522D01*
X8277504Y10131094D01*
X8262620Y10108996D01*
X8251291Y10091623D01*
X8247075Y10084612D01*
X8243824Y10078720D01*
X8241487Y10073894D01*
X8240115Y10070033D01*
X8239709Y10067188D01*
X8240166Y10065207D01*
X8241538Y10064089D01*
X8243773Y10063835D01*
X8246922Y10064394D01*
X8250936Y10065664D01*
X8252510Y10066680D01*
X8254746Y10068712D01*
X8257590Y10071709D01*
X8264652Y10080244D01*
X8273288Y10091470D01*
X8282940Y10104628D01*
X8303310Y10134041D01*
X8313115Y10148773D01*
X8321903Y10162590D01*
X8329269Y10174732D01*
X8334654Y10184434D01*
X8336483Y10188194D01*
X8337600Y10191038D01*
X8337956Y10192918D01*
X8337550Y10194899D01*
G37*
G36*
X8189722Y10116362D02*
G01*
X8177580Y10115854D01*
X8167014Y10114534D01*
X8159242Y10112552D01*
X8155330Y10110165D01*
X8156092Y10107574D01*
X8161731Y10105644D01*
X8171789Y10104424D01*
X8185912Y10104018D01*
X8199272Y10104475D01*
X8210245Y10105796D01*
X8217611Y10107777D01*
X8220354Y10110165D01*
X8217916Y10112552D01*
X8211362Y10114534D01*
X8201609Y10115854D01*
G37*
D10*
X7233158Y384047D02*
G01*
X7233158Y390905D01*
X7240015Y404368D01*
X7246874Y411226D01*
X7260336Y418084D01*
X7287768Y418084D01*
X7301229Y411226D01*
X7308088Y404368D01*
X7314945Y390905D01*
X7314945Y377189D01*
X7308088Y363473D01*
X7294372Y343154D01*
X7226300Y274828D01*
X7321804Y274828D01*
X7448550Y418084D02*
G01*
X7380477Y418084D01*
X7373620Y356615D01*
X7380477Y363473D01*
X7400797Y370331D01*
X7421372Y370331D01*
X7441691Y363473D01*
X7455408Y349757D01*
X7462265Y329437D01*
X7462265Y315721D01*
X7455408Y295402D01*
X7441691Y281686D01*
X7421372Y274828D01*
X7400797Y274828D01*
X7380477Y281686D01*
X7373620Y288544D01*
X7366761Y302260D01*
X7514081Y384047D02*
G01*
X7514081Y390905D01*
X7520940Y404368D01*
X7527543Y411226D01*
X7541259Y418084D01*
X7568691Y418084D01*
X7582154Y411226D01*
X7589011Y404368D01*
X7595870Y390905D01*
X7595870Y377189D01*
X7589011Y363473D01*
X7575295Y343154D01*
X7507224Y274828D01*
X7602727Y274828D01*
X7688579Y418084D02*
G01*
X7668006Y411226D01*
X7654543Y390905D01*
X7647686Y356615D01*
X7647686Y336295D01*
X7654543Y302260D01*
X7668006Y281686D01*
X7688579Y274828D01*
X7702295Y274828D01*
X7722615Y281686D01*
X7736331Y302260D01*
X7743190Y336295D01*
X7743190Y356615D01*
X7736331Y390905D01*
X7722615Y411226D01*
X7702295Y418084D01*
X7688579Y418084D01*
X7842758Y418084D02*
G01*
X7788147Y274828D01*
X7842758Y418084D02*
G01*
X7897113Y274828D01*
X7808468Y322579D02*
G01*
X7876793Y322579D01*
D11*
X563371Y3291204D02*
G01*
X563371Y3295777D01*
X567944Y3304920D01*
X572515Y3309493D01*
X581405Y3314064D01*
X599694Y3314064D01*
X608837Y3309493D01*
X613410Y3304920D01*
X617981Y3295777D01*
X617981Y3286632D01*
X613410Y3277743D01*
X604265Y3264027D01*
X558800Y3218561D01*
X622554Y3218561D01*
X571500Y9417103D02*
G01*
X580644Y9421675D01*
X594105Y9435137D01*
X594105Y9339633D01*
X7883118Y9435289D02*
G01*
X7933156Y9435289D01*
X7905724Y9398967D01*
X7919440Y9398967D01*
X7928584Y9394395D01*
X7933156Y9389823D01*
X7937728Y9376107D01*
X7937728Y9366963D01*
X7933156Y9353501D01*
X7924012Y9344357D01*
X7910296Y9339785D01*
X7896834Y9339785D01*
X7883118Y9344357D01*
X7878546Y9348929D01*
X7873974Y9357819D01*
X7919440Y3326790D02*
G01*
X7873974Y3263036D01*
X7942300Y3263036D01*
X7919440Y3326790D02*
G01*
X7919440Y3231286D01*
D12*
X167894Y2425776D02*
G01*
X167894Y2343734D01*
X127000Y2384882D02*
G01*
X208787Y2384882D01*
X293370Y2439238D02*
G01*
X247904Y2439238D01*
X243331Y2398344D01*
X247904Y2402916D01*
X261620Y2407488D01*
X275081Y2407488D01*
X288797Y2402916D01*
X297942Y2393772D01*
X302513Y2380310D01*
X302513Y2371166D01*
X297942Y2357450D01*
X288797Y2348306D01*
X275081Y2343734D01*
X261620Y2343734D01*
X247904Y2348306D01*
X243331Y2352878D01*
X238760Y2362022D01*
X332486Y2439238D02*
G01*
X368807Y2343734D01*
X405129Y2439238D02*
G01*
X368807Y2343734D01*
X117094Y2171776D02*
G01*
X117094Y2089734D01*
X76200Y2130882D02*
G01*
X157987Y2130882D01*
X187960Y2167204D02*
G01*
X197104Y2171776D01*
X210820Y2185238D01*
X210820Y2089734D01*
X245363Y2162632D02*
G01*
X245363Y2167204D01*
X249936Y2176094D01*
X254507Y2180666D01*
X263397Y2185238D01*
X281686Y2185238D01*
X290829Y2180666D01*
X295402Y2176094D01*
X299720Y2167204D01*
X299720Y2158060D01*
X295402Y2148916D01*
X286257Y2135200D01*
X240792Y2089734D01*
X304292Y2089734D01*
X334263Y2185238D02*
G01*
X370839Y2089734D01*
X407162Y2185238D02*
G01*
X370839Y2089734D01*
X76200Y1876882D02*
G01*
X157987Y1876882D01*
X187960Y1913204D02*
G01*
X197104Y1917776D01*
X210820Y1931238D01*
X210820Y1835734D01*
X245363Y1908632D02*
G01*
X245363Y1913204D01*
X249936Y1922094D01*
X254507Y1926666D01*
X263397Y1931238D01*
X281686Y1931238D01*
X290829Y1926666D01*
X295402Y1922094D01*
X299720Y1913204D01*
X299720Y1904060D01*
X295402Y1894916D01*
X286257Y1881200D01*
X240792Y1835734D01*
X304292Y1835734D01*
X334263Y1931238D02*
G01*
X370839Y1835734D01*
X407162Y1931238D02*
G01*
X370839Y1835734D01*
X220471Y1654632D02*
G01*
X216154Y1663776D01*
X207010Y1672666D01*
X197865Y1677238D01*
X179578Y1677238D01*
X170687Y1672666D01*
X161544Y1663776D01*
X156971Y1654632D01*
X152400Y1640916D01*
X152400Y1618310D01*
X156971Y1604594D01*
X161544Y1595450D01*
X170687Y1586306D01*
X179578Y1581734D01*
X197865Y1581734D01*
X207010Y1586306D01*
X216154Y1595450D01*
X220471Y1604594D01*
X220471Y1618310D01*
X197865Y1618310D02*
G01*
X220471Y1618310D01*
X250697Y1677238D02*
G01*
X250697Y1581734D01*
X250697Y1677238D02*
G01*
X314197Y1581734D01*
X314197Y1677238D02*
G01*
X314197Y1581734D01*
X344170Y1677238D02*
G01*
X344170Y1581734D01*
X344170Y1677238D02*
G01*
X375920Y1677238D01*
X389636Y1672666D01*
X398779Y1663776D01*
X403352Y1654632D01*
X407923Y1640916D01*
X407923Y1618310D01*
X403352Y1604594D01*
X398779Y1595450D01*
X389636Y1586306D01*
X375920Y1581734D01*
X344170Y1581734D01*
X8881872Y1654632D02*
G01*
X8877554Y1663776D01*
X8868409Y1672666D01*
X8859265Y1677238D01*
X8840977Y1677238D01*
X8832088Y1672666D01*
X8822943Y1663776D01*
X8818372Y1654632D01*
X8813800Y1640916D01*
X8813800Y1618310D01*
X8818372Y1604594D01*
X8822943Y1595450D01*
X8832088Y1586306D01*
X8840977Y1581734D01*
X8859265Y1581734D01*
X8868409Y1586306D01*
X8877554Y1595450D01*
X8881872Y1604594D01*
X8881872Y1618310D01*
X8859265Y1618310D02*
G01*
X8881872Y1618310D01*
X8912097Y1677238D02*
G01*
X8912097Y1581734D01*
X8912097Y1677238D02*
G01*
X8975597Y1581734D01*
X8975597Y1677238D02*
G01*
X8975597Y1581734D01*
X9005570Y1677238D02*
G01*
X9005570Y1581734D01*
X9005570Y1677238D02*
G01*
X9037320Y1677238D01*
X9051036Y1672666D01*
X9060179Y1663776D01*
X9064752Y1654632D01*
X9069324Y1640916D01*
X9069324Y1618310D01*
X9064752Y1604594D01*
X9060179Y1595450D01*
X9051036Y1586306D01*
X9037320Y1581734D01*
X9005570Y1581734D01*
X8737600Y1876882D02*
G01*
X8819388Y1876882D01*
X8849359Y1913204D02*
G01*
X8858504Y1917776D01*
X8872220Y1931238D01*
X8872220Y1835734D01*
X8906763Y1908632D02*
G01*
X8906763Y1913204D01*
X8911336Y1922094D01*
X8915908Y1926666D01*
X8924797Y1931238D01*
X8943086Y1931238D01*
X8952229Y1926666D01*
X8956802Y1922094D01*
X8961120Y1913204D01*
X8961120Y1904060D01*
X8956802Y1894916D01*
X8947658Y1881200D01*
X8902191Y1835734D01*
X8965691Y1835734D01*
X8995663Y1931238D02*
G01*
X9032240Y1835734D01*
X9068561Y1931238D02*
G01*
X9032240Y1835734D01*
X8778493Y2171776D02*
G01*
X8778493Y2089734D01*
X8737600Y2130882D02*
G01*
X8819388Y2130882D01*
X8849359Y2167204D02*
G01*
X8858504Y2171776D01*
X8872220Y2185238D01*
X8872220Y2089734D01*
X8906763Y2162632D02*
G01*
X8906763Y2167204D01*
X8911336Y2176094D01*
X8915908Y2180666D01*
X8924797Y2185238D01*
X8943086Y2185238D01*
X8952229Y2180666D01*
X8956802Y2176094D01*
X8961120Y2167204D01*
X8961120Y2158060D01*
X8956802Y2148916D01*
X8947658Y2135200D01*
X8902191Y2089734D01*
X8965691Y2089734D01*
X8995663Y2185238D02*
G01*
X9032240Y2089734D01*
X9068561Y2185238D02*
G01*
X9032240Y2089734D01*
X8829293Y2425776D02*
G01*
X8829293Y2343734D01*
X8788400Y2384882D02*
G01*
X8870188Y2384882D01*
X8954770Y2439238D02*
G01*
X8909304Y2439238D01*
X8904731Y2398344D01*
X8909304Y2402916D01*
X8923020Y2407488D01*
X8936481Y2407488D01*
X8950197Y2402916D01*
X8959341Y2393772D01*
X8963913Y2380310D01*
X8963913Y2371166D01*
X8959341Y2357450D01*
X8950197Y2348306D01*
X8936481Y2343734D01*
X8923020Y2343734D01*
X8909304Y2348306D01*
X8904731Y2352878D01*
X8900159Y2362022D01*
X8993886Y2439238D02*
G01*
X9030208Y2343734D01*
X9066529Y2439238D02*
G01*
X9030208Y2343734D01*
X271271Y5983655D02*
G01*
X271271Y5988227D01*
X275844Y5997371D01*
X280415Y6001943D01*
X289305Y6006515D01*
X307594Y6006515D01*
X316737Y6001943D01*
X321310Y5997371D01*
X325881Y5988227D01*
X325881Y5979083D01*
X321310Y5969939D01*
X312165Y5956477D01*
X266700Y5911011D01*
X330454Y5911011D01*
X157129Y6239283D02*
G01*
X152557Y6248427D01*
X143413Y6257571D01*
X134269Y6261889D01*
X116235Y6261889D01*
X107091Y6257571D01*
X97947Y6248427D01*
X93375Y6239283D01*
X88803Y6225567D01*
X88803Y6202961D01*
X93375Y6189245D01*
X97947Y6180101D01*
X107091Y6171211D01*
X116235Y6166639D01*
X134269Y6166639D01*
X143413Y6171211D01*
X152557Y6180101D01*
X157129Y6189245D01*
X157129Y6202961D01*
X134269Y6202961D02*
G01*
X157129Y6202961D01*
X187101Y6261889D02*
G01*
X187101Y6166639D01*
X187101Y6261889D02*
G01*
X250601Y6166639D01*
X250601Y6261889D02*
G01*
X250601Y6166639D01*
X280827Y6261889D02*
G01*
X280827Y6166639D01*
X280827Y6261889D02*
G01*
X312577Y6261889D01*
X326293Y6257571D01*
X335183Y6248427D01*
X339755Y6239283D01*
X344327Y6225567D01*
X344327Y6202961D01*
X339755Y6189245D01*
X335183Y6180101D01*
X326293Y6171211D01*
X312577Y6166639D01*
X280827Y6166639D01*
X157129Y6493283D02*
G01*
X152557Y6502427D01*
X143413Y6511571D01*
X134269Y6515889D01*
X116235Y6515889D01*
X107091Y6511571D01*
X97947Y6502427D01*
X93375Y6493283D01*
X88803Y6479567D01*
X88803Y6456961D01*
X93375Y6443245D01*
X97947Y6434101D01*
X107091Y6425211D01*
X116235Y6420639D01*
X134269Y6420639D01*
X143413Y6425211D01*
X152557Y6434101D01*
X157129Y6443245D01*
X157129Y6456961D01*
X134269Y6456961D02*
G01*
X157129Y6456961D01*
X187101Y6515889D02*
G01*
X187101Y6420639D01*
X187101Y6515889D02*
G01*
X250601Y6420639D01*
X250601Y6515889D02*
G01*
X250601Y6420639D01*
X280827Y6515889D02*
G01*
X280827Y6420639D01*
X280827Y6515889D02*
G01*
X312577Y6515889D01*
X326293Y6511571D01*
X335183Y6502427D01*
X339755Y6493283D01*
X344327Y6479567D01*
X344327Y6456961D01*
X339755Y6443245D01*
X335183Y6434101D01*
X326293Y6425211D01*
X312577Y6420639D01*
X280827Y6420639D01*
X292100Y6750227D02*
G01*
X301244Y6754799D01*
X314705Y6768515D01*
X314705Y6673011D01*
X8791956Y6757670D02*
G01*
X8841993Y6757670D01*
X8814561Y6721347D01*
X8828277Y6721347D01*
X8837422Y6716776D01*
X8841993Y6712204D01*
X8846565Y6698487D01*
X8846565Y6689344D01*
X8841993Y6675881D01*
X8832850Y6666737D01*
X8819134Y6662165D01*
X8805672Y6662165D01*
X8791956Y6666737D01*
X8787384Y6671310D01*
X8782811Y6680200D01*
X8856690Y6480611D02*
G01*
X8852118Y6489755D01*
X8842974Y6498645D01*
X8833830Y6503217D01*
X8815796Y6503217D01*
X8806652Y6498645D01*
X8797508Y6489755D01*
X8792936Y6480611D01*
X8788364Y6466895D01*
X8788364Y6444289D01*
X8792936Y6430573D01*
X8797508Y6421429D01*
X8806652Y6412285D01*
X8815796Y6407967D01*
X8833830Y6407967D01*
X8842974Y6412285D01*
X8852118Y6421429D01*
X8856690Y6430573D01*
X8856690Y6444289D01*
X8833830Y6444289D02*
G01*
X8856690Y6444289D01*
X8886662Y6503217D02*
G01*
X8886662Y6407967D01*
X8886662Y6503217D02*
G01*
X8950162Y6407967D01*
X8950162Y6503217D02*
G01*
X8950162Y6407967D01*
X8980134Y6503217D02*
G01*
X8980134Y6407967D01*
X8980134Y6503217D02*
G01*
X9012138Y6503217D01*
X9025600Y6498645D01*
X9034744Y6489755D01*
X9039316Y6480611D01*
X9043888Y6466895D01*
X9043888Y6444289D01*
X9039316Y6430573D01*
X9034744Y6421429D01*
X9025600Y6412285D01*
X9012138Y6407967D01*
X8980134Y6407967D01*
X8856690Y6226611D02*
G01*
X8852118Y6235755D01*
X8842974Y6244645D01*
X8833830Y6249217D01*
X8815796Y6249217D01*
X8806652Y6244645D01*
X8797508Y6235755D01*
X8792936Y6226611D01*
X8788364Y6212895D01*
X8788364Y6190289D01*
X8792936Y6176573D01*
X8797508Y6167429D01*
X8806652Y6158285D01*
X8815796Y6153967D01*
X8833830Y6153967D01*
X8842974Y6158285D01*
X8852118Y6167429D01*
X8856690Y6176573D01*
X8856690Y6190289D01*
X8833830Y6190289D02*
G01*
X8856690Y6190289D01*
X8886662Y6249217D02*
G01*
X8886662Y6153967D01*
X8886662Y6249217D02*
G01*
X8950162Y6153967D01*
X8950162Y6249217D02*
G01*
X8950162Y6153967D01*
X8980134Y6249217D02*
G01*
X8980134Y6153967D01*
X8980134Y6249217D02*
G01*
X9012138Y6249217D01*
X9025600Y6244645D01*
X9034744Y6235755D01*
X9039316Y6226611D01*
X9043888Y6212895D01*
X9043888Y6190289D01*
X9039316Y6176573D01*
X9034744Y6167429D01*
X9025600Y6158285D01*
X9012138Y6153967D01*
X8980134Y6153967D01*
X8833865Y5995415D02*
G01*
X8788400Y5931662D01*
X8856472Y5931662D01*
X8833865Y5995415D02*
G01*
X8833865Y5899912D01*
D11*
X560578Y10184637D02*
G01*
X551687Y10180065D01*
X542544Y10171176D01*
X537971Y10162031D01*
X533400Y10148315D01*
X533400Y10125710D01*
X537971Y10111994D01*
X542544Y10102850D01*
X551687Y10093705D01*
X560578Y10089134D01*
X578865Y10089134D01*
X588010Y10093705D01*
X597154Y10102850D01*
X601471Y10111994D01*
X606044Y10125710D01*
X606044Y10148315D01*
X601471Y10162031D01*
X597154Y10171176D01*
X588010Y10180065D01*
X578865Y10184637D01*
X560578Y10184637D01*
X636015Y10184637D02*
G01*
X636015Y10089134D01*
X636015Y10184637D02*
G01*
X695197Y10184637D01*
X636015Y10139171D02*
G01*
X672592Y10139171D01*
X725170Y10184637D02*
G01*
X725170Y10089134D01*
X725170Y10184637D02*
G01*
X784352Y10184637D01*
X725170Y10139171D02*
G01*
X761492Y10139171D01*
X1106678Y10184637D02*
G01*
X1097787Y10180065D01*
X1088644Y10171176D01*
X1084071Y10162031D01*
X1079500Y10148315D01*
X1079500Y10125710D01*
X1084071Y10111994D01*
X1088644Y10102850D01*
X1097787Y10093705D01*
X1106678Y10089134D01*
X1124965Y10089134D01*
X1134110Y10093705D01*
X1143254Y10102850D01*
X1147571Y10111994D01*
X1152144Y10125710D01*
X1152144Y10148315D01*
X1147571Y10162031D01*
X1143254Y10171176D01*
X1134110Y10180065D01*
X1124965Y10184637D01*
X1106678Y10184637D01*
X1182115Y10184637D02*
G01*
X1182115Y10089134D01*
X1182115Y10184637D02*
G01*
X1245870Y10089134D01*
X1245870Y10184637D02*
G01*
X1245870Y10089134D01*
D10*
X8220384Y3397859D02*
G01*
X8220384Y3143859D01*
X8220384Y3143859D02*
G01*
X8283884Y3207359D01*
X8220384Y3143859D02*
G01*
X8156884Y3207359D01*
X901600Y3136900D02*
G01*
X901600Y3390900D01*
X901600Y3390900D02*
G01*
X965100Y3327400D01*
X901600Y3390900D02*
G01*
X838100Y3327400D01*
X1028700Y5018100D02*
G01*
X800100Y5018100D01*
X914400Y5208600D01*
X1028700Y5018100D01*
X8118883Y7450757D02*
G01*
X8347483Y7450757D01*
X8233183Y7641257D01*
X8118883Y7450757D01*
X800100Y7647000D02*
G01*
X1028700Y7647000D01*
X914400Y7456500D01*
X800100Y7647000D01*
X8347483Y5202857D02*
G01*
X8118883Y5202857D01*
X8233183Y5012357D01*
X8347483Y5202857D01*
X8220384Y9252353D02*
G01*
X8220384Y9506353D01*
X0Y12179300D02*
G01*
X9131300Y12179300D01*
X0Y11823700D02*
G01*
X9131300Y11823700D01*
X8220384Y9506353D02*
G01*
X8283884Y9442853D01*
X8220384Y9506353D02*
G01*
X8156884Y9442853D01*
X901600Y9512101D02*
G01*
X901600Y9258101D01*
X901600Y9258101D02*
G01*
X965100Y9321601D01*
X901600Y9258101D02*
G01*
X838100Y9321601D01*
G75*
G01
X723900Y3263900D02*
G03X723900Y3263900I-139700J0D01*
G75*
G01
X723900Y9385097D02*
G03X723900Y9385097I-139700J0D01*
G75*
G01
X8042681Y9379356D02*
G03X8042681Y9379356I-139700J0D01*
G75*
G01
X8042681Y3270860D02*
G03X8042681Y3270860I-139700J0D01*
G75*
G01
X8016900Y10134600D02*
G03X8016900Y10134600I-100000J0D01*
G75*
G01
X8016900Y10669626D02*
G03X8016900Y10669626I-100000J0D01*
G75*
G01
X8016900Y11217326D02*
G03X8016900Y11217326I-100000J0D01*
M02*
