M48
METRIC,LZ,000.000
;FILE_FORMAT=3:3
;TYPE=PLATED
;Layer: PTH_Through
;EasyEDA v6.5.22, 2023-04-16 14:26:35
;30fbbc2819084571a6e2dbb71e27ceea,5a6b42c53f6a479593ecc07194224c93,10
;Gerber Generator version 0.2
;Holesize 1 = 1.000 mm
T01C1.000
;Holesize 2 = 1.200 mm
T02C1.200
%
G05
G90
T01
X001143Y082550
X008763Y082550
X006223Y082550
X003683Y082550
X001143Y118110
X008763Y118110
X006223Y118110
X003683Y118110
T02
X003683Y091440
X006223Y091440
X003683Y093980
X006223Y093980
X003683Y096520
X006223Y096520
X003683Y099060
X006223Y099060
X003683Y101600
X006223Y101600
X003683Y104140
X006223Y104140
X003683Y106680
X006223Y106680
X003683Y109220
X006223Y109220
M30
