G04 Layer: BottomSolderMaskLayer*
G04 EasyEDA v6.5.22, 2023-04-16 14:26:35*
G04 30fbbc2819084571a6e2dbb71e27ceea,5a6b42c53f6a479593ecc07194224c93,10*
G04 Gerber Generator version 0.2*
G04 Scale: 100 percent, Rotated: No, Reflected: No *
G04 Dimensions in millimeters *
G04 leading zeros omitted , absolute positions ,4 integer and 5 decimal *
%FSLAX45Y45*%
%MOMM*%

%AMMACRO1*1,1,$1,$2,$3*1,1,$1,$4,$5*1,1,$1,0-$2,0-$3*1,1,$1,0-$4,0-$5*20,1,$1,$2,$3,$4,$5,0*20,1,$1,$4,$5,0-$2,0-$3,0*20,1,$1,0-$2,0-$3,0-$4,0-$5,0*20,1,$1,0-$4,0-$5,$2,$3,0*4,1,4,$2,$3,$4,$5,0-$2,0-$3,0-$4,0-$5,$2,$3,0*%
%ADD10C,0.2032*%
%ADD11MACRO1,0.1016X0.9X-0.9X0.9X0.9*%
%ADD12C,1.9016*%
%ADD13C,1.8016*%

%LPD*%
D10*
X803173Y7936463D02*
G01*
X803173Y7793281D01*
X850900Y7936463D02*
G01*
X755444Y7936463D01*
X710445Y7936463D02*
G01*
X710445Y7793281D01*
X710445Y7936463D02*
G01*
X649081Y7936463D01*
X628627Y7929646D01*
X621809Y7922826D01*
X614989Y7909191D01*
X614989Y7895554D01*
X621809Y7881917D01*
X628627Y7875099D01*
X649081Y7868282D01*
X710445Y7868282D01*
X662719Y7868282D02*
G01*
X614989Y7793281D01*
X515444Y7936463D02*
G01*
X569991Y7793281D01*
X515444Y7936463D02*
G01*
X460900Y7793281D01*
X549536Y7841007D02*
G01*
X481355Y7841007D01*
X415899Y7936463D02*
G01*
X415899Y7793281D01*
X415899Y7936463D02*
G01*
X320446Y7793281D01*
X320446Y7936463D02*
G01*
X320446Y7793281D01*
X179992Y7916009D02*
G01*
X193626Y7929646D01*
X214081Y7936463D01*
X241353Y7936463D01*
X261807Y7929646D01*
X275445Y7916009D01*
X275445Y7902371D01*
X268627Y7888737D01*
X261807Y7881917D01*
X248173Y7875099D01*
X207263Y7861462D01*
X193626Y7854645D01*
X186809Y7847827D01*
X179992Y7834190D01*
X179992Y7813735D01*
X193626Y7800101D01*
X214081Y7793281D01*
X241353Y7793281D01*
X261807Y7800101D01*
X275445Y7813735D01*
X863600Y7707863D02*
G01*
X863600Y7564681D01*
X863600Y7707863D02*
G01*
X802236Y7707863D01*
X781781Y7701046D01*
X774964Y7694226D01*
X768144Y7680591D01*
X768144Y7666954D01*
X774964Y7653317D01*
X781781Y7646499D01*
X802236Y7639682D01*
X863600Y7639682D01*
X815873Y7639682D02*
G01*
X768144Y7564681D01*
X723145Y7707863D02*
G01*
X723145Y7564681D01*
X575873Y7673771D02*
G01*
X582691Y7687409D01*
X596328Y7701046D01*
X609963Y7707863D01*
X637235Y7707863D01*
X650872Y7701046D01*
X664509Y7687409D01*
X671327Y7673771D01*
X678144Y7653317D01*
X678144Y7619227D01*
X671327Y7598773D01*
X664509Y7585135D01*
X650872Y7571501D01*
X637235Y7564681D01*
X609963Y7564681D01*
X596328Y7571501D01*
X582691Y7585135D01*
X575873Y7598773D01*
X575873Y7619227D01*
X609963Y7619227D02*
G01*
X575873Y7619227D01*
X530872Y7707863D02*
G01*
X530872Y7564681D01*
X435416Y7707863D02*
G01*
X435416Y7564681D01*
X530872Y7639682D02*
G01*
X435416Y7639682D01*
X342691Y7707863D02*
G01*
X342691Y7564681D01*
X390418Y7707863D02*
G01*
X294962Y7707863D01*
X154508Y7687409D02*
G01*
X168145Y7701046D01*
X188600Y7707863D01*
X215872Y7707863D01*
X236326Y7701046D01*
X249963Y7687409D01*
X249963Y7673771D01*
X243146Y7660137D01*
X236326Y7653317D01*
X222691Y7646499D01*
X181782Y7632862D01*
X168145Y7626045D01*
X161328Y7619227D01*
X154508Y7605590D01*
X154508Y7585135D01*
X168145Y7571501D01*
X188600Y7564681D01*
X215872Y7564681D01*
X236326Y7571501D01*
X249963Y7585135D01*
D11*
G01*
X368300Y9144000D03*
D12*
G01*
X622300Y9144000D03*
G01*
X368300Y9398000D03*
G01*
X622300Y9398000D03*
G01*
X368300Y9652000D03*
G01*
X622300Y9652000D03*
G01*
X368300Y9906000D03*
G01*
X622300Y9906000D03*
G01*
X368300Y10160000D03*
G01*
X622300Y10160000D03*
G01*
X368300Y10414000D03*
G01*
X622300Y10414000D03*
G01*
X368300Y10668000D03*
G01*
X622300Y10668000D03*
G01*
X368300Y10922000D03*
G01*
X622300Y10922000D03*
D13*
G01*
X114300Y8255000D03*
G01*
X876300Y8255000D03*
G01*
X622300Y8255000D03*
G01*
X368300Y8255000D03*
G01*
X114300Y11811000D03*
G01*
X876300Y11811000D03*
G01*
X622300Y11811000D03*
G01*
X368300Y11811000D03*
M02*
