G04 Layer: BottomSilkscreenLayer*
G04 EasyEDA v6.5.29, 2023-07-18 11:26:45*
G04 266af627963149579cffd9687d2698f5,5a6b42c53f6a479593ecc07194224c93,10*
G04 Gerber Generator version 0.2*
G04 Scale: 100 percent, Rotated: No, Reflected: No *
G04 Dimensions in millimeters *
G04 leading zeros omitted , absolute positions ,4 integer and 5 decimal *
%FSLAX45Y45*%
%MOMM*%

%ADD10C,0.2032*%
%ADD11C,0.1524*%
%ADD12C,0.2540*%

%LPD*%
D10*
X921646Y1465417D02*
G01*
X921646Y1470873D01*
X916190Y1481782D01*
X910737Y1487236D01*
X899828Y1492689D01*
X878009Y1492689D01*
X867100Y1487236D01*
X861646Y1481782D01*
X856190Y1470873D01*
X856190Y1459964D01*
X861646Y1449054D01*
X872553Y1432689D01*
X927100Y1378145D01*
X850737Y1378145D01*
X760191Y1492689D02*
G01*
X814735Y1416326D01*
X732919Y1416326D01*
X760191Y1492689D02*
G01*
X760191Y1378145D01*
X696917Y1470873D02*
G01*
X686010Y1476326D01*
X669645Y1492689D01*
X669645Y1378145D01*
X633646Y1470873D02*
G01*
X622736Y1476326D01*
X606374Y1492689D01*
X606374Y1378145D01*
X570372Y1427236D02*
G01*
X472191Y1427236D01*
X403463Y1492689D02*
G01*
X419828Y1487236D01*
X430738Y1470873D01*
X436191Y1443598D01*
X436191Y1427236D01*
X430738Y1399964D01*
X419828Y1383598D01*
X403463Y1378145D01*
X392554Y1378145D01*
X376191Y1383598D01*
X365282Y1399964D01*
X359829Y1427236D01*
X359829Y1443598D01*
X365282Y1470873D01*
X376191Y1487236D01*
X392554Y1492689D01*
X403463Y1492689D01*
X318373Y1465417D02*
G01*
X318373Y1470873D01*
X312920Y1481782D01*
X307464Y1487236D01*
X296555Y1492689D01*
X274736Y1492689D01*
X263829Y1487236D01*
X258373Y1481782D01*
X252920Y1470873D01*
X252920Y1459964D01*
X258373Y1449054D01*
X269283Y1432689D01*
X323829Y1378145D01*
X247464Y1378145D01*
X178737Y1492689D02*
G01*
X195102Y1487236D01*
X206011Y1470873D01*
X211465Y1443598D01*
X211465Y1427236D01*
X206011Y1399964D01*
X195102Y1383598D01*
X178737Y1378145D01*
X167827Y1378145D01*
X151465Y1383598D01*
X140555Y1399964D01*
X135102Y1427236D01*
X135102Y1443598D01*
X140555Y1470873D01*
X151465Y1487236D01*
X167827Y1492689D01*
X178737Y1492689D01*
X99100Y1470873D02*
G01*
X88191Y1476326D01*
X71828Y1492689D01*
X71828Y1378145D01*
X901700Y1911789D02*
G01*
X901700Y1797245D01*
X901700Y1911789D02*
G01*
X825337Y1797245D01*
X825337Y1911789D02*
G01*
X825337Y1797245D01*
X789335Y1911789D02*
G01*
X789335Y1829973D01*
X783882Y1813608D01*
X772972Y1802698D01*
X756610Y1797245D01*
X745700Y1797245D01*
X729335Y1802698D01*
X718428Y1813608D01*
X712972Y1829973D01*
X712972Y1911789D01*
X676973Y1911789D02*
G01*
X676973Y1797245D01*
X676973Y1911789D02*
G01*
X633336Y1797245D01*
X589701Y1911789D02*
G01*
X633336Y1797245D01*
X589701Y1911789D02*
G01*
X589701Y1797245D01*
X553699Y1911789D02*
G01*
X553699Y1797245D01*
X553699Y1911789D02*
G01*
X504609Y1911789D01*
X488246Y1906336D01*
X482790Y1900882D01*
X477337Y1889973D01*
X477337Y1879064D01*
X482790Y1868154D01*
X488246Y1862698D01*
X504609Y1857245D01*
X553699Y1857245D02*
G01*
X504609Y1857245D01*
X488246Y1851789D01*
X482790Y1846336D01*
X477337Y1835426D01*
X477337Y1819064D01*
X482790Y1808154D01*
X488246Y1802698D01*
X504609Y1797245D01*
X553699Y1797245D01*
X441337Y1911789D02*
G01*
X441337Y1797245D01*
X441337Y1911789D02*
G01*
X370428Y1911789D01*
X441337Y1857245D02*
G01*
X397700Y1857245D01*
X441337Y1797245D02*
G01*
X370428Y1797245D01*
X334429Y1911789D02*
G01*
X334429Y1797245D01*
X334429Y1911789D02*
G01*
X285338Y1911789D01*
X268973Y1906336D01*
X263519Y1900882D01*
X258063Y1889973D01*
X258063Y1879064D01*
X263519Y1868154D01*
X268973Y1862698D01*
X285338Y1857245D01*
X334429Y1857245D01*
X296247Y1857245D02*
G01*
X258063Y1797245D01*
X787389Y2076889D02*
G01*
X787389Y1962345D01*
X787389Y2076889D02*
G01*
X738299Y2076889D01*
X721936Y2071436D01*
X716480Y2065982D01*
X711027Y2055073D01*
X711027Y2038708D01*
X716480Y2027798D01*
X721936Y2022345D01*
X738299Y2016889D01*
X787389Y2016889D01*
X631390Y2076889D02*
G01*
X675025Y1962345D01*
X631390Y2076889D02*
G01*
X587753Y1962345D01*
X658662Y2000526D02*
G01*
X604118Y2000526D01*
X551754Y2076889D02*
G01*
X551754Y1962345D01*
X551754Y2076889D02*
G01*
X502663Y2076889D01*
X486300Y2071436D01*
X480844Y2065982D01*
X475391Y2055073D01*
X475391Y2044164D01*
X480844Y2033254D01*
X486300Y2027798D01*
X502663Y2022345D01*
X551754Y2022345D01*
X513572Y2022345D02*
G01*
X475391Y1962345D01*
X401208Y2076889D02*
G01*
X401208Y1962345D01*
X439389Y2076889D02*
G01*
X363026Y2076889D01*
X850900Y3981889D02*
G01*
X850900Y3867345D01*
X850900Y3981889D02*
G01*
X774537Y3867345D01*
X774537Y3981889D02*
G01*
X774537Y3867345D01*
X694900Y3981889D02*
G01*
X738535Y3867345D01*
X694900Y3981889D02*
G01*
X651263Y3867345D01*
X722172Y3905526D02*
G01*
X667628Y3905526D01*
X615264Y3981889D02*
G01*
X615264Y3867345D01*
X615264Y3981889D02*
G01*
X538901Y3867345D01*
X538901Y3981889D02*
G01*
X538901Y3867345D01*
X470174Y3981889D02*
G01*
X481083Y3976436D01*
X491990Y3965526D01*
X497446Y3954617D01*
X502899Y3938254D01*
X502899Y3910982D01*
X497446Y3894617D01*
X491990Y3883708D01*
X481083Y3872798D01*
X470174Y3867345D01*
X448355Y3867345D01*
X437446Y3872798D01*
X426537Y3883708D01*
X421083Y3894617D01*
X415627Y3910982D01*
X415627Y3938254D01*
X421083Y3954617D01*
X426537Y3965526D01*
X437446Y3976436D01*
X448355Y3981889D01*
X470174Y3981889D01*
X379628Y3981889D02*
G01*
X379628Y3867345D01*
X379628Y3981889D02*
G01*
X335991Y3867345D01*
X292356Y3981889D02*
G01*
X335991Y3867345D01*
X292356Y3981889D02*
G01*
X292356Y3867345D01*
X256354Y3981889D02*
G01*
X256354Y3867345D01*
X176720Y3981889D02*
G01*
X220355Y3867345D01*
X176720Y3981889D02*
G01*
X133083Y3867345D01*
X203992Y3905526D02*
G01*
X149445Y3905526D01*
X685800Y3600889D02*
G01*
X642162Y3486345D01*
X598528Y3600889D02*
G01*
X642162Y3486345D01*
X529800Y3600889D02*
G01*
X546163Y3595436D01*
X557072Y3579073D01*
X562528Y3551798D01*
X562528Y3535436D01*
X557072Y3508164D01*
X546163Y3491798D01*
X529800Y3486345D01*
X518891Y3486345D01*
X502528Y3491798D01*
X491619Y3508164D01*
X486163Y3535436D01*
X486163Y3551798D01*
X491619Y3579073D01*
X502528Y3595436D01*
X518891Y3600889D01*
X529800Y3600889D01*
X444710Y3513617D02*
G01*
X450164Y3508164D01*
X444710Y3502708D01*
X439254Y3508164D01*
X444710Y3513617D01*
X397799Y3573617D02*
G01*
X397799Y3579073D01*
X392346Y3589982D01*
X386890Y3595436D01*
X375983Y3600889D01*
X354164Y3600889D01*
X343255Y3595436D01*
X337799Y3589982D01*
X332346Y3579073D01*
X332346Y3568164D01*
X337799Y3557254D01*
X348708Y3540889D01*
X403255Y3486345D01*
X326890Y3486345D01*
D11*
X252267Y6667962D02*
G01*
X257464Y6678353D01*
X267855Y6688744D01*
X278244Y6693938D01*
X299026Y6693938D01*
X309417Y6688744D01*
X319808Y6678353D01*
X325005Y6667962D01*
X330200Y6652374D01*
X330200Y6626397D01*
X325005Y6610812D01*
X319808Y6600421D01*
X309417Y6590029D01*
X299026Y6584835D01*
X278244Y6584835D01*
X267855Y6590029D01*
X257464Y6600421D01*
X252267Y6610812D01*
X252267Y6626397D01*
X278244Y6626397D02*
G01*
X252267Y6626397D01*
X217977Y6693938D02*
G01*
X217977Y6584835D01*
X217977Y6693938D02*
G01*
X145242Y6584835D01*
X145242Y6693938D02*
G01*
X145242Y6584835D01*
X110952Y6693938D02*
G01*
X110952Y6584835D01*
X110952Y6693938D02*
G01*
X74584Y6693938D01*
X58996Y6688744D01*
X48605Y6678353D01*
X43411Y6667962D01*
X38214Y6652374D01*
X38214Y6626397D01*
X43411Y6610812D01*
X48605Y6600421D01*
X58996Y6590029D01*
X74584Y6584835D01*
X110952Y6584835D01*
X939800Y6631594D02*
G01*
X846282Y6631594D01*
X811992Y6673156D02*
G01*
X801601Y6678353D01*
X786015Y6693938D01*
X786015Y6584835D01*
X746528Y6667962D02*
G01*
X746528Y6673156D01*
X741334Y6683547D01*
X736137Y6688744D01*
X725746Y6693938D01*
X704964Y6693938D01*
X694575Y6688744D01*
X689378Y6683547D01*
X684184Y6673156D01*
X684184Y6662765D01*
X689378Y6652374D01*
X699770Y6636788D01*
X751725Y6584835D01*
X678987Y6584835D01*
X644697Y6693938D02*
G01*
X603135Y6584835D01*
X561571Y6693938D02*
G01*
X603135Y6584835D01*
X317500Y6355656D02*
G01*
X307108Y6360853D01*
X291523Y6376438D01*
X291523Y6267335D01*
X252036Y6350462D02*
G01*
X252036Y6355656D01*
X246842Y6366047D01*
X241645Y6371244D01*
X231254Y6376438D01*
X210474Y6376438D01*
X200083Y6371244D01*
X194886Y6366047D01*
X189692Y6355656D01*
X189692Y6345265D01*
X194886Y6334874D01*
X205277Y6319288D01*
X257233Y6267335D01*
X184495Y6267335D01*
X150205Y6376438D02*
G01*
X108643Y6267335D01*
X67078Y6376438D02*
G01*
X108643Y6267335D01*
X813955Y6376438D02*
G01*
X865908Y6376438D01*
X871105Y6329679D01*
X865908Y6334874D01*
X850323Y6340071D01*
X834735Y6340071D01*
X819150Y6334874D01*
X808758Y6324485D01*
X803564Y6308897D01*
X803564Y6298506D01*
X808758Y6282921D01*
X819150Y6272529D01*
X834735Y6267335D01*
X850323Y6267335D01*
X865908Y6272529D01*
X871105Y6277724D01*
X876300Y6288115D01*
X769274Y6376438D02*
G01*
X727709Y6267335D01*
X686145Y6376438D02*
G01*
X727709Y6267335D01*
D10*
X881672Y3791389D02*
G01*
X892581Y3785936D01*
X903490Y3775026D01*
X908946Y3764117D01*
X914400Y3747754D01*
X914400Y3720482D01*
X908946Y3704117D01*
X903490Y3693208D01*
X892581Y3682298D01*
X881672Y3676845D01*
X859853Y3676845D01*
X848946Y3682298D01*
X838037Y3693208D01*
X832581Y3704117D01*
X827128Y3720482D01*
X827128Y3747754D01*
X832581Y3764117D01*
X838037Y3775026D01*
X848946Y3785936D01*
X859853Y3791389D01*
X881672Y3791389D01*
X791128Y3791389D02*
G01*
X791128Y3709573D01*
X785672Y3693208D01*
X774763Y3682298D01*
X758400Y3676845D01*
X747491Y3676845D01*
X731128Y3682298D01*
X720219Y3693208D01*
X714763Y3709573D01*
X714763Y3791389D01*
X640582Y3791389D02*
G01*
X640582Y3676845D01*
X678764Y3791389D02*
G01*
X602401Y3791389D01*
X490037Y3775026D02*
G01*
X500946Y3785936D01*
X517309Y3791389D01*
X539127Y3791389D01*
X555490Y3785936D01*
X566399Y3775026D01*
X566399Y3764117D01*
X560946Y3753208D01*
X555490Y3747754D01*
X544583Y3742298D01*
X511855Y3731389D01*
X500946Y3725936D01*
X495490Y3720482D01*
X490037Y3709573D01*
X490037Y3693208D01*
X500946Y3682298D01*
X517309Y3676845D01*
X539127Y3676845D01*
X555490Y3682298D01*
X566399Y3693208D01*
X370037Y3791389D02*
G01*
X370037Y3676845D01*
X370037Y3791389D02*
G01*
X326400Y3676845D01*
X282765Y3791389D02*
G01*
X326400Y3676845D01*
X282765Y3791389D02*
G01*
X282765Y3676845D01*
X246766Y3791389D02*
G01*
X246766Y3676845D01*
X210764Y3791389D02*
G01*
X210764Y3676845D01*
X210764Y3791389D02*
G01*
X134401Y3676845D01*
X134401Y3791389D02*
G01*
X134401Y3676845D01*
X98402Y3791389D02*
G01*
X98402Y3676845D01*
D11*
X723900Y6528838D02*
G01*
X723900Y6419735D01*
X723900Y6528838D02*
G01*
X677141Y6528838D01*
X661555Y6523644D01*
X656358Y6518447D01*
X651164Y6508056D01*
X651164Y6497665D01*
X656358Y6487274D01*
X661555Y6482079D01*
X677141Y6476885D01*
X723900Y6476885D01*
X687532Y6476885D02*
G01*
X651164Y6419735D01*
X575310Y6528838D02*
G01*
X616874Y6419735D01*
X575310Y6528838D02*
G01*
X533745Y6419735D01*
X601286Y6456103D02*
G01*
X549333Y6456103D01*
X499455Y6528838D02*
G01*
X499455Y6419735D01*
X499455Y6528838D02*
G01*
X426720Y6419735D01*
X426720Y6528838D02*
G01*
X426720Y6419735D01*
X314497Y6502862D02*
G01*
X319694Y6513253D01*
X330085Y6523644D01*
X340474Y6528838D01*
X361256Y6528838D01*
X371647Y6523644D01*
X382038Y6513253D01*
X387235Y6502862D01*
X392429Y6487274D01*
X392429Y6461297D01*
X387235Y6445712D01*
X382038Y6435321D01*
X371647Y6424929D01*
X361256Y6419735D01*
X340474Y6419735D01*
X330085Y6424929D01*
X319694Y6435321D01*
X314497Y6445712D01*
X314497Y6461297D01*
X340474Y6461297D02*
G01*
X314497Y6461297D01*
X280207Y6528838D02*
G01*
X280207Y6419735D01*
X280207Y6528838D02*
G01*
X212666Y6528838D01*
X280207Y6476885D02*
G01*
X238645Y6476885D01*
X280207Y6419735D02*
G01*
X212666Y6419735D01*
X766825Y7187559D02*
G01*
X766825Y7092104D01*
X766825Y7187559D02*
G01*
X725916Y7187559D01*
X712279Y7183013D01*
X707735Y7178469D01*
X703188Y7169378D01*
X703188Y7160287D01*
X707735Y7151197D01*
X712279Y7146650D01*
X725916Y7142104D01*
X766825Y7142104D01*
X735007Y7142104D02*
G01*
X703188Y7092104D01*
X650463Y7187559D02*
G01*
X664098Y7183013D01*
X668644Y7173922D01*
X668644Y7164831D01*
X664098Y7155741D01*
X655007Y7151197D01*
X636826Y7146650D01*
X623188Y7142104D01*
X614098Y7133013D01*
X609554Y7123922D01*
X609554Y7110288D01*
X614098Y7101197D01*
X618644Y7096650D01*
X632279Y7092104D01*
X650463Y7092104D01*
X664098Y7096650D01*
X668644Y7101197D01*
X673188Y7110288D01*
X673188Y7123922D01*
X668644Y7133013D01*
X659554Y7142104D01*
X645916Y7146650D01*
X627735Y7151197D01*
X618644Y7155741D01*
X614098Y7164831D01*
X614098Y7173922D01*
X618644Y7183013D01*
X632279Y7187559D01*
X650463Y7187559D01*
X771779Y7510012D02*
G01*
X771779Y7414557D01*
X771779Y7510012D02*
G01*
X730869Y7510012D01*
X717232Y7505466D01*
X712688Y7500922D01*
X708141Y7491831D01*
X708141Y7482740D01*
X712688Y7473650D01*
X717232Y7469103D01*
X730869Y7464557D01*
X771779Y7464557D01*
X739960Y7464557D02*
G01*
X708141Y7414557D01*
X614507Y7510012D02*
G01*
X659960Y7414557D01*
X678141Y7510012D02*
G01*
X614507Y7510012D01*
X266700Y5561909D02*
G01*
X266700Y5466453D01*
X266700Y5561909D02*
G01*
X225790Y5561909D01*
X212153Y5557362D01*
X207609Y5552818D01*
X203062Y5543727D01*
X203062Y5534637D01*
X207609Y5525546D01*
X212153Y5520999D01*
X225790Y5516453D01*
X266700Y5516453D01*
X234881Y5516453D02*
G01*
X203062Y5466453D01*
X118518Y5561909D02*
G01*
X163972Y5561909D01*
X168518Y5520999D01*
X163972Y5525546D01*
X150337Y5530090D01*
X136700Y5530090D01*
X123062Y5525546D01*
X113972Y5516453D01*
X109428Y5502818D01*
X109428Y5493727D01*
X113972Y5480090D01*
X123062Y5470999D01*
X136700Y5466453D01*
X150337Y5466453D01*
X163972Y5470999D01*
X168518Y5475546D01*
X173062Y5484637D01*
X660679Y5557159D02*
G01*
X660679Y5461703D01*
X660679Y5557159D02*
G01*
X619770Y5557159D01*
X606132Y5552612D01*
X601588Y5548068D01*
X597042Y5538978D01*
X597042Y5529887D01*
X601588Y5520796D01*
X606132Y5516250D01*
X619770Y5511703D01*
X660679Y5511703D01*
X628860Y5511703D02*
G01*
X597042Y5461703D01*
X512498Y5543522D02*
G01*
X517042Y5552612D01*
X530679Y5557159D01*
X539770Y5557159D01*
X553407Y5552612D01*
X562498Y5538978D01*
X567042Y5516250D01*
X567042Y5493522D01*
X562498Y5475340D01*
X553407Y5466250D01*
X539770Y5461703D01*
X535226Y5461703D01*
X521588Y5466250D01*
X512498Y5475340D01*
X507951Y5488978D01*
X507951Y5493522D01*
X512498Y5507159D01*
X521588Y5516250D01*
X535226Y5520796D01*
X539770Y5520796D01*
X553407Y5516250D01*
X562498Y5507159D01*
X567042Y5493522D01*
X190500Y4698309D02*
G01*
X190500Y4602853D01*
X190500Y4698309D02*
G01*
X149590Y4698309D01*
X135953Y4693762D01*
X131409Y4689218D01*
X126862Y4680127D01*
X126862Y4671037D01*
X131409Y4661946D01*
X135953Y4657399D01*
X149590Y4652853D01*
X190500Y4652853D01*
X158681Y4652853D02*
G01*
X126862Y4602853D01*
X87772Y4698309D02*
G01*
X37772Y4698309D01*
X65046Y4661946D01*
X51409Y4661946D01*
X42318Y4657399D01*
X37772Y4652853D01*
X33228Y4639218D01*
X33228Y4630127D01*
X37772Y4616490D01*
X46862Y4607399D01*
X60500Y4602853D01*
X74137Y4602853D01*
X87772Y4607399D01*
X92318Y4611946D01*
X96862Y4621037D01*
X203200Y2272609D02*
G01*
X203200Y2177153D01*
X203200Y2272609D02*
G01*
X162290Y2272609D01*
X148653Y2268062D01*
X144109Y2263518D01*
X139562Y2254427D01*
X139562Y2245337D01*
X144109Y2236246D01*
X148653Y2231699D01*
X162290Y2227153D01*
X203200Y2227153D01*
X171381Y2227153D02*
G01*
X139562Y2177153D01*
X64109Y2272609D02*
G01*
X109562Y2208971D01*
X41381Y2208971D01*
X64109Y2272609D02*
G01*
X64109Y2177153D01*
X145046Y8076509D02*
G01*
X145046Y8003781D01*
X149590Y7990146D01*
X154137Y7985599D01*
X163228Y7981053D01*
X172318Y7981053D01*
X181409Y7985599D01*
X185953Y7990146D01*
X190500Y8003781D01*
X190500Y8012871D01*
X110500Y8053781D02*
G01*
X110500Y8058327D01*
X105953Y8067418D01*
X101409Y8071962D01*
X92318Y8076509D01*
X74137Y8076509D01*
X65046Y8071962D01*
X60500Y8067418D01*
X55953Y8058327D01*
X55953Y8049237D01*
X60500Y8040146D01*
X69590Y8026509D01*
X115046Y7981053D01*
X51409Y7981053D01*
X119646Y11632509D02*
G01*
X119646Y11559781D01*
X124190Y11546146D01*
X128737Y11541599D01*
X137828Y11537053D01*
X146918Y11537053D01*
X156009Y11541599D01*
X160553Y11546146D01*
X165100Y11559781D01*
X165100Y11568871D01*
X89646Y11614327D02*
G01*
X80553Y11618871D01*
X66918Y11632509D01*
X66918Y11537053D01*
X244764Y7135553D02*
G01*
X255155Y7145944D01*
X270741Y7151138D01*
X291523Y7151138D01*
X307108Y7145944D01*
X317500Y7135553D01*
X317500Y7125162D01*
X312305Y7114771D01*
X307108Y7109574D01*
X296717Y7104379D01*
X265544Y7093988D01*
X255155Y7088794D01*
X249958Y7083597D01*
X244764Y7073206D01*
X244764Y7057621D01*
X255155Y7047229D01*
X270741Y7042035D01*
X291523Y7042035D01*
X307108Y7047229D01*
X317500Y7057621D01*
X210474Y7130356D02*
G01*
X200083Y7135553D01*
X184495Y7151138D01*
X184495Y7042035D01*
X244764Y5903653D02*
G01*
X255155Y5914044D01*
X270741Y5919238D01*
X291523Y5919238D01*
X307108Y5914044D01*
X317500Y5903653D01*
X317500Y5893262D01*
X312305Y5882871D01*
X307108Y5877674D01*
X296717Y5872479D01*
X265544Y5862088D01*
X255155Y5856894D01*
X249958Y5851697D01*
X244764Y5841306D01*
X244764Y5825721D01*
X255155Y5815329D01*
X270741Y5810135D01*
X291523Y5810135D01*
X307108Y5815329D01*
X317500Y5825721D01*
X205277Y5893262D02*
G01*
X205277Y5898456D01*
X200083Y5908847D01*
X194886Y5914044D01*
X184495Y5919238D01*
X163715Y5919238D01*
X153324Y5914044D01*
X148127Y5908847D01*
X142933Y5898456D01*
X142933Y5888065D01*
X148127Y5877674D01*
X158518Y5862088D01*
X210474Y5810135D01*
X137736Y5810135D01*
X810239Y7180021D02*
G01*
X810239Y7275908D01*
X942360Y7275908D01*
X942360Y7180021D01*
X810239Y7094778D02*
G01*
X810239Y6998891D01*
X942360Y6998891D01*
X942360Y7094778D01*
X810239Y7497521D02*
G01*
X810239Y7593408D01*
X942360Y7593408D01*
X942360Y7497521D01*
X810239Y7412278D02*
G01*
X810239Y7316391D01*
X942360Y7316391D01*
X942360Y7412278D01*
X434360Y5469178D02*
G01*
X434360Y5373291D01*
X302239Y5373291D01*
X302239Y5469178D01*
X434360Y5554421D02*
G01*
X434360Y5650308D01*
X302239Y5650308D01*
X302239Y5554421D01*
X695939Y5554421D02*
G01*
X695939Y5650308D01*
X828060Y5650308D01*
X828060Y5554421D01*
X695939Y5469178D02*
G01*
X695939Y5373291D01*
X828060Y5373291D01*
X828060Y5469178D01*
X180360Y4846878D02*
G01*
X180360Y4750991D01*
X48239Y4750991D01*
X48239Y4846878D01*
X180360Y4932121D02*
G01*
X180360Y5028008D01*
X48239Y5028008D01*
X48239Y4932121D01*
X193060Y1951278D02*
G01*
X193060Y1855391D01*
X60939Y1855391D01*
X60939Y1951278D01*
X193060Y2036521D02*
G01*
X193060Y2132408D01*
X60939Y2132408D01*
X60939Y2036521D01*
D12*
X243652Y8128000D02*
G01*
X1003300Y8128000D01*
X1003300Y8382000D01*
X-12700Y8382000D01*
X-12700Y8128000D01*
X243652Y8128000D01*
X243652Y8128000D02*
G01*
X243652Y8382000D01*
X243652Y11684000D02*
G01*
X1003300Y11684000D01*
X1003300Y11938000D01*
X-12700Y11938000D01*
X-12700Y11684000D01*
X243652Y11684000D01*
X243652Y11684000D02*
G01*
X243652Y11938000D01*
X482600Y6605739D02*
G01*
X482600Y6593039D01*
X355600Y6593039D01*
X355600Y6732739D01*
X482600Y6605790D02*
G01*
X482600Y6732739D01*
X635000Y6732739D02*
G01*
X355600Y6732739D01*
X220296Y6732739D02*
G01*
X220296Y6794126D01*
X220296Y6910354D02*
G01*
X220296Y6986739D01*
X770303Y6732739D02*
G01*
X770303Y6794124D01*
X770303Y6910354D02*
G01*
X770303Y6986739D01*
X648413Y6986739D01*
X342186Y6986739D02*
G01*
X220296Y6986739D01*
X635000Y6732739D02*
G01*
X770303Y6732739D01*
X355600Y6732739D02*
G01*
X220296Y6732739D01*
X508000Y6348260D02*
G01*
X508000Y6360960D01*
X635000Y6360960D01*
X635000Y6221260D01*
X508000Y6348209D02*
G01*
X508000Y6221260D01*
X355600Y6221260D02*
G01*
X635000Y6221260D01*
X770303Y6221260D02*
G01*
X770303Y6159873D01*
X770303Y6043645D02*
G01*
X770303Y5967260D01*
X220296Y6221260D02*
G01*
X220296Y6159875D01*
X220296Y6043645D02*
G01*
X220296Y5967260D01*
X342186Y5967260D01*
X648413Y5967260D02*
G01*
X770303Y5967260D01*
X355600Y6221260D02*
G01*
X220296Y6221260D01*
X635000Y6221260D02*
G01*
X770303Y6221260D01*
G75*
G01
X995299Y2819400D02*
G03X995299Y2819400I-499999J0D01*
M02*
