G04 Layer: TopLayer*
G04 Panelize: V-CUT, Column: 8, Row: 1, Board Size: 15.24mm x 95mm, Panelized Board Size: 135.92mm x 95mm*
G04 EasyEDA v6.5.34, 2023-08-21 18:11:39*
G04 3bfda8faaeb148089eadf0c8bcf69e3c,5a6b42c53f6a479593ecc07194224c93,10*
G04 Gerber Generator version 0.2*
G04 Scale: 100 percent, Rotated: No, Reflected: No *
G04 Dimensions in millimeters *
G04 leading zeros omitted , absolute positions ,4 integer and 5 decimal *
%FSLAX45Y45*%
%MOMM*%

%AMMACRO1*21,1,$1,$2,0,0,$3*%
%ADD10C,0.2540*%
%ADD11R,0.8999X1.0000*%
%ADD12MACRO1,0.864X0.8065X-90.0000*%
%ADD13MACRO1,0.864X0.8065X90.0000*%
%ADD14C,1.0000*%
%ADD15C,1.4000*%
%ADD16MACRO1,1.524X1.4X0.0000*%
%ADD17C,0.0122*%

%LPD*%
G36*
X290068Y1842007D02*
G01*
X286156Y1842770D01*
X282905Y1845005D01*
X280670Y1848256D01*
X279908Y1852168D01*
X279908Y11279632D01*
X280670Y11283543D01*
X282905Y11286794D01*
X286156Y11289030D01*
X290068Y11289792D01*
X535940Y11289792D01*
X539750Y11289080D01*
X543001Y11286998D01*
X545185Y11283848D01*
X546100Y11280089D01*
X545541Y11276279D01*
X543306Y11269827D01*
X542594Y11263528D01*
X542594Y11226800D01*
X600811Y11226800D01*
X600811Y11279632D01*
X601573Y11283543D01*
X603758Y11286794D01*
X607060Y11289030D01*
X610971Y11289792D01*
X616051Y11289792D01*
X619912Y11289030D01*
X623214Y11286794D01*
X625398Y11283543D01*
X626211Y11279632D01*
X626211Y11226800D01*
X684377Y11226800D01*
X684377Y11263528D01*
X683666Y11269827D01*
X681431Y11276279D01*
X680872Y11280089D01*
X681786Y11283848D01*
X684022Y11286998D01*
X687222Y11289080D01*
X691032Y11289792D01*
X705967Y11289792D01*
X709726Y11289080D01*
X712978Y11286998D01*
X715213Y11283848D01*
X716127Y11280089D01*
X715568Y11276279D01*
X713282Y11269827D01*
X712571Y11263528D01*
X712571Y11164671D01*
X713282Y11158321D01*
X715213Y11152886D01*
X718312Y11147958D01*
X722376Y11143894D01*
X727303Y11140795D01*
X731977Y11138255D01*
X734364Y11134902D01*
X735228Y11130838D01*
X735228Y11101832D01*
X734364Y11097768D01*
X731977Y11094364D01*
X728421Y11092230D01*
X722274Y11090097D01*
X717397Y11086998D01*
X713282Y11082934D01*
X710234Y11078006D01*
X708101Y11071961D01*
X705967Y11068405D01*
X702564Y11065967D01*
X698500Y11065154D01*
X694436Y11065967D01*
X691032Y11068405D01*
X688898Y11071961D01*
X686765Y11078006D01*
X683717Y11082934D01*
X679602Y11086998D01*
X674725Y11090097D01*
X669239Y11091976D01*
X662940Y11092688D01*
X583438Y11092688D01*
X577088Y11091976D01*
X571652Y11090097D01*
X566724Y11086998D01*
X562660Y11082934D01*
X559562Y11078006D01*
X557631Y11072571D01*
X556463Y11067694D01*
X554177Y11064798D01*
X551027Y11062868D01*
X547420Y11062208D01*
X381508Y11062208D01*
X373481Y11061395D01*
X366268Y11059210D01*
X359562Y11055654D01*
X353364Y11050524D01*
X315976Y11013135D01*
X310845Y11006937D01*
X307289Y11000232D01*
X305104Y10993018D01*
X304292Y10984992D01*
X304292Y8666683D01*
X305104Y8658656D01*
X307289Y8651443D01*
X310845Y8644788D01*
X315976Y8638540D01*
X622249Y8332266D01*
X624382Y8329117D01*
X625195Y8325408D01*
X624636Y8321649D01*
X623671Y8318957D01*
X621030Y8306155D01*
X620115Y8293100D01*
X621030Y8280044D01*
X623671Y8267242D01*
X628040Y8254898D01*
X634085Y8243265D01*
X641604Y8232597D01*
X650544Y8223046D01*
X660704Y8214766D01*
X671880Y8207959D01*
X683869Y8202726D01*
X696468Y8199221D01*
X709472Y8197443D01*
X722528Y8197443D01*
X735533Y8199221D01*
X748131Y8202726D01*
X760120Y8207959D01*
X771296Y8214766D01*
X781456Y8223046D01*
X790397Y8232597D01*
X797915Y8243265D01*
X803960Y8254898D01*
X806450Y8261858D01*
X808583Y8265414D01*
X811936Y8267801D01*
X816000Y8268614D01*
X820064Y8267801D01*
X823417Y8265414D01*
X825550Y8261858D01*
X828040Y8254898D01*
X834085Y8243265D01*
X841603Y8232597D01*
X850544Y8223046D01*
X860704Y8214766D01*
X871880Y8207959D01*
X883869Y8202726D01*
X896467Y8199221D01*
X909472Y8197443D01*
X922528Y8197443D01*
X935532Y8199221D01*
X948131Y8202726D01*
X960119Y8207959D01*
X971296Y8214766D01*
X981456Y8223046D01*
X990396Y8232597D01*
X997915Y8243265D01*
X1003960Y8254898D01*
X1006449Y8261858D01*
X1008583Y8265414D01*
X1011936Y8267801D01*
X1016000Y8268614D01*
X1020064Y8267801D01*
X1023416Y8265414D01*
X1025550Y8261858D01*
X1028039Y8254898D01*
X1034084Y8243265D01*
X1041603Y8232597D01*
X1050544Y8223046D01*
X1060704Y8214766D01*
X1071880Y8207959D01*
X1083868Y8202726D01*
X1096467Y8199221D01*
X1109472Y8197443D01*
X1122527Y8197443D01*
X1135532Y8199221D01*
X1148130Y8202726D01*
X1160119Y8207959D01*
X1171295Y8214766D01*
X1181455Y8223046D01*
X1190396Y8232597D01*
X1195425Y8239759D01*
X1198575Y8242604D01*
X1202588Y8243976D01*
X1206804Y8243570D01*
X1210513Y8241487D01*
X1213002Y8238032D01*
X1213916Y8233867D01*
X1213916Y8223656D01*
X1214628Y8217357D01*
X1216507Y8211870D01*
X1219606Y8206994D01*
X1223670Y8202879D01*
X1228598Y8199831D01*
X1234033Y8197900D01*
X1240383Y8197189D01*
X1303274Y8197189D01*
X1303274Y8280400D01*
X1221892Y8280400D01*
X1217980Y8281162D01*
X1214729Y8283397D01*
X1212494Y8286648D01*
X1211732Y8290559D01*
X1211732Y8295640D01*
X1212494Y8299551D01*
X1214729Y8302802D01*
X1217980Y8305038D01*
X1221892Y8305800D01*
X1303274Y8305800D01*
X1303274Y8389010D01*
X1240383Y8389010D01*
X1234033Y8388299D01*
X1228598Y8386368D01*
X1223670Y8383320D01*
X1219606Y8379206D01*
X1216507Y8374329D01*
X1214628Y8368842D01*
X1213916Y8362543D01*
X1213916Y8352332D01*
X1213002Y8348167D01*
X1210513Y8344712D01*
X1206804Y8342630D01*
X1202588Y8342223D01*
X1198575Y8343595D01*
X1195425Y8346440D01*
X1190396Y8353602D01*
X1181455Y8363153D01*
X1171295Y8371433D01*
X1160119Y8378240D01*
X1148130Y8383422D01*
X1135532Y8386978D01*
X1122527Y8388756D01*
X1109472Y8388756D01*
X1096467Y8386978D01*
X1086764Y8384235D01*
X1083208Y8383930D01*
X1079754Y8384794D01*
X1076858Y8386876D01*
X815441Y8648293D01*
X813206Y8651595D01*
X812444Y8655456D01*
X812444Y9865868D01*
X813308Y9869932D01*
X815695Y9873335D01*
X819251Y9875469D01*
X825347Y9877602D01*
X830275Y9880701D01*
X834339Y9884765D01*
X837437Y9889693D01*
X839368Y9895128D01*
X840079Y9901478D01*
X840079Y9986721D01*
X839368Y9993071D01*
X837437Y9998506D01*
X834339Y10003434D01*
X830275Y10007498D01*
X825347Y10010597D01*
X819912Y10012476D01*
X813562Y10013188D01*
X734060Y10013188D01*
X727760Y10012476D01*
X722274Y10010597D01*
X717397Y10007498D01*
X713282Y10003434D01*
X710234Y9998506D01*
X708101Y9992461D01*
X705967Y9988905D01*
X702564Y9986467D01*
X698500Y9985654D01*
X694436Y9986467D01*
X691032Y9988905D01*
X688898Y9992461D01*
X686765Y9998506D01*
X683717Y10003434D01*
X679602Y10007498D01*
X674725Y10010597D01*
X669340Y10012476D01*
X661263Y10013238D01*
X657707Y10014305D01*
X654710Y10016540D01*
X652780Y10019690D01*
X652119Y10023348D01*
X652119Y10048951D01*
X652780Y10052558D01*
X654659Y10055707D01*
X657606Y10057993D01*
X661111Y10059060D01*
X664260Y10059416D01*
X669696Y10061295D01*
X674624Y10064394D01*
X678688Y10068458D01*
X681786Y10073386D01*
X683666Y10078821D01*
X684377Y10085171D01*
X684377Y10184028D01*
X683666Y10190327D01*
X681786Y10195814D01*
X678688Y10200690D01*
X674624Y10204805D01*
X669696Y10207904D01*
X664260Y10209784D01*
X657910Y10210495D01*
X569061Y10210495D01*
X562762Y10209784D01*
X557276Y10207904D01*
X552399Y10204805D01*
X548284Y10200690D01*
X545185Y10195814D01*
X543306Y10190327D01*
X542594Y10184028D01*
X542594Y10085171D01*
X543306Y10078821D01*
X545185Y10073386D01*
X548284Y10068458D01*
X552399Y10064394D01*
X557276Y10061295D01*
X562762Y10059416D01*
X565861Y10059060D01*
X569366Y10057993D01*
X572312Y10055707D01*
X574192Y10052558D01*
X574903Y10048951D01*
X574903Y10018217D01*
X574294Y10014864D01*
X572668Y10011918D01*
X570128Y10009632D01*
X566724Y10007498D01*
X562660Y10003434D01*
X559562Y9998506D01*
X557631Y9993071D01*
X556920Y9986721D01*
X556920Y9901478D01*
X557631Y9895128D01*
X559562Y9889693D01*
X562660Y9884765D01*
X566724Y9880701D01*
X571652Y9877602D01*
X577088Y9875723D01*
X583438Y9875012D01*
X662940Y9875012D01*
X669239Y9875723D01*
X674725Y9877602D01*
X679602Y9880701D01*
X683717Y9884765D01*
X686765Y9889693D01*
X688898Y9895738D01*
X691032Y9899294D01*
X694436Y9901732D01*
X698500Y9902545D01*
X702564Y9901732D01*
X705967Y9899294D01*
X708101Y9895738D01*
X710234Y9889693D01*
X713282Y9884765D01*
X717397Y9880701D01*
X722274Y9877602D01*
X728421Y9875469D01*
X731977Y9873335D01*
X734364Y9869932D01*
X735228Y9865868D01*
X735228Y8635746D01*
X736041Y8627719D01*
X738225Y8620506D01*
X741781Y8613851D01*
X746912Y8607602D01*
X952550Y8401964D01*
X954938Y8398205D01*
X955497Y8393836D01*
X954125Y8389620D01*
X951128Y8386419D01*
X947013Y8384743D01*
X942644Y8384997D01*
X935532Y8386978D01*
X922528Y8388756D01*
X909472Y8388756D01*
X896467Y8386978D01*
X886764Y8384235D01*
X883208Y8383930D01*
X879754Y8384794D01*
X876858Y8386876D01*
X498805Y8764930D01*
X496570Y8768232D01*
X495808Y8772093D01*
X495808Y10419181D01*
X496570Y10423093D01*
X498805Y10426395D01*
X508304Y10435894D01*
X511606Y10438130D01*
X515518Y10438892D01*
X547420Y10438892D01*
X551027Y10438231D01*
X554177Y10436301D01*
X556463Y10433405D01*
X557631Y10428528D01*
X559562Y10423093D01*
X562660Y10418165D01*
X566724Y10414101D01*
X571652Y10411002D01*
X577088Y10409123D01*
X583438Y10408412D01*
X662940Y10408412D01*
X669239Y10409123D01*
X674725Y10411002D01*
X679602Y10414101D01*
X683717Y10418165D01*
X686765Y10423093D01*
X688898Y10429138D01*
X691032Y10432694D01*
X694436Y10435132D01*
X698500Y10435945D01*
X702564Y10435132D01*
X705967Y10432694D01*
X708101Y10429138D01*
X710234Y10423093D01*
X713282Y10418165D01*
X717397Y10414101D01*
X722274Y10411002D01*
X727760Y10409123D01*
X734060Y10408412D01*
X813562Y10408412D01*
X819912Y10409123D01*
X825347Y10411002D01*
X830275Y10414101D01*
X834339Y10418165D01*
X837437Y10423093D01*
X839368Y10428528D01*
X840079Y10434878D01*
X840079Y10520121D01*
X839368Y10526471D01*
X837437Y10531906D01*
X834339Y10536834D01*
X830275Y10540898D01*
X825347Y10543997D01*
X819251Y10546130D01*
X815695Y10548264D01*
X813308Y10551668D01*
X812444Y10555732D01*
X812444Y10581944D01*
X813206Y10585805D01*
X815441Y10589107D01*
X818692Y10591292D01*
X822604Y10592104D01*
X827938Y10592104D01*
X834237Y10592816D01*
X839724Y10594695D01*
X844600Y10597794D01*
X848715Y10601858D01*
X851763Y10606786D01*
X853694Y10612221D01*
X854405Y10618571D01*
X854405Y10717428D01*
X853694Y10723727D01*
X851763Y10729214D01*
X848715Y10734090D01*
X844600Y10738205D01*
X839724Y10741304D01*
X834237Y10743184D01*
X827938Y10743895D01*
X739089Y10743895D01*
X732739Y10743184D01*
X727303Y10741304D01*
X722376Y10738205D01*
X718312Y10734090D01*
X715213Y10729214D01*
X713282Y10723727D01*
X712571Y10717428D01*
X712571Y10618571D01*
X713282Y10612221D01*
X715213Y10606786D01*
X718312Y10601858D01*
X722376Y10597794D01*
X727303Y10594695D01*
X731977Y10592155D01*
X734364Y10588802D01*
X735228Y10584738D01*
X735228Y10555732D01*
X734364Y10551668D01*
X731977Y10548264D01*
X728421Y10546130D01*
X722274Y10543997D01*
X717397Y10540898D01*
X713282Y10536834D01*
X710234Y10531906D01*
X708101Y10525861D01*
X705967Y10522305D01*
X702564Y10519867D01*
X698500Y10519054D01*
X694436Y10519867D01*
X691032Y10522305D01*
X688898Y10525861D01*
X686765Y10531906D01*
X683717Y10536834D01*
X679602Y10540898D01*
X674725Y10543997D01*
X669239Y10545876D01*
X662940Y10546588D01*
X583438Y10546588D01*
X577088Y10545876D01*
X571652Y10543997D01*
X566724Y10540898D01*
X562660Y10536834D01*
X559562Y10531906D01*
X557631Y10526471D01*
X556463Y10521594D01*
X554177Y10518698D01*
X551027Y10516768D01*
X547420Y10516108D01*
X495808Y10516108D01*
X487781Y10515295D01*
X480568Y10513110D01*
X473862Y10509554D01*
X467664Y10504424D01*
X430276Y10467035D01*
X425145Y10460837D01*
X421589Y10454132D01*
X419404Y10446918D01*
X418592Y10438892D01*
X418592Y8752382D01*
X419404Y8744356D01*
X421589Y8737142D01*
X425145Y8730488D01*
X430276Y8724239D01*
X752551Y8401964D01*
X754938Y8398205D01*
X755497Y8393836D01*
X754126Y8389620D01*
X751128Y8386419D01*
X747014Y8384743D01*
X742645Y8384997D01*
X735533Y8386978D01*
X722528Y8388756D01*
X709472Y8388756D01*
X696468Y8386978D01*
X686765Y8384235D01*
X683209Y8383930D01*
X679754Y8384794D01*
X676859Y8386876D01*
X384505Y8679230D01*
X382270Y8682532D01*
X381508Y8686393D01*
X381508Y10965281D01*
X382270Y10969193D01*
X384505Y10972495D01*
X394004Y10981994D01*
X397306Y10984230D01*
X401218Y10984992D01*
X547420Y10984992D01*
X551027Y10984331D01*
X554177Y10982401D01*
X556463Y10979505D01*
X557631Y10974628D01*
X559562Y10969193D01*
X562660Y10964265D01*
X566724Y10960201D01*
X571652Y10957102D01*
X577088Y10955223D01*
X583438Y10954512D01*
X662940Y10954512D01*
X669239Y10955223D01*
X674725Y10957102D01*
X679602Y10960201D01*
X683717Y10964265D01*
X686765Y10969193D01*
X688898Y10975238D01*
X691032Y10978794D01*
X694436Y10981232D01*
X698500Y10982045D01*
X702564Y10981232D01*
X705967Y10978794D01*
X708101Y10975238D01*
X710234Y10969193D01*
X713282Y10964265D01*
X717397Y10960201D01*
X722274Y10957102D01*
X727760Y10955223D01*
X734060Y10954512D01*
X813562Y10954512D01*
X819912Y10955223D01*
X825347Y10957102D01*
X830275Y10960201D01*
X834339Y10964265D01*
X837437Y10969193D01*
X839368Y10974628D01*
X840079Y10980978D01*
X840079Y11066221D01*
X839368Y11072571D01*
X837437Y11078006D01*
X834339Y11082934D01*
X830275Y11086998D01*
X825347Y11090097D01*
X819251Y11092230D01*
X815695Y11094364D01*
X813308Y11097768D01*
X812444Y11101832D01*
X812444Y11128044D01*
X813206Y11131905D01*
X815441Y11135207D01*
X818692Y11137392D01*
X822604Y11138204D01*
X827938Y11138204D01*
X834237Y11138916D01*
X839724Y11140795D01*
X844600Y11143894D01*
X848715Y11147958D01*
X851763Y11152886D01*
X853694Y11158321D01*
X854405Y11164671D01*
X854405Y11263528D01*
X853694Y11269827D01*
X851408Y11276279D01*
X850849Y11280089D01*
X851763Y11283848D01*
X853998Y11286998D01*
X857250Y11289080D01*
X861009Y11289792D01*
X1741932Y11289792D01*
X1745843Y11289030D01*
X1749094Y11286794D01*
X1751330Y11283543D01*
X1752092Y11279632D01*
X1752092Y1852168D01*
X1751330Y1848256D01*
X1749094Y1845005D01*
X1745843Y1842770D01*
X1741932Y1842007D01*
X1421384Y1842007D01*
X1417167Y1842922D01*
X1413713Y1845462D01*
X1411630Y1849221D01*
X1411325Y1853539D01*
X1412798Y1857552D01*
X1415491Y1861870D01*
X1417370Y1867357D01*
X1418132Y1873656D01*
X1418132Y1930400D01*
X1328674Y1930400D01*
X1328674Y1852168D01*
X1327912Y1848256D01*
X1325727Y1845005D01*
X1322425Y1842770D01*
X1318564Y1842007D01*
X1313484Y1842007D01*
X1309573Y1842770D01*
X1306271Y1845005D01*
X1304086Y1848256D01*
X1303274Y1852168D01*
X1303274Y1930400D01*
X1221892Y1930400D01*
X1217980Y1931162D01*
X1214729Y1933397D01*
X1212494Y1936648D01*
X1211732Y1940560D01*
X1211732Y1945639D01*
X1212494Y1949551D01*
X1214729Y1952802D01*
X1217980Y1955038D01*
X1221892Y1955800D01*
X1303274Y1955800D01*
X1303274Y2034032D01*
X1304086Y2037943D01*
X1306271Y2041194D01*
X1309573Y2043430D01*
X1313484Y2044192D01*
X1318564Y2044192D01*
X1322425Y2043430D01*
X1325727Y2041194D01*
X1327912Y2037943D01*
X1328674Y2034032D01*
X1328674Y1955800D01*
X1418132Y1955800D01*
X1418132Y2012543D01*
X1417370Y2018842D01*
X1415491Y2024329D01*
X1412392Y2029206D01*
X1410157Y2031441D01*
X1408023Y2034590D01*
X1407210Y2038248D01*
X1407769Y2041956D01*
X1409598Y2045258D01*
X1412544Y2047595D01*
X1418437Y2050745D01*
X1424635Y2055875D01*
X1468424Y2099614D01*
X1471726Y2101799D01*
X1475587Y2102612D01*
X1486662Y2102612D01*
X1493012Y2103323D01*
X1498447Y2105202D01*
X1503375Y2108301D01*
X1507439Y2112365D01*
X1510538Y2117293D01*
X1512468Y2122728D01*
X1513179Y2129078D01*
X1513179Y2214321D01*
X1512468Y2220671D01*
X1510538Y2226106D01*
X1507439Y2231034D01*
X1503375Y2235098D01*
X1498447Y2238197D01*
X1493012Y2240076D01*
X1486662Y2240788D01*
X1407160Y2240788D01*
X1400860Y2240076D01*
X1395374Y2238197D01*
X1390497Y2235098D01*
X1386382Y2231034D01*
X1383334Y2226106D01*
X1381201Y2220061D01*
X1379067Y2216505D01*
X1375664Y2214067D01*
X1371600Y2213254D01*
X1367536Y2214067D01*
X1364132Y2216505D01*
X1361998Y2220061D01*
X1359865Y2226106D01*
X1356817Y2231034D01*
X1352702Y2235098D01*
X1347825Y2238197D01*
X1342339Y2240076D01*
X1336040Y2240788D01*
X1256538Y2240788D01*
X1250188Y2240076D01*
X1244752Y2238197D01*
X1239824Y2235098D01*
X1235760Y2231034D01*
X1232662Y2226106D01*
X1230731Y2220671D01*
X1229563Y2215794D01*
X1227277Y2212898D01*
X1224127Y2210968D01*
X1220520Y2210308D01*
X1182065Y2210308D01*
X1178407Y2210968D01*
X1175207Y2212949D01*
X1172972Y2215896D01*
X1171956Y2219502D01*
X1171143Y2227529D01*
X1169263Y2232914D01*
X1166215Y2237790D01*
X1162100Y2241905D01*
X1157224Y2245004D01*
X1151737Y2246884D01*
X1145438Y2247595D01*
X1056589Y2247595D01*
X1050239Y2246884D01*
X1044803Y2245004D01*
X1039876Y2241905D01*
X1035812Y2237790D01*
X1032713Y2232914D01*
X1030782Y2227427D01*
X1030071Y2221128D01*
X1030071Y2122271D01*
X1030782Y2115921D01*
X1032713Y2110486D01*
X1035812Y2105558D01*
X1039876Y2101494D01*
X1044803Y2098395D01*
X1050239Y2096516D01*
X1056589Y2095804D01*
X1145438Y2095804D01*
X1151737Y2096516D01*
X1157224Y2098395D01*
X1162100Y2101494D01*
X1166215Y2105558D01*
X1169263Y2110486D01*
X1171143Y2115870D01*
X1171956Y2123897D01*
X1172972Y2127504D01*
X1175207Y2130450D01*
X1178407Y2132431D01*
X1182065Y2133092D01*
X1220520Y2133092D01*
X1224127Y2132431D01*
X1227277Y2130501D01*
X1229563Y2127605D01*
X1231341Y2121103D01*
X1231900Y2116988D01*
X1230782Y2113076D01*
X1228039Y2109724D01*
X1155141Y2036876D01*
X1152245Y2034793D01*
X1148791Y2033930D01*
X1145235Y2034235D01*
X1135532Y2036978D01*
X1122527Y2038756D01*
X1109472Y2038756D01*
X1096467Y2036978D01*
X1083868Y2033422D01*
X1071880Y2028240D01*
X1060704Y2021433D01*
X1050544Y2013153D01*
X1041603Y2003602D01*
X1034084Y1992934D01*
X1028039Y1981301D01*
X1025550Y1974342D01*
X1023416Y1970786D01*
X1020064Y1968398D01*
X1016000Y1967585D01*
X1011936Y1968398D01*
X1008583Y1970786D01*
X1006449Y1974342D01*
X1003960Y1981301D01*
X997915Y1992934D01*
X990396Y2003602D01*
X981456Y2013153D01*
X971296Y2021433D01*
X960119Y2028240D01*
X948131Y2033422D01*
X935532Y2036978D01*
X928725Y2037892D01*
X928725Y1955800D01*
X1010107Y1955800D01*
X1014018Y1955038D01*
X1017269Y1952802D01*
X1019505Y1949551D01*
X1020267Y1945639D01*
X1020267Y1940560D01*
X1019505Y1936648D01*
X1017269Y1933397D01*
X1014018Y1931162D01*
X1010107Y1930400D01*
X928725Y1930400D01*
X928725Y1852168D01*
X927912Y1848256D01*
X925728Y1845005D01*
X922426Y1842770D01*
X918514Y1842007D01*
X913434Y1842007D01*
X909574Y1842770D01*
X906271Y1845005D01*
X904087Y1848256D01*
X903325Y1852168D01*
X903325Y1930400D01*
X728726Y1930400D01*
X728726Y1852168D01*
X727913Y1848256D01*
X725728Y1845005D01*
X722426Y1842770D01*
X718515Y1842007D01*
X713486Y1842007D01*
X709574Y1842770D01*
X706272Y1845005D01*
X704088Y1848256D01*
X703326Y1852168D01*
X703326Y1930400D01*
X620979Y1930400D01*
X623671Y1917242D01*
X628040Y1904898D01*
X634085Y1893265D01*
X641604Y1882597D01*
X650544Y1873046D01*
X660704Y1864766D01*
X667156Y1860854D01*
X670306Y1857857D01*
X671880Y1853793D01*
X671626Y1849424D01*
X669594Y1845564D01*
X666140Y1842922D01*
X661873Y1842007D01*
G37*

%LPC*%
G36*
X626211Y11138204D02*
G01*
X657910Y11138204D01*
X664260Y11138916D01*
X669696Y11140795D01*
X674624Y11143894D01*
X678688Y11147958D01*
X681786Y11152886D01*
X683666Y11158321D01*
X684377Y11164671D01*
X684377Y11201400D01*
X626211Y11201400D01*
G37*
G36*
X728726Y1955800D02*
G01*
X903325Y1955800D01*
X903325Y2037892D01*
X896467Y2036978D01*
X883869Y2033422D01*
X871880Y2028240D01*
X860704Y2021433D01*
X850544Y2013153D01*
X841603Y2003602D01*
X834085Y1992934D01*
X828040Y1981301D01*
X825550Y1974342D01*
X823417Y1970786D01*
X820064Y1968398D01*
X816000Y1967585D01*
X811936Y1968398D01*
X808583Y1970786D01*
X806450Y1974342D01*
X803960Y1981301D01*
X797915Y1992934D01*
X790397Y2003602D01*
X781456Y2013153D01*
X771296Y2021433D01*
X760120Y2028240D01*
X748131Y2033422D01*
X735533Y2036978D01*
X728726Y2037892D01*
G37*
G36*
X943711Y2095804D02*
G01*
X975410Y2095804D01*
X981760Y2096516D01*
X987196Y2098395D01*
X992124Y2101494D01*
X996187Y2105558D01*
X999286Y2110486D01*
X1001166Y2115921D01*
X1001877Y2122271D01*
X1001877Y2159000D01*
X943711Y2159000D01*
G37*
G36*
X886561Y2095804D02*
G01*
X918311Y2095804D01*
X918311Y2159000D01*
X860094Y2159000D01*
X860094Y2122271D01*
X860806Y2115921D01*
X862685Y2110486D01*
X865784Y2105558D01*
X869899Y2101494D01*
X874776Y2098395D01*
X880262Y2096516D01*
G37*
G36*
X860094Y2184400D02*
G01*
X918311Y2184400D01*
X918311Y2247595D01*
X886561Y2247595D01*
X880262Y2246884D01*
X874776Y2245004D01*
X869899Y2241905D01*
X865784Y2237790D01*
X862685Y2232914D01*
X860806Y2227427D01*
X860094Y2221128D01*
G37*
G36*
X943711Y2184400D02*
G01*
X1001877Y2184400D01*
X1001877Y2221128D01*
X1001166Y2227427D01*
X999286Y2232914D01*
X996187Y2237790D01*
X992124Y2241905D01*
X987196Y2245004D01*
X981760Y2246884D01*
X975410Y2247595D01*
X943711Y2247595D01*
G37*
G36*
X993038Y2425446D02*
G01*
X1013561Y2425446D01*
X1034034Y2427274D01*
X1054303Y2430932D01*
X1074115Y2436418D01*
X1093317Y2443632D01*
X1111859Y2452573D01*
X1129487Y2463088D01*
X1146149Y2475179D01*
X1161643Y2488692D01*
X1175816Y2503576D01*
X1188669Y2519629D01*
X1199946Y2536799D01*
X1209700Y2554884D01*
X1217777Y2573782D01*
X1224127Y2593340D01*
X1228699Y2613406D01*
X1231493Y2633776D01*
X1232408Y2654503D01*
X1232408Y3162096D01*
X1231493Y3182823D01*
X1228699Y3203194D01*
X1224127Y3223260D01*
X1217777Y3242818D01*
X1209700Y3261715D01*
X1199946Y3279800D01*
X1188669Y3296970D01*
X1175816Y3313023D01*
X1161643Y3327908D01*
X1146149Y3341420D01*
X1129487Y3353511D01*
X1111859Y3364026D01*
X1093317Y3372967D01*
X1074115Y3380181D01*
X1054303Y3385667D01*
X1034034Y3389325D01*
X1013561Y3391154D01*
X993038Y3391154D01*
X972566Y3389325D01*
X952296Y3385667D01*
X932484Y3380181D01*
X913282Y3372967D01*
X894740Y3364026D01*
X877112Y3353511D01*
X860450Y3341420D01*
X844956Y3327908D01*
X830783Y3313023D01*
X817930Y3296970D01*
X806653Y3279800D01*
X796899Y3261715D01*
X788822Y3242818D01*
X782472Y3223260D01*
X777900Y3203194D01*
X775106Y3182823D01*
X774192Y3162096D01*
X774192Y2654503D01*
X775106Y2633776D01*
X777900Y2613406D01*
X782472Y2593340D01*
X788822Y2573782D01*
X796899Y2554884D01*
X806653Y2536799D01*
X817930Y2519629D01*
X830783Y2503576D01*
X844956Y2488692D01*
X860450Y2475179D01*
X877112Y2463088D01*
X894740Y2452573D01*
X913282Y2443632D01*
X932484Y2436418D01*
X952296Y2430932D01*
X972566Y2427274D01*
G37*
G36*
X356158Y5930493D02*
G01*
X1155039Y5930493D01*
X1161338Y5931204D01*
X1166825Y5933135D01*
X1171702Y5936183D01*
X1175816Y5940298D01*
X1178864Y5945174D01*
X1180795Y5950661D01*
X1181506Y5956960D01*
X1181506Y6755841D01*
X1180795Y6762140D01*
X1178864Y6767626D01*
X1175816Y6772503D01*
X1171702Y6776618D01*
X1166825Y6779666D01*
X1161338Y6781596D01*
X1155039Y6782308D01*
X356158Y6782308D01*
X349859Y6781596D01*
X344373Y6779666D01*
X339496Y6776618D01*
X335381Y6772503D01*
X332333Y6767626D01*
X330403Y6762140D01*
X329692Y6755841D01*
X329692Y5956960D01*
X330403Y5950661D01*
X332333Y5945174D01*
X335381Y5940298D01*
X339496Y5936183D01*
X344373Y5933135D01*
X349859Y5931204D01*
G37*
G36*
X1328674Y8197189D02*
G01*
X1391615Y8197189D01*
X1397965Y8197900D01*
X1403400Y8199831D01*
X1408328Y8202879D01*
X1412392Y8206994D01*
X1415491Y8211870D01*
X1417370Y8217357D01*
X1418132Y8223656D01*
X1418132Y8280400D01*
X1328674Y8280400D01*
G37*
G36*
X620979Y1955800D02*
G01*
X703326Y1955800D01*
X703326Y2037892D01*
X696468Y2036978D01*
X683869Y2033422D01*
X671880Y2028240D01*
X660704Y2021433D01*
X650544Y2013153D01*
X641604Y2003602D01*
X634085Y1992934D01*
X628040Y1981301D01*
X623671Y1968957D01*
G37*
G36*
X739089Y10058704D02*
G01*
X770788Y10058704D01*
X770788Y10121900D01*
X712571Y10121900D01*
X712571Y10085171D01*
X713282Y10078821D01*
X715213Y10073386D01*
X718312Y10068458D01*
X722376Y10064394D01*
X727303Y10061295D01*
X732739Y10059416D01*
G37*
G36*
X796188Y10058704D02*
G01*
X827938Y10058704D01*
X834237Y10059416D01*
X839724Y10061295D01*
X844600Y10064394D01*
X848715Y10068458D01*
X851763Y10073386D01*
X853694Y10078821D01*
X854405Y10085171D01*
X854405Y10121900D01*
X796188Y10121900D01*
G37*
G36*
X796188Y10147300D02*
G01*
X854405Y10147300D01*
X854405Y10184028D01*
X853694Y10190327D01*
X851763Y10195814D01*
X848715Y10200690D01*
X844600Y10204805D01*
X839724Y10207904D01*
X834237Y10209784D01*
X827938Y10210495D01*
X796188Y10210495D01*
G37*
G36*
X712571Y10147300D02*
G01*
X770788Y10147300D01*
X770788Y10210495D01*
X739089Y10210495D01*
X732739Y10209784D01*
X727303Y10207904D01*
X722376Y10204805D01*
X718312Y10200690D01*
X715213Y10195814D01*
X713282Y10190327D01*
X712571Y10184028D01*
G37*
G36*
X626211Y10592104D02*
G01*
X657910Y10592104D01*
X664260Y10592816D01*
X669696Y10594695D01*
X674624Y10597794D01*
X678688Y10601858D01*
X681786Y10606786D01*
X683666Y10612221D01*
X684377Y10618571D01*
X684377Y10655300D01*
X626211Y10655300D01*
G37*
G36*
X569061Y10592104D02*
G01*
X600811Y10592104D01*
X600811Y10655300D01*
X542594Y10655300D01*
X542594Y10618571D01*
X543306Y10612221D01*
X545185Y10606786D01*
X548284Y10601858D01*
X552399Y10597794D01*
X557276Y10594695D01*
X562762Y10592816D01*
G37*
G36*
X626211Y10680700D02*
G01*
X684377Y10680700D01*
X684377Y10717428D01*
X683666Y10723727D01*
X681786Y10729214D01*
X678688Y10734090D01*
X674624Y10738205D01*
X669696Y10741304D01*
X664260Y10743184D01*
X657910Y10743895D01*
X626211Y10743895D01*
G37*
G36*
X542594Y10680700D02*
G01*
X600811Y10680700D01*
X600811Y10743895D01*
X569061Y10743895D01*
X562762Y10743184D01*
X557276Y10741304D01*
X552399Y10738205D01*
X548284Y10734090D01*
X545185Y10729214D01*
X543306Y10723727D01*
X542594Y10717428D01*
G37*
G36*
X569061Y11138204D02*
G01*
X600811Y11138204D01*
X600811Y11201400D01*
X542594Y11201400D01*
X542594Y11164671D01*
X543306Y11158321D01*
X545185Y11152886D01*
X548284Y11147958D01*
X552399Y11143894D01*
X557276Y11140795D01*
X562762Y11138916D01*
G37*
G36*
X1328674Y8305800D02*
G01*
X1418132Y8305800D01*
X1418132Y8362543D01*
X1417370Y8368842D01*
X1415491Y8374329D01*
X1412392Y8379206D01*
X1408328Y8383320D01*
X1403400Y8386368D01*
X1397965Y8388299D01*
X1391615Y8389010D01*
X1328674Y8389010D01*
G37*

%LPD*%
D10*
X1100988Y2171702D02*
G01*
X1296263Y2171702D01*
X623163Y9944100D02*
G01*
X613486Y9953777D01*
X613486Y10134600D01*
X783493Y10668000D02*
G01*
X773836Y10658342D01*
X773836Y10477500D01*
X783493Y11214100D02*
G01*
X773836Y11204442D01*
X773836Y11023600D01*
X773836Y9944100D02*
G01*
X773836Y8635263D01*
X1115999Y8293100D01*
X623062Y10477500D02*
G01*
X495300Y10477500D01*
X457200Y10439400D01*
X457200Y8751900D01*
X916000Y8293100D01*
X623163Y11023600D02*
G01*
X381000Y11023600D01*
X342900Y10985500D01*
X342900Y8666200D01*
X716000Y8293100D01*
X1446936Y2171702D02*
G01*
X1446936Y2132736D01*
X1397000Y2082800D01*
X1255699Y2082800D01*
X1115999Y1943100D01*
D11*
G01*
X613486Y11214100D03*
G01*
X783488Y11214100D03*
D12*
G01*
X623175Y11023600D03*
G01*
X773824Y11023600D03*
D13*
G01*
X773824Y9944100D03*
G01*
X623175Y9944100D03*
D12*
G01*
X623175Y10477500D03*
G01*
X773824Y10477500D03*
D11*
G01*
X613486Y10668000D03*
G01*
X783488Y10668000D03*
G01*
X613486Y10134600D03*
G01*
X783488Y10134600D03*
G01*
X930986Y2171700D03*
G01*
X1100988Y2171700D03*
D12*
G01*
X1296275Y2171700D03*
G01*
X1446924Y2171700D03*
D14*
G01*
X1253998Y11515699D03*
G01*
X12845999Y11515699D03*
G01*
X1753997Y1616100D03*
G01*
X12346000Y1616100D03*
D15*
G01*
X716000Y8293100D03*
G01*
X916000Y8293100D03*
G01*
X1115999Y8293100D03*
D16*
G01*
X1315999Y8293100D03*
D15*
G01*
X716000Y1943100D03*
G01*
X916000Y1943100D03*
G01*
X1115999Y1943100D03*
D16*
G01*
X1315999Y1943100D03*
M02*
