G04 Layer: BoardOutlineLayer*
G04 Panelize: V-CUT, Column: 8, Row: 1, Board Size: 15.24mm x 95mm, Panelized Board Size: 135.92mm x 95mm*
G04 EasyEDA v6.5.34, 2023-08-21 18:11:39*
G04 3bfda8faaeb148089eadf0c8bcf69e3c,5a6b42c53f6a479593ecc07194224c93,10*
G04 Gerber Generator version 0.2*
G04 Scale: 100 percent, Rotated: No, Reflected: No *
G04 Dimensions in millimeters *
G04 leading zeros omitted , absolute positions ,4 integer and 5 decimal *
%FSLAX45Y45*%
%MOMM*%

%ADD10C,0.2540*%
D10*
X254000Y11315700D02*
G01*
X1778000Y11315700D01*
X1778000Y1816100D01*
X254000Y1816100D01*
X254000Y11315700D01*
G75*
G01*
X800100Y2654300D02*
G02*
X1206500Y2654300I203200J0D01*
G75*
G01*
X1206500Y2654300D02*
G02*
X800100Y2654300I-203200J0D01*
X800100Y2654300D02*
G01*
X800100Y2654300D01*
X800100Y3162300D02*
G01*
X800100Y2654300D01*
X800100Y2654300D02*
G01*
X1206500Y2654300D01*
X1206500Y2654300D02*
G01*
X1206500Y3162300D01*
X1206500Y3162300D02*
G01*
X800100Y3162300D01*
G75*
G01*
X800100Y3162300D02*
G02*
X1206500Y3162300I203200J0D01*
G75*
G01*
X1206500Y3162300D02*
G02*
X800100Y3162300I-203200J0D01*
X800100Y3162300D02*
G01*
X800100Y3162300D01*
X355600Y6756400D02*
G01*
X355600Y5956401D01*
X355600Y5956401D02*
G01*
X1155598Y5956401D01*
X1155598Y5956401D02*
G01*
X1155598Y6756400D01*
X1155598Y6756400D02*
G01*
X355600Y6756400D01*
X1977999Y11315700D02*
G01*
X3501999Y11315700D01*
X3501999Y1816100D01*
X1977999Y1816100D01*
X1977999Y11315700D01*
G75*
G01*
X2524100Y2654300D02*
G02*
X2930500Y2654300I203200J0D01*
G75*
G01*
X2930500Y2654300D02*
G02*
X2524100Y2654300I-203200J0D01*
X2524099Y2654300D02*
G01*
X2524099Y2654300D01*
X2524099Y3162300D02*
G01*
X2524099Y2654300D01*
X2524099Y2654300D02*
G01*
X2930499Y2654300D01*
X2930499Y2654300D02*
G01*
X2930499Y3162300D01*
X2930499Y3162300D02*
G01*
X2524099Y3162300D01*
G75*
G01*
X2524100Y3162300D02*
G02*
X2930500Y3162300I203200J0D01*
G75*
G01*
X2930500Y3162300D02*
G02*
X2524100Y3162300I-203200J0D01*
X2524099Y3162300D02*
G01*
X2524099Y3162300D01*
X2079599Y6756400D02*
G01*
X2079599Y5956401D01*
X2079599Y5956401D02*
G01*
X2879597Y5956401D01*
X2879597Y5956401D02*
G01*
X2879597Y6756400D01*
X2879597Y6756400D02*
G01*
X2079599Y6756400D01*
X3701999Y11315700D02*
G01*
X5225999Y11315700D01*
X5225999Y1816100D01*
X3701999Y1816100D01*
X3701999Y11315700D01*
G75*
G01*
X4248099Y2654300D02*
G02*
X4654499Y2654300I203200J0D01*
G75*
G01*
X4654499Y2654300D02*
G02*
X4248099Y2654300I-203200J0D01*
X4248099Y2654300D02*
G01*
X4248099Y2654300D01*
X4248099Y3162300D02*
G01*
X4248099Y2654300D01*
X4248099Y2654300D02*
G01*
X4654499Y2654300D01*
X4654499Y2654300D02*
G01*
X4654499Y3162300D01*
X4654499Y3162300D02*
G01*
X4248099Y3162300D01*
G75*
G01*
X4248099Y3162300D02*
G02*
X4654499Y3162300I203200J0D01*
G75*
G01*
X4654499Y3162300D02*
G02*
X4248099Y3162300I-203200J0D01*
X4248099Y3162300D02*
G01*
X4248099Y3162300D01*
X3803599Y6756400D02*
G01*
X3803599Y5956401D01*
X3803599Y5956401D02*
G01*
X4603597Y5956401D01*
X4603597Y5956401D02*
G01*
X4603597Y6756400D01*
X4603597Y6756400D02*
G01*
X3803599Y6756400D01*
X5425998Y11315700D02*
G01*
X6949998Y11315700D01*
X6949998Y1816100D01*
X5425998Y1816100D01*
X5425998Y11315700D01*
G75*
G01*
X5972099Y2654300D02*
G02*
X6378499Y2654300I203200J0D01*
G75*
G01*
X6378499Y2654300D02*
G02*
X5972099Y2654300I-203200J0D01*
X5972098Y2654300D02*
G01*
X5972098Y2654300D01*
X5972098Y3162300D02*
G01*
X5972098Y2654300D01*
X5972098Y2654300D02*
G01*
X6378498Y2654300D01*
X6378498Y2654300D02*
G01*
X6378498Y3162300D01*
X6378498Y3162300D02*
G01*
X5972098Y3162300D01*
G75*
G01*
X5972099Y3162300D02*
G02*
X6378499Y3162300I203200J0D01*
G75*
G01*
X6378499Y3162300D02*
G02*
X5972099Y3162300I-203200J0D01*
X5972098Y3162300D02*
G01*
X5972098Y3162300D01*
X5527598Y6756400D02*
G01*
X5527598Y5956401D01*
X5527598Y5956401D02*
G01*
X6327597Y5956401D01*
X6327597Y5956401D02*
G01*
X6327597Y6756400D01*
X6327597Y6756400D02*
G01*
X5527598Y6756400D01*
X7149998Y11315700D02*
G01*
X8673998Y11315700D01*
X8673998Y1816100D01*
X7149998Y1816100D01*
X7149998Y11315700D01*
G75*
G01*
X7696098Y2654300D02*
G02*
X8102498Y2654300I203200J0D01*
G75*
G01*
X8102498Y2654300D02*
G02*
X7696098Y2654300I-203200J0D01*
X7696098Y2654300D02*
G01*
X7696098Y2654300D01*
X7696098Y3162300D02*
G01*
X7696098Y2654300D01*
X7696098Y2654300D02*
G01*
X8102498Y2654300D01*
X8102498Y2654300D02*
G01*
X8102498Y3162300D01*
X8102498Y3162300D02*
G01*
X7696098Y3162300D01*
G75*
G01*
X7696098Y3162300D02*
G02*
X8102498Y3162300I203200J0D01*
G75*
G01*
X8102498Y3162300D02*
G02*
X7696098Y3162300I-203200J0D01*
X7696098Y3162300D02*
G01*
X7696098Y3162300D01*
X7251598Y6756400D02*
G01*
X7251598Y5956401D01*
X7251598Y5956401D02*
G01*
X8051596Y5956401D01*
X8051596Y5956401D02*
G01*
X8051596Y6756400D01*
X8051596Y6756400D02*
G01*
X7251598Y6756400D01*
X8873997Y11315700D02*
G01*
X10397997Y11315700D01*
X10397997Y1816100D01*
X8873997Y1816100D01*
X8873997Y11315700D01*
G75*
G01*
X9420098Y2654300D02*
G02*
X9826498Y2654300I203200J0D01*
G75*
G01*
X9826498Y2654300D02*
G02*
X9420098Y2654300I-203200J0D01*
X9420097Y2654300D02*
G01*
X9420097Y2654300D01*
X9420097Y3162300D02*
G01*
X9420097Y2654300D01*
X9420097Y2654300D02*
G01*
X9826497Y2654300D01*
X9826497Y2654300D02*
G01*
X9826497Y3162300D01*
X9826497Y3162300D02*
G01*
X9420097Y3162300D01*
G75*
G01*
X9420098Y3162300D02*
G02*
X9826498Y3162300I203200J0D01*
G75*
G01*
X9826498Y3162300D02*
G02*
X9420098Y3162300I-203200J0D01*
X9420097Y3162300D02*
G01*
X9420097Y3162300D01*
X8975597Y6756400D02*
G01*
X8975597Y5956401D01*
X8975597Y5956401D02*
G01*
X9775596Y5956401D01*
X9775596Y5956401D02*
G01*
X9775596Y6756400D01*
X9775596Y6756400D02*
G01*
X8975597Y6756400D01*
X10597997Y11315700D02*
G01*
X12121997Y11315700D01*
X12121997Y1816100D01*
X10597997Y1816100D01*
X10597997Y11315700D01*
G75*
G01*
X11144098Y2654300D02*
G02*
X11550498Y2654300I203200J0D01*
G75*
G01*
X11550498Y2654300D02*
G02*
X11144098Y2654300I-203200J0D01*
X11144097Y2654300D02*
G01*
X11144097Y2654300D01*
X11144097Y3162300D02*
G01*
X11144097Y2654300D01*
X11144097Y2654300D02*
G01*
X11550497Y2654300D01*
X11550497Y2654300D02*
G01*
X11550497Y3162300D01*
X11550497Y3162300D02*
G01*
X11144097Y3162300D01*
G75*
G01*
X11144098Y3162300D02*
G02*
X11550498Y3162300I203200J0D01*
G75*
G01*
X11550498Y3162300D02*
G02*
X11144098Y3162300I-203200J0D01*
X11144097Y3162300D02*
G01*
X11144097Y3162300D01*
X10699597Y6756400D02*
G01*
X10699597Y5956401D01*
X10699597Y5956401D02*
G01*
X11499595Y5956401D01*
X11499595Y5956401D02*
G01*
X11499595Y6756400D01*
X11499595Y6756400D02*
G01*
X10699597Y6756400D01*
X12321997Y11315700D02*
G01*
X13845997Y11315700D01*
X13845997Y1816100D01*
X12321997Y1816100D01*
X12321997Y11315700D01*
G75*
G01*
X12868097Y2654300D02*
G02*
X13274497Y2654300I203200J0D01*
G75*
G01*
X13274497Y2654300D02*
G02*
X12868097Y2654300I-203200J0D01*
X12868097Y2654300D02*
G01*
X12868097Y2654300D01*
X12868097Y3162300D02*
G01*
X12868097Y2654300D01*
X12868097Y2654300D02*
G01*
X13274497Y2654300D01*
X13274497Y2654300D02*
G01*
X13274497Y3162300D01*
X13274497Y3162300D02*
G01*
X12868097Y3162300D01*
G75*
G01*
X12868097Y3162300D02*
G02*
X13274497Y3162300I203200J0D01*
G75*
G01*
X13274497Y3162300D02*
G02*
X12868097Y3162300I-203200J0D01*
X12868097Y3162300D02*
G01*
X12868097Y3162300D01*
X12423597Y6756400D02*
G01*
X12423597Y5956401D01*
X12423597Y5956401D02*
G01*
X13223595Y5956401D01*
X13223595Y5956401D02*
G01*
X13223595Y6756400D01*
X13223595Y6756400D02*
G01*
X12423597Y6756400D01*
X254000Y11915698D02*
G01*
X13845997Y11915698D01*
X13845997Y1216101D01*
X254000Y1216101D01*
X254000Y11915698D01*
X254000Y11315700D02*
G01*
X13845997Y11315700D01*
X254000Y1816100D02*
G01*
X13845997Y1816100D01*
X254000Y11315700D02*
G01*
X13845997Y11315700D01*
X254000Y1816100D02*
G01*
X13845997Y1816100D01*
X1977999Y11915698D02*
G01*
X1977999Y1216101D01*
X1977999Y11915698D02*
G01*
X1977999Y1216101D01*
X1778000Y11915698D02*
G01*
X1778000Y1216101D01*
X1778000Y11915698D02*
G01*
X1778000Y1216101D01*
X3701999Y11915698D02*
G01*
X3701999Y1216101D01*
X3701999Y11915698D02*
G01*
X3701999Y1216101D01*
X3501999Y11915698D02*
G01*
X3501999Y1216101D01*
X3501999Y11915698D02*
G01*
X3501999Y1216101D01*
X5425998Y11915698D02*
G01*
X5425998Y1216101D01*
X5425998Y11915698D02*
G01*
X5425998Y1216101D01*
X5225999Y11915698D02*
G01*
X5225999Y1216101D01*
X5225999Y11915698D02*
G01*
X5225999Y1216101D01*
X7149998Y11915698D02*
G01*
X7149998Y1216101D01*
X7149998Y11915698D02*
G01*
X7149998Y1216101D01*
X6949998Y11915698D02*
G01*
X6949998Y1216101D01*
X6949998Y11915698D02*
G01*
X6949998Y1216101D01*
X8873997Y11915698D02*
G01*
X8873997Y1216101D01*
X8873997Y11915698D02*
G01*
X8873997Y1216101D01*
X8673998Y11915698D02*
G01*
X8673998Y1216101D01*
X8673998Y11915698D02*
G01*
X8673998Y1216101D01*
X10597997Y11915698D02*
G01*
X10597997Y1216101D01*
X10597997Y11915698D02*
G01*
X10597997Y1216101D01*
X10397997Y11915698D02*
G01*
X10397997Y1216101D01*
X10397997Y11915698D02*
G01*
X10397997Y1216101D01*
X12321997Y11915698D02*
G01*
X12321997Y1216101D01*
X12321997Y11915698D02*
G01*
X12321997Y1216101D01*
X12121997Y11915698D02*
G01*
X12121997Y1216101D01*
X12121997Y11915698D02*
G01*
X12121997Y1216101D01*

%LPD*%
M02*
