G04 Layer: BottomSilkscreenLayer*
G04 Panelize: Stamp Hole, Column: 10, Row: 1, Board Size: 15.24mm x 95mm, Panelized Board Size: 206.4mm x 95mm*
G04 EasyEDA v6.5.34, 2023-08-21 18:11:39*
G04 6b2dacb3b0004d39b2713aafaac8f7a9,5a6b42c53f6a479593ecc07194224c93,10*
G04 Gerber Generator version 0.2*
G04 Scale: 100 percent, Rotated: No, Reflected: No *
G04 Dimensions in millimeters *
G04 leading zeros omitted , absolute positions ,4 integer and 5 decimal *
%FSLAX45Y45*%
%MOMM*%

%ADD10C,0.2032*%
%ADD11C,0.1524*%
%ADD12C,0.2540*%

%LPD*%
D10*
X1583690Y3727957D02*
G01*
X1583690Y3640581D01*
X1589277Y3624326D01*
X1594611Y3618737D01*
X1605534Y3613404D01*
X1616456Y3613404D01*
X1627377Y3618737D01*
X1632965Y3624326D01*
X1638300Y3640581D01*
X1638300Y3651504D01*
X1547875Y3727957D02*
G01*
X1547875Y3613404D01*
X1547875Y3613404D02*
G01*
X1482343Y3613404D01*
X1364488Y3700526D02*
G01*
X1369822Y3711447D01*
X1380743Y3722370D01*
X1391665Y3727957D01*
X1413509Y3727957D01*
X1424431Y3722370D01*
X1435354Y3711447D01*
X1440941Y3700526D01*
X1446275Y3684270D01*
X1446275Y3657092D01*
X1440941Y3640581D01*
X1435354Y3629660D01*
X1424431Y3618737D01*
X1413509Y3613404D01*
X1391665Y3613404D01*
X1380743Y3618737D01*
X1369822Y3629660D01*
X1364488Y3640581D01*
X1274063Y3727957D02*
G01*
X1274063Y3640581D01*
X1279397Y3624326D01*
X1284731Y3618737D01*
X1295654Y3613404D01*
X1306575Y3613404D01*
X1317497Y3618737D01*
X1323086Y3624326D01*
X1328420Y3640581D01*
X1328420Y3651504D01*
X1237995Y3727957D02*
G01*
X1237995Y3613404D01*
X1237995Y3613404D02*
G01*
X1172463Y3613404D01*
X1054608Y3700526D02*
G01*
X1060195Y3711447D01*
X1071118Y3722370D01*
X1082040Y3727957D01*
X1103629Y3727957D01*
X1114552Y3722370D01*
X1125474Y3711447D01*
X1131061Y3700526D01*
X1136395Y3684270D01*
X1136395Y3657092D01*
X1131061Y3640581D01*
X1125474Y3629660D01*
X1114552Y3618737D01*
X1103629Y3613404D01*
X1082040Y3613404D01*
X1071118Y3618737D01*
X1060195Y3629660D01*
X1054608Y3640581D01*
X964184Y3727957D02*
G01*
X964184Y3640581D01*
X969518Y3624326D01*
X975106Y3618737D01*
X986027Y3613404D01*
X996950Y3613404D01*
X1007872Y3618737D01*
X1013206Y3624326D01*
X1018540Y3640581D01*
X1018540Y3651504D01*
X928115Y3727957D02*
G01*
X928115Y3613404D01*
X928115Y3613404D02*
G01*
X862584Y3613404D01*
X744727Y3700526D02*
G01*
X750315Y3711447D01*
X761238Y3722370D01*
X772159Y3727957D01*
X794004Y3727957D01*
X804925Y3722370D01*
X815847Y3711447D01*
X821181Y3700526D01*
X826770Y3684270D01*
X826770Y3657092D01*
X821181Y3640581D01*
X815847Y3629660D01*
X804925Y3618737D01*
X794004Y3613404D01*
X772159Y3613404D01*
X761238Y3618737D01*
X750315Y3629660D01*
X744727Y3640581D01*
X654304Y3727957D02*
G01*
X654304Y3640581D01*
X659637Y3624326D01*
X665225Y3618737D01*
X676147Y3613404D01*
X687070Y3613404D01*
X697991Y3618737D01*
X703325Y3624326D01*
X708913Y3640581D01*
X708913Y3651504D01*
X618236Y3727957D02*
G01*
X618236Y3613404D01*
X618236Y3613404D02*
G01*
X552957Y3613404D01*
X435102Y3700526D02*
G01*
X440436Y3711447D01*
X451357Y3722370D01*
X462279Y3727957D01*
X484123Y3727957D01*
X495045Y3722370D01*
X505968Y3711447D01*
X511302Y3700526D01*
X516889Y3684270D01*
X516889Y3657092D01*
X511302Y3640581D01*
X505968Y3629660D01*
X495045Y3618737D01*
X484123Y3613404D01*
X462279Y3613404D01*
X451357Y3618737D01*
X440436Y3629660D01*
X435102Y3640581D01*
D11*
X1560941Y8344921D02*
G01*
X1560941Y8261794D01*
X1566138Y8246206D01*
X1571332Y8241012D01*
X1581724Y8235817D01*
X1592115Y8235817D01*
X1602506Y8241012D01*
X1607703Y8246206D01*
X1612897Y8261794D01*
X1612897Y8272185D01*
X1521457Y8318944D02*
G01*
X1521457Y8324138D01*
X1516263Y8334529D01*
X1511066Y8339726D01*
X1500675Y8344921D01*
X1479892Y8344921D01*
X1469501Y8339726D01*
X1464307Y8334529D01*
X1459113Y8324138D01*
X1459113Y8313747D01*
X1464307Y8303356D01*
X1474698Y8287771D01*
X1526651Y8235817D01*
X1453916Y8235817D01*
X1552928Y1994910D02*
G01*
X1552928Y1911852D01*
X1558262Y1896104D01*
X1563342Y1891024D01*
X1573756Y1885944D01*
X1584170Y1885944D01*
X1594584Y1891024D01*
X1599918Y1896104D01*
X1604998Y1911852D01*
X1604998Y1922266D01*
X1508478Y1994910D02*
G01*
X1451328Y1994910D01*
X1482316Y1953254D01*
X1466822Y1953254D01*
X1456408Y1948174D01*
X1451328Y1943094D01*
X1445994Y1927346D01*
X1445994Y1916932D01*
X1451328Y1901438D01*
X1461488Y1891024D01*
X1477236Y1885944D01*
X1492730Y1885944D01*
X1508478Y1891024D01*
X1513558Y1896104D01*
X1518638Y1906518D01*
D12*
X1212898Y8394682D02*
G01*
X1212898Y8204182D01*
X1415996Y8393082D02*
G01*
X615998Y8393082D01*
X615998Y8193082D01*
X1415996Y8193082D01*
X1415996Y8393082D01*
X1212898Y2044694D02*
G01*
X1212898Y1854194D01*
X1415996Y2043094D02*
G01*
X615998Y2043094D01*
X615998Y1843095D01*
X1415996Y1843095D01*
X1415996Y2043094D01*
M02*
