M48
METRIC,LZ,000.000
;FILE_FORMAT=3:3
;TYPE=NON_PLATED
;Layer: NPTH_Through
;EasyEDA v6.5.29, 2023-07-19 20:11:26
;d82c07e130dc4937808a739b57af0cf3,5a6b42c53f6a479593ecc07194224c93,10
;Gerber Generator version 0.2
;Holesize 1 = 0.551 mm
T01C0.551
;Holesize 2 = 2.000 mm
T02C2.000
%
G05
G90
T01
X041767Y067110
X041767Y066260
X041767Y065410
X041767Y064560
X041767Y063710
X041767Y062860
X041767Y062010
X041767Y061160
X040351Y067110
X040351Y066260
X040351Y065410
X040351Y064560
X040351Y063710
X040351Y062860
X040351Y062010
X040351Y061160
X083245Y067110
X083245Y066260
X083245Y065410
X083245Y064560
X083245Y063710
X083245Y062860
X083245Y062010
X083245Y061160
X081829Y067110
X081829Y066260
X081829Y065410
X081829Y064560
X081829Y063710
X081829Y062860
X081829Y062010
X081829Y061160
X124723Y067110
X124723Y066260
X124723Y065410
X124723Y064560
X124723Y063710
X124723Y062860
X124723Y062010
X124723Y061160
X123307Y067110
X123307Y066260
X123307Y065410
X123307Y064560
X123307Y063710
X123307Y062860
X123307Y062010
X123307Y061160
X166201Y067110
X166201Y066260
X166201Y065410
X166201Y064560
X166201Y063710
X166201Y062860
X166201Y062010
X166201Y061160
X164785Y067110
X164785Y066260
X164785Y065410
X164785Y064560
X164785Y063710
X164785Y062860
X164785Y062010
X164785Y061160
X017345Y119472
X018195Y119472
X019045Y119472
X019895Y119472
X020745Y119472
X021595Y119472
X022445Y119472
X023295Y119472
X017345Y008798
X018195Y008798
X019045Y008798
X019895Y008798
X020745Y008798
X021595Y008798
X022445Y008798
X023295Y008798
X058823Y119472
X059673Y119472
X060523Y119472
X061373Y119472
X062223Y119472
X063073Y119472
X063923Y119472
X064773Y119472
X058823Y008798
X059673Y008798
X060523Y008798
X061373Y008798
X062223Y008798
X063073Y008798
X063923Y008798
X064773Y008798
X100301Y119472
X101151Y119472
X102001Y119472
X102851Y119472
X103701Y119472
X104551Y119472
X105401Y119472
X106251Y119472
X100301Y008798
X101151Y008798
X102001Y008798
X102851Y008798
X103701Y008798
X104551Y008798
X105401Y008798
X106251Y008798
X141779Y119472
X142629Y119472
X143479Y119472
X144329Y119472
X145179Y119472
X146029Y119472
X146879Y119472
X147729Y119472
X141779Y008798
X142629Y008798
X143479Y008798
X144329Y008798
X145179Y008798
X146029Y008798
X146879Y008798
X147729Y008798
X183257Y119472
X184107Y119472
X184957Y119472
X185807Y119472
X186657Y119472
X187507Y119472
X188357Y119472
X189207Y119472
X183257Y008798
X184107Y008798
X184957Y008798
X185807Y008798
X186657Y008798
X187507Y008798
X188357Y008798
X189207Y008798
T02
X034008Y044539
X006858Y044539
X034008Y083439
X006858Y083439
X006886Y011430
X034036Y011430
X005381Y122980
X201171Y122980
X010381Y005290
X196171Y005290
M30
