G04 Layer: BottomLayer*
G04 EasyEDA v6.5.29, 2023-07-19 20:11:26*
G04 d82c07e130dc4937808a739b57af0cf3,5a6b42c53f6a479593ecc07194224c93,10*
G04 Gerber Generator version 0.2*
G04 Scale: 100 percent, Rotated: No, Reflected: No *
G04 Dimensions in millimeters *
G04 leading zeros omitted , absolute positions ,4 integer and 5 decimal *
%FSLAX45Y45*%
%MOMM*%

%AMMACRO1*21,1,$1,$2,0,0,$3*%
%ADD10C,0.2540*%
%ADD11C,0.5000*%
%ADD12C,0.4000*%
%ADD13C,1.0000*%
%ADD14C,1.4000*%
%ADD15MACRO1,1.524X1.4X-90.0000*%
%ADD16C,0.6096*%
%ADD17C,0.0116*%

%LPD*%
G36*
X74168Y914908D02*
G01*
X70256Y915669D01*
X67005Y917905D01*
X64769Y921156D01*
X64008Y925068D01*
X64008Y11901932D01*
X64769Y11905843D01*
X67005Y11909094D01*
X70256Y11911330D01*
X74168Y11912092D01*
X3989832Y11912092D01*
X3993743Y11911330D01*
X3996994Y11909094D01*
X3999229Y11905843D01*
X3999992Y11901932D01*
X3999992Y925068D01*
X3999229Y921156D01*
X3996994Y917905D01*
X3993743Y915669D01*
X3989832Y914908D01*
G37*

%LPC*%
G36*
X610158Y3047492D02*
G01*
X1701241Y3047492D01*
X1707540Y3048203D01*
X1713026Y3050133D01*
X1717903Y3053181D01*
X1722018Y3057296D01*
X1725066Y3062173D01*
X1726996Y3067659D01*
X1727707Y3073958D01*
X1727707Y4165041D01*
X1726996Y4171340D01*
X1725066Y4176826D01*
X1722018Y4181703D01*
X1717903Y4185818D01*
X1713026Y4188866D01*
X1707540Y4190796D01*
X1701241Y4191508D01*
X610158Y4191508D01*
X603859Y4190796D01*
X598373Y4188866D01*
X593496Y4185818D01*
X589381Y4181703D01*
X586333Y4176826D01*
X584403Y4171340D01*
X583692Y4165041D01*
X583692Y3073958D01*
X584403Y3067659D01*
X586333Y3062173D01*
X589381Y3057296D01*
X593496Y3053181D01*
X598373Y3050133D01*
X603859Y3048203D01*
G37*
G36*
X2025294Y1548536D02*
G01*
X2053082Y1548536D01*
X2080869Y1550466D01*
X2108403Y1554327D01*
X2135632Y1560118D01*
X2162352Y1567789D01*
X2188514Y1577289D01*
X2213914Y1588617D01*
X2238502Y1601673D01*
X2262073Y1616405D01*
X2284577Y1632762D01*
X2305913Y1650644D01*
X2325928Y1669999D01*
X2344521Y1690674D01*
X2361692Y1712569D01*
X2377236Y1735632D01*
X2391156Y1759762D01*
X2403348Y1784756D01*
X2413762Y1810562D01*
X2422347Y1837029D01*
X2429103Y1864004D01*
X2433929Y1891385D01*
X2436825Y1919071D01*
X2437790Y1946859D01*
X2436825Y1974697D01*
X2433929Y2002383D01*
X2429103Y2029764D01*
X2422347Y2056739D01*
X2413762Y2083206D01*
X2403348Y2109012D01*
X2391156Y2134006D01*
X2377236Y2158085D01*
X2361692Y2181199D01*
X2344521Y2203094D01*
X2325928Y2223770D01*
X2305913Y2243124D01*
X2284577Y2261006D01*
X2262073Y2277364D01*
X2238502Y2292096D01*
X2213914Y2305151D01*
X2188514Y2316480D01*
X2162352Y2325979D01*
X2135632Y2333650D01*
X2108403Y2339441D01*
X2080869Y2343302D01*
X2053082Y2345232D01*
X2025294Y2345232D01*
X1997506Y2343302D01*
X1969973Y2339441D01*
X1942744Y2333650D01*
X1916023Y2325979D01*
X1889861Y2316480D01*
X1864461Y2305151D01*
X1839874Y2292096D01*
X1816303Y2277364D01*
X1793798Y2261006D01*
X1772462Y2243124D01*
X1752447Y2223770D01*
X1733854Y2203094D01*
X1716735Y2181199D01*
X1701139Y2158085D01*
X1687271Y2134006D01*
X1675028Y2109012D01*
X1664614Y2083206D01*
X1656029Y2056739D01*
X1649323Y2029764D01*
X1644446Y2002383D01*
X1641551Y1974697D01*
X1640586Y1946859D01*
X1641551Y1919071D01*
X1644446Y1891385D01*
X1649323Y1864004D01*
X1656029Y1837029D01*
X1664614Y1810562D01*
X1675028Y1784756D01*
X1687271Y1759762D01*
X1701139Y1735632D01*
X1716735Y1712569D01*
X1733854Y1690674D01*
X1752447Y1669999D01*
X1772462Y1650644D01*
X1793798Y1632762D01*
X1816303Y1616405D01*
X1839874Y1601673D01*
X1864461Y1588617D01*
X1889861Y1577289D01*
X1916023Y1567789D01*
X1942744Y1560118D01*
X1969973Y1554327D01*
X1997506Y1550466D01*
G37*
G36*
X2885541Y1721662D02*
G01*
X2895295Y1722526D01*
X2904794Y1725066D01*
X2913684Y1729181D01*
X2921762Y1734820D01*
X2923336Y1736394D01*
X2926638Y1738630D01*
X2930499Y1739392D01*
X3745992Y1739392D01*
X3754018Y1740204D01*
X3761232Y1742389D01*
X3767937Y1745945D01*
X3774135Y1751075D01*
X3836924Y1813864D01*
X3842054Y1820062D01*
X3845610Y1826768D01*
X3847795Y1833981D01*
X3848608Y1842007D01*
X3848608Y8482431D01*
X3849268Y8486038D01*
X3851198Y8489188D01*
X3854145Y8491474D01*
X3857701Y8492540D01*
X3861409Y8492236D01*
X3863695Y8491626D01*
X3873500Y8490762D01*
X3883304Y8491626D01*
X3892753Y8494166D01*
X3901694Y8498281D01*
X3909720Y8503920D01*
X3916679Y8510879D01*
X3922318Y8518906D01*
X3926433Y8527846D01*
X3928973Y8537295D01*
X3929837Y8547100D01*
X3928973Y8556904D01*
X3926433Y8566353D01*
X3922318Y8575294D01*
X3916679Y8583320D01*
X3915105Y8584895D01*
X3912870Y8588197D01*
X3912108Y8592108D01*
X3912108Y11531092D01*
X3911295Y11539118D01*
X3909110Y11546332D01*
X3905554Y11553037D01*
X3900424Y11559235D01*
X3846169Y11613540D01*
X3839921Y11618671D01*
X3833266Y11622227D01*
X3826052Y11624411D01*
X3818026Y11625173D01*
X3423208Y11625173D01*
X3419297Y11625986D01*
X3415995Y11628170D01*
X3414420Y11629745D01*
X3406394Y11635384D01*
X3397453Y11639550D01*
X3388004Y11642090D01*
X3378200Y11642953D01*
X3368395Y11642090D01*
X3358946Y11639550D01*
X3350006Y11635384D01*
X3341979Y11629745D01*
X3335020Y11622836D01*
X3329381Y11614759D01*
X3325266Y11605869D01*
X3322726Y11596370D01*
X3322116Y11589664D01*
X3321100Y11586006D01*
X3318764Y11582958D01*
X3315462Y11581028D01*
X3311702Y11580418D01*
X3307994Y11581231D01*
X3304794Y11583365D01*
X3274669Y11613540D01*
X3268421Y11618671D01*
X3261766Y11622227D01*
X3254552Y11624411D01*
X3246526Y11625173D01*
X2808833Y11625173D01*
X2804718Y11626037D01*
X2801315Y11628475D01*
X2799181Y11632082D01*
X2798724Y11636248D01*
X2799537Y11645900D01*
X2798673Y11655704D01*
X2797962Y11658396D01*
X2797657Y11662105D01*
X2798724Y11665661D01*
X2800959Y11668607D01*
X2804160Y11670538D01*
X2807766Y11671198D01*
X3771392Y11671198D01*
X3775710Y11670233D01*
X3778046Y11669166D01*
X3787495Y11666626D01*
X3797300Y11665762D01*
X3807104Y11666626D01*
X3816553Y11669166D01*
X3825494Y11673281D01*
X3833520Y11678920D01*
X3840479Y11685879D01*
X3846118Y11693906D01*
X3850233Y11702846D01*
X3852773Y11712295D01*
X3853637Y11722100D01*
X3852773Y11731904D01*
X3850233Y11741353D01*
X3846118Y11750294D01*
X3840479Y11758320D01*
X3833520Y11765280D01*
X3825494Y11770918D01*
X3816553Y11775033D01*
X3807104Y11777573D01*
X3797300Y11778437D01*
X3787495Y11777573D01*
X3778046Y11775033D01*
X3775710Y11773966D01*
X3771392Y11773001D01*
X2616708Y11773001D01*
X2612390Y11773966D01*
X2610053Y11775033D01*
X2600604Y11777573D01*
X2590800Y11778437D01*
X2580995Y11777573D01*
X2571546Y11775033D01*
X2569210Y11773966D01*
X2564892Y11773001D01*
X1410208Y11773001D01*
X1405890Y11773966D01*
X1403553Y11775033D01*
X1394104Y11777573D01*
X1384300Y11778437D01*
X1374495Y11777573D01*
X1365046Y11775033D01*
X1356106Y11770918D01*
X1348079Y11765280D01*
X1341120Y11758320D01*
X1335481Y11750294D01*
X1331366Y11741353D01*
X1328826Y11731904D01*
X1327962Y11722100D01*
X1328826Y11712295D01*
X1331366Y11702846D01*
X1335481Y11693906D01*
X1341120Y11685879D01*
X1348079Y11678920D01*
X1356106Y11673281D01*
X1365046Y11669166D01*
X1374495Y11666626D01*
X1384300Y11665762D01*
X1394104Y11666626D01*
X1403553Y11669166D01*
X1405890Y11670233D01*
X1410208Y11671198D01*
X1425549Y11671198D01*
X1429156Y11670538D01*
X1432356Y11668607D01*
X1434592Y11665661D01*
X1435658Y11662105D01*
X1435354Y11658396D01*
X1434642Y11655704D01*
X1433779Y11645900D01*
X1434592Y11636248D01*
X1434134Y11632082D01*
X1432001Y11628475D01*
X1428597Y11626037D01*
X1424482Y11625173D01*
X1010208Y11625173D01*
X1006297Y11625986D01*
X1002995Y11628170D01*
X1001420Y11629745D01*
X993394Y11635384D01*
X984453Y11639550D01*
X975004Y11642090D01*
X965200Y11642953D01*
X955395Y11642090D01*
X945946Y11639550D01*
X937006Y11635384D01*
X928979Y11629745D01*
X922019Y11622836D01*
X916381Y11614759D01*
X912266Y11605869D01*
X909726Y11596370D01*
X908862Y11586565D01*
X909726Y11576812D01*
X912266Y11567312D01*
X916381Y11558422D01*
X922019Y11550345D01*
X928979Y11543436D01*
X937006Y11537797D01*
X945946Y11533632D01*
X955395Y11531092D01*
X965200Y11530228D01*
X975004Y11531092D01*
X984453Y11533632D01*
X993394Y11537797D01*
X1001420Y11543436D01*
X1002995Y11545011D01*
X1006297Y11547195D01*
X1010208Y11547957D01*
X2020316Y11547957D01*
X2024176Y11547195D01*
X2027478Y11545011D01*
X2105609Y11466880D01*
X2107793Y11463629D01*
X2108555Y11459718D01*
X2107793Y11455806D01*
X2105609Y11452555D01*
X2102307Y11450320D01*
X2098395Y11449558D01*
X1575358Y11449558D01*
X1569059Y11448846D01*
X1563573Y11446916D01*
X1558696Y11443868D01*
X1554581Y11439753D01*
X1551533Y11434876D01*
X1549603Y11429390D01*
X1548892Y11423091D01*
X1548892Y10363758D01*
X1549603Y10357459D01*
X1551533Y10351973D01*
X1554581Y10347096D01*
X1558696Y10342981D01*
X1563573Y10339933D01*
X1569059Y10338003D01*
X1575358Y10337292D01*
X1907032Y10337292D01*
X1910943Y10336530D01*
X1914194Y10334294D01*
X1916430Y10331043D01*
X1917192Y10327132D01*
X1917192Y10132568D01*
X1916430Y10128656D01*
X1914194Y10125405D01*
X1910943Y10123170D01*
X1907032Y10122408D01*
X1645818Y10122408D01*
X1641906Y10123170D01*
X1638604Y10125405D01*
X1538935Y10225024D01*
X1532737Y10230154D01*
X1526032Y10233710D01*
X1518818Y10235895D01*
X1510792Y10236708D01*
X1429308Y10236708D01*
X1425397Y10237470D01*
X1422095Y10239705D01*
X1420520Y10241280D01*
X1412494Y10246918D01*
X1403553Y10251033D01*
X1394104Y10253573D01*
X1384300Y10254437D01*
X1374495Y10253573D01*
X1365046Y10251033D01*
X1356106Y10246918D01*
X1348079Y10241280D01*
X1341120Y10234320D01*
X1335481Y10226294D01*
X1331366Y10217353D01*
X1328826Y10207904D01*
X1327962Y10198100D01*
X1328826Y10188295D01*
X1331366Y10178846D01*
X1335481Y10169906D01*
X1341120Y10161879D01*
X1348079Y10154920D01*
X1356106Y10149281D01*
X1365046Y10145166D01*
X1374495Y10142626D01*
X1384300Y10141762D01*
X1394104Y10142626D01*
X1403553Y10145166D01*
X1412494Y10149281D01*
X1420520Y10154920D01*
X1422095Y10156494D01*
X1425397Y10158730D01*
X1429308Y10159492D01*
X1491081Y10159492D01*
X1494993Y10158730D01*
X1498295Y10156494D01*
X1578559Y10076230D01*
X1580743Y10072979D01*
X1581505Y10069068D01*
X1580743Y10065156D01*
X1578559Y10061905D01*
X1575257Y10059670D01*
X1571345Y10058908D01*
X984808Y10058908D01*
X980897Y10059670D01*
X977595Y10061905D01*
X976020Y10063480D01*
X967994Y10069118D01*
X959053Y10073233D01*
X949604Y10075773D01*
X939800Y10076637D01*
X929995Y10075773D01*
X920546Y10073233D01*
X911606Y10069118D01*
X903579Y10063480D01*
X896619Y10056520D01*
X890981Y10048494D01*
X886866Y10039553D01*
X884326Y10030104D01*
X883462Y10020300D01*
X884326Y10010495D01*
X884936Y10008209D01*
X885240Y10004501D01*
X884174Y10000945D01*
X881887Y9997998D01*
X878738Y9996068D01*
X875131Y9995408D01*
X305308Y9995408D01*
X297281Y9994595D01*
X290068Y9992410D01*
X283362Y9988854D01*
X277164Y9983724D01*
X227075Y9933635D01*
X221945Y9927437D01*
X218389Y9920732D01*
X216204Y9913518D01*
X215392Y9905492D01*
X215392Y8592108D01*
X214629Y8588197D01*
X212394Y8584895D01*
X210820Y8583320D01*
X205181Y8575294D01*
X201066Y8566353D01*
X198526Y8556904D01*
X197662Y8547100D01*
X198526Y8537295D01*
X201066Y8527846D01*
X205181Y8518906D01*
X210820Y8510879D01*
X217779Y8503920D01*
X225806Y8498281D01*
X234746Y8494166D01*
X244195Y8491626D01*
X254000Y8490762D01*
X263804Y8491626D01*
X273253Y8494166D01*
X282194Y8498281D01*
X290220Y8503920D01*
X297180Y8510879D01*
X302818Y8518906D01*
X306933Y8527846D01*
X309473Y8537295D01*
X310337Y8547100D01*
X309473Y8556904D01*
X306933Y8566353D01*
X302818Y8575294D01*
X297180Y8583320D01*
X295605Y8584895D01*
X293370Y8588197D01*
X292608Y8592108D01*
X292608Y9885781D01*
X293370Y9889693D01*
X295605Y9892995D01*
X317804Y9915194D01*
X321106Y9917430D01*
X325018Y9918192D01*
X333248Y9918192D01*
X337413Y9917277D01*
X340868Y9914788D01*
X342950Y9911029D01*
X343357Y9906812D01*
X342392Y9899040D01*
X342392Y8839758D01*
X343103Y8833459D01*
X345033Y8827973D01*
X348081Y8823096D01*
X352196Y8818981D01*
X357073Y8815933D01*
X362559Y8814003D01*
X368858Y8813292D01*
X700532Y8813292D01*
X704443Y8812530D01*
X707694Y8810294D01*
X709930Y8807043D01*
X710692Y8803132D01*
X710692Y8598458D01*
X711403Y8592159D01*
X713333Y8586673D01*
X716381Y8581796D01*
X720496Y8577681D01*
X725373Y8574633D01*
X730859Y8572703D01*
X737158Y8571992D01*
X907491Y8571992D01*
X913790Y8572703D01*
X919276Y8574633D01*
X924153Y8577681D01*
X928268Y8581796D01*
X931316Y8586673D01*
X933246Y8592159D01*
X933958Y8598458D01*
X933958Y8803132D01*
X934719Y8807043D01*
X936955Y8810294D01*
X940206Y8812530D01*
X944118Y8813292D01*
X1282141Y8813292D01*
X1288440Y8814003D01*
X1293926Y8815933D01*
X1298803Y8818981D01*
X1302918Y8823096D01*
X1305966Y8827973D01*
X1307896Y8833459D01*
X1308608Y8839758D01*
X1308608Y9815068D01*
X1309522Y9819233D01*
X1312011Y9822637D01*
X1315720Y9824770D01*
X1319936Y9825177D01*
X1324000Y9823805D01*
X1327099Y9820910D01*
X1329994Y9817404D01*
X1332230Y9814102D01*
X1332992Y9810191D01*
X1332992Y8509508D01*
X1333804Y8501481D01*
X1335989Y8494268D01*
X1339545Y8487562D01*
X1344676Y8481364D01*
X1445564Y8380475D01*
X1451762Y8375345D01*
X1458468Y8371789D01*
X1465681Y8369604D01*
X1473708Y8368792D01*
X2628392Y8368792D01*
X2636418Y8369604D01*
X2643632Y8371789D01*
X2650337Y8375345D01*
X2656535Y8380475D01*
X2744724Y8468664D01*
X2749854Y8474862D01*
X2753410Y8481568D01*
X2755595Y8488781D01*
X2756408Y8496808D01*
X2756408Y8806383D01*
X2757119Y8810142D01*
X2759202Y8813393D01*
X2762351Y8815628D01*
X2766110Y8816543D01*
X2769920Y8815984D01*
X2775559Y8814003D01*
X2781858Y8813292D01*
X3113532Y8813292D01*
X3117443Y8812530D01*
X3120694Y8810294D01*
X3122930Y8807043D01*
X3123692Y8803132D01*
X3123692Y8598458D01*
X3124403Y8592159D01*
X3126333Y8586673D01*
X3129381Y8581796D01*
X3133496Y8577681D01*
X3138373Y8574633D01*
X3143859Y8572703D01*
X3150158Y8571992D01*
X3320491Y8571992D01*
X3326790Y8572703D01*
X3332276Y8574633D01*
X3337153Y8577681D01*
X3341268Y8581796D01*
X3344316Y8586673D01*
X3346246Y8592159D01*
X3346958Y8598458D01*
X3346958Y8803132D01*
X3347720Y8807043D01*
X3349955Y8810294D01*
X3353206Y8812530D01*
X3357118Y8813292D01*
X3695141Y8813292D01*
X3701440Y8814003D01*
X3706926Y8815933D01*
X3711803Y8818981D01*
X3715918Y8823096D01*
X3718966Y8827973D01*
X3720896Y8833459D01*
X3721608Y8839758D01*
X3721608Y9877704D01*
X3722471Y9881819D01*
X3724910Y9885222D01*
X3728516Y9887356D01*
X3743604Y9888626D01*
X3753053Y9891166D01*
X3756914Y9892944D01*
X3760876Y9893909D01*
X3764889Y9893249D01*
X3768293Y9891064D01*
X3770579Y9887712D01*
X3771392Y9883749D01*
X3771392Y1861718D01*
X3770629Y1857806D01*
X3768394Y1854504D01*
X3733495Y1819605D01*
X3730193Y1817370D01*
X3726281Y1816607D01*
X2930499Y1816607D01*
X2926638Y1817370D01*
X2923336Y1819605D01*
X2921762Y1821180D01*
X2913684Y1826818D01*
X2904794Y1830933D01*
X2895295Y1833473D01*
X2885541Y1834337D01*
X2875737Y1833473D01*
X2866237Y1830933D01*
X2857347Y1826818D01*
X2849270Y1821180D01*
X2842361Y1814220D01*
X2836722Y1806193D01*
X2832557Y1797253D01*
X2830017Y1787804D01*
X2829153Y1778000D01*
X2830017Y1768195D01*
X2832557Y1758746D01*
X2836722Y1749806D01*
X2842361Y1741779D01*
X2849270Y1734820D01*
X2857347Y1729181D01*
X2866237Y1725066D01*
X2875737Y1722526D01*
G37*
G36*
X737158Y10095992D02*
G01*
X907491Y10095992D01*
X913790Y10096703D01*
X919276Y10098633D01*
X924153Y10101681D01*
X928268Y10105796D01*
X931316Y10110673D01*
X933246Y10116159D01*
X933958Y10122458D01*
X933958Y10327132D01*
X934719Y10331043D01*
X936955Y10334294D01*
X940206Y10336530D01*
X944118Y10337292D01*
X1282141Y10337292D01*
X1288440Y10338003D01*
X1293926Y10339933D01*
X1298803Y10342981D01*
X1302918Y10347096D01*
X1305966Y10351973D01*
X1307896Y10357459D01*
X1308608Y10363758D01*
X1308608Y11423091D01*
X1307896Y11429390D01*
X1305966Y11434876D01*
X1302918Y11439753D01*
X1298803Y11443868D01*
X1293926Y11446916D01*
X1288440Y11448846D01*
X1282141Y11449558D01*
X368858Y11449558D01*
X362559Y11448846D01*
X357073Y11446916D01*
X352196Y11443868D01*
X348081Y11439753D01*
X345033Y11434876D01*
X343103Y11429390D01*
X342392Y11423091D01*
X342392Y10363758D01*
X343103Y10357459D01*
X345033Y10351973D01*
X348081Y10347096D01*
X352196Y10342981D01*
X357073Y10339933D01*
X362559Y10338003D01*
X368858Y10337292D01*
X700532Y10337292D01*
X704443Y10336530D01*
X707694Y10334294D01*
X709930Y10331043D01*
X710692Y10327132D01*
X710692Y10122458D01*
X711403Y10116159D01*
X713333Y10110673D01*
X716381Y10105796D01*
X720496Y10101681D01*
X725373Y10098633D01*
X730859Y10096703D01*
G37*
G36*
X3403600Y1017117D02*
G01*
X3418789Y1018032D01*
X3433724Y1020775D01*
X3448253Y1025296D01*
X3462121Y1031544D01*
X3475126Y1039368D01*
X3487064Y1048766D01*
X3497834Y1059535D01*
X3507181Y1071473D01*
X3515055Y1084478D01*
X3521303Y1098346D01*
X3525824Y1112875D01*
X3528568Y1127810D01*
X3529482Y1143000D01*
X3528568Y1158189D01*
X3525824Y1173124D01*
X3521303Y1187653D01*
X3515055Y1201521D01*
X3507181Y1214526D01*
X3497834Y1226464D01*
X3487064Y1237234D01*
X3475126Y1246581D01*
X3462121Y1254455D01*
X3448253Y1260703D01*
X3433724Y1265224D01*
X3418789Y1267968D01*
X3403600Y1268882D01*
X3388410Y1267968D01*
X3373475Y1265224D01*
X3358946Y1260703D01*
X3345078Y1254455D01*
X3332073Y1246581D01*
X3320135Y1237234D01*
X3309365Y1226464D01*
X3300018Y1214526D01*
X3292144Y1201521D01*
X3285896Y1187653D01*
X3281375Y1173124D01*
X3278632Y1158189D01*
X3277717Y1143000D01*
X3278632Y1127810D01*
X3281375Y1112875D01*
X3285896Y1098346D01*
X3292144Y1084478D01*
X3300018Y1071473D01*
X3309365Y1059535D01*
X3320135Y1048766D01*
X3332073Y1039368D01*
X3345078Y1031544D01*
X3358946Y1025296D01*
X3373475Y1020775D01*
X3388410Y1018032D01*
G37*
G36*
X2388158Y3047492D02*
G01*
X3479241Y3047492D01*
X3485540Y3048203D01*
X3491026Y3050133D01*
X3495903Y3053181D01*
X3500018Y3057296D01*
X3503066Y3062173D01*
X3504996Y3067659D01*
X3505708Y3073958D01*
X3505708Y4165041D01*
X3504996Y4171340D01*
X3503066Y4176826D01*
X3500018Y4181703D01*
X3495903Y4185818D01*
X3491026Y4188866D01*
X3485540Y4190796D01*
X3479241Y4191508D01*
X2388158Y4191508D01*
X2381859Y4190796D01*
X2376373Y4188866D01*
X2371496Y4185818D01*
X2367381Y4181703D01*
X2364333Y4176826D01*
X2362403Y4171340D01*
X2361692Y4165041D01*
X2361692Y3073958D01*
X2362403Y3067659D01*
X2364333Y3062173D01*
X2367381Y3057296D01*
X2371496Y3053181D01*
X2376373Y3050133D01*
X2381859Y3048203D01*
G37*
G36*
X853592Y4212082D02*
G01*
X3240024Y4212082D01*
X3246374Y4212844D01*
X3251809Y4214723D01*
X3256737Y4217822D01*
X3260801Y4221886D01*
X3263900Y4226814D01*
X3265779Y4232249D01*
X3266541Y4238599D01*
X3266541Y4398772D01*
X3267252Y4402632D01*
X3269437Y4405884D01*
X3272688Y4408119D01*
X3276498Y4408932D01*
X3280359Y4408271D01*
X3283661Y4406138D01*
X3285947Y4402937D01*
X3289350Y4395419D01*
X3297224Y4382414D01*
X3306572Y4370425D01*
X3317341Y4359706D01*
X3329279Y4350308D01*
X3342284Y4342434D01*
X3356152Y4336186D01*
X3370681Y4331665D01*
X3385616Y4328922D01*
X3400806Y4328007D01*
X3415995Y4328922D01*
X3430930Y4331665D01*
X3445459Y4336186D01*
X3459327Y4342434D01*
X3472332Y4350308D01*
X3484270Y4359706D01*
X3495040Y4370425D01*
X3504387Y4382414D01*
X3512261Y4395419D01*
X3518509Y4409287D01*
X3523030Y4423765D01*
X3525774Y4438751D01*
X3526688Y4453890D01*
X3525774Y4469079D01*
X3523030Y4484065D01*
X3518509Y4498543D01*
X3512261Y4512411D01*
X3504387Y4525416D01*
X3495040Y4537405D01*
X3484270Y4548124D01*
X3472332Y4557522D01*
X3459327Y4565396D01*
X3445459Y4571644D01*
X3430930Y4576165D01*
X3415995Y4578908D01*
X3400806Y4579823D01*
X3385616Y4578908D01*
X3370681Y4576165D01*
X3356152Y4571644D01*
X3342284Y4565396D01*
X3329279Y4557522D01*
X3317341Y4548124D01*
X3306572Y4537405D01*
X3297224Y4525416D01*
X3289350Y4512411D01*
X3285947Y4504893D01*
X3283661Y4501692D01*
X3280359Y4499559D01*
X3276498Y4498898D01*
X3272688Y4499711D01*
X3269437Y4501946D01*
X3267252Y4505198D01*
X3266541Y4509058D01*
X3266541Y4595622D01*
X3267303Y4599533D01*
X3269488Y4602835D01*
X3272790Y4605020D01*
X3276701Y4605782D01*
X3633724Y4605782D01*
X3640074Y4606544D01*
X3645509Y4608423D01*
X3650437Y4611522D01*
X3654501Y4615586D01*
X3657600Y4620514D01*
X3659479Y4625949D01*
X3660241Y4632299D01*
X3660241Y8174431D01*
X3659479Y8180781D01*
X3657600Y8186216D01*
X3654501Y8191144D01*
X3650437Y8195208D01*
X3645509Y8198307D01*
X3640074Y8200186D01*
X3633724Y8200898D01*
X3429558Y8200898D01*
X3425342Y8201812D01*
X3421938Y8204352D01*
X3419856Y8208060D01*
X3419449Y8212328D01*
X3420821Y8216341D01*
X3423767Y8219440D01*
X3427679Y8221065D01*
X3430930Y8221675D01*
X3445459Y8226196D01*
X3459327Y8232444D01*
X3472332Y8240318D01*
X3484270Y8249666D01*
X3495040Y8260435D01*
X3504387Y8272373D01*
X3512261Y8285378D01*
X3518509Y8299246D01*
X3523030Y8313775D01*
X3525774Y8328710D01*
X3526688Y8343900D01*
X3525774Y8359089D01*
X3523030Y8374024D01*
X3518509Y8388553D01*
X3512261Y8402421D01*
X3504387Y8415426D01*
X3495040Y8427364D01*
X3484270Y8438134D01*
X3472332Y8447481D01*
X3459327Y8455355D01*
X3445459Y8461603D01*
X3430930Y8466124D01*
X3415995Y8468868D01*
X3400806Y8469782D01*
X3385616Y8468868D01*
X3370681Y8466124D01*
X3356152Y8461603D01*
X3342284Y8455355D01*
X3329279Y8447481D01*
X3317341Y8438134D01*
X3306572Y8427364D01*
X3297224Y8415426D01*
X3289350Y8402421D01*
X3283102Y8388553D01*
X3278581Y8374024D01*
X3275838Y8359089D01*
X3274923Y8343900D01*
X3275838Y8328710D01*
X3278581Y8313775D01*
X3283102Y8299246D01*
X3289350Y8285378D01*
X3297224Y8272373D01*
X3306572Y8260435D01*
X3317341Y8249666D01*
X3329279Y8240318D01*
X3342284Y8232444D01*
X3356152Y8226196D01*
X3370681Y8221675D01*
X3373932Y8221065D01*
X3377844Y8219440D01*
X3380790Y8216341D01*
X3382162Y8212328D01*
X3381756Y8208060D01*
X3379673Y8204352D01*
X3376269Y8201812D01*
X3372053Y8200898D01*
X714552Y8200898D01*
X710336Y8201812D01*
X706932Y8204352D01*
X704850Y8208060D01*
X704443Y8212328D01*
X705815Y8216341D01*
X708761Y8219440D01*
X712673Y8221065D01*
X715924Y8221675D01*
X730453Y8226196D01*
X744321Y8232444D01*
X757326Y8240318D01*
X769264Y8249666D01*
X780034Y8260435D01*
X789381Y8272373D01*
X797255Y8285378D01*
X803503Y8299246D01*
X808024Y8313775D01*
X810768Y8328710D01*
X811682Y8343900D01*
X810768Y8359089D01*
X808024Y8374024D01*
X803503Y8388553D01*
X797255Y8402421D01*
X789381Y8415426D01*
X780034Y8427364D01*
X769264Y8438134D01*
X757326Y8447481D01*
X744321Y8455355D01*
X730453Y8461603D01*
X715924Y8466124D01*
X700989Y8468868D01*
X685800Y8469782D01*
X670610Y8468868D01*
X655675Y8466124D01*
X641146Y8461603D01*
X627278Y8455355D01*
X614273Y8447481D01*
X602335Y8438134D01*
X591566Y8427364D01*
X582218Y8415426D01*
X574344Y8402421D01*
X568096Y8388553D01*
X563575Y8374024D01*
X560832Y8359089D01*
X559917Y8343900D01*
X560832Y8328710D01*
X563575Y8313775D01*
X568096Y8299246D01*
X574344Y8285378D01*
X582218Y8272373D01*
X591566Y8260435D01*
X602335Y8249666D01*
X614273Y8240318D01*
X627278Y8232444D01*
X641146Y8226196D01*
X655675Y8221675D01*
X658926Y8221065D01*
X662838Y8219440D01*
X665784Y8216341D01*
X667156Y8212328D01*
X666750Y8208060D01*
X664667Y8204352D01*
X661263Y8201812D01*
X657047Y8200898D01*
X459892Y8200898D01*
X453542Y8200186D01*
X448106Y8198307D01*
X443179Y8195208D01*
X439115Y8191144D01*
X436016Y8186216D01*
X434136Y8180781D01*
X433425Y8174431D01*
X433425Y4632299D01*
X434136Y4625949D01*
X436016Y4620514D01*
X439115Y4615586D01*
X443179Y4611522D01*
X448106Y4608423D01*
X453542Y4606544D01*
X459892Y4605782D01*
X816914Y4605782D01*
X820826Y4605020D01*
X824128Y4602835D01*
X826312Y4599533D01*
X827125Y4595622D01*
X827125Y4489602D01*
X826262Y4485589D01*
X823925Y4482236D01*
X820470Y4480052D01*
X816406Y4479442D01*
X812444Y4480509D01*
X809244Y4482998D01*
X807262Y4486605D01*
X803503Y4498543D01*
X797255Y4512411D01*
X789381Y4525416D01*
X780034Y4537405D01*
X769264Y4548124D01*
X757326Y4557522D01*
X744321Y4565396D01*
X730453Y4571644D01*
X715924Y4576165D01*
X700989Y4578908D01*
X685800Y4579823D01*
X670610Y4578908D01*
X655675Y4576165D01*
X641146Y4571644D01*
X627278Y4565396D01*
X614273Y4557522D01*
X602335Y4548124D01*
X591566Y4537405D01*
X582218Y4525416D01*
X574344Y4512411D01*
X568096Y4498543D01*
X563575Y4484065D01*
X560832Y4469079D01*
X559917Y4453890D01*
X560832Y4438751D01*
X563575Y4423765D01*
X568096Y4409287D01*
X574344Y4395419D01*
X582218Y4382414D01*
X591566Y4370425D01*
X602335Y4359706D01*
X614273Y4350308D01*
X627278Y4342434D01*
X641146Y4336186D01*
X655675Y4331665D01*
X670610Y4328922D01*
X685800Y4328007D01*
X700989Y4328922D01*
X715924Y4331665D01*
X730453Y4336186D01*
X744321Y4342434D01*
X757326Y4350308D01*
X769264Y4359706D01*
X780034Y4370425D01*
X789381Y4382414D01*
X797255Y4395419D01*
X803503Y4409287D01*
X807262Y4421225D01*
X809244Y4424832D01*
X812444Y4427321D01*
X816406Y4428388D01*
X820470Y4427778D01*
X823925Y4425594D01*
X826262Y4422241D01*
X827125Y4418228D01*
X827125Y4238599D01*
X827836Y4232249D01*
X829716Y4226814D01*
X832815Y4221886D01*
X836879Y4217822D01*
X841806Y4214723D01*
X847242Y4212844D01*
G37*
G36*
X688594Y1017117D02*
G01*
X703783Y1018032D01*
X718718Y1020775D01*
X733247Y1025296D01*
X747115Y1031544D01*
X760120Y1039368D01*
X772058Y1048766D01*
X782828Y1059535D01*
X792175Y1071473D01*
X800049Y1084478D01*
X806297Y1098346D01*
X810818Y1112875D01*
X813562Y1127810D01*
X814476Y1143000D01*
X813562Y1158189D01*
X810818Y1173124D01*
X806297Y1187653D01*
X800049Y1201521D01*
X792175Y1214526D01*
X782828Y1226464D01*
X772058Y1237234D01*
X760120Y1246581D01*
X747115Y1254455D01*
X733247Y1260703D01*
X718718Y1265224D01*
X703783Y1267968D01*
X688594Y1268882D01*
X673404Y1267968D01*
X658469Y1265224D01*
X643940Y1260703D01*
X630072Y1254455D01*
X617067Y1246581D01*
X605129Y1237234D01*
X594360Y1226464D01*
X585012Y1214526D01*
X577138Y1201521D01*
X570890Y1187653D01*
X566369Y1173124D01*
X563626Y1158189D01*
X562711Y1143000D01*
X563626Y1127810D01*
X566369Y1112875D01*
X570890Y1098346D01*
X577138Y1084478D01*
X585012Y1071473D01*
X594360Y1059535D01*
X605129Y1048766D01*
X617067Y1039368D01*
X630072Y1031544D01*
X643940Y1025296D01*
X658469Y1020775D01*
X673404Y1018032D01*
G37*

%LPD*%
G36*
X2525979Y10983417D02*
G01*
X2521864Y10983976D01*
X2518308Y10986109D01*
X2515971Y10989513D01*
X2515108Y10993577D01*
X2515108Y11082578D01*
X2515920Y11086541D01*
X2518206Y11089894D01*
X2521610Y11092078D01*
X2525572Y11092738D01*
X2529535Y11091824D01*
X2532786Y11089436D01*
X2534869Y11085931D01*
X2535631Y11083798D01*
X2538679Y11078870D01*
X2542794Y11074806D01*
X2547670Y11071707D01*
X2553157Y11069828D01*
X2559456Y11069066D01*
X2569667Y11069066D01*
X2573832Y11068202D01*
X2577287Y11065713D01*
X2579370Y11062004D01*
X2579776Y11057788D01*
X2578404Y11053775D01*
X2575560Y11050625D01*
X2568397Y11045596D01*
X2558846Y11036655D01*
X2550566Y11026495D01*
X2543759Y11015319D01*
X2538577Y11003330D01*
X2535072Y10990834D01*
X2533142Y10987125D01*
X2529941Y10984534D01*
G37*

%LPD*%
G36*
X2745232Y10924082D02*
G01*
X2741320Y10924844D01*
X2738069Y10927029D01*
X2724912Y10940186D01*
X2722880Y10943082D01*
X2721965Y10946536D01*
X2724556Y10964672D01*
X2724556Y10977727D01*
X2722778Y10990732D01*
X2719273Y11003330D01*
X2714040Y11015319D01*
X2707233Y11026495D01*
X2698953Y11036655D01*
X2689402Y11045596D01*
X2682240Y11050625D01*
X2679395Y11053775D01*
X2678023Y11057788D01*
X2678430Y11062004D01*
X2680512Y11065713D01*
X2683967Y11068202D01*
X2688132Y11069066D01*
X2698343Y11069066D01*
X2704642Y11069828D01*
X2710129Y11071707D01*
X2715006Y11074806D01*
X2719120Y11078870D01*
X2722168Y11083798D01*
X2724099Y11089233D01*
X2724810Y11095583D01*
X2724810Y11158474D01*
X2641600Y11158474D01*
X2641600Y11077092D01*
X2640838Y11073180D01*
X2638602Y11069929D01*
X2635351Y11067694D01*
X2631440Y11066932D01*
X2626360Y11066932D01*
X2622448Y11067694D01*
X2619197Y11069929D01*
X2616962Y11073180D01*
X2616200Y11077092D01*
X2616200Y11158474D01*
X2525268Y11158474D01*
X2521356Y11159286D01*
X2518105Y11161471D01*
X2515870Y11164773D01*
X2515108Y11168634D01*
X2515108Y11173714D01*
X2515870Y11177625D01*
X2518105Y11180927D01*
X2521356Y11183112D01*
X2525268Y11183874D01*
X2616200Y11183874D01*
X2616200Y11273282D01*
X2559456Y11273282D01*
X2553157Y11272570D01*
X2547670Y11270691D01*
X2542794Y11267592D01*
X2538679Y11263528D01*
X2535631Y11258600D01*
X2534869Y11256467D01*
X2532786Y11252962D01*
X2529535Y11250574D01*
X2525572Y11249660D01*
X2521610Y11250320D01*
X2518206Y11252504D01*
X2515920Y11255857D01*
X2515108Y11259820D01*
X2515108Y11410188D01*
X2515971Y11414302D01*
X2518410Y11417706D01*
X2522016Y11419840D01*
X2537104Y11421110D01*
X2546553Y11423650D01*
X2555494Y11427764D01*
X2563520Y11433403D01*
X2570480Y11440363D01*
X2576118Y11448389D01*
X2580233Y11457330D01*
X2582773Y11466779D01*
X2583637Y11476583D01*
X2582773Y11486388D01*
X2580233Y11495836D01*
X2576118Y11504777D01*
X2570480Y11512804D01*
X2563520Y11519763D01*
X2555494Y11525402D01*
X2548534Y11528602D01*
X2545384Y11530888D01*
X2543352Y11534241D01*
X2542692Y11538051D01*
X2543505Y11541861D01*
X2545740Y11545112D01*
X2548991Y11547246D01*
X2552852Y11547957D01*
X3226816Y11547957D01*
X3230676Y11547195D01*
X3233978Y11545011D01*
X3312109Y11466880D01*
X3314293Y11463629D01*
X3315055Y11459718D01*
X3314293Y11455806D01*
X3312109Y11452555D01*
X3308807Y11450320D01*
X3304895Y11449558D01*
X2781858Y11449558D01*
X2775559Y11448846D01*
X2770073Y11446916D01*
X2765196Y11443868D01*
X2761081Y11439753D01*
X2758033Y11434876D01*
X2756103Y11429390D01*
X2755392Y11423091D01*
X2755392Y10934242D01*
X2754630Y10930331D01*
X2752394Y10927029D01*
X2749143Y10924844D01*
G37*

%LPC*%
G36*
X2641600Y11183874D02*
G01*
X2724810Y11183874D01*
X2724810Y11246815D01*
X2724099Y11253165D01*
X2722168Y11258600D01*
X2719120Y11263528D01*
X2715006Y11267592D01*
X2710129Y11270691D01*
X2704642Y11272570D01*
X2698343Y11273282D01*
X2641600Y11273282D01*
G37*

%LPD*%
G36*
X2525979Y10783417D02*
G01*
X2521864Y10783976D01*
X2518308Y10786110D01*
X2515971Y10789513D01*
X2515108Y10793577D01*
X2515108Y10948822D01*
X2515971Y10952886D01*
X2518308Y10956290D01*
X2521864Y10958423D01*
X2525979Y10958982D01*
X2529941Y10957864D01*
X2533142Y10955274D01*
X2535072Y10951565D01*
X2538577Y10939068D01*
X2543759Y10927080D01*
X2550566Y10915904D01*
X2558846Y10905744D01*
X2568397Y10896803D01*
X2579065Y10889284D01*
X2590698Y10883239D01*
X2597658Y10880750D01*
X2601214Y10878616D01*
X2603601Y10875264D01*
X2604414Y10871200D01*
X2603601Y10867136D01*
X2601214Y10863783D01*
X2597658Y10861649D01*
X2590698Y10859160D01*
X2579065Y10853115D01*
X2568397Y10845596D01*
X2558846Y10836656D01*
X2550566Y10826496D01*
X2543759Y10815320D01*
X2538577Y10803331D01*
X2535072Y10790834D01*
X2533142Y10787126D01*
X2529941Y10784535D01*
G37*

%LPD*%
G36*
X2150618Y10172344D02*
G01*
X2146706Y10173106D01*
X2143455Y10175290D01*
X2141220Y10178592D01*
X2140458Y10182504D01*
X2140458Y10327132D01*
X2141220Y10331043D01*
X2143455Y10334294D01*
X2146706Y10336530D01*
X2150618Y10337292D01*
X2488641Y10337292D01*
X2494940Y10338003D01*
X2500426Y10339933D01*
X2505303Y10342981D01*
X2509418Y10347096D01*
X2512466Y10351973D01*
X2514396Y10357459D01*
X2515108Y10363758D01*
X2515108Y10548823D01*
X2515971Y10552887D01*
X2518308Y10556290D01*
X2521864Y10558424D01*
X2524099Y10558729D01*
X2521356Y10559288D01*
X2518105Y10561472D01*
X2515870Y10564774D01*
X2515108Y10568635D01*
X2515108Y10573715D01*
X2515870Y10577626D01*
X2518105Y10580928D01*
X2521356Y10583113D01*
X2524099Y10583672D01*
X2521864Y10583976D01*
X2518308Y10586110D01*
X2515971Y10589514D01*
X2515108Y10593578D01*
X2515108Y10748822D01*
X2515971Y10752886D01*
X2518308Y10756290D01*
X2521864Y10758424D01*
X2525979Y10758982D01*
X2529941Y10757865D01*
X2533142Y10755274D01*
X2535072Y10751566D01*
X2538577Y10739069D01*
X2543759Y10727080D01*
X2550566Y10715904D01*
X2558846Y10705744D01*
X2568397Y10696803D01*
X2579065Y10689285D01*
X2590698Y10683240D01*
X2597658Y10680750D01*
X2601214Y10678617D01*
X2603601Y10675264D01*
X2604414Y10671200D01*
X2603601Y10667136D01*
X2601214Y10663783D01*
X2597658Y10661650D01*
X2590698Y10659160D01*
X2579065Y10653115D01*
X2568397Y10645597D01*
X2558846Y10636656D01*
X2550566Y10626496D01*
X2543759Y10615320D01*
X2538577Y10603331D01*
X2535072Y10590834D01*
X2533142Y10587126D01*
X2529941Y10584535D01*
X2527655Y10583875D01*
X2616200Y10583875D01*
X2616200Y10665307D01*
X2616962Y10669219D01*
X2619197Y10672470D01*
X2622448Y10674705D01*
X2626360Y10675467D01*
X2631440Y10675467D01*
X2635351Y10674705D01*
X2638602Y10672470D01*
X2640838Y10669219D01*
X2641600Y10665307D01*
X2641600Y10583875D01*
X2687116Y10583875D01*
X2691028Y10583113D01*
X2694330Y10580928D01*
X2696514Y10577626D01*
X2697276Y10573715D01*
X2697276Y10568635D01*
X2696514Y10564774D01*
X2694330Y10561472D01*
X2691028Y10559288D01*
X2687116Y10558475D01*
X2641600Y10558475D01*
X2641600Y10476179D01*
X2654757Y10478871D01*
X2667101Y10483240D01*
X2678734Y10489285D01*
X2681274Y10491063D01*
X2685338Y10492790D01*
X2689758Y10492587D01*
X2693670Y10490555D01*
X2696311Y10487101D01*
X2697276Y10482783D01*
X2697276Y10254183D01*
X2696514Y10250271D01*
X2694330Y10246969D01*
X2691028Y10244785D01*
X2687116Y10244023D01*
X2613609Y10244023D01*
X2610561Y10244480D01*
X2606294Y10246918D01*
X2597353Y10251033D01*
X2587904Y10253573D01*
X2578100Y10254437D01*
X2568295Y10253573D01*
X2558846Y10251033D01*
X2549906Y10246918D01*
X2541879Y10241280D01*
X2540304Y10239705D01*
X2537002Y10237470D01*
X2533091Y10236708D01*
X2235708Y10236708D01*
X2227681Y10235895D01*
X2220468Y10233710D01*
X2213762Y10230154D01*
X2207564Y10225024D01*
X2157780Y10175290D01*
X2154529Y10173106D01*
G37*

%LPC*%
G36*
X2616200Y10476179D02*
G01*
X2616200Y10558475D01*
X2527655Y10558475D01*
X2529941Y10557865D01*
X2533142Y10555274D01*
X2535072Y10551566D01*
X2538577Y10539069D01*
X2543759Y10527080D01*
X2550566Y10515904D01*
X2558846Y10505744D01*
X2568397Y10496804D01*
X2579065Y10489285D01*
X2590698Y10483240D01*
X2603042Y10478871D01*
G37*

%LPD*%
G36*
X1525270Y9853574D02*
G01*
X1521307Y9854742D01*
X1518107Y9857384D01*
X1516227Y9861092D01*
X1513433Y9871405D01*
X1509318Y9880346D01*
X1503680Y9888372D01*
X1496720Y9895332D01*
X1488694Y9900970D01*
X1479753Y9905085D01*
X1470304Y9907625D01*
X1460500Y9908489D01*
X1450695Y9907625D01*
X1441246Y9905085D01*
X1432356Y9900970D01*
X1423416Y9894671D01*
X1420215Y9893198D01*
X1416710Y9892842D01*
X1413306Y9893757D01*
X1410411Y9895789D01*
X1407820Y9898380D01*
X1399794Y9904018D01*
X1390853Y9908133D01*
X1381404Y9910673D01*
X1378356Y9910978D01*
X1374648Y9912045D01*
X1371600Y9914432D01*
X1369669Y9917785D01*
X1369110Y9921595D01*
X1370025Y9925354D01*
X1373733Y9933330D01*
X1376273Y9942779D01*
X1377137Y9952583D01*
X1376273Y9962388D01*
X1374546Y9968890D01*
X1374241Y9972598D01*
X1375308Y9976154D01*
X1377543Y9979101D01*
X1380693Y9981031D01*
X1384350Y9981692D01*
X1973681Y9981692D01*
X1977593Y9980930D01*
X1980895Y9978694D01*
X2016709Y9942880D01*
X2018893Y9939629D01*
X2019655Y9935718D01*
X2018893Y9931806D01*
X2016709Y9928555D01*
X2013407Y9926320D01*
X2009495Y9925558D01*
X1562658Y9925558D01*
X1556359Y9924846D01*
X1550873Y9922916D01*
X1545996Y9919868D01*
X1541881Y9915753D01*
X1538833Y9910876D01*
X1536903Y9905390D01*
X1536192Y9899091D01*
X1536192Y9863734D01*
X1535328Y9859670D01*
X1532940Y9856266D01*
X1529384Y9854133D01*
G37*

%LPD*%
G36*
X2745232Y9569094D02*
G01*
X2741320Y9569856D01*
X2738069Y9572040D01*
X2715107Y9595002D01*
X2712872Y9598304D01*
X2712110Y9602216D01*
X2712110Y9722815D01*
X2711399Y9729165D01*
X2709468Y9734600D01*
X2706420Y9739528D01*
X2702306Y9743592D01*
X2697429Y9746691D01*
X2691942Y9748570D01*
X2685643Y9749282D01*
X2546756Y9749282D01*
X2540457Y9748570D01*
X2534970Y9746691D01*
X2530094Y9743592D01*
X2525979Y9739528D01*
X2522931Y9734600D01*
X2522169Y9732467D01*
X2520086Y9728962D01*
X2516835Y9726574D01*
X2512872Y9725660D01*
X2508910Y9726320D01*
X2505506Y9728504D01*
X2503220Y9731857D01*
X2502408Y9735820D01*
X2502408Y9886188D01*
X2503271Y9890302D01*
X2505710Y9893706D01*
X2509316Y9895840D01*
X2524404Y9897110D01*
X2533853Y9899650D01*
X2542794Y9903764D01*
X2550820Y9909403D01*
X2557780Y9916363D01*
X2563418Y9924389D01*
X2567533Y9933330D01*
X2570073Y9942779D01*
X2570937Y9952583D01*
X2570073Y9962388D01*
X2568346Y9968890D01*
X2568041Y9972598D01*
X2569108Y9976154D01*
X2571343Y9979101D01*
X2574493Y9981031D01*
X2578150Y9981692D01*
X3218281Y9981692D01*
X3222193Y9980930D01*
X3225495Y9978694D01*
X3261309Y9942880D01*
X3263493Y9939629D01*
X3264255Y9935718D01*
X3263493Y9931806D01*
X3261309Y9928555D01*
X3258007Y9926320D01*
X3254095Y9925558D01*
X2781858Y9925558D01*
X2775559Y9924846D01*
X2770073Y9922916D01*
X2765196Y9919868D01*
X2761081Y9915753D01*
X2758033Y9910876D01*
X2756103Y9905390D01*
X2755392Y9899091D01*
X2755392Y9579254D01*
X2754630Y9575342D01*
X2752394Y9572040D01*
X2749143Y9569856D01*
G37*

%LPD*%
G36*
X1531518Y8522208D02*
G01*
X1527606Y8522970D01*
X1524304Y8525205D01*
X1502105Y8547404D01*
X1499870Y8550706D01*
X1499108Y8554618D01*
X1499108Y9807143D01*
X1499870Y9811054D01*
X1502105Y9814356D01*
X1503680Y9815931D01*
X1509318Y9823958D01*
X1513433Y9832898D01*
X1516227Y9843211D01*
X1518107Y9846919D01*
X1521307Y9849561D01*
X1525270Y9850729D01*
X1529384Y9850170D01*
X1532940Y9848037D01*
X1535328Y9844633D01*
X1536192Y9840569D01*
X1536192Y8839758D01*
X1536903Y8833459D01*
X1538833Y8827973D01*
X1541881Y8823096D01*
X1545996Y8818981D01*
X1550873Y8815933D01*
X1556359Y8814003D01*
X1562658Y8813292D01*
X1894332Y8813292D01*
X1898243Y8812530D01*
X1901494Y8810294D01*
X1903730Y8807043D01*
X1904492Y8803132D01*
X1904492Y8598458D01*
X1905203Y8592159D01*
X1907133Y8586673D01*
X1910181Y8581796D01*
X1914296Y8577681D01*
X1919173Y8574633D01*
X1924659Y8572703D01*
X1930958Y8571992D01*
X2101291Y8571992D01*
X2107590Y8572703D01*
X2113076Y8574633D01*
X2117953Y8577681D01*
X2122068Y8581796D01*
X2125116Y8586673D01*
X2127046Y8592159D01*
X2127758Y8598458D01*
X2127758Y8803132D01*
X2128520Y8807043D01*
X2130755Y8810294D01*
X2134006Y8812530D01*
X2137918Y8813292D01*
X2465832Y8813292D01*
X2469743Y8812530D01*
X2472994Y8810294D01*
X2475230Y8807043D01*
X2475992Y8803132D01*
X2475992Y8567318D01*
X2475230Y8563406D01*
X2472994Y8560104D01*
X2438095Y8525205D01*
X2434793Y8522970D01*
X2430881Y8522208D01*
G37*

%LPD*%
D10*
X965200Y11586590D02*
G01*
X2040509Y11586590D01*
X2146300Y11480800D01*
X2523083Y11480800D01*
X2527300Y11476583D01*
X2171700Y11586590D02*
G01*
X3247009Y11586590D01*
X3352800Y11480800D01*
X3729583Y11480800D01*
X3733800Y11476583D01*
X2743200Y11645900D02*
G01*
X1490116Y11645900D01*
X939800Y10020300D02*
G01*
X1993900Y10020300D01*
X2057400Y9956800D01*
X2510383Y9956800D01*
X2514600Y9952583D01*
X3378200Y11586590D02*
G01*
X3818509Y11586590D01*
X3873500Y11531600D01*
X3873500Y8547100D01*
X254000Y8547100D02*
G01*
X254000Y9906000D01*
X304800Y9956800D01*
X1316583Y9956800D01*
X1320800Y9952583D01*
X2616200Y9647199D02*
G01*
X2616200Y9639300D01*
X2717800Y9537700D01*
X2717800Y8496300D01*
X2628900Y8407400D01*
X1473200Y8407400D01*
X1371600Y8509000D01*
X1371600Y9855200D01*
X1384300Y10198100D02*
G01*
X1511300Y10198100D01*
X1625600Y10083800D01*
X2120900Y10083800D01*
X2235200Y10198100D01*
X2578100Y10198100D01*
D11*
X2590800Y11722100D02*
G01*
X3797300Y11722100D01*
X1384300Y11722100D02*
G01*
X2590800Y11722100D01*
D10*
X2885440Y1778000D02*
G01*
X3746500Y1778000D01*
X3810000Y1841500D01*
X3810000Y2540000D01*
X2133600Y10020300D02*
G01*
X3238500Y10020300D01*
X3314700Y9944100D01*
X3733800Y9944100D01*
X2628900Y10571226D02*
G01*
X2624074Y10571226D01*
X2527300Y10668000D01*
X2527300Y11069574D01*
X2628900Y11171174D01*
X3352800Y10007600D02*
G01*
X3771900Y10007600D01*
X3810000Y9969500D01*
X3810000Y2540000D01*
D12*
X2628900Y10971276D02*
G01*
X2743200Y10856976D01*
X2743200Y10198100D01*
X2578100Y10198100D01*
X3797300Y10198100D02*
G01*
X3454400Y10198100D01*
X3340100Y10083800D01*
X2857500Y10083800D01*
X2743200Y10198100D01*
D10*
X2616200Y9447276D02*
G01*
X2514600Y9347200D01*
X2514600Y8547100D01*
X2451100Y8483600D01*
X1511300Y8483600D01*
X1460500Y8534400D01*
X1460500Y9852152D01*
X1524000Y9829800D02*
G01*
X1524000Y9867900D01*
D13*
G01*
X1038097Y12297999D03*
G01*
X19617100Y12297999D03*
G01*
X1538097Y529000D03*
G01*
X19117101Y529000D03*
D14*
G01*
X2628900Y10571200D03*
G01*
X2628900Y10771200D03*
G01*
X2628900Y10971199D03*
D15*
G01*
X2628900Y11171199D03*
D14*
G01*
X2616200Y9047200D03*
G01*
X2616200Y9247200D03*
G01*
X2616200Y9447199D03*
D15*
G01*
X2616200Y9647199D03*
D16*
G01*
X1384300Y11722100D03*
G01*
X2590800Y11722100D03*
G01*
X3797300Y11722100D03*
G01*
X3797300Y10198100D03*
G01*
X2578100Y10198100D03*
G01*
X1384300Y10198100D03*
G01*
X3733800Y11476583D03*
G01*
X2527300Y11476583D03*
G01*
X3378200Y11586590D03*
G01*
X2171700Y11586590D03*
G01*
X965200Y11586590D03*
G01*
X2743200Y11645900D03*
G01*
X1490116Y11645900D03*
G01*
X1320800Y9952583D03*
G01*
X2514600Y9952583D03*
G01*
X3733800Y9944100D03*
G01*
X3352800Y10007600D03*
G01*
X2133600Y10020300D03*
G01*
X939800Y10020300D03*
G01*
X3873500Y8547100D03*
G01*
X254000Y8547100D03*
G01*
X1460500Y9852152D03*
G01*
X1371600Y9855200D03*
G01*
X2095500Y2489200D03*
G01*
X1993900Y1397000D03*
G01*
X2603500Y1879600D03*
G01*
X1485900Y2006600D03*
G01*
X2885516Y1778000D03*
G01*
X3048000Y1104900D03*
G01*
X1016000Y1104900D03*
G01*
X1816100Y10261600D03*
G01*
X1587500Y9956800D03*
G01*
X2717800Y9880600D03*
G01*
X1816100Y11506200D03*
G01*
X1016000Y8737600D03*
G01*
X3048000Y8737600D03*
G01*
X3441700Y8737600D03*
G01*
X596900Y8737600D03*
G01*
X1778000Y8737600D03*
G01*
X2286000Y8737600D03*
M02*
