M48
METRIC,LZ,000.000
;FILE_FORMAT=3:3
;TYPE=PLATED
;Layer: PTH_Through
;EasyEDA v6.5.29, 2023-07-19 21:38:56
;0acaec5f7f514605885a2f2b0e5249c4,5a6b42c53f6a479593ecc07194224c93,10
;Gerber Generator version 0.2
;Holesize 1 = 0.305 mm
T01C0.305
;Holesize 2 = 1.200 mm
T02C1.200
%
G05
G90
T01
X-025045Y-083397
X-031903Y-086445
X-015647Y-086445
X-007519Y-086445
X-028601Y-086445
X-040031Y-086445
X-017425Y-014309
X-026188Y-014309
X-041809Y-014309
X-049937Y-014309
X-051562Y000000
X-047270Y-000085
X-039497Y000000
X-035205Y-000085
X-027432Y000000
X-023140Y-000085
X-015367Y000000
X-011075Y-000085
X-003302Y000000
X000990Y-000085
X024257Y-015240
X024257Y-030480
X024257Y-045720
X024257Y-060960
X019939Y-059182
X019939Y-043942
X019939Y-028702
X019939Y-013462
X012700Y-028702
X012700Y-013462
X012700Y-043942
X012700Y-059182
X012700Y-074422
X002159Y000000
X-009906Y000000
X-021971Y000000
X-034036Y000000
X-046101Y000000
X-068580Y-011642
X-068580Y-026882
X-068580Y-042122
X-068580Y-057362
X-068580Y-072602
X-046863Y-099568
X-022733Y-099568
X-010668Y-099568
X001397Y-099568
X-034798Y-099568
X003556Y-019591
X-000508Y-019591
X-004572Y-019591
X-008636Y-019591
X-012700Y-019591
X-016764Y-019591
X-020828Y-019591
X-024892Y-019591
X-028956Y-019591
X-033020Y-019591
X-037084Y-019591
X-041148Y-019591
X-045212Y-019591
X-049276Y-019591
X-053340Y-019591
X-057404Y-019591
X000762Y-020574
X-003302Y-020574
X-007366Y-020574
X-011430Y-020574
X-015494Y-020574
X-019558Y-020574
X-023622Y-020574
X-027686Y-020574
X-031750Y-020574
X-035814Y-020574
X-039878Y-020574
X-043942Y-020574
X-048006Y-020574
X-052070Y-020574
X-056134Y-020574
X-060198Y-020574
T02
X005689Y-079206
X005689Y-081746
X003149Y-084286
X005689Y-084286
X-059585Y-016718
X-062125Y-016718
X-045365Y-084159
X-045365Y-086699
X-037237Y-084159
X-037237Y-086699
X-023521Y-084159
X-023521Y-086699
X-020981Y-084159
X-020981Y-086699
X-012853Y-084159
X-012853Y-086699
X-061875Y-061807
X-064415Y-061807
X-061875Y-053679
X-064415Y-053679
X-061875Y-045551
X-064415Y-045551
X-061875Y-037423
X-064415Y-037423
X-061875Y-029295
X-064415Y-029295
X-043587Y-016849
X-043587Y-014309
X-035459Y-016849
X-035459Y-014309
X-032919Y-016849
X-032919Y-014309
X-019203Y-016849
X-019203Y-014309
X-011075Y-016849
X-011075Y-014309
X005435Y-039201
X007975Y-039201
X005435Y-047329
X007975Y-047329
X005435Y-055457
X007975Y-055457
X005399Y-063564
X007939Y-063564
X003149Y-016722
X005689Y-016722
X005399Y-071692
X007939Y-071692
X-059585Y-084282
X-062125Y-084282
M30
