M48
METRIC,LZ,000.000
;FILE_FORMAT=3:3
;TYPE=PLATED
;Layer: PTH_Through
;EasyEDA v6.5.29, 2023-07-19 21:55:29
;cd10bac7ed824a03a08366421e07836e,5a6b42c53f6a479593ecc07194224c93,10
;Gerber Generator version 0.2
;Holesize 1 = 0.305 mm
T01C0.305
;Holesize 2 = 0.901 mm
T02C0.901
;Holesize 3 = 1.100 mm
T03C1.100
;Holesize 4 = 1.200 mm
T04C1.200
%
G05
G90
T01
X003175Y091313
X003175Y094869
X003175Y072009
X003175Y068453
X014224Y056134
X013589Y078994
X014859Y052197
X016129Y052197
X021835Y040894
X012954Y040894
X031115Y094742
X031115Y091186
X031115Y068326
X031115Y071882
X032630Y071882
X026986Y078359
X010160Y042291
X016764Y042291
X008636Y051181
X031115Y049276
X016764Y049276
X028194Y052932
X012954Y039497
X013589Y080518
X001270Y027940
X002159Y027940
X003048Y027940
X003937Y027940
X027940Y026924
X025400Y026924
X022860Y026924
X020320Y026924
X025654Y050292
X015240Y030480
X012700Y029210
X023622Y052959
X029591Y051816
X029845Y110744
X028194Y031496
X026543Y031496
X029718Y034163
X008636Y028194
X008890Y026924
X011430Y026924
X013970Y026924
X016510Y026924
T02
X017320Y113030
X019320Y113030
X021320Y113030
X023320Y113030
T03
X023619Y101854G85X023624Y101854
X017120Y101854G85X017125Y101854
X023622Y106355G85X023622Y106355
X017120Y106355G85X017125Y106355
X020371Y107703G85X020373Y107703
X023970Y104104G85X023975Y104104
X020573Y100584G85X020575Y100584
X016763Y104140G85X016765Y104140
X023619Y078994G85X023624Y078994
X017120Y078994G85X017125Y078994
X023622Y083495G85X023622Y083495
X017120Y083495G85X017125Y083495
X020371Y084843G85X020373Y084843
X023970Y081244G85X023975Y081244
X020573Y077724G85X020575Y077724
X016763Y081280G85X016765Y081280
X023619Y056134G85X023624Y056134
X017120Y056134G85X017125Y056134
X023622Y060635G85X023622Y060635
X017120Y060635G85X017125Y060635
X020371Y061984G85X020373Y061984
X023970Y058384G85X023975Y058384
X020573Y054864G85X020575Y054864
X016763Y058420G85X016765Y058420
X023619Y033274G85X023624Y033274
X017120Y033274G85X017125Y033274
X023622Y037775G85X023622Y037775
X017120Y037775G85X017125Y037775
X020371Y039124G85X020373Y039124
X023970Y035524G85X023975Y035524
X020573Y032004G85X020575Y032004
X016763Y035560G85X016765Y035560
X006350Y109140G85X006350Y109140
X006350Y100640G85X006350Y100640
X006350Y097640G85X006350Y097640
X006350Y086280G85X006350Y086280
X006350Y077780G85X006350Y077780
X006350Y074780G85X006350Y074780
X006350Y063420G85X006350Y063420
X006350Y054920G85X006350Y054920
X006350Y051920G85X006350Y051920
X006350Y040560G85X006350Y040560
X006350Y032060G85X006350Y032060
X006350Y029060G85X006350Y029060
X034290Y109013G85X034290Y109013
X034290Y100513G85X034290Y100513
X034290Y097513G85X034290Y097513
X034290Y086153G85X034290Y086153
X034290Y077653G85X034290Y077653
X034290Y074653G85X034290Y074653
X034290Y063293G85X034290Y063293
X034290Y054793G85X034290Y054793
X034290Y051793G85X034290Y051793
X034290Y040433G85X034290Y040433
X034290Y031933G85X034290Y031933
X034290Y028933G85X034290Y028933
T04
X029464Y044958
X029464Y047498
X026924Y044958
X026924Y047498
X024384Y044958
X024384Y047498
X021844Y044958
X021844Y047498
X019304Y044958
X019304Y047498
X016764Y044958
X016764Y047498
X014224Y044958
X014224Y047498
X011684Y044958
X011684Y047498
M30
