G04 Layer: BottomPasteMaskLayer*
G04 EasyEDA v6.5.29, 2023-07-19 21:55:29*
G04 cd10bac7ed824a03a08366421e07836e,5a6b42c53f6a479593ecc07194224c93,10*
G04 Gerber Generator version 0.2*
G04 Scale: 100 percent, Rotated: No, Reflected: No *
G04 Dimensions in millimeters *
G04 leading zeros omitted , absolute positions ,4 integer and 5 decimal *
%FSLAX45Y45*%
%MOMM*%

%AMMACRO1*21,1,$1,$2,0,0,$3*%
%ADD10R,1.4000X2.0000*%
%ADD11MACRO1,0.8X0.9X0.0000*%
%ADD12O,0.5739892X2.3880064*%
%ADD13MACRO1,1.25X0.7X0.0000*%

%LPD*%
G36*
X2614320Y3305606D02*
G01*
X2609291Y3300577D01*
X2609291Y3220618D01*
X2614320Y3215589D01*
X2694279Y3215589D01*
X2699308Y3220618D01*
X2699308Y3300577D01*
X2694279Y3305606D01*
X2670098Y3305606D01*
X2670098Y3268573D01*
X2637078Y3268573D01*
X2637078Y3305606D01*
G37*
G36*
X2614320Y3464610D02*
G01*
X2609291Y3459581D01*
X2609291Y3380587D01*
X2614320Y3375609D01*
X2637078Y3375609D01*
X2637078Y3413607D01*
X2670098Y3413607D01*
X2670098Y3375609D01*
X2694279Y3375609D01*
X2699308Y3380587D01*
X2699308Y3459581D01*
X2694279Y3464610D01*
G37*
G36*
X2779420Y3305606D02*
G01*
X2774391Y3300577D01*
X2774391Y3220618D01*
X2779420Y3215589D01*
X2859379Y3215589D01*
X2864408Y3220618D01*
X2864408Y3300577D01*
X2859379Y3305606D01*
X2835198Y3305606D01*
X2835198Y3268573D01*
X2802178Y3268573D01*
X2802178Y3305606D01*
G37*
G36*
X2779420Y3464610D02*
G01*
X2774391Y3459581D01*
X2774391Y3380587D01*
X2779420Y3375609D01*
X2802178Y3375609D01*
X2802178Y3413607D01*
X2835198Y3413607D01*
X2835198Y3375609D01*
X2859379Y3375609D01*
X2864408Y3380587D01*
X2864408Y3459581D01*
X2859379Y3464610D01*
G37*
G36*
X1315618Y9862108D02*
G01*
X1310589Y9857079D01*
X1310589Y9777120D01*
X1315618Y9772091D01*
X1395577Y9772091D01*
X1400606Y9777120D01*
X1400606Y9801301D01*
X1363624Y9801301D01*
X1363624Y9834321D01*
X1400606Y9834321D01*
X1400606Y9857079D01*
X1395577Y9862108D01*
G37*
G36*
X1475587Y9862108D02*
G01*
X1470609Y9857079D01*
X1470609Y9834321D01*
X1508607Y9834321D01*
X1508607Y9801301D01*
X1470609Y9801301D01*
X1470609Y9777120D01*
X1475587Y9772091D01*
X1554581Y9772091D01*
X1559610Y9777120D01*
X1559610Y9857079D01*
X1554581Y9862108D01*
G37*
G36*
X2509418Y9862108D02*
G01*
X2504389Y9857079D01*
X2504389Y9777120D01*
X2509418Y9772091D01*
X2589377Y9772091D01*
X2594406Y9777120D01*
X2594406Y9801301D01*
X2557424Y9801301D01*
X2557424Y9834321D01*
X2594406Y9834321D01*
X2594406Y9857079D01*
X2589377Y9862108D01*
G37*
G36*
X2669387Y9862108D02*
G01*
X2664409Y9857079D01*
X2664409Y9834321D01*
X2702407Y9834321D01*
X2702407Y9801301D01*
X2664409Y9801301D01*
X2664409Y9777120D01*
X2669387Y9772091D01*
X2748381Y9772091D01*
X2753410Y9777120D01*
X2753410Y9857079D01*
X2748381Y9862108D01*
G37*
G36*
X1683918Y8782608D02*
G01*
X1678889Y8777579D01*
X1678889Y8697620D01*
X1683918Y8692591D01*
X1763877Y8692591D01*
X1768906Y8697620D01*
X1768906Y8721801D01*
X1731924Y8721801D01*
X1731924Y8754821D01*
X1768906Y8754821D01*
X1768906Y8777579D01*
X1763877Y8782608D01*
G37*
G36*
X1843887Y8782608D02*
G01*
X1838909Y8777579D01*
X1838909Y8754821D01*
X1876907Y8754821D01*
X1876907Y8721801D01*
X1838909Y8721801D01*
X1838909Y8697620D01*
X1843887Y8692591D01*
X1922881Y8692591D01*
X1927910Y8697620D01*
X1927910Y8777579D01*
X1922881Y8782608D01*
G37*
G36*
X1988718Y8782608D02*
G01*
X1983689Y8777579D01*
X1983689Y8697620D01*
X1988718Y8692591D01*
X2068677Y8692591D01*
X2073706Y8697620D01*
X2073706Y8721801D01*
X2036724Y8721801D01*
X2036724Y8754821D01*
X2073706Y8754821D01*
X2073706Y8777579D01*
X2068677Y8782608D01*
G37*
G36*
X2148687Y8782608D02*
G01*
X2143709Y8777579D01*
X2143709Y8754821D01*
X2181707Y8754821D01*
X2181707Y8721801D01*
X2143709Y8721801D01*
X2143709Y8697620D01*
X2148687Y8692591D01*
X2227681Y8692591D01*
X2232710Y8697620D01*
X2232710Y8777579D01*
X2227681Y8782608D01*
G37*
G36*
X1683918Y5264708D02*
G01*
X1678889Y5259679D01*
X1678889Y5179720D01*
X1683918Y5174691D01*
X1763877Y5174691D01*
X1768906Y5179720D01*
X1768906Y5203901D01*
X1731924Y5203901D01*
X1731924Y5236921D01*
X1768906Y5236921D01*
X1768906Y5259679D01*
X1763877Y5264708D01*
G37*
G36*
X1843887Y5264708D02*
G01*
X1838909Y5259679D01*
X1838909Y5236921D01*
X1876907Y5236921D01*
X1876907Y5203901D01*
X1838909Y5203901D01*
X1838909Y5179720D01*
X1843887Y5174691D01*
X1922881Y5174691D01*
X1927910Y5179720D01*
X1927910Y5259679D01*
X1922881Y5264708D01*
G37*
G36*
X1988718Y5264708D02*
G01*
X1983689Y5259679D01*
X1983689Y5179720D01*
X1988718Y5174691D01*
X2068677Y5174691D01*
X2073706Y5179720D01*
X2073706Y5203901D01*
X2036724Y5203901D01*
X2036724Y5236921D01*
X2073706Y5236921D01*
X2073706Y5259679D01*
X2068677Y5264708D01*
G37*
G36*
X2148687Y5264708D02*
G01*
X2143709Y5259679D01*
X2143709Y5236921D01*
X2181707Y5236921D01*
X2181707Y5203901D01*
X2143709Y5203901D01*
X2143709Y5179720D01*
X2148687Y5174691D01*
X2227681Y5174691D01*
X2232710Y5179720D01*
X2232710Y5259679D01*
X2227681Y5264708D01*
G37*
G36*
X1683918Y2978708D02*
G01*
X1678889Y2973679D01*
X1678889Y2893720D01*
X1683918Y2888691D01*
X1763877Y2888691D01*
X1768906Y2893720D01*
X1768906Y2917901D01*
X1731924Y2917901D01*
X1731924Y2950921D01*
X1768906Y2950921D01*
X1768906Y2973679D01*
X1763877Y2978708D01*
G37*
G36*
X1843887Y2978708D02*
G01*
X1838909Y2973679D01*
X1838909Y2950921D01*
X1876907Y2950921D01*
X1876907Y2917901D01*
X1838909Y2917901D01*
X1838909Y2893720D01*
X1843887Y2888691D01*
X1922881Y2888691D01*
X1927910Y2893720D01*
X1927910Y2973679D01*
X1922881Y2978708D01*
G37*
G36*
X1988718Y2978708D02*
G01*
X1983689Y2973679D01*
X1983689Y2893720D01*
X1988718Y2888691D01*
X2068677Y2888691D01*
X2073706Y2893720D01*
X2073706Y2917901D01*
X2036724Y2917901D01*
X2036724Y2950921D01*
X2073706Y2950921D01*
X2073706Y2973679D01*
X2068677Y2978708D01*
G37*
G36*
X2148687Y2978708D02*
G01*
X2143709Y2973679D01*
X2143709Y2950921D01*
X2181707Y2950921D01*
X2181707Y2917901D01*
X2143709Y2917901D01*
X2143709Y2893720D01*
X2148687Y2888691D01*
X2227681Y2888691D01*
X2232710Y2893720D01*
X2232710Y2973679D01*
X2227681Y2978708D01*
G37*
G36*
X3068218Y9049308D02*
G01*
X3063189Y9044279D01*
X3063189Y8964320D01*
X3068218Y8959291D01*
X3148177Y8959291D01*
X3153206Y8964320D01*
X3153206Y8988501D01*
X3116224Y8988501D01*
X3116224Y9021521D01*
X3153206Y9021521D01*
X3153206Y9044279D01*
X3148177Y9049308D01*
G37*
G36*
X3228187Y9049308D02*
G01*
X3223209Y9044279D01*
X3223209Y9021521D01*
X3261207Y9021521D01*
X3261207Y8988501D01*
X3223209Y8988501D01*
X3223209Y8964320D01*
X3228187Y8959291D01*
X3307181Y8959291D01*
X3312210Y8964320D01*
X3312210Y9044279D01*
X3307181Y9049308D01*
G37*
G36*
X3757320Y9141510D02*
G01*
X3752291Y9136481D01*
X3752291Y9056522D01*
X3757320Y9051493D01*
X3781501Y9051493D01*
X3781501Y9088526D01*
X3814521Y9088526D01*
X3814521Y9051493D01*
X3837279Y9051493D01*
X3842308Y9056522D01*
X3842308Y9136481D01*
X3837279Y9141510D01*
G37*
G36*
X3757320Y8981490D02*
G01*
X3752291Y8976512D01*
X3752291Y8897518D01*
X3757320Y8892489D01*
X3837279Y8892489D01*
X3842308Y8897518D01*
X3842308Y8976512D01*
X3837279Y8981490D01*
X3814521Y8981490D01*
X3814521Y8943492D01*
X3781501Y8943492D01*
X3781501Y8981490D01*
G37*
G36*
X3068218Y9404908D02*
G01*
X3063189Y9399879D01*
X3063189Y9319920D01*
X3068218Y9314891D01*
X3148177Y9314891D01*
X3153206Y9319920D01*
X3153206Y9344101D01*
X3116224Y9344101D01*
X3116224Y9377121D01*
X3153206Y9377121D01*
X3153206Y9399879D01*
X3148177Y9404908D01*
G37*
G36*
X3228187Y9404908D02*
G01*
X3223209Y9399879D01*
X3223209Y9377121D01*
X3261207Y9377121D01*
X3261207Y9344101D01*
X3223209Y9344101D01*
X3223209Y9319920D01*
X3228187Y9314891D01*
X3307181Y9314891D01*
X3312210Y9319920D01*
X3312210Y9399879D01*
X3307181Y9404908D01*
G37*
G36*
X3757320Y9497110D02*
G01*
X3752291Y9492081D01*
X3752291Y9412122D01*
X3757320Y9407093D01*
X3781501Y9407093D01*
X3781501Y9444126D01*
X3814521Y9444126D01*
X3814521Y9407093D01*
X3837279Y9407093D01*
X3842308Y9412122D01*
X3842308Y9492081D01*
X3837279Y9497110D01*
G37*
G36*
X3757320Y9337090D02*
G01*
X3752291Y9332112D01*
X3752291Y9253118D01*
X3757320Y9248089D01*
X3837279Y9248089D01*
X3842308Y9253118D01*
X3842308Y9332112D01*
X3837279Y9337090D01*
X3814521Y9337090D01*
X3814521Y9299092D01*
X3781501Y9299092D01*
X3781501Y9337090D01*
G37*
G36*
X3757320Y7211110D02*
G01*
X3752291Y7206081D01*
X3752291Y7126122D01*
X3757320Y7121093D01*
X3781501Y7121093D01*
X3781501Y7158126D01*
X3814521Y7158126D01*
X3814521Y7121093D01*
X3837279Y7121093D01*
X3842308Y7126122D01*
X3842308Y7206081D01*
X3837279Y7211110D01*
G37*
G36*
X3757320Y7051090D02*
G01*
X3752291Y7046112D01*
X3752291Y6967118D01*
X3757320Y6962089D01*
X3837279Y6962089D01*
X3842308Y6967118D01*
X3842308Y7046112D01*
X3837279Y7051090D01*
X3814521Y7051090D01*
X3814521Y7013092D01*
X3781501Y7013092D01*
X3781501Y7051090D01*
G37*
G36*
X3068218Y7118908D02*
G01*
X3063189Y7113879D01*
X3063189Y7033920D01*
X3068218Y7028891D01*
X3148177Y7028891D01*
X3153206Y7033920D01*
X3153206Y7058101D01*
X3116224Y7058101D01*
X3116224Y7091121D01*
X3153206Y7091121D01*
X3153206Y7113879D01*
X3148177Y7118908D01*
G37*
G36*
X3228187Y7118908D02*
G01*
X3223209Y7113879D01*
X3223209Y7091121D01*
X3261207Y7091121D01*
X3261207Y7058101D01*
X3223209Y7058101D01*
X3223209Y7033920D01*
X3228187Y7028891D01*
X3307181Y7028891D01*
X3312210Y7033920D01*
X3312210Y7113879D01*
X3307181Y7118908D01*
G37*
G36*
X3757320Y6855510D02*
G01*
X3752291Y6850481D01*
X3752291Y6770522D01*
X3757320Y6765493D01*
X3781501Y6765493D01*
X3781501Y6802526D01*
X3814521Y6802526D01*
X3814521Y6765493D01*
X3837279Y6765493D01*
X3842308Y6770522D01*
X3842308Y6850481D01*
X3837279Y6855510D01*
G37*
G36*
X3757320Y6695490D02*
G01*
X3752291Y6690512D01*
X3752291Y6611518D01*
X3757320Y6606489D01*
X3837279Y6606489D01*
X3842308Y6611518D01*
X3842308Y6690512D01*
X3837279Y6695490D01*
X3814521Y6695490D01*
X3814521Y6657492D01*
X3781501Y6657492D01*
X3781501Y6695490D01*
G37*
G36*
X3068218Y6763308D02*
G01*
X3063189Y6758279D01*
X3063189Y6678320D01*
X3068218Y6673291D01*
X3148177Y6673291D01*
X3153206Y6678320D01*
X3153206Y6702501D01*
X3116224Y6702501D01*
X3116224Y6735521D01*
X3153206Y6735521D01*
X3153206Y6758279D01*
X3148177Y6763308D01*
G37*
G36*
X3228187Y6763308D02*
G01*
X3223209Y6758279D01*
X3223209Y6735521D01*
X3261207Y6735521D01*
X3261207Y6702501D01*
X3223209Y6702501D01*
X3223209Y6678320D01*
X3228187Y6673291D01*
X3307181Y6673291D01*
X3312210Y6678320D01*
X3312210Y6758279D01*
X3307181Y6763308D01*
G37*
G36*
X963320Y9509810D02*
G01*
X958291Y9504781D01*
X958291Y9424822D01*
X963320Y9419793D01*
X987501Y9419793D01*
X987501Y9456826D01*
X1020521Y9456826D01*
X1020521Y9419793D01*
X1043279Y9419793D01*
X1048308Y9424822D01*
X1048308Y9504781D01*
X1043279Y9509810D01*
G37*
G36*
X963320Y9349790D02*
G01*
X958291Y9344812D01*
X958291Y9265818D01*
X963320Y9260789D01*
X1043279Y9260789D01*
X1048308Y9265818D01*
X1048308Y9344812D01*
X1043279Y9349790D01*
X1020521Y9349790D01*
X1020521Y9311792D01*
X987501Y9311792D01*
X987501Y9349790D01*
G37*
G36*
X274218Y9417608D02*
G01*
X269189Y9412579D01*
X269189Y9332620D01*
X274218Y9327591D01*
X354177Y9327591D01*
X359206Y9332620D01*
X359206Y9356801D01*
X322173Y9356801D01*
X322173Y9389821D01*
X359206Y9389821D01*
X359206Y9412579D01*
X354177Y9417608D01*
G37*
G36*
X434187Y9417608D02*
G01*
X429209Y9412579D01*
X429209Y9389821D01*
X467207Y9389821D01*
X467207Y9356801D01*
X429209Y9356801D01*
X429209Y9332620D01*
X434187Y9327591D01*
X513181Y9327591D01*
X518210Y9332620D01*
X518210Y9412579D01*
X513181Y9417608D01*
G37*
G36*
X963320Y9154210D02*
G01*
X958291Y9149181D01*
X958291Y9069222D01*
X963320Y9064193D01*
X987501Y9064193D01*
X987501Y9101226D01*
X1020521Y9101226D01*
X1020521Y9064193D01*
X1043279Y9064193D01*
X1048308Y9069222D01*
X1048308Y9149181D01*
X1043279Y9154210D01*
G37*
G36*
X963320Y8994190D02*
G01*
X958291Y8989212D01*
X958291Y8910218D01*
X963320Y8905189D01*
X1043279Y8905189D01*
X1048308Y8910218D01*
X1048308Y8989212D01*
X1043279Y8994190D01*
X1020521Y8994190D01*
X1020521Y8956192D01*
X987501Y8956192D01*
X987501Y8994190D01*
G37*
G36*
X274218Y9062008D02*
G01*
X269189Y9056979D01*
X269189Y8977020D01*
X274218Y8971991D01*
X354177Y8971991D01*
X359206Y8977020D01*
X359206Y9001201D01*
X322173Y9001201D01*
X322173Y9034221D01*
X359206Y9034221D01*
X359206Y9056979D01*
X354177Y9062008D01*
G37*
G36*
X434187Y9062008D02*
G01*
X429209Y9056979D01*
X429209Y9034221D01*
X467207Y9034221D01*
X467207Y9001201D01*
X429209Y9001201D01*
X429209Y8977020D01*
X434187Y8971991D01*
X513181Y8971991D01*
X518210Y8977020D01*
X518210Y9056979D01*
X513181Y9062008D01*
G37*
G36*
X274218Y6776008D02*
G01*
X269189Y6770979D01*
X269189Y6691020D01*
X274218Y6685991D01*
X354177Y6685991D01*
X359206Y6691020D01*
X359206Y6715201D01*
X322173Y6715201D01*
X322173Y6748221D01*
X359206Y6748221D01*
X359206Y6770979D01*
X354177Y6776008D01*
G37*
G36*
X434187Y6776008D02*
G01*
X429209Y6770979D01*
X429209Y6748221D01*
X467207Y6748221D01*
X467207Y6715201D01*
X429209Y6715201D01*
X429209Y6691020D01*
X434187Y6685991D01*
X513181Y6685991D01*
X518210Y6691020D01*
X518210Y6770979D01*
X513181Y6776008D01*
G37*
G36*
X963320Y6868210D02*
G01*
X958291Y6863181D01*
X958291Y6783222D01*
X963320Y6778193D01*
X987501Y6778193D01*
X987501Y6815226D01*
X1020521Y6815226D01*
X1020521Y6778193D01*
X1043279Y6778193D01*
X1048308Y6783222D01*
X1048308Y6863181D01*
X1043279Y6868210D01*
G37*
G36*
X963320Y6708190D02*
G01*
X958291Y6703212D01*
X958291Y6624218D01*
X963320Y6619189D01*
X1043279Y6619189D01*
X1048308Y6624218D01*
X1048308Y6703212D01*
X1043279Y6708190D01*
X1020521Y6708190D01*
X1020521Y6670192D01*
X987501Y6670192D01*
X987501Y6708190D01*
G37*
G36*
X274218Y7131608D02*
G01*
X269189Y7126579D01*
X269189Y7046620D01*
X274218Y7041591D01*
X354177Y7041591D01*
X359206Y7046620D01*
X359206Y7070801D01*
X322173Y7070801D01*
X322173Y7103821D01*
X359206Y7103821D01*
X359206Y7126579D01*
X354177Y7131608D01*
G37*
G36*
X434187Y7131608D02*
G01*
X429209Y7126579D01*
X429209Y7103821D01*
X467207Y7103821D01*
X467207Y7070801D01*
X429209Y7070801D01*
X429209Y7046620D01*
X434187Y7041591D01*
X513181Y7041591D01*
X518210Y7046620D01*
X518210Y7126579D01*
X513181Y7131608D01*
G37*
G36*
X963320Y7223810D02*
G01*
X958291Y7218781D01*
X958291Y7138822D01*
X963320Y7133793D01*
X987501Y7133793D01*
X987501Y7170826D01*
X1020521Y7170826D01*
X1020521Y7133793D01*
X1043279Y7133793D01*
X1048308Y7138822D01*
X1048308Y7218781D01*
X1043279Y7223810D01*
G37*
G36*
X963320Y7063790D02*
G01*
X958291Y7058812D01*
X958291Y6979818D01*
X963320Y6974789D01*
X1043279Y6974789D01*
X1048308Y6979818D01*
X1048308Y7058812D01*
X1043279Y7063790D01*
X1020521Y7063790D01*
X1020521Y7025792D01*
X987501Y7025792D01*
X987501Y7063790D01*
G37*
D10*
G01*
X1524000Y2514600D03*
G01*
X1778000Y2514600D03*
G01*
X3810000Y2514600D03*
G01*
X3556000Y2514600D03*
G01*
X3302000Y2514600D03*
G01*
X3048000Y2514600D03*
G01*
X2794000Y2514600D03*
G01*
X254000Y2514600D03*
G01*
X508000Y2514600D03*
G01*
X762000Y2514600D03*
G01*
X1016000Y2514600D03*
G01*
X1270000Y2514600D03*
G01*
X2032000Y2514600D03*
G01*
X2286000Y2514600D03*
G01*
X2540000Y2514600D03*
D11*
G01*
X2838599Y7708900D03*
G01*
X2698600Y7708900D03*
D12*
G01*
X1231900Y7446695D03*
G01*
X1358900Y7446695D03*
G01*
X1485900Y7446695D03*
G01*
X1612900Y7446695D03*
G01*
X1739900Y7446695D03*
G01*
X1866900Y7446695D03*
G01*
X1993900Y7446695D03*
G01*
X2120900Y7446695D03*
G01*
X2247900Y7446695D03*
G01*
X2374900Y7446695D03*
G01*
X2501900Y7446695D03*
G01*
X2628900Y7446695D03*
G01*
X2755900Y7446695D03*
G01*
X2882900Y7446695D03*
G01*
X1231900Y6497904D03*
G01*
X1358900Y6497904D03*
G01*
X1485900Y6497904D03*
G01*
X1612900Y6497904D03*
G01*
X1739900Y6497904D03*
G01*
X1866900Y6497904D03*
G01*
X1993900Y6497904D03*
G01*
X2120900Y6497904D03*
G01*
X2247900Y6497904D03*
G01*
X2374900Y6497904D03*
G01*
X2501900Y6497904D03*
G01*
X2628900Y6497904D03*
G01*
X2755900Y6497904D03*
G01*
X2882900Y6497904D03*
D13*
G01*
X3630599Y9099296D03*
G01*
X3630599Y8909305D03*
G01*
X3430600Y9004301D03*
G01*
X3630599Y9454896D03*
G01*
X3630599Y9264905D03*
G01*
X3430600Y9359901D03*
G01*
X3630599Y7168896D03*
G01*
X3630599Y6978905D03*
G01*
X3430600Y7073901D03*
G01*
X3630599Y6813296D03*
G01*
X3630599Y6623305D03*
G01*
X3430600Y6718301D03*
G01*
X836599Y9467596D03*
G01*
X836599Y9277605D03*
G01*
X636600Y9372601D03*
G01*
X836599Y9111996D03*
G01*
X836599Y8922005D03*
G01*
X636600Y9017001D03*
G01*
X836599Y6825996D03*
G01*
X836599Y6636005D03*
G01*
X636600Y6731001D03*
G01*
X836599Y7181596D03*
G01*
X836599Y6991605D03*
G01*
X636600Y7086601D03*
M02*
