G04 Layer: BottomSolderMaskLayer*
G04 EasyEDA v6.5.29, 2023-07-19 21:55:29*
G04 cd10bac7ed824a03a08366421e07836e,5a6b42c53f6a479593ecc07194224c93,10*
G04 Gerber Generator version 0.2*
G04 Scale: 100 percent, Rotated: No, Reflected: No *
G04 Dimensions in millimeters *
G04 leading zeros omitted , absolute positions ,4 integer and 5 decimal *
%FSLAX45Y45*%
%MOMM*%

%AMMACRO1*1,1,$1,$2,$3*1,1,$1,$4,$5*1,1,$1,0-$2,0-$3*1,1,$1,0-$4,0-$5*20,1,$1,$2,$3,$4,$5,0*20,1,$1,$4,$5,0-$2,0-$3,0*20,1,$1,0-$2,0-$3,0-$4,0-$5,0*20,1,$1,0-$4,0-$5,$2,$3,0*4,1,4,$2,$3,$4,$5,0-$2,0-$3,0-$4,0-$5,$2,$3,0*%
%ADD10C,0.2032*%
%ADD11MACRO1,0.1016X0.7X-1X-0.7X-1*%
%ADD12MACRO1,0.1016X-0.4X-0.45X0.4X-0.45*%
%ADD13O,0.6755891999999999X2.4896064*%
%ADD14MACRO1,0.1016X0.432X0.4032X-0.432X0.4032*%
%ADD15MACRO1,0.1016X0.432X-0.4032X-0.432X-0.4032*%
%ADD16MACRO1,0.1016X0.4032X-0.432X0.4032X0.432*%
%ADD17MACRO1,0.1016X-0.4032X-0.432X-0.4032X0.432*%
%ADD18MACRO1,0.1016X-0.432X-0.4032X0.432X-0.4032*%
%ADD19MACRO1,0.1016X-0.432X0.4032X0.432X0.4032*%
%ADD20MACRO1,0.1016X-0.625X-0.35X0.625X-0.35*%
%ADD21MACRO1,0.1016X0.9X0.9X-0.9X0.9*%
%ADD22C,1.9016*%
%ADD23C,1.8532*%
%ADD24C,1.5016*%
%ADD25MACRO1,0.1016X0.762X-0.7X-0.762X-0.7*%
%ADD26C,0.0153*%

%LPD*%
D10*
X2746273Y11124163D02*
G01*
X2746273Y10980981D01*
X2794000Y11124163D02*
G01*
X2698546Y11124163D01*
X2653545Y11124163D02*
G01*
X2653545Y10980981D01*
X2653545Y11124163D02*
G01*
X2592181Y11124163D01*
X2571727Y11117346D01*
X2564909Y11110526D01*
X2558092Y11096891D01*
X2558092Y11083254D01*
X2564909Y11069617D01*
X2571727Y11062799D01*
X2592181Y11055982D01*
X2653545Y11055982D01*
X2605819Y11055982D02*
G01*
X2558092Y10980981D01*
X2458547Y11124163D02*
G01*
X2513091Y10980981D01*
X2458547Y11124163D02*
G01*
X2404000Y10980981D01*
X2492636Y11028707D02*
G01*
X2424455Y11028707D01*
X2359002Y11124163D02*
G01*
X2359002Y10980981D01*
X2359002Y11124163D02*
G01*
X2263546Y10980981D01*
X2263546Y11124163D02*
G01*
X2263546Y10980981D01*
X2123092Y11103709D02*
G01*
X2136729Y11117346D01*
X2157183Y11124163D01*
X2184455Y11124163D01*
X2204910Y11117346D01*
X2218547Y11103709D01*
X2218547Y11090071D01*
X2211727Y11076437D01*
X2204910Y11069617D01*
X2191273Y11062799D01*
X2150363Y11049162D01*
X2136729Y11042345D01*
X2129909Y11035527D01*
X2123092Y11021890D01*
X2123092Y11001435D01*
X2136729Y10987798D01*
X2157183Y10980981D01*
X2184455Y10980981D01*
X2204910Y10987798D01*
X2218547Y11001435D01*
X1973092Y11124163D02*
G01*
X1973092Y10980981D01*
X1973092Y11124163D02*
G01*
X1911728Y11124163D01*
X1891273Y11117346D01*
X1884456Y11110526D01*
X1877639Y11096891D01*
X1877639Y11083254D01*
X1884456Y11069617D01*
X1891273Y11062799D01*
X1911728Y11055982D01*
X1973092Y11055982D01*
X1925365Y11055982D02*
G01*
X1877639Y10980981D01*
X1832637Y11124163D02*
G01*
X1832637Y10980981D01*
X1685366Y11090071D02*
G01*
X1692183Y11103709D01*
X1705820Y11117346D01*
X1719455Y11124163D01*
X1746730Y11124163D01*
X1760364Y11117346D01*
X1774002Y11103709D01*
X1780819Y11090071D01*
X1787639Y11069617D01*
X1787639Y11035527D01*
X1780819Y11015073D01*
X1774002Y11001435D01*
X1760364Y10987798D01*
X1746730Y10980981D01*
X1719455Y10980981D01*
X1705820Y10987798D01*
X1692183Y11001435D01*
X1685366Y11015073D01*
X1685366Y11035527D01*
X1719455Y11035527D02*
G01*
X1685366Y11035527D01*
X1640365Y11124163D02*
G01*
X1640365Y10980981D01*
X1544911Y11124163D02*
G01*
X1544911Y10980981D01*
X1640365Y11055982D02*
G01*
X1544911Y11055982D01*
X1452184Y11124163D02*
G01*
X1452184Y10980981D01*
X1499910Y11124163D02*
G01*
X1404457Y11124163D01*
X1264003Y11103709D02*
G01*
X1277640Y11117346D01*
X1298094Y11124163D01*
X1325366Y11124163D01*
X1345821Y11117346D01*
X1359456Y11103709D01*
X1359456Y11090071D01*
X1352638Y11076437D01*
X1345821Y11069617D01*
X1332184Y11062799D01*
X1291275Y11049162D01*
X1277640Y11042345D01*
X1270820Y11035527D01*
X1264003Y11021890D01*
X1264003Y11001435D01*
X1277640Y10987798D01*
X1298094Y10980981D01*
X1325366Y10980981D01*
X1345821Y10987798D01*
X1359456Y11001435D01*
D11*
G01*
X1524000Y2514600D03*
G01*
X1778000Y2514600D03*
G01*
X3810000Y2514600D03*
G01*
X3556000Y2514600D03*
G01*
X3302000Y2514600D03*
G01*
X3048000Y2514600D03*
G01*
X2794000Y2514600D03*
G01*
X254000Y2514600D03*
G01*
X508000Y2514600D03*
G01*
X762000Y2514600D03*
G01*
X1016000Y2514600D03*
G01*
X1270000Y2514600D03*
G01*
X2032000Y2514600D03*
G01*
X2286000Y2514600D03*
G01*
X2540000Y2514600D03*
D12*
G01*
X2838599Y7708900D03*
G01*
X2698600Y7708900D03*
D13*
G01*
X1231900Y7446695D03*
G01*
X1358900Y7446695D03*
G01*
X1485900Y7446695D03*
G01*
X1612900Y7446695D03*
G01*
X1739900Y7446695D03*
G01*
X1866900Y7446695D03*
G01*
X1993900Y7446695D03*
G01*
X2120900Y7446695D03*
G01*
X2247900Y7446695D03*
G01*
X2374900Y7446695D03*
G01*
X2501900Y7446695D03*
G01*
X2628900Y7446695D03*
G01*
X2755900Y7446695D03*
G01*
X2882900Y7446695D03*
G01*
X1231900Y6497904D03*
G01*
X1358900Y6497904D03*
G01*
X1485900Y6497904D03*
G01*
X1612900Y6497904D03*
G01*
X1739900Y6497904D03*
G01*
X1866900Y6497904D03*
G01*
X1993900Y6497904D03*
G01*
X2120900Y6497904D03*
G01*
X2247900Y6497904D03*
G01*
X2374900Y6497904D03*
G01*
X2501900Y6497904D03*
G01*
X2628900Y6497904D03*
G01*
X2755900Y6497904D03*
G01*
X2882900Y6497904D03*
D14*
G01*
X2654300Y3264775D03*
D15*
G01*
X2654300Y3415424D03*
D14*
G01*
X2819400Y3264775D03*
D15*
G01*
X2819400Y3415424D03*
D16*
G01*
X1359775Y9817100D03*
D17*
G01*
X1510424Y9817100D03*
D16*
G01*
X2553575Y9817100D03*
D17*
G01*
X2704224Y9817100D03*
D16*
G01*
X1728075Y8737600D03*
D17*
G01*
X1878724Y8737600D03*
D16*
G01*
X2032875Y8737600D03*
D17*
G01*
X2183524Y8737600D03*
D16*
G01*
X1728075Y5219700D03*
D17*
G01*
X1878724Y5219700D03*
D16*
G01*
X2032875Y5219700D03*
D17*
G01*
X2183524Y5219700D03*
D16*
G01*
X1728075Y2933700D03*
D17*
G01*
X1878724Y2933700D03*
D16*
G01*
X2032875Y2933700D03*
D17*
G01*
X2183524Y2933700D03*
D16*
G01*
X3112375Y9004300D03*
D17*
G01*
X3263024Y9004300D03*
D18*
G01*
X3797300Y9092324D03*
D19*
G01*
X3797300Y8941675D03*
D20*
G01*
X3630599Y9099296D03*
G01*
X3630599Y8909305D03*
G01*
X3430600Y9004301D03*
D16*
G01*
X3112375Y9359900D03*
D17*
G01*
X3263024Y9359900D03*
D18*
G01*
X3797300Y9447924D03*
D19*
G01*
X3797300Y9297275D03*
D20*
G01*
X3630599Y9454896D03*
G01*
X3630599Y9264905D03*
G01*
X3430600Y9359901D03*
G01*
X3630599Y7168896D03*
G01*
X3630599Y6978905D03*
G01*
X3430600Y7073901D03*
D18*
G01*
X3797300Y7161924D03*
D19*
G01*
X3797300Y7011275D03*
D16*
G01*
X3112375Y7073900D03*
D17*
G01*
X3263024Y7073900D03*
D20*
G01*
X3630599Y6813296D03*
G01*
X3630599Y6623305D03*
G01*
X3430600Y6718301D03*
D18*
G01*
X3797300Y6806324D03*
D19*
G01*
X3797300Y6655675D03*
D16*
G01*
X3112375Y6718300D03*
D17*
G01*
X3263024Y6718300D03*
D20*
G01*
X836599Y9467596D03*
G01*
X836599Y9277605D03*
G01*
X636600Y9372601D03*
D18*
G01*
X1003300Y9460624D03*
D19*
G01*
X1003300Y9309975D03*
D16*
G01*
X318375Y9372600D03*
D17*
G01*
X469024Y9372600D03*
D20*
G01*
X836599Y9111996D03*
G01*
X836599Y8922005D03*
G01*
X636600Y9017001D03*
D18*
G01*
X1003300Y9105024D03*
D19*
G01*
X1003300Y8954375D03*
D16*
G01*
X318375Y9017000D03*
D17*
G01*
X469024Y9017000D03*
D16*
G01*
X318375Y6731000D03*
D17*
G01*
X469024Y6731000D03*
D18*
G01*
X1003300Y6819024D03*
D19*
G01*
X1003300Y6668375D03*
D20*
G01*
X836599Y6825996D03*
G01*
X836599Y6636005D03*
G01*
X636600Y6731001D03*
D16*
G01*
X318375Y7086600D03*
D17*
G01*
X469024Y7086600D03*
D18*
G01*
X1003300Y7174624D03*
D19*
G01*
X1003300Y7023975D03*
D20*
G01*
X836599Y7181596D03*
G01*
X836599Y6991605D03*
G01*
X636600Y7086601D03*
D21*
G01*
X2946394Y4495789D03*
D22*
G01*
X2946400Y4749800D03*
G01*
X2692400Y4495800D03*
G01*
X2692400Y4749800D03*
G01*
X2438400Y4495800D03*
G01*
X2438400Y4749800D03*
G01*
X2184400Y4495800D03*
G01*
X2184400Y4749800D03*
G01*
X1930400Y4495800D03*
G01*
X1930400Y4749800D03*
G01*
X1676400Y4495800D03*
G01*
X1676400Y4749800D03*
G01*
X1422400Y4495800D03*
G01*
X1422400Y4749800D03*
G01*
X1168400Y4495800D03*
G01*
X1168400Y4749800D03*
D23*
G01*
X2362200Y10185374D03*
G01*
X1712188Y10185374D03*
G01*
X2362200Y10635386D03*
G01*
X1712188Y10635386D03*
G01*
X2037206Y10770362D03*
G01*
X2397201Y10410367D03*
G01*
X2057400Y10058374D03*
G01*
X1676400Y10413974D03*
G01*
X2362200Y7899374D03*
G01*
X1712188Y7899374D03*
G01*
X2362200Y8349386D03*
G01*
X1712188Y8349386D03*
G01*
X2037206Y8484362D03*
G01*
X2397201Y8124367D03*
G01*
X2057400Y7772374D03*
G01*
X1676400Y8127974D03*
G01*
X2362200Y5613400D03*
G01*
X1712188Y5613400D03*
G01*
X2362200Y6063411D03*
G01*
X1712188Y6063411D03*
G01*
X2037206Y6198387D03*
G01*
X2397201Y5838393D03*
G01*
X2057400Y5486400D03*
G01*
X1676400Y5842000D03*
G01*
X2362200Y3327400D03*
G01*
X1712188Y3327400D03*
G01*
X2362200Y3777411D03*
G01*
X1712188Y3777411D03*
G01*
X2037206Y3912387D03*
G01*
X2397201Y3552393D03*
G01*
X2057400Y3200400D03*
G01*
X1676400Y3556000D03*
G01*
X635000Y10913973D03*
G01*
X635000Y10063987D03*
G01*
X635000Y9763963D03*
G01*
X635000Y8627973D03*
G01*
X635000Y7777987D03*
G01*
X635000Y7477963D03*
G01*
X635000Y6341973D03*
G01*
X635000Y5491987D03*
G01*
X635000Y5191963D03*
G01*
X635000Y4055998D03*
G01*
X635000Y3206013D03*
G01*
X635000Y2905988D03*
G01*
X3429000Y10901273D03*
G01*
X3429000Y10051287D03*
G01*
X3429000Y9751263D03*
G01*
X3429000Y8615273D03*
G01*
X3429000Y7765287D03*
G01*
X3429000Y7465263D03*
G01*
X3429000Y6329273D03*
G01*
X3429000Y5479287D03*
G01*
X3429000Y5179263D03*
G01*
X3429000Y4043298D03*
G01*
X3429000Y3193313D03*
G01*
X3429000Y2893288D03*
D24*
G01*
X1732000Y11302974D03*
G01*
X1932000Y11302974D03*
G01*
X2131999Y11302974D03*
D25*
G01*
X2331994Y11302977D03*
M02*
