G04 Layer: TopSilkscreenLayer*
G04 EasyEDA v6.5.29, 2023-07-19 21:55:29*
G04 cd10bac7ed824a03a08366421e07836e,5a6b42c53f6a479593ecc07194224c93,10*
G04 Gerber Generator version 0.2*
G04 Scale: 100 percent, Rotated: No, Reflected: No *
G04 Dimensions in millimeters *
G04 leading zeros omitted , absolute positions ,4 integer and 5 decimal *
%FSLAX45Y45*%
%MOMM*%

%ADD10C,0.2032*%
%ADD11C,0.1524*%
%ADD12C,0.1999*%
%ADD13C,0.1270*%
%ADD14C,0.2540*%
%ADD15C,0.0105*%

%LPD*%
D10*
X317500Y11843258D02*
G01*
X317500Y11728704D01*
X317500Y11843258D02*
G01*
X393954Y11728704D01*
X393954Y11843258D02*
G01*
X393954Y11728704D01*
X473455Y11843258D02*
G01*
X429768Y11728704D01*
X473455Y11843258D02*
G01*
X517144Y11728704D01*
X446278Y11766804D02*
G01*
X500887Y11766804D01*
X553212Y11843258D02*
G01*
X553212Y11728704D01*
X553212Y11843258D02*
G01*
X629412Y11728704D01*
X629412Y11843258D02*
G01*
X629412Y11728704D01*
X698245Y11843258D02*
G01*
X687324Y11837670D01*
X676402Y11826747D01*
X671068Y11815826D01*
X665479Y11799570D01*
X665479Y11772392D01*
X671068Y11755881D01*
X676402Y11744960D01*
X687324Y11734037D01*
X698245Y11728704D01*
X720090Y11728704D01*
X731011Y11734037D01*
X741934Y11744960D01*
X747268Y11755881D01*
X752856Y11772392D01*
X752856Y11799570D01*
X747268Y11815826D01*
X741934Y11826747D01*
X731011Y11837670D01*
X720090Y11843258D01*
X698245Y11843258D01*
X788670Y11843258D02*
G01*
X788670Y11728704D01*
X788670Y11843258D02*
G01*
X832358Y11728704D01*
X876045Y11843258D02*
G01*
X832358Y11728704D01*
X876045Y11843258D02*
G01*
X876045Y11728704D01*
X912113Y11843258D02*
G01*
X912113Y11728704D01*
X991615Y11843258D02*
G01*
X947927Y11728704D01*
X991615Y11843258D02*
G01*
X1035304Y11728704D01*
X964438Y11766804D02*
G01*
X1019047Y11766804D01*
X1237234Y11815826D02*
G01*
X1231645Y11826747D01*
X1220724Y11837670D01*
X1209802Y11843258D01*
X1187958Y11843258D01*
X1177036Y11837670D01*
X1166113Y11826747D01*
X1160779Y11815826D01*
X1155191Y11799570D01*
X1155191Y11772392D01*
X1160779Y11755881D01*
X1166113Y11744960D01*
X1177036Y11734037D01*
X1187958Y11728704D01*
X1209802Y11728704D01*
X1220724Y11734037D01*
X1231645Y11744960D01*
X1237234Y11755881D01*
X1237234Y11772392D01*
X1209802Y11772392D02*
G01*
X1237234Y11772392D01*
X1316736Y11843258D02*
G01*
X1273047Y11728704D01*
X1316736Y11843258D02*
G01*
X1360424Y11728704D01*
X1289558Y11766804D02*
G01*
X1344168Y11766804D01*
X1434591Y11843258D02*
G01*
X1434591Y11728704D01*
X1396491Y11843258D02*
G01*
X1472691Y11843258D01*
X1508759Y11843258D02*
G01*
X1508759Y11728704D01*
X1508759Y11843258D02*
G01*
X1579625Y11843258D01*
X1508759Y11788647D02*
G01*
X1552447Y11788647D01*
X1508759Y11728704D02*
G01*
X1579625Y11728704D01*
X1615693Y11843258D02*
G01*
X1642872Y11728704D01*
X1670304Y11843258D02*
G01*
X1642872Y11728704D01*
X1670304Y11843258D02*
G01*
X1697481Y11728704D01*
X1724659Y11843258D02*
G01*
X1697481Y11728704D01*
X1804415Y11843258D02*
G01*
X1760727Y11728704D01*
X1804415Y11843258D02*
G01*
X1848104Y11728704D01*
X1777238Y11766804D02*
G01*
X1831593Y11766804D01*
X1883918Y11843258D02*
G01*
X1927606Y11788647D01*
X1927606Y11728704D01*
X1971293Y11843258D02*
G01*
X1927606Y11788647D01*
X2091436Y11843258D02*
G01*
X2091436Y11728704D01*
X2091436Y11843258D02*
G01*
X2134870Y11728704D01*
X2178558Y11843258D02*
G01*
X2134870Y11728704D01*
X2178558Y11843258D02*
G01*
X2178558Y11728704D01*
X2258313Y11843258D02*
G01*
X2214625Y11728704D01*
X2258313Y11843258D02*
G01*
X2301747Y11728704D01*
X2230881Y11766804D02*
G01*
X2285491Y11766804D01*
X2337815Y11843258D02*
G01*
X2337815Y11728704D01*
X2373884Y11843258D02*
G01*
X2373884Y11728704D01*
X2373884Y11843258D02*
G01*
X2450338Y11728704D01*
X2450338Y11843258D02*
G01*
X2450338Y11728704D01*
X2570225Y11843258D02*
G01*
X2570225Y11728704D01*
X2570225Y11843258D02*
G01*
X2619247Y11843258D01*
X2635758Y11837670D01*
X2641091Y11832336D01*
X2646679Y11821413D01*
X2646679Y11810492D01*
X2641091Y11799570D01*
X2635758Y11793981D01*
X2619247Y11788647D01*
X2570225Y11788647D02*
G01*
X2619247Y11788647D01*
X2635758Y11783313D01*
X2641091Y11777726D01*
X2646679Y11766804D01*
X2646679Y11750547D01*
X2641091Y11739626D01*
X2635758Y11734037D01*
X2619247Y11728704D01*
X2570225Y11728704D01*
X2715259Y11843258D02*
G01*
X2704338Y11837670D01*
X2693415Y11826747D01*
X2688081Y11815826D01*
X2682493Y11799570D01*
X2682493Y11772392D01*
X2688081Y11755881D01*
X2693415Y11744960D01*
X2704338Y11734037D01*
X2715259Y11728704D01*
X2737104Y11728704D01*
X2748025Y11734037D01*
X2758947Y11744960D01*
X2764281Y11755881D01*
X2769870Y11772392D01*
X2769870Y11799570D01*
X2764281Y11815826D01*
X2758947Y11826747D01*
X2748025Y11837670D01*
X2737104Y11843258D01*
X2715259Y11843258D01*
X2849372Y11843258D02*
G01*
X2805938Y11728704D01*
X2849372Y11843258D02*
G01*
X2893059Y11728704D01*
X2822193Y11766804D02*
G01*
X2876804Y11766804D01*
X2929127Y11843258D02*
G01*
X2929127Y11728704D01*
X2929127Y11843258D02*
G01*
X2978150Y11843258D01*
X2994659Y11837670D01*
X2999993Y11832336D01*
X3005581Y11821413D01*
X3005581Y11810492D01*
X2999993Y11799570D01*
X2994659Y11793981D01*
X2978150Y11788647D01*
X2929127Y11788647D01*
X2967227Y11788647D02*
G01*
X3005581Y11728704D01*
X3041395Y11843258D02*
G01*
X3041395Y11728704D01*
X3041395Y11843258D02*
G01*
X3079750Y11843258D01*
X3096006Y11837670D01*
X3106927Y11826747D01*
X3112515Y11815826D01*
X3117850Y11799570D01*
X3117850Y11772392D01*
X3112515Y11755881D01*
X3106927Y11744960D01*
X3096006Y11734037D01*
X3079750Y11728704D01*
X3041395Y11728704D01*
X3237738Y11777726D02*
G01*
X3336036Y11777726D01*
X3494277Y11843258D02*
G01*
X3494277Y11728704D01*
X3455924Y11843258D02*
G01*
X3532377Y11843258D01*
X3601211Y11843258D02*
G01*
X3590290Y11837670D01*
X3579368Y11826747D01*
X3573779Y11815826D01*
X3568445Y11799570D01*
X3568445Y11772392D01*
X3573779Y11755881D01*
X3579368Y11744960D01*
X3590290Y11734037D01*
X3601211Y11728704D01*
X3623056Y11728704D01*
X3633977Y11734037D01*
X3644645Y11744960D01*
X3650234Y11755881D01*
X3655568Y11772392D01*
X3655568Y11799570D01*
X3650234Y11815826D01*
X3644645Y11826747D01*
X3633977Y11837670D01*
X3623056Y11843258D01*
X3601211Y11843258D01*
X3691636Y11843258D02*
G01*
X3691636Y11728704D01*
X3691636Y11843258D02*
G01*
X3740658Y11843258D01*
X3757168Y11837670D01*
X3762502Y11832336D01*
X3768090Y11821413D01*
X3768090Y11804904D01*
X3762502Y11793981D01*
X3757168Y11788647D01*
X3740658Y11783313D01*
X3691636Y11783313D01*
X685800Y11652758D02*
G01*
X685800Y11538204D01*
X685800Y11652758D02*
G01*
X734822Y11652758D01*
X751331Y11647170D01*
X756665Y11641836D01*
X762254Y11630913D01*
X762254Y11614404D01*
X756665Y11603481D01*
X751331Y11598147D01*
X734822Y11592813D01*
X685800Y11592813D01*
X841756Y11652758D02*
G01*
X798068Y11538204D01*
X841756Y11652758D02*
G01*
X885443Y11538204D01*
X814577Y11576304D02*
G01*
X869188Y11576304D01*
X921511Y11652758D02*
G01*
X921511Y11538204D01*
X921511Y11652758D02*
G01*
X970534Y11652758D01*
X986790Y11647170D01*
X992377Y11641836D01*
X997711Y11630913D01*
X997711Y11619992D01*
X992377Y11609070D01*
X986790Y11603481D01*
X970534Y11598147D01*
X921511Y11598147D01*
X959611Y11598147D02*
G01*
X997711Y11538204D01*
X1071879Y11652758D02*
G01*
X1071879Y11538204D01*
X1033779Y11652758D02*
G01*
X1110234Y11652758D01*
X1230122Y11652758D02*
G01*
X1230122Y11538204D01*
X1230122Y11652758D02*
G01*
X1306575Y11538204D01*
X1306575Y11652758D02*
G01*
X1306575Y11538204D01*
X1342643Y11652758D02*
G01*
X1342643Y11570970D01*
X1347977Y11554460D01*
X1358900Y11543537D01*
X1375156Y11538204D01*
X1386077Y11538204D01*
X1402588Y11543537D01*
X1413509Y11554460D01*
X1418843Y11570970D01*
X1418843Y11652758D01*
X1454911Y11652758D02*
G01*
X1454911Y11538204D01*
X1454911Y11652758D02*
G01*
X1498600Y11538204D01*
X1542288Y11652758D02*
G01*
X1498600Y11538204D01*
X1542288Y11652758D02*
G01*
X1542288Y11538204D01*
X1578102Y11652758D02*
G01*
X1578102Y11538204D01*
X1578102Y11652758D02*
G01*
X1627377Y11652758D01*
X1643634Y11647170D01*
X1648968Y11641836D01*
X1654556Y11630913D01*
X1654556Y11619992D01*
X1648968Y11609070D01*
X1643634Y11603481D01*
X1627377Y11598147D01*
X1578102Y11598147D02*
G01*
X1627377Y11598147D01*
X1643634Y11592813D01*
X1648968Y11587226D01*
X1654556Y11576304D01*
X1654556Y11560047D01*
X1648968Y11549126D01*
X1643634Y11543537D01*
X1627377Y11538204D01*
X1578102Y11538204D01*
X1690624Y11652758D02*
G01*
X1690624Y11538204D01*
X1690624Y11652758D02*
G01*
X1761490Y11652758D01*
X1690624Y11598147D02*
G01*
X1734058Y11598147D01*
X1690624Y11538204D02*
G01*
X1761490Y11538204D01*
X1797558Y11652758D02*
G01*
X1797558Y11538204D01*
X1797558Y11652758D02*
G01*
X1846579Y11652758D01*
X1862836Y11647170D01*
X1868424Y11641836D01*
X1873758Y11630913D01*
X1873758Y11619992D01*
X1868424Y11609070D01*
X1862836Y11603481D01*
X1846579Y11598147D01*
X1797558Y11598147D01*
X1835658Y11598147D02*
G01*
X1873758Y11538204D01*
X1999234Y11625326D02*
G01*
X1999234Y11630913D01*
X2004822Y11641836D01*
X2010156Y11647170D01*
X2021077Y11652758D01*
X2042922Y11652758D01*
X2053843Y11647170D01*
X2059177Y11641836D01*
X2064765Y11630913D01*
X2064765Y11619992D01*
X2059177Y11609070D01*
X2048256Y11592813D01*
X1993900Y11538204D01*
X2070100Y11538204D01*
X2160777Y11652758D02*
G01*
X2106168Y11576304D01*
X2187956Y11576304D01*
X2160777Y11652758D02*
G01*
X2160777Y11538204D01*
X2300224Y11652758D02*
G01*
X2245868Y11538204D01*
X2224024Y11652758D02*
G01*
X2300224Y11652758D01*
X2369058Y11652758D02*
G01*
X2352802Y11647170D01*
X2341879Y11630913D01*
X2336291Y11603481D01*
X2336291Y11587226D01*
X2341879Y11560047D01*
X2352802Y11543537D01*
X2369058Y11538204D01*
X2379979Y11538204D01*
X2396236Y11543537D01*
X2407158Y11560047D01*
X2412745Y11587226D01*
X2412745Y11603481D01*
X2407158Y11630913D01*
X2396236Y11647170D01*
X2379979Y11652758D01*
X2369058Y11652758D01*
X2448813Y11587226D02*
G01*
X2546858Y11587226D01*
X2615691Y11652758D02*
G01*
X2599181Y11647170D01*
X2588259Y11630913D01*
X2582925Y11603481D01*
X2582925Y11587226D01*
X2588259Y11560047D01*
X2599181Y11543537D01*
X2615691Y11538204D01*
X2626613Y11538204D01*
X2642870Y11543537D01*
X2653791Y11560047D01*
X2659125Y11587226D01*
X2659125Y11603481D01*
X2653791Y11630913D01*
X2642870Y11647170D01*
X2626613Y11652758D01*
X2615691Y11652758D01*
X2749804Y11652758D02*
G01*
X2695193Y11576304D01*
X2776981Y11576304D01*
X2749804Y11652758D02*
G01*
X2749804Y11538204D01*
X2845815Y11652758D02*
G01*
X2829306Y11647170D01*
X2818638Y11630913D01*
X2813050Y11603481D01*
X2813050Y11587226D01*
X2818638Y11560047D01*
X2829306Y11543537D01*
X2845815Y11538204D01*
X2856738Y11538204D01*
X2872993Y11543537D01*
X2883915Y11560047D01*
X2889504Y11587226D01*
X2889504Y11603481D01*
X2883915Y11630913D01*
X2872993Y11647170D01*
X2856738Y11652758D01*
X2845815Y11652758D01*
X2925318Y11630913D02*
G01*
X2936240Y11636247D01*
X2952750Y11652758D01*
X2952750Y11538204D01*
X3072638Y11652758D02*
G01*
X3116325Y11538204D01*
X3160013Y11652758D02*
G01*
X3116325Y11538204D01*
X3228593Y11652758D02*
G01*
X3212338Y11647170D01*
X3201415Y11630913D01*
X3196081Y11603481D01*
X3196081Y11587226D01*
X3201415Y11560047D01*
X3212338Y11543537D01*
X3228593Y11538204D01*
X3239515Y11538204D01*
X3256025Y11543537D01*
X3266947Y11560047D01*
X3272281Y11587226D01*
X3272281Y11603481D01*
X3266947Y11630913D01*
X3256025Y11647170D01*
X3239515Y11652758D01*
X3228593Y11652758D01*
X3313684Y11565381D02*
G01*
X3308350Y11560047D01*
X3313684Y11554460D01*
X3319272Y11560047D01*
X3313684Y11565381D01*
X3360674Y11625326D02*
G01*
X3360674Y11630913D01*
X3366261Y11641836D01*
X3371595Y11647170D01*
X3382518Y11652758D01*
X3404361Y11652758D01*
X3415284Y11647170D01*
X3420618Y11641836D01*
X3426206Y11630913D01*
X3426206Y11619992D01*
X3420618Y11609070D01*
X3409695Y11592813D01*
X3355340Y11538204D01*
X3431540Y11538204D01*
D11*
X1422648Y10895055D02*
G01*
X1413504Y10903945D01*
X1399788Y10908517D01*
X1381500Y10908517D01*
X1368038Y10903945D01*
X1358894Y10895055D01*
X1358894Y10885911D01*
X1363466Y10876767D01*
X1368038Y10872195D01*
X1377182Y10867623D01*
X1404360Y10858479D01*
X1413504Y10854161D01*
X1418076Y10849589D01*
X1422648Y10840445D01*
X1422648Y10826729D01*
X1413504Y10817585D01*
X1399788Y10813013D01*
X1381500Y10813013D01*
X1368038Y10817585D01*
X1358894Y10826729D01*
X1452620Y10890483D02*
G01*
X1461510Y10895055D01*
X1475226Y10908517D01*
X1475226Y10813013D01*
X1384548Y8609037D02*
G01*
X1375404Y8617927D01*
X1361688Y8622499D01*
X1343400Y8622499D01*
X1329938Y8617927D01*
X1320794Y8609037D01*
X1320794Y8599893D01*
X1325366Y8590749D01*
X1329938Y8586177D01*
X1339082Y8581605D01*
X1366260Y8572715D01*
X1375404Y8568143D01*
X1379976Y8563571D01*
X1384548Y8554427D01*
X1384548Y8540711D01*
X1375404Y8531567D01*
X1361688Y8527249D01*
X1343400Y8527249D01*
X1329938Y8531567D01*
X1320794Y8540711D01*
X1419092Y8599893D02*
G01*
X1419092Y8604465D01*
X1423410Y8613609D01*
X1427982Y8617927D01*
X1437126Y8622499D01*
X1455414Y8622499D01*
X1464304Y8617927D01*
X1468876Y8613609D01*
X1473448Y8604465D01*
X1473448Y8595321D01*
X1468876Y8586177D01*
X1459986Y8572715D01*
X1414520Y8527249D01*
X1478020Y8527249D01*
X1384548Y6323042D02*
G01*
X1375404Y6331932D01*
X1361688Y6336504D01*
X1343400Y6336504D01*
X1329938Y6331932D01*
X1320794Y6323042D01*
X1320794Y6313898D01*
X1325366Y6304754D01*
X1329938Y6300182D01*
X1339082Y6295610D01*
X1366260Y6286720D01*
X1375404Y6282148D01*
X1379976Y6277576D01*
X1384548Y6268432D01*
X1384548Y6254716D01*
X1375404Y6245572D01*
X1361688Y6241254D01*
X1343400Y6241254D01*
X1329938Y6245572D01*
X1320794Y6254716D01*
X1423410Y6336504D02*
G01*
X1473448Y6336504D01*
X1446270Y6300182D01*
X1459986Y6300182D01*
X1468876Y6295610D01*
X1473448Y6291038D01*
X1478020Y6277576D01*
X1478020Y6268432D01*
X1473448Y6254716D01*
X1464304Y6245572D01*
X1450842Y6241254D01*
X1437126Y6241254D01*
X1423410Y6245572D01*
X1419092Y6250144D01*
X1414520Y6259288D01*
X1384548Y4037045D02*
G01*
X1375404Y4045935D01*
X1361688Y4050507D01*
X1343400Y4050507D01*
X1329938Y4045935D01*
X1320794Y4037045D01*
X1320794Y4027901D01*
X1325366Y4018757D01*
X1329938Y4014185D01*
X1339082Y4009613D01*
X1366260Y4000723D01*
X1375404Y3996151D01*
X1379976Y3991579D01*
X1384548Y3982435D01*
X1384548Y3968719D01*
X1375404Y3959575D01*
X1361688Y3955257D01*
X1343400Y3955257D01*
X1329938Y3959575D01*
X1320794Y3968719D01*
X1459986Y4050507D02*
G01*
X1414520Y3987007D01*
X1482592Y3987007D01*
X1459986Y4050507D02*
G01*
X1459986Y3955257D01*
X215981Y9918029D02*
G01*
X215981Y9822525D01*
X245953Y9918029D02*
G01*
X245953Y9822525D01*
X245953Y9918029D02*
G01*
X309453Y9822525D01*
X309453Y9918029D02*
G01*
X309453Y9822525D01*
X339425Y9899741D02*
G01*
X348569Y9904313D01*
X362285Y9918029D01*
X362285Y9822525D01*
X215900Y7631922D02*
G01*
X215900Y7536418D01*
X245871Y7631922D02*
G01*
X245871Y7536418D01*
X245871Y7631922D02*
G01*
X309626Y7536418D01*
X309626Y7631922D02*
G01*
X309626Y7536418D01*
X344170Y7609316D02*
G01*
X344170Y7613888D01*
X348742Y7622778D01*
X353060Y7627350D01*
X362204Y7631922D01*
X380492Y7631922D01*
X389636Y7627350D01*
X393954Y7622778D01*
X398526Y7613888D01*
X398526Y7604744D01*
X393954Y7595600D01*
X385063Y7581884D01*
X339597Y7536418D01*
X403097Y7536418D01*
X215900Y5345925D02*
G01*
X215900Y5250421D01*
X245871Y5345925D02*
G01*
X245871Y5250421D01*
X245871Y5345925D02*
G01*
X309626Y5250421D01*
X309626Y5345925D02*
G01*
X309626Y5250421D01*
X348742Y5345925D02*
G01*
X398526Y5345925D01*
X371347Y5309603D01*
X385063Y5309603D01*
X393954Y5305031D01*
X398526Y5300459D01*
X403097Y5286997D01*
X403097Y5277853D01*
X398526Y5264137D01*
X389636Y5254993D01*
X375920Y5250421D01*
X362204Y5250421D01*
X348742Y5254993D01*
X344170Y5259565D01*
X339597Y5268709D01*
X215900Y3059930D02*
G01*
X215900Y2964426D01*
X245871Y3059930D02*
G01*
X245871Y2964426D01*
X245871Y3059930D02*
G01*
X309626Y2964426D01*
X309626Y3059930D02*
G01*
X309626Y2964426D01*
X385063Y3059930D02*
G01*
X339597Y2996430D01*
X407670Y2996430D01*
X385063Y3059930D02*
G01*
X385063Y2964426D01*
X3037070Y9905217D02*
G01*
X3028180Y9900645D01*
X3019036Y9891755D01*
X3014464Y9882611D01*
X3009892Y9868895D01*
X3009892Y9846289D01*
X3014464Y9832573D01*
X3019036Y9823429D01*
X3028180Y9814285D01*
X3037070Y9809713D01*
X3055358Y9809713D01*
X3064502Y9814285D01*
X3073392Y9823429D01*
X3077964Y9832573D01*
X3082536Y9846289D01*
X3082536Y9868895D01*
X3077964Y9882611D01*
X3073392Y9891755D01*
X3064502Y9900645D01*
X3055358Y9905217D01*
X3037070Y9905217D01*
X3112508Y9905217D02*
G01*
X3112508Y9837145D01*
X3117080Y9823429D01*
X3126224Y9814285D01*
X3139940Y9809713D01*
X3149084Y9809713D01*
X3162546Y9814285D01*
X3171690Y9823429D01*
X3176262Y9837145D01*
X3176262Y9905217D01*
X3237984Y9905217D02*
G01*
X3237984Y9809713D01*
X3206234Y9905217D02*
G01*
X3269988Y9905217D01*
X3299960Y9887183D02*
G01*
X3308850Y9891755D01*
X3322566Y9905217D01*
X3322566Y9809713D01*
X3037070Y7619222D02*
G01*
X3028180Y7614650D01*
X3019036Y7605760D01*
X3014464Y7596616D01*
X3009892Y7582900D01*
X3009892Y7560294D01*
X3014464Y7546578D01*
X3019036Y7537434D01*
X3028180Y7528290D01*
X3037070Y7523718D01*
X3055358Y7523718D01*
X3064502Y7528290D01*
X3073392Y7537434D01*
X3077964Y7546578D01*
X3082536Y7560294D01*
X3082536Y7582900D01*
X3077964Y7596616D01*
X3073392Y7605760D01*
X3064502Y7614650D01*
X3055358Y7619222D01*
X3037070Y7619222D01*
X3112508Y7619222D02*
G01*
X3112508Y7551150D01*
X3117080Y7537434D01*
X3126224Y7528290D01*
X3139940Y7523718D01*
X3149084Y7523718D01*
X3162546Y7528290D01*
X3171690Y7537434D01*
X3176262Y7551150D01*
X3176262Y7619222D01*
X3237984Y7619222D02*
G01*
X3237984Y7523718D01*
X3206234Y7619222D02*
G01*
X3269988Y7619222D01*
X3304532Y7596616D02*
G01*
X3304532Y7601188D01*
X3308850Y7610078D01*
X3313422Y7614650D01*
X3322566Y7619222D01*
X3340854Y7619222D01*
X3349998Y7614650D01*
X3354316Y7610078D01*
X3358888Y7601188D01*
X3358888Y7592044D01*
X3354316Y7582900D01*
X3345426Y7569184D01*
X3299960Y7523718D01*
X3363460Y7523718D01*
X3037070Y5333225D02*
G01*
X3028180Y5328653D01*
X3019036Y5319763D01*
X3014464Y5310619D01*
X3009892Y5296903D01*
X3009892Y5274297D01*
X3014464Y5260581D01*
X3019036Y5251437D01*
X3028180Y5242293D01*
X3037070Y5237721D01*
X3055358Y5237721D01*
X3064502Y5242293D01*
X3073392Y5251437D01*
X3077964Y5260581D01*
X3082536Y5274297D01*
X3082536Y5296903D01*
X3077964Y5310619D01*
X3073392Y5319763D01*
X3064502Y5328653D01*
X3055358Y5333225D01*
X3037070Y5333225D01*
X3112508Y5333225D02*
G01*
X3112508Y5265153D01*
X3117080Y5251437D01*
X3126224Y5242293D01*
X3139940Y5237721D01*
X3149084Y5237721D01*
X3162546Y5242293D01*
X3171690Y5251437D01*
X3176262Y5265153D01*
X3176262Y5333225D01*
X3237984Y5333225D02*
G01*
X3237984Y5237721D01*
X3206234Y5333225D02*
G01*
X3269988Y5333225D01*
X3308850Y5333225D02*
G01*
X3358888Y5333225D01*
X3331710Y5296903D01*
X3345426Y5296903D01*
X3354316Y5292331D01*
X3358888Y5287759D01*
X3363460Y5274297D01*
X3363460Y5265153D01*
X3358888Y5251437D01*
X3349998Y5242293D01*
X3336282Y5237721D01*
X3322566Y5237721D01*
X3308850Y5242293D01*
X3304532Y5246865D01*
X3299960Y5256009D01*
X3037070Y3047230D02*
G01*
X3028180Y3042658D01*
X3019036Y3033768D01*
X3014464Y3024624D01*
X3009892Y3010908D01*
X3009892Y2988302D01*
X3014464Y2974586D01*
X3019036Y2965442D01*
X3028180Y2956298D01*
X3037070Y2951726D01*
X3055358Y2951726D01*
X3064502Y2956298D01*
X3073392Y2965442D01*
X3077964Y2974586D01*
X3082536Y2988302D01*
X3082536Y3010908D01*
X3077964Y3024624D01*
X3073392Y3033768D01*
X3064502Y3042658D01*
X3055358Y3047230D01*
X3037070Y3047230D01*
X3112508Y3047230D02*
G01*
X3112508Y2979158D01*
X3117080Y2965442D01*
X3126224Y2956298D01*
X3139940Y2951726D01*
X3149084Y2951726D01*
X3162546Y2956298D01*
X3171690Y2965442D01*
X3176262Y2979158D01*
X3176262Y3047230D01*
X3237984Y3047230D02*
G01*
X3237984Y2951726D01*
X3206234Y3047230D02*
G01*
X3269988Y3047230D01*
X3345426Y3047230D02*
G01*
X3299960Y2983730D01*
X3368032Y2983730D01*
X3345426Y3047230D02*
G01*
X3345426Y2951726D01*
X1499750Y11367515D02*
G01*
X1499750Y11284389D01*
X1494553Y11268801D01*
X1489359Y11263607D01*
X1478968Y11258412D01*
X1468577Y11258412D01*
X1458186Y11263607D01*
X1452989Y11268801D01*
X1447794Y11284389D01*
X1447794Y11294780D01*
X1534040Y11346733D02*
G01*
X1544429Y11351930D01*
X1560017Y11367515D01*
X1560017Y11258412D01*
D12*
X1537202Y10910295D02*
G01*
X1537202Y9910297D01*
X2537200Y9910297D01*
X2537200Y10910295D01*
X1537202Y10910295D01*
X1537202Y8624300D02*
G01*
X1537202Y7624302D01*
X2537200Y7624302D01*
X2537200Y8624300D01*
X1537202Y8624300D01*
X1537202Y6338305D02*
G01*
X1537202Y5338307D01*
X2537200Y5338307D01*
X2537200Y6338305D01*
X1537202Y6338305D01*
X1537202Y4052308D02*
G01*
X1537202Y3052310D01*
X2537200Y3052310D01*
X2537200Y4052308D01*
X1537202Y4052308D01*
D13*
X1084986Y11013978D02*
G01*
X1084986Y9963993D01*
X654989Y9963993D01*
X185013Y9963993D01*
X185013Y11013978D01*
X484987Y11013978D01*
X785012Y11013978D01*
X1084986Y11013978D01*
X484987Y11013978D02*
G01*
X484987Y10813978D01*
X785012Y10813978D01*
X785012Y11013978D01*
X615010Y9953985D02*
G01*
X615010Y9743978D01*
X654989Y9743978D01*
X654989Y9963993D01*
X1084986Y8727983D02*
G01*
X1084986Y7677998D01*
X654989Y7677998D01*
X185013Y7677998D01*
X185013Y8727983D01*
X484987Y8727983D01*
X785012Y8727983D01*
X1084986Y8727983D01*
X484987Y8727983D02*
G01*
X484987Y8527983D01*
X785012Y8527983D01*
X785012Y8727983D01*
X615010Y7667990D02*
G01*
X615010Y7457983D01*
X654989Y7457983D01*
X654989Y7677998D01*
X1084986Y6441986D02*
G01*
X1084986Y5392000D01*
X654989Y5392000D01*
X185013Y5392000D01*
X185013Y6441986D01*
X484987Y6441986D01*
X785012Y6441986D01*
X1084986Y6441986D01*
X484987Y6441986D02*
G01*
X484987Y6241986D01*
X785012Y6241986D01*
X785012Y6441986D01*
X615010Y5381993D02*
G01*
X615010Y5171986D01*
X654989Y5171986D01*
X654989Y5392000D01*
X1084986Y4155991D02*
G01*
X1084986Y3106005D01*
X654989Y3106005D01*
X185013Y3106005D01*
X185013Y4155991D01*
X484987Y4155991D01*
X785012Y4155991D01*
X1084986Y4155991D01*
X484987Y4155991D02*
G01*
X484987Y3955991D01*
X785012Y3955991D01*
X785012Y4155991D01*
X615010Y3095998D02*
G01*
X615010Y2885991D01*
X654989Y2885991D01*
X654989Y3106005D01*
X3878978Y11001278D02*
G01*
X3878978Y9951293D01*
X3448982Y9951293D01*
X2979005Y9951293D01*
X2979005Y11001278D01*
X3278979Y11001278D01*
X3579004Y11001278D01*
X3878978Y11001278D01*
X3278979Y11001278D02*
G01*
X3278979Y10801278D01*
X3579004Y10801278D01*
X3579004Y11001278D01*
X3409002Y9941285D02*
G01*
X3409002Y9731278D01*
X3448982Y9731278D01*
X3448982Y9951293D01*
X3878978Y8715283D02*
G01*
X3878978Y7665298D01*
X3448982Y7665298D01*
X2979005Y7665298D01*
X2979005Y8715283D01*
X3278979Y8715283D01*
X3579004Y8715283D01*
X3878978Y8715283D01*
X3278979Y8715283D02*
G01*
X3278979Y8515283D01*
X3579004Y8515283D01*
X3579004Y8715283D01*
X3409002Y7655290D02*
G01*
X3409002Y7445283D01*
X3448982Y7445283D01*
X3448982Y7665298D01*
X3878978Y6429286D02*
G01*
X3878978Y5379300D01*
X3448982Y5379300D01*
X2979005Y5379300D01*
X2979005Y6429286D01*
X3278979Y6429286D01*
X3579004Y6429286D01*
X3878978Y6429286D01*
X3278979Y6429286D02*
G01*
X3278979Y6229286D01*
X3579004Y6229286D01*
X3579004Y6429286D01*
X3409002Y5369293D02*
G01*
X3409002Y5159286D01*
X3448982Y5159286D01*
X3448982Y5379300D01*
X3878978Y4143291D02*
G01*
X3878978Y3093305D01*
X3448982Y3093305D01*
X2979005Y3093305D01*
X2979005Y4143291D01*
X3278979Y4143291D01*
X3579004Y4143291D01*
X3878978Y4143291D01*
X3278979Y4143291D02*
G01*
X3278979Y3943291D01*
X3579004Y3943291D01*
X3579004Y4143291D01*
X3409002Y3083298D02*
G01*
X3409002Y2873291D01*
X3448982Y2873291D01*
X3448982Y3093305D01*
D14*
X2228895Y11201377D02*
G01*
X2228895Y11391877D01*
X2431994Y11202977D02*
G01*
X1631995Y11202977D01*
X1631995Y11402976D01*
X2431994Y11402976D01*
X2431994Y11202977D01*
D13*
G75*
G01*
X951230Y10413980D02*
G03*
X951230Y10413218I-316230J-381D01*
G75*
G01*
X904062Y10413980D02*
G03*
X904062Y10413319I-269062J-331D01*
G75*
G01*
X951230Y8127985D02*
G03*
X951230Y8127223I-316230J-381D01*
G75*
G01*
X904062Y8127985D02*
G03*
X904062Y8127324I-269062J-330D01*
G75*
G01*
X951230Y5841987D02*
G03*
X951230Y5841225I-316230J-381D01*
G75*
G01*
X904062Y5841987D02*
G03*
X904062Y5841327I-269062J-330D01*
G75*
G01*
X951230Y3555992D02*
G03*
X951230Y3555230I-316230J-381D01*
G75*
G01*
X904062Y3555992D02*
G03*
X904062Y3555332I-269062J-330D01*
G75*
G01*
X3745222Y10401280D02*
G03*
X3745222Y10400518I-316229J-381D01*
G75*
G01*
X3698055Y10401280D02*
G03*
X3698055Y10400619I-269062J-331D01*
G75*
G01*
X3745222Y8115285D02*
G03*
X3745222Y8114523I-316229J-381D01*
G75*
G01*
X3698055Y8115285D02*
G03*
X3698055Y8114624I-269062J-330D01*
G75*
G01*
X3745222Y5829287D02*
G03*
X3745222Y5828525I-316229J-381D01*
G75*
G01*
X3698055Y5829287D02*
G03*
X3698055Y5828627I-269062J-330D01*
G75*
G01*
X3745222Y3543292D02*
G03*
X3745222Y3542530I-316229J-381D01*
G75*
G01*
X3698055Y3543292D02*
G03*
X3698055Y3542632I-269062J-330D01*
M02*
