G04 Layer: TopSolderMaskLayer*
G04 EasyEDA v6.5.29, 2023-07-19 21:55:29*
G04 cd10bac7ed824a03a08366421e07836e,5a6b42c53f6a479593ecc07194224c93,10*
G04 Gerber Generator version 0.2*
G04 Scale: 100 percent, Rotated: No, Reflected: No *
G04 Dimensions in millimeters *
G04 leading zeros omitted , absolute positions ,4 integer and 5 decimal *
%FSLAX45Y45*%
%MOMM*%

%AMMACRO1*1,1,$1,$2,$3*1,1,$1,$4,$5*1,1,$1,0-$2,0-$3*1,1,$1,0-$4,0-$5*20,1,$1,$2,$3,$4,$5,0*20,1,$1,$4,$5,0-$2,0-$3,0*20,1,$1,0-$2,0-$3,0-$4,0-$5,0*20,1,$1,0-$4,0-$5,$2,$3,0*4,1,4,$2,$3,$4,$5,0-$2,0-$3,0-$4,0-$5,$2,$3,0*%
%ADD10MACRO1,0.1016X0.9X0.9X-0.9X0.9*%
%ADD11C,1.9016*%
%ADD12C,1.8532*%
%ADD13C,1.5016*%
%ADD14MACRO1,0.1016X0.762X-0.7X-0.762X-0.7*%

%LPD*%
D10*
G01*
X2946394Y4495789D03*
D11*
G01*
X2946400Y4749800D03*
G01*
X2692400Y4495800D03*
G01*
X2692400Y4749800D03*
G01*
X2438400Y4495800D03*
G01*
X2438400Y4749800D03*
G01*
X2184400Y4495800D03*
G01*
X2184400Y4749800D03*
G01*
X1930400Y4495800D03*
G01*
X1930400Y4749800D03*
G01*
X1676400Y4495800D03*
G01*
X1676400Y4749800D03*
G01*
X1422400Y4495800D03*
G01*
X1422400Y4749800D03*
G01*
X1168400Y4495800D03*
G01*
X1168400Y4749800D03*
D12*
G01*
X2362200Y10185374D03*
G01*
X1712188Y10185374D03*
G01*
X2362200Y10635386D03*
G01*
X1712188Y10635386D03*
G01*
X2037206Y10770362D03*
G01*
X2397201Y10410367D03*
G01*
X2057400Y10058374D03*
G01*
X1676400Y10413974D03*
G01*
X2362200Y7899374D03*
G01*
X1712188Y7899374D03*
G01*
X2362200Y8349386D03*
G01*
X1712188Y8349386D03*
G01*
X2037206Y8484362D03*
G01*
X2397201Y8124367D03*
G01*
X2057400Y7772374D03*
G01*
X1676400Y8127974D03*
G01*
X2362200Y5613400D03*
G01*
X1712188Y5613400D03*
G01*
X2362200Y6063411D03*
G01*
X1712188Y6063411D03*
G01*
X2037206Y6198387D03*
G01*
X2397201Y5838393D03*
G01*
X2057400Y5486400D03*
G01*
X1676400Y5842000D03*
G01*
X2362200Y3327400D03*
G01*
X1712188Y3327400D03*
G01*
X2362200Y3777411D03*
G01*
X1712188Y3777411D03*
G01*
X2037206Y3912387D03*
G01*
X2397201Y3552393D03*
G01*
X2057400Y3200400D03*
G01*
X1676400Y3556000D03*
G01*
X635000Y10913973D03*
G01*
X635000Y10063987D03*
G01*
X635000Y9763963D03*
G01*
X635000Y8627973D03*
G01*
X635000Y7777987D03*
G01*
X635000Y7477963D03*
G01*
X635000Y6341973D03*
G01*
X635000Y5491987D03*
G01*
X635000Y5191963D03*
G01*
X635000Y4055998D03*
G01*
X635000Y3206013D03*
G01*
X635000Y2905988D03*
G01*
X3429000Y10901273D03*
G01*
X3429000Y10051287D03*
G01*
X3429000Y9751263D03*
G01*
X3429000Y8615273D03*
G01*
X3429000Y7765287D03*
G01*
X3429000Y7465263D03*
G01*
X3429000Y6329273D03*
G01*
X3429000Y5479287D03*
G01*
X3429000Y5179263D03*
G01*
X3429000Y4043298D03*
G01*
X3429000Y3193313D03*
G01*
X3429000Y2893288D03*
D13*
G01*
X1732000Y11302974D03*
G01*
X1932000Y11302974D03*
G01*
X2131999Y11302974D03*
D14*
G01*
X2331994Y11302977D03*
M02*
