M48
METRIC,LZ,000.000
;FILE_FORMAT=3:3
;TYPE=PLATED
;Layer: PTH_Through
;EasyEDA v6.5.29, 2023-07-19 21:41:10
;ede76849b6084053bf44eed2514c4286,5a6b42c53f6a479593ecc07194224c93,10
;Gerber Generator version 0.2
;Holesize 1 = 0.305 mm
T01C0.305
;Holesize 2 = 0.813 mm
T02C0.813
;Holesize 3 = 1.000 mm
T03C1.000
;Holesize 4 = 1.100 mm
T04C1.100
;Holesize 5 = 1.101 mm
T05C1.101
;Holesize 6 = 1.200 mm
T06C1.200
%
G05
G90
T01
X024728Y084836
X030136Y085344
X030136Y093472
X024728Y076708
X043942Y097409
X040804Y093472
X052742Y093425
X035306Y084836
X047244Y095758
X050813Y088473
X049276Y089662
X049276Y095758
X064807Y093472
X062738Y088519
X061214Y087249
X076872Y093472
X074948Y087249
X074990Y088519
X088937Y093472
X087055Y088519
X052832Y098552
X066548Y098552
X024728Y068580
X030136Y077216
X030136Y069088
X024728Y060452
X024728Y052324
X030136Y060960
X087630Y081153
X081116Y073406
X081116Y065278
X087630Y073025
X081116Y057150
X087630Y064897
X081080Y049043
X087630Y056769
X081080Y040915
X087630Y048641
X069088Y040894
X057150Y040894
X045212Y040894
X033274Y040894
X021336Y040894
X059182Y045961
X066040Y045961
X052070Y035306
X060452Y035052
X052832Y034544
X058420Y034544
X044704Y034798
X040894Y034798
X036576Y034544
X038608Y035306
X028956Y034544
X028194Y035306
X051816Y079756
X048006Y079756
X059436Y079756
X059436Y093472
X081116Y084836
X048006Y084836
X030136Y050038
X072390Y048768
X060452Y048814
X048514Y048861
X036575Y048907
X024637Y048954
X094234Y078359
X107950Y085598
X107950Y011684
X090678Y011684
X051816Y082042
X003810Y011684
X003810Y095758
X107188Y107442
X107188Y036322
X106426Y103632
X106426Y034798
X105664Y102108
X105664Y035560
X004572Y107569
X004572Y036322
X005334Y103632
X005334Y034798
X006096Y102108
X006096Y035560
X091948Y115951
X091948Y107822
X085344Y108204
X085344Y100076
X094234Y098665
X096012Y087376
X096012Y113275
X077470Y080764
X077470Y083058
X093225Y098654
X093218Y085598
X053086Y083820
X016002Y098552
X016129Y100076
X016129Y108204
X022733Y107822
X022733Y115951
X011430Y104139
X011430Y039624
X017526Y058547
X017526Y037705
X021844Y039624
X024388Y038862
X012192Y102870
X012192Y038862
X023368Y033782
X016002Y091059
X051816Y051562
X013208Y105410
X013208Y049784
X036830Y082042
X036830Y114046
X070612Y065552
X070612Y073152
X070612Y076962
X069850Y060551
X069850Y070612
X069850Y077724
X069088Y068072
X069088Y078486
X074676Y074295
X074676Y063053
X076200Y071755
X076200Y058052
X073660Y078232
X073660Y069342
X074676Y078231
X076200Y078231
X066040Y065532
X066040Y047185
X053086Y047231
X053086Y070104
X043688Y047278
X043688Y066802
X031750Y047324
X031750Y064262
X050546Y050800
X054610Y050800
X079248Y050800
X056896Y053996
X075438Y056642
X075438Y068961
X076962Y077089
X076962Y064262
X079248Y045868
X055626Y056007
X060706Y066802
X051816Y071755
X051816Y066802
X064516Y056642
X032512Y079121
X032512Y056642
X033274Y087249
X079248Y060833
X079248Y059309
X033274Y061849
X034036Y062865
X034036Y059182
X050546Y074422
X041148Y057912
X041148Y073052
X041910Y070552
X041910Y060452
X047244Y069342
X042672Y066802
X042672Y062992
X037465Y091059
X037465Y066802
X044704Y065532
X045720Y095758
X045720Y089742
X055626Y091059
X055626Y069342
X057785Y089789
X045466Y081280
X066548Y081280
X069850Y089789
X069850Y095758
X079248Y066802
X033782Y095758
X033782Y089789
X043942Y087249
X042672Y088519
X042672Y099949
X057785Y095758
X030137Y105753
X025527Y106269
X025527Y109728
X024728Y093472
X017018Y093472
X066548Y091059
X081915Y095728
X087055Y094996
X081915Y089789
X091948Y093472
X086360Y087249
X086360Y094234
X044704Y091013
X076200Y044645
X076200Y027559
X071120Y043375
X071874Y045915
X072898Y028439
X064262Y043421
X065024Y044691
X065024Y027559
X066040Y028439
X077724Y073052
X077724Y014732
X079255Y091059
X078486Y070552
X078486Y022098
X040132Y043514
X040894Y044784
X035306Y044768
X023368Y044831
X028194Y043561
X028956Y044831
X052832Y044738
X052070Y043468
X047244Y044737
X040132Y030099
X037846Y063052
X042418Y022860
X035052Y033782
X040894Y033782
X040894Y028439
X054610Y028439
X054656Y036830
X047244Y036830
X030480Y028439
X030480Y033782
X037084Y060552
X041656Y023622
X026670Y031496
X026670Y027432
X053848Y051562
X053848Y031496
X058166Y051562
X060706Y052324
X055372Y052324
X055372Y032258
X034671Y070993
X054356Y071755
X061214Y071755
X043053Y053086
X043053Y033020
X063246Y053086
X076200Y052324
X026416Y086614
X027940Y084582
X050546Y092456
X038608Y092456
X038608Y085852
X050546Y085852
X061976Y092456
X062230Y085852
X073660Y085852
X074676Y092456
X084074Y092456
X085852Y085852
X056388Y080518
X053848Y080518
X042926Y080518
X065024Y080518
X068326Y065532
X051816Y065532
X055626Y065532
T02
X054356Y073152
X056896Y075692
X056896Y073152
X059436Y075692
X059436Y073152
X061956Y075692G85X061996Y075692
X064516Y073152
X061976Y073152
X064516Y070612
X061976Y070612
X064516Y068072
X061976Y068072
X064516Y065532
X061976Y065532
X064516Y062992
X061976Y062992
X064516Y060452
X061976Y057912
X061976Y060452
X059436Y057912
X059436Y060452
X056896Y057912
X056896Y060452
X054356Y057912
X054356Y060452
X051816Y057912
X051816Y060452
X049276Y057912
X046736Y060452
X049276Y060452
X046736Y062992
X049276Y062992
X046736Y065532
X049276Y065532
X046736Y068072
X049276Y068072
X046736Y070612
X049276Y070612
X046736Y073152
X049276Y075692
X049276Y073152
X051816Y075692
X051816Y073152
X054356Y075692
T03
X019304Y014732
X019304Y017272
X019304Y019812
X019304Y022352
X019304Y024892
X019304Y027432
X019304Y029972
X019304Y032512
X092202Y014732
X092202Y017272
X092202Y019812
X092202Y022352
X092202Y024892
X092202Y027432
X092202Y029972
X092202Y032512
X016764Y014732
X016764Y017272
X016764Y019812
X016764Y022352
X016764Y024892
X016764Y027432
X016764Y029972
X016764Y032512
X094742Y014732
X094742Y017272
X094742Y019812
X094742Y022352
X094742Y024892
X094742Y027432
X094742Y029972
X094742Y032512
T04
X031623Y024812G85X031623Y024812
X031623Y016312G85X031623Y016312
X031623Y013312G85X031623Y013312
X043688Y024812G85X043688Y024812
X043688Y016312G85X043688Y016312
X043688Y013312G85X043688Y013312
X055753Y024812G85X055753Y024812
X055753Y016312G85X055753Y016312
X055753Y013312G85X055753Y013312
X067818Y024812G85X067818Y024812
X067818Y016312G85X067818Y016312
X067818Y013312G85X067818Y013312
X079883Y024812G85X079883Y024812
X079883Y016312G85X079883Y016312
X079883Y013312G85X079883Y013312
X102616Y098599G85X102616Y098599
X102616Y090099G85X102616Y090099
X102616Y087099G85X102616Y087099
X102616Y083359G85X102616Y083359
X102616Y074859G85X102616Y074859
X102616Y071859G85X102616Y071859
X102616Y068119G85X102616Y068119
X102616Y059619G85X102616Y059619
X102616Y056619G85X102616Y056619
X102616Y052879G85X102616Y052879
X102616Y044379G85X102616Y044379
X102616Y041379G85X102616Y041379
X102616Y037639G85X102616Y037639
X102616Y029139G85X102616Y029139
X102616Y026139G85X102616Y026139
X008890Y037639G85X008890Y037639
X008890Y029139G85X008890Y029139
X008890Y026139G85X008890Y026139
X008890Y052879G85X008890Y052879
X008890Y044379G85X008890Y044379
X008890Y041379G85X008890Y041379
X008890Y068119G85X008890Y068119
X008890Y059619G85X008890Y059619
X008890Y056619G85X008890Y056619
X008890Y083359G85X008890Y083359
X008890Y074859G85X008890Y074859
X008890Y071859G85X008890Y071859
X008890Y098599G85X008890Y098599
X008890Y090099G85X008890Y090099
X008890Y087099G85X008890Y087099
X013459Y015494G85X013465Y015494
X006960Y015494G85X006965Y015494
X013459Y019995G85X013465Y019995
X006960Y019995G85X006965Y019995
X010211Y021344G85X010213Y021344
X013810Y017744G85X013815Y017744
X010413Y014224G85X010415Y014224
X006603Y017780G85X006605Y017780
X104645Y015494G85X104651Y015494
X098146Y015494G85X098151Y015494
X104645Y019995G85X104651Y019995
X098146Y019995G85X098151Y019995
X101397Y021344G85X101399Y021344
X104996Y017744G85X105001Y017744
X101599Y014224G85X101601Y014224
X097789Y017780G85X097791Y017780
X013459Y107569G85X013465Y107569
X006960Y107569G85X006965Y107569
X013459Y112070G85X013465Y112070
X006962Y112070G85X006962Y112070
X010211Y113419G85X010213Y113419
X013810Y109819G85X013815Y109819
X010413Y106299G85X010415Y106299
X006603Y109855G85X006605Y109855
X104645Y107569G85X104651Y107569
X098146Y107569G85X098151Y107569
X104648Y112070G85X104648Y112070
X098146Y112070G85X098151Y112070
X101397Y113419G85X101399Y113419
X104996Y109819G85X105001Y109819
X101599Y106299G85X101601Y106299
X097789Y109855G85X097791Y109855
X031623Y112696G85X031623Y112696
X031623Y104196G85X031623Y104196
X031623Y101196G85X031623Y101196
X043688Y112696G85X043688Y112696
X043688Y104196G85X043688Y104196
X043688Y101196G85X043688Y101196
X055753Y112696G85X055753Y112696
X055753Y104196G85X055753Y104196
X055753Y101196G85X055753Y101196
X067818Y112696G85X067818Y112696
X067818Y104196G85X067818Y104196
X067818Y101196G85X067818Y101196
X079883Y112696G85X079883Y112696
X079883Y104196G85X079883Y104196
X079883Y101196G85X079883Y101196
T05
X072136Y075552
X072136Y073052
X072136Y070552
X072136Y068052
X072136Y065552
X072136Y063052
X072136Y060552
X072136Y058052
X039370Y058052
X039370Y060552
X039370Y063052
X039370Y065552
X039370Y068052
X039370Y070552
X039370Y073052
X039370Y075552
T06
X087122Y029972
X089662Y029972
X024388Y097540
X021848Y097540
X024388Y029976
X021848Y029976
X089408Y075057
X091948Y075057
X089408Y066929
X091948Y066929
X089408Y058801
X091948Y058801
X089373Y050694
X091913Y050694
X089373Y042566
X091913Y042566
X087122Y097536
X089662Y097536
X040386Y097409
X040386Y099949
X048514Y097409
X048514Y099949
X051054Y097409
X051054Y099949
X064770Y097409
X064770Y099949
X072898Y097409
X072898Y099949
X022098Y052451
X019558Y052451
X022098Y060579
X019558Y060579
X022098Y068707
X019558Y068707
X022098Y076835
X019558Y076835
X022098Y084963
X019558Y084963
X038608Y030099
X038608Y027559
X046736Y030099
X046736Y027559
X060452Y030099
X060452Y027559
X062992Y030099
X062992Y027559
X071120Y030099
X071120Y027559
X089662Y035052
X089662Y032512
M30
