M48
METRIC,LZ,000.000
;FILE_FORMAT=3:3
;TYPE=NON_PLATED
;Layer: NPTH_Through
;EasyEDA v6.5.29, 2023-07-19 21:41:10
;ede76849b6084053bf44eed2514c4286,5a6b42c53f6a479593ecc07194224c93,10
;Gerber Generator version 0.2
;Holesize 1 = 3.000 mm
T01C3.000
%
G05
G90
T01
X031623Y019812
X043688Y019812
X055753Y019812
X067818Y019812
X079883Y019812
X102616Y093599
X102616Y078359
X102616Y063119
X102616Y047879
X102616Y032639
X008890Y032639
X008890Y047879
X008890Y063119
X008890Y078359
X008890Y093599
X031623Y107696
X043688Y107696
X055753Y107696
X067818Y107696
X079883Y107696
M30
