G04 Layer: BottomSilkscreenLayer*
G04 EasyEDA v6.5.29, 2023-07-19 21:57:34*
G04 a2853ea9601d4119b13b16b9b4b396c2,5a6b42c53f6a479593ecc07194224c93,10*
G04 Gerber Generator version 0.2*
G04 Scale: 100 percent, Rotated: No, Reflected: No *
G04 Dimensions in millimeters *
G04 leading zeros omitted , absolute positions ,4 integer and 5 decimal *
%FSLAX45Y45*%
%MOMM*%

%ADD10C,0.2032*%
%ADD11C,0.1524*%
%ADD12C,0.2540*%

%LPD*%
D10*
X3042381Y1744817D02*
G01*
X3047837Y1755726D01*
X3058746Y1766636D01*
X3069653Y1772089D01*
X3091472Y1772089D01*
X3102381Y1766636D01*
X3113290Y1755726D01*
X3118746Y1744817D01*
X3124200Y1728454D01*
X3124200Y1701182D01*
X3118746Y1684817D01*
X3113290Y1673908D01*
X3102381Y1662998D01*
X3091472Y1657545D01*
X3069653Y1657545D01*
X3058746Y1662998D01*
X3047837Y1673908D01*
X3042381Y1684817D01*
X2973654Y1772089D02*
G01*
X2984563Y1766636D01*
X2995472Y1755726D01*
X3000928Y1744817D01*
X3006382Y1728454D01*
X3006382Y1701182D01*
X3000928Y1684817D01*
X2995472Y1673908D01*
X2984563Y1662998D01*
X2973654Y1657545D01*
X2951835Y1657545D01*
X2940928Y1662998D01*
X2930019Y1673908D01*
X2924563Y1684817D01*
X2919110Y1701182D01*
X2919110Y1728454D01*
X2924563Y1744817D01*
X2930019Y1755726D01*
X2940928Y1766636D01*
X2951835Y1772089D01*
X2973654Y1772089D01*
X2883110Y1772089D02*
G01*
X2883110Y1657545D01*
X2883110Y1772089D02*
G01*
X2834017Y1772089D01*
X2817655Y1766636D01*
X2812201Y1761182D01*
X2806745Y1750273D01*
X2806745Y1733908D01*
X2812201Y1722998D01*
X2817655Y1717545D01*
X2834017Y1712089D01*
X2883110Y1712089D01*
X2770746Y1772089D02*
G01*
X2727109Y1717545D01*
X2727109Y1657545D01*
X2683474Y1772089D02*
G01*
X2727109Y1717545D01*
X2647472Y1772089D02*
G01*
X2647472Y1657545D01*
X2647472Y1772089D02*
G01*
X2598381Y1772089D01*
X2582019Y1766636D01*
X2576565Y1761182D01*
X2571109Y1750273D01*
X2571109Y1739364D01*
X2576565Y1728454D01*
X2582019Y1722998D01*
X2598381Y1717545D01*
X2647472Y1717545D01*
X2609291Y1717545D02*
G01*
X2571109Y1657545D01*
X2535110Y1772089D02*
G01*
X2535110Y1657545D01*
X2417292Y1744817D02*
G01*
X2422745Y1755726D01*
X2433655Y1766636D01*
X2444564Y1772089D01*
X2466383Y1772089D01*
X2477292Y1766636D01*
X2488201Y1755726D01*
X2493655Y1744817D01*
X2499111Y1728454D01*
X2499111Y1701182D01*
X2493655Y1684817D01*
X2488201Y1673908D01*
X2477292Y1662998D01*
X2466383Y1657545D01*
X2444564Y1657545D01*
X2433655Y1662998D01*
X2422745Y1673908D01*
X2417292Y1684817D01*
X2417292Y1701182D01*
X2444564Y1701182D02*
G01*
X2417292Y1701182D01*
X2381293Y1772089D02*
G01*
X2381293Y1657545D01*
X2304928Y1772089D02*
G01*
X2304928Y1657545D01*
X2381293Y1717545D02*
G01*
X2304928Y1717545D01*
X2230747Y1772089D02*
G01*
X2230747Y1657545D01*
X2268928Y1772089D02*
G01*
X2192566Y1772089D01*
X2067110Y1744817D02*
G01*
X2067110Y1750273D01*
X2061657Y1761182D01*
X2056201Y1766636D01*
X2045291Y1772089D01*
X2023475Y1772089D01*
X2012566Y1766636D01*
X2007110Y1761182D01*
X2001657Y1750273D01*
X2001657Y1739364D01*
X2007110Y1728454D01*
X2018019Y1712089D01*
X2072566Y1657545D01*
X1996201Y1657545D01*
X1927473Y1772089D02*
G01*
X1943839Y1766636D01*
X1954748Y1750273D01*
X1960201Y1722998D01*
X1960201Y1706636D01*
X1954748Y1679364D01*
X1943839Y1662998D01*
X1927473Y1657545D01*
X1916567Y1657545D01*
X1900201Y1662998D01*
X1889292Y1679364D01*
X1883839Y1706636D01*
X1883839Y1722998D01*
X1889292Y1750273D01*
X1900201Y1766636D01*
X1916567Y1772089D01*
X1927473Y1772089D01*
X1842383Y1744817D02*
G01*
X1842383Y1750273D01*
X1836930Y1761182D01*
X1831474Y1766636D01*
X1820565Y1772089D01*
X1798749Y1772089D01*
X1787839Y1766636D01*
X1782384Y1761182D01*
X1776930Y1750273D01*
X1776930Y1739364D01*
X1782384Y1728454D01*
X1793293Y1712089D01*
X1847839Y1657545D01*
X1771474Y1657545D01*
X1724566Y1772089D02*
G01*
X1664566Y1772089D01*
X1697294Y1728454D01*
X1680931Y1728454D01*
X1670022Y1722998D01*
X1664566Y1717545D01*
X1659112Y1701182D01*
X1659112Y1690273D01*
X1664566Y1673908D01*
X1675475Y1662998D01*
X1691838Y1657545D01*
X1708203Y1657545D01*
X1724566Y1662998D01*
X1730021Y1668454D01*
X1735475Y1679364D01*
X1539113Y1772089D02*
G01*
X1495475Y1657545D01*
X1451838Y1772089D02*
G01*
X1495475Y1657545D01*
X1415839Y1772089D02*
G01*
X1415839Y1657545D01*
X1415839Y1772089D02*
G01*
X1344929Y1772089D01*
X1415839Y1717545D02*
G01*
X1372204Y1717545D01*
X1415839Y1657545D02*
G01*
X1344929Y1657545D01*
X1232568Y1772089D02*
G01*
X1287111Y1657545D01*
X1308930Y1772089D02*
G01*
X1232568Y1772089D01*
X1196568Y1772089D02*
G01*
X1196568Y1657545D01*
X1196568Y1772089D02*
G01*
X1125659Y1772089D01*
X1196568Y1717545D02*
G01*
X1152931Y1717545D01*
X1089657Y1772089D02*
G01*
X1089657Y1657545D01*
X1053658Y1772089D02*
G01*
X1053658Y1657545D01*
X1053658Y1772089D02*
G01*
X1010023Y1657545D01*
X966386Y1772089D02*
G01*
X1010023Y1657545D01*
X966386Y1772089D02*
G01*
X966386Y1657545D01*
X1583690Y1086357D02*
G01*
X1583690Y998981D01*
X1589277Y982726D01*
X1594611Y977137D01*
X1605534Y971804D01*
X1616456Y971804D01*
X1627377Y977137D01*
X1632965Y982726D01*
X1638300Y998981D01*
X1638300Y1009904D01*
X1547875Y1086357D02*
G01*
X1547875Y971804D01*
X1547875Y971804D02*
G01*
X1482343Y971804D01*
X1364488Y1058926D02*
G01*
X1369822Y1069847D01*
X1380743Y1080770D01*
X1391665Y1086357D01*
X1413509Y1086357D01*
X1424431Y1080770D01*
X1435354Y1069847D01*
X1440941Y1058926D01*
X1446275Y1042670D01*
X1446275Y1015492D01*
X1440941Y998981D01*
X1435354Y988060D01*
X1424431Y977137D01*
X1413509Y971804D01*
X1391665Y971804D01*
X1380743Y977137D01*
X1369822Y988060D01*
X1364488Y998981D01*
X1274063Y1086357D02*
G01*
X1274063Y998981D01*
X1279397Y982726D01*
X1284731Y977137D01*
X1295654Y971804D01*
X1306575Y971804D01*
X1317497Y977137D01*
X1323086Y982726D01*
X1328420Y998981D01*
X1328420Y1009904D01*
X1237995Y1086357D02*
G01*
X1237995Y971804D01*
X1237995Y971804D02*
G01*
X1172463Y971804D01*
X1054608Y1058926D02*
G01*
X1060195Y1069847D01*
X1071118Y1080770D01*
X1082040Y1086357D01*
X1103629Y1086357D01*
X1114552Y1080770D01*
X1125474Y1069847D01*
X1131061Y1058926D01*
X1136395Y1042670D01*
X1136395Y1015492D01*
X1131061Y998981D01*
X1125474Y988060D01*
X1114552Y977137D01*
X1103629Y971804D01*
X1082040Y971804D01*
X1071118Y977137D01*
X1060195Y988060D01*
X1054608Y998981D01*
X964184Y1086357D02*
G01*
X964184Y998981D01*
X969518Y982726D01*
X975106Y977137D01*
X986027Y971804D01*
X996950Y971804D01*
X1007872Y977137D01*
X1013206Y982726D01*
X1018540Y998981D01*
X1018540Y1009904D01*
X928115Y1086357D02*
G01*
X928115Y971804D01*
X928115Y971804D02*
G01*
X862584Y971804D01*
X744727Y1058926D02*
G01*
X750315Y1069847D01*
X761238Y1080770D01*
X772159Y1086357D01*
X794004Y1086357D01*
X804925Y1080770D01*
X815847Y1069847D01*
X821181Y1058926D01*
X826770Y1042670D01*
X826770Y1015492D01*
X821181Y998981D01*
X815847Y988060D01*
X804925Y977137D01*
X794004Y971804D01*
X772159Y971804D01*
X761238Y977137D01*
X750315Y988060D01*
X744727Y998981D01*
X654304Y1086357D02*
G01*
X654304Y998981D01*
X659637Y982726D01*
X665225Y977137D01*
X676147Y971804D01*
X687070Y971804D01*
X697991Y977137D01*
X703325Y982726D01*
X708913Y998981D01*
X708913Y1009904D01*
X618236Y1086357D02*
G01*
X618236Y971804D01*
X618236Y971804D02*
G01*
X552957Y971804D01*
X435102Y1058926D02*
G01*
X440436Y1069847D01*
X451357Y1080770D01*
X462279Y1086357D01*
X484123Y1086357D01*
X495045Y1080770D01*
X505968Y1069847D01*
X511302Y1058926D01*
X516889Y1042670D01*
X516889Y1015492D01*
X511302Y998981D01*
X505968Y988060D01*
X495045Y977137D01*
X484123Y971804D01*
X462279Y971804D01*
X451357Y977137D01*
X440436Y988060D01*
X435102Y998981D01*
X3771900Y2280089D02*
G01*
X3771900Y2165545D01*
X3771900Y2280089D02*
G01*
X3695537Y2165545D01*
X3695537Y2280089D02*
G01*
X3695537Y2165545D01*
X3615900Y2280089D02*
G01*
X3659535Y2165545D01*
X3615900Y2280089D02*
G01*
X3572263Y2165545D01*
X3643172Y2203726D02*
G01*
X3588628Y2203726D01*
X3536264Y2280089D02*
G01*
X3536264Y2165545D01*
X3536264Y2280089D02*
G01*
X3459901Y2165545D01*
X3459901Y2280089D02*
G01*
X3459901Y2165545D01*
X3391174Y2280089D02*
G01*
X3402083Y2274636D01*
X3412990Y2263726D01*
X3418446Y2252817D01*
X3423899Y2236454D01*
X3423899Y2209182D01*
X3418446Y2192817D01*
X3412990Y2181908D01*
X3402083Y2170998D01*
X3391174Y2165545D01*
X3369355Y2165545D01*
X3358446Y2170998D01*
X3347537Y2181908D01*
X3342083Y2192817D01*
X3336627Y2209182D01*
X3336627Y2236454D01*
X3342083Y2252817D01*
X3347537Y2263726D01*
X3358446Y2274636D01*
X3369355Y2280089D01*
X3391174Y2280089D01*
X3300628Y2280089D02*
G01*
X3300628Y2165545D01*
X3300628Y2280089D02*
G01*
X3256991Y2165545D01*
X3213356Y2280089D02*
G01*
X3256991Y2165545D01*
X3213356Y2280089D02*
G01*
X3213356Y2165545D01*
X3177354Y2280089D02*
G01*
X3177354Y2165545D01*
X3097720Y2280089D02*
G01*
X3141355Y2165545D01*
X3097720Y2280089D02*
G01*
X3054083Y2165545D01*
X3124992Y2203726D02*
G01*
X3070445Y2203726D01*
X2906811Y2280089D02*
G01*
X2923174Y2274636D01*
X2928630Y2263726D01*
X2928630Y2252817D01*
X2923174Y2241908D01*
X2912264Y2236454D01*
X2890446Y2230998D01*
X2874083Y2225545D01*
X2863174Y2214636D01*
X2857720Y2203726D01*
X2857720Y2187364D01*
X2863174Y2176454D01*
X2868630Y2170998D01*
X2884992Y2165545D01*
X2906811Y2165545D01*
X2923174Y2170998D01*
X2928630Y2176454D01*
X2934083Y2187364D01*
X2934083Y2203726D01*
X2928630Y2214636D01*
X2917720Y2225545D01*
X2901355Y2230998D01*
X2879537Y2236454D01*
X2868630Y2241908D01*
X2863174Y2252817D01*
X2863174Y2263726D01*
X2868630Y2274636D01*
X2884992Y2280089D01*
X2906811Y2280089D01*
X2821719Y2280089D02*
G01*
X2821719Y2165545D01*
X2745356Y2280089D02*
G01*
X2745356Y2165545D01*
X2821719Y2225545D02*
G01*
X2745356Y2225545D01*
X2709357Y2280089D02*
G01*
X2709357Y2165545D01*
X2709357Y2280089D02*
G01*
X2660266Y2280089D01*
X2643901Y2274636D01*
X2638447Y2269182D01*
X2632991Y2258273D01*
X2632991Y2241908D01*
X2638447Y2230998D01*
X2643901Y2225545D01*
X2660266Y2220089D01*
X2709357Y2220089D01*
X2512992Y2280089D02*
G01*
X2512992Y2198273D01*
X2507538Y2181908D01*
X2496629Y2170998D01*
X2480266Y2165545D01*
X2469357Y2165545D01*
X2452992Y2170998D01*
X2442085Y2181908D01*
X2436629Y2198273D01*
X2436629Y2280089D01*
X2324267Y2263726D02*
G01*
X2335174Y2274636D01*
X2351539Y2280089D01*
X2373358Y2280089D01*
X2389720Y2274636D01*
X2400630Y2263726D01*
X2400630Y2252817D01*
X2395174Y2241908D01*
X2389720Y2236454D01*
X2378811Y2230998D01*
X2346083Y2220089D01*
X2335174Y2214636D01*
X2329721Y2209182D01*
X2324267Y2198273D01*
X2324267Y2181908D01*
X2335174Y2170998D01*
X2351539Y2165545D01*
X2373358Y2165545D01*
X2389720Y2170998D01*
X2400630Y2181908D01*
X2288265Y2280089D02*
G01*
X2288265Y2165545D01*
X2288265Y2280089D02*
G01*
X2239175Y2280089D01*
X2222812Y2274636D01*
X2217356Y2269182D01*
X2211903Y2258273D01*
X2211903Y2247364D01*
X2217356Y2236454D01*
X2222812Y2230998D01*
X2239175Y2225545D01*
X2288265Y2225545D02*
G01*
X2239175Y2225545D01*
X2222812Y2220089D01*
X2217356Y2214636D01*
X2211903Y2203726D01*
X2211903Y2187364D01*
X2217356Y2176454D01*
X2222812Y2170998D01*
X2239175Y2165545D01*
X2288265Y2165545D01*
X2077722Y2301908D02*
G01*
X2175903Y2127364D01*
X2041720Y2280089D02*
G01*
X2041720Y2165545D01*
X2041720Y2280089D02*
G01*
X1992629Y2280089D01*
X1976267Y2274636D01*
X1970813Y2269182D01*
X1965358Y2258273D01*
X1965358Y2247364D01*
X1970813Y2236454D01*
X1976267Y2230998D01*
X1992629Y2225545D01*
X2041720Y2225545D01*
X2003539Y2225545D02*
G01*
X1965358Y2165545D01*
X1929358Y2280089D02*
G01*
X1929358Y2165545D01*
X1929358Y2280089D02*
G01*
X1880268Y2280089D01*
X1863902Y2274636D01*
X1858449Y2269182D01*
X1852993Y2258273D01*
X1852993Y2241908D01*
X1858449Y2230998D01*
X1863902Y2225545D01*
X1880268Y2220089D01*
X1929358Y2220089D01*
X1811540Y2252817D02*
G01*
X1811540Y2258273D01*
X1806084Y2269182D01*
X1800631Y2274636D01*
X1789722Y2280089D01*
X1767903Y2280089D01*
X1756994Y2274636D01*
X1751540Y2269182D01*
X1746084Y2258273D01*
X1746084Y2247364D01*
X1751540Y2236454D01*
X1762450Y2220089D01*
X1816994Y2165545D01*
X1740631Y2165545D01*
X1671904Y2280089D02*
G01*
X1688266Y2274636D01*
X1699176Y2258273D01*
X1704632Y2230998D01*
X1704632Y2214636D01*
X1699176Y2187364D01*
X1688266Y2170998D01*
X1671904Y2165545D01*
X1660994Y2165545D01*
X1644632Y2170998D01*
X1633722Y2187364D01*
X1628266Y2214636D01*
X1628266Y2230998D01*
X1633722Y2258273D01*
X1644632Y2274636D01*
X1660994Y2280089D01*
X1671904Y2280089D01*
X1537723Y2280089D02*
G01*
X1592267Y2203726D01*
X1510449Y2203726D01*
X1537723Y2280089D02*
G01*
X1537723Y2165545D01*
X1441721Y2280089D02*
G01*
X1458086Y2274636D01*
X1468996Y2258273D01*
X1474449Y2230998D01*
X1474449Y2214636D01*
X1468996Y2187364D01*
X1458086Y2170998D01*
X1441721Y2165545D01*
X1430815Y2165545D01*
X1414449Y2170998D01*
X1403540Y2187364D01*
X1398087Y2214636D01*
X1398087Y2230998D01*
X1403540Y2258273D01*
X1414449Y2274636D01*
X1430815Y2280089D01*
X1441721Y2280089D01*
X1278087Y2280089D02*
G01*
X1278087Y2165545D01*
X1278087Y2280089D02*
G01*
X1228996Y2280089D01*
X1212631Y2274636D01*
X1207178Y2269182D01*
X1201722Y2258273D01*
X1201722Y2247364D01*
X1207178Y2236454D01*
X1212631Y2230998D01*
X1228996Y2225545D01*
X1278087Y2225545D02*
G01*
X1228996Y2225545D01*
X1212631Y2220089D01*
X1207178Y2214636D01*
X1201722Y2203726D01*
X1201722Y2187364D01*
X1207178Y2176454D01*
X1212631Y2170998D01*
X1228996Y2165545D01*
X1278087Y2165545D01*
X1132994Y2280089D02*
G01*
X1143904Y2274636D01*
X1154813Y2263726D01*
X1160269Y2252817D01*
X1165722Y2236454D01*
X1165722Y2209182D01*
X1160269Y2192817D01*
X1154813Y2181908D01*
X1143904Y2170998D01*
X1132994Y2165545D01*
X1111178Y2165545D01*
X1100269Y2170998D01*
X1089360Y2181908D01*
X1083904Y2192817D01*
X1078450Y2209182D01*
X1078450Y2236454D01*
X1083904Y2252817D01*
X1089360Y2263726D01*
X1100269Y2274636D01*
X1111178Y2280089D01*
X1132994Y2280089D01*
X998814Y2280089D02*
G01*
X1042451Y2165545D01*
X998814Y2280089D02*
G01*
X955177Y2165545D01*
X1026086Y2203726D02*
G01*
X971542Y2203726D01*
X919177Y2280089D02*
G01*
X919177Y2165545D01*
X919177Y2280089D02*
G01*
X870087Y2280089D01*
X853724Y2274636D01*
X848268Y2269182D01*
X842815Y2258273D01*
X842815Y2247364D01*
X848268Y2236454D01*
X853724Y2230998D01*
X870087Y2225545D01*
X919177Y2225545D01*
X880996Y2225545D02*
G01*
X842815Y2165545D01*
X806815Y2280089D02*
G01*
X806815Y2165545D01*
X806815Y2280089D02*
G01*
X768634Y2280089D01*
X752269Y2274636D01*
X741359Y2263726D01*
X735906Y2252817D01*
X730450Y2236454D01*
X730450Y2209182D01*
X735906Y2192817D01*
X741359Y2181908D01*
X752269Y2170998D01*
X768634Y2165545D01*
X806815Y2165545D01*
X610450Y2280089D02*
G01*
X566816Y2165545D01*
X523179Y2280089D02*
G01*
X566816Y2165545D01*
X454451Y2280089D02*
G01*
X470816Y2274636D01*
X481723Y2258273D01*
X487179Y2230998D01*
X487179Y2214636D01*
X481723Y2187364D01*
X470816Y2170998D01*
X454451Y2165545D01*
X443542Y2165545D01*
X427179Y2170998D01*
X416270Y2187364D01*
X410817Y2214636D01*
X410817Y2230998D01*
X416270Y2258273D01*
X427179Y2274636D01*
X443542Y2280089D01*
X454451Y2280089D01*
X369361Y2192817D02*
G01*
X374815Y2187364D01*
X369361Y2181908D01*
X363905Y2187364D01*
X369361Y2192817D01*
X327906Y2258273D02*
G01*
X316997Y2263726D01*
X300634Y2280089D01*
X300634Y2165545D01*
X3162300Y2102289D02*
G01*
X3162300Y1987745D01*
X3162300Y2102289D02*
G01*
X3113209Y2102289D01*
X3096846Y2096836D01*
X3091390Y2091382D01*
X3085937Y2080473D01*
X3085937Y2064108D01*
X3091390Y2053199D01*
X3096846Y2047745D01*
X3113209Y2042289D01*
X3162300Y2042289D01*
X3006300Y2102289D02*
G01*
X3049935Y1987745D01*
X3006300Y2102289D02*
G01*
X2962663Y1987745D01*
X3033572Y2025926D02*
G01*
X2979028Y2025926D01*
X2926664Y2102289D02*
G01*
X2926664Y1987745D01*
X2926664Y2102289D02*
G01*
X2877573Y2102289D01*
X2861210Y2096836D01*
X2855755Y2091382D01*
X2850300Y2080473D01*
X2850300Y2069564D01*
X2855755Y2058654D01*
X2861210Y2053199D01*
X2877573Y2047745D01*
X2926664Y2047745D01*
X2888482Y2047745D02*
G01*
X2850300Y1987745D01*
X2776118Y2102289D02*
G01*
X2776118Y1987745D01*
X2814300Y2102289D02*
G01*
X2737937Y2102289D01*
X2617937Y2102289D02*
G01*
X2617937Y1987745D01*
X2617937Y2102289D02*
G01*
X2541574Y1987745D01*
X2541574Y2102289D02*
G01*
X2541574Y1987745D01*
X2505572Y2102289D02*
G01*
X2505572Y2020473D01*
X2500119Y2004108D01*
X2489210Y1993199D01*
X2472847Y1987745D01*
X2461938Y1987745D01*
X2445572Y1993199D01*
X2434666Y2004108D01*
X2429210Y2020473D01*
X2429210Y2102289D01*
X2393210Y2102289D02*
G01*
X2393210Y1987745D01*
X2393210Y2102289D02*
G01*
X2349573Y1987745D01*
X2305938Y2102289D02*
G01*
X2349573Y1987745D01*
X2305938Y2102289D02*
G01*
X2305938Y1987745D01*
X2269937Y2102289D02*
G01*
X2269937Y1987745D01*
X2269937Y2102289D02*
G01*
X2220846Y2102289D01*
X2204483Y2096836D01*
X2199030Y2091382D01*
X2193574Y2080473D01*
X2193574Y2069564D01*
X2199030Y2058654D01*
X2204483Y2053199D01*
X2220846Y2047745D01*
X2269937Y2047745D02*
G01*
X2220846Y2047745D01*
X2204483Y2042289D01*
X2199030Y2036836D01*
X2193574Y2025926D01*
X2193574Y2009564D01*
X2199030Y1998654D01*
X2204483Y1993199D01*
X2220846Y1987745D01*
X2269937Y1987745D01*
X2157575Y2102289D02*
G01*
X2157575Y1987745D01*
X2157575Y2102289D02*
G01*
X2086665Y2102289D01*
X2157575Y2047745D02*
G01*
X2113937Y2047745D01*
X2157575Y1987745D02*
G01*
X2086665Y1987745D01*
X2050666Y2102289D02*
G01*
X2050666Y1987745D01*
X2050666Y2102289D02*
G01*
X2001575Y2102289D01*
X1985210Y2096836D01*
X1979757Y2091382D01*
X1974301Y2080473D01*
X1974301Y2069564D01*
X1979757Y2058654D01*
X1985210Y2053199D01*
X2001575Y2047745D01*
X2050666Y2047745D01*
X2012485Y2047745D02*
G01*
X1974301Y1987745D01*
X1848848Y2075017D02*
G01*
X1848848Y2080473D01*
X1843392Y2091382D01*
X1837938Y2096836D01*
X1827029Y2102289D01*
X1805211Y2102289D01*
X1794301Y2096836D01*
X1788848Y2091382D01*
X1783392Y2080473D01*
X1783392Y2069564D01*
X1788848Y2058654D01*
X1799757Y2042289D01*
X1854301Y1987745D01*
X1777939Y1987745D01*
X1687393Y2102289D02*
G01*
X1741939Y2025926D01*
X1660121Y2025926D01*
X1687393Y2102289D02*
G01*
X1687393Y1987745D01*
X1547756Y2102289D02*
G01*
X1602303Y1987745D01*
X1624121Y2102289D02*
G01*
X1547756Y2102289D01*
X1479031Y2102289D02*
G01*
X1495394Y2096836D01*
X1506303Y2080473D01*
X1511757Y2053199D01*
X1511757Y2036836D01*
X1506303Y2009564D01*
X1495394Y1993199D01*
X1479031Y1987745D01*
X1468122Y1987745D01*
X1451757Y1993199D01*
X1440848Y2009564D01*
X1435394Y2036836D01*
X1435394Y2053199D01*
X1440848Y2080473D01*
X1451757Y2096836D01*
X1468122Y2102289D01*
X1479031Y2102289D01*
X1399395Y2036836D02*
G01*
X1301214Y2036836D01*
X1232486Y2102289D02*
G01*
X1248849Y2096836D01*
X1259758Y2080473D01*
X1265212Y2053199D01*
X1265212Y2036836D01*
X1259758Y2009564D01*
X1248849Y1993199D01*
X1232486Y1987745D01*
X1221577Y1987745D01*
X1205212Y1993199D01*
X1194302Y2009564D01*
X1188849Y2036836D01*
X1188849Y2053199D01*
X1194302Y2080473D01*
X1205212Y2096836D01*
X1221577Y2102289D01*
X1232486Y2102289D01*
X1087394Y2102289D02*
G01*
X1141940Y2102289D01*
X1147394Y2053199D01*
X1141940Y2058654D01*
X1125575Y2064108D01*
X1109212Y2064108D01*
X1092850Y2058654D01*
X1081940Y2047745D01*
X1076485Y2031382D01*
X1076485Y2020473D01*
X1081940Y2004108D01*
X1092850Y1993199D01*
X1109212Y1987745D01*
X1125575Y1987745D01*
X1141940Y1993199D01*
X1147394Y1998654D01*
X1152850Y2009564D01*
X1007757Y2102289D02*
G01*
X1024122Y2096836D01*
X1035032Y2080473D01*
X1040485Y2053199D01*
X1040485Y2036836D01*
X1035032Y2009564D01*
X1024122Y1993199D01*
X1007757Y1987745D01*
X996850Y1987745D01*
X980485Y1993199D01*
X969576Y2009564D01*
X964123Y2036836D01*
X964123Y2053199D01*
X969576Y2080473D01*
X980485Y2096836D01*
X996850Y2102289D01*
X1007757Y2102289D01*
X928123Y2080473D02*
G01*
X917214Y2085926D01*
X900849Y2102289D01*
X900849Y1987745D01*
X2844637Y1069926D02*
G01*
X2855546Y1080836D01*
X2871909Y1086289D01*
X2893728Y1086289D01*
X2910090Y1080836D01*
X2921000Y1069926D01*
X2921000Y1059017D01*
X2915546Y1048108D01*
X2910090Y1042654D01*
X2899181Y1037198D01*
X2866453Y1026289D01*
X2855546Y1020836D01*
X2850090Y1015382D01*
X2844637Y1004473D01*
X2844637Y988108D01*
X2855546Y977198D01*
X2871909Y971745D01*
X2893728Y971745D01*
X2910090Y977198D01*
X2921000Y988108D01*
X2808635Y1086289D02*
G01*
X2781363Y971745D01*
X2754091Y1086289D02*
G01*
X2781363Y971745D01*
X2754091Y1086289D02*
G01*
X2726819Y971745D01*
X2699545Y1086289D02*
G01*
X2726819Y971745D01*
X2663545Y1086289D02*
G01*
X2663545Y971745D01*
X2663545Y1086289D02*
G01*
X2625364Y1086289D01*
X2609001Y1080836D01*
X2598092Y1069926D01*
X2592636Y1059017D01*
X2587183Y1042654D01*
X2587183Y1015382D01*
X2592636Y999017D01*
X2598092Y988108D01*
X2609001Y977198D01*
X2625364Y971745D01*
X2663545Y971745D01*
X3581400Y1086289D02*
G01*
X3581400Y1004473D01*
X3575946Y988108D01*
X3565037Y977198D01*
X3548672Y971745D01*
X3537762Y971745D01*
X3521400Y977198D01*
X3510490Y988108D01*
X3505037Y1004473D01*
X3505037Y1086289D01*
X3425400Y1086289D02*
G01*
X3469035Y971745D01*
X3425400Y1086289D02*
G01*
X3381763Y971745D01*
X3452672Y1009926D02*
G01*
X3398128Y1009926D01*
X3345764Y1086289D02*
G01*
X3345764Y971745D01*
X3345764Y1086289D02*
G01*
X3296673Y1086289D01*
X3280310Y1080836D01*
X3274855Y1075382D01*
X3269401Y1064473D01*
X3269401Y1053564D01*
X3274855Y1042654D01*
X3280310Y1037198D01*
X3296673Y1031745D01*
X3345764Y1031745D01*
X3307582Y1031745D02*
G01*
X3269401Y971745D01*
X3195218Y1086289D02*
G01*
X3195218Y971745D01*
X3233399Y1086289D02*
G01*
X3157037Y1086289D01*
D11*
X2596134Y1396237D02*
G01*
X2596134Y1323594D01*
X2600706Y1309878D01*
X2605277Y1305305D01*
X2614422Y1300734D01*
X2623311Y1300734D01*
X2632456Y1305305D01*
X2637027Y1309878D01*
X2641600Y1323594D01*
X2641600Y1332737D01*
X2566161Y1378204D02*
G01*
X2557018Y1382776D01*
X2543302Y1396237D01*
X2543302Y1300734D01*
D12*
X2448984Y1218201D02*
G01*
X2448986Y1474198D01*
X1614990Y1474198D02*
G01*
X1614990Y1218199D01*
X1614990Y1218201D02*
G01*
X1748797Y1218201D01*
X1915177Y1218201D02*
G01*
X2148796Y1218201D01*
X2315176Y1218201D02*
G01*
X2448984Y1218201D01*
X1614990Y1474200D02*
G01*
X1748792Y1474200D01*
X1915182Y1474200D02*
G01*
X2148791Y1474200D01*
X2315182Y1474200D02*
G01*
X2448986Y1474200D01*
M02*
