M48
METRIC,LZ,000.000
;FILE_FORMAT=3:3
;TYPE=NON_PLATED
;Layer: NPTH_Through
;EasyEDA v6.5.34, 2023-08-21 18:11:39
;2c7568c33adc46e786736174184ee4b8,5a6b42c53f6a479593ecc07194224c93,10
;Gerber Generator version 0.2
;Holesize 1 = 0.551 mm
T01C0.551
;Holesize 2 = 2.000 mm
T02C2.000
%
G05
G90
T01
X018608Y013453
X018608Y012603
X018608Y011753
X018608Y010902
X018608Y010052
X018608Y009202
X018608Y008352
X018608Y007502
X012792Y013453
X012792Y012603
X012792Y011753
X012792Y010902
X012792Y010052
X012792Y009202
X012792Y008352
X012792Y007502
X039848Y013453
X039848Y012603
X039848Y011753
X039848Y010902
X039848Y010052
X039848Y009202
X039848Y008352
X039848Y007502
X034032Y013453
X034032Y012603
X034032Y011753
X034032Y010902
X034032Y010052
X034032Y009202
X034032Y008352
X034032Y007502
X061088Y013453
X061088Y012603
X061088Y011753
X061088Y010902
X061088Y010052
X061088Y009202
X061088Y008352
X061088Y007502
X055272Y013453
X055272Y012603
X055272Y011753
X055272Y010902
X055272Y010052
X055272Y009202
X055272Y008352
X055272Y007502
X082328Y013453
X082328Y012603
X082328Y011753
X082328Y010902
X082328Y010052
X082328Y009202
X082328Y008352
X082328Y007502
X076512Y013453
X076512Y012603
X076512Y011753
X076512Y010902
X076512Y010052
X076512Y009202
X076512Y008352
X076512Y007502
X103568Y013453
X103568Y012603
X103568Y011753
X103568Y010902
X103568Y010052
X103568Y009202
X103568Y008352
X103568Y007502
X097752Y013453
X097752Y012603
X097752Y011753
X097752Y010902
X097752Y010052
X097752Y009202
X097752Y008352
X097752Y007502
X124808Y013453
X124808Y012603
X124808Y011753
X124808Y010902
X124808Y010052
X124808Y009202
X124808Y008352
X124808Y007502
X118992Y013453
X118992Y012603
X118992Y011753
X118992Y010902
X118992Y010052
X118992Y009202
X118992Y008352
X118992Y007502
X146048Y013453
X146048Y012603
X146048Y011753
X146048Y010902
X146048Y010052
X146048Y009202
X146048Y008352
X146048Y007502
X140232Y013453
X140232Y012603
X140232Y011753
X140232Y010902
X140232Y010052
X140232Y009202
X140232Y008352
X140232Y007502
X167288Y013453
X167288Y012603
X167288Y011753
X167288Y010902
X167288Y010052
X167288Y009202
X167288Y008352
X167288Y007502
X161472Y013453
X161472Y012603
X161472Y011753
X161472Y010902
X161472Y010052
X161472Y009202
X161472Y008352
X161472Y007502
X188528Y013453
X188528Y012603
X188528Y011753
X188528Y010902
X188528Y010052
X188528Y009202
X188528Y008352
X188528Y007502
X182712Y013453
X182712Y012603
X182712Y011753
X182712Y010902
X182712Y010052
X182712Y009202
X182712Y008352
X182712Y007502
X002105Y065497
X002955Y065497
X003805Y065497
X004655Y065497
X005505Y065497
X006355Y065497
X007205Y065497
X008055Y065497
X002105Y-044542
X002955Y-044542
X003805Y-044542
X004655Y-044542
X005505Y-044542
X006355Y-044542
X007205Y-044542
X008055Y-044542
X023345Y065497
X024195Y065497
X025045Y065497
X025895Y065497
X026745Y065497
X027595Y065497
X028445Y065497
X029295Y065497
X023345Y-044542
X024195Y-044542
X025045Y-044542
X025895Y-044542
X026745Y-044542
X027595Y-044542
X028445Y-044542
X029295Y-044542
X044585Y065497
X045435Y065497
X046285Y065497
X047135Y065497
X047985Y065497
X048835Y065497
X049685Y065497
X050535Y065497
X044585Y-044542
X045435Y-044542
X046285Y-044542
X047135Y-044542
X047985Y-044542
X048835Y-044542
X049685Y-044542
X050535Y-044542
X065825Y065497
X066675Y065497
X067525Y065497
X068375Y065497
X069225Y065497
X070075Y065497
X070925Y065497
X071775Y065497
X065825Y-044542
X066675Y-044542
X067525Y-044542
X068375Y-044542
X069225Y-044542
X070075Y-044542
X070925Y-044542
X071775Y-044542
X087065Y065497
X087915Y065497
X088765Y065497
X089615Y065497
X090465Y065497
X091315Y065497
X092165Y065497
X093015Y065497
X087065Y-044542
X087915Y-044542
X088765Y-044542
X089615Y-044542
X090465Y-044542
X091315Y-044542
X092165Y-044542
X093015Y-044542
X108305Y065497
X109155Y065497
X110005Y065497
X110855Y065497
X111705Y065497
X112555Y065497
X113405Y065497
X114255Y065497
X108305Y-044542
X109155Y-044542
X110005Y-044542
X110855Y-044542
X111705Y-044542
X112555Y-044542
X113405Y-044542
X114255Y-044542
X129545Y065497
X130395Y065497
X131245Y065497
X132095Y065497
X132945Y065497
X133795Y065497
X134645Y065497
X135495Y065497
X129545Y-044542
X130395Y-044542
X131245Y-044542
X132095Y-044542
X132945Y-044542
X133795Y-044542
X134645Y-044542
X135495Y-044542
X150785Y065497
X151635Y065497
X152485Y065497
X153335Y065497
X154185Y065497
X155035Y065497
X155885Y065497
X156735Y065497
X150785Y-044542
X151635Y-044542
X152485Y-044542
X153335Y-044542
X154185Y-044542
X155035Y-044542
X155885Y-044542
X156735Y-044542
X172025Y065497
X172875Y065497
X173725Y065497
X174575Y065497
X175425Y065497
X176275Y065497
X177125Y065497
X177975Y065497
X172025Y-044542
X172875Y-044542
X173725Y-044542
X174575Y-044542
X175425Y-044542
X176275Y-044542
X177125Y-044542
X177975Y-044542
X193265Y065497
X194115Y065497
X194965Y065497
X195815Y065497
X196665Y065497
X197515Y065497
X198365Y065497
X199215Y065497
X193265Y-044542
X194115Y-044542
X194965Y-044542
X195815Y-044542
X196665Y-044542
X197515Y-044542
X198365Y-044542
X199215Y-044542
T02
X002460Y073405
X198860Y073405
X007460Y-052450
X193860Y-052450
M30
