G04 Layer: TopPasteMaskLayer*
G04 Panelize: Stamp Hole, Column: 10, Row: 1, Board Size: 15.24mm x 109.86mm, Panelized Board Size: 206.4mm x 109.86mm*
G04 EasyEDA v6.5.34, 2023-08-21 18:11:39*
G04 2c7568c33adc46e786736174184ee4b8,5a6b42c53f6a479593ecc07194224c93,10*
G04 Gerber Generator version 0.2*
G04 Scale: 100 percent, Rotated: No, Reflected: No *
G04 Dimensions in millimeters *
G04 leading zeros omitted , absolute positions ,4 integer and 5 decimal *
%FSLAX45Y45*%
%MOMM*%

%AMMACRO1*21,1,$1,$2,0,0,$3*%
%ADD10MACRO1,2.592X2.2075X0.0000*%
%ADD11R,2.5920X2.2075*%

%LPD*%
G36*
X306222Y-3079191D02*
G01*
X301193Y-3084220D01*
X301193Y-3106978D01*
X338175Y-3106978D01*
X338175Y-3139998D01*
X301193Y-3139998D01*
X301193Y-3164179D01*
X306222Y-3169208D01*
X386181Y-3169208D01*
X391210Y-3164179D01*
X391210Y-3084220D01*
X386181Y-3079191D01*
G37*
G36*
X147218Y-3079191D02*
G01*
X142189Y-3084220D01*
X142189Y-3164179D01*
X147218Y-3169208D01*
X226212Y-3169208D01*
X231190Y-3164179D01*
X231190Y-3139998D01*
X193192Y-3139998D01*
X193192Y-3106978D01*
X231190Y-3106978D01*
X231190Y-3084220D01*
X226212Y-3079191D01*
G37*
G36*
X725322Y-3079191D02*
G01*
X720293Y-3084220D01*
X720293Y-3106978D01*
X757275Y-3106978D01*
X757275Y-3139998D01*
X720293Y-3139998D01*
X720293Y-3164179D01*
X725322Y-3169208D01*
X805281Y-3169208D01*
X810310Y-3164179D01*
X810310Y-3084220D01*
X805281Y-3079191D01*
G37*
G36*
X566318Y-3079191D02*
G01*
X561289Y-3084220D01*
X561289Y-3164179D01*
X566318Y-3169208D01*
X645312Y-3169208D01*
X650290Y-3164179D01*
X650290Y-3139998D01*
X612292Y-3139998D01*
X612292Y-3106978D01*
X650290Y-3106978D01*
X650290Y-3084220D01*
X645312Y-3079191D01*
G37*
G36*
X-164947Y-1700123D02*
G01*
X-174955Y-1710131D01*
X-174955Y-1830781D01*
X-164947Y-1840788D01*
X-69494Y-1840788D01*
X-59486Y-1830781D01*
X-59486Y-1802993D01*
X-49479Y-1792986D01*
X49479Y-1792986D01*
X59486Y-1802993D01*
X59486Y-1830781D01*
X69494Y-1840788D01*
X164947Y-1840788D01*
X174955Y-1830781D01*
X174955Y-1710131D01*
X164947Y-1700123D01*
G37*
G36*
X-164947Y-2070811D02*
G01*
X-174955Y-2080818D01*
X-174955Y-2201468D01*
X-164947Y-2211476D01*
X164947Y-2211476D01*
X174955Y-2201468D01*
X174955Y-2080818D01*
X164947Y-2070811D01*
X69494Y-2070811D01*
X59486Y-2080818D01*
X59486Y-2108606D01*
X49479Y-2118614D01*
X-49479Y-2118614D01*
X-59486Y-2108606D01*
X-59486Y-2080818D01*
X-69494Y-2070811D01*
G37*
D10*
G01*
X266699Y829975D03*
D11*
G01*
X266700Y1532229D03*
M02*
