G04 Layer: BottomSilkscreenLayer*
G04 Panelize: , Column: 8, Row: 1, Board Size: 15.24mm x 109.86mm, Panelized Board Size: 135.92mm x 109.86mm*
G04 EasyEDA v6.5.34, 2023-08-21 18:11:39*
G04 1bbcc5af6f6940b599c5f5a08724d265,5a6b42c53f6a479593ecc07194224c93,10*
G04 Gerber Generator version 0.2*
G04 Scale: 100 percent, Rotated: No, Reflected: No *
G04 Dimensions in millimeters *
G04 leading zeros omitted , absolute positions ,4 integer and 5 decimal *
%FSLAX45Y45*%
%MOMM*%

%ADD10C,0.2032*%
%ADD11C,0.1524*%
%ADD12C,0.2540*%
%ADD13C,0.1001*%
%ADD14C,0.1999*%
%ADD15C,0.0196*%

%LPD*%
D10*
X1088339Y-4252213D02*
G01*
X1088339Y-4339589D01*
X1093927Y-4355845D01*
X1099261Y-4361434D01*
X1110183Y-4366768D01*
X1121105Y-4366768D01*
X1132027Y-4361434D01*
X1137615Y-4355845D01*
X1142949Y-4339589D01*
X1142949Y-4328668D01*
X1052525Y-4252213D02*
G01*
X1052525Y-4366768D01*
X1052525Y-4366768D02*
G01*
X986993Y-4366768D01*
X869137Y-4279645D02*
G01*
X874471Y-4268723D01*
X885393Y-4257802D01*
X896315Y-4252213D01*
X918159Y-4252213D01*
X929081Y-4257802D01*
X940003Y-4268723D01*
X945591Y-4279645D01*
X950925Y-4295902D01*
X950925Y-4323079D01*
X945591Y-4339589D01*
X940003Y-4350512D01*
X929081Y-4361434D01*
X918159Y-4366768D01*
X896315Y-4366768D01*
X885393Y-4361434D01*
X874471Y-4350512D01*
X869137Y-4339589D01*
X778713Y-4252213D02*
G01*
X778713Y-4339589D01*
X784047Y-4355845D01*
X789381Y-4361434D01*
X800303Y-4366768D01*
X811225Y-4366768D01*
X822147Y-4361434D01*
X827735Y-4355845D01*
X833069Y-4339589D01*
X833069Y-4328668D01*
X742645Y-4252213D02*
G01*
X742645Y-4366768D01*
X742645Y-4366768D02*
G01*
X677113Y-4366768D01*
X559257Y-4279645D02*
G01*
X564845Y-4268723D01*
X575767Y-4257802D01*
X586689Y-4252213D01*
X608279Y-4252213D01*
X619201Y-4257802D01*
X630123Y-4268723D01*
X635711Y-4279645D01*
X641045Y-4295902D01*
X641045Y-4323079D01*
X635711Y-4339589D01*
X630123Y-4350512D01*
X619201Y-4361434D01*
X608279Y-4366768D01*
X586689Y-4366768D01*
X575767Y-4361434D01*
X564845Y-4350512D01*
X559257Y-4339589D01*
X468833Y-4252213D02*
G01*
X468833Y-4339589D01*
X474167Y-4355845D01*
X479755Y-4361434D01*
X490677Y-4366768D01*
X501599Y-4366768D01*
X512521Y-4361434D01*
X517855Y-4355845D01*
X523189Y-4339589D01*
X523189Y-4328668D01*
X432765Y-4252213D02*
G01*
X432765Y-4366768D01*
X432765Y-4366768D02*
G01*
X367233Y-4366768D01*
X249377Y-4279645D02*
G01*
X254965Y-4268723D01*
X265887Y-4257802D01*
X276809Y-4252213D01*
X298653Y-4252213D01*
X309575Y-4257802D01*
X320497Y-4268723D01*
X325831Y-4279645D01*
X331419Y-4295902D01*
X331419Y-4323079D01*
X325831Y-4339589D01*
X320497Y-4350512D01*
X309575Y-4361434D01*
X298653Y-4366768D01*
X276809Y-4366768D01*
X265887Y-4361434D01*
X254965Y-4350512D01*
X249377Y-4339589D01*
X158953Y-4252213D02*
G01*
X158953Y-4339589D01*
X164287Y-4355845D01*
X169875Y-4361434D01*
X180797Y-4366768D01*
X191719Y-4366768D01*
X202641Y-4361434D01*
X207975Y-4355845D01*
X213563Y-4339589D01*
X213563Y-4328668D01*
X122885Y-4252213D02*
G01*
X122885Y-4366768D01*
X122885Y-4366768D02*
G01*
X57607Y-4366768D01*
X-60248Y-4279645D02*
G01*
X-54914Y-4268723D01*
X-43992Y-4257802D01*
X-33070Y-4252213D01*
X-11226Y-4252213D01*
X-304Y-4257802D01*
X10617Y-4268723D01*
X15951Y-4279645D01*
X21539Y-4295902D01*
X21539Y-4323079D01*
X15951Y-4339589D01*
X10617Y-4350512D01*
X-304Y-4361434D01*
X-11226Y-4366768D01*
X-33070Y-4366768D01*
X-43992Y-4361434D01*
X-54914Y-4350512D01*
X-60248Y-4339589D01*
D11*
X533400Y128038D02*
G01*
X533400Y50106D01*
X528205Y34521D01*
X517814Y24129D01*
X502226Y18935D01*
X491835Y18935D01*
X476250Y24129D01*
X465858Y34521D01*
X460664Y50106D01*
X460664Y128038D01*
X353636Y112453D02*
G01*
X364027Y122844D01*
X379615Y128038D01*
X400395Y128038D01*
X415983Y122844D01*
X426374Y112453D01*
X426374Y102062D01*
X421177Y91671D01*
X415983Y86474D01*
X405592Y81279D01*
X374418Y70888D01*
X364027Y65694D01*
X358833Y60497D01*
X353636Y50106D01*
X353636Y34521D01*
X364027Y24129D01*
X379615Y18935D01*
X400395Y18935D01*
X415983Y24129D01*
X426374Y34521D01*
X319346Y128038D02*
G01*
X319346Y18935D01*
X319346Y128038D02*
G01*
X272587Y128038D01*
X257002Y122844D01*
X251805Y117647D01*
X246611Y107256D01*
X246611Y96865D01*
X251805Y86474D01*
X257002Y81279D01*
X272587Y76085D01*
X319346Y76085D02*
G01*
X272587Y76085D01*
X257002Y70888D01*
X251805Y65694D01*
X246611Y55303D01*
X246611Y39715D01*
X251805Y29324D01*
X257002Y24129D01*
X272587Y18935D01*
X319346Y18935D01*
X101137Y128038D02*
G01*
X111528Y122844D01*
X121920Y112453D01*
X127114Y102062D01*
X132311Y86474D01*
X132311Y60497D01*
X127114Y44912D01*
X121920Y34521D01*
X111528Y24129D01*
X101137Y18935D01*
X80355Y18935D01*
X69964Y24129D01*
X59575Y34521D01*
X54378Y44912D01*
X49184Y60497D01*
X49184Y86474D01*
X54378Y102062D01*
X59575Y112453D01*
X69964Y122844D01*
X80355Y128038D01*
X101137Y128038D01*
X14894Y128038D02*
G01*
X14894Y50106D01*
X9697Y34521D01*
X-693Y24129D01*
X-16278Y18935D01*
X-26670Y18935D01*
X-42255Y24129D01*
X-52646Y34521D01*
X-57843Y50106D01*
X-57843Y128038D01*
X-128501Y128038D02*
G01*
X-128501Y18935D01*
X-92133Y128038D02*
G01*
X-164868Y128038D01*
D10*
X1060010Y5283200D02*
G01*
X1174554Y5283200D01*
X1060010Y5283200D02*
G01*
X1060010Y5212290D01*
X1114554Y5283200D02*
G01*
X1114554Y5239562D01*
X1174554Y5283200D02*
G01*
X1174554Y5212290D01*
X1060010Y5176291D02*
G01*
X1141826Y5176291D01*
X1158191Y5170835D01*
X1169101Y5159928D01*
X1174554Y5143563D01*
X1174554Y5132654D01*
X1169101Y5116291D01*
X1158191Y5105382D01*
X1141826Y5099928D01*
X1060010Y5099928D01*
X1060010Y5063926D02*
G01*
X1174554Y5063926D01*
X1060010Y5063926D02*
G01*
X1060010Y5014836D01*
X1065463Y4998473D01*
X1070917Y4993017D01*
X1081826Y4987564D01*
X1092735Y4987564D01*
X1103645Y4993017D01*
X1109101Y4998473D01*
X1114554Y5014836D01*
X1114554Y5063926D01*
X1114554Y5025745D02*
G01*
X1174554Y4987564D01*
X1060010Y4918837D02*
G01*
X1065463Y4929746D01*
X1076373Y4940655D01*
X1087282Y4946108D01*
X1103645Y4951564D01*
X1130917Y4951564D01*
X1147282Y4946108D01*
X1158191Y4940655D01*
X1169101Y4929746D01*
X1174554Y4918837D01*
X1174554Y4897018D01*
X1169101Y4886109D01*
X1158191Y4875199D01*
X1147282Y4869746D01*
X1130917Y4864290D01*
X1103645Y4864290D01*
X1087282Y4869746D01*
X1076373Y4875199D01*
X1065463Y4886109D01*
X1060010Y4897018D01*
X1060010Y4918837D01*
X1060010Y4828291D02*
G01*
X1174554Y4828291D01*
X1060010Y4828291D02*
G01*
X1060010Y4779200D01*
X1065463Y4762837D01*
X1070917Y4757381D01*
X1081826Y4751928D01*
X1092735Y4751928D01*
X1103645Y4757381D01*
X1109101Y4762837D01*
X1114554Y4779200D01*
X1114554Y4828291D01*
X1114554Y4790109D02*
G01*
X1174554Y4751928D01*
X1060010Y4672291D02*
G01*
X1174554Y4715929D01*
X1060010Y4672291D02*
G01*
X1174554Y4628654D01*
X1136373Y4699563D02*
G01*
X1136373Y4645019D01*
X1087282Y4510836D02*
G01*
X1076373Y4516292D01*
X1065463Y4527202D01*
X1060010Y4538111D01*
X1060010Y4559929D01*
X1065463Y4570836D01*
X1076373Y4581745D01*
X1087282Y4587201D01*
X1103645Y4592655D01*
X1130917Y4592655D01*
X1147282Y4587201D01*
X1158191Y4581745D01*
X1169101Y4570836D01*
X1174554Y4559929D01*
X1174554Y4538111D01*
X1169101Y4527202D01*
X1158191Y4516292D01*
X1147282Y4510836D01*
X1060010Y4474837D02*
G01*
X1174554Y4474837D01*
X1060010Y4398474D02*
G01*
X1136373Y4474837D01*
X1109101Y4447565D02*
G01*
X1174554Y4398474D01*
X1060010Y4278475D02*
G01*
X1174554Y4278475D01*
X1060010Y4278475D02*
G01*
X1060010Y4229384D01*
X1065463Y4213019D01*
X1070917Y4207565D01*
X1081826Y4202112D01*
X1098191Y4202112D01*
X1109101Y4207565D01*
X1114554Y4213019D01*
X1120010Y4229384D01*
X1120010Y4278475D01*
X1060010Y4133385D02*
G01*
X1065463Y4144291D01*
X1076373Y4155201D01*
X1087282Y4160657D01*
X1103645Y4166110D01*
X1130917Y4166110D01*
X1147282Y4160657D01*
X1158191Y4155201D01*
X1169101Y4144291D01*
X1174554Y4133385D01*
X1174554Y4111566D01*
X1169101Y4100657D01*
X1158191Y4089747D01*
X1147282Y4084292D01*
X1130917Y4078838D01*
X1103645Y4078838D01*
X1087282Y4084292D01*
X1076373Y4089747D01*
X1065463Y4100657D01*
X1060010Y4111566D01*
X1060010Y4133385D01*
X1060010Y4042839D02*
G01*
X1174554Y4015567D01*
X1060010Y3988292D02*
G01*
X1174554Y4015567D01*
X1060010Y3988292D02*
G01*
X1174554Y3961020D01*
X1060010Y3933748D02*
G01*
X1174554Y3961020D01*
X1060010Y3897749D02*
G01*
X1174554Y3897749D01*
X1060010Y3897749D02*
G01*
X1060010Y3826840D01*
X1114554Y3897749D02*
G01*
X1114554Y3854112D01*
X1174554Y3897749D02*
G01*
X1174554Y3826840D01*
X1060010Y3790838D02*
G01*
X1174554Y3790838D01*
X1060010Y3790838D02*
G01*
X1060010Y3741747D01*
X1065463Y3725384D01*
X1070917Y3719931D01*
X1081826Y3714475D01*
X1092735Y3714475D01*
X1103645Y3719931D01*
X1109101Y3725384D01*
X1114554Y3741747D01*
X1114554Y3790838D01*
X1114554Y3752656D02*
G01*
X1174554Y3714475D01*
X1104900Y-3041210D02*
G01*
X1104900Y-3155754D01*
X1104900Y-3041210D02*
G01*
X1055809Y-3041210D01*
X1039446Y-3046663D01*
X1033990Y-3052117D01*
X1028537Y-3063026D01*
X1028537Y-3079391D01*
X1033990Y-3090301D01*
X1039446Y-3095754D01*
X1055809Y-3101210D01*
X1104900Y-3101210D01*
X948900Y-3041210D02*
G01*
X992535Y-3155754D01*
X948900Y-3041210D02*
G01*
X905263Y-3155754D01*
X976172Y-3117573D02*
G01*
X921628Y-3117573D01*
X869264Y-3041210D02*
G01*
X869264Y-3155754D01*
X869264Y-3041210D02*
G01*
X820173Y-3041210D01*
X803810Y-3046663D01*
X798355Y-3052117D01*
X792901Y-3063026D01*
X792901Y-3073935D01*
X798355Y-3084845D01*
X803810Y-3090301D01*
X820173Y-3095754D01*
X869264Y-3095754D01*
X831082Y-3095754D02*
G01*
X792901Y-3155754D01*
X718718Y-3041210D02*
G01*
X718718Y-3155754D01*
X756899Y-3041210D02*
G01*
X680537Y-3041210D01*
X560537Y-3041210D02*
G01*
X560537Y-3155754D01*
X560537Y-3041210D02*
G01*
X484174Y-3155754D01*
X484174Y-3041210D02*
G01*
X484174Y-3155754D01*
X448172Y-3041210D02*
G01*
X448172Y-3123026D01*
X442719Y-3139391D01*
X431810Y-3150301D01*
X415447Y-3155754D01*
X404538Y-3155754D01*
X388172Y-3150301D01*
X377266Y-3139391D01*
X371810Y-3123026D01*
X371810Y-3041210D01*
X335810Y-3041210D02*
G01*
X335810Y-3155754D01*
X335810Y-3041210D02*
G01*
X292173Y-3155754D01*
X248538Y-3041210D02*
G01*
X292173Y-3155754D01*
X248538Y-3041210D02*
G01*
X248538Y-3155754D01*
X212537Y-3041210D02*
G01*
X212537Y-3155754D01*
X212537Y-3041210D02*
G01*
X163446Y-3041210D01*
X147083Y-3046663D01*
X141630Y-3052117D01*
X136174Y-3063026D01*
X136174Y-3073935D01*
X141630Y-3084845D01*
X147083Y-3090301D01*
X163446Y-3095754D01*
X212537Y-3095754D02*
G01*
X163446Y-3095754D01*
X147083Y-3101210D01*
X141630Y-3106663D01*
X136174Y-3117573D01*
X136174Y-3133935D01*
X141630Y-3144845D01*
X147083Y-3150301D01*
X163446Y-3155754D01*
X212537Y-3155754D01*
X100175Y-3041210D02*
G01*
X100175Y-3155754D01*
X100175Y-3041210D02*
G01*
X29265Y-3041210D01*
X100175Y-3095754D02*
G01*
X56537Y-3095754D01*
X100175Y-3155754D02*
G01*
X29265Y-3155754D01*
X-6733Y-3041210D02*
G01*
X-6733Y-3155754D01*
X-6733Y-3041210D02*
G01*
X-55824Y-3041210D01*
X-72189Y-3046663D01*
X-77642Y-3052117D01*
X-83098Y-3063026D01*
X-83098Y-3073935D01*
X-77642Y-3084845D01*
X-72189Y-3090301D01*
X-55824Y-3095754D01*
X-6733Y-3095754D01*
X-44914Y-3095754D02*
G01*
X-83098Y-3155754D01*
X1150246Y-3271682D02*
G01*
X1150246Y-3266226D01*
X1144790Y-3255317D01*
X1139337Y-3249863D01*
X1128428Y-3244410D01*
X1106609Y-3244410D01*
X1095700Y-3249863D01*
X1090246Y-3255317D01*
X1084790Y-3266226D01*
X1084790Y-3277135D01*
X1090246Y-3288045D01*
X1101153Y-3304410D01*
X1155700Y-3358954D01*
X1079337Y-3358954D01*
X977882Y-3260773D02*
G01*
X983335Y-3249863D01*
X999700Y-3244410D01*
X1010610Y-3244410D01*
X1026972Y-3249863D01*
X1037882Y-3266226D01*
X1043335Y-3293501D01*
X1043335Y-3320773D01*
X1037882Y-3342591D01*
X1026972Y-3353501D01*
X1010610Y-3358954D01*
X1005154Y-3358954D01*
X988791Y-3353501D01*
X977882Y-3342591D01*
X972428Y-3326226D01*
X972428Y-3320773D01*
X977882Y-3304410D01*
X988791Y-3293501D01*
X1005154Y-3288045D01*
X1010610Y-3288045D01*
X1026972Y-3293501D01*
X1037882Y-3304410D01*
X1043335Y-3320773D01*
X936426Y-3266226D02*
G01*
X925517Y-3260773D01*
X909154Y-3244410D01*
X909154Y-3358954D01*
X840427Y-3244410D02*
G01*
X856790Y-3249863D01*
X867699Y-3266226D01*
X873155Y-3293501D01*
X873155Y-3309863D01*
X867699Y-3337135D01*
X856790Y-3353501D01*
X840427Y-3358954D01*
X829518Y-3358954D01*
X813155Y-3353501D01*
X802246Y-3337135D01*
X796790Y-3309863D01*
X796790Y-3293501D01*
X802246Y-3266226D01*
X813155Y-3249863D01*
X829518Y-3244410D01*
X840427Y-3244410D01*
X760790Y-3309863D02*
G01*
X662609Y-3309863D01*
X593882Y-3244410D02*
G01*
X610247Y-3249863D01*
X621154Y-3266226D01*
X626610Y-3293501D01*
X626610Y-3309863D01*
X621154Y-3337135D01*
X610247Y-3353501D01*
X593882Y-3358954D01*
X582973Y-3358954D01*
X566610Y-3353501D01*
X555701Y-3337135D01*
X550247Y-3309863D01*
X550247Y-3293501D01*
X555701Y-3266226D01*
X566610Y-3249863D01*
X582973Y-3244410D01*
X593882Y-3244410D01*
X514245Y-3266226D02*
G01*
X503336Y-3260773D01*
X486973Y-3244410D01*
X486973Y-3358954D01*
X418246Y-3244410D02*
G01*
X434611Y-3249863D01*
X445518Y-3266226D01*
X450974Y-3293501D01*
X450974Y-3309863D01*
X445518Y-3337135D01*
X434611Y-3353501D01*
X418246Y-3358954D01*
X407337Y-3358954D01*
X390974Y-3353501D01*
X380065Y-3337135D01*
X374611Y-3309863D01*
X374611Y-3293501D01*
X380065Y-3266226D01*
X390974Y-3249863D01*
X407337Y-3244410D01*
X418246Y-3244410D01*
X338609Y-3266226D02*
G01*
X327700Y-3260773D01*
X311337Y-3244410D01*
X311337Y-3358954D01*
X191338Y-3244410D02*
G01*
X147701Y-3358954D01*
X104066Y-3244410D02*
G01*
X147701Y-3358954D01*
X68066Y-3266226D02*
G01*
X57157Y-3260773D01*
X40792Y-3244410D01*
X40792Y-3358954D01*
X-660Y-3331682D02*
G01*
X4792Y-3337135D01*
X-660Y-3342591D01*
X-6116Y-3337135D01*
X-660Y-3331682D01*
X-96662Y-3244410D02*
G01*
X-42115Y-3320773D01*
X-123934Y-3320773D01*
X-96662Y-3244410D02*
G01*
X-96662Y-3358954D01*
X-159189Y2603500D02*
G01*
X-44645Y2603500D01*
X-159189Y2603500D02*
G01*
X-44645Y2527137D01*
X-159189Y2527137D02*
G01*
X-44645Y2527137D01*
X-159189Y2447500D02*
G01*
X-44645Y2491135D01*
X-159189Y2447500D02*
G01*
X-44645Y2403863D01*
X-82826Y2474772D02*
G01*
X-82826Y2420228D01*
X-159189Y2367864D02*
G01*
X-44645Y2367864D01*
X-159189Y2367864D02*
G01*
X-44645Y2291501D01*
X-159189Y2291501D02*
G01*
X-44645Y2291501D01*
X-159189Y2222774D02*
G01*
X-153736Y2233683D01*
X-142826Y2244590D01*
X-131917Y2250046D01*
X-115554Y2255499D01*
X-88282Y2255499D01*
X-71917Y2250046D01*
X-61008Y2244590D01*
X-50098Y2233683D01*
X-44645Y2222774D01*
X-44645Y2200955D01*
X-50098Y2190046D01*
X-61008Y2179137D01*
X-71917Y2173683D01*
X-88282Y2168227D01*
X-115554Y2168227D01*
X-131917Y2173683D01*
X-142826Y2179137D01*
X-153736Y2190046D01*
X-159189Y2200955D01*
X-159189Y2222774D01*
X-159189Y2132228D02*
G01*
X-44645Y2132228D01*
X-159189Y2132228D02*
G01*
X-44645Y2088591D01*
X-159189Y2044956D02*
G01*
X-44645Y2088591D01*
X-159189Y2044956D02*
G01*
X-44645Y2044956D01*
X-159189Y2008954D02*
G01*
X-44645Y2008954D01*
X-159189Y1929320D02*
G01*
X-44645Y1972955D01*
X-159189Y1929320D02*
G01*
X-44645Y1885683D01*
X-82826Y1956592D02*
G01*
X-82826Y1902045D01*
X-159189Y1765683D02*
G01*
X-44645Y1765683D01*
X-159189Y1765683D02*
G01*
X-159189Y1716592D01*
X-153736Y1700230D01*
X-148282Y1694774D01*
X-137373Y1689320D01*
X-121008Y1689320D01*
X-110098Y1694774D01*
X-104645Y1700230D01*
X-99189Y1716592D01*
X-99189Y1765683D01*
X-159189Y1620593D02*
G01*
X-153736Y1631502D01*
X-142826Y1642412D01*
X-131917Y1647865D01*
X-115554Y1653319D01*
X-88282Y1653319D01*
X-71917Y1647865D01*
X-61008Y1642412D01*
X-50098Y1631502D01*
X-44645Y1620593D01*
X-44645Y1598775D01*
X-50098Y1587865D01*
X-61008Y1576956D01*
X-71917Y1571503D01*
X-88282Y1566047D01*
X-115554Y1566047D01*
X-131917Y1571503D01*
X-142826Y1576956D01*
X-153736Y1587865D01*
X-159189Y1598775D01*
X-159189Y1620593D01*
X-159189Y1530047D02*
G01*
X-44645Y1502775D01*
X-159189Y1475501D02*
G01*
X-44645Y1502775D01*
X-159189Y1475501D02*
G01*
X-44645Y1448229D01*
X-159189Y1420957D02*
G01*
X-44645Y1448229D01*
X-159189Y1384957D02*
G01*
X-44645Y1384957D01*
X-159189Y1384957D02*
G01*
X-159189Y1314048D01*
X-104645Y1384957D02*
G01*
X-104645Y1341320D01*
X-44645Y1384957D02*
G01*
X-44645Y1314048D01*
X-159189Y1278049D02*
G01*
X-44645Y1278049D01*
X-159189Y1278049D02*
G01*
X-159189Y1228956D01*
X-153736Y1212593D01*
X-148282Y1207140D01*
X-137373Y1201684D01*
X-126464Y1201684D01*
X-115554Y1207140D01*
X-110098Y1212593D01*
X-104645Y1228956D01*
X-104645Y1278049D01*
X-104645Y1239865D02*
G01*
X-44645Y1201684D01*
X-159189Y1038049D02*
G01*
X-44645Y1081684D01*
X-159189Y1038049D02*
G01*
X-44645Y994412D01*
X-82826Y1065321D02*
G01*
X-82826Y1010775D01*
X-159189Y958413D02*
G01*
X-44645Y958413D01*
X-159189Y958413D02*
G01*
X-159189Y920231D01*
X-153736Y903866D01*
X-142826Y892957D01*
X-131917Y887503D01*
X-115554Y882048D01*
X-88282Y882048D01*
X-71917Y887503D01*
X-61008Y892957D01*
X-50098Y903866D01*
X-44645Y920231D01*
X-44645Y958413D01*
X-159189Y802413D02*
G01*
X-44645Y846048D01*
X-159189Y802413D02*
G01*
X-44645Y758776D01*
X-82826Y829685D02*
G01*
X-82826Y775139D01*
X-159189Y722777D02*
G01*
X-44645Y722777D01*
X-159189Y722777D02*
G01*
X-159189Y673686D01*
X-153736Y657321D01*
X-148282Y651868D01*
X-137373Y646412D01*
X-121008Y646412D01*
X-110098Y651868D01*
X-104645Y657321D01*
X-99189Y673686D01*
X-99189Y722777D01*
X-159189Y572231D02*
G01*
X-44645Y572231D01*
X-159189Y610412D02*
G01*
X-159189Y534050D01*
X-159189Y498050D02*
G01*
X-44645Y498050D01*
X-159189Y498050D02*
G01*
X-159189Y427141D01*
X-104645Y498050D02*
G01*
X-104645Y454413D01*
X-44645Y498050D02*
G01*
X-44645Y427141D01*
X-159189Y391139D02*
G01*
X-44645Y391139D01*
X-159189Y391139D02*
G01*
X-159189Y342049D01*
X-153736Y325686D01*
X-148282Y320233D01*
X-137373Y314777D01*
X-126464Y314777D01*
X-115554Y320233D01*
X-110098Y325686D01*
X-104645Y342049D01*
X-104645Y391139D01*
X-104645Y352958D02*
G01*
X-44645Y314777D01*
X-159189Y5384800D02*
G01*
X-44645Y5384800D01*
X-159189Y5384800D02*
G01*
X-44645Y5341162D01*
X-159189Y5297528D02*
G01*
X-44645Y5341162D01*
X-159189Y5297528D02*
G01*
X-44645Y5297528D01*
X-159189Y5217891D02*
G01*
X-44645Y5261528D01*
X-159189Y5217891D02*
G01*
X-44645Y5174254D01*
X-82826Y5245163D02*
G01*
X-82826Y5190619D01*
X-159189Y5138254D02*
G01*
X-44645Y5138254D01*
X-159189Y5102255D02*
G01*
X-44645Y5102255D01*
X-159189Y5102255D02*
G01*
X-44645Y5025890D01*
X-159189Y5025890D02*
G01*
X-44645Y5025890D01*
X-159189Y4905890D02*
G01*
X-44645Y4905890D01*
X-159189Y4905890D02*
G01*
X-159189Y4856800D01*
X-153736Y4840437D01*
X-148282Y4834983D01*
X-137373Y4829528D01*
X-126464Y4829528D01*
X-115554Y4834983D01*
X-110098Y4840437D01*
X-104645Y4856800D01*
X-104645Y4905890D02*
G01*
X-104645Y4856800D01*
X-99189Y4840437D01*
X-93736Y4834983D01*
X-82826Y4829528D01*
X-66464Y4829528D01*
X-55554Y4834983D01*
X-50098Y4840437D01*
X-44645Y4856800D01*
X-44645Y4905890D01*
X-159189Y4760800D02*
G01*
X-153736Y4771710D01*
X-142826Y4782619D01*
X-131917Y4788072D01*
X-115554Y4793528D01*
X-88282Y4793528D01*
X-71917Y4788072D01*
X-61008Y4782619D01*
X-50098Y4771710D01*
X-44645Y4760800D01*
X-44645Y4738982D01*
X-50098Y4728072D01*
X-61008Y4717166D01*
X-71917Y4711710D01*
X-88282Y4706256D01*
X-115554Y4706256D01*
X-131917Y4711710D01*
X-142826Y4717166D01*
X-153736Y4728072D01*
X-159189Y4738982D01*
X-159189Y4760800D01*
X-159189Y4626620D02*
G01*
X-44645Y4670254D01*
X-159189Y4626620D02*
G01*
X-44645Y4582982D01*
X-82826Y4653892D02*
G01*
X-82826Y4599348D01*
X-159189Y4546983D02*
G01*
X-44645Y4546983D01*
X-159189Y4546983D02*
G01*
X-159189Y4497892D01*
X-153736Y4481530D01*
X-148282Y4476074D01*
X-137373Y4470620D01*
X-126464Y4470620D01*
X-115554Y4476074D01*
X-110098Y4481530D01*
X-104645Y4497892D01*
X-104645Y4546983D01*
X-104645Y4508802D02*
G01*
X-44645Y4470620D01*
X-159189Y4434619D02*
G01*
X-44645Y4434619D01*
X-159189Y4434619D02*
G01*
X-159189Y4396437D01*
X-153736Y4380075D01*
X-142826Y4369165D01*
X-131917Y4363712D01*
X-115554Y4358256D01*
X-88282Y4358256D01*
X-71917Y4363712D01*
X-61008Y4369165D01*
X-50098Y4380075D01*
X-44645Y4396437D01*
X-44645Y4434619D01*
X-159189Y4238256D02*
G01*
X-44645Y4238256D01*
X-159189Y4238256D02*
G01*
X-159189Y4189166D01*
X-153736Y4172803D01*
X-148282Y4167347D01*
X-137373Y4161894D01*
X-126464Y4161894D01*
X-115554Y4167347D01*
X-110098Y4172803D01*
X-104645Y4189166D01*
X-104645Y4238256D02*
G01*
X-104645Y4189166D01*
X-99189Y4172803D01*
X-93736Y4167347D01*
X-82826Y4161894D01*
X-66464Y4161894D01*
X-55554Y4167347D01*
X-50098Y4172803D01*
X-44645Y4189166D01*
X-44645Y4238256D01*
X-159189Y4093166D02*
G01*
X-153736Y4104076D01*
X-142826Y4114985D01*
X-131917Y4120438D01*
X-115554Y4125892D01*
X-88282Y4125892D01*
X-71917Y4120438D01*
X-61008Y4114985D01*
X-50098Y4104076D01*
X-44645Y4093166D01*
X-44645Y4071348D01*
X-50098Y4060438D01*
X-61008Y4049529D01*
X-71917Y4044076D01*
X-88282Y4038620D01*
X-115554Y4038620D01*
X-131917Y4044076D01*
X-142826Y4049529D01*
X-153736Y4060438D01*
X-159189Y4071348D01*
X-159189Y4093166D01*
X-159189Y3964439D02*
G01*
X-44645Y3964439D01*
X-159189Y4002620D02*
G01*
X-159189Y3926258D01*
X-159189Y3852075D02*
G01*
X-44645Y3852075D01*
X-159189Y3890256D02*
G01*
X-159189Y3813893D01*
X-159189Y3745166D02*
G01*
X-153736Y3756075D01*
X-142826Y3766985D01*
X-131917Y3772438D01*
X-115554Y3777894D01*
X-88282Y3777894D01*
X-71917Y3772438D01*
X-61008Y3766985D01*
X-50098Y3756075D01*
X-44645Y3745166D01*
X-44645Y3723347D01*
X-50098Y3712438D01*
X-61008Y3701531D01*
X-71917Y3696075D01*
X-88282Y3690622D01*
X-115554Y3690622D01*
X-131917Y3696075D01*
X-142826Y3701531D01*
X-153736Y3712438D01*
X-159189Y3723347D01*
X-159189Y3745166D01*
X-159189Y3654620D02*
G01*
X-44645Y3654620D01*
X-159189Y3654620D02*
G01*
X-44645Y3610985D01*
X-159189Y3567348D02*
G01*
X-44645Y3610985D01*
X-159189Y3567348D02*
G01*
X-44645Y3567348D01*
X1060010Y2298700D02*
G01*
X1174554Y2298700D01*
X1060010Y2298700D02*
G01*
X1060010Y2260518D01*
X1065463Y2244153D01*
X1076373Y2233246D01*
X1087282Y2227790D01*
X1103645Y2222337D01*
X1130917Y2222337D01*
X1147282Y2227790D01*
X1158191Y2233246D01*
X1169100Y2244153D01*
X1174554Y2260518D01*
X1174554Y2298700D01*
X1087282Y2104519D02*
G01*
X1076373Y2109972D01*
X1065463Y2120882D01*
X1060010Y2131791D01*
X1060010Y2153610D01*
X1065463Y2164519D01*
X1076373Y2175428D01*
X1087282Y2180882D01*
X1103645Y2186335D01*
X1130917Y2186335D01*
X1147282Y2180882D01*
X1158191Y2175428D01*
X1169100Y2164519D01*
X1174554Y2153610D01*
X1174554Y2131791D01*
X1169100Y2120882D01*
X1158191Y2109972D01*
X1147282Y2104519D01*
X1125463Y2068517D02*
G01*
X1125463Y1970336D01*
X1060010Y1934337D02*
G01*
X1174554Y1934337D01*
X1060010Y1934337D02*
G01*
X1060010Y1896155D01*
X1065463Y1879790D01*
X1076373Y1868883D01*
X1087282Y1863427D01*
X1103645Y1857974D01*
X1130917Y1857974D01*
X1147282Y1863427D01*
X1158191Y1868883D01*
X1169100Y1879790D01*
X1174554Y1896155D01*
X1174554Y1934337D01*
X1087282Y1740156D02*
G01*
X1076373Y1745609D01*
X1065463Y1756519D01*
X1060010Y1767428D01*
X1060010Y1789247D01*
X1065463Y1800156D01*
X1076373Y1811065D01*
X1087282Y1816519D01*
X1103645Y1821972D01*
X1130917Y1821972D01*
X1147282Y1816519D01*
X1158191Y1811065D01*
X1169100Y1800156D01*
X1174554Y1789247D01*
X1174554Y1767428D01*
X1169100Y1756519D01*
X1158191Y1745609D01*
X1147282Y1740156D01*
X1087282Y1538338D02*
G01*
X1076373Y1543791D01*
X1065463Y1554700D01*
X1060010Y1565610D01*
X1060010Y1587428D01*
X1065463Y1598338D01*
X1076373Y1609247D01*
X1087282Y1614700D01*
X1103645Y1620156D01*
X1130917Y1620156D01*
X1147282Y1614700D01*
X1158191Y1609247D01*
X1169100Y1598338D01*
X1174554Y1587428D01*
X1174554Y1565610D01*
X1169100Y1554700D01*
X1158191Y1543791D01*
X1147282Y1538338D01*
X1060010Y1469610D02*
G01*
X1065463Y1480520D01*
X1076373Y1491429D01*
X1087282Y1496882D01*
X1103645Y1502338D01*
X1130917Y1502338D01*
X1147282Y1496882D01*
X1158191Y1491429D01*
X1169100Y1480520D01*
X1174554Y1469610D01*
X1174554Y1447792D01*
X1169100Y1436883D01*
X1158191Y1425973D01*
X1147282Y1420520D01*
X1130917Y1415064D01*
X1103645Y1415064D01*
X1087282Y1420520D01*
X1076373Y1425973D01*
X1065463Y1436883D01*
X1060010Y1447792D01*
X1060010Y1469610D01*
X1060010Y1379065D02*
G01*
X1174554Y1379065D01*
X1060010Y1379065D02*
G01*
X1174554Y1302702D01*
X1060010Y1302702D02*
G01*
X1174554Y1302702D01*
X1060010Y1266703D02*
G01*
X1174554Y1223065D01*
X1060010Y1179428D02*
G01*
X1174554Y1223065D01*
X1060010Y1143429D02*
G01*
X1174554Y1143429D01*
X1060010Y1143429D02*
G01*
X1060010Y1072520D01*
X1114554Y1143429D02*
G01*
X1114554Y1099792D01*
X1174554Y1143429D02*
G01*
X1174554Y1072520D01*
X1060010Y1036520D02*
G01*
X1174554Y1036520D01*
X1060010Y1036520D02*
G01*
X1060010Y987430D01*
X1065463Y971067D01*
X1070917Y965611D01*
X1081826Y960158D01*
X1092735Y960158D01*
X1103645Y965611D01*
X1109100Y971067D01*
X1114554Y987430D01*
X1114554Y1036520D01*
X1114554Y998339D02*
G01*
X1174554Y960158D01*
X1060010Y885974D02*
G01*
X1174554Y885974D01*
X1060010Y924156D02*
G01*
X1060010Y847793D01*
X1060010Y811794D02*
G01*
X1174554Y811794D01*
X1060010Y811794D02*
G01*
X1060010Y740884D01*
X1114554Y811794D02*
G01*
X1114554Y768156D01*
X1174554Y811794D02*
G01*
X1174554Y740884D01*
X1060010Y704885D02*
G01*
X1174554Y704885D01*
X1060010Y704885D02*
G01*
X1060010Y655794D01*
X1065463Y639429D01*
X1070917Y633976D01*
X1081826Y628520D01*
X1092735Y628520D01*
X1103645Y633976D01*
X1109100Y639429D01*
X1114554Y655794D01*
X1114554Y704885D01*
X1114554Y666704D02*
G01*
X1174554Y628520D01*
D11*
X1091044Y5868329D02*
G01*
X1091044Y5785203D01*
X1096241Y5769615D01*
X1101435Y5764420D01*
X1111826Y5759226D01*
X1122217Y5759226D01*
X1132608Y5764420D01*
X1137805Y5769615D01*
X1143000Y5785203D01*
X1143000Y5795594D01*
X1056754Y5847547D02*
G01*
X1046365Y5852744D01*
X1030777Y5868329D01*
X1030777Y5759226D01*
X1087180Y126568D02*
G01*
X1087180Y43441D01*
X1092377Y27853D01*
X1097572Y22659D01*
X1107963Y17465D01*
X1118354Y17465D01*
X1128745Y22659D01*
X1133942Y27853D01*
X1139136Y43441D01*
X1139136Y53832D01*
X1000937Y126568D02*
G01*
X1052890Y53832D01*
X974961Y53832D01*
X1000937Y126568D02*
G01*
X1000937Y17465D01*
D12*
X947999Y3086996D02*
G01*
X947999Y5878987D01*
X947999Y5878984D02*
G01*
X68000Y5878987D01*
X68000Y5878987D02*
G01*
X68000Y3086996D01*
X68000Y3086996D02*
G01*
X947999Y3086996D01*
X76200Y4228990D02*
G01*
X203200Y4228990D01*
X203200Y4736990D01*
X76200Y4736990D01*
X127000Y3136790D02*
G01*
X889000Y3136790D01*
X889000Y5829190D01*
X127000Y5829190D01*
X127000Y4736990D01*
X127000Y4228990D02*
G01*
X127000Y3136790D01*
X125872Y3230013D02*
G01*
X279400Y3314590D01*
X125872Y3407813D01*
D13*
X529104Y-1476804D02*
G01*
X-246890Y-1476804D01*
X-246890Y-26794D01*
X529104Y-26794D01*
X1153106Y-1476804D02*
G01*
X1153106Y-26794D01*
D14*
G75*
G01*
X1233091Y-1094788D02*
G02*
X1253106Y-1094788I10008J0D01*
G75*
G01*
X1253106Y-1094788D02*
G02*
X1233091Y-1094788I-10007J0D01*
D12*
G75*
G01
X817499Y-749300D02*
G03X817499Y-749300I-499999J0D01*
X53111Y2564206D02*
G01*
X973099Y2564206D01*
X973099Y384200D01*
X53111Y384200D01*
X53111Y2564206D01*
M02*
