G04 Layer: TopSilkscreenLayer*
G04 Panelize: , Column: 8, Row: 1, Board Size: 15.24mm x 109.86mm, Panelized Board Size: 135.92mm x 109.86mm*
G04 EasyEDA v6.5.34, 2023-08-21 18:11:39*
G04 1bbcc5af6f6940b599c5f5a08724d265,5a6b42c53f6a479593ecc07194224c93,10*
G04 Gerber Generator version 0.2*
G04 Scale: 100 percent, Rotated: No, Reflected: No *
G04 Dimensions in millimeters *
G04 leading zeros omitted , absolute positions ,4 integer and 5 decimal *
%FSLAX45Y45*%
%MOMM*%

%ADD10C,0.2032*%
%ADD11C,0.1524*%
%ADD12C,0.1520*%
%ADD13C,0.2540*%

%LPD*%
D10*
X-159257Y3746500D02*
G01*
X-44704Y3746500D01*
X-159257Y3746500D02*
G01*
X-44704Y3790187D01*
X-159257Y3833876D02*
G01*
X-44704Y3790187D01*
X-159257Y3833876D02*
G01*
X-44704Y3833876D01*
X-159257Y3913378D02*
G01*
X-44704Y3869689D01*
X-159257Y3913378D02*
G01*
X-44704Y3957065D01*
X-82804Y3886200D02*
G01*
X-82804Y3940555D01*
X-159257Y3993134D02*
G01*
X-44704Y3993134D01*
X-159257Y4028947D02*
G01*
X-44704Y4028947D01*
X-159257Y4028947D02*
G01*
X-44704Y4105402D01*
X-159257Y4105402D02*
G01*
X-44704Y4105402D01*
X-159257Y4225289D02*
G01*
X-44704Y4225289D01*
X-159257Y4225289D02*
G01*
X-159257Y4274565D01*
X-153670Y4290821D01*
X-148336Y4296410D01*
X-137413Y4301744D01*
X-126492Y4301744D01*
X-115570Y4296410D01*
X-109981Y4290821D01*
X-104647Y4274565D01*
X-104647Y4225289D02*
G01*
X-104647Y4274565D01*
X-99313Y4290821D01*
X-93726Y4296410D01*
X-82804Y4301744D01*
X-66547Y4301744D01*
X-55626Y4296410D01*
X-50037Y4290821D01*
X-44704Y4274565D01*
X-44704Y4225289D01*
X-159257Y4370578D02*
G01*
X-153670Y4359655D01*
X-142747Y4348734D01*
X-131826Y4343145D01*
X-115570Y4337812D01*
X-88392Y4337812D01*
X-71881Y4343145D01*
X-60960Y4348734D01*
X-50037Y4359655D01*
X-44704Y4370578D01*
X-44704Y4392421D01*
X-50037Y4403344D01*
X-60960Y4414012D01*
X-71881Y4419600D01*
X-88392Y4424934D01*
X-115570Y4424934D01*
X-131826Y4419600D01*
X-142747Y4414012D01*
X-153670Y4403344D01*
X-159257Y4392421D01*
X-159257Y4370578D01*
X-159257Y4504689D02*
G01*
X-44704Y4461002D01*
X-159257Y4504689D02*
G01*
X-44704Y4548378D01*
X-82804Y4477512D02*
G01*
X-82804Y4531868D01*
X-159257Y4584192D02*
G01*
X-44704Y4584192D01*
X-159257Y4584192D02*
G01*
X-159257Y4633468D01*
X-153670Y4649723D01*
X-148336Y4655312D01*
X-137413Y4660645D01*
X-126492Y4660645D01*
X-115570Y4655312D01*
X-109981Y4649723D01*
X-104647Y4633468D01*
X-104647Y4584192D01*
X-104647Y4622545D02*
G01*
X-44704Y4660645D01*
X-159257Y4696713D02*
G01*
X-44704Y4696713D01*
X-159257Y4696713D02*
G01*
X-159257Y4734813D01*
X-153670Y4751323D01*
X-142747Y4762245D01*
X-131826Y4767579D01*
X-115570Y4773168D01*
X-88392Y4773168D01*
X-71881Y4767579D01*
X-60960Y4762245D01*
X-50037Y4751323D01*
X-44704Y4734813D01*
X-44704Y4696713D01*
X-159257Y4931155D02*
G01*
X-44704Y4931155D01*
X-159257Y4893055D02*
G01*
X-159257Y4969510D01*
X-159257Y5038089D02*
G01*
X-153670Y5027168D01*
X-142747Y5016245D01*
X-131826Y5010912D01*
X-115570Y5005323D01*
X-88392Y5005323D01*
X-71881Y5010912D01*
X-60960Y5016245D01*
X-50037Y5027168D01*
X-44704Y5038089D01*
X-44704Y5059934D01*
X-50037Y5070855D01*
X-60960Y5081778D01*
X-71881Y5087112D01*
X-88392Y5092700D01*
X-115570Y5092700D01*
X-131826Y5087112D01*
X-142747Y5081778D01*
X-153670Y5070855D01*
X-159257Y5059934D01*
X-159257Y5038089D01*
X-159257Y5128768D02*
G01*
X-44704Y5128768D01*
X-159257Y5128768D02*
G01*
X-159257Y5177789D01*
X-153670Y5194045D01*
X-148336Y5199634D01*
X-137413Y5204968D01*
X-120904Y5204968D01*
X-109981Y5199634D01*
X-104647Y5194045D01*
X-99313Y5177789D01*
X-99313Y5128768D01*
X-159189Y317500D02*
G01*
X-44645Y317500D01*
X-159189Y317500D02*
G01*
X-44645Y393862D01*
X-159189Y393862D02*
G01*
X-44645Y393862D01*
X-159189Y473499D02*
G01*
X-44645Y429864D01*
X-159189Y473499D02*
G01*
X-44645Y517136D01*
X-82826Y446227D02*
G01*
X-82826Y500771D01*
X-159189Y553135D02*
G01*
X-44645Y553135D01*
X-159189Y553135D02*
G01*
X-44645Y629498D01*
X-159189Y629498D02*
G01*
X-44645Y629498D01*
X-159189Y698225D02*
G01*
X-153736Y687316D01*
X-142826Y676409D01*
X-131917Y670953D01*
X-115554Y665500D01*
X-88282Y665500D01*
X-71917Y670953D01*
X-61008Y676409D01*
X-50098Y687316D01*
X-44645Y698225D01*
X-44645Y720044D01*
X-50098Y730953D01*
X-61008Y741862D01*
X-71917Y747316D01*
X-88282Y752772D01*
X-115554Y752772D01*
X-131917Y747316D01*
X-142826Y741862D01*
X-153736Y730953D01*
X-159189Y720044D01*
X-159189Y698225D01*
X-159189Y788771D02*
G01*
X-44645Y788771D01*
X-159189Y788771D02*
G01*
X-44645Y832408D01*
X-159189Y876043D02*
G01*
X-44645Y832408D01*
X-159189Y876043D02*
G01*
X-44645Y876043D01*
X-159189Y912045D02*
G01*
X-44645Y912045D01*
X-159189Y991679D02*
G01*
X-44645Y948044D01*
X-159189Y991679D02*
G01*
X-44645Y1035316D01*
X-82826Y964407D02*
G01*
X-82826Y1018954D01*
X-159189Y1155316D02*
G01*
X-44645Y1155316D01*
X-159189Y1155316D02*
G01*
X-159189Y1204407D01*
X-153736Y1220769D01*
X-148282Y1226225D01*
X-137373Y1231679D01*
X-121008Y1231679D01*
X-110098Y1226225D01*
X-104645Y1220769D01*
X-99189Y1204407D01*
X-99189Y1155316D01*
X-159189Y1300406D02*
G01*
X-153736Y1289497D01*
X-142826Y1278587D01*
X-131917Y1273134D01*
X-115554Y1267680D01*
X-88282Y1267680D01*
X-71917Y1273134D01*
X-61008Y1278587D01*
X-50098Y1289497D01*
X-44645Y1300406D01*
X-44645Y1322224D01*
X-50098Y1333134D01*
X-61008Y1344043D01*
X-71917Y1349496D01*
X-88282Y1354952D01*
X-115554Y1354952D01*
X-131917Y1349496D01*
X-142826Y1344043D01*
X-153736Y1333134D01*
X-159189Y1322224D01*
X-159189Y1300406D01*
X-159189Y1390952D02*
G01*
X-44645Y1418224D01*
X-159189Y1445498D02*
G01*
X-44645Y1418224D01*
X-159189Y1445498D02*
G01*
X-44645Y1472770D01*
X-159189Y1500042D02*
G01*
X-44645Y1472770D01*
X-159189Y1536042D02*
G01*
X-44645Y1536042D01*
X-159189Y1536042D02*
G01*
X-159189Y1606951D01*
X-104645Y1536042D02*
G01*
X-104645Y1579679D01*
X-44645Y1536042D02*
G01*
X-44645Y1606951D01*
X-159189Y1642950D02*
G01*
X-44645Y1642950D01*
X-159189Y1642950D02*
G01*
X-159189Y1692043D01*
X-153736Y1708406D01*
X-148282Y1713859D01*
X-137373Y1719315D01*
X-126464Y1719315D01*
X-115554Y1713859D01*
X-110098Y1708406D01*
X-104645Y1692043D01*
X-104645Y1642950D01*
X-104645Y1681134D02*
G01*
X-44645Y1719315D01*
X-159189Y1882950D02*
G01*
X-44645Y1839315D01*
X-159189Y1882950D02*
G01*
X-44645Y1926587D01*
X-82826Y1855678D02*
G01*
X-82826Y1910224D01*
X-159189Y1962586D02*
G01*
X-44645Y1962586D01*
X-159189Y1962586D02*
G01*
X-159189Y2000768D01*
X-153736Y2017133D01*
X-142826Y2028042D01*
X-131917Y2033496D01*
X-115554Y2038951D01*
X-88282Y2038951D01*
X-71917Y2033496D01*
X-61008Y2028042D01*
X-50098Y2017133D01*
X-44645Y2000768D01*
X-44645Y1962586D01*
X-159189Y2118586D02*
G01*
X-44645Y2074951D01*
X-159189Y2118586D02*
G01*
X-44645Y2162223D01*
X-82826Y2091314D02*
G01*
X-82826Y2145860D01*
X-159189Y2198222D02*
G01*
X-44645Y2198222D01*
X-159189Y2198222D02*
G01*
X-159189Y2247313D01*
X-153736Y2263678D01*
X-148282Y2269131D01*
X-137373Y2274587D01*
X-121008Y2274587D01*
X-110098Y2269131D01*
X-104645Y2263678D01*
X-99189Y2247313D01*
X-99189Y2198222D01*
X-159189Y2348768D02*
G01*
X-44645Y2348768D01*
X-159189Y2310587D02*
G01*
X-159189Y2386949D01*
X-159189Y2422949D02*
G01*
X-44645Y2422949D01*
X-159189Y2422949D02*
G01*
X-159189Y2493858D01*
X-104645Y2422949D02*
G01*
X-104645Y2466586D01*
X-44645Y2422949D02*
G01*
X-44645Y2493858D01*
X-159189Y2529860D02*
G01*
X-44645Y2529860D01*
X-159189Y2529860D02*
G01*
X-159189Y2578950D01*
X-153736Y2595313D01*
X-148282Y2600766D01*
X-137373Y2606222D01*
X-126464Y2606222D01*
X-115554Y2600766D01*
X-110098Y2595313D01*
X-104645Y2578950D01*
X-104645Y2529860D01*
X-104645Y2568041D02*
G01*
X-44645Y2606222D01*
D11*
X258566Y624326D02*
G01*
X254248Y633470D01*
X245104Y642360D01*
X235960Y646932D01*
X217672Y646932D01*
X208782Y642360D01*
X199638Y633470D01*
X195066Y624326D01*
X190494Y610610D01*
X190494Y588004D01*
X195066Y574288D01*
X199638Y565144D01*
X208782Y556000D01*
X217672Y551428D01*
X235960Y551428D01*
X245104Y556000D01*
X254248Y565144D01*
X258566Y574288D01*
X288792Y628898D02*
G01*
X297682Y633470D01*
X311398Y646932D01*
X311398Y551428D01*
X-63500Y-3074162D02*
G01*
X-63500Y-3169665D01*
X-63500Y-3074162D02*
G01*
X-22605Y-3074162D01*
X-8889Y-3078734D01*
X-4318Y-3083305D01*
X254Y-3092195D01*
X254Y-3101339D01*
X-4318Y-3110484D01*
X-8889Y-3115055D01*
X-22605Y-3119628D01*
X-63500Y-3119628D01*
X-31750Y-3119628D02*
G01*
X254Y-3169665D01*
X84581Y-3074162D02*
G01*
X39115Y-3074162D01*
X34797Y-3115055D01*
X39115Y-3110484D01*
X52831Y-3105912D01*
X66547Y-3105912D01*
X80010Y-3110484D01*
X89154Y-3119628D01*
X93726Y-3133089D01*
X93726Y-3142234D01*
X89154Y-3155950D01*
X80010Y-3165094D01*
X66547Y-3169665D01*
X52831Y-3169665D01*
X39115Y-3165094D01*
X34797Y-3160521D01*
X30226Y-3151378D01*
X863600Y-3074162D02*
G01*
X863600Y-3169665D01*
X863600Y-3074162D02*
G01*
X904493Y-3074162D01*
X918209Y-3078734D01*
X922781Y-3083305D01*
X927354Y-3092195D01*
X927354Y-3101339D01*
X922781Y-3110484D01*
X918209Y-3115055D01*
X904493Y-3119628D01*
X863600Y-3119628D01*
X895350Y-3119628D02*
G01*
X927354Y-3169665D01*
X1011681Y-3087623D02*
G01*
X1007109Y-3078734D01*
X993647Y-3074162D01*
X984504Y-3074162D01*
X970788Y-3078734D01*
X961897Y-3092195D01*
X957325Y-3115055D01*
X957325Y-3137662D01*
X961897Y-3155950D01*
X970788Y-3165094D01*
X984504Y-3169665D01*
X989075Y-3169665D01*
X1002791Y-3165094D01*
X1011681Y-3155950D01*
X1016254Y-3142234D01*
X1016254Y-3137662D01*
X1011681Y-3124200D01*
X1002791Y-3115055D01*
X989075Y-3110484D01*
X984504Y-3110484D01*
X970788Y-3115055D01*
X961897Y-3124200D01*
X957325Y-3137662D01*
X-63500Y-2312162D02*
G01*
X-63500Y-2407665D01*
X-63500Y-2312162D02*
G01*
X-4318Y-2312162D01*
X-63500Y-2357628D02*
G01*
X-27178Y-2357628D01*
X25654Y-2330195D02*
G01*
X34797Y-2325623D01*
X48260Y-2312162D01*
X48260Y-2407665D01*
X-36829Y-3466076D02*
G01*
X-36829Y-3549134D01*
X-42163Y-3564882D01*
X-47244Y-3569962D01*
X-57657Y-3575042D01*
X-68071Y-3575042D01*
X-78486Y-3569962D01*
X-83820Y-3564882D01*
X-88900Y-3549134D01*
X-88900Y-3538720D01*
X7620Y-3466076D02*
G01*
X64770Y-3466076D01*
X33781Y-3507732D01*
X49276Y-3507732D01*
X59689Y-3512812D01*
X64770Y-3517892D01*
X70104Y-3533640D01*
X70104Y-3544054D01*
X64770Y-3559548D01*
X54610Y-3569962D01*
X38862Y-3575042D01*
X23368Y-3575042D01*
X7620Y-3569962D01*
X2539Y-3564882D01*
X-2539Y-3554468D01*
X-37007Y2883910D02*
G01*
X-37007Y2800852D01*
X-42087Y2785104D01*
X-47421Y2780024D01*
X-57835Y2774944D01*
X-67995Y2774944D01*
X-78409Y2780024D01*
X-83743Y2785104D01*
X-88823Y2800852D01*
X-88823Y2811266D01*
X2616Y2858002D02*
G01*
X2616Y2863082D01*
X7696Y2873496D01*
X13030Y2878830D01*
X23444Y2883910D01*
X44018Y2883910D01*
X54432Y2878830D01*
X59766Y2873496D01*
X64846Y2863082D01*
X64846Y2852668D01*
X59766Y2842254D01*
X49352Y2826760D01*
X-2717Y2774944D01*
X70180Y2774944D01*
X830072Y-2537968D02*
G01*
X825754Y-2528823D01*
X816609Y-2519934D01*
X807465Y-2515362D01*
X789177Y-2515362D01*
X780288Y-2519934D01*
X771143Y-2528823D01*
X766572Y-2537968D01*
X762000Y-2551684D01*
X762000Y-2574289D01*
X766572Y-2588005D01*
X771143Y-2597150D01*
X780288Y-2606294D01*
X789177Y-2610865D01*
X807465Y-2610865D01*
X816609Y-2606294D01*
X825754Y-2597150D01*
X830072Y-2588005D01*
X860297Y-2515362D02*
G01*
X860297Y-2610865D01*
X860297Y-2515362D02*
G01*
X923797Y-2610865D01*
X923797Y-2515362D02*
G01*
X923797Y-2610865D01*
X953770Y-2533395D02*
G01*
X962913Y-2528823D01*
X976629Y-2515362D01*
X976629Y-2610865D01*
G36*
X36474Y1591818D02*
G01*
X36474Y1546098D01*
X121869Y1546098D01*
X121869Y1591818D01*
G37*
G36*
X411530Y1591818D02*
G01*
X411530Y1546098D01*
X496925Y1546098D01*
X496925Y1591818D01*
G37*
X44079Y808476D02*
G01*
X44079Y1553723D01*
X489320Y808476D02*
G01*
X489320Y1553723D01*
X44079Y1401526D02*
G01*
X489320Y1401526D01*
X44079Y808476D02*
G01*
X116781Y808476D01*
X489320Y808476D02*
G01*
X416618Y808476D01*
X309321Y-3190260D02*
G01*
X405208Y-3190260D01*
X405208Y-3058139D01*
X309321Y-3058139D01*
X224078Y-3190260D02*
G01*
X128191Y-3190260D01*
X128191Y-3058139D01*
X224078Y-3058139D01*
X728421Y-3190260D02*
G01*
X824308Y-3190260D01*
X824308Y-3058139D01*
X728421Y-3058139D01*
X643178Y-3190260D02*
G01*
X547291Y-3190260D01*
X547291Y-3058139D01*
X643178Y-3058139D01*
D12*
X-179776Y-2235200D02*
G01*
X175823Y-2235200D01*
X-177800Y-1676400D02*
G01*
X177800Y-1676400D01*
D11*
X203200Y-2082800D02*
G01*
X203200Y-2209800D01*
X203200Y-1828800D02*
G01*
X203200Y-1701800D01*
X-203200Y-2209800D02*
G01*
X-203200Y-2079294D01*
X-203200Y-1701800D02*
G01*
X-203200Y-1828800D01*
D13*
X704900Y-3619492D02*
G01*
X704900Y-3428992D01*
X907999Y-3617892D02*
G01*
X108000Y-3617892D01*
X108000Y-3417892D01*
X907999Y-3417892D01*
X907999Y-3617892D01*
X704900Y2730494D02*
G01*
X704900Y2920994D01*
X907999Y2732095D02*
G01*
X108000Y2732095D01*
X108000Y2932094D01*
X907999Y2932094D01*
X907999Y2732095D01*
X367301Y-2135715D02*
G01*
X623298Y-2135713D01*
X623298Y-2969709D02*
G01*
X367299Y-2969709D01*
X367301Y-2969709D02*
G01*
X367301Y-2835902D01*
X367301Y-2669522D02*
G01*
X367301Y-2435903D01*
X367301Y-2269523D02*
G01*
X367301Y-2135715D01*
X623300Y-2969709D02*
G01*
X623300Y-2835907D01*
X623300Y-2669517D02*
G01*
X623300Y-2435908D01*
X623300Y-2269517D02*
G01*
X623300Y-2135713D01*
D12*
G75*
G01*
X0Y-1955800D02*
G02*
X63500Y-1955800I31750J0D01*
G75*
G01*
X0Y-1955800D02*
G02*
X-63500Y-1955800I-31750J0D01*
M02*
