G04 Layer: TopLayer*
G04 EasyEDA v6.5.29, 2023-07-19 21:55:29*
G04 cd10bac7ed824a03a08366421e07836e,5a6b42c53f6a479593ecc07194224c93,10*
G04 Gerber Generator version 0.2*
G04 Scale: 100 percent, Rotated: No, Reflected: No *
G04 Dimensions in millimeters *
G04 leading zeros omitted , absolute positions ,4 integer and 5 decimal *
%FSLAX45Y45*%
%MOMM*%

%AMMACRO1*21,1,$1,$2,0,0,$3*%
%ADD10C,0.2540*%
%ADD11C,0.5000*%
%ADD12MACRO1,1.8X1.8X0.0000*%
%ADD13C,1.8000*%
%ADD14C,1.6500*%
%ADD15C,1.4000*%
%ADD16R,1.5240X1.4000*%
%ADD17C,0.6096*%
%ADD18C,0.0168*%

%LPD*%
G36*
X36068Y914908D02*
G01*
X32156Y915669D01*
X28905Y917905D01*
X26670Y921156D01*
X25908Y925068D01*
X25908Y11901932D01*
X26670Y11905843D01*
X28905Y11909094D01*
X32156Y11911330D01*
X36068Y11912092D01*
X4027932Y11912092D01*
X4031843Y11911330D01*
X4035094Y11909094D01*
X4037329Y11905843D01*
X4038092Y11901932D01*
X4038092Y925068D01*
X4037329Y921156D01*
X4035094Y917905D01*
X4031843Y915669D01*
X4027932Y914908D01*
G37*

%LPC*%
G36*
X228600Y11431117D02*
G01*
X243789Y11432032D01*
X258724Y11434775D01*
X273253Y11439296D01*
X287121Y11445544D01*
X300126Y11453418D01*
X312064Y11462766D01*
X322834Y11473535D01*
X332181Y11485473D01*
X340055Y11498478D01*
X346303Y11512346D01*
X350824Y11526875D01*
X353568Y11541810D01*
X354482Y11557000D01*
X353568Y11572189D01*
X350824Y11587124D01*
X346303Y11601653D01*
X340055Y11615521D01*
X332181Y11628526D01*
X322834Y11640464D01*
X312064Y11651234D01*
X300126Y11660581D01*
X287121Y11668455D01*
X273253Y11674703D01*
X258724Y11679224D01*
X243789Y11681968D01*
X228600Y11682882D01*
X213410Y11681968D01*
X198475Y11679224D01*
X183946Y11674703D01*
X170078Y11668455D01*
X157073Y11660581D01*
X145135Y11651234D01*
X134366Y11640464D01*
X125018Y11628526D01*
X117144Y11615521D01*
X110896Y11601653D01*
X106375Y11587124D01*
X103632Y11572189D01*
X102717Y11557000D01*
X103632Y11541810D01*
X106375Y11526875D01*
X110896Y11512346D01*
X117144Y11498478D01*
X125018Y11485473D01*
X134366Y11473535D01*
X145135Y11462766D01*
X157073Y11453418D01*
X170078Y11445544D01*
X183946Y11439296D01*
X198475Y11434775D01*
X213410Y11432032D01*
G37*
G36*
X228600Y979017D02*
G01*
X243789Y979932D01*
X258724Y982675D01*
X273253Y987196D01*
X287121Y993444D01*
X300126Y1001318D01*
X312064Y1010666D01*
X322834Y1021435D01*
X332181Y1033373D01*
X340055Y1046378D01*
X346303Y1060246D01*
X350824Y1074775D01*
X353568Y1089710D01*
X354482Y1104900D01*
X353568Y1120089D01*
X350824Y1135024D01*
X346303Y1149553D01*
X340055Y1163421D01*
X332181Y1176426D01*
X322834Y1188364D01*
X312064Y1199134D01*
X300126Y1208481D01*
X287121Y1216355D01*
X273253Y1222603D01*
X258724Y1227124D01*
X243789Y1229868D01*
X228600Y1230782D01*
X213410Y1229868D01*
X198475Y1227124D01*
X183946Y1222603D01*
X170078Y1216355D01*
X157073Y1208481D01*
X145135Y1199134D01*
X134366Y1188364D01*
X125018Y1176426D01*
X117144Y1163421D01*
X110896Y1149553D01*
X106375Y1135024D01*
X103632Y1120089D01*
X102717Y1104900D01*
X103632Y1089710D01*
X106375Y1074775D01*
X110896Y1060246D01*
X117144Y1046378D01*
X125018Y1033373D01*
X134366Y1021435D01*
X145135Y1010666D01*
X157073Y1001318D01*
X170078Y993444D01*
X183946Y987196D01*
X198475Y982675D01*
X213410Y979932D01*
G37*
G36*
X1524558Y1053592D02*
G01*
X2539441Y1053592D01*
X2545740Y1054303D01*
X2551226Y1056233D01*
X2556103Y1059281D01*
X2560218Y1063396D01*
X2563266Y1068273D01*
X2565196Y1073759D01*
X2565908Y1080058D01*
X2565908Y1612341D01*
X2565196Y1618640D01*
X2563266Y1624126D01*
X2560218Y1629003D01*
X2556103Y1633118D01*
X2551226Y1636166D01*
X2545740Y1638096D01*
X2539441Y1638807D01*
X1524558Y1638807D01*
X1518259Y1638096D01*
X1512773Y1636166D01*
X1507896Y1633118D01*
X1503781Y1629003D01*
X1500733Y1624126D01*
X1498803Y1618640D01*
X1498092Y1612341D01*
X1498092Y1080058D01*
X1498803Y1073759D01*
X1500733Y1068273D01*
X1503781Y1063396D01*
X1507896Y1059281D01*
X1512773Y1056233D01*
X1518259Y1054303D01*
G37*
G36*
X178308Y2044192D02*
G01*
X2742692Y2044192D01*
X2750718Y2045004D01*
X2757932Y2047189D01*
X2764637Y2050745D01*
X2770835Y2055875D01*
X2820924Y2105964D01*
X2826054Y2112162D01*
X2829610Y2118868D01*
X2831795Y2126081D01*
X2832608Y2134108D01*
X2832608Y2647391D01*
X2833370Y2651302D01*
X2835605Y2654604D01*
X2837180Y2656179D01*
X2842818Y2664206D01*
X2846933Y2673146D01*
X2849473Y2682595D01*
X2850337Y2692400D01*
X2849473Y2702204D01*
X2846933Y2711653D01*
X2842818Y2720594D01*
X2837180Y2728620D01*
X2830220Y2735580D01*
X2822194Y2741218D01*
X2813253Y2745333D01*
X2803804Y2747873D01*
X2794000Y2748737D01*
X2784195Y2747873D01*
X2774746Y2745333D01*
X2765806Y2741218D01*
X2757779Y2735580D01*
X2750820Y2728620D01*
X2745181Y2720594D01*
X2741066Y2711653D01*
X2738526Y2702204D01*
X2737662Y2692400D01*
X2738526Y2682595D01*
X2741066Y2673146D01*
X2745181Y2664206D01*
X2750820Y2656179D01*
X2752394Y2654604D01*
X2754630Y2651302D01*
X2755392Y2647391D01*
X2755392Y2153818D01*
X2754630Y2149906D01*
X2752394Y2146604D01*
X2730195Y2124405D01*
X2726893Y2122170D01*
X2722981Y2121408D01*
X2543454Y2121408D01*
X2539542Y2122170D01*
X2536240Y2124405D01*
X2534056Y2127656D01*
X2533294Y2131568D01*
X2534056Y2135479D01*
X2536240Y2138730D01*
X2566924Y2169464D01*
X2572054Y2175662D01*
X2575610Y2182368D01*
X2577795Y2189581D01*
X2578608Y2197608D01*
X2578608Y2647391D01*
X2579370Y2651302D01*
X2581605Y2654604D01*
X2583180Y2656179D01*
X2588818Y2664206D01*
X2592933Y2673146D01*
X2595473Y2682595D01*
X2596337Y2692400D01*
X2595473Y2702204D01*
X2592933Y2711653D01*
X2588818Y2720594D01*
X2583180Y2728620D01*
X2576220Y2735580D01*
X2568194Y2741218D01*
X2559253Y2745333D01*
X2549804Y2747873D01*
X2540000Y2748737D01*
X2530195Y2747873D01*
X2520746Y2745333D01*
X2511806Y2741218D01*
X2503779Y2735580D01*
X2496820Y2728620D01*
X2491181Y2720594D01*
X2487066Y2711653D01*
X2484526Y2702204D01*
X2483662Y2692400D01*
X2484526Y2682595D01*
X2487066Y2673146D01*
X2491181Y2664206D01*
X2496820Y2656179D01*
X2498394Y2654604D01*
X2500630Y2651302D01*
X2501392Y2647391D01*
X2501392Y2217318D01*
X2500630Y2213406D01*
X2498394Y2210104D01*
X2476195Y2187905D01*
X2472893Y2185670D01*
X2468981Y2184908D01*
X2289454Y2184908D01*
X2285542Y2185670D01*
X2282240Y2187905D01*
X2280056Y2191156D01*
X2279294Y2195068D01*
X2280056Y2198979D01*
X2282240Y2202230D01*
X2312924Y2232964D01*
X2318054Y2239162D01*
X2321610Y2245868D01*
X2323795Y2253081D01*
X2324608Y2261108D01*
X2324608Y2647391D01*
X2325370Y2651302D01*
X2327605Y2654604D01*
X2329180Y2656179D01*
X2334818Y2664206D01*
X2338933Y2673146D01*
X2341473Y2682595D01*
X2342337Y2692400D01*
X2341473Y2702204D01*
X2338933Y2711653D01*
X2334818Y2720594D01*
X2329180Y2728620D01*
X2322220Y2735580D01*
X2314194Y2741218D01*
X2305253Y2745333D01*
X2295804Y2747873D01*
X2286000Y2748737D01*
X2276195Y2747873D01*
X2266746Y2745333D01*
X2257806Y2741218D01*
X2249779Y2735580D01*
X2242820Y2728620D01*
X2237181Y2720594D01*
X2233066Y2711653D01*
X2230526Y2702204D01*
X2229662Y2692400D01*
X2230526Y2682595D01*
X2233066Y2673146D01*
X2237181Y2664206D01*
X2242820Y2656179D01*
X2244394Y2654604D01*
X2246630Y2651302D01*
X2247392Y2647391D01*
X2247392Y2280818D01*
X2246630Y2276906D01*
X2244394Y2273604D01*
X2222195Y2251405D01*
X2218893Y2249170D01*
X2214981Y2248408D01*
X2035454Y2248408D01*
X2031542Y2249170D01*
X2028240Y2251405D01*
X2026056Y2254656D01*
X2025294Y2258568D01*
X2026056Y2262479D01*
X2028240Y2265730D01*
X2058924Y2296464D01*
X2064054Y2302662D01*
X2067610Y2309368D01*
X2069795Y2316581D01*
X2070607Y2324608D01*
X2070607Y2647391D01*
X2071370Y2651302D01*
X2073605Y2654604D01*
X2075180Y2656179D01*
X2080818Y2664206D01*
X2084933Y2673146D01*
X2087473Y2682595D01*
X2088337Y2692400D01*
X2087473Y2702204D01*
X2084933Y2711653D01*
X2080818Y2720594D01*
X2075180Y2728620D01*
X2068220Y2735580D01*
X2060193Y2741218D01*
X2051253Y2745333D01*
X2041804Y2747873D01*
X2032000Y2748737D01*
X2022195Y2747873D01*
X2012746Y2745333D01*
X2003806Y2741218D01*
X1995779Y2735580D01*
X1988820Y2728620D01*
X1983181Y2720594D01*
X1979066Y2711653D01*
X1976526Y2702204D01*
X1975662Y2692400D01*
X1976526Y2682595D01*
X1979066Y2673146D01*
X1983181Y2664206D01*
X1988820Y2656179D01*
X1990394Y2654604D01*
X1992630Y2651302D01*
X1993392Y2647391D01*
X1993392Y2344318D01*
X1992630Y2340406D01*
X1990394Y2337104D01*
X1968195Y2314905D01*
X1964893Y2312670D01*
X1960981Y2311908D01*
X464718Y2311908D01*
X460806Y2312670D01*
X457504Y2314905D01*
X435305Y2337104D01*
X433070Y2340406D01*
X432308Y2344318D01*
X432308Y2748991D01*
X433070Y2752902D01*
X435305Y2756204D01*
X436880Y2757779D01*
X442518Y2765806D01*
X446633Y2774746D01*
X449173Y2784195D01*
X450037Y2794000D01*
X449173Y2803804D01*
X446633Y2813253D01*
X442518Y2822194D01*
X436880Y2830220D01*
X429920Y2837180D01*
X421893Y2842818D01*
X412953Y2846933D01*
X403504Y2849473D01*
X393700Y2850337D01*
X383895Y2849473D01*
X374446Y2846933D01*
X365506Y2842818D01*
X353161Y2833928D01*
X349250Y2833166D01*
X345338Y2833928D01*
X332994Y2842818D01*
X324053Y2846933D01*
X314604Y2849473D01*
X304800Y2850337D01*
X294995Y2849473D01*
X285546Y2846933D01*
X276606Y2842818D01*
X264261Y2833928D01*
X260350Y2833166D01*
X256438Y2833928D01*
X244094Y2842818D01*
X235153Y2846933D01*
X225704Y2849473D01*
X215900Y2850337D01*
X206095Y2849473D01*
X196646Y2846933D01*
X187706Y2842818D01*
X175361Y2833928D01*
X171450Y2833166D01*
X167538Y2833928D01*
X155194Y2842818D01*
X146253Y2846933D01*
X136804Y2849473D01*
X127000Y2850337D01*
X117195Y2849473D01*
X107746Y2846933D01*
X98806Y2842818D01*
X90779Y2837180D01*
X83820Y2830220D01*
X78181Y2822194D01*
X74066Y2813253D01*
X71526Y2803804D01*
X70662Y2794000D01*
X71526Y2784195D01*
X74066Y2774746D01*
X78181Y2765806D01*
X83820Y2757779D01*
X85394Y2756204D01*
X87630Y2752902D01*
X88392Y2748991D01*
X88392Y2134108D01*
X89204Y2126081D01*
X91389Y2118868D01*
X94945Y2112162D01*
X100076Y2105964D01*
X150164Y2055875D01*
X156362Y2050745D01*
X163068Y2047189D01*
X170281Y2045004D01*
G37*
G36*
X3860800Y11431117D02*
G01*
X3875989Y11432032D01*
X3890924Y11434775D01*
X3905453Y11439296D01*
X3919321Y11445544D01*
X3932326Y11453418D01*
X3944264Y11462766D01*
X3955034Y11473535D01*
X3964381Y11485473D01*
X3972255Y11498478D01*
X3978503Y11512346D01*
X3983024Y11526875D01*
X3985768Y11541810D01*
X3986682Y11557000D01*
X3985768Y11572189D01*
X3983024Y11587124D01*
X3978503Y11601653D01*
X3972255Y11615521D01*
X3964381Y11628526D01*
X3955034Y11640464D01*
X3944264Y11651234D01*
X3932326Y11660581D01*
X3919321Y11668455D01*
X3905453Y11674703D01*
X3890924Y11679224D01*
X3875989Y11681968D01*
X3860800Y11682882D01*
X3845610Y11681968D01*
X3830675Y11679224D01*
X3816146Y11674703D01*
X3802278Y11668455D01*
X3789273Y11660581D01*
X3777335Y11651234D01*
X3766565Y11640464D01*
X3757218Y11628526D01*
X3749344Y11615521D01*
X3743096Y11601653D01*
X3738575Y11587124D01*
X3735832Y11572189D01*
X3734917Y11557000D01*
X3735832Y11541810D01*
X3738575Y11526875D01*
X3743096Y11512346D01*
X3749344Y11498478D01*
X3757218Y11485473D01*
X3766565Y11473535D01*
X3777335Y11462766D01*
X3789273Y11453418D01*
X3802278Y11445544D01*
X3816146Y11439296D01*
X3830675Y11434775D01*
X3845610Y11432032D01*
G37*
G36*
X2344674Y11315700D02*
G01*
X2434082Y11315700D01*
X2434082Y11372392D01*
X2433370Y11378742D01*
X2431491Y11384178D01*
X2428392Y11389106D01*
X2424328Y11393170D01*
X2419400Y11396268D01*
X2413965Y11398148D01*
X2407615Y11398859D01*
X2344674Y11398859D01*
G37*
G36*
X2344674Y11207089D02*
G01*
X2407615Y11207089D01*
X2413965Y11207800D01*
X2419400Y11209680D01*
X2424328Y11212779D01*
X2428392Y11216843D01*
X2431491Y11221770D01*
X2433370Y11227206D01*
X2434082Y11233556D01*
X2434082Y11290300D01*
X2344674Y11290300D01*
G37*
G36*
X2984500Y11018062D02*
G01*
X2994304Y11018926D01*
X3003753Y11021466D01*
X3012694Y11025581D01*
X3020720Y11031220D01*
X3027680Y11038179D01*
X3033318Y11046206D01*
X3037433Y11055146D01*
X3039973Y11064595D01*
X3040329Y11068253D01*
X3041650Y11072418D01*
X3043428Y11074400D01*
X3041650Y11076381D01*
X3040329Y11080546D01*
X3039973Y11084204D01*
X3037433Y11093653D01*
X3033318Y11102594D01*
X3027680Y11110620D01*
X3020720Y11117580D01*
X3012694Y11123218D01*
X3003753Y11127333D01*
X2994304Y11129873D01*
X2984500Y11130737D01*
X2974695Y11129873D01*
X2965246Y11127333D01*
X2956306Y11123218D01*
X2948279Y11117580D01*
X2946704Y11116005D01*
X2943402Y11113770D01*
X2939491Y11113008D01*
X2191918Y11113008D01*
X2188006Y11113770D01*
X2184704Y11116005D01*
X2173681Y11127028D01*
X2171446Y11130330D01*
X2170684Y11134242D01*
X2170684Y11208816D01*
X2171293Y11212220D01*
X2172970Y11215268D01*
X2175560Y11217503D01*
X2187295Y11224666D01*
X2197455Y11232896D01*
X2206396Y11242446D01*
X2211425Y11249609D01*
X2214524Y11252504D01*
X2218588Y11253876D01*
X2222804Y11253470D01*
X2226513Y11251336D01*
X2229002Y11247932D01*
X2229866Y11243767D01*
X2229866Y11233556D01*
X2230577Y11227206D01*
X2232507Y11221770D01*
X2235606Y11216843D01*
X2239670Y11212779D01*
X2244598Y11209680D01*
X2250033Y11207800D01*
X2256383Y11207089D01*
X2319274Y11207089D01*
X2319274Y11290300D01*
X2237892Y11290300D01*
X2233980Y11291062D01*
X2230729Y11293246D01*
X2228494Y11296548D01*
X2227732Y11300460D01*
X2227732Y11305540D01*
X2228494Y11309400D01*
X2230729Y11312702D01*
X2233980Y11314887D01*
X2237892Y11315700D01*
X2319274Y11315700D01*
X2319274Y11398859D01*
X2256383Y11398859D01*
X2250033Y11398148D01*
X2244598Y11396268D01*
X2239670Y11393170D01*
X2235606Y11389106D01*
X2232507Y11384178D01*
X2230577Y11378742D01*
X2229866Y11372392D01*
X2229866Y11362182D01*
X2229002Y11358016D01*
X2226513Y11354612D01*
X2222804Y11352530D01*
X2218588Y11352072D01*
X2214524Y11353444D01*
X2211425Y11356340D01*
X2206396Y11363502D01*
X2197455Y11373053D01*
X2187295Y11381333D01*
X2176119Y11388090D01*
X2164080Y11393322D01*
X2151481Y11396878D01*
X2138527Y11398656D01*
X2125472Y11398656D01*
X2112467Y11396878D01*
X2099868Y11393322D01*
X2087880Y11388090D01*
X2076704Y11381333D01*
X2066543Y11373053D01*
X2057603Y11363502D01*
X2050084Y11352784D01*
X2044039Y11341201D01*
X2041550Y11334191D01*
X2039416Y11330686D01*
X2036064Y11328298D01*
X2032000Y11327434D01*
X2027936Y11328298D01*
X2024583Y11330686D01*
X2022398Y11334191D01*
X2019960Y11341201D01*
X2013915Y11352784D01*
X2006396Y11363502D01*
X1997456Y11373053D01*
X1987296Y11381333D01*
X1976120Y11388090D01*
X1964080Y11393322D01*
X1951482Y11396878D01*
X1944674Y11397792D01*
X1944674Y11315700D01*
X2026107Y11315700D01*
X2029968Y11314887D01*
X2033270Y11312702D01*
X2035505Y11309400D01*
X2036267Y11305540D01*
X2036267Y11300460D01*
X2035505Y11296548D01*
X2033270Y11293246D01*
X2029968Y11291062D01*
X2026107Y11290300D01*
X1944674Y11290300D01*
X1944674Y11208156D01*
X1951482Y11209121D01*
X1964080Y11212626D01*
X1976120Y11217859D01*
X1987296Y11224666D01*
X1997456Y11232896D01*
X2006396Y11242446D01*
X2013915Y11253165D01*
X2019960Y11264798D01*
X2022398Y11271758D01*
X2024583Y11275263D01*
X2027936Y11277650D01*
X2032000Y11278514D01*
X2036064Y11277650D01*
X2039416Y11275263D01*
X2041550Y11271758D01*
X2044039Y11264798D01*
X2050084Y11253165D01*
X2057603Y11242446D01*
X2066543Y11232896D01*
X2076704Y11224666D01*
X2088591Y11217452D01*
X2091182Y11215166D01*
X2092858Y11212169D01*
X2093468Y11208766D01*
X2093468Y11114532D01*
X2094280Y11106505D01*
X2096465Y11099292D01*
X2100021Y11092586D01*
X2105152Y11086388D01*
X2144064Y11047476D01*
X2150262Y11042345D01*
X2156968Y11038789D01*
X2164181Y11036604D01*
X2172208Y11035792D01*
X2939491Y11035792D01*
X2943402Y11035030D01*
X2946704Y11032794D01*
X2948279Y11031220D01*
X2956306Y11025581D01*
X2965246Y11021466D01*
X2974695Y11018926D01*
G37*
G36*
X863600Y2763062D02*
G01*
X873404Y2763926D01*
X882853Y2766466D01*
X891794Y2770581D01*
X899820Y2776220D01*
X901395Y2777794D01*
X904697Y2780030D01*
X908608Y2780792D01*
X2933192Y2780792D01*
X2941218Y2781604D01*
X2948432Y2783789D01*
X2955137Y2787345D01*
X2961335Y2792476D01*
X2998724Y2829864D01*
X3003854Y2836062D01*
X3007410Y2842768D01*
X3009595Y2849981D01*
X3010408Y2858008D01*
X3010408Y3371291D01*
X3011170Y3375202D01*
X3013405Y3378504D01*
X3014980Y3380079D01*
X3020618Y3388106D01*
X3024733Y3397046D01*
X3027273Y3406495D01*
X3028137Y3416300D01*
X3027273Y3426104D01*
X3024733Y3435553D01*
X3020618Y3444494D01*
X3014980Y3452520D01*
X3008020Y3459479D01*
X2999994Y3465118D01*
X2991053Y3469233D01*
X2981604Y3471773D01*
X2971800Y3472637D01*
X2961995Y3471773D01*
X2952546Y3469233D01*
X2943606Y3465118D01*
X2935579Y3459479D01*
X2928620Y3452520D01*
X2922981Y3444494D01*
X2918866Y3435553D01*
X2916326Y3426104D01*
X2915462Y3416300D01*
X2916326Y3406495D01*
X2918866Y3397046D01*
X2922981Y3388106D01*
X2928620Y3380079D01*
X2930194Y3378504D01*
X2932430Y3375202D01*
X2933192Y3371291D01*
X2933192Y2877718D01*
X2932430Y2873806D01*
X2930194Y2870504D01*
X2920695Y2861005D01*
X2917393Y2858770D01*
X2913481Y2858008D01*
X1310132Y2858008D01*
X1305966Y2858922D01*
X1302562Y2861411D01*
X1300429Y2865120D01*
X1300022Y2869336D01*
X1301394Y2873400D01*
X1304290Y2876499D01*
X1307795Y2879394D01*
X1311097Y2881630D01*
X1315008Y2882392D01*
X2780792Y2882392D01*
X2788818Y2883204D01*
X2796032Y2885389D01*
X2802737Y2888945D01*
X2808935Y2894076D01*
X2846324Y2931464D01*
X2851454Y2937662D01*
X2855010Y2944368D01*
X2857195Y2951581D01*
X2858008Y2959608D01*
X2858008Y3104591D01*
X2858770Y3108502D01*
X2861005Y3111804D01*
X2862580Y3113379D01*
X2868218Y3121406D01*
X2872333Y3130346D01*
X2874873Y3139795D01*
X2875737Y3149600D01*
X2874873Y3159404D01*
X2872333Y3168853D01*
X2868218Y3177794D01*
X2862580Y3185820D01*
X2861005Y3187395D01*
X2858770Y3190697D01*
X2858008Y3194608D01*
X2858008Y4369714D01*
X2858770Y4373626D01*
X2861005Y4376928D01*
X2864256Y4379112D01*
X2868168Y4379874D01*
X3035808Y4379874D01*
X3042158Y4380585D01*
X3047593Y4382516D01*
X3052521Y4385564D01*
X3056585Y4389678D01*
X3059684Y4394555D01*
X3061614Y4400042D01*
X3062325Y4406341D01*
X3062325Y4585208D01*
X3061614Y4591558D01*
X3059684Y4596993D01*
X3056585Y4601921D01*
X3052521Y4605985D01*
X3047593Y4609084D01*
X3042158Y4610963D01*
X3035808Y4611674D01*
X2868168Y4611674D01*
X2864256Y4612487D01*
X2861005Y4614672D01*
X2858770Y4617974D01*
X2858008Y4621834D01*
X2858008Y4651095D01*
X2858973Y4655413D01*
X2861716Y4658918D01*
X2865628Y4660950D01*
X2870047Y4661103D01*
X2874162Y4659325D01*
X2884322Y4651959D01*
X2897073Y4644948D01*
X2910586Y4639564D01*
X2924657Y4635957D01*
X2939135Y4634128D01*
X2953664Y4634128D01*
X2968091Y4635957D01*
X2982214Y4639564D01*
X2995726Y4644948D01*
X3008477Y4651959D01*
X3020263Y4660493D01*
X3030880Y4670450D01*
X3040126Y4681677D01*
X3047949Y4693970D01*
X3054146Y4707128D01*
X3058617Y4720945D01*
X3061360Y4735271D01*
X3062274Y4749800D01*
X3061360Y4764328D01*
X3058617Y4778603D01*
X3054146Y4792472D01*
X3047949Y4805629D01*
X3040126Y4817922D01*
X3030880Y4829098D01*
X3020263Y4839106D01*
X3008477Y4847640D01*
X2995726Y4854651D01*
X2982214Y4859985D01*
X2968091Y4863642D01*
X2953664Y4865471D01*
X2939135Y4865471D01*
X2924657Y4863642D01*
X2910586Y4859985D01*
X2897073Y4854651D01*
X2884322Y4847640D01*
X2874162Y4840274D01*
X2870047Y4838496D01*
X2865628Y4838649D01*
X2861716Y4840630D01*
X2858973Y4844135D01*
X2858008Y4848453D01*
X2858008Y5248148D01*
X2858770Y5252059D01*
X2861005Y5255361D01*
X2862580Y5256936D01*
X2868218Y5264962D01*
X2872333Y5273903D01*
X2874873Y5283352D01*
X2875737Y5293156D01*
X2874873Y5302961D01*
X2872333Y5312410D01*
X2868218Y5321350D01*
X2862580Y5329377D01*
X2855620Y5336336D01*
X2847594Y5341975D01*
X2838653Y5346090D01*
X2829204Y5348630D01*
X2819400Y5349494D01*
X2809595Y5348630D01*
X2800146Y5346090D01*
X2791206Y5341975D01*
X2783179Y5336336D01*
X2776220Y5329377D01*
X2770581Y5321350D01*
X2768752Y5317388D01*
X2766466Y5314238D01*
X2763164Y5312206D01*
X2759303Y5311546D01*
X2755493Y5312410D01*
X2752293Y5314594D01*
X2750159Y5317896D01*
X2749397Y5321706D01*
X2749397Y7809788D01*
X2750362Y7814056D01*
X2751531Y7816646D01*
X2754071Y7826095D01*
X2754934Y7835900D01*
X2754071Y7845704D01*
X2751531Y7855153D01*
X2747416Y7864094D01*
X2741777Y7872120D01*
X2734818Y7879080D01*
X2726791Y7884718D01*
X2717850Y7888833D01*
X2708402Y7891373D01*
X2698597Y7892237D01*
X2688793Y7891373D01*
X2679344Y7888833D01*
X2670403Y7884718D01*
X2662377Y7879080D01*
X2655417Y7872120D01*
X2649778Y7864094D01*
X2645664Y7855153D01*
X2643124Y7845704D01*
X2642260Y7835900D01*
X2643124Y7826095D01*
X2645664Y7816646D01*
X2646629Y7814513D01*
X2647594Y7810195D01*
X2647594Y7261961D01*
X2646832Y7258100D01*
X2644597Y7254798D01*
X2641295Y7252563D01*
X2637434Y7251801D01*
X378561Y7251801D01*
X374700Y7252563D01*
X371398Y7254798D01*
X369163Y7258100D01*
X368401Y7261961D01*
X368401Y9105392D01*
X369366Y9109710D01*
X370433Y9112046D01*
X372973Y9121495D01*
X373837Y9131300D01*
X372973Y9141104D01*
X370433Y9150553D01*
X369366Y9152890D01*
X368401Y9157208D01*
X368401Y9460992D01*
X369366Y9465310D01*
X370433Y9467646D01*
X372973Y9477095D01*
X373837Y9486900D01*
X372973Y9496704D01*
X370433Y9506153D01*
X366318Y9515094D01*
X360680Y9523120D01*
X353720Y9530080D01*
X345694Y9535718D01*
X336753Y9539833D01*
X327304Y9542373D01*
X317500Y9543237D01*
X307695Y9542373D01*
X298246Y9539833D01*
X289306Y9535718D01*
X281279Y9530080D01*
X274320Y9523120D01*
X268681Y9515094D01*
X264566Y9506153D01*
X262026Y9496704D01*
X261162Y9486900D01*
X262026Y9477095D01*
X264566Y9467646D01*
X265633Y9465310D01*
X266598Y9460992D01*
X266598Y9157208D01*
X265633Y9152890D01*
X264566Y9150553D01*
X262026Y9141104D01*
X261162Y9131300D01*
X262026Y9121495D01*
X264566Y9112046D01*
X265633Y9109710D01*
X266598Y9105392D01*
X266598Y7226808D01*
X265633Y7222490D01*
X264566Y7220153D01*
X262026Y7210704D01*
X261162Y7200900D01*
X262026Y7191095D01*
X264566Y7181646D01*
X265633Y7179309D01*
X266598Y7174992D01*
X266598Y6871208D01*
X265633Y6866890D01*
X264566Y6864553D01*
X262026Y6855104D01*
X261162Y6845300D01*
X262026Y6835495D01*
X264566Y6826046D01*
X268681Y6817106D01*
X274320Y6809079D01*
X281279Y6802120D01*
X289306Y6796481D01*
X298246Y6792366D01*
X307695Y6789826D01*
X317500Y6788962D01*
X327304Y6789826D01*
X336753Y6792366D01*
X345694Y6796481D01*
X353720Y6802120D01*
X360680Y6809079D01*
X366318Y6817106D01*
X370433Y6826046D01*
X372973Y6835495D01*
X373837Y6845300D01*
X372973Y6855104D01*
X370433Y6864553D01*
X369366Y6866890D01*
X368401Y6871208D01*
X368401Y7139838D01*
X369163Y7143699D01*
X371398Y7147001D01*
X374700Y7149236D01*
X378561Y7149998D01*
X2637434Y7149998D01*
X2641295Y7149236D01*
X2644597Y7147001D01*
X2646832Y7143699D01*
X2647594Y7139838D01*
X2647594Y5181498D01*
X2646832Y5177586D01*
X2644597Y5174284D01*
X2642311Y5171998D01*
X2639009Y5169763D01*
X2635097Y5169001D01*
X1665427Y5169001D01*
X1661160Y5169966D01*
X1657654Y5172659D01*
X1655622Y5176520D01*
X1655419Y5180939D01*
X1657146Y5185003D01*
X1661718Y5191506D01*
X1665833Y5200446D01*
X1668373Y5209895D01*
X1669237Y5219700D01*
X1668373Y5229504D01*
X1665833Y5238953D01*
X1661718Y5247894D01*
X1656080Y5255920D01*
X1649120Y5262880D01*
X1641093Y5268518D01*
X1632153Y5272633D01*
X1622704Y5275173D01*
X1612900Y5276037D01*
X1603095Y5275173D01*
X1593646Y5272633D01*
X1584706Y5268518D01*
X1576679Y5262880D01*
X1575104Y5261305D01*
X1571802Y5259070D01*
X1567891Y5258308D01*
X1530908Y5258308D01*
X1526997Y5259070D01*
X1523695Y5261305D01*
X1522120Y5262880D01*
X1514094Y5268518D01*
X1505153Y5272633D01*
X1495704Y5275173D01*
X1485900Y5276037D01*
X1476095Y5275173D01*
X1466646Y5272633D01*
X1457706Y5268518D01*
X1449679Y5262880D01*
X1442720Y5255920D01*
X1437081Y5247894D01*
X1432966Y5238953D01*
X1430426Y5229504D01*
X1429562Y5219700D01*
X1430426Y5209895D01*
X1432966Y5200446D01*
X1437081Y5191506D01*
X1441653Y5185003D01*
X1443380Y5180939D01*
X1443177Y5176520D01*
X1441145Y5172659D01*
X1437640Y5169966D01*
X1433372Y5169001D01*
X889508Y5169001D01*
X885190Y5169966D01*
X882853Y5171033D01*
X873404Y5173573D01*
X863600Y5174437D01*
X853795Y5173573D01*
X844346Y5171033D01*
X835406Y5166918D01*
X827379Y5161280D01*
X820419Y5154320D01*
X814781Y5146294D01*
X810666Y5137353D01*
X808126Y5127904D01*
X807262Y5118100D01*
X808126Y5108295D01*
X810666Y5098846D01*
X814781Y5089906D01*
X820419Y5081879D01*
X827379Y5074920D01*
X835406Y5069281D01*
X844346Y5065166D01*
X853795Y5062626D01*
X863600Y5061762D01*
X873404Y5062626D01*
X882853Y5065166D01*
X885190Y5066233D01*
X889508Y5067198D01*
X2505252Y5067198D01*
X2509215Y5066385D01*
X2512517Y5064099D01*
X2514701Y5060696D01*
X2515362Y5056682D01*
X2514447Y5052720D01*
X2512466Y5048453D01*
X2509926Y5039004D01*
X2509062Y5029200D01*
X2509926Y5019395D01*
X2512466Y5009946D01*
X2516581Y5001006D01*
X2522220Y4992979D01*
X2523794Y4991404D01*
X2526030Y4988102D01*
X2526792Y4984191D01*
X2526792Y4848453D01*
X2525826Y4844135D01*
X2523083Y4840630D01*
X2519172Y4838649D01*
X2514752Y4838496D01*
X2510637Y4840224D01*
X2500477Y4847640D01*
X2487726Y4854651D01*
X2474214Y4859985D01*
X2460091Y4863642D01*
X2451100Y4864760D01*
X2451100Y4762500D01*
X2516632Y4762500D01*
X2520543Y4761738D01*
X2523794Y4759502D01*
X2526030Y4756200D01*
X2526792Y4752340D01*
X2526792Y4747260D01*
X2526030Y4743348D01*
X2523794Y4740046D01*
X2520543Y4737862D01*
X2516632Y4737100D01*
X2451100Y4737100D01*
X2451100Y4634839D01*
X2460091Y4635957D01*
X2474214Y4639564D01*
X2487726Y4644948D01*
X2500477Y4651959D01*
X2510637Y4659325D01*
X2514752Y4661103D01*
X2519172Y4660950D01*
X2523083Y4658918D01*
X2525826Y4655413D01*
X2526792Y4651095D01*
X2526792Y4594453D01*
X2525826Y4590135D01*
X2523083Y4586630D01*
X2519172Y4584649D01*
X2514752Y4584496D01*
X2510637Y4586224D01*
X2500477Y4593640D01*
X2487726Y4600651D01*
X2474214Y4605985D01*
X2460091Y4609642D01*
X2451100Y4610760D01*
X2451100Y4508500D01*
X2516632Y4508500D01*
X2520543Y4507738D01*
X2523794Y4505502D01*
X2526030Y4502200D01*
X2526792Y4498340D01*
X2526792Y4493260D01*
X2526030Y4489348D01*
X2523794Y4486046D01*
X2520543Y4483862D01*
X2516632Y4483100D01*
X2451100Y4483100D01*
X2451100Y4380839D01*
X2460091Y4381957D01*
X2474214Y4385564D01*
X2487726Y4390948D01*
X2500477Y4397959D01*
X2510637Y4405325D01*
X2514752Y4407103D01*
X2519172Y4406950D01*
X2523083Y4404918D01*
X2525826Y4401413D01*
X2526792Y4397095D01*
X2526792Y3106318D01*
X2526030Y3102406D01*
X2523794Y3099104D01*
X2514295Y3089605D01*
X2510993Y3087370D01*
X2507081Y3086608D01*
X2114753Y3086608D01*
X2110384Y3087624D01*
X2106828Y3090418D01*
X2104898Y3094482D01*
X2104847Y3098952D01*
X2106777Y3103016D01*
X2110282Y3105861D01*
X2111603Y3106521D01*
X2123389Y3114395D01*
X2134057Y3123742D01*
X2143404Y3134410D01*
X2151278Y3146196D01*
X2157526Y3158896D01*
X2162098Y3172358D01*
X2164842Y3186226D01*
X2165756Y3200400D01*
X2164842Y3214522D01*
X2162098Y3228441D01*
X2157526Y3241852D01*
X2151278Y3254603D01*
X2143404Y3266389D01*
X2134057Y3277057D01*
X2123389Y3286404D01*
X2111603Y3294278D01*
X2098852Y3300526D01*
X2085441Y3305098D01*
X2071522Y3307842D01*
X2057400Y3308756D01*
X2043226Y3307842D01*
X2029358Y3305098D01*
X2015896Y3300526D01*
X2003196Y3294278D01*
X1991410Y3286404D01*
X1980742Y3277057D01*
X1971395Y3266389D01*
X1963521Y3254603D01*
X1957273Y3241852D01*
X1952701Y3228441D01*
X1949957Y3214522D01*
X1948992Y3200400D01*
X1949957Y3186226D01*
X1952701Y3172358D01*
X1957273Y3158896D01*
X1963521Y3146196D01*
X1971395Y3134410D01*
X1980742Y3123742D01*
X1991410Y3114395D01*
X2003196Y3106521D01*
X2004517Y3105861D01*
X2008022Y3103016D01*
X2009952Y3098952D01*
X2009902Y3094482D01*
X2007920Y3090418D01*
X2004415Y3087624D01*
X2000046Y3086608D01*
X1569008Y3086608D01*
X1565097Y3087370D01*
X1561795Y3089605D01*
X1560220Y3091180D01*
X1552194Y3096818D01*
X1543253Y3100933D01*
X1533804Y3103473D01*
X1524000Y3104337D01*
X1514195Y3103473D01*
X1504746Y3100933D01*
X1495806Y3096818D01*
X1487779Y3091180D01*
X1480820Y3084220D01*
X1475181Y3076194D01*
X1471066Y3067253D01*
X1468526Y3057804D01*
X1467662Y3048000D01*
X1468526Y3038195D01*
X1471066Y3028746D01*
X1475181Y3019806D01*
X1480820Y3011779D01*
X1487779Y3004820D01*
X1495806Y2999181D01*
X1504746Y2995066D01*
X1514195Y2992526D01*
X1524000Y2991662D01*
X1533804Y2992526D01*
X1543253Y2995066D01*
X1552194Y2999181D01*
X1560220Y3004820D01*
X1561795Y3006394D01*
X1565097Y3008630D01*
X1569008Y3009392D01*
X2526792Y3009392D01*
X2534818Y3010204D01*
X2542032Y3012389D01*
X2548737Y3015945D01*
X2554935Y3021076D01*
X2592324Y3058464D01*
X2597454Y3064662D01*
X2601010Y3071368D01*
X2603195Y3078581D01*
X2604008Y3086608D01*
X2604008Y3096768D01*
X2604973Y3101086D01*
X2607614Y3104540D01*
X2611526Y3106572D01*
X2615946Y3106775D01*
X2620010Y3105099D01*
X2626106Y3100781D01*
X2635046Y3096666D01*
X2644495Y3094126D01*
X2654300Y3093262D01*
X2664104Y3094126D01*
X2673553Y3096666D01*
X2682494Y3100781D01*
X2690520Y3106420D01*
X2697480Y3113379D01*
X2703118Y3121406D01*
X2707233Y3130346D01*
X2709773Y3139795D01*
X2710637Y3149600D01*
X2709773Y3159404D01*
X2707233Y3168853D01*
X2703118Y3177794D01*
X2697480Y3185820D01*
X2690520Y3192780D01*
X2682494Y3198418D01*
X2673553Y3202533D01*
X2664104Y3205073D01*
X2654300Y3205937D01*
X2644495Y3205073D01*
X2635046Y3202533D01*
X2626106Y3198418D01*
X2620010Y3194100D01*
X2615946Y3192424D01*
X2611526Y3192627D01*
X2607614Y3194659D01*
X2604973Y3198114D01*
X2604008Y3202432D01*
X2604008Y4397095D01*
X2604973Y4401413D01*
X2607716Y4404918D01*
X2611628Y4406950D01*
X2616047Y4407103D01*
X2620162Y4405325D01*
X2630322Y4397959D01*
X2643073Y4390948D01*
X2656586Y4385564D01*
X2670657Y4381957D01*
X2679700Y4380839D01*
X2679700Y4483100D01*
X2614168Y4483100D01*
X2610256Y4483862D01*
X2607005Y4486046D01*
X2604770Y4489348D01*
X2604008Y4493260D01*
X2604008Y4498340D01*
X2604770Y4502200D01*
X2607005Y4505502D01*
X2610256Y4507738D01*
X2614168Y4508500D01*
X2679700Y4508500D01*
X2679700Y4610760D01*
X2670657Y4609642D01*
X2656586Y4605985D01*
X2643073Y4600651D01*
X2630322Y4593640D01*
X2620162Y4586274D01*
X2616047Y4584496D01*
X2611628Y4584649D01*
X2607716Y4586630D01*
X2604973Y4590135D01*
X2604008Y4594453D01*
X2604008Y4651095D01*
X2604973Y4655413D01*
X2607716Y4658918D01*
X2611628Y4660950D01*
X2616047Y4661103D01*
X2620162Y4659325D01*
X2630322Y4651959D01*
X2643073Y4644948D01*
X2656586Y4639564D01*
X2670657Y4635957D01*
X2679700Y4634839D01*
X2679700Y4737100D01*
X2614168Y4737100D01*
X2610256Y4737862D01*
X2607005Y4740046D01*
X2604770Y4743348D01*
X2604008Y4747260D01*
X2604008Y4752340D01*
X2604770Y4756200D01*
X2607005Y4759502D01*
X2610256Y4761738D01*
X2614168Y4762500D01*
X2679700Y4762500D01*
X2679700Y4864760D01*
X2670657Y4863642D01*
X2656586Y4859985D01*
X2643073Y4854651D01*
X2630322Y4847640D01*
X2620162Y4840274D01*
X2616047Y4838496D01*
X2611628Y4838649D01*
X2607716Y4840630D01*
X2604973Y4844135D01*
X2604008Y4848453D01*
X2604008Y4984191D01*
X2604770Y4988102D01*
X2607005Y4991404D01*
X2608580Y4992979D01*
X2614218Y5001006D01*
X2618333Y5009946D01*
X2620873Y5019395D01*
X2621737Y5029200D01*
X2620873Y5039004D01*
X2618333Y5048453D01*
X2616352Y5052720D01*
X2615438Y5056682D01*
X2616098Y5060696D01*
X2618282Y5064099D01*
X2621584Y5066385D01*
X2625547Y5067198D01*
X2660192Y5067198D01*
X2664815Y5067401D01*
X2669235Y5067960D01*
X2673553Y5068925D01*
X2677820Y5070246D01*
X2681935Y5071973D01*
X2685846Y5074005D01*
X2689606Y5076393D01*
X2693111Y5079085D01*
X2696565Y5082235D01*
X2734360Y5120030D01*
X2737510Y5123484D01*
X2740202Y5126990D01*
X2742590Y5130749D01*
X2744622Y5134711D01*
X2746349Y5138775D01*
X2747670Y5143042D01*
X2748635Y5147360D01*
X2749194Y5151780D01*
X2749397Y5156403D01*
X2749397Y5264607D01*
X2750159Y5268417D01*
X2752293Y5271719D01*
X2755493Y5273903D01*
X2759303Y5274767D01*
X2763164Y5274106D01*
X2766466Y5272074D01*
X2768752Y5268925D01*
X2770581Y5264962D01*
X2776220Y5256936D01*
X2777794Y5255361D01*
X2780030Y5252059D01*
X2780792Y5248148D01*
X2780792Y4848453D01*
X2779826Y4844135D01*
X2777083Y4840630D01*
X2773172Y4838649D01*
X2768752Y4838496D01*
X2764637Y4840224D01*
X2754477Y4847640D01*
X2741726Y4854651D01*
X2728214Y4859985D01*
X2714091Y4863642D01*
X2705100Y4864760D01*
X2705100Y4762500D01*
X2770632Y4762500D01*
X2774543Y4761738D01*
X2777794Y4759502D01*
X2780030Y4756200D01*
X2780792Y4752340D01*
X2780792Y4747260D01*
X2780030Y4743348D01*
X2777794Y4740046D01*
X2774543Y4737862D01*
X2770632Y4737100D01*
X2705100Y4737100D01*
X2705100Y4634839D01*
X2714091Y4635957D01*
X2728214Y4639564D01*
X2741726Y4644948D01*
X2754477Y4651959D01*
X2764637Y4659325D01*
X2768752Y4661103D01*
X2773172Y4660950D01*
X2777083Y4658918D01*
X2779826Y4655413D01*
X2780792Y4651095D01*
X2780792Y4594453D01*
X2779826Y4590135D01*
X2777083Y4586630D01*
X2773172Y4584649D01*
X2768752Y4584496D01*
X2764637Y4586224D01*
X2754477Y4593640D01*
X2741726Y4600651D01*
X2728214Y4605985D01*
X2714091Y4609642D01*
X2705100Y4610760D01*
X2705100Y4508500D01*
X2770632Y4508500D01*
X2774543Y4507738D01*
X2777794Y4505502D01*
X2780030Y4502200D01*
X2780792Y4498340D01*
X2780792Y4493260D01*
X2780030Y4489348D01*
X2777794Y4486046D01*
X2774543Y4483862D01*
X2770632Y4483100D01*
X2705100Y4483100D01*
X2705100Y4380839D01*
X2714091Y4381957D01*
X2728214Y4385564D01*
X2741726Y4390948D01*
X2754477Y4397959D01*
X2764637Y4405325D01*
X2768752Y4407103D01*
X2773172Y4406950D01*
X2777083Y4404918D01*
X2779826Y4401413D01*
X2780792Y4397095D01*
X2780792Y3194608D01*
X2780030Y3190697D01*
X2777794Y3187395D01*
X2776220Y3185820D01*
X2770581Y3177794D01*
X2766466Y3168853D01*
X2763926Y3159404D01*
X2763062Y3149600D01*
X2763926Y3139795D01*
X2766466Y3130346D01*
X2770581Y3121406D01*
X2776220Y3113379D01*
X2777794Y3111804D01*
X2780030Y3108502D01*
X2780792Y3104591D01*
X2780792Y2979318D01*
X2780030Y2975406D01*
X2777794Y2972104D01*
X2768295Y2962605D01*
X2764993Y2960370D01*
X2761081Y2959608D01*
X1315008Y2959608D01*
X1311097Y2960370D01*
X1307795Y2962605D01*
X1306220Y2964180D01*
X1298194Y2969818D01*
X1289253Y2973933D01*
X1279804Y2976473D01*
X1270000Y2977337D01*
X1260195Y2976473D01*
X1250746Y2973933D01*
X1241806Y2969818D01*
X1233779Y2964180D01*
X1226820Y2957220D01*
X1221181Y2949194D01*
X1217066Y2940253D01*
X1214526Y2930804D01*
X1213662Y2921000D01*
X1214526Y2911195D01*
X1217066Y2901746D01*
X1221181Y2892806D01*
X1226820Y2884779D01*
X1233779Y2877820D01*
X1235710Y2876499D01*
X1238605Y2873400D01*
X1239977Y2869336D01*
X1239570Y2865120D01*
X1237437Y2861411D01*
X1234033Y2858922D01*
X1229868Y2858008D01*
X908608Y2858008D01*
X904697Y2858770D01*
X901395Y2861005D01*
X899820Y2862580D01*
X891794Y2868218D01*
X882853Y2872333D01*
X873404Y2874873D01*
X863600Y2875737D01*
X853795Y2874873D01*
X844346Y2872333D01*
X835406Y2868218D01*
X827379Y2862580D01*
X820419Y2855620D01*
X814781Y2847594D01*
X810666Y2838653D01*
X808126Y2829204D01*
X807262Y2819400D01*
X808126Y2809595D01*
X810666Y2800146D01*
X814781Y2791206D01*
X820419Y2783179D01*
X827379Y2776220D01*
X835406Y2770581D01*
X844346Y2766466D01*
X853795Y2763926D01*
G37*
G36*
X3441700Y2785719D02*
G01*
X3443122Y2785821D01*
X3457041Y2788564D01*
X3470452Y2793136D01*
X3483203Y2799435D01*
X3494989Y2807309D01*
X3505657Y2816656D01*
X3515004Y2827324D01*
X3522878Y2839110D01*
X3529126Y2851810D01*
X3533698Y2865221D01*
X3536442Y2879140D01*
X3536543Y2880563D01*
X3441700Y2880563D01*
G37*
G36*
X3416300Y2785719D02*
G01*
X3416300Y2880563D01*
X3321456Y2880563D01*
X3321558Y2879140D01*
X3324301Y2865221D01*
X3328873Y2851810D01*
X3335121Y2839110D01*
X3342995Y2827324D01*
X3352342Y2816656D01*
X3363010Y2807309D01*
X3374796Y2799435D01*
X3387496Y2793136D01*
X3400958Y2788564D01*
X3414826Y2785821D01*
G37*
G36*
X622300Y2798419D02*
G01*
X622300Y2893263D01*
X527456Y2893263D01*
X527558Y2891840D01*
X530301Y2877921D01*
X534873Y2864510D01*
X541121Y2851810D01*
X548995Y2840024D01*
X558342Y2829356D01*
X569010Y2820009D01*
X580796Y2812135D01*
X593547Y2805836D01*
X606958Y2801264D01*
X620877Y2798521D01*
G37*
G36*
X647700Y2798419D02*
G01*
X649122Y2798521D01*
X663041Y2801264D01*
X676452Y2805836D01*
X689203Y2812135D01*
X700989Y2820009D01*
X711657Y2829356D01*
X721004Y2840024D01*
X728878Y2851810D01*
X735126Y2864510D01*
X739698Y2877921D01*
X742442Y2891840D01*
X742543Y2893263D01*
X647700Y2893263D01*
G37*
G36*
X635000Y10805617D02*
G01*
X649122Y10806531D01*
X663041Y10809274D01*
X676452Y10813846D01*
X689203Y10820095D01*
X700989Y10827969D01*
X711657Y10837316D01*
X721004Y10847984D01*
X728878Y10859770D01*
X735126Y10872520D01*
X739698Y10885932D01*
X742442Y10899851D01*
X743407Y10913973D01*
X742442Y10928146D01*
X739698Y10942015D01*
X735126Y10955477D01*
X728878Y10968177D01*
X721004Y10979962D01*
X711657Y10990630D01*
X700989Y10999978D01*
X689203Y11007852D01*
X676452Y11014100D01*
X663041Y11018672D01*
X649122Y11021415D01*
X635000Y11022380D01*
X620877Y11021415D01*
X606958Y11018672D01*
X593547Y11014100D01*
X580796Y11007852D01*
X569010Y10999978D01*
X558342Y10990630D01*
X548995Y10979962D01*
X541121Y10968177D01*
X534873Y10955477D01*
X530301Y10942015D01*
X527558Y10928146D01*
X526592Y10913973D01*
X527558Y10899851D01*
X530301Y10885932D01*
X534873Y10872520D01*
X541121Y10859770D01*
X548995Y10847984D01*
X558342Y10837316D01*
X569010Y10827969D01*
X580796Y10820095D01*
X593547Y10813846D01*
X606958Y10809274D01*
X620877Y10806531D01*
G37*
G36*
X3429000Y10792917D02*
G01*
X3443122Y10793831D01*
X3457041Y10796574D01*
X3470452Y10801146D01*
X3483203Y10807395D01*
X3494989Y10815269D01*
X3505657Y10824616D01*
X3515004Y10835284D01*
X3522878Y10847070D01*
X3529126Y10859820D01*
X3533698Y10873232D01*
X3536442Y10887151D01*
X3537356Y10901273D01*
X3536442Y10915446D01*
X3533698Y10929315D01*
X3529126Y10942777D01*
X3522878Y10955477D01*
X3515004Y10967262D01*
X3505657Y10977930D01*
X3494989Y10987278D01*
X3483203Y10995152D01*
X3470452Y11001400D01*
X3457041Y11005972D01*
X3443122Y11008715D01*
X3429000Y11009680D01*
X3414826Y11008715D01*
X3400958Y11005972D01*
X3387496Y11001400D01*
X3374796Y10995152D01*
X3363010Y10987278D01*
X3352342Y10977930D01*
X3342995Y10967262D01*
X3335121Y10955477D01*
X3328873Y10942777D01*
X3324301Y10929315D01*
X3321558Y10915446D01*
X3320592Y10901273D01*
X3321558Y10887151D01*
X3324301Y10873232D01*
X3328873Y10859820D01*
X3335121Y10847070D01*
X3342995Y10835284D01*
X3352342Y10824616D01*
X3363010Y10815269D01*
X3374796Y10807395D01*
X3387496Y10801146D01*
X3400958Y10796574D01*
X3414826Y10793831D01*
G37*
G36*
X2037181Y10661954D02*
G01*
X2051354Y10662869D01*
X2065274Y10665663D01*
X2078685Y10670184D01*
X2091385Y10676483D01*
X2103170Y10684357D01*
X2113838Y10693704D01*
X2123186Y10704372D01*
X2131060Y10716158D01*
X2137359Y10728858D01*
X2141880Y10742269D01*
X2144674Y10756188D01*
X2145588Y10770362D01*
X2144674Y10784484D01*
X2141880Y10798403D01*
X2137359Y10811814D01*
X2131060Y10824514D01*
X2123186Y10836300D01*
X2113838Y10846968D01*
X2103170Y10856315D01*
X2091385Y10864189D01*
X2078685Y10870488D01*
X2065274Y10875010D01*
X2051354Y10877804D01*
X2037181Y10878718D01*
X2023059Y10877804D01*
X2009139Y10875010D01*
X1995728Y10870488D01*
X1983028Y10864189D01*
X1971243Y10856315D01*
X1960575Y10846968D01*
X1951228Y10836300D01*
X1943354Y10824514D01*
X1937054Y10811814D01*
X1932533Y10798403D01*
X1929739Y10784484D01*
X1928825Y10770362D01*
X1929739Y10756188D01*
X1932533Y10742269D01*
X1937054Y10728858D01*
X1943354Y10716158D01*
X1951228Y10704372D01*
X1960575Y10693704D01*
X1971243Y10684357D01*
X1983028Y10676483D01*
X1995728Y10670184D01*
X2009139Y10665663D01*
X2023059Y10662869D01*
G37*
G36*
X1724914Y10648188D02*
G01*
X1819757Y10648188D01*
X1819656Y10649610D01*
X1816912Y10663529D01*
X1812340Y10676940D01*
X1806092Y10689640D01*
X1798218Y10701426D01*
X1788871Y10712094D01*
X1778203Y10721441D01*
X1766417Y10729315D01*
X1753666Y10735614D01*
X1740255Y10740136D01*
X1726336Y10742930D01*
X1724914Y10743031D01*
G37*
G36*
X1604670Y10648188D02*
G01*
X1699514Y10648188D01*
X1699514Y10743031D01*
X1698040Y10742930D01*
X1684172Y10740136D01*
X1670710Y10735614D01*
X1658010Y10729315D01*
X1646224Y10721441D01*
X1635556Y10712094D01*
X1626209Y10701426D01*
X1618335Y10689640D01*
X1612087Y10676940D01*
X1607515Y10663529D01*
X1604772Y10649610D01*
G37*
G36*
X3441700Y2905963D02*
G01*
X3536543Y2905963D01*
X3536442Y2907436D01*
X3533698Y2921355D01*
X3529126Y2934766D01*
X3522878Y2947466D01*
X3515004Y2959252D01*
X3505657Y2969920D01*
X3494989Y2979267D01*
X3483203Y2987141D01*
X3470452Y2993440D01*
X3457041Y2997962D01*
X3443122Y3000756D01*
X3441700Y3000857D01*
G37*
G36*
X3321456Y2905963D02*
G01*
X3416300Y2905963D01*
X3416300Y3000857D01*
X3414826Y3000756D01*
X3400958Y2997962D01*
X3387496Y2993440D01*
X3374796Y2987141D01*
X3363010Y2979267D01*
X3352342Y2969920D01*
X3342995Y2959252D01*
X3335121Y2947466D01*
X3328873Y2934766D01*
X3324301Y2921355D01*
X3321558Y2907436D01*
G37*
G36*
X527456Y2918663D02*
G01*
X622300Y2918663D01*
X622300Y3013557D01*
X620877Y3013456D01*
X606958Y3010662D01*
X593547Y3006140D01*
X580796Y2999841D01*
X569010Y2991967D01*
X558342Y2982620D01*
X548995Y2971952D01*
X541121Y2960166D01*
X534873Y2947466D01*
X530301Y2934055D01*
X527558Y2920136D01*
G37*
G36*
X647700Y2918663D02*
G01*
X742543Y2918663D01*
X742442Y2920136D01*
X739698Y2934055D01*
X735126Y2947466D01*
X728878Y2960166D01*
X721004Y2971952D01*
X711657Y2982620D01*
X700989Y2991967D01*
X689203Y2999841D01*
X676452Y3006140D01*
X663041Y3010662D01*
X649122Y3013456D01*
X647700Y3013557D01*
G37*
G36*
X1724914Y10526115D02*
G01*
X1725726Y10527030D01*
X1729587Y10528655D01*
X1740255Y10530789D01*
X1753666Y10535310D01*
X1766417Y10541609D01*
X1778203Y10549483D01*
X1788871Y10558830D01*
X1798218Y10569498D01*
X1806092Y10581284D01*
X1812340Y10593984D01*
X1816912Y10607395D01*
X1819656Y10621314D01*
X1819757Y10622788D01*
X1724914Y10622788D01*
G37*
G36*
X1689100Y10426700D02*
G01*
X1783943Y10426700D01*
X1783842Y10428122D01*
X1781098Y10442041D01*
X1776526Y10455452D01*
X1770278Y10468152D01*
X1762404Y10479938D01*
X1753057Y10490606D01*
X1742389Y10499953D01*
X1730603Y10507827D01*
X1727098Y10509554D01*
X1723643Y10512450D01*
X1721916Y10509859D01*
X1718614Y10507675D01*
X1714754Y10506913D01*
X1709674Y10506913D01*
X1705762Y10507675D01*
X1702460Y10509859D01*
X1700275Y10513161D01*
X1699514Y10517073D01*
X1699514Y10622788D01*
X1604670Y10622788D01*
X1604772Y10621314D01*
X1607515Y10607395D01*
X1612087Y10593984D01*
X1618335Y10581284D01*
X1626209Y10569498D01*
X1635556Y10558830D01*
X1646224Y10549483D01*
X1658010Y10541609D01*
X1661515Y10539882D01*
X1664970Y10536986D01*
X1666646Y10539577D01*
X1669948Y10541762D01*
X1673860Y10542524D01*
X1678939Y10542524D01*
X1682800Y10541762D01*
X1686102Y10539577D01*
X1688338Y10536275D01*
X1689100Y10532364D01*
G37*
G36*
X3429000Y3084931D02*
G01*
X3443122Y3085846D01*
X3457041Y3088589D01*
X3470452Y3093161D01*
X3483203Y3099460D01*
X3494989Y3107334D01*
X3505657Y3116681D01*
X3515004Y3127349D01*
X3522878Y3139135D01*
X3529126Y3151835D01*
X3533698Y3165246D01*
X3536442Y3179165D01*
X3537356Y3193288D01*
X3536442Y3207461D01*
X3533698Y3221380D01*
X3529126Y3234791D01*
X3522878Y3247491D01*
X3515004Y3259277D01*
X3505657Y3269945D01*
X3494989Y3279292D01*
X3483203Y3287166D01*
X3470452Y3293465D01*
X3457041Y3297986D01*
X3443122Y3300780D01*
X3429000Y3301695D01*
X3414826Y3300780D01*
X3400958Y3297986D01*
X3387496Y3293465D01*
X3374796Y3287166D01*
X3363010Y3279292D01*
X3352342Y3269945D01*
X3342995Y3259277D01*
X3335121Y3247491D01*
X3328873Y3234791D01*
X3324301Y3221380D01*
X3321558Y3207461D01*
X3320592Y3193288D01*
X3321558Y3179165D01*
X3324301Y3165246D01*
X3328873Y3151835D01*
X3335121Y3139135D01*
X3342995Y3127349D01*
X3352342Y3116681D01*
X3363010Y3107334D01*
X3374796Y3099460D01*
X3387496Y3093161D01*
X3400958Y3088589D01*
X3414826Y3085846D01*
G37*
G36*
X1568856Y10426700D02*
G01*
X1663700Y10426700D01*
X1663700Y10523321D01*
X1662836Y10522458D01*
X1659026Y10520781D01*
X1648358Y10518648D01*
X1634896Y10514126D01*
X1622196Y10507827D01*
X1610410Y10499953D01*
X1599742Y10490606D01*
X1590395Y10479938D01*
X1582521Y10468152D01*
X1576273Y10455452D01*
X1571701Y10442041D01*
X1568958Y10428122D01*
G37*
G36*
X2289708Y10423144D02*
G01*
X2384552Y10423144D01*
X2384552Y10521543D01*
X2385415Y10525658D01*
X2387854Y10529062D01*
X2391460Y10531195D01*
X2396540Y10532922D01*
X2400300Y10533430D01*
X2403094Y10532719D01*
X2403906Y10534396D01*
X2407361Y10537139D01*
X2416403Y10541609D01*
X2428189Y10549483D01*
X2438857Y10558830D01*
X2448204Y10569498D01*
X2456078Y10581284D01*
X2462326Y10593984D01*
X2466898Y10607395D01*
X2469642Y10621314D01*
X2470556Y10635488D01*
X2469642Y10649610D01*
X2466898Y10663529D01*
X2462326Y10676940D01*
X2456078Y10689640D01*
X2448204Y10701426D01*
X2438857Y10712094D01*
X2428189Y10721441D01*
X2416403Y10729315D01*
X2403652Y10735614D01*
X2390241Y10740136D01*
X2376322Y10742930D01*
X2362200Y10743844D01*
X2348026Y10742930D01*
X2334158Y10740136D01*
X2320696Y10735614D01*
X2307996Y10729315D01*
X2296210Y10721441D01*
X2285542Y10712094D01*
X2276195Y10701426D01*
X2268321Y10689640D01*
X2262073Y10676940D01*
X2257501Y10663529D01*
X2254758Y10649610D01*
X2253792Y10635488D01*
X2254758Y10621314D01*
X2257501Y10607395D01*
X2262073Y10593984D01*
X2268321Y10581284D01*
X2276195Y10569498D01*
X2285542Y10558830D01*
X2296210Y10549483D01*
X2307996Y10541609D01*
X2320696Y10535310D01*
X2334158Y10530789D01*
X2348280Y10527995D01*
X2352497Y10526776D01*
X2355799Y10523880D01*
X2357577Y10519816D01*
X2357475Y10515447D01*
X2355545Y10511485D01*
X2352090Y10508742D01*
X2343048Y10504271D01*
X2331262Y10496397D01*
X2320594Y10487050D01*
X2311247Y10476382D01*
X2303373Y10464596D01*
X2297125Y10451896D01*
X2292553Y10438485D01*
X2289810Y10424566D01*
G37*
G36*
X2409952Y10423144D02*
G01*
X2504795Y10423144D01*
X2504694Y10424566D01*
X2501950Y10438485D01*
X2497378Y10451896D01*
X2491130Y10464596D01*
X2483256Y10476382D01*
X2473909Y10487050D01*
X2463241Y10496397D01*
X2451455Y10504271D01*
X2438704Y10510570D01*
X2425293Y10515092D01*
X2409952Y10518241D01*
G37*
G36*
X647700Y3098444D02*
G01*
X649122Y3098546D01*
X663041Y3101289D01*
X676452Y3105861D01*
X689203Y3112160D01*
X700989Y3120034D01*
X711657Y3129381D01*
X721004Y3140049D01*
X728878Y3151835D01*
X735126Y3164535D01*
X739698Y3177946D01*
X742442Y3191865D01*
X742543Y3193288D01*
X647700Y3193288D01*
G37*
G36*
X622300Y3098444D02*
G01*
X622300Y3193288D01*
X527456Y3193288D01*
X527558Y3191865D01*
X530301Y3177946D01*
X534873Y3164535D01*
X541121Y3151835D01*
X548995Y3140049D01*
X558342Y3129381D01*
X569010Y3120034D01*
X580796Y3112160D01*
X593547Y3105861D01*
X606958Y3101289D01*
X620877Y3098546D01*
G37*
G36*
X1663700Y10306405D02*
G01*
X1663700Y10401300D01*
X1568856Y10401300D01*
X1568958Y10399826D01*
X1571701Y10385907D01*
X1576273Y10372496D01*
X1582521Y10359796D01*
X1590395Y10348010D01*
X1599742Y10337342D01*
X1610410Y10327995D01*
X1622196Y10320121D01*
X1634896Y10313822D01*
X1648358Y10309301D01*
X1662226Y10306507D01*
G37*
G36*
X527456Y3218688D02*
G01*
X622300Y3218688D01*
X622300Y3313582D01*
X620877Y3313480D01*
X606958Y3310686D01*
X593547Y3306165D01*
X580796Y3299866D01*
X569010Y3291992D01*
X558342Y3282645D01*
X548995Y3271977D01*
X541121Y3260191D01*
X534873Y3247491D01*
X530301Y3234080D01*
X527558Y3220161D01*
G37*
G36*
X647700Y3218688D02*
G01*
X742543Y3218688D01*
X742442Y3220161D01*
X739698Y3234080D01*
X735126Y3247491D01*
X728878Y3260191D01*
X721004Y3271977D01*
X711657Y3282645D01*
X700989Y3291992D01*
X689203Y3299866D01*
X676452Y3306165D01*
X663041Y3310686D01*
X649122Y3313480D01*
X647700Y3313582D01*
G37*
G36*
X2362200Y3218992D02*
G01*
X2376322Y3219958D01*
X2390241Y3222701D01*
X2403652Y3227273D01*
X2416403Y3233521D01*
X2428189Y3241395D01*
X2438857Y3250742D01*
X2448204Y3261410D01*
X2456078Y3273196D01*
X2462326Y3285896D01*
X2466898Y3299358D01*
X2469642Y3313226D01*
X2470556Y3327400D01*
X2469642Y3341522D01*
X2466898Y3355441D01*
X2462326Y3368852D01*
X2456078Y3381603D01*
X2448204Y3393389D01*
X2438857Y3404057D01*
X2428189Y3413404D01*
X2416403Y3421278D01*
X2407361Y3425698D01*
X2403906Y3428441D01*
X2403094Y3430117D01*
X2400300Y3429406D01*
X2396540Y3429965D01*
X2391460Y3431692D01*
X2387854Y3433826D01*
X2385415Y3437229D01*
X2384552Y3441293D01*
X2384552Y3539744D01*
X2289708Y3539744D01*
X2289810Y3538270D01*
X2292553Y3524402D01*
X2297125Y3510940D01*
X2303373Y3498240D01*
X2311247Y3486454D01*
X2320594Y3475786D01*
X2331262Y3466439D01*
X2343048Y3458565D01*
X2352090Y3454095D01*
X2355545Y3451351D01*
X2357475Y3447440D01*
X2357577Y3443020D01*
X2355799Y3439007D01*
X2352497Y3436112D01*
X2348026Y3434842D01*
X2334158Y3432098D01*
X2320696Y3427526D01*
X2307996Y3421278D01*
X2296210Y3413404D01*
X2285542Y3404057D01*
X2276195Y3393389D01*
X2268321Y3381603D01*
X2262073Y3368852D01*
X2257501Y3355441D01*
X2254758Y3341522D01*
X2253792Y3327400D01*
X2254758Y3313226D01*
X2257501Y3299358D01*
X2262073Y3285896D01*
X2268321Y3273196D01*
X2276195Y3261410D01*
X2285542Y3250742D01*
X2296210Y3241395D01*
X2307996Y3233521D01*
X2320696Y3227273D01*
X2334158Y3222701D01*
X2348026Y3219958D01*
G37*
G36*
X1712214Y3218992D02*
G01*
X1726336Y3219958D01*
X1740255Y3222701D01*
X1753666Y3227273D01*
X1766417Y3233521D01*
X1778203Y3241395D01*
X1788871Y3250742D01*
X1798218Y3261410D01*
X1806092Y3273196D01*
X1812340Y3285896D01*
X1816912Y3299358D01*
X1819656Y3313226D01*
X1820570Y3327400D01*
X1819656Y3341522D01*
X1816912Y3355441D01*
X1812340Y3368852D01*
X1806092Y3381603D01*
X1798218Y3393389D01*
X1788871Y3404057D01*
X1778203Y3413404D01*
X1766417Y3421278D01*
X1753666Y3427526D01*
X1740255Y3432098D01*
X1726336Y3434842D01*
X1718360Y3435400D01*
X1714500Y3436416D01*
X1711350Y3438804D01*
X1709369Y3442258D01*
X1708861Y3446170D01*
X1709877Y3450031D01*
X1712315Y3453129D01*
X1715719Y3455111D01*
X1717852Y3455873D01*
X1730603Y3462121D01*
X1742389Y3469995D01*
X1753057Y3479342D01*
X1762404Y3490010D01*
X1770278Y3501796D01*
X1776526Y3514496D01*
X1781098Y3527958D01*
X1783842Y3541826D01*
X1783943Y3543300D01*
X1689100Y3543300D01*
X1689100Y3441039D01*
X1688236Y3436924D01*
X1685798Y3433572D01*
X1682191Y3431438D01*
X1677111Y3429711D01*
X1674825Y3429355D01*
X1670710Y3427526D01*
X1658010Y3421278D01*
X1646224Y3413404D01*
X1635556Y3404057D01*
X1626209Y3393389D01*
X1618335Y3381603D01*
X1612087Y3368852D01*
X1607515Y3355441D01*
X1604772Y3341522D01*
X1603806Y3327400D01*
X1604772Y3313226D01*
X1607515Y3299358D01*
X1612087Y3285896D01*
X1618335Y3273196D01*
X1626209Y3261410D01*
X1635556Y3250742D01*
X1646224Y3241395D01*
X1658010Y3233521D01*
X1670710Y3227273D01*
X1684172Y3222701D01*
X1698040Y3219958D01*
G37*
G36*
X3433521Y3367481D02*
G01*
X3451606Y3368852D01*
X3469386Y3372104D01*
X3486810Y3377184D01*
X3503574Y3383991D01*
X3519525Y3392525D01*
X3534562Y3402634D01*
X3548481Y3414217D01*
X3561130Y3427171D01*
X3572357Y3441395D01*
X3582060Y3456686D01*
X3590188Y3472840D01*
X3596538Y3489807D01*
X3601161Y3507333D01*
X3603955Y3525215D01*
X3604869Y3543300D01*
X3603955Y3561384D01*
X3601161Y3579266D01*
X3596538Y3596792D01*
X3590188Y3613759D01*
X3582060Y3629914D01*
X3572357Y3645204D01*
X3561130Y3659428D01*
X3548481Y3672382D01*
X3534562Y3683965D01*
X3519525Y3694074D01*
X3503574Y3702608D01*
X3486810Y3709415D01*
X3469386Y3714496D01*
X3451606Y3717747D01*
X3433521Y3719118D01*
X3415436Y3718661D01*
X3397453Y3716324D01*
X3379825Y3712210D01*
X3362756Y3706215D01*
X3346348Y3698544D01*
X3330803Y3689248D01*
X3316325Y3678377D01*
X3303015Y3666083D01*
X3291078Y3652469D01*
X3280562Y3637686D01*
X3271672Y3621938D01*
X3264408Y3605326D01*
X3258921Y3588105D01*
X3255213Y3570376D01*
X3253333Y3552342D01*
X3253333Y3534257D01*
X3255213Y3516223D01*
X3258921Y3498494D01*
X3264408Y3481273D01*
X3271672Y3464661D01*
X3280562Y3448913D01*
X3291078Y3434130D01*
X3303015Y3420516D01*
X3316325Y3408222D01*
X3330803Y3397351D01*
X3346348Y3388055D01*
X3362756Y3380384D01*
X3379825Y3374390D01*
X3397453Y3370275D01*
X3415436Y3367938D01*
G37*
G36*
X639521Y3380181D02*
G01*
X657606Y3381552D01*
X675386Y3384804D01*
X692810Y3389884D01*
X709574Y3396691D01*
X725525Y3405225D01*
X740562Y3415334D01*
X754481Y3426917D01*
X767130Y3439871D01*
X778357Y3454095D01*
X788060Y3469386D01*
X796188Y3485540D01*
X802538Y3502507D01*
X807161Y3520033D01*
X809955Y3537915D01*
X810869Y3556000D01*
X809955Y3574084D01*
X807161Y3591966D01*
X802538Y3609492D01*
X796188Y3626459D01*
X788060Y3642614D01*
X778357Y3657904D01*
X767130Y3672128D01*
X754481Y3685082D01*
X740562Y3696665D01*
X725525Y3706774D01*
X709574Y3715308D01*
X692810Y3722115D01*
X675386Y3727196D01*
X657606Y3730447D01*
X639521Y3731818D01*
X621436Y3731361D01*
X603453Y3729024D01*
X585825Y3724910D01*
X568756Y3718915D01*
X552348Y3711244D01*
X536803Y3701948D01*
X522325Y3691077D01*
X509016Y3678783D01*
X497078Y3665169D01*
X486562Y3650386D01*
X477672Y3634638D01*
X470408Y3618026D01*
X464921Y3600805D01*
X461213Y3583076D01*
X459333Y3565042D01*
X459333Y3546957D01*
X461213Y3528923D01*
X464921Y3511194D01*
X470408Y3493973D01*
X477672Y3477361D01*
X486562Y3461613D01*
X497078Y3446830D01*
X509016Y3433216D01*
X522325Y3420922D01*
X536803Y3410051D01*
X552348Y3400755D01*
X568756Y3393084D01*
X585825Y3387090D01*
X603453Y3382975D01*
X621436Y3380638D01*
G37*
G36*
X2409952Y10302595D02*
G01*
X2425293Y10305745D01*
X2438704Y10310266D01*
X2451455Y10316565D01*
X2463241Y10324439D01*
X2473909Y10333786D01*
X2483256Y10344454D01*
X2491130Y10356240D01*
X2497378Y10368940D01*
X2501950Y10382351D01*
X2504694Y10396270D01*
X2504795Y10397744D01*
X2409952Y10397744D01*
G37*
G36*
X2409952Y3444595D02*
G01*
X2425293Y3447745D01*
X2438704Y3452317D01*
X2451455Y3458565D01*
X2463241Y3466439D01*
X2473909Y3475786D01*
X2483256Y3486454D01*
X2491130Y3498240D01*
X2497378Y3510940D01*
X2501950Y3524402D01*
X2504694Y3538270D01*
X2504795Y3539744D01*
X2409952Y3539744D01*
G37*
G36*
X1663700Y3448456D02*
G01*
X1663700Y3543300D01*
X1568856Y3543300D01*
X1568958Y3541826D01*
X1571701Y3527958D01*
X1576273Y3514496D01*
X1582521Y3501796D01*
X1590395Y3490010D01*
X1599742Y3479342D01*
X1610410Y3469995D01*
X1622196Y3462121D01*
X1634896Y3455873D01*
X1648358Y3451301D01*
X1662226Y3448558D01*
G37*
G36*
X2409952Y3565144D02*
G01*
X2504795Y3565144D01*
X2504694Y3566566D01*
X2501950Y3580485D01*
X2497378Y3593896D01*
X2491130Y3606647D01*
X2483256Y3618433D01*
X2473909Y3629101D01*
X2463241Y3638448D01*
X2451455Y3646322D01*
X2438704Y3652570D01*
X2425293Y3657142D01*
X2411171Y3659886D01*
X2409952Y3660292D01*
G37*
G36*
X2289708Y3565144D02*
G01*
X2384552Y3565144D01*
X2384552Y3663594D01*
X2385415Y3667658D01*
X2387854Y3671062D01*
X2391460Y3673195D01*
X2396540Y3674922D01*
X2400300Y3675430D01*
X2403094Y3674770D01*
X2403906Y3676396D01*
X2407361Y3679139D01*
X2416403Y3683609D01*
X2428189Y3691483D01*
X2438857Y3700830D01*
X2448204Y3711498D01*
X2456078Y3723284D01*
X2462326Y3735984D01*
X2466898Y3749446D01*
X2469642Y3763314D01*
X2470556Y3777487D01*
X2469642Y3791610D01*
X2466898Y3805529D01*
X2462326Y3818940D01*
X2456078Y3831691D01*
X2448204Y3843477D01*
X2438857Y3854145D01*
X2428189Y3863492D01*
X2416403Y3871366D01*
X2403652Y3877614D01*
X2390241Y3882186D01*
X2376322Y3884929D01*
X2362200Y3885844D01*
X2348026Y3884929D01*
X2334158Y3882186D01*
X2320696Y3877614D01*
X2307996Y3871366D01*
X2296210Y3863492D01*
X2285542Y3854145D01*
X2276195Y3843477D01*
X2268321Y3831691D01*
X2262073Y3818940D01*
X2257501Y3805529D01*
X2254758Y3791610D01*
X2253792Y3777487D01*
X2254758Y3763314D01*
X2257501Y3749446D01*
X2262073Y3735984D01*
X2268321Y3723284D01*
X2276195Y3711498D01*
X2285542Y3700830D01*
X2296210Y3691483D01*
X2307996Y3683609D01*
X2320696Y3677361D01*
X2334158Y3672789D01*
X2348280Y3669995D01*
X2352497Y3668776D01*
X2355799Y3665880D01*
X2357577Y3661867D01*
X2357475Y3657447D01*
X2355545Y3653485D01*
X2352090Y3650742D01*
X2343048Y3646322D01*
X2331262Y3638448D01*
X2320594Y3629101D01*
X2311247Y3618433D01*
X2303373Y3606647D01*
X2297125Y3593896D01*
X2292553Y3580485D01*
X2289810Y3566566D01*
G37*
G36*
X1568856Y3568700D02*
G01*
X1663700Y3568700D01*
X1663700Y3665321D01*
X1662836Y3664458D01*
X1659026Y3662832D01*
X1648358Y3660698D01*
X1634896Y3656126D01*
X1622196Y3649878D01*
X1610410Y3642004D01*
X1599742Y3632657D01*
X1590395Y3621989D01*
X1582521Y3610203D01*
X1576273Y3597452D01*
X1571701Y3584041D01*
X1568958Y3570122D01*
G37*
G36*
X1689100Y3568700D02*
G01*
X1783943Y3568700D01*
X1783842Y3570122D01*
X1781098Y3584041D01*
X1776526Y3597452D01*
X1770278Y3610203D01*
X1762404Y3621989D01*
X1753057Y3632657D01*
X1742389Y3642004D01*
X1730603Y3649878D01*
X1727098Y3651605D01*
X1723643Y3654450D01*
X1721916Y3651910D01*
X1718614Y3649675D01*
X1714754Y3648913D01*
X1709674Y3648913D01*
X1705762Y3649675D01*
X1702460Y3651910D01*
X1700275Y3655212D01*
X1699514Y3659073D01*
X1699514Y3764787D01*
X1604670Y3764787D01*
X1604772Y3763314D01*
X1607515Y3749446D01*
X1612087Y3735984D01*
X1618335Y3723284D01*
X1626209Y3711498D01*
X1635556Y3700830D01*
X1646224Y3691483D01*
X1658010Y3683609D01*
X1661515Y3681882D01*
X1664970Y3679037D01*
X1666646Y3681577D01*
X1669948Y3683762D01*
X1673860Y3684574D01*
X1678939Y3684574D01*
X1682800Y3683762D01*
X1686102Y3681577D01*
X1688338Y3678275D01*
X1689100Y3674414D01*
G37*
G36*
X639521Y10238130D02*
G01*
X657606Y10239552D01*
X675386Y10242804D01*
X692810Y10247833D01*
X709574Y10254691D01*
X725525Y10263174D01*
X740562Y10273284D01*
X754481Y10284866D01*
X767130Y10297871D01*
X778357Y10312044D01*
X788060Y10327335D01*
X796188Y10343540D01*
X802538Y10360507D01*
X807161Y10377982D01*
X809955Y10395864D01*
X810869Y10413949D01*
X809955Y10432084D01*
X807161Y10449966D01*
X802538Y10467441D01*
X796188Y10484408D01*
X788060Y10500614D01*
X778357Y10515904D01*
X767130Y10530078D01*
X754481Y10543082D01*
X740562Y10554665D01*
X725525Y10564774D01*
X709574Y10573258D01*
X692810Y10580116D01*
X675386Y10585145D01*
X657606Y10588396D01*
X639521Y10589818D01*
X621436Y10589361D01*
X603453Y10587024D01*
X585825Y10582859D01*
X568756Y10576915D01*
X552348Y10569244D01*
X536803Y10559897D01*
X522325Y10549026D01*
X509016Y10536732D01*
X497078Y10523118D01*
X486562Y10508386D01*
X477672Y10492638D01*
X470408Y10476026D01*
X464921Y10458754D01*
X461213Y10441025D01*
X459333Y10423042D01*
X459333Y10404906D01*
X461213Y10386923D01*
X464921Y10369194D01*
X470408Y10351922D01*
X477672Y10335310D01*
X486562Y10319562D01*
X497078Y10304830D01*
X509016Y10291216D01*
X522325Y10278922D01*
X536803Y10268051D01*
X552348Y10258704D01*
X568756Y10251033D01*
X585825Y10245090D01*
X603453Y10240924D01*
X621436Y10238587D01*
G37*
G36*
X1724914Y3668115D02*
G01*
X1725726Y3669029D01*
X1729587Y3670655D01*
X1740255Y3672789D01*
X1753666Y3677361D01*
X1766417Y3683609D01*
X1778203Y3691483D01*
X1788871Y3700830D01*
X1798218Y3711498D01*
X1806092Y3723284D01*
X1812340Y3735984D01*
X1816912Y3749446D01*
X1819656Y3763314D01*
X1819757Y3764787D01*
X1724914Y3764787D01*
G37*
G36*
X3433521Y10225430D02*
G01*
X3451606Y10226852D01*
X3469386Y10230104D01*
X3486810Y10235133D01*
X3503574Y10241991D01*
X3519525Y10250474D01*
X3534562Y10260584D01*
X3548481Y10272166D01*
X3561130Y10285171D01*
X3572357Y10299344D01*
X3582060Y10314635D01*
X3590188Y10330840D01*
X3596538Y10347807D01*
X3601161Y10365282D01*
X3603955Y10383164D01*
X3604869Y10401249D01*
X3603955Y10419384D01*
X3601161Y10437266D01*
X3596538Y10454741D01*
X3590188Y10471708D01*
X3582060Y10487914D01*
X3572357Y10503204D01*
X3561130Y10517378D01*
X3548481Y10530382D01*
X3534562Y10541965D01*
X3519525Y10552074D01*
X3503574Y10560558D01*
X3486810Y10567416D01*
X3469386Y10572445D01*
X3451606Y10575696D01*
X3433521Y10577118D01*
X3415436Y10576661D01*
X3397453Y10574324D01*
X3379825Y10570159D01*
X3362756Y10564215D01*
X3346348Y10556544D01*
X3330803Y10547197D01*
X3316325Y10536326D01*
X3303015Y10524032D01*
X3291078Y10510418D01*
X3280562Y10495686D01*
X3271672Y10479938D01*
X3264408Y10463326D01*
X3258921Y10446054D01*
X3255213Y10428325D01*
X3253333Y10410342D01*
X3253333Y10392206D01*
X3255213Y10374223D01*
X3258921Y10356494D01*
X3264408Y10339222D01*
X3271672Y10322610D01*
X3280562Y10306862D01*
X3291078Y10292130D01*
X3303015Y10278516D01*
X3316325Y10266222D01*
X3330803Y10255351D01*
X3346348Y10246004D01*
X3362756Y10238333D01*
X3379825Y10232390D01*
X3397453Y10228224D01*
X3415436Y10225887D01*
G37*
G36*
X1712214Y10076992D02*
G01*
X1726336Y10077907D01*
X1740255Y10080701D01*
X1753666Y10085222D01*
X1766417Y10091521D01*
X1778203Y10099395D01*
X1788871Y10108742D01*
X1798218Y10119410D01*
X1806092Y10131196D01*
X1812340Y10143896D01*
X1816912Y10157307D01*
X1819656Y10171226D01*
X1820570Y10185400D01*
X1819656Y10199522D01*
X1816912Y10213441D01*
X1812340Y10226852D01*
X1806092Y10239552D01*
X1798218Y10251338D01*
X1788871Y10262006D01*
X1778203Y10271353D01*
X1766417Y10279227D01*
X1753666Y10285526D01*
X1740255Y10290048D01*
X1726336Y10292842D01*
X1718360Y10293350D01*
X1714500Y10294366D01*
X1711350Y10296804D01*
X1709369Y10300258D01*
X1708861Y10304170D01*
X1709877Y10307980D01*
X1712315Y10311130D01*
X1715719Y10313111D01*
X1717852Y10313822D01*
X1730603Y10320121D01*
X1742389Y10327995D01*
X1753057Y10337342D01*
X1762404Y10348010D01*
X1770278Y10359796D01*
X1776526Y10372496D01*
X1781098Y10385907D01*
X1783842Y10399826D01*
X1783943Y10401300D01*
X1689100Y10401300D01*
X1689100Y10299039D01*
X1688236Y10294924D01*
X1685798Y10291521D01*
X1682191Y10289387D01*
X1677111Y10287660D01*
X1674825Y10287355D01*
X1670710Y10285526D01*
X1658010Y10279227D01*
X1646224Y10271353D01*
X1635556Y10262006D01*
X1626209Y10251338D01*
X1618335Y10239552D01*
X1612087Y10226852D01*
X1607515Y10213441D01*
X1604772Y10199522D01*
X1603806Y10185400D01*
X1604772Y10171226D01*
X1607515Y10157307D01*
X1612087Y10143896D01*
X1618335Y10131196D01*
X1626209Y10119410D01*
X1635556Y10108742D01*
X1646224Y10099395D01*
X1658010Y10091521D01*
X1670710Y10085222D01*
X1684172Y10080701D01*
X1698040Y10077907D01*
G37*
G36*
X1604670Y3790187D02*
G01*
X1699514Y3790187D01*
X1699514Y3885031D01*
X1698040Y3884929D01*
X1684172Y3882186D01*
X1670710Y3877614D01*
X1658010Y3871366D01*
X1646224Y3863492D01*
X1635556Y3854145D01*
X1626209Y3843477D01*
X1618335Y3831691D01*
X1612087Y3818940D01*
X1607515Y3805529D01*
X1604772Y3791610D01*
G37*
G36*
X1724914Y3790187D02*
G01*
X1819757Y3790187D01*
X1819656Y3791610D01*
X1816912Y3805529D01*
X1812340Y3818940D01*
X1806092Y3831691D01*
X1798218Y3843477D01*
X1788871Y3854145D01*
X1778203Y3863492D01*
X1766417Y3871366D01*
X1753666Y3877614D01*
X1740255Y3882186D01*
X1726336Y3884929D01*
X1724914Y3885031D01*
G37*
G36*
X2037181Y3803954D02*
G01*
X2051354Y3804920D01*
X2065274Y3807663D01*
X2078685Y3812235D01*
X2091385Y3818483D01*
X2103170Y3826357D01*
X2113838Y3835704D01*
X2123186Y3846372D01*
X2131060Y3858158D01*
X2137359Y3870858D01*
X2141880Y3884320D01*
X2144674Y3898188D01*
X2145588Y3912362D01*
X2144674Y3926484D01*
X2141880Y3940403D01*
X2137359Y3953814D01*
X2131060Y3966565D01*
X2123186Y3978351D01*
X2113838Y3989019D01*
X2103170Y3998366D01*
X2091385Y4006240D01*
X2078685Y4012488D01*
X2065274Y4017060D01*
X2051354Y4019804D01*
X2037181Y4020718D01*
X2023059Y4019804D01*
X2009139Y4017060D01*
X1995728Y4012488D01*
X1983028Y4006240D01*
X1971243Y3998366D01*
X1960575Y3989019D01*
X1951228Y3978351D01*
X1943354Y3966565D01*
X1937054Y3953814D01*
X1932533Y3940403D01*
X1929739Y3926484D01*
X1928825Y3912362D01*
X1929739Y3898188D01*
X1932533Y3884320D01*
X1937054Y3870858D01*
X1943354Y3858158D01*
X1951228Y3846372D01*
X1960575Y3835704D01*
X1971243Y3826357D01*
X1983028Y3818483D01*
X1995728Y3812235D01*
X2009139Y3807663D01*
X2023059Y3804920D01*
G37*
G36*
X3429000Y3934917D02*
G01*
X3443122Y3935831D01*
X3457041Y3938574D01*
X3470452Y3943146D01*
X3483203Y3949446D01*
X3494989Y3957320D01*
X3505657Y3966667D01*
X3515004Y3977335D01*
X3522878Y3989120D01*
X3529126Y4001820D01*
X3533698Y4015232D01*
X3536442Y4029151D01*
X3537356Y4043273D01*
X3536442Y4057446D01*
X3533698Y4071365D01*
X3529126Y4084777D01*
X3522878Y4097477D01*
X3515004Y4109262D01*
X3505657Y4119930D01*
X3494989Y4129278D01*
X3483203Y4137151D01*
X3470452Y4143451D01*
X3457041Y4147972D01*
X3443122Y4150766D01*
X3429000Y4151680D01*
X3414826Y4150766D01*
X3400958Y4147972D01*
X3387496Y4143451D01*
X3374796Y4137151D01*
X3363010Y4129278D01*
X3352342Y4119930D01*
X3342995Y4109262D01*
X3335121Y4097477D01*
X3328873Y4084777D01*
X3324301Y4071365D01*
X3321558Y4057446D01*
X3320592Y4043273D01*
X3321558Y4029151D01*
X3324301Y4015232D01*
X3328873Y4001820D01*
X3335121Y3989120D01*
X3342995Y3977335D01*
X3352342Y3966667D01*
X3363010Y3957320D01*
X3374796Y3949446D01*
X3387496Y3943146D01*
X3400958Y3938574D01*
X3414826Y3935831D01*
G37*
G36*
X635000Y3947617D02*
G01*
X649122Y3948531D01*
X663041Y3951274D01*
X676452Y3955846D01*
X689203Y3962146D01*
X700989Y3970020D01*
X711657Y3979367D01*
X721004Y3990035D01*
X728878Y4001820D01*
X735126Y4014520D01*
X739698Y4027932D01*
X742442Y4041851D01*
X743407Y4055973D01*
X742442Y4070146D01*
X739698Y4084065D01*
X735126Y4097477D01*
X728878Y4110177D01*
X721004Y4121962D01*
X711657Y4132630D01*
X700989Y4141978D01*
X689203Y4149851D01*
X676452Y4156151D01*
X663041Y4160672D01*
X649122Y4163466D01*
X635000Y4164380D01*
X620877Y4163466D01*
X606958Y4160672D01*
X593547Y4156151D01*
X580796Y4149851D01*
X569010Y4141978D01*
X558342Y4132630D01*
X548995Y4121962D01*
X541121Y4110177D01*
X534873Y4097477D01*
X530301Y4084065D01*
X527558Y4070146D01*
X526592Y4055973D01*
X527558Y4041851D01*
X530301Y4027932D01*
X534873Y4014520D01*
X541121Y4001820D01*
X548995Y3990035D01*
X558342Y3979367D01*
X569010Y3970020D01*
X580796Y3962146D01*
X593547Y3955846D01*
X606958Y3951274D01*
X620877Y3948531D01*
G37*
G36*
X1295400Y4033062D02*
G01*
X1305204Y4033926D01*
X1314653Y4036466D01*
X1323594Y4040581D01*
X1331620Y4046220D01*
X1333195Y4047794D01*
X1336497Y4050029D01*
X1340408Y4050792D01*
X2138527Y4050792D01*
X2142439Y4050029D01*
X2145741Y4047794D01*
X2147316Y4046220D01*
X2155342Y4040581D01*
X2164283Y4036466D01*
X2173732Y4033926D01*
X2183536Y4033062D01*
X2193340Y4033926D01*
X2202789Y4036466D01*
X2211730Y4040581D01*
X2219756Y4046220D01*
X2226716Y4053179D01*
X2232355Y4061206D01*
X2236470Y4070146D01*
X2239010Y4079595D01*
X2239873Y4089400D01*
X2239010Y4099204D01*
X2236470Y4108653D01*
X2232355Y4117594D01*
X2226716Y4125620D01*
X2219756Y4132579D01*
X2211730Y4138218D01*
X2202789Y4142333D01*
X2193340Y4144873D01*
X2183536Y4145737D01*
X2173732Y4144873D01*
X2164283Y4142333D01*
X2155342Y4138218D01*
X2147316Y4132579D01*
X2145741Y4131005D01*
X2142439Y4128770D01*
X2138527Y4128008D01*
X1340408Y4128008D01*
X1336497Y4128770D01*
X1333195Y4131005D01*
X1331620Y4132579D01*
X1323594Y4138218D01*
X1314653Y4142333D01*
X1305204Y4144873D01*
X1295400Y4145737D01*
X1285595Y4144873D01*
X1276146Y4142333D01*
X1267206Y4138218D01*
X1259179Y4132579D01*
X1252220Y4125620D01*
X1246581Y4117594D01*
X1242466Y4108653D01*
X1239926Y4099204D01*
X1239062Y4089400D01*
X1239926Y4079595D01*
X1242466Y4070146D01*
X1246581Y4061206D01*
X1252220Y4053179D01*
X1259179Y4046220D01*
X1267206Y4040581D01*
X1276146Y4036466D01*
X1285595Y4033926D01*
G37*
G36*
X2362200Y10076992D02*
G01*
X2376322Y10077907D01*
X2390241Y10080701D01*
X2403652Y10085222D01*
X2416403Y10091521D01*
X2428189Y10099395D01*
X2438857Y10108742D01*
X2448204Y10119410D01*
X2456078Y10131196D01*
X2462326Y10143896D01*
X2466898Y10157307D01*
X2469642Y10171226D01*
X2470556Y10185400D01*
X2469642Y10199522D01*
X2466898Y10213441D01*
X2462326Y10226852D01*
X2456078Y10239552D01*
X2448204Y10251338D01*
X2438857Y10262006D01*
X2428189Y10271353D01*
X2416403Y10279227D01*
X2407361Y10283698D01*
X2403906Y10286441D01*
X2403094Y10288117D01*
X2400300Y10287406D01*
X2396540Y10287965D01*
X2391460Y10289641D01*
X2387854Y10291775D01*
X2385415Y10295178D01*
X2384552Y10299293D01*
X2384552Y10397744D01*
X2289708Y10397744D01*
X2289810Y10396270D01*
X2292553Y10382351D01*
X2297125Y10368940D01*
X2303373Y10356240D01*
X2311247Y10344454D01*
X2320594Y10333786D01*
X2331262Y10324439D01*
X2343048Y10316565D01*
X2352090Y10312095D01*
X2355545Y10309352D01*
X2357475Y10305389D01*
X2357577Y10301020D01*
X2355799Y10297007D01*
X2352497Y10294061D01*
X2348026Y10292842D01*
X2334158Y10290048D01*
X2320696Y10285526D01*
X2307996Y10279227D01*
X2296210Y10271353D01*
X2285542Y10262006D01*
X2276195Y10251338D01*
X2268321Y10239552D01*
X2262073Y10226852D01*
X2257501Y10213441D01*
X2254758Y10199522D01*
X2253792Y10185400D01*
X2254758Y10171226D01*
X2257501Y10157307D01*
X2262073Y10143896D01*
X2268321Y10131196D01*
X2276195Y10119410D01*
X2285542Y10108742D01*
X2296210Y10099395D01*
X2307996Y10091521D01*
X2320696Y10085222D01*
X2334158Y10080701D01*
X2348026Y10077907D01*
G37*
G36*
X647700Y10076688D02*
G01*
X742543Y10076688D01*
X742442Y10078161D01*
X739698Y10092029D01*
X735126Y10105491D01*
X728878Y10118191D01*
X721004Y10129977D01*
X711657Y10140645D01*
X700989Y10149992D01*
X689203Y10157866D01*
X676452Y10164114D01*
X663041Y10168686D01*
X649122Y10171430D01*
X647700Y10171531D01*
G37*
G36*
X1016000Y4172762D02*
G01*
X1025804Y4173626D01*
X1035253Y4176166D01*
X1037590Y4177233D01*
X1041908Y4178198D01*
X1650492Y4178198D01*
X1654810Y4177233D01*
X1657146Y4176166D01*
X1666595Y4173626D01*
X1676400Y4172762D01*
X1686204Y4173626D01*
X1695653Y4176166D01*
X1704593Y4180281D01*
X1712620Y4185920D01*
X1719580Y4192879D01*
X1725218Y4200906D01*
X1729333Y4209846D01*
X1731873Y4219295D01*
X1732737Y4229100D01*
X1731873Y4238904D01*
X1729333Y4248353D01*
X1728266Y4250690D01*
X1727301Y4255008D01*
X1727301Y4385767D01*
X1727962Y4389323D01*
X1729790Y4392422D01*
X1732584Y4394708D01*
X1738477Y4397959D01*
X1750263Y4406493D01*
X1760880Y4416450D01*
X1770125Y4427677D01*
X1777949Y4439970D01*
X1784146Y4453128D01*
X1788617Y4466945D01*
X1791360Y4481271D01*
X1792274Y4495800D01*
X1791360Y4510328D01*
X1788617Y4524603D01*
X1784146Y4538472D01*
X1777949Y4551629D01*
X1770125Y4563922D01*
X1760880Y4575098D01*
X1750263Y4585106D01*
X1738477Y4593640D01*
X1732584Y4596892D01*
X1729790Y4599178D01*
X1727962Y4602276D01*
X1727301Y4605782D01*
X1727301Y4639767D01*
X1727962Y4643323D01*
X1729790Y4646422D01*
X1732584Y4648708D01*
X1738477Y4651959D01*
X1750263Y4660493D01*
X1760880Y4670450D01*
X1770125Y4681677D01*
X1777949Y4693970D01*
X1784146Y4707128D01*
X1788617Y4720945D01*
X1791360Y4735271D01*
X1792274Y4749800D01*
X1791360Y4764328D01*
X1788617Y4778603D01*
X1784146Y4792472D01*
X1777949Y4805629D01*
X1770125Y4817922D01*
X1760880Y4829098D01*
X1750263Y4839106D01*
X1738477Y4847640D01*
X1732584Y4850892D01*
X1729790Y4853178D01*
X1727962Y4856276D01*
X1727301Y4859782D01*
X1727301Y4901692D01*
X1728266Y4906010D01*
X1729333Y4908346D01*
X1731873Y4917795D01*
X1732737Y4927600D01*
X1731873Y4937404D01*
X1729333Y4946853D01*
X1725218Y4955794D01*
X1719580Y4963820D01*
X1712620Y4970780D01*
X1704593Y4976418D01*
X1695653Y4980533D01*
X1686204Y4983073D01*
X1676400Y4983937D01*
X1666595Y4983073D01*
X1657146Y4980533D01*
X1648206Y4976418D01*
X1640179Y4970780D01*
X1633220Y4963820D01*
X1627581Y4955794D01*
X1623466Y4946853D01*
X1620926Y4937404D01*
X1620062Y4927600D01*
X1620926Y4917795D01*
X1623466Y4908346D01*
X1624533Y4906010D01*
X1625498Y4901692D01*
X1625498Y4859782D01*
X1624838Y4856276D01*
X1623009Y4853178D01*
X1620215Y4850892D01*
X1614322Y4847640D01*
X1602536Y4839106D01*
X1591919Y4829098D01*
X1582623Y4817922D01*
X1574850Y4805629D01*
X1568653Y4792472D01*
X1564132Y4778603D01*
X1561439Y4764328D01*
X1560525Y4749800D01*
X1561439Y4735271D01*
X1564132Y4720945D01*
X1568653Y4707128D01*
X1574850Y4693970D01*
X1582623Y4681677D01*
X1591919Y4670450D01*
X1602536Y4660493D01*
X1614322Y4651959D01*
X1620215Y4648708D01*
X1623009Y4646422D01*
X1624838Y4643323D01*
X1625498Y4639767D01*
X1625498Y4605782D01*
X1624838Y4602276D01*
X1623009Y4599178D01*
X1620215Y4596892D01*
X1614322Y4593640D01*
X1602536Y4585106D01*
X1591919Y4575098D01*
X1582623Y4563922D01*
X1574850Y4551629D01*
X1568653Y4538472D01*
X1564132Y4524603D01*
X1561439Y4510328D01*
X1560525Y4495800D01*
X1561439Y4481271D01*
X1564132Y4466945D01*
X1568653Y4453128D01*
X1574850Y4439970D01*
X1582623Y4427677D01*
X1591919Y4416450D01*
X1602536Y4406493D01*
X1614322Y4397959D01*
X1620215Y4394708D01*
X1623009Y4392422D01*
X1624838Y4389323D01*
X1625498Y4385767D01*
X1625498Y4290161D01*
X1624736Y4286300D01*
X1622501Y4282998D01*
X1619199Y4280763D01*
X1615338Y4280001D01*
X1041908Y4280001D01*
X1037590Y4280966D01*
X1035253Y4282033D01*
X1025804Y4284573D01*
X1016000Y4285437D01*
X1006195Y4284573D01*
X996746Y4282033D01*
X987806Y4277918D01*
X979779Y4272280D01*
X972819Y4265320D01*
X967181Y4257294D01*
X963066Y4248353D01*
X960526Y4238904D01*
X959662Y4229100D01*
X960526Y4219295D01*
X963066Y4209846D01*
X967181Y4200906D01*
X972819Y4192879D01*
X979779Y4185920D01*
X987806Y4180281D01*
X996746Y4176166D01*
X1006195Y4173626D01*
G37*
G36*
X527456Y10076688D02*
G01*
X622300Y10076688D01*
X622300Y10171531D01*
X620877Y10171430D01*
X606958Y10168686D01*
X593547Y10164114D01*
X580796Y10157866D01*
X569010Y10149992D01*
X558342Y10140645D01*
X548995Y10129977D01*
X541121Y10118191D01*
X534873Y10105491D01*
X530301Y10092029D01*
X527558Y10078161D01*
G37*
G36*
X622300Y9956444D02*
G01*
X622300Y10051288D01*
X527456Y10051288D01*
X527558Y10049865D01*
X530301Y10035946D01*
X534873Y10022535D01*
X541121Y10009784D01*
X548995Y9997998D01*
X558342Y9987330D01*
X569010Y9977983D01*
X580796Y9970109D01*
X593547Y9963861D01*
X606958Y9959289D01*
X620877Y9956546D01*
G37*
G36*
X1415135Y4380128D02*
G01*
X1429664Y4380128D01*
X1444091Y4381957D01*
X1458214Y4385564D01*
X1471726Y4390948D01*
X1484477Y4397959D01*
X1496263Y4406493D01*
X1506880Y4416450D01*
X1516126Y4427677D01*
X1523949Y4439970D01*
X1530146Y4453128D01*
X1534617Y4466945D01*
X1537360Y4481271D01*
X1538274Y4495800D01*
X1537360Y4510328D01*
X1534617Y4524603D01*
X1530146Y4538472D01*
X1523949Y4551629D01*
X1516126Y4563922D01*
X1506880Y4575098D01*
X1496263Y4585106D01*
X1484477Y4593640D01*
X1471726Y4600651D01*
X1458214Y4605985D01*
X1444091Y4609642D01*
X1429664Y4611471D01*
X1415135Y4611471D01*
X1400657Y4609642D01*
X1386586Y4605985D01*
X1373073Y4600651D01*
X1360322Y4593640D01*
X1348536Y4585106D01*
X1337919Y4575098D01*
X1328623Y4563922D01*
X1320850Y4551629D01*
X1314653Y4538472D01*
X1310132Y4524603D01*
X1307439Y4510328D01*
X1306525Y4495800D01*
X1307439Y4481271D01*
X1310132Y4466945D01*
X1314653Y4453128D01*
X1320850Y4439970D01*
X1328623Y4427677D01*
X1337919Y4416450D01*
X1348536Y4406493D01*
X1360322Y4397959D01*
X1373073Y4390948D01*
X1386586Y4385564D01*
X1400657Y4381957D01*
G37*
G36*
X1923135Y4380128D02*
G01*
X1937664Y4380128D01*
X1952091Y4381957D01*
X1966214Y4385564D01*
X1979726Y4390948D01*
X1992477Y4397959D01*
X2004263Y4406493D01*
X2014880Y4416450D01*
X2024125Y4427677D01*
X2031949Y4439970D01*
X2038146Y4453128D01*
X2042617Y4466945D01*
X2045360Y4481271D01*
X2046274Y4495800D01*
X2045360Y4510328D01*
X2042617Y4524603D01*
X2038146Y4538472D01*
X2031949Y4551629D01*
X2024125Y4563922D01*
X2014880Y4575098D01*
X2004263Y4585106D01*
X1992477Y4593640D01*
X1979726Y4600651D01*
X1966214Y4605985D01*
X1952091Y4609642D01*
X1937664Y4611471D01*
X1923135Y4611471D01*
X1908657Y4609642D01*
X1894586Y4605985D01*
X1881073Y4600651D01*
X1868322Y4593640D01*
X1856536Y4585106D01*
X1845919Y4575098D01*
X1836623Y4563922D01*
X1828850Y4551629D01*
X1822653Y4538472D01*
X1818132Y4524603D01*
X1815439Y4510328D01*
X1814525Y4495800D01*
X1815439Y4481271D01*
X1818132Y4466945D01*
X1822653Y4453128D01*
X1828850Y4439970D01*
X1836623Y4427677D01*
X1845919Y4416450D01*
X1856536Y4406493D01*
X1868322Y4397959D01*
X1881073Y4390948D01*
X1894586Y4385564D01*
X1908657Y4381957D01*
G37*
G36*
X1161135Y4380128D02*
G01*
X1175664Y4380128D01*
X1190091Y4381957D01*
X1204214Y4385564D01*
X1217726Y4390948D01*
X1230477Y4397959D01*
X1242263Y4406493D01*
X1252880Y4416450D01*
X1262126Y4427677D01*
X1269949Y4439970D01*
X1276146Y4453128D01*
X1280617Y4466945D01*
X1283360Y4481271D01*
X1284274Y4495800D01*
X1283360Y4510328D01*
X1280617Y4524603D01*
X1276146Y4538472D01*
X1269949Y4551629D01*
X1262126Y4563922D01*
X1252880Y4575098D01*
X1242263Y4585106D01*
X1230477Y4593640D01*
X1217726Y4600651D01*
X1204214Y4605985D01*
X1190091Y4609642D01*
X1175664Y4611471D01*
X1161135Y4611471D01*
X1146657Y4609642D01*
X1132586Y4605985D01*
X1119073Y4600651D01*
X1106322Y4593640D01*
X1094536Y4585106D01*
X1083919Y4575098D01*
X1074623Y4563922D01*
X1066850Y4551629D01*
X1060653Y4538472D01*
X1056132Y4524603D01*
X1053439Y4510328D01*
X1052525Y4495800D01*
X1053439Y4481271D01*
X1056132Y4466945D01*
X1060653Y4453128D01*
X1066850Y4439970D01*
X1074623Y4427677D01*
X1083919Y4416450D01*
X1094536Y4406493D01*
X1106322Y4397959D01*
X1119073Y4390948D01*
X1132586Y4385564D01*
X1146657Y4381957D01*
G37*
G36*
X2171700Y4380839D02*
G01*
X2171700Y4483100D01*
X2069287Y4483100D01*
X2069439Y4481271D01*
X2072132Y4466945D01*
X2076653Y4453128D01*
X2082850Y4439970D01*
X2090623Y4427677D01*
X2099919Y4416450D01*
X2110536Y4406493D01*
X2122322Y4397959D01*
X2135073Y4390948D01*
X2148586Y4385564D01*
X2162657Y4381957D01*
G37*
G36*
X2197100Y4380839D02*
G01*
X2206091Y4381957D01*
X2220214Y4385564D01*
X2233726Y4390948D01*
X2246477Y4397959D01*
X2258263Y4406493D01*
X2268880Y4416450D01*
X2278126Y4427677D01*
X2285949Y4439970D01*
X2292146Y4453128D01*
X2296617Y4466945D01*
X2299360Y4481271D01*
X2299462Y4483100D01*
X2197100Y4483100D01*
G37*
G36*
X2425700Y4380839D02*
G01*
X2425700Y4483100D01*
X2323287Y4483100D01*
X2323439Y4481271D01*
X2326132Y4466945D01*
X2330653Y4453128D01*
X2336850Y4439970D01*
X2344623Y4427677D01*
X2353919Y4416450D01*
X2364536Y4406493D01*
X2376322Y4397959D01*
X2389073Y4390948D01*
X2402586Y4385564D01*
X2416657Y4381957D01*
G37*
G36*
X647700Y9956444D02*
G01*
X649122Y9956546D01*
X663041Y9959289D01*
X676452Y9963861D01*
X689203Y9970109D01*
X700989Y9977983D01*
X711657Y9987330D01*
X721004Y9997998D01*
X728878Y10009784D01*
X735126Y10022535D01*
X739698Y10035946D01*
X742442Y10049865D01*
X742543Y10051288D01*
X647700Y10051288D01*
G37*
G36*
X2057400Y9949992D02*
G01*
X2071522Y9950907D01*
X2085441Y9953701D01*
X2098852Y9958222D01*
X2111603Y9964521D01*
X2123389Y9972395D01*
X2134057Y9981742D01*
X2143404Y9992410D01*
X2151278Y10004196D01*
X2157526Y10016896D01*
X2162098Y10030307D01*
X2164842Y10044226D01*
X2165756Y10058400D01*
X2164842Y10072522D01*
X2162098Y10086441D01*
X2157526Y10099852D01*
X2151278Y10112552D01*
X2143404Y10124338D01*
X2134057Y10135006D01*
X2123389Y10144353D01*
X2111603Y10152227D01*
X2098852Y10158526D01*
X2085441Y10163048D01*
X2071522Y10165842D01*
X2057400Y10166756D01*
X2043226Y10165842D01*
X2029358Y10163048D01*
X2015896Y10158526D01*
X2003196Y10152227D01*
X1991410Y10144353D01*
X1980742Y10135006D01*
X1971395Y10124338D01*
X1963521Y10112552D01*
X1957273Y10099852D01*
X1952701Y10086441D01*
X1949957Y10072522D01*
X1948992Y10058400D01*
X1949957Y10044226D01*
X1952701Y10030307D01*
X1957273Y10016896D01*
X1963521Y10004196D01*
X1971395Y9992410D01*
X1980742Y9981742D01*
X1991410Y9972395D01*
X2003196Y9964521D01*
X2015896Y9958222D01*
X2029358Y9953701D01*
X2043226Y9950907D01*
G37*
G36*
X3429000Y9942931D02*
G01*
X3443122Y9943846D01*
X3457041Y9946589D01*
X3470452Y9951161D01*
X3483203Y9957409D01*
X3494989Y9965283D01*
X3505657Y9974630D01*
X3515004Y9985298D01*
X3522878Y9997084D01*
X3529126Y10009835D01*
X3533698Y10023246D01*
X3536442Y10037165D01*
X3537356Y10051288D01*
X3536442Y10065461D01*
X3533698Y10079329D01*
X3529126Y10092791D01*
X3522878Y10105491D01*
X3515004Y10117277D01*
X3505657Y10127945D01*
X3494989Y10137292D01*
X3483203Y10145166D01*
X3470452Y10151414D01*
X3457041Y10155986D01*
X3443122Y10158730D01*
X3429000Y10159695D01*
X3414826Y10158730D01*
X3400958Y10155986D01*
X3387496Y10151414D01*
X3374796Y10145166D01*
X3363010Y10137292D01*
X3352342Y10127945D01*
X3342995Y10117277D01*
X3335121Y10105491D01*
X3328873Y10092791D01*
X3324301Y10079329D01*
X3321558Y10065461D01*
X3320592Y10051288D01*
X3321558Y10037165D01*
X3324301Y10023246D01*
X3328873Y10009835D01*
X3335121Y9997084D01*
X3342995Y9985298D01*
X3352342Y9974630D01*
X3363010Y9965283D01*
X3374796Y9957409D01*
X3387496Y9951161D01*
X3400958Y9946589D01*
X3414826Y9943846D01*
G37*
G36*
X2069287Y4508500D02*
G01*
X2171700Y4508500D01*
X2171700Y4610760D01*
X2162657Y4609642D01*
X2148586Y4605985D01*
X2135073Y4600651D01*
X2122322Y4593640D01*
X2110536Y4585106D01*
X2099919Y4575098D01*
X2090623Y4563922D01*
X2082850Y4551629D01*
X2076653Y4538472D01*
X2072132Y4524603D01*
X2069439Y4510328D01*
G37*
G36*
X2197100Y4508500D02*
G01*
X2299462Y4508500D01*
X2299360Y4510328D01*
X2296617Y4524603D01*
X2292146Y4538472D01*
X2285949Y4551629D01*
X2278126Y4563922D01*
X2268880Y4575098D01*
X2258263Y4585106D01*
X2246477Y4593640D01*
X2233726Y4600651D01*
X2220214Y4605985D01*
X2206091Y4609642D01*
X2197100Y4610760D01*
G37*
G36*
X2323287Y4508500D02*
G01*
X2425700Y4508500D01*
X2425700Y4610760D01*
X2416657Y4609642D01*
X2402586Y4605985D01*
X2389073Y4600651D01*
X2376322Y4593640D01*
X2364536Y4585106D01*
X2353919Y4575098D01*
X2344623Y4563922D01*
X2336850Y4551629D01*
X2330653Y4538472D01*
X2326132Y4524603D01*
X2323439Y4510328D01*
G37*
G36*
X527456Y9776663D02*
G01*
X622300Y9776663D01*
X622300Y9871506D01*
X620877Y9871405D01*
X606958Y9868662D01*
X593547Y9864090D01*
X580796Y9857841D01*
X569010Y9849967D01*
X558342Y9840620D01*
X548995Y9829952D01*
X541121Y9818166D01*
X534873Y9805466D01*
X530301Y9792004D01*
X527558Y9778136D01*
G37*
G36*
X647700Y9776663D02*
G01*
X742543Y9776663D01*
X742442Y9778136D01*
X739698Y9792004D01*
X735126Y9805466D01*
X728878Y9818166D01*
X721004Y9829952D01*
X711657Y9840620D01*
X700989Y9849967D01*
X689203Y9857841D01*
X676452Y9864090D01*
X663041Y9868662D01*
X649122Y9871405D01*
X647700Y9871506D01*
G37*
G36*
X3321456Y9763963D02*
G01*
X3416300Y9763963D01*
X3416300Y9858806D01*
X3414826Y9858705D01*
X3400958Y9855962D01*
X3387496Y9851390D01*
X3374796Y9845141D01*
X3363010Y9837267D01*
X3352342Y9827920D01*
X3342995Y9817252D01*
X3335121Y9805466D01*
X3328873Y9792766D01*
X3324301Y9779304D01*
X3321558Y9765436D01*
G37*
G36*
X1415135Y4634128D02*
G01*
X1429664Y4634128D01*
X1444091Y4635957D01*
X1458214Y4639564D01*
X1471726Y4644948D01*
X1484477Y4651959D01*
X1496263Y4660493D01*
X1506880Y4670450D01*
X1516126Y4681677D01*
X1523949Y4693970D01*
X1530146Y4707128D01*
X1534617Y4720945D01*
X1537360Y4735271D01*
X1538274Y4749800D01*
X1537360Y4764328D01*
X1534617Y4778603D01*
X1530146Y4792472D01*
X1523949Y4805629D01*
X1516126Y4817922D01*
X1506880Y4829098D01*
X1496263Y4839106D01*
X1484477Y4847640D01*
X1471726Y4854651D01*
X1458214Y4859985D01*
X1444091Y4863642D01*
X1429664Y4865471D01*
X1415135Y4865471D01*
X1400657Y4863642D01*
X1386586Y4859985D01*
X1373073Y4854651D01*
X1360322Y4847640D01*
X1348536Y4839106D01*
X1337919Y4829098D01*
X1328623Y4817922D01*
X1320850Y4805629D01*
X1314653Y4792472D01*
X1310132Y4778603D01*
X1307439Y4764328D01*
X1306525Y4749800D01*
X1307439Y4735271D01*
X1310132Y4720945D01*
X1314653Y4707128D01*
X1320850Y4693970D01*
X1328623Y4681677D01*
X1337919Y4670450D01*
X1348536Y4660493D01*
X1360322Y4651959D01*
X1373073Y4644948D01*
X1386586Y4639564D01*
X1400657Y4635957D01*
G37*
G36*
X1923135Y4634128D02*
G01*
X1937664Y4634128D01*
X1952091Y4635957D01*
X1966214Y4639564D01*
X1979726Y4644948D01*
X1992477Y4651959D01*
X2004263Y4660493D01*
X2014880Y4670450D01*
X2024125Y4681677D01*
X2031949Y4693970D01*
X2038146Y4707128D01*
X2042617Y4720945D01*
X2045360Y4735271D01*
X2046274Y4749800D01*
X2045360Y4764328D01*
X2042617Y4778603D01*
X2038146Y4792472D01*
X2031949Y4805629D01*
X2024125Y4817922D01*
X2014880Y4829098D01*
X2004263Y4839106D01*
X1992477Y4847640D01*
X1979726Y4854651D01*
X1966214Y4859985D01*
X1952091Y4863642D01*
X1937664Y4865471D01*
X1923135Y4865471D01*
X1908657Y4863642D01*
X1894586Y4859985D01*
X1881073Y4854651D01*
X1868322Y4847640D01*
X1856536Y4839106D01*
X1845919Y4829098D01*
X1836623Y4817922D01*
X1828850Y4805629D01*
X1822653Y4792472D01*
X1818132Y4778603D01*
X1815439Y4764328D01*
X1814525Y4749800D01*
X1815439Y4735271D01*
X1818132Y4720945D01*
X1822653Y4707128D01*
X1828850Y4693970D01*
X1836623Y4681677D01*
X1845919Y4670450D01*
X1856536Y4660493D01*
X1868322Y4651959D01*
X1881073Y4644948D01*
X1894586Y4639564D01*
X1908657Y4635957D01*
G37*
G36*
X1161135Y4634128D02*
G01*
X1175664Y4634128D01*
X1190091Y4635957D01*
X1204214Y4639564D01*
X1217726Y4644948D01*
X1230477Y4651959D01*
X1242263Y4660493D01*
X1252880Y4670450D01*
X1262126Y4681677D01*
X1269949Y4693970D01*
X1276146Y4707128D01*
X1280617Y4720945D01*
X1283360Y4735271D01*
X1284274Y4749800D01*
X1283360Y4764328D01*
X1280617Y4778603D01*
X1276146Y4792472D01*
X1269949Y4805629D01*
X1262126Y4817922D01*
X1252880Y4829098D01*
X1242263Y4839106D01*
X1230477Y4847640D01*
X1217726Y4854651D01*
X1204214Y4859985D01*
X1190091Y4863642D01*
X1175664Y4865471D01*
X1161135Y4865471D01*
X1146657Y4863642D01*
X1132586Y4859985D01*
X1119073Y4854651D01*
X1106322Y4847640D01*
X1094536Y4839106D01*
X1083919Y4829098D01*
X1074623Y4817922D01*
X1066850Y4805629D01*
X1060653Y4792472D01*
X1056132Y4778603D01*
X1053439Y4764328D01*
X1052525Y4749800D01*
X1053439Y4735271D01*
X1056132Y4720945D01*
X1060653Y4707128D01*
X1066850Y4693970D01*
X1074623Y4681677D01*
X1083919Y4670450D01*
X1094536Y4660493D01*
X1106322Y4651959D01*
X1119073Y4644948D01*
X1132586Y4639564D01*
X1146657Y4635957D01*
G37*
G36*
X3441700Y9763963D02*
G01*
X3536543Y9763963D01*
X3536442Y9765436D01*
X3533698Y9779304D01*
X3529126Y9792766D01*
X3522878Y9805466D01*
X3515004Y9817252D01*
X3505657Y9827920D01*
X3494989Y9837267D01*
X3483203Y9845141D01*
X3470452Y9851390D01*
X3457041Y9855962D01*
X3443122Y9858705D01*
X3441700Y9858806D01*
G37*
G36*
X2171700Y4634839D02*
G01*
X2171700Y4737100D01*
X2069287Y4737100D01*
X2069439Y4735271D01*
X2072132Y4720945D01*
X2076653Y4707128D01*
X2082850Y4693970D01*
X2090623Y4681677D01*
X2099919Y4670450D01*
X2110536Y4660493D01*
X2122322Y4651959D01*
X2135073Y4644948D01*
X2148586Y4639564D01*
X2162657Y4635957D01*
G37*
G36*
X2197100Y4634839D02*
G01*
X2206091Y4635957D01*
X2220214Y4639564D01*
X2233726Y4644948D01*
X2246477Y4651959D01*
X2258263Y4660493D01*
X2268880Y4670450D01*
X2278126Y4681677D01*
X2285949Y4693970D01*
X2292146Y4707128D01*
X2296617Y4720945D01*
X2299360Y4735271D01*
X2299462Y4737100D01*
X2197100Y4737100D01*
G37*
G36*
X2425700Y4634839D02*
G01*
X2425700Y4737100D01*
X2323287Y4737100D01*
X2323439Y4735271D01*
X2326132Y4720945D01*
X2330653Y4707128D01*
X2336850Y4693970D01*
X2344623Y4681677D01*
X2353919Y4670450D01*
X2364536Y4660493D01*
X2376322Y4651959D01*
X2389073Y4644948D01*
X2402586Y4639564D01*
X2416657Y4635957D01*
G37*
G36*
X647700Y9656419D02*
G01*
X649122Y9656521D01*
X663041Y9659264D01*
X676452Y9663836D01*
X689203Y9670084D01*
X700989Y9677958D01*
X711657Y9687306D01*
X721004Y9697974D01*
X728878Y9709759D01*
X735126Y9722510D01*
X739698Y9735921D01*
X742442Y9749840D01*
X742543Y9751263D01*
X647700Y9751263D01*
G37*
G36*
X622300Y9656419D02*
G01*
X622300Y9751263D01*
X527456Y9751263D01*
X527558Y9749840D01*
X530301Y9735921D01*
X534873Y9722510D01*
X541121Y9709759D01*
X548995Y9697974D01*
X558342Y9687306D01*
X569010Y9677958D01*
X580796Y9670084D01*
X593547Y9663836D01*
X606958Y9659264D01*
X620877Y9656521D01*
G37*
G36*
X3441700Y9643719D02*
G01*
X3443122Y9643821D01*
X3457041Y9646564D01*
X3470452Y9651136D01*
X3483203Y9657384D01*
X3494989Y9665258D01*
X3505657Y9674606D01*
X3515004Y9685274D01*
X3522878Y9697059D01*
X3529126Y9709810D01*
X3533698Y9723221D01*
X3536442Y9737140D01*
X3536543Y9738563D01*
X3441700Y9738563D01*
G37*
G36*
X2197100Y4762500D02*
G01*
X2299462Y4762500D01*
X2299360Y4764328D01*
X2296617Y4778603D01*
X2292146Y4792472D01*
X2285949Y4805629D01*
X2278126Y4817922D01*
X2268880Y4829098D01*
X2258263Y4839106D01*
X2246477Y4847640D01*
X2233726Y4854651D01*
X2220214Y4859985D01*
X2206091Y4863642D01*
X2197100Y4864760D01*
G37*
G36*
X2323287Y4762500D02*
G01*
X2425700Y4762500D01*
X2425700Y4864760D01*
X2416657Y4863642D01*
X2402586Y4859985D01*
X2389073Y4854651D01*
X2376322Y4847640D01*
X2364536Y4839106D01*
X2353919Y4829098D01*
X2344623Y4817922D01*
X2336850Y4805629D01*
X2330653Y4792472D01*
X2326132Y4778603D01*
X2323439Y4764328D01*
G37*
G36*
X2069287Y4762500D02*
G01*
X2171700Y4762500D01*
X2171700Y4864760D01*
X2162657Y4863642D01*
X2148586Y4859985D01*
X2135073Y4854651D01*
X2122322Y4847640D01*
X2110536Y4839106D01*
X2099919Y4829098D01*
X2090623Y4817922D01*
X2082850Y4805629D01*
X2076653Y4792472D01*
X2072132Y4778603D01*
X2069439Y4764328D01*
G37*
G36*
X3416300Y9643719D02*
G01*
X3416300Y9738563D01*
X3321456Y9738563D01*
X3321558Y9737140D01*
X3324301Y9723221D01*
X3328873Y9709810D01*
X3335121Y9697059D01*
X3342995Y9685274D01*
X3352342Y9674606D01*
X3363010Y9665258D01*
X3374796Y9657384D01*
X3387496Y9651136D01*
X3400958Y9646564D01*
X3414826Y9643821D01*
G37*
G36*
X635000Y8519617D02*
G01*
X649122Y8520531D01*
X663041Y8523274D01*
X676452Y8527846D01*
X689203Y8534095D01*
X700989Y8542020D01*
X711657Y8551367D01*
X721004Y8561984D01*
X728878Y8573770D01*
X735126Y8586520D01*
X739698Y8599932D01*
X742442Y8613851D01*
X743407Y8627973D01*
X742442Y8642146D01*
X739698Y8656015D01*
X735126Y8669477D01*
X728878Y8682177D01*
X721004Y8693962D01*
X711657Y8704630D01*
X700989Y8713978D01*
X689203Y8721852D01*
X676452Y8728100D01*
X663041Y8732672D01*
X649122Y8735466D01*
X635000Y8736380D01*
X620877Y8735466D01*
X606958Y8732672D01*
X593547Y8728100D01*
X580796Y8721852D01*
X569010Y8713978D01*
X558342Y8704630D01*
X548995Y8693962D01*
X541121Y8682177D01*
X534873Y8669477D01*
X530301Y8656015D01*
X527558Y8642146D01*
X526592Y8627973D01*
X527558Y8613851D01*
X530301Y8599932D01*
X534873Y8586520D01*
X541121Y8573770D01*
X548995Y8561984D01*
X558342Y8551367D01*
X569010Y8542020D01*
X580796Y8534095D01*
X593547Y8527846D01*
X606958Y8523274D01*
X620877Y8520531D01*
G37*
G36*
X3429000Y8506917D02*
G01*
X3443122Y8507831D01*
X3457041Y8510574D01*
X3470452Y8515146D01*
X3483203Y8521395D01*
X3494989Y8529320D01*
X3505657Y8538667D01*
X3515004Y8549284D01*
X3522878Y8561070D01*
X3529126Y8573820D01*
X3533698Y8587232D01*
X3536442Y8601151D01*
X3537356Y8615273D01*
X3536442Y8629446D01*
X3533698Y8643315D01*
X3529126Y8656777D01*
X3522878Y8669477D01*
X3515004Y8681262D01*
X3505657Y8691930D01*
X3494989Y8701278D01*
X3483203Y8709152D01*
X3470452Y8715400D01*
X3457041Y8719972D01*
X3443122Y8722766D01*
X3429000Y8723680D01*
X3414826Y8722766D01*
X3400958Y8719972D01*
X3387496Y8715400D01*
X3374796Y8709152D01*
X3363010Y8701278D01*
X3352342Y8691930D01*
X3342995Y8681262D01*
X3335121Y8669477D01*
X3328873Y8656777D01*
X3324301Y8643315D01*
X3321558Y8629446D01*
X3320592Y8615273D01*
X3321558Y8601151D01*
X3324301Y8587232D01*
X3328873Y8573820D01*
X3335121Y8561070D01*
X3342995Y8549284D01*
X3352342Y8538667D01*
X3363010Y8529320D01*
X3374796Y8521395D01*
X3387496Y8515146D01*
X3400958Y8510574D01*
X3414826Y8507831D01*
G37*
G36*
X2037181Y8375954D02*
G01*
X2051354Y8376869D01*
X2065274Y8379663D01*
X2078685Y8384235D01*
X2091385Y8390483D01*
X2103170Y8398357D01*
X2113838Y8407704D01*
X2123186Y8418372D01*
X2131060Y8430158D01*
X2137359Y8442858D01*
X2141880Y8456269D01*
X2144674Y8470188D01*
X2145588Y8484362D01*
X2144674Y8498484D01*
X2141880Y8512403D01*
X2137359Y8525814D01*
X2131060Y8538514D01*
X2123186Y8550351D01*
X2113838Y8560968D01*
X2103170Y8570315D01*
X2091385Y8578189D01*
X2078685Y8584488D01*
X2065274Y8589060D01*
X2051354Y8591804D01*
X2037181Y8592718D01*
X2023059Y8591804D01*
X2009139Y8589060D01*
X1995728Y8584488D01*
X1983028Y8578189D01*
X1971243Y8570315D01*
X1960575Y8560968D01*
X1951228Y8550351D01*
X1943354Y8538514D01*
X1937054Y8525814D01*
X1932533Y8512403D01*
X1929739Y8498484D01*
X1928825Y8484362D01*
X1929739Y8470188D01*
X1932533Y8456269D01*
X1937054Y8442858D01*
X1943354Y8430158D01*
X1951228Y8418372D01*
X1960575Y8407704D01*
X1971243Y8398357D01*
X1983028Y8390483D01*
X1995728Y8384235D01*
X2009139Y8379663D01*
X2023059Y8376869D01*
G37*
G36*
X3111500Y4871262D02*
G01*
X3121304Y4872126D01*
X3130753Y4874666D01*
X3139694Y4878781D01*
X3147720Y4884420D01*
X3154680Y4891379D01*
X3160318Y4899406D01*
X3164433Y4908346D01*
X3166973Y4917795D01*
X3167837Y4927600D01*
X3166973Y4937404D01*
X3164433Y4946853D01*
X3163366Y4949190D01*
X3162401Y4953508D01*
X3162401Y6806692D01*
X3163366Y6811009D01*
X3164433Y6813346D01*
X3166973Y6822795D01*
X3167837Y6832600D01*
X3166973Y6842404D01*
X3164433Y6851853D01*
X3163366Y6854190D01*
X3162401Y6858508D01*
X3162401Y7162292D01*
X3163366Y7166609D01*
X3164433Y7168946D01*
X3166973Y7178395D01*
X3167837Y7188200D01*
X3166973Y7198004D01*
X3164433Y7207453D01*
X3163366Y7209790D01*
X3162401Y7214108D01*
X3162401Y9092692D01*
X3163366Y9097010D01*
X3164433Y9099346D01*
X3166973Y9108795D01*
X3167837Y9118600D01*
X3166973Y9128404D01*
X3164433Y9137853D01*
X3163366Y9140190D01*
X3162401Y9144508D01*
X3162401Y9448292D01*
X3163366Y9452610D01*
X3164433Y9454946D01*
X3166973Y9464395D01*
X3167837Y9474200D01*
X3166973Y9484004D01*
X3164433Y9493453D01*
X3163366Y9495790D01*
X3162401Y9500108D01*
X3162401Y11442496D01*
X3162198Y11447119D01*
X3161639Y11451539D01*
X3160674Y11455857D01*
X3159353Y11460124D01*
X3157626Y11464188D01*
X3155594Y11468150D01*
X3153206Y11471910D01*
X3150514Y11475415D01*
X3147364Y11478869D01*
X3096869Y11529364D01*
X3093415Y11532514D01*
X3089910Y11535206D01*
X3086150Y11537594D01*
X3082188Y11539626D01*
X3078124Y11541353D01*
X3073857Y11542674D01*
X3069539Y11543639D01*
X3065119Y11544198D01*
X3060496Y11544401D01*
X1765503Y11544401D01*
X1760880Y11544198D01*
X1756460Y11543639D01*
X1752142Y11542674D01*
X1747875Y11541353D01*
X1743811Y11539626D01*
X1739849Y11537594D01*
X1736089Y11535206D01*
X1732584Y11532514D01*
X1729130Y11529364D01*
X1691335Y11491569D01*
X1688185Y11488115D01*
X1685493Y11484610D01*
X1683105Y11480850D01*
X1681073Y11476888D01*
X1679346Y11472824D01*
X1678025Y11468557D01*
X1677060Y11464239D01*
X1676501Y11459819D01*
X1676298Y11455196D01*
X1676298Y11385804D01*
X1675282Y11381435D01*
X1672539Y11377930D01*
X1666544Y11373053D01*
X1657604Y11363502D01*
X1650085Y11352784D01*
X1644040Y11341201D01*
X1639671Y11328857D01*
X1636979Y11316055D01*
X1636115Y11303000D01*
X1636979Y11289944D01*
X1639671Y11277092D01*
X1644040Y11264798D01*
X1650085Y11253165D01*
X1657604Y11242446D01*
X1666544Y11232896D01*
X1676704Y11224666D01*
X1687880Y11217859D01*
X1699869Y11212626D01*
X1712468Y11209121D01*
X1725472Y11207292D01*
X1738528Y11207292D01*
X1751482Y11209121D01*
X1764080Y11212626D01*
X1776120Y11217859D01*
X1787296Y11224666D01*
X1797456Y11232896D01*
X1806397Y11242446D01*
X1813915Y11253165D01*
X1819960Y11264798D01*
X1822399Y11271758D01*
X1824583Y11275263D01*
X1827936Y11277650D01*
X1832000Y11278514D01*
X1836064Y11277650D01*
X1839417Y11275263D01*
X1841550Y11271758D01*
X1844039Y11264798D01*
X1850085Y11253165D01*
X1857603Y11242446D01*
X1866544Y11232896D01*
X1876704Y11224666D01*
X1887880Y11217859D01*
X1899869Y11212626D01*
X1912467Y11209121D01*
X1919274Y11208156D01*
X1919274Y11290300D01*
X1837893Y11290300D01*
X1833981Y11291062D01*
X1830730Y11293246D01*
X1828495Y11296548D01*
X1827733Y11300460D01*
X1827733Y11305540D01*
X1828495Y11309400D01*
X1830730Y11312702D01*
X1833981Y11314887D01*
X1837893Y11315700D01*
X1919274Y11315700D01*
X1919274Y11397792D01*
X1912467Y11396878D01*
X1899869Y11393322D01*
X1887880Y11388090D01*
X1876704Y11381333D01*
X1866544Y11373053D01*
X1857603Y11363502D01*
X1850085Y11352784D01*
X1844039Y11341201D01*
X1841550Y11334191D01*
X1839417Y11330686D01*
X1836064Y11328298D01*
X1832000Y11327434D01*
X1827936Y11328298D01*
X1824583Y11330686D01*
X1822399Y11334191D01*
X1819960Y11341201D01*
X1813915Y11352784D01*
X1806397Y11363502D01*
X1797456Y11373053D01*
X1787296Y11381333D01*
X1782978Y11383924D01*
X1780387Y11386210D01*
X1778711Y11389207D01*
X1778101Y11392611D01*
X1778101Y11430101D01*
X1778863Y11434013D01*
X1781098Y11437264D01*
X1783435Y11439601D01*
X1786686Y11441836D01*
X1790598Y11442598D01*
X3035401Y11442598D01*
X3039313Y11441836D01*
X3042564Y11439601D01*
X3057601Y11424564D01*
X3059836Y11421313D01*
X3060598Y11417401D01*
X3060598Y11081461D01*
X3059633Y11077143D01*
X3057550Y11074400D01*
X3059633Y11071656D01*
X3060598Y11067338D01*
X3060598Y9500108D01*
X3059633Y9495790D01*
X3058566Y9493453D01*
X3056026Y9484004D01*
X3055162Y9474200D01*
X3056026Y9464395D01*
X3058566Y9454946D01*
X3059633Y9452610D01*
X3060598Y9448292D01*
X3060598Y9144508D01*
X3059633Y9140190D01*
X3058566Y9137853D01*
X3056026Y9128404D01*
X3055162Y9118600D01*
X3056026Y9108795D01*
X3058566Y9099346D01*
X3059633Y9097010D01*
X3060598Y9092692D01*
X3060598Y7214108D01*
X3059633Y7209790D01*
X3058566Y7207453D01*
X3056026Y7198004D01*
X3055162Y7188200D01*
X3056026Y7178395D01*
X3058566Y7168946D01*
X3059633Y7166609D01*
X3060598Y7162292D01*
X3060598Y6858508D01*
X3059633Y6854190D01*
X3058566Y6851853D01*
X3056026Y6842404D01*
X3055162Y6832600D01*
X3056026Y6822795D01*
X3058566Y6813346D01*
X3059633Y6811009D01*
X3060598Y6806692D01*
X3060598Y4953508D01*
X3059633Y4949190D01*
X3058566Y4946853D01*
X3056026Y4937404D01*
X3055162Y4927600D01*
X3056026Y4917795D01*
X3058566Y4908346D01*
X3062681Y4899406D01*
X3068320Y4891379D01*
X3075279Y4884420D01*
X3083306Y4878781D01*
X3092246Y4874666D01*
X3101695Y4872126D01*
G37*
G36*
X1604670Y8362188D02*
G01*
X1699514Y8362188D01*
X1699514Y8457031D01*
X1698040Y8456930D01*
X1684172Y8454186D01*
X1670710Y8449614D01*
X1658010Y8443315D01*
X1646224Y8435441D01*
X1635556Y8426094D01*
X1626209Y8415477D01*
X1618335Y8403640D01*
X1612087Y8390940D01*
X1607515Y8377529D01*
X1604772Y8363610D01*
G37*
G36*
X3416300Y5071719D02*
G01*
X3416300Y5166563D01*
X3321456Y5166563D01*
X3321558Y5165140D01*
X3324301Y5151221D01*
X3328873Y5137810D01*
X3335121Y5125059D01*
X3342995Y5113274D01*
X3352342Y5102656D01*
X3363010Y5093309D01*
X3374796Y5085435D01*
X3387496Y5079136D01*
X3400958Y5074564D01*
X3414826Y5071821D01*
G37*
G36*
X3441700Y5071719D02*
G01*
X3443122Y5071821D01*
X3457041Y5074564D01*
X3470452Y5079136D01*
X3483203Y5085435D01*
X3494989Y5093309D01*
X3505657Y5102656D01*
X3515004Y5113274D01*
X3522878Y5125059D01*
X3529126Y5137810D01*
X3533698Y5151221D01*
X3536442Y5165140D01*
X3536543Y5166563D01*
X3441700Y5166563D01*
G37*
G36*
X622300Y5084419D02*
G01*
X622300Y5179263D01*
X527456Y5179263D01*
X527558Y5177840D01*
X530301Y5163921D01*
X534873Y5150510D01*
X541121Y5137759D01*
X548995Y5125974D01*
X558342Y5115356D01*
X569010Y5106009D01*
X580796Y5098135D01*
X593547Y5091836D01*
X606958Y5087264D01*
X620877Y5084521D01*
G37*
G36*
X647700Y5084419D02*
G01*
X649122Y5084521D01*
X663041Y5087264D01*
X676452Y5091836D01*
X689203Y5098135D01*
X700989Y5106009D01*
X711657Y5115356D01*
X721004Y5125974D01*
X728878Y5137759D01*
X735126Y5150510D01*
X739698Y5163921D01*
X742442Y5177840D01*
X742543Y5179263D01*
X647700Y5179263D01*
G37*
G36*
X1724914Y8362188D02*
G01*
X1819757Y8362188D01*
X1819656Y8363610D01*
X1816912Y8377529D01*
X1812340Y8390940D01*
X1806092Y8403640D01*
X1798218Y8415477D01*
X1788871Y8426094D01*
X1778203Y8435441D01*
X1766417Y8443315D01*
X1753666Y8449614D01*
X1740255Y8454186D01*
X1726336Y8456930D01*
X1724914Y8457031D01*
G37*
G36*
X1724914Y8240115D02*
G01*
X1725726Y8241030D01*
X1729587Y8242655D01*
X1740255Y8244789D01*
X1753666Y8249361D01*
X1766417Y8255609D01*
X1778203Y8263483D01*
X1788871Y8272830D01*
X1798218Y8283498D01*
X1806092Y8295284D01*
X1812340Y8307984D01*
X1816912Y8321395D01*
X1819656Y8335314D01*
X1819757Y8336788D01*
X1724914Y8336788D01*
G37*
G36*
X3321456Y5191963D02*
G01*
X3416300Y5191963D01*
X3416300Y5286806D01*
X3414826Y5286756D01*
X3400958Y5283962D01*
X3387496Y5279390D01*
X3374796Y5273141D01*
X3363010Y5265267D01*
X3352342Y5255920D01*
X3342995Y5245252D01*
X3335121Y5233466D01*
X3328873Y5220766D01*
X3324301Y5207304D01*
X3321558Y5193436D01*
G37*
G36*
X3441700Y5191963D02*
G01*
X3536543Y5191963D01*
X3536442Y5193436D01*
X3533698Y5207304D01*
X3529126Y5220766D01*
X3522878Y5233466D01*
X3515004Y5245252D01*
X3505657Y5255920D01*
X3494989Y5265267D01*
X3483203Y5273141D01*
X3470452Y5279390D01*
X3457041Y5283962D01*
X3443122Y5286756D01*
X3441700Y5286806D01*
G37*
G36*
X527456Y5204663D02*
G01*
X622300Y5204663D01*
X622300Y5299506D01*
X620877Y5299456D01*
X606958Y5296662D01*
X593547Y5292090D01*
X580796Y5285841D01*
X569010Y5277967D01*
X558342Y5268620D01*
X548995Y5257952D01*
X541121Y5246166D01*
X534873Y5233466D01*
X530301Y5220004D01*
X527558Y5206136D01*
G37*
G36*
X647700Y5204663D02*
G01*
X742543Y5204663D01*
X742442Y5206136D01*
X739698Y5220004D01*
X735126Y5233466D01*
X728878Y5246166D01*
X721004Y5257952D01*
X711657Y5268620D01*
X700989Y5277967D01*
X689203Y5285841D01*
X676452Y5292090D01*
X663041Y5296662D01*
X649122Y5299456D01*
X647700Y5299506D01*
G37*
G36*
X1689100Y8140700D02*
G01*
X1783943Y8140700D01*
X1783842Y8142122D01*
X1781098Y8156041D01*
X1776526Y8169452D01*
X1770278Y8182152D01*
X1762404Y8193989D01*
X1753057Y8204606D01*
X1742389Y8213953D01*
X1730603Y8221827D01*
X1727098Y8223605D01*
X1723643Y8226450D01*
X1721916Y8223910D01*
X1718614Y8221675D01*
X1714754Y8220913D01*
X1709674Y8220913D01*
X1705762Y8221675D01*
X1702460Y8223910D01*
X1700275Y8227161D01*
X1699514Y8231073D01*
X1699514Y8336788D01*
X1604670Y8336788D01*
X1604772Y8335314D01*
X1607515Y8321395D01*
X1612087Y8307984D01*
X1618335Y8295284D01*
X1626209Y8283498D01*
X1635556Y8272830D01*
X1646224Y8263483D01*
X1658010Y8255609D01*
X1661515Y8253882D01*
X1664970Y8251037D01*
X1666646Y8253577D01*
X1669948Y8255762D01*
X1673860Y8256524D01*
X1678939Y8256524D01*
X1682800Y8255762D01*
X1686102Y8253577D01*
X1688338Y8250275D01*
X1689100Y8246364D01*
G37*
G36*
X1568856Y8140700D02*
G01*
X1663700Y8140700D01*
X1663700Y8237321D01*
X1662836Y8236458D01*
X1659026Y8234781D01*
X1648358Y8232698D01*
X1634896Y8228126D01*
X1622196Y8221827D01*
X1610410Y8213953D01*
X1599742Y8204606D01*
X1590395Y8193989D01*
X1582521Y8182152D01*
X1576273Y8169452D01*
X1571701Y8156041D01*
X1568958Y8142122D01*
G37*
G36*
X3429000Y5370931D02*
G01*
X3443122Y5371846D01*
X3457041Y5374589D01*
X3470452Y5379161D01*
X3483203Y5385460D01*
X3494989Y5393334D01*
X3505657Y5402681D01*
X3515004Y5413298D01*
X3522878Y5425084D01*
X3529126Y5437835D01*
X3533698Y5451246D01*
X3536442Y5465165D01*
X3537356Y5479288D01*
X3536442Y5493461D01*
X3533698Y5507329D01*
X3529126Y5520791D01*
X3522878Y5533491D01*
X3515004Y5545277D01*
X3505657Y5555945D01*
X3494989Y5565292D01*
X3483203Y5573166D01*
X3470452Y5579414D01*
X3457041Y5583986D01*
X3443122Y5586780D01*
X3429000Y5587695D01*
X3414826Y5586780D01*
X3400958Y5583986D01*
X3387496Y5579414D01*
X3374796Y5573166D01*
X3363010Y5565292D01*
X3352342Y5555945D01*
X3342995Y5545277D01*
X3335121Y5533491D01*
X3328873Y5520791D01*
X3324301Y5507329D01*
X3321558Y5493461D01*
X3320592Y5479288D01*
X3321558Y5465165D01*
X3324301Y5451246D01*
X3328873Y5437835D01*
X3335121Y5425084D01*
X3342995Y5413298D01*
X3352342Y5402681D01*
X3363010Y5393334D01*
X3374796Y5385460D01*
X3387496Y5379161D01*
X3400958Y5374589D01*
X3414826Y5371846D01*
G37*
G36*
X2057400Y5377992D02*
G01*
X2071522Y5378907D01*
X2085441Y5381701D01*
X2098852Y5386273D01*
X2111603Y5392521D01*
X2123389Y5400395D01*
X2134057Y5409742D01*
X2143404Y5420410D01*
X2151278Y5432196D01*
X2157526Y5444896D01*
X2162098Y5458358D01*
X2164842Y5472226D01*
X2165756Y5486400D01*
X2164842Y5500522D01*
X2162098Y5514441D01*
X2157526Y5527852D01*
X2151278Y5540603D01*
X2143404Y5552389D01*
X2134057Y5563006D01*
X2123389Y5572353D01*
X2111603Y5580278D01*
X2098852Y5586526D01*
X2085441Y5591098D01*
X2071522Y5593842D01*
X2057400Y5594756D01*
X2043226Y5593842D01*
X2029358Y5591098D01*
X2015896Y5586526D01*
X2003196Y5580278D01*
X1991410Y5572353D01*
X1980742Y5563006D01*
X1971395Y5552389D01*
X1963521Y5540603D01*
X1957273Y5527852D01*
X1952701Y5514441D01*
X1949957Y5500522D01*
X1948992Y5486400D01*
X1949957Y5472226D01*
X1952701Y5458358D01*
X1957273Y5444896D01*
X1963521Y5432196D01*
X1971395Y5420410D01*
X1980742Y5409742D01*
X1991410Y5400395D01*
X2003196Y5392521D01*
X2015896Y5386273D01*
X2029358Y5381701D01*
X2043226Y5378907D01*
G37*
G36*
X647700Y5384444D02*
G01*
X649122Y5384546D01*
X663041Y5387289D01*
X676452Y5391861D01*
X689203Y5398160D01*
X700989Y5406034D01*
X711657Y5415381D01*
X721004Y5425998D01*
X728878Y5437784D01*
X735126Y5450535D01*
X739698Y5463946D01*
X742442Y5477865D01*
X742543Y5479288D01*
X647700Y5479288D01*
G37*
G36*
X622300Y5384444D02*
G01*
X622300Y5479288D01*
X527456Y5479288D01*
X527558Y5477865D01*
X530301Y5463946D01*
X534873Y5450535D01*
X541121Y5437784D01*
X548995Y5425998D01*
X558342Y5415381D01*
X569010Y5406034D01*
X580796Y5398160D01*
X593547Y5391861D01*
X606958Y5387289D01*
X620877Y5384546D01*
G37*
G36*
X3860800Y979017D02*
G01*
X3875989Y979932D01*
X3890924Y982675D01*
X3905453Y987196D01*
X3919321Y993444D01*
X3932326Y1001318D01*
X3944264Y1010666D01*
X3955034Y1021435D01*
X3964381Y1033373D01*
X3972255Y1046378D01*
X3978503Y1060246D01*
X3983024Y1074775D01*
X3985768Y1089710D01*
X3986682Y1104900D01*
X3985768Y1120089D01*
X3983024Y1135024D01*
X3978503Y1149553D01*
X3972255Y1163421D01*
X3964381Y1176426D01*
X3955034Y1188364D01*
X3944264Y1199134D01*
X3932326Y1208481D01*
X3919321Y1216355D01*
X3905453Y1222603D01*
X3890924Y1227124D01*
X3875989Y1229868D01*
X3860800Y1230782D01*
X3845610Y1229868D01*
X3830675Y1227124D01*
X3816146Y1222603D01*
X3802278Y1216355D01*
X3789273Y1208481D01*
X3777335Y1199134D01*
X3766565Y1188364D01*
X3757218Y1176426D01*
X3749344Y1163421D01*
X3743096Y1149553D01*
X3738575Y1135024D01*
X3735832Y1120089D01*
X3734917Y1104900D01*
X3735832Y1089710D01*
X3738575Y1074775D01*
X3743096Y1060246D01*
X3749344Y1046378D01*
X3757218Y1033373D01*
X3766565Y1021435D01*
X3777335Y1010666D01*
X3789273Y1001318D01*
X3802278Y993444D01*
X3816146Y987196D01*
X3830675Y982675D01*
X3845610Y979932D01*
G37*
G36*
X647700Y5504688D02*
G01*
X742543Y5504688D01*
X742442Y5506161D01*
X739698Y5520029D01*
X735126Y5533491D01*
X728878Y5546191D01*
X721004Y5557977D01*
X711657Y5568645D01*
X700989Y5577992D01*
X689203Y5585866D01*
X676452Y5592114D01*
X663041Y5596686D01*
X649122Y5599480D01*
X647700Y5599531D01*
G37*
G36*
X2362200Y5504992D02*
G01*
X2376322Y5505907D01*
X2390241Y5508701D01*
X2403652Y5513273D01*
X2416403Y5519521D01*
X2428189Y5527395D01*
X2438857Y5536742D01*
X2448204Y5547410D01*
X2456078Y5559196D01*
X2462326Y5571896D01*
X2466898Y5585358D01*
X2469642Y5599226D01*
X2470556Y5613400D01*
X2469642Y5627522D01*
X2466898Y5641441D01*
X2462326Y5654852D01*
X2456078Y5667603D01*
X2448204Y5679389D01*
X2438857Y5690006D01*
X2428189Y5699353D01*
X2416403Y5707278D01*
X2407361Y5711698D01*
X2403906Y5714441D01*
X2403094Y5716117D01*
X2400300Y5715406D01*
X2396540Y5715965D01*
X2391460Y5717692D01*
X2387854Y5719826D01*
X2385415Y5723229D01*
X2384552Y5727293D01*
X2384552Y5825744D01*
X2289708Y5825744D01*
X2289810Y5824270D01*
X2292553Y5810402D01*
X2297125Y5796940D01*
X2303373Y5784240D01*
X2311247Y5772454D01*
X2320594Y5761786D01*
X2331262Y5752439D01*
X2343048Y5744565D01*
X2352090Y5740095D01*
X2355545Y5737352D01*
X2357475Y5733440D01*
X2357577Y5729020D01*
X2355799Y5725007D01*
X2352497Y5722112D01*
X2348026Y5720842D01*
X2334158Y5718098D01*
X2320696Y5713526D01*
X2307996Y5707278D01*
X2296210Y5699353D01*
X2285542Y5690006D01*
X2276195Y5679389D01*
X2268321Y5667603D01*
X2262073Y5654852D01*
X2257501Y5641441D01*
X2254758Y5627522D01*
X2253792Y5613400D01*
X2254758Y5599226D01*
X2257501Y5585358D01*
X2262073Y5571896D01*
X2268321Y5559196D01*
X2276195Y5547410D01*
X2285542Y5536742D01*
X2296210Y5527395D01*
X2307996Y5519521D01*
X2320696Y5513273D01*
X2334158Y5508701D01*
X2348026Y5505907D01*
G37*
G36*
X1712214Y5504992D02*
G01*
X1726336Y5505907D01*
X1740255Y5508701D01*
X1753666Y5513273D01*
X1766417Y5519521D01*
X1778203Y5527395D01*
X1788871Y5536742D01*
X1798218Y5547410D01*
X1806092Y5559196D01*
X1812340Y5571896D01*
X1816912Y5585358D01*
X1819656Y5599226D01*
X1820570Y5613400D01*
X1819656Y5627522D01*
X1816912Y5641441D01*
X1812340Y5654852D01*
X1806092Y5667603D01*
X1798218Y5679389D01*
X1788871Y5690006D01*
X1778203Y5699353D01*
X1766417Y5707278D01*
X1753666Y5713526D01*
X1740255Y5718098D01*
X1726336Y5720842D01*
X1718360Y5721350D01*
X1714500Y5722416D01*
X1711350Y5724804D01*
X1709369Y5728258D01*
X1708861Y5732170D01*
X1709877Y5735980D01*
X1712315Y5739130D01*
X1715719Y5741111D01*
X1717852Y5741873D01*
X1730603Y5748121D01*
X1742389Y5755995D01*
X1753057Y5765342D01*
X1762404Y5776010D01*
X1770278Y5787796D01*
X1776526Y5800496D01*
X1781098Y5813958D01*
X1783842Y5827826D01*
X1783943Y5829300D01*
X1689100Y5829300D01*
X1689100Y5727039D01*
X1688236Y5722924D01*
X1685798Y5719572D01*
X1682191Y5717438D01*
X1677111Y5715711D01*
X1674825Y5715355D01*
X1670710Y5713526D01*
X1658010Y5707278D01*
X1646224Y5699353D01*
X1635556Y5690006D01*
X1626209Y5679389D01*
X1618335Y5667603D01*
X1613458Y5657697D01*
X1611223Y5654700D01*
X1608023Y5652719D01*
X1604365Y5652008D01*
X1467408Y5652008D01*
X1463497Y5652770D01*
X1460195Y5655005D01*
X1458620Y5656580D01*
X1450594Y5662218D01*
X1441653Y5666333D01*
X1432204Y5668873D01*
X1422400Y5669737D01*
X1412595Y5668873D01*
X1403146Y5666333D01*
X1394206Y5662218D01*
X1386179Y5656580D01*
X1379220Y5649620D01*
X1373581Y5641594D01*
X1369466Y5632653D01*
X1366926Y5623204D01*
X1366062Y5613400D01*
X1366926Y5603595D01*
X1369466Y5594146D01*
X1373581Y5585206D01*
X1379220Y5577179D01*
X1386179Y5570220D01*
X1394206Y5564581D01*
X1403146Y5560466D01*
X1412595Y5557926D01*
X1422400Y5557062D01*
X1432204Y5557926D01*
X1441653Y5560466D01*
X1450594Y5564581D01*
X1458620Y5570220D01*
X1460195Y5571794D01*
X1463497Y5574030D01*
X1467408Y5574792D01*
X1604314Y5574792D01*
X1608023Y5574080D01*
X1611223Y5572099D01*
X1613458Y5569102D01*
X1618335Y5559196D01*
X1626209Y5547410D01*
X1635556Y5536742D01*
X1646224Y5527395D01*
X1658010Y5519521D01*
X1670710Y5513273D01*
X1684172Y5508701D01*
X1698040Y5505907D01*
G37*
G36*
X2289708Y8137144D02*
G01*
X2384552Y8137144D01*
X2384552Y8235543D01*
X2385415Y8239658D01*
X2387854Y8243062D01*
X2391460Y8245195D01*
X2396540Y8246922D01*
X2400300Y8247430D01*
X2403094Y8246770D01*
X2403906Y8248396D01*
X2407361Y8251139D01*
X2416403Y8255609D01*
X2428189Y8263483D01*
X2438857Y8272830D01*
X2448204Y8283498D01*
X2456078Y8295284D01*
X2462326Y8307984D01*
X2466898Y8321395D01*
X2469642Y8335314D01*
X2470556Y8349488D01*
X2469642Y8363610D01*
X2466898Y8377529D01*
X2462326Y8390940D01*
X2456078Y8403640D01*
X2448204Y8415477D01*
X2438857Y8426094D01*
X2428189Y8435441D01*
X2416403Y8443315D01*
X2403652Y8449614D01*
X2390241Y8454186D01*
X2376322Y8456930D01*
X2362200Y8457844D01*
X2348026Y8456930D01*
X2334158Y8454186D01*
X2320696Y8449614D01*
X2307996Y8443315D01*
X2296210Y8435441D01*
X2285542Y8426094D01*
X2276195Y8415477D01*
X2268321Y8403640D01*
X2262073Y8390940D01*
X2257501Y8377529D01*
X2254758Y8363610D01*
X2253792Y8349488D01*
X2254758Y8335314D01*
X2257501Y8321395D01*
X2262073Y8307984D01*
X2268321Y8295284D01*
X2276195Y8283498D01*
X2285542Y8272830D01*
X2296210Y8263483D01*
X2307996Y8255609D01*
X2320696Y8249361D01*
X2334158Y8244789D01*
X2348280Y8241995D01*
X2352497Y8240775D01*
X2355799Y8237880D01*
X2357577Y8233867D01*
X2357475Y8229447D01*
X2355545Y8225485D01*
X2352090Y8222742D01*
X2343048Y8218271D01*
X2331262Y8210397D01*
X2320594Y8201050D01*
X2311247Y8190433D01*
X2303373Y8178596D01*
X2297125Y8165896D01*
X2292553Y8152485D01*
X2289810Y8138566D01*
G37*
G36*
X2409952Y8137144D02*
G01*
X2504795Y8137144D01*
X2504694Y8138566D01*
X2501950Y8152485D01*
X2497378Y8165896D01*
X2491130Y8178596D01*
X2483256Y8190433D01*
X2473909Y8201050D01*
X2463241Y8210397D01*
X2451455Y8218271D01*
X2438704Y8224570D01*
X2425293Y8229142D01*
X2409952Y8232241D01*
G37*
G36*
X3433521Y5653430D02*
G01*
X3451606Y5654852D01*
X3469386Y5658104D01*
X3486810Y5663133D01*
X3503574Y5669991D01*
X3519525Y5678474D01*
X3534562Y5688584D01*
X3548481Y5700166D01*
X3561130Y5713171D01*
X3572357Y5727344D01*
X3582060Y5742635D01*
X3590188Y5758840D01*
X3596538Y5775807D01*
X3601161Y5793282D01*
X3603955Y5811164D01*
X3604869Y5829249D01*
X3603955Y5847384D01*
X3601161Y5865266D01*
X3596538Y5882741D01*
X3590188Y5899708D01*
X3582060Y5915914D01*
X3572357Y5931204D01*
X3561130Y5945378D01*
X3548481Y5958382D01*
X3534562Y5969965D01*
X3519525Y5980074D01*
X3503574Y5988558D01*
X3486810Y5995416D01*
X3469386Y6000445D01*
X3451606Y6003696D01*
X3433521Y6005118D01*
X3415436Y6004661D01*
X3397453Y6002324D01*
X3379825Y5998159D01*
X3362756Y5992215D01*
X3346348Y5984544D01*
X3330803Y5975197D01*
X3316325Y5964326D01*
X3303015Y5952032D01*
X3291078Y5938418D01*
X3280562Y5923686D01*
X3271672Y5907938D01*
X3264408Y5891326D01*
X3258921Y5874054D01*
X3255213Y5856325D01*
X3253333Y5838342D01*
X3253333Y5820206D01*
X3255213Y5802223D01*
X3258921Y5784494D01*
X3264408Y5767222D01*
X3271672Y5750610D01*
X3280562Y5734862D01*
X3291078Y5720130D01*
X3303015Y5706516D01*
X3316325Y5694222D01*
X3330803Y5683351D01*
X3346348Y5674004D01*
X3362756Y5666333D01*
X3379825Y5660390D01*
X3397453Y5656224D01*
X3415436Y5653887D01*
G37*
G36*
X639521Y5666130D02*
G01*
X657606Y5667552D01*
X675386Y5670804D01*
X692810Y5675833D01*
X709574Y5682691D01*
X725525Y5691174D01*
X740562Y5701284D01*
X754481Y5712866D01*
X767130Y5725871D01*
X778357Y5740044D01*
X788060Y5755335D01*
X796188Y5771540D01*
X802538Y5788507D01*
X807161Y5805982D01*
X809955Y5823864D01*
X810869Y5841949D01*
X809955Y5860084D01*
X807161Y5877966D01*
X802538Y5895441D01*
X796188Y5912408D01*
X788060Y5928614D01*
X778357Y5943904D01*
X767130Y5958078D01*
X754481Y5971082D01*
X740562Y5982665D01*
X725525Y5992774D01*
X709574Y6001258D01*
X692810Y6008116D01*
X675386Y6013145D01*
X657606Y6016396D01*
X639521Y6017818D01*
X621436Y6017361D01*
X603453Y6015024D01*
X585825Y6010859D01*
X568756Y6004915D01*
X552348Y5997244D01*
X536803Y5987897D01*
X522325Y5977026D01*
X509016Y5964732D01*
X497078Y5951118D01*
X486562Y5936386D01*
X477672Y5920638D01*
X470408Y5904026D01*
X464921Y5886754D01*
X461213Y5869025D01*
X459333Y5851042D01*
X459333Y5832906D01*
X461213Y5814923D01*
X464921Y5797194D01*
X470408Y5779922D01*
X477672Y5763310D01*
X486562Y5747562D01*
X497078Y5732830D01*
X509016Y5719216D01*
X522325Y5706922D01*
X536803Y5696051D01*
X552348Y5686704D01*
X568756Y5679033D01*
X585825Y5673090D01*
X603453Y5668924D01*
X621436Y5666587D01*
G37*
G36*
X1663700Y8020456D02*
G01*
X1663700Y8115300D01*
X1568856Y8115300D01*
X1568958Y8113826D01*
X1571701Y8099907D01*
X1576273Y8086496D01*
X1582521Y8073796D01*
X1590395Y8062010D01*
X1599742Y8051342D01*
X1610410Y8041995D01*
X1622196Y8034121D01*
X1634896Y8027873D01*
X1648358Y8023301D01*
X1662226Y8020507D01*
G37*
G36*
X2409952Y5730595D02*
G01*
X2425293Y5733745D01*
X2438704Y5738317D01*
X2451455Y5744565D01*
X2463241Y5752439D01*
X2473909Y5761786D01*
X2483256Y5772454D01*
X2491130Y5784240D01*
X2497378Y5796940D01*
X2501950Y5810402D01*
X2504694Y5824270D01*
X2504795Y5825744D01*
X2409952Y5825744D01*
G37*
G36*
X1663700Y5734456D02*
G01*
X1663700Y5829300D01*
X1568856Y5829300D01*
X1568958Y5827826D01*
X1571701Y5813958D01*
X1576273Y5800496D01*
X1582521Y5787796D01*
X1590395Y5776010D01*
X1599742Y5765342D01*
X1610410Y5755995D01*
X1622196Y5748121D01*
X1634896Y5741873D01*
X1648358Y5737301D01*
X1662226Y5734507D01*
G37*
G36*
X2409952Y5851144D02*
G01*
X2504795Y5851144D01*
X2504694Y5852566D01*
X2501950Y5866485D01*
X2497378Y5879896D01*
X2491130Y5892647D01*
X2483256Y5904433D01*
X2473909Y5915050D01*
X2463241Y5924397D01*
X2451455Y5932322D01*
X2438704Y5938570D01*
X2425293Y5943142D01*
X2409952Y5946241D01*
G37*
G36*
X2289708Y5851144D02*
G01*
X2384552Y5851144D01*
X2384552Y5949594D01*
X2385415Y5953658D01*
X2387854Y5957062D01*
X2391460Y5959195D01*
X2396540Y5960922D01*
X2400300Y5961430D01*
X2403094Y5960770D01*
X2403906Y5962396D01*
X2407361Y5965139D01*
X2416403Y5969609D01*
X2428189Y5977483D01*
X2438857Y5986830D01*
X2448204Y5997498D01*
X2456078Y6009284D01*
X2462326Y6021984D01*
X2466898Y6035446D01*
X2469642Y6049314D01*
X2470556Y6063488D01*
X2469642Y6077610D01*
X2466898Y6091529D01*
X2462326Y6104940D01*
X2456078Y6117691D01*
X2448204Y6129477D01*
X2438857Y6140094D01*
X2428189Y6149441D01*
X2416403Y6157366D01*
X2403652Y6163614D01*
X2390241Y6168186D01*
X2376322Y6170930D01*
X2362200Y6171844D01*
X2348026Y6170930D01*
X2334158Y6168186D01*
X2320696Y6163614D01*
X2307996Y6157366D01*
X2296210Y6149441D01*
X2285542Y6140094D01*
X2276195Y6129477D01*
X2268321Y6117691D01*
X2262073Y6104940D01*
X2257501Y6091529D01*
X2254758Y6077610D01*
X2253792Y6063488D01*
X2254758Y6049314D01*
X2257501Y6035446D01*
X2262073Y6021984D01*
X2268321Y6009284D01*
X2276195Y5997498D01*
X2285542Y5986830D01*
X2296210Y5977483D01*
X2307996Y5969609D01*
X2320696Y5963361D01*
X2334158Y5958789D01*
X2348280Y5955995D01*
X2352497Y5954776D01*
X2355799Y5951880D01*
X2357577Y5947867D01*
X2357475Y5943447D01*
X2355545Y5939485D01*
X2352090Y5936742D01*
X2343048Y5932322D01*
X2331262Y5924397D01*
X2320594Y5915050D01*
X2311247Y5904433D01*
X2303373Y5892647D01*
X2297125Y5879896D01*
X2292553Y5866485D01*
X2289810Y5852566D01*
G37*
G36*
X1568856Y5854700D02*
G01*
X1663700Y5854700D01*
X1663700Y5951321D01*
X1662836Y5950458D01*
X1659026Y5948781D01*
X1648358Y5946698D01*
X1634896Y5942126D01*
X1622196Y5935878D01*
X1610410Y5927953D01*
X1599742Y5918606D01*
X1590395Y5907989D01*
X1582521Y5896203D01*
X1576273Y5883452D01*
X1571701Y5870041D01*
X1568958Y5856122D01*
G37*
G36*
X1689100Y5854700D02*
G01*
X1783943Y5854700D01*
X1783842Y5856122D01*
X1781098Y5870041D01*
X1776526Y5883452D01*
X1770278Y5896203D01*
X1762404Y5907989D01*
X1753057Y5918606D01*
X1742389Y5927953D01*
X1730603Y5935878D01*
X1727098Y5937605D01*
X1723643Y5940450D01*
X1721916Y5937910D01*
X1718614Y5935675D01*
X1714754Y5934913D01*
X1709674Y5934913D01*
X1705762Y5935675D01*
X1702460Y5937910D01*
X1700275Y5941212D01*
X1699514Y5945073D01*
X1699514Y6050788D01*
X1604670Y6050788D01*
X1604772Y6049314D01*
X1607515Y6035446D01*
X1612087Y6021984D01*
X1618335Y6009284D01*
X1626209Y5997498D01*
X1635556Y5986830D01*
X1646224Y5977483D01*
X1658010Y5969609D01*
X1661515Y5967882D01*
X1664970Y5965037D01*
X1666646Y5967577D01*
X1669948Y5969762D01*
X1673860Y5970574D01*
X1678939Y5970574D01*
X1682800Y5969762D01*
X1686102Y5967577D01*
X1688338Y5964275D01*
X1689100Y5960414D01*
G37*
G36*
X2409952Y8016595D02*
G01*
X2425293Y8019745D01*
X2438704Y8024317D01*
X2451455Y8030565D01*
X2463241Y8038439D01*
X2473909Y8047786D01*
X2483256Y8058454D01*
X2491130Y8070240D01*
X2497378Y8082940D01*
X2501950Y8096351D01*
X2504694Y8110270D01*
X2504795Y8111744D01*
X2409952Y8111744D01*
G37*
G36*
X1724914Y5954115D02*
G01*
X1725726Y5955030D01*
X1729587Y5956655D01*
X1740255Y5958789D01*
X1753666Y5963361D01*
X1766417Y5969609D01*
X1778203Y5977483D01*
X1788871Y5986830D01*
X1798218Y5997498D01*
X1806092Y6009284D01*
X1812340Y6021984D01*
X1816912Y6035446D01*
X1819656Y6049314D01*
X1819757Y6050788D01*
X1724914Y6050788D01*
G37*
G36*
X639521Y7952130D02*
G01*
X657606Y7953552D01*
X675386Y7956803D01*
X692810Y7961833D01*
X709574Y7968691D01*
X725525Y7977174D01*
X740562Y7987284D01*
X754481Y7998866D01*
X767130Y8011871D01*
X778357Y8026044D01*
X788060Y8041335D01*
X796188Y8057540D01*
X802538Y8074507D01*
X807161Y8091982D01*
X809955Y8109864D01*
X810869Y8127949D01*
X809955Y8146084D01*
X807161Y8163966D01*
X802538Y8181441D01*
X796188Y8198408D01*
X788060Y8214614D01*
X778357Y8229904D01*
X767130Y8244078D01*
X754481Y8257082D01*
X740562Y8268665D01*
X725525Y8278774D01*
X709574Y8287258D01*
X692810Y8294116D01*
X675386Y8299145D01*
X657606Y8302396D01*
X639521Y8303818D01*
X621436Y8303361D01*
X603453Y8301024D01*
X585825Y8296859D01*
X568756Y8290915D01*
X552348Y8283244D01*
X536803Y8273897D01*
X522325Y8263026D01*
X509016Y8250732D01*
X497078Y8237118D01*
X486562Y8222386D01*
X477672Y8206638D01*
X470408Y8190026D01*
X464921Y8172754D01*
X461213Y8155025D01*
X459333Y8137042D01*
X459333Y8118906D01*
X461213Y8100923D01*
X464921Y8083194D01*
X470408Y8065922D01*
X477672Y8049310D01*
X486562Y8033562D01*
X497078Y8018830D01*
X509016Y8005216D01*
X522325Y7992922D01*
X536803Y7982051D01*
X552348Y7972704D01*
X568756Y7965033D01*
X585825Y7959090D01*
X603453Y7954924D01*
X621436Y7952587D01*
G37*
G36*
X3433521Y7939430D02*
G01*
X3451606Y7940852D01*
X3469386Y7944103D01*
X3486810Y7949133D01*
X3503574Y7955991D01*
X3519525Y7964474D01*
X3534562Y7974584D01*
X3548481Y7986166D01*
X3561130Y7999171D01*
X3572357Y8013344D01*
X3582060Y8028635D01*
X3590188Y8044840D01*
X3596538Y8061807D01*
X3601161Y8079282D01*
X3603955Y8097164D01*
X3604869Y8115249D01*
X3603955Y8133384D01*
X3601161Y8151266D01*
X3596538Y8168741D01*
X3590188Y8185708D01*
X3582060Y8201914D01*
X3572357Y8217204D01*
X3561130Y8231378D01*
X3548481Y8244382D01*
X3534562Y8255965D01*
X3519525Y8266074D01*
X3503574Y8274558D01*
X3486810Y8281416D01*
X3469386Y8286445D01*
X3451606Y8289696D01*
X3433521Y8291118D01*
X3415436Y8290661D01*
X3397453Y8288324D01*
X3379825Y8284159D01*
X3362756Y8278215D01*
X3346348Y8270544D01*
X3330803Y8261197D01*
X3316325Y8250326D01*
X3303015Y8238032D01*
X3291078Y8224418D01*
X3280562Y8209686D01*
X3271672Y8193938D01*
X3264408Y8177326D01*
X3258921Y8160054D01*
X3255213Y8142325D01*
X3253333Y8124342D01*
X3253333Y8106206D01*
X3255213Y8088223D01*
X3258921Y8070494D01*
X3264408Y8053222D01*
X3271672Y8036610D01*
X3280562Y8020862D01*
X3291078Y8006130D01*
X3303015Y7992516D01*
X3316325Y7980222D01*
X3330803Y7969351D01*
X3346348Y7960004D01*
X3362756Y7952333D01*
X3379825Y7946390D01*
X3397453Y7942224D01*
X3415436Y7939887D01*
G37*
G36*
X1604670Y6076188D02*
G01*
X1699514Y6076188D01*
X1699514Y6171031D01*
X1698040Y6170930D01*
X1684172Y6168186D01*
X1670710Y6163614D01*
X1658010Y6157366D01*
X1646224Y6149441D01*
X1635556Y6140094D01*
X1626209Y6129477D01*
X1618335Y6117691D01*
X1612087Y6104940D01*
X1607515Y6091529D01*
X1604772Y6077610D01*
G37*
G36*
X1724914Y6076188D02*
G01*
X1819757Y6076188D01*
X1819656Y6077610D01*
X1816912Y6091529D01*
X1812340Y6104940D01*
X1806092Y6117691D01*
X1798218Y6129477D01*
X1788871Y6140094D01*
X1778203Y6149441D01*
X1766417Y6157366D01*
X1753666Y6163614D01*
X1740255Y6168186D01*
X1726336Y6170930D01*
X1724914Y6171031D01*
G37*
G36*
X2037181Y6089954D02*
G01*
X2051354Y6090869D01*
X2065274Y6093663D01*
X2078685Y6098235D01*
X2091385Y6104483D01*
X2103170Y6112357D01*
X2113838Y6121704D01*
X2123186Y6132372D01*
X2131060Y6144158D01*
X2137359Y6156858D01*
X2141880Y6170320D01*
X2144674Y6184188D01*
X2145588Y6198362D01*
X2144674Y6212484D01*
X2141880Y6226403D01*
X2137359Y6239814D01*
X2131060Y6252565D01*
X2123186Y6264351D01*
X2113838Y6274968D01*
X2103170Y6284315D01*
X2091385Y6292240D01*
X2078685Y6298488D01*
X2065274Y6303060D01*
X2051354Y6305804D01*
X2037181Y6306718D01*
X2023059Y6305804D01*
X2009139Y6303060D01*
X1995728Y6298488D01*
X1983028Y6292240D01*
X1971243Y6284315D01*
X1960575Y6274968D01*
X1951228Y6264351D01*
X1943354Y6252565D01*
X1937054Y6239814D01*
X1932533Y6226403D01*
X1929739Y6212484D01*
X1928825Y6198362D01*
X1929739Y6184188D01*
X1932533Y6170320D01*
X1937054Y6156858D01*
X1943354Y6144158D01*
X1951228Y6132372D01*
X1960575Y6121704D01*
X1971243Y6112357D01*
X1983028Y6104483D01*
X1995728Y6098235D01*
X2009139Y6093663D01*
X2023059Y6090869D01*
G37*
G36*
X3429000Y6220917D02*
G01*
X3443122Y6221831D01*
X3457041Y6224574D01*
X3470452Y6229146D01*
X3483203Y6235446D01*
X3494989Y6243320D01*
X3505657Y6252667D01*
X3515004Y6263284D01*
X3522878Y6275070D01*
X3529126Y6287820D01*
X3533698Y6301232D01*
X3536442Y6315151D01*
X3537356Y6329273D01*
X3536442Y6343446D01*
X3533698Y6357315D01*
X3529126Y6370777D01*
X3522878Y6383477D01*
X3515004Y6395262D01*
X3505657Y6405930D01*
X3494989Y6415278D01*
X3483203Y6423152D01*
X3470452Y6429400D01*
X3457041Y6433972D01*
X3443122Y6436766D01*
X3429000Y6437680D01*
X3414826Y6436766D01*
X3400958Y6433972D01*
X3390493Y6430416D01*
X3386785Y6429908D01*
X3383127Y6430772D01*
X3380028Y6432854D01*
X3304641Y6508292D01*
X3302406Y6511594D01*
X3301644Y6515455D01*
X3301644Y7143191D01*
X3302406Y7147102D01*
X3304641Y7150404D01*
X3306216Y7151979D01*
X3311855Y7160006D01*
X3315970Y7168946D01*
X3318510Y7178395D01*
X3319373Y7188200D01*
X3318510Y7198004D01*
X3315970Y7207453D01*
X3311855Y7216394D01*
X3306216Y7224420D01*
X3299256Y7231380D01*
X3291230Y7237018D01*
X3282289Y7241133D01*
X3272840Y7243673D01*
X3263036Y7244537D01*
X3253232Y7243673D01*
X3243783Y7241133D01*
X3234842Y7237018D01*
X3226816Y7231380D01*
X3219856Y7224420D01*
X3214217Y7216394D01*
X3210102Y7207453D01*
X3207562Y7198004D01*
X3206699Y7188200D01*
X3207562Y7178395D01*
X3210102Y7168946D01*
X3214217Y7160006D01*
X3219856Y7151979D01*
X3221431Y7150404D01*
X3223666Y7147102D01*
X3224428Y7143191D01*
X3224428Y6495745D01*
X3225241Y6487718D01*
X3227425Y6480505D01*
X3230981Y6473850D01*
X3236112Y6467602D01*
X3325418Y6378295D01*
X3327552Y6375196D01*
X3328365Y6371539D01*
X3327857Y6367830D01*
X3324301Y6357315D01*
X3321558Y6343446D01*
X3320592Y6329273D01*
X3321558Y6315151D01*
X3324301Y6301232D01*
X3328873Y6287820D01*
X3335121Y6275070D01*
X3342995Y6263284D01*
X3352342Y6252667D01*
X3363010Y6243320D01*
X3374796Y6235446D01*
X3387496Y6229146D01*
X3400958Y6224574D01*
X3414826Y6221831D01*
G37*
G36*
X635000Y6233617D02*
G01*
X649122Y6234531D01*
X663041Y6237274D01*
X676452Y6241846D01*
X689203Y6248146D01*
X700989Y6256020D01*
X711657Y6265367D01*
X721004Y6275984D01*
X728878Y6287770D01*
X735126Y6300520D01*
X739698Y6313932D01*
X742442Y6327851D01*
X743407Y6341973D01*
X742442Y6356146D01*
X739698Y6370015D01*
X735126Y6383477D01*
X728878Y6396177D01*
X721004Y6407962D01*
X711657Y6418630D01*
X700989Y6427978D01*
X689203Y6435852D01*
X676452Y6442100D01*
X663041Y6446672D01*
X649122Y6449466D01*
X635000Y6450380D01*
X620877Y6449466D01*
X606958Y6446672D01*
X593547Y6442100D01*
X580796Y6435852D01*
X569010Y6427978D01*
X558342Y6418630D01*
X548995Y6407962D01*
X541121Y6396177D01*
X534873Y6383477D01*
X530301Y6370015D01*
X527558Y6356146D01*
X526592Y6341973D01*
X527558Y6327851D01*
X530301Y6313932D01*
X534873Y6300520D01*
X541121Y6287770D01*
X548995Y6275984D01*
X558342Y6265367D01*
X569010Y6256020D01*
X580796Y6248146D01*
X593547Y6241846D01*
X606958Y6237274D01*
X620877Y6234531D01*
G37*
G36*
X1712214Y7790992D02*
G01*
X1726336Y7791907D01*
X1740255Y7794701D01*
X1753666Y7799273D01*
X1766417Y7805521D01*
X1778203Y7813395D01*
X1788871Y7822742D01*
X1798218Y7833410D01*
X1806092Y7845196D01*
X1812340Y7857896D01*
X1816912Y7871307D01*
X1819656Y7885226D01*
X1820570Y7899400D01*
X1819656Y7913522D01*
X1816912Y7927441D01*
X1812340Y7940852D01*
X1806092Y7953552D01*
X1798218Y7965389D01*
X1788871Y7976006D01*
X1778203Y7985353D01*
X1766417Y7993227D01*
X1753666Y7999526D01*
X1740255Y8004098D01*
X1726336Y8006842D01*
X1718360Y8007350D01*
X1714500Y8008416D01*
X1711350Y8010804D01*
X1709369Y8014258D01*
X1708861Y8018170D01*
X1709877Y8021980D01*
X1712315Y8025130D01*
X1715719Y8027111D01*
X1717852Y8027873D01*
X1730603Y8034121D01*
X1742389Y8041995D01*
X1753057Y8051342D01*
X1762404Y8062010D01*
X1770278Y8073796D01*
X1776526Y8086496D01*
X1781098Y8099907D01*
X1783842Y8113826D01*
X1783943Y8115300D01*
X1689100Y8115300D01*
X1689100Y8013039D01*
X1688236Y8008924D01*
X1685798Y8005521D01*
X1682191Y8003387D01*
X1677111Y8001711D01*
X1674825Y8001355D01*
X1670710Y7999526D01*
X1658010Y7993227D01*
X1646224Y7985353D01*
X1635556Y7976006D01*
X1626209Y7965389D01*
X1618335Y7953552D01*
X1613458Y7943697D01*
X1611223Y7940700D01*
X1608023Y7938719D01*
X1604365Y7938008D01*
X1403908Y7938008D01*
X1399997Y7938770D01*
X1396695Y7941005D01*
X1395120Y7942580D01*
X1387094Y7948218D01*
X1378153Y7952333D01*
X1368704Y7954873D01*
X1358900Y7955737D01*
X1349095Y7954873D01*
X1339646Y7952333D01*
X1330706Y7948218D01*
X1322679Y7942580D01*
X1315720Y7935620D01*
X1310081Y7927594D01*
X1305966Y7918653D01*
X1303426Y7909204D01*
X1302562Y7899400D01*
X1303426Y7889595D01*
X1305966Y7880146D01*
X1310081Y7871206D01*
X1315720Y7863179D01*
X1322679Y7856220D01*
X1330706Y7850581D01*
X1339646Y7846466D01*
X1349095Y7843926D01*
X1358900Y7843062D01*
X1368704Y7843926D01*
X1378153Y7846466D01*
X1387094Y7850581D01*
X1395120Y7856220D01*
X1396695Y7857794D01*
X1399997Y7860030D01*
X1403908Y7860792D01*
X1604314Y7860792D01*
X1608023Y7860080D01*
X1611172Y7858099D01*
X1613458Y7855102D01*
X1618335Y7845196D01*
X1626209Y7833410D01*
X1635556Y7822742D01*
X1646224Y7813395D01*
X1658010Y7805521D01*
X1670710Y7799273D01*
X1684172Y7794701D01*
X1698040Y7791907D01*
G37*
G36*
X2362200Y7790992D02*
G01*
X2376322Y7791907D01*
X2390241Y7794701D01*
X2403652Y7799273D01*
X2416403Y7805521D01*
X2428189Y7813395D01*
X2438857Y7822742D01*
X2448204Y7833410D01*
X2456078Y7845196D01*
X2462326Y7857896D01*
X2466898Y7871307D01*
X2469642Y7885226D01*
X2470556Y7899400D01*
X2469642Y7913522D01*
X2466898Y7927441D01*
X2462326Y7940852D01*
X2456078Y7953552D01*
X2448204Y7965389D01*
X2438857Y7976006D01*
X2428189Y7985353D01*
X2416403Y7993227D01*
X2407361Y7997698D01*
X2403906Y8000441D01*
X2403094Y8002117D01*
X2400300Y8001406D01*
X2396540Y8001965D01*
X2391460Y8003692D01*
X2387854Y8005825D01*
X2385415Y8009178D01*
X2384552Y8013293D01*
X2384552Y8111744D01*
X2289708Y8111744D01*
X2289810Y8110270D01*
X2292553Y8096351D01*
X2297125Y8082940D01*
X2303373Y8070240D01*
X2311247Y8058454D01*
X2320594Y8047786D01*
X2331262Y8038439D01*
X2343048Y8030565D01*
X2352090Y8026095D01*
X2355545Y8023352D01*
X2357475Y8019389D01*
X2357577Y8015020D01*
X2355799Y8011007D01*
X2352497Y8008112D01*
X2348026Y8006842D01*
X2334158Y8004098D01*
X2320696Y7999526D01*
X2307996Y7993227D01*
X2296210Y7985353D01*
X2285542Y7976006D01*
X2276195Y7965389D01*
X2268321Y7953552D01*
X2262073Y7940852D01*
X2257501Y7927441D01*
X2254758Y7913522D01*
X2253792Y7899400D01*
X2254758Y7885226D01*
X2257501Y7871307D01*
X2262073Y7857896D01*
X2268321Y7845196D01*
X2276195Y7833410D01*
X2285542Y7822742D01*
X2296210Y7813395D01*
X2307996Y7805521D01*
X2320696Y7799273D01*
X2334158Y7794701D01*
X2348026Y7791907D01*
G37*
G36*
X647700Y7790688D02*
G01*
X742543Y7790688D01*
X742442Y7792161D01*
X739698Y7806029D01*
X735126Y7819491D01*
X728878Y7832191D01*
X721004Y7843977D01*
X711657Y7854645D01*
X700989Y7863992D01*
X689203Y7871866D01*
X676452Y7878114D01*
X663041Y7882686D01*
X649122Y7885480D01*
X647700Y7885531D01*
G37*
G36*
X3416300Y7357719D02*
G01*
X3416300Y7452563D01*
X3321456Y7452563D01*
X3321558Y7451140D01*
X3324301Y7437221D01*
X3328873Y7423810D01*
X3335121Y7411059D01*
X3342995Y7399274D01*
X3352342Y7388656D01*
X3363010Y7379309D01*
X3374796Y7371384D01*
X3387496Y7365136D01*
X3400958Y7360564D01*
X3414826Y7357821D01*
G37*
G36*
X3441700Y7357719D02*
G01*
X3443122Y7357821D01*
X3457041Y7360564D01*
X3470452Y7365136D01*
X3483203Y7371384D01*
X3494989Y7379309D01*
X3505657Y7388656D01*
X3515004Y7399274D01*
X3522878Y7411059D01*
X3529126Y7423810D01*
X3533698Y7437221D01*
X3536442Y7451140D01*
X3536543Y7452563D01*
X3441700Y7452563D01*
G37*
G36*
X622300Y7370419D02*
G01*
X622300Y7465263D01*
X527456Y7465263D01*
X527558Y7463840D01*
X530301Y7449921D01*
X534873Y7436510D01*
X541121Y7423759D01*
X548995Y7411974D01*
X558342Y7401356D01*
X569010Y7392009D01*
X580796Y7384084D01*
X593547Y7377836D01*
X606958Y7373264D01*
X620877Y7370521D01*
G37*
G36*
X647700Y7370419D02*
G01*
X649122Y7370521D01*
X663041Y7373264D01*
X676452Y7377836D01*
X689203Y7384084D01*
X700989Y7392009D01*
X711657Y7401356D01*
X721004Y7411974D01*
X728878Y7423759D01*
X735126Y7436510D01*
X739698Y7449921D01*
X742442Y7463840D01*
X742543Y7465263D01*
X647700Y7465263D01*
G37*
G36*
X3441700Y7477963D02*
G01*
X3536543Y7477963D01*
X3536442Y7479436D01*
X3533698Y7493304D01*
X3529126Y7506766D01*
X3522878Y7519466D01*
X3515004Y7531252D01*
X3505657Y7541920D01*
X3494989Y7551267D01*
X3483203Y7559141D01*
X3470452Y7565390D01*
X3457041Y7569962D01*
X3443122Y7572756D01*
X3441700Y7572806D01*
G37*
G36*
X3321456Y7477963D02*
G01*
X3416300Y7477963D01*
X3416300Y7572806D01*
X3414826Y7572756D01*
X3400958Y7569962D01*
X3387496Y7565390D01*
X3374796Y7559141D01*
X3363010Y7551267D01*
X3352342Y7541920D01*
X3342995Y7531252D01*
X3335121Y7519466D01*
X3328873Y7506766D01*
X3324301Y7493304D01*
X3321558Y7479436D01*
G37*
G36*
X527456Y7490663D02*
G01*
X622300Y7490663D01*
X622300Y7585506D01*
X620877Y7585456D01*
X606958Y7582662D01*
X593547Y7578090D01*
X580796Y7571841D01*
X569010Y7563967D01*
X558342Y7554620D01*
X548995Y7543952D01*
X541121Y7532166D01*
X534873Y7519466D01*
X530301Y7506004D01*
X527558Y7492136D01*
G37*
G36*
X647700Y7490663D02*
G01*
X742543Y7490663D01*
X742442Y7492136D01*
X739698Y7506004D01*
X735126Y7519466D01*
X728878Y7532166D01*
X721004Y7543952D01*
X711657Y7554620D01*
X700989Y7563967D01*
X689203Y7571841D01*
X676452Y7578090D01*
X663041Y7582662D01*
X649122Y7585456D01*
X647700Y7585506D01*
G37*
G36*
X3429000Y7656931D02*
G01*
X3443122Y7657846D01*
X3457041Y7660589D01*
X3470452Y7665161D01*
X3483203Y7671409D01*
X3494989Y7679334D01*
X3505657Y7688681D01*
X3515004Y7699298D01*
X3522878Y7711084D01*
X3529126Y7723835D01*
X3533698Y7737246D01*
X3536442Y7751165D01*
X3537356Y7765288D01*
X3536442Y7779461D01*
X3533698Y7793329D01*
X3529126Y7806791D01*
X3522878Y7819491D01*
X3515004Y7831277D01*
X3505657Y7841945D01*
X3494989Y7851292D01*
X3483203Y7859166D01*
X3470452Y7865414D01*
X3457041Y7869986D01*
X3443122Y7872780D01*
X3429000Y7873695D01*
X3414826Y7872780D01*
X3400958Y7869986D01*
X3387496Y7865414D01*
X3374796Y7859166D01*
X3363010Y7851292D01*
X3352342Y7841945D01*
X3342995Y7831277D01*
X3335121Y7819491D01*
X3328873Y7806791D01*
X3324301Y7793329D01*
X3321558Y7779461D01*
X3320592Y7765288D01*
X3321558Y7751165D01*
X3324301Y7737246D01*
X3328873Y7723835D01*
X3335121Y7711084D01*
X3342995Y7699298D01*
X3352342Y7688681D01*
X3363010Y7679334D01*
X3374796Y7671409D01*
X3387496Y7665161D01*
X3400958Y7660589D01*
X3414826Y7657846D01*
G37*
G36*
X2057400Y7663992D02*
G01*
X2071522Y7664907D01*
X2085441Y7667701D01*
X2098852Y7672273D01*
X2111603Y7678521D01*
X2123389Y7686395D01*
X2134057Y7695742D01*
X2143404Y7706410D01*
X2151278Y7718196D01*
X2157526Y7730896D01*
X2162098Y7744307D01*
X2164842Y7758226D01*
X2165756Y7772400D01*
X2164842Y7786522D01*
X2162098Y7800441D01*
X2157526Y7813852D01*
X2151278Y7826552D01*
X2143404Y7838389D01*
X2134057Y7849006D01*
X2123389Y7858353D01*
X2111603Y7866227D01*
X2098852Y7872526D01*
X2085441Y7877098D01*
X2071522Y7879842D01*
X2057400Y7880756D01*
X2043226Y7879842D01*
X2029358Y7877098D01*
X2015896Y7872526D01*
X2003196Y7866227D01*
X1991410Y7858353D01*
X1980742Y7849006D01*
X1971395Y7838389D01*
X1963521Y7826552D01*
X1957273Y7813852D01*
X1952701Y7800441D01*
X1949957Y7786522D01*
X1948992Y7772400D01*
X1949957Y7758226D01*
X1952701Y7744307D01*
X1957273Y7730896D01*
X1963521Y7718196D01*
X1971395Y7706410D01*
X1980742Y7695742D01*
X1991410Y7686395D01*
X2003196Y7678521D01*
X2015896Y7672273D01*
X2029358Y7667701D01*
X2043226Y7664907D01*
G37*
G36*
X647700Y7670444D02*
G01*
X649122Y7670546D01*
X663041Y7673289D01*
X676452Y7677861D01*
X689203Y7684109D01*
X700989Y7692034D01*
X711657Y7701381D01*
X721004Y7711998D01*
X728878Y7723784D01*
X735126Y7736535D01*
X739698Y7749946D01*
X742442Y7763865D01*
X742543Y7765288D01*
X647700Y7765288D01*
G37*
G36*
X622300Y7670444D02*
G01*
X622300Y7765288D01*
X527456Y7765288D01*
X527558Y7763865D01*
X530301Y7749946D01*
X534873Y7736535D01*
X541121Y7723784D01*
X548995Y7711998D01*
X558342Y7701381D01*
X569010Y7692034D01*
X580796Y7684109D01*
X593547Y7677861D01*
X606958Y7673289D01*
X620877Y7670546D01*
G37*
G36*
X527456Y7790688D02*
G01*
X622300Y7790688D01*
X622300Y7885531D01*
X620877Y7885480D01*
X606958Y7882686D01*
X593547Y7878114D01*
X580796Y7871866D01*
X569010Y7863992D01*
X558342Y7854645D01*
X548995Y7843977D01*
X541121Y7832191D01*
X534873Y7819491D01*
X530301Y7806029D01*
X527558Y7792161D01*
G37*
G36*
X527456Y5504688D02*
G01*
X622300Y5504688D01*
X622300Y5599531D01*
X620877Y5599480D01*
X606958Y5596686D01*
X593547Y5592114D01*
X580796Y5585866D01*
X569010Y5577992D01*
X558342Y5568645D01*
X548995Y5557977D01*
X541121Y5546191D01*
X534873Y5533491D01*
X530301Y5520029D01*
X527558Y5506161D01*
G37*

%LPD*%
D10*
X2971800Y3416300D02*
G01*
X2971800Y2857500D01*
X2933700Y2819400D01*
X863600Y2819400D01*
X2132075Y11303000D02*
G01*
X2132075Y11114024D01*
X2171700Y11074400D01*
X2984500Y11074400D01*
X1524000Y3048000D02*
G01*
X2527300Y3048000D01*
X2565400Y3086100D01*
X2565400Y3416300D01*
X127000Y2794000D02*
G01*
X127000Y2133600D01*
X177800Y2082800D01*
X2743200Y2082800D01*
X2794000Y2133600D01*
X2794000Y2692400D01*
X215900Y2794000D02*
G01*
X215900Y2197100D01*
X266700Y2146300D01*
X2489200Y2146300D01*
X2540000Y2197100D01*
X2540000Y2692400D01*
X393700Y2794000D02*
G01*
X393700Y2324100D01*
X444500Y2273300D01*
X1981200Y2273300D01*
X2032000Y2324100D01*
X2032000Y2692400D01*
X304800Y2794000D02*
G01*
X304800Y2260600D01*
X355600Y2209800D01*
X2235200Y2209800D01*
X2286000Y2260600D01*
X2286000Y2692400D01*
X2565400Y5029200D02*
G01*
X2565400Y3416300D01*
D11*
X863600Y5118100D02*
G01*
X2660401Y5118100D01*
X2698501Y5156200D01*
X1016000Y4229100D02*
G01*
X1676400Y4229100D01*
D10*
X2819400Y5293149D02*
G01*
X2819400Y3416300D01*
D11*
X1676400Y4495800D02*
G01*
X1676400Y4749800D01*
X1676400Y4229100D02*
G01*
X1676400Y4495800D01*
X1676400Y4927600D02*
G01*
X1676400Y4749800D01*
X3111500Y6832600D02*
G01*
X3111500Y5461000D01*
X3111500Y4927600D01*
X2698495Y5156200D02*
G01*
X2698495Y7200900D01*
X2698495Y7835900D02*
G01*
X2698495Y7200900D01*
X317500Y7200900D01*
X317500Y9486900D02*
G01*
X317500Y9131300D01*
X317500Y7200900D02*
G01*
X317500Y6845300D01*
X317500Y9131300D02*
G01*
X317500Y7200900D01*
X3111500Y7188200D02*
G01*
X3111500Y7873154D01*
X3111500Y7873154D02*
G01*
X3111500Y9118600D01*
X3111500Y9474200D02*
G01*
X3111500Y11442700D01*
X3060700Y11493500D01*
X1765300Y11493500D01*
X1727200Y11455400D01*
X1727200Y11307800D01*
X1732000Y11303000D01*
X3111500Y9474200D02*
G01*
X3111500Y9118600D01*
X3111500Y7188200D02*
G01*
X3111500Y6832600D01*
D10*
X3263036Y7188200D02*
G01*
X3263036Y6495262D01*
X3429000Y6329298D01*
X2183531Y4089400D02*
G01*
X1295400Y4089400D01*
X1485900Y5219700D02*
G01*
X1612900Y5219700D01*
X1358900Y7899400D02*
G01*
X1712193Y7899400D01*
X1422400Y5613400D02*
G01*
X1712193Y5613400D01*
X1270000Y2921000D02*
G01*
X2781300Y2921000D01*
X2819400Y2959100D01*
X2819400Y3416300D01*
X2654300Y3149600D02*
G01*
X2565400Y3149600D01*
D12*
G01*
X2946394Y4495789D03*
D13*
G01*
X2946400Y4749800D03*
G01*
X2692400Y4495800D03*
G01*
X2692400Y4749800D03*
G01*
X2438400Y4495800D03*
G01*
X2438400Y4749800D03*
G01*
X2184400Y4495800D03*
G01*
X2184400Y4749800D03*
G01*
X1930400Y4495800D03*
G01*
X1930400Y4749800D03*
G01*
X1676400Y4495800D03*
G01*
X1676400Y4749800D03*
G01*
X1422400Y4495800D03*
G01*
X1422400Y4749800D03*
G01*
X1168400Y4495800D03*
G01*
X1168400Y4749800D03*
D14*
G01*
X2362200Y10185374D03*
G01*
X1712188Y10185374D03*
G01*
X2362200Y10635386D03*
G01*
X1712188Y10635386D03*
G01*
X2037206Y10770362D03*
G01*
X2397201Y10410367D03*
G01*
X2057400Y10058374D03*
G01*
X1676400Y10413974D03*
G01*
X2362200Y7899374D03*
G01*
X1712188Y7899374D03*
G01*
X2362200Y8349386D03*
G01*
X1712188Y8349386D03*
G01*
X2037206Y8484362D03*
G01*
X2397201Y8124367D03*
G01*
X2057400Y7772374D03*
G01*
X1676400Y8127974D03*
G01*
X2362200Y5613400D03*
G01*
X1712188Y5613400D03*
G01*
X2362200Y6063411D03*
G01*
X1712188Y6063411D03*
G01*
X2037206Y6198387D03*
G01*
X2397201Y5838393D03*
G01*
X2057400Y5486400D03*
G01*
X1676400Y5842000D03*
G01*
X2362200Y3327400D03*
G01*
X1712188Y3327400D03*
G01*
X2362200Y3777411D03*
G01*
X1712188Y3777411D03*
G01*
X2037206Y3912387D03*
G01*
X2397201Y3552393D03*
G01*
X2057400Y3200400D03*
G01*
X1676400Y3556000D03*
G01*
X635000Y10913973D03*
G01*
X635000Y10063987D03*
G01*
X635000Y9763963D03*
G01*
X635000Y8627973D03*
G01*
X635000Y7777987D03*
G01*
X635000Y7477963D03*
G01*
X635000Y6341973D03*
G01*
X635000Y5491987D03*
G01*
X635000Y5191963D03*
G01*
X635000Y4055998D03*
G01*
X635000Y3206013D03*
G01*
X635000Y2905988D03*
G01*
X3429000Y10901273D03*
G01*
X3429000Y10051287D03*
G01*
X3429000Y9751263D03*
G01*
X3429000Y8615273D03*
G01*
X3429000Y7765287D03*
G01*
X3429000Y7465263D03*
G01*
X3429000Y6329273D03*
G01*
X3429000Y5479287D03*
G01*
X3429000Y5179263D03*
G01*
X3429000Y4043298D03*
G01*
X3429000Y3193313D03*
G01*
X3429000Y2893288D03*
D15*
G01*
X1732000Y11302974D03*
G01*
X1932000Y11302974D03*
G01*
X2131999Y11302974D03*
D16*
G01*
X2331999Y11302974D03*
D17*
G01*
X317500Y9131300D03*
G01*
X317500Y9486900D03*
G01*
X317500Y7200900D03*
G01*
X317500Y6845300D03*
G01*
X1422400Y5613400D03*
G01*
X1358900Y7899400D03*
G01*
X1485900Y5219700D03*
G01*
X1612900Y5219700D03*
G01*
X2183536Y4089400D03*
G01*
X1295400Y4089400D03*
G01*
X3111500Y9474200D03*
G01*
X3111500Y9118600D03*
G01*
X3111500Y6832600D03*
G01*
X3111500Y7188200D03*
G01*
X3263036Y7188200D03*
G01*
X2698597Y7835900D03*
G01*
X1016000Y4229100D03*
G01*
X1676400Y4229100D03*
G01*
X863600Y5118100D03*
G01*
X3111500Y4927600D03*
G01*
X1676400Y4927600D03*
G01*
X2819400Y5293156D03*
G01*
X1295400Y3949700D03*
G01*
X1358900Y8051800D03*
G01*
X127000Y2794000D03*
G01*
X215900Y2794000D03*
G01*
X304800Y2794000D03*
G01*
X393700Y2794000D03*
G01*
X2794000Y2692400D03*
G01*
X2540000Y2692400D03*
G01*
X2286000Y2692400D03*
G01*
X2032000Y2692400D03*
G01*
X2565400Y5029200D03*
G01*
X1524000Y3048000D03*
G01*
X1270000Y2921000D03*
G01*
X2362200Y5295900D03*
G01*
X2959100Y5181600D03*
G01*
X2984500Y11074400D03*
G01*
X2819400Y3149600D03*
G01*
X2654300Y3149600D03*
G01*
X2971800Y3416300D03*
G01*
X863600Y2819400D03*
G01*
X889000Y2692400D03*
G01*
X1143000Y2692400D03*
G01*
X1397000Y2692400D03*
G01*
X1651000Y2692400D03*
M02*
