G04 Layer: BottomLayer*
G04 EasyEDA v6.5.29, 2023-07-18 11:26:45*
G04 93ed5b14ed274c0ea8102e9f6fabb942,5a6b42c53f6a479593ecc07194224c93,10*
G04 Gerber Generator version 0.2*
G04 Scale: 100 percent, Rotated: No, Reflected: No *
G04 Dimensions in millimeters *
G04 leading zeros omitted , absolute positions ,4 integer and 5 decimal *
%FSLAX45Y45*%
%MOMM*%

%ADD10C,0.2540*%
%ADD11O,6.4000126X3.1999936*%
%ADD12O,8.339988400000001X2.5599898*%

%LPD*%
G36*
X36068Y698500D02*
G01*
X32156Y699262D01*
X28905Y701497D01*
X26670Y704748D01*
X25908Y708660D01*
X25908Y4345940D01*
X26670Y4349851D01*
X28905Y4353102D01*
X32156Y4355338D01*
X36068Y4356100D01*
X32156Y4356862D01*
X28905Y4359097D01*
X26670Y4362348D01*
X25908Y4366260D01*
X25908Y6631940D01*
X26670Y6635851D01*
X28905Y6639102D01*
X32156Y6641338D01*
X36068Y6642100D01*
X32156Y6642862D01*
X28905Y6645097D01*
X26670Y6648348D01*
X25908Y6652259D01*
X25908Y8917940D01*
X26670Y8921851D01*
X28905Y8925102D01*
X32156Y8927338D01*
X36068Y8928100D01*
X32156Y8928862D01*
X28905Y8931097D01*
X26670Y8934348D01*
X25908Y8938260D01*
X25908Y11203940D01*
X26670Y11207851D01*
X28905Y11211102D01*
X32156Y11213338D01*
X36068Y11214100D01*
X32156Y11214862D01*
X28905Y11217097D01*
X26670Y11220348D01*
X25908Y11224260D01*
X25908Y12130938D01*
X26670Y12134799D01*
X28905Y12138101D01*
X32207Y12140336D01*
X36118Y12141098D01*
X4027982Y12128601D01*
X4031843Y12127839D01*
X4035145Y12125604D01*
X4037329Y12122353D01*
X4038092Y12118441D01*
X4038092Y11211560D01*
X4037329Y11207648D01*
X4035094Y11204397D01*
X4031843Y11202162D01*
X4027932Y11201400D01*
X4031843Y11200638D01*
X4035094Y11198402D01*
X4037329Y11195151D01*
X4038092Y11191240D01*
X4038092Y8925560D01*
X4037329Y8921648D01*
X4035094Y8918397D01*
X4031843Y8916162D01*
X4027932Y8915400D01*
X4031843Y8914638D01*
X4035094Y8912402D01*
X4037329Y8909151D01*
X4038092Y8905240D01*
X4038092Y6639559D01*
X4037329Y6635648D01*
X4035094Y6632397D01*
X4031843Y6630162D01*
X4027932Y6629400D01*
X4031843Y6628638D01*
X4035094Y6626402D01*
X4037329Y6623151D01*
X4038092Y6619240D01*
X4038092Y4353560D01*
X4037329Y4349648D01*
X4035094Y4346397D01*
X4031843Y4344162D01*
X4027932Y4343400D01*
X4031843Y4342638D01*
X4035094Y4340402D01*
X4037329Y4337151D01*
X4038092Y4333240D01*
X4038092Y1470660D01*
X4037329Y1466748D01*
X4035094Y1463497D01*
X4031843Y1461262D01*
X4027932Y1460500D01*
X4031843Y1459738D01*
X4035094Y1457502D01*
X4037329Y1454251D01*
X4038092Y1450340D01*
X4038092Y708660D01*
X4037329Y704748D01*
X4035094Y701497D01*
X4031843Y699262D01*
X4027932Y698500D01*
G37*

%LPC*%
G36*
X3860800Y11431117D02*
G01*
X3875989Y11432032D01*
X3890924Y11434775D01*
X3905453Y11439296D01*
X3919321Y11445544D01*
X3932326Y11453418D01*
X3944264Y11462766D01*
X3955034Y11473535D01*
X3964381Y11485473D01*
X3972255Y11498478D01*
X3978503Y11512346D01*
X3983024Y11526875D01*
X3985768Y11541810D01*
X3986682Y11557000D01*
X3985768Y11572189D01*
X3983024Y11587124D01*
X3978503Y11601653D01*
X3972255Y11615521D01*
X3964381Y11628526D01*
X3955034Y11640464D01*
X3944264Y11651234D01*
X3932326Y11660581D01*
X3919321Y11668455D01*
X3905453Y11674703D01*
X3890924Y11679224D01*
X3875989Y11681968D01*
X3860800Y11682882D01*
X3845610Y11681968D01*
X3830675Y11679224D01*
X3816146Y11674703D01*
X3802278Y11668455D01*
X3789273Y11660581D01*
X3777335Y11651234D01*
X3766565Y11640464D01*
X3757218Y11628526D01*
X3749344Y11615521D01*
X3743096Y11601653D01*
X3738575Y11587124D01*
X3735832Y11572189D01*
X3734917Y11557000D01*
X3735832Y11541810D01*
X3738575Y11526875D01*
X3743096Y11512346D01*
X3749344Y11498478D01*
X3757218Y11485473D01*
X3766565Y11473535D01*
X3777335Y11462766D01*
X3789273Y11453418D01*
X3802278Y11445544D01*
X3816146Y11439296D01*
X3830675Y11434775D01*
X3845610Y11432032D01*
G37*
G36*
X228600Y979017D02*
G01*
X243789Y979932D01*
X258724Y982675D01*
X273253Y987196D01*
X287121Y993444D01*
X300126Y1001318D01*
X312064Y1010666D01*
X322834Y1021435D01*
X332181Y1033373D01*
X340055Y1046378D01*
X346303Y1060246D01*
X350824Y1074775D01*
X353568Y1089710D01*
X354482Y1104900D01*
X353568Y1120089D01*
X350824Y1135024D01*
X346303Y1149553D01*
X340055Y1163421D01*
X332181Y1176426D01*
X322834Y1188364D01*
X312064Y1199134D01*
X300126Y1208481D01*
X287121Y1216355D01*
X273253Y1222603D01*
X258724Y1227124D01*
X243789Y1229868D01*
X228600Y1230782D01*
X213410Y1229868D01*
X198475Y1227124D01*
X183946Y1222603D01*
X170078Y1216355D01*
X157073Y1208481D01*
X145135Y1199134D01*
X134366Y1188364D01*
X125018Y1176426D01*
X117144Y1163421D01*
X110896Y1149553D01*
X106375Y1135024D01*
X103632Y1120089D01*
X102717Y1104900D01*
X103632Y1089710D01*
X106375Y1074775D01*
X110896Y1060246D01*
X117144Y1046378D01*
X125018Y1033373D01*
X134366Y1021435D01*
X145135Y1010666D01*
X157073Y1001318D01*
X170078Y993444D01*
X183946Y987196D01*
X198475Y982675D01*
X213410Y979932D01*
G37*
G36*
X1743252Y1192276D02*
G01*
X2320747Y1192276D01*
X2337663Y1193190D01*
X2354072Y1195882D01*
X2370124Y1200353D01*
X2385618Y1206550D01*
X2400350Y1214323D01*
X2414117Y1223670D01*
X2426817Y1234490D01*
X2438298Y1246581D01*
X2448356Y1259840D01*
X2456942Y1274114D01*
X2463952Y1289253D01*
X2469286Y1305052D01*
X2472842Y1321308D01*
X2474671Y1337868D01*
X2474671Y1354531D01*
X2472842Y1371092D01*
X2469286Y1387348D01*
X2463952Y1403146D01*
X2456942Y1418285D01*
X2448356Y1432560D01*
X2438298Y1445818D01*
X2426817Y1457909D01*
X2414117Y1468729D01*
X2400350Y1478076D01*
X2385618Y1485849D01*
X2370124Y1492046D01*
X2354072Y1496517D01*
X2337663Y1499209D01*
X2320747Y1500124D01*
X1743252Y1500124D01*
X1726336Y1499209D01*
X1709928Y1496517D01*
X1693875Y1492046D01*
X1678381Y1485849D01*
X1663649Y1478076D01*
X1649882Y1468729D01*
X1637182Y1457909D01*
X1625701Y1445818D01*
X1615643Y1432560D01*
X1607058Y1418285D01*
X1600047Y1403146D01*
X1594713Y1387348D01*
X1591157Y1371092D01*
X1589328Y1354531D01*
X1589328Y1337868D01*
X1591157Y1321308D01*
X1594713Y1305052D01*
X1600047Y1289253D01*
X1607058Y1274114D01*
X1615643Y1259840D01*
X1625701Y1246581D01*
X1637182Y1234490D01*
X1649882Y1223670D01*
X1663649Y1214323D01*
X1678381Y1206550D01*
X1693875Y1200353D01*
X1709928Y1195882D01*
X1726336Y1193190D01*
G37*
G36*
X2655316Y1231900D02*
G01*
X2881884Y1231900D01*
X2882900Y1232916D01*
X2882900Y1450340D01*
X2883662Y1454251D01*
X2885897Y1457502D01*
X2889148Y1459738D01*
X2893060Y1460500D01*
X2655316Y1460500D01*
X2654300Y1459484D01*
X2654300Y1232916D01*
X2654452Y1232052D01*
G37*
G36*
X1527098Y3015538D02*
G01*
X2545994Y3015538D01*
X2552293Y3016250D01*
X2557729Y3018180D01*
X2562656Y3021279D01*
X2566720Y3025343D01*
X2569819Y3030270D01*
X2571750Y3035706D01*
X2572461Y3042005D01*
X2572461Y4060901D01*
X2571750Y4067200D01*
X2569819Y4072686D01*
X2566720Y4077563D01*
X2562656Y4081678D01*
X2557729Y4084726D01*
X2552293Y4086656D01*
X2545994Y4087368D01*
X1527098Y4087368D01*
X1520799Y4086656D01*
X1515313Y4084726D01*
X1510436Y4081678D01*
X1506321Y4077563D01*
X1503273Y4072686D01*
X1501343Y4067200D01*
X1500632Y4060901D01*
X1500632Y3042005D01*
X1501343Y3035706D01*
X1503273Y3030270D01*
X1506321Y3025343D01*
X1510436Y3021279D01*
X1515313Y3018180D01*
X1520799Y3016250D01*
G37*
G36*
X3195167Y3217367D02*
G01*
X3663035Y3217367D01*
X3669334Y3218129D01*
X3674821Y3220008D01*
X3679647Y3223056D01*
X3685540Y3229000D01*
X3700830Y3241852D01*
X3721201Y3261563D01*
X3740150Y3282594D01*
X3757523Y3304946D01*
X3773373Y3328415D01*
X3787495Y3352952D01*
X3799890Y3378403D01*
X3810508Y3404666D01*
X3819245Y3431641D01*
X3826052Y3459124D01*
X3830980Y3487013D01*
X3833926Y3515156D01*
X3834892Y3543452D01*
X3833926Y3571748D01*
X3830929Y3599942D01*
X3826001Y3627831D01*
X3819144Y3655314D01*
X3810406Y3682237D01*
X3799789Y3708450D01*
X3787343Y3733901D01*
X3773170Y3758437D01*
X3757371Y3781907D01*
X3739896Y3804259D01*
X3720947Y3825290D01*
X3700576Y3844950D01*
X3684778Y3858260D01*
X3679647Y3863543D01*
X3674821Y3866591D01*
X3669334Y3868470D01*
X3663035Y3869182D01*
X3195167Y3869182D01*
X3188868Y3868470D01*
X3183382Y3866591D01*
X3178505Y3863492D01*
X3172917Y3857955D01*
X3157423Y3844950D01*
X3137052Y3825290D01*
X3118104Y3804259D01*
X3100628Y3781907D01*
X3084830Y3758437D01*
X3070656Y3733901D01*
X3058210Y3708450D01*
X3047593Y3682237D01*
X3038856Y3655314D01*
X3031998Y3627831D01*
X3027070Y3599942D01*
X3024073Y3571748D01*
X3023108Y3543452D01*
X3024073Y3515156D01*
X3027019Y3487013D01*
X3031947Y3459124D01*
X3038754Y3431641D01*
X3047492Y3404666D01*
X3058109Y3378403D01*
X3070504Y3352952D01*
X3084626Y3328415D01*
X3100476Y3304946D01*
X3117850Y3282594D01*
X3136798Y3261563D01*
X3157169Y3241852D01*
X3173577Y3227984D01*
X3178505Y3223107D01*
X3183382Y3220008D01*
X3188868Y3218129D01*
G37*
G36*
X401167Y3230067D02*
G01*
X869035Y3230067D01*
X875334Y3230829D01*
X880821Y3232708D01*
X885647Y3235756D01*
X891540Y3241700D01*
X906830Y3254552D01*
X927201Y3274263D01*
X946150Y3295294D01*
X963523Y3317646D01*
X979373Y3341115D01*
X993495Y3365652D01*
X1005890Y3391103D01*
X1016508Y3417366D01*
X1025245Y3444341D01*
X1032052Y3471824D01*
X1036980Y3499713D01*
X1039926Y3527856D01*
X1040892Y3556152D01*
X1039926Y3584448D01*
X1036929Y3612642D01*
X1032002Y3640531D01*
X1025144Y3668014D01*
X1016406Y3694937D01*
X1005789Y3721150D01*
X993343Y3746601D01*
X979169Y3771137D01*
X963371Y3794607D01*
X945896Y3816959D01*
X926947Y3837990D01*
X906576Y3857650D01*
X890778Y3870960D01*
X885647Y3876243D01*
X880821Y3879291D01*
X875334Y3881170D01*
X869035Y3881882D01*
X401167Y3881882D01*
X394868Y3881170D01*
X389382Y3879291D01*
X384505Y3876192D01*
X378917Y3870655D01*
X363423Y3857650D01*
X343052Y3837990D01*
X324104Y3816959D01*
X306628Y3794607D01*
X290830Y3771137D01*
X276656Y3746601D01*
X264210Y3721150D01*
X253593Y3694937D01*
X244856Y3668014D01*
X237998Y3640531D01*
X233070Y3612642D01*
X230073Y3584448D01*
X229108Y3556152D01*
X230073Y3527856D01*
X233019Y3499713D01*
X237947Y3471824D01*
X244754Y3444341D01*
X253492Y3417366D01*
X264109Y3391103D01*
X276504Y3365652D01*
X290626Y3341115D01*
X306476Y3317646D01*
X323850Y3295294D01*
X342798Y3274263D01*
X363169Y3254552D01*
X379577Y3240684D01*
X384505Y3235807D01*
X389382Y3232708D01*
X394868Y3230829D01*
G37*
G36*
X3645915Y4140200D02*
G01*
X3847084Y4140200D01*
X3848100Y4141215D01*
X3848100Y4333240D01*
X3848862Y4337151D01*
X3851097Y4340402D01*
X3854348Y4342638D01*
X3858260Y4343400D01*
X3645915Y4343400D01*
X3644900Y4342384D01*
X3644900Y4141215D01*
X3645052Y4140352D01*
G37*
G36*
X851916Y4152900D02*
G01*
X1053084Y4152900D01*
X1054100Y4153915D01*
X1054100Y4355084D01*
X1053084Y4356100D01*
X840740Y4356100D01*
X844651Y4355338D01*
X847902Y4353102D01*
X850137Y4349851D01*
X850900Y4345940D01*
X850900Y4153915D01*
X851052Y4153052D01*
G37*
G36*
X1527098Y5301538D02*
G01*
X2545994Y5301538D01*
X2552293Y5302250D01*
X2557729Y5304180D01*
X2562656Y5307279D01*
X2566720Y5311343D01*
X2569819Y5316270D01*
X2571750Y5321706D01*
X2572461Y5328005D01*
X2572461Y6346901D01*
X2571750Y6353200D01*
X2569819Y6358686D01*
X2566720Y6363563D01*
X2562656Y6367678D01*
X2557729Y6370726D01*
X2552293Y6372656D01*
X2545994Y6373368D01*
X1527098Y6373368D01*
X1520799Y6372656D01*
X1515313Y6370726D01*
X1510436Y6367678D01*
X1506321Y6363563D01*
X1503273Y6358686D01*
X1501343Y6353200D01*
X1500632Y6346901D01*
X1500632Y5328005D01*
X1501343Y5321706D01*
X1503273Y5316270D01*
X1506321Y5311343D01*
X1510436Y5307279D01*
X1515313Y5304180D01*
X1520799Y5302250D01*
G37*
G36*
X3195167Y5503367D02*
G01*
X3663035Y5503367D01*
X3669334Y5504129D01*
X3674821Y5506008D01*
X3679647Y5509056D01*
X3685540Y5515000D01*
X3700830Y5527852D01*
X3721201Y5547563D01*
X3740150Y5568594D01*
X3757523Y5590946D01*
X3773373Y5614416D01*
X3787495Y5638952D01*
X3799890Y5664403D01*
X3810508Y5690666D01*
X3819245Y5717641D01*
X3826052Y5745124D01*
X3830980Y5773013D01*
X3833926Y5801156D01*
X3834892Y5829452D01*
X3833926Y5857748D01*
X3830929Y5885942D01*
X3826001Y5913831D01*
X3819144Y5941314D01*
X3810406Y5968238D01*
X3799789Y5994450D01*
X3787343Y6019901D01*
X3773170Y6044438D01*
X3757371Y6067907D01*
X3739896Y6090259D01*
X3720947Y6111290D01*
X3700576Y6130950D01*
X3684778Y6144260D01*
X3679647Y6149543D01*
X3674821Y6152591D01*
X3669334Y6154470D01*
X3663035Y6155182D01*
X3195167Y6155182D01*
X3188868Y6154470D01*
X3183382Y6152591D01*
X3178505Y6149492D01*
X3172917Y6143955D01*
X3157423Y6130950D01*
X3137052Y6111290D01*
X3118104Y6090259D01*
X3100628Y6067907D01*
X3084830Y6044438D01*
X3070656Y6019901D01*
X3058210Y5994450D01*
X3047593Y5968238D01*
X3038856Y5941314D01*
X3031998Y5913831D01*
X3027070Y5885942D01*
X3024073Y5857748D01*
X3023108Y5829452D01*
X3024073Y5801156D01*
X3027019Y5773013D01*
X3031947Y5745124D01*
X3038754Y5717641D01*
X3047492Y5690666D01*
X3058109Y5664403D01*
X3070504Y5638952D01*
X3084626Y5614416D01*
X3100476Y5590946D01*
X3117850Y5568594D01*
X3136798Y5547563D01*
X3157169Y5527852D01*
X3173577Y5513984D01*
X3178505Y5509107D01*
X3183382Y5506008D01*
X3188868Y5504129D01*
G37*
G36*
X401167Y5516067D02*
G01*
X869035Y5516067D01*
X875334Y5516829D01*
X880821Y5518708D01*
X885647Y5521756D01*
X891540Y5527700D01*
X906830Y5540552D01*
X927201Y5560263D01*
X946150Y5581294D01*
X963523Y5603646D01*
X979373Y5627116D01*
X993495Y5651652D01*
X1005890Y5677103D01*
X1016508Y5703366D01*
X1025245Y5730341D01*
X1032052Y5757824D01*
X1036980Y5785713D01*
X1039926Y5813856D01*
X1040892Y5842152D01*
X1039926Y5870448D01*
X1036929Y5898642D01*
X1032002Y5926531D01*
X1025144Y5954014D01*
X1016406Y5980938D01*
X1005789Y6007150D01*
X993343Y6032601D01*
X979169Y6057138D01*
X963371Y6080607D01*
X945896Y6102959D01*
X926947Y6123990D01*
X906576Y6143650D01*
X890778Y6156960D01*
X885647Y6162243D01*
X880821Y6165291D01*
X875334Y6167170D01*
X869035Y6167882D01*
X401167Y6167882D01*
X394868Y6167170D01*
X389382Y6165291D01*
X384505Y6162192D01*
X378917Y6156655D01*
X363423Y6143650D01*
X343052Y6123990D01*
X324104Y6102959D01*
X306628Y6080607D01*
X290830Y6057138D01*
X276656Y6032601D01*
X264210Y6007150D01*
X253593Y5980938D01*
X244856Y5954014D01*
X237998Y5926531D01*
X233070Y5898642D01*
X230073Y5870448D01*
X229108Y5842152D01*
X230073Y5813856D01*
X233019Y5785713D01*
X237947Y5757824D01*
X244754Y5730341D01*
X253492Y5703366D01*
X264109Y5677103D01*
X276504Y5651652D01*
X290626Y5627116D01*
X306476Y5603646D01*
X323850Y5581294D01*
X342798Y5560263D01*
X363169Y5540552D01*
X379577Y5526684D01*
X384505Y5521807D01*
X389382Y5518708D01*
X394868Y5516829D01*
G37*
G36*
X3645915Y6438900D02*
G01*
X3847084Y6438900D01*
X3848100Y6439916D01*
X3848100Y6619240D01*
X3848862Y6623151D01*
X3851097Y6626402D01*
X3854348Y6628638D01*
X3858260Y6629400D01*
X3645915Y6629400D01*
X3644900Y6628384D01*
X3644900Y6439916D01*
G37*
G36*
X3860800Y979017D02*
G01*
X3875989Y979932D01*
X3890924Y982675D01*
X3905453Y987196D01*
X3919321Y993444D01*
X3932326Y1001318D01*
X3944264Y1010666D01*
X3955034Y1021435D01*
X3964381Y1033373D01*
X3972255Y1046378D01*
X3978503Y1060246D01*
X3983024Y1074775D01*
X3985768Y1089710D01*
X3986682Y1104900D01*
X3985768Y1120089D01*
X3983024Y1135024D01*
X3978503Y1149553D01*
X3972255Y1163421D01*
X3964381Y1176426D01*
X3955034Y1188364D01*
X3944264Y1199134D01*
X3932326Y1208481D01*
X3919321Y1216355D01*
X3905453Y1222603D01*
X3890924Y1227124D01*
X3875989Y1229868D01*
X3860800Y1230782D01*
X3845610Y1229868D01*
X3830675Y1227124D01*
X3816146Y1222603D01*
X3802278Y1216355D01*
X3789273Y1208481D01*
X3777335Y1199134D01*
X3766565Y1188364D01*
X3757218Y1176426D01*
X3749344Y1163421D01*
X3743096Y1149553D01*
X3738575Y1135024D01*
X3735832Y1120089D01*
X3734917Y1104900D01*
X3735832Y1089710D01*
X3738575Y1074775D01*
X3743096Y1060246D01*
X3749344Y1046378D01*
X3757218Y1033373D01*
X3766565Y1021435D01*
X3777335Y1010666D01*
X3789273Y1001318D01*
X3802278Y993444D01*
X3816146Y987196D01*
X3830675Y982675D01*
X3845610Y979932D01*
G37*
G36*
X1527098Y7587538D02*
G01*
X2545994Y7587538D01*
X2552293Y7588250D01*
X2557729Y7590180D01*
X2562656Y7593279D01*
X2566720Y7597343D01*
X2569819Y7602270D01*
X2571750Y7607706D01*
X2572461Y7614005D01*
X2572461Y8632901D01*
X2571750Y8639200D01*
X2569819Y8644686D01*
X2566720Y8649563D01*
X2562656Y8653678D01*
X2557729Y8656726D01*
X2552293Y8658656D01*
X2545994Y8659368D01*
X1527098Y8659368D01*
X1520799Y8658656D01*
X1515313Y8656726D01*
X1510436Y8653678D01*
X1506321Y8649563D01*
X1503273Y8644686D01*
X1501343Y8639200D01*
X1500632Y8632901D01*
X1500632Y7614005D01*
X1501343Y7607706D01*
X1503273Y7602270D01*
X1506321Y7597343D01*
X1510436Y7593279D01*
X1515313Y7590180D01*
X1520799Y7588250D01*
G37*
G36*
X3195167Y7789367D02*
G01*
X3663035Y7789367D01*
X3669334Y7790129D01*
X3674821Y7792008D01*
X3679647Y7795056D01*
X3685540Y7801000D01*
X3700830Y7813852D01*
X3721201Y7833563D01*
X3740150Y7854594D01*
X3757523Y7876946D01*
X3773373Y7900416D01*
X3787495Y7924952D01*
X3799890Y7950403D01*
X3810508Y7976666D01*
X3819245Y8003641D01*
X3826052Y8031124D01*
X3830980Y8059013D01*
X3833926Y8087156D01*
X3834892Y8115452D01*
X3833926Y8143748D01*
X3830929Y8171942D01*
X3826001Y8199831D01*
X3819144Y8227314D01*
X3810406Y8254238D01*
X3799789Y8280450D01*
X3787343Y8305901D01*
X3773170Y8330438D01*
X3757371Y8353907D01*
X3739896Y8376259D01*
X3720947Y8397290D01*
X3700576Y8416950D01*
X3684778Y8430260D01*
X3679647Y8435543D01*
X3674821Y8438591D01*
X3669334Y8440470D01*
X3663035Y8441182D01*
X3195167Y8441182D01*
X3188868Y8440470D01*
X3183382Y8438591D01*
X3178505Y8435492D01*
X3172917Y8429955D01*
X3157423Y8416950D01*
X3137052Y8397290D01*
X3118104Y8376259D01*
X3100628Y8353907D01*
X3084830Y8330438D01*
X3070656Y8305901D01*
X3058210Y8280450D01*
X3047593Y8254238D01*
X3038856Y8227314D01*
X3031998Y8199831D01*
X3027070Y8171942D01*
X3024073Y8143748D01*
X3023108Y8115452D01*
X3024073Y8087156D01*
X3027019Y8059013D01*
X3031947Y8031124D01*
X3038754Y8003641D01*
X3047492Y7976666D01*
X3058109Y7950403D01*
X3070504Y7924952D01*
X3084626Y7900416D01*
X3100476Y7876946D01*
X3117850Y7854594D01*
X3136798Y7833563D01*
X3157169Y7813852D01*
X3173577Y7799984D01*
X3178505Y7795107D01*
X3183382Y7792008D01*
X3188868Y7790129D01*
G37*
G36*
X401167Y7802067D02*
G01*
X869035Y7802067D01*
X875334Y7802829D01*
X880821Y7804708D01*
X885647Y7807756D01*
X891540Y7813700D01*
X906830Y7826552D01*
X927201Y7846263D01*
X946150Y7867294D01*
X963523Y7889646D01*
X979373Y7913116D01*
X993495Y7937652D01*
X1005890Y7963103D01*
X1016508Y7989366D01*
X1025245Y8016341D01*
X1032052Y8043824D01*
X1036980Y8071713D01*
X1039926Y8099856D01*
X1040892Y8128152D01*
X1039926Y8156448D01*
X1036929Y8184642D01*
X1032002Y8212531D01*
X1025144Y8240014D01*
X1016406Y8266938D01*
X1005789Y8293150D01*
X993343Y8318601D01*
X979169Y8343138D01*
X963371Y8366607D01*
X945896Y8388959D01*
X926947Y8409990D01*
X906576Y8429650D01*
X890778Y8442960D01*
X885647Y8448243D01*
X880821Y8451291D01*
X875334Y8453170D01*
X869035Y8453882D01*
X401167Y8453882D01*
X394868Y8453170D01*
X389382Y8451291D01*
X384505Y8448192D01*
X378917Y8442655D01*
X363423Y8429650D01*
X343052Y8409990D01*
X324104Y8388959D01*
X306628Y8366607D01*
X290830Y8343138D01*
X276656Y8318601D01*
X264210Y8293150D01*
X253593Y8266938D01*
X244856Y8240014D01*
X237998Y8212531D01*
X233070Y8184642D01*
X230073Y8156448D01*
X229108Y8128152D01*
X230073Y8099856D01*
X233019Y8071713D01*
X237947Y8043824D01*
X244754Y8016341D01*
X253492Y7989366D01*
X264109Y7963103D01*
X276504Y7937652D01*
X290626Y7913116D01*
X306476Y7889646D01*
X323850Y7867294D01*
X342798Y7846263D01*
X363169Y7826552D01*
X379577Y7812684D01*
X384505Y7807807D01*
X389382Y7804708D01*
X394868Y7802829D01*
G37*
G36*
X3645915Y8712200D02*
G01*
X3847084Y8712200D01*
X3848100Y8713216D01*
X3848100Y8905240D01*
X3848862Y8909151D01*
X3851097Y8912402D01*
X3854348Y8914638D01*
X3858260Y8915400D01*
X3645915Y8915400D01*
X3644900Y8914384D01*
X3644900Y8713216D01*
X3645052Y8712352D01*
G37*
G36*
X851916Y8724900D02*
G01*
X1053084Y8724900D01*
X1054100Y8725916D01*
X1054100Y8927084D01*
X1053084Y8928100D01*
X840740Y8928100D01*
X844651Y8927338D01*
X847902Y8925102D01*
X850137Y8921851D01*
X850900Y8917940D01*
X850900Y8725916D01*
X851052Y8725052D01*
G37*
G36*
X1527098Y9873538D02*
G01*
X2545994Y9873538D01*
X2552293Y9874250D01*
X2557729Y9876180D01*
X2562656Y9879279D01*
X2566720Y9883343D01*
X2569819Y9888270D01*
X2571750Y9893706D01*
X2572461Y9900005D01*
X2572461Y10918901D01*
X2571750Y10925200D01*
X2569819Y10930686D01*
X2566720Y10935563D01*
X2562656Y10939678D01*
X2557729Y10942726D01*
X2552293Y10944656D01*
X2545994Y10945368D01*
X1527098Y10945368D01*
X1520799Y10944656D01*
X1515313Y10942726D01*
X1510436Y10939678D01*
X1506321Y10935563D01*
X1503273Y10930686D01*
X1501343Y10925200D01*
X1500632Y10918901D01*
X1500632Y9900005D01*
X1501343Y9893706D01*
X1503273Y9888270D01*
X1506321Y9883343D01*
X1510436Y9879279D01*
X1515313Y9876180D01*
X1520799Y9874250D01*
G37*
G36*
X3195167Y10075367D02*
G01*
X3663035Y10075367D01*
X3669334Y10076129D01*
X3674821Y10078008D01*
X3679647Y10081056D01*
X3685540Y10087000D01*
X3700830Y10099852D01*
X3721201Y10119563D01*
X3740150Y10140594D01*
X3757523Y10162946D01*
X3773373Y10186416D01*
X3787495Y10210952D01*
X3799890Y10236403D01*
X3810508Y10262666D01*
X3819245Y10289641D01*
X3826052Y10317124D01*
X3830980Y10345013D01*
X3833926Y10373156D01*
X3834892Y10401452D01*
X3833926Y10429748D01*
X3830929Y10457942D01*
X3826001Y10485831D01*
X3819144Y10513314D01*
X3810406Y10540238D01*
X3799789Y10566450D01*
X3787343Y10591901D01*
X3773170Y10616438D01*
X3757371Y10639907D01*
X3739896Y10662259D01*
X3720947Y10683290D01*
X3700576Y10702950D01*
X3684778Y10716260D01*
X3679647Y10721543D01*
X3674821Y10724591D01*
X3669334Y10726470D01*
X3663035Y10727182D01*
X3195167Y10727182D01*
X3188868Y10726470D01*
X3183382Y10724591D01*
X3178505Y10721492D01*
X3172917Y10715955D01*
X3157423Y10702950D01*
X3137052Y10683290D01*
X3118104Y10662259D01*
X3100628Y10639907D01*
X3084830Y10616438D01*
X3070656Y10591901D01*
X3058210Y10566450D01*
X3047593Y10540238D01*
X3038856Y10513314D01*
X3031998Y10485831D01*
X3027070Y10457942D01*
X3024073Y10429748D01*
X3023108Y10401452D01*
X3024073Y10373156D01*
X3027019Y10345013D01*
X3031947Y10317124D01*
X3038754Y10289641D01*
X3047492Y10262666D01*
X3058109Y10236403D01*
X3070504Y10210952D01*
X3084626Y10186416D01*
X3100476Y10162946D01*
X3117850Y10140594D01*
X3136798Y10119563D01*
X3157169Y10099852D01*
X3173577Y10085984D01*
X3178505Y10081107D01*
X3183382Y10078008D01*
X3188868Y10076129D01*
G37*
G36*
X401167Y10088067D02*
G01*
X869035Y10088067D01*
X875334Y10088829D01*
X880821Y10090708D01*
X885647Y10093756D01*
X891540Y10099700D01*
X906830Y10112552D01*
X927201Y10132263D01*
X946150Y10153294D01*
X963523Y10175646D01*
X979373Y10199116D01*
X993495Y10223652D01*
X1005890Y10249103D01*
X1016508Y10275366D01*
X1025245Y10302341D01*
X1032052Y10329824D01*
X1036980Y10357713D01*
X1039926Y10385856D01*
X1040892Y10414152D01*
X1039926Y10442448D01*
X1036929Y10470642D01*
X1032002Y10498531D01*
X1025144Y10526014D01*
X1016406Y10552938D01*
X1005789Y10579150D01*
X993343Y10604601D01*
X979169Y10629138D01*
X963371Y10652607D01*
X945896Y10674959D01*
X926947Y10695990D01*
X906576Y10715650D01*
X890778Y10728960D01*
X885647Y10734243D01*
X880821Y10737291D01*
X875334Y10739170D01*
X869035Y10739882D01*
X401167Y10739882D01*
X394868Y10739170D01*
X389382Y10737291D01*
X384505Y10734192D01*
X378917Y10728655D01*
X363423Y10715650D01*
X343052Y10695990D01*
X324104Y10674959D01*
X306628Y10652607D01*
X290830Y10629138D01*
X276656Y10604601D01*
X264210Y10579150D01*
X253593Y10552938D01*
X244856Y10526014D01*
X237998Y10498531D01*
X233070Y10470642D01*
X230073Y10442448D01*
X229108Y10414152D01*
X230073Y10385856D01*
X233019Y10357713D01*
X237947Y10329824D01*
X244754Y10302341D01*
X253492Y10275366D01*
X264109Y10249103D01*
X276504Y10223652D01*
X290626Y10199116D01*
X306476Y10175646D01*
X323850Y10153294D01*
X342798Y10132263D01*
X363169Y10112552D01*
X379577Y10098684D01*
X384505Y10093807D01*
X389382Y10090708D01*
X394868Y10088829D01*
G37*
G36*
X3645915Y10998200D02*
G01*
X3847084Y10998200D01*
X3848100Y10999216D01*
X3848100Y11191240D01*
X3848862Y11195151D01*
X3851097Y11198402D01*
X3854348Y11200638D01*
X3858260Y11201400D01*
X3645915Y11201400D01*
X3644900Y11200384D01*
X3644900Y10999216D01*
G37*
G36*
X851916Y11010900D02*
G01*
X1053084Y11010900D01*
X1054100Y11011916D01*
X1054100Y11203736D01*
X1054912Y11207648D01*
X1057148Y11210950D01*
X1060551Y11213185D01*
X1064463Y11213846D01*
X1054201Y11214100D01*
X840740Y11214100D01*
X844651Y11213338D01*
X847902Y11211102D01*
X850137Y11207851D01*
X850900Y11203940D01*
X850900Y11011916D01*
G37*
G36*
X1625650Y11201400D02*
G01*
X2437384Y11201400D01*
X2438400Y11202416D01*
X2438400Y11403584D01*
X2437384Y11404600D01*
X1626616Y11404600D01*
X1625600Y11403584D01*
X1625600Y11211763D01*
X1624787Y11207851D01*
X1622552Y11204549D01*
X1619148Y11202314D01*
X1615236Y11201654D01*
G37*
G36*
X228600Y11431117D02*
G01*
X243789Y11432032D01*
X258724Y11434775D01*
X273253Y11439296D01*
X287121Y11445544D01*
X300126Y11453418D01*
X312064Y11462766D01*
X322834Y11473535D01*
X332181Y11485473D01*
X340055Y11498478D01*
X346303Y11512346D01*
X350824Y11526875D01*
X353568Y11541810D01*
X354482Y11557000D01*
X353568Y11572189D01*
X350824Y11587124D01*
X346303Y11601653D01*
X340055Y11615521D01*
X332181Y11628526D01*
X322834Y11640464D01*
X312064Y11651234D01*
X300126Y11660581D01*
X287121Y11668455D01*
X273253Y11674703D01*
X258724Y11679224D01*
X243789Y11681968D01*
X228600Y11682882D01*
X213410Y11681968D01*
X198475Y11679224D01*
X183946Y11674703D01*
X170078Y11668455D01*
X157073Y11660581D01*
X145135Y11651234D01*
X134366Y11640464D01*
X125018Y11628526D01*
X117144Y11615521D01*
X110896Y11601653D01*
X106375Y11587124D01*
X103632Y11572189D01*
X102717Y11557000D01*
X103632Y11541810D01*
X106375Y11526875D01*
X110896Y11512346D01*
X117144Y11498478D01*
X125018Y11485473D01*
X134366Y11473535D01*
X145135Y11462766D01*
X157073Y11453418D01*
X170078Y11445544D01*
X183946Y11439296D01*
X198475Y11434775D01*
X213410Y11432032D01*
G37*
G36*
X851916Y6438900D02*
G01*
X1053084Y6438900D01*
X1054100Y6439916D01*
X1054100Y6641084D01*
X1053084Y6642100D01*
X840740Y6642100D01*
X844651Y6641338D01*
X847902Y6639102D01*
X850137Y6635851D01*
X850900Y6631940D01*
X850900Y6439916D01*
X851052Y6439052D01*
G37*

%LPD*%
D10*
X3771900Y673100D02*
G01*
X3771900Y736600D01*
X2095500Y12103100D02*
G01*
X2095500Y12166600D01*
X38862Y38862D02*
G01*
X38862Y685545D01*
X38862Y685545D02*
G01*
X4025138Y685545D01*
X4025138Y685545D02*
G01*
X4025138Y38862D01*
X4025138Y38862D02*
G01*
X38862Y38862D01*
X3064476Y204043D02*
G01*
X3077582Y189583D01*
X3077582Y189583D02*
G01*
X3092042Y176477D01*
X3092042Y176477D02*
G01*
X3107717Y164852D01*
X3107717Y164852D02*
G01*
X3124456Y154819D01*
X3124456Y154819D02*
G01*
X3142097Y146475D01*
X3142097Y146475D02*
G01*
X3160472Y139901D01*
X3160472Y139901D02*
G01*
X3179403Y135159D01*
X3179403Y135159D02*
G01*
X3198707Y132295D01*
X3198707Y132295D02*
G01*
X3218199Y131338D01*
X3218199Y131338D02*
G01*
X3538200Y131338D01*
X3538200Y131338D02*
G01*
X3557692Y132295D01*
X3557692Y132295D02*
G01*
X3576996Y135159D01*
X3576996Y135159D02*
G01*
X3595927Y139901D01*
X3595927Y139901D02*
G01*
X3614302Y146475D01*
X3614302Y146475D02*
G01*
X3631943Y154819D01*
X3631943Y154819D02*
G01*
X3648682Y164852D01*
X3648682Y164852D02*
G01*
X3664357Y176477D01*
X3664357Y176477D02*
G01*
X3678817Y189583D01*
X3678817Y189583D02*
G01*
X3691923Y204043D01*
X3691923Y204043D02*
G01*
X3703548Y219718D01*
X3703548Y219718D02*
G01*
X3713581Y236457D01*
X3713581Y236457D02*
G01*
X3721925Y254098D01*
X3721925Y254098D02*
G01*
X3728499Y272473D01*
X3728499Y272473D02*
G01*
X3733241Y291404D01*
X3733241Y291404D02*
G01*
X3736105Y310708D01*
X3736105Y310708D02*
G01*
X3737062Y330200D01*
X3737062Y330200D02*
G01*
X3736105Y349691D01*
X3736105Y349691D02*
G01*
X3733241Y368995D01*
X3733241Y368995D02*
G01*
X3728499Y387926D01*
X3728499Y387926D02*
G01*
X3721925Y406301D01*
X3721925Y406301D02*
G01*
X3713581Y423942D01*
X3713581Y423942D02*
G01*
X3703548Y440681D01*
X3703548Y440681D02*
G01*
X3691923Y456356D01*
X3691923Y456356D02*
G01*
X3678817Y470816D01*
X3678817Y470816D02*
G01*
X3664357Y483922D01*
X3664357Y483922D02*
G01*
X3648682Y495547D01*
X3648682Y495547D02*
G01*
X3631943Y505580D01*
X3631943Y505580D02*
G01*
X3614302Y513924D01*
X3614302Y513924D02*
G01*
X3595927Y520498D01*
X3595927Y520498D02*
G01*
X3576996Y525240D01*
X3576996Y525240D02*
G01*
X3557692Y528104D01*
X3557692Y528104D02*
G01*
X3538200Y529061D01*
X3538200Y529061D02*
G01*
X3218199Y529061D01*
X3218199Y529061D02*
G01*
X3198707Y528104D01*
X3198707Y528104D02*
G01*
X3179403Y525240D01*
X3179403Y525240D02*
G01*
X3160472Y520498D01*
X3160472Y520498D02*
G01*
X3142097Y513924D01*
X3142097Y513924D02*
G01*
X3124456Y505580D01*
X3124456Y505580D02*
G01*
X3107717Y495547D01*
X3107717Y495547D02*
G01*
X3092042Y483922D01*
X3092042Y483922D02*
G01*
X3077582Y470816D01*
X3077582Y470816D02*
G01*
X3064476Y456356D01*
X3064476Y456356D02*
G01*
X3052851Y440681D01*
X3052851Y440681D02*
G01*
X3042818Y423942D01*
X3042818Y423942D02*
G01*
X3034474Y406301D01*
X3034474Y406301D02*
G01*
X3027900Y387926D01*
X3027900Y387926D02*
G01*
X3023158Y368995D01*
X3023158Y368995D02*
G01*
X3020294Y349691D01*
X3020294Y349691D02*
G01*
X3019337Y330200D01*
X3019337Y330200D02*
G01*
X3020294Y310708D01*
X3020294Y310708D02*
G01*
X3023158Y291404D01*
X3023158Y291404D02*
G01*
X3027900Y272473D01*
X3027900Y272473D02*
G01*
X3034474Y254098D01*
X3034474Y254098D02*
G01*
X3042818Y236457D01*
X3042818Y236457D02*
G01*
X3052851Y219718D01*
X3052851Y219718D02*
G01*
X3064476Y204043D01*
X38862Y50940D02*
G01*
X50940Y38862D01*
X38862Y158703D02*
G01*
X158703Y38862D01*
X38862Y266466D02*
G01*
X266466Y38862D01*
X38862Y374229D02*
G01*
X374229Y38862D01*
X38862Y481992D02*
G01*
X481992Y38862D01*
X38862Y589755D02*
G01*
X589755Y38862D01*
X50835Y685545D02*
G01*
X697519Y38862D01*
X158598Y685545D02*
G01*
X805282Y38862D01*
X266361Y685545D02*
G01*
X913045Y38862D01*
X374124Y685545D02*
G01*
X1020808Y38862D01*
X481887Y685545D02*
G01*
X1128571Y38862D01*
X589650Y685545D02*
G01*
X1236334Y38862D01*
X697413Y685545D02*
G01*
X1344097Y38862D01*
X805176Y685545D02*
G01*
X1451860Y38862D01*
X912939Y685545D02*
G01*
X1559623Y38862D01*
X1020702Y685545D02*
G01*
X1667386Y38862D01*
X1128465Y685545D02*
G01*
X1775149Y38862D01*
X1236228Y685545D02*
G01*
X1882912Y38862D01*
X1343991Y685545D02*
G01*
X1990675Y38862D01*
X1451755Y685545D02*
G01*
X2098439Y38862D01*
X1559518Y685545D02*
G01*
X2206202Y38862D01*
X1667281Y685545D02*
G01*
X2313965Y38862D01*
X1775044Y685545D02*
G01*
X2421728Y38862D01*
X1882807Y685545D02*
G01*
X2529491Y38862D01*
X1990570Y685545D02*
G01*
X2637254Y38862D01*
X2098333Y685545D02*
G01*
X2745017Y38862D01*
X2206096Y685545D02*
G01*
X2852780Y38862D01*
X2313859Y685545D02*
G01*
X2960543Y38862D01*
X2421622Y685545D02*
G01*
X3068306Y38862D01*
X2529385Y685545D02*
G01*
X3176069Y38862D01*
X2637148Y685545D02*
G01*
X3021741Y300952D01*
X3188951Y133742D02*
G01*
X3283832Y38862D01*
X2744911Y685545D02*
G01*
X3031755Y398702D01*
X3299119Y131338D02*
G01*
X3391595Y38862D01*
X2852675Y685545D02*
G01*
X3072743Y465477D01*
X3406882Y131338D02*
G01*
X3499359Y38862D01*
X2960438Y685545D02*
G01*
X3135283Y510701D01*
X3514645Y131338D02*
G01*
X3607122Y38862D01*
X3068201Y685545D02*
G01*
X3224685Y529061D01*
X3609124Y144623D02*
G01*
X3714885Y38862D01*
X3175964Y685545D02*
G01*
X3332448Y529061D01*
X3675202Y186307D02*
G01*
X3822648Y38862D01*
X3283727Y685545D02*
G01*
X3440211Y529061D01*
X3719757Y249515D02*
G01*
X3930411Y38862D01*
X3391490Y685545D02*
G01*
X3548479Y528556D01*
X3736557Y340478D02*
G01*
X4025138Y51898D01*
X3499253Y685545D02*
G01*
X4025138Y159661D01*
X3607016Y685545D02*
G01*
X4025138Y267424D01*
X3714779Y685545D02*
G01*
X4025138Y375187D01*
X3822542Y685545D02*
G01*
X4025138Y482950D01*
X3930305Y685545D02*
G01*
X4025138Y590713D01*
X4013059Y38862D02*
G01*
X4025138Y50940D01*
X3905296Y38862D02*
G01*
X4025138Y158703D01*
X3797533Y38862D02*
G01*
X4025138Y266466D01*
X3689770Y38862D02*
G01*
X4025138Y374229D01*
X3582007Y38862D02*
G01*
X4025138Y481992D01*
X3474244Y38862D02*
G01*
X3569417Y134035D01*
X3734365Y298983D02*
G01*
X4025138Y589755D01*
X3366480Y38862D02*
G01*
X3458957Y131338D01*
X3725086Y397467D02*
G01*
X4013164Y685545D01*
X3258717Y38862D02*
G01*
X3351194Y131338D01*
X3684453Y464597D02*
G01*
X3905401Y685545D01*
X3150954Y38862D02*
G01*
X3243431Y131338D01*
X3622255Y510162D02*
G01*
X3797638Y685545D01*
X3043191Y38862D02*
G01*
X3148510Y144181D01*
X3533391Y529061D02*
G01*
X3689875Y685545D01*
X2935428Y38862D02*
G01*
X3082076Y185510D01*
X3425628Y529061D02*
G01*
X3582112Y685545D01*
X2827665Y38862D02*
G01*
X3037180Y248377D01*
X3317865Y529061D02*
G01*
X3474349Y685545D01*
X2719902Y38862D02*
G01*
X3019755Y338715D01*
X3209683Y528643D02*
G01*
X3366586Y685545D01*
X2612139Y38862D02*
G01*
X3258823Y685545D01*
X2504376Y38862D02*
G01*
X3151060Y685545D01*
X2396613Y38862D02*
G01*
X3043297Y685545D01*
X2288850Y38862D02*
G01*
X2935534Y685545D01*
X2181087Y38862D02*
G01*
X2827771Y685545D01*
X2073324Y38862D02*
G01*
X2720008Y685545D01*
X1965560Y38862D02*
G01*
X2612244Y685545D01*
X1857797Y38862D02*
G01*
X2504481Y685545D01*
X1750034Y38862D02*
G01*
X2396718Y685545D01*
X1642271Y38862D02*
G01*
X2288955Y685545D01*
X1534508Y38862D02*
G01*
X2181192Y685545D01*
X1426745Y38862D02*
G01*
X2073429Y685545D01*
X1318982Y38862D02*
G01*
X1965666Y685545D01*
X1211219Y38862D02*
G01*
X1857903Y685545D01*
X1103456Y38862D02*
G01*
X1750140Y685545D01*
X995693Y38862D02*
G01*
X1642377Y685545D01*
X887930Y38862D02*
G01*
X1534614Y685545D01*
X780167Y38862D02*
G01*
X1426851Y685545D01*
X672404Y38862D02*
G01*
X1319088Y685545D01*
X564640Y38862D02*
G01*
X1211324Y685545D01*
X456877Y38862D02*
G01*
X1103561Y685545D01*
X349114Y38862D02*
G01*
X995798Y685545D01*
X241351Y38862D02*
G01*
X888035Y685545D01*
X133588Y38862D02*
G01*
X780272Y685545D01*
X38862Y51898D02*
G01*
X672509Y685545D01*
X38862Y159661D02*
G01*
X564746Y685545D01*
X38862Y267424D02*
G01*
X456983Y685545D01*
X38862Y375187D02*
G01*
X349220Y685545D01*
X38862Y482950D02*
G01*
X241457Y685545D01*
X38862Y590713D02*
G01*
X133694Y685545D01*
X38862Y12154032D02*
G01*
X38862Y12800837D01*
X38862Y12800837D02*
G01*
X4025138Y12800837D01*
X4025138Y12800837D02*
G01*
X4025138Y12141575D01*
X4025138Y12141575D02*
G01*
X38862Y12154032D01*
X372076Y12446843D02*
G01*
X385182Y12432383D01*
X385182Y12432383D02*
G01*
X399642Y12419277D01*
X399642Y12419277D02*
G01*
X415317Y12407652D01*
X415317Y12407652D02*
G01*
X432056Y12397619D01*
X432056Y12397619D02*
G01*
X449697Y12389275D01*
X449697Y12389275D02*
G01*
X468072Y12382701D01*
X468072Y12382701D02*
G01*
X487003Y12377959D01*
X487003Y12377959D02*
G01*
X506307Y12375095D01*
X506307Y12375095D02*
G01*
X525799Y12374138D01*
X525799Y12374138D02*
G01*
X845800Y12374138D01*
X845800Y12374138D02*
G01*
X865292Y12375095D01*
X865292Y12375095D02*
G01*
X884596Y12377959D01*
X884596Y12377959D02*
G01*
X903527Y12382701D01*
X903527Y12382701D02*
G01*
X921902Y12389275D01*
X921902Y12389275D02*
G01*
X939543Y12397619D01*
X939543Y12397619D02*
G01*
X956282Y12407652D01*
X956282Y12407652D02*
G01*
X971957Y12419277D01*
X971957Y12419277D02*
G01*
X986417Y12432383D01*
X986417Y12432383D02*
G01*
X999523Y12446843D01*
X999523Y12446843D02*
G01*
X1011148Y12462518D01*
X1011148Y12462518D02*
G01*
X1021181Y12479257D01*
X1021181Y12479257D02*
G01*
X1029525Y12496898D01*
X1029525Y12496898D02*
G01*
X1036099Y12515273D01*
X1036099Y12515273D02*
G01*
X1040841Y12534204D01*
X1040841Y12534204D02*
G01*
X1043705Y12553508D01*
X1043705Y12553508D02*
G01*
X1044662Y12573000D01*
X1044662Y12573000D02*
G01*
X1043705Y12592491D01*
X1043705Y12592491D02*
G01*
X1040841Y12611795D01*
X1040841Y12611795D02*
G01*
X1036099Y12630726D01*
X1036099Y12630726D02*
G01*
X1029525Y12649101D01*
X1029525Y12649101D02*
G01*
X1021181Y12666742D01*
X1021181Y12666742D02*
G01*
X1011148Y12683481D01*
X1011148Y12683481D02*
G01*
X999523Y12699156D01*
X999523Y12699156D02*
G01*
X986417Y12713616D01*
X986417Y12713616D02*
G01*
X971957Y12726722D01*
X971957Y12726722D02*
G01*
X956282Y12738347D01*
X956282Y12738347D02*
G01*
X939543Y12748380D01*
X939543Y12748380D02*
G01*
X921902Y12756724D01*
X921902Y12756724D02*
G01*
X903527Y12763298D01*
X903527Y12763298D02*
G01*
X884596Y12768040D01*
X884596Y12768040D02*
G01*
X865292Y12770904D01*
X865292Y12770904D02*
G01*
X845800Y12771861D01*
X845800Y12771861D02*
G01*
X525799Y12771861D01*
X525799Y12771861D02*
G01*
X506307Y12770904D01*
X506307Y12770904D02*
G01*
X487003Y12768040D01*
X487003Y12768040D02*
G01*
X468072Y12763298D01*
X468072Y12763298D02*
G01*
X449697Y12756724D01*
X449697Y12756724D02*
G01*
X432056Y12748380D01*
X432056Y12748380D02*
G01*
X415317Y12738347D01*
X415317Y12738347D02*
G01*
X399642Y12726722D01*
X399642Y12726722D02*
G01*
X385182Y12713616D01*
X385182Y12713616D02*
G01*
X372076Y12699156D01*
X372076Y12699156D02*
G01*
X360451Y12683481D01*
X360451Y12683481D02*
G01*
X350418Y12666742D01*
X350418Y12666742D02*
G01*
X342074Y12649101D01*
X342074Y12649101D02*
G01*
X335500Y12630726D01*
X335500Y12630726D02*
G01*
X330758Y12611795D01*
X330758Y12611795D02*
G01*
X327894Y12592491D01*
X327894Y12592491D02*
G01*
X326937Y12573000D01*
X326937Y12573000D02*
G01*
X327894Y12553508D01*
X327894Y12553508D02*
G01*
X330758Y12534204D01*
X330758Y12534204D02*
G01*
X335500Y12515273D01*
X335500Y12515273D02*
G01*
X342074Y12496898D01*
X342074Y12496898D02*
G01*
X350418Y12479257D01*
X350418Y12479257D02*
G01*
X360451Y12462518D01*
X360451Y12462518D02*
G01*
X372076Y12446843D01*
X38862Y12228167D02*
G01*
X113229Y12153800D01*
X38862Y12335930D02*
G01*
X221330Y12153462D01*
X38862Y12443693D02*
G01*
X329431Y12153124D01*
X38862Y12551456D02*
G01*
X437532Y12152786D01*
X38862Y12659220D02*
G01*
X545633Y12152448D01*
X38862Y12766983D02*
G01*
X653734Y12152111D01*
X112770Y12800837D02*
G01*
X327577Y12586030D01*
X539470Y12374138D02*
G01*
X761834Y12151773D01*
X220533Y12800837D02*
G01*
X351996Y12669374D01*
X647233Y12374138D02*
G01*
X869935Y12151435D01*
X328296Y12800837D02*
G01*
X401232Y12727901D01*
X754996Y12374138D02*
G01*
X978036Y12151097D01*
X436059Y12800837D02*
G01*
X472491Y12764405D01*
X861965Y12374932D02*
G01*
X1086137Y12150759D01*
X543822Y12800837D02*
G01*
X572798Y12771861D01*
X944231Y12400429D02*
G01*
X1194238Y12150421D01*
X651585Y12800837D02*
G01*
X680562Y12771861D01*
X1002102Y12450321D02*
G01*
X1302339Y12150084D01*
X759348Y12800837D02*
G01*
X788325Y12771861D01*
X1037865Y12522321D02*
G01*
X1410440Y12149746D01*
X867111Y12800837D02*
G01*
X905277Y12762672D01*
X1035473Y12632476D02*
G01*
X1518541Y12149408D01*
X974874Y12800837D02*
G01*
X1626642Y12149070D01*
X1082637Y12800837D02*
G01*
X1734743Y12148732D01*
X1190400Y12800837D02*
G01*
X1842843Y12148395D01*
X1298164Y12800837D02*
G01*
X1950944Y12148057D01*
X1405927Y12800837D02*
G01*
X2059045Y12147719D01*
X1513690Y12800837D02*
G01*
X2167146Y12147381D01*
X1621453Y12800837D02*
G01*
X2275247Y12147044D01*
X1729216Y12800837D02*
G01*
X2383348Y12146706D01*
X1836979Y12800837D02*
G01*
X2491449Y12146368D01*
X1944742Y12800837D02*
G01*
X2599550Y12146030D01*
X2052505Y12800837D02*
G01*
X2707650Y12145692D01*
X2160268Y12800837D02*
G01*
X2815751Y12145354D01*
X2268031Y12800837D02*
G01*
X2923852Y12145017D01*
X2375794Y12800837D02*
G01*
X3031953Y12144679D01*
X2483557Y12800837D02*
G01*
X3140054Y12144341D01*
X2591320Y12800837D02*
G01*
X3248155Y12144003D01*
X2699084Y12800837D02*
G01*
X3356256Y12143665D01*
X2806847Y12800837D02*
G01*
X3464357Y12143328D01*
X2914610Y12800837D02*
G01*
X3572458Y12142990D01*
X3022373Y12800837D02*
G01*
X3680559Y12142652D01*
X3130136Y12800837D02*
G01*
X3788659Y12142314D01*
X3237899Y12800837D02*
G01*
X3896760Y12141976D01*
X3345662Y12800837D02*
G01*
X4004861Y12141638D01*
X3453425Y12800837D02*
G01*
X4025138Y12229125D01*
X3561188Y12800837D02*
G01*
X4025138Y12336888D01*
X3668951Y12800837D02*
G01*
X4025138Y12444651D01*
X3776714Y12800837D02*
G01*
X4025138Y12552414D01*
X3884477Y12800837D02*
G01*
X4025138Y12660177D01*
X3992240Y12800837D02*
G01*
X4025138Y12767940D01*
X3938815Y12141845D02*
G01*
X4025138Y12228167D01*
X3831388Y12142180D02*
G01*
X4025138Y12335930D01*
X3723960Y12142516D02*
G01*
X4025138Y12443693D01*
X3616533Y12142852D02*
G01*
X4025138Y12551456D01*
X3509106Y12143188D02*
G01*
X4025138Y12659220D01*
X3401678Y12143523D02*
G01*
X4025138Y12766983D01*
X3294251Y12143859D02*
G01*
X3951229Y12800837D01*
X3186823Y12144195D02*
G01*
X3843466Y12800837D01*
X3079396Y12144530D02*
G01*
X3735703Y12800837D01*
X2971969Y12144866D02*
G01*
X3627940Y12800837D01*
X2864541Y12145202D02*
G01*
X3520177Y12800837D01*
X2757114Y12145538D02*
G01*
X3412414Y12800837D01*
X2649687Y12145873D02*
G01*
X3304651Y12800837D01*
X2542259Y12146209D02*
G01*
X3196888Y12800837D01*
X2434832Y12146545D02*
G01*
X3089125Y12800837D01*
X2327405Y12146880D02*
G01*
X2981362Y12800837D01*
X2219977Y12147216D02*
G01*
X2873599Y12800837D01*
X2112550Y12147552D02*
G01*
X2765835Y12800837D01*
X2005122Y12147888D02*
G01*
X2658072Y12800837D01*
X1897695Y12148223D02*
G01*
X2550309Y12800837D01*
X1790268Y12148559D02*
G01*
X2442546Y12800837D01*
X1682840Y12148895D02*
G01*
X2334783Y12800837D01*
X1575413Y12149230D02*
G01*
X2227020Y12800837D01*
X1467986Y12149566D02*
G01*
X2119257Y12800837D01*
X1360558Y12149902D02*
G01*
X2011494Y12800837D01*
X1253131Y12150238D02*
G01*
X1903731Y12800837D01*
X1145704Y12150573D02*
G01*
X1795968Y12800837D01*
X1038276Y12150909D02*
G01*
X1688205Y12800837D01*
X930849Y12151245D02*
G01*
X1580442Y12800837D01*
X823421Y12151580D02*
G01*
X1472679Y12800837D01*
X715994Y12151916D02*
G01*
X1364915Y12800837D01*
X608567Y12152252D02*
G01*
X830453Y12374138D01*
X1043944Y12587629D02*
G01*
X1257152Y12800837D01*
X501139Y12152588D02*
G01*
X722690Y12374138D01*
X1018975Y12670423D02*
G01*
X1149389Y12800837D01*
X393712Y12152923D02*
G01*
X614927Y12374138D01*
X969404Y12728615D02*
G01*
X1041626Y12800837D01*
X286285Y12153259D02*
G01*
X508036Y12375010D01*
X897767Y12764741D02*
G01*
X933863Y12800837D01*
X178857Y12153595D02*
G01*
X426320Y12401057D01*
X797124Y12771861D02*
G01*
X826100Y12800837D01*
X71430Y12153930D02*
G01*
X368783Y12451283D01*
X689361Y12771861D02*
G01*
X718337Y12800837D01*
X38862Y12229125D02*
G01*
X333398Y12523662D01*
X581598Y12771861D02*
G01*
X610574Y12800837D01*
X38862Y12336888D02*
G01*
X337060Y12635087D01*
X463711Y12761738D02*
G01*
X502811Y12800837D01*
X38862Y12444651D02*
G01*
X395048Y12800837D01*
X38862Y12552414D02*
G01*
X287285Y12800837D01*
X38862Y12660177D02*
G01*
X179522Y12800837D01*
X38862Y12767940D02*
G01*
X71759Y12800837D01*
D11*
G01*
X685800Y12573000D03*
G01*
X3378200Y330200D03*
D12*
G01*
X2032000Y1346200D03*
M02*
