G04 Layer: TopPasteMaskLayer*
G04 EasyEDA v6.5.34, 2023-08-10 19:26:28*
G04 b0001c0d98ad43d6911fc97ed176d0b1,5a6b42c53f6a479593ecc07194224c93,10*
G04 Gerber Generator version 0.2*
G04 Scale: 100 percent, Rotated: No, Reflected: No *
G04 Dimensions in millimeters *
G04 leading zeros omitted , absolute positions ,4 integer and 5 decimal *
%FSLAX45Y45*%
%MOMM*%

%ADD10R,0.5500X0.5500*%
%ADD11R,0.8000X0.9000*%

%LPD*%
D10*
G01*
X10785576Y7623302D03*
G01*
X10880597Y7623302D03*
G01*
X10880597Y7718323D03*
G01*
X10785576Y7718323D03*
G01*
X17287976Y7623302D03*
G01*
X17382998Y7623302D03*
G01*
X17382998Y7718323D03*
G01*
X17287976Y7718323D03*
D11*
G01*
X17405502Y7848600D03*
G01*
X17265497Y7848600D03*
D10*
G01*
X16068776Y7623302D03*
G01*
X16163797Y7623302D03*
G01*
X16163797Y7718323D03*
G01*
X16068776Y7718323D03*
D11*
G01*
X16186302Y7848600D03*
G01*
X16046297Y7848600D03*
D10*
G01*
X13223976Y7623302D03*
G01*
X13318997Y7623302D03*
G01*
X13318997Y7718323D03*
G01*
X13223976Y7718323D03*
D11*
G01*
X13341502Y7848600D03*
G01*
X13201497Y7848600D03*
D10*
G01*
X12004776Y7623302D03*
G01*
X12099797Y7623302D03*
G01*
X12099797Y7718323D03*
G01*
X12004776Y7718323D03*
D11*
G01*
X12122302Y7848600D03*
G01*
X11982297Y7848600D03*
G01*
X10903102Y7848600D03*
G01*
X10763097Y7848600D03*
D10*
G01*
X9566376Y7623302D03*
G01*
X9661397Y7623302D03*
G01*
X9661397Y7718323D03*
G01*
X9566376Y7718323D03*
D11*
G01*
X9683902Y7848600D03*
G01*
X9543897Y7848600D03*
D10*
G01*
X8347176Y7623302D03*
G01*
X8442197Y7623302D03*
G01*
X8442197Y7718323D03*
G01*
X8347176Y7718323D03*
D11*
G01*
X8464702Y7848600D03*
G01*
X8324697Y7848600D03*
D10*
G01*
X7127976Y7623302D03*
G01*
X7222997Y7623302D03*
G01*
X7222997Y7718323D03*
G01*
X7127976Y7718323D03*
D11*
G01*
X7245502Y7848600D03*
G01*
X7105497Y7848600D03*
D10*
G01*
X5908776Y7623302D03*
G01*
X6003797Y7623302D03*
G01*
X6003797Y7718323D03*
G01*
X5908776Y7718323D03*
D11*
G01*
X6026302Y7848600D03*
G01*
X5886297Y7848600D03*
D10*
G01*
X4689576Y7623302D03*
G01*
X4784597Y7623302D03*
G01*
X4784597Y7718323D03*
G01*
X4689576Y7718323D03*
D11*
G01*
X4807102Y7848600D03*
G01*
X4667097Y7848600D03*
M02*
