G04 Layer: TopSolderMaskLayer*
G04 EasyEDA v6.5.34, 2023-08-15 01:36:41*
G04 4f68baccf90e46bd970f154785848b76,5a6b42c53f6a479593ecc07194224c93,10*
G04 Gerber Generator version 0.2*
G04 Scale: 100 percent, Rotated: No, Reflected: No *
G04 Dimensions in millimeters *
G04 leading zeros omitted , absolute positions ,4 integer and 5 decimal *
%FSLAX45Y45*%
%MOMM*%

%AMMACRO1*1,1,$1,$2,$3*1,1,$1,$4,$5*1,1,$1,0-$2,0-$3*1,1,$1,0-$4,0-$5*20,1,$1,$2,$3,$4,$5,0*20,1,$1,$4,$5,0-$2,0-$3,0*20,1,$1,0-$2,0-$3,0-$4,0-$5,0*20,1,$1,0-$4,0-$5,$2,$3,0*4,1,4,$2,$3,$4,$5,0-$2,0-$3,0-$4,0-$5,$2,$3,0*%
%ADD10MACRO1,0.1016X0.9X-0.9X0.9X0.9*%
%ADD11C,1.9016*%
%ADD12MACRO1,0.1016X-0.275X-0.275X-0.275X0.275*%
%ADD13MACRO1,0.1016X-0.266X0.536X0.266X0.536*%
%ADD14MACRO1,0.1016X0.3X-0.775X-0.3X-0.775*%
%ADD15MACRO1,0.1016X0.75X-1X-0.75X-1*%
%ADD16MACRO1,0.1016X-0.27X0.395X0.27X0.395*%
%ADD17MACRO1,0.1016X-0.27X-0.395X0.27X-0.395*%
%ADD18MACRO1,0.1016X0.27X-0.395X-0.27X-0.395*%
%ADD19MACRO1,0.1016X0.27X0.395X-0.27X0.395*%
%ADD20MACRO1,0.1016X-0.7X0.6X-0.7X-0.6*%
%ADD21MACRO1,0.1016X0.7X0.6X0.7X-0.6*%
%ADD22MACRO1,0.1016X0.7X-0.6X0.7X0.6*%
%ADD23MACRO1,0.1016X-0.7X-0.6X-0.7X0.6*%
%ADD24MACRO1,0.1016X-0.395X-0.27X-0.395X0.27*%
%ADD25MACRO1,0.1016X0.395X-0.27X0.395X0.27*%
%ADD26MACRO1,0.1X0.55X-0.1X-0.55X-0.1*%
%ADD27MACRO1,0.1X0.1X0.55X0.1X-0.55*%
%ADD28MACRO1,0.1X-0.55X0.1X0.55X0.1*%
%ADD29MACRO1,0.1X-0.1X-0.55X-0.1X0.55*%
%ADD30MACRO1,0.1X1.55X-1.55X-1.55X-1.55*%
%ADD31MACRO1,0.1016X0.3X-0.14X-0.3X-0.14*%
%ADD32MACRO1,0.1016X-0.15X0.85X0.15X0.85*%
%ADD33MACRO1,0.1016X0.395X0.27X0.395X-0.27*%
%ADD34MACRO1,0.1016X-0.395X0.27X-0.395X-0.27*%
%ADD35MACRO1,0.1016X1.7496X-0.7033X-1.7496X-0.7033*%
%ADD36MACRO1,0.1016X1.7496X0.7033X-1.7496X0.7033*%
%ADD37MACRO1,0.1016X-0.4X0.4X0.4X0.4*%
%ADD38MACRO1,0.1016X0.4X-0.4X-0.4X-0.4*%
%ADD39MACRO1,0.1016X-0.5663X0.6885X-0.5663X-0.6885*%
%ADD40MACRO1,0.1016X0.5663X0.6885X0.5663X-0.6885*%
%ADD41MACRO1,0.1016X0.6X-0.475X-0.6X-0.475*%
%ADD42MACRO1,0.1016X-1.2325X0.525X-1.2325X-0.525*%
%ADD43MACRO1,0.1016X-1.2325X-1.77X-1.2325X1.77*%
%ADD44MACRO1,0.1016X1.1038X1.296X1.1038X-1.296*%
%ADD45MACRO1,0.1016X-1.1038X1.296X-1.1038X-1.296*%
%ADD46MACRO1,0.1016X0.7033X1.7496X0.7033X-1.7496*%
%ADD47MACRO1,0.1016X-0.7033X1.7496X-0.7033X-1.7496*%
%ADD48MACRO1,0.1016X-0.432X0.4032X0.432X0.4032*%
%ADD49MACRO1,0.1016X-0.432X-0.4032X0.432X-0.4032*%
%ADD50MACRO1,0.1016X0.432X-0.4032X-0.432X-0.4032*%
%ADD51MACRO1,0.1016X0.432X0.4032X-0.432X0.4032*%
%ADD52MACRO1,0.1016X-0.4536X0.4366X0.4536X0.4366*%
%ADD53MACRO1,0.1016X-0.4536X-0.4366X0.4536X-0.4366*%
%ADD54O,0.6755891999999999X2.4896064*%
%ADD55MACRO1,0.1016X-0.4X0.45X0.4X0.45*%
%ADD56C,1.8532*%
%ADD57MACRO1,0.1016X0.4X-0.45X-0.4X-0.45*%
%ADD58MACRO1,0.1016X-0.275X-0.5X-0.275X0.5*%
%ADD59MACRO1,0.1016X-0.762X-1.143X-0.762X1.143*%
%ADD60MACRO1,0.1016X0.4X0.4X0.4X-0.4*%
%ADD61MACRO1,0.1016X0.275X-0.275X-0.275X-0.275*%
%ADD62MACRO1,0.1016X-0.3X0.14X0.3X0.14*%
%ADD63MACRO1,0.1016X0.15X-0.85X-0.15X-0.85*%
%ADD64MACRO1,0.1X-1.55X1.55X1.55X1.55*%
%ADD65MACRO1,0.1016X-0.4032X-0.432X-0.4032X0.432*%
%ADD66MACRO1,0.1016X0.4032X-0.432X0.4032X0.432*%
%ADD67C,1.5016*%
%ADD68MACRO1,0.1016X0.7X0.762X0.7X-0.762*%
%ADD69MACRO1,0.1016X0.85X-0.85X0.85X0.85*%
%ADD70C,1.8016*%
%ADD71MACRO1,0.1016X-0.9X-0.9X-0.9X0.9*%
%ADD72MACRO1,0.1016X-0.35X-0.625X-0.35X0.625*%
%ADD73MACRO1,0.1016X0.35X0.625X0.35X-0.625*%
%ADD74C,3.1016*%
%ADD75C,0.0189*%

%LPD*%
D10*
G01*
X16682887Y2946394D03*
D11*
G01*
X16936897Y2946400D03*
G01*
X16682897Y3200400D03*
G01*
X16936897Y3200400D03*
G01*
X16682897Y3454400D03*
G01*
X16936897Y3454400D03*
G01*
X16682897Y3708400D03*
G01*
X16936897Y3708400D03*
G01*
X16682897Y3962400D03*
G01*
X16936897Y3962400D03*
G01*
X16682897Y4216400D03*
G01*
X16936897Y4216400D03*
G01*
X16682897Y4470400D03*
G01*
X16936897Y4470400D03*
G01*
X16682897Y4724400D03*
G01*
X16936897Y4724400D03*
D12*
G01*
X33200494Y3920915D03*
G01*
X33295511Y3920915D03*
G01*
X33295516Y4015938D03*
G01*
X33200494Y4015936D03*
D13*
G01*
X34156904Y6120790D03*
G01*
X34251900Y6120790D03*
G01*
X34346896Y6120790D03*
G01*
X34346896Y6350609D03*
G01*
X34251900Y6350609D03*
G01*
X34156904Y6350609D03*
D14*
G01*
X34186799Y7616748D03*
G01*
X34086800Y7616748D03*
G01*
X33986800Y7616748D03*
D15*
G01*
X33856799Y8004248D03*
G01*
X34316798Y8004248D03*
D16*
G01*
X33540697Y2818053D03*
D17*
G01*
X33540697Y2927065D03*
D16*
G01*
X33655000Y2752194D03*
D17*
G01*
X33655000Y2861205D03*
D18*
G01*
X33439097Y2927065D03*
D19*
G01*
X33439097Y2818053D03*
D20*
G01*
X34196797Y4049748D03*
D21*
G01*
X33976797Y4049748D03*
D22*
G01*
X33976797Y3879745D03*
D23*
G01*
X34196797Y3879745D03*
D24*
G01*
X34471505Y3886200D03*
D25*
G01*
X34362494Y3886200D03*
D24*
G01*
X33785705Y4002857D03*
D25*
G01*
X33676694Y4002857D03*
D24*
G01*
X33785705Y3901257D03*
D25*
G01*
X33676694Y3901257D03*
D26*
G01*
X34238606Y3107852D03*
G01*
X34238606Y3147857D03*
G01*
X34238606Y3187862D03*
G01*
X34238606Y3227867D03*
G01*
X34238606Y3267847D03*
G01*
X34238606Y3307852D03*
G01*
X34238606Y3347857D03*
G01*
X34238606Y3387862D03*
G01*
X34238606Y3427867D03*
G01*
X34238606Y3467846D03*
G01*
X34238606Y3507851D03*
G01*
X34238606Y3547856D03*
G01*
X34238606Y3587861D03*
G01*
X34238606Y3627866D03*
D27*
G01*
X34143591Y3722855D03*
G01*
X34103612Y3722855D03*
G01*
X34063607Y3722855D03*
G01*
X34023602Y3722855D03*
G01*
X33983597Y3722855D03*
G01*
X33943592Y3722855D03*
G01*
X33903612Y3722855D03*
G01*
X33863607Y3722855D03*
G01*
X33823602Y3722855D03*
G01*
X33783597Y3722855D03*
G01*
X33743592Y3722855D03*
G01*
X33703613Y3722855D03*
G01*
X33663608Y3722855D03*
G01*
X33623603Y3722855D03*
D28*
G01*
X33528589Y3627866D03*
G01*
X33528589Y3587861D03*
G01*
X33528589Y3547856D03*
G01*
X33528589Y3507851D03*
G01*
X33528589Y3467846D03*
G01*
X33528589Y3427867D03*
G01*
X33528589Y3387862D03*
G01*
X33528589Y3347857D03*
G01*
X33528589Y3307852D03*
G01*
X33528589Y3267847D03*
G01*
X33528589Y3227867D03*
G01*
X33528589Y3187862D03*
G01*
X33528589Y3147857D03*
G01*
X33528589Y3107852D03*
D29*
G01*
X33623603Y3012864D03*
G01*
X33663608Y3012864D03*
G01*
X33703613Y3012864D03*
G01*
X33743592Y3012864D03*
G01*
X33783597Y3012864D03*
G01*
X33823602Y3012864D03*
G01*
X33863607Y3012864D03*
G01*
X33903612Y3012864D03*
G01*
X33943592Y3012864D03*
G01*
X33983597Y3012864D03*
G01*
X34023602Y3012864D03*
G01*
X34063607Y3012864D03*
G01*
X34103612Y3012864D03*
G01*
X34143591Y3012864D03*
D30*
G01*
X33883602Y3367854D03*
D24*
G01*
X33544405Y3799657D03*
D25*
G01*
X33435394Y3799657D03*
D31*
G01*
X34215461Y2909460D03*
G01*
X34215461Y2859448D03*
G01*
X34215461Y2809460D03*
G01*
X34215461Y2759448D03*
G01*
X34516943Y2909460D03*
G01*
X34516943Y2859448D03*
G01*
X34516943Y2809460D03*
G01*
X34516943Y2759448D03*
D32*
G01*
X34366205Y2834457D03*
D16*
G01*
X34429697Y3122853D03*
D17*
G01*
X34429697Y3231865D03*
D16*
G01*
X34531297Y3122853D03*
D17*
G01*
X34531297Y3231865D03*
D33*
G01*
X34387894Y3482157D03*
D34*
G01*
X34496905Y3482157D03*
D16*
G01*
X33883600Y2752194D03*
D17*
G01*
X33883600Y2861205D03*
D18*
G01*
X33769300Y2861205D03*
D19*
G01*
X33769300Y2752194D03*
D24*
G01*
X33379303Y3469459D03*
D25*
G01*
X33270291Y3469459D03*
D35*
G01*
X17043389Y2661826D03*
D36*
G01*
X17043389Y2291158D03*
D37*
G01*
X15374787Y4574405D03*
G01*
X15374787Y4744585D03*
D38*
G01*
X15374787Y3144387D03*
G01*
X15374787Y2974207D03*
D39*
G01*
X16665211Y2284594D03*
D40*
G01*
X16471958Y2284594D03*
D39*
G01*
X16670116Y5181588D03*
D40*
G01*
X16476863Y5181588D03*
D41*
G01*
X15865185Y5181592D03*
G01*
X16205189Y5181592D03*
G01*
X16233485Y2513197D03*
G01*
X16573489Y2513197D03*
D42*
G01*
X15724037Y3722491D03*
G01*
X15724037Y3492492D03*
G01*
X15724037Y3262492D03*
D43*
G01*
X16295537Y3492492D03*
D44*
G01*
X15633263Y2868797D03*
D45*
G01*
X16335512Y2868797D03*
D44*
G01*
X15625475Y4699000D03*
D45*
G01*
X16327724Y4699000D03*
D46*
G01*
X15887954Y4214995D03*
D47*
G01*
X16258621Y4214995D03*
D48*
G01*
X15374787Y4215870D03*
D49*
G01*
X15374787Y4366520D03*
D50*
G01*
X15374787Y3490222D03*
D51*
G01*
X15374787Y3339572D03*
D52*
G01*
X25692100Y7468943D03*
D53*
G01*
X25692100Y7593256D03*
D52*
G01*
X26911300Y7468943D03*
D53*
G01*
X26911300Y7593256D03*
D52*
G01*
X28130500Y7468943D03*
D53*
G01*
X28130500Y7593256D03*
D52*
G01*
X29349700Y7468943D03*
D53*
G01*
X29349700Y7593256D03*
D52*
G01*
X30568900Y7468943D03*
D53*
G01*
X30568900Y7593256D03*
D52*
G01*
X31788100Y7468943D03*
D53*
G01*
X31788100Y7593256D03*
D52*
G01*
X33007300Y7468943D03*
D53*
G01*
X33007300Y7593256D03*
D52*
G01*
X24472900Y7468943D03*
D53*
G01*
X24472900Y7593256D03*
D54*
G01*
X31026100Y1096695D03*
G01*
X30899100Y1096695D03*
G01*
X30772100Y1096695D03*
G01*
X30645100Y1096695D03*
G01*
X30518100Y1096695D03*
G01*
X30391100Y1096695D03*
G01*
X30264100Y1096695D03*
G01*
X30137100Y1096695D03*
G01*
X30010100Y1096695D03*
G01*
X29883100Y1096695D03*
G01*
X29756100Y1096695D03*
G01*
X29629100Y1096695D03*
G01*
X29502100Y1096695D03*
G01*
X29375100Y1096695D03*
G01*
X31026100Y147904D03*
G01*
X30899100Y147904D03*
G01*
X30772100Y147904D03*
G01*
X30645100Y147904D03*
G01*
X30518100Y147904D03*
G01*
X30391100Y147904D03*
G01*
X30264100Y147904D03*
G01*
X30137100Y147904D03*
G01*
X30010100Y147904D03*
G01*
X29883100Y147904D03*
G01*
X29756100Y147904D03*
G01*
X29629100Y147904D03*
G01*
X29502100Y147904D03*
G01*
X29375100Y147904D03*
D55*
G01*
X30016599Y1397000D03*
G01*
X29876600Y1397000D03*
D56*
G01*
X27901900Y-1854200D03*
G01*
X27251888Y-1854200D03*
G01*
X27901900Y-1404188D03*
G01*
X27251888Y-1404188D03*
G01*
X27576907Y-1269212D03*
G01*
X27936901Y-1629206D03*
G01*
X27597100Y-1981200D03*
G01*
X27216100Y-1625600D03*
G01*
X26682700Y-1854200D03*
G01*
X26032688Y-1854200D03*
G01*
X26682700Y-1404188D03*
G01*
X26032688Y-1404188D03*
G01*
X26357707Y-1269212D03*
G01*
X26717701Y-1629206D03*
G01*
X26377900Y-1981200D03*
G01*
X25996900Y-1625600D03*
G01*
X25463500Y-1854200D03*
G01*
X24813488Y-1854200D03*
G01*
X25463500Y-1404188D03*
G01*
X24813488Y-1404188D03*
G01*
X25138506Y-1269212D03*
G01*
X25498501Y-1629206D03*
G01*
X25158700Y-1981200D03*
G01*
X24777700Y-1625600D03*
G01*
X24244300Y-1854200D03*
G01*
X23594288Y-1854200D03*
G01*
X24244300Y-1404188D03*
G01*
X23594288Y-1404188D03*
G01*
X23919306Y-1269212D03*
G01*
X24279301Y-1629206D03*
G01*
X23939500Y-1981200D03*
G01*
X23558500Y-1625600D03*
D50*
G01*
X27686000Y-864475D03*
D51*
G01*
X27686000Y-1015124D03*
D50*
G01*
X27533600Y-864475D03*
D51*
G01*
X27533600Y-1015124D03*
D50*
G01*
X26314400Y-864475D03*
D51*
G01*
X26314400Y-1015124D03*
D50*
G01*
X26466800Y-864475D03*
D51*
G01*
X26466800Y-1015124D03*
D50*
G01*
X25247600Y-864475D03*
D51*
G01*
X25247600Y-1015124D03*
D50*
G01*
X25095200Y-864475D03*
D51*
G01*
X25095200Y-1015124D03*
D50*
G01*
X24028400Y-864475D03*
D51*
G01*
X24028400Y-1015124D03*
D50*
G01*
X23876000Y-864475D03*
D51*
G01*
X23876000Y-1015124D03*
D56*
G01*
X32778700Y-1854200D03*
G01*
X32128688Y-1854200D03*
G01*
X32778700Y-1404188D03*
G01*
X32128688Y-1404188D03*
G01*
X32453707Y-1269212D03*
G01*
X32813701Y-1629206D03*
G01*
X32473900Y-1981200D03*
G01*
X32092900Y-1625600D03*
G01*
X31559500Y-1854200D03*
G01*
X30909488Y-1854200D03*
G01*
X31559500Y-1404188D03*
G01*
X30909488Y-1404188D03*
G01*
X31234507Y-1269212D03*
G01*
X31594501Y-1629206D03*
G01*
X31254700Y-1981200D03*
G01*
X30873700Y-1625600D03*
G01*
X30340300Y-1854200D03*
G01*
X29690288Y-1854200D03*
G01*
X30340300Y-1404188D03*
G01*
X29690288Y-1404188D03*
G01*
X30015307Y-1269212D03*
G01*
X30375301Y-1629206D03*
G01*
X30035500Y-1981200D03*
G01*
X29654500Y-1625600D03*
G01*
X29121100Y-1854200D03*
G01*
X28471088Y-1854200D03*
G01*
X29121100Y-1404188D03*
G01*
X28471088Y-1404188D03*
G01*
X28796107Y-1269212D03*
G01*
X29156101Y-1629206D03*
G01*
X28816300Y-1981200D03*
G01*
X28435300Y-1625600D03*
D50*
G01*
X32562800Y-864475D03*
D51*
G01*
X32562800Y-1015124D03*
D50*
G01*
X32410400Y-864475D03*
D51*
G01*
X32410400Y-1015124D03*
D50*
G01*
X31343600Y-864475D03*
D51*
G01*
X31343600Y-1015124D03*
D50*
G01*
X31191200Y-864475D03*
D51*
G01*
X31191200Y-1015124D03*
D50*
G01*
X30124400Y-864475D03*
D51*
G01*
X30124400Y-1015124D03*
D50*
G01*
X29972000Y-864475D03*
D51*
G01*
X29972000Y-1015124D03*
D50*
G01*
X28905200Y-864475D03*
D51*
G01*
X28905200Y-1015124D03*
D50*
G01*
X28752800Y-864475D03*
D51*
G01*
X28752800Y-1015124D03*
D54*
G01*
X26149300Y1096695D03*
G01*
X26022300Y1096695D03*
G01*
X25895300Y1096695D03*
G01*
X25768300Y1096695D03*
G01*
X25641300Y1096695D03*
G01*
X25514300Y1096695D03*
G01*
X25387300Y1096695D03*
G01*
X25260300Y1096695D03*
G01*
X25133300Y1096695D03*
G01*
X25006300Y1096695D03*
G01*
X24879300Y1096695D03*
G01*
X24752300Y1096695D03*
G01*
X24625300Y1096695D03*
G01*
X24498300Y1096695D03*
G01*
X26149300Y147904D03*
G01*
X26022300Y147904D03*
G01*
X25895300Y147904D03*
G01*
X25768300Y147904D03*
G01*
X25641300Y147904D03*
G01*
X25514300Y147904D03*
G01*
X25387300Y147904D03*
G01*
X25260300Y147904D03*
G01*
X25133300Y147904D03*
G01*
X25006300Y147904D03*
G01*
X24879300Y147904D03*
G01*
X24752300Y147904D03*
G01*
X24625300Y147904D03*
G01*
X24498300Y147904D03*
D55*
G01*
X25139799Y1397000D03*
G01*
X24999800Y1397000D03*
D54*
G01*
X42405300Y1096695D03*
G01*
X42278300Y1096695D03*
G01*
X42151300Y1096695D03*
G01*
X42024300Y1096695D03*
G01*
X41897300Y1096695D03*
G01*
X41770300Y1096695D03*
G01*
X41643300Y1096695D03*
G01*
X41516300Y1096695D03*
G01*
X41389300Y1096695D03*
G01*
X41262300Y1096695D03*
G01*
X41135300Y1096695D03*
G01*
X41008300Y1096695D03*
G01*
X40881300Y1096695D03*
G01*
X40754300Y1096695D03*
G01*
X42405300Y147904D03*
G01*
X42278300Y147904D03*
G01*
X42151300Y147904D03*
G01*
X42024300Y147904D03*
G01*
X41897300Y147904D03*
G01*
X41770300Y147904D03*
G01*
X41643300Y147904D03*
G01*
X41516300Y147904D03*
G01*
X41389300Y147904D03*
G01*
X41262300Y147904D03*
G01*
X41135300Y147904D03*
G01*
X41008300Y147904D03*
G01*
X40881300Y147904D03*
G01*
X40754300Y147904D03*
D55*
G01*
X41395799Y1397000D03*
G01*
X41255800Y1397000D03*
D56*
G01*
X39281100Y-1854200D03*
G01*
X38631088Y-1854200D03*
G01*
X39281100Y-1404188D03*
G01*
X38631088Y-1404188D03*
G01*
X38956107Y-1269212D03*
G01*
X39316101Y-1629206D03*
G01*
X38976300Y-1981200D03*
G01*
X38595300Y-1625600D03*
G01*
X38061900Y-1854200D03*
G01*
X37411888Y-1854200D03*
G01*
X38061900Y-1404188D03*
G01*
X37411888Y-1404188D03*
G01*
X37736907Y-1269212D03*
G01*
X38096901Y-1629206D03*
G01*
X37757100Y-1981200D03*
G01*
X37376100Y-1625600D03*
G01*
X36842700Y-1854200D03*
G01*
X36192688Y-1854200D03*
G01*
X36842700Y-1404188D03*
G01*
X36192688Y-1404188D03*
G01*
X36517707Y-1269212D03*
G01*
X36877701Y-1629206D03*
G01*
X36537900Y-1981200D03*
G01*
X36156900Y-1625600D03*
G01*
X35623500Y-1854200D03*
G01*
X34973488Y-1854200D03*
G01*
X35623500Y-1404188D03*
G01*
X34973488Y-1404188D03*
G01*
X35298507Y-1269212D03*
G01*
X35658501Y-1629206D03*
G01*
X35318700Y-1981200D03*
G01*
X34937700Y-1625600D03*
D50*
G01*
X39065200Y-864475D03*
D51*
G01*
X39065200Y-1015124D03*
D50*
G01*
X38912800Y-864475D03*
D51*
G01*
X38912800Y-1015124D03*
D50*
G01*
X37693600Y-864475D03*
D51*
G01*
X37693600Y-1015124D03*
D50*
G01*
X37846000Y-864475D03*
D51*
G01*
X37846000Y-1015124D03*
D50*
G01*
X36626800Y-864475D03*
D51*
G01*
X36626800Y-1015124D03*
D50*
G01*
X36474400Y-864475D03*
D51*
G01*
X36474400Y-1015124D03*
D50*
G01*
X35407600Y-864475D03*
D51*
G01*
X35407600Y-1015124D03*
D50*
G01*
X35255200Y-864475D03*
D51*
G01*
X35255200Y-1015124D03*
D56*
G01*
X44157900Y-1854200D03*
G01*
X43507888Y-1854200D03*
G01*
X44157900Y-1404188D03*
G01*
X43507888Y-1404188D03*
G01*
X43832907Y-1269212D03*
G01*
X44192901Y-1629206D03*
G01*
X43853100Y-1981200D03*
G01*
X43472100Y-1625600D03*
G01*
X42938700Y-1854200D03*
G01*
X42288688Y-1854200D03*
G01*
X42938700Y-1404188D03*
G01*
X42288688Y-1404188D03*
G01*
X42613707Y-1269212D03*
G01*
X42973701Y-1629206D03*
G01*
X42633900Y-1981200D03*
G01*
X42252900Y-1625600D03*
G01*
X41719500Y-1854200D03*
G01*
X41069488Y-1854200D03*
G01*
X41719500Y-1404188D03*
G01*
X41069488Y-1404188D03*
G01*
X41394507Y-1269212D03*
G01*
X41754501Y-1629206D03*
G01*
X41414700Y-1981200D03*
G01*
X41033700Y-1625600D03*
G01*
X40500300Y-1854200D03*
G01*
X39850288Y-1854200D03*
G01*
X40500300Y-1404188D03*
G01*
X39850288Y-1404188D03*
G01*
X40175307Y-1269212D03*
G01*
X40535301Y-1629206D03*
G01*
X40195500Y-1981200D03*
G01*
X39814500Y-1625600D03*
D50*
G01*
X43942000Y-864475D03*
D51*
G01*
X43942000Y-1015124D03*
D50*
G01*
X43789600Y-864475D03*
D51*
G01*
X43789600Y-1015124D03*
D50*
G01*
X42722800Y-864475D03*
D51*
G01*
X42722800Y-1015124D03*
D50*
G01*
X42570400Y-864475D03*
D51*
G01*
X42570400Y-1015124D03*
D50*
G01*
X41503600Y-864475D03*
D51*
G01*
X41503600Y-1015124D03*
D50*
G01*
X41351200Y-864475D03*
D51*
G01*
X41351200Y-1015124D03*
D50*
G01*
X40284400Y-864475D03*
D51*
G01*
X40284400Y-1015124D03*
D50*
G01*
X40132000Y-864475D03*
D51*
G01*
X40132000Y-1015124D03*
D54*
G01*
X37528500Y1096695D03*
G01*
X37401500Y1096695D03*
G01*
X37274500Y1096695D03*
G01*
X37147500Y1096695D03*
G01*
X37020500Y1096695D03*
G01*
X36893500Y1096695D03*
G01*
X36766500Y1096695D03*
G01*
X36639500Y1096695D03*
G01*
X36512500Y1096695D03*
G01*
X36385500Y1096695D03*
G01*
X36258500Y1096695D03*
G01*
X36131500Y1096695D03*
G01*
X36004500Y1096695D03*
G01*
X35877500Y1096695D03*
G01*
X37528500Y147904D03*
G01*
X37401500Y147904D03*
G01*
X37274500Y147904D03*
G01*
X37147500Y147904D03*
G01*
X37020500Y147904D03*
G01*
X36893500Y147904D03*
G01*
X36766500Y147904D03*
G01*
X36639500Y147904D03*
G01*
X36512500Y147904D03*
G01*
X36385500Y147904D03*
G01*
X36258500Y147904D03*
G01*
X36131500Y147904D03*
G01*
X36004500Y147904D03*
G01*
X35877500Y147904D03*
D55*
G01*
X36518999Y1397000D03*
G01*
X36379000Y1397000D03*
D57*
G01*
X18243400Y6159500D03*
G01*
X18383399Y6159500D03*
D58*
G01*
X18243796Y6680502D03*
G01*
X18338792Y6680502D03*
G01*
X18433788Y6680502D03*
G01*
X18433788Y6400492D03*
G01*
X18338792Y6400492D03*
G01*
X18243796Y6400492D03*
D59*
G01*
X20002500Y1886597D03*
G01*
X20002500Y2761602D03*
G01*
X20256500Y2761602D03*
G01*
X20256500Y1886597D03*
G01*
X20510500Y1886597D03*
G01*
X20510500Y2761602D03*
G01*
X20764500Y2761602D03*
G01*
X20764500Y1886597D03*
D56*
G01*
X19392900Y-1854200D03*
G01*
X18742888Y-1854200D03*
G01*
X19392900Y-1404188D03*
G01*
X18742888Y-1404188D03*
G01*
X19067906Y-1269212D03*
G01*
X19427901Y-1629206D03*
G01*
X19088100Y-1981200D03*
G01*
X18707100Y-1625600D03*
G01*
X20586700Y-1282700D03*
G01*
X19936688Y-1282700D03*
G01*
X20586700Y-832688D03*
G01*
X19936688Y-832688D03*
G01*
X20261706Y-697712D03*
G01*
X20621701Y-1057706D03*
G01*
X20281900Y-1409700D03*
G01*
X19900900Y-1054100D03*
G01*
X20586700Y-2463800D03*
G01*
X19936688Y-2463800D03*
G01*
X20586700Y-2013788D03*
G01*
X19936688Y-2013788D03*
G01*
X20261706Y-1878812D03*
G01*
X20621701Y-2238806D03*
G01*
X20281900Y-2590800D03*
G01*
X19900900Y-2235200D03*
G01*
X21767800Y-1854200D03*
G01*
X21117788Y-1854200D03*
G01*
X21767800Y-1404188D03*
G01*
X21117788Y-1404188D03*
G01*
X21442806Y-1269212D03*
G01*
X21802801Y-1629206D03*
G01*
X21463000Y-1981200D03*
G01*
X21082000Y-1625600D03*
D54*
G01*
X21018500Y1096695D03*
G01*
X20891500Y1096695D03*
G01*
X20764500Y1096695D03*
G01*
X20637500Y1096695D03*
G01*
X20510500Y1096695D03*
G01*
X20383500Y1096695D03*
G01*
X20256500Y1096695D03*
G01*
X20129500Y1096695D03*
G01*
X20002500Y1096695D03*
G01*
X19875500Y1096695D03*
G01*
X19748500Y1096695D03*
G01*
X19621500Y1096695D03*
G01*
X19494500Y1096695D03*
G01*
X19367500Y1096695D03*
G01*
X21018500Y147904D03*
G01*
X20891500Y147904D03*
G01*
X20764500Y147904D03*
G01*
X20637500Y147904D03*
G01*
X20510500Y147904D03*
G01*
X20383500Y147904D03*
G01*
X20256500Y147904D03*
G01*
X20129500Y147904D03*
G01*
X20002500Y147904D03*
G01*
X19875500Y147904D03*
G01*
X19748500Y147904D03*
G01*
X19621500Y147904D03*
G01*
X19494500Y147904D03*
G01*
X19367500Y147904D03*
D55*
G01*
X20008999Y1397000D03*
G01*
X19869000Y1397000D03*
D50*
G01*
X19024600Y-864475D03*
D51*
G01*
X19024600Y-1015124D03*
D50*
G01*
X19177000Y-864475D03*
D51*
G01*
X19177000Y-1015124D03*
D50*
G01*
X20078700Y-292975D03*
D51*
G01*
X20078700Y-443624D03*
D50*
G01*
X20218400Y-292975D03*
D51*
G01*
X20218400Y-443624D03*
D50*
G01*
X20370800Y-292975D03*
D51*
G01*
X20370800Y-443624D03*
D50*
G01*
X20510500Y-292975D03*
D51*
G01*
X20510500Y-443624D03*
D50*
G01*
X21399500Y-864475D03*
D51*
G01*
X21399500Y-1015124D03*
D50*
G01*
X21551900Y-864475D03*
D51*
G01*
X21551900Y-1015124D03*
D60*
G01*
X18964910Y4813300D03*
G01*
X19135089Y4813300D03*
D14*
G01*
X19607199Y7616748D03*
G01*
X19507200Y7616748D03*
G01*
X19407200Y7616748D03*
D15*
G01*
X19277199Y8004248D03*
G01*
X19737198Y8004248D03*
D61*
G01*
X19148304Y5324574D03*
G01*
X19148304Y5419590D03*
G01*
X19053281Y5419595D03*
G01*
X19053282Y5324574D03*
D24*
G01*
X18926705Y5422900D03*
D25*
G01*
X18817694Y5422900D03*
D24*
G01*
X19129905Y5702300D03*
D25*
G01*
X19020894Y5702300D03*
D18*
G01*
X19037302Y6087000D03*
D19*
G01*
X19037302Y5977989D03*
D18*
G01*
X19138902Y6087000D03*
D19*
G01*
X19138902Y5977989D03*
D62*
G01*
X19289641Y6224196D03*
G01*
X19289641Y6274208D03*
G01*
X19289641Y6324196D03*
G01*
X19289641Y6374208D03*
G01*
X18988158Y6224196D03*
G01*
X18988158Y6274208D03*
G01*
X18988158Y6324196D03*
G01*
X18988158Y6374208D03*
D63*
G01*
X19138897Y6299200D03*
D33*
G01*
X20151194Y5715000D03*
D34*
G01*
X20260205Y5715000D03*
D33*
G01*
X19973394Y5372100D03*
D34*
G01*
X20082405Y5372100D03*
D24*
G01*
X19777605Y6388100D03*
D25*
G01*
X19668594Y6388100D03*
D28*
G01*
X19279193Y6076604D03*
G01*
X19279193Y6036599D03*
G01*
X19279193Y5996594D03*
G01*
X19279193Y5956589D03*
G01*
X19279193Y5916609D03*
G01*
X19279193Y5876604D03*
G01*
X19279193Y5836599D03*
G01*
X19279193Y5796594D03*
G01*
X19279193Y5756589D03*
G01*
X19279193Y5716610D03*
G01*
X19279193Y5676605D03*
G01*
X19279193Y5636600D03*
G01*
X19279193Y5596595D03*
G01*
X19279193Y5556590D03*
D29*
G01*
X19374208Y5461601D03*
G01*
X19414187Y5461601D03*
G01*
X19454192Y5461601D03*
G01*
X19494197Y5461601D03*
G01*
X19534202Y5461601D03*
G01*
X19574207Y5461601D03*
G01*
X19614187Y5461601D03*
G01*
X19654192Y5461601D03*
G01*
X19694197Y5461601D03*
G01*
X19734202Y5461601D03*
G01*
X19774207Y5461601D03*
G01*
X19814186Y5461601D03*
G01*
X19854191Y5461601D03*
G01*
X19894196Y5461601D03*
D26*
G01*
X19989210Y5556590D03*
G01*
X19989210Y5596595D03*
G01*
X19989210Y5636600D03*
G01*
X19989210Y5676605D03*
G01*
X19989210Y5716610D03*
G01*
X19989210Y5756589D03*
G01*
X19989210Y5796594D03*
G01*
X19989210Y5836599D03*
G01*
X19989210Y5876604D03*
G01*
X19989210Y5916609D03*
G01*
X19989210Y5956589D03*
G01*
X19989210Y5996594D03*
G01*
X19989210Y6036599D03*
G01*
X19989210Y6076604D03*
D27*
G01*
X19894196Y6171592D03*
G01*
X19854191Y6171592D03*
G01*
X19814186Y6171592D03*
G01*
X19774207Y6171592D03*
G01*
X19734202Y6171592D03*
G01*
X19694197Y6171592D03*
G01*
X19654192Y6171592D03*
G01*
X19614187Y6171592D03*
G01*
X19574207Y6171592D03*
G01*
X19534202Y6171592D03*
G01*
X19494197Y6171592D03*
G01*
X19454192Y6171592D03*
G01*
X19414187Y6171592D03*
G01*
X19374208Y6171592D03*
D64*
G01*
X19634197Y5816602D03*
D33*
G01*
X19732094Y5283200D03*
D34*
G01*
X19841105Y5283200D03*
D33*
G01*
X19732094Y5181600D03*
D34*
G01*
X19841105Y5181600D03*
D33*
G01*
X19008196Y5194297D03*
D34*
G01*
X19117208Y5194297D03*
D22*
G01*
X19321002Y5134709D03*
D23*
G01*
X19541002Y5134709D03*
D20*
G01*
X19541002Y5304711D03*
D21*
G01*
X19321002Y5304711D03*
D16*
G01*
X20078700Y6270094D03*
D17*
G01*
X20078700Y6379105D03*
D33*
G01*
X19668594Y6286500D03*
D34*
G01*
X19777605Y6286500D03*
D18*
G01*
X19977100Y6379105D03*
D19*
G01*
X19977100Y6270094D03*
D13*
G01*
X19412204Y6946290D03*
G01*
X19507200Y6946290D03*
G01*
X19602195Y6946290D03*
G01*
X19602195Y7176109D03*
G01*
X19507200Y7176109D03*
G01*
X19412204Y7176109D03*
D65*
G01*
X19125324Y5003800D03*
D66*
G01*
X18974675Y5003800D03*
D14*
G01*
X21308999Y7616748D03*
G01*
X21209000Y7616748D03*
G01*
X21109000Y7616748D03*
D15*
G01*
X20978999Y8004248D03*
G01*
X21438998Y8004248D03*
D13*
G01*
X21114004Y6946290D03*
G01*
X21209000Y6946290D03*
G01*
X21303995Y6946290D03*
G01*
X21303995Y7176109D03*
G01*
X21209000Y7176109D03*
G01*
X21114004Y7176109D03*
D54*
G01*
X11518900Y1096695D03*
G01*
X11391900Y1096695D03*
G01*
X11264900Y1096695D03*
G01*
X11137900Y1096695D03*
G01*
X11010900Y1096695D03*
G01*
X10883900Y1096695D03*
G01*
X10756900Y1096695D03*
G01*
X10629900Y1096695D03*
G01*
X10502900Y1096695D03*
G01*
X10375900Y1096695D03*
G01*
X10248900Y1096695D03*
G01*
X10121900Y1096695D03*
G01*
X9994900Y1096695D03*
G01*
X9867900Y1096695D03*
G01*
X11518900Y147904D03*
G01*
X11391900Y147904D03*
G01*
X11264900Y147904D03*
G01*
X11137900Y147904D03*
G01*
X11010900Y147904D03*
G01*
X10883900Y147904D03*
G01*
X10756900Y147904D03*
G01*
X10629900Y147904D03*
G01*
X10502900Y147904D03*
G01*
X10375900Y147904D03*
G01*
X10248900Y147904D03*
G01*
X10121900Y147904D03*
G01*
X9994900Y147904D03*
G01*
X9867900Y147904D03*
D52*
G01*
X4965700Y7468943D03*
D53*
G01*
X4965700Y7593256D03*
D52*
G01*
X6184900Y7468943D03*
D53*
G01*
X6184900Y7593256D03*
D52*
G01*
X7404100Y7468943D03*
D53*
G01*
X7404100Y7593256D03*
D52*
G01*
X8623300Y7468943D03*
D53*
G01*
X8623300Y7593256D03*
D55*
G01*
X10509399Y1397000D03*
G01*
X10369400Y1397000D03*
D52*
G01*
X9842500Y7468943D03*
D53*
G01*
X9842500Y7593256D03*
D52*
G01*
X11061700Y7468943D03*
D53*
G01*
X11061700Y7593256D03*
D52*
G01*
X12280900Y7468943D03*
D53*
G01*
X12280900Y7593256D03*
D52*
G01*
X13500100Y7468943D03*
D53*
G01*
X13500100Y7593256D03*
D67*
G01*
X14376400Y5910300D03*
G01*
X14376400Y6110300D03*
G01*
X14376400Y6310299D03*
D68*
G01*
X14376400Y6510299D03*
D67*
G01*
X45466000Y5910300D03*
G01*
X45466000Y6110300D03*
G01*
X45466000Y6310299D03*
D68*
G01*
X45466000Y6510299D03*
D69*
G01*
X22114156Y7314288D03*
D70*
G01*
X22114151Y7060290D03*
G01*
X22114151Y6806290D03*
G01*
X22114151Y6552290D03*
G01*
X22114151Y6298290D03*
G01*
X22114151Y6044290D03*
G01*
X22114151Y5790290D03*
G01*
X22114151Y5536290D03*
D56*
G01*
X4419600Y7459598D03*
G01*
X4419600Y6609613D03*
G01*
X4419600Y6309588D03*
G01*
X5638800Y7459598D03*
G01*
X5638800Y6609613D03*
G01*
X5638800Y6309588D03*
G01*
X6858000Y7459598D03*
G01*
X6858000Y6609613D03*
G01*
X6858000Y6309588D03*
G01*
X8077200Y7459598D03*
G01*
X8077200Y6609613D03*
G01*
X8077200Y6309588D03*
G01*
X9296400Y7459598D03*
G01*
X9296400Y6609613D03*
G01*
X9296400Y6309588D03*
G01*
X10515600Y7459598D03*
G01*
X10515600Y6609613D03*
G01*
X10515600Y6309588D03*
G01*
X11734800Y7459598D03*
G01*
X11734800Y6609613D03*
G01*
X11734800Y6309588D03*
G01*
X12954000Y7459598D03*
G01*
X12954000Y6609613D03*
G01*
X12954000Y6309588D03*
G01*
X15798800Y7459598D03*
G01*
X15798800Y6609613D03*
G01*
X15798800Y6309588D03*
G01*
X17018000Y7459598D03*
G01*
X17018000Y6609613D03*
G01*
X17018000Y6309588D03*
G01*
X23926800Y7459598D03*
G01*
X23926800Y6609613D03*
G01*
X23926800Y6309588D03*
G01*
X25146000Y7459598D03*
G01*
X25146000Y6609613D03*
G01*
X25146000Y6309588D03*
G01*
X26365200Y7459598D03*
G01*
X26365200Y6609613D03*
G01*
X26365200Y6309588D03*
G01*
X27584400Y7459598D03*
G01*
X27584400Y6609613D03*
G01*
X27584400Y6309588D03*
G01*
X28803600Y7459598D03*
G01*
X28803600Y6609613D03*
G01*
X28803600Y6309588D03*
G01*
X30022800Y7459598D03*
G01*
X30022800Y6609613D03*
G01*
X30022800Y6309588D03*
G01*
X31242000Y7459598D03*
G01*
X31242000Y6609613D03*
G01*
X31242000Y6309588D03*
G01*
X32461200Y7459598D03*
G01*
X32461200Y6609613D03*
G01*
X32461200Y6309588D03*
G01*
X23926800Y5935598D03*
G01*
X23926800Y5085613D03*
G01*
X23926800Y4785588D03*
G01*
X25146000Y5935598D03*
G01*
X25146000Y5085613D03*
G01*
X25146000Y4785588D03*
G01*
X26365200Y5935598D03*
G01*
X26365200Y5085613D03*
G01*
X26365200Y4785588D03*
G01*
X27584400Y5935598D03*
G01*
X27584400Y5085613D03*
G01*
X27584400Y4785588D03*
G01*
X28803600Y5935598D03*
G01*
X28803600Y5085613D03*
G01*
X28803600Y4785588D03*
G01*
X30022800Y5935598D03*
G01*
X30022800Y5085613D03*
G01*
X30022800Y4785588D03*
G01*
X31242000Y5935598D03*
G01*
X31242000Y5085613D03*
G01*
X31242000Y4785588D03*
G01*
X32461200Y5935598D03*
G01*
X32461200Y5085613D03*
G01*
X32461200Y4785588D03*
G01*
X35306000Y7459598D03*
G01*
X35306000Y6609613D03*
G01*
X35306000Y6309588D03*
G01*
X36525200Y7459598D03*
G01*
X36525200Y6609613D03*
G01*
X36525200Y6309588D03*
G01*
X37744400Y7459598D03*
G01*
X37744400Y6609613D03*
G01*
X37744400Y6309588D03*
G01*
X38963600Y7459598D03*
G01*
X38963600Y6609613D03*
G01*
X38963600Y6309588D03*
G01*
X40182800Y7459598D03*
G01*
X40182800Y6609613D03*
G01*
X40182800Y6309588D03*
G01*
X41402000Y7459598D03*
G01*
X41402000Y6609613D03*
G01*
X41402000Y6309588D03*
G01*
X42621200Y7459598D03*
G01*
X42621200Y6609613D03*
G01*
X42621200Y6309588D03*
G01*
X43840400Y7459598D03*
G01*
X43840400Y6609613D03*
G01*
X43840400Y6309588D03*
G01*
X35306000Y5935598D03*
G01*
X35306000Y5085613D03*
G01*
X35306000Y4785588D03*
G01*
X36525200Y5935598D03*
G01*
X36525200Y5085613D03*
G01*
X36525200Y4785588D03*
G01*
X37744400Y5935598D03*
G01*
X37744400Y5085613D03*
G01*
X37744400Y4785588D03*
G01*
X38963600Y5935598D03*
G01*
X38963600Y5085613D03*
G01*
X38963600Y4785588D03*
G01*
X40182800Y5935598D03*
G01*
X40182800Y5085613D03*
G01*
X40182800Y4785588D03*
G01*
X41402000Y5935598D03*
G01*
X41402000Y5085613D03*
G01*
X41402000Y4785588D03*
G01*
X42621200Y5935598D03*
G01*
X42621200Y5085613D03*
G01*
X42621200Y4785588D03*
G01*
X43840400Y5935598D03*
G01*
X43840400Y5085613D03*
G01*
X43840400Y4785588D03*
D71*
G01*
X45466010Y1333494D03*
D11*
G01*
X45466025Y1587500D03*
G01*
X45466025Y1841500D03*
G01*
X45466025Y2095500D03*
G01*
X45466025Y2349500D03*
G01*
X45466025Y2603500D03*
G01*
X45466025Y2857500D03*
G01*
X45466025Y3111500D03*
D56*
G01*
X8394700Y-1854200D03*
G01*
X7744688Y-1854200D03*
G01*
X8394700Y-1404188D03*
G01*
X7744688Y-1404188D03*
G01*
X8069706Y-1269212D03*
G01*
X8429701Y-1629206D03*
G01*
X8089900Y-1981200D03*
G01*
X7708900Y-1625600D03*
G01*
X7175500Y-1854200D03*
G01*
X6525488Y-1854200D03*
G01*
X7175500Y-1404188D03*
G01*
X6525488Y-1404188D03*
G01*
X6850506Y-1269212D03*
G01*
X7210501Y-1629206D03*
G01*
X6870700Y-1981200D03*
G01*
X6489700Y-1625600D03*
G01*
X5956300Y-1854200D03*
G01*
X5306288Y-1854200D03*
G01*
X5956300Y-1404188D03*
G01*
X5306288Y-1404188D03*
G01*
X5631306Y-1269212D03*
G01*
X5991301Y-1629206D03*
G01*
X5651500Y-1981200D03*
G01*
X5270500Y-1625600D03*
G01*
X4737100Y-1854200D03*
G01*
X4087088Y-1854200D03*
G01*
X4737100Y-1404188D03*
G01*
X4087088Y-1404188D03*
G01*
X4412106Y-1269212D03*
G01*
X4772101Y-1629206D03*
G01*
X4432300Y-1981200D03*
G01*
X4051300Y-1625600D03*
D50*
G01*
X8178800Y-864475D03*
D51*
G01*
X8178800Y-1015124D03*
D50*
G01*
X8026400Y-864475D03*
D51*
G01*
X8026400Y-1015124D03*
D50*
G01*
X6807200Y-864475D03*
D51*
G01*
X6807200Y-1015124D03*
D50*
G01*
X6959600Y-864475D03*
D51*
G01*
X6959600Y-1015124D03*
D50*
G01*
X5740400Y-864475D03*
D51*
G01*
X5740400Y-1015124D03*
D50*
G01*
X5588000Y-864475D03*
D51*
G01*
X5588000Y-1015124D03*
D50*
G01*
X4521200Y-864475D03*
D51*
G01*
X4521200Y-1015124D03*
D50*
G01*
X4368800Y-864475D03*
D51*
G01*
X4368800Y-1015124D03*
D56*
G01*
X13271500Y-1854200D03*
G01*
X12621488Y-1854200D03*
G01*
X13271500Y-1404188D03*
G01*
X12621488Y-1404188D03*
G01*
X12946506Y-1269212D03*
G01*
X13306501Y-1629206D03*
G01*
X12966700Y-1981200D03*
G01*
X12585700Y-1625600D03*
G01*
X12052300Y-1854200D03*
G01*
X11402288Y-1854200D03*
G01*
X12052300Y-1404188D03*
G01*
X11402288Y-1404188D03*
G01*
X11727306Y-1269212D03*
G01*
X12087301Y-1629206D03*
G01*
X11747500Y-1981200D03*
G01*
X11366500Y-1625600D03*
G01*
X10833100Y-1854200D03*
G01*
X10183088Y-1854200D03*
G01*
X10833100Y-1404188D03*
G01*
X10183088Y-1404188D03*
G01*
X10508106Y-1269212D03*
G01*
X10868101Y-1629206D03*
G01*
X10528300Y-1981200D03*
G01*
X10147300Y-1625600D03*
G01*
X9613900Y-1854200D03*
G01*
X8963888Y-1854200D03*
G01*
X9613900Y-1404188D03*
G01*
X8963888Y-1404188D03*
G01*
X9288906Y-1269212D03*
G01*
X9648901Y-1629206D03*
G01*
X9309100Y-1981200D03*
G01*
X8928100Y-1625600D03*
D50*
G01*
X13055600Y-864475D03*
D51*
G01*
X13055600Y-1015124D03*
D50*
G01*
X12903200Y-864475D03*
D51*
G01*
X12903200Y-1015124D03*
D50*
G01*
X11836400Y-864475D03*
D51*
G01*
X11836400Y-1015124D03*
D50*
G01*
X11684000Y-864475D03*
D51*
G01*
X11684000Y-1015124D03*
D50*
G01*
X10617200Y-864475D03*
D51*
G01*
X10617200Y-1015124D03*
D50*
G01*
X10464800Y-864475D03*
D51*
G01*
X10464800Y-1015124D03*
D50*
G01*
X9398000Y-864475D03*
D51*
G01*
X9398000Y-1015124D03*
D50*
G01*
X9245600Y-864475D03*
D51*
G01*
X9245600Y-1015124D03*
D54*
G01*
X6642100Y1096695D03*
G01*
X6515100Y1096695D03*
G01*
X6388100Y1096695D03*
G01*
X6261100Y1096695D03*
G01*
X6134100Y1096695D03*
G01*
X6007100Y1096695D03*
G01*
X5880100Y1096695D03*
G01*
X5753100Y1096695D03*
G01*
X5626100Y1096695D03*
G01*
X5499100Y1096695D03*
G01*
X5372100Y1096695D03*
G01*
X5245100Y1096695D03*
G01*
X5118100Y1096695D03*
G01*
X4991100Y1096695D03*
G01*
X6642100Y147904D03*
G01*
X6515100Y147904D03*
G01*
X6388100Y147904D03*
G01*
X6261100Y147904D03*
G01*
X6134100Y147904D03*
G01*
X6007100Y147904D03*
G01*
X5880100Y147904D03*
G01*
X5753100Y147904D03*
G01*
X5626100Y147904D03*
G01*
X5499100Y147904D03*
G01*
X5372100Y147904D03*
G01*
X5245100Y147904D03*
G01*
X5118100Y147904D03*
G01*
X4991100Y147904D03*
D55*
G01*
X5632599Y1397000D03*
G01*
X5492600Y1397000D03*
D48*
G01*
X24752300Y1741638D03*
D49*
G01*
X24752300Y1892288D03*
D48*
G01*
X24625300Y1741638D03*
D49*
G01*
X24625300Y1892288D03*
D48*
G01*
X20345400Y7176375D03*
D49*
G01*
X20345400Y7327024D03*
D48*
G01*
X20485100Y7176375D03*
D49*
G01*
X20485100Y7327024D03*
D72*
G01*
X40811196Y6322999D03*
G01*
X40621205Y6322999D03*
G01*
X40716201Y6123000D03*
D48*
G01*
X40830500Y6630275D03*
D49*
G01*
X40830500Y6780924D03*
D50*
G01*
X40716200Y7606424D03*
D51*
G01*
X40716200Y7455775D03*
D72*
G01*
X42030396Y6322999D03*
G01*
X41840405Y6322999D03*
G01*
X41935401Y6123000D03*
D48*
G01*
X42049700Y6630275D03*
D49*
G01*
X42049700Y6780924D03*
D50*
G01*
X41935400Y7606424D03*
D51*
G01*
X41935400Y7455775D03*
D72*
G01*
X43249596Y6322999D03*
G01*
X43059605Y6322999D03*
G01*
X43154601Y6123000D03*
D48*
G01*
X43268900Y6630275D03*
D49*
G01*
X43268900Y6780924D03*
D50*
G01*
X43154600Y7606424D03*
D51*
G01*
X43154600Y7455775D03*
D72*
G01*
X44468796Y6322999D03*
G01*
X44278805Y6322999D03*
G01*
X44373801Y6123000D03*
D48*
G01*
X44488100Y6630275D03*
D49*
G01*
X44488100Y6780924D03*
D50*
G01*
X44373800Y7606424D03*
D51*
G01*
X44373800Y7455775D03*
D72*
G01*
X37153596Y6322999D03*
G01*
X36963605Y6322999D03*
G01*
X37058601Y6123000D03*
D48*
G01*
X37172900Y6630275D03*
D49*
G01*
X37172900Y6780924D03*
D50*
G01*
X37058600Y7606424D03*
D51*
G01*
X37058600Y7455775D03*
D72*
G01*
X38372796Y6322999D03*
G01*
X38182805Y6322999D03*
G01*
X38277801Y6123000D03*
D48*
G01*
X38392100Y6630275D03*
D49*
G01*
X38392100Y6780924D03*
D50*
G01*
X38277800Y7606424D03*
D51*
G01*
X38277800Y7455775D03*
D72*
G01*
X39591996Y6322999D03*
G01*
X39402005Y6322999D03*
G01*
X39497001Y6123000D03*
D48*
G01*
X39611300Y6630275D03*
D49*
G01*
X39611300Y6780924D03*
D50*
G01*
X39497000Y7606424D03*
D51*
G01*
X39497000Y7455775D03*
D72*
G01*
X35934396Y6322999D03*
G01*
X35744405Y6322999D03*
G01*
X35839401Y6123000D03*
D48*
G01*
X35953700Y6630275D03*
D49*
G01*
X35953700Y6780924D03*
D50*
G01*
X35839400Y7606424D03*
D51*
G01*
X35839400Y7455775D03*
D73*
G01*
X25686003Y6123000D03*
G01*
X25875994Y6123000D03*
G01*
X25780998Y6322999D03*
D48*
G01*
X25692100Y7138275D03*
D49*
G01*
X25692100Y7288924D03*
D50*
G01*
X25781000Y6780924D03*
D51*
G01*
X25781000Y6630275D03*
D73*
G01*
X26905203Y6123000D03*
G01*
X27095194Y6123000D03*
G01*
X27000198Y6322999D03*
D48*
G01*
X26911300Y7138275D03*
D49*
G01*
X26911300Y7288924D03*
D50*
G01*
X27000200Y6780924D03*
D51*
G01*
X27000200Y6630275D03*
D73*
G01*
X28124403Y6123000D03*
G01*
X28314394Y6123000D03*
G01*
X28219398Y6322999D03*
D48*
G01*
X28130500Y7138275D03*
D49*
G01*
X28130500Y7288924D03*
D50*
G01*
X28219400Y6780924D03*
D51*
G01*
X28219400Y6630275D03*
D73*
G01*
X29343603Y6123000D03*
G01*
X29533594Y6123000D03*
G01*
X29438598Y6322999D03*
D48*
G01*
X29349700Y7138275D03*
D49*
G01*
X29349700Y7288924D03*
D50*
G01*
X29438600Y6780924D03*
D51*
G01*
X29438600Y6630275D03*
D73*
G01*
X30562803Y6123000D03*
G01*
X30752794Y6123000D03*
G01*
X30657798Y6322999D03*
D48*
G01*
X30568900Y7138275D03*
D49*
G01*
X30568900Y7288924D03*
D50*
G01*
X30657800Y6780924D03*
D51*
G01*
X30657800Y6630275D03*
D73*
G01*
X31782003Y6123000D03*
G01*
X31971994Y6123000D03*
G01*
X31876998Y6322999D03*
D48*
G01*
X31788100Y7138275D03*
D49*
G01*
X31788100Y7288924D03*
D50*
G01*
X31877000Y6780924D03*
D51*
G01*
X31877000Y6630275D03*
D73*
G01*
X33001203Y6123000D03*
G01*
X33191194Y6123000D03*
G01*
X33096198Y6322999D03*
D48*
G01*
X33007300Y7138275D03*
D49*
G01*
X33007300Y7288924D03*
D50*
G01*
X33096200Y6780924D03*
D51*
G01*
X33096200Y6630275D03*
D73*
G01*
X24466803Y6123000D03*
G01*
X24656794Y6123000D03*
G01*
X24561798Y6322999D03*
D48*
G01*
X24472900Y7138275D03*
D49*
G01*
X24472900Y7288924D03*
D50*
G01*
X24561800Y6780924D03*
D51*
G01*
X24561800Y6630275D03*
D48*
G01*
X5118100Y1753475D03*
D49*
G01*
X5118100Y1904124D03*
D48*
G01*
X5245100Y1753475D03*
D49*
G01*
X5245100Y1904124D03*
D72*
G01*
X16427196Y6322999D03*
G01*
X16237205Y6322999D03*
G01*
X16332201Y6123000D03*
D48*
G01*
X16446500Y6630275D03*
D49*
G01*
X16446500Y6780924D03*
D50*
G01*
X16332200Y7606424D03*
D51*
G01*
X16332200Y7455775D03*
D50*
G01*
X17551400Y7606424D03*
D51*
G01*
X17551400Y7455775D03*
D48*
G01*
X17665700Y6630275D03*
D49*
G01*
X17665700Y6780924D03*
D72*
G01*
X17646396Y6322999D03*
G01*
X17456405Y6322999D03*
G01*
X17551401Y6123000D03*
D50*
G01*
X5054600Y6780924D03*
D51*
G01*
X5054600Y6630275D03*
D48*
G01*
X4965700Y7138275D03*
D49*
G01*
X4965700Y7288924D03*
D73*
G01*
X4959603Y6123000D03*
G01*
X5149594Y6123000D03*
G01*
X5054598Y6322999D03*
G01*
X6178803Y6123000D03*
G01*
X6368794Y6123000D03*
G01*
X6273798Y6322999D03*
D48*
G01*
X6184900Y7138275D03*
D49*
G01*
X6184900Y7288924D03*
D50*
G01*
X6273800Y6780924D03*
D51*
G01*
X6273800Y6630275D03*
D50*
G01*
X7493000Y6780924D03*
D51*
G01*
X7493000Y6630275D03*
D48*
G01*
X7404100Y7138275D03*
D49*
G01*
X7404100Y7288924D03*
D73*
G01*
X7398003Y6123000D03*
G01*
X7587994Y6123000D03*
G01*
X7492998Y6322999D03*
D50*
G01*
X8712200Y6780924D03*
D51*
G01*
X8712200Y6630275D03*
D48*
G01*
X8623300Y7138275D03*
D49*
G01*
X8623300Y7288924D03*
D73*
G01*
X8617203Y6123000D03*
G01*
X8807194Y6123000D03*
G01*
X8712198Y6322999D03*
G01*
X9836403Y6123000D03*
G01*
X10026394Y6123000D03*
G01*
X9931398Y6322999D03*
D48*
G01*
X9842500Y7138275D03*
D49*
G01*
X9842500Y7288924D03*
D50*
G01*
X9931400Y6780924D03*
D51*
G01*
X9931400Y6630275D03*
D73*
G01*
X11055603Y6123000D03*
G01*
X11245594Y6123000D03*
G01*
X11150598Y6322999D03*
D48*
G01*
X11061700Y7138275D03*
D49*
G01*
X11061700Y7288924D03*
D50*
G01*
X11150600Y6780924D03*
D51*
G01*
X11150600Y6630275D03*
D73*
G01*
X12274803Y6123000D03*
G01*
X12464794Y6123000D03*
G01*
X12369798Y6322999D03*
D48*
G01*
X12280900Y7138275D03*
D49*
G01*
X12280900Y7288924D03*
D50*
G01*
X12369800Y6780924D03*
D51*
G01*
X12369800Y6630275D03*
D73*
G01*
X13494003Y6123000D03*
G01*
X13683994Y6123000D03*
G01*
X13588998Y6322999D03*
D48*
G01*
X13500100Y7138275D03*
D49*
G01*
X13500100Y7288924D03*
D50*
G01*
X13589000Y6780924D03*
D51*
G01*
X13589000Y6630275D03*
D74*
G01*
X2794000Y3810000D03*
G01*
X2794000Y635000D03*
G01*
X45466000Y635000D03*
G01*
X45466000Y3810000D03*
G01*
X14376400Y6972300D03*
G01*
X14376400Y5435574D03*
G01*
X2794000Y6972300D03*
G01*
X2794000Y5435600D03*
G01*
X33883600Y5435574D03*
G01*
X33883600Y6972300D03*
G01*
X45466000Y6972300D03*
G01*
X45466000Y5435600D03*
G01*
X18228894Y-1625574D03*
G01*
X14376425Y-1625625D03*
G01*
X2794025Y-1625600D03*
G01*
X22301022Y-1625625D03*
G01*
X33883625Y-1625625D03*
G01*
X45466025Y-1625600D03*
M02*
