M48
METRIC,LZ,000.000
;FILE_FORMAT=3:3
;TYPE=PLATED
;Layer: PTH_Through_Via
;EasyEDA v6.5.34, 2023-09-22 05:43:39
;5a9e321870784d179380c5b7005af72b,5a6b42c53f6a479593ecc07194224c93,10
;Gerber Generator version 0.2
;Holesize 1 = 0.305 mm
T01C0.305
%
G05
G90
T01
X-011214Y043561
X-006134Y045212
X002248Y026589
X-006134Y026589
X006820Y024892
X-011214Y024892
X006820Y053259
X-031877Y-027940
X-027940Y-030480
X-024130Y-033020
X-045250Y016891
X-027940Y016891
X-050965Y006985
X-050965Y022098
X-024130Y022098
X-024130Y006985
X-045250Y001778
X-027940Y001778
X-006350Y011557
X-012065Y016764
X-024130Y016764
X-027940Y011557
X-015494Y014605
X-015494Y-000635
X-012065Y001524
X-006350Y-003683
X-024130Y001524
X-027940Y-003683
X-020447Y043561
X-021336Y033147
X-030927Y033147
X-026990Y029242
X-019610Y029210
X-021717Y045212
X-017310Y033147
X-048387Y048387
X-030950Y046736
X-029845Y046736
X-027140Y046736
X-023330Y046736
X-026035Y045339
X-037211Y033147
X-040259Y052324
X-038534Y046609
M30
