G04 Layer: BottomLayer*
G04 EasyEDA v6.5.23, 2023-06-10 18:06:06*
G04 005a25b84e7a4af980d47e0bcec97dff,5a6b42c53f6a479593ecc07194224c93,10*
G04 Gerber Generator version 0.2*
G04 Scale: 100 percent, Rotated: No, Reflected: No *
G04 Dimensions in millimeters *
G04 leading zeros omitted , absolute positions ,4 integer and 5 decimal *
%FSLAX45Y45*%
%MOMM*%

%AMMACRO1*21,1,$1,$2,0,0,$3*%
%ADD10C,0.5000*%
%ADD11C,0.2540*%
%ADD12C,1.0000*%
%ADD13C,1.4000*%
%ADD14MACRO1,1.524X1.4X0.0000*%
%ADD15C,0.6096*%
%ADD16C,0.0129*%

%LPD*%
G36*
X86868Y914908D02*
G01*
X82956Y915669D01*
X79705Y917905D01*
X77470Y921156D01*
X76708Y925068D01*
X76708Y8638032D01*
X77470Y8641943D01*
X79705Y8645194D01*
X82956Y8647430D01*
X86868Y8648192D01*
X211531Y8648192D01*
X215544Y8647379D01*
X218897Y8645042D01*
X221081Y8641537D01*
X221691Y8637524D01*
X220675Y8633561D01*
X218135Y8630310D01*
X214579Y8628329D01*
X209346Y8626703D01*
X195478Y8620455D01*
X182473Y8612581D01*
X170535Y8603234D01*
X159766Y8592464D01*
X150418Y8580526D01*
X142544Y8567521D01*
X136296Y8553653D01*
X131775Y8539124D01*
X129032Y8524189D01*
X128117Y8509000D01*
X129032Y8493810D01*
X131775Y8478875D01*
X136296Y8464346D01*
X142544Y8450478D01*
X150418Y8437473D01*
X159766Y8425535D01*
X170535Y8414766D01*
X182473Y8405418D01*
X195478Y8397544D01*
X209346Y8391296D01*
X223875Y8386775D01*
X238810Y8384031D01*
X254000Y8383117D01*
X269189Y8384031D01*
X284124Y8386775D01*
X298653Y8391296D01*
X312521Y8397544D01*
X325526Y8405418D01*
X337464Y8414766D01*
X348234Y8425535D01*
X357581Y8437473D01*
X365455Y8450478D01*
X371703Y8464346D01*
X376224Y8478875D01*
X378968Y8493810D01*
X379882Y8509000D01*
X378968Y8524189D01*
X376224Y8539124D01*
X371703Y8553653D01*
X365455Y8567521D01*
X357581Y8580526D01*
X348234Y8592464D01*
X337464Y8603234D01*
X325526Y8612581D01*
X312521Y8620455D01*
X298653Y8626703D01*
X293420Y8628329D01*
X289864Y8630310D01*
X287324Y8633561D01*
X286308Y8637524D01*
X286918Y8641537D01*
X289102Y8645042D01*
X292455Y8647379D01*
X296468Y8648192D01*
X1932432Y8648192D01*
X1936343Y8647430D01*
X1939594Y8645194D01*
X1941830Y8641943D01*
X1942592Y8638032D01*
X1942592Y925068D01*
X1941830Y921156D01*
X1939594Y917905D01*
X1936343Y915669D01*
X1932432Y914908D01*
X862482Y914908D01*
X858418Y915771D01*
X855014Y918159D01*
X852881Y921715D01*
X852322Y925830D01*
X853490Y929792D01*
X856132Y932992D01*
X859840Y934872D01*
X870153Y937666D01*
X879094Y941781D01*
X887120Y947419D01*
X894080Y954379D01*
X899718Y962406D01*
X903833Y971346D01*
X906373Y980795D01*
X907237Y990600D01*
X906373Y1000404D01*
X903833Y1009853D01*
X899718Y1018794D01*
X894080Y1026820D01*
X887120Y1033780D01*
X879094Y1039418D01*
X870153Y1043533D01*
X860704Y1046073D01*
X852678Y1046784D01*
X849274Y1047699D01*
X846378Y1049731D01*
X409905Y1486204D01*
X407670Y1489506D01*
X406908Y1493418D01*
X406908Y8145881D01*
X407670Y8149793D01*
X409905Y8153095D01*
X419404Y8162594D01*
X422706Y8164830D01*
X426618Y8165592D01*
X604723Y8165592D01*
X608888Y8164677D01*
X612292Y8162188D01*
X614426Y8158480D01*
X614781Y8154212D01*
X613918Y8146592D01*
X613918Y8089900D01*
X703326Y8089900D01*
X703326Y8155431D01*
X704088Y8159343D01*
X706272Y8162594D01*
X709574Y8164830D01*
X713486Y8165592D01*
X718515Y8165592D01*
X722426Y8164830D01*
X725728Y8162594D01*
X727913Y8159343D01*
X728726Y8155431D01*
X728726Y8089900D01*
X810107Y8089900D01*
X814019Y8089138D01*
X817270Y8086902D01*
X819505Y8083651D01*
X820267Y8079740D01*
X820267Y8074659D01*
X819505Y8070748D01*
X817270Y8067497D01*
X814019Y8065262D01*
X810107Y8064500D01*
X728726Y8064500D01*
X728726Y7981289D01*
X791616Y7981289D01*
X797966Y7982000D01*
X803402Y7983931D01*
X808329Y7986979D01*
X812393Y7991094D01*
X815492Y7995970D01*
X817372Y8001457D01*
X818134Y8007756D01*
X818134Y8017967D01*
X818997Y8022132D01*
X821486Y8025587D01*
X825195Y8027670D01*
X829411Y8028076D01*
X833424Y8026704D01*
X836574Y8023859D01*
X841603Y8016697D01*
X850544Y8007146D01*
X860704Y7998866D01*
X871880Y7992059D01*
X883869Y7986826D01*
X896467Y7983321D01*
X909472Y7981543D01*
X922528Y7981543D01*
X935532Y7983321D01*
X948131Y7986826D01*
X950976Y7988096D01*
X954938Y7988909D01*
X958951Y7988147D01*
X962304Y7985810D01*
X964488Y7982356D01*
X965098Y7976971D01*
X965098Y7904073D01*
X964133Y7899806D01*
X963066Y7897469D01*
X960526Y7887970D01*
X959662Y7878165D01*
X960526Y7868412D01*
X963066Y7858912D01*
X964133Y7856575D01*
X965098Y7852308D01*
X965098Y7688173D01*
X964133Y7683906D01*
X963066Y7681569D01*
X960526Y7672070D01*
X959662Y7662265D01*
X960526Y7652512D01*
X963066Y7643012D01*
X964133Y7640675D01*
X965098Y7636408D01*
X965098Y7472273D01*
X964133Y7468006D01*
X963066Y7465669D01*
X960526Y7456170D01*
X959662Y7446365D01*
X960526Y7436612D01*
X963066Y7427112D01*
X964133Y7424775D01*
X965098Y7420508D01*
X965098Y7256373D01*
X964133Y7252106D01*
X963066Y7249769D01*
X960526Y7240270D01*
X959662Y7230465D01*
X960526Y7220712D01*
X963066Y7211212D01*
X964133Y7208875D01*
X965098Y7204608D01*
X965098Y7040473D01*
X964133Y7036206D01*
X963066Y7033869D01*
X960526Y7024370D01*
X959662Y7014565D01*
X960526Y7004812D01*
X963066Y6995312D01*
X964133Y6992975D01*
X965098Y6988708D01*
X965098Y6824573D01*
X964133Y6820306D01*
X963066Y6817969D01*
X960526Y6808470D01*
X959662Y6798665D01*
X960526Y6788912D01*
X963066Y6779412D01*
X964133Y6777075D01*
X965098Y6772808D01*
X965098Y6608673D01*
X964133Y6604406D01*
X963066Y6602069D01*
X960526Y6592570D01*
X959662Y6582765D01*
X960526Y6573012D01*
X963066Y6563512D01*
X964133Y6561175D01*
X965098Y6556908D01*
X965098Y6392773D01*
X964133Y6388506D01*
X963066Y6386169D01*
X960526Y6376670D01*
X959662Y6366865D01*
X960526Y6357112D01*
X963066Y6347612D01*
X964133Y6345275D01*
X965098Y6341008D01*
X965098Y6176873D01*
X964133Y6172606D01*
X963066Y6170269D01*
X960526Y6160770D01*
X959662Y6150965D01*
X960526Y6141212D01*
X963066Y6131712D01*
X964133Y6129375D01*
X965098Y6125108D01*
X965098Y5960973D01*
X964133Y5956706D01*
X963066Y5954369D01*
X960526Y5944870D01*
X959662Y5935065D01*
X960526Y5925312D01*
X963066Y5915812D01*
X964133Y5913475D01*
X965098Y5909208D01*
X965098Y5745073D01*
X964133Y5740806D01*
X963066Y5738469D01*
X960526Y5728970D01*
X959662Y5719165D01*
X960526Y5709412D01*
X963066Y5699912D01*
X964133Y5697575D01*
X965098Y5693308D01*
X965098Y5529173D01*
X964133Y5524906D01*
X963066Y5522569D01*
X960526Y5513070D01*
X959662Y5503265D01*
X960526Y5493512D01*
X963066Y5484012D01*
X964133Y5481675D01*
X965098Y5477408D01*
X965098Y5313273D01*
X964133Y5309006D01*
X963066Y5306669D01*
X960526Y5297170D01*
X959662Y5287365D01*
X960526Y5277612D01*
X963066Y5268112D01*
X964133Y5265775D01*
X965098Y5261508D01*
X965098Y5097373D01*
X964133Y5093106D01*
X963066Y5090769D01*
X960526Y5081270D01*
X959662Y5071465D01*
X960526Y5061712D01*
X963066Y5052212D01*
X964133Y5049875D01*
X965098Y5045608D01*
X965098Y4881473D01*
X964133Y4877206D01*
X963066Y4874869D01*
X960526Y4865370D01*
X959662Y4855565D01*
X960526Y4845812D01*
X963066Y4836312D01*
X964133Y4833975D01*
X965098Y4829708D01*
X965098Y4665573D01*
X964133Y4661306D01*
X963066Y4658969D01*
X960526Y4649470D01*
X959662Y4639665D01*
X960526Y4629912D01*
X963066Y4620412D01*
X964133Y4618075D01*
X965098Y4613808D01*
X965098Y4449673D01*
X964133Y4445406D01*
X963066Y4443069D01*
X960526Y4433570D01*
X959662Y4423765D01*
X960526Y4414012D01*
X963066Y4404512D01*
X964133Y4402175D01*
X965098Y4397908D01*
X965098Y4233773D01*
X964133Y4229506D01*
X963066Y4227169D01*
X960526Y4217670D01*
X959662Y4207865D01*
X960526Y4198112D01*
X963066Y4188612D01*
X964133Y4186275D01*
X965098Y4182008D01*
X965098Y4017873D01*
X964133Y4013606D01*
X963066Y4011269D01*
X960526Y4001770D01*
X959662Y3991965D01*
X960526Y3982212D01*
X963066Y3972712D01*
X964133Y3970375D01*
X965098Y3966108D01*
X965098Y3801973D01*
X964133Y3797706D01*
X963066Y3795369D01*
X960526Y3785870D01*
X959662Y3776065D01*
X960526Y3766312D01*
X963066Y3756812D01*
X964133Y3754475D01*
X965098Y3750208D01*
X965098Y3586073D01*
X964133Y3581806D01*
X963066Y3579469D01*
X960526Y3569970D01*
X959662Y3560165D01*
X960526Y3550412D01*
X963066Y3540912D01*
X964133Y3538575D01*
X965098Y3534308D01*
X965098Y3370173D01*
X964133Y3365906D01*
X963066Y3363569D01*
X960526Y3354070D01*
X959662Y3344265D01*
X960526Y3334512D01*
X963066Y3325012D01*
X964133Y3322675D01*
X965098Y3318408D01*
X965098Y3154273D01*
X964133Y3150006D01*
X963066Y3147669D01*
X960526Y3138170D01*
X959662Y3128365D01*
X960526Y3118612D01*
X963066Y3109112D01*
X964133Y3106775D01*
X965098Y3102508D01*
X965098Y2938373D01*
X964133Y2934106D01*
X963066Y2931769D01*
X960526Y2922270D01*
X959662Y2912465D01*
X960526Y2902712D01*
X963066Y2893212D01*
X964133Y2890875D01*
X965098Y2886608D01*
X965098Y2722473D01*
X964133Y2718206D01*
X963066Y2715869D01*
X960526Y2706370D01*
X959662Y2696565D01*
X960526Y2686812D01*
X963066Y2677312D01*
X964133Y2674975D01*
X965098Y2670708D01*
X965098Y2506573D01*
X964133Y2502306D01*
X963066Y2499969D01*
X960526Y2490470D01*
X959662Y2480665D01*
X960526Y2470912D01*
X963066Y2461412D01*
X964133Y2459075D01*
X965098Y2454808D01*
X965098Y2290673D01*
X964133Y2286406D01*
X963066Y2284069D01*
X960526Y2274570D01*
X959662Y2264765D01*
X960526Y2255012D01*
X963066Y2245512D01*
X964133Y2243175D01*
X965098Y2238908D01*
X965098Y2074773D01*
X964133Y2070506D01*
X963066Y2068169D01*
X960526Y2058670D01*
X959662Y2048865D01*
X960526Y2039112D01*
X963066Y2029612D01*
X964133Y2027275D01*
X965098Y2023008D01*
X965098Y1858873D01*
X964133Y1854606D01*
X963066Y1852269D01*
X960526Y1842770D01*
X959662Y1832965D01*
X960526Y1823212D01*
X963066Y1813712D01*
X964133Y1811375D01*
X965098Y1807108D01*
X965098Y1642973D01*
X964133Y1638706D01*
X963066Y1636369D01*
X960526Y1626870D01*
X959662Y1617065D01*
X960526Y1607312D01*
X963066Y1597812D01*
X964133Y1595475D01*
X965098Y1591208D01*
X965098Y1427073D01*
X964133Y1422806D01*
X963066Y1420469D01*
X960526Y1410970D01*
X959662Y1401165D01*
X960526Y1391412D01*
X963066Y1381912D01*
X964133Y1379575D01*
X965098Y1375308D01*
X965098Y1211173D01*
X964133Y1206906D01*
X963066Y1204569D01*
X960526Y1195070D01*
X959662Y1185265D01*
X960526Y1175512D01*
X963066Y1166012D01*
X967181Y1157122D01*
X972819Y1149045D01*
X979779Y1142136D01*
X987806Y1136497D01*
X996746Y1132332D01*
X1006195Y1129792D01*
X1016000Y1128928D01*
X1025804Y1129792D01*
X1035253Y1132332D01*
X1044194Y1136497D01*
X1052220Y1142136D01*
X1059180Y1149045D01*
X1064818Y1157122D01*
X1068933Y1166012D01*
X1071473Y1175512D01*
X1072337Y1185265D01*
X1071473Y1195070D01*
X1068933Y1204569D01*
X1067866Y1206906D01*
X1066901Y1211224D01*
X1066901Y1375257D01*
X1067866Y1379575D01*
X1068933Y1381912D01*
X1071473Y1391412D01*
X1072337Y1401165D01*
X1071473Y1410970D01*
X1068933Y1420469D01*
X1067866Y1422806D01*
X1066901Y1427124D01*
X1066901Y1591157D01*
X1067866Y1595475D01*
X1068933Y1597812D01*
X1071473Y1607312D01*
X1072337Y1617065D01*
X1071473Y1626870D01*
X1068933Y1636369D01*
X1067866Y1638706D01*
X1066901Y1643024D01*
X1066901Y1807057D01*
X1067866Y1811375D01*
X1068933Y1813712D01*
X1071473Y1823212D01*
X1072337Y1832965D01*
X1071473Y1842770D01*
X1068933Y1852269D01*
X1067866Y1854606D01*
X1066901Y1858924D01*
X1066901Y2022957D01*
X1067866Y2027275D01*
X1068933Y2029612D01*
X1071473Y2039112D01*
X1072337Y2048865D01*
X1071473Y2058670D01*
X1068933Y2068169D01*
X1067866Y2070506D01*
X1066901Y2074824D01*
X1066901Y2238857D01*
X1067866Y2243175D01*
X1068933Y2245512D01*
X1071473Y2255012D01*
X1072337Y2264765D01*
X1071473Y2274570D01*
X1068933Y2284069D01*
X1067866Y2286406D01*
X1066901Y2290724D01*
X1066901Y2454757D01*
X1067866Y2459075D01*
X1068933Y2461412D01*
X1071473Y2470912D01*
X1072337Y2480665D01*
X1071473Y2490470D01*
X1068933Y2499969D01*
X1067866Y2502306D01*
X1066901Y2506624D01*
X1066901Y2670657D01*
X1067866Y2674975D01*
X1068933Y2677312D01*
X1071473Y2686812D01*
X1072337Y2696565D01*
X1071473Y2706370D01*
X1068933Y2715869D01*
X1067866Y2718206D01*
X1066901Y2722524D01*
X1066901Y2886557D01*
X1067866Y2890875D01*
X1068933Y2893212D01*
X1071473Y2902712D01*
X1072337Y2912465D01*
X1071473Y2922270D01*
X1068933Y2931769D01*
X1067866Y2934106D01*
X1066901Y2938424D01*
X1066901Y3102457D01*
X1067866Y3106775D01*
X1068933Y3109112D01*
X1071473Y3118612D01*
X1072337Y3128365D01*
X1071473Y3138170D01*
X1068933Y3147669D01*
X1067866Y3150006D01*
X1066901Y3154324D01*
X1066901Y3318357D01*
X1067866Y3322675D01*
X1068933Y3325012D01*
X1071473Y3334512D01*
X1072337Y3344265D01*
X1071473Y3354070D01*
X1068933Y3363569D01*
X1067866Y3365906D01*
X1066901Y3370224D01*
X1066901Y3534257D01*
X1067866Y3538575D01*
X1068933Y3540912D01*
X1071473Y3550412D01*
X1072337Y3560165D01*
X1071473Y3569970D01*
X1068933Y3579469D01*
X1067866Y3581806D01*
X1066901Y3586124D01*
X1066901Y3750157D01*
X1067866Y3754475D01*
X1068933Y3756812D01*
X1071473Y3766312D01*
X1072337Y3776065D01*
X1071473Y3785870D01*
X1068933Y3795369D01*
X1067866Y3797706D01*
X1066901Y3802024D01*
X1066901Y3966057D01*
X1067866Y3970375D01*
X1068933Y3972712D01*
X1071473Y3982212D01*
X1072337Y3991965D01*
X1071473Y4001770D01*
X1068933Y4011269D01*
X1067866Y4013606D01*
X1066901Y4017924D01*
X1066901Y4181957D01*
X1067866Y4186275D01*
X1068933Y4188612D01*
X1071473Y4198112D01*
X1072337Y4207865D01*
X1071473Y4217670D01*
X1068933Y4227169D01*
X1067866Y4229506D01*
X1066901Y4233824D01*
X1066901Y4397857D01*
X1067866Y4402175D01*
X1068933Y4404512D01*
X1071473Y4414012D01*
X1072337Y4423765D01*
X1071473Y4433570D01*
X1068933Y4443069D01*
X1067866Y4445406D01*
X1066901Y4449724D01*
X1066901Y4613757D01*
X1067866Y4618075D01*
X1068933Y4620412D01*
X1071473Y4629912D01*
X1072337Y4639665D01*
X1071473Y4649470D01*
X1068933Y4658969D01*
X1067866Y4661306D01*
X1066901Y4665624D01*
X1066901Y4829657D01*
X1067866Y4833975D01*
X1068933Y4836312D01*
X1071473Y4845812D01*
X1072337Y4855565D01*
X1071473Y4865370D01*
X1068933Y4874869D01*
X1067866Y4877206D01*
X1066901Y4881524D01*
X1066901Y5045557D01*
X1067866Y5049875D01*
X1068933Y5052212D01*
X1071473Y5061712D01*
X1072337Y5071465D01*
X1071473Y5081270D01*
X1068933Y5090769D01*
X1067866Y5093106D01*
X1066901Y5097424D01*
X1066901Y5261457D01*
X1067866Y5265775D01*
X1068933Y5268112D01*
X1071473Y5277612D01*
X1072337Y5287365D01*
X1071473Y5297170D01*
X1068933Y5306669D01*
X1067866Y5309006D01*
X1066901Y5313324D01*
X1066901Y5477357D01*
X1067866Y5481675D01*
X1068933Y5484012D01*
X1071473Y5493512D01*
X1072337Y5503265D01*
X1071473Y5513070D01*
X1068933Y5522569D01*
X1067866Y5524906D01*
X1066901Y5529224D01*
X1066901Y5693257D01*
X1067866Y5697575D01*
X1068933Y5699912D01*
X1071473Y5709412D01*
X1072337Y5719165D01*
X1071473Y5728970D01*
X1068933Y5738469D01*
X1067866Y5740806D01*
X1066901Y5745124D01*
X1066901Y5909157D01*
X1067866Y5913475D01*
X1068933Y5915812D01*
X1071473Y5925312D01*
X1072337Y5935065D01*
X1071473Y5944870D01*
X1068933Y5954369D01*
X1067866Y5956706D01*
X1066901Y5961024D01*
X1066901Y6125057D01*
X1067866Y6129375D01*
X1068933Y6131712D01*
X1071473Y6141212D01*
X1072337Y6150965D01*
X1071473Y6160770D01*
X1068933Y6170269D01*
X1067866Y6172606D01*
X1066901Y6176924D01*
X1066901Y6340957D01*
X1067866Y6345275D01*
X1068933Y6347612D01*
X1071473Y6357112D01*
X1072337Y6366865D01*
X1071473Y6376670D01*
X1068933Y6386169D01*
X1067866Y6388506D01*
X1066901Y6392824D01*
X1066901Y6556857D01*
X1067866Y6561175D01*
X1068933Y6563512D01*
X1071473Y6573012D01*
X1072337Y6582765D01*
X1071473Y6592570D01*
X1068933Y6602069D01*
X1067866Y6604406D01*
X1066901Y6608724D01*
X1066901Y6772757D01*
X1067866Y6777075D01*
X1068933Y6779412D01*
X1071473Y6788912D01*
X1072337Y6798665D01*
X1071473Y6808470D01*
X1068933Y6817969D01*
X1067866Y6820306D01*
X1066901Y6824624D01*
X1066901Y6988657D01*
X1067866Y6992975D01*
X1068933Y6995312D01*
X1071473Y7004812D01*
X1072337Y7014565D01*
X1071473Y7024370D01*
X1068933Y7033869D01*
X1067866Y7036206D01*
X1066901Y7040524D01*
X1066901Y7204557D01*
X1067866Y7208875D01*
X1068933Y7211212D01*
X1071473Y7220712D01*
X1072337Y7230465D01*
X1071473Y7240270D01*
X1068933Y7249769D01*
X1067866Y7252106D01*
X1066901Y7256424D01*
X1066901Y7420457D01*
X1067866Y7424775D01*
X1068933Y7427112D01*
X1071473Y7436612D01*
X1072337Y7446365D01*
X1071473Y7456170D01*
X1068933Y7465669D01*
X1067866Y7468006D01*
X1066901Y7472324D01*
X1066901Y7636357D01*
X1067866Y7640675D01*
X1068933Y7643012D01*
X1071473Y7652512D01*
X1072337Y7662265D01*
X1071473Y7672070D01*
X1068933Y7681569D01*
X1067866Y7683906D01*
X1066901Y7688224D01*
X1066901Y7852257D01*
X1067866Y7856575D01*
X1068933Y7858912D01*
X1071473Y7868412D01*
X1072337Y7878165D01*
X1071473Y7887970D01*
X1068933Y7897469D01*
X1067866Y7899806D01*
X1066901Y7904073D01*
X1066901Y7951927D01*
X1067663Y7955788D01*
X1069898Y7959090D01*
X1090828Y7980019D01*
X1093368Y7981899D01*
X1096314Y7982864D01*
X1099413Y7982915D01*
X1109472Y7981543D01*
X1122527Y7981543D01*
X1132586Y7982915D01*
X1135684Y7982864D01*
X1138631Y7981899D01*
X1141171Y7980019D01*
X1194155Y7927035D01*
X1197559Y7923885D01*
X1201115Y7921193D01*
X1204874Y7918805D01*
X1208786Y7916773D01*
X1212900Y7915046D01*
X1217117Y7913725D01*
X1221486Y7912760D01*
X1225854Y7912201D01*
X1230528Y7911998D01*
X1450238Y7911998D01*
X1454099Y7911236D01*
X1457401Y7909001D01*
X1459585Y7905699D01*
X1460398Y7901838D01*
X1460398Y7899908D01*
X1459433Y7895640D01*
X1458315Y7893253D01*
X1455775Y7883804D01*
X1454912Y7874000D01*
X1455775Y7864195D01*
X1458315Y7854746D01*
X1459433Y7852359D01*
X1460398Y7848092D01*
X1460398Y7684008D01*
X1459433Y7679740D01*
X1458315Y7677353D01*
X1455775Y7667904D01*
X1454912Y7658100D01*
X1455775Y7648295D01*
X1458315Y7638846D01*
X1459433Y7636459D01*
X1460398Y7632192D01*
X1460398Y7468108D01*
X1459433Y7463840D01*
X1458315Y7461453D01*
X1455775Y7452004D01*
X1454912Y7442200D01*
X1455775Y7432395D01*
X1458315Y7422946D01*
X1459433Y7420559D01*
X1460398Y7416292D01*
X1460398Y7252208D01*
X1459433Y7247940D01*
X1458315Y7245553D01*
X1455775Y7236104D01*
X1454912Y7226300D01*
X1455775Y7216495D01*
X1458315Y7207046D01*
X1459433Y7204659D01*
X1460398Y7200392D01*
X1460398Y7036308D01*
X1459433Y7032040D01*
X1458315Y7029653D01*
X1455775Y7020204D01*
X1454912Y7010400D01*
X1455775Y7000595D01*
X1458315Y6991146D01*
X1459433Y6988759D01*
X1460398Y6984492D01*
X1460398Y6820408D01*
X1459433Y6816140D01*
X1458315Y6813753D01*
X1455775Y6804304D01*
X1454912Y6794500D01*
X1455775Y6784695D01*
X1458315Y6775246D01*
X1459433Y6772859D01*
X1460398Y6768592D01*
X1460398Y6604508D01*
X1459433Y6600240D01*
X1458315Y6597853D01*
X1455775Y6588404D01*
X1454912Y6578600D01*
X1455775Y6568795D01*
X1458315Y6559346D01*
X1459433Y6556908D01*
X1460398Y6552641D01*
X1460398Y6388608D01*
X1459433Y6384290D01*
X1458366Y6381953D01*
X1455826Y6372504D01*
X1454962Y6362700D01*
X1455826Y6352895D01*
X1458366Y6343446D01*
X1459433Y6341110D01*
X1460398Y6336842D01*
X1460398Y6172657D01*
X1459433Y6168390D01*
X1458366Y6166053D01*
X1455826Y6156604D01*
X1454962Y6146800D01*
X1455826Y6136995D01*
X1458366Y6127546D01*
X1459433Y6125210D01*
X1460398Y6120942D01*
X1460398Y5956757D01*
X1459433Y5952490D01*
X1458366Y5950153D01*
X1455826Y5940704D01*
X1454962Y5930900D01*
X1455826Y5921095D01*
X1458366Y5911646D01*
X1459433Y5909310D01*
X1460398Y5905042D01*
X1460398Y5740857D01*
X1459433Y5736590D01*
X1458366Y5734253D01*
X1455826Y5724804D01*
X1454962Y5715000D01*
X1455826Y5705195D01*
X1458366Y5695746D01*
X1459433Y5693410D01*
X1460398Y5689142D01*
X1460398Y5524957D01*
X1459433Y5520690D01*
X1458366Y5518353D01*
X1455826Y5508904D01*
X1454962Y5499100D01*
X1455826Y5489295D01*
X1458366Y5479846D01*
X1459433Y5477510D01*
X1460398Y5473242D01*
X1460398Y5309057D01*
X1459433Y5304790D01*
X1458366Y5302453D01*
X1455826Y5293004D01*
X1454962Y5283200D01*
X1455826Y5273395D01*
X1458366Y5263946D01*
X1459433Y5261610D01*
X1460398Y5257342D01*
X1460398Y5093157D01*
X1459433Y5088890D01*
X1458366Y5086553D01*
X1455826Y5077104D01*
X1454962Y5067300D01*
X1455826Y5057495D01*
X1458366Y5048046D01*
X1459433Y5045710D01*
X1460398Y5041442D01*
X1460398Y4877257D01*
X1459433Y4872990D01*
X1458366Y4870653D01*
X1455826Y4861204D01*
X1454962Y4851400D01*
X1455826Y4841595D01*
X1458366Y4832146D01*
X1459433Y4829810D01*
X1460398Y4825542D01*
X1460398Y4661357D01*
X1459433Y4657090D01*
X1458366Y4654753D01*
X1455826Y4645304D01*
X1454962Y4635500D01*
X1455826Y4625695D01*
X1458366Y4616246D01*
X1459433Y4613910D01*
X1460398Y4609642D01*
X1460398Y4445457D01*
X1459433Y4441190D01*
X1458366Y4438853D01*
X1455826Y4429404D01*
X1454962Y4419600D01*
X1455826Y4409795D01*
X1458366Y4400346D01*
X1459433Y4398010D01*
X1460398Y4393742D01*
X1460398Y4229557D01*
X1459433Y4225290D01*
X1458366Y4222953D01*
X1455826Y4213504D01*
X1454962Y4203700D01*
X1455826Y4193895D01*
X1458366Y4184446D01*
X1459433Y4182110D01*
X1460398Y4177842D01*
X1460398Y4013657D01*
X1459433Y4009390D01*
X1458366Y4007053D01*
X1455826Y3997604D01*
X1454962Y3987800D01*
X1455826Y3977995D01*
X1458366Y3968546D01*
X1459433Y3966210D01*
X1460398Y3961942D01*
X1460398Y3797757D01*
X1459433Y3793490D01*
X1458366Y3791153D01*
X1455826Y3781704D01*
X1454962Y3771900D01*
X1455826Y3762095D01*
X1458366Y3752646D01*
X1459433Y3750310D01*
X1460398Y3746042D01*
X1460398Y3581857D01*
X1459433Y3577590D01*
X1458366Y3575253D01*
X1455826Y3565804D01*
X1454962Y3556000D01*
X1455826Y3546195D01*
X1458366Y3536746D01*
X1459433Y3534359D01*
X1460398Y3530092D01*
X1460398Y3366008D01*
X1459433Y3361740D01*
X1458366Y3359353D01*
X1455826Y3349904D01*
X1454962Y3340100D01*
X1455826Y3330295D01*
X1458366Y3320846D01*
X1459433Y3318459D01*
X1460398Y3314192D01*
X1460398Y3150108D01*
X1459433Y3145840D01*
X1458366Y3143453D01*
X1455826Y3134004D01*
X1454962Y3124200D01*
X1455826Y3114395D01*
X1458366Y3104946D01*
X1459433Y3102559D01*
X1460398Y3098292D01*
X1460398Y2934208D01*
X1459433Y2929940D01*
X1458366Y2927553D01*
X1455826Y2918104D01*
X1454962Y2908300D01*
X1455826Y2898495D01*
X1458366Y2889046D01*
X1459433Y2886659D01*
X1460398Y2882392D01*
X1460398Y2718308D01*
X1459433Y2714040D01*
X1458366Y2711653D01*
X1455826Y2702204D01*
X1454962Y2692400D01*
X1455826Y2682595D01*
X1458366Y2673146D01*
X1459433Y2670759D01*
X1460398Y2666492D01*
X1460398Y2502408D01*
X1459433Y2498140D01*
X1458366Y2495753D01*
X1455826Y2486304D01*
X1454962Y2476500D01*
X1455826Y2466695D01*
X1458366Y2457246D01*
X1459433Y2454859D01*
X1460398Y2450592D01*
X1460398Y2286508D01*
X1459433Y2282240D01*
X1458366Y2279853D01*
X1455826Y2270404D01*
X1454962Y2260600D01*
X1455826Y2250795D01*
X1458366Y2241346D01*
X1459433Y2238959D01*
X1460398Y2234692D01*
X1460398Y2070607D01*
X1459433Y2066340D01*
X1458366Y2063953D01*
X1455826Y2054504D01*
X1454962Y2044700D01*
X1455826Y2034895D01*
X1458366Y2025446D01*
X1459433Y2023059D01*
X1460398Y2018792D01*
X1460398Y1854707D01*
X1459433Y1850440D01*
X1458366Y1848053D01*
X1455826Y1838604D01*
X1454962Y1828800D01*
X1455826Y1818995D01*
X1458366Y1809546D01*
X1459433Y1807159D01*
X1460398Y1802892D01*
X1460398Y1638807D01*
X1459433Y1634540D01*
X1458366Y1632153D01*
X1455826Y1622704D01*
X1454962Y1612900D01*
X1455826Y1603095D01*
X1458366Y1593646D01*
X1459433Y1591259D01*
X1460398Y1586992D01*
X1460398Y1422908D01*
X1459433Y1418640D01*
X1458366Y1416253D01*
X1455826Y1406804D01*
X1454962Y1397000D01*
X1455826Y1387195D01*
X1458366Y1377746D01*
X1459433Y1375359D01*
X1460398Y1371092D01*
X1460398Y1207008D01*
X1459433Y1202740D01*
X1458366Y1200353D01*
X1455826Y1190904D01*
X1454962Y1181100D01*
X1455826Y1171295D01*
X1458366Y1161846D01*
X1462481Y1152906D01*
X1468120Y1144879D01*
X1475079Y1137920D01*
X1483156Y1132281D01*
X1485849Y1129487D01*
X1487322Y1125880D01*
X1487322Y1122019D01*
X1485849Y1118412D01*
X1483156Y1115618D01*
X1475079Y1109980D01*
X1473504Y1108405D01*
X1470202Y1106170D01*
X1466291Y1105408D01*
X985418Y1105408D01*
X981506Y1106170D01*
X978204Y1108405D01*
X549605Y1537004D01*
X547370Y1540306D01*
X546608Y1544218D01*
X546608Y7833207D01*
X547370Y7837068D01*
X549605Y7840370D01*
X551180Y7841945D01*
X556818Y7850022D01*
X560933Y7858912D01*
X563473Y7868412D01*
X564337Y7878165D01*
X563473Y7887970D01*
X560933Y7897469D01*
X556818Y7906359D01*
X551180Y7914436D01*
X544220Y7921345D01*
X536194Y7926984D01*
X527253Y7931150D01*
X517804Y7933690D01*
X508000Y7934553D01*
X498195Y7933690D01*
X488746Y7931150D01*
X479806Y7926984D01*
X471779Y7921345D01*
X464820Y7914436D01*
X459181Y7906359D01*
X455066Y7897469D01*
X452526Y7887970D01*
X451662Y7878165D01*
X452526Y7868412D01*
X455066Y7858912D01*
X459181Y7850022D01*
X464820Y7841945D01*
X466394Y7840370D01*
X468630Y7837068D01*
X469392Y7833207D01*
X469392Y1524508D01*
X470204Y1516481D01*
X472389Y1509268D01*
X475945Y1502562D01*
X481076Y1496364D01*
X937564Y1039876D01*
X943762Y1034745D01*
X950468Y1031189D01*
X957681Y1029004D01*
X965708Y1028192D01*
X1466291Y1028192D01*
X1470202Y1027430D01*
X1473504Y1025194D01*
X1475079Y1023619D01*
X1483106Y1017981D01*
X1492046Y1013866D01*
X1501495Y1011326D01*
X1511300Y1010462D01*
X1521104Y1011326D01*
X1530553Y1013866D01*
X1539494Y1017981D01*
X1547520Y1023619D01*
X1554480Y1030579D01*
X1560118Y1038606D01*
X1564233Y1047546D01*
X1566773Y1056995D01*
X1567637Y1066800D01*
X1566773Y1076604D01*
X1564233Y1086053D01*
X1560118Y1094994D01*
X1554480Y1103020D01*
X1547520Y1109980D01*
X1539443Y1115618D01*
X1536750Y1118412D01*
X1535277Y1122019D01*
X1535277Y1125880D01*
X1536750Y1129487D01*
X1539443Y1132281D01*
X1547520Y1137920D01*
X1554480Y1144879D01*
X1560118Y1152906D01*
X1564233Y1161846D01*
X1566773Y1171295D01*
X1567637Y1181100D01*
X1566773Y1190904D01*
X1564233Y1200353D01*
X1563166Y1202690D01*
X1562201Y1207008D01*
X1562201Y1371092D01*
X1563166Y1375410D01*
X1564233Y1377746D01*
X1566773Y1387195D01*
X1567637Y1397000D01*
X1566773Y1406804D01*
X1564233Y1416253D01*
X1563166Y1418590D01*
X1562201Y1422908D01*
X1562201Y1586992D01*
X1563166Y1591310D01*
X1564233Y1593646D01*
X1566773Y1603095D01*
X1567637Y1612900D01*
X1566773Y1622704D01*
X1564233Y1632153D01*
X1563166Y1634489D01*
X1562201Y1638807D01*
X1562201Y1802892D01*
X1563166Y1807210D01*
X1564233Y1809546D01*
X1566773Y1818995D01*
X1567637Y1828800D01*
X1566773Y1838604D01*
X1564233Y1848053D01*
X1563166Y1850389D01*
X1562201Y1854707D01*
X1562201Y2018792D01*
X1563166Y2023110D01*
X1564233Y2025446D01*
X1566773Y2034895D01*
X1567637Y2044700D01*
X1566773Y2054504D01*
X1564233Y2063953D01*
X1563166Y2066289D01*
X1562201Y2070607D01*
X1562201Y2234692D01*
X1563166Y2239010D01*
X1564233Y2241346D01*
X1566773Y2250795D01*
X1567637Y2260600D01*
X1566773Y2270404D01*
X1564233Y2279853D01*
X1563166Y2282190D01*
X1562201Y2286508D01*
X1562201Y2450592D01*
X1563166Y2454910D01*
X1564233Y2457246D01*
X1566773Y2466695D01*
X1567637Y2476500D01*
X1566773Y2486304D01*
X1564233Y2495753D01*
X1563166Y2498090D01*
X1562201Y2502408D01*
X1562201Y2666492D01*
X1563166Y2670810D01*
X1564233Y2673146D01*
X1566773Y2682595D01*
X1567637Y2692400D01*
X1566773Y2702204D01*
X1564233Y2711653D01*
X1563166Y2713990D01*
X1562201Y2718308D01*
X1562201Y2882392D01*
X1563166Y2886710D01*
X1564233Y2889046D01*
X1566773Y2898495D01*
X1567637Y2908300D01*
X1566773Y2918104D01*
X1564233Y2927553D01*
X1563166Y2929890D01*
X1562201Y2934208D01*
X1562201Y3098292D01*
X1563166Y3102610D01*
X1564233Y3104946D01*
X1566773Y3114395D01*
X1567637Y3124200D01*
X1566773Y3134004D01*
X1564233Y3143453D01*
X1563166Y3145790D01*
X1562201Y3150108D01*
X1562201Y3314192D01*
X1563166Y3318510D01*
X1564233Y3320846D01*
X1566773Y3330295D01*
X1567637Y3340100D01*
X1566773Y3349904D01*
X1564233Y3359353D01*
X1563166Y3361690D01*
X1562201Y3366008D01*
X1562201Y3530092D01*
X1563166Y3534410D01*
X1564233Y3536746D01*
X1566773Y3546195D01*
X1567637Y3556000D01*
X1566773Y3565804D01*
X1564233Y3575253D01*
X1563166Y3577640D01*
X1562201Y3581958D01*
X1562201Y3745941D01*
X1563166Y3750259D01*
X1564233Y3752646D01*
X1566773Y3762095D01*
X1567637Y3771900D01*
X1566773Y3781704D01*
X1564233Y3791153D01*
X1563166Y3793540D01*
X1562201Y3797858D01*
X1562201Y3961841D01*
X1563166Y3966159D01*
X1564233Y3968546D01*
X1566773Y3977995D01*
X1567637Y3987800D01*
X1566773Y3997604D01*
X1564233Y4007053D01*
X1563166Y4009440D01*
X1562201Y4013758D01*
X1562201Y4177741D01*
X1563166Y4182059D01*
X1564233Y4184446D01*
X1566773Y4193895D01*
X1567637Y4203700D01*
X1566773Y4213504D01*
X1564233Y4222953D01*
X1563166Y4225340D01*
X1562201Y4229658D01*
X1562201Y4393641D01*
X1563166Y4397959D01*
X1564233Y4400346D01*
X1566773Y4409795D01*
X1567637Y4419600D01*
X1566773Y4429404D01*
X1564233Y4438853D01*
X1563166Y4441240D01*
X1562201Y4445558D01*
X1562201Y4609541D01*
X1563166Y4613859D01*
X1564233Y4616246D01*
X1566773Y4625695D01*
X1567637Y4635500D01*
X1566773Y4645304D01*
X1564233Y4654753D01*
X1563166Y4657140D01*
X1562201Y4661458D01*
X1562201Y4825441D01*
X1563166Y4829759D01*
X1564233Y4832146D01*
X1566773Y4841595D01*
X1567637Y4851400D01*
X1566773Y4861204D01*
X1564233Y4870653D01*
X1563166Y4873040D01*
X1562201Y4877358D01*
X1562201Y5041341D01*
X1563166Y5045659D01*
X1564233Y5048046D01*
X1566773Y5057495D01*
X1567637Y5067300D01*
X1566773Y5077104D01*
X1564233Y5086553D01*
X1563166Y5088940D01*
X1562201Y5093258D01*
X1562201Y5257241D01*
X1563166Y5261559D01*
X1564233Y5263946D01*
X1566773Y5273395D01*
X1567637Y5283200D01*
X1566773Y5293004D01*
X1564233Y5302453D01*
X1563166Y5304840D01*
X1562201Y5309158D01*
X1562201Y5473141D01*
X1563166Y5477459D01*
X1564233Y5479846D01*
X1566773Y5489295D01*
X1567637Y5499100D01*
X1566773Y5508904D01*
X1564233Y5518353D01*
X1563166Y5520740D01*
X1562201Y5525058D01*
X1562201Y5689041D01*
X1563166Y5693359D01*
X1564233Y5695746D01*
X1566773Y5705195D01*
X1567637Y5715000D01*
X1566773Y5724804D01*
X1564233Y5734253D01*
X1563166Y5736640D01*
X1562201Y5740958D01*
X1562201Y5904941D01*
X1563166Y5909259D01*
X1564233Y5911646D01*
X1566773Y5921095D01*
X1567637Y5930900D01*
X1566773Y5940704D01*
X1564233Y5950153D01*
X1563166Y5952540D01*
X1562201Y5956858D01*
X1562201Y6120841D01*
X1563166Y6125159D01*
X1564233Y6127546D01*
X1566773Y6136995D01*
X1567637Y6146800D01*
X1566773Y6156604D01*
X1564233Y6166053D01*
X1563166Y6168440D01*
X1562201Y6172758D01*
X1562201Y6336741D01*
X1563166Y6341059D01*
X1564233Y6343446D01*
X1566773Y6352895D01*
X1567637Y6362700D01*
X1566773Y6372504D01*
X1564233Y6381953D01*
X1563166Y6384290D01*
X1562201Y6388608D01*
X1562201Y6552742D01*
X1563166Y6557060D01*
X1564233Y6559346D01*
X1566773Y6568795D01*
X1567637Y6578600D01*
X1566773Y6588404D01*
X1564233Y6597853D01*
X1563166Y6600190D01*
X1562201Y6604508D01*
X1562201Y6768592D01*
X1563166Y6772909D01*
X1564233Y6775246D01*
X1566773Y6784695D01*
X1567637Y6794500D01*
X1566773Y6804304D01*
X1564233Y6813753D01*
X1563166Y6816090D01*
X1562201Y6820408D01*
X1562201Y6984492D01*
X1563166Y6988809D01*
X1564233Y6991146D01*
X1566773Y7000595D01*
X1567637Y7010400D01*
X1566773Y7020204D01*
X1564233Y7029653D01*
X1563166Y7031990D01*
X1562201Y7036308D01*
X1562201Y7200392D01*
X1563166Y7204709D01*
X1564233Y7207046D01*
X1566773Y7216495D01*
X1567637Y7226300D01*
X1566773Y7236104D01*
X1564233Y7245553D01*
X1563166Y7247890D01*
X1562201Y7252208D01*
X1562201Y7416292D01*
X1563166Y7420609D01*
X1564233Y7422946D01*
X1566773Y7432395D01*
X1567637Y7442200D01*
X1566773Y7452004D01*
X1564233Y7461453D01*
X1563166Y7463790D01*
X1562201Y7468108D01*
X1562201Y7632192D01*
X1563166Y7636509D01*
X1564233Y7638846D01*
X1566773Y7648295D01*
X1567637Y7658100D01*
X1566773Y7667904D01*
X1564233Y7677353D01*
X1563166Y7679690D01*
X1562201Y7684008D01*
X1562201Y7848092D01*
X1563166Y7852409D01*
X1564233Y7854746D01*
X1566773Y7864195D01*
X1567637Y7874000D01*
X1566773Y7883804D01*
X1564233Y7893253D01*
X1563166Y7895590D01*
X1562201Y7899857D01*
X1562201Y8334908D01*
X1563166Y8339175D01*
X1564233Y8341512D01*
X1566773Y8351012D01*
X1567637Y8360765D01*
X1566773Y8370570D01*
X1564233Y8380069D01*
X1560118Y8388959D01*
X1554480Y8397036D01*
X1547520Y8403945D01*
X1539494Y8409584D01*
X1530553Y8413750D01*
X1521104Y8416290D01*
X1511300Y8417153D01*
X1501495Y8416290D01*
X1492046Y8413750D01*
X1483106Y8409584D01*
X1475079Y8403945D01*
X1468120Y8397036D01*
X1462481Y8388959D01*
X1458366Y8380069D01*
X1455826Y8370570D01*
X1454962Y8360765D01*
X1455826Y8351012D01*
X1458366Y8341512D01*
X1459433Y8339175D01*
X1460398Y8334908D01*
X1460398Y8023961D01*
X1459636Y8020100D01*
X1457401Y8016798D01*
X1454099Y8014563D01*
X1450238Y8013801D01*
X1407617Y8013801D01*
X1403553Y8014665D01*
X1400149Y8017052D01*
X1398016Y8020558D01*
X1397457Y8024672D01*
X1398574Y8028635D01*
X1403959Y8038998D01*
X1408328Y8051342D01*
X1411020Y8064500D01*
X1328674Y8064500D01*
X1328674Y8023961D01*
X1327912Y8020100D01*
X1325727Y8016798D01*
X1322425Y8014563D01*
X1318564Y8013801D01*
X1313484Y8013801D01*
X1309573Y8014563D01*
X1306271Y8016798D01*
X1304086Y8020100D01*
X1303274Y8023961D01*
X1303274Y8064500D01*
X1221892Y8064500D01*
X1217980Y8065262D01*
X1214729Y8067497D01*
X1212494Y8070748D01*
X1211732Y8074659D01*
X1211732Y8079740D01*
X1212494Y8083651D01*
X1214729Y8086902D01*
X1217980Y8089138D01*
X1221892Y8089900D01*
X1303274Y8089900D01*
X1303274Y8171992D01*
X1296466Y8171078D01*
X1283868Y8167522D01*
X1271879Y8162340D01*
X1260703Y8155533D01*
X1250543Y8147253D01*
X1241602Y8137702D01*
X1234084Y8127034D01*
X1228039Y8115401D01*
X1225550Y8108442D01*
X1223416Y8104886D01*
X1220063Y8102498D01*
X1215999Y8101685D01*
X1211935Y8102498D01*
X1208582Y8104886D01*
X1206449Y8108442D01*
X1203960Y8115401D01*
X1197914Y8127034D01*
X1190396Y8137702D01*
X1181455Y8147253D01*
X1171295Y8155533D01*
X1160119Y8162340D01*
X1148130Y8167522D01*
X1135532Y8171078D01*
X1122527Y8172856D01*
X1109472Y8172856D01*
X1096467Y8171078D01*
X1086764Y8168335D01*
X1083208Y8168030D01*
X1079754Y8168894D01*
X1076858Y8170976D01*
X1057605Y8190230D01*
X1055370Y8193531D01*
X1054608Y8197392D01*
X1054608Y8315807D01*
X1055370Y8319668D01*
X1057605Y8322970D01*
X1059180Y8324545D01*
X1064818Y8332622D01*
X1068933Y8341512D01*
X1071473Y8351012D01*
X1072337Y8360765D01*
X1071473Y8370570D01*
X1068933Y8380069D01*
X1064818Y8388959D01*
X1059180Y8397036D01*
X1052220Y8403945D01*
X1044194Y8409584D01*
X1035253Y8413750D01*
X1025804Y8416290D01*
X1016000Y8417153D01*
X1006195Y8416290D01*
X996746Y8413750D01*
X987806Y8409584D01*
X979779Y8403945D01*
X972819Y8397036D01*
X967181Y8388959D01*
X963066Y8380069D01*
X960526Y8370570D01*
X959662Y8360765D01*
X960526Y8351012D01*
X963066Y8341512D01*
X967181Y8332622D01*
X972819Y8324545D01*
X974394Y8322970D01*
X976630Y8319668D01*
X977392Y8315807D01*
X977392Y8177682D01*
X978103Y8170418D01*
X977544Y8165998D01*
X975156Y8162239D01*
X971397Y8159851D01*
X966927Y8159343D01*
X962710Y8160766D01*
X960119Y8162340D01*
X948131Y8167522D01*
X935532Y8171078D01*
X922528Y8172856D01*
X909472Y8172856D01*
X896467Y8171078D01*
X886714Y8168335D01*
X883158Y8167979D01*
X879703Y8168894D01*
X876808Y8170925D01*
X816559Y8231124D01*
X810361Y8236254D01*
X803656Y8239810D01*
X796442Y8241995D01*
X788416Y8242808D01*
X406908Y8242808D01*
X398881Y8241995D01*
X391668Y8239810D01*
X384962Y8236254D01*
X378764Y8231124D01*
X341376Y8193735D01*
X336245Y8187537D01*
X332689Y8180831D01*
X330504Y8173618D01*
X329692Y8165592D01*
X329692Y1473708D01*
X330504Y1465681D01*
X332689Y1458468D01*
X336245Y1451762D01*
X341376Y1445564D01*
X791768Y995121D01*
X793800Y992225D01*
X794715Y988821D01*
X795426Y980795D01*
X797966Y971346D01*
X802081Y962406D01*
X807720Y954379D01*
X814679Y947419D01*
X822706Y941781D01*
X831646Y937666D01*
X841959Y934872D01*
X845667Y932992D01*
X848309Y929792D01*
X849477Y925830D01*
X848918Y921715D01*
X846785Y918159D01*
X843381Y915771D01*
X839317Y914908D01*
G37*

%LPC*%
G36*
X254000Y1017117D02*
G01*
X269189Y1018032D01*
X284124Y1020775D01*
X298653Y1025296D01*
X312521Y1031544D01*
X325526Y1039418D01*
X337464Y1048766D01*
X348234Y1059535D01*
X357581Y1071473D01*
X365455Y1084478D01*
X371703Y1098346D01*
X376224Y1112875D01*
X378968Y1127810D01*
X379882Y1143000D01*
X378968Y1158189D01*
X376224Y1173124D01*
X371703Y1187653D01*
X365455Y1201521D01*
X357581Y1214526D01*
X348234Y1226464D01*
X337464Y1237234D01*
X325526Y1246581D01*
X312521Y1254455D01*
X298653Y1260703D01*
X284124Y1265224D01*
X269189Y1267968D01*
X254000Y1268882D01*
X238810Y1267968D01*
X223875Y1265224D01*
X209346Y1260703D01*
X195478Y1254455D01*
X182473Y1246581D01*
X170535Y1237234D01*
X159766Y1226464D01*
X150418Y1214526D01*
X142544Y1201521D01*
X136296Y1187653D01*
X131775Y1173124D01*
X129032Y1158189D01*
X128117Y1143000D01*
X129032Y1127810D01*
X131775Y1112875D01*
X136296Y1098346D01*
X142544Y1084478D01*
X150418Y1071473D01*
X159766Y1059535D01*
X170535Y1048766D01*
X182473Y1039418D01*
X195478Y1031544D01*
X209346Y1025296D01*
X223875Y1020775D01*
X238810Y1018032D01*
G37*
G36*
X1778000Y1017117D02*
G01*
X1793189Y1018032D01*
X1808124Y1020775D01*
X1822653Y1025296D01*
X1836521Y1031544D01*
X1849526Y1039418D01*
X1861464Y1048766D01*
X1872234Y1059535D01*
X1881581Y1071473D01*
X1889455Y1084478D01*
X1895703Y1098346D01*
X1900224Y1112875D01*
X1902968Y1127810D01*
X1903882Y1143000D01*
X1902968Y1158189D01*
X1900224Y1173124D01*
X1895703Y1187653D01*
X1889455Y1201521D01*
X1881581Y1214526D01*
X1872234Y1226464D01*
X1861464Y1237234D01*
X1849526Y1246581D01*
X1836521Y1254455D01*
X1822653Y1260703D01*
X1808124Y1265224D01*
X1793189Y1267968D01*
X1778000Y1268882D01*
X1762810Y1267968D01*
X1747875Y1265224D01*
X1733346Y1260703D01*
X1719478Y1254455D01*
X1706473Y1246581D01*
X1694535Y1237234D01*
X1683766Y1226464D01*
X1674418Y1214526D01*
X1666544Y1201521D01*
X1660296Y1187653D01*
X1655775Y1173124D01*
X1653032Y1158189D01*
X1652117Y1143000D01*
X1653032Y1127810D01*
X1655775Y1112875D01*
X1660296Y1098346D01*
X1666544Y1084478D01*
X1674418Y1071473D01*
X1683766Y1059535D01*
X1694535Y1048766D01*
X1706473Y1039418D01*
X1719478Y1031544D01*
X1733346Y1025296D01*
X1747875Y1020775D01*
X1762810Y1018032D01*
G37*
G36*
X640384Y7981289D02*
G01*
X703326Y7981289D01*
X703326Y8064500D01*
X613918Y8064500D01*
X613918Y8007756D01*
X614629Y8001457D01*
X616508Y7995970D01*
X619607Y7991094D01*
X623671Y7986979D01*
X628599Y7983931D01*
X634034Y7982000D01*
G37*
G36*
X1328674Y8089900D02*
G01*
X1411020Y8089900D01*
X1408328Y8103057D01*
X1403959Y8115401D01*
X1397914Y8127034D01*
X1390396Y8137702D01*
X1381455Y8147253D01*
X1371295Y8155533D01*
X1360119Y8162340D01*
X1348130Y8167522D01*
X1335532Y8171078D01*
X1328674Y8171992D01*
G37*
G36*
X1778000Y8370417D02*
G01*
X1793189Y8371331D01*
X1808124Y8374075D01*
X1822653Y8378596D01*
X1836521Y8384844D01*
X1849526Y8392718D01*
X1861464Y8402066D01*
X1872234Y8412835D01*
X1881581Y8424773D01*
X1889455Y8437778D01*
X1895703Y8451646D01*
X1900224Y8466175D01*
X1902968Y8481110D01*
X1903882Y8496300D01*
X1902968Y8511489D01*
X1900224Y8526424D01*
X1895703Y8540953D01*
X1889455Y8554821D01*
X1881581Y8567826D01*
X1872234Y8579764D01*
X1861464Y8590534D01*
X1849526Y8599881D01*
X1836521Y8607755D01*
X1822653Y8614003D01*
X1808124Y8618524D01*
X1793189Y8621268D01*
X1778000Y8622182D01*
X1762810Y8621268D01*
X1747875Y8618524D01*
X1733346Y8614003D01*
X1719478Y8607755D01*
X1706473Y8599881D01*
X1694535Y8590534D01*
X1683766Y8579764D01*
X1674418Y8567826D01*
X1666544Y8554821D01*
X1660296Y8540953D01*
X1655775Y8526424D01*
X1653032Y8511489D01*
X1652117Y8496300D01*
X1653032Y8481110D01*
X1655775Y8466175D01*
X1660296Y8451646D01*
X1666544Y8437778D01*
X1674418Y8424773D01*
X1683766Y8412835D01*
X1694535Y8402066D01*
X1706473Y8392718D01*
X1719478Y8384844D01*
X1733346Y8378596D01*
X1747875Y8374075D01*
X1762810Y8371331D01*
G37*

%LPD*%
D10*
X1015994Y3560180D02*
G01*
X1015994Y3776080D01*
X1015994Y3344280D02*
G01*
X1015994Y3560180D01*
X1015994Y3128380D02*
G01*
X1015994Y3344280D01*
X1015994Y2912480D02*
G01*
X1015994Y3128380D01*
X1015994Y2696580D02*
G01*
X1015994Y2912480D01*
X1015994Y2480680D02*
G01*
X1015994Y2696580D01*
X1015994Y2264788D02*
G01*
X1015994Y2480688D01*
X1015994Y2048888D02*
G01*
X1015994Y2264788D01*
X1015994Y1832988D02*
G01*
X1015994Y2048888D01*
X1015994Y1617088D02*
G01*
X1015994Y1832988D01*
X1015994Y1401188D02*
G01*
X1015994Y1617088D01*
X1015994Y1185288D02*
G01*
X1015994Y1401188D01*
X1015997Y6798680D02*
G01*
X1015997Y7014580D01*
X1015997Y6582780D02*
G01*
X1015997Y6798680D01*
X1015997Y6366880D02*
G01*
X1015997Y6582780D01*
X1015997Y6150980D02*
G01*
X1015997Y6366880D01*
X1015997Y5935080D02*
G01*
X1015997Y6150980D01*
X1015997Y5719180D02*
G01*
X1015997Y5935080D01*
X1015997Y5503288D02*
G01*
X1015997Y5719188D01*
X1015997Y5287388D02*
G01*
X1015997Y5503288D01*
X1015997Y5071488D02*
G01*
X1015997Y5287388D01*
X1015997Y4855588D02*
G01*
X1015997Y5071488D01*
X1015997Y4639688D02*
G01*
X1015997Y4855588D01*
X1015997Y4423788D02*
G01*
X1015997Y4639688D01*
X1015994Y3776080D02*
G01*
X1015994Y3991980D01*
X1015994Y4207888D02*
G01*
X1015994Y4423788D01*
X1015994Y3991985D02*
G01*
X1015994Y4207885D01*
X1015997Y7014580D02*
G01*
X1015997Y7230480D01*
X1015997Y7230480D02*
G01*
X1015997Y7446380D01*
X1015997Y7446383D02*
G01*
X1015997Y7662283D01*
X1015997Y7662283D02*
G01*
X1015997Y7878183D01*
X1511302Y2908292D02*
G01*
X1511302Y3124192D01*
X1511302Y2692392D02*
G01*
X1511302Y2908292D01*
X1511302Y2476492D02*
G01*
X1511302Y2692392D01*
X1511302Y2260592D02*
G01*
X1511302Y2476492D01*
X1511302Y2044692D02*
G01*
X1511302Y2260592D01*
X1511302Y1828792D02*
G01*
X1511302Y2044692D01*
X1511302Y1612905D02*
G01*
X1511302Y1828805D01*
X1511302Y1397005D02*
G01*
X1511302Y1612905D01*
X1511302Y1181105D02*
G01*
X1511302Y1397005D01*
X1511284Y5930897D02*
G01*
X1511284Y6146797D01*
X1511284Y5714997D02*
G01*
X1511284Y5930897D01*
X1511284Y5499097D02*
G01*
X1511284Y5714997D01*
X1511284Y5283197D02*
G01*
X1511284Y5499097D01*
X1511284Y5067297D02*
G01*
X1511284Y5283197D01*
X1511284Y4851397D02*
G01*
X1511284Y5067297D01*
X1511284Y4635502D02*
G01*
X1511284Y4851402D01*
X1511284Y4419602D02*
G01*
X1511284Y4635502D01*
X1511284Y4203702D02*
G01*
X1511284Y4419602D01*
X1511284Y3987802D02*
G01*
X1511284Y4203702D01*
X1511284Y3771902D02*
G01*
X1511284Y3987802D01*
X1511284Y3556002D02*
G01*
X1511284Y3771902D01*
X1511302Y3124192D02*
G01*
X1511302Y3340092D01*
X1511302Y3340092D02*
G01*
X1511302Y3555992D01*
X1511284Y6146797D02*
G01*
X1511284Y6362697D01*
X1511284Y6578597D02*
G01*
X1511284Y6794497D01*
X1511300Y6362700D02*
G01*
X1511300Y6578600D01*
X1511284Y6794497D02*
G01*
X1511284Y7010397D01*
X1511284Y7010397D02*
G01*
X1511284Y7226297D01*
X1511284Y7226297D02*
G01*
X1511284Y7442197D01*
X1511284Y7442197D02*
G01*
X1511284Y7658097D01*
X1511284Y7658097D02*
G01*
X1511284Y7873997D01*
X1016000Y7878185D02*
G01*
X1016000Y7977200D01*
X1115999Y8077200D01*
X1511287Y7874000D02*
G01*
X1511287Y7962900D01*
X1230299Y7962900D01*
X1115999Y8077200D01*
X1511300Y7962900D02*
G01*
X1511300Y8360918D01*
D11*
X1115999Y8077200D02*
G01*
X1016000Y8177199D01*
X1016000Y8360785D01*
X368300Y7391400D02*
G01*
X368300Y1473200D01*
X850900Y990600D01*
X915924Y8077200D02*
G01*
X788924Y8204200D01*
X406400Y8204200D01*
X368300Y8166100D01*
X368300Y7391400D01*
X1511300Y1066800D02*
G01*
X965200Y1066800D01*
X508000Y1524000D01*
X508000Y7878318D01*
D12*
G01*
X1050797Y9034099D03*
G01*
X16492397Y9034099D03*
G01*
X1550797Y529000D03*
G01*
X15992398Y529000D03*
D13*
G01*
X1315999Y8077200D03*
G01*
X1115999Y8077200D03*
G01*
X916000Y8077200D03*
D14*
G01*
X716000Y8077200D03*
D15*
G01*
X850900Y990600D03*
G01*
X1016000Y3991990D03*
G01*
X1016000Y1185290D03*
G01*
X1016000Y1401190D03*
G01*
X1016000Y1617090D03*
G01*
X1016000Y1832990D03*
G01*
X1016000Y2048890D03*
G01*
X1016000Y2264790D03*
G01*
X1016000Y2480690D03*
G01*
X1016000Y2696590D03*
G01*
X1016000Y2912490D03*
G01*
X1016000Y3128390D03*
G01*
X1016000Y3344290D03*
G01*
X1016000Y3560190D03*
G01*
X1016000Y3776090D03*
G01*
X1016000Y7014590D03*
G01*
X1016000Y6798690D03*
G01*
X1016000Y6582790D03*
G01*
X1016000Y6366890D03*
G01*
X1016000Y6150990D03*
G01*
X1016000Y5935090D03*
G01*
X1016000Y5719190D03*
G01*
X1016000Y5503290D03*
G01*
X1016000Y5287390D03*
G01*
X1016000Y5071490D03*
G01*
X1016000Y4855590D03*
G01*
X1016000Y4639690D03*
G01*
X1016000Y4423790D03*
G01*
X1016000Y7230490D03*
G01*
X1016000Y4207890D03*
G01*
X1016000Y7446390D03*
G01*
X1016000Y7662290D03*
G01*
X1016000Y7878190D03*
G01*
X1511300Y3124200D03*
G01*
X1511300Y2908300D03*
G01*
X1511300Y2692400D03*
G01*
X1511300Y2476500D03*
G01*
X1511300Y2260600D03*
G01*
X1511300Y2044700D03*
G01*
X1511300Y1828800D03*
G01*
X1511300Y1612900D03*
G01*
X1511300Y1397000D03*
G01*
X1511300Y1181100D03*
G01*
X1511300Y3340100D03*
G01*
X1511300Y6146800D03*
G01*
X1511300Y5930900D03*
G01*
X1511300Y5715000D03*
G01*
X1511300Y5499100D03*
G01*
X1511300Y5283200D03*
G01*
X1511300Y5067300D03*
G01*
X1511300Y4851400D03*
G01*
X1511300Y4635500D03*
G01*
X1511300Y4419600D03*
G01*
X1511300Y4203700D03*
G01*
X1511300Y3987800D03*
G01*
X1511300Y3771900D03*
G01*
X1511300Y3556000D03*
G01*
X1511300Y6362700D03*
G01*
X1511274Y6578600D03*
G01*
X1511274Y6794500D03*
G01*
X1511274Y7010400D03*
G01*
X1511274Y7226300D03*
G01*
X1511274Y7442200D03*
G01*
X1511274Y7658100D03*
G01*
X1511274Y7874000D03*
G01*
X508000Y7878190D03*
G01*
X1511300Y1066800D03*
G01*
X1511300Y8360790D03*
G01*
X1016000Y8360790D03*
M02*
