M48
METRIC,LZ,000.000
;FILE_FORMAT=3:3
;TYPE=NON_PLATED
;Layer: NPTH_Through
;EasyEDA v6.5.23, 2023-06-10 17:59:46
;2a4cce0fd74440f1b02c58f019cbd83e,5a6b42c53f6a479593ecc07194224c93,10
;Gerber Generator version 0.2
;Holesize 1 = 0.551 mm
T01C0.551
;Holesize 2 = 2.000 mm
T02C2.000
;Holesize 3 = 3.000 mm
T03C3.000
%
G05
G90
T01
X022593Y064570
X022593Y063720
X022593Y062870
X022593Y062020
X022593Y061170
X022593Y060320
X022593Y059470
X022593Y058620
X019777Y064570
X019777Y063720
X019777Y062870
X019777Y062020
X019777Y061170
X019777Y060320
X019777Y059470
X019777Y058620
X044770Y064570
X044770Y063720
X044770Y062870
X044770Y062020
X044770Y061170
X044770Y060320
X044770Y059470
X044770Y058620
X041954Y064570
X041954Y063720
X041954Y062870
X041954Y062020
X041954Y061170
X041954Y060320
X041954Y059470
X041954Y058620
X066947Y064570
X066947Y063720
X066947Y062870
X066947Y062020
X066947Y061170
X066947Y060320
X066947Y059470
X066947Y058620
X064131Y064570
X064131Y063720
X064131Y062870
X064131Y062020
X064131Y061170
X064131Y060320
X064131Y059470
X064131Y058620
X089124Y064570
X089124Y063720
X089124Y062870
X089124Y062020
X089124Y061170
X089124Y060320
X089124Y059470
X089124Y058620
X086308Y064570
X086308Y063720
X086308Y062870
X086308Y062020
X086308Y061170
X086308Y060320
X086308Y059470
X086308Y058620
X007121Y115027
X007971Y115027
X008821Y115027
X009672Y115027
X010522Y115027
X011372Y115027
X012222Y115027
X013072Y115027
X007121Y008163
X007971Y008163
X008821Y008163
X009672Y008163
X010522Y008163
X011372Y008163
X012222Y008163
X013072Y008163
X029298Y115027
X030148Y115027
X030998Y115027
X031849Y115027
X032699Y115027
X033549Y115027
X034399Y115027
X035249Y115027
X029298Y008163
X030148Y008163
X030998Y008163
X031849Y008163
X032699Y008163
X033549Y008163
X034399Y008163
X035249Y008163
X051475Y115027
X052325Y115027
X053175Y115027
X054025Y115027
X054876Y115027
X055726Y115027
X056576Y115027
X057426Y115027
X051475Y008163
X052325Y008163
X053175Y008163
X054025Y008163
X054876Y008163
X055726Y008163
X056576Y008163
X057426Y008163
X073652Y115027
X074502Y115027
X075352Y115027
X076202Y115027
X077053Y115027
X077903Y115027
X078753Y115027
X079603Y115027
X073652Y008163
X074502Y008163
X075352Y008163
X076202Y008163
X077053Y008163
X077903Y008163
X078753Y008163
X079603Y008163
X095829Y115027
X096679Y115027
X097529Y115027
X098379Y115027
X099229Y115027
X100080Y115027
X100930Y115027
X101780Y115027
X095829Y008163
X096679Y008163
X097529Y008163
X098379Y008163
X099229Y008163
X100080Y008163
X100930Y008163
X101780Y008163
T02
X017780Y084963
X002540Y085090
X017780Y011430
X002540Y011430
X005508Y118535
X103393Y118535
X010508Y004655
X098393Y004655
T03
X015240Y108204
X004953Y108204
X015240Y092964
X004953Y092964
M30
