G04 Layer: BottomSolderMaskLayer*
G04 EasyEDA v6.5.23, 2023-06-10 17:59:46*
G04 2a4cce0fd74440f1b02c58f019cbd83e,5a6b42c53f6a479593ecc07194224c93,10*
G04 Gerber Generator version 0.2*
G04 Scale: 100 percent, Rotated: No, Reflected: No *
G04 Dimensions in millimeters *
G04 leading zeros omitted , absolute positions ,4 integer and 5 decimal *
%FSLAX45Y45*%
%MOMM*%

%AMMACRO1*1,1,$1,$2,$3*1,1,$1,$4,$5*1,1,$1,0-$2,0-$3*1,1,$1,0-$4,0-$5*20,1,$1,$2,$3,$4,$5,0*20,1,$1,$4,$5,0-$2,0-$3,0*20,1,$1,0-$2,0-$3,0-$4,0-$5,0*20,1,$1,0-$4,0-$5,$2,$3,0*4,1,4,$2,$3,$4,$5,0-$2,0-$3,0-$4,0-$5,$2,$3,0*%
%ADD10C,0.2032*%
%ADD11C,1.8532*%
%ADD12C,1.5016*%
%ADD13MACRO1,0.1016X-0.762X0.7X0.762X0.7*%
%ADD14MACRO1,0.1016X0.9X-0.9X0.9X0.9*%
%ADD15C,1.9016*%
%ADD16C,3.0000*%

%LPD*%
D10*
X1298473Y6628363D02*
G01*
X1298473Y6485181D01*
X1346200Y6628363D02*
G01*
X1250744Y6628363D01*
X1205745Y6628363D02*
G01*
X1205745Y6485181D01*
X1205745Y6628363D02*
G01*
X1144381Y6628363D01*
X1123927Y6621546D01*
X1117109Y6614726D01*
X1110289Y6601091D01*
X1110289Y6587454D01*
X1117109Y6573817D01*
X1123927Y6566999D01*
X1144381Y6560182D01*
X1205745Y6560182D01*
X1158019Y6560182D02*
G01*
X1110289Y6485181D01*
X1010744Y6628363D02*
G01*
X1065291Y6485181D01*
X1010744Y6628363D02*
G01*
X956200Y6485181D01*
X1044836Y6532907D02*
G01*
X976655Y6532907D01*
X911199Y6628363D02*
G01*
X911199Y6485181D01*
X911199Y6628363D02*
G01*
X815746Y6485181D01*
X815746Y6628363D02*
G01*
X815746Y6485181D01*
X675292Y6607909D02*
G01*
X688926Y6621546D01*
X709381Y6628363D01*
X736653Y6628363D01*
X757107Y6621546D01*
X770745Y6607909D01*
X770745Y6594271D01*
X763927Y6580637D01*
X757107Y6573817D01*
X743473Y6566999D01*
X702563Y6553362D01*
X688926Y6546545D01*
X682109Y6539727D01*
X675292Y6526090D01*
X675292Y6505635D01*
X688926Y6492001D01*
X709381Y6485181D01*
X736653Y6485181D01*
X757107Y6492001D01*
X770745Y6505635D01*
X1358900Y6399763D02*
G01*
X1358900Y6256581D01*
X1358900Y6399763D02*
G01*
X1297536Y6399763D01*
X1277081Y6392946D01*
X1270264Y6386126D01*
X1263444Y6372491D01*
X1263444Y6358854D01*
X1270264Y6345217D01*
X1277081Y6338399D01*
X1297536Y6331582D01*
X1358900Y6331582D01*
X1311173Y6331582D02*
G01*
X1263444Y6256581D01*
X1218445Y6399763D02*
G01*
X1218445Y6256581D01*
X1071173Y6365671D02*
G01*
X1077991Y6379309D01*
X1091628Y6392946D01*
X1105263Y6399763D01*
X1132535Y6399763D01*
X1146172Y6392946D01*
X1159809Y6379309D01*
X1166627Y6365671D01*
X1173444Y6345217D01*
X1173444Y6311127D01*
X1166627Y6290673D01*
X1159809Y6277035D01*
X1146172Y6263401D01*
X1132535Y6256581D01*
X1105263Y6256581D01*
X1091628Y6263401D01*
X1077991Y6277035D01*
X1071173Y6290673D01*
X1071173Y6311127D01*
X1105263Y6311127D02*
G01*
X1071173Y6311127D01*
X1026172Y6399763D02*
G01*
X1026172Y6256581D01*
X930716Y6399763D02*
G01*
X930716Y6256581D01*
X1026172Y6331582D02*
G01*
X930716Y6331582D01*
X837991Y6399763D02*
G01*
X837991Y6256581D01*
X885718Y6399763D02*
G01*
X790262Y6399763D01*
X649808Y6379309D02*
G01*
X663445Y6392946D01*
X683900Y6399763D01*
X711172Y6399763D01*
X731626Y6392946D01*
X745263Y6379309D01*
X745263Y6365671D01*
X738446Y6352037D01*
X731626Y6345217D01*
X717991Y6338399D01*
X677082Y6324762D01*
X663445Y6317945D01*
X656628Y6311127D01*
X649808Y6297490D01*
X649808Y6277035D01*
X663445Y6263401D01*
X683900Y6256581D01*
X711172Y6256581D01*
X731626Y6263401D01*
X745263Y6277035D01*
D11*
G01*
X1524025Y11320399D03*
G01*
X1524025Y10470413D03*
G01*
X1524025Y10170388D03*
G01*
X495325Y11320399D03*
G01*
X495325Y10470413D03*
G01*
X495325Y10170388D03*
G01*
X1524025Y9796399D03*
G01*
X1524025Y8946413D03*
G01*
X1524025Y8646388D03*
G01*
X495325Y9796399D03*
G01*
X495325Y8946413D03*
G01*
X495325Y8646388D03*
D12*
G01*
X1315999Y8077200D03*
G01*
X1115999Y8077200D03*
G01*
X916000Y8077200D03*
D13*
G01*
X716000Y8077200D03*
D14*
G01*
X889000Y1422400D03*
D15*
G01*
X1143000Y1422400D03*
G01*
X889000Y1676400D03*
G01*
X1143000Y1676400D03*
G01*
X889000Y1930400D03*
G01*
X1143000Y1930400D03*
G01*
X889000Y2184400D03*
G01*
X1143000Y2184400D03*
G01*
X889000Y2438400D03*
G01*
X1143000Y2438400D03*
G01*
X889000Y2692400D03*
G01*
X1143000Y2692400D03*
G01*
X889000Y2946400D03*
G01*
X1143000Y2946400D03*
G01*
X889000Y3200400D03*
G01*
X1143000Y3200400D03*
D16*
G01*
X1050797Y11853499D03*
G01*
X9839299Y11853499D03*
G01*
X1550797Y465500D03*
G01*
X9339300Y465500D03*
M02*
