G04 Layer: BottomLayer*
G04 EasyEDA v6.5.23, 2023-06-10 17:59:46*
G04 2a4cce0fd74440f1b02c58f019cbd83e,5a6b42c53f6a479593ecc07194224c93,10*
G04 Gerber Generator version 0.2*
G04 Scale: 100 percent, Rotated: No, Reflected: No *
G04 Dimensions in millimeters *
G04 leading zeros omitted , absolute positions ,4 integer and 5 decimal *
%FSLAX45Y45*%
%MOMM*%

%AMMACRO1*21,1,$1,$2,0,0,$3*%
%ADD10C,0.1270*%
%ADD11C,0.5000*%
%ADD12C,0.2540*%
%ADD13C,1.0000*%
%ADD14C,1.6500*%
%ADD15C,1.4000*%
%ADD16R,1.5240X1.4000*%
%ADD17MACRO1,1.8X1.8X90.0000*%
%ADD18C,1.8000*%
%ADD19C,0.6096*%
%ADD20C,0.0181*%

%LPD*%
G36*
X86868Y851408D02*
G01*
X82956Y852169D01*
X79705Y854405D01*
X77470Y857656D01*
X76708Y861568D01*
X76708Y8723731D01*
X77368Y8727338D01*
X79298Y8730488D01*
X82245Y8732774D01*
X85801Y8733840D01*
X89509Y8733536D01*
X91795Y8732926D01*
X101600Y8732062D01*
X111404Y8732926D01*
X120853Y8735466D01*
X129794Y8739581D01*
X137769Y8745220D01*
X145592Y8753144D01*
X148894Y8755380D01*
X152806Y8756142D01*
X431393Y8756142D01*
X435609Y8755227D01*
X439013Y8752687D01*
X441096Y8748928D01*
X441451Y8744661D01*
X440029Y8740597D01*
X437032Y8737549D01*
X429310Y8732367D01*
X418642Y8723020D01*
X409295Y8712352D01*
X401421Y8700566D01*
X395173Y8687866D01*
X390601Y8674455D01*
X387858Y8660536D01*
X387756Y8659063D01*
X482600Y8659063D01*
X482600Y8745982D01*
X483362Y8749893D01*
X485597Y8753144D01*
X488848Y8755380D01*
X492759Y8756142D01*
X497840Y8756142D01*
X501751Y8755380D01*
X505002Y8753144D01*
X507238Y8749893D01*
X508000Y8745982D01*
X508000Y8659063D01*
X602843Y8659063D01*
X602742Y8660536D01*
X599998Y8674455D01*
X595426Y8687866D01*
X589178Y8700566D01*
X581304Y8712352D01*
X571957Y8723020D01*
X561289Y8732367D01*
X553567Y8737549D01*
X550570Y8740597D01*
X549148Y8744661D01*
X549503Y8748928D01*
X551586Y8752687D01*
X554990Y8755227D01*
X559206Y8756142D01*
X812393Y8756142D01*
X816305Y8755380D01*
X819607Y8753144D01*
X827430Y8745220D01*
X835406Y8739581D01*
X844346Y8735466D01*
X853795Y8732926D01*
X863600Y8732062D01*
X873404Y8732926D01*
X882853Y8735466D01*
X886714Y8737244D01*
X890676Y8738209D01*
X894689Y8737549D01*
X898093Y8735364D01*
X900379Y8732012D01*
X901192Y8728049D01*
X901192Y8583168D01*
X900430Y8579256D01*
X898194Y8576005D01*
X894943Y8573770D01*
X891032Y8573008D01*
X692708Y8573008D01*
X688797Y8573770D01*
X685495Y8576005D01*
X683920Y8577580D01*
X675894Y8583218D01*
X666953Y8587333D01*
X657504Y8589873D01*
X647700Y8590737D01*
X637895Y8589873D01*
X628446Y8587333D01*
X619506Y8583218D01*
X611479Y8577580D01*
X604520Y8570620D01*
X598881Y8562594D01*
X594766Y8553653D01*
X592226Y8544204D01*
X591362Y8534400D01*
X592226Y8524595D01*
X594766Y8515146D01*
X598881Y8506206D01*
X604520Y8498179D01*
X611479Y8491220D01*
X619506Y8485581D01*
X628446Y8481466D01*
X637895Y8478926D01*
X647700Y8478062D01*
X657504Y8478926D01*
X666953Y8481466D01*
X675894Y8485581D01*
X683920Y8491220D01*
X685495Y8492794D01*
X688797Y8495030D01*
X692708Y8495792D01*
X913892Y8495792D01*
X921918Y8496604D01*
X929132Y8498789D01*
X935837Y8502345D01*
X942035Y8507476D01*
X966724Y8532164D01*
X971854Y8538362D01*
X975410Y8545068D01*
X977595Y8552281D01*
X978408Y8560308D01*
X978408Y9962743D01*
X979169Y9966655D01*
X981405Y9969957D01*
X982980Y9971532D01*
X988618Y9979558D01*
X992733Y9988499D01*
X995273Y9997948D01*
X996137Y10007752D01*
X995273Y10017556D01*
X992733Y10027005D01*
X988618Y10035946D01*
X982980Y10043972D01*
X981405Y10045547D01*
X979169Y10048849D01*
X978408Y10052761D01*
X978408Y10875416D01*
X977595Y10883442D01*
X975410Y10890656D01*
X971854Y10897362D01*
X966724Y10903559D01*
X598881Y11271453D01*
X596747Y11274552D01*
X595934Y11278209D01*
X596442Y11281918D01*
X599998Y11292332D01*
X602742Y11306251D01*
X603707Y11320373D01*
X602742Y11334546D01*
X599998Y11348466D01*
X595426Y11361877D01*
X589178Y11374577D01*
X581304Y11386362D01*
X571957Y11397030D01*
X561289Y11406378D01*
X549503Y11414252D01*
X536752Y11420551D01*
X523341Y11425072D01*
X509422Y11427866D01*
X495300Y11428780D01*
X481177Y11427866D01*
X467258Y11425072D01*
X453847Y11420551D01*
X441096Y11414252D01*
X429310Y11406378D01*
X418642Y11397030D01*
X409295Y11386362D01*
X401421Y11374577D01*
X395173Y11361877D01*
X390601Y11348466D01*
X387858Y11334546D01*
X386892Y11320373D01*
X387858Y11306251D01*
X390601Y11292332D01*
X395173Y11278920D01*
X401421Y11266220D01*
X409295Y11254435D01*
X418642Y11243767D01*
X429310Y11234420D01*
X441096Y11226546D01*
X453847Y11220246D01*
X467258Y11215725D01*
X481177Y11212931D01*
X495300Y11212017D01*
X509422Y11212931D01*
X523341Y11215725D01*
X533857Y11219281D01*
X537565Y11219789D01*
X541223Y11218926D01*
X544271Y11216843D01*
X898194Y10862919D01*
X900430Y10859617D01*
X901192Y10855706D01*
X901192Y10052761D01*
X900430Y10048849D01*
X898194Y10045547D01*
X896619Y10043972D01*
X890981Y10035946D01*
X886866Y10027005D01*
X884326Y10017556D01*
X883462Y10007752D01*
X884326Y9997948D01*
X886866Y9988499D01*
X890981Y9979558D01*
X896619Y9971532D01*
X898194Y9969957D01*
X900430Y9966655D01*
X901192Y9962743D01*
X901192Y8848750D01*
X900379Y8844788D01*
X898093Y8841435D01*
X894689Y8839250D01*
X890676Y8838590D01*
X886714Y8839555D01*
X882853Y8841333D01*
X873404Y8843873D01*
X863600Y8844737D01*
X853795Y8843873D01*
X844346Y8841333D01*
X835406Y8837218D01*
X827430Y8831580D01*
X819607Y8823655D01*
X816305Y8821420D01*
X812393Y8820658D01*
X520598Y8820658D01*
X516483Y8821521D01*
X513029Y8824061D01*
X510946Y8827719D01*
X510540Y8831935D01*
X511860Y8835999D01*
X514756Y8839098D01*
X518617Y8840774D01*
X523341Y8841740D01*
X536752Y8846261D01*
X549503Y8852560D01*
X561289Y8860434D01*
X571957Y8869781D01*
X581304Y8880449D01*
X589178Y8892235D01*
X595426Y8904935D01*
X599998Y8918346D01*
X602742Y8932265D01*
X603707Y8946388D01*
X602742Y8960561D01*
X599998Y8974480D01*
X595426Y8987891D01*
X589178Y9000591D01*
X581304Y9012377D01*
X571957Y9023045D01*
X561289Y9032392D01*
X549503Y9040266D01*
X536752Y9046565D01*
X523341Y9051086D01*
X509422Y9053880D01*
X495300Y9054795D01*
X481177Y9053880D01*
X467258Y9051086D01*
X453847Y9046565D01*
X441096Y9040266D01*
X429310Y9032392D01*
X418642Y9023045D01*
X409295Y9012377D01*
X401421Y9000591D01*
X395173Y8987891D01*
X390601Y8974480D01*
X387858Y8960561D01*
X386892Y8946388D01*
X387858Y8932265D01*
X390601Y8918346D01*
X395173Y8904935D01*
X401421Y8892235D01*
X409295Y8880449D01*
X418642Y8869781D01*
X429310Y8860434D01*
X441096Y8852560D01*
X453847Y8846261D01*
X467258Y8841740D01*
X471982Y8840774D01*
X475843Y8839098D01*
X478739Y8835999D01*
X480059Y8831935D01*
X479653Y8827719D01*
X477570Y8824061D01*
X474116Y8821521D01*
X470001Y8820658D01*
X152806Y8820658D01*
X148894Y8821420D01*
X145592Y8823655D01*
X137769Y8831580D01*
X129794Y8837218D01*
X120853Y8841333D01*
X111404Y8843873D01*
X101600Y8844737D01*
X91795Y8843873D01*
X89509Y8843264D01*
X85801Y8842959D01*
X82245Y8844026D01*
X79298Y8846312D01*
X77368Y8849461D01*
X76708Y8853068D01*
X76708Y11457432D01*
X77470Y11461343D01*
X79705Y11464594D01*
X82956Y11466830D01*
X86868Y11467592D01*
X1932432Y11467592D01*
X1936343Y11466830D01*
X1939594Y11464594D01*
X1941830Y11461343D01*
X1942592Y11457432D01*
X1942592Y861568D01*
X1941830Y857656D01*
X1939594Y854405D01*
X1936343Y852169D01*
X1932432Y851408D01*
G37*

%LPC*%
G36*
X1528572Y10644581D02*
G01*
X1546606Y10645952D01*
X1564436Y10649204D01*
X1581810Y10654284D01*
X1598574Y10661091D01*
X1614576Y10669625D01*
X1629613Y10679734D01*
X1643481Y10691317D01*
X1656130Y10704271D01*
X1667408Y10718495D01*
X1677111Y10733786D01*
X1685188Y10749940D01*
X1691589Y10766907D01*
X1696212Y10784433D01*
X1699006Y10802315D01*
X1699920Y10820400D01*
X1699006Y10838484D01*
X1696212Y10856366D01*
X1691589Y10873892D01*
X1685188Y10890859D01*
X1677111Y10907014D01*
X1667408Y10922304D01*
X1656130Y10936528D01*
X1643481Y10949482D01*
X1629613Y10961065D01*
X1614576Y10971174D01*
X1598574Y10979708D01*
X1581810Y10986516D01*
X1564436Y10991596D01*
X1546606Y10994847D01*
X1528572Y10996218D01*
X1510436Y10995761D01*
X1492504Y10993424D01*
X1474876Y10989310D01*
X1457756Y10983315D01*
X1441348Y10975644D01*
X1425854Y10966348D01*
X1411325Y10955477D01*
X1398066Y10943183D01*
X1386078Y10929569D01*
X1375613Y10914786D01*
X1366672Y10899038D01*
X1359458Y10882426D01*
X1353921Y10865205D01*
X1350213Y10847476D01*
X1348384Y10829442D01*
X1348384Y10811357D01*
X1350213Y10793323D01*
X1353921Y10775594D01*
X1359458Y10758373D01*
X1366672Y10741761D01*
X1375613Y10726013D01*
X1386078Y10711230D01*
X1398066Y10697616D01*
X1411325Y10685322D01*
X1425854Y10674451D01*
X1441348Y10665155D01*
X1457756Y10657484D01*
X1474876Y10651490D01*
X1492504Y10647375D01*
X1510436Y10645038D01*
G37*
G36*
X1778000Y1017117D02*
G01*
X1793189Y1018032D01*
X1808124Y1020775D01*
X1822653Y1025296D01*
X1836521Y1031544D01*
X1849526Y1039418D01*
X1861464Y1048766D01*
X1872234Y1059535D01*
X1881581Y1071473D01*
X1889455Y1084478D01*
X1895703Y1098346D01*
X1900224Y1112875D01*
X1902968Y1127810D01*
X1903882Y1143000D01*
X1902968Y1158189D01*
X1900224Y1173124D01*
X1895703Y1187653D01*
X1889455Y1201521D01*
X1881581Y1214526D01*
X1872234Y1226464D01*
X1861464Y1237234D01*
X1849526Y1246581D01*
X1836521Y1254455D01*
X1822653Y1260703D01*
X1808124Y1265224D01*
X1793189Y1267968D01*
X1778000Y1268882D01*
X1762810Y1267968D01*
X1747875Y1265224D01*
X1733346Y1260703D01*
X1719478Y1254455D01*
X1706473Y1246581D01*
X1694535Y1237234D01*
X1683766Y1226464D01*
X1674418Y1214526D01*
X1666544Y1201521D01*
X1660296Y1187653D01*
X1655775Y1173124D01*
X1653032Y1158189D01*
X1652117Y1143000D01*
X1653032Y1127810D01*
X1655775Y1112875D01*
X1660296Y1098346D01*
X1666544Y1084478D01*
X1674418Y1071473D01*
X1683766Y1059535D01*
X1694535Y1048766D01*
X1706473Y1039418D01*
X1719478Y1031544D01*
X1733346Y1025296D01*
X1747875Y1020775D01*
X1762810Y1018032D01*
G37*
G36*
X254000Y1017117D02*
G01*
X269189Y1018032D01*
X284124Y1020775D01*
X298653Y1025296D01*
X312521Y1031544D01*
X325526Y1039418D01*
X337464Y1048766D01*
X348234Y1059535D01*
X357581Y1071473D01*
X365455Y1084478D01*
X371703Y1098346D01*
X376224Y1112875D01*
X378968Y1127810D01*
X379882Y1143000D01*
X378968Y1158189D01*
X376224Y1173124D01*
X371703Y1187653D01*
X365455Y1201521D01*
X357581Y1214526D01*
X348234Y1226464D01*
X337464Y1237234D01*
X325526Y1246581D01*
X312521Y1254455D01*
X298653Y1260703D01*
X284124Y1265224D01*
X269189Y1267968D01*
X254000Y1268882D01*
X238810Y1267968D01*
X223875Y1265224D01*
X209346Y1260703D01*
X195478Y1254455D01*
X182473Y1246581D01*
X170535Y1237234D01*
X159766Y1226464D01*
X150418Y1214526D01*
X142544Y1201521D01*
X136296Y1187653D01*
X131775Y1173124D01*
X129032Y1158189D01*
X128117Y1143000D01*
X129032Y1127810D01*
X131775Y1112875D01*
X136296Y1098346D01*
X142544Y1084478D01*
X150418Y1071473D01*
X159766Y1059535D01*
X170535Y1048766D01*
X182473Y1039418D01*
X195478Y1031544D01*
X209346Y1025296D01*
X223875Y1020775D01*
X238810Y1018032D01*
G37*
G36*
X799592Y1306474D02*
G01*
X978408Y1306474D01*
X984758Y1307185D01*
X990193Y1309116D01*
X995121Y1312214D01*
X999185Y1316278D01*
X1002284Y1321206D01*
X1004214Y1326642D01*
X1004925Y1332992D01*
X1004925Y1511808D01*
X1004214Y1518158D01*
X1002284Y1523593D01*
X999185Y1528521D01*
X995121Y1532585D01*
X990193Y1535684D01*
X984758Y1537614D01*
X978408Y1538325D01*
X799592Y1538325D01*
X793242Y1537614D01*
X787806Y1535684D01*
X782878Y1532585D01*
X778814Y1528521D01*
X775716Y1523593D01*
X773785Y1518158D01*
X773074Y1511808D01*
X773074Y1332992D01*
X773785Y1326642D01*
X775716Y1321206D01*
X778814Y1316278D01*
X782878Y1312214D01*
X787806Y1309116D01*
X793242Y1307185D01*
G37*
G36*
X1143000Y1306525D02*
G01*
X1157528Y1307439D01*
X1171803Y1310132D01*
X1185672Y1314653D01*
X1198829Y1320850D01*
X1211122Y1328623D01*
X1222349Y1337919D01*
X1232306Y1348536D01*
X1240840Y1360322D01*
X1247851Y1373073D01*
X1253236Y1386586D01*
X1256842Y1400708D01*
X1258671Y1415135D01*
X1258671Y1429664D01*
X1256842Y1444091D01*
X1253236Y1458214D01*
X1247851Y1471726D01*
X1240840Y1484477D01*
X1232306Y1496263D01*
X1222349Y1506880D01*
X1211122Y1516176D01*
X1198829Y1523949D01*
X1185672Y1530146D01*
X1171803Y1534668D01*
X1157528Y1537360D01*
X1143000Y1538274D01*
X1128471Y1537360D01*
X1114196Y1534668D01*
X1100328Y1530146D01*
X1087170Y1523949D01*
X1074877Y1516176D01*
X1063650Y1506880D01*
X1053693Y1496263D01*
X1045159Y1484477D01*
X1038148Y1471726D01*
X1032764Y1458214D01*
X1029157Y1444091D01*
X1027328Y1429664D01*
X1027328Y1415135D01*
X1029157Y1400708D01*
X1032764Y1386586D01*
X1038148Y1373073D01*
X1045159Y1360322D01*
X1053693Y1348536D01*
X1063650Y1337919D01*
X1074877Y1328623D01*
X1087170Y1320850D01*
X1100328Y1314653D01*
X1114196Y1310132D01*
X1128471Y1307439D01*
G37*
G36*
X901700Y1561287D02*
G01*
X903528Y1561439D01*
X917803Y1564132D01*
X931671Y1568653D01*
X944829Y1574850D01*
X957122Y1582623D01*
X968349Y1591919D01*
X978306Y1602536D01*
X986840Y1614322D01*
X993851Y1627073D01*
X999236Y1640586D01*
X1002842Y1654708D01*
X1003960Y1663700D01*
X901700Y1663700D01*
G37*
G36*
X1130300Y1561287D02*
G01*
X1130300Y1663700D01*
X1028039Y1663700D01*
X1029157Y1654708D01*
X1032764Y1640586D01*
X1038148Y1627073D01*
X1045159Y1614322D01*
X1053693Y1602536D01*
X1063650Y1591919D01*
X1074877Y1582623D01*
X1087170Y1574850D01*
X1100328Y1568653D01*
X1114196Y1564132D01*
X1128471Y1561439D01*
G37*
G36*
X876300Y1561287D02*
G01*
X876300Y1663700D01*
X774039Y1663700D01*
X775157Y1654708D01*
X778764Y1640586D01*
X784148Y1627073D01*
X791159Y1614322D01*
X799693Y1602536D01*
X809650Y1591919D01*
X820877Y1582623D01*
X833170Y1574850D01*
X846328Y1568653D01*
X860196Y1564132D01*
X874471Y1561439D01*
G37*
G36*
X1155700Y1561287D02*
G01*
X1157528Y1561439D01*
X1171803Y1564132D01*
X1185672Y1568653D01*
X1198829Y1574850D01*
X1211122Y1582623D01*
X1222349Y1591919D01*
X1232306Y1602536D01*
X1240840Y1614322D01*
X1247851Y1627073D01*
X1253236Y1640586D01*
X1256842Y1654708D01*
X1257960Y1663700D01*
X1155700Y1663700D01*
G37*
G36*
X901700Y1689100D02*
G01*
X1003960Y1689100D01*
X1002842Y1698091D01*
X999236Y1712214D01*
X993851Y1725726D01*
X986840Y1738477D01*
X978306Y1750263D01*
X968349Y1760880D01*
X957122Y1770176D01*
X944829Y1777949D01*
X931671Y1784146D01*
X917803Y1788668D01*
X903528Y1791360D01*
X901700Y1791512D01*
G37*
G36*
X1028039Y1689100D02*
G01*
X1130300Y1689100D01*
X1130300Y1791512D01*
X1128471Y1791360D01*
X1114196Y1788668D01*
X1100328Y1784146D01*
X1087170Y1777949D01*
X1074877Y1770176D01*
X1063650Y1760880D01*
X1053693Y1750263D01*
X1045159Y1738477D01*
X1038148Y1725726D01*
X1032764Y1712214D01*
X1029157Y1698091D01*
G37*
G36*
X1155700Y1689100D02*
G01*
X1257960Y1689100D01*
X1256842Y1698091D01*
X1253236Y1712214D01*
X1247851Y1725726D01*
X1240840Y1738477D01*
X1232306Y1750263D01*
X1222349Y1760880D01*
X1211122Y1770176D01*
X1198829Y1777949D01*
X1185672Y1784146D01*
X1171803Y1788668D01*
X1157528Y1791360D01*
X1155700Y1791512D01*
G37*
G36*
X774039Y1689100D02*
G01*
X876300Y1689100D01*
X876300Y1791512D01*
X874471Y1791360D01*
X860196Y1788668D01*
X846328Y1784146D01*
X833170Y1777949D01*
X820877Y1770176D01*
X809650Y1760880D01*
X799693Y1750263D01*
X791159Y1738477D01*
X784148Y1725726D01*
X778764Y1712214D01*
X775157Y1698091D01*
G37*
G36*
X1854200Y1747062D02*
G01*
X1864004Y1747926D01*
X1873453Y1750466D01*
X1882393Y1754581D01*
X1890420Y1760220D01*
X1897380Y1767179D01*
X1903018Y1775206D01*
X1907133Y1784146D01*
X1909673Y1793595D01*
X1910537Y1803400D01*
X1909673Y1813204D01*
X1907133Y1822653D01*
X1906066Y1824989D01*
X1905101Y1829307D01*
X1905101Y6881520D01*
X1906066Y6885838D01*
X1907133Y6888175D01*
X1909673Y6897624D01*
X1910537Y6907428D01*
X1909673Y6917232D01*
X1907133Y6926681D01*
X1906066Y6929018D01*
X1905101Y6933336D01*
X1905101Y7860792D01*
X1906066Y7865109D01*
X1907133Y7867446D01*
X1909673Y7876895D01*
X1910537Y7886700D01*
X1909673Y7896504D01*
X1907133Y7905953D01*
X1903018Y7914894D01*
X1897380Y7922920D01*
X1890420Y7929880D01*
X1882393Y7935518D01*
X1873453Y7939633D01*
X1864004Y7942173D01*
X1854200Y7943037D01*
X1844395Y7942173D01*
X1834946Y7939633D01*
X1826006Y7935518D01*
X1817979Y7929880D01*
X1811020Y7922920D01*
X1805381Y7914894D01*
X1801266Y7905953D01*
X1798726Y7896504D01*
X1797862Y7886700D01*
X1798726Y7876895D01*
X1801266Y7867446D01*
X1802333Y7865109D01*
X1803298Y7860792D01*
X1803298Y6933336D01*
X1802333Y6929018D01*
X1801266Y6926681D01*
X1798726Y6917232D01*
X1798370Y6913575D01*
X1797050Y6909409D01*
X1795272Y6907428D01*
X1797050Y6905447D01*
X1798370Y6901281D01*
X1798726Y6897624D01*
X1801266Y6888175D01*
X1802333Y6885838D01*
X1803298Y6881520D01*
X1803298Y2254961D01*
X1802333Y2250643D01*
X1800250Y2247900D01*
X1802333Y2245156D01*
X1803298Y2240838D01*
X1803298Y1829307D01*
X1802333Y1824989D01*
X1801266Y1822653D01*
X1798726Y1813204D01*
X1797862Y1803400D01*
X1798726Y1793595D01*
X1801266Y1784146D01*
X1805381Y1775206D01*
X1811020Y1767179D01*
X1817979Y1760220D01*
X1826006Y1754581D01*
X1834946Y1750466D01*
X1844395Y1747926D01*
G37*
G36*
X1130300Y1815287D02*
G01*
X1130300Y1917700D01*
X1028039Y1917700D01*
X1029157Y1908708D01*
X1032764Y1894586D01*
X1038148Y1881073D01*
X1045159Y1868322D01*
X1053693Y1856536D01*
X1063650Y1845919D01*
X1074877Y1836623D01*
X1087170Y1828850D01*
X1100328Y1822653D01*
X1114196Y1818132D01*
X1128471Y1815439D01*
G37*
G36*
X901700Y1815287D02*
G01*
X903528Y1815439D01*
X917803Y1818132D01*
X931671Y1822653D01*
X944829Y1828850D01*
X957122Y1836623D01*
X968349Y1845919D01*
X978306Y1856536D01*
X986840Y1868322D01*
X993851Y1881073D01*
X999236Y1894586D01*
X1002842Y1908708D01*
X1003960Y1917700D01*
X901700Y1917700D01*
G37*
G36*
X1155700Y1815287D02*
G01*
X1157528Y1815439D01*
X1171803Y1818132D01*
X1185672Y1822653D01*
X1198829Y1828850D01*
X1211122Y1836623D01*
X1222349Y1845919D01*
X1232306Y1856536D01*
X1240840Y1868322D01*
X1247851Y1881073D01*
X1253236Y1894586D01*
X1256842Y1908708D01*
X1257960Y1917700D01*
X1155700Y1917700D01*
G37*
G36*
X876300Y1815287D02*
G01*
X876300Y1917700D01*
X774039Y1917700D01*
X775157Y1908708D01*
X778764Y1894586D01*
X784148Y1881073D01*
X791159Y1868322D01*
X799693Y1856536D01*
X809650Y1845919D01*
X820877Y1836623D01*
X833170Y1828850D01*
X846328Y1822653D01*
X860196Y1818132D01*
X874471Y1815439D01*
G37*
G36*
X1028039Y1943100D02*
G01*
X1130300Y1943100D01*
X1130300Y2045512D01*
X1128471Y2045360D01*
X1114196Y2042668D01*
X1100328Y2038146D01*
X1087170Y2031949D01*
X1074877Y2024176D01*
X1063650Y2014880D01*
X1053693Y2004263D01*
X1045159Y1992477D01*
X1038148Y1979726D01*
X1032764Y1966214D01*
X1029157Y1952091D01*
G37*
G36*
X901700Y1943100D02*
G01*
X1003960Y1943100D01*
X1002842Y1952091D01*
X999236Y1966214D01*
X993851Y1979726D01*
X986840Y1992477D01*
X978306Y2004263D01*
X968349Y2014880D01*
X957122Y2024176D01*
X944829Y2031949D01*
X931671Y2038146D01*
X917803Y2042668D01*
X903528Y2045360D01*
X901700Y2045512D01*
G37*
G36*
X1155700Y1943100D02*
G01*
X1257960Y1943100D01*
X1256842Y1952091D01*
X1253236Y1966214D01*
X1247851Y1979726D01*
X1240840Y1992477D01*
X1232306Y2004263D01*
X1222349Y2014880D01*
X1211122Y2024176D01*
X1198829Y2031949D01*
X1185672Y2038146D01*
X1171803Y2042668D01*
X1157528Y2045360D01*
X1155700Y2045512D01*
G37*
G36*
X774039Y1943100D02*
G01*
X876300Y1943100D01*
X876300Y2045512D01*
X874471Y2045360D01*
X860196Y2042668D01*
X846328Y2038146D01*
X833170Y2031949D01*
X820877Y2024176D01*
X809650Y2014880D01*
X799693Y2004263D01*
X791159Y1992477D01*
X784148Y1979726D01*
X778764Y1966214D01*
X775157Y1952091D01*
G37*
G36*
X1130300Y2069287D02*
G01*
X1130300Y2171700D01*
X1028039Y2171700D01*
X1029157Y2162708D01*
X1032764Y2148586D01*
X1038148Y2135073D01*
X1045159Y2122322D01*
X1053693Y2110536D01*
X1063650Y2099919D01*
X1074877Y2090623D01*
X1087170Y2082850D01*
X1100328Y2076653D01*
X1114196Y2072132D01*
X1128471Y2069439D01*
G37*
G36*
X901700Y2069287D02*
G01*
X903528Y2069439D01*
X917803Y2072132D01*
X931671Y2076653D01*
X944829Y2082850D01*
X957122Y2090623D01*
X968349Y2099919D01*
X978306Y2110536D01*
X986840Y2122322D01*
X993851Y2135073D01*
X999236Y2148586D01*
X1002842Y2162708D01*
X1003960Y2171700D01*
X901700Y2171700D01*
G37*
G36*
X1155700Y2069287D02*
G01*
X1157528Y2069439D01*
X1171803Y2072132D01*
X1185672Y2076653D01*
X1198829Y2082850D01*
X1211122Y2090623D01*
X1222349Y2099919D01*
X1232306Y2110536D01*
X1240840Y2122322D01*
X1247851Y2135073D01*
X1253236Y2148586D01*
X1256842Y2162708D01*
X1257960Y2171700D01*
X1155700Y2171700D01*
G37*
G36*
X876300Y2069287D02*
G01*
X876300Y2171700D01*
X774039Y2171700D01*
X775157Y2162708D01*
X778764Y2148586D01*
X784148Y2135073D01*
X791159Y2122322D01*
X799693Y2110536D01*
X809650Y2099919D01*
X820877Y2090623D01*
X833170Y2082850D01*
X846328Y2076653D01*
X860196Y2072132D01*
X874471Y2069439D01*
G37*
G36*
X406400Y2191562D02*
G01*
X416204Y2192426D01*
X425653Y2194966D01*
X434593Y2199081D01*
X442620Y2204720D01*
X449580Y2211679D01*
X455218Y2219706D01*
X459333Y2228646D01*
X461873Y2238095D01*
X462737Y2247900D01*
X461873Y2257704D01*
X459333Y2267153D01*
X455218Y2276094D01*
X449580Y2284120D01*
X442620Y2291080D01*
X434593Y2296718D01*
X425653Y2300833D01*
X416204Y2303373D01*
X406400Y2304237D01*
X396595Y2303373D01*
X387146Y2300833D01*
X384810Y2299766D01*
X380492Y2298801D01*
X253898Y2298801D01*
X249986Y2299563D01*
X246735Y2301798D01*
X206298Y2342235D01*
X204063Y2345486D01*
X203301Y2349398D01*
X203301Y6223101D01*
X204063Y6227013D01*
X206298Y6230264D01*
X347776Y6371793D01*
X350672Y6373825D01*
X358394Y6377381D01*
X366420Y6383020D01*
X373380Y6389979D01*
X379018Y6398006D01*
X383133Y6406946D01*
X385673Y6416395D01*
X386537Y6426200D01*
X385673Y6436004D01*
X383133Y6445453D01*
X379018Y6454394D01*
X373380Y6462420D01*
X366420Y6469380D01*
X358394Y6475018D01*
X349453Y6479133D01*
X340004Y6481673D01*
X330200Y6482537D01*
X320395Y6481673D01*
X310946Y6479133D01*
X302006Y6475018D01*
X293979Y6469380D01*
X287020Y6462420D01*
X281381Y6454394D01*
X277825Y6446672D01*
X275793Y6443776D01*
X116535Y6284569D01*
X113385Y6281115D01*
X110693Y6277610D01*
X108305Y6273850D01*
X106273Y6269888D01*
X104546Y6265824D01*
X103225Y6261557D01*
X102260Y6257239D01*
X101701Y6252819D01*
X101498Y6248196D01*
X101498Y2324303D01*
X101701Y2319680D01*
X102260Y2315260D01*
X103225Y2310942D01*
X104546Y2306675D01*
X106273Y2302611D01*
X108305Y2298649D01*
X110693Y2294890D01*
X113385Y2291384D01*
X116535Y2287930D01*
X192430Y2212035D01*
X195884Y2208885D01*
X199390Y2206193D01*
X203149Y2203805D01*
X207111Y2201773D01*
X211175Y2200046D01*
X215442Y2198725D01*
X219760Y2197760D01*
X224180Y2197201D01*
X228803Y2196998D01*
X380492Y2196998D01*
X384810Y2196033D01*
X387146Y2194966D01*
X396595Y2192426D01*
G37*
G36*
X1028039Y2197100D02*
G01*
X1130300Y2197100D01*
X1130300Y2299512D01*
X1128471Y2299360D01*
X1114196Y2296668D01*
X1100328Y2292146D01*
X1087170Y2285949D01*
X1074877Y2278176D01*
X1063650Y2268880D01*
X1053693Y2258263D01*
X1045159Y2246477D01*
X1038148Y2233726D01*
X1032764Y2220214D01*
X1029157Y2206091D01*
G37*
G36*
X901700Y2197100D02*
G01*
X1003960Y2197100D01*
X1002842Y2206091D01*
X999236Y2220214D01*
X993851Y2233726D01*
X986840Y2246477D01*
X978306Y2258263D01*
X968349Y2268880D01*
X957122Y2278176D01*
X944829Y2285949D01*
X931671Y2292146D01*
X917803Y2296668D01*
X903528Y2299360D01*
X901700Y2299512D01*
G37*
G36*
X774039Y2197100D02*
G01*
X876300Y2197100D01*
X876300Y2299512D01*
X874471Y2299360D01*
X860196Y2296668D01*
X846328Y2292146D01*
X833170Y2285949D01*
X820877Y2278176D01*
X809650Y2268880D01*
X799693Y2258263D01*
X791159Y2246477D01*
X784148Y2233726D01*
X778764Y2220214D01*
X775157Y2206091D01*
G37*
G36*
X1155700Y2197100D02*
G01*
X1257960Y2197100D01*
X1256842Y2206091D01*
X1253236Y2220214D01*
X1247851Y2233726D01*
X1240840Y2246477D01*
X1232306Y2258263D01*
X1222349Y2268880D01*
X1211122Y2278176D01*
X1198829Y2285949D01*
X1185672Y2292146D01*
X1171803Y2296668D01*
X1157528Y2299360D01*
X1155700Y2299512D01*
G37*
G36*
X889000Y2576525D02*
G01*
X903528Y2577439D01*
X917803Y2580132D01*
X931671Y2584653D01*
X944829Y2590850D01*
X957122Y2598623D01*
X968349Y2607919D01*
X978306Y2618536D01*
X986840Y2630322D01*
X993851Y2643073D01*
X999236Y2656586D01*
X1002842Y2670708D01*
X1004671Y2685135D01*
X1004671Y2699664D01*
X1002842Y2714091D01*
X999236Y2728214D01*
X993851Y2741726D01*
X986840Y2754477D01*
X978306Y2766263D01*
X968349Y2776880D01*
X957122Y2786176D01*
X944829Y2793949D01*
X931671Y2800146D01*
X917803Y2804668D01*
X903528Y2807360D01*
X889000Y2808274D01*
X874471Y2807360D01*
X860196Y2804668D01*
X846328Y2800146D01*
X833170Y2793949D01*
X820877Y2786176D01*
X809650Y2776880D01*
X799693Y2766263D01*
X791159Y2754477D01*
X784148Y2741726D01*
X778764Y2728214D01*
X775157Y2714091D01*
X773328Y2699664D01*
X773328Y2685135D01*
X775157Y2670708D01*
X778764Y2656586D01*
X784148Y2643073D01*
X791159Y2630322D01*
X799693Y2618536D01*
X809650Y2607919D01*
X820877Y2598623D01*
X833170Y2590850D01*
X846328Y2584653D01*
X860196Y2580132D01*
X874471Y2577439D01*
G37*
G36*
X1143000Y2576525D02*
G01*
X1157528Y2577439D01*
X1171803Y2580132D01*
X1185672Y2584653D01*
X1198829Y2590850D01*
X1211122Y2598623D01*
X1222349Y2607919D01*
X1232306Y2618536D01*
X1240840Y2630322D01*
X1247851Y2643073D01*
X1253236Y2656586D01*
X1256842Y2670708D01*
X1258671Y2685135D01*
X1258671Y2699664D01*
X1256842Y2714091D01*
X1253236Y2728214D01*
X1247851Y2741726D01*
X1240840Y2754477D01*
X1232306Y2766263D01*
X1222349Y2776880D01*
X1211122Y2786176D01*
X1198829Y2793949D01*
X1185672Y2800146D01*
X1171803Y2804668D01*
X1157528Y2807360D01*
X1143000Y2808274D01*
X1128471Y2807360D01*
X1114196Y2804668D01*
X1100328Y2800146D01*
X1087170Y2793949D01*
X1074877Y2786176D01*
X1063650Y2776880D01*
X1053693Y2766263D01*
X1045159Y2754477D01*
X1038148Y2741726D01*
X1032764Y2728214D01*
X1029157Y2714091D01*
X1027328Y2699664D01*
X1027328Y2685135D01*
X1029157Y2670708D01*
X1032764Y2656586D01*
X1038148Y2643073D01*
X1045159Y2630322D01*
X1053693Y2618536D01*
X1063650Y2607919D01*
X1074877Y2598623D01*
X1087170Y2590850D01*
X1100328Y2584653D01*
X1114196Y2580132D01*
X1128471Y2577439D01*
G37*
G36*
X889000Y2830525D02*
G01*
X903528Y2831439D01*
X917803Y2834132D01*
X931671Y2838653D01*
X944829Y2844850D01*
X957122Y2852623D01*
X968349Y2861919D01*
X978306Y2872536D01*
X986840Y2884322D01*
X993851Y2897073D01*
X999236Y2910586D01*
X1002842Y2924708D01*
X1004671Y2939135D01*
X1004671Y2953664D01*
X1002842Y2968091D01*
X999236Y2982214D01*
X993851Y2995726D01*
X986840Y3008477D01*
X978306Y3020263D01*
X968349Y3030880D01*
X957122Y3040176D01*
X944829Y3047949D01*
X931671Y3054146D01*
X917803Y3058668D01*
X903528Y3061360D01*
X889000Y3062274D01*
X874471Y3061360D01*
X860196Y3058668D01*
X846328Y3054146D01*
X833170Y3047949D01*
X820877Y3040176D01*
X809650Y3030880D01*
X799693Y3020263D01*
X791159Y3008477D01*
X784148Y2995726D01*
X778764Y2982214D01*
X775157Y2968091D01*
X773328Y2953664D01*
X773328Y2939135D01*
X775157Y2924708D01*
X778764Y2910586D01*
X784148Y2897073D01*
X791159Y2884322D01*
X799693Y2872536D01*
X809650Y2861919D01*
X820877Y2852623D01*
X833170Y2844850D01*
X846328Y2838653D01*
X860196Y2834132D01*
X874471Y2831439D01*
G37*
G36*
X1143000Y2830525D02*
G01*
X1157528Y2831439D01*
X1171803Y2834132D01*
X1185672Y2838653D01*
X1198829Y2844850D01*
X1211122Y2852623D01*
X1222349Y2861919D01*
X1232306Y2872536D01*
X1240840Y2884322D01*
X1247851Y2897073D01*
X1253236Y2910586D01*
X1256842Y2924708D01*
X1258671Y2939135D01*
X1258671Y2953664D01*
X1256842Y2968091D01*
X1253236Y2982214D01*
X1247851Y2995726D01*
X1240840Y3008477D01*
X1232306Y3020263D01*
X1222349Y3030880D01*
X1211122Y3040176D01*
X1198829Y3047949D01*
X1185672Y3054146D01*
X1171803Y3058668D01*
X1157528Y3061360D01*
X1143000Y3062274D01*
X1128471Y3061360D01*
X1114196Y3058668D01*
X1100328Y3054146D01*
X1087170Y3047949D01*
X1074877Y3040176D01*
X1063650Y3030880D01*
X1053693Y3020263D01*
X1045159Y3008477D01*
X1038148Y2995726D01*
X1032764Y2982214D01*
X1029157Y2968091D01*
X1027328Y2953664D01*
X1027328Y2939135D01*
X1029157Y2924708D01*
X1032764Y2910586D01*
X1038148Y2897073D01*
X1045159Y2884322D01*
X1053693Y2872536D01*
X1063650Y2861919D01*
X1074877Y2852623D01*
X1087170Y2844850D01*
X1100328Y2838653D01*
X1114196Y2834132D01*
X1128471Y2831439D01*
G37*
G36*
X1143000Y3084525D02*
G01*
X1157528Y3085439D01*
X1171803Y3088132D01*
X1185672Y3092653D01*
X1198829Y3098850D01*
X1211122Y3106623D01*
X1222349Y3115919D01*
X1232306Y3126536D01*
X1240840Y3138322D01*
X1247851Y3151073D01*
X1253236Y3164586D01*
X1256842Y3178708D01*
X1258671Y3193135D01*
X1258671Y3207664D01*
X1256842Y3222091D01*
X1253236Y3236214D01*
X1247851Y3249726D01*
X1240840Y3262477D01*
X1232306Y3274263D01*
X1222349Y3284880D01*
X1211122Y3294176D01*
X1198829Y3301949D01*
X1185672Y3308146D01*
X1171803Y3312668D01*
X1157528Y3315360D01*
X1143000Y3316274D01*
X1128471Y3315360D01*
X1114196Y3312668D01*
X1100328Y3308146D01*
X1087170Y3301949D01*
X1074877Y3294176D01*
X1063650Y3284880D01*
X1053693Y3274263D01*
X1045159Y3262477D01*
X1038148Y3249726D01*
X1032764Y3236214D01*
X1029157Y3222091D01*
X1027328Y3207664D01*
X1027328Y3193135D01*
X1029157Y3178708D01*
X1032764Y3164586D01*
X1038148Y3151073D01*
X1045159Y3138322D01*
X1053693Y3126536D01*
X1063650Y3115919D01*
X1074877Y3106623D01*
X1087170Y3098850D01*
X1100328Y3092653D01*
X1114196Y3088132D01*
X1128471Y3085439D01*
G37*
G36*
X889000Y3084525D02*
G01*
X903528Y3085439D01*
X917803Y3088132D01*
X931671Y3092653D01*
X944829Y3098850D01*
X957122Y3106623D01*
X968349Y3115919D01*
X978306Y3126536D01*
X986840Y3138322D01*
X993851Y3151073D01*
X999236Y3164586D01*
X1002842Y3178708D01*
X1004671Y3193135D01*
X1004671Y3207664D01*
X1002842Y3222091D01*
X999236Y3236214D01*
X993851Y3249726D01*
X986840Y3262477D01*
X978306Y3274263D01*
X968349Y3284880D01*
X957122Y3294176D01*
X944829Y3301949D01*
X931671Y3308146D01*
X917803Y3312668D01*
X903528Y3315360D01*
X889000Y3316274D01*
X874471Y3315360D01*
X860196Y3312668D01*
X846328Y3308146D01*
X833170Y3301949D01*
X820877Y3294176D01*
X809650Y3284880D01*
X799693Y3274263D01*
X791159Y3262477D01*
X784148Y3249726D01*
X778764Y3236214D01*
X775157Y3222091D01*
X773328Y3207664D01*
X773328Y3193135D01*
X775157Y3178708D01*
X778764Y3164586D01*
X784148Y3151073D01*
X791159Y3138322D01*
X799693Y3126536D01*
X809650Y3115919D01*
X820877Y3106623D01*
X833170Y3098850D01*
X846328Y3092653D01*
X860196Y3088132D01*
X874471Y3085439D01*
G37*
G36*
X499872Y10644581D02*
G01*
X517906Y10645952D01*
X535736Y10649204D01*
X553110Y10654284D01*
X569874Y10661091D01*
X585876Y10669625D01*
X600913Y10679734D01*
X614781Y10691317D01*
X627430Y10704271D01*
X638708Y10718495D01*
X648411Y10733786D01*
X656488Y10749940D01*
X662889Y10766907D01*
X667512Y10784433D01*
X670306Y10802315D01*
X671220Y10820400D01*
X670306Y10838484D01*
X667512Y10856366D01*
X662889Y10873892D01*
X656488Y10890859D01*
X648411Y10907014D01*
X638708Y10922304D01*
X627430Y10936528D01*
X614781Y10949482D01*
X600913Y10961065D01*
X585876Y10971174D01*
X569874Y10979708D01*
X553110Y10986516D01*
X535736Y10991596D01*
X517906Y10994847D01*
X499872Y10996218D01*
X481736Y10995761D01*
X463804Y10993424D01*
X446176Y10989310D01*
X429056Y10983315D01*
X412648Y10975644D01*
X397154Y10966348D01*
X382625Y10955477D01*
X369366Y10943183D01*
X357378Y10929569D01*
X346913Y10914786D01*
X337972Y10899038D01*
X330758Y10882426D01*
X325221Y10865205D01*
X321513Y10847476D01*
X319684Y10829442D01*
X319684Y10811357D01*
X321513Y10793323D01*
X325221Y10775594D01*
X330758Y10758373D01*
X337972Y10741761D01*
X346913Y10726013D01*
X357378Y10711230D01*
X369366Y10697616D01*
X382625Y10685322D01*
X397154Y10674451D01*
X412648Y10665155D01*
X429056Y10657484D01*
X446176Y10651490D01*
X463804Y10647375D01*
X481736Y10645038D01*
G37*
G36*
X387756Y10483088D02*
G01*
X482600Y10483088D01*
X482600Y10577982D01*
X481177Y10577880D01*
X467258Y10575086D01*
X453847Y10570565D01*
X441096Y10564266D01*
X429310Y10556392D01*
X418642Y10547045D01*
X409295Y10536377D01*
X401421Y10524591D01*
X395173Y10511891D01*
X390601Y10498480D01*
X387858Y10484561D01*
G37*
G36*
X1371600Y1007871D02*
G01*
X1373581Y1009650D01*
X1377746Y1010970D01*
X1381404Y1011326D01*
X1390853Y1013866D01*
X1399794Y1017981D01*
X1407820Y1023619D01*
X1414780Y1030579D01*
X1420418Y1038606D01*
X1424533Y1047546D01*
X1427073Y1056995D01*
X1427937Y1066800D01*
X1427073Y1076604D01*
X1424533Y1086053D01*
X1423466Y1088390D01*
X1422501Y1092708D01*
X1422501Y2387396D01*
X1422298Y2392019D01*
X1421739Y2396439D01*
X1420774Y2400757D01*
X1419453Y2405024D01*
X1417726Y2409088D01*
X1415694Y2413050D01*
X1413306Y2416810D01*
X1410614Y2420315D01*
X1407464Y2423769D01*
X1356969Y2474264D01*
X1353515Y2477414D01*
X1350010Y2480106D01*
X1346250Y2482494D01*
X1342288Y2484526D01*
X1338224Y2486253D01*
X1333957Y2487574D01*
X1329639Y2488539D01*
X1325219Y2489098D01*
X1320596Y2489301D01*
X1252982Y2489301D01*
X1249476Y2489962D01*
X1246378Y2491790D01*
X1244092Y2494584D01*
X1240840Y2500477D01*
X1232306Y2512263D01*
X1222349Y2522880D01*
X1211122Y2532176D01*
X1198829Y2539949D01*
X1185672Y2546146D01*
X1171803Y2550668D01*
X1157528Y2553360D01*
X1143000Y2554274D01*
X1128471Y2553360D01*
X1114196Y2550668D01*
X1100328Y2546146D01*
X1087170Y2539949D01*
X1074877Y2532176D01*
X1063650Y2522880D01*
X1053693Y2512263D01*
X1045159Y2500477D01*
X1041908Y2494584D01*
X1039621Y2491790D01*
X1036523Y2489962D01*
X1033018Y2489301D01*
X998982Y2489301D01*
X995476Y2489962D01*
X992378Y2491790D01*
X990092Y2494584D01*
X986840Y2500477D01*
X978306Y2512263D01*
X968349Y2522880D01*
X957122Y2532176D01*
X944829Y2539949D01*
X931671Y2546146D01*
X917803Y2550668D01*
X903528Y2553360D01*
X889000Y2554274D01*
X874471Y2553360D01*
X860196Y2550668D01*
X846328Y2546146D01*
X833170Y2539949D01*
X820877Y2532176D01*
X809650Y2522880D01*
X799693Y2512263D01*
X791159Y2500477D01*
X784148Y2487726D01*
X778764Y2474214D01*
X775157Y2460091D01*
X773328Y2445664D01*
X773328Y2431135D01*
X775157Y2416708D01*
X778764Y2402586D01*
X784148Y2389073D01*
X791159Y2376322D01*
X799693Y2364536D01*
X809650Y2353919D01*
X820877Y2344623D01*
X833170Y2336850D01*
X846328Y2330653D01*
X860196Y2326132D01*
X874471Y2323439D01*
X889000Y2322525D01*
X903528Y2323439D01*
X917803Y2326132D01*
X931671Y2330653D01*
X944829Y2336850D01*
X957122Y2344623D01*
X968349Y2353919D01*
X978306Y2364536D01*
X986840Y2376322D01*
X990092Y2382215D01*
X992378Y2385009D01*
X995476Y2386838D01*
X998982Y2387498D01*
X1033018Y2387498D01*
X1036523Y2386838D01*
X1039621Y2385009D01*
X1041908Y2382215D01*
X1045159Y2376322D01*
X1053693Y2364536D01*
X1063650Y2353919D01*
X1074877Y2344623D01*
X1087170Y2336850D01*
X1100328Y2330653D01*
X1114196Y2326132D01*
X1128471Y2323439D01*
X1143000Y2322525D01*
X1157528Y2323439D01*
X1171803Y2326132D01*
X1185672Y2330653D01*
X1198829Y2336850D01*
X1211122Y2344623D01*
X1222349Y2353919D01*
X1232306Y2364536D01*
X1240840Y2376322D01*
X1244092Y2382215D01*
X1246378Y2385009D01*
X1249476Y2386838D01*
X1252982Y2387498D01*
X1295501Y2387498D01*
X1299413Y2386736D01*
X1302664Y2384501D01*
X1317701Y2369464D01*
X1319936Y2366213D01*
X1320698Y2362301D01*
X1320698Y1092708D01*
X1319733Y1088390D01*
X1318666Y1086053D01*
X1316126Y1076604D01*
X1315262Y1066800D01*
X1316126Y1056995D01*
X1318666Y1047546D01*
X1322781Y1038606D01*
X1328420Y1030579D01*
X1335379Y1023619D01*
X1343406Y1017981D01*
X1352346Y1013866D01*
X1361795Y1011326D01*
X1365453Y1010970D01*
X1369618Y1009650D01*
G37*
G36*
X698703Y888898D02*
G01*
X1447596Y888898D01*
X1452219Y889101D01*
X1456639Y889660D01*
X1460957Y890625D01*
X1465224Y891946D01*
X1469288Y893673D01*
X1473250Y895705D01*
X1477010Y898093D01*
X1480515Y900785D01*
X1483969Y903935D01*
X1547164Y967130D01*
X1550314Y970584D01*
X1553006Y974090D01*
X1555394Y977849D01*
X1557426Y981811D01*
X1559153Y985875D01*
X1560474Y990142D01*
X1561439Y994460D01*
X1561998Y998880D01*
X1562201Y1003503D01*
X1562201Y1803501D01*
X1562963Y1807413D01*
X1565198Y1810664D01*
X1763064Y2008530D01*
X1766214Y2011984D01*
X1768906Y2015489D01*
X1771294Y2019249D01*
X1773326Y2023211D01*
X1775053Y2027275D01*
X1776374Y2031542D01*
X1777339Y2035860D01*
X1777898Y2040280D01*
X1778101Y2044903D01*
X1778101Y2221992D01*
X1779066Y2226310D01*
X1780133Y2228646D01*
X1782673Y2238095D01*
X1783029Y2241753D01*
X1784350Y2245918D01*
X1786128Y2247900D01*
X1784350Y2249881D01*
X1783029Y2254046D01*
X1782673Y2257704D01*
X1780133Y2267153D01*
X1779066Y2269490D01*
X1778101Y2273808D01*
X1778101Y6900367D01*
X1779066Y6904685D01*
X1781149Y6907428D01*
X1779066Y6910171D01*
X1778101Y6914489D01*
X1778101Y7276642D01*
X1777288Y7285939D01*
X1775002Y7294473D01*
X1771243Y7302550D01*
X1766163Y7309815D01*
X1759915Y7316063D01*
X1752650Y7321143D01*
X1744573Y7324902D01*
X1739138Y7326375D01*
X1736699Y7327392D01*
X1734616Y7328966D01*
X1483969Y7579664D01*
X1480515Y7582814D01*
X1477010Y7585506D01*
X1473250Y7587894D01*
X1469288Y7589926D01*
X1465224Y7591653D01*
X1460957Y7592974D01*
X1456639Y7593939D01*
X1452219Y7594498D01*
X1447596Y7594701D01*
X1105408Y7594701D01*
X1101090Y7595666D01*
X1098753Y7596733D01*
X1089304Y7599273D01*
X1079500Y7600137D01*
X1069695Y7599273D01*
X1060246Y7596733D01*
X1051306Y7592618D01*
X1043279Y7586980D01*
X1036319Y7580020D01*
X1030681Y7571994D01*
X1026566Y7563053D01*
X1024026Y7553604D01*
X1023162Y7543800D01*
X1024026Y7533995D01*
X1026109Y7526223D01*
X1026312Y7521803D01*
X1024585Y7517739D01*
X1021384Y7514793D01*
X1017168Y7513472D01*
X1012799Y7514031D01*
X1009091Y7516418D01*
X535635Y7989824D01*
X529437Y7994954D01*
X522732Y7998510D01*
X515518Y8000695D01*
X507492Y8001508D01*
X286308Y8001508D01*
X282397Y8002270D01*
X279095Y8004505D01*
X277520Y8006080D01*
X269494Y8011718D01*
X260553Y8015833D01*
X251104Y8018373D01*
X241300Y8019237D01*
X231495Y8018373D01*
X222046Y8015833D01*
X217779Y8013852D01*
X213817Y8012938D01*
X209804Y8013598D01*
X206400Y8015782D01*
X204114Y8019084D01*
X203301Y8023047D01*
X203301Y8153501D01*
X204063Y8157413D01*
X206298Y8160664D01*
X272135Y8226501D01*
X275386Y8228736D01*
X279298Y8229498D01*
X1003401Y8229498D01*
X1007313Y8228736D01*
X1010564Y8226501D01*
X1062177Y8174888D01*
X1064412Y8171637D01*
X1065174Y8167725D01*
X1065174Y8163966D01*
X1064158Y8159597D01*
X1061415Y8156092D01*
X1050544Y8147253D01*
X1041603Y8137702D01*
X1034084Y8127034D01*
X1028039Y8115401D01*
X1025550Y8108442D01*
X1023416Y8104886D01*
X1020064Y8102498D01*
X1016000Y8101685D01*
X1011936Y8102498D01*
X1008583Y8104886D01*
X1006449Y8108442D01*
X1003960Y8115401D01*
X997915Y8127034D01*
X990396Y8137702D01*
X981456Y8147253D01*
X971296Y8155533D01*
X960119Y8162340D01*
X948131Y8167522D01*
X935532Y8171078D01*
X922528Y8172856D01*
X909472Y8172856D01*
X896467Y8171078D01*
X883869Y8167522D01*
X871880Y8162340D01*
X860704Y8155533D01*
X850544Y8147253D01*
X841603Y8137702D01*
X836574Y8130540D01*
X833424Y8127695D01*
X829411Y8126323D01*
X825195Y8126730D01*
X821486Y8128812D01*
X818997Y8132267D01*
X818134Y8136432D01*
X818134Y8146643D01*
X817372Y8152942D01*
X815492Y8158429D01*
X812393Y8163306D01*
X808329Y8167420D01*
X803402Y8170468D01*
X797966Y8172399D01*
X791616Y8173110D01*
X728726Y8173110D01*
X728726Y8089900D01*
X810107Y8089900D01*
X814019Y8089138D01*
X817270Y8086902D01*
X819505Y8083651D01*
X820267Y8079740D01*
X820267Y8074659D01*
X819505Y8070748D01*
X817270Y8067497D01*
X814019Y8065262D01*
X810107Y8064500D01*
X728726Y8064500D01*
X728726Y7981289D01*
X791616Y7981289D01*
X797966Y7982000D01*
X803402Y7983931D01*
X808329Y7986979D01*
X812393Y7991094D01*
X815492Y7995970D01*
X817372Y8001457D01*
X818134Y8007756D01*
X818134Y8017967D01*
X818997Y8022132D01*
X821486Y8025587D01*
X825195Y8027670D01*
X829411Y8028076D01*
X833424Y8026704D01*
X836574Y8023859D01*
X841603Y8016697D01*
X850544Y8007146D01*
X860704Y7998866D01*
X871880Y7992059D01*
X883869Y7986826D01*
X896467Y7983321D01*
X909472Y7981543D01*
X922528Y7981543D01*
X935532Y7983321D01*
X948131Y7986826D01*
X960119Y7992059D01*
X971296Y7998866D01*
X981456Y8007146D01*
X990396Y8016697D01*
X997915Y8027365D01*
X1003960Y8038998D01*
X1006449Y8045958D01*
X1008583Y8049514D01*
X1011936Y8051901D01*
X1016000Y8052714D01*
X1020064Y8051901D01*
X1023416Y8049514D01*
X1025550Y8045958D01*
X1028039Y8038998D01*
X1034084Y8027365D01*
X1041603Y8016697D01*
X1050544Y8007146D01*
X1060704Y7998866D01*
X1071880Y7992059D01*
X1083868Y7986826D01*
X1096467Y7983321D01*
X1109472Y7981543D01*
X1122527Y7981543D01*
X1135532Y7983321D01*
X1148130Y7986826D01*
X1160119Y7992059D01*
X1171295Y7998866D01*
X1181455Y8007146D01*
X1190396Y8016697D01*
X1197914Y8027365D01*
X1203960Y8038998D01*
X1206449Y8045958D01*
X1208582Y8049514D01*
X1211935Y8051901D01*
X1215999Y8052714D01*
X1220063Y8051901D01*
X1223416Y8049514D01*
X1225550Y8045958D01*
X1228039Y8038998D01*
X1234084Y8027365D01*
X1241602Y8016697D01*
X1250543Y8007146D01*
X1260703Y7998866D01*
X1271879Y7992059D01*
X1283868Y7986826D01*
X1296466Y7983321D01*
X1303274Y7982407D01*
X1303274Y8064500D01*
X1221892Y8064500D01*
X1217980Y8065262D01*
X1214729Y8067497D01*
X1212494Y8070748D01*
X1211732Y8074659D01*
X1211732Y8079740D01*
X1212494Y8083651D01*
X1214729Y8086902D01*
X1217980Y8089138D01*
X1221892Y8089900D01*
X1303274Y8089900D01*
X1303274Y8171992D01*
X1296466Y8171078D01*
X1283868Y8167522D01*
X1271879Y8162340D01*
X1260703Y8155533D01*
X1250543Y8147253D01*
X1241602Y8137702D01*
X1234084Y8127034D01*
X1228039Y8115401D01*
X1225550Y8108442D01*
X1223416Y8104886D01*
X1220063Y8102498D01*
X1215999Y8101685D01*
X1211935Y8102498D01*
X1208582Y8104886D01*
X1206449Y8108442D01*
X1203960Y8115401D01*
X1197914Y8127034D01*
X1190396Y8137702D01*
X1181455Y8147253D01*
X1170736Y8155990D01*
X1167993Y8159496D01*
X1167028Y8163864D01*
X1166977Y8192820D01*
X1166774Y8197443D01*
X1166215Y8201863D01*
X1165250Y8206181D01*
X1163929Y8210448D01*
X1162202Y8214512D01*
X1160170Y8218474D01*
X1157782Y8222234D01*
X1155090Y8225739D01*
X1151940Y8229193D01*
X1064869Y8316264D01*
X1061415Y8319414D01*
X1057910Y8322106D01*
X1054150Y8324494D01*
X1050188Y8326526D01*
X1046124Y8328253D01*
X1041857Y8329574D01*
X1037539Y8330539D01*
X1033119Y8331098D01*
X1028496Y8331301D01*
X527761Y8331301D01*
X523443Y8332266D01*
X520700Y8334349D01*
X517956Y8332266D01*
X513638Y8331301D01*
X254203Y8331301D01*
X249580Y8331098D01*
X245160Y8330539D01*
X240842Y8329574D01*
X236575Y8328253D01*
X232511Y8326526D01*
X228549Y8324494D01*
X224790Y8322106D01*
X221284Y8319414D01*
X217830Y8316264D01*
X116535Y8214969D01*
X113385Y8211515D01*
X110693Y8208009D01*
X108305Y8204250D01*
X106273Y8200288D01*
X104546Y8196224D01*
X103225Y8191957D01*
X102260Y8187639D01*
X101701Y8183219D01*
X101498Y8178596D01*
X101498Y6985203D01*
X101701Y6980580D01*
X102260Y6976160D01*
X103225Y6971842D01*
X104546Y6967575D01*
X106273Y6963511D01*
X108305Y6959549D01*
X110693Y6955790D01*
X113385Y6952284D01*
X116535Y6948830D01*
X275793Y6789623D01*
X277825Y6786727D01*
X281381Y6779006D01*
X287020Y6770979D01*
X293979Y6764020D01*
X302006Y6758381D01*
X310946Y6754266D01*
X320395Y6751726D01*
X330200Y6750862D01*
X340004Y6751726D01*
X349453Y6754266D01*
X358394Y6758381D01*
X366420Y6764020D01*
X373380Y6770979D01*
X379018Y6779006D01*
X383133Y6787946D01*
X385673Y6797395D01*
X386537Y6807200D01*
X385673Y6817004D01*
X383133Y6826453D01*
X379018Y6835394D01*
X373380Y6843420D01*
X366420Y6850380D01*
X358394Y6856018D01*
X350672Y6859574D01*
X347776Y6861606D01*
X206298Y7003135D01*
X204063Y7006386D01*
X203301Y7010298D01*
X203301Y7445552D01*
X204114Y7449515D01*
X206400Y7452817D01*
X209804Y7455001D01*
X213817Y7455662D01*
X217779Y7454747D01*
X222046Y7452766D01*
X231495Y7450226D01*
X241300Y7449362D01*
X251104Y7450226D01*
X260553Y7452766D01*
X269494Y7456881D01*
X277520Y7462520D01*
X279095Y7464094D01*
X282397Y7466330D01*
X286308Y7467092D01*
X429768Y7467092D01*
X434085Y7466126D01*
X437540Y7463485D01*
X439572Y7459573D01*
X439775Y7455153D01*
X438099Y7451090D01*
X433781Y7444994D01*
X429666Y7436053D01*
X427126Y7426604D01*
X426262Y7416800D01*
X427126Y7406995D01*
X429666Y7397546D01*
X433781Y7388606D01*
X439420Y7380579D01*
X440994Y7379004D01*
X443230Y7375702D01*
X443992Y7371791D01*
X443992Y6370218D01*
X443230Y6366306D01*
X440994Y6363004D01*
X303276Y6225235D01*
X298145Y6219037D01*
X294589Y6212332D01*
X292404Y6205118D01*
X291592Y6197092D01*
X291592Y5156708D01*
X292404Y5148681D01*
X294589Y5141468D01*
X298145Y5134762D01*
X303276Y5128564D01*
X340664Y5091176D01*
X346862Y5086045D01*
X353568Y5082489D01*
X360781Y5080304D01*
X368808Y5079492D01*
X513791Y5079492D01*
X517702Y5078730D01*
X521004Y5076494D01*
X522579Y5074920D01*
X530606Y5069281D01*
X539546Y5065166D01*
X548995Y5062626D01*
X558800Y5061762D01*
X568604Y5062626D01*
X578053Y5065166D01*
X583387Y5067604D01*
X587349Y5068570D01*
X591413Y5067858D01*
X594868Y5065572D01*
X607364Y5053076D01*
X613562Y5047996D01*
X620268Y5044440D01*
X627481Y5042204D01*
X635508Y5041442D01*
X798931Y5041442D01*
X802589Y5040782D01*
X805738Y5038801D01*
X807974Y5035905D01*
X809040Y5032349D01*
X808736Y5028641D01*
X808126Y5026304D01*
X807262Y5016500D01*
X808126Y5006695D01*
X810666Y4997246D01*
X814781Y4988306D01*
X820419Y4980279D01*
X827379Y4973320D01*
X835406Y4967681D01*
X844346Y4963566D01*
X853795Y4961026D01*
X863600Y4960162D01*
X868730Y4960620D01*
X873099Y4960010D01*
X876808Y4957673D01*
X992835Y4841646D01*
X998474Y4837074D01*
X1004468Y4834026D01*
X1011072Y4832248D01*
X1016406Y4831842D01*
X1086510Y4831842D01*
X1090625Y4830978D01*
X1093978Y4828590D01*
X1096111Y4825034D01*
X1096670Y4820869D01*
X1095502Y4816906D01*
X1094689Y4815382D01*
X1092504Y4808118D01*
X1091692Y4800092D01*
X1091692Y4785868D01*
X1090930Y4781956D01*
X1088694Y4778705D01*
X1085443Y4776470D01*
X1081532Y4775708D01*
X711708Y4775708D01*
X703681Y4774895D01*
X696468Y4772710D01*
X689762Y4769154D01*
X683564Y4764024D01*
X563321Y4643831D01*
X560425Y4641799D01*
X557022Y4640884D01*
X548995Y4640173D01*
X539546Y4637633D01*
X530606Y4633518D01*
X522579Y4627880D01*
X515620Y4620920D01*
X509981Y4612894D01*
X505866Y4603953D01*
X503326Y4594504D01*
X502615Y4586478D01*
X501700Y4583074D01*
X499668Y4580178D01*
X392176Y4472635D01*
X387045Y4466437D01*
X383489Y4459732D01*
X381304Y4452518D01*
X380492Y4444492D01*
X380492Y4350308D01*
X379730Y4346397D01*
X377494Y4343095D01*
X375920Y4341520D01*
X370281Y4333494D01*
X366166Y4324553D01*
X363626Y4315104D01*
X362762Y4305300D01*
X363626Y4295495D01*
X366166Y4286046D01*
X370281Y4277106D01*
X375920Y4269079D01*
X377494Y4267504D01*
X379730Y4264202D01*
X380492Y4260291D01*
X380492Y4178808D01*
X381304Y4170781D01*
X383489Y4163568D01*
X387045Y4156862D01*
X392176Y4150664D01*
X493064Y4049776D01*
X499262Y4044645D01*
X505968Y4041089D01*
X513181Y4038904D01*
X521208Y4038092D01*
X564591Y4038092D01*
X568502Y4037329D01*
X571804Y4035094D01*
X573379Y4033520D01*
X581406Y4027881D01*
X590346Y4023766D01*
X599795Y4021226D01*
X609600Y4020362D01*
X619404Y4021226D01*
X628853Y4023766D01*
X637794Y4027881D01*
X645820Y4033520D01*
X652780Y4040479D01*
X658418Y4048506D01*
X662533Y4057446D01*
X665073Y4066895D01*
X665937Y4076700D01*
X665073Y4086504D01*
X662533Y4095953D01*
X658418Y4104894D01*
X652780Y4112920D01*
X645820Y4119879D01*
X637794Y4125518D01*
X628853Y4129633D01*
X619404Y4132173D01*
X609600Y4133037D01*
X599795Y4132173D01*
X590346Y4129633D01*
X581406Y4125518D01*
X573379Y4119879D01*
X571804Y4118305D01*
X568502Y4116070D01*
X564591Y4115308D01*
X540918Y4115308D01*
X537006Y4116070D01*
X533704Y4118305D01*
X460705Y4191304D01*
X458470Y4194606D01*
X457708Y4198518D01*
X457708Y4260291D01*
X458470Y4264202D01*
X460705Y4267504D01*
X462280Y4269079D01*
X467918Y4277106D01*
X472033Y4286046D01*
X474573Y4295495D01*
X475437Y4305300D01*
X474573Y4315104D01*
X472033Y4324553D01*
X467918Y4333494D01*
X462280Y4341520D01*
X460705Y4343095D01*
X458470Y4346397D01*
X457708Y4350308D01*
X457708Y4424781D01*
X458470Y4428693D01*
X460705Y4431995D01*
X554278Y4525568D01*
X557174Y4527600D01*
X560578Y4528515D01*
X568604Y4529226D01*
X578053Y4531766D01*
X586994Y4535881D01*
X595020Y4541520D01*
X601980Y4548479D01*
X607618Y4556506D01*
X611733Y4565446D01*
X614273Y4574895D01*
X614984Y4582922D01*
X615899Y4586325D01*
X617931Y4589221D01*
X724204Y4695494D01*
X727506Y4697730D01*
X731418Y4698492D01*
X1081532Y4698492D01*
X1085443Y4697730D01*
X1088694Y4695494D01*
X1090930Y4692243D01*
X1091692Y4688332D01*
X1091692Y4617008D01*
X1090930Y4613097D01*
X1088694Y4609795D01*
X1087120Y4608220D01*
X1081481Y4600194D01*
X1077366Y4591253D01*
X1074826Y4581804D01*
X1073962Y4572000D01*
X1074826Y4562195D01*
X1077366Y4552746D01*
X1081481Y4543806D01*
X1087120Y4535779D01*
X1094079Y4528820D01*
X1102106Y4523181D01*
X1111046Y4519066D01*
X1120495Y4516526D01*
X1130300Y4515662D01*
X1140104Y4516526D01*
X1149553Y4519066D01*
X1158494Y4523181D01*
X1159967Y4524248D01*
X1163878Y4525924D01*
X1168095Y4525822D01*
X1171905Y4524044D01*
X1174699Y4520844D01*
X1175918Y4516831D01*
X1176426Y4511395D01*
X1178966Y4501946D01*
X1183081Y4493006D01*
X1188720Y4485030D01*
X1196644Y4477207D01*
X1198880Y4473905D01*
X1199642Y4469993D01*
X1199642Y4411776D01*
X1198880Y4407865D01*
X1196644Y4404563D01*
X1171346Y4379264D01*
X1166774Y4373626D01*
X1163726Y4367631D01*
X1161948Y4361027D01*
X1161542Y4355693D01*
X1161542Y4246676D01*
X1160780Y4242765D01*
X1158544Y4239463D01*
X840536Y3921455D01*
X837234Y3919220D01*
X833323Y3918458D01*
X724306Y3918458D01*
X720394Y3919220D01*
X717092Y3921455D01*
X709269Y3929379D01*
X701294Y3935018D01*
X692353Y3939133D01*
X682904Y3941673D01*
X673100Y3942537D01*
X663295Y3941673D01*
X653846Y3939133D01*
X644906Y3935018D01*
X636879Y3929379D01*
X629920Y3922420D01*
X624281Y3914394D01*
X620166Y3905453D01*
X617626Y3896004D01*
X616762Y3886200D01*
X617626Y3876395D01*
X620166Y3866946D01*
X624281Y3858006D01*
X629920Y3849979D01*
X636879Y3843020D01*
X644906Y3837381D01*
X653846Y3833266D01*
X663295Y3830726D01*
X673100Y3829862D01*
X682904Y3830726D01*
X692353Y3833266D01*
X701294Y3837381D01*
X709269Y3843020D01*
X717092Y3850944D01*
X720394Y3853179D01*
X724306Y3853942D01*
X799287Y3853942D01*
X803198Y3853179D01*
X806500Y3850944D01*
X808685Y3847693D01*
X809447Y3843782D01*
X808685Y3839870D01*
X806500Y3836619D01*
X706577Y3736695D01*
X703173Y3734460D01*
X699109Y3733749D01*
X695096Y3734663D01*
X692353Y3735933D01*
X682904Y3738473D01*
X673100Y3739337D01*
X663295Y3738473D01*
X653846Y3735933D01*
X644906Y3731818D01*
X636879Y3726179D01*
X629920Y3719220D01*
X624281Y3711194D01*
X620166Y3702253D01*
X617626Y3692804D01*
X616762Y3683000D01*
X617626Y3673195D01*
X620166Y3663746D01*
X624281Y3654806D01*
X629920Y3646779D01*
X636879Y3639820D01*
X644906Y3634181D01*
X653846Y3630066D01*
X663295Y3627526D01*
X673100Y3626662D01*
X682904Y3627526D01*
X692353Y3630066D01*
X701294Y3634181D01*
X709320Y3639820D01*
X716280Y3646779D01*
X721918Y3654806D01*
X726338Y3664356D01*
X728370Y3667251D01*
X1279753Y4218635D01*
X1284325Y4224274D01*
X1287373Y4230268D01*
X1289151Y4236872D01*
X1289558Y4242206D01*
X1289558Y4273753D01*
X1290320Y4277664D01*
X1292555Y4280966D01*
X1300480Y4288790D01*
X1306118Y4296816D01*
X1310233Y4305706D01*
X1312773Y4315206D01*
X1313637Y4324959D01*
X1312773Y4334764D01*
X1310233Y4344263D01*
X1306118Y4353153D01*
X1300480Y4361230D01*
X1293520Y4368139D01*
X1285494Y4373778D01*
X1276553Y4377944D01*
X1271270Y4379366D01*
X1268120Y4380839D01*
X1265631Y4383278D01*
X1264107Y4386478D01*
X1263802Y4389983D01*
X1264158Y4394606D01*
X1264158Y4469993D01*
X1264920Y4473905D01*
X1267155Y4477207D01*
X1275080Y4485030D01*
X1280718Y4493006D01*
X1284833Y4501946D01*
X1287373Y4511395D01*
X1288237Y4521200D01*
X1287373Y4531004D01*
X1284833Y4540453D01*
X1280718Y4549394D01*
X1275080Y4557420D01*
X1268120Y4564380D01*
X1260094Y4570018D01*
X1251153Y4574133D01*
X1241704Y4576673D01*
X1231900Y4577537D01*
X1222095Y4576673D01*
X1212646Y4574133D01*
X1203706Y4570018D01*
X1202232Y4568952D01*
X1198321Y4567275D01*
X1194104Y4567377D01*
X1190294Y4569155D01*
X1187500Y4572355D01*
X1186281Y4576368D01*
X1185773Y4581804D01*
X1183233Y4591253D01*
X1179118Y4600194D01*
X1173480Y4608220D01*
X1171905Y4609795D01*
X1169670Y4613097D01*
X1168908Y4617008D01*
X1168908Y4688332D01*
X1169670Y4692243D01*
X1171905Y4695494D01*
X1175156Y4697730D01*
X1179068Y4698492D01*
X1322832Y4698492D01*
X1326743Y4697730D01*
X1329994Y4695494D01*
X1332230Y4692243D01*
X1332992Y4688332D01*
X1332992Y4674158D01*
X1333804Y4666081D01*
X1335989Y4658868D01*
X1339545Y4652162D01*
X1344676Y4645964D01*
X1368094Y4622495D01*
X1370330Y4619193D01*
X1371092Y4615281D01*
X1371092Y4299508D01*
X1370330Y4295597D01*
X1368094Y4292295D01*
X1366520Y4290720D01*
X1360881Y4282694D01*
X1356766Y4273753D01*
X1354226Y4264304D01*
X1353362Y4254500D01*
X1354226Y4244695D01*
X1356766Y4235246D01*
X1360881Y4226306D01*
X1366520Y4218279D01*
X1373479Y4211320D01*
X1381506Y4205681D01*
X1390446Y4201566D01*
X1399895Y4199026D01*
X1409700Y4198162D01*
X1419504Y4199026D01*
X1428140Y4201312D01*
X1431848Y4201617D01*
X1435404Y4200550D01*
X1438351Y4198315D01*
X1440281Y4195165D01*
X1440942Y4191508D01*
X1440942Y3979976D01*
X1440180Y3976065D01*
X1437944Y3972763D01*
X1130808Y3665626D01*
X1127099Y3663289D01*
X1122730Y3662679D01*
X1117600Y3663137D01*
X1107795Y3662273D01*
X1098346Y3659733D01*
X1089406Y3655618D01*
X1081379Y3649979D01*
X1074420Y3643020D01*
X1068781Y3634994D01*
X1064666Y3626053D01*
X1062126Y3616604D01*
X1061262Y3606800D01*
X1062126Y3596995D01*
X1064666Y3587546D01*
X1068781Y3578606D01*
X1074420Y3570579D01*
X1081379Y3563620D01*
X1089406Y3557981D01*
X1098346Y3553866D01*
X1107795Y3551326D01*
X1117600Y3550462D01*
X1127404Y3551326D01*
X1136853Y3553866D01*
X1145794Y3557981D01*
X1153820Y3563620D01*
X1160780Y3570579D01*
X1166418Y3578606D01*
X1170533Y3587546D01*
X1173073Y3596995D01*
X1173937Y3606800D01*
X1173480Y3611930D01*
X1174089Y3616299D01*
X1176426Y3620008D01*
X1474419Y3918000D01*
X1477670Y3920185D01*
X1481582Y3920947D01*
X1485493Y3920185D01*
X1488744Y3918000D01*
X1490980Y3914698D01*
X1491742Y3910787D01*
X1491742Y3865676D01*
X1490980Y3861765D01*
X1488744Y3858463D01*
X1435608Y3805326D01*
X1431899Y3802989D01*
X1427530Y3802379D01*
X1422400Y3802837D01*
X1412595Y3801973D01*
X1403146Y3799433D01*
X1394206Y3795318D01*
X1386179Y3789679D01*
X1379220Y3782720D01*
X1373581Y3774694D01*
X1369466Y3765753D01*
X1366926Y3756304D01*
X1366062Y3746500D01*
X1366926Y3736695D01*
X1369466Y3727246D01*
X1373581Y3718306D01*
X1379220Y3710279D01*
X1386179Y3703320D01*
X1394206Y3697681D01*
X1403146Y3693566D01*
X1412595Y3691026D01*
X1422400Y3690162D01*
X1432204Y3691026D01*
X1441653Y3693566D01*
X1450594Y3697681D01*
X1458620Y3703320D01*
X1465580Y3710279D01*
X1471218Y3718306D01*
X1475333Y3727246D01*
X1477873Y3736695D01*
X1478737Y3746500D01*
X1478280Y3751630D01*
X1478889Y3755999D01*
X1481226Y3759708D01*
X1546453Y3824935D01*
X1551025Y3830574D01*
X1554073Y3836568D01*
X1555851Y3843172D01*
X1556258Y3848506D01*
X1556258Y4812792D01*
X1555496Y4820005D01*
X1553413Y4826406D01*
X1550009Y4832350D01*
X1546504Y4836414D01*
X1458264Y4924653D01*
X1452626Y4929225D01*
X1446631Y4932273D01*
X1440027Y4934051D01*
X1434693Y4934458D01*
X1046276Y4934458D01*
X1042365Y4935220D01*
X1039063Y4937455D01*
X1001928Y4974590D01*
X999896Y4977485D01*
X998982Y4980889D01*
X999286Y4984394D01*
X1001318Y4988306D01*
X1005433Y4997246D01*
X1007973Y5006695D01*
X1008837Y5016500D01*
X1007973Y5026304D01*
X1007364Y5028641D01*
X1007059Y5032349D01*
X1008126Y5035905D01*
X1010361Y5038801D01*
X1013510Y5040782D01*
X1017168Y5041442D01*
X1071981Y5041442D01*
X1075893Y5040680D01*
X1079195Y5038445D01*
X1096568Y5021072D01*
X1098600Y5018176D01*
X1099515Y5014772D01*
X1100226Y5006695D01*
X1102766Y4997246D01*
X1106881Y4988306D01*
X1112520Y4980279D01*
X1119479Y4973320D01*
X1127506Y4967681D01*
X1136446Y4963566D01*
X1145895Y4961026D01*
X1155700Y4960162D01*
X1165504Y4961026D01*
X1174953Y4963566D01*
X1183894Y4967681D01*
X1191920Y4973320D01*
X1193495Y4974894D01*
X1196797Y4977130D01*
X1200658Y4977892D01*
X1326642Y4977892D01*
X1330502Y4977130D01*
X1333804Y4974894D01*
X1335379Y4973320D01*
X1343406Y4967681D01*
X1352346Y4963566D01*
X1361795Y4961026D01*
X1371600Y4960162D01*
X1381404Y4961026D01*
X1390853Y4963566D01*
X1399794Y4967681D01*
X1407820Y4973320D01*
X1414780Y4980279D01*
X1420418Y4988306D01*
X1424533Y4997246D01*
X1427073Y5006695D01*
X1427937Y5016500D01*
X1427073Y5026304D01*
X1424533Y5035753D01*
X1421790Y5041696D01*
X1420825Y5045710D01*
X1421536Y5049774D01*
X1423822Y5053177D01*
X1427226Y5055463D01*
X1431290Y5056174D01*
X1435303Y5055209D01*
X1441246Y5052466D01*
X1450695Y5049926D01*
X1460500Y5049062D01*
X1470304Y5049926D01*
X1479753Y5052466D01*
X1488694Y5056581D01*
X1496720Y5062220D01*
X1503680Y5069179D01*
X1509318Y5077206D01*
X1513433Y5086146D01*
X1515973Y5095595D01*
X1516837Y5105400D01*
X1515973Y5115204D01*
X1513433Y5124653D01*
X1509318Y5133594D01*
X1503680Y5141620D01*
X1496720Y5148580D01*
X1488694Y5154218D01*
X1479753Y5158333D01*
X1470304Y5160873D01*
X1460500Y5161737D01*
X1450695Y5160873D01*
X1441246Y5158333D01*
X1432306Y5154218D01*
X1426210Y5149900D01*
X1422146Y5148224D01*
X1417726Y5148427D01*
X1413814Y5150459D01*
X1411173Y5153914D01*
X1410208Y5158232D01*
X1410208Y5320792D01*
X1409395Y5328818D01*
X1407210Y5336032D01*
X1403654Y5342737D01*
X1398524Y5348935D01*
X1341323Y5406186D01*
X1339443Y5408726D01*
X1338478Y5411774D01*
X1337665Y5417007D01*
X1337919Y5421325D01*
X1339951Y5425186D01*
X1343456Y5427827D01*
X1347673Y5428742D01*
X1557223Y5428742D01*
X1561134Y5427980D01*
X1564944Y5425236D01*
X1567180Y5421934D01*
X1567942Y5418023D01*
X1567942Y5067706D01*
X1567180Y5063794D01*
X1564944Y5060492D01*
X1557020Y5052669D01*
X1551381Y5044694D01*
X1547266Y5035753D01*
X1544726Y5026304D01*
X1543862Y5016500D01*
X1544726Y5006695D01*
X1547266Y4997246D01*
X1551381Y4988306D01*
X1557020Y4980279D01*
X1563979Y4973320D01*
X1572006Y4967681D01*
X1580946Y4963566D01*
X1587347Y4961839D01*
X1591056Y4959959D01*
X1593697Y4956810D01*
X1594866Y4952898D01*
X1595526Y4945380D01*
X1598066Y4935931D01*
X1602181Y4926990D01*
X1607820Y4918964D01*
X1614779Y4912004D01*
X1622806Y4906365D01*
X1631746Y4902250D01*
X1641195Y4899710D01*
X1651000Y4898847D01*
X1660804Y4899710D01*
X1663496Y4900422D01*
X1667205Y4900726D01*
X1670761Y4899660D01*
X1673707Y4897424D01*
X1675638Y4894224D01*
X1676298Y4890617D01*
X1676298Y4657547D01*
X1675485Y4653584D01*
X1673199Y4650282D01*
X1669796Y4648098D01*
X1665782Y4647438D01*
X1661820Y4648352D01*
X1657553Y4650333D01*
X1648104Y4652873D01*
X1638300Y4653737D01*
X1628495Y4652873D01*
X1619046Y4650333D01*
X1610106Y4646218D01*
X1602079Y4640580D01*
X1595120Y4633620D01*
X1589481Y4625594D01*
X1585366Y4616653D01*
X1582826Y4607204D01*
X1581962Y4597400D01*
X1582826Y4587595D01*
X1585366Y4578146D01*
X1589481Y4569206D01*
X1595120Y4561179D01*
X1596694Y4559604D01*
X1598930Y4556302D01*
X1599692Y4552391D01*
X1599692Y4299508D01*
X1598930Y4295597D01*
X1596694Y4292295D01*
X1595120Y4290720D01*
X1589481Y4282694D01*
X1585366Y4273753D01*
X1582826Y4264304D01*
X1581962Y4254500D01*
X1582826Y4244695D01*
X1585366Y4235246D01*
X1589481Y4226306D01*
X1595120Y4218279D01*
X1602079Y4211320D01*
X1610106Y4205681D01*
X1619046Y4201566D01*
X1628495Y4199026D01*
X1638300Y4198162D01*
X1648104Y4199026D01*
X1657553Y4201566D01*
X1661820Y4203547D01*
X1665782Y4204462D01*
X1669796Y4203801D01*
X1673199Y4201617D01*
X1675485Y4198315D01*
X1676298Y4194352D01*
X1676298Y3455873D01*
X1675384Y3451707D01*
X1672894Y3448253D01*
X1669186Y3446170D01*
X1664970Y3445764D01*
X1660906Y3447135D01*
X1657807Y3450031D01*
X1656080Y3452520D01*
X1649120Y3459479D01*
X1641093Y3465118D01*
X1632153Y3469233D01*
X1622704Y3471773D01*
X1612900Y3472637D01*
X1603095Y3471773D01*
X1593646Y3469233D01*
X1584706Y3465118D01*
X1576679Y3459479D01*
X1569720Y3452520D01*
X1564081Y3444494D01*
X1559966Y3435553D01*
X1557426Y3426104D01*
X1556562Y3416300D01*
X1557426Y3406495D01*
X1559966Y3397046D01*
X1561033Y3394710D01*
X1561998Y3390392D01*
X1561998Y2273808D01*
X1561033Y2269490D01*
X1559966Y2267153D01*
X1557426Y2257704D01*
X1556562Y2247900D01*
X1557426Y2238095D01*
X1559966Y2228646D01*
X1564081Y2219706D01*
X1569720Y2211679D01*
X1576679Y2204720D01*
X1584706Y2199081D01*
X1593646Y2194966D01*
X1603095Y2192426D01*
X1612900Y2191562D01*
X1622704Y2192426D01*
X1632153Y2194966D01*
X1641093Y2199081D01*
X1649120Y2204720D01*
X1656080Y2211679D01*
X1657807Y2214168D01*
X1660906Y2217064D01*
X1664970Y2218436D01*
X1669186Y2218029D01*
X1672894Y2215946D01*
X1675384Y2212492D01*
X1676298Y2208326D01*
X1676298Y2069998D01*
X1675536Y2066086D01*
X1673301Y2062835D01*
X1475435Y1864969D01*
X1472285Y1861515D01*
X1469593Y1858010D01*
X1467205Y1854250D01*
X1465173Y1850288D01*
X1463446Y1846224D01*
X1462125Y1841957D01*
X1461160Y1837639D01*
X1460601Y1833219D01*
X1460398Y1828596D01*
X1460398Y1028598D01*
X1459636Y1024686D01*
X1457401Y1021435D01*
X1429664Y993698D01*
X1426413Y991463D01*
X1422501Y990701D01*
X1378661Y990701D01*
X1374343Y991666D01*
X1371600Y993749D01*
X1368856Y991666D01*
X1364538Y990701D01*
X723798Y990701D01*
X719886Y991463D01*
X716635Y993698D01*
X688898Y1021435D01*
X686663Y1024686D01*
X685901Y1028598D01*
X685901Y1802892D01*
X686866Y1807210D01*
X687933Y1809546D01*
X690473Y1818995D01*
X691337Y1828800D01*
X690473Y1838604D01*
X687933Y1848053D01*
X683818Y1856993D01*
X678180Y1865020D01*
X671220Y1871980D01*
X663194Y1877618D01*
X654253Y1881733D01*
X644804Y1884273D01*
X635000Y1885137D01*
X625195Y1884273D01*
X615746Y1881733D01*
X606806Y1877618D01*
X598779Y1871980D01*
X591820Y1865020D01*
X586181Y1856993D01*
X582066Y1848053D01*
X579526Y1838604D01*
X578662Y1828800D01*
X579526Y1818995D01*
X582066Y1809546D01*
X583133Y1807210D01*
X584098Y1802892D01*
X584098Y1003503D01*
X584301Y998880D01*
X584860Y994460D01*
X585825Y990142D01*
X587146Y985875D01*
X588873Y981811D01*
X590905Y977849D01*
X593293Y974090D01*
X595985Y970584D01*
X599135Y967130D01*
X662330Y903935D01*
X665784Y900785D01*
X669290Y898093D01*
X673049Y895705D01*
X677011Y893673D01*
X681075Y891946D01*
X685342Y890625D01*
X689660Y889660D01*
X694080Y889101D01*
G37*
G36*
X508000Y10483088D02*
G01*
X602843Y10483088D01*
X602742Y10484561D01*
X599998Y10498480D01*
X595426Y10511891D01*
X589178Y10524591D01*
X581304Y10536377D01*
X571957Y10547045D01*
X561289Y10556392D01*
X549503Y10564266D01*
X536752Y10570565D01*
X523341Y10575086D01*
X509422Y10577880D01*
X508000Y10577982D01*
G37*
G36*
X1416456Y10483088D02*
G01*
X1511300Y10483088D01*
X1511300Y10577982D01*
X1509877Y10577880D01*
X1495958Y10575086D01*
X1482547Y10570565D01*
X1469796Y10564266D01*
X1458010Y10556392D01*
X1447342Y10547045D01*
X1437995Y10536377D01*
X1430121Y10524591D01*
X1423873Y10511891D01*
X1419301Y10498480D01*
X1416558Y10484561D01*
G37*
G36*
X640384Y7981289D02*
G01*
X703326Y7981289D01*
X703326Y8064500D01*
X613918Y8064500D01*
X613918Y8007756D01*
X614629Y8001457D01*
X616508Y7995970D01*
X619607Y7991094D01*
X623671Y7986979D01*
X628599Y7983931D01*
X634034Y7982000D01*
G37*
G36*
X1328674Y7982407D02*
G01*
X1335532Y7983321D01*
X1348130Y7986826D01*
X1360119Y7992059D01*
X1371295Y7998866D01*
X1381455Y8007146D01*
X1390396Y8016697D01*
X1397914Y8027365D01*
X1403959Y8038998D01*
X1408328Y8051342D01*
X1411020Y8064500D01*
X1328674Y8064500D01*
G37*
G36*
X1328674Y8089900D02*
G01*
X1411020Y8089900D01*
X1408328Y8103057D01*
X1403959Y8115401D01*
X1397914Y8127034D01*
X1390396Y8137702D01*
X1381455Y8147253D01*
X1371295Y8155533D01*
X1360119Y8162340D01*
X1348130Y8167522D01*
X1335532Y8171078D01*
X1328674Y8171992D01*
G37*
G36*
X613918Y8089900D02*
G01*
X703326Y8089900D01*
X703326Y8173110D01*
X640384Y8173110D01*
X634034Y8172399D01*
X628599Y8170468D01*
X623671Y8167420D01*
X619607Y8163306D01*
X616508Y8158429D01*
X614629Y8152942D01*
X613918Y8146643D01*
G37*
G36*
X520700Y8348472D02*
G01*
X522681Y8350250D01*
X526846Y8351570D01*
X530504Y8351926D01*
X539953Y8354466D01*
X548894Y8358581D01*
X556920Y8364220D01*
X558495Y8365794D01*
X561797Y8368030D01*
X565708Y8368792D01*
X1040892Y8368792D01*
X1048918Y8369604D01*
X1056132Y8371789D01*
X1062837Y8375345D01*
X1069035Y8380475D01*
X1106424Y8417864D01*
X1111554Y8424062D01*
X1115110Y8430768D01*
X1117295Y8437981D01*
X1118108Y8446008D01*
X1118108Y9962743D01*
X1118870Y9966655D01*
X1121105Y9969957D01*
X1122680Y9971532D01*
X1128318Y9979558D01*
X1132433Y9988499D01*
X1134973Y9997948D01*
X1135837Y10007752D01*
X1134973Y10017556D01*
X1132433Y10027005D01*
X1128318Y10035946D01*
X1122680Y10043972D01*
X1121105Y10045547D01*
X1118870Y10048849D01*
X1118108Y10052761D01*
X1118108Y10855655D01*
X1118870Y10859566D01*
X1121105Y10862868D01*
X1475028Y11216843D01*
X1478127Y11218926D01*
X1481785Y11219789D01*
X1485493Y11219230D01*
X1495958Y11215725D01*
X1509877Y11212931D01*
X1524000Y11212017D01*
X1538122Y11212931D01*
X1552041Y11215725D01*
X1565452Y11220246D01*
X1578203Y11226546D01*
X1589989Y11234420D01*
X1600657Y11243767D01*
X1610004Y11254435D01*
X1617878Y11266220D01*
X1624126Y11278920D01*
X1628698Y11292332D01*
X1631442Y11306251D01*
X1632407Y11320373D01*
X1631442Y11334546D01*
X1628698Y11348466D01*
X1624126Y11361877D01*
X1617878Y11374577D01*
X1610004Y11386362D01*
X1600657Y11397030D01*
X1589989Y11406378D01*
X1578203Y11414252D01*
X1565452Y11420551D01*
X1552041Y11425072D01*
X1538122Y11427866D01*
X1524000Y11428780D01*
X1509877Y11427866D01*
X1495958Y11425072D01*
X1482547Y11420551D01*
X1469796Y11414252D01*
X1458010Y11406378D01*
X1447342Y11397030D01*
X1437995Y11386362D01*
X1430121Y11374577D01*
X1423873Y11361877D01*
X1419301Y11348466D01*
X1416558Y11334546D01*
X1415592Y11320373D01*
X1416558Y11306251D01*
X1419301Y11292332D01*
X1422857Y11281867D01*
X1423416Y11278158D01*
X1422552Y11274501D01*
X1420418Y11271402D01*
X1052576Y10903508D01*
X1047445Y10897311D01*
X1043889Y10890656D01*
X1041704Y10883392D01*
X1040892Y10875365D01*
X1040892Y10052761D01*
X1040130Y10048849D01*
X1037894Y10045547D01*
X1036319Y10043972D01*
X1030681Y10035946D01*
X1026566Y10027005D01*
X1024026Y10017556D01*
X1023162Y10007752D01*
X1024026Y9997948D01*
X1026566Y9988499D01*
X1030681Y9979558D01*
X1036319Y9971532D01*
X1037894Y9969957D01*
X1040130Y9966655D01*
X1040892Y9962743D01*
X1040892Y8465718D01*
X1040130Y8461806D01*
X1037894Y8458504D01*
X1028395Y8449005D01*
X1025093Y8446770D01*
X1021181Y8446008D01*
X565708Y8446008D01*
X561797Y8446770D01*
X558495Y8449005D01*
X556920Y8450580D01*
X548894Y8456218D01*
X539953Y8460333D01*
X530504Y8462873D01*
X520700Y8463737D01*
X510895Y8462873D01*
X501446Y8460333D01*
X492506Y8456218D01*
X484479Y8450580D01*
X477520Y8443620D01*
X471881Y8435594D01*
X467766Y8426653D01*
X465226Y8417204D01*
X464362Y8407400D01*
X465226Y8397595D01*
X467766Y8388146D01*
X471881Y8379206D01*
X477520Y8371179D01*
X484479Y8364220D01*
X492506Y8358581D01*
X501446Y8354466D01*
X510895Y8351926D01*
X514553Y8351570D01*
X518718Y8350250D01*
G37*
G36*
X1778000Y8370417D02*
G01*
X1793189Y8371331D01*
X1808124Y8374075D01*
X1822653Y8378596D01*
X1836521Y8384844D01*
X1849526Y8392718D01*
X1861464Y8402066D01*
X1872234Y8412835D01*
X1881581Y8424773D01*
X1889455Y8437778D01*
X1895703Y8451646D01*
X1900224Y8466175D01*
X1902968Y8481110D01*
X1903882Y8496300D01*
X1902968Y8511489D01*
X1900224Y8526424D01*
X1895703Y8540953D01*
X1889455Y8554821D01*
X1881581Y8567826D01*
X1872234Y8579764D01*
X1861464Y8590534D01*
X1849526Y8599881D01*
X1836521Y8607755D01*
X1822653Y8614003D01*
X1808124Y8618524D01*
X1793189Y8621268D01*
X1778000Y8622182D01*
X1762810Y8621268D01*
X1747875Y8618524D01*
X1733346Y8614003D01*
X1719478Y8607755D01*
X1706473Y8599881D01*
X1694535Y8590534D01*
X1683766Y8579764D01*
X1674418Y8567826D01*
X1666544Y8554821D01*
X1660296Y8540953D01*
X1655775Y8526424D01*
X1653032Y8511489D01*
X1652117Y8496300D01*
X1653032Y8481110D01*
X1655775Y8466175D01*
X1660296Y8451646D01*
X1666544Y8437778D01*
X1674418Y8424773D01*
X1683766Y8412835D01*
X1694535Y8402066D01*
X1706473Y8392718D01*
X1719478Y8384844D01*
X1733346Y8378596D01*
X1747875Y8374075D01*
X1762810Y8371331D01*
G37*
G36*
X254000Y8383117D02*
G01*
X269189Y8384031D01*
X284124Y8386775D01*
X298653Y8391296D01*
X312521Y8397544D01*
X325526Y8405418D01*
X337464Y8414766D01*
X348234Y8425535D01*
X357581Y8437473D01*
X365455Y8450478D01*
X371703Y8464346D01*
X376224Y8478875D01*
X378968Y8493810D01*
X379882Y8509000D01*
X378968Y8524189D01*
X376224Y8539124D01*
X371703Y8553653D01*
X365455Y8567521D01*
X357581Y8580526D01*
X348234Y8592464D01*
X337464Y8603234D01*
X325526Y8612581D01*
X312521Y8620455D01*
X298653Y8626703D01*
X284124Y8631224D01*
X269189Y8633968D01*
X254000Y8634882D01*
X238810Y8633968D01*
X223875Y8631224D01*
X209346Y8626703D01*
X195478Y8620455D01*
X182473Y8612581D01*
X170535Y8603234D01*
X159766Y8592464D01*
X150418Y8580526D01*
X142544Y8567521D01*
X136296Y8553653D01*
X131775Y8539124D01*
X129032Y8524189D01*
X128117Y8509000D01*
X129032Y8493810D01*
X131775Y8478875D01*
X136296Y8464346D01*
X142544Y8450478D01*
X150418Y8437473D01*
X159766Y8425535D01*
X170535Y8414766D01*
X182473Y8405418D01*
X195478Y8397544D01*
X209346Y8391296D01*
X223875Y8386775D01*
X238810Y8384031D01*
G37*
G36*
X1511300Y8538819D02*
G01*
X1511300Y8633663D01*
X1416456Y8633663D01*
X1416558Y8632240D01*
X1419301Y8618321D01*
X1423873Y8604910D01*
X1430121Y8592210D01*
X1437995Y8580424D01*
X1447342Y8569756D01*
X1458010Y8560409D01*
X1469796Y8552535D01*
X1482547Y8546236D01*
X1495958Y8541715D01*
X1509877Y8538921D01*
G37*
G36*
X1536700Y8538819D02*
G01*
X1538122Y8538921D01*
X1552041Y8541715D01*
X1565452Y8546236D01*
X1578203Y8552535D01*
X1589989Y8560409D01*
X1600657Y8569756D01*
X1610004Y8580424D01*
X1617878Y8592210D01*
X1624126Y8604910D01*
X1628698Y8618321D01*
X1631442Y8632240D01*
X1631543Y8633663D01*
X1536700Y8633663D01*
G37*
G36*
X482600Y8538819D02*
G01*
X482600Y8633663D01*
X387756Y8633663D01*
X387858Y8632240D01*
X390601Y8618321D01*
X395173Y8604910D01*
X401421Y8592210D01*
X409295Y8580424D01*
X418642Y8569756D01*
X429310Y8560409D01*
X441096Y8552535D01*
X453847Y8546236D01*
X467258Y8541715D01*
X481177Y8538921D01*
G37*
G36*
X508000Y8538819D02*
G01*
X509422Y8538921D01*
X523341Y8541715D01*
X536752Y8546236D01*
X549503Y8552535D01*
X561289Y8560409D01*
X571957Y8569756D01*
X581304Y8580424D01*
X589178Y8592210D01*
X595426Y8604910D01*
X599998Y8618321D01*
X602742Y8632240D01*
X602843Y8633663D01*
X508000Y8633663D01*
G37*
G36*
X1536700Y8659063D02*
G01*
X1631543Y8659063D01*
X1631442Y8660536D01*
X1628698Y8674455D01*
X1624126Y8687866D01*
X1617878Y8700566D01*
X1610004Y8712352D01*
X1600657Y8723020D01*
X1589989Y8732367D01*
X1578203Y8740241D01*
X1565452Y8746540D01*
X1552041Y8751062D01*
X1538122Y8753856D01*
X1536700Y8753957D01*
G37*
G36*
X1416456Y8659063D02*
G01*
X1511300Y8659063D01*
X1511300Y8753957D01*
X1509877Y8753856D01*
X1495958Y8751062D01*
X1482547Y8746540D01*
X1469796Y8740241D01*
X1458010Y8732367D01*
X1447342Y8723020D01*
X1437995Y8712352D01*
X1430121Y8700566D01*
X1423873Y8687866D01*
X1419301Y8674455D01*
X1416558Y8660536D01*
G37*
G36*
X1524000Y8838031D02*
G01*
X1538122Y8838946D01*
X1552041Y8841740D01*
X1565452Y8846261D01*
X1578203Y8852560D01*
X1589989Y8860434D01*
X1600657Y8869781D01*
X1610004Y8880449D01*
X1617878Y8892235D01*
X1624126Y8904935D01*
X1628698Y8918346D01*
X1631442Y8932265D01*
X1632407Y8946388D01*
X1631442Y8960561D01*
X1628698Y8974480D01*
X1624126Y8987891D01*
X1617878Y9000591D01*
X1610004Y9012377D01*
X1600657Y9023045D01*
X1589989Y9032392D01*
X1578203Y9040266D01*
X1565452Y9046565D01*
X1552041Y9051086D01*
X1538122Y9053880D01*
X1524000Y9054795D01*
X1509877Y9053880D01*
X1495958Y9051086D01*
X1482547Y9046565D01*
X1469796Y9040266D01*
X1458010Y9032392D01*
X1447342Y9023045D01*
X1437995Y9012377D01*
X1430121Y9000591D01*
X1423873Y8987891D01*
X1419301Y8974480D01*
X1416558Y8960561D01*
X1415592Y8946388D01*
X1416558Y8932265D01*
X1419301Y8918346D01*
X1423873Y8904935D01*
X1430121Y8892235D01*
X1437995Y8880449D01*
X1447342Y8869781D01*
X1458010Y8860434D01*
X1469796Y8852560D01*
X1482547Y8846261D01*
X1495958Y8841740D01*
X1509877Y8838946D01*
G37*
G36*
X499872Y9120581D02*
G01*
X517906Y9121952D01*
X535736Y9125204D01*
X553110Y9130284D01*
X569874Y9137091D01*
X585876Y9145625D01*
X600913Y9155734D01*
X614781Y9167317D01*
X627430Y9180271D01*
X638708Y9194495D01*
X648411Y9209786D01*
X656488Y9225940D01*
X662889Y9242907D01*
X667512Y9260433D01*
X670306Y9278315D01*
X671220Y9296400D01*
X670306Y9314484D01*
X667512Y9332366D01*
X662889Y9349892D01*
X656488Y9366859D01*
X648411Y9383014D01*
X638708Y9398304D01*
X627430Y9412528D01*
X614781Y9425482D01*
X600913Y9437065D01*
X585876Y9447174D01*
X569874Y9455708D01*
X553110Y9462516D01*
X535736Y9467596D01*
X517906Y9470847D01*
X499872Y9472218D01*
X481736Y9471761D01*
X463804Y9469424D01*
X446176Y9465310D01*
X429056Y9459315D01*
X412648Y9451644D01*
X397154Y9442348D01*
X382625Y9431477D01*
X369366Y9419183D01*
X357378Y9405569D01*
X346913Y9390786D01*
X337972Y9375038D01*
X330758Y9358426D01*
X325221Y9341205D01*
X321513Y9323476D01*
X319684Y9305442D01*
X319684Y9287357D01*
X321513Y9269323D01*
X325221Y9251594D01*
X330758Y9234373D01*
X337972Y9217761D01*
X346913Y9202013D01*
X357378Y9187230D01*
X369366Y9173616D01*
X382625Y9161322D01*
X397154Y9150451D01*
X412648Y9141155D01*
X429056Y9133484D01*
X446176Y9127490D01*
X463804Y9123375D01*
X481736Y9121038D01*
G37*
G36*
X1528572Y9120581D02*
G01*
X1546606Y9121952D01*
X1564436Y9125204D01*
X1581810Y9130284D01*
X1598574Y9137091D01*
X1614576Y9145625D01*
X1629613Y9155734D01*
X1643481Y9167317D01*
X1656130Y9180271D01*
X1667408Y9194495D01*
X1677111Y9209786D01*
X1685188Y9225940D01*
X1691589Y9242907D01*
X1696212Y9260433D01*
X1699006Y9278315D01*
X1699920Y9296400D01*
X1699006Y9314484D01*
X1696212Y9332366D01*
X1691589Y9349892D01*
X1685188Y9366859D01*
X1677111Y9383014D01*
X1667408Y9398304D01*
X1656130Y9412528D01*
X1643481Y9425482D01*
X1629613Y9437065D01*
X1614576Y9447174D01*
X1598574Y9455708D01*
X1581810Y9462516D01*
X1564436Y9467596D01*
X1546606Y9470847D01*
X1528572Y9472218D01*
X1510436Y9471761D01*
X1492504Y9469424D01*
X1474876Y9465310D01*
X1457756Y9459315D01*
X1441348Y9451644D01*
X1425854Y9442348D01*
X1411325Y9431477D01*
X1398066Y9419183D01*
X1386078Y9405569D01*
X1375613Y9390786D01*
X1366672Y9375038D01*
X1359458Y9358426D01*
X1353921Y9341205D01*
X1350213Y9323476D01*
X1348384Y9305442D01*
X1348384Y9287357D01*
X1350213Y9269323D01*
X1353921Y9251594D01*
X1359458Y9234373D01*
X1366672Y9217761D01*
X1375613Y9202013D01*
X1386078Y9187230D01*
X1398066Y9173616D01*
X1411325Y9161322D01*
X1425854Y9150451D01*
X1441348Y9141155D01*
X1457756Y9133484D01*
X1474876Y9127490D01*
X1492504Y9123375D01*
X1510436Y9121038D01*
G37*
G36*
X495300Y9688017D02*
G01*
X509422Y9688931D01*
X523341Y9691725D01*
X536752Y9696246D01*
X549503Y9702546D01*
X561289Y9710420D01*
X571957Y9719767D01*
X581304Y9730435D01*
X589178Y9742220D01*
X595426Y9754920D01*
X599998Y9768332D01*
X602742Y9782251D01*
X603707Y9796373D01*
X602742Y9810546D01*
X599998Y9824466D01*
X595426Y9837877D01*
X589178Y9850577D01*
X581304Y9862362D01*
X571957Y9873030D01*
X561289Y9882378D01*
X549503Y9890252D01*
X536752Y9896551D01*
X523341Y9901072D01*
X509422Y9903866D01*
X495300Y9904780D01*
X481177Y9903866D01*
X467258Y9901072D01*
X453847Y9896551D01*
X441096Y9890252D01*
X429310Y9882378D01*
X418642Y9873030D01*
X409295Y9862362D01*
X401421Y9850577D01*
X395173Y9837877D01*
X390601Y9824466D01*
X387858Y9810546D01*
X386892Y9796373D01*
X387858Y9782251D01*
X390601Y9768332D01*
X395173Y9754920D01*
X401421Y9742220D01*
X409295Y9730435D01*
X418642Y9719767D01*
X429310Y9710420D01*
X441096Y9702546D01*
X453847Y9696246D01*
X467258Y9691725D01*
X481177Y9688931D01*
G37*
G36*
X1524000Y9688017D02*
G01*
X1538122Y9688931D01*
X1552041Y9691725D01*
X1565452Y9696246D01*
X1578203Y9702546D01*
X1589989Y9710420D01*
X1600657Y9719767D01*
X1610004Y9730435D01*
X1617878Y9742220D01*
X1624126Y9754920D01*
X1628698Y9768332D01*
X1631442Y9782251D01*
X1632407Y9796373D01*
X1631442Y9810546D01*
X1628698Y9824466D01*
X1624126Y9837877D01*
X1617878Y9850577D01*
X1610004Y9862362D01*
X1600657Y9873030D01*
X1589989Y9882378D01*
X1578203Y9890252D01*
X1565452Y9896551D01*
X1552041Y9901072D01*
X1538122Y9903866D01*
X1524000Y9904780D01*
X1509877Y9903866D01*
X1495958Y9901072D01*
X1482547Y9896551D01*
X1469796Y9890252D01*
X1458010Y9882378D01*
X1447342Y9873030D01*
X1437995Y9862362D01*
X1430121Y9850577D01*
X1423873Y9837877D01*
X1419301Y9824466D01*
X1416558Y9810546D01*
X1415592Y9796373D01*
X1416558Y9782251D01*
X1419301Y9768332D01*
X1423873Y9754920D01*
X1430121Y9742220D01*
X1437995Y9730435D01*
X1447342Y9719767D01*
X1458010Y9710420D01*
X1469796Y9702546D01*
X1482547Y9696246D01*
X1495958Y9691725D01*
X1509877Y9688931D01*
G37*
G36*
X1536700Y10062819D02*
G01*
X1538122Y10062921D01*
X1552041Y10065715D01*
X1565452Y10070236D01*
X1578203Y10076535D01*
X1589989Y10084409D01*
X1600657Y10093756D01*
X1610004Y10104424D01*
X1617878Y10116210D01*
X1624126Y10128910D01*
X1628698Y10142321D01*
X1631442Y10156240D01*
X1631543Y10157663D01*
X1536700Y10157663D01*
G37*
G36*
X1511300Y10062819D02*
G01*
X1511300Y10157663D01*
X1416456Y10157663D01*
X1416558Y10156240D01*
X1419301Y10142321D01*
X1423873Y10128910D01*
X1430121Y10116210D01*
X1437995Y10104424D01*
X1447342Y10093756D01*
X1458010Y10084409D01*
X1469796Y10076535D01*
X1482547Y10070236D01*
X1495958Y10065715D01*
X1509877Y10062921D01*
G37*
G36*
X482600Y10062819D02*
G01*
X482600Y10157663D01*
X387756Y10157663D01*
X387858Y10156240D01*
X390601Y10142321D01*
X395173Y10128910D01*
X401421Y10116210D01*
X409295Y10104424D01*
X418642Y10093756D01*
X429310Y10084409D01*
X441096Y10076535D01*
X453847Y10070236D01*
X467258Y10065715D01*
X481177Y10062921D01*
G37*
G36*
X508000Y10062819D02*
G01*
X509422Y10062921D01*
X523341Y10065715D01*
X536752Y10070236D01*
X549503Y10076535D01*
X561289Y10084409D01*
X571957Y10093756D01*
X581304Y10104424D01*
X589178Y10116210D01*
X595426Y10128910D01*
X599998Y10142321D01*
X602742Y10156240D01*
X602843Y10157663D01*
X508000Y10157663D01*
G37*
G36*
X1416456Y10183063D02*
G01*
X1511300Y10183063D01*
X1511300Y10277957D01*
X1509877Y10277856D01*
X1495958Y10275062D01*
X1482547Y10270540D01*
X1469796Y10264241D01*
X1458010Y10256367D01*
X1447342Y10247020D01*
X1437995Y10236352D01*
X1430121Y10224566D01*
X1423873Y10211866D01*
X1419301Y10198455D01*
X1416558Y10184536D01*
G37*
G36*
X1536700Y10183063D02*
G01*
X1631543Y10183063D01*
X1631442Y10184536D01*
X1628698Y10198455D01*
X1624126Y10211866D01*
X1617878Y10224566D01*
X1610004Y10236352D01*
X1600657Y10247020D01*
X1589989Y10256367D01*
X1578203Y10264241D01*
X1565452Y10270540D01*
X1552041Y10275062D01*
X1538122Y10277856D01*
X1536700Y10277957D01*
G37*
G36*
X508000Y10183063D02*
G01*
X602843Y10183063D01*
X602742Y10184536D01*
X599998Y10198455D01*
X595426Y10211866D01*
X589178Y10224566D01*
X581304Y10236352D01*
X571957Y10247020D01*
X561289Y10256367D01*
X549503Y10264241D01*
X536752Y10270540D01*
X523341Y10275062D01*
X509422Y10277856D01*
X508000Y10277957D01*
G37*
G36*
X387756Y10183063D02*
G01*
X482600Y10183063D01*
X482600Y10277957D01*
X481177Y10277856D01*
X467258Y10275062D01*
X453847Y10270540D01*
X441096Y10264241D01*
X429310Y10256367D01*
X418642Y10247020D01*
X409295Y10236352D01*
X401421Y10224566D01*
X395173Y10211866D01*
X390601Y10198455D01*
X387858Y10184536D01*
G37*
G36*
X482600Y10362844D02*
G01*
X482600Y10457688D01*
X387756Y10457688D01*
X387858Y10456265D01*
X390601Y10442346D01*
X395173Y10428935D01*
X401421Y10416235D01*
X409295Y10404449D01*
X418642Y10393781D01*
X429310Y10384434D01*
X441096Y10376560D01*
X453847Y10370261D01*
X467258Y10365740D01*
X481177Y10362946D01*
G37*
G36*
X1536700Y10362844D02*
G01*
X1538122Y10362946D01*
X1552041Y10365740D01*
X1565452Y10370261D01*
X1578203Y10376560D01*
X1589989Y10384434D01*
X1600657Y10393781D01*
X1610004Y10404449D01*
X1617878Y10416235D01*
X1624126Y10428935D01*
X1628698Y10442346D01*
X1631442Y10456265D01*
X1631543Y10457688D01*
X1536700Y10457688D01*
G37*
G36*
X1511300Y10362844D02*
G01*
X1511300Y10457688D01*
X1416456Y10457688D01*
X1416558Y10456265D01*
X1419301Y10442346D01*
X1423873Y10428935D01*
X1430121Y10416235D01*
X1437995Y10404449D01*
X1447342Y10393781D01*
X1458010Y10384434D01*
X1469796Y10376560D01*
X1482547Y10370261D01*
X1495958Y10365740D01*
X1509877Y10362946D01*
G37*
G36*
X508000Y10362844D02*
G01*
X509422Y10362946D01*
X523341Y10365740D01*
X536752Y10370261D01*
X549503Y10376560D01*
X561289Y10384434D01*
X571957Y10393781D01*
X581304Y10404449D01*
X589178Y10416235D01*
X595426Y10428935D01*
X599998Y10442346D01*
X602742Y10456265D01*
X602843Y10457688D01*
X508000Y10457688D01*
G37*
G36*
X1536700Y10483088D02*
G01*
X1631543Y10483088D01*
X1631442Y10484561D01*
X1628698Y10498480D01*
X1624126Y10511891D01*
X1617878Y10524591D01*
X1610004Y10536377D01*
X1600657Y10547045D01*
X1589989Y10556392D01*
X1578203Y10564266D01*
X1565452Y10570565D01*
X1552041Y10575086D01*
X1538122Y10577880D01*
X1536700Y10577982D01*
G37*

%LPD*%
G36*
X286308Y7544308D02*
G01*
X282397Y7545070D01*
X279095Y7547305D01*
X277520Y7548880D01*
X269494Y7554518D01*
X260553Y7558633D01*
X251104Y7561173D01*
X241300Y7562037D01*
X231495Y7561173D01*
X222046Y7558633D01*
X217779Y7556652D01*
X213817Y7555738D01*
X209804Y7556398D01*
X206400Y7558582D01*
X204114Y7561884D01*
X203301Y7565847D01*
X203301Y7902752D01*
X204114Y7906715D01*
X206400Y7910017D01*
X209804Y7912201D01*
X213817Y7912862D01*
X217779Y7911947D01*
X222046Y7909966D01*
X231495Y7907426D01*
X241300Y7906562D01*
X251104Y7907426D01*
X260553Y7909966D01*
X269494Y7914081D01*
X277520Y7919720D01*
X279095Y7921294D01*
X282397Y7923530D01*
X286308Y7924292D01*
X396849Y7924292D01*
X400812Y7923479D01*
X404164Y7921193D01*
X406349Y7917789D01*
X407009Y7913776D01*
X406044Y7909814D01*
X404266Y7905953D01*
X401726Y7896504D01*
X400862Y7886700D01*
X401726Y7876895D01*
X404266Y7867446D01*
X408381Y7858506D01*
X414020Y7850479D01*
X420979Y7843520D01*
X429006Y7837881D01*
X437946Y7833766D01*
X447395Y7831226D01*
X455422Y7830515D01*
X458825Y7829600D01*
X461721Y7827568D01*
X716127Y7573162D01*
X718312Y7569911D01*
X719124Y7566152D01*
X718464Y7562342D01*
X716381Y7559040D01*
X713282Y7556753D01*
X708406Y7554518D01*
X700379Y7548880D01*
X698804Y7547305D01*
X695502Y7545070D01*
X691591Y7544308D01*
G37*

%LPD*%
G36*
X616102Y5226558D02*
G01*
X612089Y5227370D01*
X608736Y5229707D01*
X606552Y5233111D01*
X605942Y5237124D01*
X606907Y5241086D01*
X611784Y5251246D01*
X614273Y5260695D01*
X615137Y5270500D01*
X614680Y5275630D01*
X615289Y5279999D01*
X617626Y5283708D01*
X619963Y5286044D01*
X623265Y5288280D01*
X627176Y5289042D01*
X913841Y5289042D01*
X918108Y5288076D01*
X921613Y5285435D01*
X923645Y5281523D01*
X924966Y5276646D01*
X929081Y5267706D01*
X934719Y5259679D01*
X941679Y5252720D01*
X949706Y5247081D01*
X952246Y5245912D01*
X955395Y5243626D01*
X957427Y5240324D01*
X958087Y5236464D01*
X957275Y5232654D01*
X955040Y5229453D01*
X951788Y5227320D01*
X947928Y5226558D01*
G37*

%LPD*%
G36*
X1200708Y5055108D02*
G01*
X1196797Y5055870D01*
X1193495Y5058054D01*
X1191920Y5059680D01*
X1183894Y5065318D01*
X1174953Y5069433D01*
X1165504Y5071973D01*
X1157528Y5072684D01*
X1154125Y5073599D01*
X1151229Y5075631D01*
X1119835Y5106974D01*
X1113637Y5112105D01*
X1106932Y5115661D01*
X1099718Y5117846D01*
X1091692Y5118658D01*
X655218Y5118658D01*
X651306Y5119420D01*
X648004Y5121605D01*
X624941Y5144719D01*
X622757Y5148021D01*
X621944Y5151882D01*
X622757Y5155793D01*
X624941Y5159095D01*
X628243Y5161280D01*
X632104Y5162042D01*
X977392Y5162042D01*
X984605Y5162804D01*
X991006Y5164886D01*
X996950Y5168341D01*
X1001014Y5171795D01*
X1030071Y5200853D01*
X1032967Y5202885D01*
X1036370Y5203799D01*
X1039876Y5203494D01*
X1044295Y5202326D01*
X1054100Y5201462D01*
X1063904Y5202326D01*
X1073353Y5204866D01*
X1082294Y5208981D01*
X1090320Y5214620D01*
X1097280Y5221579D01*
X1102918Y5229606D01*
X1107033Y5238546D01*
X1109573Y5247995D01*
X1110437Y5257800D01*
X1109573Y5267604D01*
X1107033Y5277053D01*
X1102918Y5285994D01*
X1097280Y5294020D01*
X1090320Y5300980D01*
X1082294Y5306618D01*
X1073353Y5310733D01*
X1063904Y5313273D01*
X1054100Y5314137D01*
X1044295Y5313273D01*
X1041349Y5312511D01*
X1037844Y5312206D01*
X1034440Y5313121D01*
X1031544Y5315153D01*
X1029512Y5317998D01*
X1026718Y5324094D01*
X1021080Y5332120D01*
X1014120Y5339080D01*
X1006094Y5344718D01*
X997153Y5348833D01*
X987704Y5351373D01*
X977900Y5352237D01*
X967232Y5351322D01*
X963930Y5351576D01*
X957529Y5353151D01*
X952093Y5353558D01*
X610108Y5353558D01*
X602894Y5352796D01*
X596493Y5350713D01*
X590550Y5347309D01*
X586486Y5343804D01*
X572008Y5329326D01*
X568299Y5326989D01*
X563930Y5326380D01*
X558800Y5326837D01*
X548995Y5325973D01*
X539546Y5323433D01*
X530606Y5319318D01*
X522579Y5313680D01*
X515620Y5306720D01*
X509981Y5298694D01*
X505866Y5289753D01*
X503326Y5280304D01*
X502462Y5270500D01*
X503326Y5260695D01*
X505866Y5251246D01*
X509981Y5242306D01*
X512876Y5238242D01*
X514502Y5234432D01*
X514502Y5230368D01*
X512876Y5226558D01*
X509981Y5222494D01*
X505866Y5213553D01*
X503326Y5204104D01*
X502462Y5194300D01*
X503326Y5184495D01*
X505866Y5175046D01*
X507644Y5171186D01*
X508609Y5167223D01*
X507949Y5163210D01*
X505764Y5159806D01*
X502412Y5157520D01*
X498449Y5156708D01*
X388518Y5156708D01*
X384606Y5157470D01*
X381304Y5159705D01*
X371805Y5169204D01*
X369570Y5172506D01*
X368808Y5176418D01*
X368808Y5471668D01*
X369773Y5475986D01*
X372414Y5479440D01*
X376326Y5481472D01*
X380746Y5481675D01*
X384810Y5479999D01*
X390906Y5475681D01*
X399846Y5471566D01*
X409295Y5469026D01*
X419100Y5468162D01*
X428904Y5469026D01*
X438353Y5471566D01*
X447293Y5475681D01*
X455320Y5481320D01*
X462280Y5488279D01*
X467918Y5496306D01*
X472033Y5505246D01*
X474573Y5514695D01*
X475284Y5522722D01*
X476199Y5526125D01*
X478231Y5529021D01*
X649224Y5700064D01*
X654354Y5706262D01*
X657910Y5712968D01*
X660095Y5720181D01*
X660908Y5728208D01*
X660908Y6025591D01*
X661670Y6029502D01*
X663905Y6032804D01*
X665480Y6034379D01*
X671118Y6042406D01*
X675233Y6051346D01*
X677773Y6060795D01*
X678637Y6070600D01*
X677773Y6080404D01*
X675233Y6089853D01*
X671118Y6098794D01*
X665480Y6106820D01*
X658520Y6113780D01*
X650494Y6119418D01*
X641553Y6123533D01*
X632104Y6126073D01*
X622300Y6126937D01*
X612495Y6126073D01*
X603046Y6123533D01*
X594106Y6119418D01*
X586079Y6113780D01*
X579120Y6106820D01*
X573481Y6098794D01*
X569366Y6089853D01*
X566826Y6080404D01*
X565962Y6070600D01*
X566826Y6060795D01*
X569366Y6051346D01*
X573481Y6042406D01*
X579120Y6034379D01*
X580694Y6032804D01*
X582930Y6029502D01*
X583692Y6025591D01*
X583692Y5747918D01*
X582930Y5744006D01*
X580694Y5740704D01*
X423621Y5583631D01*
X420725Y5581599D01*
X417322Y5580684D01*
X409295Y5579973D01*
X399846Y5577433D01*
X390906Y5573318D01*
X384810Y5569000D01*
X380746Y5567324D01*
X376326Y5567527D01*
X372414Y5569559D01*
X369773Y5573014D01*
X368808Y5577332D01*
X368808Y6177381D01*
X369570Y6181293D01*
X371805Y6184595D01*
X509524Y6322364D01*
X514654Y6328562D01*
X518210Y6335268D01*
X520395Y6342481D01*
X521208Y6350508D01*
X521208Y7371791D01*
X521970Y7375702D01*
X524205Y7379004D01*
X525780Y7380579D01*
X531418Y7388606D01*
X535533Y7397546D01*
X538073Y7406995D01*
X538937Y7416800D01*
X538073Y7426604D01*
X535533Y7436053D01*
X531418Y7444994D01*
X527100Y7451090D01*
X525424Y7455153D01*
X525627Y7459573D01*
X527659Y7463485D01*
X531114Y7466126D01*
X535432Y7467092D01*
X691591Y7467092D01*
X695502Y7466330D01*
X698804Y7464094D01*
X700379Y7462520D01*
X708406Y7456881D01*
X717346Y7452766D01*
X726795Y7450226D01*
X736600Y7449362D01*
X746404Y7450226D01*
X755853Y7452766D01*
X764794Y7456881D01*
X772820Y7462520D01*
X779780Y7469479D01*
X785418Y7477506D01*
X787654Y7482382D01*
X789940Y7485481D01*
X793242Y7487564D01*
X797052Y7488224D01*
X800811Y7487412D01*
X804062Y7485227D01*
X893927Y7395362D01*
X896112Y7392111D01*
X896924Y7388352D01*
X896264Y7384542D01*
X894181Y7381240D01*
X891082Y7378953D01*
X886206Y7376718D01*
X878179Y7371080D01*
X871219Y7364120D01*
X865581Y7356094D01*
X861466Y7347153D01*
X860399Y7343140D01*
X858469Y7339380D01*
X855167Y7336739D01*
X851103Y7335672D01*
X846937Y7336332D01*
X843381Y7338618D01*
X836320Y7345680D01*
X828294Y7351318D01*
X819353Y7355433D01*
X809904Y7357973D01*
X800100Y7358837D01*
X790295Y7357973D01*
X780846Y7355433D01*
X771906Y7351318D01*
X763879Y7345680D01*
X756920Y7338720D01*
X751281Y7330694D01*
X747166Y7321753D01*
X744626Y7312304D01*
X743762Y7302500D01*
X744626Y7292695D01*
X747166Y7283246D01*
X751281Y7274306D01*
X756920Y7266279D01*
X763879Y7259320D01*
X771906Y7253681D01*
X780846Y7249566D01*
X790295Y7247026D01*
X798322Y7246315D01*
X801725Y7245400D01*
X804621Y7243368D01*
X835964Y7212075D01*
X842162Y7206945D01*
X848868Y7203389D01*
X856081Y7201204D01*
X864108Y7200392D01*
X1428191Y7200392D01*
X1432102Y7199630D01*
X1435404Y7197394D01*
X1436979Y7195820D01*
X1445006Y7190181D01*
X1453946Y7186066D01*
X1463395Y7183526D01*
X1473200Y7182662D01*
X1483004Y7183526D01*
X1492453Y7186066D01*
X1501394Y7190181D01*
X1509420Y7195820D01*
X1516380Y7202779D01*
X1522018Y7210806D01*
X1526133Y7219746D01*
X1528673Y7229195D01*
X1529537Y7239000D01*
X1528673Y7248804D01*
X1526133Y7258253D01*
X1522018Y7267194D01*
X1516380Y7275220D01*
X1509420Y7282180D01*
X1500581Y7288326D01*
X1498092Y7290816D01*
X1496568Y7294016D01*
X1496263Y7297572D01*
X1497177Y7300975D01*
X1500733Y7308646D01*
X1503273Y7318095D01*
X1504137Y7327900D01*
X1503273Y7337704D01*
X1500733Y7347153D01*
X1496618Y7356094D01*
X1490980Y7364120D01*
X1484020Y7371080D01*
X1475994Y7376718D01*
X1467053Y7380833D01*
X1457604Y7383373D01*
X1447800Y7384237D01*
X1437995Y7383373D01*
X1428546Y7380833D01*
X1419606Y7376718D01*
X1411579Y7371080D01*
X1410004Y7369505D01*
X1406702Y7367270D01*
X1402791Y7366508D01*
X1334668Y7366508D01*
X1331061Y7367168D01*
X1327912Y7369098D01*
X1325626Y7372045D01*
X1324559Y7375601D01*
X1324864Y7379309D01*
X1325473Y7381595D01*
X1326337Y7391400D01*
X1325473Y7401204D01*
X1324864Y7403490D01*
X1324559Y7407198D01*
X1325626Y7410754D01*
X1327912Y7413701D01*
X1331061Y7415631D01*
X1334668Y7416292D01*
X1351991Y7416292D01*
X1355902Y7415530D01*
X1359204Y7413294D01*
X1360779Y7411720D01*
X1368806Y7406081D01*
X1377746Y7401966D01*
X1387195Y7399426D01*
X1397000Y7398562D01*
X1406804Y7399426D01*
X1416253Y7401966D01*
X1425194Y7406081D01*
X1433220Y7411720D01*
X1440180Y7418679D01*
X1445818Y7426706D01*
X1449933Y7435646D01*
X1452575Y7445451D01*
X1454505Y7449210D01*
X1457807Y7451902D01*
X1461871Y7452969D01*
X1466037Y7452309D01*
X1469593Y7450023D01*
X1673301Y7246264D01*
X1675536Y7243013D01*
X1676298Y7239101D01*
X1676298Y5543956D01*
X1675536Y5540044D01*
X1673301Y5536793D01*
X1669999Y5534558D01*
X1666138Y5533796D01*
X1662226Y5534558D01*
X1658924Y5536793D01*
X1648764Y5546953D01*
X1643125Y5551525D01*
X1637131Y5554573D01*
X1630527Y5556351D01*
X1625193Y5556758D01*
X1232306Y5556758D01*
X1228394Y5557520D01*
X1225092Y5559755D01*
X1217269Y5567680D01*
X1209294Y5573318D01*
X1200353Y5577433D01*
X1190904Y5579973D01*
X1181100Y5580837D01*
X1171295Y5579973D01*
X1161846Y5577433D01*
X1152906Y5573318D01*
X1144879Y5567680D01*
X1137920Y5560720D01*
X1132281Y5552694D01*
X1128166Y5543753D01*
X1125626Y5534304D01*
X1124762Y5524500D01*
X1125626Y5514695D01*
X1127912Y5506059D01*
X1128217Y5502351D01*
X1127150Y5498795D01*
X1124915Y5495848D01*
X1121765Y5493918D01*
X1118108Y5493258D01*
X913892Y5493258D01*
X910234Y5493918D01*
X907084Y5495848D01*
X904849Y5498795D01*
X903782Y5502351D01*
X904087Y5506059D01*
X906373Y5514695D01*
X907237Y5524500D01*
X906373Y5534304D01*
X903833Y5543753D01*
X899718Y5552694D01*
X894080Y5560720D01*
X887120Y5567680D01*
X879094Y5573318D01*
X870153Y5577433D01*
X860704Y5579973D01*
X852678Y5580684D01*
X849274Y5581599D01*
X846378Y5583631D01*
X816305Y5613704D01*
X814069Y5617006D01*
X813308Y5620918D01*
X813308Y6025591D01*
X814069Y6029502D01*
X816305Y6032804D01*
X817880Y6034379D01*
X823518Y6042406D01*
X827633Y6051346D01*
X830173Y6060795D01*
X831037Y6070600D01*
X830173Y6080404D01*
X827633Y6089853D01*
X823518Y6098794D01*
X817880Y6106820D01*
X810920Y6113780D01*
X802894Y6119418D01*
X793953Y6123533D01*
X784504Y6126073D01*
X774700Y6126937D01*
X764895Y6126073D01*
X755446Y6123533D01*
X746506Y6119418D01*
X738479Y6113780D01*
X731520Y6106820D01*
X725881Y6098794D01*
X721766Y6089853D01*
X719226Y6080404D01*
X718362Y6070600D01*
X719226Y6060795D01*
X721766Y6051346D01*
X725881Y6042406D01*
X731520Y6034379D01*
X733094Y6032804D01*
X735330Y6029502D01*
X736092Y6025591D01*
X736092Y5601208D01*
X736904Y5593181D01*
X737717Y5590387D01*
X738124Y5586374D01*
X736904Y5582513D01*
X734263Y5579414D01*
X721106Y5573318D01*
X713079Y5567680D01*
X706120Y5560720D01*
X700481Y5552694D01*
X696366Y5543753D01*
X693826Y5534304D01*
X692962Y5524500D01*
X693826Y5514695D01*
X696366Y5505246D01*
X700481Y5496306D01*
X706120Y5488279D01*
X713079Y5481320D01*
X721106Y5475681D01*
X730046Y5471566D01*
X739495Y5469026D01*
X749300Y5468162D01*
X754430Y5468620D01*
X758799Y5468010D01*
X762508Y5465673D01*
X789635Y5438546D01*
X795274Y5433974D01*
X801268Y5430926D01*
X807872Y5429148D01*
X813206Y5428742D01*
X1217726Y5428742D01*
X1221333Y5428081D01*
X1224483Y5426151D01*
X1226769Y5423204D01*
X1227836Y5419648D01*
X1226362Y5404967D01*
X1227226Y5395214D01*
X1229766Y5385714D01*
X1233881Y5376824D01*
X1239520Y5368747D01*
X1246479Y5361838D01*
X1254506Y5356199D01*
X1263446Y5352034D01*
X1272895Y5349494D01*
X1282700Y5348630D01*
X1284376Y5348782D01*
X1288745Y5348224D01*
X1292453Y5345836D01*
X1329994Y5308295D01*
X1332230Y5304993D01*
X1332992Y5301081D01*
X1332992Y5065268D01*
X1332230Y5061356D01*
X1329994Y5058054D01*
X1326743Y5055870D01*
X1322832Y5055108D01*
G37*

%LPC*%
G36*
X1485900Y7017562D02*
G01*
X1495704Y7018426D01*
X1505153Y7020966D01*
X1514094Y7025081D01*
X1522120Y7030720D01*
X1529080Y7037679D01*
X1534718Y7045706D01*
X1538833Y7054646D01*
X1541373Y7064095D01*
X1542237Y7073900D01*
X1541373Y7083704D01*
X1538833Y7093153D01*
X1534718Y7102094D01*
X1529080Y7110120D01*
X1522120Y7117080D01*
X1514094Y7122718D01*
X1505153Y7126833D01*
X1495704Y7129373D01*
X1485900Y7130237D01*
X1476095Y7129373D01*
X1466646Y7126833D01*
X1457706Y7122718D01*
X1449679Y7117080D01*
X1448104Y7115505D01*
X1444802Y7113270D01*
X1440891Y7112508D01*
X857656Y7112508D01*
X853744Y7113270D01*
X850442Y7115505D01*
X668731Y7297216D01*
X666699Y7300112D01*
X665784Y7303516D01*
X665073Y7311542D01*
X662533Y7320991D01*
X658418Y7329931D01*
X652780Y7337958D01*
X645820Y7344918D01*
X637794Y7350556D01*
X628853Y7354671D01*
X619404Y7357211D01*
X609600Y7358075D01*
X599795Y7357211D01*
X590346Y7354671D01*
X581406Y7350556D01*
X573379Y7344918D01*
X566420Y7337958D01*
X560781Y7329931D01*
X556666Y7320991D01*
X554126Y7311542D01*
X553262Y7301738D01*
X554126Y7291933D01*
X556666Y7282484D01*
X560781Y7273544D01*
X566420Y7265517D01*
X573379Y7258558D01*
X581406Y7252919D01*
X590346Y7248804D01*
X599795Y7246264D01*
X607822Y7245553D01*
X611225Y7244638D01*
X614121Y7242606D01*
X809802Y7046975D01*
X816000Y7041845D01*
X822706Y7038289D01*
X829919Y7036104D01*
X837946Y7035292D01*
X1440891Y7035292D01*
X1444802Y7034530D01*
X1448104Y7032294D01*
X1449679Y7030720D01*
X1457706Y7025081D01*
X1466646Y7020966D01*
X1476095Y7018426D01*
G37*

%LPD*%
G36*
X1179068Y4775708D02*
G01*
X1175156Y4776470D01*
X1171905Y4778705D01*
X1169670Y4781956D01*
X1168908Y4785868D01*
X1168908Y4800092D01*
X1168095Y4808118D01*
X1165910Y4815382D01*
X1165098Y4816906D01*
X1163929Y4820869D01*
X1164488Y4825034D01*
X1166622Y4828590D01*
X1169974Y4830978D01*
X1174089Y4831842D01*
X1308608Y4831842D01*
X1312265Y4831181D01*
X1315415Y4829251D01*
X1317650Y4826304D01*
X1318717Y4822748D01*
X1318412Y4819040D01*
X1316126Y4810404D01*
X1315262Y4800600D01*
X1316126Y4790795D01*
X1316736Y4788509D01*
X1317040Y4784801D01*
X1315974Y4781245D01*
X1313688Y4778298D01*
X1310538Y4776368D01*
X1306931Y4775708D01*
G37*

%LPD*%
D10*
X101600Y8788400D02*
G01*
X863600Y8788400D01*
D11*
X1727200Y2247900D02*
G01*
X1727200Y2044700D01*
X1511300Y1828800D01*
X1511300Y1003300D01*
X1447800Y939800D01*
X698500Y939800D01*
X635000Y1003300D01*
X635000Y1828800D01*
D12*
X1079500Y10007752D02*
G01*
X1079500Y10875876D01*
X1524025Y11320401D01*
D11*
X152400Y7087615D02*
G01*
X152400Y8178800D01*
X254000Y8280400D01*
X1028700Y8280400D01*
X1116075Y8193023D01*
X1116075Y8077200D01*
D12*
X1130300Y4572005D02*
G01*
X1130300Y4800605D01*
D10*
X1054100Y5257800D02*
G01*
X1041394Y5257800D01*
X977900Y5194305D01*
X558800Y5194305D01*
D12*
X1371600Y4673605D02*
G01*
X1409700Y4635505D01*
X1409700Y4254500D01*
X1155700Y5016494D02*
G01*
X1371600Y5016494D01*
X1371600Y4800600D02*
G01*
X1371600Y4673643D01*
D10*
X965200Y4914905D02*
G01*
X863600Y5016505D01*
D12*
X558800Y5118143D02*
G01*
X596900Y5118143D01*
X635000Y5080043D01*
X1092200Y5080043D01*
X1155700Y5016543D01*
X558800Y4584700D02*
G01*
X711200Y4737100D01*
X1371600Y4737100D01*
X558800Y4584700D02*
G01*
X419100Y4445000D01*
X419100Y4305300D01*
X419100Y4305300D02*
G01*
X419100Y4178300D01*
X520700Y4076700D01*
X609600Y4076700D01*
D11*
X1612900Y2247900D02*
G01*
X1612900Y3416300D01*
X889000Y2438400D02*
G01*
X1143000Y2438400D01*
X1143000Y2438400D02*
G01*
X1320800Y2438400D01*
X1371600Y2387600D01*
X1371600Y1066800D01*
D10*
X977900Y4953000D02*
G01*
X952500Y4978400D01*
X952500Y5016500D01*
D12*
X1638300Y4254500D02*
G01*
X1638300Y4597400D01*
D11*
X152400Y6127495D02*
G01*
X152400Y6248400D01*
X330200Y6426200D01*
X152400Y7087615D02*
G01*
X152400Y6985000D01*
X330200Y6807200D01*
D12*
X1460500Y5105400D02*
G01*
X1371600Y5105400D01*
X774700Y6070600D02*
G01*
X774700Y5600700D01*
X850900Y5524500D01*
X622300Y6070600D02*
G01*
X622300Y5727700D01*
X419100Y5524500D01*
X520700Y8407400D02*
G01*
X1041400Y8407400D01*
X1079500Y8445500D01*
X1079500Y10007754D01*
X647700Y8534400D02*
G01*
X914400Y8534400D01*
X939800Y8559800D01*
X939800Y10007752D01*
X939800Y10007752D02*
G01*
X939800Y10875924D01*
X495325Y11320401D01*
D10*
X1422400Y3746500D02*
G01*
X1524000Y3848100D01*
X1524000Y4165594D01*
X1524000Y4165600D02*
G01*
X1524000Y4813300D01*
X1435100Y4902200D01*
X1028700Y4902200D01*
X974090Y4956810D01*
D11*
X406400Y2247900D02*
G01*
X228600Y2247900D01*
X152400Y2324100D01*
X152400Y6127495D01*
D10*
X1600200Y5016500D02*
G01*
X1600200Y5435600D01*
X1574800Y5461000D01*
X825500Y5461000D01*
X1117600Y3606800D02*
G01*
X1473200Y3962400D01*
X1473200Y4191000D01*
D12*
X1282700Y5410200D02*
G01*
X1371600Y5321300D01*
X1371600Y5016500D01*
D10*
X977900Y5295900D02*
G01*
X952500Y5321300D01*
X609600Y5321300D01*
X558800Y5270500D01*
X1473200Y4191000D02*
G01*
X1473200Y4787900D01*
X1397000Y4864100D01*
X1016000Y4864100D01*
X965200Y4914900D01*
X1231900Y4521200D02*
G01*
X1231900Y4394200D01*
X1193800Y4356100D01*
X1193800Y4229100D01*
X850900Y3886200D01*
X673100Y3886200D01*
X673100Y3683000D02*
G01*
X698500Y3683000D01*
X1257300Y4241800D01*
X1257300Y4324990D01*
X825500Y5461000D02*
G01*
X812800Y5461000D01*
X749300Y5524500D01*
D11*
X1854200Y1803400D02*
G01*
X1854200Y6324600D01*
X1854200Y6907436D02*
G01*
X1854200Y7886700D01*
X1854200Y6324600D02*
G01*
X1854200Y6907436D01*
D12*
X914400Y7327900D02*
G01*
X1447800Y7327900D01*
X609600Y7301737D02*
G01*
X837438Y7073900D01*
X1485900Y7073900D01*
X800100Y7302500D02*
G01*
X863600Y7239000D01*
X1473200Y7239000D01*
X457200Y7886700D02*
G01*
X952500Y7391400D01*
X1270000Y7391400D01*
X736600Y7505700D02*
G01*
X241300Y7505700D01*
D11*
X1727200Y2247900D02*
G01*
X1727200Y7277100D01*
X1714500Y7277100D01*
X1447800Y7543800D01*
X1079500Y7543800D01*
D12*
X1397000Y7454900D02*
G01*
X1016000Y7454900D01*
X508000Y7962900D01*
X241300Y7962900D01*
D10*
X1651000Y4955288D02*
G01*
X1663700Y4967988D01*
X1663700Y5486400D01*
X1625600Y5524500D01*
X1181100Y5524500D01*
D12*
X558800Y5118100D02*
G01*
X368300Y5118100D01*
X330200Y5156200D01*
X330200Y6197600D01*
X482600Y6350000D01*
X482600Y7416800D01*
D13*
G01*
X1050797Y11853499D03*
G01*
X9839299Y11853499D03*
G01*
X1550797Y465500D03*
G01*
X9339300Y465500D03*
D14*
G01*
X1524025Y11320399D03*
G01*
X1524025Y10470413D03*
G01*
X1524025Y10170388D03*
G01*
X495325Y11320399D03*
G01*
X495325Y10470413D03*
G01*
X495325Y10170388D03*
G01*
X1524025Y9796399D03*
G01*
X1524025Y8946413D03*
G01*
X1524025Y8646388D03*
G01*
X495325Y9796399D03*
G01*
X495325Y8946413D03*
G01*
X495325Y8646388D03*
D15*
G01*
X1315999Y8077200D03*
G01*
X1115999Y8077200D03*
G01*
X916000Y8077200D03*
D16*
G01*
X716000Y8077200D03*
D17*
G01*
X889000Y1422400D03*
D18*
G01*
X1143000Y1422400D03*
G01*
X889000Y1676400D03*
G01*
X1143000Y1676400D03*
G01*
X889000Y1930400D03*
G01*
X1143000Y1930400D03*
G01*
X889000Y2184400D03*
G01*
X1143000Y2184400D03*
G01*
X889000Y2438400D03*
G01*
X1143000Y2438400D03*
G01*
X889000Y2692400D03*
G01*
X1143000Y2692400D03*
G01*
X889000Y2946400D03*
G01*
X1143000Y2946400D03*
G01*
X889000Y3200400D03*
G01*
X1143000Y3200400D03*
D19*
G01*
X1206500Y4051300D03*
G01*
X673100Y3683000D03*
G01*
X673100Y3886200D03*
G01*
X1422400Y3746500D03*
G01*
X1117600Y3606800D03*
G01*
X1041400Y5016500D03*
G01*
X1054100Y4572000D03*
G01*
X1371600Y5016500D03*
G01*
X609600Y4076700D03*
G01*
X1409700Y4254500D03*
G01*
X1231900Y4521200D03*
G01*
X1257300Y4324985D03*
G01*
X1282700Y5404993D03*
G01*
X1155700Y5016500D03*
G01*
X1130300Y4572000D03*
G01*
X558800Y5270500D03*
G01*
X558800Y5194300D03*
G01*
X977900Y5295900D03*
G01*
X1054100Y5257800D03*
G01*
X685800Y5257800D03*
G01*
X558800Y5118100D03*
G01*
X863600Y5016500D03*
G01*
X952500Y5016500D03*
G01*
X698500Y5139994D03*
G01*
X444500Y4940300D03*
G01*
X558800Y4584700D03*
G01*
X1371600Y4800600D03*
G01*
X1231900Y4660900D03*
G01*
X1003300Y4660900D03*
G01*
X1003300Y4800600D03*
G01*
X1231900Y4800600D03*
G01*
X1054100Y5346700D03*
G01*
X419100Y5410200D03*
G01*
X1612900Y2247900D03*
G01*
X406400Y2247900D03*
G01*
X1638300Y4597400D03*
G01*
X419100Y4305300D03*
G01*
X1612900Y3416300D03*
G01*
X1371600Y1066800D03*
G01*
X635000Y1828800D03*
G01*
X1727200Y2247900D03*
G01*
X1854200Y1803400D03*
G01*
X1638300Y4254500D03*
G01*
X330200Y6426200D03*
G01*
X330200Y6807200D03*
G01*
X1854200Y7886700D03*
G01*
X1485900Y7073900D03*
G01*
X457200Y7886700D03*
G01*
X241300Y7962900D03*
G01*
X1460500Y5105400D03*
G01*
X774700Y6070600D03*
G01*
X850900Y5524500D03*
G01*
X1181100Y5524500D03*
G01*
X1600200Y5016500D03*
G01*
X1651000Y4955184D03*
G01*
X749300Y5524500D03*
G01*
X419100Y5524500D03*
G01*
X622300Y6070600D03*
G01*
X520700Y8407400D03*
G01*
X647700Y8534400D03*
G01*
X469900Y8128000D03*
G01*
X1333500Y4546600D03*
G01*
X767588Y4425213D03*
G01*
X889000Y4864100D03*
G01*
X939800Y10007752D03*
G01*
X1079500Y10007752D03*
G01*
X609600Y7301737D03*
G01*
X1270000Y7391400D03*
G01*
X800100Y7302500D03*
G01*
X1473200Y7239000D03*
G01*
X1447800Y7327900D03*
G01*
X914400Y7327900D03*
G01*
X1397000Y7454900D03*
G01*
X609600Y6959600D03*
G01*
X939800Y6959600D03*
G01*
X241300Y7505700D03*
G01*
X736600Y7505700D03*
G01*
X736600Y7404100D03*
G01*
X482600Y7416800D03*
G01*
X1079500Y7543800D03*
G01*
X1854200Y6907428D03*
G01*
X736600Y7835900D03*
G01*
X101600Y8788400D03*
G01*
X863600Y8788400D03*
G01*
X863600Y8699500D03*
G01*
X304800Y7620000D03*
G01*
X304800Y8089900D03*
M02*
