G04 Layer: TopSilkscreenLayer*
G04 EasyEDA v6.5.23, 2023-06-10 17:59:46*
G04 2a4cce0fd74440f1b02c58f019cbd83e,5a6b42c53f6a479593ecc07194224c93,10*
G04 Gerber Generator version 0.2*
G04 Scale: 100 percent, Rotated: No, Reflected: No *
G04 Dimensions in millimeters *
G04 leading zeros omitted , absolute positions ,4 integer and 5 decimal *
%FSLAX45Y45*%
%MOMM*%

%ADD10C,0.1524*%
%ADD11C,0.1270*%
%ADD12C,0.2032*%
%ADD13C,0.1520*%
%ADD14C,0.2540*%
%ADD15C,0.2030*%
%ADD16C,0.3000*%
%ADD17C,0.2000*%
%ADD18C,0.0131*%

%LPD*%
D10*
X774687Y10337091D02*
G01*
X774687Y10241587D01*
X804659Y10337091D02*
G01*
X804659Y10241587D01*
X804659Y10337091D02*
G01*
X868413Y10241587D01*
X868413Y10337091D02*
G01*
X868413Y10241587D01*
X898385Y10318803D02*
G01*
X907529Y10323375D01*
X920991Y10337091D01*
X920991Y10241587D01*
X624065Y8813091D02*
G01*
X615175Y8808519D01*
X606031Y8799375D01*
X601459Y8790485D01*
X596887Y8776769D01*
X596887Y8753909D01*
X601459Y8740447D01*
X606031Y8731303D01*
X615175Y8722159D01*
X624065Y8717587D01*
X642353Y8717587D01*
X651497Y8722159D01*
X660641Y8731303D01*
X664959Y8740447D01*
X669531Y8753909D01*
X669531Y8776769D01*
X664959Y8790485D01*
X660641Y8799375D01*
X651497Y8808519D01*
X642353Y8813091D01*
X624065Y8813091D01*
X699503Y8813091D02*
G01*
X699503Y8745019D01*
X704075Y8731303D01*
X713219Y8722159D01*
X726935Y8717587D01*
X736079Y8717587D01*
X749541Y8722159D01*
X758685Y8731303D01*
X763257Y8745019D01*
X763257Y8813091D01*
X824979Y8813091D02*
G01*
X824979Y8717587D01*
X793229Y8813091D02*
G01*
X856983Y8813091D01*
X886955Y8794803D02*
G01*
X896099Y8799375D01*
X909561Y8813091D01*
X909561Y8717587D01*
X1727187Y10337091D02*
G01*
X1727187Y10241587D01*
X1757159Y10337091D02*
G01*
X1757159Y10241587D01*
X1757159Y10337091D02*
G01*
X1820913Y10241587D01*
X1820913Y10337091D02*
G01*
X1820913Y10241587D01*
X1855457Y10314485D02*
G01*
X1855457Y10318803D01*
X1860029Y10327947D01*
X1864347Y10332519D01*
X1873491Y10337091D01*
X1891779Y10337091D01*
X1900923Y10332519D01*
X1905495Y10327947D01*
X1909813Y10318803D01*
X1909813Y10309913D01*
X1905495Y10300769D01*
X1896351Y10287053D01*
X1850885Y10241587D01*
X1914385Y10241587D01*
X1602016Y8813010D02*
G01*
X1592872Y8808438D01*
X1583982Y8799548D01*
X1579410Y8790404D01*
X1574838Y8776688D01*
X1574838Y8754082D01*
X1579410Y8740366D01*
X1583982Y8731222D01*
X1592872Y8722078D01*
X1602016Y8717760D01*
X1620304Y8717760D01*
X1629448Y8722078D01*
X1638338Y8731222D01*
X1642910Y8740366D01*
X1647482Y8754082D01*
X1647482Y8776688D01*
X1642910Y8790404D01*
X1638338Y8799548D01*
X1629448Y8808438D01*
X1620304Y8813010D01*
X1602016Y8813010D01*
X1677454Y8813010D02*
G01*
X1677454Y8744938D01*
X1682026Y8731222D01*
X1691170Y8722078D01*
X1704886Y8717760D01*
X1713776Y8717760D01*
X1727492Y8722078D01*
X1736636Y8731222D01*
X1741208Y8744938D01*
X1741208Y8813010D01*
X1802930Y8813010D02*
G01*
X1802930Y8717760D01*
X1771180Y8813010D02*
G01*
X1834680Y8813010D01*
X1869224Y8790404D02*
G01*
X1869224Y8794976D01*
X1873796Y8804120D01*
X1878368Y8808438D01*
X1887512Y8813010D01*
X1905800Y8813010D01*
X1914690Y8808438D01*
X1919262Y8804120D01*
X1923834Y8794976D01*
X1923834Y8785832D01*
X1919262Y8776688D01*
X1910372Y8763226D01*
X1864906Y8717760D01*
X1928406Y8717760D01*
X812802Y3428283D02*
G01*
X812802Y3360211D01*
X817374Y3346495D01*
X826518Y3337351D01*
X839980Y3332779D01*
X849124Y3332779D01*
X862840Y3337351D01*
X871984Y3346495D01*
X876556Y3360211D01*
X876556Y3428283D01*
X942850Y3428283D02*
G01*
X906528Y3332779D01*
X942850Y3428283D02*
G01*
X979172Y3332779D01*
X919990Y3364783D02*
G01*
X965456Y3364783D01*
X1009144Y3428283D02*
G01*
X1009144Y3332779D01*
X1009144Y3428283D02*
G01*
X1050038Y3428283D01*
X1063754Y3423711D01*
X1068326Y3419139D01*
X1072898Y3410249D01*
X1072898Y3401105D01*
X1068326Y3391961D01*
X1063754Y3387389D01*
X1050038Y3382817D01*
X1009144Y3382817D01*
X1040894Y3382817D02*
G01*
X1072898Y3332779D01*
X1134620Y3428283D02*
G01*
X1134620Y3332779D01*
X1102870Y3428283D02*
G01*
X1166370Y3428283D01*
X876556Y3592367D02*
G01*
X867412Y3601511D01*
X853696Y3606083D01*
X835408Y3606083D01*
X821946Y3601511D01*
X812802Y3592367D01*
X812802Y3583477D01*
X817374Y3574333D01*
X821946Y3569761D01*
X831090Y3565189D01*
X858268Y3556045D01*
X867412Y3551473D01*
X871984Y3546901D01*
X876556Y3538011D01*
X876556Y3524295D01*
X867412Y3515151D01*
X853696Y3510579D01*
X835408Y3510579D01*
X821946Y3515151D01*
X812802Y3524295D01*
X906528Y3606083D02*
G01*
X929134Y3510579D01*
X951994Y3606083D02*
G01*
X929134Y3510579D01*
X951994Y3606083D02*
G01*
X974600Y3510579D01*
X997460Y3606083D02*
G01*
X974600Y3510579D01*
X1027432Y3606083D02*
G01*
X1027432Y3510579D01*
X1027432Y3606083D02*
G01*
X1059182Y3606083D01*
X1072898Y3601511D01*
X1081788Y3592367D01*
X1086360Y3583477D01*
X1090932Y3569761D01*
X1090932Y3546901D01*
X1086360Y3533439D01*
X1081788Y3524295D01*
X1072898Y3515151D01*
X1059182Y3510579D01*
X1027432Y3510579D01*
X533400Y1116837D02*
G01*
X533400Y1021334D01*
X533400Y1116837D02*
G01*
X592581Y1116837D01*
X533400Y1071371D02*
G01*
X569721Y1071371D01*
X622554Y1098804D02*
G01*
X631697Y1103376D01*
X645160Y1116837D01*
X645160Y1021334D01*
X1308100Y3936237D02*
G01*
X1308100Y3840734D01*
X1308100Y3936237D02*
G01*
X1348993Y3936237D01*
X1362709Y3931665D01*
X1367281Y3927094D01*
X1371854Y3918204D01*
X1371854Y3909060D01*
X1367281Y3899915D01*
X1362709Y3895344D01*
X1348993Y3890771D01*
X1308100Y3890771D01*
X1339850Y3890771D02*
G01*
X1371854Y3840734D01*
X1401825Y3918204D02*
G01*
X1410715Y3922776D01*
X1424431Y3936237D01*
X1424431Y3840734D01*
X1463547Y3936237D02*
G01*
X1513586Y3936237D01*
X1486408Y3899915D01*
X1499870Y3899915D01*
X1509013Y3895344D01*
X1513586Y3890771D01*
X1518158Y3877310D01*
X1518158Y3868165D01*
X1513586Y3854450D01*
X1504441Y3845305D01*
X1490725Y3840734D01*
X1477263Y3840734D01*
X1463547Y3845305D01*
X1458975Y3849878D01*
X1454404Y3859021D01*
X487171Y8053831D02*
G01*
X482854Y8062976D01*
X473710Y8071865D01*
X464565Y8076437D01*
X446278Y8076437D01*
X437387Y8071865D01*
X428244Y8062976D01*
X423671Y8053831D01*
X419100Y8040115D01*
X419100Y8017510D01*
X423671Y8003794D01*
X428244Y7994650D01*
X437387Y7985505D01*
X446278Y7980934D01*
X464565Y7980934D01*
X473710Y7985505D01*
X482854Y7994650D01*
X487171Y8003794D01*
X562610Y8076437D02*
G01*
X517397Y8012937D01*
X585470Y8012937D01*
X562610Y8076437D02*
G01*
X562610Y7980934D01*
X1473200Y7670037D02*
G01*
X1473200Y7601965D01*
X1477772Y7588250D01*
X1486915Y7579105D01*
X1500377Y7574534D01*
X1509522Y7574534D01*
X1523238Y7579105D01*
X1532381Y7588250D01*
X1536954Y7601965D01*
X1536954Y7670037D01*
X1566925Y7652004D02*
G01*
X1575815Y7656576D01*
X1589531Y7670037D01*
X1589531Y7574534D01*
X228600Y7492237D02*
G01*
X228600Y7424165D01*
X233171Y7410450D01*
X242315Y7401305D01*
X255778Y7396734D01*
X264921Y7396734D01*
X278637Y7401305D01*
X287781Y7410450D01*
X292354Y7424165D01*
X292354Y7492237D01*
X326897Y7469631D02*
G01*
X326897Y7474204D01*
X331215Y7483094D01*
X335787Y7487665D01*
X344931Y7492237D01*
X363220Y7492237D01*
X372110Y7487665D01*
X376681Y7483094D01*
X381254Y7474204D01*
X381254Y7465060D01*
X376681Y7455915D01*
X367792Y7442200D01*
X322326Y7396734D01*
X385826Y7396734D01*
X1460500Y10044937D02*
G01*
X1460500Y9949434D01*
X1460500Y10044937D02*
G01*
X1492250Y10044937D01*
X1505965Y10040365D01*
X1515109Y10031476D01*
X1519681Y10022331D01*
X1524254Y10008615D01*
X1524254Y9986010D01*
X1519681Y9972294D01*
X1515109Y9963150D01*
X1505965Y9954005D01*
X1492250Y9949434D01*
X1460500Y9949434D01*
X1608581Y10031476D02*
G01*
X1604009Y10040365D01*
X1590547Y10044937D01*
X1581404Y10044937D01*
X1567688Y10040365D01*
X1558797Y10026904D01*
X1554225Y10004044D01*
X1554225Y9981437D01*
X1558797Y9963150D01*
X1567688Y9954005D01*
X1581404Y9949434D01*
X1585975Y9949434D01*
X1599691Y9954005D01*
X1608581Y9963150D01*
X1613154Y9976865D01*
X1613154Y9981437D01*
X1608581Y9994900D01*
X1599691Y10004044D01*
X1585975Y10008615D01*
X1581404Y10008615D01*
X1567688Y10004044D01*
X1558797Y9994900D01*
X1554225Y9981437D01*
X406400Y10044937D02*
G01*
X406400Y9949434D01*
X406400Y10044937D02*
G01*
X438150Y10044937D01*
X451865Y10040365D01*
X461010Y10031476D01*
X465581Y10022331D01*
X470154Y10008615D01*
X470154Y9986010D01*
X465581Y9972294D01*
X461010Y9963150D01*
X451865Y9954005D01*
X438150Y9949434D01*
X406400Y9949434D01*
X554481Y10044937D02*
G01*
X509015Y10044937D01*
X504697Y10004044D01*
X509015Y10008615D01*
X522731Y10013187D01*
X536447Y10013187D01*
X549910Y10008615D01*
X559054Y9999471D01*
X563626Y9986010D01*
X563626Y9976865D01*
X559054Y9963150D01*
X549910Y9954005D01*
X536447Y9949434D01*
X522731Y9949434D01*
X509015Y9954005D01*
X504697Y9958578D01*
X500126Y9967721D01*
X144271Y7037831D02*
G01*
X139954Y7046976D01*
X130810Y7055865D01*
X121665Y7060437D01*
X103378Y7060437D01*
X94487Y7055865D01*
X85344Y7046976D01*
X80771Y7037831D01*
X76200Y7024115D01*
X76200Y7001510D01*
X80771Y6987794D01*
X85344Y6978650D01*
X94487Y6969505D01*
X103378Y6964934D01*
X121665Y6964934D01*
X130810Y6969505D01*
X139954Y6978650D01*
X144271Y6987794D01*
X228854Y7046976D02*
G01*
X224281Y7055865D01*
X210820Y7060437D01*
X201676Y7060437D01*
X187960Y7055865D01*
X178815Y7042404D01*
X174497Y7019544D01*
X174497Y6996937D01*
X178815Y6978650D01*
X187960Y6969505D01*
X201676Y6964934D01*
X206247Y6964934D01*
X219710Y6969505D01*
X228854Y6978650D01*
X233426Y6992365D01*
X233426Y6996937D01*
X228854Y7010400D01*
X219710Y7019544D01*
X206247Y7024115D01*
X201676Y7024115D01*
X187960Y7019544D01*
X178815Y7010400D01*
X174497Y6996937D01*
X1846072Y7329931D02*
G01*
X1841754Y7339076D01*
X1832609Y7347965D01*
X1823465Y7352537D01*
X1805177Y7352537D01*
X1796288Y7347965D01*
X1787143Y7339076D01*
X1782572Y7329931D01*
X1778000Y7316215D01*
X1778000Y7293610D01*
X1782572Y7279894D01*
X1787143Y7270750D01*
X1796288Y7261605D01*
X1805177Y7257034D01*
X1823465Y7257034D01*
X1832609Y7261605D01*
X1841754Y7270750D01*
X1846072Y7279894D01*
X1930654Y7352537D02*
G01*
X1885188Y7352537D01*
X1880615Y7311644D01*
X1885188Y7316215D01*
X1898904Y7320787D01*
X1912620Y7320787D01*
X1926081Y7316215D01*
X1935225Y7307071D01*
X1939797Y7293610D01*
X1939797Y7284465D01*
X1935225Y7270750D01*
X1926081Y7261605D01*
X1912620Y7257034D01*
X1898904Y7257034D01*
X1885188Y7261605D01*
X1880615Y7266178D01*
X1876297Y7275321D01*
X1778000Y7212837D02*
G01*
X1778000Y7117334D01*
X1778000Y7212837D02*
G01*
X1818893Y7212837D01*
X1832609Y7208265D01*
X1837181Y7203694D01*
X1841754Y7194804D01*
X1841754Y7185660D01*
X1837181Y7176515D01*
X1832609Y7171944D01*
X1818893Y7167371D01*
X1778000Y7167371D01*
X1809750Y7167371D02*
G01*
X1841754Y7117334D01*
X1930654Y7181087D02*
G01*
X1926081Y7167371D01*
X1917191Y7158481D01*
X1903475Y7153910D01*
X1898904Y7153910D01*
X1885188Y7158481D01*
X1876297Y7167371D01*
X1871725Y7181087D01*
X1871725Y7185660D01*
X1876297Y7199376D01*
X1885188Y7208265D01*
X1898904Y7212837D01*
X1903475Y7212837D01*
X1917191Y7208265D01*
X1926081Y7199376D01*
X1930654Y7181087D01*
X1930654Y7158481D01*
X1926081Y7135621D01*
X1917191Y7121905D01*
X1903475Y7117334D01*
X1894331Y7117334D01*
X1880615Y7121905D01*
X1876297Y7131050D01*
X495300Y5726937D02*
G01*
X495300Y5631434D01*
X495300Y5726937D02*
G01*
X536194Y5726937D01*
X549910Y5722365D01*
X554481Y5717794D01*
X559054Y5708904D01*
X559054Y5699760D01*
X554481Y5690615D01*
X549910Y5686044D01*
X536194Y5681471D01*
X495300Y5681471D01*
X527050Y5681471D02*
G01*
X559054Y5631434D01*
X589026Y5708904D02*
G01*
X597915Y5713476D01*
X611631Y5726937D01*
X611631Y5631434D01*
X669036Y5726937D02*
G01*
X655320Y5722365D01*
X646176Y5708904D01*
X641604Y5686044D01*
X641604Y5672581D01*
X646176Y5649721D01*
X655320Y5636005D01*
X669036Y5631434D01*
X677925Y5631434D01*
X691641Y5636005D01*
X700786Y5649721D01*
X705358Y5672581D01*
X705358Y5686044D01*
X700786Y5708904D01*
X691641Y5722365D01*
X677925Y5726937D01*
X669036Y5726937D01*
X266700Y7060437D02*
G01*
X266700Y6964934D01*
X266700Y7060437D02*
G01*
X307594Y7060437D01*
X321310Y7055865D01*
X325881Y7051294D01*
X330454Y7042404D01*
X330454Y7033260D01*
X325881Y7024115D01*
X321310Y7019544D01*
X307594Y7014971D01*
X266700Y7014971D01*
X298450Y7014971D02*
G01*
X330454Y6964934D01*
X383031Y7060437D02*
G01*
X369315Y7055865D01*
X364997Y7046976D01*
X364997Y7037831D01*
X369315Y7028687D01*
X378460Y7024115D01*
X396747Y7019544D01*
X410210Y7014971D01*
X419354Y7006081D01*
X423926Y6996937D01*
X423926Y6983221D01*
X419354Y6974078D01*
X414781Y6969505D01*
X401320Y6964934D01*
X383031Y6964934D01*
X369315Y6969505D01*
X364997Y6974078D01*
X360426Y6983221D01*
X360426Y6996937D01*
X364997Y7006081D01*
X373887Y7014971D01*
X387604Y7019544D01*
X405892Y7024115D01*
X414781Y7028687D01*
X419354Y7037831D01*
X419354Y7046976D01*
X414781Y7055865D01*
X401320Y7060437D01*
X383031Y7060437D01*
X939800Y5726937D02*
G01*
X939800Y5631434D01*
X939800Y5726937D02*
G01*
X980693Y5726937D01*
X994409Y5722365D01*
X998981Y5717794D01*
X1003554Y5708904D01*
X1003554Y5699760D01*
X998981Y5690615D01*
X994409Y5686044D01*
X980693Y5681471D01*
X939800Y5681471D01*
X971550Y5681471D02*
G01*
X1003554Y5631434D01*
X1033525Y5708904D02*
G01*
X1042415Y5713476D01*
X1056131Y5726937D01*
X1056131Y5631434D01*
X1086104Y5708904D02*
G01*
X1095247Y5713476D01*
X1108963Y5726937D01*
X1108963Y5631434D01*
X1270000Y5726937D02*
G01*
X1270000Y5631434D01*
X1270000Y5726937D02*
G01*
X1310893Y5726937D01*
X1324609Y5722365D01*
X1329181Y5717794D01*
X1333754Y5708904D01*
X1333754Y5699760D01*
X1329181Y5690615D01*
X1324609Y5686044D01*
X1310893Y5681471D01*
X1270000Y5681471D01*
X1301750Y5681471D02*
G01*
X1333754Y5631434D01*
X1363725Y5708904D02*
G01*
X1372615Y5713476D01*
X1386331Y5726937D01*
X1386331Y5631434D01*
X1420875Y5704331D02*
G01*
X1420875Y5708904D01*
X1425447Y5717794D01*
X1430020Y5722365D01*
X1439163Y5726937D01*
X1457197Y5726937D01*
X1466341Y5722365D01*
X1470913Y5717794D01*
X1475486Y5708904D01*
X1475486Y5699760D01*
X1470913Y5690615D01*
X1461770Y5676900D01*
X1416304Y5631434D01*
X1480058Y5631434D01*
X177800Y8076437D02*
G01*
X177800Y7980934D01*
X177800Y8076437D02*
G01*
X218694Y8076437D01*
X232410Y8071865D01*
X236981Y8067294D01*
X241554Y8058404D01*
X241554Y8049260D01*
X236981Y8040115D01*
X232410Y8035544D01*
X218694Y8030971D01*
X177800Y8030971D01*
X209550Y8030971D02*
G01*
X241554Y7980934D01*
X280415Y8076437D02*
G01*
X330454Y8076437D01*
X303276Y8040115D01*
X316992Y8040115D01*
X325881Y8035544D01*
X330454Y8030971D01*
X335026Y8017510D01*
X335026Y8008365D01*
X330454Y7994650D01*
X321310Y7985505D01*
X307847Y7980934D01*
X294131Y7980934D01*
X280415Y7985505D01*
X276097Y7990078D01*
X271526Y7999221D01*
X736600Y8317737D02*
G01*
X736600Y8222234D01*
X736600Y8317737D02*
G01*
X777493Y8317737D01*
X791209Y8313165D01*
X795781Y8308594D01*
X800354Y8299704D01*
X800354Y8290560D01*
X795781Y8281415D01*
X791209Y8276844D01*
X777493Y8272271D01*
X736600Y8272271D01*
X768350Y8272271D02*
G01*
X800354Y8222234D01*
X830325Y8299704D02*
G01*
X839215Y8304276D01*
X852931Y8317737D01*
X852931Y8222234D01*
X1143000Y8317737D02*
G01*
X1143000Y8222234D01*
X1143000Y8317737D02*
G01*
X1183893Y8317737D01*
X1197609Y8313165D01*
X1202181Y8308594D01*
X1206754Y8299704D01*
X1206754Y8290560D01*
X1202181Y8281415D01*
X1197609Y8276844D01*
X1183893Y8272271D01*
X1143000Y8272271D01*
X1174750Y8272271D02*
G01*
X1206754Y8222234D01*
X1241297Y8295131D02*
G01*
X1241297Y8299704D01*
X1245615Y8308594D01*
X1250188Y8313165D01*
X1259331Y8317737D01*
X1277620Y8317737D01*
X1286509Y8313165D01*
X1291081Y8308594D01*
X1295654Y8299704D01*
X1295654Y8290560D01*
X1291081Y8281415D01*
X1282191Y8267700D01*
X1236725Y8222234D01*
X1300225Y8222234D01*
X1511300Y8419337D02*
G01*
X1511300Y8351265D01*
X1515872Y8337550D01*
X1525015Y8328405D01*
X1538477Y8323834D01*
X1547622Y8323834D01*
X1561338Y8328405D01*
X1570481Y8337550D01*
X1575054Y8351265D01*
X1575054Y8419337D01*
X1613915Y8419337D02*
G01*
X1663954Y8419337D01*
X1636775Y8383015D01*
X1650491Y8383015D01*
X1659381Y8378444D01*
X1663954Y8373871D01*
X1668525Y8360410D01*
X1668525Y8351265D01*
X1663954Y8337550D01*
X1654809Y8328405D01*
X1641347Y8323834D01*
X1627631Y8323834D01*
X1613915Y8328405D01*
X1609597Y8332978D01*
X1605025Y8342121D01*
X1333500Y7936737D02*
G01*
X1333500Y7841234D01*
X1333500Y7936737D02*
G01*
X1374393Y7936737D01*
X1388109Y7932165D01*
X1392681Y7927594D01*
X1397254Y7918704D01*
X1397254Y7909560D01*
X1392681Y7900415D01*
X1388109Y7895844D01*
X1374393Y7891271D01*
X1333500Y7891271D01*
X1365250Y7891271D02*
G01*
X1397254Y7841234D01*
X1481581Y7936737D02*
G01*
X1436115Y7936737D01*
X1431797Y7895844D01*
X1436115Y7900415D01*
X1449831Y7904987D01*
X1463547Y7904987D01*
X1477009Y7900415D01*
X1486154Y7891271D01*
X1490725Y7877810D01*
X1490725Y7868665D01*
X1486154Y7854950D01*
X1477009Y7845805D01*
X1463547Y7841234D01*
X1449831Y7841234D01*
X1436115Y7845805D01*
X1431797Y7850378D01*
X1427225Y7859521D01*
X228600Y7644637D02*
G01*
X228600Y7549134D01*
X228600Y7644637D02*
G01*
X269494Y7644637D01*
X283210Y7640065D01*
X287781Y7635494D01*
X292354Y7626604D01*
X292354Y7617460D01*
X287781Y7608315D01*
X283210Y7603744D01*
X269494Y7599171D01*
X228600Y7599171D01*
X260350Y7599171D02*
G01*
X292354Y7549134D01*
X367792Y7644637D02*
G01*
X322326Y7581137D01*
X390397Y7581137D01*
X367792Y7644637D02*
G01*
X367792Y7549134D01*
X1790700Y7670037D02*
G01*
X1790700Y7574534D01*
X1790700Y7670037D02*
G01*
X1831593Y7670037D01*
X1845309Y7665465D01*
X1849881Y7660894D01*
X1854454Y7652004D01*
X1854454Y7642860D01*
X1849881Y7633715D01*
X1845309Y7629144D01*
X1831593Y7624571D01*
X1790700Y7624571D01*
X1822450Y7624571D02*
G01*
X1854454Y7574534D01*
X1938781Y7656576D02*
G01*
X1934209Y7665465D01*
X1920747Y7670037D01*
X1911604Y7670037D01*
X1897888Y7665465D01*
X1888997Y7652004D01*
X1884425Y7629144D01*
X1884425Y7606537D01*
X1888997Y7588250D01*
X1897888Y7579105D01*
X1911604Y7574534D01*
X1916175Y7574534D01*
X1929891Y7579105D01*
X1938781Y7588250D01*
X1943354Y7601965D01*
X1943354Y7606537D01*
X1938781Y7620000D01*
X1929891Y7629144D01*
X1916175Y7633715D01*
X1911604Y7633715D01*
X1897888Y7629144D01*
X1888997Y7620000D01*
X1884425Y7606537D01*
X1778000Y6933437D02*
G01*
X1778000Y6837934D01*
X1778000Y6933437D02*
G01*
X1818893Y6933437D01*
X1832609Y6928865D01*
X1837181Y6924294D01*
X1841754Y6915404D01*
X1841754Y6906260D01*
X1837181Y6897115D01*
X1832609Y6892544D01*
X1818893Y6887971D01*
X1778000Y6887971D01*
X1809750Y6887971D02*
G01*
X1841754Y6837934D01*
X1935225Y6933437D02*
G01*
X1889759Y6837934D01*
X1871725Y6933437D02*
G01*
X1935225Y6933437D01*
X1846072Y7774431D02*
G01*
X1841754Y7783576D01*
X1832609Y7792465D01*
X1823465Y7797037D01*
X1805177Y7797037D01*
X1796288Y7792465D01*
X1787143Y7783576D01*
X1782572Y7774431D01*
X1778000Y7760715D01*
X1778000Y7738110D01*
X1782572Y7724394D01*
X1787143Y7715250D01*
X1796288Y7706105D01*
X1805177Y7701534D01*
X1823465Y7701534D01*
X1832609Y7706105D01*
X1841754Y7715250D01*
X1846072Y7724394D01*
X1885188Y7797037D02*
G01*
X1935225Y7797037D01*
X1908047Y7760715D01*
X1921509Y7760715D01*
X1930654Y7756144D01*
X1935225Y7751571D01*
X1939797Y7738110D01*
X1939797Y7728965D01*
X1935225Y7715250D01*
X1926081Y7706105D01*
X1912620Y7701534D01*
X1898904Y7701534D01*
X1885188Y7706105D01*
X1880615Y7710678D01*
X1876297Y7719821D01*
X1122172Y6987031D02*
G01*
X1117854Y6996176D01*
X1108709Y7005065D01*
X1099565Y7009637D01*
X1081277Y7009637D01*
X1072388Y7005065D01*
X1063243Y6996176D01*
X1058672Y6987031D01*
X1054100Y6973315D01*
X1054100Y6950710D01*
X1058672Y6936994D01*
X1063243Y6927850D01*
X1072388Y6918705D01*
X1081277Y6914134D01*
X1099565Y6914134D01*
X1108709Y6918705D01*
X1117854Y6927850D01*
X1122172Y6936994D01*
X1156715Y6987031D02*
G01*
X1156715Y6991604D01*
X1161288Y7000494D01*
X1165859Y7005065D01*
X1175004Y7009637D01*
X1193291Y7009637D01*
X1202181Y7005065D01*
X1206754Y7000494D01*
X1211325Y6991604D01*
X1211325Y6982460D01*
X1206754Y6973315D01*
X1197609Y6959600D01*
X1152397Y6914134D01*
X1215897Y6914134D01*
X1185672Y7901431D02*
G01*
X1181354Y7910576D01*
X1172209Y7919465D01*
X1163065Y7924037D01*
X1144777Y7924037D01*
X1135888Y7919465D01*
X1126743Y7910576D01*
X1122172Y7901431D01*
X1117600Y7887715D01*
X1117600Y7865110D01*
X1122172Y7851394D01*
X1126743Y7842250D01*
X1135888Y7833105D01*
X1144777Y7828534D01*
X1163065Y7828534D01*
X1172209Y7833105D01*
X1181354Y7842250D01*
X1185672Y7851394D01*
X1215897Y7906004D02*
G01*
X1224788Y7910576D01*
X1238504Y7924037D01*
X1238504Y7828534D01*
X283971Y6872731D02*
G01*
X279654Y6881876D01*
X270510Y6890765D01*
X261365Y6895337D01*
X243078Y6895337D01*
X234187Y6890765D01*
X225044Y6881876D01*
X220471Y6872731D01*
X215900Y6859015D01*
X215900Y6836410D01*
X220471Y6822694D01*
X225044Y6813550D01*
X234187Y6804405D01*
X243078Y6799834D01*
X261365Y6799834D01*
X270510Y6804405D01*
X279654Y6813550D01*
X283971Y6822694D01*
X318515Y6872731D02*
G01*
X318515Y6877304D01*
X323087Y6886194D01*
X327660Y6890765D01*
X336804Y6895337D01*
X355092Y6895337D01*
X363981Y6890765D01*
X368554Y6886194D01*
X373126Y6877304D01*
X373126Y6868160D01*
X368554Y6859015D01*
X359410Y6845300D01*
X314197Y6799834D01*
X377697Y6799834D01*
X407670Y6877304D02*
G01*
X416813Y6881876D01*
X430529Y6895337D01*
X430529Y6799834D01*
X1714500Y3860037D02*
G01*
X1714500Y3764787D01*
X1714500Y3860037D02*
G01*
X1746250Y3860037D01*
X1759965Y3855465D01*
X1769109Y3846576D01*
X1773681Y3837431D01*
X1778254Y3823715D01*
X1778254Y3801110D01*
X1773681Y3787394D01*
X1769109Y3778250D01*
X1759965Y3769105D01*
X1746250Y3764787D01*
X1714500Y3764787D01*
X1853691Y3860037D02*
G01*
X1808225Y3796537D01*
X1876297Y3796537D01*
X1853691Y3860037D02*
G01*
X1853691Y3764787D01*
X1312672Y3786631D02*
G01*
X1308354Y3795776D01*
X1299209Y3804665D01*
X1290065Y3809237D01*
X1271777Y3809237D01*
X1262888Y3804665D01*
X1253743Y3795776D01*
X1249172Y3786631D01*
X1244600Y3772915D01*
X1244600Y3750310D01*
X1249172Y3736594D01*
X1253743Y3727450D01*
X1262888Y3718305D01*
X1271777Y3713734D01*
X1290065Y3713734D01*
X1299209Y3718305D01*
X1308354Y3727450D01*
X1312672Y3736594D01*
X1347215Y3786631D02*
G01*
X1347215Y3791204D01*
X1351788Y3800094D01*
X1356359Y3804665D01*
X1365504Y3809237D01*
X1383791Y3809237D01*
X1392681Y3804665D01*
X1397254Y3800094D01*
X1401825Y3791204D01*
X1401825Y3782060D01*
X1397254Y3772915D01*
X1388109Y3759200D01*
X1342897Y3713734D01*
X1406397Y3713734D01*
X1463802Y3809237D02*
G01*
X1450086Y3804665D01*
X1440941Y3791204D01*
X1436370Y3768344D01*
X1436370Y3754881D01*
X1440941Y3732021D01*
X1450086Y3718305D01*
X1463802Y3713734D01*
X1472691Y3713734D01*
X1486408Y3718305D01*
X1495552Y3732021D01*
X1500124Y3754881D01*
X1500124Y3768344D01*
X1495552Y3791204D01*
X1486408Y3804665D01*
X1472691Y3809237D01*
X1463802Y3809237D01*
X431800Y1320037D02*
G01*
X431800Y1224534D01*
X431800Y1224534D02*
G01*
X486410Y1224534D01*
X516381Y1302004D02*
G01*
X525526Y1306576D01*
X538987Y1320037D01*
X538987Y1224534D01*
X1473200Y1320037D02*
G01*
X1473200Y1224534D01*
X1473200Y1224534D02*
G01*
X1527809Y1224534D01*
X1562354Y1297431D02*
G01*
X1562354Y1302004D01*
X1566925Y1310894D01*
X1571497Y1315465D01*
X1580388Y1320037D01*
X1598675Y1320037D01*
X1607820Y1315465D01*
X1612391Y1310894D01*
X1616709Y1302004D01*
X1616709Y1292860D01*
X1612391Y1283715D01*
X1603247Y1270000D01*
X1557781Y1224534D01*
X1621281Y1224534D01*
X1270000Y1866137D02*
G01*
X1270000Y1770634D01*
X1270000Y1866137D02*
G01*
X1301750Y1866137D01*
X1315465Y1861565D01*
X1324609Y1852676D01*
X1329181Y1843531D01*
X1333754Y1829815D01*
X1333754Y1807210D01*
X1329181Y1793494D01*
X1324609Y1784350D01*
X1315465Y1775205D01*
X1301750Y1770634D01*
X1270000Y1770634D01*
X1372615Y1866137D02*
G01*
X1422654Y1866137D01*
X1395475Y1829815D01*
X1409191Y1829815D01*
X1418081Y1825244D01*
X1422654Y1820671D01*
X1427225Y1807210D01*
X1427225Y1798065D01*
X1422654Y1784350D01*
X1413509Y1775205D01*
X1400047Y1770634D01*
X1386331Y1770634D01*
X1372615Y1775205D01*
X1368297Y1779778D01*
X1363725Y1788921D01*
X609600Y1866137D02*
G01*
X609600Y1770634D01*
X609600Y1866137D02*
G01*
X641350Y1866137D01*
X655065Y1861565D01*
X664209Y1852676D01*
X668781Y1843531D01*
X673354Y1829815D01*
X673354Y1807210D01*
X668781Y1793494D01*
X664209Y1784350D01*
X655065Y1775205D01*
X641350Y1770634D01*
X609600Y1770634D01*
X707897Y1843531D02*
G01*
X707897Y1848104D01*
X712215Y1856994D01*
X716788Y1861565D01*
X725931Y1866137D01*
X744220Y1866137D01*
X753109Y1861565D01*
X757681Y1856994D01*
X762254Y1848104D01*
X762254Y1838960D01*
X757681Y1829815D01*
X748791Y1816100D01*
X703325Y1770634D01*
X766825Y1770634D01*
X667765Y3428237D02*
G01*
X667765Y3355594D01*
X663193Y3341878D01*
X658621Y3337305D01*
X649478Y3332734D01*
X640587Y3332734D01*
X631444Y3337305D01*
X626871Y3341878D01*
X622300Y3355594D01*
X622300Y3364737D01*
X761491Y3428237D02*
G01*
X716025Y3332734D01*
X697738Y3428237D02*
G01*
X761491Y3428237D01*
X584456Y6836669D02*
G01*
X575312Y6845813D01*
X561596Y6850385D01*
X543308Y6850385D01*
X529846Y6845813D01*
X520702Y6836669D01*
X520702Y6827525D01*
X525274Y6818381D01*
X529846Y6814063D01*
X538990Y6809491D01*
X566168Y6800347D01*
X575312Y6795775D01*
X579884Y6791203D01*
X584456Y6782059D01*
X584456Y6768597D01*
X575312Y6759453D01*
X561596Y6754881D01*
X543308Y6754881D01*
X529846Y6759453D01*
X520702Y6768597D01*
X614428Y6850385D02*
G01*
X637034Y6754881D01*
X659894Y6850385D02*
G01*
X637034Y6754881D01*
X659894Y6850385D02*
G01*
X682500Y6754881D01*
X705360Y6850385D02*
G01*
X682500Y6754881D01*
X735332Y6832097D02*
G01*
X744222Y6836669D01*
X757938Y6850385D01*
X757938Y6754881D01*
D11*
X1681655Y6451071D02*
G01*
X1678099Y6457929D01*
X1671241Y6465041D01*
X1664129Y6468343D01*
X1653969Y6471899D01*
X1636443Y6471899D01*
X1626029Y6468343D01*
X1619171Y6465041D01*
X1612313Y6457929D01*
X1608757Y6451071D01*
X1608757Y6437355D01*
X1612313Y6430243D01*
X1619171Y6423385D01*
X1626029Y6419829D01*
X1636443Y6416527D01*
X1653969Y6416527D01*
X1664129Y6419829D01*
X1671241Y6423385D01*
X1678099Y6430243D01*
X1681655Y6437355D01*
X1681655Y6451071D01*
X1681655Y6393667D02*
G01*
X1608757Y6393667D01*
X1681655Y6393667D02*
G01*
X1608757Y6345153D01*
X1681655Y6345153D02*
G01*
X1608757Y6345153D01*
X1427655Y6451071D02*
G01*
X1424099Y6457929D01*
X1417241Y6465041D01*
X1410129Y6468343D01*
X1399969Y6471899D01*
X1382443Y6471899D01*
X1372029Y6468343D01*
X1365171Y6465041D01*
X1358313Y6457929D01*
X1354757Y6451071D01*
X1354757Y6437355D01*
X1358313Y6430243D01*
X1365171Y6423385D01*
X1372029Y6419829D01*
X1382443Y6416527D01*
X1399969Y6416527D01*
X1410129Y6419829D01*
X1417241Y6423385D01*
X1424099Y6430243D01*
X1427655Y6437355D01*
X1427655Y6451071D01*
X1427655Y6393667D02*
G01*
X1354757Y6393667D01*
X1427655Y6393667D02*
G01*
X1354757Y6345153D01*
X1427655Y6345153D02*
G01*
X1354757Y6345153D01*
X1173655Y6451071D02*
G01*
X1170099Y6457929D01*
X1163241Y6465041D01*
X1156129Y6468343D01*
X1145969Y6471899D01*
X1128443Y6471899D01*
X1118029Y6468343D01*
X1111171Y6465041D01*
X1104313Y6457929D01*
X1100757Y6451071D01*
X1100757Y6437355D01*
X1104313Y6430243D01*
X1111171Y6423385D01*
X1118029Y6419829D01*
X1128443Y6416527D01*
X1145969Y6416527D01*
X1156129Y6419829D01*
X1163241Y6423385D01*
X1170099Y6430243D01*
X1173655Y6437355D01*
X1173655Y6451071D01*
X1173655Y6393667D02*
G01*
X1100757Y6393667D01*
X1173655Y6393667D02*
G01*
X1100757Y6345153D01*
X1173655Y6345153D02*
G01*
X1100757Y6345153D01*
X919655Y6451071D02*
G01*
X916099Y6457929D01*
X909241Y6465041D01*
X902129Y6468343D01*
X891969Y6471899D01*
X874443Y6471899D01*
X864029Y6468343D01*
X857171Y6465041D01*
X850313Y6457929D01*
X846757Y6451071D01*
X846757Y6437355D01*
X850313Y6430243D01*
X857171Y6423385D01*
X864029Y6419829D01*
X874443Y6416527D01*
X891969Y6416527D01*
X902129Y6419829D01*
X909241Y6423385D01*
X916099Y6430243D01*
X919655Y6437355D01*
X919655Y6451071D01*
X919655Y6393667D02*
G01*
X846757Y6393667D01*
X919655Y6393667D02*
G01*
X846757Y6345153D01*
X919655Y6345153D02*
G01*
X846757Y6345153D01*
D12*
X736600Y6129159D02*
G01*
X745743Y6133731D01*
X759206Y6147447D01*
X759206Y6051943D01*
X995172Y6124562D02*
G01*
X995172Y6129134D01*
X999743Y6138278D01*
X1004315Y6142850D01*
X1013206Y6147422D01*
X1031493Y6147422D01*
X1040638Y6142850D01*
X1045209Y6138278D01*
X1049781Y6129134D01*
X1049781Y6120244D01*
X1045209Y6111100D01*
X1036065Y6097384D01*
X990600Y6051918D01*
X1054354Y6051918D01*
X1253743Y6147422D02*
G01*
X1303781Y6147422D01*
X1276350Y6111100D01*
X1290065Y6111100D01*
X1299209Y6106528D01*
X1303781Y6101956D01*
X1308354Y6088240D01*
X1308354Y6079096D01*
X1303781Y6065634D01*
X1294638Y6056490D01*
X1280922Y6051918D01*
X1267206Y6051918D01*
X1253743Y6056490D01*
X1249172Y6061062D01*
X1244600Y6070206D01*
X1544065Y6147422D02*
G01*
X1498600Y6083668D01*
X1566672Y6083668D01*
X1544065Y6147422D02*
G01*
X1544065Y6051918D01*
D10*
X1765300Y5803137D02*
G01*
X1765300Y5735065D01*
X1769872Y5721350D01*
X1779015Y5712205D01*
X1792477Y5707634D01*
X1801622Y5707634D01*
X1815338Y5712205D01*
X1824481Y5721350D01*
X1829054Y5735065D01*
X1829054Y5803137D01*
X1913381Y5789676D02*
G01*
X1908809Y5798565D01*
X1895347Y5803137D01*
X1886204Y5803137D01*
X1872488Y5798565D01*
X1863597Y5785104D01*
X1859025Y5762244D01*
X1859025Y5739637D01*
X1863597Y5721350D01*
X1872488Y5712205D01*
X1886204Y5707634D01*
X1890775Y5707634D01*
X1904491Y5712205D01*
X1913381Y5721350D01*
X1917954Y5735065D01*
X1917954Y5739637D01*
X1913381Y5753100D01*
X1904491Y5762244D01*
X1890775Y5766815D01*
X1886204Y5766815D01*
X1872488Y5762244D01*
X1863597Y5753100D01*
X1859025Y5739637D01*
X622300Y2615437D02*
G01*
X622300Y2547365D01*
X626871Y2533650D01*
X636015Y2524505D01*
X649478Y2519934D01*
X658621Y2519934D01*
X672338Y2524505D01*
X681481Y2533650D01*
X686054Y2547365D01*
X686054Y2615437D01*
X738631Y2615437D02*
G01*
X724915Y2610865D01*
X720597Y2601976D01*
X720597Y2592831D01*
X724915Y2583687D01*
X734059Y2579115D01*
X752347Y2574544D01*
X765809Y2569971D01*
X774954Y2561081D01*
X779525Y2551937D01*
X779525Y2538221D01*
X774954Y2529078D01*
X770381Y2524505D01*
X756920Y2519934D01*
X738631Y2519934D01*
X724915Y2524505D01*
X720597Y2529078D01*
X716025Y2538221D01*
X716025Y2551937D01*
X720597Y2561081D01*
X729488Y2569971D01*
X743204Y2574544D01*
X761491Y2579115D01*
X770381Y2583687D01*
X774954Y2592831D01*
X774954Y2601976D01*
X770381Y2610865D01*
X756920Y2615437D01*
X738631Y2615437D01*
X1257300Y2615437D02*
G01*
X1257300Y2547365D01*
X1261872Y2533650D01*
X1271015Y2524505D01*
X1284477Y2519934D01*
X1293622Y2519934D01*
X1307338Y2524505D01*
X1316481Y2533650D01*
X1321054Y2547365D01*
X1321054Y2615437D01*
X1409954Y2583687D02*
G01*
X1405381Y2569971D01*
X1396491Y2561081D01*
X1382775Y2556510D01*
X1378204Y2556510D01*
X1364488Y2561081D01*
X1355597Y2569971D01*
X1351025Y2583687D01*
X1351025Y2588260D01*
X1355597Y2601976D01*
X1364488Y2610865D01*
X1378204Y2615437D01*
X1382775Y2615437D01*
X1396491Y2610865D01*
X1405381Y2601976D01*
X1409954Y2583687D01*
X1409954Y2561081D01*
X1405381Y2538221D01*
X1396491Y2524505D01*
X1382775Y2519934D01*
X1373631Y2519934D01*
X1359915Y2524505D01*
X1355597Y2533650D01*
X667765Y3606037D02*
G01*
X667765Y3533394D01*
X663193Y3519678D01*
X658621Y3515105D01*
X649478Y3510534D01*
X640587Y3510534D01*
X631444Y3515105D01*
X626871Y3519678D01*
X622300Y3533394D01*
X622300Y3542537D01*
X752347Y3592576D02*
G01*
X747775Y3601465D01*
X734059Y3606037D01*
X724915Y3606037D01*
X711454Y3601465D01*
X702309Y3588004D01*
X697738Y3565144D01*
X697738Y3542537D01*
X702309Y3524250D01*
X711454Y3515105D01*
X724915Y3510534D01*
X729488Y3510534D01*
X743204Y3515105D01*
X752347Y3524250D01*
X756920Y3537965D01*
X756920Y3542537D01*
X752347Y3556000D01*
X743204Y3565144D01*
X729488Y3569715D01*
X724915Y3569715D01*
X711454Y3565144D01*
X702309Y3556000D01*
X697738Y3542537D01*
X520700Y4558537D02*
G01*
X520700Y4463034D01*
X520700Y4558537D02*
G01*
X552450Y4558537D01*
X566165Y4553965D01*
X575310Y4545076D01*
X579881Y4535931D01*
X584454Y4522215D01*
X584454Y4499610D01*
X579881Y4485894D01*
X575310Y4476750D01*
X566165Y4467605D01*
X552450Y4463034D01*
X520700Y4463034D01*
X614426Y4540504D02*
G01*
X623315Y4545076D01*
X637031Y4558537D01*
X637031Y4463034D01*
X309371Y4535931D02*
G01*
X305054Y4545076D01*
X295910Y4553965D01*
X286765Y4558537D01*
X268478Y4558537D01*
X259587Y4553965D01*
X250444Y4545076D01*
X245871Y4535931D01*
X241300Y4522215D01*
X241300Y4499610D01*
X245871Y4485894D01*
X250444Y4476750D01*
X259587Y4467605D01*
X268478Y4463034D01*
X286765Y4463034D01*
X295910Y4467605D01*
X305054Y4476750D01*
X309371Y4485894D01*
X339597Y4540504D02*
G01*
X348487Y4545076D01*
X362204Y4558537D01*
X362204Y4463034D01*
X446786Y4558537D02*
G01*
X401320Y4558537D01*
X396747Y4517644D01*
X401320Y4522215D01*
X415036Y4526787D01*
X428497Y4526787D01*
X442213Y4522215D01*
X451357Y4513071D01*
X455929Y4499610D01*
X455929Y4490465D01*
X451357Y4476750D01*
X442213Y4467605D01*
X428497Y4463034D01*
X415036Y4463034D01*
X401320Y4467605D01*
X396747Y4472178D01*
X392176Y4481321D01*
X258571Y4688331D02*
G01*
X254254Y4697476D01*
X245110Y4706365D01*
X235965Y4710937D01*
X217678Y4710937D01*
X208787Y4706365D01*
X199644Y4697476D01*
X195071Y4688331D01*
X190500Y4674615D01*
X190500Y4652010D01*
X195071Y4638294D01*
X199644Y4629150D01*
X208787Y4620005D01*
X217678Y4615434D01*
X235965Y4615434D01*
X245110Y4620005D01*
X254254Y4629150D01*
X258571Y4638294D01*
X288797Y4692904D02*
G01*
X297687Y4697476D01*
X311404Y4710937D01*
X311404Y4615434D01*
X386842Y4710937D02*
G01*
X341376Y4647437D01*
X409702Y4647437D01*
X386842Y4710937D02*
G01*
X386842Y4615434D01*
X309371Y5082031D02*
G01*
X305054Y5091176D01*
X295910Y5100065D01*
X286765Y5104637D01*
X268478Y5104637D01*
X259587Y5100065D01*
X250444Y5091176D01*
X245871Y5082031D01*
X241300Y5068315D01*
X241300Y5045710D01*
X245871Y5031994D01*
X250444Y5022850D01*
X259587Y5013705D01*
X268478Y5009134D01*
X286765Y5009134D01*
X295910Y5013705D01*
X305054Y5022850D01*
X309371Y5031994D01*
X339597Y5086604D02*
G01*
X348487Y5091176D01*
X362204Y5104637D01*
X362204Y5009134D01*
X392176Y5086604D02*
G01*
X401320Y5091176D01*
X415036Y5104637D01*
X415036Y5009134D01*
X283971Y4942331D02*
G01*
X279654Y4951476D01*
X270510Y4960365D01*
X261365Y4964937D01*
X243078Y4964937D01*
X234187Y4960365D01*
X225044Y4951476D01*
X220471Y4942331D01*
X215900Y4928615D01*
X215900Y4906010D01*
X220471Y4892294D01*
X225044Y4883150D01*
X234187Y4874005D01*
X243078Y4869434D01*
X261365Y4869434D01*
X270510Y4874005D01*
X279654Y4883150D01*
X283971Y4892294D01*
X314197Y4946904D02*
G01*
X323087Y4951476D01*
X336804Y4964937D01*
X336804Y4869434D01*
X371347Y4942331D02*
G01*
X371347Y4946904D01*
X375920Y4955794D01*
X380492Y4960365D01*
X389636Y4964937D01*
X407670Y4964937D01*
X416813Y4960365D01*
X421386Y4955794D01*
X425957Y4946904D01*
X425957Y4937760D01*
X421386Y4928615D01*
X412242Y4914900D01*
X366776Y4869434D01*
X430529Y4869434D01*
X254000Y5345937D02*
G01*
X254000Y5277865D01*
X258571Y5264150D01*
X267715Y5255005D01*
X281178Y5250434D01*
X290321Y5250434D01*
X304037Y5255005D01*
X313181Y5264150D01*
X317754Y5277865D01*
X317754Y5345937D01*
X393192Y5345937D02*
G01*
X347726Y5282437D01*
X415797Y5282437D01*
X393192Y5345937D02*
G01*
X393192Y5250434D01*
X1642872Y4828031D02*
G01*
X1638554Y4837176D01*
X1629409Y4846065D01*
X1620265Y4850637D01*
X1601977Y4850637D01*
X1593088Y4846065D01*
X1583943Y4837176D01*
X1579372Y4828031D01*
X1574800Y4814315D01*
X1574800Y4791710D01*
X1579372Y4777994D01*
X1583943Y4768850D01*
X1593088Y4759705D01*
X1601977Y4755134D01*
X1620265Y4755134D01*
X1629409Y4759705D01*
X1638554Y4768850D01*
X1642872Y4777994D01*
X1673097Y4832604D02*
G01*
X1681988Y4837176D01*
X1695704Y4850637D01*
X1695704Y4755134D01*
X1734820Y4850637D02*
G01*
X1784858Y4850637D01*
X1757425Y4814315D01*
X1771141Y4814315D01*
X1780286Y4809744D01*
X1784858Y4805171D01*
X1789429Y4791710D01*
X1789429Y4782565D01*
X1784858Y4768850D01*
X1775713Y4759705D01*
X1761997Y4755134D01*
X1748536Y4755134D01*
X1734820Y4759705D01*
X1730247Y4764278D01*
X1725675Y4773421D01*
X1731772Y4370831D02*
G01*
X1727454Y4379976D01*
X1718309Y4388865D01*
X1709165Y4393437D01*
X1690877Y4393437D01*
X1681988Y4388865D01*
X1672843Y4379976D01*
X1668272Y4370831D01*
X1663700Y4357115D01*
X1663700Y4334510D01*
X1668272Y4320794D01*
X1672843Y4311650D01*
X1681988Y4302505D01*
X1690877Y4297934D01*
X1709165Y4297934D01*
X1718309Y4302505D01*
X1727454Y4311650D01*
X1731772Y4320794D01*
X1761997Y4375404D02*
G01*
X1770888Y4379976D01*
X1784604Y4393437D01*
X1784604Y4297934D01*
X1869186Y4379976D02*
G01*
X1864613Y4388865D01*
X1850897Y4393437D01*
X1842008Y4393437D01*
X1828291Y4388865D01*
X1819147Y4375404D01*
X1814575Y4352544D01*
X1814575Y4329937D01*
X1819147Y4311650D01*
X1828291Y4302505D01*
X1842008Y4297934D01*
X1846325Y4297934D01*
X1860041Y4302505D01*
X1869186Y4311650D01*
X1873758Y4325365D01*
X1873758Y4329937D01*
X1869186Y4343400D01*
X1860041Y4352544D01*
X1846325Y4357115D01*
X1842008Y4357115D01*
X1828291Y4352544D01*
X1819147Y4343400D01*
X1814575Y4329937D01*
X969772Y5412231D02*
G01*
X965454Y5421376D01*
X956309Y5430265D01*
X947165Y5434837D01*
X928877Y5434837D01*
X919988Y5430265D01*
X910843Y5421376D01*
X906272Y5412231D01*
X901700Y5398515D01*
X901700Y5375910D01*
X906272Y5362194D01*
X910843Y5353050D01*
X919988Y5343905D01*
X928877Y5339334D01*
X947165Y5339334D01*
X956309Y5343905D01*
X965454Y5353050D01*
X969772Y5362194D01*
X1063497Y5434837D02*
G01*
X1018031Y5339334D01*
X999997Y5434837D02*
G01*
X1063497Y5434837D01*
X1574800Y5041137D02*
G01*
X1574800Y4973065D01*
X1579372Y4959350D01*
X1588515Y4950205D01*
X1601977Y4945634D01*
X1611122Y4945634D01*
X1624838Y4950205D01*
X1633981Y4959350D01*
X1638554Y4973065D01*
X1638554Y5041137D01*
X1722881Y5041137D02*
G01*
X1677415Y5041137D01*
X1673097Y5000244D01*
X1677415Y5004815D01*
X1691131Y5009387D01*
X1704847Y5009387D01*
X1718309Y5004815D01*
X1727454Y4995671D01*
X1732025Y4982210D01*
X1732025Y4973065D01*
X1727454Y4959350D01*
X1718309Y4950205D01*
X1704847Y4945634D01*
X1691131Y4945634D01*
X1677415Y4950205D01*
X1673097Y4954778D01*
X1668525Y4963921D01*
X1490472Y4231131D02*
G01*
X1486154Y4240276D01*
X1477009Y4249165D01*
X1467865Y4253737D01*
X1449577Y4253737D01*
X1440688Y4249165D01*
X1431543Y4240276D01*
X1426972Y4231131D01*
X1422400Y4217415D01*
X1422400Y4194810D01*
X1426972Y4181094D01*
X1431543Y4171950D01*
X1440688Y4162805D01*
X1449577Y4158234D01*
X1467865Y4158234D01*
X1477009Y4162805D01*
X1486154Y4171950D01*
X1490472Y4181094D01*
X1520697Y4235704D02*
G01*
X1529588Y4240276D01*
X1543304Y4253737D01*
X1543304Y4158234D01*
X1596136Y4253737D02*
G01*
X1582420Y4249165D01*
X1577847Y4240276D01*
X1577847Y4231131D01*
X1582420Y4221987D01*
X1591563Y4217415D01*
X1609597Y4212844D01*
X1623313Y4208271D01*
X1632458Y4199381D01*
X1637029Y4190237D01*
X1637029Y4176521D01*
X1632458Y4167378D01*
X1627886Y4162805D01*
X1614170Y4158234D01*
X1596136Y4158234D01*
X1582420Y4162805D01*
X1577847Y4167378D01*
X1573275Y4176521D01*
X1573275Y4190237D01*
X1577847Y4199381D01*
X1586991Y4208271D01*
X1600708Y4212844D01*
X1618741Y4217415D01*
X1627886Y4221987D01*
X1632458Y4231131D01*
X1632458Y4240276D01*
X1627886Y4249165D01*
X1614170Y4253737D01*
X1596136Y4253737D01*
X1490472Y4104131D02*
G01*
X1486154Y4113276D01*
X1477009Y4122165D01*
X1467865Y4126737D01*
X1449577Y4126737D01*
X1440688Y4122165D01*
X1431543Y4113276D01*
X1426972Y4104131D01*
X1422400Y4090415D01*
X1422400Y4067810D01*
X1426972Y4054094D01*
X1431543Y4044950D01*
X1440688Y4035805D01*
X1449577Y4031234D01*
X1467865Y4031234D01*
X1477009Y4035805D01*
X1486154Y4044950D01*
X1490472Y4054094D01*
X1520697Y4108704D02*
G01*
X1529588Y4113276D01*
X1543304Y4126737D01*
X1543304Y4031234D01*
X1632458Y4094987D02*
G01*
X1627886Y4081271D01*
X1618741Y4072381D01*
X1605025Y4067810D01*
X1600708Y4067810D01*
X1586991Y4072381D01*
X1577847Y4081271D01*
X1573275Y4094987D01*
X1573275Y4099560D01*
X1577847Y4113276D01*
X1586991Y4122165D01*
X1600708Y4126737D01*
X1605025Y4126737D01*
X1618741Y4122165D01*
X1627886Y4113276D01*
X1632458Y4094987D01*
X1632458Y4072381D01*
X1627886Y4049521D01*
X1618741Y4035805D01*
X1605025Y4031234D01*
X1596136Y4031234D01*
X1582420Y4035805D01*
X1577847Y4044950D01*
X245871Y4180331D02*
G01*
X241554Y4189476D01*
X232410Y4198365D01*
X223265Y4202937D01*
X204978Y4202937D01*
X196087Y4198365D01*
X186944Y4189476D01*
X182371Y4180331D01*
X177800Y4166615D01*
X177800Y4144010D01*
X182371Y4130294D01*
X186944Y4121150D01*
X196087Y4112005D01*
X204978Y4107434D01*
X223265Y4107434D01*
X232410Y4112005D01*
X241554Y4121150D01*
X245871Y4130294D01*
X276097Y4184904D02*
G01*
X284987Y4189476D01*
X298704Y4202937D01*
X298704Y4107434D01*
X392429Y4202937D02*
G01*
X346963Y4107434D01*
X328676Y4202937D02*
G01*
X392429Y4202937D01*
X977874Y3974414D02*
G01*
X1041628Y3878910D01*
X1041628Y3974414D02*
G01*
X977874Y3878910D01*
X1071600Y3956126D02*
G01*
X1080744Y3960698D01*
X1094206Y3974414D01*
X1094206Y3878910D01*
X1706372Y5209031D02*
G01*
X1702054Y5218176D01*
X1692909Y5227065D01*
X1683765Y5231637D01*
X1665477Y5231637D01*
X1656588Y5227065D01*
X1647443Y5218176D01*
X1642872Y5209031D01*
X1638300Y5195315D01*
X1638300Y5172710D01*
X1642872Y5158994D01*
X1647443Y5149850D01*
X1656588Y5140705D01*
X1665477Y5136134D01*
X1683765Y5136134D01*
X1692909Y5140705D01*
X1702054Y5149850D01*
X1706372Y5158994D01*
X1736597Y5213604D02*
G01*
X1745488Y5218176D01*
X1759204Y5231637D01*
X1759204Y5136134D01*
X1816608Y5231637D02*
G01*
X1802891Y5227065D01*
X1793747Y5213604D01*
X1789175Y5190744D01*
X1789175Y5177281D01*
X1793747Y5154421D01*
X1802891Y5140705D01*
X1816608Y5136134D01*
X1825497Y5136134D01*
X1839213Y5140705D01*
X1848358Y5154421D01*
X1852929Y5177281D01*
X1852929Y5190744D01*
X1848358Y5213604D01*
X1839213Y5227065D01*
X1825497Y5231637D01*
X1816608Y5231637D01*
X969772Y5285231D02*
G01*
X965454Y5294376D01*
X956309Y5303265D01*
X947165Y5307837D01*
X928877Y5307837D01*
X919988Y5303265D01*
X910843Y5294376D01*
X906272Y5285231D01*
X901700Y5271515D01*
X901700Y5248910D01*
X906272Y5235194D01*
X910843Y5226050D01*
X919988Y5216905D01*
X928877Y5212334D01*
X947165Y5212334D01*
X956309Y5216905D01*
X965454Y5226050D01*
X969772Y5235194D01*
X1022604Y5307837D02*
G01*
X1008888Y5303265D01*
X1004315Y5294376D01*
X1004315Y5285231D01*
X1008888Y5276087D01*
X1018031Y5271515D01*
X1036320Y5266944D01*
X1049781Y5262371D01*
X1058925Y5253481D01*
X1063497Y5244337D01*
X1063497Y5230621D01*
X1058925Y5221478D01*
X1054354Y5216905D01*
X1040891Y5212334D01*
X1022604Y5212334D01*
X1008888Y5216905D01*
X1004315Y5221478D01*
X999997Y5230621D01*
X999997Y5244337D01*
X1004315Y5253481D01*
X1013459Y5262371D01*
X1027175Y5266944D01*
X1045209Y5271515D01*
X1054354Y5276087D01*
X1058925Y5285231D01*
X1058925Y5294376D01*
X1054354Y5303265D01*
X1040891Y5307837D01*
X1022604Y5307837D01*
X1706372Y5323331D02*
G01*
X1702054Y5332476D01*
X1692909Y5341365D01*
X1683765Y5345937D01*
X1665477Y5345937D01*
X1656588Y5341365D01*
X1647443Y5332476D01*
X1642872Y5323331D01*
X1638300Y5309615D01*
X1638300Y5287010D01*
X1642872Y5273294D01*
X1647443Y5264150D01*
X1656588Y5255005D01*
X1665477Y5250434D01*
X1683765Y5250434D01*
X1692909Y5255005D01*
X1702054Y5264150D01*
X1706372Y5273294D01*
X1795525Y5314187D02*
G01*
X1790954Y5300471D01*
X1781809Y5291581D01*
X1768347Y5287010D01*
X1763775Y5287010D01*
X1750059Y5291581D01*
X1740915Y5300471D01*
X1736597Y5314187D01*
X1736597Y5318760D01*
X1740915Y5332476D01*
X1750059Y5341365D01*
X1763775Y5345937D01*
X1768347Y5345937D01*
X1781809Y5341365D01*
X1790954Y5332476D01*
X1795525Y5314187D01*
X1795525Y5291581D01*
X1790954Y5268721D01*
X1781809Y5255005D01*
X1768347Y5250434D01*
X1759204Y5250434D01*
X1745488Y5255005D01*
X1740915Y5264150D01*
X1124965Y10337037D02*
G01*
X1124965Y10264394D01*
X1120393Y10250678D01*
X1115822Y10246105D01*
X1106677Y10241534D01*
X1097788Y10241534D01*
X1088643Y10246105D01*
X1084072Y10250678D01*
X1079500Y10264394D01*
X1079500Y10273537D01*
X1164081Y10337037D02*
G01*
X1214120Y10337037D01*
X1186688Y10300715D01*
X1200404Y10300715D01*
X1209547Y10296144D01*
X1214120Y10291571D01*
X1218691Y10278110D01*
X1218691Y10268965D01*
X1214120Y10255250D01*
X1204975Y10246105D01*
X1191259Y10241534D01*
X1177797Y10241534D01*
X1164081Y10246105D01*
X1159509Y10250678D01*
X1154938Y10259821D01*
X134365Y10349737D02*
G01*
X134365Y10277094D01*
X129794Y10263378D01*
X125221Y10258805D01*
X116078Y10254234D01*
X107187Y10254234D01*
X98044Y10258805D01*
X93471Y10263378D01*
X88900Y10277094D01*
X88900Y10286237D01*
X164337Y10331704D02*
G01*
X173481Y10336276D01*
X187197Y10349737D01*
X187197Y10254234D01*
X1124965Y8813037D02*
G01*
X1124965Y8740394D01*
X1120393Y8726678D01*
X1115822Y8722105D01*
X1106677Y8717534D01*
X1097788Y8717534D01*
X1088643Y8722105D01*
X1084072Y8726678D01*
X1079500Y8740394D01*
X1079500Y8749537D01*
X1200404Y8813037D02*
G01*
X1154938Y8749537D01*
X1223009Y8749537D01*
X1200404Y8813037D02*
G01*
X1200404Y8717534D01*
X134365Y8813037D02*
G01*
X134365Y8740394D01*
X129794Y8726678D01*
X125221Y8722105D01*
X116078Y8717534D01*
X107187Y8717534D01*
X98044Y8722105D01*
X93471Y8726678D01*
X88900Y8740394D01*
X88900Y8749537D01*
X168910Y8790431D02*
G01*
X168910Y8795004D01*
X173481Y8803894D01*
X178054Y8808465D01*
X187197Y8813037D01*
X205231Y8813037D01*
X214376Y8808465D01*
X218947Y8803894D01*
X223520Y8795004D01*
X223520Y8785860D01*
X218947Y8776715D01*
X209804Y8763000D01*
X164337Y8717534D01*
X228092Y8717534D01*
X972565Y8317788D02*
G01*
X972565Y8245144D01*
X967993Y8231428D01*
X963422Y8226856D01*
X954277Y8222284D01*
X945388Y8222284D01*
X936243Y8226856D01*
X931672Y8231428D01*
X927100Y8245144D01*
X927100Y8254288D01*
X1057147Y8317788D02*
G01*
X1011681Y8317788D01*
X1007109Y8276894D01*
X1011681Y8281466D01*
X1025397Y8286038D01*
X1038859Y8286038D01*
X1052575Y8281466D01*
X1061720Y8272322D01*
X1066291Y8258606D01*
X1066291Y8249716D01*
X1061720Y8236000D01*
X1052575Y8226856D01*
X1038859Y8222284D01*
X1025397Y8222284D01*
X1011681Y8226856D01*
X1007109Y8231428D01*
X1002538Y8240572D01*
G36*
X99974Y6697218D02*
G01*
X99974Y6651498D01*
X185369Y6651498D01*
X185369Y6697218D01*
G37*
G36*
X475030Y6697218D02*
G01*
X475030Y6651498D01*
X560425Y6651498D01*
X560425Y6697218D01*
G37*
G36*
X1382674Y3687318D02*
G01*
X1382674Y3641598D01*
X1468069Y3641598D01*
X1468069Y3687318D01*
G37*
G36*
X1757730Y3687318D02*
G01*
X1757730Y3641598D01*
X1843125Y3641598D01*
X1843125Y3687318D01*
G37*
G36*
X1572260Y1729739D02*
G01*
X1572260Y1648460D01*
X1630680Y1689100D01*
G37*
G36*
X1763064Y1628394D02*
G01*
X1763064Y1591411D01*
X1793544Y1591411D01*
X1793544Y1628394D01*
G37*
G36*
X1763064Y1786788D02*
G01*
X1763064Y1749806D01*
X1793544Y1749806D01*
X1793544Y1786788D01*
G37*
G36*
X365760Y1729739D02*
G01*
X365760Y1648460D01*
X424180Y1689100D01*
G37*
G36*
X556564Y1628394D02*
G01*
X556564Y1591411D01*
X587044Y1591411D01*
X587044Y1628394D01*
G37*
G36*
X556564Y1786788D02*
G01*
X556564Y1749806D01*
X587044Y1749806D01*
X587044Y1786788D01*
G37*
G36*
X536702Y4340707D02*
G01*
X514197Y4318203D01*
X559206Y4318203D01*
G37*
D13*
X723900Y1246576D02*
G01*
X723900Y890976D01*
X1282700Y1244600D02*
G01*
X1282700Y889000D01*
D10*
X876300Y863600D02*
G01*
X749300Y863600D01*
X1130300Y863600D02*
G01*
X1257300Y863600D01*
X749300Y1270000D02*
G01*
X879805Y1270000D01*
X1257300Y1270000D02*
G01*
X1130300Y1270000D01*
X1678960Y3928821D02*
G01*
X1678960Y4024708D01*
X1546839Y4024708D01*
X1546839Y3928821D01*
X1678960Y3843578D02*
G01*
X1678960Y3747691D01*
X1546839Y3747691D01*
X1546839Y3843578D01*
X632223Y7824139D02*
G01*
X711230Y7824139D01*
X711230Y7923860D02*
G01*
X632221Y7923857D01*
X726470Y7839382D02*
G01*
X726467Y7908620D01*
X507969Y7923860D02*
G01*
X586976Y7923860D01*
X586978Y7824142D02*
G01*
X507969Y7824139D01*
X492732Y7839379D02*
G01*
X492729Y7908617D01*
X953879Y7251959D02*
G01*
X953879Y7556240D01*
X1459120Y7556240D01*
X1459120Y7251959D01*
X953879Y7251959D01*
X420479Y7251959D02*
G01*
X420479Y7556240D01*
X925720Y7556240D01*
X925720Y7251959D01*
X420479Y7251959D01*
D14*
X1117600Y9944100D02*
G01*
X1117600Y10071100D01*
X1422400Y9944100D02*
G01*
X1422400Y10071100D01*
D10*
X1243881Y10075819D02*
G01*
X1141326Y10075819D01*
X1141326Y9939380D01*
X1243881Y9939380D01*
X1296118Y10075819D02*
G01*
X1398673Y10075819D01*
X1398673Y9939380D01*
X1296118Y9939380D01*
D14*
X901700Y10071100D02*
G01*
X901700Y9944100D01*
X596900Y10071100D02*
G01*
X596900Y9944100D01*
D10*
X775418Y9939380D02*
G01*
X877973Y9939380D01*
X877973Y10075819D01*
X775418Y10075819D01*
X723181Y9939380D02*
G01*
X620626Y9939380D01*
X620626Y10075819D01*
X723181Y10075819D01*
X140639Y7327930D02*
G01*
X140639Y7248921D01*
X240360Y7248921D02*
G01*
X240360Y7327930D01*
X225120Y7343170D02*
G01*
X155879Y7343170D01*
X140639Y7124669D02*
G01*
X140639Y7203678D01*
X240360Y7203678D02*
G01*
X240360Y7124669D01*
X225120Y7109429D02*
G01*
X155879Y7109429D01*
X1738960Y7150069D02*
G01*
X1738960Y7229078D01*
X1639239Y7229078D02*
G01*
X1639239Y7150069D01*
X1654479Y7134829D02*
G01*
X1723720Y7134829D01*
X1738960Y7353330D02*
G01*
X1738960Y7274321D01*
X1639239Y7274321D02*
G01*
X1639239Y7353330D01*
X1654479Y7368570D02*
G01*
X1723720Y7368570D01*
X1615460Y7294321D02*
G01*
X1615460Y7390208D01*
X1483339Y7390208D01*
X1483339Y7294321D01*
X1615460Y7209078D02*
G01*
X1615460Y7113191D01*
X1483339Y7113191D01*
X1483339Y7209078D01*
X626821Y5458439D02*
G01*
X722708Y5458439D01*
X722708Y5590560D01*
X626821Y5590560D01*
X541578Y5458439D02*
G01*
X445691Y5458439D01*
X445691Y5590560D01*
X541578Y5590560D01*
X264139Y7183678D02*
G01*
X264139Y7087791D01*
X396260Y7087791D01*
X396260Y7183678D01*
X264139Y7268921D02*
G01*
X264139Y7364808D01*
X396260Y7364808D01*
X396260Y7268921D01*
X1058621Y5458439D02*
G01*
X1154508Y5458439D01*
X1154508Y5590560D01*
X1058621Y5590560D01*
X973378Y5458439D02*
G01*
X877491Y5458439D01*
X877491Y5590560D01*
X973378Y5590560D01*
X1401521Y5458439D02*
G01*
X1497408Y5458439D01*
X1497408Y5590560D01*
X1401521Y5590560D01*
X1316278Y5458439D02*
G01*
X1220391Y5458439D01*
X1220391Y5590560D01*
X1316278Y5590560D01*
X307360Y7853121D02*
G01*
X307360Y7949008D01*
X175239Y7949008D01*
X175239Y7853121D01*
X307360Y7767878D02*
G01*
X307360Y7671991D01*
X175239Y7671991D01*
X175239Y7767878D01*
X866160Y8538921D02*
G01*
X866160Y8634808D01*
X734039Y8634808D01*
X734039Y8538921D01*
X866160Y8453678D02*
G01*
X866160Y8357791D01*
X734039Y8357791D01*
X734039Y8453678D01*
X1285260Y8538921D02*
G01*
X1285260Y8634808D01*
X1153139Y8634808D01*
X1153139Y8538921D01*
X1285260Y8453678D02*
G01*
X1285260Y8357791D01*
X1153139Y8357791D01*
X1153139Y8453678D01*
X1628630Y7975379D02*
G01*
X1800369Y7975379D01*
X1800369Y8078541D01*
X1628630Y8280620D02*
G01*
X1800369Y8280620D01*
X1800369Y8177458D01*
X1628630Y8082460D02*
G01*
X1628630Y8173539D01*
X1706321Y7820639D02*
G01*
X1802208Y7820639D01*
X1802208Y7952760D01*
X1706321Y7952760D01*
X1621078Y7820639D02*
G01*
X1525191Y7820639D01*
X1525191Y7952760D01*
X1621078Y7952760D01*
X434360Y7853121D02*
G01*
X434360Y7949008D01*
X302239Y7949008D01*
X302239Y7853121D01*
X434360Y7767878D02*
G01*
X434360Y7671991D01*
X302239Y7671991D01*
X302239Y7767878D01*
X1719021Y7414239D02*
G01*
X1814908Y7414239D01*
X1814908Y7546360D01*
X1719021Y7546360D01*
X1633778Y7414239D02*
G01*
X1537891Y7414239D01*
X1537891Y7546360D01*
X1633778Y7546360D01*
X1706321Y6957039D02*
G01*
X1802208Y6957039D01*
X1802208Y7089160D01*
X1706321Y7089160D01*
X1621078Y6957039D02*
G01*
X1525191Y6957039D01*
X1525191Y7089160D01*
X1621078Y7089160D01*
X1615676Y7796860D02*
G01*
X1536669Y7796860D01*
X1536669Y7697139D02*
G01*
X1615678Y7697142D01*
X1521429Y7781617D02*
G01*
X1521432Y7712379D01*
X1739930Y7697139D02*
G01*
X1660923Y7697139D01*
X1660921Y7796857D02*
G01*
X1739930Y7796860D01*
X1755167Y7781620D02*
G01*
X1755170Y7712382D01*
X1368823Y6909739D02*
G01*
X1447830Y6909739D01*
X1447830Y7009460D02*
G01*
X1368821Y7009457D01*
X1463070Y6924982D02*
G01*
X1463067Y6994220D01*
X1244569Y7009460D02*
G01*
X1323576Y7009460D01*
X1323578Y6909742D02*
G01*
X1244569Y6909739D01*
X1229332Y6924979D02*
G01*
X1229329Y6994217D01*
X987823Y7824139D02*
G01*
X1066830Y7824139D01*
X1066830Y7923860D02*
G01*
X987821Y7923857D01*
X1082070Y7839382D02*
G01*
X1082067Y7908620D01*
X863569Y7923860D02*
G01*
X942576Y7923860D01*
X942578Y7824142D02*
G01*
X863569Y7824139D01*
X848332Y7839379D02*
G01*
X848329Y7908617D01*
X107579Y5913876D02*
G01*
X107579Y6659123D01*
X552820Y5913876D02*
G01*
X552820Y6659123D01*
X107579Y6506926D02*
G01*
X552820Y6506926D01*
X107579Y5913876D02*
G01*
X180281Y5913876D01*
X552820Y5913876D02*
G01*
X480118Y5913876D01*
D14*
X1704340Y3900170D02*
G01*
X1877059Y3900170D01*
X1877059Y3900170D02*
G01*
X1877059Y4047489D01*
X1704340Y3900170D02*
G01*
X1704340Y4047489D01*
X1877059Y4105910D02*
G01*
X1877059Y4222750D01*
X1704340Y4108450D02*
G01*
X1704340Y4222750D01*
X1704340Y4222750D02*
G01*
X1739900Y4258310D01*
X1841500Y4258310D01*
X1877059Y4222750D01*
D15*
X1750059Y4069079D02*
G01*
X1828800Y4069079D01*
X1789904Y4069079D02*
G01*
X1789904Y4086616D01*
D10*
X1390279Y2903976D02*
G01*
X1390279Y3649223D01*
X1835520Y2903976D02*
G01*
X1835520Y3649223D01*
X1390279Y3497026D02*
G01*
X1835520Y3497026D01*
X1390279Y2903976D02*
G01*
X1462981Y2903976D01*
X1835520Y2903976D02*
G01*
X1762818Y2903976D01*
D14*
X448525Y1358905D02*
G01*
X562825Y1358905D01*
X575525Y1358905D01*
X600925Y1384305D01*
X600925Y1524005D01*
X600925Y1536705D01*
X575525Y1562105D01*
X448525Y1562105D01*
X372325Y1562105D02*
G01*
X258025Y1562105D01*
X245325Y1562105D01*
X219925Y1536705D01*
X219925Y1397005D01*
X219925Y1384305D01*
X245325Y1358905D01*
X372325Y1358905D01*
X1570774Y1562094D02*
G01*
X1456474Y1562094D01*
X1443774Y1562094D01*
X1418374Y1536694D01*
X1418374Y1396994D01*
X1418374Y1384294D01*
X1443774Y1358894D01*
X1570774Y1358894D01*
X1646974Y1358894D02*
G01*
X1761274Y1358894D01*
X1773974Y1358894D01*
X1799374Y1384294D01*
X1799374Y1523994D01*
X1799374Y1536694D01*
X1773974Y1562094D01*
X1646974Y1562094D01*
X1478279Y1759714D02*
G01*
X1478279Y1774101D01*
X1478279Y1604098D02*
G01*
X1478279Y1618485D01*
X1747520Y1774101D02*
G01*
X1776696Y1774101D01*
X1776798Y1773999D01*
X1747520Y1604098D02*
G01*
X1777197Y1604098D01*
X1777298Y1604200D01*
X1747520Y1604098D02*
G01*
X1478279Y1604098D01*
X1572259Y1648460D02*
G01*
X1572259Y1729739D01*
X1572259Y1689074D02*
G01*
X1540890Y1689074D01*
X1640900Y1689100D02*
G01*
X1673900Y1689100D01*
X1638300Y1638300D02*
G01*
X1638300Y1739900D01*
X1630679Y1689100D02*
G01*
X1572259Y1648460D01*
X1572259Y1729739D02*
G01*
X1630679Y1689100D01*
X1478279Y1774101D02*
G01*
X1747520Y1774101D01*
X271779Y1759714D02*
G01*
X271779Y1774101D01*
X271779Y1604098D02*
G01*
X271779Y1618485D01*
X541020Y1774101D02*
G01*
X570196Y1774101D01*
X570298Y1773999D01*
X541020Y1604098D02*
G01*
X570697Y1604098D01*
X570798Y1604200D01*
X541020Y1604098D02*
G01*
X271779Y1604098D01*
X365760Y1648460D02*
G01*
X365760Y1729739D01*
X365760Y1689074D02*
G01*
X334390Y1689074D01*
X434400Y1689100D02*
G01*
X467400Y1689100D01*
X431800Y1638300D02*
G01*
X431800Y1739900D01*
X424179Y1689100D02*
G01*
X365760Y1648460D01*
X365760Y1729739D02*
G01*
X424179Y1689100D01*
X271779Y1774101D02*
G01*
X541020Y1774101D01*
X504151Y3399602D02*
G01*
X504151Y3302713D01*
X504151Y2996486D02*
G01*
X504151Y2899608D01*
X504151Y2899608D02*
G01*
X272265Y2899608D01*
X504151Y3386576D02*
G01*
X504151Y3399602D01*
X504151Y3399602D02*
G01*
X272265Y3399602D01*
X79154Y3281484D02*
G01*
X79154Y3017713D01*
X965200Y6546202D02*
G01*
X965200Y6063602D01*
X812800Y6063602D01*
X812800Y6546202D01*
X965200Y6546202D01*
X965200Y6139802D02*
G01*
X812800Y6241402D01*
X965200Y6241402D01*
X812800Y6114402D02*
G01*
X965200Y6114402D01*
X889000Y6241402D02*
G01*
X965200Y6190602D01*
X812800Y6190602D02*
G01*
X914400Y6114402D01*
X1066800Y6190602D02*
G01*
X1168400Y6114402D01*
X1219200Y6241402D02*
G01*
X1066800Y6241402D01*
X1219200Y6139802D01*
X1143000Y6241402D02*
G01*
X1219200Y6190602D01*
X1066800Y6114402D02*
G01*
X1219200Y6114402D01*
X1219200Y6546202D02*
G01*
X1066800Y6546202D01*
X1066800Y6063602D01*
X1219200Y6063602D01*
X1219200Y6546202D01*
X1473200Y6546202D02*
G01*
X1473200Y6063602D01*
X1320800Y6063602D01*
X1320800Y6546202D01*
X1473200Y6546202D01*
X1473200Y6139802D02*
G01*
X1320800Y6241402D01*
X1473200Y6241402D01*
X1320800Y6114402D02*
G01*
X1473200Y6114402D01*
X1397000Y6241402D02*
G01*
X1473200Y6190602D01*
X1320800Y6190602D02*
G01*
X1422400Y6114402D01*
X1574800Y6190602D02*
G01*
X1676400Y6114402D01*
X1727200Y6241402D02*
G01*
X1574800Y6241402D01*
X1727200Y6139802D01*
X1651000Y6241402D02*
G01*
X1727200Y6190602D01*
X1574800Y6114402D02*
G01*
X1727200Y6114402D01*
X1727200Y6546202D02*
G01*
X1574800Y6546202D01*
X1574800Y6063602D01*
X1727200Y6063602D01*
X1727200Y6546202D01*
X689998Y6681899D02*
G01*
X789686Y6681899D01*
X988313Y6681899D02*
G01*
X1043686Y6681899D01*
X1242313Y6681899D02*
G01*
X1297686Y6681899D01*
X1496313Y6681899D02*
G01*
X1551686Y6681899D01*
X1750313Y6681899D02*
G01*
X1850001Y6681899D01*
X1850001Y5931900D01*
X1750313Y5931900D01*
X1551686Y5931900D02*
G01*
X1496313Y5931900D01*
X1297686Y5931900D02*
G01*
X1242313Y5931900D01*
X1043686Y5931900D02*
G01*
X988313Y5931900D01*
X789686Y5931900D02*
G01*
X689998Y5931900D01*
X689998Y6671899D01*
X689998Y6681899D01*
D10*
X1814807Y5678119D02*
G01*
X1639567Y5678119D01*
X1639567Y5573958D01*
X1814807Y5370880D02*
G01*
X1639567Y5370880D01*
X1639567Y5475041D01*
X1814807Y5570039D02*
G01*
X1814807Y5478960D01*
X73779Y2481242D02*
G01*
X739020Y2481242D01*
X739020Y2186962D01*
X73779Y2186962D01*
X73779Y2481242D01*
X1272778Y2463739D02*
G01*
X1953021Y2463739D01*
X1953021Y2184460D01*
X1272778Y2184460D01*
X1272778Y2463739D01*
D14*
X504151Y4034602D02*
G01*
X504151Y3937713D01*
X504151Y3631486D02*
G01*
X504151Y3534608D01*
X504151Y3534608D02*
G01*
X272265Y3534608D01*
X504151Y4021576D02*
G01*
X504151Y4034602D01*
X504151Y4034602D02*
G01*
X272265Y4034602D01*
X79154Y3916484D02*
G01*
X79154Y3652713D01*
D11*
X694197Y4380748D02*
G01*
X694197Y4440692D01*
X639079Y4440692D01*
X674182Y4240692D02*
G01*
X494172Y4240692D01*
X494172Y4420702D01*
X674182Y4420702D01*
X674182Y4240692D01*
D10*
X378223Y4331639D02*
G01*
X457230Y4331639D01*
X457230Y4431360D02*
G01*
X378221Y4431357D01*
X472470Y4346882D02*
G01*
X472467Y4416120D01*
X253969Y4431360D02*
G01*
X332976Y4431360D01*
X332978Y4331642D02*
G01*
X253969Y4331639D01*
X238732Y4346879D02*
G01*
X238729Y4416117D01*
X581423Y4611039D02*
G01*
X660430Y4611039D01*
X660430Y4710760D02*
G01*
X581421Y4710757D01*
X675670Y4626282D02*
G01*
X675667Y4695520D01*
X457169Y4710760D02*
G01*
X536176Y4710760D01*
X536178Y4611042D02*
G01*
X457169Y4611039D01*
X441932Y4626279D02*
G01*
X441929Y4695517D01*
X570562Y5013718D02*
G01*
X570562Y5092725D01*
X470842Y5092725D02*
G01*
X470844Y5013716D01*
X555320Y5107965D02*
G01*
X486082Y5107962D01*
X470842Y4889464D02*
G01*
X470842Y4968471D01*
X570560Y4968473D02*
G01*
X570562Y4889464D01*
X555322Y4874226D02*
G01*
X486084Y4874224D01*
X672162Y5013718D02*
G01*
X672162Y5092725D01*
X572442Y5092725D02*
G01*
X572444Y5013716D01*
X656920Y5107965D02*
G01*
X587682Y5107962D01*
X572442Y4889464D02*
G01*
X572442Y4968471D01*
X672160Y4968473D02*
G01*
X672162Y4889464D01*
X656922Y4874226D02*
G01*
X587684Y4874224D01*
X779909Y5365429D02*
G01*
X464672Y5365429D01*
X464672Y5150182D02*
G01*
X779909Y5150182D01*
X1666476Y4723460D02*
G01*
X1587469Y4723460D01*
X1587469Y4623739D02*
G01*
X1666478Y4623742D01*
X1572229Y4708217D02*
G01*
X1572232Y4638979D01*
X1790730Y4623739D02*
G01*
X1711723Y4623739D01*
X1711721Y4723457D02*
G01*
X1790730Y4723460D01*
X1805967Y4708220D02*
G01*
X1805970Y4638982D01*
X1488676Y4393260D02*
G01*
X1409669Y4393260D01*
X1409669Y4293539D02*
G01*
X1488678Y4293542D01*
X1394429Y4378017D02*
G01*
X1394432Y4308779D01*
X1612930Y4293539D02*
G01*
X1533923Y4293539D01*
X1533921Y4393257D02*
G01*
X1612930Y4393260D01*
X1628167Y4378020D02*
G01*
X1628170Y4308782D01*
X1229123Y5296839D02*
G01*
X1308130Y5296839D01*
X1308130Y5396560D02*
G01*
X1229121Y5396557D01*
X1323370Y5312082D02*
G01*
X1323367Y5381320D01*
X1104869Y5396560D02*
G01*
X1183876Y5396560D01*
X1183878Y5296842D02*
G01*
X1104869Y5296839D01*
X1089632Y5312079D02*
G01*
X1089629Y5381317D01*
D14*
X793503Y5125199D02*
G01*
X793503Y5115514D01*
X767595Y5089606D01*
X767595Y5068315D02*
G01*
X824484Y5125199D01*
X767595Y5068315D02*
G01*
X767595Y5125199D01*
X824484Y4425205D02*
G01*
X777598Y4425205D01*
X767595Y4425205D01*
X767595Y4482089D01*
X1467594Y4482089D02*
G01*
X1467594Y4425205D01*
X1410710Y4425205D01*
X1410710Y5125199D02*
G01*
X1467594Y5125199D01*
X1467594Y5068315D01*
X767595Y5125199D02*
G01*
X824484Y5125199D01*
D10*
X1247376Y4291660D02*
G01*
X1168369Y4291660D01*
X1168369Y4191939D02*
G01*
X1247378Y4191942D01*
X1153129Y4276417D02*
G01*
X1153132Y4207179D01*
X1371630Y4191939D02*
G01*
X1292623Y4191939D01*
X1292621Y4291657D02*
G01*
X1371630Y4291660D01*
X1386867Y4276420D02*
G01*
X1386870Y4207182D01*
X1247376Y4190060D02*
G01*
X1168369Y4190060D01*
X1168369Y4090339D02*
G01*
X1247378Y4090342D01*
X1153129Y4174817D02*
G01*
X1153132Y4105579D01*
X1371630Y4090339D02*
G01*
X1292623Y4090339D01*
X1292621Y4190057D02*
G01*
X1371630Y4190060D01*
X1386867Y4174820D02*
G01*
X1386870Y4105582D01*
X523481Y4202757D02*
G01*
X444472Y4202757D01*
X444472Y4103037D02*
G01*
X523481Y4103039D01*
X429232Y4187515D02*
G01*
X429234Y4118277D01*
X647733Y4103037D02*
G01*
X568723Y4103037D01*
X568723Y4202755D02*
G01*
X647733Y4202757D01*
X662970Y4187517D02*
G01*
X662973Y4118279D01*
X711542Y4010449D02*
G01*
X711542Y4346171D01*
X1117262Y4346171D01*
X1117262Y4010449D01*
X711542Y4010449D01*
X688682Y4153308D02*
G01*
X688682Y3987589D01*
X874402Y3987589D01*
X1512239Y5260576D02*
G01*
X1512239Y5181569D01*
X1611960Y5181569D02*
G01*
X1611957Y5260578D01*
X1527482Y5166329D02*
G01*
X1596720Y5166332D01*
X1611960Y5384830D02*
G01*
X1611960Y5305823D01*
X1512242Y5305821D02*
G01*
X1512239Y5384830D01*
X1527479Y5400067D02*
G01*
X1596717Y5400070D01*
X1104869Y5195239D02*
G01*
X1183878Y5195239D01*
X1183878Y5294960D02*
G01*
X1104869Y5294960D01*
X1089629Y5279720D02*
G01*
X1089629Y5210479D01*
X1308130Y5195239D02*
G01*
X1229121Y5195239D01*
X1229121Y5294960D02*
G01*
X1308130Y5294960D01*
X1323370Y5279720D02*
G01*
X1323370Y5210479D01*
X1410639Y5384830D02*
G01*
X1410639Y5305821D01*
X1510360Y5305821D02*
G01*
X1510360Y5384830D01*
X1495120Y5400070D02*
G01*
X1425879Y5400070D01*
X1410639Y5181569D02*
G01*
X1410639Y5260578D01*
X1510360Y5260578D02*
G01*
X1510360Y5181569D01*
X1495120Y5166329D02*
G01*
X1425879Y5166329D01*
D11*
X1973986Y11420398D02*
G01*
X1973986Y10370413D01*
X1543989Y10370413D01*
X1074013Y10370413D01*
X1074013Y11420398D01*
X1373987Y11420398D01*
X1674012Y11420398D01*
X1973986Y11420398D01*
X1373987Y11420398D02*
G01*
X1373987Y11220399D01*
X1674012Y11220399D01*
X1674012Y11420398D01*
X1504010Y10360405D02*
G01*
X1504010Y10150398D01*
X1543989Y10150398D01*
X1543989Y10370413D01*
X945286Y11420398D02*
G01*
X945286Y10370413D01*
X515289Y10370413D01*
X45313Y10370413D01*
X45313Y11420398D01*
X345287Y11420398D01*
X645312Y11420398D01*
X945286Y11420398D01*
X345287Y11420398D02*
G01*
X345287Y11220399D01*
X645312Y11220399D01*
X645312Y11420398D01*
X475310Y10360405D02*
G01*
X475310Y10150398D01*
X515289Y10150398D01*
X515289Y10370413D01*
X1973986Y9896398D02*
G01*
X1973986Y8846413D01*
X1543989Y8846413D01*
X1074013Y8846413D01*
X1074013Y9896398D01*
X1373987Y9896398D01*
X1674012Y9896398D01*
X1973986Y9896398D01*
X1373987Y9896398D02*
G01*
X1373987Y9696399D01*
X1674012Y9696399D01*
X1674012Y9896398D01*
X1504010Y8836405D02*
G01*
X1504010Y8626398D01*
X1543989Y8626398D01*
X1543989Y8846413D01*
X945286Y9896398D02*
G01*
X945286Y8846413D01*
X515289Y8846413D01*
X45313Y8846413D01*
X45313Y9896398D01*
X345287Y9896398D01*
X645312Y9896398D01*
X945286Y9896398D01*
X345287Y9896398D02*
G01*
X345287Y9696399D01*
X645312Y9696399D01*
X645312Y9896398D01*
X475310Y8836405D02*
G01*
X475310Y8626398D01*
X515289Y8626398D01*
X515289Y8846413D01*
D14*
X819099Y8178800D02*
G01*
X819099Y7988300D01*
X616000Y8177199D02*
G01*
X1415999Y8177199D01*
X1415999Y7977200D01*
X616000Y7977200D01*
X616000Y8177199D01*
D13*
G75*
G01*
X1003300Y1066800D02*
G02*
X1003300Y1003300I0J-31750D01*
G75*
G01*
X1003300Y1066800D02*
G02*
X1003300Y1130300I0J31750D01*
D10*
G75*
G01*
X711230Y7824140D02*
G03*
X726470Y7839382I0J15240D01*
G75*
G01*
X726468Y7908620D02*
G03*
X711230Y7923860I-15240J0D01*
G75*
G01*
X507970Y7824140D02*
G02*
X492732Y7839380I2J15240D01*
G75*
G01*
X492730Y7908618D02*
G02*
X507970Y7923860I15240J2D01*
G75*
G01*
X240360Y7327930D02*
G03*
X225120Y7343170I-15240J0D01*
G75*
G01*
X155880Y7343170D02*
G03*
X140640Y7327930I0J-15240D01*
G75*
G01*
X240360Y7124670D02*
G02*
X225120Y7109430I-15240J0D01*
G75*
G01*
X155880Y7109430D02*
G02*
X140640Y7124670I0J15240D01*
G75*
G01*
X1639240Y7150070D02*
G03*
X1654480Y7134830I15240J0D01*
G75*
G01*
X1723720Y7134830D02*
G03*
X1738960Y7150070I0J15240D01*
G75*
G01*
X1639240Y7353330D02*
G02*
X1654480Y7368570I15240J0D01*
G75*
G01*
X1723720Y7368570D02*
G02*
X1738960Y7353330I0J-15240D01*
G75*
G01*
X1536670Y7796860D02*
G03*
X1521430Y7781618I0J-15240D01*
G75*
G01*
X1521432Y7712380D02*
G03*
X1536670Y7697140I15240J0D01*
G75*
G01*
X1739930Y7796860D02*
G02*
X1755168Y7781620I-2J-15240D01*
G75*
G01*
X1755170Y7712382D02*
G02*
X1739930Y7697140I-15240J-2D01*
G75*
G01*
X1447830Y6909740D02*
G03*
X1463070Y6924982I0J15240D01*
G75*
G01*
X1463068Y6994220D02*
G03*
X1447830Y7009460I-15240J0D01*
G75*
G01*
X1244570Y6909740D02*
G02*
X1229332Y6924980I2J15240D01*
G75*
G01*
X1229330Y6994218D02*
G02*
X1244570Y7009460I15240J2D01*
G75*
G01*
X1066830Y7824140D02*
G03*
X1082070Y7839382I0J15240D01*
G75*
G01*
X1082068Y7908620D02*
G03*
X1066830Y7923860I-15240J0D01*
G75*
G01*
X863570Y7824140D02*
G02*
X848332Y7839380I2J15240D01*
G75*
G01*
X848330Y7908618D02*
G02*
X863570Y7923860I15240J2D01*
G75*
G01*
X457230Y4331640D02*
G03*
X472470Y4346882I0J15240D01*
G75*
G01*
X472468Y4416120D02*
G03*
X457230Y4431360I-15240J0D01*
G75*
G01*
X253970Y4331640D02*
G02*
X238732Y4346880I2J15240D01*
G75*
G01*
X238730Y4416118D02*
G02*
X253970Y4431360I15240J2D01*
G75*
G01*
X660430Y4611040D02*
G03*
X675670Y4626282I0J15240D01*
G75*
G01*
X675668Y4695520D02*
G03*
X660430Y4710760I-15240J0D01*
G75*
G01*
X457170Y4611040D02*
G02*
X441932Y4626280I2J15240D01*
G75*
G01*
X441930Y4695518D02*
G02*
X457170Y4710760I15240J2D01*
G75*
G01*
X570563Y5092725D02*
G03*
X555320Y5107965I-15240J0D01*
G75*
G01*
X486082Y5107963D02*
G03*
X470842Y5092725I0J-15240D01*
G75*
G01*
X570563Y4889464D02*
G02*
X555323Y4874227I-15240J3D01*
G75*
G01*
X486085Y4874224D02*
G02*
X470842Y4889464I-3J15240D01*
G75*
G01*
X672163Y5092725D02*
G03*
X656920Y5107965I-15240J0D01*
G75*
G01*
X587682Y5107963D02*
G03*
X572442Y5092725I0J-15240D01*
G75*
G01*
X672163Y4889464D02*
G02*
X656923Y4874227I-15240J3D01*
G75*
G01*
X587685Y4874224D02*
G02*
X572442Y4889464I-3J15240D01*
G75*
G01*
X1587470Y4723460D02*
G03*
X1572230Y4708218I0J-15240D01*
G75*
G01*
X1572232Y4638980D02*
G03*
X1587470Y4623740I15240J0D01*
G75*
G01*
X1790730Y4723460D02*
G02*
X1805968Y4708220I-2J-15240D01*
G75*
G01*
X1805970Y4638982D02*
G02*
X1790730Y4623740I-15240J-2D01*
G75*
G01*
X1409670Y4393260D02*
G03*
X1394430Y4378018I0J-15240D01*
G75*
G01*
X1394432Y4308780D02*
G03*
X1409670Y4293540I15240J0D01*
G75*
G01*
X1612930Y4393260D02*
G02*
X1628168Y4378020I-2J-15240D01*
G75*
G01*
X1628170Y4308782D02*
G02*
X1612930Y4293540I-15240J-2D01*
G75*
G01*
X1308130Y5296840D02*
G03*
X1323370Y5312082I0J15240D01*
G75*
G01*
X1323368Y5381320D02*
G03*
X1308130Y5396560I-15240J0D01*
G75*
G01*
X1104870Y5296840D02*
G02*
X1089632Y5312080I2J15240D01*
G75*
G01*
X1089630Y5381318D02*
G02*
X1104870Y5396560I15240J2D01*
G75*
G01*
X1168370Y4291660D02*
G03*
X1153130Y4276418I0J-15240D01*
G75*
G01*
X1153132Y4207180D02*
G03*
X1168370Y4191940I15240J0D01*
G75*
G01*
X1371630Y4291660D02*
G02*
X1386868Y4276420I-2J-15240D01*
G75*
G01*
X1386870Y4207182D02*
G02*
X1371630Y4191940I-15240J-2D01*
G75*
G01*
X1168370Y4190060D02*
G03*
X1153130Y4174818I0J-15240D01*
G75*
G01*
X1153132Y4105580D02*
G03*
X1168370Y4090340I15240J0D01*
G75*
G01*
X1371630Y4190060D02*
G02*
X1386868Y4174820I-2J-15240D01*
G75*
G01*
X1386870Y4105582D02*
G02*
X1371630Y4090340I-15240J-2D01*
G75*
G01*
X444472Y4202758D02*
G03*
X429232Y4187515I0J-15240D01*
G75*
G01*
X429235Y4118277D02*
G03*
X444472Y4103037I15240J0D01*
G75*
G01*
X647733Y4202758D02*
G02*
X662970Y4187518I-3J-15240D01*
G75*
G01*
X662973Y4118280D02*
G02*
X647733Y4103037I-15240J-3D01*
G75*
G01*
X1512240Y5181570D02*
G03*
X1527482Y5166330I15240J0D01*
G75*
G01*
X1596720Y5166332D02*
G03*
X1611960Y5181570I0J15240D01*
G75*
G01*
X1512240Y5384830D02*
G02*
X1527480Y5400068I15240J-2D01*
G75*
G01*
X1596718Y5400070D02*
G02*
X1611960Y5384830I2J-15240D01*
G75*
G01*
X1104870Y5294960D02*
G03*
X1089630Y5279720I0J-15240D01*
G75*
G01*
X1089630Y5210480D02*
G03*
X1104870Y5195240I15240J0D01*
G75*
G01*
X1308130Y5294960D02*
G02*
X1323370Y5279720I0J-15240D01*
G75*
G01*
X1323370Y5210480D02*
G02*
X1308130Y5195240I-15240J0D01*
G75*
G01*
X1510360Y5384830D02*
G03*
X1495120Y5400070I-15240J0D01*
G75*
G01*
X1425880Y5400070D02*
G03*
X1410640Y5384830I0J-15240D01*
G75*
G01*
X1510360Y5181570D02*
G02*
X1495120Y5166330I-15240J0D01*
G75*
G01*
X1425880Y5166330D02*
G02*
X1410640Y5181570I0J15240D01*
D11*
G75*
G01*
X1840230Y10820400D02*
G03*
X1840230Y10819638I-316230J-381D01*
G75*
G01*
X1793062Y10820400D02*
G03*
X1793062Y10819740I-269062J-330D01*
G75*
G01*
X811530Y10820400D02*
G03*
X811530Y10819638I-316230J-381D01*
G75*
G01*
X764362Y10820400D02*
G03*
X764362Y10819740I-269062J-330D01*
G75*
G01*
X1840230Y9296400D02*
G03*
X1840230Y9295638I-316230J-381D01*
G75*
G01*
X1793062Y9296400D02*
G03*
X1793062Y9295740I-269062J-330D01*
G75*
G01*
X811530Y9296400D02*
G03*
X811530Y9295638I-316230J-381D01*
G75*
G01*
X764362Y9296400D02*
G03*
X764362Y9295740I-269062J-330D01*
D16*
G75*
G01
X1031011Y7327189D02*
G03X1031011Y7327189I-15011J0D01*
G75*
G01
X956361Y7126859D02*
G03X956361Y7126859I-15011J0D01*
G75*
G01
X497611Y7327189D02*
G03X497611Y7327189I-15011J0D01*
G75*
G01
X422961Y7126859D02*
G03X422961Y7126859I-15011J0D01*
D14*
G75*
G01
X574523Y3349574D02*
G03X574523Y3349574I-31623J0D01*
G75*
G01
X574523Y3984574D02*
G03X574523Y3984574I-31623J0D01*
D17*
G75*
G01
X835508Y5181600D02*
G03X835508Y5181600I-10008J0D01*
D14*
G75*
G01
X730301Y5145202D02*
G03X730301Y5145202I-12700J0D01*
M02*
