M48
METRIC,LZ,000.000
;FILE_FORMAT=3:3
;TYPE=NON_PLATED
;Layer: NPTH_Through
;EasyEDA v6.5.34, 2023-08-21 18:11:39
;6b2dacb3b0004d39b2713aafaac8f7a9,5a6b42c53f6a479593ecc07194224c93,10
;Gerber Generator version 0.2
;Holesize 1 = 0.551 mm
T01C0.551
;Holesize 2 = 2.000 mm
T02C2.000
%
G05
G90
T01
X023688Y068634
X023688Y067784
X023688Y066934
X023688Y066084
X023688Y065234
X023688Y064384
X023688Y063534
X023688Y062684
X017872Y068634
X017872Y067784
X017872Y066934
X017872Y066084
X017872Y065234
X017872Y064384
X017872Y063534
X017872Y062684
X044928Y068634
X044928Y067784
X044928Y066934
X044928Y066084
X044928Y065234
X044928Y064384
X044928Y063534
X044928Y062684
X039112Y068634
X039112Y067784
X039112Y066934
X039112Y066084
X039112Y065234
X039112Y064384
X039112Y063534
X039112Y062684
X066168Y068634
X066168Y067784
X066168Y066934
X066168Y066084
X066168Y065234
X066168Y064384
X066168Y063534
X066168Y062684
X060352Y068634
X060352Y067784
X060352Y066934
X060352Y066084
X060352Y065234
X060352Y064384
X060352Y063534
X060352Y062684
X087408Y068634
X087408Y067784
X087408Y066934
X087408Y066084
X087408Y065234
X087408Y064384
X087408Y063534
X087408Y062684
X081592Y068634
X081592Y067784
X081592Y066934
X081592Y066084
X081592Y065234
X081592Y064384
X081592Y063534
X081592Y062684
X108648Y068634
X108648Y067784
X108648Y066934
X108648Y066084
X108648Y065234
X108648Y064384
X108648Y063534
X108648Y062684
X102832Y068634
X102832Y067784
X102832Y066934
X102832Y066084
X102832Y065234
X102832Y064384
X102832Y063534
X102832Y062684
X129888Y068634
X129888Y067784
X129888Y066934
X129888Y066084
X129888Y065234
X129888Y064384
X129888Y063534
X129888Y062684
X124072Y068634
X124072Y067784
X124072Y066934
X124072Y066084
X124072Y065234
X124072Y064384
X124072Y063534
X124072Y062684
X151128Y068634
X151128Y067784
X151128Y066934
X151128Y066084
X151128Y065234
X151128Y064384
X151128Y063534
X151128Y062684
X145312Y068634
X145312Y067784
X145312Y066934
X145312Y066084
X145312Y065234
X145312Y064384
X145312Y063534
X145312Y062684
X172368Y068634
X172368Y067784
X172368Y066934
X172368Y066084
X172368Y065234
X172368Y064384
X172368Y063534
X172368Y062684
X166552Y068634
X166552Y067784
X166552Y066934
X166552Y066084
X166552Y065234
X166552Y064384
X166552Y063534
X166552Y062684
X193608Y068634
X193608Y067784
X193608Y066934
X193608Y066084
X193608Y065234
X193608Y064384
X193608Y063534
X193608Y062684
X187792Y068634
X187792Y067784
X187792Y066934
X187792Y066084
X187792Y065234
X187792Y064384
X187792Y063534
X187792Y062684
X007185Y113249
X008035Y113249
X008885Y113249
X009735Y113249
X010585Y113249
X011435Y113249
X012285Y113249
X013135Y113249
X007185Y018069
X008035Y018069
X008885Y018069
X009735Y018069
X010585Y018069
X011435Y018069
X012285Y018069
X013135Y018069
X028425Y113249
X029275Y113249
X030125Y113249
X030975Y113249
X031825Y113249
X032675Y113249
X033525Y113249
X034375Y113249
X028425Y018069
X029275Y018069
X030125Y018069
X030975Y018069
X031825Y018069
X032675Y018069
X033525Y018069
X034375Y018069
X049665Y113249
X050515Y113249
X051365Y113249
X052215Y113249
X053065Y113249
X053915Y113249
X054765Y113249
X055615Y113249
X049665Y018069
X050515Y018069
X051365Y018069
X052215Y018069
X053065Y018069
X053915Y018069
X054765Y018069
X055615Y018069
X070905Y113249
X071755Y113249
X072605Y113249
X073455Y113249
X074305Y113249
X075155Y113249
X076005Y113249
X076855Y113249
X070905Y018069
X071755Y018069
X072605Y018069
X073455Y018069
X074305Y018069
X075155Y018069
X076005Y018069
X076855Y018069
X092145Y113249
X092995Y113249
X093845Y113249
X094695Y113249
X095545Y113249
X096395Y113249
X097245Y113249
X098095Y113249
X092145Y018069
X092995Y018069
X093845Y018069
X094695Y018069
X095545Y018069
X096395Y018069
X097245Y018069
X098095Y018069
X113385Y113249
X114235Y113249
X115085Y113249
X115935Y113249
X116785Y113249
X117635Y113249
X118485Y113249
X119335Y113249
X113385Y018069
X114235Y018069
X115085Y018069
X115935Y018069
X116785Y018069
X117635Y018069
X118485Y018069
X119335Y018069
X134625Y113249
X135475Y113249
X136325Y113249
X137175Y113249
X138025Y113249
X138875Y113249
X139725Y113249
X140575Y113249
X134625Y018069
X135475Y018069
X136325Y018069
X137175Y018069
X138025Y018069
X138875Y018069
X139725Y018069
X140575Y018069
X155865Y113249
X156715Y113249
X157565Y113249
X158415Y113249
X159265Y113249
X160115Y113249
X160965Y113249
X161815Y113249
X155865Y018069
X156715Y018069
X157565Y018069
X158415Y018069
X159265Y018069
X160115Y018069
X160965Y018069
X161815Y018069
X177105Y113249
X177955Y113249
X178805Y113249
X179655Y113249
X180505Y113249
X181355Y113249
X182205Y113249
X183055Y113249
X177105Y018069
X177955Y018069
X178805Y018069
X179655Y018069
X180505Y018069
X181355Y018069
X182205Y018069
X183055Y018069
X198345Y113249
X199195Y113249
X200045Y113249
X200895Y113249
X201745Y113249
X202595Y113249
X203445Y113249
X204295Y113249
X198345Y018069
X199195Y018069
X200045Y018069
X200895Y018069
X201745Y018069
X202595Y018069
X203445Y018069
X204295Y018069
T02
X007540Y121157
X203940Y121157
X012540Y010161
X198940Y010161
M30
