G04 Layer: TopLayer*
G04 Panelize: Stamp Hole, Column: 10, Row: 1, Board Size: 15.24mm x 95mm, Panelized Board Size: 206.4mm x 95mm*
G04 EasyEDA v6.5.34, 2023-08-21 18:11:39*
G04 37ba9180ffe74b91916b72eff976b916,5a6b42c53f6a479593ecc07194224c93,10*
G04 Gerber Generator version 0.2*
G04 Scale: 100 percent, Rotated: No, Reflected: No *
G04 Dimensions in millimeters *
G04 leading zeros omitted , absolute positions ,4 integer and 5 decimal *
%FSLAX45Y45*%
%MOMM*%

%AMMACRO1*21,1,$1,$2,0,0,$3*%
%ADD10C,0.2540*%
%ADD11R,0.8000X0.8000*%
%ADD12MACRO1,0.864X0.8065X90.0000*%
%ADD13C,1.0000*%
%ADD14C,1.4000*%
%ADD15MACRO1,1.524X1.4X0.0000*%
%ADD16C,0.0138*%

%LPD*%
G36*
X290068Y1842007D02*
G01*
X286156Y1842770D01*
X282905Y1845005D01*
X280670Y1848256D01*
X279908Y1852168D01*
X279908Y11279632D01*
X280670Y11283543D01*
X282905Y11286794D01*
X286156Y11289030D01*
X290068Y11289792D01*
X548233Y11289792D01*
X552145Y11289030D01*
X555447Y11286794D01*
X557631Y11283543D01*
X558393Y11279632D01*
X557631Y11275720D01*
X555447Y11272469D01*
X553212Y11270234D01*
X550113Y11265306D01*
X548233Y11259870D01*
X547522Y11253520D01*
X547522Y11226800D01*
X600710Y11226800D01*
X600710Y11279632D01*
X601472Y11283543D01*
X603707Y11286794D01*
X606958Y11289030D01*
X610870Y11289792D01*
X615950Y11289792D01*
X619861Y11289030D01*
X623112Y11286794D01*
X625348Y11283543D01*
X626110Y11279632D01*
X626110Y11226800D01*
X679297Y11226800D01*
X679297Y11253520D01*
X678586Y11259870D01*
X676706Y11265306D01*
X673608Y11270234D01*
X671372Y11272469D01*
X669188Y11275720D01*
X668426Y11279632D01*
X669188Y11283543D01*
X671372Y11286794D01*
X674674Y11289030D01*
X678586Y11289792D01*
X718413Y11289792D01*
X722325Y11289030D01*
X725627Y11286794D01*
X727811Y11283543D01*
X728573Y11279632D01*
X727811Y11275720D01*
X725627Y11272469D01*
X723392Y11270234D01*
X720293Y11265306D01*
X718413Y11259870D01*
X717702Y11253520D01*
X717702Y11174679D01*
X718413Y11168329D01*
X720293Y11162893D01*
X723392Y11157966D01*
X727456Y11153902D01*
X730453Y11152022D01*
X732993Y11149736D01*
X734669Y11146739D01*
X735228Y11143386D01*
X735228Y11101832D01*
X734364Y11097768D01*
X731977Y11094364D01*
X728421Y11092230D01*
X722274Y11090097D01*
X717397Y11086998D01*
X713282Y11082934D01*
X710234Y11078006D01*
X708101Y11071961D01*
X705967Y11068405D01*
X702564Y11065967D01*
X698500Y11065154D01*
X694436Y11065967D01*
X691032Y11068405D01*
X688898Y11071961D01*
X686765Y11078006D01*
X683717Y11082934D01*
X679602Y11086998D01*
X674725Y11090097D01*
X669239Y11091976D01*
X662940Y11092688D01*
X583438Y11092688D01*
X577088Y11091976D01*
X571652Y11090097D01*
X566724Y11086998D01*
X562660Y11082934D01*
X559562Y11078006D01*
X557631Y11072571D01*
X556463Y11067694D01*
X554177Y11064798D01*
X551027Y11062868D01*
X547420Y11062208D01*
X381508Y11062208D01*
X373481Y11061395D01*
X366268Y11059210D01*
X359562Y11055654D01*
X353364Y11050524D01*
X315976Y11013135D01*
X310845Y11006937D01*
X307289Y11000232D01*
X305104Y10993018D01*
X304292Y10984992D01*
X304292Y8331708D01*
X305104Y8323681D01*
X307289Y8316468D01*
X310845Y8309762D01*
X315976Y8303564D01*
X353364Y8266175D01*
X359562Y8261045D01*
X366268Y8257489D01*
X373481Y8255304D01*
X381508Y8254492D01*
X622096Y8254492D01*
X625703Y8253831D01*
X628853Y8251901D01*
X631088Y8249005D01*
X634085Y8243265D01*
X641604Y8232546D01*
X650544Y8222996D01*
X660704Y8214766D01*
X671880Y8207959D01*
X683869Y8202726D01*
X696468Y8199221D01*
X709472Y8197443D01*
X722528Y8197443D01*
X735482Y8199221D01*
X748131Y8202726D01*
X760120Y8207959D01*
X771296Y8214766D01*
X781456Y8222996D01*
X790397Y8232546D01*
X797915Y8243265D01*
X803960Y8254898D01*
X806450Y8261858D01*
X808583Y8265414D01*
X811936Y8267801D01*
X816000Y8268614D01*
X820064Y8267801D01*
X823417Y8265414D01*
X825550Y8261858D01*
X828040Y8254898D01*
X834085Y8243265D01*
X841603Y8232546D01*
X850544Y8222996D01*
X860704Y8214766D01*
X871880Y8207959D01*
X883869Y8202726D01*
X896467Y8199221D01*
X909472Y8197443D01*
X922528Y8197443D01*
X935482Y8199221D01*
X948131Y8202726D01*
X960119Y8207959D01*
X971296Y8214766D01*
X981456Y8222996D01*
X990396Y8232546D01*
X997915Y8243265D01*
X1003960Y8254898D01*
X1006398Y8261858D01*
X1008583Y8265414D01*
X1011936Y8267801D01*
X1016000Y8268614D01*
X1020064Y8267801D01*
X1023416Y8265414D01*
X1025550Y8261858D01*
X1028039Y8254898D01*
X1034084Y8243265D01*
X1041603Y8232546D01*
X1050544Y8222996D01*
X1060704Y8214766D01*
X1071880Y8207959D01*
X1083868Y8202726D01*
X1096467Y8199221D01*
X1109472Y8197443D01*
X1122527Y8197443D01*
X1135481Y8199221D01*
X1148130Y8202726D01*
X1160119Y8207959D01*
X1171295Y8214766D01*
X1181455Y8222996D01*
X1190396Y8232546D01*
X1195425Y8239709D01*
X1198524Y8242604D01*
X1202588Y8243976D01*
X1206804Y8243570D01*
X1210513Y8241436D01*
X1213002Y8238032D01*
X1213866Y8233867D01*
X1213866Y8223656D01*
X1214577Y8217306D01*
X1216507Y8211870D01*
X1219606Y8206994D01*
X1223670Y8202879D01*
X1228598Y8199780D01*
X1234033Y8197900D01*
X1240383Y8197189D01*
X1303274Y8197189D01*
X1303274Y8280400D01*
X1221892Y8280400D01*
X1217980Y8281162D01*
X1214729Y8283346D01*
X1212494Y8286648D01*
X1211732Y8290559D01*
X1211732Y8295640D01*
X1212494Y8299500D01*
X1214729Y8302802D01*
X1217980Y8304987D01*
X1221892Y8305800D01*
X1303274Y8305800D01*
X1303274Y8389010D01*
X1240383Y8389010D01*
X1234033Y8388299D01*
X1228598Y8386368D01*
X1223670Y8383270D01*
X1219606Y8379206D01*
X1216507Y8374278D01*
X1214577Y8368842D01*
X1213866Y8362492D01*
X1213866Y8352281D01*
X1213002Y8348116D01*
X1210513Y8344712D01*
X1206804Y8342630D01*
X1202588Y8342223D01*
X1198524Y8343544D01*
X1195425Y8346440D01*
X1190396Y8353602D01*
X1181455Y8363153D01*
X1171295Y8371433D01*
X1159560Y8378545D01*
X1156970Y8380831D01*
X1155293Y8383828D01*
X1154684Y8387232D01*
X1154684Y9907016D01*
X1153871Y9915042D01*
X1151686Y9922256D01*
X1148130Y9928961D01*
X1143000Y9935159D01*
X1107135Y9971024D01*
X1100937Y9976154D01*
X1094232Y9979710D01*
X1087018Y9981895D01*
X1078992Y9982708D01*
X849579Y9982708D01*
X845972Y9983368D01*
X842822Y9985298D01*
X840536Y9988194D01*
X839368Y9993071D01*
X837437Y9998506D01*
X834339Y10003434D01*
X830275Y10007498D01*
X825347Y10010597D01*
X819912Y10012476D01*
X813562Y10013188D01*
X734060Y10013188D01*
X727760Y10012476D01*
X722274Y10010597D01*
X717397Y10007498D01*
X713282Y10003434D01*
X710234Y9998506D01*
X708101Y9992461D01*
X705967Y9988905D01*
X702564Y9986467D01*
X698500Y9985654D01*
X694436Y9986467D01*
X691032Y9988905D01*
X688898Y9992461D01*
X686765Y9998506D01*
X683717Y10003434D01*
X679602Y10007498D01*
X674725Y10010597D01*
X669340Y10012476D01*
X661263Y10013238D01*
X657707Y10014305D01*
X654710Y10016540D01*
X652780Y10019690D01*
X652119Y10023348D01*
X652119Y10059720D01*
X652932Y10063784D01*
X655320Y10067188D01*
X658876Y10069322D01*
X664616Y10071303D01*
X669544Y10074402D01*
X673608Y10078466D01*
X676706Y10083393D01*
X678586Y10088829D01*
X679297Y10095179D01*
X679297Y10174020D01*
X678586Y10180370D01*
X676706Y10185806D01*
X673608Y10190734D01*
X669544Y10194798D01*
X664616Y10197896D01*
X659180Y10199776D01*
X652830Y10200487D01*
X573989Y10200487D01*
X567639Y10199776D01*
X562203Y10197896D01*
X557276Y10194798D01*
X553212Y10190734D01*
X550113Y10185806D01*
X548233Y10180370D01*
X547522Y10174020D01*
X547522Y10095179D01*
X548233Y10088829D01*
X550113Y10083393D01*
X553212Y10078466D01*
X557276Y10074402D01*
X562203Y10071303D01*
X568096Y10069271D01*
X571652Y10067137D01*
X574040Y10063734D01*
X574903Y10059670D01*
X574903Y10018217D01*
X574294Y10014864D01*
X572668Y10011918D01*
X570128Y10009632D01*
X566724Y10007498D01*
X562660Y10003434D01*
X559562Y9998506D01*
X557631Y9993071D01*
X556920Y9986721D01*
X556920Y9901478D01*
X557631Y9895128D01*
X559562Y9889693D01*
X562660Y9884765D01*
X566724Y9880701D01*
X571652Y9877602D01*
X577088Y9875723D01*
X583438Y9875012D01*
X662940Y9875012D01*
X669239Y9875723D01*
X674725Y9877602D01*
X679602Y9880701D01*
X683717Y9884765D01*
X686765Y9889693D01*
X688898Y9895738D01*
X691032Y9899294D01*
X694436Y9901732D01*
X698500Y9902545D01*
X702564Y9901732D01*
X705967Y9899294D01*
X708101Y9895738D01*
X710234Y9889693D01*
X713282Y9884765D01*
X717397Y9880701D01*
X722274Y9877602D01*
X727760Y9875723D01*
X734060Y9875012D01*
X813562Y9875012D01*
X819912Y9875723D01*
X825347Y9877602D01*
X830275Y9880701D01*
X834339Y9884765D01*
X837437Y9889693D01*
X839368Y9895128D01*
X840536Y9900005D01*
X842822Y9902901D01*
X845972Y9904831D01*
X849579Y9905492D01*
X1059281Y9905492D01*
X1063193Y9904730D01*
X1066495Y9902494D01*
X1074470Y9894519D01*
X1076706Y9891217D01*
X1077468Y9887305D01*
X1077468Y8387283D01*
X1076858Y8383879D01*
X1075182Y8380882D01*
X1072591Y8378596D01*
X1060704Y8371433D01*
X1050544Y8363153D01*
X1041603Y8353602D01*
X1034084Y8342884D01*
X1028039Y8331301D01*
X1025550Y8324291D01*
X1023416Y8320786D01*
X1020064Y8318398D01*
X1016000Y8317534D01*
X1011936Y8318398D01*
X1008583Y8320786D01*
X1006398Y8324291D01*
X1003960Y8331301D01*
X997915Y8342884D01*
X990396Y8353602D01*
X981456Y8363153D01*
X971296Y8371433D01*
X959408Y8378596D01*
X956818Y8380882D01*
X955141Y8383879D01*
X954532Y8387283D01*
X954532Y8418068D01*
X953719Y8426094D01*
X951534Y8433308D01*
X947978Y8440013D01*
X942848Y8446211D01*
X903935Y8485124D01*
X897737Y8490254D01*
X891032Y8493810D01*
X883818Y8495995D01*
X875792Y8496808D01*
X515518Y8496808D01*
X511606Y8497570D01*
X508304Y8499805D01*
X498805Y8509304D01*
X496570Y8512606D01*
X495808Y8516518D01*
X495808Y10419181D01*
X496570Y10423093D01*
X498805Y10426395D01*
X508304Y10435894D01*
X511606Y10438130D01*
X515518Y10438892D01*
X547420Y10438892D01*
X551027Y10438231D01*
X554177Y10436301D01*
X556463Y10433405D01*
X557631Y10428528D01*
X559562Y10423093D01*
X562660Y10418165D01*
X566724Y10414101D01*
X571652Y10411002D01*
X577088Y10409123D01*
X583438Y10408412D01*
X662940Y10408412D01*
X669239Y10409123D01*
X674725Y10411002D01*
X679602Y10414101D01*
X683717Y10418165D01*
X686765Y10423093D01*
X688898Y10429138D01*
X691032Y10432694D01*
X694436Y10435132D01*
X698500Y10435945D01*
X702564Y10435132D01*
X705967Y10432694D01*
X708101Y10429138D01*
X710234Y10423093D01*
X713282Y10418165D01*
X717397Y10414101D01*
X722274Y10411002D01*
X727760Y10409123D01*
X734060Y10408412D01*
X813562Y10408412D01*
X819912Y10409123D01*
X825347Y10411002D01*
X830275Y10414101D01*
X834339Y10418165D01*
X837437Y10423093D01*
X839368Y10428528D01*
X840079Y10434878D01*
X840079Y10520121D01*
X839368Y10526471D01*
X837437Y10531906D01*
X834339Y10536834D01*
X830275Y10540898D01*
X825347Y10543997D01*
X819251Y10546130D01*
X815695Y10548264D01*
X813308Y10551668D01*
X812444Y10555732D01*
X812444Y10591952D01*
X813104Y10595559D01*
X815086Y10598759D01*
X818032Y10600994D01*
X821588Y10602061D01*
X829411Y10602823D01*
X834796Y10604703D01*
X839724Y10607802D01*
X843787Y10611866D01*
X846886Y10616793D01*
X848766Y10622229D01*
X849477Y10628579D01*
X849477Y10707420D01*
X848766Y10713770D01*
X846886Y10719206D01*
X843787Y10724134D01*
X839724Y10728198D01*
X834796Y10731296D01*
X829360Y10733176D01*
X823010Y10733887D01*
X744169Y10733887D01*
X737819Y10733176D01*
X732383Y10731296D01*
X727456Y10728198D01*
X723392Y10724134D01*
X720293Y10719206D01*
X718413Y10713770D01*
X717702Y10707420D01*
X717702Y10628579D01*
X718413Y10622229D01*
X720293Y10616793D01*
X723392Y10611866D01*
X727456Y10607802D01*
X730453Y10605922D01*
X732993Y10603636D01*
X734669Y10600639D01*
X735228Y10597286D01*
X735228Y10555732D01*
X734364Y10551668D01*
X731977Y10548264D01*
X728421Y10546130D01*
X722274Y10543997D01*
X717397Y10540898D01*
X713282Y10536834D01*
X710234Y10531906D01*
X708101Y10525861D01*
X705967Y10522305D01*
X702564Y10519867D01*
X698500Y10519054D01*
X694436Y10519867D01*
X691032Y10522305D01*
X688898Y10525861D01*
X686765Y10531906D01*
X683717Y10536834D01*
X679602Y10540898D01*
X674725Y10543997D01*
X669239Y10545876D01*
X662940Y10546588D01*
X583438Y10546588D01*
X577088Y10545876D01*
X571652Y10543997D01*
X566724Y10540898D01*
X562660Y10536834D01*
X559562Y10531906D01*
X557631Y10526471D01*
X556463Y10521594D01*
X554177Y10518698D01*
X551027Y10516768D01*
X547420Y10516108D01*
X495808Y10516108D01*
X487781Y10515295D01*
X480568Y10513110D01*
X473862Y10509554D01*
X467664Y10504424D01*
X430276Y10467035D01*
X425145Y10460837D01*
X421589Y10454132D01*
X419404Y10446918D01*
X418592Y10438892D01*
X418592Y8496808D01*
X419404Y8488781D01*
X421589Y8481568D01*
X425145Y8474862D01*
X430276Y8468664D01*
X467664Y8431276D01*
X473862Y8426145D01*
X480568Y8422589D01*
X487781Y8420404D01*
X495808Y8419592D01*
X856081Y8419592D01*
X859993Y8418830D01*
X863295Y8416594D01*
X874318Y8405571D01*
X876553Y8402269D01*
X877316Y8398357D01*
X877316Y8387232D01*
X876706Y8383828D01*
X875030Y8380831D01*
X872439Y8378545D01*
X860704Y8371433D01*
X850544Y8363153D01*
X841603Y8353602D01*
X834085Y8342884D01*
X828040Y8331301D01*
X825550Y8324291D01*
X823417Y8320786D01*
X820064Y8318398D01*
X816000Y8317534D01*
X811936Y8318398D01*
X808583Y8320786D01*
X806450Y8324291D01*
X803960Y8331301D01*
X797915Y8342884D01*
X790397Y8353602D01*
X781456Y8363153D01*
X771296Y8371433D01*
X760120Y8378240D01*
X748131Y8383422D01*
X735482Y8386978D01*
X722528Y8388756D01*
X709472Y8388756D01*
X696468Y8386978D01*
X683869Y8383422D01*
X671880Y8378240D01*
X660704Y8371433D01*
X650544Y8363153D01*
X641604Y8353602D01*
X634085Y8342884D01*
X631139Y8337194D01*
X628853Y8334298D01*
X625703Y8332368D01*
X622096Y8331708D01*
X401218Y8331708D01*
X397306Y8332470D01*
X394004Y8334705D01*
X384505Y8344204D01*
X382270Y8347506D01*
X381508Y8351418D01*
X381508Y10965281D01*
X382270Y10969193D01*
X384505Y10972495D01*
X394004Y10981994D01*
X397306Y10984230D01*
X401218Y10984992D01*
X547420Y10984992D01*
X551027Y10984331D01*
X554177Y10982401D01*
X556463Y10979505D01*
X557631Y10974628D01*
X559562Y10969193D01*
X562660Y10964265D01*
X566724Y10960201D01*
X571652Y10957102D01*
X577088Y10955223D01*
X583438Y10954512D01*
X662940Y10954512D01*
X669239Y10955223D01*
X674725Y10957102D01*
X679602Y10960201D01*
X683717Y10964265D01*
X686765Y10969193D01*
X688898Y10975238D01*
X691032Y10978794D01*
X694436Y10981232D01*
X698500Y10982045D01*
X702564Y10981232D01*
X705967Y10978794D01*
X708101Y10975238D01*
X710234Y10969193D01*
X713282Y10964265D01*
X717397Y10960201D01*
X722274Y10957102D01*
X727760Y10955223D01*
X734060Y10954512D01*
X813562Y10954512D01*
X819912Y10955223D01*
X825347Y10957102D01*
X830275Y10960201D01*
X834339Y10964265D01*
X837437Y10969193D01*
X839368Y10974628D01*
X840079Y10980978D01*
X840079Y11066221D01*
X839368Y11072571D01*
X837437Y11078006D01*
X834339Y11082934D01*
X830275Y11086998D01*
X825347Y11090097D01*
X819251Y11092230D01*
X815695Y11094364D01*
X813308Y11097768D01*
X812444Y11101832D01*
X812444Y11138052D01*
X813104Y11141659D01*
X815086Y11144859D01*
X818032Y11147094D01*
X821588Y11148161D01*
X829411Y11148923D01*
X834796Y11150803D01*
X839724Y11153902D01*
X843787Y11157966D01*
X846886Y11162893D01*
X848766Y11168329D01*
X849477Y11174679D01*
X849477Y11253520D01*
X848766Y11259870D01*
X846886Y11265306D01*
X843787Y11270234D01*
X841552Y11272469D01*
X839368Y11275720D01*
X838606Y11279632D01*
X839368Y11283543D01*
X841552Y11286794D01*
X844854Y11289030D01*
X848766Y11289792D01*
X1741932Y11289792D01*
X1745843Y11289030D01*
X1749094Y11286794D01*
X1751330Y11283543D01*
X1752092Y11279632D01*
X1752092Y1852168D01*
X1751330Y1848256D01*
X1749094Y1845005D01*
X1745843Y1842770D01*
X1741932Y1842007D01*
X1421384Y1842007D01*
X1417167Y1842922D01*
X1413713Y1845462D01*
X1411630Y1849221D01*
X1411325Y1853539D01*
X1412798Y1857552D01*
X1415491Y1861870D01*
X1417370Y1867357D01*
X1418082Y1873656D01*
X1418082Y1930400D01*
X1328674Y1930400D01*
X1328674Y1852168D01*
X1327912Y1848256D01*
X1325727Y1845005D01*
X1322425Y1842770D01*
X1318514Y1842007D01*
X1313434Y1842007D01*
X1309573Y1842770D01*
X1306271Y1845005D01*
X1304086Y1848256D01*
X1303274Y1852168D01*
X1303274Y1930400D01*
X1221892Y1930400D01*
X1217980Y1931162D01*
X1214729Y1933346D01*
X1212494Y1936648D01*
X1211732Y1940560D01*
X1211732Y1945639D01*
X1212494Y1949500D01*
X1214729Y1952802D01*
X1217980Y1955038D01*
X1221892Y1955800D01*
X1303274Y1955800D01*
X1303274Y2034032D01*
X1304086Y2037943D01*
X1306271Y2041194D01*
X1309573Y2043430D01*
X1313434Y2044192D01*
X1318514Y2044192D01*
X1322425Y2043430D01*
X1325727Y2041194D01*
X1327912Y2037943D01*
X1328674Y2034032D01*
X1328674Y1955800D01*
X1418082Y1955800D01*
X1418082Y2012543D01*
X1417370Y2018842D01*
X1415491Y2024329D01*
X1412392Y2029206D01*
X1410157Y2031441D01*
X1408023Y2034590D01*
X1407210Y2038248D01*
X1407718Y2041956D01*
X1409598Y2045258D01*
X1412544Y2047595D01*
X1418437Y2050745D01*
X1424635Y2055875D01*
X1468424Y2099614D01*
X1471726Y2101799D01*
X1475587Y2102612D01*
X1486662Y2102612D01*
X1493012Y2103323D01*
X1498447Y2105202D01*
X1503375Y2108301D01*
X1507439Y2112365D01*
X1510538Y2117293D01*
X1512468Y2122728D01*
X1513179Y2129078D01*
X1513179Y2214321D01*
X1512468Y2220671D01*
X1510538Y2226106D01*
X1507439Y2231034D01*
X1503375Y2235098D01*
X1498447Y2238197D01*
X1493012Y2240076D01*
X1486662Y2240788D01*
X1407160Y2240788D01*
X1400860Y2240076D01*
X1395374Y2238197D01*
X1390497Y2235098D01*
X1386382Y2231034D01*
X1383334Y2226106D01*
X1381201Y2220061D01*
X1379067Y2216505D01*
X1375664Y2214067D01*
X1371600Y2213254D01*
X1367536Y2214067D01*
X1364132Y2216505D01*
X1361998Y2220061D01*
X1359865Y2226106D01*
X1356817Y2231034D01*
X1352702Y2235098D01*
X1347825Y2238197D01*
X1342339Y2240076D01*
X1336040Y2240788D01*
X1256538Y2240788D01*
X1250188Y2240076D01*
X1244752Y2238197D01*
X1239824Y2235098D01*
X1235760Y2231034D01*
X1232662Y2226106D01*
X1230731Y2220671D01*
X1229563Y2215794D01*
X1227277Y2212898D01*
X1224127Y2210968D01*
X1220520Y2210308D01*
X1175969Y2210308D01*
X1171905Y2211171D01*
X1168552Y2213559D01*
X1166418Y2217115D01*
X1164386Y2222906D01*
X1161288Y2227834D01*
X1157224Y2231898D01*
X1152296Y2234996D01*
X1146860Y2236876D01*
X1140510Y2237587D01*
X1061669Y2237587D01*
X1055319Y2236876D01*
X1049883Y2234996D01*
X1044956Y2231898D01*
X1040892Y2227834D01*
X1037793Y2222906D01*
X1035913Y2217470D01*
X1035202Y2211120D01*
X1035202Y2132279D01*
X1035913Y2125929D01*
X1037793Y2120493D01*
X1040892Y2115566D01*
X1044956Y2111502D01*
X1049883Y2108403D01*
X1055319Y2106523D01*
X1061669Y2105812D01*
X1140510Y2105812D01*
X1146860Y2106523D01*
X1152296Y2108403D01*
X1157224Y2111502D01*
X1161288Y2115566D01*
X1164386Y2120493D01*
X1166418Y2126284D01*
X1168552Y2129840D01*
X1171956Y2132228D01*
X1176020Y2133092D01*
X1220520Y2133092D01*
X1224127Y2132431D01*
X1227277Y2130501D01*
X1229563Y2127605D01*
X1231341Y2121103D01*
X1231900Y2116988D01*
X1230782Y2113076D01*
X1228039Y2109724D01*
X1155141Y2036825D01*
X1152245Y2034793D01*
X1148791Y2033930D01*
X1145235Y2034235D01*
X1135481Y2036978D01*
X1122527Y2038756D01*
X1109472Y2038756D01*
X1096467Y2036978D01*
X1083868Y2033422D01*
X1071880Y2028240D01*
X1060704Y2021433D01*
X1050544Y2013153D01*
X1041603Y2003602D01*
X1034084Y1992934D01*
X1028039Y1981301D01*
X1025550Y1974291D01*
X1023416Y1970786D01*
X1020064Y1968398D01*
X1016000Y1967534D01*
X1011936Y1968398D01*
X1008583Y1970786D01*
X1006398Y1974291D01*
X1003960Y1981301D01*
X997915Y1992934D01*
X990396Y2003602D01*
X981456Y2013153D01*
X971296Y2021433D01*
X960119Y2028240D01*
X948131Y2033422D01*
X935482Y2036978D01*
X928674Y2037892D01*
X928674Y1955800D01*
X1010107Y1955800D01*
X1013968Y1955038D01*
X1017269Y1952802D01*
X1019505Y1949500D01*
X1020267Y1945639D01*
X1020267Y1940560D01*
X1019505Y1936648D01*
X1017269Y1933346D01*
X1013968Y1931162D01*
X1010107Y1930400D01*
X928674Y1930400D01*
X928674Y1852168D01*
X927912Y1848256D01*
X925728Y1845005D01*
X922426Y1842770D01*
X918514Y1842007D01*
X913434Y1842007D01*
X909574Y1842770D01*
X906271Y1845005D01*
X904087Y1848256D01*
X903274Y1852168D01*
X903274Y1930400D01*
X728675Y1930400D01*
X728675Y1852168D01*
X727913Y1848256D01*
X725728Y1845005D01*
X722426Y1842770D01*
X718515Y1842007D01*
X713435Y1842007D01*
X709574Y1842770D01*
X706272Y1845005D01*
X704088Y1848256D01*
X703275Y1852168D01*
X703275Y1930400D01*
X620979Y1930400D01*
X623671Y1917242D01*
X628040Y1904898D01*
X634085Y1893265D01*
X641604Y1882597D01*
X650544Y1872996D01*
X660704Y1864766D01*
X667156Y1860854D01*
X670306Y1857857D01*
X671880Y1853793D01*
X671626Y1849424D01*
X669594Y1845564D01*
X666140Y1842922D01*
X661873Y1842007D01*
G37*

%LPC*%
G36*
X626110Y11148212D02*
G01*
X652830Y11148212D01*
X659180Y11148923D01*
X664616Y11150803D01*
X669544Y11153902D01*
X673608Y11157966D01*
X676706Y11162893D01*
X678586Y11168329D01*
X679297Y11174679D01*
X679297Y11201400D01*
X626110Y11201400D01*
G37*
G36*
X728675Y1955800D02*
G01*
X903274Y1955800D01*
X903274Y2037892D01*
X896467Y2036978D01*
X883869Y2033422D01*
X871880Y2028240D01*
X860704Y2021433D01*
X850544Y2013153D01*
X841603Y2003602D01*
X834085Y1992934D01*
X828040Y1981301D01*
X825550Y1974291D01*
X823417Y1970786D01*
X820064Y1968398D01*
X816000Y1967534D01*
X811936Y1968398D01*
X808583Y1970786D01*
X806450Y1974291D01*
X803960Y1981301D01*
X797915Y1992934D01*
X790397Y2003602D01*
X781456Y2013153D01*
X771296Y2021433D01*
X760120Y2028240D01*
X748131Y2033422D01*
X735482Y2036978D01*
X728675Y2037892D01*
G37*
G36*
X891489Y2105812D02*
G01*
X918210Y2105812D01*
X918210Y2159000D01*
X865022Y2159000D01*
X865022Y2132279D01*
X865733Y2125929D01*
X867613Y2120493D01*
X870712Y2115566D01*
X874776Y2111502D01*
X879703Y2108403D01*
X885139Y2106523D01*
G37*
G36*
X943610Y2105812D02*
G01*
X970330Y2105812D01*
X976680Y2106523D01*
X982116Y2108403D01*
X987044Y2111502D01*
X991108Y2115566D01*
X994206Y2120493D01*
X996086Y2125929D01*
X996797Y2132279D01*
X996797Y2159000D01*
X943610Y2159000D01*
G37*
G36*
X865022Y2184400D02*
G01*
X918210Y2184400D01*
X918210Y2237587D01*
X891489Y2237587D01*
X885139Y2236876D01*
X879703Y2234996D01*
X874776Y2231898D01*
X870712Y2227834D01*
X867613Y2222906D01*
X865733Y2217470D01*
X865022Y2211120D01*
G37*
G36*
X943610Y2184400D02*
G01*
X996797Y2184400D01*
X996797Y2211120D01*
X996086Y2217470D01*
X994206Y2222906D01*
X991108Y2227834D01*
X987044Y2231898D01*
X982116Y2234996D01*
X976680Y2236876D01*
X970330Y2237587D01*
X943610Y2237587D01*
G37*
G36*
X993038Y2425446D02*
G01*
X1013561Y2425446D01*
X1034034Y2427274D01*
X1054303Y2430932D01*
X1074115Y2436418D01*
X1093317Y2443632D01*
X1111859Y2452573D01*
X1129487Y2463088D01*
X1146149Y2475179D01*
X1161643Y2488692D01*
X1175816Y2503576D01*
X1188669Y2519629D01*
X1199946Y2536799D01*
X1209700Y2554884D01*
X1217777Y2573782D01*
X1224127Y2593340D01*
X1228699Y2613406D01*
X1231493Y2633776D01*
X1232408Y2654503D01*
X1232408Y3162096D01*
X1231493Y3182823D01*
X1228699Y3203194D01*
X1224127Y3223260D01*
X1217777Y3242818D01*
X1209700Y3261715D01*
X1199946Y3279800D01*
X1188669Y3296970D01*
X1175816Y3313023D01*
X1161643Y3327908D01*
X1146149Y3341420D01*
X1129487Y3353511D01*
X1111859Y3364026D01*
X1093317Y3372967D01*
X1074115Y3380181D01*
X1054303Y3385667D01*
X1034034Y3389325D01*
X1013561Y3391154D01*
X993038Y3391154D01*
X972566Y3389325D01*
X952296Y3385667D01*
X932484Y3380181D01*
X913282Y3372967D01*
X894740Y3364026D01*
X877112Y3353511D01*
X860450Y3341420D01*
X844956Y3327908D01*
X830783Y3313023D01*
X817930Y3296970D01*
X806653Y3279800D01*
X796899Y3261715D01*
X788822Y3242818D01*
X782472Y3223260D01*
X777900Y3203194D01*
X775106Y3182823D01*
X774192Y3162096D01*
X774192Y2654503D01*
X775106Y2633776D01*
X777900Y2613406D01*
X782472Y2593340D01*
X788822Y2573782D01*
X796899Y2554884D01*
X806653Y2536799D01*
X817930Y2519629D01*
X830783Y2503576D01*
X844956Y2488692D01*
X860450Y2475179D01*
X877112Y2463088D01*
X894740Y2452573D01*
X913282Y2443632D01*
X932484Y2436418D01*
X952296Y2430932D01*
X972566Y2427274D01*
G37*
G36*
X1328674Y8197189D02*
G01*
X1391615Y8197189D01*
X1397965Y8197900D01*
X1403400Y8199780D01*
X1408328Y8202879D01*
X1412392Y8206994D01*
X1415491Y8211870D01*
X1417370Y8217306D01*
X1418082Y8223656D01*
X1418082Y8280400D01*
X1328674Y8280400D01*
G37*
G36*
X1328674Y8305800D02*
G01*
X1418082Y8305800D01*
X1418082Y8362492D01*
X1417370Y8368842D01*
X1415491Y8374278D01*
X1412392Y8379206D01*
X1408328Y8383270D01*
X1403400Y8386368D01*
X1397965Y8388299D01*
X1391615Y8389010D01*
X1328674Y8389010D01*
G37*
G36*
X620979Y1955800D02*
G01*
X703275Y1955800D01*
X703275Y2037892D01*
X696468Y2036978D01*
X683869Y2033422D01*
X671880Y2028240D01*
X660704Y2021433D01*
X650544Y2013153D01*
X641604Y2003602D01*
X634085Y1992934D01*
X628040Y1981301D01*
X623671Y1968957D01*
G37*
G36*
X796290Y10068712D02*
G01*
X823010Y10068712D01*
X829360Y10069423D01*
X834796Y10071303D01*
X839724Y10074402D01*
X843787Y10078466D01*
X846886Y10083393D01*
X848766Y10088829D01*
X849477Y10095179D01*
X849477Y10121900D01*
X796290Y10121900D01*
G37*
G36*
X796290Y10147300D02*
G01*
X849477Y10147300D01*
X849477Y10174020D01*
X848766Y10180370D01*
X846886Y10185806D01*
X843787Y10190734D01*
X839724Y10194798D01*
X834796Y10197896D01*
X829360Y10199776D01*
X823010Y10200487D01*
X796290Y10200487D01*
G37*
G36*
X717702Y10147300D02*
G01*
X770890Y10147300D01*
X770890Y10200487D01*
X744169Y10200487D01*
X737819Y10199776D01*
X732383Y10197896D01*
X727456Y10194798D01*
X723392Y10190734D01*
X720293Y10185806D01*
X718413Y10180370D01*
X717702Y10174020D01*
G37*
G36*
X573989Y10602112D02*
G01*
X600710Y10602112D01*
X600710Y10655300D01*
X547522Y10655300D01*
X547522Y10628579D01*
X548233Y10622229D01*
X550113Y10616793D01*
X553212Y10611866D01*
X557276Y10607802D01*
X562203Y10604703D01*
X567639Y10602823D01*
G37*
G36*
X626110Y10602112D02*
G01*
X652830Y10602112D01*
X659180Y10602823D01*
X664616Y10604703D01*
X669544Y10607802D01*
X673608Y10611866D01*
X676706Y10616793D01*
X678586Y10622229D01*
X679297Y10628579D01*
X679297Y10655300D01*
X626110Y10655300D01*
G37*
G36*
X547522Y10680700D02*
G01*
X600710Y10680700D01*
X600710Y10733887D01*
X573989Y10733887D01*
X567639Y10733176D01*
X562203Y10731296D01*
X557276Y10728198D01*
X553212Y10724134D01*
X550113Y10719206D01*
X548233Y10713770D01*
X547522Y10707420D01*
G37*
G36*
X626110Y10680700D02*
G01*
X679297Y10680700D01*
X679297Y10707420D01*
X678586Y10713770D01*
X676706Y10719206D01*
X673608Y10724134D01*
X669544Y10728198D01*
X664616Y10731296D01*
X659180Y10733176D01*
X652830Y10733887D01*
X626110Y10733887D01*
G37*
G36*
X573989Y11148212D02*
G01*
X600710Y11148212D01*
X600710Y11201400D01*
X547522Y11201400D01*
X547522Y11174679D01*
X548233Y11168329D01*
X550113Y11162893D01*
X553212Y11157966D01*
X557276Y11153902D01*
X562203Y11150803D01*
X567639Y11148923D01*
G37*
G36*
X744169Y10068712D02*
G01*
X770890Y10068712D01*
X770890Y10121900D01*
X717702Y10121900D01*
X717702Y10095179D01*
X718413Y10088829D01*
X720293Y10083393D01*
X723392Y10078466D01*
X727456Y10074402D01*
X732383Y10071303D01*
X737819Y10069423D01*
G37*

%LPD*%
D10*
X915924Y8293100D02*
G01*
X915924Y8418576D01*
X876300Y8458200D01*
X495300Y8458200D01*
X457200Y8496300D01*
X457200Y10439400D01*
X495300Y10477500D01*
X623062Y10477500D01*
X1116075Y8293100D02*
G01*
X1116075Y9907524D01*
X1079500Y9944100D01*
X773938Y9944100D01*
X623062Y11023600D02*
G01*
X381000Y11023600D01*
X342900Y10985500D01*
X342900Y8331200D01*
X381000Y8293100D01*
X716025Y8293100D01*
X1446936Y2171702D02*
G01*
X1446936Y2132736D01*
X1397000Y2082800D01*
X1255699Y2082800D01*
X1115999Y1943100D01*
X783493Y11214100D02*
G01*
X773836Y11204442D01*
X773836Y11023600D01*
X783493Y10668000D02*
G01*
X773836Y10658342D01*
X773836Y10477500D01*
X623163Y9944100D02*
G01*
X613486Y9953777D01*
X613486Y10134600D01*
X1100988Y2171702D02*
G01*
X1296263Y2171702D01*
D11*
G01*
X783590Y11214094D03*
G01*
X613410Y11214094D03*
D12*
G01*
X773824Y11023600D03*
G01*
X623175Y11023600D03*
D11*
G01*
X783590Y10667994D03*
G01*
X613410Y10667994D03*
D12*
G01*
X773824Y10477500D03*
G01*
X623175Y10477500D03*
D11*
G01*
X783590Y10134594D03*
G01*
X613410Y10134594D03*
D12*
G01*
X773824Y9944100D03*
G01*
X623175Y9944100D03*
D11*
G01*
X1101090Y2171694D03*
G01*
X930909Y2171694D03*
D12*
G01*
X1446924Y2171700D03*
G01*
X1296275Y2171700D03*
D13*
G01*
X1253998Y12115698D03*
G01*
X19893991Y12115698D03*
G01*
X1753997Y1016101D03*
G01*
X19393992Y1016101D03*
D14*
G01*
X715998Y8293082D03*
G01*
X915997Y8293082D03*
G01*
X1115997Y8293082D03*
D15*
G01*
X1315996Y8293082D03*
D14*
G01*
X715998Y1943094D03*
G01*
X915997Y1943094D03*
G01*
X1115997Y1943094D03*
D15*
G01*
X1315996Y1943094D03*
M02*
