G04 Layer: BottomLayer*
G04 Panelize: Stamp Hole, Column: 10, Row: 1, Board Size: 15.24mm x 95mm, Panelized Board Size: 206.4mm x 95mm*
G04 EasyEDA v6.5.34, 2023-08-21 18:11:39*
G04 37ba9180ffe74b91916b72eff976b916,5a6b42c53f6a479593ecc07194224c93,10*
G04 Gerber Generator version 0.2*
G04 Scale: 100 percent, Rotated: No, Reflected: No *
G04 Dimensions in millimeters *
G04 leading zeros omitted , absolute positions ,4 integer and 5 decimal *
%FSLAX45Y45*%
%MOMM*%

%AMMACRO1*21,1,$1,$2,0,0,$3*%
%ADD10C,1.0000*%
%ADD11C,1.4000*%
%ADD12MACRO1,1.524X1.4X0.0000*%

%LPD*%
G36*
X290068Y1842007D02*
G01*
X286156Y1842770D01*
X282905Y1845005D01*
X280670Y1848256D01*
X279908Y1852168D01*
X279908Y11279632D01*
X280670Y11283543D01*
X282905Y11286794D01*
X286156Y11289030D01*
X290068Y11289792D01*
X1741932Y11289792D01*
X1745843Y11289030D01*
X1749094Y11286794D01*
X1751330Y11283543D01*
X1752092Y11279632D01*
X1752092Y1852168D01*
X1751330Y1848256D01*
X1749094Y1845005D01*
X1745843Y1842770D01*
X1741932Y1842007D01*
X1421384Y1842007D01*
X1417167Y1842922D01*
X1413713Y1845462D01*
X1411630Y1849221D01*
X1411325Y1853539D01*
X1412798Y1857552D01*
X1415491Y1861870D01*
X1417370Y1867357D01*
X1418082Y1873656D01*
X1418082Y1930400D01*
X1328674Y1930400D01*
X1328674Y1852168D01*
X1327912Y1848256D01*
X1325727Y1845005D01*
X1322425Y1842770D01*
X1318514Y1842007D01*
X1313434Y1842007D01*
X1309573Y1842770D01*
X1306271Y1845005D01*
X1304086Y1848256D01*
X1303274Y1852168D01*
X1303274Y1930400D01*
X1221892Y1930400D01*
X1217980Y1931162D01*
X1214729Y1933346D01*
X1212494Y1936648D01*
X1211732Y1940560D01*
X1211732Y1945639D01*
X1212494Y1949500D01*
X1214729Y1952802D01*
X1217980Y1955038D01*
X1221892Y1955800D01*
X1303274Y1955800D01*
X1303274Y2039010D01*
X1240383Y2039010D01*
X1234033Y2038299D01*
X1228598Y2036368D01*
X1223670Y2033320D01*
X1219606Y2029206D01*
X1216507Y2024329D01*
X1214577Y2018842D01*
X1213866Y2012543D01*
X1213866Y2002282D01*
X1213002Y1998167D01*
X1210513Y1994712D01*
X1206804Y1992630D01*
X1202588Y1992223D01*
X1198524Y1993544D01*
X1195425Y1996439D01*
X1190396Y2003602D01*
X1181455Y2013153D01*
X1171295Y2021433D01*
X1160119Y2028240D01*
X1148130Y2033422D01*
X1135481Y2036978D01*
X1122527Y2038756D01*
X1109472Y2038756D01*
X1096467Y2036978D01*
X1083868Y2033422D01*
X1071880Y2028240D01*
X1060704Y2021433D01*
X1050544Y2013153D01*
X1041603Y2003602D01*
X1034084Y1992934D01*
X1028039Y1981301D01*
X1025550Y1974291D01*
X1023416Y1970786D01*
X1020064Y1968398D01*
X1016000Y1967534D01*
X1011936Y1968398D01*
X1008583Y1970786D01*
X1006398Y1974291D01*
X1003960Y1981301D01*
X997915Y1992934D01*
X990396Y2003602D01*
X981456Y2013153D01*
X971296Y2021433D01*
X960119Y2028240D01*
X948131Y2033422D01*
X935482Y2036978D01*
X928674Y2037892D01*
X928674Y1955800D01*
X1010107Y1955800D01*
X1013968Y1955038D01*
X1017269Y1952802D01*
X1019505Y1949500D01*
X1020267Y1945639D01*
X1020267Y1940560D01*
X1019505Y1936648D01*
X1017269Y1933346D01*
X1013968Y1931162D01*
X1010107Y1930400D01*
X928674Y1930400D01*
X928674Y1852168D01*
X927912Y1848256D01*
X925728Y1845005D01*
X922426Y1842770D01*
X918514Y1842007D01*
X913434Y1842007D01*
X909574Y1842770D01*
X906271Y1845005D01*
X904087Y1848256D01*
X903274Y1852168D01*
X903274Y1930400D01*
X728675Y1930400D01*
X728675Y1852168D01*
X727913Y1848256D01*
X725728Y1845005D01*
X722426Y1842770D01*
X718515Y1842007D01*
X713435Y1842007D01*
X709574Y1842770D01*
X706272Y1845005D01*
X704088Y1848256D01*
X703275Y1852168D01*
X703275Y1930400D01*
X620979Y1930400D01*
X623671Y1917242D01*
X628040Y1904898D01*
X634085Y1893265D01*
X641604Y1882597D01*
X650544Y1872996D01*
X660704Y1864766D01*
X667156Y1860854D01*
X670306Y1857857D01*
X671880Y1853793D01*
X671626Y1849424D01*
X669594Y1845564D01*
X666140Y1842922D01*
X661873Y1842007D01*
G37*

%LPC*%
G36*
X620979Y1955800D02*
G01*
X703275Y1955800D01*
X703275Y2037892D01*
X696468Y2036978D01*
X683869Y2033422D01*
X671880Y2028240D01*
X660704Y2021433D01*
X650544Y2013153D01*
X641604Y2003602D01*
X634085Y1992934D01*
X628040Y1981301D01*
X623671Y1968957D01*
G37*
G36*
X1328674Y1955800D02*
G01*
X1418082Y1955800D01*
X1418082Y2012543D01*
X1417370Y2018842D01*
X1415491Y2024329D01*
X1412392Y2029206D01*
X1408328Y2033320D01*
X1403400Y2036368D01*
X1397965Y2038299D01*
X1391615Y2039010D01*
X1328674Y2039010D01*
G37*
G36*
X728675Y1955800D02*
G01*
X903274Y1955800D01*
X903274Y2037892D01*
X896467Y2036978D01*
X883869Y2033422D01*
X871880Y2028240D01*
X860704Y2021433D01*
X850544Y2013153D01*
X841603Y2003602D01*
X834085Y1992934D01*
X828040Y1981301D01*
X825550Y1974291D01*
X823417Y1970786D01*
X820064Y1968398D01*
X816000Y1967534D01*
X811936Y1968398D01*
X808583Y1970786D01*
X806450Y1974291D01*
X803960Y1981301D01*
X797915Y1992934D01*
X790397Y2003602D01*
X781456Y2013153D01*
X771296Y2021433D01*
X760120Y2028240D01*
X748131Y2033422D01*
X735482Y2036978D01*
X728675Y2037892D01*
G37*
G36*
X993038Y2425446D02*
G01*
X1013561Y2425446D01*
X1034034Y2427274D01*
X1054303Y2430932D01*
X1074115Y2436418D01*
X1093317Y2443632D01*
X1111859Y2452573D01*
X1129487Y2463088D01*
X1146149Y2475179D01*
X1161643Y2488692D01*
X1175816Y2503576D01*
X1188669Y2519629D01*
X1199946Y2536799D01*
X1209700Y2554884D01*
X1217777Y2573782D01*
X1224127Y2593340D01*
X1228699Y2613406D01*
X1231493Y2633776D01*
X1232408Y2654503D01*
X1232408Y3162096D01*
X1231493Y3182823D01*
X1228699Y3203194D01*
X1224127Y3223260D01*
X1217777Y3242818D01*
X1209700Y3261715D01*
X1199946Y3279800D01*
X1188669Y3296970D01*
X1175816Y3313023D01*
X1161643Y3327908D01*
X1146149Y3341420D01*
X1129487Y3353511D01*
X1111859Y3364026D01*
X1093317Y3372967D01*
X1074115Y3380181D01*
X1054303Y3385667D01*
X1034034Y3389325D01*
X1013561Y3391154D01*
X993038Y3391154D01*
X972566Y3389325D01*
X952296Y3385667D01*
X932484Y3380181D01*
X913282Y3372967D01*
X894740Y3364026D01*
X877112Y3353511D01*
X860450Y3341420D01*
X844956Y3327908D01*
X830783Y3313023D01*
X817930Y3296970D01*
X806653Y3279800D01*
X796899Y3261715D01*
X788822Y3242818D01*
X782472Y3223260D01*
X777900Y3203194D01*
X775106Y3182823D01*
X774192Y3162096D01*
X774192Y2654503D01*
X775106Y2633776D01*
X777900Y2613406D01*
X782472Y2593340D01*
X788822Y2573782D01*
X796899Y2554884D01*
X806653Y2536799D01*
X817930Y2519629D01*
X830783Y2503576D01*
X844956Y2488692D01*
X860450Y2475179D01*
X877112Y2463088D01*
X894740Y2452573D01*
X913282Y2443632D01*
X932484Y2436418D01*
X952296Y2430932D01*
X972566Y2427274D01*
G37*
G36*
X1328674Y8197189D02*
G01*
X1391615Y8197189D01*
X1397965Y8197900D01*
X1403400Y8199780D01*
X1408328Y8202879D01*
X1412392Y8206994D01*
X1415491Y8211870D01*
X1417370Y8217306D01*
X1418082Y8223656D01*
X1418082Y8280400D01*
X1328674Y8280400D01*
G37*
G36*
X1240383Y8197189D02*
G01*
X1303274Y8197189D01*
X1303274Y8280400D01*
X1221892Y8280400D01*
X1217980Y8281162D01*
X1214729Y8283346D01*
X1212494Y8286648D01*
X1211732Y8290559D01*
X1211732Y8295640D01*
X1212494Y8299500D01*
X1214729Y8302802D01*
X1217980Y8304987D01*
X1221892Y8305800D01*
X1303274Y8305800D01*
X1303274Y8389010D01*
X1240383Y8389010D01*
X1234033Y8388299D01*
X1228598Y8386368D01*
X1223670Y8383270D01*
X1219606Y8379206D01*
X1216507Y8374278D01*
X1214577Y8368842D01*
X1213866Y8362492D01*
X1213866Y8352281D01*
X1213002Y8348116D01*
X1210513Y8344712D01*
X1206804Y8342630D01*
X1202588Y8342223D01*
X1198524Y8343544D01*
X1195425Y8346440D01*
X1190396Y8353602D01*
X1181455Y8363153D01*
X1171295Y8371433D01*
X1160119Y8378240D01*
X1148130Y8383422D01*
X1135481Y8386978D01*
X1122527Y8388756D01*
X1109472Y8388756D01*
X1096467Y8386978D01*
X1083868Y8383422D01*
X1071880Y8378240D01*
X1060704Y8371433D01*
X1050544Y8363153D01*
X1041603Y8353602D01*
X1034084Y8342884D01*
X1028039Y8331301D01*
X1025550Y8324291D01*
X1023416Y8320786D01*
X1020064Y8318398D01*
X1016000Y8317534D01*
X1011936Y8318398D01*
X1008583Y8320786D01*
X1006398Y8324291D01*
X1003960Y8331301D01*
X997915Y8342884D01*
X990396Y8353602D01*
X981456Y8363153D01*
X971296Y8371433D01*
X960119Y8378240D01*
X948131Y8383422D01*
X935482Y8386978D01*
X922528Y8388756D01*
X909472Y8388756D01*
X896467Y8386978D01*
X883869Y8383422D01*
X871880Y8378240D01*
X860704Y8371433D01*
X850544Y8363153D01*
X841603Y8353602D01*
X834085Y8342884D01*
X828040Y8331301D01*
X825550Y8324291D01*
X823417Y8320786D01*
X820064Y8318398D01*
X816000Y8317534D01*
X811936Y8318398D01*
X808583Y8320786D01*
X806450Y8324291D01*
X803960Y8331301D01*
X797915Y8342884D01*
X790397Y8353602D01*
X781456Y8363153D01*
X771296Y8371433D01*
X760120Y8378240D01*
X748131Y8383422D01*
X735482Y8386978D01*
X722528Y8388756D01*
X709472Y8388756D01*
X696468Y8386978D01*
X683869Y8383422D01*
X671880Y8378240D01*
X660704Y8371433D01*
X650544Y8363153D01*
X641604Y8353602D01*
X634085Y8342884D01*
X628040Y8331301D01*
X623671Y8318957D01*
X621030Y8306155D01*
X620115Y8293100D01*
X621030Y8280044D01*
X623671Y8267192D01*
X628040Y8254898D01*
X634085Y8243265D01*
X641604Y8232546D01*
X650544Y8222996D01*
X660704Y8214766D01*
X671880Y8207959D01*
X683869Y8202726D01*
X696468Y8199221D01*
X709472Y8197443D01*
X722528Y8197443D01*
X735482Y8199221D01*
X748131Y8202726D01*
X760120Y8207959D01*
X771296Y8214766D01*
X781456Y8222996D01*
X790397Y8232546D01*
X797915Y8243265D01*
X803960Y8254898D01*
X806450Y8261858D01*
X808583Y8265414D01*
X811936Y8267801D01*
X816000Y8268614D01*
X820064Y8267801D01*
X823417Y8265414D01*
X825550Y8261858D01*
X828040Y8254898D01*
X834085Y8243265D01*
X841603Y8232546D01*
X850544Y8222996D01*
X860704Y8214766D01*
X871880Y8207959D01*
X883869Y8202726D01*
X896467Y8199221D01*
X909472Y8197443D01*
X922528Y8197443D01*
X935482Y8199221D01*
X948131Y8202726D01*
X960119Y8207959D01*
X971296Y8214766D01*
X981456Y8222996D01*
X990396Y8232546D01*
X997915Y8243265D01*
X1003960Y8254898D01*
X1006398Y8261858D01*
X1008583Y8265414D01*
X1011936Y8267801D01*
X1016000Y8268614D01*
X1020064Y8267801D01*
X1023416Y8265414D01*
X1025550Y8261858D01*
X1028039Y8254898D01*
X1034084Y8243265D01*
X1041603Y8232546D01*
X1050544Y8222996D01*
X1060704Y8214766D01*
X1071880Y8207959D01*
X1083868Y8202726D01*
X1096467Y8199221D01*
X1109472Y8197443D01*
X1122527Y8197443D01*
X1135481Y8199221D01*
X1148130Y8202726D01*
X1160119Y8207959D01*
X1171295Y8214766D01*
X1181455Y8222996D01*
X1190396Y8232546D01*
X1195425Y8239709D01*
X1198524Y8242604D01*
X1202588Y8243976D01*
X1206804Y8243570D01*
X1210513Y8241436D01*
X1213002Y8238032D01*
X1213866Y8233867D01*
X1213866Y8223656D01*
X1214577Y8217306D01*
X1216507Y8211870D01*
X1219606Y8206994D01*
X1223670Y8202879D01*
X1228598Y8199780D01*
X1234033Y8197900D01*
G37*
G36*
X1328674Y8305800D02*
G01*
X1418082Y8305800D01*
X1418082Y8362492D01*
X1417370Y8368842D01*
X1415491Y8374278D01*
X1412392Y8379206D01*
X1408328Y8383270D01*
X1403400Y8386368D01*
X1397965Y8388299D01*
X1391615Y8389010D01*
X1328674Y8389010D01*
G37*

%LPD*%
D10*
G01*
X1253998Y12115698D03*
G01*
X19893991Y12115698D03*
G01*
X1753997Y1016101D03*
G01*
X19393992Y1016101D03*
D11*
G01*
X715998Y8293082D03*
G01*
X915997Y8293082D03*
G01*
X1115997Y8293082D03*
D12*
G01*
X1315996Y8293082D03*
D11*
G01*
X715998Y1943094D03*
G01*
X915997Y1943094D03*
G01*
X1115997Y1943094D03*
D12*
G01*
X1315996Y1943094D03*
M02*
