G04 Layer: BottomLayer*
G04 EasyEDA v6.5.34, 2023-08-21 18:11:39*
G04 55fea8646dbd4ef485edb4a4bd6a11f4,5a6b42c53f6a479593ecc07194224c93,10*
G04 Gerber Generator version 0.2*
G04 Scale: 100 percent, Rotated: No, Reflected: No *
G04 Dimensions in millimeters *
G04 leading zeros omitted , absolute positions ,4 integer and 5 decimal *
%FSLAX45Y45*%
%MOMM*%

%ADD10C,0.2540*%
%ADD11O,6.4000126X3.1999936*%

%LPD*%
G36*
X36068Y698500D02*
G01*
X32156Y699262D01*
X28905Y701497D01*
X26670Y704748D01*
X25908Y708660D01*
X25908Y5006340D01*
X26670Y5010251D01*
X28905Y5013502D01*
X32156Y5015738D01*
X36068Y5016500D01*
X32156Y5017262D01*
X28905Y5019497D01*
X26670Y5022748D01*
X25908Y5026660D01*
X25908Y7635240D01*
X26670Y7639151D01*
X28905Y7642402D01*
X32156Y7644638D01*
X36068Y7645400D01*
X32156Y7646162D01*
X28905Y7648397D01*
X26670Y7651648D01*
X25908Y7655559D01*
X25908Y12150090D01*
X26670Y12154001D01*
X28905Y12157303D01*
X32156Y12159488D01*
X36068Y12160250D01*
X9095232Y12166600D01*
X9099092Y12165787D01*
X9102394Y12163602D01*
X9104630Y12160300D01*
X9105392Y12156440D01*
X9105392Y11313160D01*
X9104630Y11309248D01*
X9102394Y11305997D01*
X9099143Y11303762D01*
X9095232Y11303000D01*
X9099143Y11302238D01*
X9102394Y11300002D01*
X9104630Y11296751D01*
X9105392Y11292840D01*
X9105392Y10767060D01*
X9104630Y10763148D01*
X9102394Y10759897D01*
X9099143Y10757662D01*
X9095232Y10756900D01*
X9099143Y10756138D01*
X9102394Y10753902D01*
X9104630Y10750651D01*
X9105392Y10746740D01*
X9105392Y10233660D01*
X9104630Y10229748D01*
X9102394Y10226497D01*
X9099143Y10224262D01*
X9095232Y10223500D01*
X9099143Y10222738D01*
X9102394Y10220502D01*
X9104630Y10217251D01*
X9105392Y10213340D01*
X9105392Y7465059D01*
X9104630Y7461148D01*
X9102394Y7457897D01*
X9099143Y7455662D01*
X9095232Y7454900D01*
X9099143Y7454138D01*
X9102394Y7451902D01*
X9104630Y7448651D01*
X9105392Y7444740D01*
X9105392Y5217160D01*
X9104630Y5213248D01*
X9102394Y5209997D01*
X9099143Y5207762D01*
X9095232Y5207000D01*
X9099143Y5206238D01*
X9102394Y5204002D01*
X9104630Y5200751D01*
X9105392Y5196840D01*
X9105392Y708660D01*
X9104630Y704748D01*
X9102394Y701497D01*
X9099143Y699262D01*
X9095232Y698500D01*
G37*

%LPC*%
G36*
X7824216Y11125200D02*
G01*
X8012684Y11125200D01*
X8013700Y11126216D01*
X8013700Y11292840D01*
X8014462Y11296751D01*
X8016697Y11300002D01*
X8019948Y11302238D01*
X8023859Y11303000D01*
X7824216Y11303000D01*
X7823200Y11301984D01*
X7823200Y11126216D01*
X7823352Y11125352D01*
G37*
G36*
X7772958Y1042466D02*
G01*
X8698941Y1042466D01*
X8705240Y1043228D01*
X8710726Y1045108D01*
X8715603Y1048207D01*
X8719718Y1052271D01*
X8722766Y1057198D01*
X8724696Y1062634D01*
X8725408Y1068984D01*
X8725408Y2947416D01*
X8724696Y2953766D01*
X8722766Y2959201D01*
X8719718Y2964129D01*
X8715603Y2968193D01*
X8710726Y2971292D01*
X8705240Y2973171D01*
X8698941Y2973882D01*
X7772958Y2973882D01*
X7766659Y2973171D01*
X7761173Y2971292D01*
X7756296Y2968193D01*
X7752181Y2964129D01*
X7749133Y2959201D01*
X7747203Y2953766D01*
X7746492Y2947416D01*
X7746492Y1068984D01*
X7747203Y1062634D01*
X7749133Y1057198D01*
X7752181Y1052271D01*
X7756296Y1048207D01*
X7761173Y1045108D01*
X7766659Y1043228D01*
G37*
G36*
X1829358Y1045413D02*
G01*
X7328204Y1045413D01*
X7334554Y1046124D01*
X7339990Y1048054D01*
X7344918Y1051102D01*
X7348981Y1055217D01*
X7352080Y1060094D01*
X7353960Y1065580D01*
X7354722Y1071880D01*
X7354722Y11570716D01*
X7353960Y11577066D01*
X7352080Y11582501D01*
X7348981Y11587429D01*
X7344918Y11591493D01*
X7339990Y11594592D01*
X7334554Y11596471D01*
X7328204Y11597182D01*
X1829358Y11597182D01*
X1823059Y11596471D01*
X1817573Y11594592D01*
X1812696Y11591493D01*
X1808581Y11587429D01*
X1805533Y11582501D01*
X1803603Y11577066D01*
X1802892Y11570716D01*
X1802892Y1071880D01*
X1803603Y1065580D01*
X1805533Y1060094D01*
X1808581Y1055217D01*
X1812696Y1051102D01*
X1817573Y1048054D01*
X1823059Y1046124D01*
G37*
G36*
X7986572Y3632352D02*
G01*
X8454390Y3632352D01*
X8460740Y3633063D01*
X8466175Y3634994D01*
X8471052Y3638042D01*
X8476894Y3643934D01*
X8492236Y3656837D01*
X8512556Y3676497D01*
X8531504Y3697579D01*
X8548928Y3719880D01*
X8564727Y3743401D01*
X8578900Y3767937D01*
X8591296Y3793388D01*
X8601862Y3819651D01*
X8610600Y3846576D01*
X8617458Y3874058D01*
X8622385Y3901948D01*
X8625332Y3930142D01*
X8626297Y3958437D01*
X8625281Y3986733D01*
X8622334Y4014876D01*
X8617407Y4042765D01*
X8610549Y4070248D01*
X8601760Y4097172D01*
X8591143Y4123436D01*
X8578748Y4148886D01*
X8564575Y4173423D01*
X8548725Y4196892D01*
X8531301Y4219194D01*
X8512352Y4240225D01*
X8491982Y4259935D01*
X8476183Y4273245D01*
X8471052Y4278477D01*
X8466175Y4281525D01*
X8460740Y4283456D01*
X8454390Y4284167D01*
X7986572Y4284167D01*
X7980222Y4283456D01*
X7974787Y4281525D01*
X7969859Y4278477D01*
X7964271Y4272889D01*
X7948777Y4259935D01*
X7928406Y4240225D01*
X7909458Y4219194D01*
X7892034Y4196892D01*
X7876184Y4173423D01*
X7862011Y4148886D01*
X7849616Y4123436D01*
X7838998Y4097172D01*
X7830261Y4070248D01*
X7823352Y4042765D01*
X7818475Y4014876D01*
X7815478Y3986733D01*
X7814462Y3958437D01*
X7815478Y3930142D01*
X7818424Y3901948D01*
X7823301Y3874058D01*
X7830159Y3846576D01*
X7838897Y3819651D01*
X7849463Y3793388D01*
X7861858Y3767937D01*
X7876031Y3743401D01*
X7891830Y3719880D01*
X7909255Y3697579D01*
X7928203Y3676497D01*
X7948523Y3656837D01*
X7964982Y3642969D01*
X7969859Y3638042D01*
X7974787Y3634994D01*
X7980222Y3633063D01*
G37*
G36*
X667766Y3638092D02*
G01*
X1135634Y3638092D01*
X1141933Y3638804D01*
X1147419Y3640734D01*
X1152245Y3643782D01*
X1158138Y3649675D01*
X1173429Y3662578D01*
X1193800Y3682237D01*
X1212748Y3703320D01*
X1230122Y3725621D01*
X1245971Y3749141D01*
X1260094Y3773678D01*
X1272489Y3799128D01*
X1283106Y3825392D01*
X1291844Y3852316D01*
X1298651Y3879799D01*
X1303578Y3907688D01*
X1306525Y3935882D01*
X1307490Y3964178D01*
X1306525Y3992473D01*
X1303528Y4020616D01*
X1298600Y4048506D01*
X1291742Y4075988D01*
X1283004Y4102912D01*
X1272387Y4129176D01*
X1259941Y4154627D01*
X1245768Y4179163D01*
X1229969Y4202633D01*
X1212494Y4224934D01*
X1193546Y4245965D01*
X1173175Y4265676D01*
X1157376Y4278985D01*
X1152245Y4284218D01*
X1147419Y4287266D01*
X1141933Y4289196D01*
X1135634Y4289907D01*
X667766Y4289907D01*
X661466Y4289196D01*
X655980Y4287266D01*
X651103Y4284218D01*
X645515Y4278630D01*
X630021Y4265676D01*
X609650Y4245965D01*
X590702Y4224934D01*
X573227Y4202633D01*
X557428Y4179163D01*
X543255Y4154627D01*
X530809Y4129176D01*
X520192Y4102912D01*
X511454Y4075988D01*
X504596Y4048506D01*
X499668Y4020616D01*
X496722Y3992473D01*
X495706Y3964178D01*
X496671Y3935882D01*
X499618Y3907688D01*
X504545Y3879799D01*
X511352Y3852316D01*
X520090Y3825392D01*
X530707Y3799128D01*
X543102Y3773678D01*
X557225Y3749141D01*
X573074Y3725621D01*
X590499Y3703320D01*
X609396Y3682237D01*
X629767Y3662578D01*
X646176Y3648710D01*
X651103Y3643782D01*
X655980Y3640734D01*
X661466Y3638804D01*
G37*
G36*
X794359Y5016500D02*
G01*
X1027328Y5016500D01*
X1028192Y5017363D01*
X915060Y5205933D01*
X913892Y5206136D01*
X803046Y5021427D01*
X800811Y5018786D01*
X797763Y5017109D01*
G37*
G36*
X8230108Y5017363D02*
G01*
X8340953Y5202072D01*
X8343188Y5204714D01*
X8346236Y5206390D01*
X8349640Y5207000D01*
X8129270Y5207000D01*
X8128457Y5206136D01*
X8228939Y5017719D01*
G37*
G36*
X445058Y5360466D02*
G01*
X1371041Y5360466D01*
X1377340Y5361228D01*
X1382826Y5363108D01*
X1387703Y5366207D01*
X1391818Y5370271D01*
X1394866Y5375198D01*
X1396796Y5380634D01*
X1397508Y5386984D01*
X1397508Y7265416D01*
X1396796Y7271766D01*
X1394866Y7277201D01*
X1391818Y7282129D01*
X1387703Y7286193D01*
X1382826Y7289292D01*
X1377340Y7291171D01*
X1371041Y7291882D01*
X445058Y7291882D01*
X438759Y7291171D01*
X433273Y7289292D01*
X428396Y7286193D01*
X424281Y7282129D01*
X421233Y7277201D01*
X419303Y7271766D01*
X418592Y7265416D01*
X418592Y5386984D01*
X419303Y5380634D01*
X421233Y5375198D01*
X424281Y5370271D01*
X428396Y5366207D01*
X433273Y5363108D01*
X438759Y5361228D01*
G37*
G36*
X451408Y1029766D02*
G01*
X1377391Y1029766D01*
X1383690Y1030528D01*
X1389176Y1032408D01*
X1394053Y1035507D01*
X1398168Y1039571D01*
X1401216Y1044498D01*
X1403146Y1049934D01*
X1403858Y1056284D01*
X1403858Y2934716D01*
X1403146Y2941066D01*
X1401216Y2946501D01*
X1398168Y2951429D01*
X1394053Y2955493D01*
X1389176Y2958592D01*
X1383690Y2960471D01*
X1377391Y2961182D01*
X451408Y2961182D01*
X445109Y2960471D01*
X439623Y2958592D01*
X434746Y2955493D01*
X430631Y2951429D01*
X427583Y2946501D01*
X425653Y2941066D01*
X424942Y2934716D01*
X424942Y1056284D01*
X425653Y1049934D01*
X427583Y1044498D01*
X430631Y1039571D01*
X434746Y1035507D01*
X439623Y1032408D01*
X445109Y1030528D01*
G37*
G36*
X8129016Y7454900D02*
G01*
X8349437Y7454900D01*
X8346135Y7455458D01*
X8343188Y7457084D01*
X8340902Y7459573D01*
X8230260Y7631684D01*
X8229092Y7631836D01*
X8128660Y7456068D01*
X8128406Y7455001D01*
G37*
G36*
X914908Y7455763D02*
G01*
X1027988Y7644231D01*
X1027684Y7645400D01*
X794359Y7645400D01*
X797763Y7644790D01*
X800811Y7643114D01*
X803046Y7640472D01*
X913739Y7455966D01*
G37*
G36*
X7986572Y8354974D02*
G01*
X8454390Y8354974D01*
X8460740Y8355685D01*
X8466175Y8357565D01*
X8471052Y8360613D01*
X8476894Y8366556D01*
X8492236Y8379409D01*
X8512556Y8399119D01*
X8531504Y8420150D01*
X8548928Y8442502D01*
X8564727Y8465972D01*
X8578900Y8490508D01*
X8591296Y8515959D01*
X8601862Y8542223D01*
X8610600Y8569198D01*
X8617458Y8596680D01*
X8622385Y8624570D01*
X8625332Y8652713D01*
X8626297Y8681008D01*
X8625281Y8709304D01*
X8622334Y8737498D01*
X8617407Y8765387D01*
X8610549Y8792870D01*
X8601760Y8819794D01*
X8591143Y8846058D01*
X8578748Y8871508D01*
X8564575Y8895994D01*
X8548725Y8919464D01*
X8531301Y8941816D01*
X8512352Y8962847D01*
X8491982Y8982506D01*
X8476183Y8995816D01*
X8471052Y9001099D01*
X8466175Y9004147D01*
X8460740Y9006078D01*
X8454390Y9006789D01*
X7986572Y9006789D01*
X7980222Y9006078D01*
X7974787Y9004147D01*
X7969859Y9001048D01*
X7964271Y8995511D01*
X7948777Y8982506D01*
X7928406Y8962847D01*
X7909458Y8941816D01*
X7892034Y8919464D01*
X7876184Y8895994D01*
X7862011Y8871508D01*
X7849616Y8846058D01*
X7838998Y8819794D01*
X7830261Y8792870D01*
X7823352Y8765387D01*
X7818475Y8737498D01*
X7815478Y8709304D01*
X7814462Y8681008D01*
X7815478Y8652713D01*
X7818424Y8624570D01*
X7823301Y8596680D01*
X7830159Y8569198D01*
X7838897Y8542223D01*
X7849463Y8515959D01*
X7861858Y8490508D01*
X7876031Y8465972D01*
X7891830Y8442502D01*
X7909255Y8420150D01*
X7928203Y8399119D01*
X7948523Y8379409D01*
X7964982Y8365540D01*
X7969859Y8360664D01*
X7974787Y8357565D01*
X7980222Y8355685D01*
G37*
G36*
X667766Y8360714D02*
G01*
X1135634Y8360714D01*
X1141933Y8361425D01*
X1147419Y8363305D01*
X1152245Y8366353D01*
X1158138Y8372297D01*
X1173429Y8385149D01*
X1193800Y8404860D01*
X1212748Y8425891D01*
X1230122Y8448243D01*
X1245971Y8471712D01*
X1260094Y8496249D01*
X1272489Y8521700D01*
X1283106Y8547963D01*
X1291844Y8574938D01*
X1298651Y8602421D01*
X1303578Y8630310D01*
X1306525Y8658453D01*
X1307490Y8686749D01*
X1306525Y8715044D01*
X1303528Y8743238D01*
X1298600Y8771128D01*
X1291742Y8798610D01*
X1283004Y8825534D01*
X1272387Y8851798D01*
X1259941Y8877249D01*
X1245768Y8901734D01*
X1229969Y8925204D01*
X1212494Y8947556D01*
X1193546Y8968587D01*
X1173175Y8988247D01*
X1157376Y9001556D01*
X1152245Y9006840D01*
X1147419Y9009888D01*
X1141933Y9011818D01*
X1135634Y9012529D01*
X667766Y9012529D01*
X661466Y9011818D01*
X655980Y9009888D01*
X651103Y9006789D01*
X645515Y9001252D01*
X630021Y8988247D01*
X609650Y8968587D01*
X590702Y8947556D01*
X573227Y8925204D01*
X557428Y8901734D01*
X543255Y8877249D01*
X530809Y8851798D01*
X520192Y8825534D01*
X511454Y8798610D01*
X504596Y8771128D01*
X499668Y8743238D01*
X496722Y8715044D01*
X495706Y8686749D01*
X496671Y8658453D01*
X499618Y8630310D01*
X504545Y8602421D01*
X511352Y8574938D01*
X520090Y8547963D01*
X530707Y8521700D01*
X543102Y8496249D01*
X557225Y8471712D01*
X573074Y8448243D01*
X590499Y8425891D01*
X609396Y8404860D01*
X629767Y8385149D01*
X646176Y8371281D01*
X651103Y8366404D01*
X655980Y8363305D01*
X661466Y8361425D01*
G37*
G36*
X7824216Y10045700D02*
G01*
X8012684Y10045700D01*
X8013700Y10046716D01*
X8013700Y10213340D01*
X8014462Y10217251D01*
X8016697Y10220502D01*
X8019948Y10222738D01*
X8023859Y10223500D01*
X7824216Y10223500D01*
X7823200Y10222484D01*
X7823200Y10046716D01*
X7823352Y10045852D01*
G37*
G36*
X419658Y10261092D02*
G01*
X1409141Y10261092D01*
X1415440Y10261803D01*
X1420926Y10263733D01*
X1425803Y10266781D01*
X1429918Y10270896D01*
X1432966Y10275773D01*
X1434896Y10281259D01*
X1435608Y10287558D01*
X1434998Y11569141D01*
X1434287Y11575440D01*
X1432407Y11580926D01*
X1429308Y11585803D01*
X1425194Y11589918D01*
X1420317Y11592966D01*
X1414830Y11594896D01*
X1408531Y11595608D01*
X419658Y11595608D01*
X413359Y11594896D01*
X407873Y11592966D01*
X402996Y11589918D01*
X398881Y11585803D01*
X395833Y11580926D01*
X393903Y11575440D01*
X393192Y11569141D01*
X393192Y10287558D01*
X393903Y10281259D01*
X395833Y10275773D01*
X398881Y10270896D01*
X402996Y10266781D01*
X407873Y10263733D01*
X413359Y10261803D01*
G37*
G36*
X7824216Y10579100D02*
G01*
X8012684Y10579100D01*
X8013700Y10580116D01*
X8013700Y10746740D01*
X8014462Y10750651D01*
X8016697Y10753902D01*
X8019948Y10756138D01*
X8023859Y10756900D01*
X7824216Y10756900D01*
X7823200Y10755884D01*
X7823200Y10580116D01*
X7823352Y10579252D01*
G37*
G36*
X7766608Y5360466D02*
G01*
X8692591Y5360466D01*
X8698890Y5361228D01*
X8704376Y5363108D01*
X8709253Y5366207D01*
X8713368Y5370271D01*
X8716416Y5375198D01*
X8718346Y5380634D01*
X8719058Y5386984D01*
X8719058Y7265416D01*
X8718346Y7271766D01*
X8716416Y7277201D01*
X8713368Y7282129D01*
X8709253Y7286193D01*
X8704376Y7289292D01*
X8698890Y7291171D01*
X8692591Y7291882D01*
X7766608Y7291882D01*
X7760309Y7291171D01*
X7754823Y7289292D01*
X7749946Y7286193D01*
X7745831Y7282129D01*
X7742783Y7277201D01*
X7740853Y7271766D01*
X7740142Y7265416D01*
X7740142Y5386984D01*
X7740853Y5380634D01*
X7742783Y5375198D01*
X7745831Y5370271D01*
X7749946Y5366207D01*
X7754823Y5363108D01*
X7760309Y5361228D01*
G37*

%LPD*%
D10*
X8978900Y685800D02*
G01*
X8978900Y749300D01*
X8978900Y12128500D02*
G01*
X8978900Y12192000D01*
X38862Y12173230D02*
G01*
X38862Y12813537D01*
X38862Y12813537D02*
G01*
X9092438Y12813537D01*
X9092438Y12813537D02*
G01*
X9092438Y12179527D01*
X9092438Y12179527D02*
G01*
X38862Y12173230D01*
X8068276Y12446843D02*
G01*
X8081382Y12432383D01*
X8081382Y12432383D02*
G01*
X8095842Y12419277D01*
X8095842Y12419277D02*
G01*
X8111517Y12407652D01*
X8111517Y12407652D02*
G01*
X8128256Y12397619D01*
X8128256Y12397619D02*
G01*
X8145897Y12389275D01*
X8145897Y12389275D02*
G01*
X8164272Y12382701D01*
X8164272Y12382701D02*
G01*
X8183203Y12377959D01*
X8183203Y12377959D02*
G01*
X8202507Y12375095D01*
X8202507Y12375095D02*
G01*
X8221999Y12374138D01*
X8221999Y12374138D02*
G01*
X8542000Y12374138D01*
X8542000Y12374138D02*
G01*
X8561492Y12375095D01*
X8561492Y12375095D02*
G01*
X8580796Y12377959D01*
X8580796Y12377959D02*
G01*
X8599727Y12382701D01*
X8599727Y12382701D02*
G01*
X8618102Y12389275D01*
X8618102Y12389275D02*
G01*
X8635743Y12397619D01*
X8635743Y12397619D02*
G01*
X8652482Y12407652D01*
X8652482Y12407652D02*
G01*
X8668157Y12419277D01*
X8668157Y12419277D02*
G01*
X8682617Y12432383D01*
X8682617Y12432383D02*
G01*
X8695723Y12446843D01*
X8695723Y12446843D02*
G01*
X8707348Y12462518D01*
X8707348Y12462518D02*
G01*
X8717381Y12479257D01*
X8717381Y12479257D02*
G01*
X8725725Y12496898D01*
X8725725Y12496898D02*
G01*
X8732299Y12515273D01*
X8732299Y12515273D02*
G01*
X8737041Y12534204D01*
X8737041Y12534204D02*
G01*
X8739905Y12553508D01*
X8739905Y12553508D02*
G01*
X8740862Y12573000D01*
X8740862Y12573000D02*
G01*
X8739905Y12592491D01*
X8739905Y12592491D02*
G01*
X8737041Y12611795D01*
X8737041Y12611795D02*
G01*
X8732299Y12630726D01*
X8732299Y12630726D02*
G01*
X8725725Y12649101D01*
X8725725Y12649101D02*
G01*
X8717381Y12666742D01*
X8717381Y12666742D02*
G01*
X8707348Y12683481D01*
X8707348Y12683481D02*
G01*
X8695723Y12699156D01*
X8695723Y12699156D02*
G01*
X8682617Y12713616D01*
X8682617Y12713616D02*
G01*
X8668157Y12726722D01*
X8668157Y12726722D02*
G01*
X8652482Y12738347D01*
X8652482Y12738347D02*
G01*
X8635743Y12748380D01*
X8635743Y12748380D02*
G01*
X8618102Y12756724D01*
X8618102Y12756724D02*
G01*
X8599727Y12763298D01*
X8599727Y12763298D02*
G01*
X8580796Y12768040D01*
X8580796Y12768040D02*
G01*
X8561492Y12770904D01*
X8561492Y12770904D02*
G01*
X8542000Y12771861D01*
X8542000Y12771861D02*
G01*
X8221999Y12771861D01*
X8221999Y12771861D02*
G01*
X8202507Y12770904D01*
X8202507Y12770904D02*
G01*
X8183203Y12768040D01*
X8183203Y12768040D02*
G01*
X8164272Y12763298D01*
X8164272Y12763298D02*
G01*
X8145897Y12756724D01*
X8145897Y12756724D02*
G01*
X8128256Y12748380D01*
X8128256Y12748380D02*
G01*
X8111517Y12738347D01*
X8111517Y12738347D02*
G01*
X8095842Y12726722D01*
X8095842Y12726722D02*
G01*
X8081382Y12713616D01*
X8081382Y12713616D02*
G01*
X8068276Y12699156D01*
X8068276Y12699156D02*
G01*
X8056651Y12683481D01*
X8056651Y12683481D02*
G01*
X8046618Y12666742D01*
X8046618Y12666742D02*
G01*
X8038274Y12649101D01*
X8038274Y12649101D02*
G01*
X8031700Y12630726D01*
X8031700Y12630726D02*
G01*
X8026958Y12611795D01*
X8026958Y12611795D02*
G01*
X8024094Y12592491D01*
X8024094Y12592491D02*
G01*
X8023137Y12573000D01*
X8023137Y12573000D02*
G01*
X8024094Y12553508D01*
X8024094Y12553508D02*
G01*
X8026958Y12534204D01*
X8026958Y12534204D02*
G01*
X8031700Y12515273D01*
X8031700Y12515273D02*
G01*
X8038274Y12496898D01*
X8038274Y12496898D02*
G01*
X8046618Y12479257D01*
X8046618Y12479257D02*
G01*
X8056651Y12462518D01*
X8056651Y12462518D02*
G01*
X8068276Y12446843D01*
X435982Y12432383D02*
G01*
X450442Y12419277D01*
X450442Y12419277D02*
G01*
X466117Y12407652D01*
X466117Y12407652D02*
G01*
X482856Y12397619D01*
X482856Y12397619D02*
G01*
X500497Y12389275D01*
X500497Y12389275D02*
G01*
X518872Y12382701D01*
X518872Y12382701D02*
G01*
X537803Y12377959D01*
X537803Y12377959D02*
G01*
X557107Y12375095D01*
X557107Y12375095D02*
G01*
X576599Y12374138D01*
X576599Y12374138D02*
G01*
X896600Y12374138D01*
X896600Y12374138D02*
G01*
X916092Y12375095D01*
X916092Y12375095D02*
G01*
X935396Y12377959D01*
X935396Y12377959D02*
G01*
X954327Y12382701D01*
X954327Y12382701D02*
G01*
X972702Y12389275D01*
X972702Y12389275D02*
G01*
X990343Y12397619D01*
X990343Y12397619D02*
G01*
X1007082Y12407652D01*
X1007082Y12407652D02*
G01*
X1022757Y12419277D01*
X1022757Y12419277D02*
G01*
X1037217Y12432383D01*
X1037217Y12432383D02*
G01*
X1050323Y12446843D01*
X1050323Y12446843D02*
G01*
X1061948Y12462518D01*
X1061948Y12462518D02*
G01*
X1071981Y12479257D01*
X1071981Y12479257D02*
G01*
X1080325Y12496898D01*
X1080325Y12496898D02*
G01*
X1086899Y12515273D01*
X1086899Y12515273D02*
G01*
X1091641Y12534204D01*
X1091641Y12534204D02*
G01*
X1094505Y12553508D01*
X1094505Y12553508D02*
G01*
X1095462Y12573000D01*
X1095462Y12573000D02*
G01*
X1094505Y12592491D01*
X1094505Y12592491D02*
G01*
X1091641Y12611795D01*
X1091641Y12611795D02*
G01*
X1086899Y12630726D01*
X1086899Y12630726D02*
G01*
X1080325Y12649101D01*
X1080325Y12649101D02*
G01*
X1071981Y12666742D01*
X1071981Y12666742D02*
G01*
X1061948Y12683481D01*
X1061948Y12683481D02*
G01*
X1050323Y12699156D01*
X1050323Y12699156D02*
G01*
X1037217Y12713616D01*
X1037217Y12713616D02*
G01*
X1022757Y12726722D01*
X1022757Y12726722D02*
G01*
X1007082Y12738347D01*
X1007082Y12738347D02*
G01*
X990343Y12748380D01*
X990343Y12748380D02*
G01*
X972702Y12756724D01*
X972702Y12756724D02*
G01*
X954327Y12763298D01*
X954327Y12763298D02*
G01*
X935396Y12768040D01*
X935396Y12768040D02*
G01*
X916092Y12770904D01*
X916092Y12770904D02*
G01*
X896600Y12771861D01*
X896600Y12771861D02*
G01*
X576599Y12771861D01*
X576599Y12771861D02*
G01*
X557107Y12770904D01*
X557107Y12770904D02*
G01*
X537803Y12768040D01*
X537803Y12768040D02*
G01*
X518872Y12763298D01*
X518872Y12763298D02*
G01*
X500497Y12756724D01*
X500497Y12756724D02*
G01*
X482856Y12748380D01*
X482856Y12748380D02*
G01*
X466117Y12738347D01*
X466117Y12738347D02*
G01*
X450442Y12726722D01*
X450442Y12726722D02*
G01*
X435982Y12713616D01*
X435982Y12713616D02*
G01*
X422876Y12699156D01*
X422876Y12699156D02*
G01*
X411251Y12683481D01*
X411251Y12683481D02*
G01*
X401218Y12666742D01*
X401218Y12666742D02*
G01*
X392874Y12649101D01*
X392874Y12649101D02*
G01*
X386300Y12630726D01*
X386300Y12630726D02*
G01*
X381558Y12611795D01*
X381558Y12611795D02*
G01*
X378694Y12592491D01*
X378694Y12592491D02*
G01*
X377737Y12573000D01*
X377737Y12573000D02*
G01*
X378694Y12553508D01*
X378694Y12553508D02*
G01*
X381558Y12534204D01*
X381558Y12534204D02*
G01*
X386300Y12515273D01*
X386300Y12515273D02*
G01*
X392874Y12496898D01*
X392874Y12496898D02*
G01*
X401218Y12479257D01*
X401218Y12479257D02*
G01*
X411251Y12462518D01*
X411251Y12462518D02*
G01*
X422876Y12446843D01*
X422876Y12446843D02*
G01*
X435982Y12432383D01*
X38862Y12228167D02*
G01*
X93760Y12173269D01*
X38862Y12335930D02*
G01*
X201448Y12173344D01*
X38862Y12443693D02*
G01*
X309137Y12173418D01*
X38862Y12551456D02*
G01*
X416825Y12173493D01*
X38862Y12659220D02*
G01*
X524513Y12173568D01*
X38862Y12766983D02*
G01*
X632201Y12173643D01*
X100070Y12813537D02*
G01*
X382278Y12531330D01*
X534929Y12378679D02*
G01*
X739889Y12173718D01*
X207833Y12813537D02*
G01*
X387445Y12633926D01*
X647233Y12374138D02*
G01*
X847577Y12173793D01*
X315596Y12813537D02*
G01*
X426252Y12702881D01*
X754996Y12374138D02*
G01*
X955266Y12173868D01*
X423359Y12813537D02*
G01*
X486699Y12750198D01*
X862759Y12374138D02*
G01*
X1062954Y12173943D01*
X531122Y12813537D02*
G01*
X572976Y12771683D01*
X959948Y12384712D02*
G01*
X1170642Y12174018D01*
X638885Y12813537D02*
G01*
X680562Y12771861D01*
X1028206Y12424216D02*
G01*
X1278330Y12174093D01*
X746648Y12813537D02*
G01*
X788325Y12771861D01*
X1074854Y12485332D02*
G01*
X1386018Y12174167D01*
X854411Y12813537D02*
G01*
X896088Y12771861D01*
X1095438Y12572511D02*
G01*
X1493707Y12174242D01*
X962174Y12813537D02*
G01*
X1601395Y12174317D01*
X1069937Y12813537D02*
G01*
X1709083Y12174392D01*
X1177700Y12813537D02*
G01*
X1816771Y12174467D01*
X1285464Y12813537D02*
G01*
X1924459Y12174542D01*
X1393227Y12813537D02*
G01*
X2032148Y12174617D01*
X1500990Y12813537D02*
G01*
X2139836Y12174692D01*
X1608753Y12813537D02*
G01*
X2247524Y12174766D01*
X1716516Y12813537D02*
G01*
X2355212Y12174841D01*
X1824279Y12813537D02*
G01*
X2462900Y12174916D01*
X1932042Y12813537D02*
G01*
X2570588Y12174991D01*
X2039805Y12813537D02*
G01*
X2678277Y12175066D01*
X2147568Y12813537D02*
G01*
X2785965Y12175141D01*
X2255331Y12813537D02*
G01*
X2893653Y12175216D01*
X2363094Y12813537D02*
G01*
X3001341Y12175291D01*
X2470857Y12813537D02*
G01*
X3109029Y12175366D01*
X2578620Y12813537D02*
G01*
X3216717Y12175440D01*
X2686384Y12813537D02*
G01*
X3324406Y12175515D01*
X2794147Y12813537D02*
G01*
X3432094Y12175590D01*
X2901910Y12813537D02*
G01*
X3539782Y12175665D01*
X3009673Y12813537D02*
G01*
X3647470Y12175740D01*
X3117436Y12813537D02*
G01*
X3755158Y12175815D01*
X3225199Y12813537D02*
G01*
X3862847Y12175890D01*
X3332962Y12813537D02*
G01*
X3970535Y12175965D01*
X3440725Y12813537D02*
G01*
X4078223Y12176040D01*
X3548488Y12813537D02*
G01*
X4185911Y12176114D01*
X3656251Y12813537D02*
G01*
X4293599Y12176189D01*
X3764014Y12813537D02*
G01*
X4401288Y12176264D01*
X3871777Y12813537D02*
G01*
X4508976Y12176339D01*
X3979540Y12813537D02*
G01*
X4616664Y12176414D01*
X4087303Y12813537D02*
G01*
X4724352Y12176489D01*
X4195067Y12813537D02*
G01*
X4832040Y12176564D01*
X4302830Y12813537D02*
G01*
X4939729Y12176639D01*
X4410593Y12813537D02*
G01*
X5047417Y12176714D01*
X4518356Y12813537D02*
G01*
X5155105Y12176788D01*
X4626119Y12813537D02*
G01*
X5262793Y12176863D01*
X4733882Y12813537D02*
G01*
X5370481Y12176938D01*
X4841645Y12813537D02*
G01*
X5478169Y12177013D01*
X4949408Y12813537D02*
G01*
X5585858Y12177088D01*
X5057171Y12813537D02*
G01*
X5693546Y12177163D01*
X5164934Y12813537D02*
G01*
X5801234Y12177238D01*
X5272697Y12813537D02*
G01*
X5908922Y12177313D01*
X5380460Y12813537D02*
G01*
X6016610Y12177388D01*
X5488223Y12813537D02*
G01*
X6124299Y12177462D01*
X5595987Y12813537D02*
G01*
X6231987Y12177537D01*
X5703750Y12813537D02*
G01*
X6339675Y12177612D01*
X5811513Y12813537D02*
G01*
X6447363Y12177687D01*
X5919276Y12813537D02*
G01*
X6555051Y12177762D01*
X6027039Y12813537D02*
G01*
X6662740Y12177837D01*
X6134802Y12813537D02*
G01*
X6770428Y12177912D01*
X6242565Y12813537D02*
G01*
X6878116Y12177987D01*
X6350328Y12813537D02*
G01*
X6985804Y12178062D01*
X6458091Y12813537D02*
G01*
X7093492Y12178136D01*
X6565854Y12813537D02*
G01*
X7201180Y12178211D01*
X6673617Y12813537D02*
G01*
X7308869Y12178286D01*
X6781380Y12813537D02*
G01*
X7416557Y12178361D01*
X6889143Y12813537D02*
G01*
X7524245Y12178436D01*
X6996907Y12813537D02*
G01*
X7631933Y12178511D01*
X7104670Y12813537D02*
G01*
X7739621Y12178586D01*
X7212433Y12813537D02*
G01*
X7847309Y12178661D01*
X7320196Y12813537D02*
G01*
X7954998Y12178735D01*
X7427959Y12813537D02*
G01*
X8062686Y12178810D01*
X7535722Y12813537D02*
G01*
X8170374Y12178885D01*
X7643485Y12813537D02*
G01*
X8278062Y12178960D01*
X7751248Y12813537D02*
G01*
X8026327Y12538459D01*
X8187458Y12377328D02*
G01*
X8385751Y12179035D01*
X7859011Y12813537D02*
G01*
X8034367Y12638181D01*
X8298411Y12374138D02*
G01*
X8493439Y12179110D01*
X7966774Y12813537D02*
G01*
X8074400Y12705912D01*
X8406174Y12374138D02*
G01*
X8601127Y12179185D01*
X8074537Y12813537D02*
G01*
X8136022Y12752053D01*
X8513937Y12374138D02*
G01*
X8708815Y12179260D01*
X8182300Y12813537D02*
G01*
X8223977Y12771861D01*
X8609603Y12386235D02*
G01*
X8816503Y12179335D01*
X8290063Y12813537D02*
G01*
X8331740Y12771861D01*
X8676637Y12426963D02*
G01*
X8924191Y12179409D01*
X8397826Y12813537D02*
G01*
X8439503Y12771861D01*
X8722109Y12489254D02*
G01*
X9031880Y12179484D01*
X8505590Y12813537D02*
G01*
X8547538Y12771589D01*
X8740590Y12578537D02*
G01*
X9092438Y12226690D01*
X8613353Y12813537D02*
G01*
X9092438Y12334453D01*
X8721116Y12813537D02*
G01*
X9092438Y12442216D01*
X8828879Y12813537D02*
G01*
X9092438Y12549979D01*
X8936642Y12813537D02*
G01*
X9092438Y12657742D01*
X9044405Y12813537D02*
G01*
X9092438Y12765505D01*
X9043763Y12179493D02*
G01*
X9092438Y12228167D01*
X8935925Y12179418D02*
G01*
X9092438Y12335930D01*
X8828087Y12179343D02*
G01*
X9092438Y12443693D01*
X8720249Y12179268D02*
G01*
X9092438Y12551456D01*
X8612411Y12179193D02*
G01*
X9092438Y12659220D01*
X8504573Y12179118D02*
G01*
X9092438Y12766983D01*
X8396734Y12179043D02*
G01*
X8600763Y12383072D01*
X8731928Y12514237D02*
G01*
X9031229Y12813537D01*
X8288896Y12178968D02*
G01*
X8484066Y12374138D01*
X8733973Y12624044D02*
G01*
X8923466Y12813537D01*
X8181058Y12178893D02*
G01*
X8376303Y12374138D01*
X8698107Y12695941D02*
G01*
X8815703Y12813537D01*
X8073220Y12178818D02*
G01*
X8268540Y12374138D01*
X8640144Y12745742D02*
G01*
X8707940Y12813537D01*
X7965382Y12178743D02*
G01*
X8168325Y12381685D01*
X8557728Y12771089D02*
G01*
X8600177Y12813537D01*
X7857544Y12178668D02*
G01*
X8097169Y12418293D01*
X8450737Y12771861D02*
G01*
X8492414Y12813537D01*
X7749706Y12178593D02*
G01*
X8048024Y12476911D01*
X8342974Y12771861D02*
G01*
X8384651Y12813537D01*
X7641868Y12178518D02*
G01*
X8023756Y12560405D01*
X8235211Y12771861D02*
G01*
X8276888Y12813537D01*
X7534030Y12178443D02*
G01*
X8169125Y12813537D01*
X7426192Y12178368D02*
G01*
X8061362Y12813537D01*
X7318354Y12178293D02*
G01*
X7953599Y12813537D01*
X7210516Y12178218D02*
G01*
X7845835Y12813537D01*
X7102678Y12178143D02*
G01*
X7738072Y12813537D01*
X6994839Y12178068D02*
G01*
X7630309Y12813537D01*
X6887001Y12177993D02*
G01*
X7522546Y12813537D01*
X6779163Y12177918D02*
G01*
X7414783Y12813537D01*
X6671325Y12177843D02*
G01*
X7307020Y12813537D01*
X6563487Y12177768D02*
G01*
X7199257Y12813537D01*
X6455649Y12177693D02*
G01*
X7091494Y12813537D01*
X6347811Y12177618D02*
G01*
X6983731Y12813537D01*
X6239973Y12177543D02*
G01*
X6875968Y12813537D01*
X6132135Y12177468D02*
G01*
X6768205Y12813537D01*
X6024297Y12177393D02*
G01*
X6660442Y12813537D01*
X5916459Y12177318D02*
G01*
X6552679Y12813537D01*
X5808621Y12177243D02*
G01*
X6444915Y12813537D01*
X5700783Y12177168D02*
G01*
X6337152Y12813537D01*
X5592945Y12177093D02*
G01*
X6229389Y12813537D01*
X5485107Y12177018D02*
G01*
X6121626Y12813537D01*
X5377269Y12176943D02*
G01*
X6013863Y12813537D01*
X5269430Y12176868D02*
G01*
X5906100Y12813537D01*
X5161592Y12176793D02*
G01*
X5798337Y12813537D01*
X5053754Y12176718D02*
G01*
X5690574Y12813537D01*
X4945916Y12176643D02*
G01*
X5582811Y12813537D01*
X4838078Y12176568D02*
G01*
X5475048Y12813537D01*
X4730240Y12176493D02*
G01*
X5367285Y12813537D01*
X4622402Y12176418D02*
G01*
X5259522Y12813537D01*
X4514564Y12176343D02*
G01*
X5151759Y12813537D01*
X4406726Y12176268D02*
G01*
X5043996Y12813537D01*
X4298888Y12176193D02*
G01*
X4936232Y12813537D01*
X4191050Y12176118D02*
G01*
X4828469Y12813537D01*
X4083212Y12176043D02*
G01*
X4720706Y12813537D01*
X3975374Y12175968D02*
G01*
X4612943Y12813537D01*
X3867536Y12175893D02*
G01*
X4505180Y12813537D01*
X3759698Y12175818D02*
G01*
X4397417Y12813537D01*
X3651860Y12175743D02*
G01*
X4289654Y12813537D01*
X3544021Y12175668D02*
G01*
X4181891Y12813537D01*
X3436183Y12175593D02*
G01*
X4074128Y12813537D01*
X3328345Y12175518D02*
G01*
X3966365Y12813537D01*
X3220507Y12175443D02*
G01*
X3858602Y12813537D01*
X3112669Y12175368D02*
G01*
X3750839Y12813537D01*
X3004831Y12175293D02*
G01*
X3643076Y12813537D01*
X2896993Y12175218D02*
G01*
X3535312Y12813537D01*
X2789155Y12175143D02*
G01*
X3427549Y12813537D01*
X2681317Y12175068D02*
G01*
X3319786Y12813537D01*
X2573479Y12174993D02*
G01*
X3212023Y12813537D01*
X2465641Y12174918D02*
G01*
X3104260Y12813537D01*
X2357803Y12174843D02*
G01*
X2996497Y12813537D01*
X2249965Y12174768D02*
G01*
X2888734Y12813537D01*
X2142127Y12174693D02*
G01*
X2780971Y12813537D01*
X2034289Y12174618D02*
G01*
X2673208Y12813537D01*
X1926451Y12174543D02*
G01*
X2565445Y12813537D01*
X1818612Y12174468D02*
G01*
X2457682Y12813537D01*
X1710774Y12174393D02*
G01*
X2349919Y12813537D01*
X1602936Y12174318D02*
G01*
X2242156Y12813537D01*
X1495098Y12174243D02*
G01*
X2134392Y12813537D01*
X1387260Y12174168D02*
G01*
X2026629Y12813537D01*
X1279422Y12174093D02*
G01*
X1918866Y12813537D01*
X1171584Y12174018D02*
G01*
X1811103Y12813537D01*
X1063746Y12173943D02*
G01*
X1703340Y12813537D01*
X955908Y12173868D02*
G01*
X1595577Y12813537D01*
X848070Y12173793D02*
G01*
X1487814Y12813537D01*
X740232Y12173718D02*
G01*
X947506Y12380992D01*
X1088608Y12522094D02*
G01*
X1380051Y12813537D01*
X632394Y12173643D02*
G01*
X832888Y12374138D01*
X1087415Y12628665D02*
G01*
X1272288Y12813537D01*
X524556Y12173568D02*
G01*
X725125Y12374138D01*
X1050237Y12699250D02*
G01*
X1164525Y12813537D01*
X416717Y12173493D02*
G01*
X617362Y12374138D01*
X991132Y12747907D02*
G01*
X1056762Y12813537D01*
X308880Y12173418D02*
G01*
X518349Y12382888D01*
X906820Y12771359D02*
G01*
X948999Y12813537D01*
X201042Y12173343D02*
G01*
X448624Y12420925D01*
X799559Y12771861D02*
G01*
X841236Y12813537D01*
X93203Y12173268D02*
G01*
X400567Y12480632D01*
X691796Y12771861D02*
G01*
X733473Y12813537D01*
X38862Y12226690D02*
G01*
X378085Y12565913D01*
X584033Y12771861D02*
G01*
X625709Y12813537D01*
X38862Y12334453D02*
G01*
X517946Y12813537D01*
X38862Y12442216D02*
G01*
X410183Y12813537D01*
X38862Y12549979D02*
G01*
X302420Y12813537D01*
X38862Y12657742D02*
G01*
X194657Y12813537D01*
X38862Y12765505D02*
G01*
X86894Y12813537D01*
X9092438Y38862D02*
G01*
X38862Y38862D01*
X38862Y38862D02*
G01*
X38862Y685545D01*
X38862Y685545D02*
G01*
X9092438Y685545D01*
X9092438Y685545D02*
G01*
X9092438Y38862D01*
X435982Y189583D02*
G01*
X450442Y176477D01*
X450442Y176477D02*
G01*
X466117Y164852D01*
X466117Y164852D02*
G01*
X482856Y154819D01*
X482856Y154819D02*
G01*
X500497Y146475D01*
X500497Y146475D02*
G01*
X518872Y139901D01*
X518872Y139901D02*
G01*
X537803Y135159D01*
X537803Y135159D02*
G01*
X557107Y132295D01*
X557107Y132295D02*
G01*
X576599Y131338D01*
X576599Y131338D02*
G01*
X896600Y131338D01*
X896600Y131338D02*
G01*
X916092Y132295D01*
X916092Y132295D02*
G01*
X935396Y135159D01*
X935396Y135159D02*
G01*
X954327Y139901D01*
X954327Y139901D02*
G01*
X972702Y146475D01*
X972702Y146475D02*
G01*
X990343Y154819D01*
X990343Y154819D02*
G01*
X1007082Y164852D01*
X1007082Y164852D02*
G01*
X1022757Y176477D01*
X1022757Y176477D02*
G01*
X1037217Y189583D01*
X1037217Y189583D02*
G01*
X1050323Y204043D01*
X1050323Y204043D02*
G01*
X1061948Y219718D01*
X1061948Y219718D02*
G01*
X1071981Y236457D01*
X1071981Y236457D02*
G01*
X1080325Y254098D01*
X1080325Y254098D02*
G01*
X1086899Y272473D01*
X1086899Y272473D02*
G01*
X1091641Y291404D01*
X1091641Y291404D02*
G01*
X1094505Y310708D01*
X1094505Y310708D02*
G01*
X1095462Y330200D01*
X1095462Y330200D02*
G01*
X1094505Y349691D01*
X1094505Y349691D02*
G01*
X1091641Y368995D01*
X1091641Y368995D02*
G01*
X1086899Y387926D01*
X1086899Y387926D02*
G01*
X1080325Y406301D01*
X1080325Y406301D02*
G01*
X1071981Y423942D01*
X1071981Y423942D02*
G01*
X1061948Y440681D01*
X1061948Y440681D02*
G01*
X1050323Y456356D01*
X1050323Y456356D02*
G01*
X1037217Y470816D01*
X1037217Y470816D02*
G01*
X1022757Y483922D01*
X1022757Y483922D02*
G01*
X1007082Y495547D01*
X1007082Y495547D02*
G01*
X990343Y505580D01*
X990343Y505580D02*
G01*
X972702Y513924D01*
X972702Y513924D02*
G01*
X954327Y520498D01*
X954327Y520498D02*
G01*
X935396Y525240D01*
X935396Y525240D02*
G01*
X916092Y528104D01*
X916092Y528104D02*
G01*
X896600Y529061D01*
X896600Y529061D02*
G01*
X576599Y529061D01*
X576599Y529061D02*
G01*
X557107Y528104D01*
X557107Y528104D02*
G01*
X537803Y525240D01*
X537803Y525240D02*
G01*
X518872Y520498D01*
X518872Y520498D02*
G01*
X500497Y513924D01*
X500497Y513924D02*
G01*
X482856Y505580D01*
X482856Y505580D02*
G01*
X466117Y495547D01*
X466117Y495547D02*
G01*
X450442Y483922D01*
X450442Y483922D02*
G01*
X435982Y470816D01*
X435982Y470816D02*
G01*
X422876Y456356D01*
X422876Y456356D02*
G01*
X411251Y440681D01*
X411251Y440681D02*
G01*
X401218Y423942D01*
X401218Y423942D02*
G01*
X392874Y406301D01*
X392874Y406301D02*
G01*
X386300Y387926D01*
X386300Y387926D02*
G01*
X381558Y368995D01*
X381558Y368995D02*
G01*
X378694Y349691D01*
X378694Y349691D02*
G01*
X377737Y330200D01*
X377737Y330200D02*
G01*
X378694Y310708D01*
X378694Y310708D02*
G01*
X381558Y291404D01*
X381558Y291404D02*
G01*
X386300Y272473D01*
X386300Y272473D02*
G01*
X392874Y254098D01*
X392874Y254098D02*
G01*
X401218Y236457D01*
X401218Y236457D02*
G01*
X411251Y219718D01*
X411251Y219718D02*
G01*
X422876Y204043D01*
X422876Y204043D02*
G01*
X435982Y189583D01*
X8068276Y204043D02*
G01*
X8081382Y189583D01*
X8081382Y189583D02*
G01*
X8095842Y176477D01*
X8095842Y176477D02*
G01*
X8111517Y164852D01*
X8111517Y164852D02*
G01*
X8128256Y154819D01*
X8128256Y154819D02*
G01*
X8145897Y146475D01*
X8145897Y146475D02*
G01*
X8164272Y139901D01*
X8164272Y139901D02*
G01*
X8183203Y135159D01*
X8183203Y135159D02*
G01*
X8202507Y132295D01*
X8202507Y132295D02*
G01*
X8221999Y131338D01*
X8221999Y131338D02*
G01*
X8542000Y131338D01*
X8542000Y131338D02*
G01*
X8561492Y132295D01*
X8561492Y132295D02*
G01*
X8580796Y135159D01*
X8580796Y135159D02*
G01*
X8599727Y139901D01*
X8599727Y139901D02*
G01*
X8618102Y146475D01*
X8618102Y146475D02*
G01*
X8635743Y154819D01*
X8635743Y154819D02*
G01*
X8652482Y164852D01*
X8652482Y164852D02*
G01*
X8668157Y176477D01*
X8668157Y176477D02*
G01*
X8682617Y189583D01*
X8682617Y189583D02*
G01*
X8695723Y204043D01*
X8695723Y204043D02*
G01*
X8707348Y219718D01*
X8707348Y219718D02*
G01*
X8717381Y236457D01*
X8717381Y236457D02*
G01*
X8725725Y254098D01*
X8725725Y254098D02*
G01*
X8732299Y272473D01*
X8732299Y272473D02*
G01*
X8737041Y291404D01*
X8737041Y291404D02*
G01*
X8739905Y310708D01*
X8739905Y310708D02*
G01*
X8740862Y330200D01*
X8740862Y330200D02*
G01*
X8739905Y349691D01*
X8739905Y349691D02*
G01*
X8737041Y368995D01*
X8737041Y368995D02*
G01*
X8732299Y387926D01*
X8732299Y387926D02*
G01*
X8725725Y406301D01*
X8725725Y406301D02*
G01*
X8717381Y423942D01*
X8717381Y423942D02*
G01*
X8707348Y440681D01*
X8707348Y440681D02*
G01*
X8695723Y456356D01*
X8695723Y456356D02*
G01*
X8682617Y470816D01*
X8682617Y470816D02*
G01*
X8668157Y483922D01*
X8668157Y483922D02*
G01*
X8652482Y495547D01*
X8652482Y495547D02*
G01*
X8635743Y505580D01*
X8635743Y505580D02*
G01*
X8618102Y513924D01*
X8618102Y513924D02*
G01*
X8599727Y520498D01*
X8599727Y520498D02*
G01*
X8580796Y525240D01*
X8580796Y525240D02*
G01*
X8561492Y528104D01*
X8561492Y528104D02*
G01*
X8542000Y529061D01*
X8542000Y529061D02*
G01*
X8221999Y529061D01*
X8221999Y529061D02*
G01*
X8202507Y528104D01*
X8202507Y528104D02*
G01*
X8183203Y525240D01*
X8183203Y525240D02*
G01*
X8164272Y520498D01*
X8164272Y520498D02*
G01*
X8145897Y513924D01*
X8145897Y513924D02*
G01*
X8128256Y505580D01*
X8128256Y505580D02*
G01*
X8111517Y495547D01*
X8111517Y495547D02*
G01*
X8095842Y483922D01*
X8095842Y483922D02*
G01*
X8081382Y470816D01*
X8081382Y470816D02*
G01*
X8068276Y456356D01*
X8068276Y456356D02*
G01*
X8056651Y440681D01*
X8056651Y440681D02*
G01*
X8046618Y423942D01*
X8046618Y423942D02*
G01*
X8038274Y406301D01*
X8038274Y406301D02*
G01*
X8031700Y387926D01*
X8031700Y387926D02*
G01*
X8026958Y368995D01*
X8026958Y368995D02*
G01*
X8024094Y349691D01*
X8024094Y349691D02*
G01*
X8023137Y330200D01*
X8023137Y330200D02*
G01*
X8024094Y310708D01*
X8024094Y310708D02*
G01*
X8026958Y291404D01*
X8026958Y291404D02*
G01*
X8031700Y272473D01*
X8031700Y272473D02*
G01*
X8038274Y254098D01*
X8038274Y254098D02*
G01*
X8046618Y236457D01*
X8046618Y236457D02*
G01*
X8056651Y219718D01*
X8056651Y219718D02*
G01*
X8068276Y204043D01*
X38862Y50940D02*
G01*
X50940Y38862D01*
X38862Y158703D02*
G01*
X158703Y38862D01*
X38862Y266466D02*
G01*
X266466Y38862D01*
X38862Y374229D02*
G01*
X374229Y38862D01*
X38862Y481992D02*
G01*
X481992Y38862D01*
X38862Y589755D02*
G01*
X418003Y210614D01*
X457013Y171604D02*
G01*
X589755Y38862D01*
X50835Y685545D02*
G01*
X379727Y356653D01*
X605042Y131338D02*
G01*
X697519Y38862D01*
X158598Y685545D02*
G01*
X408332Y435811D01*
X712805Y131338D02*
G01*
X805282Y38862D01*
X266361Y685545D02*
G01*
X460514Y491392D01*
X820568Y131338D02*
G01*
X913045Y38862D01*
X374124Y685545D02*
G01*
X535105Y524564D01*
X925917Y133753D02*
G01*
X1020808Y38862D01*
X481887Y685545D02*
G01*
X638371Y529061D01*
X1004267Y163165D02*
G01*
X1128571Y38862D01*
X589650Y685545D02*
G01*
X746134Y529061D01*
X1059193Y216003D02*
G01*
X1236334Y38862D01*
X697413Y685545D02*
G01*
X853897Y529061D01*
X1091624Y291335D02*
G01*
X1344097Y38862D01*
X805176Y685545D02*
G01*
X980474Y510248D01*
X1076649Y414073D02*
G01*
X1451860Y38862D01*
X912939Y685545D02*
G01*
X1559623Y38862D01*
X1020702Y685545D02*
G01*
X1667386Y38862D01*
X1128465Y685545D02*
G01*
X1775149Y38862D01*
X1236228Y685545D02*
G01*
X1882912Y38862D01*
X1343991Y685545D02*
G01*
X1990675Y38862D01*
X1451755Y685545D02*
G01*
X2098439Y38862D01*
X1559518Y685545D02*
G01*
X2206202Y38862D01*
X1667281Y685545D02*
G01*
X2313965Y38862D01*
X1775044Y685545D02*
G01*
X2421728Y38862D01*
X1882807Y685545D02*
G01*
X2529491Y38862D01*
X1990570Y685545D02*
G01*
X2637254Y38862D01*
X2098333Y685545D02*
G01*
X2745017Y38862D01*
X2206096Y685545D02*
G01*
X2852780Y38862D01*
X2313859Y685545D02*
G01*
X2960543Y38862D01*
X2421622Y685545D02*
G01*
X3068306Y38862D01*
X2529385Y685545D02*
G01*
X3176069Y38862D01*
X2637148Y685545D02*
G01*
X3283832Y38862D01*
X2744911Y685545D02*
G01*
X3391595Y38862D01*
X2852675Y685545D02*
G01*
X3499359Y38862D01*
X2960438Y685545D02*
G01*
X3607122Y38862D01*
X3068201Y685545D02*
G01*
X3714885Y38862D01*
X3175964Y685545D02*
G01*
X3822648Y38862D01*
X3283727Y685545D02*
G01*
X3930411Y38862D01*
X3391490Y685545D02*
G01*
X4038174Y38862D01*
X3499253Y685545D02*
G01*
X4145937Y38862D01*
X3607016Y685545D02*
G01*
X4253700Y38862D01*
X3714779Y685545D02*
G01*
X4361463Y38862D01*
X3822542Y685545D02*
G01*
X4469226Y38862D01*
X3930305Y685545D02*
G01*
X4576989Y38862D01*
X4038068Y685545D02*
G01*
X4684752Y38862D01*
X4145831Y685545D02*
G01*
X4792515Y38862D01*
X4253594Y685545D02*
G01*
X4900278Y38862D01*
X4361358Y685545D02*
G01*
X5008042Y38862D01*
X4469121Y685545D02*
G01*
X5115805Y38862D01*
X4576884Y685545D02*
G01*
X5223568Y38862D01*
X4684647Y685545D02*
G01*
X5331331Y38862D01*
X4792410Y685545D02*
G01*
X5439094Y38862D01*
X4900173Y685545D02*
G01*
X5546857Y38862D01*
X5007936Y685545D02*
G01*
X5654620Y38862D01*
X5115699Y685545D02*
G01*
X5762383Y38862D01*
X5223462Y685545D02*
G01*
X5870146Y38862D01*
X5331225Y685545D02*
G01*
X5977909Y38862D01*
X5438988Y685545D02*
G01*
X6085672Y38862D01*
X5546751Y685545D02*
G01*
X6193435Y38862D01*
X5654514Y685545D02*
G01*
X6301198Y38862D01*
X5762277Y685545D02*
G01*
X6408961Y38862D01*
X5870041Y685545D02*
G01*
X6516725Y38862D01*
X5977804Y685545D02*
G01*
X6624488Y38862D01*
X6085567Y685545D02*
G01*
X6732251Y38862D01*
X6193330Y685545D02*
G01*
X6840014Y38862D01*
X6301093Y685545D02*
G01*
X6947777Y38862D01*
X6408856Y685545D02*
G01*
X7055540Y38862D01*
X6516619Y685545D02*
G01*
X7163303Y38862D01*
X6624382Y685545D02*
G01*
X7271066Y38862D01*
X6732145Y685545D02*
G01*
X7378829Y38862D01*
X6839908Y685545D02*
G01*
X7486592Y38862D01*
X6947671Y685545D02*
G01*
X7594355Y38862D01*
X7055434Y685545D02*
G01*
X7702118Y38862D01*
X7163197Y685545D02*
G01*
X7809881Y38862D01*
X7270960Y685545D02*
G01*
X7917644Y38862D01*
X7378723Y685545D02*
G01*
X8025407Y38862D01*
X7486487Y685545D02*
G01*
X8133171Y38862D01*
X7594250Y685545D02*
G01*
X8051525Y228270D01*
X8120069Y159726D02*
G01*
X8240934Y38862D01*
X7702013Y685545D02*
G01*
X8025873Y361685D01*
X8256220Y131338D02*
G01*
X8348697Y38862D01*
X7809776Y685545D02*
G01*
X8055898Y439424D01*
X8363984Y131338D02*
G01*
X8456460Y38862D01*
X7917539Y685545D02*
G01*
X8109232Y493852D01*
X8471747Y131338D02*
G01*
X8564223Y38862D01*
X8025302Y685545D02*
G01*
X8185297Y525551D01*
X8576348Y134499D02*
G01*
X8671986Y38862D01*
X8133065Y685545D02*
G01*
X8289549Y529061D01*
X8653215Y165396D02*
G01*
X8779749Y38862D01*
X8240828Y685545D02*
G01*
X8397312Y529061D01*
X8707053Y219320D02*
G01*
X8887512Y38862D01*
X8348591Y685545D02*
G01*
X8505075Y529061D01*
X8737776Y296360D02*
G01*
X8995275Y38862D01*
X8456354Y685545D02*
G01*
X8637183Y504717D01*
X8716518Y425382D02*
G01*
X9092438Y49462D01*
X8564117Y685545D02*
G01*
X9092438Y157225D01*
X8671880Y685545D02*
G01*
X9092438Y264988D01*
X8779643Y685545D02*
G01*
X9092438Y372751D01*
X8887406Y685545D02*
G01*
X9092438Y480514D01*
X8995170Y685545D02*
G01*
X9092438Y588278D01*
X9080359Y38862D02*
G01*
X9092438Y50940D01*
X8972596Y38862D02*
G01*
X9092438Y158703D01*
X8864833Y38862D02*
G01*
X9092438Y266466D01*
X8757070Y38862D02*
G01*
X9092438Y374229D01*
X8649307Y38862D02*
G01*
X9092438Y481992D01*
X8541544Y38862D02*
G01*
X9092438Y589755D01*
X8433780Y38862D02*
G01*
X8526257Y131338D01*
X8740125Y345206D02*
G01*
X9080464Y685545D01*
X8326017Y38862D02*
G01*
X8418494Y131338D01*
X8715026Y427870D02*
G01*
X8972701Y685545D01*
X8218254Y38862D02*
G01*
X8310731Y131338D01*
X8665377Y485984D02*
G01*
X8864938Y685545D01*
X8110491Y38862D02*
G01*
X8203859Y132229D01*
X8593650Y522020D02*
G01*
X8757175Y685545D01*
X8002728Y38862D02*
G01*
X8122272Y158406D01*
X8492928Y529061D02*
G01*
X8649412Y685545D01*
X7894965Y38862D02*
G01*
X8064814Y208711D01*
X8385165Y529061D02*
G01*
X8541649Y685545D01*
X7787202Y38862D02*
G01*
X8029519Y281179D01*
X8277402Y529061D02*
G01*
X8433886Y685545D01*
X7679439Y38862D02*
G01*
X8033481Y392903D01*
X8159295Y518717D02*
G01*
X8326123Y685545D01*
X7571676Y38862D02*
G01*
X8218360Y685545D01*
X7463913Y38862D02*
G01*
X8110597Y685545D01*
X7356150Y38862D02*
G01*
X8002834Y685545D01*
X7248387Y38862D02*
G01*
X7895071Y685545D01*
X7140624Y38862D02*
G01*
X7787308Y685545D01*
X7032860Y38862D02*
G01*
X7679544Y685545D01*
X6925097Y38862D02*
G01*
X7571781Y685545D01*
X6817334Y38862D02*
G01*
X7464018Y685545D01*
X6709571Y38862D02*
G01*
X7356255Y685545D01*
X6601808Y38862D02*
G01*
X7248492Y685545D01*
X6494045Y38862D02*
G01*
X7140729Y685545D01*
X6386282Y38862D02*
G01*
X7032966Y685545D01*
X6278519Y38862D02*
G01*
X6925203Y685545D01*
X6170756Y38862D02*
G01*
X6817440Y685545D01*
X6062993Y38862D02*
G01*
X6709677Y685545D01*
X5955230Y38862D02*
G01*
X6601914Y685545D01*
X5847467Y38862D02*
G01*
X6494151Y685545D01*
X5739704Y38862D02*
G01*
X6386388Y685545D01*
X5631940Y38862D02*
G01*
X6278624Y685545D01*
X5524177Y38862D02*
G01*
X6170861Y685545D01*
X5416414Y38862D02*
G01*
X6063098Y685545D01*
X5308651Y38862D02*
G01*
X5955335Y685545D01*
X5200888Y38862D02*
G01*
X5847572Y685545D01*
X5093125Y38862D02*
G01*
X5739809Y685545D01*
X4985362Y38862D02*
G01*
X5632046Y685545D01*
X4877599Y38862D02*
G01*
X5524283Y685545D01*
X4769836Y38862D02*
G01*
X5416520Y685545D01*
X4662073Y38862D02*
G01*
X5308757Y685545D01*
X4554310Y38862D02*
G01*
X5200994Y685545D01*
X4446547Y38862D02*
G01*
X5093231Y685545D01*
X4338784Y38862D02*
G01*
X4985468Y685545D01*
X4231021Y38862D02*
G01*
X4877705Y685545D01*
X4123257Y38862D02*
G01*
X4769941Y685545D01*
X4015494Y38862D02*
G01*
X4662178Y685545D01*
X3907731Y38862D02*
G01*
X4554415Y685545D01*
X3799968Y38862D02*
G01*
X4446652Y685545D01*
X3692205Y38862D02*
G01*
X4338889Y685545D01*
X3584442Y38862D02*
G01*
X4231126Y685545D01*
X3476679Y38862D02*
G01*
X4123363Y685545D01*
X3368916Y38862D02*
G01*
X4015600Y685545D01*
X3261153Y38862D02*
G01*
X3907837Y685545D01*
X3153390Y38862D02*
G01*
X3800074Y685545D01*
X3045627Y38862D02*
G01*
X3692311Y685545D01*
X2937864Y38862D02*
G01*
X3584548Y685545D01*
X2830101Y38862D02*
G01*
X3476785Y685545D01*
X2722338Y38862D02*
G01*
X3369022Y685545D01*
X2614574Y38862D02*
G01*
X3261258Y685545D01*
X2506811Y38862D02*
G01*
X3153495Y685545D01*
X2399048Y38862D02*
G01*
X3045732Y685545D01*
X2291285Y38862D02*
G01*
X2937969Y685545D01*
X2183522Y38862D02*
G01*
X2830206Y685545D01*
X2075759Y38862D02*
G01*
X2722443Y685545D01*
X1967996Y38862D02*
G01*
X2614680Y685545D01*
X1860233Y38862D02*
G01*
X2506917Y685545D01*
X1752470Y38862D02*
G01*
X2399154Y685545D01*
X1644707Y38862D02*
G01*
X2291391Y685545D01*
X1536944Y38862D02*
G01*
X2183628Y685545D01*
X1429181Y38862D02*
G01*
X2075865Y685545D01*
X1321418Y38862D02*
G01*
X1968102Y685545D01*
X1213655Y38862D02*
G01*
X1860339Y685545D01*
X1105892Y38862D02*
G01*
X1752576Y685545D01*
X998128Y38862D02*
G01*
X1644812Y685545D01*
X890365Y38862D02*
G01*
X1537049Y685545D01*
X782602Y38862D02*
G01*
X875079Y131338D01*
X1094366Y350625D02*
G01*
X1429286Y685545D01*
X674839Y38862D02*
G01*
X767315Y131338D01*
X1067461Y431483D02*
G01*
X1321523Y685545D01*
X567076Y38862D02*
G01*
X659552Y131338D01*
X1016659Y488444D02*
G01*
X1213760Y685545D01*
X459313Y38862D02*
G01*
X553310Y132859D01*
X943629Y523178D02*
G01*
X1105997Y685545D01*
X351550Y38862D02*
G01*
X473259Y160571D01*
X841750Y529061D02*
G01*
X998234Y685545D01*
X243787Y38862D02*
G01*
X416954Y212029D01*
X733987Y529061D02*
G01*
X890471Y685545D01*
X136024Y38862D02*
G01*
X382962Y285799D01*
X626224Y529061D02*
G01*
X782708Y685545D01*
X38862Y49462D02*
G01*
X391300Y401901D01*
X504897Y515498D02*
G01*
X674945Y685545D01*
X38862Y157225D02*
G01*
X567182Y685545D01*
X38862Y264988D02*
G01*
X459419Y685545D01*
X38862Y372751D02*
G01*
X351656Y685545D01*
X38862Y480514D02*
G01*
X243893Y685545D01*
X38862Y588278D02*
G01*
X136129Y685545D01*
D11*
G01*
X736600Y12573000D03*
G01*
X8382000Y12573000D03*
G01*
X736600Y330200D03*
G01*
X8382000Y330200D03*
M02*
