G04 Layer: BoardOutlineLayer*
G04 EasyEDA v6.5.34, 2023-08-21 18:11:39*
G04 55fea8646dbd4ef485edb4a4bd6a11f4,5a6b42c53f6a479593ecc07194224c93,10*
G04 Gerber Generator version 0.2*
G04 Scale: 100 percent, Rotated: No, Reflected: No *
G04 Dimensions in millimeters *
G04 leading zeros omitted , absolute positions ,4 integer and 5 decimal *
%FSLAX45Y45*%
%MOMM*%

%ADD10C,0.2540*%
D10*
X0Y12852400D02*
G01*
X9131300Y12852400D01*
X9131300Y0D01*
X0Y0D01*
X0Y12852400D01*
G75*
G01*
X1135797Y3664748D02*
G03*
X1135553Y4263443I-234196J299252D01*
X1135552Y4263443D02*
G01*
X1135796Y3664747D01*
X667202Y4263999D02*
G01*
X667202Y3664000D01*
X667202Y3664000D02*
G01*
X1136202Y3664000D01*
X1136202Y3664000D02*
G01*
X1136202Y4263999D01*
X1136202Y4263999D02*
G01*
X667202Y4263999D01*
G75*
G01*
X667405Y3664748D02*
G02*
X667649Y4263443I234195J299252D01*
X667649Y4263443D02*
G01*
X667405Y3664747D01*
G75*
G01*
X1135797Y8387347D02*
G03*
X1135553Y8986042I-234196J299252D01*
X1135552Y8986042D02*
G01*
X1135796Y8387346D01*
X667202Y8986598D02*
G01*
X667202Y8386599D01*
X667202Y8386599D02*
G01*
X1136202Y8386599D01*
X1136202Y8386599D02*
G01*
X1136202Y8986598D01*
X1136202Y8986598D02*
G01*
X667202Y8986598D01*
G75*
G01*
X667405Y8387347D02*
G02*
X667649Y8986042I234195J299252D01*
X667649Y8986042D02*
G01*
X667405Y8387346D01*
X1828800Y11571300D02*
G01*
X1828800Y1071321D01*
X1828800Y1071321D02*
G01*
X7328788Y1071321D01*
X7328788Y1071321D02*
G01*
X7328788Y11571300D01*
X7328788Y11571300D02*
G01*
X1828800Y11571300D01*
G75*
G01*
X7986187Y8381606D02*
G02*
X7986431Y8980302I234195J299253D01*
X7986430Y8980302D02*
G01*
X7986186Y8381606D01*
X7985983Y8980858D02*
G01*
X7985983Y8380859D01*
X7985983Y8380859D02*
G01*
X8454984Y8380859D01*
X8454984Y8380859D02*
G01*
X8454984Y8980858D01*
X8454984Y8980858D02*
G01*
X7985983Y8980858D01*
G75*
G01*
X8454578Y8381606D02*
G03*
X8454334Y8980302I-234195J299253D01*
X8454334Y8980302D02*
G01*
X8454577Y8381606D01*
G75*
G01*
X7986187Y3659007D02*
G02*
X7986431Y4257703I234195J299253D01*
X7986430Y4257702D02*
G01*
X7986186Y3659007D01*
X7985983Y4258259D02*
G01*
X7985983Y3658260D01*
X7985983Y3658260D02*
G01*
X8454984Y3658260D01*
X8454984Y3658260D02*
G01*
X8454984Y4258259D01*
X8454984Y4258259D02*
G01*
X7985983Y4258259D01*
G75*
G01*
X8454578Y3659007D02*
G03*
X8454334Y4257703I-234195J299253D01*
X8454334Y4257702D02*
G01*
X8454577Y3659007D01*
X444500Y7266000D02*
G01*
X444500Y5386400D01*
X444500Y5386400D02*
G01*
X1371600Y5386400D01*
X1371600Y5386400D02*
G01*
X1371600Y7266000D01*
X1371600Y7266000D02*
G01*
X444500Y7266000D01*
X450850Y2935300D02*
G01*
X450850Y1055700D01*
X450850Y1055700D02*
G01*
X1377950Y1055700D01*
X1377950Y1055700D02*
G01*
X1377950Y2935300D01*
X1377950Y2935300D02*
G01*
X450850Y2935300D01*
X7772400Y2948000D02*
G01*
X7772400Y1068400D01*
X7772400Y1068400D02*
G01*
X8699500Y1068400D01*
X8699500Y1068400D02*
G01*
X8699500Y2948000D01*
X8699500Y2948000D02*
G01*
X7772400Y2948000D01*
X7766050Y7266000D02*
G01*
X7766050Y5386400D01*
X7766050Y5386400D02*
G01*
X8693150Y5386400D01*
X8693150Y5386400D02*
G01*
X8693150Y7266000D01*
X8693150Y7266000D02*
G01*
X7766050Y7266000D01*
X419100Y11569700D02*
G01*
X419100Y10287000D01*
X419100Y10287000D02*
G01*
X1409700Y10287000D01*
X1409700Y10287000D02*
G01*
X1409098Y11569700D01*
X1409098Y11569700D02*
G01*
X419100Y11569700D01*

%LPD*%
M02*
