G04 Layer: BottomSilkscreenLayer*
G04 EasyEDA v6.5.29, 2023-07-18 11:26:45*
G04 a794a4778db64c7d861d37b3cbaf2f3d,5a6b42c53f6a479593ecc07194224c93,10*
G04 Gerber Generator version 0.2*
G04 Scale: 100 percent, Rotated: No, Reflected: No *
G04 Dimensions in millimeters *
G04 leading zeros omitted , absolute positions ,4 integer and 5 decimal *
%FSLAX45Y45*%
%MOMM*%

%ADD10C,0.2032*%

%LPD*%
D10*
X1308100Y11843189D02*
G01*
X1308100Y11728645D01*
X1308100Y11843189D02*
G01*
X1237190Y11843189D01*
X1308100Y11788645D02*
G01*
X1264462Y11788645D01*
X1201191Y11843189D02*
G01*
X1201191Y11728645D01*
X1201191Y11843189D02*
G01*
X1152100Y11843189D01*
X1135735Y11837736D01*
X1130282Y11832282D01*
X1124828Y11821373D01*
X1124828Y11810464D01*
X1130282Y11799554D01*
X1135735Y11794098D01*
X1152100Y11788645D01*
X1201191Y11788645D01*
X1163010Y11788645D02*
G01*
X1124828Y11728645D01*
X1056101Y11843189D02*
G01*
X1067010Y11837736D01*
X1077917Y11826826D01*
X1083373Y11815917D01*
X1088826Y11799554D01*
X1088826Y11772282D01*
X1083373Y11755917D01*
X1077917Y11745008D01*
X1067010Y11734098D01*
X1056101Y11728645D01*
X1034282Y11728645D01*
X1023373Y11734098D01*
X1012464Y11745008D01*
X1007010Y11755917D01*
X1001555Y11772282D01*
X1001555Y11799554D01*
X1007010Y11815917D01*
X1012464Y11826826D01*
X1023373Y11837736D01*
X1034282Y11843189D01*
X1056101Y11843189D01*
X965555Y11843189D02*
G01*
X965555Y11728645D01*
X965555Y11843189D02*
G01*
X889190Y11728645D01*
X889190Y11843189D02*
G01*
X889190Y11728645D01*
X815009Y11843189D02*
G01*
X815009Y11728645D01*
X853191Y11843189D02*
G01*
X776828Y11843189D01*
X656828Y11843189D02*
G01*
X656828Y11728645D01*
X656828Y11843189D02*
G01*
X607738Y11843189D01*
X591372Y11837736D01*
X585919Y11832282D01*
X580466Y11821373D01*
X580466Y11805008D01*
X585919Y11794098D01*
X591372Y11788645D01*
X607738Y11783189D01*
X656828Y11783189D01*
X500829Y11843189D02*
G01*
X544464Y11728645D01*
X500829Y11843189D02*
G01*
X457192Y11728645D01*
X528101Y11766826D02*
G01*
X473555Y11766826D01*
X421192Y11843189D02*
G01*
X421192Y11728645D01*
X421192Y11843189D02*
G01*
X344830Y11728645D01*
X344830Y11843189D02*
G01*
X344830Y11728645D01*
X308828Y11843189D02*
G01*
X308828Y11728645D01*
X308828Y11843189D02*
G01*
X237919Y11843189D01*
X308828Y11788645D02*
G01*
X265193Y11788645D01*
X308828Y11728645D02*
G01*
X237919Y11728645D01*
X201919Y11843189D02*
G01*
X201919Y11728645D01*
X201919Y11728645D02*
G01*
X136466Y11728645D01*
X1320800Y11551089D02*
G01*
X1320800Y11436545D01*
X1320800Y11551089D02*
G01*
X1271709Y11551089D01*
X1255346Y11545636D01*
X1249890Y11540182D01*
X1244437Y11529273D01*
X1244437Y11512908D01*
X1249890Y11501998D01*
X1255346Y11496545D01*
X1271709Y11491089D01*
X1320800Y11491089D01*
X1164800Y11551089D02*
G01*
X1208435Y11436545D01*
X1164800Y11551089D02*
G01*
X1121163Y11436545D01*
X1192072Y11474726D02*
G01*
X1137528Y11474726D01*
X1085164Y11551089D02*
G01*
X1085164Y11436545D01*
X1085164Y11551089D02*
G01*
X1036073Y11551089D01*
X1019710Y11545636D01*
X1014255Y11540182D01*
X1008801Y11529273D01*
X1008801Y11518364D01*
X1014255Y11507454D01*
X1019710Y11501998D01*
X1036073Y11496545D01*
X1085164Y11496545D01*
X1046982Y11496545D02*
G01*
X1008801Y11436545D01*
X934618Y11551089D02*
G01*
X934618Y11436545D01*
X972799Y11551089D02*
G01*
X896437Y11551089D01*
X776437Y11551089D02*
G01*
X776437Y11436545D01*
X776437Y11551089D02*
G01*
X700074Y11436545D01*
X700074Y11551089D02*
G01*
X700074Y11436545D01*
X664072Y11551089D02*
G01*
X664072Y11469273D01*
X658619Y11452908D01*
X647710Y11441998D01*
X631347Y11436545D01*
X620438Y11436545D01*
X604072Y11441998D01*
X593166Y11452908D01*
X587710Y11469273D01*
X587710Y11551089D01*
X551710Y11551089D02*
G01*
X551710Y11436545D01*
X551710Y11551089D02*
G01*
X508073Y11436545D01*
X464438Y11551089D02*
G01*
X508073Y11436545D01*
X464438Y11551089D02*
G01*
X464438Y11436545D01*
X428437Y11551089D02*
G01*
X428437Y11436545D01*
X428437Y11551089D02*
G01*
X379346Y11551089D01*
X362983Y11545636D01*
X357530Y11540182D01*
X352074Y11529273D01*
X352074Y11518364D01*
X357530Y11507454D01*
X362983Y11501998D01*
X379346Y11496545D01*
X428437Y11496545D02*
G01*
X379346Y11496545D01*
X362983Y11491089D01*
X357530Y11485636D01*
X352074Y11474726D01*
X352074Y11458364D01*
X357530Y11447454D01*
X362983Y11441998D01*
X379346Y11436545D01*
X428437Y11436545D01*
X316075Y11551089D02*
G01*
X316075Y11436545D01*
X316075Y11551089D02*
G01*
X245165Y11551089D01*
X316075Y11496545D02*
G01*
X272437Y11496545D01*
X316075Y11436545D02*
G01*
X245165Y11436545D01*
X209166Y11551089D02*
G01*
X209166Y11436545D01*
X209166Y11551089D02*
G01*
X160075Y11551089D01*
X143710Y11545636D01*
X138257Y11540182D01*
X132801Y11529273D01*
X132801Y11518364D01*
X138257Y11507454D01*
X143710Y11501998D01*
X160075Y11496545D01*
X209166Y11496545D01*
X170985Y11496545D02*
G01*
X132801Y11436545D01*
X1289946Y11307917D02*
G01*
X1289946Y11313373D01*
X1284490Y11324282D01*
X1279037Y11329736D01*
X1268128Y11335189D01*
X1246309Y11335189D01*
X1235400Y11329736D01*
X1229946Y11324282D01*
X1224490Y11313373D01*
X1224490Y11302464D01*
X1229946Y11291554D01*
X1240853Y11275189D01*
X1295400Y11220645D01*
X1219037Y11220645D01*
X1183035Y11313373D02*
G01*
X1172128Y11318826D01*
X1155763Y11335189D01*
X1155763Y11220645D01*
X1087036Y11335189D02*
G01*
X1103401Y11329736D01*
X1114310Y11313373D01*
X1119764Y11286098D01*
X1119764Y11269736D01*
X1114310Y11242464D01*
X1103401Y11226098D01*
X1087036Y11220645D01*
X1076126Y11220645D01*
X1059764Y11226098D01*
X1048854Y11242464D01*
X1043401Y11269736D01*
X1043401Y11286098D01*
X1048854Y11313373D01*
X1059764Y11329736D01*
X1076126Y11335189D01*
X1087036Y11335189D01*
X996490Y11335189D02*
G01*
X936490Y11335189D01*
X969218Y11291554D01*
X952855Y11291554D01*
X941946Y11286098D01*
X936490Y11280645D01*
X931036Y11264282D01*
X931036Y11253373D01*
X936490Y11237008D01*
X947399Y11226098D01*
X963764Y11220645D01*
X980127Y11220645D01*
X996490Y11226098D01*
X1001946Y11231554D01*
X1007399Y11242464D01*
X895037Y11269736D02*
G01*
X796856Y11269736D01*
X728129Y11335189D02*
G01*
X744491Y11329736D01*
X755401Y11313373D01*
X760854Y11286098D01*
X760854Y11269736D01*
X755401Y11242464D01*
X744491Y11226098D01*
X728129Y11220645D01*
X717219Y11220645D01*
X700854Y11226098D01*
X689947Y11242464D01*
X684491Y11269736D01*
X684491Y11286098D01*
X689947Y11313373D01*
X700854Y11329736D01*
X717219Y11335189D01*
X728129Y11335189D01*
X648492Y11313373D02*
G01*
X637583Y11318826D01*
X621220Y11335189D01*
X621220Y11220645D01*
X552493Y11335189D02*
G01*
X568855Y11329736D01*
X579765Y11313373D01*
X585218Y11286098D01*
X585218Y11269736D01*
X579765Y11242464D01*
X568855Y11226098D01*
X552493Y11220645D01*
X541583Y11220645D01*
X525218Y11226098D01*
X514311Y11242464D01*
X508855Y11269736D01*
X508855Y11286098D01*
X514311Y11313373D01*
X525218Y11329736D01*
X541583Y11335189D01*
X552493Y11335189D01*
X472856Y11313373D02*
G01*
X461947Y11318826D01*
X445584Y11335189D01*
X445584Y11220645D01*
X325584Y11335189D02*
G01*
X281947Y11220645D01*
X238310Y11335189D02*
G01*
X281947Y11220645D01*
X202311Y11313373D02*
G01*
X191401Y11318826D01*
X175039Y11335189D01*
X175039Y11220645D01*
X1291590Y908557D02*
G01*
X1291590Y821181D01*
X1297177Y804926D01*
X1302511Y799337D01*
X1313434Y794004D01*
X1324356Y794004D01*
X1335277Y799337D01*
X1340865Y804926D01*
X1346200Y821181D01*
X1346200Y832104D01*
X1255775Y908557D02*
G01*
X1255775Y794004D01*
X1255775Y794004D02*
G01*
X1190243Y794004D01*
X1072388Y881126D02*
G01*
X1077722Y892047D01*
X1088643Y902970D01*
X1099565Y908557D01*
X1121409Y908557D01*
X1132331Y902970D01*
X1143254Y892047D01*
X1148841Y881126D01*
X1154175Y864870D01*
X1154175Y837692D01*
X1148841Y821181D01*
X1143254Y810260D01*
X1132331Y799337D01*
X1121409Y794004D01*
X1099565Y794004D01*
X1088643Y799337D01*
X1077722Y810260D01*
X1072388Y821181D01*
X981963Y908557D02*
G01*
X981963Y821181D01*
X987297Y804926D01*
X992631Y799337D01*
X1003554Y794004D01*
X1014475Y794004D01*
X1025397Y799337D01*
X1030986Y804926D01*
X1036320Y821181D01*
X1036320Y832104D01*
X945895Y908557D02*
G01*
X945895Y794004D01*
X945895Y794004D02*
G01*
X880363Y794004D01*
X762508Y881126D02*
G01*
X768095Y892047D01*
X779018Y902970D01*
X789940Y908557D01*
X811529Y908557D01*
X822452Y902970D01*
X833374Y892047D01*
X838961Y881126D01*
X844295Y864870D01*
X844295Y837692D01*
X838961Y821181D01*
X833374Y810260D01*
X822452Y799337D01*
X811529Y794004D01*
X789940Y794004D01*
X779018Y799337D01*
X768095Y810260D01*
X762508Y821181D01*
X672084Y908557D02*
G01*
X672084Y821181D01*
X677418Y804926D01*
X683006Y799337D01*
X693927Y794004D01*
X704850Y794004D01*
X715772Y799337D01*
X721106Y804926D01*
X726440Y821181D01*
X726440Y832104D01*
X636015Y908557D02*
G01*
X636015Y794004D01*
X636015Y794004D02*
G01*
X570484Y794004D01*
X452628Y881126D02*
G01*
X458215Y892047D01*
X469137Y902970D01*
X480060Y908557D01*
X501904Y908557D01*
X512826Y902970D01*
X523747Y892047D01*
X529081Y881126D01*
X534670Y864870D01*
X534670Y837692D01*
X529081Y821181D01*
X523747Y810260D01*
X512826Y799337D01*
X501904Y794004D01*
X480060Y794004D01*
X469137Y799337D01*
X458215Y810260D01*
X452628Y821181D01*
X362204Y908557D02*
G01*
X362204Y821181D01*
X367537Y804926D01*
X373126Y799337D01*
X384047Y794004D01*
X394970Y794004D01*
X405892Y799337D01*
X411226Y804926D01*
X416813Y821181D01*
X416813Y832104D01*
X326136Y908557D02*
G01*
X326136Y794004D01*
X326136Y794004D02*
G01*
X260857Y794004D01*
X143002Y881126D02*
G01*
X148336Y892047D01*
X159257Y902970D01*
X170179Y908557D01*
X192023Y908557D01*
X202945Y902970D01*
X213868Y892047D01*
X219202Y881126D01*
X224789Y864870D01*
X224789Y837692D01*
X219202Y821181D01*
X213868Y810260D01*
X202945Y799337D01*
X192023Y794004D01*
X170179Y794004D01*
X159257Y799337D01*
X148336Y810260D01*
X143002Y821181D01*
X1259090Y12059089D02*
G01*
X1199090Y12059089D01*
X1231818Y12015454D01*
X1215453Y12015454D01*
X1204546Y12009998D01*
X1199090Y12004545D01*
X1193637Y11988182D01*
X1193637Y11977273D01*
X1199090Y11960908D01*
X1210000Y11949998D01*
X1226362Y11944545D01*
X1242728Y11944545D01*
X1259090Y11949998D01*
X1264546Y11955454D01*
X1270000Y11966364D01*
X1157635Y12059089D02*
G01*
X1157635Y11944545D01*
X1081272Y12059089D02*
G01*
X1081272Y11944545D01*
X1157635Y12004545D02*
G01*
X1081272Y12004545D01*
X1045273Y12059089D02*
G01*
X1045273Y11944545D01*
X1045273Y12059089D02*
G01*
X996182Y12059089D01*
X979817Y12053636D01*
X974364Y12048182D01*
X968910Y12037273D01*
X968910Y12020908D01*
X974364Y12009998D01*
X979817Y12004545D01*
X996182Y11999089D01*
X1045273Y11999089D01*
X772546Y12042726D02*
G01*
X783455Y12053636D01*
X799818Y12059089D01*
X821636Y12059089D01*
X838001Y12053636D01*
X848911Y12042726D01*
X848911Y12031817D01*
X843455Y12020908D01*
X838001Y12015454D01*
X827092Y12009998D01*
X794364Y11999089D01*
X783455Y11993636D01*
X778002Y11988182D01*
X772546Y11977273D01*
X772546Y11960908D01*
X783455Y11949998D01*
X799818Y11944545D01*
X821636Y11944545D01*
X838001Y11949998D01*
X848911Y11960908D01*
X736546Y12059089D02*
G01*
X736546Y11944545D01*
X736546Y12059089D02*
G01*
X687456Y12059089D01*
X671090Y12053636D01*
X665637Y12048182D01*
X660184Y12037273D01*
X660184Y12020908D01*
X665637Y12009998D01*
X671090Y12004545D01*
X687456Y11999089D01*
X736546Y11999089D01*
X580547Y12059089D02*
G01*
X624182Y11944545D01*
X580547Y12059089D02*
G01*
X536910Y11944545D01*
X607819Y11982726D02*
G01*
X553272Y11982726D01*
X419092Y12031817D02*
G01*
X424548Y12042726D01*
X435455Y12053636D01*
X446364Y12059089D01*
X468182Y12059089D01*
X479092Y12053636D01*
X490001Y12042726D01*
X495454Y12031817D01*
X500910Y12015454D01*
X500910Y11988182D01*
X495454Y11971817D01*
X490001Y11960908D01*
X479092Y11949998D01*
X468182Y11944545D01*
X446364Y11944545D01*
X435455Y11949998D01*
X424548Y11960908D01*
X419092Y11971817D01*
X383092Y12059089D02*
G01*
X383092Y11944545D01*
X383092Y12059089D02*
G01*
X312183Y12059089D01*
X383092Y12004545D02*
G01*
X339455Y12004545D01*
X383092Y11944545D02*
G01*
X312183Y11944545D01*
X276184Y12059089D02*
G01*
X276184Y11944545D01*
X276184Y12059089D02*
G01*
X227093Y12059089D01*
X210728Y12053636D01*
X205275Y12048182D01*
X199819Y12037273D01*
X199819Y12026364D01*
X205275Y12015454D01*
X210728Y12009998D01*
X227093Y12004545D01*
X276184Y12004545D01*
X238003Y12004545D02*
G01*
X199819Y11944545D01*
M02*
