G04 Layer: TopLayer*
G04 EasyEDA v6.5.29, 2023-07-18 11:26:45*
G04 a794a4778db64c7d861d37b3cbaf2f3d,5a6b42c53f6a479593ecc07194224c93,10*
G04 Gerber Generator version 0.2*
G04 Scale: 100 percent, Rotated: No, Reflected: No *
G04 Dimensions in millimeters *
G04 leading zeros omitted , absolute positions ,4 integer and 5 decimal *
%FSLAX45Y45*%
%MOMM*%

%ADD10C,0.2540*%
%ADD11O,6.4000126X3.1999936*%

%LPD*%
D10*
X-5621Y12089389D02*
G01*
X2849Y12106107D01*
X2849Y12121052D02*
G01*
X11308Y12134303D01*
X11308Y12145274D02*
G01*
X19778Y12154011D01*
X19778Y12160095D02*
G01*
X28249Y12163511D01*
X28249Y12164087D02*
G01*
X36708Y12161756D01*
X36708Y12156567D02*
G01*
X45178Y12148444D01*
X45178Y12137684D02*
G01*
X53649Y12124176D01*
X53649Y12108477D02*
G01*
X62108Y12090450D01*
X62108Y12070877D02*
G01*
X70578Y12049615D01*
X70578Y12027618D02*
G01*
X79049Y12004756D01*
X79049Y11982066D02*
G01*
X87508Y11959450D01*
X87508Y11937969D02*
G01*
X95978Y11917547D01*
X95978Y11899168D02*
G01*
X104449Y11882798D01*
X104449Y11869254D02*
G01*
X112908Y11858531D01*
X112908Y11851203D02*
G01*
X121378Y11847296D01*
X121378Y11847052D02*
G01*
X129849Y11850545D01*
X129849Y11857644D02*
G01*
X138308Y11868434D01*
X138308Y11882432D02*
G01*
X146778Y11899706D01*
X146778Y11919427D02*
G01*
X155249Y11941683D01*
X155249Y11965348D02*
G01*
X163708Y11990481D01*
X163708Y12015774D02*
G01*
X172178Y12041286D01*
X172178Y12065632D02*
G01*
X180649Y12088850D01*
X180649Y12109635D02*
G01*
X189108Y12127984D01*
X189108Y12142848D02*
G01*
X197578Y12154184D01*
X197578Y12161316D02*
G01*
X206049Y12164174D01*
X206049Y12162538D02*
G01*
X214508Y12156343D01*
X214508Y12145881D02*
G01*
X222978Y12131093D01*
X222978Y12112774D02*
G01*
X231449Y12090890D01*
X231449Y12066681D02*
G01*
X239908Y12040133D01*
X239908Y12012805D02*
G01*
X248378Y11984708D01*
X248378Y11957545D02*
G01*
X256849Y11931365D01*
X256849Y11907794D02*
G01*
X265308Y11886890D01*
X265308Y11870021D02*
G01*
X273778Y11857253D01*
X273778Y11849460D02*
G01*
X282249Y11846712D01*
X282249Y11849260D02*
G01*
X290708Y11857179D01*
X290708Y11870004D02*
G01*
X299178Y11887776D01*
X299178Y11909374D02*
G01*
X307649Y11934812D01*
X307649Y11962401D02*
G01*
X316108Y11992112D01*
X316108Y12021931D02*
G01*
X324578Y12051779D01*
X324578Y12079584D02*
G01*
X333049Y12105225D01*
X333049Y12126882D02*
G01*
X341508Y12144430D01*
X341508Y12156559D02*
G01*
X349978Y12163170D01*
X349978Y12163709D02*
G01*
X358449Y12158103D01*
X358449Y12146681D02*
G01*
X366908Y12129437D01*
X366908Y12107557D02*
G01*
X375378Y12081103D01*
X375378Y12052007D02*
G01*
X383849Y12020356D01*
X383849Y11988558D02*
G01*
X392308Y11956745D01*
X392308Y11927395D02*
G01*
X400778Y11900674D01*
X400778Y11878703D02*
G01*
X409249Y11861670D01*
X409249Y11850971D02*
G01*
X417708Y11846750D01*
X417708Y11849417D02*
G01*
X426178Y11859028D01*
X426178Y11874883D02*
G01*
X434649Y11896961D01*
X434649Y11923501D02*
G01*
X443108Y11954395D01*
X443108Y11987095D02*
G01*
X451578Y12021411D01*
X451578Y12054459D02*
G01*
X460049Y12085985D01*
X460049Y12113282D02*
G01*
X468508Y12136097D01*
X468508Y12152406D02*
G01*
X476978Y12162010D01*
X476978Y12164001D02*
G01*
X485449Y12158284D01*
X485449Y12145269D02*
G01*
X493908Y12124997D01*
X493908Y12099211D02*
G01*
X502378Y12068063D01*
X502378Y12034354D02*
G01*
X510849Y11998325D01*
X510849Y11963288D02*
G01*
X519308Y11929567D01*
X519308Y11900321D02*
G01*
X527778Y11875863D01*
X527778Y11858556D02*
G01*
X536249Y11848635D01*
X536249Y11847134D02*
G01*
X544708Y11854141D01*
X544708Y11869066D02*
G01*
X553178Y11891850D01*
X553178Y11920326D02*
G01*
X561649Y11954271D01*
X561649Y11990362D02*
G01*
X570108Y12028251D01*
X570108Y12064144D02*
G01*
X578578Y12097649D01*
X578578Y12125325D02*
G01*
X587049Y12146818D01*
X587049Y12159853D02*
G01*
X595508Y12164207D01*
X595508Y12159338D02*
G01*
X603978Y12145218D01*
X603978Y12123242D02*
G01*
X612449Y12093587D01*
X612449Y12059351D02*
G01*
X620908Y12020890D01*
X620908Y11982307D02*
G01*
X629378Y11944083D01*
X629378Y11910380D02*
G01*
X637849Y11881662D01*
X637849Y11861142D02*
G01*
X646308Y11849155D01*
X646308Y11847128D02*
G01*
X654778Y11855170D01*
X654778Y11872465D02*
G01*
X663249Y11898876D01*
X663249Y11931464D02*
G01*
X671708Y11969849D01*
X671708Y12009661D02*
G01*
X680178Y12050364D01*
X680178Y12087212D02*
G01*
X688649Y12119663D01*
X688649Y12143836D02*
G01*
X697108Y12159325D01*
X697108Y12164207D02*
G01*
X705578Y12158309D01*
X705578Y12142254D02*
G01*
X714049Y12116178D01*
X714049Y12083188D02*
G01*
X722508Y12043704D01*
X722508Y12002554D02*
G01*
X730978Y11960331D01*
X730978Y11922292D02*
G01*
X739449Y11889071D01*
X739449Y11864893D02*
G01*
X747908Y11850204D01*
X747908Y11846961D02*
G01*
X756378Y11855312D01*
X756378Y11874289D02*
G01*
X764849Y11903664D01*
X764849Y11939699D02*
G01*
X773308Y11981873D01*
X773308Y12024680D02*
G01*
X781778Y12067418D01*
X781778Y12104403D02*
G01*
X790249Y12134961D01*
X790249Y12154949D02*
G01*
X798708Y12163920D01*
X798708Y12160577D02*
G01*
X807178Y12144877D01*
X807178Y12118868D02*
G01*
X815649Y12082934D01*
X815649Y12041962D02*
G01*
X824108Y11996643D01*
X824108Y11953293D02*
G01*
X832578Y11912706D01*
X832578Y11880644D02*
G01*
X841049Y11857763D01*
X841049Y11847400D02*
G01*
X849508Y11849849D01*
X849508Y11864863D02*
G01*
X857978Y11892241D01*
X857978Y11928109D02*
G01*
X866449Y11971832D01*
X866449Y12017052D02*
G01*
X874908Y12062896D01*
X874908Y12102566D02*
G01*
X883378Y12135220D01*
X883378Y12155926D02*
G01*
X891849Y12164169D01*
X891849Y12158606D02*
G01*
X900308Y12139241D01*
X900308Y12108942D02*
G01*
X908778Y12068235D01*
X908778Y12023333D02*
G01*
X917249Y11975132D01*
X917249Y11931116D02*
G01*
X925708Y11892241D01*
X925708Y11864665D02*
G01*
X934178Y11849056D01*
X934178Y11847972D02*
G01*
X942649Y11861551D01*
X942649Y11887728D02*
G01*
X951108Y11926013D01*
X951108Y11970308D02*
G01*
X959578Y12019681D01*
X959578Y12066104D02*
G01*
X968049Y12108520D01*
X968049Y12139909D02*
G01*
X976508Y12159493D01*
X976508Y12163920D02*
G01*
X984978Y12152988D01*
X984978Y12128418D02*
G01*
X993449Y12090679D01*
X993449Y12046079D02*
G01*
X1001908Y11995602D01*
X1001908Y11947842D02*
G01*
X1010378Y11903930D01*
X1010378Y11871479D02*
G01*
X1018849Y11851345D01*
X1018849Y11847103D02*
G01*
X1027308Y11858972D01*
X1027308Y11884980D02*
G01*
X1035778Y11924593D01*
X1035778Y11970877D02*
G01*
X1044249Y12022757D01*
X1044249Y12070984D02*
G01*
X1052708Y12114342D01*
X1052708Y12144982D02*
G01*
X1061178Y12162048D01*
X1061178Y12162345D02*
G01*
X1069649Y12145746D01*
X1069649Y12115198D02*
G01*
X1078108Y12071380D01*
X1078108Y12022310D02*
G01*
X1086578Y11969229D01*
X1086578Y11922013D02*
G01*
X1095049Y11881934D01*
X1095049Y11856585D02*
G01*
X1103508Y11846730D01*
X1103508Y11854334D02*
G01*
X1111978Y11879323D01*
X1111978Y11917009D02*
G01*
X1120449Y11966481D01*
X1120449Y12018243D02*
G01*
X1128908Y12070928D01*
X1128908Y12114263D02*
G01*
X1137378Y12147021D01*
X1137378Y12162693D02*
G01*
X1145849Y12160745D01*
X1145849Y12141454D02*
G01*
X1154308Y12105225D01*
X1154308Y12059213D02*
G01*
X1162778Y12004624D01*
X1162778Y11952411D02*
G01*
X1171249Y11904042D01*
X1171249Y11869376D02*
G01*
X1179708Y11849483D01*
X1179708Y11848518D02*
G01*
X1188178Y11866636D01*
X1188178Y11900204D02*
G01*
X1196649Y11948363D01*
X1196649Y12001164D02*
G01*
X1205108Y12057118D01*
X1205108Y12104489D02*
G01*
X1213578Y12141857D01*
X1213578Y12161248D02*
G01*
X1222049Y12161979D01*
X1222049Y12143785D02*
G01*
X1230508Y12107092D01*
X1230508Y12059686D02*
G01*
X1238978Y12002902D01*
X1238978Y11949000D02*
G01*
X1247449Y11899607D01*
X1247449Y11865546D02*
G01*
X1255908Y11847934D01*
X1255908Y11850743D02*
G01*
X1264378Y11874022D01*
X1264378Y11912699D02*
G01*
X1272849Y11965706D01*
X1272849Y12021251D02*
G01*
X1281308Y12077656D01*
X1281308Y12122200D02*
G01*
X1289778Y12153435D01*
X1289778Y12164194D02*
G01*
X1298249Y12154016D01*
X1298249Y12125119D02*
G01*
X1306708Y12078294D01*
X1306708Y12024253D02*
G01*
X1315178Y11964652D01*
X1315178Y11913313D02*
G01*
X1323649Y11871919D01*
X1323649Y11850222D02*
G01*
X1332108Y11849031D01*
X1332108Y11868726D02*
G01*
X1340578Y11908805D01*
X1340578Y11959846D02*
G01*
X1349049Y12020257D01*
X1349049Y12075629D02*
G01*
X1357508Y12124115D01*
X1357508Y12153986D02*
G01*
X1365978Y12164156D01*
X1365978Y12152045D02*
G01*
X1374449Y12117938D01*
X1374449Y12070059D02*
G01*
X1382908Y12009927D01*
X1382908Y11952305D02*
G01*
X1391378Y11899130D01*
X1391378Y11863641D02*
G01*
X1399849Y11847121D01*
X1399849Y11853806D02*
G01*
X1408308Y11883598D01*
X1408308Y11929107D02*
G01*
X1416778Y11988868D01*
X1416778Y12047791D02*
G01*
X1425249Y12103856D01*
X1425249Y12142718D02*
G01*
X1433708Y12162947D01*
X1433708Y12159239D02*
G01*
X1442178Y12131593D01*
X1442178Y12087064D02*
G01*
X1450649Y12027093D01*
X1450649Y11967268D02*
G01*
X1459108Y11909686D01*
X1459108Y11869483D02*
G01*
X1467578Y11848175D01*
X1467578Y11851492D02*
G01*
X1476049Y11879460D01*
X1476049Y11924723D02*
G01*
X1484508Y11985779D01*
X1484508Y12046320D02*
G01*
X1492978Y12104184D01*
X1492978Y12143712D02*
G01*
X1501449Y12163394D01*
D11*
G01*
X508000Y330200D03*
G01*
X508000Y12573000D03*
M02*
