G04 Layer: TopSilkscreenLayer*
G04 EasyEDA v6.5.29, 2023-07-18 11:26:45*
G04 9daeeb10d62f4b77b565989ef25a112e,5a6b42c53f6a479593ecc07194224c93,10*
G04 Gerber Generator version 0.2*
G04 Scale: 100 percent, Rotated: No, Reflected: No *
G04 Dimensions in millimeters *
G04 leading zeros omitted , absolute positions ,4 integer and 5 decimal *
%FSLAX45Y45*%
%MOMM*%

%ADD10C,0.2540*%

%LPD*%
D10*
X1162558Y384047D02*
G01*
X1162558Y390905D01*
X1169415Y404368D01*
X1176274Y411226D01*
X1189736Y418084D01*
X1217168Y418084D01*
X1230629Y411226D01*
X1237488Y404368D01*
X1244345Y390905D01*
X1244345Y377189D01*
X1237488Y363473D01*
X1223772Y343154D01*
X1155700Y274828D01*
X1251204Y274828D01*
X1296161Y390905D02*
G01*
X1309877Y397510D01*
X1330197Y418084D01*
X1330197Y274828D01*
X1416050Y418084D02*
G01*
X1395729Y411226D01*
X1382013Y390905D01*
X1375156Y356615D01*
X1375156Y336295D01*
X1382013Y302260D01*
X1395729Y281686D01*
X1416050Y274828D01*
X1429765Y274828D01*
X1450340Y281686D01*
X1463802Y302260D01*
X1470659Y336295D01*
X1470659Y356615D01*
X1463802Y390905D01*
X1450340Y411226D01*
X1429765Y418084D01*
X1416050Y418084D01*
X1597406Y397510D02*
G01*
X1590802Y411226D01*
X1570227Y418084D01*
X1556511Y418084D01*
X1536191Y411226D01*
X1522475Y390905D01*
X1515618Y356615D01*
X1515618Y322579D01*
X1522475Y295402D01*
X1536191Y281686D01*
X1556511Y274828D01*
X1563370Y274828D01*
X1583943Y281686D01*
X1597406Y295402D01*
X1604263Y315721D01*
X1604263Y322579D01*
X1597406Y343154D01*
X1583943Y356615D01*
X1563370Y363473D01*
X1556511Y363473D01*
X1536191Y356615D01*
X1522475Y343154D01*
X1515618Y322579D01*
X1703831Y418084D02*
G01*
X1649222Y274828D01*
X1703831Y418084D02*
G01*
X1758441Y274828D01*
X1669795Y322579D02*
G01*
X1737868Y322579D01*
X0Y11823700D02*
G01*
X2997200Y11823700D01*
X0Y12179300D02*
G01*
X2997200Y12179300D01*
M02*
