G04 Layer: TopPasteMaskLayer*
G04 Panelize: V-CUT, Column: 8, Row: 1, Board Size: 15.24mm x 95mm, Panelized Board Size: 135.92mm x 95mm*
G04 EasyEDA v6.5.34, 2023-08-21 18:11:39*
G04 3bfda8faaeb148089eadf0c8bcf69e3c,5a6b42c53f6a479593ecc07194224c93,10*
G04 Gerber Generator version 0.2*
G04 Scale: 100 percent, Rotated: No, Reflected: No *
G04 Dimensions in millimeters *
G04 leading zeros omitted , absolute positions ,4 integer and 5 decimal *
%FSLAX45Y45*%
%MOMM*%

%ADD10R,0.8999X1.0000*%

%LPD*%
G36*
X579018Y11068608D02*
G01*
X573989Y11063579D01*
X573989Y10983620D01*
X579018Y10978591D01*
X658977Y10978591D01*
X664006Y10983620D01*
X664006Y11006378D01*
X626973Y11006378D01*
X626973Y11039398D01*
X664006Y11039398D01*
X664006Y11063579D01*
X658977Y11068608D01*
G37*
G36*
X738987Y11068608D02*
G01*
X734009Y11063579D01*
X734009Y11039398D01*
X772007Y11039398D01*
X772007Y11006378D01*
X734009Y11006378D01*
X734009Y10983620D01*
X738987Y10978591D01*
X817981Y10978591D01*
X823010Y10983620D01*
X823010Y11063579D01*
X817981Y11068608D01*
G37*
G36*
X738022Y9989108D02*
G01*
X732993Y9984079D01*
X732993Y9961321D01*
X769975Y9961321D01*
X769975Y9928301D01*
X732993Y9928301D01*
X732993Y9904120D01*
X738022Y9899091D01*
X817981Y9899091D01*
X823010Y9904120D01*
X823010Y9984079D01*
X817981Y9989108D01*
G37*
G36*
X579018Y9989108D02*
G01*
X573989Y9984079D01*
X573989Y9904120D01*
X579018Y9899091D01*
X658012Y9899091D01*
X662990Y9904120D01*
X662990Y9928301D01*
X624992Y9928301D01*
X624992Y9961321D01*
X662990Y9961321D01*
X662990Y9984079D01*
X658012Y9989108D01*
G37*
G36*
X579018Y10522508D02*
G01*
X573989Y10517479D01*
X573989Y10437520D01*
X579018Y10432491D01*
X658977Y10432491D01*
X664006Y10437520D01*
X664006Y10460278D01*
X626973Y10460278D01*
X626973Y10493298D01*
X664006Y10493298D01*
X664006Y10517479D01*
X658977Y10522508D01*
G37*
G36*
X738987Y10522508D02*
G01*
X734009Y10517479D01*
X734009Y10493298D01*
X772007Y10493298D01*
X772007Y10460278D01*
X734009Y10460278D01*
X734009Y10437520D01*
X738987Y10432491D01*
X817981Y10432491D01*
X823010Y10437520D01*
X823010Y10517479D01*
X817981Y10522508D01*
G37*
G36*
X1252118Y2216708D02*
G01*
X1247089Y2211679D01*
X1247089Y2131720D01*
X1252118Y2126691D01*
X1332077Y2126691D01*
X1337106Y2131720D01*
X1337106Y2154478D01*
X1300124Y2154478D01*
X1300124Y2187498D01*
X1337106Y2187498D01*
X1337106Y2211679D01*
X1332077Y2216708D01*
G37*
G36*
X1412087Y2216708D02*
G01*
X1407109Y2211679D01*
X1407109Y2187498D01*
X1445107Y2187498D01*
X1445107Y2154478D01*
X1407109Y2154478D01*
X1407109Y2131720D01*
X1412087Y2126691D01*
X1491081Y2126691D01*
X1496110Y2131720D01*
X1496110Y2211679D01*
X1491081Y2216708D01*
G37*
D10*
G01*
X613486Y11214100D03*
G01*
X783488Y11214100D03*
G01*
X613486Y10668000D03*
G01*
X783488Y10668000D03*
G01*
X613486Y10134600D03*
G01*
X783488Y10134600D03*
G01*
X930986Y2171700D03*
G01*
X1100988Y2171700D03*
M02*
