G04 Layer: BottomSilkscreenLayer*
G04 EasyEDA v6.5.34, 2023-08-21 18:11:39*
G04 f96fbce58fd94eb08820de504881ded1,5a6b42c53f6a479593ecc07194224c93,10*
G04 Gerber Generator version 0.2*
G04 Scale: 100 percent, Rotated: No, Reflected: No *
G04 Dimensions in millimeters *
G04 leading zeros omitted , absolute positions ,4 integer and 5 decimal *
%FSLAX45Y45*%
%MOMM*%

%ADD10C,0.2032*%

%LPD*%
D10*
X1816100Y9353989D02*
G01*
X1816100Y9239445D01*
X1816100Y9353989D02*
G01*
X1745190Y9353989D01*
X1816100Y9299445D02*
G01*
X1772462Y9299445D01*
X1709191Y9353989D02*
G01*
X1709191Y9239445D01*
X1709191Y9353989D02*
G01*
X1660100Y9353989D01*
X1643735Y9348536D01*
X1638282Y9343082D01*
X1632828Y9332173D01*
X1632828Y9321264D01*
X1638282Y9310354D01*
X1643735Y9304898D01*
X1660100Y9299445D01*
X1709191Y9299445D01*
X1671010Y9299445D02*
G01*
X1632828Y9239445D01*
X1564101Y9353989D02*
G01*
X1575010Y9348536D01*
X1585917Y9337626D01*
X1591373Y9326717D01*
X1596826Y9310354D01*
X1596826Y9283082D01*
X1591373Y9266717D01*
X1585917Y9255808D01*
X1575010Y9244898D01*
X1564101Y9239445D01*
X1542282Y9239445D01*
X1531373Y9244898D01*
X1520464Y9255808D01*
X1515010Y9266717D01*
X1509555Y9283082D01*
X1509555Y9310354D01*
X1515010Y9326717D01*
X1520464Y9337626D01*
X1531373Y9348536D01*
X1542282Y9353989D01*
X1564101Y9353989D01*
X1473555Y9353989D02*
G01*
X1473555Y9239445D01*
X1473555Y9353989D02*
G01*
X1397190Y9239445D01*
X1397190Y9353989D02*
G01*
X1397190Y9239445D01*
X1323009Y9353989D02*
G01*
X1323009Y9239445D01*
X1361191Y9353989D02*
G01*
X1284828Y9353989D01*
X1164828Y9353989D02*
G01*
X1164828Y9239445D01*
X1164828Y9353989D02*
G01*
X1115738Y9353989D01*
X1099372Y9348536D01*
X1093919Y9343082D01*
X1088466Y9332173D01*
X1088466Y9315808D01*
X1093919Y9304898D01*
X1099372Y9299445D01*
X1115738Y9293989D01*
X1164828Y9293989D01*
X1008829Y9353989D02*
G01*
X1052464Y9239445D01*
X1008829Y9353989D02*
G01*
X965192Y9239445D01*
X1036101Y9277626D02*
G01*
X981555Y9277626D01*
X929192Y9353989D02*
G01*
X929192Y9239445D01*
X929192Y9353989D02*
G01*
X852830Y9239445D01*
X852830Y9353989D02*
G01*
X852830Y9239445D01*
X816828Y9353989D02*
G01*
X816828Y9239445D01*
X816828Y9353989D02*
G01*
X745919Y9353989D01*
X816828Y9299445D02*
G01*
X773193Y9299445D01*
X816828Y9239445D02*
G01*
X745919Y9239445D01*
X709919Y9353989D02*
G01*
X709919Y9239445D01*
X709919Y9239445D02*
G01*
X644466Y9239445D01*
X524466Y9353989D02*
G01*
X480829Y9239445D01*
X437192Y9353989D02*
G01*
X480829Y9239445D01*
X401193Y9332173D02*
G01*
X390283Y9337626D01*
X373921Y9353989D01*
X373921Y9239445D01*
X332465Y9266717D02*
G01*
X337921Y9261264D01*
X332465Y9255808D01*
X327012Y9261264D01*
X332465Y9266717D01*
X280103Y9353989D02*
G01*
X220103Y9353989D01*
X252831Y9310354D01*
X236466Y9310354D01*
X225557Y9304898D01*
X220103Y9299445D01*
X214647Y9283082D01*
X214647Y9272173D01*
X220103Y9255808D01*
X231012Y9244898D01*
X247375Y9239445D01*
X263738Y9239445D01*
X280103Y9244898D01*
X285556Y9250354D01*
X291012Y9261264D01*
X1714500Y9557189D02*
G01*
X1714500Y9442645D01*
X1714500Y9557189D02*
G01*
X1638137Y9442645D01*
X1638137Y9557189D02*
G01*
X1638137Y9442645D01*
X1558500Y9557189D02*
G01*
X1602135Y9442645D01*
X1558500Y9557189D02*
G01*
X1514863Y9442645D01*
X1585772Y9480826D02*
G01*
X1531228Y9480826D01*
X1478864Y9557189D02*
G01*
X1478864Y9442645D01*
X1478864Y9557189D02*
G01*
X1402501Y9442645D01*
X1402501Y9557189D02*
G01*
X1402501Y9442645D01*
X1333774Y9557189D02*
G01*
X1344683Y9551736D01*
X1355590Y9540826D01*
X1361046Y9529917D01*
X1366499Y9513554D01*
X1366499Y9486282D01*
X1361046Y9469917D01*
X1355590Y9459008D01*
X1344683Y9448098D01*
X1333774Y9442645D01*
X1311955Y9442645D01*
X1301046Y9448098D01*
X1290137Y9459008D01*
X1284683Y9469917D01*
X1279227Y9486282D01*
X1279227Y9513554D01*
X1284683Y9529917D01*
X1290137Y9540826D01*
X1301046Y9551736D01*
X1311955Y9557189D01*
X1333774Y9557189D01*
X1243228Y9557189D02*
G01*
X1243228Y9442645D01*
X1243228Y9557189D02*
G01*
X1199591Y9442645D01*
X1155956Y9557189D02*
G01*
X1199591Y9442645D01*
X1155956Y9557189D02*
G01*
X1155956Y9442645D01*
X1119954Y9557189D02*
G01*
X1119954Y9442645D01*
X1040320Y9557189D02*
G01*
X1083955Y9442645D01*
X1040320Y9557189D02*
G01*
X996683Y9442645D01*
X1067592Y9480826D02*
G01*
X1013045Y9480826D01*
X876683Y9557189D02*
G01*
X876683Y9442645D01*
X876683Y9557189D02*
G01*
X827592Y9557189D01*
X811230Y9551736D01*
X805774Y9546282D01*
X800320Y9535373D01*
X800320Y9519008D01*
X805774Y9508098D01*
X811230Y9502645D01*
X827592Y9497189D01*
X876683Y9497189D01*
X731593Y9557189D02*
G01*
X742502Y9551736D01*
X753412Y9540826D01*
X758865Y9529917D01*
X764319Y9513554D01*
X764319Y9486282D01*
X758865Y9469917D01*
X753412Y9459008D01*
X742502Y9448098D01*
X731593Y9442645D01*
X709775Y9442645D01*
X698865Y9448098D01*
X687956Y9459008D01*
X682503Y9469917D01*
X677047Y9486282D01*
X677047Y9513554D01*
X682503Y9529917D01*
X687956Y9540826D01*
X698865Y9551736D01*
X709775Y9557189D01*
X731593Y9557189D01*
X641047Y9557189D02*
G01*
X613775Y9442645D01*
X586501Y9557189D02*
G01*
X613775Y9442645D01*
X586501Y9557189D02*
G01*
X559229Y9442645D01*
X531957Y9557189D02*
G01*
X559229Y9442645D01*
X495957Y9557189D02*
G01*
X495957Y9442645D01*
X495957Y9557189D02*
G01*
X425048Y9557189D01*
X495957Y9502645D02*
G01*
X452320Y9502645D01*
X495957Y9442645D02*
G01*
X425048Y9442645D01*
X389049Y9557189D02*
G01*
X389049Y9442645D01*
X389049Y9557189D02*
G01*
X339956Y9557189D01*
X323593Y9551736D01*
X318140Y9546282D01*
X312684Y9535373D01*
X312684Y9524464D01*
X318140Y9513554D01*
X323593Y9508098D01*
X339956Y9502645D01*
X389049Y9502645D01*
X350865Y9502645D02*
G01*
X312684Y9442645D01*
X1442346Y8564717D02*
G01*
X1442346Y8570173D01*
X1436890Y8581082D01*
X1431437Y8586536D01*
X1420528Y8591989D01*
X1398709Y8591989D01*
X1387800Y8586536D01*
X1382346Y8581082D01*
X1376890Y8570173D01*
X1376890Y8559264D01*
X1382346Y8548354D01*
X1393253Y8531989D01*
X1447800Y8477445D01*
X1371437Y8477445D01*
X1269982Y8575626D02*
G01*
X1275435Y8586536D01*
X1291800Y8591989D01*
X1302710Y8591989D01*
X1319072Y8586536D01*
X1329982Y8570173D01*
X1335435Y8542898D01*
X1335435Y8515626D01*
X1329982Y8493808D01*
X1319072Y8482898D01*
X1302710Y8477445D01*
X1297254Y8477445D01*
X1280891Y8482898D01*
X1269982Y8493808D01*
X1264528Y8510173D01*
X1264528Y8515626D01*
X1269982Y8531989D01*
X1280891Y8542898D01*
X1297254Y8548354D01*
X1302710Y8548354D01*
X1319072Y8542898D01*
X1329982Y8531989D01*
X1335435Y8515626D01*
X1228526Y8570173D02*
G01*
X1217617Y8575626D01*
X1201254Y8591989D01*
X1201254Y8477445D01*
X1132527Y8591989D02*
G01*
X1148890Y8586536D01*
X1159799Y8570173D01*
X1165255Y8542898D01*
X1165255Y8526536D01*
X1159799Y8499264D01*
X1148890Y8482898D01*
X1132527Y8477445D01*
X1121618Y8477445D01*
X1105255Y8482898D01*
X1094346Y8499264D01*
X1088890Y8526536D01*
X1088890Y8542898D01*
X1094346Y8570173D01*
X1105255Y8586536D01*
X1121618Y8591989D01*
X1132527Y8591989D01*
X1052890Y8526536D02*
G01*
X954709Y8526536D01*
X885982Y8591989D02*
G01*
X902347Y8586536D01*
X913254Y8570173D01*
X918710Y8542898D01*
X918710Y8526536D01*
X913254Y8499264D01*
X902347Y8482898D01*
X885982Y8477445D01*
X875073Y8477445D01*
X858710Y8482898D01*
X847801Y8499264D01*
X842347Y8526536D01*
X842347Y8542898D01*
X847801Y8570173D01*
X858710Y8586536D01*
X875073Y8591989D01*
X885982Y8591989D01*
X806345Y8570173D02*
G01*
X795436Y8575626D01*
X779073Y8591989D01*
X779073Y8477445D01*
X710346Y8591989D02*
G01*
X726711Y8586536D01*
X737618Y8570173D01*
X743074Y8542898D01*
X743074Y8526536D01*
X737618Y8499264D01*
X726711Y8482898D01*
X710346Y8477445D01*
X699437Y8477445D01*
X683074Y8482898D01*
X672165Y8499264D01*
X666711Y8526536D01*
X666711Y8542898D01*
X672165Y8570173D01*
X683074Y8586536D01*
X699437Y8591989D01*
X710346Y8591989D01*
X630709Y8570173D02*
G01*
X619800Y8575626D01*
X603437Y8591989D01*
X603437Y8477445D01*
X1600200Y8795189D02*
G01*
X1600200Y8680645D01*
X1600200Y8795189D02*
G01*
X1551109Y8795189D01*
X1534746Y8789736D01*
X1529290Y8784282D01*
X1523837Y8773373D01*
X1523837Y8757008D01*
X1529290Y8746098D01*
X1534746Y8740645D01*
X1551109Y8735189D01*
X1600200Y8735189D01*
X1444200Y8795189D02*
G01*
X1487835Y8680645D01*
X1444200Y8795189D02*
G01*
X1400563Y8680645D01*
X1471472Y8718826D02*
G01*
X1416928Y8718826D01*
X1364564Y8795189D02*
G01*
X1364564Y8680645D01*
X1364564Y8795189D02*
G01*
X1315473Y8795189D01*
X1299110Y8789736D01*
X1293655Y8784282D01*
X1288201Y8773373D01*
X1288201Y8762464D01*
X1293655Y8751554D01*
X1299110Y8746098D01*
X1315473Y8740645D01*
X1364564Y8740645D01*
X1326382Y8740645D02*
G01*
X1288201Y8680645D01*
X1214018Y8795189D02*
G01*
X1214018Y8680645D01*
X1252199Y8795189D02*
G01*
X1175837Y8795189D01*
X1055837Y8795189D02*
G01*
X1055837Y8680645D01*
X1055837Y8795189D02*
G01*
X979474Y8680645D01*
X979474Y8795189D02*
G01*
X979474Y8680645D01*
X943472Y8795189D02*
G01*
X943472Y8713373D01*
X938019Y8697008D01*
X927110Y8686098D01*
X910747Y8680645D01*
X899838Y8680645D01*
X883472Y8686098D01*
X872566Y8697008D01*
X867110Y8713373D01*
X867110Y8795189D01*
X831110Y8795189D02*
G01*
X831110Y8680645D01*
X831110Y8795189D02*
G01*
X787473Y8680645D01*
X743838Y8795189D02*
G01*
X787473Y8680645D01*
X743838Y8795189D02*
G01*
X743838Y8680645D01*
X707837Y8795189D02*
G01*
X707837Y8680645D01*
X707837Y8795189D02*
G01*
X658746Y8795189D01*
X642383Y8789736D01*
X636930Y8784282D01*
X631474Y8773373D01*
X631474Y8762464D01*
X636930Y8751554D01*
X642383Y8746098D01*
X658746Y8740645D01*
X707837Y8740645D02*
G01*
X658746Y8740645D01*
X642383Y8735189D01*
X636930Y8729736D01*
X631474Y8718826D01*
X631474Y8702464D01*
X636930Y8691554D01*
X642383Y8686098D01*
X658746Y8680645D01*
X707837Y8680645D01*
X595475Y8795189D02*
G01*
X595475Y8680645D01*
X595475Y8795189D02*
G01*
X524565Y8795189D01*
X595475Y8740645D02*
G01*
X551837Y8740645D01*
X595475Y8680645D02*
G01*
X524565Y8680645D01*
X488566Y8795189D02*
G01*
X488566Y8680645D01*
X488566Y8795189D02*
G01*
X439475Y8795189D01*
X423110Y8789736D01*
X417657Y8784282D01*
X412201Y8773373D01*
X412201Y8762464D01*
X417657Y8751554D01*
X423110Y8746098D01*
X439475Y8740645D01*
X488566Y8740645D01*
X450385Y8740645D02*
G01*
X412201Y8680645D01*
X1558290Y908557D02*
G01*
X1558290Y821181D01*
X1563877Y804926D01*
X1569211Y799337D01*
X1580134Y794004D01*
X1591056Y794004D01*
X1601977Y799337D01*
X1607565Y804926D01*
X1612900Y821181D01*
X1612900Y832104D01*
X1522475Y908557D02*
G01*
X1522475Y794004D01*
X1522475Y794004D02*
G01*
X1456943Y794004D01*
X1339088Y881126D02*
G01*
X1344422Y892047D01*
X1355343Y902970D01*
X1366265Y908557D01*
X1388109Y908557D01*
X1399031Y902970D01*
X1409954Y892047D01*
X1415541Y881126D01*
X1420875Y864870D01*
X1420875Y837692D01*
X1415541Y821181D01*
X1409954Y810260D01*
X1399031Y799337D01*
X1388109Y794004D01*
X1366265Y794004D01*
X1355343Y799337D01*
X1344422Y810260D01*
X1339088Y821181D01*
X1248663Y908557D02*
G01*
X1248663Y821181D01*
X1253997Y804926D01*
X1259331Y799337D01*
X1270254Y794004D01*
X1281175Y794004D01*
X1292097Y799337D01*
X1297686Y804926D01*
X1303020Y821181D01*
X1303020Y832104D01*
X1212595Y908557D02*
G01*
X1212595Y794004D01*
X1212595Y794004D02*
G01*
X1147063Y794004D01*
X1029208Y881126D02*
G01*
X1034795Y892047D01*
X1045718Y902970D01*
X1056640Y908557D01*
X1078229Y908557D01*
X1089152Y902970D01*
X1100074Y892047D01*
X1105661Y881126D01*
X1110995Y864870D01*
X1110995Y837692D01*
X1105661Y821181D01*
X1100074Y810260D01*
X1089152Y799337D01*
X1078229Y794004D01*
X1056640Y794004D01*
X1045718Y799337D01*
X1034795Y810260D01*
X1029208Y821181D01*
X938784Y908557D02*
G01*
X938784Y821181D01*
X944118Y804926D01*
X949706Y799337D01*
X960627Y794004D01*
X971550Y794004D01*
X982472Y799337D01*
X987806Y804926D01*
X993140Y821181D01*
X993140Y832104D01*
X902715Y908557D02*
G01*
X902715Y794004D01*
X902715Y794004D02*
G01*
X837184Y794004D01*
X719327Y881126D02*
G01*
X724915Y892047D01*
X735838Y902970D01*
X746759Y908557D01*
X768604Y908557D01*
X779525Y902970D01*
X790447Y892047D01*
X795781Y881126D01*
X801370Y864870D01*
X801370Y837692D01*
X795781Y821181D01*
X790447Y810260D01*
X779525Y799337D01*
X768604Y794004D01*
X746759Y794004D01*
X735838Y799337D01*
X724915Y810260D01*
X719327Y821181D01*
X628904Y908557D02*
G01*
X628904Y821181D01*
X634237Y804926D01*
X639826Y799337D01*
X650747Y794004D01*
X661670Y794004D01*
X672591Y799337D01*
X677925Y804926D01*
X683513Y821181D01*
X683513Y832104D01*
X592836Y908557D02*
G01*
X592836Y794004D01*
X592836Y794004D02*
G01*
X527557Y794004D01*
X409702Y881126D02*
G01*
X415036Y892047D01*
X425957Y902970D01*
X436879Y908557D01*
X458723Y908557D01*
X469645Y902970D01*
X480568Y892047D01*
X485902Y881126D01*
X491489Y864870D01*
X491489Y837692D01*
X485902Y821181D01*
X480568Y810260D01*
X469645Y799337D01*
X458723Y794004D01*
X436879Y794004D01*
X425957Y799337D01*
X415036Y810260D01*
X409702Y821181D01*
M02*
