G04 Layer: BottomSolderMaskLayer*
G04 EasyEDA v6.5.29, 2023-07-19 20:14:37*
G04 41db7a399fb243939f9e48431119433e,5a6b42c53f6a479593ecc07194224c93,10*
G04 Gerber Generator version 0.2*
G04 Scale: 100 percent, Rotated: No, Reflected: No *
G04 Dimensions in millimeters *
G04 leading zeros omitted , absolute positions ,4 integer and 5 decimal *
%FSLAX45Y45*%
%MOMM*%

%AMMACRO1*1,1,$1,$2,$3*1,1,$1,$4,$5*1,1,$1,0-$2,0-$3*1,1,$1,0-$4,0-$5*20,1,$1,$2,$3,$4,$5,0*20,1,$1,$4,$5,0-$2,0-$3,0*20,1,$1,0-$2,0-$3,0-$4,0-$5,0*20,1,$1,0-$4,0-$5,$2,$3,0*4,1,4,$2,$3,$4,$5,0-$2,0-$3,0-$4,0-$5,$2,$3,0*%
%ADD10C,0.2032*%
%ADD11MACRO1,0.1016X0.85X-0.85X0.85X0.85*%
%ADD12C,1.8016*%
%ADD13MACRO1,0.1016X0.9X-0.9X0.9X0.9*%
%ADD14C,1.9016*%
%ADD15C,1.8532*%
%ADD16MACRO1,0.1016X-0.85X-0.85X0.85X-0.85*%
%ADD17C,1.5016*%
%ADD18MACRO1,0.1016X0.7X0.762X0.7X-0.762*%

%LPD*%
D10*
X-520700Y-4852436D02*
G01*
X-520700Y-4995618D01*
X-520700Y-4852436D02*
G01*
X-582063Y-4852436D01*
X-602518Y-4859253D01*
X-609335Y-4866073D01*
X-616155Y-4879708D01*
X-616155Y-4893345D01*
X-609335Y-4906982D01*
X-602518Y-4913800D01*
X-582063Y-4920617D01*
X-520700Y-4920617D01*
X-568426Y-4920617D02*
G01*
X-616155Y-4995618D01*
X-661154Y-4852436D02*
G01*
X-661154Y-4995618D01*
X-808426Y-4886528D02*
G01*
X-801608Y-4872890D01*
X-787971Y-4859253D01*
X-774336Y-4852436D01*
X-747064Y-4852436D01*
X-733427Y-4859253D01*
X-719790Y-4872890D01*
X-712972Y-4886528D01*
X-706155Y-4906982D01*
X-706155Y-4941072D01*
X-712972Y-4961526D01*
X-719790Y-4975164D01*
X-733427Y-4988798D01*
X-747064Y-4995618D01*
X-774336Y-4995618D01*
X-787971Y-4988798D01*
X-801608Y-4975164D01*
X-808426Y-4961526D01*
X-808426Y-4941072D01*
X-774336Y-4941072D02*
G01*
X-808426Y-4941072D01*
X-853427Y-4852436D02*
G01*
X-853427Y-4995618D01*
X-948883Y-4852436D02*
G01*
X-948883Y-4995618D01*
X-853427Y-4920617D02*
G01*
X-948883Y-4920617D01*
X-1041608Y-4852436D02*
G01*
X-1041608Y-4995618D01*
X-993881Y-4852436D02*
G01*
X-1089337Y-4852436D01*
X-1229791Y-4872890D02*
G01*
X-1216154Y-4859253D01*
X-1195699Y-4852436D01*
X-1168427Y-4852436D01*
X-1147973Y-4859253D01*
X-1134336Y-4872890D01*
X-1134336Y-4886528D01*
X-1141153Y-4900162D01*
X-1147973Y-4906982D01*
X-1161608Y-4913800D01*
X-1202517Y-4927437D01*
X-1216154Y-4934254D01*
X-1222971Y-4941072D01*
X-1229791Y-4954709D01*
X-1229791Y-4975164D01*
X-1216154Y-4988798D01*
X-1195699Y-4995618D01*
X-1168427Y-4995618D01*
X-1147973Y-4988798D01*
X-1134336Y-4975164D01*
X-581126Y-4623836D02*
G01*
X-581126Y-4767018D01*
X-533400Y-4623836D02*
G01*
X-628855Y-4623836D01*
X-673854Y-4623836D02*
G01*
X-673854Y-4767018D01*
X-673854Y-4623836D02*
G01*
X-735218Y-4623836D01*
X-755672Y-4630653D01*
X-762490Y-4637473D01*
X-769310Y-4651108D01*
X-769310Y-4664745D01*
X-762490Y-4678382D01*
X-755672Y-4685200D01*
X-735218Y-4692017D01*
X-673854Y-4692017D01*
X-721580Y-4692017D02*
G01*
X-769310Y-4767018D01*
X-868855Y-4623836D02*
G01*
X-814308Y-4767018D01*
X-868855Y-4623836D02*
G01*
X-923399Y-4767018D01*
X-834763Y-4719292D02*
G01*
X-902944Y-4719292D01*
X-968400Y-4623836D02*
G01*
X-968400Y-4767018D01*
X-968400Y-4623836D02*
G01*
X-1063853Y-4767018D01*
X-1063853Y-4623836D02*
G01*
X-1063853Y-4767018D01*
X-1204307Y-4644290D02*
G01*
X-1190673Y-4630653D01*
X-1170218Y-4623836D01*
X-1142946Y-4623836D01*
X-1122492Y-4630653D01*
X-1108854Y-4644290D01*
X-1108854Y-4657928D01*
X-1115672Y-4671562D01*
X-1122492Y-4678382D01*
X-1136126Y-4685200D01*
X-1177036Y-4698837D01*
X-1190673Y-4705654D01*
X-1197490Y-4712472D01*
X-1204307Y-4726109D01*
X-1204307Y-4746564D01*
X-1190673Y-4760198D01*
X-1170218Y-4767018D01*
X-1142946Y-4767018D01*
X-1122492Y-4760198D01*
X-1108854Y-4746564D01*
D11*
G01*
X77693Y-6350000D03*
D12*
G01*
X77698Y-6096000D03*
G01*
X77698Y-5842000D03*
G01*
X77698Y-5588000D03*
G01*
X-1954301Y-5588000D03*
G01*
X-1954301Y-6350000D03*
G01*
X-1954301Y-6096000D03*
G01*
X-1954301Y-5842000D03*
D13*
G01*
X477697Y-2235197D03*
D14*
G01*
X731697Y-2235200D03*
G01*
X477697Y-1981200D03*
G01*
X731697Y-1981200D03*
G01*
X477697Y-1727200D03*
G01*
X731697Y-1727200D03*
G01*
X477697Y-1473200D03*
G01*
X731697Y-1473200D03*
G01*
X477697Y-1219200D03*
G01*
X731697Y-1219200D03*
G01*
X477697Y-965200D03*
G01*
X731697Y-965200D03*
G01*
X477697Y-711200D03*
G01*
X731697Y-711200D03*
G01*
X477697Y-457200D03*
G01*
X731697Y-457200D03*
D15*
G01*
X-2087676Y3408298D03*
G01*
X-2087676Y2558313D03*
G01*
X-2087676Y2258288D03*
G01*
X-881176Y3408298D03*
G01*
X-881176Y2558313D03*
G01*
X-881176Y2258288D03*
G01*
X325323Y3408298D03*
G01*
X325323Y2558313D03*
G01*
X325323Y2258288D03*
G01*
X-2087676Y1884298D03*
G01*
X-2087676Y1034313D03*
G01*
X-2087676Y734288D03*
G01*
X-893876Y1884298D03*
G01*
X-893876Y1034313D03*
G01*
X-893876Y734288D03*
G01*
X325323Y1884298D03*
G01*
X325323Y1034313D03*
G01*
X325323Y734288D03*
G01*
X-1440002Y-4508500D03*
G01*
X-2090013Y-4508500D03*
G01*
X-1440002Y-4058488D03*
G01*
X-2090013Y-4058488D03*
G01*
X-1764995Y-3923512D03*
G01*
X-1405001Y-4283506D03*
G01*
X-1744802Y-4635500D03*
G01*
X-2125802Y-4279900D03*
G01*
X337997Y-4508500D03*
G01*
X-312013Y-4508500D03*
G01*
X337997Y-4058488D03*
G01*
X-312013Y-4058488D03*
G01*
X13004Y-3923512D03*
G01*
X372998Y-4283506D03*
G01*
X33197Y-4635500D03*
G01*
X-347802Y-4279900D03*
D16*
G01*
X20502Y-3543292D03*
D12*
G01*
X-233502Y-3543300D03*
G01*
X-487502Y-3543300D03*
G01*
X-741502Y-3543300D03*
G01*
X-995502Y-3543300D03*
G01*
X-1249502Y-3543300D03*
G01*
X-1503502Y-3543300D03*
G01*
X-1757502Y-3543300D03*
D17*
G01*
X-284302Y2659100D03*
G01*
X-284302Y2859100D03*
G01*
X-284302Y3059099D03*
D18*
G01*
X-284299Y3259094D03*
D17*
G01*
X-297002Y1135100D03*
G01*
X-297002Y1335100D03*
G01*
X-297002Y1535099D03*
D18*
G01*
X-296999Y1735096D03*
M02*
