G04 Layer: TopSilkscreenLayer*
G04 EasyEDA v6.5.34, 2023-10-02 19:34:43*
G04 64a6683610fa45038fb05069313a4abf,5a6b42c53f6a479593ecc07194224c93,10*
G04 Gerber Generator version 0.2*
G04 Scale: 100 percent, Rotated: No, Reflected: No *
G04 Dimensions in millimeters *
G04 leading zeros omitted , absolute positions ,4 integer and 5 decimal *
%FSLAX45Y45*%
%MOMM*%

%ADD10C,0.2540*%
%ADD11C,0.2032*%

%LPD*%
G36*
X2953562Y12690957D02*
G01*
X2948228Y12690754D01*
X2942793Y12690246D01*
X2937306Y12689382D01*
X2931871Y12688163D01*
X2926384Y12686639D01*
X2921000Y12684709D01*
X2915666Y12682474D01*
X2910433Y12679781D01*
X2905302Y12676784D01*
X2900324Y12673380D01*
X2895498Y12669570D01*
X2890875Y12665405D01*
X2885186Y12659410D01*
X2880106Y12653264D01*
X2875737Y12647015D01*
X2872079Y12640767D01*
X2869133Y12634468D01*
X2866999Y12628321D01*
X2865678Y12622276D01*
X2865221Y12616484D01*
X2864866Y12605816D01*
X2864358Y12601194D01*
X2863596Y12596977D01*
X2862478Y12593066D01*
X2860954Y12589408D01*
X2858973Y12585954D01*
X2856534Y12582601D01*
X2853486Y12579299D01*
X2849880Y12575997D01*
X2845562Y12572593D01*
X2840532Y12569037D01*
X2828036Y12561214D01*
X2811983Y12551968D01*
X2800502Y12544958D01*
X2790291Y12537490D01*
X2781350Y12529616D01*
X2777388Y12525603D01*
X2773730Y12521488D01*
X2770428Y12517323D01*
X2767431Y12513106D01*
X2764790Y12508839D01*
X2762453Y12504521D01*
X2760472Y12500203D01*
X2758846Y12495885D01*
X2757525Y12491516D01*
X2756560Y12487148D01*
X2755900Y12482779D01*
X2755595Y12478461D01*
X2755646Y12474143D01*
X2756052Y12469825D01*
X2756763Y12465558D01*
X2757881Y12461341D01*
X2759303Y12457176D01*
X2761081Y12453061D01*
X2763215Y12449048D01*
X2765704Y12445034D01*
X2768549Y12441174D01*
X2771749Y12437364D01*
X2775305Y12433706D01*
X2779217Y12430099D01*
X2783484Y12426645D01*
X2788158Y12423292D01*
X2792272Y12420701D01*
X2796590Y12418415D01*
X2801162Y12416434D01*
X2805938Y12414707D01*
X2810865Y12413284D01*
X2815945Y12412116D01*
X2821228Y12411202D01*
X2826613Y12410541D01*
X2837637Y12409932D01*
X2849016Y12410287D01*
X2854807Y12410795D01*
X2866339Y12412472D01*
X2877870Y12414961D01*
X2889199Y12418212D01*
X2900172Y12422225D01*
X2910687Y12426848D01*
X2920644Y12432080D01*
X2929788Y12437872D01*
X2934055Y12440970D01*
X2941828Y12447524D01*
X2945333Y12450978D01*
X2948533Y12454534D01*
X2951378Y12458141D01*
X2953969Y12461900D01*
X2956153Y12465710D01*
X2958033Y12469571D01*
X2959506Y12473533D01*
X2960573Y12477597D01*
X2961182Y12481661D01*
X2961436Y12485827D01*
X2961182Y12491212D01*
X2960471Y12496292D01*
X2959303Y12501067D01*
X2957677Y12505436D01*
X2955645Y12509500D01*
X2953258Y12513208D01*
X2950514Y12516510D01*
X2947416Y12519456D01*
X2943961Y12521996D01*
X2940253Y12524181D01*
X2936290Y12526010D01*
X2932074Y12527381D01*
X2927604Y12528346D01*
X2922981Y12528956D01*
X2918104Y12529108D01*
X2913126Y12528854D01*
X2908046Y12528143D01*
X2902813Y12527026D01*
X2897479Y12525451D01*
X2892094Y12523419D01*
X2886710Y12520930D01*
X2881274Y12517983D01*
X2875838Y12514580D01*
X2870454Y12510719D01*
X2863697Y12505334D01*
X2858414Y12500660D01*
X2854553Y12496749D01*
X2852115Y12493599D01*
X2851099Y12491262D01*
X2851404Y12489738D01*
X2853029Y12489129D01*
X2855976Y12489383D01*
X2860192Y12490602D01*
X2865628Y12492786D01*
X2872333Y12495936D01*
X2885744Y12503048D01*
X2891078Y12505436D01*
X2896158Y12507264D01*
X2900934Y12508687D01*
X2905455Y12509601D01*
X2909722Y12510058D01*
X2913684Y12510109D01*
X2917342Y12509754D01*
X2920644Y12508992D01*
X2923641Y12507874D01*
X2926283Y12506452D01*
X2928569Y12504674D01*
X2930499Y12502591D01*
X2932074Y12500203D01*
X2933242Y12497562D01*
X2934055Y12494717D01*
X2934411Y12491618D01*
X2934360Y12488316D01*
X2933903Y12484811D01*
X2932938Y12481204D01*
X2931566Y12477394D01*
X2929737Y12473482D01*
X2927451Y12469520D01*
X2924657Y12465405D01*
X2921355Y12461290D01*
X2917545Y12457074D01*
X2913227Y12452908D01*
X2908350Y12448692D01*
X2903626Y12445034D01*
X2898800Y12441732D01*
X2893872Y12438786D01*
X2888945Y12436195D01*
X2883966Y12433960D01*
X2878988Y12432030D01*
X2874010Y12430506D01*
X2869031Y12429286D01*
X2864104Y12428372D01*
X2859176Y12427813D01*
X2854350Y12427559D01*
X2849575Y12427610D01*
X2844901Y12428016D01*
X2840329Y12428677D01*
X2835859Y12429642D01*
X2831541Y12430912D01*
X2827375Y12432487D01*
X2823362Y12434316D01*
X2819552Y12436449D01*
X2815945Y12438837D01*
X2812542Y12441478D01*
X2809392Y12444425D01*
X2806446Y12447574D01*
X2803753Y12451029D01*
X2801366Y12454686D01*
X2799283Y12458598D01*
X2797454Y12462764D01*
X2795981Y12467132D01*
X2794863Y12471755D01*
X2794050Y12476581D01*
X2793644Y12481661D01*
X2793593Y12486894D01*
X2793847Y12491415D01*
X2794355Y12495784D01*
X2795168Y12500000D01*
X2796286Y12504064D01*
X2797657Y12508077D01*
X2799384Y12511938D01*
X2801467Y12515748D01*
X2803855Y12519507D01*
X2806598Y12523165D01*
X2809697Y12526822D01*
X2817063Y12534036D01*
X2826054Y12541300D01*
X2836773Y12548666D01*
X2849372Y12556286D01*
X2863850Y12564262D01*
X2869996Y12567869D01*
X2875635Y12571933D01*
X2880664Y12576352D01*
X2885135Y12581128D01*
X2888945Y12586157D01*
X2892044Y12591440D01*
X2894380Y12596926D01*
X2896006Y12602514D01*
X2899968Y12618923D01*
X2902204Y12626136D01*
X2904591Y12632791D01*
X2907131Y12638836D01*
X2909874Y12644374D01*
X2912872Y12649301D01*
X2916021Y12653670D01*
X2919425Y12657582D01*
X2923082Y12660985D01*
X2926994Y12663881D01*
X2931160Y12666268D01*
X2935630Y12668250D01*
X2940354Y12669824D01*
X2945434Y12670942D01*
X2950819Y12671653D01*
X2957525Y12672060D01*
X2963468Y12672009D01*
X2968701Y12671501D01*
X2973222Y12670485D01*
X2976981Y12669012D01*
X2980080Y12667030D01*
X2982366Y12664592D01*
X2983992Y12661696D01*
X2985312Y12656769D01*
X2985617Y12651587D01*
X2984957Y12646202D01*
X2983433Y12640818D01*
X2981096Y12635484D01*
X2977997Y12630302D01*
X2974238Y12625374D01*
X2969869Y12620802D01*
X2965043Y12616789D01*
X2959709Y12613335D01*
X2954070Y12610592D01*
X2940761Y12606274D01*
X2934716Y12603276D01*
X2930093Y12599924D01*
X2927146Y12596520D01*
X2926080Y12593320D01*
X2926943Y12590678D01*
X2930042Y12588900D01*
X2935528Y12588240D01*
X2940761Y12588494D01*
X2946349Y12589408D01*
X2952089Y12590780D01*
X2957931Y12592659D01*
X2963875Y12594945D01*
X2969768Y12597587D01*
X2975508Y12600584D01*
X2981147Y12603886D01*
X2986481Y12607391D01*
X2991459Y12611100D01*
X2996031Y12614960D01*
X3000146Y12618923D01*
X3003702Y12622936D01*
X3006598Y12626949D01*
X3008782Y12630912D01*
X3010204Y12634772D01*
X3011220Y12639852D01*
X3011728Y12644780D01*
X3011678Y12649454D01*
X3011170Y12653924D01*
X3010103Y12658191D01*
X3008630Y12662255D01*
X3006699Y12666014D01*
X3004362Y12669570D01*
X3001619Y12672872D01*
X2998571Y12675920D01*
X2995168Y12678714D01*
X2991408Y12681204D01*
X2987446Y12683490D01*
X2983179Y12685420D01*
X2978658Y12687096D01*
X2973984Y12688468D01*
X2969056Y12689586D01*
X2964027Y12690348D01*
X2958846Y12690805D01*
G37*
G36*
X1536192Y12690094D02*
G01*
X1534820Y12689687D01*
X1533093Y12688468D01*
X1531061Y12686487D01*
X1526184Y12680492D01*
X1520291Y12671958D01*
X1513636Y12661239D01*
X1506423Y12648641D01*
X1498803Y12634468D01*
X1491030Y12619126D01*
X1474622Y12585649D01*
X1466189Y12569545D01*
X1457706Y12554153D01*
X1449222Y12539573D01*
X1440789Y12525756D01*
X1432407Y12512802D01*
X1424127Y12500660D01*
X1415999Y12489484D01*
X1407972Y12479172D01*
X1400149Y12469825D01*
X1392529Y12461494D01*
X1385112Y12454128D01*
X1378000Y12447879D01*
X1371142Y12442647D01*
X1364640Y12438583D01*
X1358493Y12435636D01*
X1352702Y12433858D01*
X1347317Y12433300D01*
X1344828Y12433503D01*
X1342390Y12434011D01*
X1340104Y12434824D01*
X1337919Y12435941D01*
X1335887Y12437414D01*
X1333957Y12439243D01*
X1332179Y12441377D01*
X1326997Y12446406D01*
X1320800Y12449606D01*
X1314145Y12450724D01*
X1307592Y12449556D01*
X1300988Y12446406D01*
X1296517Y12442748D01*
X1294231Y12438735D01*
X1294028Y12434468D01*
X1295958Y12430048D01*
X1299921Y12425629D01*
X1305966Y12421260D01*
X1313992Y12417094D01*
X1317396Y12415723D01*
X1324305Y12413742D01*
X1331366Y12412726D01*
X1338630Y12412726D01*
X1346047Y12413691D01*
X1353566Y12415672D01*
X1361236Y12418568D01*
X1369009Y12422428D01*
X1376934Y12427254D01*
X1384909Y12433046D01*
X1393037Y12439700D01*
X1401216Y12447371D01*
X1409496Y12455906D01*
X1417878Y12465354D01*
X1426260Y12475718D01*
X1434744Y12486995D01*
X1443228Y12499187D01*
X1451762Y12512192D01*
X1460347Y12526162D01*
X1468932Y12540945D01*
X1479346Y12559792D01*
X1488846Y12576403D01*
X1492402Y12582093D01*
X1495298Y12586106D01*
X1497685Y12588494D01*
X1499616Y12589459D01*
X1501241Y12588951D01*
X1502664Y12587173D01*
X1503934Y12584125D01*
X1505254Y12579959D01*
X1507286Y12571933D01*
X1508607Y12564567D01*
X1511350Y12543942D01*
X1513941Y12517932D01*
X1516024Y12489535D01*
X1520393Y12409678D01*
X1520698Y12409728D01*
X1522831Y12412827D01*
X1532585Y12429388D01*
X1548028Y12457176D01*
X1577238Y12511227D01*
X1585925Y12526772D01*
X1594612Y12541707D01*
X1603248Y12555931D01*
X1611833Y12569444D01*
X1620316Y12582194D01*
X1628749Y12594132D01*
X1636979Y12605308D01*
X1645107Y12615570D01*
X1653032Y12625019D01*
X1660702Y12633502D01*
X1668170Y12641021D01*
X1675333Y12647625D01*
X1682191Y12653162D01*
X1688744Y12657683D01*
X1694942Y12661087D01*
X1697888Y12662408D01*
X1703527Y12664135D01*
X1706168Y12664592D01*
X1708708Y12664744D01*
X1715312Y12663678D01*
X1718868Y12660172D01*
X1719529Y12653619D01*
X1716074Y12635788D01*
X1715770Y12629794D01*
X1716684Y12625578D01*
X1718716Y12623190D01*
X1721815Y12622631D01*
X1725930Y12624003D01*
X1731010Y12627203D01*
X1736902Y12632436D01*
X1740560Y12636652D01*
X1743354Y12641427D01*
X1745437Y12646558D01*
X1746707Y12651943D01*
X1747215Y12657378D01*
X1747012Y12662763D01*
X1746046Y12667945D01*
X1744421Y12672771D01*
X1742084Y12677140D01*
X1739087Y12680797D01*
X1735378Y12683693D01*
X1731111Y12685623D01*
X1727606Y12686538D01*
X1724050Y12687147D01*
X1720392Y12687503D01*
X1712975Y12687249D01*
X1709166Y12686741D01*
X1701342Y12684760D01*
X1697329Y12683388D01*
X1689201Y12679730D01*
X1685086Y12677546D01*
X1676704Y12672263D01*
X1668170Y12665913D01*
X1659483Y12658547D01*
X1650695Y12650114D01*
X1641805Y12640665D01*
X1632864Y12630251D01*
X1623872Y12618872D01*
X1614830Y12606477D01*
X1605788Y12593218D01*
X1596745Y12578994D01*
X1587754Y12563856D01*
X1578813Y12547854D01*
X1548384Y12491720D01*
X1541526Y12581229D01*
X1539849Y12613640D01*
X1539494Y12628524D01*
X1539443Y12642037D01*
X1539748Y12653670D01*
X1540306Y12663068D01*
X1541221Y12669875D01*
X1543710Y12680137D01*
X1543405Y12685725D01*
X1540916Y12689078D01*
G37*
G36*
X3428847Y12688316D02*
G01*
X3423818Y12688062D01*
X3418789Y12687452D01*
X3413861Y12686538D01*
X3408934Y12685268D01*
X3404158Y12683693D01*
X3399485Y12681712D01*
X3394964Y12679375D01*
X3390646Y12676682D01*
X3384092Y12671602D01*
X3378047Y12665710D01*
X3372459Y12659004D01*
X3367328Y12651384D01*
X3364890Y12647218D01*
X3360420Y12638176D01*
X3356356Y12628168D01*
X3352749Y12617145D01*
X3349447Y12605054D01*
X3346551Y12591897D01*
X3344011Y12577572D01*
X3341827Y12562027D01*
X3339846Y12545212D01*
X3337712Y12529566D01*
X3335426Y12515900D01*
X3332734Y12503912D01*
X3329686Y12493294D01*
X3325977Y12483795D01*
X3323945Y12479274D01*
X3319221Y12470790D01*
X3313633Y12462560D01*
X3307079Y12454331D01*
X3299460Y12445796D01*
X3295243Y12441783D01*
X3290620Y12438227D01*
X3285591Y12435179D01*
X3280206Y12432588D01*
X3274567Y12430506D01*
X3268675Y12428880D01*
X3262629Y12427712D01*
X3256432Y12427102D01*
X3250133Y12426899D01*
X3243834Y12427254D01*
X3237534Y12428118D01*
X3231286Y12429439D01*
X3225139Y12431318D01*
X3219145Y12433655D01*
X3213404Y12436500D01*
X3207918Y12439904D01*
X3202787Y12443968D01*
X3198469Y12448540D01*
X3194862Y12453467D01*
X3192119Y12458547D01*
X3190189Y12463678D01*
X3189071Y12468656D01*
X3188868Y12473330D01*
X3189528Y12477496D01*
X3191103Y12481052D01*
X3193643Y12483795D01*
X3197148Y12485573D01*
X3207359Y12487249D01*
X3211423Y12490145D01*
X3213709Y12494361D01*
X3214370Y12499390D01*
X3213303Y12504724D01*
X3210610Y12509855D01*
X3206292Y12514326D01*
X3200349Y12517577D01*
X3195370Y12518694D01*
X3190494Y12518440D01*
X3185769Y12516916D01*
X3181350Y12514275D01*
X3177235Y12510668D01*
X3173628Y12506198D01*
X3170529Y12501016D01*
X3168091Y12495276D01*
X3166414Y12489078D01*
X3165500Y12482576D01*
X3165551Y12475921D01*
X3166618Y12469164D01*
X3168142Y12463678D01*
X3170123Y12458446D01*
X3172409Y12453416D01*
X3175101Y12448641D01*
X3178098Y12444120D01*
X3181451Y12439853D01*
X3185109Y12435890D01*
X3189071Y12432131D01*
X3193288Y12428728D01*
X3197809Y12425527D01*
X3202533Y12422632D01*
X3207512Y12420041D01*
X3212693Y12417755D01*
X3218129Y12415774D01*
X3223666Y12414097D01*
X3229406Y12412726D01*
X3235299Y12411659D01*
X3241344Y12410897D01*
X3247491Y12410490D01*
X3253740Y12410440D01*
X3260090Y12410694D01*
X3266490Y12411303D01*
X3272942Y12412268D01*
X3279444Y12413589D01*
X3285947Y12415266D01*
X3292500Y12417348D01*
X3299002Y12419736D01*
X3309670Y12424562D01*
X3317544Y12429032D01*
X3324758Y12434112D01*
X3331362Y12439904D01*
X3334512Y12443053D01*
X3340303Y12450013D01*
X3343046Y12453823D01*
X3348177Y12462205D01*
X3352850Y12471552D01*
X3357168Y12482017D01*
X3361131Y12493701D01*
X3364788Y12506655D01*
X3368243Y12520930D01*
X3371443Y12536678D01*
X3377539Y12573203D01*
X3380892Y12591694D01*
X3384499Y12608052D01*
X3388360Y12622428D01*
X3390392Y12628880D01*
X3394710Y12640310D01*
X3399434Y12649911D01*
X3401923Y12653975D01*
X3404514Y12657632D01*
X3407206Y12660884D01*
X3410000Y12663678D01*
X3412947Y12666014D01*
X3415995Y12667996D01*
X3419144Y12669570D01*
X3422446Y12670688D01*
X3425850Y12671450D01*
X3429406Y12671856D01*
X3433114Y12671856D01*
X3436975Y12671450D01*
X3441598Y12670536D01*
X3445408Y12669113D01*
X3448456Y12667132D01*
X3450691Y12664490D01*
X3452266Y12661087D01*
X3453129Y12656870D01*
X3453485Y12651740D01*
X3453028Y12639446D01*
X3453231Y12634264D01*
X3453892Y12630099D01*
X3455009Y12626848D01*
X3456584Y12624612D01*
X3458667Y12623342D01*
X3461156Y12623038D01*
X3464153Y12623647D01*
X3467608Y12625273D01*
X3471570Y12627864D01*
X3475990Y12631420D01*
X3480866Y12635941D01*
X3483914Y12639243D01*
X3486302Y12642545D01*
X3488029Y12645796D01*
X3489198Y12649047D01*
X3489756Y12652248D01*
X3489807Y12655397D01*
X3489299Y12658496D01*
X3488334Y12661493D01*
X3486861Y12664389D01*
X3485032Y12667183D01*
X3482746Y12669875D01*
X3480054Y12672466D01*
X3477056Y12674854D01*
X3473704Y12677140D01*
X3470097Y12679222D01*
X3462070Y12682829D01*
X3457701Y12684353D01*
X3448507Y12686690D01*
X3443732Y12687503D01*
X3438804Y12688062D01*
X3433876Y12688316D01*
G37*
G36*
X2471978Y12620853D02*
G01*
X2467203Y12618466D01*
X2464460Y12613284D01*
X2463596Y12605207D01*
X2464460Y12597130D01*
X2467203Y12591948D01*
X2471978Y12589560D01*
X2478887Y12589814D01*
X2484831Y12591948D01*
X2489657Y12595555D01*
X2492959Y12600127D01*
X2494178Y12605207D01*
X2492959Y12610287D01*
X2489657Y12614910D01*
X2484831Y12618516D01*
X2478887Y12620599D01*
G37*
G36*
X3081934Y12596571D02*
G01*
X3078073Y12595961D01*
X3073857Y12594539D01*
X3069437Y12592253D01*
X3064967Y12589154D01*
X3060547Y12585293D01*
X3056280Y12580721D01*
X3045764Y12567208D01*
X3038398Y12560452D01*
X3031185Y12555880D01*
X3024987Y12554204D01*
X3020161Y12553340D01*
X3016961Y12550851D01*
X3015742Y12547142D01*
X3017113Y12539522D01*
X3016808Y12535662D01*
X3015742Y12530988D01*
X3014014Y12525756D01*
X3011627Y12520066D01*
X3008680Y12514122D01*
X3005226Y12508077D01*
X2996082Y12494412D01*
X2987344Y12480493D01*
X2983839Y12474194D01*
X2980893Y12468301D01*
X2978505Y12462764D01*
X2976626Y12457633D01*
X2975305Y12452807D01*
X2974543Y12448286D01*
X2974289Y12444069D01*
X2974543Y12440107D01*
X2975356Y12436398D01*
X2976626Y12432842D01*
X2978454Y12429540D01*
X2980791Y12426340D01*
X2983585Y12423292D01*
X2989478Y12417958D01*
X2994914Y12414046D01*
X3000146Y12411557D01*
X3005480Y12410440D01*
X3011271Y12410643D01*
X3017774Y12412167D01*
X3025241Y12415012D01*
X3034080Y12419126D01*
X3042361Y12423952D01*
X3052013Y12430760D01*
X3062630Y12439142D01*
X3073806Y12448641D01*
X3085134Y12458954D01*
X3096260Y12469622D01*
X3106775Y12480340D01*
X3116275Y12490602D01*
X3124301Y12500102D01*
X3130550Y12508433D01*
X3132836Y12511989D01*
X3134563Y12515138D01*
X3135579Y12517780D01*
X3135934Y12519863D01*
X3135325Y12521946D01*
X3133598Y12522454D01*
X3130854Y12521539D01*
X3127146Y12519202D01*
X3122676Y12515596D01*
X3117443Y12510668D01*
X3111550Y12504572D01*
X3100832Y12492532D01*
X3091383Y12482779D01*
X3080969Y12472974D01*
X3069996Y12463373D01*
X3058820Y12454382D01*
X3047847Y12446152D01*
X3037382Y12439040D01*
X3027883Y12433249D01*
X3019704Y12429134D01*
X3016199Y12427813D01*
X3013151Y12426950D01*
X3010611Y12426696D01*
X3008020Y12427153D01*
X3006293Y12428524D01*
X3005328Y12430861D01*
X3005175Y12434112D01*
X3005886Y12438227D01*
X3007360Y12443256D01*
X3009646Y12449200D01*
X3012744Y12456058D01*
X3016656Y12463780D01*
X3021330Y12472365D01*
X3033166Y12492126D01*
X3044190Y12509296D01*
X3048914Y12515951D01*
X3053232Y12521488D01*
X3057347Y12526010D01*
X3061309Y12529566D01*
X3065322Y12532309D01*
X3069437Y12534341D01*
X3073857Y12535763D01*
X3078632Y12536627D01*
X3083966Y12537084D01*
X3089910Y12537186D01*
X3101086Y12537846D01*
X3110179Y12539675D01*
X3116376Y12542418D01*
X3118662Y12545720D01*
X3116783Y12549022D01*
X3111703Y12551714D01*
X3104235Y12553543D01*
X3095040Y12554204D01*
X3084118Y12554661D01*
X3078581Y12556337D01*
X3077972Y12559487D01*
X3086049Y12569240D01*
X3089351Y12574879D01*
X3091637Y12580569D01*
X3092450Y12585649D01*
X3091942Y12589814D01*
X3090519Y12592913D01*
X3088284Y12595098D01*
X3085388Y12596317D01*
G37*
G36*
X2049475Y12554204D02*
G01*
X2045157Y12554000D01*
X2040686Y12553492D01*
X2036114Y12552578D01*
X2031390Y12551359D01*
X2021738Y12547955D01*
X2016810Y12545822D01*
X2006904Y12540691D01*
X2001926Y12537795D01*
X1992122Y12531242D01*
X1982571Y12523825D01*
X1973478Y12515748D01*
X1964893Y12507061D01*
X1957070Y12497917D01*
X1950161Y12488367D01*
X1947062Y12483490D01*
X1941372Y12473838D01*
X1937664Y12469012D01*
X1933295Y12464084D01*
X1928418Y12459208D01*
X1923186Y12454483D01*
X1917649Y12449911D01*
X1909878Y12444222D01*
X1974494Y12444222D01*
X1974748Y12449251D01*
X1975408Y12454382D01*
X1976577Y12459614D01*
X1978101Y12464897D01*
X1980031Y12470282D01*
X1982266Y12475616D01*
X1984806Y12480950D01*
X1987651Y12486233D01*
X1994052Y12496495D01*
X2001215Y12506096D01*
X2004974Y12510617D01*
X2012797Y12518847D01*
X2016810Y12522555D01*
X2020773Y12525857D01*
X2024735Y12528804D01*
X2028647Y12531344D01*
X2032457Y12533426D01*
X2036165Y12535052D01*
X2039721Y12536170D01*
X2043125Y12536728D01*
X2046325Y12536728D01*
X2049272Y12536170D01*
X2051913Y12534950D01*
X2054301Y12533020D01*
X2056333Y12530429D01*
X2057247Y12527686D01*
X2057298Y12523825D01*
X2056485Y12519101D01*
X2054961Y12513564D01*
X2052777Y12507366D01*
X2050034Y12500711D01*
X2046833Y12493752D01*
X2043175Y12486589D01*
X2039162Y12479375D01*
X2034895Y12472314D01*
X2030475Y12465507D01*
X2025954Y12459106D01*
X2021382Y12453264D01*
X2016912Y12448133D01*
X2012543Y12443815D01*
X2008428Y12440564D01*
X1999284Y12434570D01*
X1991817Y12430455D01*
X1985924Y12428067D01*
X1981403Y12427610D01*
X1978152Y12428931D01*
X1976018Y12432131D01*
X1974850Y12437262D01*
X1974494Y12444222D01*
X1909878Y12444222D01*
X1900936Y12438430D01*
X1895805Y12435586D01*
X1891030Y12433452D01*
X1886864Y12431979D01*
X1883359Y12431369D01*
X1880717Y12431674D01*
X1878990Y12432995D01*
X1878431Y12435433D01*
X1878939Y12438126D01*
X1880565Y12442088D01*
X1883054Y12447117D01*
X1886356Y12453061D01*
X1894941Y12466777D01*
X1914194Y12494107D01*
X1921002Y12505029D01*
X1925929Y12514529D01*
X1927656Y12518796D01*
X1928875Y12522758D01*
X1929638Y12526365D01*
X1929892Y12529718D01*
X1929587Y12532766D01*
X1928825Y12535560D01*
X1927555Y12538100D01*
X1925726Y12540386D01*
X1923389Y12542418D01*
X1920544Y12544196D01*
X1917141Y12545771D01*
X1913229Y12547142D01*
X1908759Y12548311D01*
X1898243Y12550089D01*
X1885492Y12551156D01*
X1830374Y12553035D01*
X1796135Y12504521D01*
X1786940Y12492837D01*
X1776882Y12481153D01*
X1766366Y12469825D01*
X1755698Y12459157D01*
X1745234Y12449505D01*
X1735277Y12441123D01*
X1726234Y12434366D01*
X1718411Y12429540D01*
X1715058Y12427966D01*
X1712163Y12427000D01*
X1709724Y12426696D01*
X1708302Y12427000D01*
X1707388Y12427915D01*
X1706930Y12429490D01*
X1707032Y12431623D01*
X1707642Y12434366D01*
X1710232Y12441529D01*
X1714754Y12450876D01*
X1721053Y12462256D01*
X1729181Y12475514D01*
X1739036Y12490653D01*
X1750415Y12507468D01*
X1760778Y12523419D01*
X1768602Y12536424D01*
X1773021Y12544806D01*
X1773580Y12546787D01*
X1772564Y12547955D01*
X1769618Y12549022D01*
X1764893Y12550038D01*
X1758696Y12550952D01*
X1742592Y12552375D01*
X1722882Y12553086D01*
X1703324Y12552984D01*
X1695297Y12552629D01*
X1688134Y12551918D01*
X1681784Y12550851D01*
X1676044Y12549327D01*
X1670659Y12547396D01*
X1665528Y12544907D01*
X1660448Y12541808D01*
X1655267Y12538151D01*
X1643888Y12528600D01*
X1634185Y12519355D01*
X1625600Y12509906D01*
X1618132Y12500356D01*
X1611731Y12490856D01*
X1606397Y12481407D01*
X1602181Y12472212D01*
X1599031Y12463272D01*
X1596948Y12454788D01*
X1595882Y12446812D01*
X1595806Y12443968D01*
X1625803Y12443968D01*
X1626057Y12448286D01*
X1627174Y12453264D01*
X1629105Y12458903D01*
X1631797Y12465050D01*
X1635251Y12471654D01*
X1639366Y12478613D01*
X1644142Y12485827D01*
X1649475Y12493193D01*
X1655368Y12500610D01*
X1661718Y12507976D01*
X1667052Y12513665D01*
X1672132Y12518694D01*
X1677060Y12523165D01*
X1681734Y12526975D01*
X1686204Y12530124D01*
X1690370Y12532715D01*
X1694281Y12534646D01*
X1697837Y12535916D01*
X1701088Y12536525D01*
X1703984Y12536525D01*
X1706473Y12535814D01*
X1708556Y12534442D01*
X1710232Y12532410D01*
X1711452Y12529667D01*
X1712214Y12526264D01*
X1712468Y12522149D01*
X1712112Y12517628D01*
X1711147Y12512852D01*
X1709572Y12507823D01*
X1707438Y12502591D01*
X1704848Y12497257D01*
X1698294Y12486386D01*
X1694535Y12481001D01*
X1686102Y12470384D01*
X1676907Y12460528D01*
X1667357Y12451689D01*
X1662531Y12447828D01*
X1657807Y12444374D01*
X1653184Y12441428D01*
X1648714Y12438938D01*
X1644446Y12437059D01*
X1640433Y12435840D01*
X1636776Y12435230D01*
X1633423Y12435382D01*
X1630476Y12436297D01*
X1628038Y12438024D01*
X1626412Y12440513D01*
X1625803Y12443968D01*
X1595806Y12443968D01*
X1595882Y12439396D01*
X1596288Y12435992D01*
X1596948Y12432741D01*
X1597863Y12429693D01*
X1599031Y12426899D01*
X1600454Y12424308D01*
X1602130Y12421971D01*
X1604060Y12419888D01*
X1606296Y12418060D01*
X1608734Y12416485D01*
X1611426Y12415215D01*
X1614373Y12414300D01*
X1617573Y12413640D01*
X1620977Y12413335D01*
X1624685Y12413386D01*
X1628648Y12413742D01*
X1632813Y12414504D01*
X1637233Y12415672D01*
X1641906Y12417196D01*
X1646834Y12419126D01*
X1659331Y12424918D01*
X1665325Y12427356D01*
X1670253Y12428778D01*
X1674317Y12429236D01*
X1677873Y12428677D01*
X1681022Y12427153D01*
X1684172Y12424562D01*
X1687474Y12421006D01*
X1693164Y12416129D01*
X1700123Y12413284D01*
X1707896Y12412573D01*
X1716227Y12414046D01*
X1724964Y12416180D01*
X1735480Y12417806D01*
X1746351Y12418771D01*
X1760575Y12419025D01*
X1764690Y12419634D01*
X1768805Y12420854D01*
X1772920Y12422733D01*
X1777136Y12425324D01*
X1781556Y12428626D01*
X1786178Y12432792D01*
X1791157Y12437821D01*
X1796542Y12443815D01*
X1808683Y12458801D01*
X1820773Y12474651D01*
X1831238Y12487402D01*
X1841703Y12499136D01*
X1852066Y12509652D01*
X1861972Y12518745D01*
X1871319Y12526314D01*
X1879854Y12532106D01*
X1883714Y12534290D01*
X1887270Y12535966D01*
X1890572Y12537135D01*
X1893468Y12537744D01*
X1896059Y12537795D01*
X1898192Y12537236D01*
X1899920Y12536068D01*
X1900123Y12534442D01*
X1899157Y12531242D01*
X1897024Y12526772D01*
X1893925Y12521082D01*
X1889963Y12514478D01*
X1879752Y12499035D01*
X1867611Y12482118D01*
X1857603Y12467386D01*
X1853692Y12461036D01*
X1850491Y12455296D01*
X1848053Y12450165D01*
X1846275Y12445542D01*
X1845208Y12441326D01*
X1844802Y12437567D01*
X1845056Y12434163D01*
X1846021Y12431064D01*
X1847596Y12428270D01*
X1849882Y12425629D01*
X1852726Y12423140D01*
X1856232Y12420803D01*
X1860397Y12418466D01*
X1865223Y12416536D01*
X1870710Y12415266D01*
X1876704Y12414758D01*
X1883054Y12414859D01*
X1889506Y12415570D01*
X1896008Y12416891D01*
X1902358Y12418669D01*
X1908352Y12421006D01*
X1913889Y12423749D01*
X1918766Y12426899D01*
X1922830Y12430455D01*
X1925929Y12434316D01*
X1929485Y12436703D01*
X1934819Y12435941D01*
X1941575Y12432182D01*
X1954225Y12421260D01*
X1958949Y12417755D01*
X1963674Y12415164D01*
X1968449Y12413335D01*
X1973427Y12412370D01*
X1978710Y12412116D01*
X1984349Y12412624D01*
X1990547Y12413843D01*
X1996541Y12415570D01*
X2002840Y12417907D01*
X2009343Y12420752D01*
X2015947Y12424054D01*
X2022551Y12427762D01*
X2029155Y12431826D01*
X2041855Y12440716D01*
X2047849Y12445441D01*
X2058619Y12455144D01*
X2063292Y12460020D01*
X2067306Y12464796D01*
X2070658Y12469418D01*
X2073300Y12473838D01*
X2078685Y12486030D01*
X2083562Y12490450D01*
X2090369Y12491567D01*
X2099665Y12489738D01*
X2108555Y12486995D01*
X2114956Y12484557D01*
X2119020Y12482017D01*
X2120798Y12478969D01*
X2120341Y12475006D01*
X2117750Y12469723D01*
X2113076Y12462662D01*
X2099005Y12443104D01*
X2093671Y12434925D01*
X2090369Y12428728D01*
X2089150Y12424257D01*
X2089912Y12421209D01*
X2092756Y12419330D01*
X2097532Y12418415D01*
X2104339Y12418161D01*
X2108098Y12418822D01*
X2112416Y12420650D01*
X2117242Y12423546D01*
X2122322Y12427407D01*
X2127554Y12432131D01*
X2132787Y12437567D01*
X2137867Y12443561D01*
X2147265Y12456566D01*
X2157018Y12469418D01*
X2167331Y12481915D01*
X2177897Y12493802D01*
X2188464Y12504775D01*
X2198725Y12514580D01*
X2208377Y12522962D01*
X2212898Y12526568D01*
X2221230Y12532309D01*
X2224887Y12534392D01*
X2228240Y12535916D01*
X2231186Y12536881D01*
X2233676Y12537186D01*
X2238451Y12536474D01*
X2241143Y12534341D01*
X2241550Y12530988D01*
X2239721Y12526568D01*
X2193036Y12454178D01*
X2183841Y12439091D01*
X2177643Y12428118D01*
X2175967Y12424664D01*
X2175357Y12422835D01*
X2176068Y12419990D01*
X2178050Y12418161D01*
X2181098Y12417145D01*
X2184958Y12416993D01*
X2189429Y12417552D01*
X2194356Y12418822D01*
X2199436Y12420701D01*
X2204466Y12423089D01*
X2209241Y12425984D01*
X2213559Y12429236D01*
X2217166Y12432893D01*
X2219909Y12436754D01*
X2222195Y12440666D01*
X2228342Y12449505D01*
X2236165Y12459512D01*
X2245309Y12470282D01*
X2255418Y12481407D01*
X2266035Y12492532D01*
X2276805Y12503251D01*
X2287270Y12513157D01*
X2297125Y12521844D01*
X2305964Y12528956D01*
X2309825Y12531801D01*
X2313330Y12534087D01*
X2316327Y12535763D01*
X2318867Y12536830D01*
X2320798Y12537186D01*
X2323084Y12536474D01*
X2323998Y12534392D01*
X2323592Y12530886D01*
X2321864Y12526010D01*
X2318867Y12519863D01*
X2314549Y12512395D01*
X2309012Y12503708D01*
X2286000Y12470384D01*
X2278938Y12459055D01*
X2276449Y12454382D01*
X2274671Y12450267D01*
X2273503Y12446609D01*
X2272995Y12443358D01*
X2273096Y12440361D01*
X2273757Y12437516D01*
X2274976Y12434773D01*
X2276754Y12432080D01*
X2281885Y12426289D01*
X2290724Y12417653D01*
X2295245Y12413843D01*
X2299309Y12411506D01*
X2303424Y12410694D01*
X2308199Y12411354D01*
X2314194Y12413488D01*
X2339594Y12425832D01*
X2345639Y12428423D01*
X2350566Y12429947D01*
X2354630Y12430455D01*
X2358136Y12429896D01*
X2361336Y12428321D01*
X2364486Y12425680D01*
X2367889Y12422022D01*
X2371191Y12418872D01*
X2375001Y12416485D01*
X2379370Y12414859D01*
X2384094Y12413996D01*
X2389225Y12413843D01*
X2394661Y12414453D01*
X2400300Y12415774D01*
X2406142Y12417755D01*
X2412136Y12420447D01*
X2418130Y12423851D01*
X2424176Y12427915D01*
X2438196Y12438684D01*
X2443937Y12440056D01*
X2448864Y12436398D01*
X2457348Y12422581D01*
X2460244Y12418618D01*
X2463292Y12415469D01*
X2466543Y12413081D01*
X2470048Y12411456D01*
X2473909Y12410643D01*
X2478227Y12410592D01*
X2483002Y12411303D01*
X2488336Y12412726D01*
X2494330Y12414910D01*
X2501087Y12417856D01*
X2515362Y12424816D01*
X2521051Y12427153D01*
X2525776Y12428575D01*
X2529890Y12428931D01*
X2533599Y12428372D01*
X2537104Y12426746D01*
X2540762Y12424156D01*
X2547670Y12417958D01*
X2550718Y12415824D01*
X2553868Y12414148D01*
X2557170Y12412929D01*
X2560523Y12412268D01*
X2564079Y12412065D01*
X2567787Y12412370D01*
X2571699Y12413183D01*
X2575763Y12414554D01*
X2580081Y12416434D01*
X2584602Y12418872D01*
X2589377Y12421870D01*
X2594406Y12425426D01*
X2599690Y12429490D01*
X2605278Y12434163D01*
X2617419Y12445288D01*
X2630881Y12458750D01*
X2644190Y12472924D01*
X2654757Y12484658D01*
X2663190Y12494666D01*
X2669641Y12502845D01*
X2674162Y12509246D01*
X2676702Y12513818D01*
X2677261Y12515392D01*
X2677363Y12516510D01*
X2676956Y12517170D01*
X2676144Y12517323D01*
X2674874Y12517018D01*
X2670962Y12514986D01*
X2665323Y12510973D01*
X2657957Y12504928D01*
X2648966Y12496901D01*
X2638298Y12486843D01*
X2614625Y12463322D01*
X2604312Y12453518D01*
X2595118Y12445238D01*
X2587040Y12438481D01*
X2580132Y12433249D01*
X2574391Y12429490D01*
X2569870Y12427305D01*
X2567990Y12426746D01*
X2566466Y12426543D01*
X2565247Y12426746D01*
X2564282Y12427305D01*
X2563672Y12428220D01*
X2563317Y12429540D01*
X2563571Y12433198D01*
X2565095Y12438329D01*
X2567787Y12444882D01*
X2571800Y12452858D01*
X2577033Y12462256D01*
X2583586Y12473025D01*
X2591409Y12485268D01*
X2611780Y12515748D01*
X2621026Y12530429D01*
X2627223Y12541300D01*
X2628950Y12544856D01*
X2629560Y12546838D01*
X2628544Y12547955D01*
X2625648Y12549073D01*
X2621076Y12550038D01*
X2615082Y12550952D01*
X2599436Y12552375D01*
X2580284Y12553035D01*
X2567127Y12552883D01*
X2555240Y12552172D01*
X2544419Y12550749D01*
X2534462Y12548514D01*
X2529789Y12547041D01*
X2520797Y12543383D01*
X2512263Y12538608D01*
X2503932Y12532664D01*
X2495651Y12525400D01*
X2491435Y12521285D01*
X2482850Y12511887D01*
X2473858Y12500965D01*
X2459431Y12482220D01*
X2448814Y12470079D01*
X2437333Y12458598D01*
X2425649Y12448286D01*
X2419225Y12443206D01*
X2481935Y12443206D01*
X2482189Y12446863D01*
X2483053Y12451130D01*
X2484475Y12455956D01*
X2486456Y12461240D01*
X2491790Y12472771D01*
X2495042Y12478816D01*
X2502458Y12490958D01*
X2506522Y12496850D01*
X2510790Y12502540D01*
X2515108Y12507823D01*
X2519527Y12512649D01*
X2523947Y12516916D01*
X2530398Y12522454D01*
X2536444Y12527127D01*
X2542082Y12530836D01*
X2547264Y12533579D01*
X2551988Y12535458D01*
X2556154Y12536373D01*
X2559761Y12536373D01*
X2562758Y12535408D01*
X2565196Y12533528D01*
X2566974Y12530683D01*
X2568041Y12526924D01*
X2568397Y12522149D01*
X2568041Y12517577D01*
X2567076Y12512751D01*
X2565501Y12507671D01*
X2563368Y12502438D01*
X2560726Y12497104D01*
X2557678Y12491669D01*
X2554224Y12486233D01*
X2550414Y12480798D01*
X2546350Y12475464D01*
X2537460Y12465202D01*
X2532786Y12460376D01*
X2528011Y12455855D01*
X2523185Y12451638D01*
X2518359Y12447828D01*
X2513584Y12444425D01*
X2508961Y12441478D01*
X2504440Y12439091D01*
X2500172Y12437211D01*
X2496159Y12435992D01*
X2492400Y12435484D01*
X2489047Y12435636D01*
X2486101Y12436602D01*
X2483612Y12438380D01*
X2482392Y12440361D01*
X2481935Y12443206D01*
X2419225Y12443206D01*
X2414371Y12439599D01*
X2409139Y12436043D01*
X2404211Y12433096D01*
X2399792Y12430810D01*
X2395829Y12429236D01*
X2392476Y12428423D01*
X2389784Y12428524D01*
X2387904Y12429490D01*
X2387701Y12430607D01*
X2388209Y12432690D01*
X2389378Y12435738D01*
X2393645Y12444222D01*
X2400147Y12455499D01*
X2408478Y12468910D01*
X2418334Y12483896D01*
X2431592Y12503302D01*
X2443734Y12521742D01*
X2448102Y12528956D01*
X2451404Y12534950D01*
X2453690Y12539878D01*
X2455011Y12543840D01*
X2455367Y12546939D01*
X2454910Y12549327D01*
X2453538Y12551054D01*
X2451404Y12552273D01*
X2448560Y12553086D01*
X2444902Y12553340D01*
X2440990Y12552680D01*
X2436876Y12551156D01*
X2432608Y12548870D01*
X2428290Y12545771D01*
X2423972Y12541961D01*
X2419705Y12537490D01*
X2400655Y12512903D01*
X2390394Y12500457D01*
X2380132Y12488621D01*
X2369870Y12477445D01*
X2359863Y12467132D01*
X2350160Y12457734D01*
X2340965Y12449352D01*
X2332329Y12442190D01*
X2324404Y12436297D01*
X2317394Y12431776D01*
X2311298Y12428778D01*
X2308707Y12427915D01*
X2306370Y12427458D01*
X2304338Y12427458D01*
X2302662Y12427864D01*
X2301290Y12428778D01*
X2301189Y12430353D01*
X2302306Y12433452D01*
X2304542Y12437922D01*
X2311908Y12450165D01*
X2322322Y12465608D01*
X2332583Y12479934D01*
X2340203Y12491669D01*
X2346706Y12503200D01*
X2351836Y12513818D01*
X2355291Y12523063D01*
X2356307Y12526924D01*
X2356815Y12530277D01*
X2356815Y12532969D01*
X2355443Y12538049D01*
X2352954Y12542418D01*
X2349449Y12546076D01*
X2345080Y12548971D01*
X2339949Y12551054D01*
X2334209Y12552375D01*
X2327960Y12552883D01*
X2321356Y12552527D01*
X2314498Y12551308D01*
X2307488Y12549276D01*
X2300478Y12546279D01*
X2282850Y12536170D01*
X2275941Y12533934D01*
X2271522Y12535662D01*
X2266543Y12544196D01*
X2263546Y12546634D01*
X2259330Y12548616D01*
X2253843Y12550190D01*
X2246985Y12551308D01*
X2238705Y12552019D01*
X2228951Y12552324D01*
X2208479Y12551968D01*
X2200351Y12551511D01*
X2193239Y12550851D01*
X2186889Y12549886D01*
X2181301Y12548666D01*
X2176221Y12547041D01*
X2171649Y12545060D01*
X2167382Y12542570D01*
X2163267Y12539624D01*
X2159254Y12536068D01*
X2155190Y12531953D01*
X2145842Y12521692D01*
X2140915Y12516866D01*
X2136089Y12512852D01*
X2131415Y12509601D01*
X2126894Y12507061D01*
X2122525Y12505283D01*
X2118309Y12504216D01*
X2114245Y12503962D01*
X2110384Y12504420D01*
X2106726Y12505639D01*
X2103272Y12507620D01*
X2100021Y12510363D01*
X2097024Y12513818D01*
X2094179Y12518034D01*
X2091639Y12522962D01*
X2086457Y12536068D01*
X2083511Y12541910D01*
X2080209Y12546330D01*
X2076348Y12549632D01*
X2071573Y12551867D01*
X2065680Y12553289D01*
X2058416Y12554000D01*
G37*
G36*
X3641801Y12552984D02*
G01*
X3628440Y12552273D01*
X3622090Y12551613D01*
X3609898Y12549581D01*
X3604056Y12548260D01*
X3598367Y12546685D01*
X3592880Y12544856D01*
X3582314Y12540488D01*
X3577285Y12537948D01*
X3572357Y12535154D01*
X3567531Y12532106D01*
X3558286Y12525197D01*
X3549497Y12517221D01*
X3545230Y12512852D01*
X3536950Y12503251D01*
X3529025Y12492532D01*
X3521201Y12480950D01*
X3517036Y12475413D01*
X3512769Y12470180D01*
X3508298Y12465202D01*
X3499154Y12456210D01*
X3490190Y12448743D01*
X3547719Y12448743D01*
X3548075Y12452502D01*
X3548938Y12456566D01*
X3550208Y12460986D01*
X3551885Y12465659D01*
X3554018Y12470587D01*
X3559454Y12480950D01*
X3566414Y12491821D01*
X3574796Y12502845D01*
X3579520Y12508382D01*
X3584549Y12513818D01*
X3591051Y12520168D01*
X3597351Y12525552D01*
X3603396Y12529820D01*
X3609086Y12533071D01*
X3614318Y12535255D01*
X3619144Y12536373D01*
X3623360Y12536424D01*
X3627018Y12535408D01*
X3629914Y12533274D01*
X3632098Y12530023D01*
X3633470Y12525705D01*
X3633927Y12520218D01*
X3633520Y12516916D01*
X3632301Y12513005D01*
X3630371Y12508585D01*
X3627831Y12503708D01*
X3624681Y12498527D01*
X3616960Y12487402D01*
X3607815Y12475921D01*
X3597910Y12464694D01*
X3587699Y12454382D01*
X3582720Y12449759D01*
X3577894Y12445644D01*
X3573272Y12442088D01*
X3569004Y12439192D01*
X3565093Y12437008D01*
X3561638Y12435636D01*
X3558692Y12435179D01*
X3555593Y12435484D01*
X3553002Y12436398D01*
X3550920Y12437872D01*
X3549396Y12439904D01*
X3548329Y12442393D01*
X3547770Y12445339D01*
X3547719Y12448743D01*
X3490190Y12448743D01*
X3485134Y12445085D01*
X3480511Y12442037D01*
X3471418Y12437059D01*
X3467049Y12435128D01*
X3462832Y12433554D01*
X3458768Y12432385D01*
X3454908Y12431572D01*
X3451250Y12431217D01*
X3447897Y12431268D01*
X3444798Y12431725D01*
X3442004Y12432639D01*
X3439617Y12434011D01*
X3437534Y12435840D01*
X3435858Y12438075D01*
X3434638Y12440818D01*
X3433826Y12444069D01*
X3433521Y12447778D01*
X3433724Y12451994D01*
X3434435Y12456718D01*
X3436162Y12463475D01*
X3437534Y12466320D01*
X3439414Y12468961D01*
X3442055Y12471654D01*
X3445662Y12474448D01*
X3450437Y12477445D01*
X3456584Y12480899D01*
X3473653Y12489434D01*
X3498596Y12501219D01*
X3504844Y12504369D01*
X3510483Y12507518D01*
X3515563Y12510770D01*
X3520033Y12514072D01*
X3523894Y12517374D01*
X3527196Y12520625D01*
X3529837Y12523876D01*
X3531870Y12527026D01*
X3533343Y12530124D01*
X3534156Y12533122D01*
X3534308Y12535966D01*
X3533901Y12538710D01*
X3532835Y12541199D01*
X3531108Y12543586D01*
X3528771Y12545669D01*
X3525774Y12547549D01*
X3522116Y12549174D01*
X3517849Y12550495D01*
X3512921Y12551511D01*
X3507282Y12552222D01*
X3500678Y12552426D01*
X3494024Y12551867D01*
X3487318Y12550546D01*
X3480511Y12548412D01*
X3473653Y12545568D01*
X3466744Y12541961D01*
X3459683Y12537541D01*
X3452520Y12532360D01*
X3446932Y12527788D01*
X3441649Y12523114D01*
X3436620Y12518288D01*
X3431946Y12513360D01*
X3427526Y12508331D01*
X3419703Y12498070D01*
X3416087Y12492532D01*
X3446170Y12492532D01*
X3467354Y12514884D01*
X3475126Y12522657D01*
X3482136Y12528804D01*
X3488232Y12533274D01*
X3493363Y12535966D01*
X3497427Y12536881D01*
X3500424Y12536068D01*
X3502304Y12533376D01*
X3502914Y12528905D01*
X3502355Y12526975D01*
X3500678Y12524587D01*
X3498087Y12521895D01*
X3494582Y12518948D01*
X3490417Y12515850D01*
X3485591Y12512700D01*
X3480257Y12509550D01*
X3446170Y12492532D01*
X3416087Y12492532D01*
X3413201Y12487706D01*
X3410407Y12482525D01*
X3408019Y12477394D01*
X3405936Y12472263D01*
X3404209Y12467234D01*
X3402837Y12462306D01*
X3401822Y12457480D01*
X3401161Y12452807D01*
X3400907Y12448235D01*
X3401009Y12443866D01*
X3401466Y12439700D01*
X3402329Y12435738D01*
X3403600Y12432030D01*
X3405225Y12428524D01*
X3407308Y12425324D01*
X3409746Y12422428D01*
X3412591Y12419838D01*
X3415893Y12417552D01*
X3419601Y12415621D01*
X3423716Y12414097D01*
X3427729Y12413335D01*
X3432810Y12413132D01*
X3438651Y12413488D01*
X3445154Y12414351D01*
X3452012Y12415672D01*
X3459124Y12417450D01*
X3466185Y12419584D01*
X3483101Y12426137D01*
X3491128Y12428931D01*
X3497630Y12430607D01*
X3502964Y12431166D01*
X3507536Y12430506D01*
X3511854Y12428778D01*
X3516223Y12425832D01*
X3525012Y12418720D01*
X3529076Y12416282D01*
X3533241Y12414402D01*
X3537559Y12413132D01*
X3542029Y12412472D01*
X3546551Y12412370D01*
X3551174Y12412929D01*
X3555796Y12414046D01*
X3562959Y12416180D01*
X3565702Y12416790D01*
X3567785Y12416993D01*
X3569208Y12416637D01*
X3569868Y12415621D01*
X3569817Y12413894D01*
X3568954Y12411354D01*
X3567226Y12407849D01*
X3561079Y12397689D01*
X3551072Y12382601D01*
X3521506Y12339320D01*
X3515614Y12330074D01*
X3506266Y12313716D01*
X3503066Y12307062D01*
X3500932Y12301728D01*
X3500018Y12297968D01*
X3500424Y12295936D01*
X3503066Y12293650D01*
X3505809Y12292076D01*
X3508654Y12291161D01*
X3511600Y12290958D01*
X3514699Y12291466D01*
X3518052Y12292736D01*
X3521608Y12294819D01*
X3525367Y12297664D01*
X3529482Y12301372D01*
X3533901Y12305944D01*
X3543808Y12317730D01*
X3555339Y12333224D01*
X3578351Y12366752D01*
X3587089Y12378893D01*
X3595065Y12389256D01*
X3602583Y12398095D01*
X3609746Y12405614D01*
X3616858Y12412014D01*
X3624122Y12417450D01*
X3631641Y12422124D01*
X3639718Y12426289D01*
X3653129Y12432182D01*
X3658006Y12434671D01*
X3668522Y12441021D01*
X3674059Y12444679D01*
X3685336Y12452908D01*
X3696614Y12461951D01*
X3707536Y12471450D01*
X3717747Y12481052D01*
X3726789Y12490399D01*
X3734308Y12499035D01*
X3739896Y12506706D01*
X3741826Y12510058D01*
X3743147Y12513005D01*
X3743807Y12515494D01*
X3743756Y12517526D01*
X3742893Y12518999D01*
X3741216Y12519202D01*
X3738219Y12517983D01*
X3734054Y12515494D01*
X3728872Y12511938D01*
X3722827Y12507315D01*
X3716172Y12501880D01*
X3690874Y12479223D01*
X3679901Y12469876D01*
X3669029Y12461189D01*
X3658920Y12453569D01*
X3650030Y12447473D01*
X3643020Y12443409D01*
X3621481Y12432639D01*
X3645814Y12469215D01*
X3674668Y12511532D01*
X3682593Y12523470D01*
X3689096Y12534087D01*
X3693464Y12542266D01*
X3694684Y12545060D01*
X3695090Y12546787D01*
X3694125Y12547955D01*
X3691432Y12549022D01*
X3687165Y12550038D01*
X3681476Y12550952D01*
X3666744Y12552324D01*
X3658108Y12552781D01*
G37*
D10*
X2216658Y384047D02*
G01*
X2216658Y390905D01*
X2223515Y404368D01*
X2230374Y411226D01*
X2243836Y418084D01*
X2271268Y418084D01*
X2284729Y411226D01*
X2291588Y404368D01*
X2298445Y390905D01*
X2298445Y377189D01*
X2291588Y363473D01*
X2277872Y343154D01*
X2209800Y274828D01*
X2305304Y274828D01*
X2418334Y418084D02*
G01*
X2350261Y322579D01*
X2452624Y322579D01*
X2418334Y418084D02*
G01*
X2418334Y274828D01*
X2579370Y418084D02*
G01*
X2511043Y418084D01*
X2504440Y356615D01*
X2511043Y363473D01*
X2531618Y370331D01*
X2552191Y370331D01*
X2572511Y363473D01*
X2586227Y349757D01*
X2593086Y329437D01*
X2593086Y315721D01*
X2586227Y295402D01*
X2572511Y281686D01*
X2552191Y274828D01*
X2531618Y274828D01*
X2511043Y281686D01*
X2504440Y288544D01*
X2497581Y302260D01*
X2678938Y418084D02*
G01*
X2658363Y411226D01*
X2644902Y390905D01*
X2638043Y356615D01*
X2638043Y336295D01*
X2644902Y302260D01*
X2658363Y281686D01*
X2678938Y274828D01*
X2692400Y274828D01*
X2712974Y281686D01*
X2726690Y302260D01*
X2733547Y336295D01*
X2733547Y356615D01*
X2726690Y390905D01*
X2712974Y411226D01*
X2692400Y418084D01*
X2678938Y418084D01*
X2832861Y418084D02*
G01*
X2778506Y274828D01*
X2832861Y418084D02*
G01*
X2887472Y274828D01*
X2798825Y322579D02*
G01*
X2867152Y322579D01*
D11*
X2942081Y11537187D02*
G01*
X2937509Y11523471D01*
X2928365Y11514581D01*
X2914650Y11510010D01*
X2910077Y11510010D01*
X2896615Y11514581D01*
X2887472Y11523471D01*
X2882900Y11537187D01*
X2882900Y11541760D01*
X2887472Y11555476D01*
X2896615Y11564365D01*
X2910077Y11568937D01*
X2914650Y11568937D01*
X2928365Y11564365D01*
X2937509Y11555476D01*
X2942081Y11537187D01*
X2942081Y11514581D01*
X2937509Y11491721D01*
X2928365Y11478005D01*
X2914650Y11473434D01*
X2905506Y11473434D01*
X2892043Y11478005D01*
X2887472Y11487150D01*
X2870200Y10026904D02*
G01*
X2879343Y10031476D01*
X2892806Y10044937D01*
X2892806Y9949434D01*
X2950209Y10044937D02*
G01*
X2936493Y10040365D01*
X2927350Y10026904D01*
X2923031Y10004044D01*
X2923031Y9990581D01*
X2927350Y9967721D01*
X2936493Y9954005D01*
X2950209Y9949434D01*
X2959354Y9949434D01*
X2972815Y9954005D01*
X2981959Y9967721D01*
X2986531Y9990581D01*
X2986531Y10004044D01*
X2981959Y10026904D01*
X2972815Y10040365D01*
X2959354Y10044937D01*
X2950209Y10044937D01*
X1743709Y10031476D02*
G01*
X1739138Y10040365D01*
X1725422Y10044937D01*
X1716277Y10044937D01*
X1702815Y10040365D01*
X1693672Y10026904D01*
X1689100Y10004044D01*
X1689100Y9981437D01*
X1693672Y9963150D01*
X1702815Y9954005D01*
X1716277Y9949434D01*
X1720850Y9949434D01*
X1734565Y9954005D01*
X1743709Y9963150D01*
X1748281Y9976865D01*
X1748281Y9981437D01*
X1743709Y9994900D01*
X1734565Y10004044D01*
X1720850Y10008615D01*
X1716277Y10008615D01*
X1702815Y10004044D01*
X1693672Y9994900D01*
X1689100Y9981437D01*
X487171Y10022331D02*
G01*
X487171Y10026904D01*
X491744Y10035794D01*
X496315Y10040365D01*
X505205Y10044937D01*
X523494Y10044937D01*
X532637Y10040365D01*
X537210Y10035794D01*
X541781Y10026904D01*
X541781Y10017760D01*
X537210Y10008615D01*
X528065Y9994900D01*
X482600Y9949434D01*
X546354Y9949434D01*
X1743709Y11568937D02*
G01*
X1698243Y11568937D01*
X1693672Y11528044D01*
X1698243Y11532615D01*
X1711706Y11537187D01*
X1725422Y11537187D01*
X1739138Y11532615D01*
X1748281Y11523471D01*
X1752854Y11510010D01*
X1752854Y11500865D01*
X1748281Y11487150D01*
X1739138Y11478005D01*
X1725422Y11473434D01*
X1711706Y11473434D01*
X1698243Y11478005D01*
X1693672Y11482578D01*
X1689100Y11491721D01*
X482600Y11550904D02*
G01*
X491744Y11555476D01*
X505205Y11568937D01*
X505205Y11473434D01*
X479044Y7797037D02*
G01*
X529081Y7797037D01*
X501650Y7760715D01*
X515365Y7760715D01*
X524510Y7756144D01*
X529081Y7751571D01*
X533654Y7738110D01*
X533654Y7728965D01*
X529081Y7715250D01*
X519937Y7706105D01*
X506221Y7701534D01*
X492505Y7701534D01*
X479044Y7706105D01*
X474471Y7710678D01*
X469900Y7719821D01*
X1752854Y7797037D02*
G01*
X1707388Y7701534D01*
X1689100Y7797037D02*
G01*
X1752854Y7797037D01*
X2882900Y7779004D02*
G01*
X2892043Y7783576D01*
X2905506Y7797037D01*
X2905506Y7701534D01*
X2935731Y7779004D02*
G01*
X2944622Y7783576D01*
X2958338Y7797037D01*
X2958338Y7701534D01*
X515365Y6273037D02*
G01*
X469900Y6209537D01*
X537971Y6209537D01*
X515365Y6273037D02*
G01*
X515365Y6177534D01*
X1711706Y6273037D02*
G01*
X1698243Y6268465D01*
X1693672Y6259576D01*
X1693672Y6250431D01*
X1698243Y6241287D01*
X1707388Y6236715D01*
X1725422Y6232144D01*
X1739138Y6227571D01*
X1748281Y6218681D01*
X1752854Y6209537D01*
X1752854Y6195821D01*
X1748281Y6186678D01*
X1743709Y6182105D01*
X1729993Y6177534D01*
X1711706Y6177534D01*
X1698243Y6182105D01*
X1693672Y6186678D01*
X1689100Y6195821D01*
X1689100Y6209537D01*
X1693672Y6218681D01*
X1702815Y6227571D01*
X1716277Y6232144D01*
X1734565Y6236715D01*
X1743709Y6241287D01*
X1748281Y6250431D01*
X1748281Y6259576D01*
X1743709Y6268465D01*
X1729993Y6273037D01*
X1711706Y6273037D01*
X2857500Y6255004D02*
G01*
X2866643Y6259576D01*
X2880106Y6273037D01*
X2880106Y6177534D01*
X2914650Y6250431D02*
G01*
X2914650Y6255004D01*
X2919222Y6263894D01*
X2923793Y6268465D01*
X2932938Y6273037D01*
X2951225Y6273037D01*
X2960115Y6268465D01*
X2964688Y6263894D01*
X2969259Y6255004D01*
X2969259Y6245860D01*
X2964688Y6236715D01*
X2955797Y6223000D01*
X2910331Y6177534D01*
X2973831Y6177534D01*
X576071Y5005831D02*
G01*
X571754Y5014976D01*
X562610Y5023865D01*
X553465Y5028437D01*
X535178Y5028437D01*
X526287Y5023865D01*
X517144Y5014976D01*
X512571Y5005831D01*
X508000Y4992115D01*
X508000Y4969510D01*
X512571Y4955794D01*
X517144Y4946650D01*
X526287Y4937505D01*
X535178Y4932934D01*
X553465Y4932934D01*
X562610Y4937505D01*
X571754Y4946650D01*
X576071Y4955794D01*
X633476Y5028437D02*
G01*
X624331Y5023865D01*
X615187Y5014976D01*
X610615Y5005831D01*
X606297Y4992115D01*
X606297Y4969510D01*
X610615Y4955794D01*
X615187Y4946650D01*
X624331Y4937505D01*
X633476Y4932934D01*
X651510Y4932934D01*
X660654Y4937505D01*
X669797Y4946650D01*
X674370Y4955794D01*
X678941Y4969510D01*
X678941Y4992115D01*
X674370Y5005831D01*
X669797Y5014976D01*
X660654Y5023865D01*
X651510Y5028437D01*
X633476Y5028437D01*
X708913Y5028437D02*
G01*
X708913Y4932934D01*
X708913Y5028437D02*
G01*
X772668Y4932934D01*
X772668Y5028437D02*
G01*
X772668Y4932934D01*
X834390Y5028437D02*
G01*
X834390Y4932934D01*
X802640Y5028437D02*
G01*
X866140Y5028437D01*
X896111Y5028437D02*
G01*
X896111Y4932934D01*
X896111Y5028437D02*
G01*
X937006Y5028437D01*
X950722Y5023865D01*
X955293Y5019294D01*
X959865Y5010404D01*
X959865Y5001260D01*
X955293Y4992115D01*
X950722Y4987544D01*
X937006Y4982971D01*
X896111Y4982971D01*
X928115Y4982971D02*
G01*
X959865Y4932934D01*
X1017015Y5028437D02*
G01*
X1008125Y5023865D01*
X998981Y5014976D01*
X994409Y5005831D01*
X989838Y4992115D01*
X989838Y4969510D01*
X994409Y4955794D01*
X998981Y4946650D01*
X1008125Y4937505D01*
X1017015Y4932934D01*
X1035304Y4932934D01*
X1044447Y4937505D01*
X1053338Y4946650D01*
X1057909Y4955794D01*
X1062481Y4969510D01*
X1062481Y4992115D01*
X1057909Y5005831D01*
X1053338Y5014976D01*
X1044447Y5023865D01*
X1035304Y5028437D01*
X1017015Y5028437D01*
X1092454Y5028437D02*
G01*
X1092454Y4932934D01*
X1092454Y4932934D02*
G01*
X1147063Y4932934D01*
X1744472Y5005831D02*
G01*
X1740154Y5014976D01*
X1731009Y5023865D01*
X1721865Y5028437D01*
X1703577Y5028437D01*
X1694688Y5023865D01*
X1685543Y5014976D01*
X1680972Y5005831D01*
X1676400Y4992115D01*
X1676400Y4969510D01*
X1680972Y4955794D01*
X1685543Y4946650D01*
X1694688Y4937505D01*
X1703577Y4932934D01*
X1721865Y4932934D01*
X1731009Y4937505D01*
X1740154Y4946650D01*
X1744472Y4955794D01*
X1744472Y4969510D01*
X1721865Y4969510D02*
G01*
X1744472Y4969510D01*
X1811020Y5028437D02*
G01*
X1774697Y4932934D01*
X1811020Y5028437D02*
G01*
X1847341Y4932934D01*
X1788159Y4964937D02*
G01*
X1833625Y4964937D01*
X1909063Y5028437D02*
G01*
X1909063Y4932934D01*
X1877313Y5028437D02*
G01*
X1941068Y5028437D01*
X1971040Y5028437D02*
G01*
X1971040Y4932934D01*
X1971040Y5028437D02*
G01*
X2029968Y5028437D01*
X1971040Y4982971D02*
G01*
X2007361Y4982971D01*
X1971040Y4932934D02*
G01*
X2029968Y4932934D01*
X2157222Y5028437D02*
G01*
X2148331Y5023865D01*
X2139188Y5014976D01*
X2134615Y5005831D01*
X2130043Y4992115D01*
X2130043Y4969510D01*
X2134615Y4955794D01*
X2139188Y4946650D01*
X2148331Y4937505D01*
X2157222Y4932934D01*
X2175509Y4932934D01*
X2184654Y4937505D01*
X2193797Y4946650D01*
X2198115Y4955794D01*
X2202688Y4969510D01*
X2202688Y4992115D01*
X2198115Y5005831D01*
X2193797Y5014976D01*
X2184654Y5023865D01*
X2175509Y5028437D01*
X2157222Y5028437D01*
X2232659Y5028437D02*
G01*
X2232659Y4960365D01*
X2237231Y4946650D01*
X2246375Y4937505D01*
X2260091Y4932934D01*
X2269236Y4932934D01*
X2282697Y4937505D01*
X2291841Y4946650D01*
X2296413Y4960365D01*
X2296413Y5028437D01*
X2358136Y5028437D02*
G01*
X2358136Y4932934D01*
X2326386Y5028437D02*
G01*
X2390140Y5028437D01*
X3039872Y5005831D02*
G01*
X3035554Y5014976D01*
X3026409Y5023865D01*
X3017265Y5028437D01*
X2998977Y5028437D01*
X2990088Y5023865D01*
X2980943Y5014976D01*
X2976372Y5005831D01*
X2971800Y4992115D01*
X2971800Y4969510D01*
X2976372Y4955794D01*
X2980943Y4946650D01*
X2990088Y4937505D01*
X2998977Y4932934D01*
X3017265Y4932934D01*
X3026409Y4937505D01*
X3035554Y4946650D01*
X3039872Y4955794D01*
X3070097Y5028437D02*
G01*
X3106420Y4932934D01*
X3142741Y5028437D02*
G01*
X3106420Y4932934D01*
X3269995Y5028437D02*
G01*
X3260852Y5023865D01*
X3251708Y5014976D01*
X3247136Y5005831D01*
X3242818Y4992115D01*
X3242818Y4969510D01*
X3247136Y4955794D01*
X3251708Y4946650D01*
X3260852Y4937505D01*
X3269995Y4932934D01*
X3288284Y4932934D01*
X3297174Y4937505D01*
X3306318Y4946650D01*
X3310890Y4955794D01*
X3315461Y4969510D01*
X3315461Y4992115D01*
X3310890Y5005831D01*
X3306318Y5014976D01*
X3297174Y5023865D01*
X3288284Y5028437D01*
X3269995Y5028437D01*
X3345434Y5028437D02*
G01*
X3345434Y4960365D01*
X3350006Y4946650D01*
X3359150Y4937505D01*
X3372611Y4932934D01*
X3381756Y4932934D01*
X3395472Y4937505D01*
X3404615Y4946650D01*
X3409188Y4960365D01*
X3409188Y5028437D01*
X3470909Y5028437D02*
G01*
X3470909Y4932934D01*
X3439159Y5028437D02*
G01*
X3502659Y5028437D01*
X150368Y10596371D02*
G01*
X141223Y10592054D01*
X132334Y10582910D01*
X127762Y10573765D01*
X127762Y10555478D01*
X132334Y10546587D01*
X141223Y10537444D01*
X150368Y10532871D01*
X164084Y10528300D01*
X186689Y10528300D01*
X200405Y10532871D01*
X209550Y10537444D01*
X218694Y10546587D01*
X223265Y10555478D01*
X223265Y10573765D01*
X218694Y10582910D01*
X209550Y10592054D01*
X200405Y10596371D01*
X127762Y10626597D02*
G01*
X223265Y10626597D01*
X223265Y10626597D02*
G01*
X223265Y10680954D01*
X127762Y10738358D02*
G01*
X132334Y10729213D01*
X141223Y10720070D01*
X150368Y10715497D01*
X164084Y10710926D01*
X186689Y10710926D01*
X200405Y10715497D01*
X209550Y10720070D01*
X218694Y10729213D01*
X223265Y10738358D01*
X223265Y10756392D01*
X218694Y10765536D01*
X209550Y10774679D01*
X200405Y10779252D01*
X186689Y10783824D01*
X164084Y10783824D01*
X150368Y10779252D01*
X141223Y10774679D01*
X132334Y10765536D01*
X127762Y10756392D01*
X127762Y10738358D01*
X150368Y10881868D02*
G01*
X141223Y10877295D01*
X132334Y10868405D01*
X127762Y10859262D01*
X127762Y10840974D01*
X132334Y10831829D01*
X141223Y10822939D01*
X150368Y10818368D01*
X164084Y10813795D01*
X186689Y10813795D01*
X200405Y10818368D01*
X209550Y10822939D01*
X218694Y10831829D01*
X223265Y10840974D01*
X223265Y10859262D01*
X218694Y10868405D01*
X209550Y10877295D01*
X200405Y10881868D01*
X127762Y10911839D02*
G01*
X223265Y10911839D01*
X127762Y10975594D02*
G01*
X191262Y10911839D01*
X168655Y10934700D02*
G01*
X223265Y10975594D01*
X127762Y11075670D02*
G01*
X223265Y11075670D01*
X127762Y11105642D02*
G01*
X223265Y11105642D01*
X127762Y11105642D02*
G01*
X223265Y11169142D01*
X127762Y11169142D02*
G01*
X223265Y11169142D01*
X150368Y8970771D02*
G01*
X141223Y8966454D01*
X132334Y8957310D01*
X127762Y8948165D01*
X127762Y8929878D01*
X132334Y8920987D01*
X141223Y8911844D01*
X150368Y8907271D01*
X164084Y8902700D01*
X186689Y8902700D01*
X200405Y8907271D01*
X209550Y8911844D01*
X218694Y8920987D01*
X223265Y8929878D01*
X223265Y8948165D01*
X218694Y8957310D01*
X209550Y8966454D01*
X200405Y8970771D01*
X127762Y9000997D02*
G01*
X223265Y9000997D01*
X223265Y9000997D02*
G01*
X223265Y9055354D01*
X127762Y9112758D02*
G01*
X132334Y9103613D01*
X141223Y9094470D01*
X150368Y9089897D01*
X164084Y9085326D01*
X186689Y9085326D01*
X200405Y9089897D01*
X209550Y9094470D01*
X218694Y9103613D01*
X223265Y9112758D01*
X223265Y9130792D01*
X218694Y9139936D01*
X209550Y9149079D01*
X200405Y9153652D01*
X186689Y9158224D01*
X164084Y9158224D01*
X150368Y9153652D01*
X141223Y9149079D01*
X132334Y9139936D01*
X127762Y9130792D01*
X127762Y9112758D01*
X150368Y9256268D02*
G01*
X141223Y9251695D01*
X132334Y9242805D01*
X127762Y9233662D01*
X127762Y9215374D01*
X132334Y9206229D01*
X141223Y9197339D01*
X150368Y9192768D01*
X164084Y9188195D01*
X186689Y9188195D01*
X200405Y9192768D01*
X209550Y9197339D01*
X218694Y9206229D01*
X223265Y9215374D01*
X223265Y9233662D01*
X218694Y9242805D01*
X209550Y9251695D01*
X200405Y9256268D01*
X127762Y9286239D02*
G01*
X223265Y9286239D01*
X127762Y9349994D02*
G01*
X191262Y9286239D01*
X168655Y9309100D02*
G01*
X223265Y9349994D01*
X127762Y9477247D02*
G01*
X132334Y9468104D01*
X141223Y9458960D01*
X150368Y9454642D01*
X164084Y9450070D01*
X186689Y9450070D01*
X200405Y9454642D01*
X209550Y9458960D01*
X218694Y9468104D01*
X223265Y9477247D01*
X223265Y9495536D01*
X218694Y9504426D01*
X209550Y9513570D01*
X200405Y9518142D01*
X186689Y9522713D01*
X164084Y9522713D01*
X150368Y9518142D01*
X141223Y9513570D01*
X132334Y9504426D01*
X127762Y9495536D01*
X127762Y9477247D01*
X127762Y9552686D02*
G01*
X195834Y9552686D01*
X209550Y9557258D01*
X218694Y9566402D01*
X223265Y9579863D01*
X223265Y9589008D01*
X218694Y9602724D01*
X209550Y9611868D01*
X195834Y9616439D01*
X127762Y9616439D01*
X127762Y9678162D02*
G01*
X223265Y9678162D01*
X127762Y9646412D02*
G01*
X127762Y9709912D01*
X150368Y6837171D02*
G01*
X141223Y6832854D01*
X132334Y6823710D01*
X127762Y6814565D01*
X127762Y6796278D01*
X132334Y6787387D01*
X141223Y6778244D01*
X150368Y6773671D01*
X164084Y6769100D01*
X186689Y6769100D01*
X200405Y6773671D01*
X209550Y6778244D01*
X218694Y6787387D01*
X223265Y6796278D01*
X223265Y6814565D01*
X218694Y6823710D01*
X209550Y6832854D01*
X200405Y6837171D01*
X186689Y6837171D01*
X186689Y6814565D02*
G01*
X186689Y6837171D01*
X127762Y6903720D02*
G01*
X223265Y6867397D01*
X127762Y6903720D02*
G01*
X223265Y6940042D01*
X191262Y6880860D02*
G01*
X191262Y6926326D01*
X127762Y7001763D02*
G01*
X223265Y7001763D01*
X127762Y6970013D02*
G01*
X127762Y7033768D01*
X127762Y7063739D02*
G01*
X223265Y7063739D01*
X127762Y7063739D02*
G01*
X127762Y7122668D01*
X173228Y7063739D02*
G01*
X173228Y7100062D01*
X223265Y7063739D02*
G01*
X223265Y7122668D01*
X127762Y7222744D02*
G01*
X223265Y7222744D01*
X127762Y7252715D02*
G01*
X223265Y7252715D01*
X127762Y7252715D02*
G01*
X223265Y7316470D01*
X127762Y7316470D02*
G01*
X223265Y7316470D01*
X150368Y5236971D02*
G01*
X141223Y5232654D01*
X132334Y5223510D01*
X127762Y5214365D01*
X127762Y5196078D01*
X132334Y5187187D01*
X141223Y5178044D01*
X150368Y5173471D01*
X164084Y5168900D01*
X186689Y5168900D01*
X200405Y5173471D01*
X209550Y5178044D01*
X218694Y5187187D01*
X223265Y5196078D01*
X223265Y5214365D01*
X218694Y5223510D01*
X209550Y5232654D01*
X200405Y5236971D01*
X127762Y5267197D02*
G01*
X223265Y5303520D01*
X127762Y5339842D02*
G01*
X223265Y5303520D01*
X127762Y5439918D02*
G01*
X223265Y5439918D01*
X223265Y5439918D02*
G01*
X223265Y5494273D01*
X127762Y5524245D02*
G01*
X223265Y5524245D01*
X127762Y5524245D02*
G01*
X127762Y5583428D01*
X173228Y5524245D02*
G01*
X173228Y5560821D01*
X223265Y5524245D02*
G01*
X223265Y5583428D01*
X127762Y5649721D02*
G01*
X223265Y5613400D01*
X127762Y5649721D02*
G01*
X223265Y5686297D01*
X191262Y5627115D02*
G01*
X191262Y5672581D01*
X127762Y5716270D02*
G01*
X223265Y5716270D01*
X127762Y5716270D02*
G01*
X127762Y5757163D01*
X132334Y5770626D01*
X136905Y5775197D01*
X145795Y5779770D01*
X154939Y5779770D01*
X164084Y5775197D01*
X168655Y5770626D01*
X173228Y5757163D01*
X173228Y5716270D01*
X173228Y5748020D02*
G01*
X223265Y5779770D01*
X127762Y5809742D02*
G01*
X223265Y5809742D01*
X127762Y5809742D02*
G01*
X223265Y5873495D01*
X127762Y5873495D02*
G01*
X223265Y5873495D01*
X3840988Y10890758D02*
G01*
X3797300Y10776204D01*
X3840988Y10890758D02*
G01*
X3884675Y10776204D01*
X3813556Y10814304D02*
G01*
X3868165Y10814304D01*
X3797300Y9366758D02*
G01*
X3797300Y9252204D01*
X3797300Y9366758D02*
G01*
X3846322Y9366758D01*
X3862831Y9361170D01*
X3868165Y9355836D01*
X3873754Y9344913D01*
X3873754Y9333992D01*
X3868165Y9323070D01*
X3862831Y9317481D01*
X3846322Y9312147D01*
X3797300Y9312147D02*
G01*
X3846322Y9312147D01*
X3862831Y9306813D01*
X3868165Y9301226D01*
X3873754Y9290304D01*
X3873754Y9274047D01*
X3868165Y9263126D01*
X3862831Y9257537D01*
X3846322Y9252204D01*
X3797300Y9252204D01*
X3879088Y7091426D02*
G01*
X3873754Y7102347D01*
X3862831Y7113270D01*
X3851909Y7118858D01*
X3830065Y7118858D01*
X3819143Y7113270D01*
X3808222Y7102347D01*
X3802634Y7091426D01*
X3797300Y7075170D01*
X3797300Y7047992D01*
X3802634Y7031481D01*
X3808222Y7020560D01*
X3819143Y7009637D01*
X3830065Y7004304D01*
X3851909Y7004304D01*
X3862831Y7009637D01*
X3873754Y7020560D01*
X3879088Y7031481D01*
X3797300Y5594857D02*
G01*
X3797300Y5480304D01*
X3797300Y5594857D02*
G01*
X3835400Y5594857D01*
X3851909Y5589270D01*
X3862831Y5578347D01*
X3868165Y5567426D01*
X3873754Y5551170D01*
X3873754Y5523992D01*
X3868165Y5507481D01*
X3862831Y5496560D01*
X3851909Y5485637D01*
X3835400Y5480304D01*
X3797300Y5480304D01*
X3840988Y4604257D02*
G01*
X3797300Y4489704D01*
X3840988Y4604257D02*
G01*
X3884675Y4489704D01*
X3813556Y4527804D02*
G01*
X3868165Y4527804D01*
X3797300Y4197857D02*
G01*
X3797300Y4083304D01*
X3797300Y4197857D02*
G01*
X3846322Y4197857D01*
X3862831Y4192270D01*
X3868165Y4186936D01*
X3873754Y4176013D01*
X3873754Y4165092D01*
X3868165Y4154170D01*
X3862831Y4148581D01*
X3846322Y4143247D01*
X3797300Y4143247D02*
G01*
X3846322Y4143247D01*
X3862831Y4137913D01*
X3868165Y4132326D01*
X3873754Y4121404D01*
X3873754Y4105147D01*
X3868165Y4094226D01*
X3862831Y4088637D01*
X3846322Y4083304D01*
X3797300Y4083304D01*
X3879088Y3764026D02*
G01*
X3873754Y3774947D01*
X3862831Y3785870D01*
X3851909Y3791457D01*
X3830065Y3791457D01*
X3819143Y3785870D01*
X3808222Y3774947D01*
X3802634Y3764026D01*
X3797300Y3747770D01*
X3797300Y3720592D01*
X3802634Y3704081D01*
X3808222Y3693160D01*
X3819143Y3682237D01*
X3830065Y3676904D01*
X3851909Y3676904D01*
X3862831Y3682237D01*
X3873754Y3693160D01*
X3879088Y3704081D01*
X3797300Y3385057D02*
G01*
X3797300Y3270504D01*
X3797300Y3385057D02*
G01*
X3835400Y3385057D01*
X3851909Y3379470D01*
X3862831Y3368547D01*
X3868165Y3357626D01*
X3873754Y3341370D01*
X3873754Y3314192D01*
X3868165Y3297681D01*
X3862831Y3286760D01*
X3851909Y3275837D01*
X3835400Y3270504D01*
X3797300Y3270504D01*
X571500Y3020313D02*
G01*
X582421Y3025647D01*
X598678Y3042157D01*
X598678Y2927604D01*
X970534Y3014726D02*
G01*
X970534Y3020313D01*
X976122Y3031236D01*
X981456Y3036570D01*
X992377Y3042157D01*
X1014222Y3042157D01*
X1025143Y3036570D01*
X1030731Y3031236D01*
X1036065Y3020313D01*
X1036065Y3009392D01*
X1030731Y2998470D01*
X1019809Y2982213D01*
X965200Y2927604D01*
X1041654Y2927604D01*
X1382522Y3042157D02*
G01*
X1442465Y3042157D01*
X1409700Y2998470D01*
X1426209Y2998470D01*
X1437131Y2992881D01*
X1442465Y2987547D01*
X1448054Y2971292D01*
X1448054Y2960370D01*
X1442465Y2943860D01*
X1431543Y2932937D01*
X1415288Y2927604D01*
X1398777Y2927604D01*
X1382522Y2932937D01*
X1376934Y2938526D01*
X1371600Y2949447D01*
X1832609Y3042157D02*
G01*
X1778000Y2965704D01*
X1859788Y2965704D01*
X1832609Y3042157D02*
G01*
X1832609Y2927604D01*
X2249931Y3042157D02*
G01*
X2195322Y3042157D01*
X2189734Y2992881D01*
X2195322Y2998470D01*
X2211577Y3003804D01*
X2228088Y3003804D01*
X2244343Y2998470D01*
X2255265Y2987547D01*
X2260854Y2971292D01*
X2260854Y2960370D01*
X2255265Y2943860D01*
X2244343Y2932937D01*
X2228088Y2927604D01*
X2211577Y2927604D01*
X2195322Y2932937D01*
X2189734Y2938526D01*
X2184400Y2949447D01*
X2656331Y3025647D02*
G01*
X2650743Y3036570D01*
X2634488Y3042157D01*
X2623565Y3042157D01*
X2607056Y3036570D01*
X2596134Y3020313D01*
X2590800Y2992881D01*
X2590800Y2965704D01*
X2596134Y2943860D01*
X2607056Y2932937D01*
X2623565Y2927604D01*
X2628900Y2927604D01*
X2645409Y2932937D01*
X2656331Y2943860D01*
X2661665Y2960370D01*
X2661665Y2965704D01*
X2656331Y2982213D01*
X2645409Y2992881D01*
X2628900Y2998470D01*
X2623565Y2998470D01*
X2607056Y2992881D01*
X2596134Y2982213D01*
X2590800Y2965704D01*
X3073654Y3042157D02*
G01*
X3019043Y2927604D01*
X2997200Y3042157D02*
G01*
X3073654Y3042157D01*
X3430777Y3042157D02*
G01*
X3414522Y3036570D01*
X3408934Y3025647D01*
X3408934Y3014726D01*
X3414522Y3003804D01*
X3425443Y2998470D01*
X3447288Y2992881D01*
X3463543Y2987547D01*
X3474465Y2976626D01*
X3480054Y2965704D01*
X3480054Y2949447D01*
X3474465Y2938526D01*
X3469131Y2932937D01*
X3452622Y2927604D01*
X3430777Y2927604D01*
X3414522Y2932937D01*
X3408934Y2938526D01*
X3403600Y2949447D01*
X3403600Y2965704D01*
X3408934Y2976626D01*
X3419856Y2987547D01*
X3436365Y2992881D01*
X3458209Y2998470D01*
X3469131Y3003804D01*
X3474465Y3014726D01*
X3474465Y3025647D01*
X3469131Y3036570D01*
X3452622Y3042157D01*
X3430777Y3042157D01*
D10*
X825400Y7874000D02*
G01*
X825400Y7620000D01*
X3238400Y6096000D02*
G01*
X3238400Y6350000D01*
X3238400Y7620000D02*
G01*
X3238400Y7874000D01*
X825400Y6350000D02*
G01*
X825400Y6096000D01*
X2031900Y6350000D02*
G01*
X1968400Y6286500D01*
X3238400Y6350000D02*
G01*
X3174900Y6286500D01*
X2031900Y6096000D02*
G01*
X2031900Y6350000D01*
X825400Y6096000D02*
G01*
X888900Y6159500D01*
X3238400Y6350000D02*
G01*
X3301900Y6286500D01*
X825400Y6096000D02*
G01*
X761900Y6159500D01*
X2031900Y6350000D02*
G01*
X2095400Y6286500D01*
X2031900Y7874000D02*
G01*
X1968400Y7810500D01*
X3238400Y7874000D02*
G01*
X3174900Y7810500D01*
X2031900Y7620000D02*
G01*
X2031900Y7874000D01*
X825400Y7620000D02*
G01*
X888900Y7683500D01*
X3238400Y7874000D02*
G01*
X3301900Y7810500D01*
X825400Y7620000D02*
G01*
X761900Y7683500D01*
X2031900Y7874000D02*
G01*
X2095400Y7810500D01*
X825400Y11391900D02*
G01*
X888900Y11455400D01*
X3238400Y9867900D02*
G01*
X3238400Y10121900D01*
X3238400Y11391900D02*
G01*
X3238400Y11645900D01*
X825400Y9867900D02*
G01*
X825400Y10121900D01*
X825400Y10121900D02*
G01*
X761900Y10058400D01*
X825400Y10121900D02*
G01*
X888900Y10058400D01*
X825400Y11391900D02*
G01*
X825400Y11645900D01*
X2031900Y10121900D02*
G01*
X1968400Y10058400D01*
X3238400Y10121900D02*
G01*
X3174900Y10058400D01*
X2031900Y11645900D02*
G01*
X1968400Y11582400D01*
X3238400Y11645900D02*
G01*
X3174900Y11582400D01*
X2031900Y11391900D02*
G01*
X2031900Y11645900D01*
X2031900Y9867900D02*
G01*
X2031900Y10121900D01*
X825400Y11391900D02*
G01*
X761900Y11455400D01*
X3238400Y10121900D02*
G01*
X3301900Y10058400D01*
X3238400Y11645900D02*
G01*
X3301900Y11582400D01*
X2031900Y10121900D02*
G01*
X2095400Y10058400D01*
X2031900Y11645900D02*
G01*
X2095400Y11582400D01*
X0Y12179300D02*
G01*
X4064000Y12179300D01*
X0Y11823700D02*
G01*
X4064000Y11823700D01*
G75*
G01
X3060700Y11518900D02*
G03X3060700Y11518900I-139700J0D01*
G75*
G01
X3060700Y9994900D02*
G03X3060700Y9994900I-139700J0D01*
G75*
G01
X1854200Y9994900D02*
G03X1854200Y9994900I-139700J0D01*
G75*
G01
X647700Y9994900D02*
G03X647700Y9994900I-139700J0D01*
G75*
G01
X1854200Y11518900D02*
G03X1854200Y11518900I-139700J0D01*
G75*
G01
X647700Y11518900D02*
G03X647700Y11518900I-139700J0D01*
G75*
G01
X647700Y7747000D02*
G03X647700Y7747000I-139700J0D01*
G75*
G01
X1854200Y7747000D02*
G03X1854200Y7747000I-139700J0D01*
G75*
G01
X3060700Y7747000D02*
G03X3060700Y7747000I-139700J0D01*
G75*
G01
X647700Y6223000D02*
G03X647700Y6223000I-139700J0D01*
G75*
G01
X1854200Y6223000D02*
G03X1854200Y6223000I-139700J0D01*
G75*
G01
X3060700Y6223000D02*
G03X3060700Y6223000I-139700J0D01*
M02*
