G04 Layer: TopSilkscreenLayer*
G04 EasyEDA v6.5.29, 2023-07-18 11:26:45*
G04 b5bbd890250849478e18e75bb556074f,5a6b42c53f6a479593ecc07194224c93,10*
G04 Gerber Generator version 0.2*
G04 Scale: 100 percent, Rotated: No, Reflected: No *
G04 Dimensions in millimeters *
G04 leading zeros omitted , absolute positions ,4 integer and 5 decimal *
%FSLAX45Y45*%
%MOMM*%

%ADD10C,0.2540*%

%LPD*%
D10*
X222757Y777747D02*
G01*
X222757Y784605D01*
X229615Y798068D01*
X236473Y804926D01*
X249936Y811784D01*
X277368Y811784D01*
X290829Y804926D01*
X297687Y798068D01*
X304545Y784605D01*
X304545Y770889D01*
X297687Y757173D01*
X283971Y736854D01*
X215900Y668528D01*
X311404Y668528D01*
X356362Y784605D02*
G01*
X370078Y791210D01*
X390397Y811784D01*
X390397Y668528D01*
X476250Y811784D02*
G01*
X455929Y804926D01*
X442213Y784605D01*
X435355Y750315D01*
X435355Y729995D01*
X442213Y695960D01*
X455929Y675386D01*
X476250Y668528D01*
X489965Y668528D01*
X510539Y675386D01*
X524002Y695960D01*
X530860Y729995D01*
X530860Y750315D01*
X524002Y784605D01*
X510539Y804926D01*
X489965Y811784D01*
X476250Y811784D01*
X582676Y777747D02*
G01*
X582676Y784605D01*
X589534Y798068D01*
X596392Y804926D01*
X610107Y811784D01*
X637286Y811784D01*
X651002Y804926D01*
X657605Y798068D01*
X664463Y784605D01*
X664463Y770889D01*
X657605Y757173D01*
X644144Y736854D01*
X575818Y668528D01*
X671322Y668528D01*
X770890Y811784D02*
G01*
X716279Y668528D01*
X770890Y811784D02*
G01*
X825500Y668528D01*
X736854Y716279D02*
G01*
X804925Y716279D01*
X0Y11836400D02*
G01*
X980000Y11836400D01*
X0Y12192000D02*
G01*
X980000Y12192000D01*
M02*
