M48
METRIC,LZ,000.000
;FILE_FORMAT=3:3
;TYPE=PLATED
;Layer: PTH_Through_Via
;EasyEDA v6.5.29, 2023-07-16 12:04:07
;4946885894e94847ae742278ab8b5cb3,5a6b42c53f6a479593ecc07194224c93,10
;Gerber Generator version 0.2
;Holesize 1 = 0.305 mm
T01C0.305
%
G05
G90
T01
X004445Y015621
X000635Y020066
X009271Y026162
X002286Y021463
X007874Y034925
X002286Y032131
X000635Y030697
X008255Y039751
X007874Y024257
X005588Y034925
X006223Y032512
X002286Y019304
X000635Y018034
X003048Y023883
X005588Y022098
X002667Y034417
X004953Y032766
X005588Y040132
X004318Y039624
X006223Y043180
X006223Y046355
X000635Y040386
X006858Y040132
X007493Y037846
X004191Y058674
X002413Y037719
X006350Y058674
X004953Y073152
X006604Y068453
X004064Y099314
X004064Y114554
X008509Y028194
X007874Y030226
X006223Y029337
X002159Y026797
X004953Y024511
X002159Y036068
M30
