G04 Layer: BottomSolderMaskLayer*
G04 EasyEDA v6.5.29, 2023-07-16 12:04:07*
G04 4946885894e94847ae742278ab8b5cb3,5a6b42c53f6a479593ecc07194224c93,10*
G04 Gerber Generator version 0.2*
G04 Scale: 100 percent, Rotated: No, Reflected: No *
G04 Dimensions in millimeters *
G04 leading zeros omitted , absolute positions ,4 integer and 5 decimal *
%FSLAX45Y45*%
%MOMM*%

%AMMACRO1*1,1,$1,$2,$3*1,1,$1,$4,$5*1,1,$1,0-$2,0-$3*1,1,$1,0-$4,0-$5*20,1,$1,$2,$3,$4,$5,0*20,1,$1,$4,$5,0-$2,0-$3,0*20,1,$1,0-$2,0-$3,0-$4,0-$5,0*20,1,$1,0-$4,0-$5,$2,$3,0*4,1,4,$2,$3,$4,$5,0-$2,0-$3,0-$4,0-$5,$2,$3,0*%
%ADD10MACRO1,0.1016X0.2828X-0.27X0.2828X0.27*%
%ADD11MACRO1,0.1016X-0.2828X-0.27X-0.2828X0.27*%
%ADD12MACRO1,0.1016X0.4032X-0.432X0.4032X0.432*%
%ADD13MACRO1,0.1016X-0.4032X-0.432X-0.4032X0.432*%
%ADD14MACRO1,0.1016X0.27X0.395X-0.27X0.395*%
%ADD15MACRO1,0.1016X0.27X-0.395X-0.27X-0.395*%
%ADD16MACRO1,0.1016X0.432X0.4032X-0.432X0.4032*%
%ADD17MACRO1,0.1016X0.432X-0.4032X-0.432X-0.4032*%
%ADD18MACRO1,0.1016X-0.432X-0.4032X0.432X-0.4032*%
%ADD19MACRO1,0.1016X-0.432X0.4032X0.432X0.4032*%
%ADD20MACRO1,0.1016X-0.85X-0.85X0.85X-0.85*%
%ADD21C,1.8016*%
%ADD22MACRO1,0.1016X-0.27X-0.395X0.27X-0.395*%
%ADD23MACRO1,0.1016X-0.27X0.395X0.27X0.395*%
%ADD24O,0.68961X2.1466048*%
%ADD25MACRO1,0.1016X0.4536X0.4366X-0.4536X0.4366*%
%ADD26MACRO1,0.1016X0.4536X-0.4366X-0.4536X-0.4366*%
%ADD27C,1.8532*%
%ADD28C,1.6256*%
%ADD29C,3.0000*%

%LPD*%
D10*
G01*
X312317Y1841500D03*
D11*
G01*
X398882Y1841500D03*
D10*
G01*
X502817Y1841500D03*
D11*
G01*
X589382Y1841500D03*
D10*
G01*
X693317Y1841500D03*
D11*
G01*
X779882Y1841500D03*
D10*
G01*
X744117Y2921000D03*
D11*
G01*
X830682Y2921000D03*
D10*
G01*
X261517Y2768600D03*
D11*
G01*
X348082Y2768600D03*
D10*
G01*
X452017Y2768600D03*
D11*
G01*
X538582Y2768600D03*
D10*
G01*
X452017Y2921000D03*
D11*
G01*
X538582Y2921000D03*
D12*
G01*
X419975Y3848100D03*
D13*
G01*
X570624Y3848100D03*
D14*
G01*
X165100Y2002894D03*
D15*
G01*
X165100Y2111905D03*
D16*
G01*
X355600Y4344275D03*
D17*
G01*
X355600Y4494924D03*
D18*
G01*
X495300Y4494924D03*
D19*
G01*
X495300Y4344275D03*
D16*
G01*
X152400Y3366375D03*
D17*
G01*
X152400Y3517024D03*
D16*
G01*
X152400Y3696575D03*
D17*
G01*
X152400Y3847224D03*
D12*
G01*
X292975Y1663700D03*
D13*
G01*
X443624Y1663700D03*
D20*
G01*
X114300Y8255000D03*
D21*
G01*
X368300Y8255000D03*
G01*
X622300Y8255000D03*
G01*
X876300Y8255000D03*
D20*
G01*
X114300Y11811000D03*
D21*
G01*
X368300Y11811000D03*
G01*
X622300Y11811000D03*
G01*
X876300Y11811000D03*
D22*
G01*
X825500Y2619905D03*
D23*
G01*
X825500Y2510894D03*
D22*
G01*
X825500Y3686705D03*
D23*
G01*
X825500Y3577694D03*
D14*
G01*
X165100Y3069694D03*
D15*
G01*
X165100Y3178705D03*
D24*
G01*
X304800Y3655440D03*
G01*
X431800Y3655440D03*
G01*
X558800Y3655440D03*
G01*
X685800Y3655440D03*
G01*
X304800Y3100959D03*
G01*
X431800Y3100959D03*
G01*
X558800Y3100959D03*
G01*
X685800Y3100959D03*
G01*
X304800Y2588640D03*
G01*
X431800Y2588640D03*
G01*
X558800Y2588640D03*
G01*
X685800Y2588640D03*
G01*
X304800Y2034159D03*
G01*
X431800Y2034159D03*
G01*
X558800Y2034159D03*
G01*
X685800Y2034159D03*
D25*
G01*
X292100Y11329743D03*
D26*
G01*
X292100Y11454056D03*
D25*
G01*
X292100Y9805743D03*
D26*
G01*
X292100Y9930056D03*
D27*
G01*
X493521Y7561986D03*
G01*
X493521Y6712000D03*
G01*
X493521Y6411976D03*
G01*
X493521Y6037986D03*
G01*
X493521Y5188000D03*
G01*
X493521Y4887976D03*
G01*
X493521Y11333861D03*
G01*
X493521Y10483875D03*
G01*
X493521Y10183850D03*
G01*
X493521Y9809886D03*
G01*
X493521Y8959900D03*
G01*
X493521Y8659876D03*
D28*
G01*
X114300Y4163695D03*
G01*
X368300Y4163695D03*
G01*
X622300Y4163695D03*
G01*
X876300Y4163695D03*
G01*
X622300Y1663700D03*
G01*
X114300Y1663700D03*
D29*
G01*
X999997Y12337999D03*
G01*
X12505994Y12337999D03*
G01*
X1499997Y870000D03*
G01*
X12005995Y870000D03*
M02*
