G04 Layer: TopSilkscreenLayer*
G04 EasyEDA v6.5.29, 2023-07-16 12:04:07*
G04 4946885894e94847ae742278ab8b5cb3,5a6b42c53f6a479593ecc07194224c93,10*
G04 Gerber Generator version 0.2*
G04 Scale: 100 percent, Rotated: No, Reflected: No *
G04 Dimensions in millimeters *
G04 leading zeros omitted , absolute positions ,4 integer and 5 decimal *
%FSLAX45Y45*%
%MOMM*%

%ADD10C,0.1524*%
%ADD11C,0.2032*%
%ADD12C,0.1270*%
%ADD13C,0.2540*%

%LPD*%
D10*
X101600Y8089137D02*
G01*
X101600Y7993634D01*
X101600Y8089137D02*
G01*
X142494Y8089137D01*
X156210Y8084565D01*
X160781Y8079994D01*
X165354Y8071104D01*
X165354Y8061960D01*
X160781Y8052815D01*
X156210Y8048244D01*
X142494Y8043671D01*
X101600Y8043671D01*
X133350Y8043671D02*
G01*
X165354Y7993634D01*
X195326Y8071104D02*
G01*
X204215Y8075676D01*
X217931Y8089137D01*
X217931Y7993634D01*
X101600Y4536694D02*
G01*
X101600Y4441189D01*
X101600Y4536694D02*
G01*
X142494Y4536694D01*
X156210Y4532121D01*
X160781Y4527550D01*
X165354Y4518405D01*
X165354Y4509515D01*
X160781Y4500371D01*
X156210Y4495800D01*
X142494Y4491228D01*
X101600Y4491228D01*
X133350Y4491228D02*
G01*
X165354Y4441189D01*
X258826Y4536694D02*
G01*
X213360Y4441189D01*
X195326Y4536694D02*
G01*
X258826Y4536694D01*
D11*
X717041Y2378710D02*
G01*
X804418Y2378710D01*
X820674Y2373121D01*
X826261Y2367787D01*
X831595Y2356865D01*
X831595Y2345944D01*
X826261Y2335021D01*
X820674Y2329434D01*
X804418Y2324100D01*
X793495Y2324100D01*
X717041Y2414523D02*
G01*
X831595Y2414523D01*
X831595Y2414523D02*
G01*
X831595Y2480055D01*
X744474Y2597912D02*
G01*
X733552Y2592578D01*
X722629Y2581655D01*
X717041Y2570734D01*
X717041Y2548889D01*
X722629Y2537968D01*
X733552Y2527045D01*
X744474Y2521457D01*
X760729Y2516123D01*
X787908Y2516123D01*
X804418Y2521457D01*
X815340Y2527045D01*
X826261Y2537968D01*
X831595Y2548889D01*
X831595Y2570734D01*
X826261Y2581655D01*
X815340Y2592578D01*
X804418Y2597912D01*
X717041Y2688336D02*
G01*
X804418Y2688336D01*
X820674Y2683002D01*
X826261Y2677668D01*
X831595Y2666745D01*
X831595Y2655823D01*
X826261Y2644902D01*
X820674Y2639313D01*
X804418Y2633979D01*
X793495Y2633979D01*
X717041Y2724404D02*
G01*
X831595Y2724404D01*
X831595Y2724404D02*
G01*
X831595Y2789936D01*
X744474Y2907792D02*
G01*
X733552Y2902204D01*
X722629Y2891281D01*
X717041Y2880360D01*
X717041Y2858770D01*
X722629Y2847847D01*
X733552Y2836926D01*
X744474Y2831337D01*
X760729Y2826004D01*
X787908Y2826004D01*
X804418Y2831337D01*
X815340Y2836926D01*
X826261Y2847847D01*
X831595Y2858770D01*
X831595Y2880360D01*
X826261Y2891281D01*
X815340Y2902204D01*
X804418Y2907792D01*
X717041Y2998215D02*
G01*
X804418Y2998215D01*
X820674Y2992881D01*
X826261Y2987294D01*
X831595Y2976371D01*
X831595Y2965450D01*
X826261Y2954528D01*
X820674Y2949194D01*
X804418Y2943860D01*
X793495Y2943860D01*
X717041Y3034284D02*
G01*
X831595Y3034284D01*
X831595Y3034284D02*
G01*
X831595Y3099815D01*
X744474Y3217671D02*
G01*
X733552Y3212084D01*
X722629Y3201162D01*
X717041Y3190239D01*
X717041Y3168395D01*
X722629Y3157473D01*
X733552Y3146552D01*
X744474Y3141218D01*
X760729Y3135629D01*
X787908Y3135629D01*
X804418Y3141218D01*
X815340Y3146552D01*
X826261Y3157473D01*
X831595Y3168395D01*
X831595Y3190239D01*
X826261Y3201162D01*
X815340Y3212084D01*
X804418Y3217671D01*
X717041Y3308095D02*
G01*
X804418Y3308095D01*
X820674Y3302762D01*
X826261Y3297173D01*
X831595Y3286252D01*
X831595Y3275329D01*
X826261Y3264407D01*
X820674Y3259073D01*
X804418Y3253486D01*
X793495Y3253486D01*
X717041Y3344163D02*
G01*
X831595Y3344163D01*
X831595Y3344163D02*
G01*
X831595Y3409442D01*
X744474Y3527297D02*
G01*
X733552Y3521963D01*
X722629Y3511042D01*
X717041Y3500120D01*
X717041Y3478276D01*
X722629Y3467354D01*
X733552Y3456431D01*
X744474Y3451097D01*
X760729Y3445510D01*
X787908Y3445510D01*
X804418Y3451097D01*
X815340Y3456431D01*
X826261Y3467354D01*
X831595Y3478276D01*
X831595Y3500120D01*
X826261Y3511042D01*
X815340Y3521963D01*
X804418Y3527297D01*
D10*
X77978Y7809737D02*
G01*
X69087Y7805165D01*
X59944Y7796021D01*
X55371Y7787131D01*
X50800Y7773415D01*
X50800Y7750810D01*
X55371Y7737094D01*
X59944Y7727950D01*
X69087Y7718805D01*
X77978Y7714234D01*
X96265Y7714234D01*
X105410Y7718805D01*
X114554Y7727950D01*
X118871Y7737094D01*
X123444Y7750810D01*
X123444Y7773415D01*
X118871Y7787131D01*
X114554Y7796021D01*
X105410Y7805165D01*
X96265Y7809737D01*
X77978Y7809737D01*
X153415Y7809737D02*
G01*
X153415Y7741665D01*
X157987Y7727950D01*
X167131Y7718805D01*
X180847Y7714234D01*
X189992Y7714234D01*
X203454Y7718805D01*
X212597Y7727950D01*
X217170Y7741665D01*
X217170Y7809737D01*
X278892Y7809737D02*
G01*
X278892Y7714234D01*
X247142Y7809737D02*
G01*
X310895Y7809737D01*
X340868Y7791704D02*
G01*
X350012Y7796021D01*
X363473Y7809737D01*
X363473Y7714234D01*
X77978Y6285737D02*
G01*
X69087Y6281165D01*
X59944Y6272021D01*
X55371Y6263131D01*
X50800Y6249415D01*
X50800Y6226810D01*
X55371Y6213094D01*
X59944Y6203950D01*
X69087Y6194805D01*
X77978Y6190234D01*
X96265Y6190234D01*
X105410Y6194805D01*
X114554Y6203950D01*
X118871Y6213094D01*
X123444Y6226810D01*
X123444Y6249415D01*
X118871Y6263131D01*
X114554Y6272021D01*
X105410Y6281165D01*
X96265Y6285737D01*
X77978Y6285737D01*
X153415Y6285737D02*
G01*
X153415Y6217665D01*
X157987Y6203950D01*
X167131Y6194805D01*
X180847Y6190234D01*
X189992Y6190234D01*
X203454Y6194805D01*
X212597Y6203950D01*
X217170Y6217665D01*
X217170Y6285737D01*
X278892Y6285737D02*
G01*
X278892Y6190234D01*
X247142Y6285737D02*
G01*
X310895Y6285737D01*
X345439Y6263131D02*
G01*
X345439Y6267704D01*
X350012Y6276594D01*
X354329Y6281165D01*
X363473Y6285737D01*
X381762Y6285737D01*
X390905Y6281165D01*
X395223Y6276594D01*
X399795Y6267704D01*
X399795Y6258560D01*
X395223Y6249415D01*
X386334Y6235700D01*
X340868Y6190234D01*
X404368Y6190234D01*
X50800Y11581637D02*
G01*
X50800Y11486134D01*
X80771Y11581637D02*
G01*
X80771Y11486134D01*
X80771Y11581637D02*
G01*
X144526Y11486134D01*
X144526Y11581637D02*
G01*
X144526Y11486134D01*
X174497Y11563350D02*
G01*
X183642Y11567921D01*
X197104Y11581637D01*
X197104Y11486134D01*
X50800Y10057637D02*
G01*
X50800Y9962134D01*
X80771Y10057637D02*
G01*
X80771Y9962134D01*
X80771Y10057637D02*
G01*
X144526Y9962134D01*
X144526Y10057637D02*
G01*
X144526Y9962134D01*
X179070Y10035031D02*
G01*
X179070Y10039604D01*
X183642Y10048494D01*
X187960Y10053065D01*
X197104Y10057637D01*
X215392Y10057637D01*
X224536Y10053065D01*
X229107Y10048494D01*
X233426Y10039604D01*
X233426Y10030460D01*
X229107Y10021315D01*
X219963Y10007600D01*
X174497Y9962134D01*
X237997Y9962134D01*
D12*
X943485Y7661981D02*
G01*
X943485Y6611995D01*
X513488Y6611995D01*
X43512Y6611995D01*
X43512Y7661981D01*
X343486Y7661981D01*
X643511Y7661981D01*
X943485Y7661981D01*
X343486Y7661981D02*
G01*
X343486Y7461981D01*
X643511Y7461981D01*
X643511Y7661981D01*
X473509Y6601988D02*
G01*
X473509Y6391981D01*
X513488Y6391981D01*
X513488Y6611995D01*
X943485Y6137981D02*
G01*
X943485Y5087995D01*
X513488Y5087995D01*
X43512Y5087995D01*
X43512Y6137981D01*
X343486Y6137981D01*
X643511Y6137981D01*
X943485Y6137981D01*
X343486Y6137981D02*
G01*
X343486Y5937981D01*
X643511Y5937981D01*
X643511Y6137981D01*
X473509Y5077988D02*
G01*
X473509Y4867981D01*
X513488Y4867981D01*
X513488Y5087995D01*
X943485Y11433876D02*
G01*
X943485Y10383890D01*
X513488Y10383890D01*
X43512Y10383890D01*
X43512Y11433876D01*
X343486Y11433876D01*
X643511Y11433876D01*
X943485Y11433876D01*
X343486Y11433876D02*
G01*
X343486Y11233876D01*
X643511Y11233876D01*
X643511Y11433876D01*
X473509Y10373883D02*
G01*
X473509Y10163876D01*
X513488Y10163876D01*
X513488Y10383890D01*
X943485Y9909881D02*
G01*
X943485Y8859895D01*
X513488Y8859895D01*
X43512Y8859895D01*
X43512Y9909881D01*
X343486Y9909881D01*
X643511Y9909881D01*
X943485Y9909881D01*
X343486Y9909881D02*
G01*
X343486Y9709881D01*
X643511Y9709881D01*
X643511Y9909881D01*
X473509Y8849888D02*
G01*
X473509Y8639881D01*
X513488Y8639881D01*
X513488Y8859895D01*
G75*
G01*
X809729Y7061982D02*
G03*
X809729Y7061220I-316230J-381D01*
G75*
G01*
X762561Y7061982D02*
G03*
X762561Y7061322I-269062J-330D01*
G75*
G01*
X809729Y5537982D02*
G03*
X809729Y5537220I-316230J-381D01*
G75*
G01*
X762561Y5537982D02*
G03*
X762561Y5537322I-269062J-330D01*
G75*
G01*
X809729Y10833877D02*
G03*
X809729Y10833115I-316230J-381D01*
G75*
G01*
X762561Y10833877D02*
G03*
X762561Y10833217I-269062J-330D01*
G75*
G01*
X809729Y9309882D02*
G03*
X809729Y9309120I-316230J-381D01*
G75*
G01*
X762561Y9309882D02*
G03*
X762561Y9309222I-269062J-330D01*
D13*
X95300Y4395596D02*
G01*
X895299Y4395596D01*
X895299Y1395602D01*
X95300Y1395602D01*
X95300Y4395596D01*
M02*
