G04 Layer: BottomLayer*
G04 EasyEDA v6.5.29, 2023-07-16 12:04:07*
G04 4946885894e94847ae742278ab8b5cb3,5a6b42c53f6a479593ecc07194224c93,10*
G04 Gerber Generator version 0.2*
G04 Scale: 100 percent, Rotated: No, Reflected: No *
G04 Dimensions in millimeters *
G04 leading zeros omitted , absolute positions ,4 integer and 5 decimal *
%FSLAX45Y45*%
%MOMM*%

%AMMACRO1*21,1,$1,$2,0,0,$3*%
%ADD10C,0.2000*%
%ADD11C,0.2540*%
%ADD12MACRO1,0.54X0.5656X90.0000*%
%ADD13MACRO1,0.864X0.8065X90.0000*%
%ADD14R,0.5400X0.7901*%
%ADD15MACRO1,0.54X0.7901X0.0000*%
%ADD16R,0.8640X0.8065*%
%ADD17MACRO1,0.864X0.8065X0.0000*%
%ADD18O,0.58801X2.0450048*%
%ADD19R,0.9072X0.8732*%
%ADD20MACRO1,0.9072X0.8732X0.0000*%
%ADD21C,1.0000*%
%ADD22MACRO1,1.7X1.7X0.0000*%
%ADD23C,1.7000*%
%ADD24C,1.6500*%
%ADD25C,1.5240*%
%ADD26C,0.6096*%
%ADD27C,0.0115*%

%LPD*%
G36*
X290068Y6883908D02*
G01*
X286156Y6884670D01*
X282905Y6886905D01*
X280670Y6890156D01*
X279908Y6894068D01*
X279908Y7393279D01*
X280670Y7397191D01*
X282905Y7400493D01*
X286156Y7402677D01*
X290068Y7403439D01*
X293979Y7402677D01*
X297230Y7400493D01*
X320598Y7377175D01*
X326796Y7372045D01*
X333502Y7368489D01*
X340715Y7366304D01*
X348742Y7365492D01*
X551281Y7365492D01*
X555193Y7364730D01*
X558495Y7362494D01*
X682294Y7238695D01*
X684530Y7235393D01*
X685292Y7231481D01*
X685292Y7102043D01*
X684428Y7097979D01*
X682040Y7094575D01*
X678484Y7092442D01*
X674370Y7091883D01*
X670356Y7093051D01*
X667156Y7095744D01*
X665327Y7099452D01*
X661060Y7115454D01*
X654710Y7132421D01*
X646582Y7148626D01*
X636879Y7163917D01*
X625652Y7178090D01*
X613003Y7191095D01*
X599084Y7202678D01*
X584047Y7212787D01*
X568096Y7221270D01*
X551332Y7228128D01*
X533908Y7233158D01*
X516128Y7236409D01*
X498043Y7237831D01*
X479958Y7237374D01*
X461975Y7235037D01*
X444347Y7230872D01*
X427278Y7224928D01*
X410870Y7217257D01*
X395325Y7207910D01*
X380847Y7197039D01*
X367538Y7184745D01*
X355600Y7171131D01*
X345084Y7156399D01*
X336194Y7140651D01*
X328930Y7124039D01*
X323443Y7106767D01*
X319735Y7089038D01*
X317855Y7071055D01*
X317855Y7052919D01*
X319735Y7034936D01*
X323443Y7017207D01*
X328930Y6999935D01*
X336194Y6983323D01*
X345084Y6967575D01*
X355600Y6952843D01*
X367538Y6939229D01*
X380847Y6926935D01*
X395325Y6916064D01*
X410870Y6906717D01*
X418236Y6903262D01*
X421385Y6900976D01*
X423468Y6897674D01*
X424078Y6893814D01*
X423265Y6890003D01*
X421030Y6886803D01*
X417779Y6884670D01*
X413918Y6883908D01*
G37*

%LPD*%
G36*
X263956Y5677052D02*
G01*
X259486Y5677154D01*
X255524Y5679186D01*
X252780Y5682691D01*
X251815Y5687009D01*
X251815Y5741365D01*
X252577Y5745276D01*
X254762Y5748578D01*
X441604Y5935421D01*
X444703Y5937504D01*
X448360Y5938367D01*
X452069Y5937808D01*
X465429Y5933287D01*
X479348Y5930544D01*
X491845Y5929680D01*
X495604Y5928715D01*
X498703Y5926429D01*
X500684Y5923127D01*
X501345Y5919368D01*
X500532Y5915558D01*
X498398Y5912358D01*
X277876Y5691835D01*
X272745Y5685637D01*
X270916Y5682234D01*
X268020Y5678881D01*
G37*

%LPD*%
G36*
X674370Y5567883D02*
G01*
X670356Y5569051D01*
X667156Y5571744D01*
X665327Y5575452D01*
X661060Y5591454D01*
X654710Y5608421D01*
X646582Y5624626D01*
X636879Y5639917D01*
X625652Y5654090D01*
X613003Y5667095D01*
X599084Y5678678D01*
X584047Y5688787D01*
X568096Y5697270D01*
X551332Y5704128D01*
X533908Y5709158D01*
X516128Y5712409D01*
X498043Y5713831D01*
X479958Y5713374D01*
X461975Y5711037D01*
X444347Y5706872D01*
X427278Y5700928D01*
X421132Y5698032D01*
X417220Y5697118D01*
X413258Y5697728D01*
X409854Y5699912D01*
X407517Y5703163D01*
X406654Y5707126D01*
X407416Y5711088D01*
X409651Y5714441D01*
X649224Y5954064D01*
X654354Y5960262D01*
X657910Y5966968D01*
X660095Y5974181D01*
X660908Y5982208D01*
X660908Y6768592D01*
X660095Y6776618D01*
X657910Y6783831D01*
X654354Y6790537D01*
X649224Y6796735D01*
X573735Y6872224D01*
X567537Y6877354D01*
X559968Y6881418D01*
X557022Y6883806D01*
X555142Y6887108D01*
X554634Y6890867D01*
X555498Y6894575D01*
X557733Y6897674D01*
X560933Y6899757D01*
X568096Y6902703D01*
X584047Y6911187D01*
X599084Y6921296D01*
X613003Y6932879D01*
X625652Y6945884D01*
X636879Y6960057D01*
X646582Y6975348D01*
X654710Y6991553D01*
X661060Y7008520D01*
X665327Y7024522D01*
X667156Y7028230D01*
X670356Y7030923D01*
X674370Y7032091D01*
X678484Y7031532D01*
X682040Y7029399D01*
X684428Y7025995D01*
X685292Y7021931D01*
X685292Y5578043D01*
X684428Y5573979D01*
X682040Y5570575D01*
X678484Y5568442D01*
G37*

%LPD*%
G36*
X425450Y4549140D02*
G01*
X421538Y4549902D01*
X418287Y4552086D01*
X414934Y4555439D01*
X410006Y4558538D01*
X404571Y4560468D01*
X399694Y4561636D01*
X396798Y4563922D01*
X394868Y4567072D01*
X394208Y4570679D01*
X394208Y4810150D01*
X395020Y4814163D01*
X397357Y4817516D01*
X400812Y4819650D01*
X404825Y4820310D01*
X408736Y4819345D01*
X411988Y4816856D01*
X416864Y4811318D01*
X427532Y4801971D01*
X439318Y4794097D01*
X452018Y4787849D01*
X465429Y4783277D01*
X479348Y4780534D01*
X480822Y4780432D01*
X480822Y4875276D01*
X404368Y4875276D01*
X400456Y4876038D01*
X397205Y4878222D01*
X394970Y4881524D01*
X394208Y4885436D01*
X394208Y4890516D01*
X394970Y4894376D01*
X397205Y4897678D01*
X400456Y4899914D01*
X404368Y4900676D01*
X480822Y4900676D01*
X480822Y4995519D01*
X479348Y4995418D01*
X465429Y4992674D01*
X452018Y4988102D01*
X439318Y4981854D01*
X427532Y4973980D01*
X416864Y4964633D01*
X411988Y4959096D01*
X408736Y4956606D01*
X404825Y4955641D01*
X400812Y4956251D01*
X397357Y4958435D01*
X395020Y4961788D01*
X394208Y4965801D01*
X394208Y5110175D01*
X395020Y5114188D01*
X397357Y5117541D01*
X400812Y5119674D01*
X404825Y5120335D01*
X408736Y5119370D01*
X411988Y5116880D01*
X416864Y5111343D01*
X427532Y5101996D01*
X439318Y5094122D01*
X452018Y5087874D01*
X465429Y5083302D01*
X479348Y5080558D01*
X493522Y5079593D01*
X507644Y5080558D01*
X521563Y5083302D01*
X534974Y5087874D01*
X547674Y5094122D01*
X559460Y5101996D01*
X570128Y5111343D01*
X579475Y5122011D01*
X587349Y5133797D01*
X593648Y5146497D01*
X598170Y5159959D01*
X600964Y5173827D01*
X601878Y5188000D01*
X600964Y5202123D01*
X598170Y5216042D01*
X593648Y5229453D01*
X587349Y5242204D01*
X579475Y5253990D01*
X570128Y5264658D01*
X559460Y5274005D01*
X547674Y5281879D01*
X534974Y5288127D01*
X521563Y5292699D01*
X507644Y5295442D01*
X493522Y5296357D01*
X479348Y5295442D01*
X465429Y5292699D01*
X452018Y5288127D01*
X439318Y5281879D01*
X427532Y5274005D01*
X416864Y5264658D01*
X411988Y5259120D01*
X408736Y5256631D01*
X404825Y5255666D01*
X400812Y5256276D01*
X397357Y5258460D01*
X395020Y5261813D01*
X394208Y5265826D01*
X394208Y5308092D01*
X393395Y5316118D01*
X391210Y5323332D01*
X387654Y5330037D01*
X382524Y5336235D01*
X346405Y5372404D01*
X344170Y5375706D01*
X343408Y5379618D01*
X343408Y5415737D01*
X344220Y5419750D01*
X346557Y5423103D01*
X349961Y5425236D01*
X354025Y5425897D01*
X357936Y5424932D01*
X361188Y5422442D01*
X367538Y5415229D01*
X380847Y5402935D01*
X395325Y5392064D01*
X410870Y5382717D01*
X427278Y5375046D01*
X444347Y5369102D01*
X461975Y5364937D01*
X479958Y5362600D01*
X498043Y5362143D01*
X516128Y5363565D01*
X533908Y5366816D01*
X551332Y5371846D01*
X568096Y5378704D01*
X584047Y5387187D01*
X599084Y5397296D01*
X613003Y5408879D01*
X625652Y5421884D01*
X636879Y5436057D01*
X646582Y5451348D01*
X654710Y5467553D01*
X661060Y5484520D01*
X665327Y5500522D01*
X667156Y5504230D01*
X670356Y5506923D01*
X674370Y5508091D01*
X678484Y5507532D01*
X682040Y5505399D01*
X684428Y5501995D01*
X685292Y5497931D01*
X685292Y4871618D01*
X684530Y4867706D01*
X682294Y4864404D01*
X468376Y4650435D01*
X463245Y4644237D01*
X459689Y4637532D01*
X457504Y4630318D01*
X456692Y4622292D01*
X456692Y4570679D01*
X456031Y4567072D01*
X454101Y4563922D01*
X451205Y4561636D01*
X446328Y4560468D01*
X440893Y4558538D01*
X435965Y4555439D01*
X432612Y4552086D01*
X429361Y4549902D01*
G37*

%LPC*%
G36*
X506222Y4900676D02*
G01*
X601065Y4900676D01*
X600964Y4902098D01*
X598170Y4916017D01*
X593648Y4929428D01*
X587349Y4942179D01*
X579475Y4953965D01*
X570128Y4964633D01*
X559460Y4973980D01*
X547674Y4981854D01*
X534974Y4988102D01*
X521563Y4992674D01*
X507644Y4995418D01*
X506222Y4995519D01*
G37*
G36*
X506222Y4780432D02*
G01*
X507644Y4780534D01*
X521563Y4783277D01*
X534974Y4787849D01*
X547674Y4794097D01*
X559460Y4801971D01*
X570128Y4811318D01*
X579475Y4821986D01*
X587349Y4833772D01*
X593648Y4846472D01*
X598170Y4859934D01*
X600964Y4873802D01*
X601065Y4875276D01*
X506222Y4875276D01*
G37*

%LPD*%
G36*
X262686Y4189374D02*
G01*
X258571Y4189933D01*
X255066Y4192066D01*
X252628Y4195470D01*
X251815Y4199534D01*
X251815Y5336590D01*
X252780Y5340908D01*
X255524Y5344414D01*
X259486Y5346446D01*
X263956Y5346547D01*
X268020Y5344718D01*
X270916Y5341366D01*
X272745Y5337962D01*
X277876Y5331764D01*
X313994Y5295595D01*
X316230Y5292293D01*
X316992Y5288381D01*
X316992Y4570679D01*
X316331Y4567072D01*
X314401Y4563922D01*
X311505Y4561636D01*
X306628Y4560468D01*
X301193Y4558538D01*
X296265Y4555439D01*
X292201Y4551375D01*
X289102Y4546447D01*
X287223Y4541012D01*
X286512Y4534662D01*
X286512Y4455160D01*
X287223Y4448860D01*
X289102Y4443374D01*
X292201Y4438497D01*
X296265Y4434382D01*
X301193Y4431334D01*
X307238Y4429201D01*
X310794Y4427067D01*
X313232Y4423664D01*
X314045Y4419600D01*
X313232Y4415536D01*
X310794Y4412132D01*
X307238Y4409998D01*
X301193Y4407865D01*
X296265Y4404817D01*
X292201Y4400702D01*
X289102Y4395825D01*
X287223Y4390339D01*
X286512Y4384040D01*
X286512Y4304538D01*
X287223Y4298188D01*
X289102Y4292752D01*
X292201Y4287824D01*
X296265Y4283760D01*
X301193Y4280662D01*
X306628Y4278731D01*
X312978Y4278020D01*
X327152Y4278020D01*
X331063Y4277258D01*
X334365Y4275023D01*
X336600Y4271670D01*
X337312Y4267758D01*
X336448Y4263847D01*
X334162Y4260545D01*
X330809Y4258411D01*
X325323Y4256278D01*
X313385Y4249724D01*
X302412Y4241647D01*
X292608Y4232148D01*
X284124Y4221480D01*
X277164Y4209745D01*
X271780Y4196842D01*
X269900Y4193133D01*
X266700Y4190492D01*
G37*

%LPD*%
G36*
X728268Y4188815D02*
G01*
X724357Y4189729D01*
X721106Y4192168D01*
X719023Y4195622D01*
X716280Y4203547D01*
X710133Y4215739D01*
X702411Y4226966D01*
X693267Y4237075D01*
X682853Y4245864D01*
X671372Y4253230D01*
X658977Y4258970D01*
X645972Y4262983D01*
X632510Y4265269D01*
X618896Y4265726D01*
X605332Y4264355D01*
X592074Y4261205D01*
X579323Y4256278D01*
X567385Y4249724D01*
X556412Y4241647D01*
X551129Y4236567D01*
X547827Y4234434D01*
X543966Y4233722D01*
X540105Y4234535D01*
X536854Y4236720D01*
X534670Y4240022D01*
X533908Y4243882D01*
X533908Y4268520D01*
X534568Y4272127D01*
X536498Y4275277D01*
X539394Y4277563D01*
X544271Y4278731D01*
X549706Y4280662D01*
X554634Y4283760D01*
X558698Y4287824D01*
X561797Y4292752D01*
X563676Y4298188D01*
X564388Y4304538D01*
X564388Y4384040D01*
X563676Y4390339D01*
X561797Y4395825D01*
X558698Y4400702D01*
X554634Y4404817D01*
X549706Y4407865D01*
X543661Y4409998D01*
X540105Y4412132D01*
X537667Y4415536D01*
X536854Y4419600D01*
X537667Y4423664D01*
X540105Y4427067D01*
X543661Y4429201D01*
X549706Y4431334D01*
X554634Y4434382D01*
X558698Y4438497D01*
X561797Y4443374D01*
X563676Y4448860D01*
X564388Y4455160D01*
X564388Y4534662D01*
X563676Y4541012D01*
X561797Y4546447D01*
X558698Y4551375D01*
X554634Y4555439D01*
X549706Y4558538D01*
X544271Y4560468D01*
X539394Y4561636D01*
X536498Y4563922D01*
X534568Y4567072D01*
X533908Y4570679D01*
X533908Y4602581D01*
X534670Y4606493D01*
X536905Y4609795D01*
X721461Y4794351D01*
X724763Y4796536D01*
X728624Y4797348D01*
X732536Y4796536D01*
X735838Y4794351D01*
X738022Y4791049D01*
X738784Y4787188D01*
X738784Y4198975D01*
X737971Y4195013D01*
X735685Y4191660D01*
X732282Y4189476D01*
G37*

%LPD*%
G36*
X36068Y3939133D02*
G01*
X32156Y3939946D01*
X28905Y3942130D01*
X26670Y3945432D01*
X25908Y3949293D01*
X25908Y4083507D01*
X26670Y4087368D01*
X28854Y4090670D01*
X32105Y4092854D01*
X35966Y4093667D01*
X39827Y4092956D01*
X43129Y4090822D01*
X48412Y4085742D01*
X59385Y4077665D01*
X71323Y4071112D01*
X84074Y4066184D01*
X97332Y4063034D01*
X101600Y4062577D01*
X101600Y4150969D01*
X36068Y4150969D01*
X32156Y4151782D01*
X28905Y4153966D01*
X26670Y4157268D01*
X25908Y4161129D01*
X25908Y4166209D01*
X26670Y4170121D01*
X28905Y4173423D01*
X32156Y4175607D01*
X36068Y4176369D01*
X101600Y4176369D01*
X101600Y4264812D01*
X97332Y4264355D01*
X84074Y4261205D01*
X71323Y4256278D01*
X59385Y4249724D01*
X48412Y4241647D01*
X43129Y4236567D01*
X39827Y4234434D01*
X35966Y4233722D01*
X32105Y4234535D01*
X28854Y4236720D01*
X26670Y4240022D01*
X25908Y4243882D01*
X25908Y8133943D01*
X26670Y8137804D01*
X28905Y8141106D01*
X32156Y8143341D01*
X36068Y8144103D01*
X101600Y8144103D01*
X101600Y8242300D01*
X36068Y8242300D01*
X32156Y8243062D01*
X28905Y8245297D01*
X26670Y8248548D01*
X25908Y8252459D01*
X25908Y8257540D01*
X26670Y8261451D01*
X28905Y8264702D01*
X32156Y8266938D01*
X36068Y8267700D01*
X101600Y8267700D01*
X101600Y8365896D01*
X36068Y8365896D01*
X32156Y8366658D01*
X28905Y8368893D01*
X26670Y8372195D01*
X25908Y8376056D01*
X25908Y11689943D01*
X26670Y11693804D01*
X28905Y11697106D01*
X32156Y11699341D01*
X36068Y11700103D01*
X101600Y11700103D01*
X101600Y11798300D01*
X36068Y11798300D01*
X32156Y11799062D01*
X28905Y11801297D01*
X26670Y11804548D01*
X25908Y11808460D01*
X25908Y11813540D01*
X26670Y11817451D01*
X28905Y11820702D01*
X32156Y11822938D01*
X36068Y11823700D01*
X101600Y11823700D01*
X101600Y11901932D01*
X102362Y11905843D01*
X104597Y11909094D01*
X107848Y11911330D01*
X111760Y11912092D01*
X116839Y11912092D01*
X120751Y11911330D01*
X124002Y11909094D01*
X126237Y11905843D01*
X127000Y11901932D01*
X127000Y11823700D01*
X225196Y11823700D01*
X225196Y11895429D01*
X224586Y11900814D01*
X225044Y11905030D01*
X227126Y11908688D01*
X230530Y11911228D01*
X234696Y11912092D01*
X288696Y11912092D01*
X292658Y11911279D01*
X296011Y11908993D01*
X298196Y11905589D01*
X298856Y11901627D01*
X297942Y11897664D01*
X295554Y11894413D01*
X288645Y11888165D01*
X279450Y11877344D01*
X271678Y11865406D01*
X265531Y11852605D01*
X261061Y11839143D01*
X258317Y11825173D01*
X257403Y11811000D01*
X258317Y11796826D01*
X261061Y11782856D01*
X265531Y11769394D01*
X271678Y11756593D01*
X279450Y11744655D01*
X288645Y11733834D01*
X299161Y11724284D01*
X310794Y11716156D01*
X323392Y11709603D01*
X336753Y11704675D01*
X350621Y11701526D01*
X364744Y11700154D01*
X378968Y11700611D01*
X392988Y11702897D01*
X406603Y11706910D01*
X419608Y11712702D01*
X431749Y11720068D01*
X442874Y11728907D01*
X452729Y11739118D01*
X461213Y11750497D01*
X468223Y11762892D01*
X473557Y11776049D01*
X477164Y11789816D01*
X478942Y11803888D01*
X478942Y11818112D01*
X477164Y11832183D01*
X473557Y11845950D01*
X468223Y11859107D01*
X461213Y11871502D01*
X452729Y11882882D01*
X439064Y11897207D01*
X437946Y11901170D01*
X438454Y11905284D01*
X440588Y11908840D01*
X443992Y11911228D01*
X448056Y11912092D01*
X542696Y11912092D01*
X546658Y11911279D01*
X550011Y11908993D01*
X552196Y11905589D01*
X552856Y11901627D01*
X551942Y11897664D01*
X549554Y11894413D01*
X542645Y11888165D01*
X533450Y11877344D01*
X525678Y11865406D01*
X519531Y11852605D01*
X515061Y11839143D01*
X512318Y11825173D01*
X511403Y11811000D01*
X512318Y11796826D01*
X515061Y11782856D01*
X519531Y11769394D01*
X525678Y11756593D01*
X533450Y11744655D01*
X542645Y11733834D01*
X553161Y11724284D01*
X564794Y11716156D01*
X577392Y11709603D01*
X590753Y11704675D01*
X604621Y11701526D01*
X618744Y11700154D01*
X632968Y11700611D01*
X646988Y11702897D01*
X660603Y11706910D01*
X673608Y11712702D01*
X685749Y11720068D01*
X696874Y11728907D01*
X706729Y11739118D01*
X715213Y11750497D01*
X722223Y11762892D01*
X727557Y11776049D01*
X731164Y11789816D01*
X732942Y11803888D01*
X732942Y11818112D01*
X731164Y11832183D01*
X727557Y11845950D01*
X722223Y11859107D01*
X715213Y11871502D01*
X706729Y11882882D01*
X693064Y11897207D01*
X691946Y11901170D01*
X692454Y11905284D01*
X694588Y11908840D01*
X697992Y11911228D01*
X702056Y11912092D01*
X796696Y11912092D01*
X800658Y11911279D01*
X804011Y11908993D01*
X806196Y11905589D01*
X806856Y11901627D01*
X805942Y11897664D01*
X803554Y11894413D01*
X796645Y11888165D01*
X787450Y11877344D01*
X779678Y11865406D01*
X773531Y11852605D01*
X769061Y11839143D01*
X766318Y11825173D01*
X765403Y11811000D01*
X766318Y11796826D01*
X769061Y11782856D01*
X773531Y11769394D01*
X779678Y11756593D01*
X787450Y11744655D01*
X796645Y11733834D01*
X807161Y11724284D01*
X818794Y11716156D01*
X831392Y11709603D01*
X844753Y11704675D01*
X858621Y11701526D01*
X872744Y11700154D01*
X886968Y11700611D01*
X900988Y11702897D01*
X914603Y11706910D01*
X927608Y11712702D01*
X939749Y11720068D01*
X948182Y11726773D01*
X951534Y11728551D01*
X955294Y11729008D01*
X958951Y11727992D01*
X961999Y11725757D01*
X963980Y11722557D01*
X964692Y11718848D01*
X964692Y8347151D01*
X963980Y8343442D01*
X961999Y8340242D01*
X958951Y8338007D01*
X955294Y8336991D01*
X951534Y8337448D01*
X948182Y8339226D01*
X939749Y8345931D01*
X927608Y8353298D01*
X914603Y8359038D01*
X900988Y8363102D01*
X889000Y8365032D01*
X889000Y8267700D01*
X954532Y8267700D01*
X958443Y8266938D01*
X961694Y8264702D01*
X963930Y8261451D01*
X964692Y8257540D01*
X964692Y8252459D01*
X963930Y8248548D01*
X961694Y8245297D01*
X958443Y8243062D01*
X954532Y8242300D01*
X889000Y8242300D01*
X889000Y8144967D01*
X900988Y8146897D01*
X914603Y8150910D01*
X927608Y8156702D01*
X939749Y8164068D01*
X948182Y8170773D01*
X951534Y8172551D01*
X955294Y8173008D01*
X958951Y8171992D01*
X961999Y8169757D01*
X963980Y8166557D01*
X964692Y8162848D01*
X964692Y4244187D01*
X963980Y4240428D01*
X961898Y4237228D01*
X958799Y4234992D01*
X955090Y4234027D01*
X951280Y4234586D01*
X947978Y4236466D01*
X936853Y4245864D01*
X925372Y4253230D01*
X912977Y4258970D01*
X899972Y4262983D01*
X886510Y4265269D01*
X872896Y4265726D01*
X859332Y4264355D01*
X846074Y4261205D01*
X833323Y4256278D01*
X825652Y4252112D01*
X821639Y4250893D01*
X817524Y4251401D01*
X813917Y4253484D01*
X811479Y4256887D01*
X810615Y4261002D01*
X810615Y7280351D01*
X809752Y7288377D01*
X807466Y7295489D01*
X803656Y7302093D01*
X799795Y7306564D01*
X596138Y7510272D01*
X594004Y7513320D01*
X593191Y7516977D01*
X593699Y7520686D01*
X598170Y7533944D01*
X600964Y7547813D01*
X601878Y7561986D01*
X600964Y7576108D01*
X598170Y7590028D01*
X593648Y7603439D01*
X587349Y7616190D01*
X579475Y7627975D01*
X570128Y7638643D01*
X559460Y7647990D01*
X547674Y7655864D01*
X534974Y7662113D01*
X521563Y7666685D01*
X507644Y7669428D01*
X493522Y7670342D01*
X479348Y7669428D01*
X465429Y7666685D01*
X452018Y7662113D01*
X439318Y7655864D01*
X427532Y7647990D01*
X416864Y7638643D01*
X407517Y7627975D01*
X399643Y7616190D01*
X393344Y7603439D01*
X388823Y7590028D01*
X386029Y7576108D01*
X385114Y7561986D01*
X386029Y7547813D01*
X388823Y7533944D01*
X393344Y7520482D01*
X399643Y7507782D01*
X407517Y7495997D01*
X416864Y7485329D01*
X427532Y7475981D01*
X439318Y7468108D01*
X451764Y7461961D01*
X455269Y7459116D01*
X457200Y7455052D01*
X457149Y7450581D01*
X455168Y7446518D01*
X451662Y7443724D01*
X447243Y7442708D01*
X368452Y7442708D01*
X364540Y7443470D01*
X361238Y7445705D01*
X346405Y7460538D01*
X344170Y7463840D01*
X343408Y7467752D01*
X343408Y7929981D01*
X344170Y7933893D01*
X346405Y7937195D01*
X522224Y8113064D01*
X527354Y8119262D01*
X530910Y8125968D01*
X533095Y8133181D01*
X533908Y8141208D01*
X533908Y8162848D01*
X534670Y8166658D01*
X536752Y8169909D01*
X539953Y8172145D01*
X543763Y8173008D01*
X547573Y8172399D01*
X550875Y8170367D01*
X553161Y8168284D01*
X564794Y8160156D01*
X577392Y8153603D01*
X590753Y8148675D01*
X604621Y8145525D01*
X618744Y8144154D01*
X632968Y8144611D01*
X646988Y8146897D01*
X660603Y8150910D01*
X673608Y8156702D01*
X685749Y8164068D01*
X696874Y8172907D01*
X706729Y8183118D01*
X715213Y8194497D01*
X722223Y8206892D01*
X727557Y8220049D01*
X731164Y8233816D01*
X732942Y8247888D01*
X732942Y8262112D01*
X731164Y8276183D01*
X727557Y8289950D01*
X722223Y8303107D01*
X715213Y8315502D01*
X706729Y8326881D01*
X696874Y8337092D01*
X685749Y8345931D01*
X673608Y8353298D01*
X660603Y8359038D01*
X646988Y8363102D01*
X632968Y8365388D01*
X618744Y8365845D01*
X604621Y8364474D01*
X590753Y8361324D01*
X577392Y8356396D01*
X564794Y8349843D01*
X553161Y8341715D01*
X550875Y8339632D01*
X547573Y8337600D01*
X543763Y8336991D01*
X539953Y8337854D01*
X536752Y8340090D01*
X534670Y8343341D01*
X533908Y8347151D01*
X533908Y8356092D01*
X533095Y8364118D01*
X530910Y8371331D01*
X527354Y8378037D01*
X522224Y8384235D01*
X333705Y8572804D01*
X331470Y8576106D01*
X330708Y8580018D01*
X330708Y9203893D01*
X331571Y9208058D01*
X334111Y9211462D01*
X337769Y9213596D01*
X341985Y9214002D01*
X345998Y9212681D01*
X349148Y9209786D01*
X355600Y9200743D01*
X367538Y9187129D01*
X380847Y9174835D01*
X395325Y9163964D01*
X410870Y9154617D01*
X427278Y9146946D01*
X444347Y9141002D01*
X461975Y9136837D01*
X479958Y9134500D01*
X498043Y9134043D01*
X516128Y9135465D01*
X533908Y9138716D01*
X551332Y9143746D01*
X568096Y9150604D01*
X584047Y9159087D01*
X599084Y9169196D01*
X613003Y9180779D01*
X625652Y9193784D01*
X636879Y9207957D01*
X646582Y9223248D01*
X654710Y9239453D01*
X661060Y9256420D01*
X665683Y9273895D01*
X668477Y9291777D01*
X669391Y9309862D01*
X668477Y9327997D01*
X665683Y9345879D01*
X661060Y9363354D01*
X654710Y9380321D01*
X646582Y9396526D01*
X636879Y9411817D01*
X625652Y9425990D01*
X613003Y9438995D01*
X599084Y9450578D01*
X584047Y9460687D01*
X568096Y9469170D01*
X551332Y9476028D01*
X533908Y9481058D01*
X516128Y9484309D01*
X498043Y9485731D01*
X479958Y9485274D01*
X461975Y9482937D01*
X444347Y9478772D01*
X427278Y9472828D01*
X410870Y9465157D01*
X395325Y9455810D01*
X380847Y9444939D01*
X367538Y9432645D01*
X355600Y9419031D01*
X349148Y9409988D01*
X345998Y9407093D01*
X341985Y9405772D01*
X337769Y9406178D01*
X334111Y9408312D01*
X331571Y9411716D01*
X330708Y9415881D01*
X330708Y9726422D01*
X331368Y9730028D01*
X333298Y9733178D01*
X336194Y9735413D01*
X339750Y9736480D01*
X343204Y9736886D01*
X348691Y9738817D01*
X353568Y9741865D01*
X357682Y9745980D01*
X360730Y9750856D01*
X362661Y9756343D01*
X363931Y9761626D01*
X366166Y9764572D01*
X369316Y9766452D01*
X372973Y9767112D01*
X387654Y9767112D01*
X391363Y9766452D01*
X394512Y9764471D01*
X396798Y9761474D01*
X399643Y9755682D01*
X407517Y9743897D01*
X416864Y9733229D01*
X427532Y9723882D01*
X439318Y9716008D01*
X452018Y9709759D01*
X465429Y9705187D01*
X479348Y9702444D01*
X493522Y9701479D01*
X507644Y9702444D01*
X521563Y9705187D01*
X534974Y9709759D01*
X547674Y9716008D01*
X559460Y9723882D01*
X570128Y9733229D01*
X579475Y9743897D01*
X587349Y9755682D01*
X593648Y9768382D01*
X598170Y9781844D01*
X600964Y9795713D01*
X601878Y9809886D01*
X600964Y9824008D01*
X598170Y9837928D01*
X593648Y9851339D01*
X587349Y9864090D01*
X579475Y9875875D01*
X570128Y9886543D01*
X559460Y9895890D01*
X547674Y9903764D01*
X534974Y9910013D01*
X521563Y9914585D01*
X507644Y9917328D01*
X493522Y9918242D01*
X479348Y9917328D01*
X465429Y9914585D01*
X452018Y9910013D01*
X439318Y9903764D01*
X427532Y9895890D01*
X416864Y9886543D01*
X407517Y9875875D01*
X399643Y9864090D01*
X393344Y9851237D01*
X391210Y9847630D01*
X387807Y9845192D01*
X383692Y9844328D01*
X372973Y9844328D01*
X369316Y9845040D01*
X366166Y9846919D01*
X363931Y9849866D01*
X362661Y9855149D01*
X360730Y9860635D01*
X359562Y9862515D01*
X358190Y9866020D01*
X358190Y9869779D01*
X359562Y9873284D01*
X360730Y9875164D01*
X362661Y9880650D01*
X363372Y9886950D01*
X363372Y9917379D01*
X304800Y9917379D01*
X304800Y9885476D01*
X304038Y9881565D01*
X301802Y9878263D01*
X298551Y9876078D01*
X294640Y9875316D01*
X289560Y9875316D01*
X285648Y9876078D01*
X282397Y9878263D01*
X280162Y9881565D01*
X279400Y9885476D01*
X279400Y9917379D01*
X220827Y9917379D01*
X220827Y9886950D01*
X221538Y9880650D01*
X223469Y9875164D01*
X224637Y9873284D01*
X226009Y9869779D01*
X226009Y9866020D01*
X224637Y9862515D01*
X223469Y9860635D01*
X221538Y9855149D01*
X220827Y9848850D01*
X220827Y9762642D01*
X221538Y9756343D01*
X223469Y9750856D01*
X226517Y9745980D01*
X230632Y9741865D01*
X235508Y9738817D01*
X240995Y9736886D01*
X244449Y9736480D01*
X248005Y9735413D01*
X250901Y9733178D01*
X252831Y9730028D01*
X253492Y9726422D01*
X253492Y8560308D01*
X254304Y8552281D01*
X256489Y8545068D01*
X260045Y8538362D01*
X265176Y8532164D01*
X424840Y8372449D01*
X427024Y8369147D01*
X427786Y8365236D01*
X426974Y8361273D01*
X424738Y8358022D01*
X421385Y8355838D01*
X417423Y8355126D01*
X413512Y8355990D01*
X406603Y8359038D01*
X392988Y8363102D01*
X378968Y8365388D01*
X364744Y8365845D01*
X350621Y8364474D01*
X336753Y8361324D01*
X323392Y8356396D01*
X310794Y8349843D01*
X299161Y8341715D01*
X296875Y8339632D01*
X293573Y8337600D01*
X289763Y8336991D01*
X285953Y8337854D01*
X282752Y8340090D01*
X280670Y8343341D01*
X279908Y8347151D01*
X279908Y8381492D01*
X279095Y8389518D01*
X276910Y8396732D01*
X273354Y8403437D01*
X268224Y8409635D01*
X168605Y8509304D01*
X166370Y8512606D01*
X165608Y8516518D01*
X165608Y11244681D01*
X166370Y11248593D01*
X168605Y11251895D01*
X204165Y11287455D01*
X207264Y11289588D01*
X210972Y11290401D01*
X214680Y11289842D01*
X217932Y11287963D01*
X220319Y11285016D01*
X221538Y11280343D01*
X223469Y11274856D01*
X226517Y11269980D01*
X230632Y11265865D01*
X235508Y11262817D01*
X240995Y11260886D01*
X247294Y11260175D01*
X336905Y11260175D01*
X343204Y11260886D01*
X348691Y11262817D01*
X353568Y11265865D01*
X357682Y11269980D01*
X360730Y11274856D01*
X362661Y11280343D01*
X363931Y11285626D01*
X366166Y11288572D01*
X369316Y11290452D01*
X372973Y11291112D01*
X387654Y11291112D01*
X391363Y11290452D01*
X394512Y11288471D01*
X396798Y11285474D01*
X399643Y11279682D01*
X407517Y11267897D01*
X416864Y11257229D01*
X427532Y11247882D01*
X439318Y11240008D01*
X452018Y11233759D01*
X465429Y11229187D01*
X479348Y11226393D01*
X493522Y11225479D01*
X507644Y11226393D01*
X521563Y11229187D01*
X534974Y11233759D01*
X547674Y11240008D01*
X559460Y11247882D01*
X570128Y11257229D01*
X579475Y11267897D01*
X587349Y11279682D01*
X593648Y11292382D01*
X598170Y11305844D01*
X600964Y11319713D01*
X601878Y11333886D01*
X600964Y11348008D01*
X598170Y11361928D01*
X593648Y11375339D01*
X587349Y11388090D01*
X579475Y11399875D01*
X570128Y11410492D01*
X559460Y11419840D01*
X547674Y11427764D01*
X534974Y11434013D01*
X521563Y11438585D01*
X507644Y11441328D01*
X493522Y11442242D01*
X479348Y11441328D01*
X465429Y11438585D01*
X452018Y11434013D01*
X439318Y11427764D01*
X427532Y11419840D01*
X416864Y11410492D01*
X407517Y11399875D01*
X399643Y11388090D01*
X393344Y11375237D01*
X391210Y11371630D01*
X387807Y11369192D01*
X383692Y11368328D01*
X372973Y11368328D01*
X369316Y11369040D01*
X366166Y11370919D01*
X363931Y11373866D01*
X362661Y11379149D01*
X360730Y11384635D01*
X359562Y11386515D01*
X358190Y11390020D01*
X358190Y11393779D01*
X359562Y11397284D01*
X360730Y11399164D01*
X362661Y11404650D01*
X363372Y11410950D01*
X363372Y11441379D01*
X304800Y11441379D01*
X304800Y11409476D01*
X304038Y11405565D01*
X301802Y11402263D01*
X298551Y11400078D01*
X294640Y11399316D01*
X289560Y11399316D01*
X285648Y11400078D01*
X282397Y11402263D01*
X280162Y11405565D01*
X279400Y11409476D01*
X279400Y11441379D01*
X220827Y11441379D01*
X220827Y11410950D01*
X221538Y11404650D01*
X223469Y11399164D01*
X224637Y11397284D01*
X226009Y11393779D01*
X226009Y11390020D01*
X224637Y11386515D01*
X223469Y11384635D01*
X221538Y11379149D01*
X220268Y11373764D01*
X218033Y11370868D01*
X214884Y11368938D01*
X211226Y11368278D01*
X192278Y11368278D01*
X184251Y11367465D01*
X177038Y11365280D01*
X170332Y11361724D01*
X164134Y11356594D01*
X100076Y11292535D01*
X94945Y11286337D01*
X91389Y11279632D01*
X89204Y11272418D01*
X88392Y11264392D01*
X88392Y8496808D01*
X89204Y8488781D01*
X91389Y8481568D01*
X94945Y8474862D01*
X100076Y8468664D01*
X185470Y8383270D01*
X187655Y8379968D01*
X188417Y8376056D01*
X187655Y8372195D01*
X185470Y8368893D01*
X182168Y8366658D01*
X178257Y8365896D01*
X127000Y8365896D01*
X127000Y8267700D01*
X192532Y8267700D01*
X196443Y8266938D01*
X199694Y8264702D01*
X201930Y8261451D01*
X202692Y8257540D01*
X202692Y8252459D01*
X201930Y8248548D01*
X199694Y8245297D01*
X196443Y8243062D01*
X192532Y8242300D01*
X127000Y8242300D01*
X127000Y8144103D01*
X192532Y8144103D01*
X196443Y8143341D01*
X199694Y8141106D01*
X201930Y8137804D01*
X202692Y8133943D01*
X202692Y6871208D01*
X203504Y6863181D01*
X205689Y6855968D01*
X209245Y6849262D01*
X214375Y6843064D01*
X239064Y6818375D01*
X245262Y6813245D01*
X251967Y6809689D01*
X259181Y6807504D01*
X267208Y6806692D01*
X410464Y6806692D01*
X414426Y6805879D01*
X417779Y6803542D01*
X419963Y6800088D01*
X420624Y6796074D01*
X419608Y6792163D01*
X416864Y6788658D01*
X407517Y6777990D01*
X399643Y6766204D01*
X393344Y6753453D01*
X388823Y6740042D01*
X386029Y6726123D01*
X385114Y6712000D01*
X386029Y6697827D01*
X388823Y6683959D01*
X393344Y6670497D01*
X399643Y6657797D01*
X407517Y6646011D01*
X416864Y6635343D01*
X427532Y6625996D01*
X439318Y6618122D01*
X452018Y6611874D01*
X465429Y6607302D01*
X479348Y6604558D01*
X493522Y6603593D01*
X507644Y6604558D01*
X521563Y6607302D01*
X534974Y6611874D01*
X547674Y6618122D01*
X559460Y6625996D01*
X566826Y6632448D01*
X570179Y6634378D01*
X573989Y6634988D01*
X577748Y6634073D01*
X580847Y6631838D01*
X582980Y6628587D01*
X583692Y6624828D01*
X583692Y6499148D01*
X582980Y6495338D01*
X580847Y6492138D01*
X577748Y6489903D01*
X573989Y6488988D01*
X570179Y6489547D01*
X566826Y6491528D01*
X559460Y6497980D01*
X547674Y6505854D01*
X534974Y6512102D01*
X521563Y6516674D01*
X507644Y6519418D01*
X506222Y6519519D01*
X506222Y6424676D01*
X573532Y6424676D01*
X577443Y6423914D01*
X580694Y6421678D01*
X582930Y6418376D01*
X583692Y6414516D01*
X583692Y6409436D01*
X582930Y6405524D01*
X580694Y6402222D01*
X577443Y6400038D01*
X573532Y6399276D01*
X506222Y6399276D01*
X506222Y6304432D01*
X507644Y6304534D01*
X521563Y6307277D01*
X534974Y6311849D01*
X547674Y6318097D01*
X559460Y6325971D01*
X566826Y6332423D01*
X570179Y6334353D01*
X573989Y6334963D01*
X577748Y6334048D01*
X580847Y6331813D01*
X582980Y6328562D01*
X583692Y6324803D01*
X583692Y6125159D01*
X582980Y6121349D01*
X580847Y6118148D01*
X577748Y6115913D01*
X573989Y6114999D01*
X570179Y6115558D01*
X566826Y6117539D01*
X559460Y6123990D01*
X547674Y6131864D01*
X534974Y6138113D01*
X521563Y6142685D01*
X507644Y6145428D01*
X493522Y6146342D01*
X479348Y6145428D01*
X465429Y6142685D01*
X452018Y6138113D01*
X439318Y6131864D01*
X427532Y6123990D01*
X416864Y6114643D01*
X407517Y6103975D01*
X399643Y6092190D01*
X393344Y6079439D01*
X388823Y6066028D01*
X386029Y6052108D01*
X385114Y6037986D01*
X386029Y6023813D01*
X388823Y6009944D01*
X393293Y5996686D01*
X393852Y5992977D01*
X392988Y5989320D01*
X390855Y5986221D01*
X190906Y5786221D01*
X185826Y5779973D01*
X182422Y5773318D01*
X180441Y5765952D01*
X179984Y5760059D01*
X179984Y4261154D01*
X179070Y4256938D01*
X176479Y4253484D01*
X172720Y4251401D01*
X168402Y4251096D01*
X150977Y4258970D01*
X137972Y4262983D01*
X127000Y4264863D01*
X127000Y4176369D01*
X169824Y4176369D01*
X173736Y4175607D01*
X177038Y4173423D01*
X179222Y4170121D01*
X179984Y4166209D01*
X179984Y4161129D01*
X179222Y4157268D01*
X177038Y4153966D01*
X173736Y4151782D01*
X169824Y4150969D01*
X127000Y4150969D01*
X127000Y4062526D01*
X138633Y4064609D01*
X143103Y4064965D01*
X147269Y4063390D01*
X150317Y4060139D01*
X151739Y4055922D01*
X151231Y4051503D01*
X148844Y4047693D01*
X43230Y3942130D01*
X39979Y3939946D01*
G37*

%LPC*%
G36*
X304800Y11466779D02*
G01*
X363372Y11466779D01*
X363372Y11497157D01*
X362661Y11503456D01*
X360730Y11508943D01*
X357682Y11513820D01*
X353568Y11517934D01*
X348691Y11520982D01*
X343204Y11522913D01*
X336905Y11523624D01*
X304800Y11523624D01*
G37*
G36*
X220827Y11466779D02*
G01*
X279400Y11466779D01*
X279400Y11523624D01*
X247294Y11523624D01*
X240995Y11522913D01*
X235508Y11520982D01*
X230632Y11517934D01*
X226517Y11513820D01*
X223469Y11508943D01*
X221538Y11503456D01*
X220827Y11497157D01*
G37*
G36*
X498043Y10658043D02*
G01*
X516128Y10659414D01*
X533908Y10662666D01*
X551332Y10667746D01*
X568096Y10674553D01*
X584047Y10683087D01*
X599084Y10693196D01*
X613003Y10704779D01*
X625652Y10717733D01*
X636879Y10731957D01*
X646582Y10747248D01*
X654710Y10763402D01*
X661060Y10780369D01*
X665683Y10797895D01*
X668477Y10815777D01*
X669391Y10833862D01*
X668477Y10851946D01*
X665683Y10869828D01*
X661060Y10887354D01*
X654710Y10904321D01*
X646582Y10920476D01*
X636879Y10935766D01*
X625652Y10949990D01*
X613003Y10962944D01*
X599084Y10974527D01*
X584047Y10984636D01*
X568096Y10993170D01*
X551332Y10999978D01*
X533908Y11005058D01*
X516128Y11008309D01*
X498043Y11009680D01*
X479958Y11009223D01*
X461975Y11006886D01*
X444347Y11002772D01*
X427278Y10996777D01*
X410870Y10989106D01*
X395325Y10979810D01*
X380847Y10968939D01*
X367538Y10956645D01*
X355600Y10943031D01*
X345084Y10928248D01*
X336194Y10912500D01*
X328930Y10895888D01*
X323443Y10878667D01*
X319735Y10860938D01*
X317855Y10842904D01*
X317855Y10824819D01*
X319735Y10806785D01*
X323443Y10789056D01*
X328930Y10771835D01*
X336194Y10755223D01*
X345084Y10739475D01*
X355600Y10724692D01*
X367538Y10711078D01*
X380847Y10698784D01*
X395325Y10687913D01*
X410870Y10678617D01*
X427278Y10670946D01*
X444347Y10664952D01*
X461975Y10660837D01*
X479958Y10658500D01*
G37*
G36*
X506222Y10496600D02*
G01*
X601065Y10496600D01*
X600964Y10498023D01*
X598170Y10511942D01*
X593648Y10525353D01*
X587349Y10538104D01*
X579475Y10549890D01*
X570128Y10560507D01*
X559460Y10569854D01*
X547674Y10577779D01*
X534974Y10584027D01*
X521563Y10588599D01*
X507644Y10591342D01*
X506222Y10591444D01*
G37*
G36*
X385927Y10496600D02*
G01*
X480822Y10496600D01*
X480822Y10591444D01*
X479348Y10591342D01*
X465429Y10588599D01*
X452018Y10584027D01*
X439318Y10577779D01*
X427532Y10569854D01*
X416864Y10560507D01*
X407517Y10549890D01*
X399643Y10538104D01*
X393344Y10525353D01*
X388823Y10511942D01*
X386029Y10498023D01*
G37*
G36*
X127000Y11700103D02*
G01*
X198729Y11700103D01*
X205028Y11700814D01*
X210515Y11702694D01*
X215392Y11705793D01*
X219506Y11709908D01*
X222605Y11714784D01*
X224485Y11720271D01*
X225196Y11726570D01*
X225196Y11798300D01*
X127000Y11798300D01*
G37*
G36*
X506222Y10376357D02*
G01*
X507644Y10376408D01*
X521563Y10379202D01*
X534974Y10383774D01*
X547674Y10390022D01*
X559460Y10397896D01*
X570128Y10407243D01*
X579475Y10417911D01*
X587349Y10429697D01*
X593648Y10442397D01*
X598170Y10455859D01*
X600964Y10469727D01*
X601065Y10471200D01*
X506222Y10471200D01*
G37*
G36*
X480822Y6304432D02*
G01*
X480822Y6399276D01*
X385927Y6399276D01*
X386029Y6397802D01*
X388823Y6383934D01*
X393344Y6370472D01*
X399643Y6357772D01*
X407517Y6345986D01*
X416864Y6335318D01*
X427532Y6325971D01*
X439318Y6318097D01*
X452018Y6311849D01*
X465429Y6307277D01*
X479348Y6304534D01*
G37*
G36*
X385927Y6424676D02*
G01*
X480822Y6424676D01*
X480822Y6519519D01*
X479348Y6519418D01*
X465429Y6516674D01*
X452018Y6512102D01*
X439318Y6505854D01*
X427532Y6497980D01*
X416864Y6488633D01*
X407517Y6477965D01*
X399643Y6466179D01*
X393344Y6453428D01*
X388823Y6440017D01*
X386029Y6426098D01*
G37*
G36*
X480822Y10376357D02*
G01*
X480822Y10471200D01*
X385927Y10471200D01*
X386029Y10469727D01*
X388823Y10455859D01*
X393344Y10442397D01*
X399643Y10429697D01*
X407517Y10417911D01*
X416864Y10407243D01*
X427532Y10397896D01*
X439318Y10390022D01*
X452018Y10383774D01*
X465429Y10379202D01*
X479348Y10376408D01*
G37*
G36*
X863600Y8145068D02*
G01*
X863600Y8242300D01*
X766216Y8242300D01*
X766318Y8240826D01*
X769061Y8226856D01*
X773531Y8213394D01*
X779678Y8200593D01*
X787450Y8188655D01*
X796645Y8177834D01*
X807161Y8168284D01*
X818794Y8160156D01*
X831392Y8153603D01*
X844753Y8148675D01*
X858621Y8145525D01*
G37*
G36*
X766216Y8267700D02*
G01*
X863600Y8267700D01*
X863600Y8364931D01*
X858621Y8364474D01*
X844753Y8361324D01*
X831392Y8356396D01*
X818794Y8349843D01*
X807161Y8341715D01*
X796645Y8332165D01*
X787450Y8321344D01*
X779678Y8309406D01*
X773531Y8296605D01*
X769061Y8283143D01*
X766318Y8269173D01*
G37*
G36*
X480822Y8552332D02*
G01*
X480822Y8647176D01*
X385927Y8647176D01*
X386029Y8645702D01*
X388823Y8631834D01*
X393344Y8618372D01*
X399643Y8605672D01*
X407517Y8593886D01*
X416864Y8583218D01*
X427532Y8573871D01*
X439318Y8565997D01*
X452018Y8559749D01*
X465429Y8555177D01*
X479348Y8552434D01*
G37*
G36*
X506222Y8552332D02*
G01*
X507644Y8552434D01*
X521563Y8555177D01*
X534974Y8559749D01*
X547674Y8565997D01*
X559460Y8573871D01*
X570128Y8583218D01*
X579475Y8593886D01*
X587349Y8605672D01*
X593648Y8618372D01*
X598170Y8631834D01*
X600964Y8645702D01*
X601065Y8647176D01*
X506222Y8647176D01*
G37*
G36*
X385927Y8672576D02*
G01*
X480822Y8672576D01*
X480822Y8767419D01*
X479348Y8767318D01*
X465429Y8764574D01*
X452018Y8760002D01*
X439318Y8753754D01*
X427532Y8745880D01*
X416864Y8736533D01*
X407517Y8725865D01*
X399643Y8714079D01*
X393344Y8701328D01*
X388823Y8687917D01*
X386029Y8673998D01*
G37*
G36*
X506222Y8672576D02*
G01*
X601065Y8672576D01*
X600964Y8673998D01*
X598170Y8687917D01*
X593648Y8701328D01*
X587349Y8714079D01*
X579475Y8725865D01*
X570128Y8736533D01*
X559460Y8745880D01*
X547674Y8753754D01*
X534974Y8760002D01*
X521563Y8764574D01*
X507644Y8767318D01*
X506222Y8767419D01*
G37*
G36*
X480822Y8852357D02*
G01*
X480822Y8947200D01*
X385927Y8947200D01*
X386029Y8945727D01*
X388823Y8931859D01*
X393344Y8918397D01*
X399643Y8905697D01*
X407517Y8893911D01*
X416864Y8883243D01*
X427532Y8873896D01*
X439318Y8866022D01*
X452018Y8859774D01*
X465429Y8855202D01*
X479348Y8852458D01*
G37*
G36*
X506222Y8852357D02*
G01*
X507644Y8852458D01*
X521563Y8855202D01*
X534974Y8859774D01*
X547674Y8866022D01*
X559460Y8873896D01*
X570128Y8883243D01*
X579475Y8893911D01*
X587349Y8905697D01*
X593648Y8918397D01*
X598170Y8931859D01*
X600964Y8945727D01*
X601065Y8947200D01*
X506222Y8947200D01*
G37*
G36*
X385927Y8972600D02*
G01*
X480822Y8972600D01*
X480822Y9067444D01*
X479348Y9067342D01*
X465429Y9064599D01*
X452018Y9060027D01*
X439318Y9053779D01*
X427532Y9045905D01*
X416864Y9036558D01*
X407517Y9025890D01*
X399643Y9014104D01*
X393344Y9001353D01*
X388823Y8987942D01*
X386029Y8974023D01*
G37*
G36*
X506222Y8972600D02*
G01*
X601065Y8972600D01*
X600964Y8974023D01*
X598170Y8987942D01*
X593648Y9001353D01*
X587349Y9014104D01*
X579475Y9025890D01*
X570128Y9036558D01*
X559460Y9045905D01*
X547674Y9053779D01*
X534974Y9060027D01*
X521563Y9064599D01*
X507644Y9067342D01*
X506222Y9067444D01*
G37*
G36*
X220827Y9942779D02*
G01*
X279400Y9942779D01*
X279400Y9999624D01*
X247294Y9999624D01*
X240995Y9998913D01*
X235508Y9996982D01*
X230632Y9993934D01*
X226517Y9989820D01*
X223469Y9984943D01*
X221538Y9979456D01*
X220827Y9973157D01*
G37*
G36*
X304800Y9942779D02*
G01*
X363372Y9942779D01*
X363372Y9973157D01*
X362661Y9979456D01*
X360730Y9984943D01*
X357682Y9989820D01*
X353568Y9993934D01*
X348691Y9996982D01*
X343204Y9998913D01*
X336905Y9999624D01*
X304800Y9999624D01*
G37*
G36*
X480822Y10076332D02*
G01*
X480822Y10171176D01*
X385927Y10171176D01*
X386029Y10169702D01*
X388823Y10155834D01*
X393344Y10142372D01*
X399643Y10129672D01*
X407517Y10117886D01*
X416864Y10107218D01*
X427532Y10097871D01*
X439318Y10089997D01*
X452018Y10083749D01*
X465429Y10079177D01*
X479348Y10076383D01*
G37*
G36*
X506222Y10076332D02*
G01*
X507644Y10076383D01*
X521563Y10079177D01*
X534974Y10083749D01*
X547674Y10089997D01*
X559460Y10097871D01*
X570128Y10107218D01*
X579475Y10117886D01*
X587349Y10129672D01*
X593648Y10142372D01*
X598170Y10155834D01*
X600964Y10169702D01*
X601065Y10171176D01*
X506222Y10171176D01*
G37*
G36*
X385927Y10196576D02*
G01*
X480822Y10196576D01*
X480822Y10291419D01*
X479348Y10291318D01*
X465429Y10288574D01*
X452018Y10284002D01*
X439318Y10277754D01*
X427532Y10269829D01*
X416864Y10260482D01*
X407517Y10249865D01*
X399643Y10238079D01*
X393344Y10225328D01*
X388823Y10211917D01*
X386029Y10197998D01*
G37*
G36*
X506222Y10196576D02*
G01*
X601065Y10196576D01*
X600964Y10197998D01*
X598170Y10211917D01*
X593648Y10225328D01*
X587349Y10238079D01*
X579475Y10249865D01*
X570128Y10260482D01*
X559460Y10269829D01*
X547674Y10277754D01*
X534974Y10284002D01*
X521563Y10288574D01*
X507644Y10291318D01*
X506222Y10291419D01*
G37*

%LPD*%
G36*
X544068Y3917187D02*
G01*
X540156Y3918000D01*
X536905Y3920185D01*
X534670Y3923487D01*
X533908Y3927348D01*
X533908Y4083507D01*
X534670Y4087368D01*
X536854Y4090670D01*
X540105Y4092854D01*
X543966Y4093667D01*
X547827Y4092956D01*
X551129Y4090822D01*
X556412Y4085742D01*
X567385Y4077665D01*
X578408Y4071620D01*
X581202Y4069334D01*
X583031Y4066235D01*
X583692Y4062679D01*
X583692Y3927348D01*
X582930Y3923487D01*
X580694Y3920185D01*
X577443Y3918000D01*
X573532Y3917187D01*
G37*

%LPD*%
G36*
X230632Y3885844D02*
G01*
X226567Y3886708D01*
X223164Y3889095D01*
X221030Y3892651D01*
X218897Y3898747D01*
X215798Y3903675D01*
X211734Y3907739D01*
X206806Y3910837D01*
X201371Y3912768D01*
X195021Y3913479D01*
X140665Y3913479D01*
X136753Y3914241D01*
X133502Y3916426D01*
X131267Y3919728D01*
X130505Y3923639D01*
X131267Y3927500D01*
X133502Y3930802D01*
X240893Y4038244D01*
X245973Y4044492D01*
X249377Y4051147D01*
X251358Y4058513D01*
X251815Y4064406D01*
X251815Y4127855D01*
X252628Y4131919D01*
X255066Y4135323D01*
X258571Y4137456D01*
X262686Y4138015D01*
X266700Y4136898D01*
X269900Y4134256D01*
X271881Y4130192D01*
X277164Y4117644D01*
X284124Y4105910D01*
X292608Y4095242D01*
X302412Y4085742D01*
X313385Y4077665D01*
X325323Y4071112D01*
X338074Y4066184D01*
X351332Y4063034D01*
X364896Y4061663D01*
X378510Y4062120D01*
X391972Y4064406D01*
X404977Y4068419D01*
X417372Y4074160D01*
X428853Y4081526D01*
X439978Y4090924D01*
X443280Y4092803D01*
X447090Y4093362D01*
X450799Y4092397D01*
X453898Y4090162D01*
X455980Y4086961D01*
X456692Y4083202D01*
X456692Y3927348D01*
X455930Y3923487D01*
X453694Y3920185D01*
X450443Y3918000D01*
X446532Y3917187D01*
X380238Y3917187D01*
X373888Y3916476D01*
X368452Y3914597D01*
X363524Y3911498D01*
X359460Y3907434D01*
X356362Y3902506D01*
X354431Y3897071D01*
X354228Y3894886D01*
X353161Y3891330D01*
X350875Y3888435D01*
X347726Y3886504D01*
X344119Y3885844D01*
G37*

%LPD*%
G36*
X750620Y3725316D02*
G01*
X746963Y3726027D01*
X743762Y3728008D01*
X741527Y3731006D01*
X740511Y3734612D01*
X740206Y3737914D01*
X737717Y3747211D01*
X733653Y3755948D01*
X728116Y3763822D01*
X721309Y3770629D01*
X713435Y3776167D01*
X704697Y3780231D01*
X695401Y3782720D01*
X685800Y3783584D01*
X676198Y3782720D01*
X666902Y3780231D01*
X658164Y3776167D01*
X650290Y3770629D01*
X643483Y3763822D01*
X637946Y3755948D01*
X633882Y3747211D01*
X632104Y3740658D01*
X630072Y3736797D01*
X626618Y3734104D01*
X622300Y3733139D01*
X617982Y3734104D01*
X614527Y3736797D01*
X612495Y3740658D01*
X610717Y3747211D01*
X606653Y3755948D01*
X601726Y3763010D01*
X600049Y3766870D01*
X600151Y3771087D01*
X601878Y3774897D01*
X605028Y3777640D01*
X608990Y3778961D01*
X616762Y3779723D01*
X622147Y3781602D01*
X627075Y3784701D01*
X631139Y3788765D01*
X634238Y3793693D01*
X636168Y3799128D01*
X636879Y3805478D01*
X636879Y3855516D01*
X637641Y3859377D01*
X639826Y3862679D01*
X649224Y3872128D01*
X654354Y3878326D01*
X657910Y3885031D01*
X660095Y3892245D01*
X660908Y3900271D01*
X660908Y4062831D01*
X661619Y4066590D01*
X663702Y4069791D01*
X666800Y4072026D01*
X671372Y4074160D01*
X682853Y4081526D01*
X693267Y4090314D01*
X702411Y4100423D01*
X710133Y4111650D01*
X716280Y4123842D01*
X719023Y4131767D01*
X721106Y4135221D01*
X724357Y4137660D01*
X728268Y4138574D01*
X732282Y4137914D01*
X735685Y4135729D01*
X737971Y4132376D01*
X738784Y4128414D01*
X738784Y4089908D01*
X739648Y4081932D01*
X741934Y4074820D01*
X745744Y4068216D01*
X749604Y4063746D01*
X784961Y4028338D01*
X787196Y4025036D01*
X787958Y4021175D01*
X787196Y4017264D01*
X784961Y4013962D01*
X782320Y4011320D01*
X776681Y4003294D01*
X772566Y3994353D01*
X770026Y3984904D01*
X769162Y3975100D01*
X770026Y3965295D01*
X772566Y3955846D01*
X776681Y3946906D01*
X782320Y3938879D01*
X783894Y3937304D01*
X786130Y3934002D01*
X786892Y3930091D01*
X786892Y3754882D01*
X786333Y3751630D01*
X784809Y3748684D01*
X778306Y3742334D01*
X775208Y3737406D01*
X773379Y3732123D01*
X771194Y3728567D01*
X767842Y3726179D01*
X763778Y3725316D01*
G37*

%LPD*%
G36*
X230632Y3555644D02*
G01*
X226567Y3556508D01*
X223164Y3558895D01*
X221030Y3562451D01*
X218897Y3568547D01*
X215798Y3573475D01*
X211734Y3577539D01*
X206806Y3580637D01*
X201371Y3582568D01*
X196494Y3583736D01*
X193598Y3586022D01*
X191668Y3589172D01*
X191008Y3592779D01*
X191008Y3620820D01*
X191668Y3624427D01*
X193598Y3627577D01*
X196494Y3629863D01*
X201371Y3631031D01*
X206806Y3632962D01*
X211734Y3636060D01*
X215798Y3640124D01*
X218897Y3645052D01*
X220776Y3650487D01*
X221488Y3656837D01*
X221488Y3736340D01*
X220776Y3742639D01*
X218897Y3748125D01*
X215798Y3753002D01*
X211734Y3757117D01*
X206806Y3760165D01*
X200761Y3762298D01*
X197205Y3764432D01*
X194767Y3767836D01*
X193954Y3771900D01*
X194767Y3775964D01*
X197205Y3779367D01*
X200761Y3781501D01*
X206806Y3783634D01*
X211734Y3786682D01*
X215798Y3790797D01*
X218897Y3795674D01*
X221030Y3801821D01*
X223164Y3805377D01*
X226567Y3807764D01*
X230632Y3808628D01*
X256032Y3808628D01*
X259943Y3807866D01*
X263194Y3805631D01*
X265430Y3802379D01*
X266192Y3798468D01*
X266192Y3771747D01*
X265430Y3767886D01*
X256946Y3755948D01*
X252882Y3747211D01*
X250393Y3737914D01*
X249478Y3727856D01*
X249478Y3583025D01*
X250393Y3573018D01*
X251612Y3568446D01*
X251866Y3564737D01*
X250850Y3561181D01*
X248564Y3558235D01*
X245414Y3556304D01*
X241757Y3555644D01*
G37*

%LPD*%
G36*
X495300Y3178657D02*
G01*
X490982Y3179572D01*
X487527Y3182264D01*
X485495Y3186176D01*
X483717Y3192678D01*
X479653Y3201416D01*
X471170Y3213354D01*
X470408Y3217265D01*
X470408Y3314192D01*
X469595Y3322218D01*
X467410Y3329432D01*
X463854Y3336137D01*
X458724Y3342335D01*
X407873Y3393186D01*
X401675Y3398316D01*
X394970Y3401872D01*
X387756Y3404057D01*
X379730Y3404870D01*
X230682Y3404870D01*
X226618Y3405733D01*
X223215Y3408121D01*
X221081Y3411677D01*
X218897Y3417925D01*
X215798Y3422802D01*
X211734Y3426917D01*
X206806Y3429965D01*
X200761Y3432098D01*
X197205Y3434232D01*
X194767Y3437636D01*
X193954Y3441700D01*
X194767Y3445764D01*
X197205Y3449167D01*
X200761Y3451301D01*
X206806Y3453434D01*
X211734Y3456482D01*
X215798Y3460597D01*
X218897Y3465474D01*
X221030Y3471621D01*
X223164Y3475177D01*
X226567Y3477564D01*
X230632Y3478428D01*
X405028Y3478428D01*
X413054Y3479241D01*
X420268Y3481425D01*
X426974Y3484981D01*
X433171Y3490112D01*
X439369Y3496259D01*
X442620Y3498443D01*
X446532Y3499205D01*
X450443Y3498443D01*
X453694Y3496259D01*
X455930Y3492957D01*
X456692Y3489045D01*
X456692Y3454908D01*
X457504Y3446881D01*
X459689Y3439668D01*
X463245Y3432962D01*
X468376Y3426764D01*
X517194Y3377895D01*
X519430Y3374593D01*
X520192Y3370681D01*
X520192Y3217265D01*
X519430Y3213354D01*
X510946Y3201416D01*
X506882Y3192678D01*
X505104Y3186176D01*
X503072Y3182264D01*
X499618Y3179572D01*
G37*

%LPD*%
G36*
X226821Y3108299D02*
G01*
X222758Y3109163D01*
X219405Y3111550D01*
X217220Y3115106D01*
X215239Y3120847D01*
X214680Y3124200D01*
X215239Y3127552D01*
X217271Y3133445D01*
X218033Y3139795D01*
X218033Y3166008D01*
X177800Y3166008D01*
X177800Y3145282D01*
X177038Y3141370D01*
X174802Y3138068D01*
X171551Y3135884D01*
X167640Y3135122D01*
X162560Y3135122D01*
X158648Y3135884D01*
X155397Y3138068D01*
X153162Y3141370D01*
X152400Y3145282D01*
X152400Y3166008D01*
X112217Y3166008D01*
X112217Y3139795D01*
X112928Y3133445D01*
X114960Y3127552D01*
X115519Y3124200D01*
X114960Y3120847D01*
X114147Y3118510D01*
X112318Y3115259D01*
X109423Y3112922D01*
X105867Y3111804D01*
X102108Y3112008D01*
X98755Y3113532D01*
X91694Y3118510D01*
X82753Y3122625D01*
X73304Y3125165D01*
X63500Y3126028D01*
X53695Y3125165D01*
X44246Y3122625D01*
X40386Y3120847D01*
X36423Y3119882D01*
X32410Y3120542D01*
X29006Y3122726D01*
X26720Y3126079D01*
X25908Y3130042D01*
X25908Y3251606D01*
X26670Y3255467D01*
X28905Y3258769D01*
X32156Y3260953D01*
X36068Y3261766D01*
X39979Y3260953D01*
X43230Y3258769D01*
X50444Y3251606D01*
X56692Y3246526D01*
X63347Y3243122D01*
X70713Y3241141D01*
X76606Y3240684D01*
X104444Y3240684D01*
X108204Y3239973D01*
X111455Y3237890D01*
X113690Y3234740D01*
X114604Y3230981D01*
X114046Y3227171D01*
X112928Y3223971D01*
X112217Y3217621D01*
X112217Y3191408D01*
X152400Y3191408D01*
X152400Y3230524D01*
X153162Y3234436D01*
X155397Y3237738D01*
X158648Y3239922D01*
X162560Y3240684D01*
X167640Y3240684D01*
X171551Y3239922D01*
X174802Y3237738D01*
X177038Y3234436D01*
X177800Y3230524D01*
X177800Y3191408D01*
X218033Y3191408D01*
X218033Y3217621D01*
X217271Y3223971D01*
X216154Y3227171D01*
X215595Y3230981D01*
X216509Y3234740D01*
X218744Y3237890D01*
X221996Y3239973D01*
X225755Y3240684D01*
X272135Y3240684D01*
X276301Y3239820D01*
X279755Y3237280D01*
X281838Y3233572D01*
X282244Y3229356D01*
X280873Y3225292D01*
X277977Y3222193D01*
X269290Y3216148D01*
X262483Y3209340D01*
X256946Y3201416D01*
X252882Y3192678D01*
X250393Y3183382D01*
X249478Y3173374D01*
X249478Y3118459D01*
X248716Y3114548D01*
X246532Y3111296D01*
X243230Y3109061D01*
X239318Y3108299D01*
G37*

%LPD*%
G36*
X602589Y2880715D02*
G01*
X598424Y2881579D01*
X595020Y2884119D01*
X592886Y2887776D01*
X592480Y2891993D01*
X592785Y2894584D01*
X592785Y2946654D01*
X593090Y2949244D01*
X594258Y2953613D01*
X594715Y2959506D01*
X594715Y2981909D01*
X595477Y2985820D01*
X597662Y2989122D01*
X601116Y2992577D01*
X606653Y3000451D01*
X610717Y3009188D01*
X612495Y3015742D01*
X614527Y3019602D01*
X617982Y3022295D01*
X622300Y3023260D01*
X626618Y3022295D01*
X630072Y3019602D01*
X632104Y3015742D01*
X633882Y3009188D01*
X637946Y3000451D01*
X643483Y2992577D01*
X650290Y2985770D01*
X658164Y2980232D01*
X666902Y2976168D01*
X673100Y2974492D01*
X673100Y3088233D01*
X624281Y3088233D01*
X620369Y3089046D01*
X617067Y3091230D01*
X614883Y3094532D01*
X614121Y3098393D01*
X614121Y3103473D01*
X614883Y3107385D01*
X617067Y3110687D01*
X620369Y3112871D01*
X624281Y3113633D01*
X673100Y3113633D01*
X673100Y3227374D01*
X666902Y3225749D01*
X658164Y3221685D01*
X650290Y3216148D01*
X643483Y3209340D01*
X637946Y3201416D01*
X633882Y3192678D01*
X632104Y3186176D01*
X630072Y3182264D01*
X626618Y3179572D01*
X622300Y3178657D01*
X617982Y3179572D01*
X614527Y3182264D01*
X612495Y3186176D01*
X610717Y3192678D01*
X606653Y3201416D01*
X598170Y3213354D01*
X597408Y3217265D01*
X597408Y3390392D01*
X596595Y3398418D01*
X594410Y3405632D01*
X590854Y3412337D01*
X585724Y3418535D01*
X536905Y3467404D01*
X534670Y3470706D01*
X533908Y3474618D01*
X533908Y3519017D01*
X534568Y3522675D01*
X536498Y3525824D01*
X539445Y3528060D01*
X543001Y3529126D01*
X546100Y3528872D01*
X546100Y3642766D01*
X544068Y3642766D01*
X540156Y3643528D01*
X536905Y3645712D01*
X534670Y3649014D01*
X533908Y3652926D01*
X533908Y3658006D01*
X534670Y3661867D01*
X536905Y3665169D01*
X540156Y3667353D01*
X544068Y3668166D01*
X546100Y3668166D01*
X546100Y3768851D01*
X546862Y3772712D01*
X549097Y3776014D01*
X552348Y3778199D01*
X556260Y3779012D01*
X561340Y3779012D01*
X565251Y3778199D01*
X568502Y3776014D01*
X570738Y3772712D01*
X571500Y3768851D01*
X571500Y3668166D01*
X620318Y3668166D01*
X624230Y3667353D01*
X627532Y3665169D01*
X629716Y3661867D01*
X630478Y3658006D01*
X630478Y3652926D01*
X629716Y3649014D01*
X627532Y3645712D01*
X624230Y3643528D01*
X620318Y3642766D01*
X571500Y3642766D01*
X571500Y3529025D01*
X577697Y3530650D01*
X586435Y3534714D01*
X594309Y3540251D01*
X601116Y3547059D01*
X606653Y3554984D01*
X610717Y3563721D01*
X612495Y3570224D01*
X614527Y3574135D01*
X617982Y3576828D01*
X622300Y3577742D01*
X626618Y3576828D01*
X630072Y3574135D01*
X632104Y3570224D01*
X633882Y3563721D01*
X637946Y3554984D01*
X643483Y3547059D01*
X650290Y3540251D01*
X658164Y3534714D01*
X666902Y3530650D01*
X676198Y3528161D01*
X685800Y3527348D01*
X695401Y3528161D01*
X704697Y3530650D01*
X713435Y3534714D01*
X721309Y3540251D01*
X728116Y3547059D01*
X733653Y3554984D01*
X737717Y3563721D01*
X740206Y3573018D01*
X741121Y3583025D01*
X741121Y3637940D01*
X741883Y3641851D01*
X744067Y3645103D01*
X747369Y3647338D01*
X751281Y3648100D01*
X763778Y3648100D01*
X767842Y3647236D01*
X771194Y3644849D01*
X773379Y3641293D01*
X775360Y3635552D01*
X775919Y3632200D01*
X775360Y3628847D01*
X773328Y3622954D01*
X772617Y3616604D01*
X772617Y3590391D01*
X812800Y3590391D01*
X812800Y3611118D01*
X813562Y3615029D01*
X815797Y3618331D01*
X819048Y3620515D01*
X822960Y3621278D01*
X828040Y3621278D01*
X831951Y3620515D01*
X835202Y3618331D01*
X837437Y3615029D01*
X838200Y3611118D01*
X838200Y3590391D01*
X855624Y3590391D01*
X859536Y3589629D01*
X862837Y3587394D01*
X865022Y3584143D01*
X865784Y3580231D01*
X865784Y3575151D01*
X865022Y3571290D01*
X862837Y3567988D01*
X859536Y3565753D01*
X855624Y3564991D01*
X838200Y3564991D01*
X838200Y3512261D01*
X851916Y3512261D01*
X854506Y3512565D01*
X858723Y3512159D01*
X862380Y3510026D01*
X864920Y3506622D01*
X865784Y3502456D01*
X865784Y2984042D01*
X865022Y2980182D01*
X862837Y2976880D01*
X859536Y2974695D01*
X855624Y2973882D01*
X802944Y2973882D01*
X796645Y2973171D01*
X790752Y2971139D01*
X787400Y2970580D01*
X784047Y2971139D01*
X778154Y2973171D01*
X771855Y2973882D01*
X734009Y2973882D01*
X730097Y2974695D01*
X726795Y2976880D01*
X724611Y2980182D01*
X723849Y2984042D01*
X724611Y2987954D01*
X726795Y2991256D01*
X728116Y2992577D01*
X733653Y3000451D01*
X737717Y3009188D01*
X740206Y3018485D01*
X741121Y3028543D01*
X741121Y3088233D01*
X698500Y3088233D01*
X698500Y2971190D01*
X697738Y2967380D01*
X692556Y2959201D01*
X690626Y2953766D01*
X689914Y2947416D01*
X689914Y2916631D01*
X689152Y2912719D01*
X686968Y2909417D01*
X661212Y2883662D01*
X657910Y2881477D01*
X653999Y2880715D01*
G37*

%LPC*%
G36*
X799084Y3512261D02*
G01*
X812800Y3512261D01*
X812800Y3564991D01*
X772617Y3564991D01*
X772617Y3538778D01*
X773328Y3532428D01*
X775208Y3526993D01*
X778306Y3522065D01*
X782370Y3518001D01*
X787298Y3514902D01*
X792734Y3512972D01*
G37*
G36*
X698500Y3113633D02*
G01*
X741121Y3113633D01*
X741121Y3173374D01*
X740206Y3183382D01*
X737717Y3192678D01*
X733653Y3201416D01*
X728116Y3209340D01*
X721309Y3216148D01*
X713435Y3221685D01*
X704697Y3225749D01*
X698500Y3227374D01*
G37*

%LPD*%
G36*
X536397Y2712720D02*
G01*
X532384Y2713380D01*
X528980Y2715564D01*
X526694Y2718866D01*
X525881Y2722829D01*
X525881Y2755900D01*
X516382Y2755900D01*
X512470Y2756662D01*
X509168Y2758897D01*
X506984Y2762148D01*
X506222Y2766060D01*
X506222Y2771140D01*
X506984Y2775051D01*
X509168Y2778302D01*
X512470Y2780538D01*
X516382Y2781300D01*
X525881Y2781300D01*
X525881Y2798724D01*
X526643Y2802636D01*
X528878Y2805938D01*
X532130Y2808122D01*
X536041Y2808884D01*
X541121Y2808884D01*
X545033Y2808122D01*
X548284Y2805938D01*
X550519Y2802636D01*
X551281Y2798724D01*
X551281Y2781300D01*
X592785Y2781300D01*
X592785Y2795016D01*
X592480Y2797606D01*
X592886Y2801823D01*
X595020Y2805480D01*
X598424Y2808020D01*
X602589Y2808884D01*
X672592Y2808884D01*
X680567Y2809748D01*
X687679Y2812034D01*
X694283Y2815844D01*
X698754Y2819704D01*
X744220Y2865120D01*
X747471Y2867304D01*
X751382Y2868066D01*
X771855Y2868066D01*
X778154Y2868828D01*
X784047Y2870860D01*
X787400Y2871419D01*
X790752Y2870860D01*
X796645Y2868828D01*
X802944Y2868066D01*
X858418Y2868066D01*
X864717Y2868828D01*
X870153Y2870708D01*
X875080Y2873806D01*
X879144Y2877870D01*
X882294Y2882900D01*
X884580Y2885440D01*
X887577Y2887065D01*
X890778Y2888183D01*
X898601Y2892806D01*
X902614Y2894126D01*
X906830Y2893720D01*
X910488Y2891586D01*
X913028Y2888183D01*
X913892Y2884017D01*
X913892Y2788818D01*
X913130Y2784906D01*
X910894Y2781604D01*
X901395Y2772105D01*
X898093Y2769870D01*
X894181Y2769108D01*
X635508Y2769108D01*
X627481Y2768295D01*
X620268Y2766110D01*
X613562Y2762554D01*
X608279Y2758186D01*
X605231Y2756509D01*
X601827Y2755900D01*
X551281Y2755900D01*
X551281Y2724302D01*
X550316Y2719984D01*
X547674Y2716479D01*
X543763Y2714447D01*
G37*

%LPD*%
G36*
X495300Y2666339D02*
G01*
X490982Y2667304D01*
X487527Y2669997D01*
X485495Y2673858D01*
X483717Y2680411D01*
X479653Y2689148D01*
X473964Y2697276D01*
X472490Y2700426D01*
X472135Y2703880D01*
X472998Y2707284D01*
X474929Y2710180D01*
X477774Y2713126D01*
X480618Y2715158D01*
X486054Y2716428D01*
X491947Y2718460D01*
X495300Y2719019D01*
X498652Y2718460D01*
X504545Y2716428D01*
X511708Y2715615D01*
X515315Y2714548D01*
X518261Y2712161D01*
X520192Y2708910D01*
X520750Y2705150D01*
X519887Y2701493D01*
X517804Y2698343D01*
X516483Y2697022D01*
X510946Y2689148D01*
X506882Y2680411D01*
X505104Y2673858D01*
X503072Y2669997D01*
X499618Y2667304D01*
G37*

%LPD*%
G36*
X495300Y2111857D02*
G01*
X490982Y2112772D01*
X487527Y2115464D01*
X485495Y2119376D01*
X483717Y2125878D01*
X479653Y2134616D01*
X474116Y2142540D01*
X467309Y2149348D01*
X459435Y2154885D01*
X450697Y2158949D01*
X441401Y2161438D01*
X431800Y2162251D01*
X422198Y2161438D01*
X417017Y2160016D01*
X413308Y2159762D01*
X409752Y2160778D01*
X406806Y2163064D01*
X404876Y2166213D01*
X404215Y2169871D01*
X404215Y2196592D01*
X403352Y2204567D01*
X401066Y2211679D01*
X397256Y2218283D01*
X393395Y2222754D01*
X191262Y2424887D01*
X189077Y2428189D01*
X188315Y2432100D01*
X188315Y2732430D01*
X189128Y2736392D01*
X191414Y2739745D01*
X194818Y2741930D01*
X198780Y2742590D01*
X202742Y2741676D01*
X205994Y2739288D01*
X208076Y2735783D01*
X209956Y2730398D01*
X213055Y2725470D01*
X217119Y2721406D01*
X222046Y2718308D01*
X231190Y2715209D01*
X234188Y2712770D01*
X236474Y2709926D01*
X252018Y2694381D01*
X254254Y2690977D01*
X254965Y2686913D01*
X254050Y2682900D01*
X252882Y2680411D01*
X250393Y2671114D01*
X249478Y2661056D01*
X249478Y2516225D01*
X250393Y2506218D01*
X252882Y2496921D01*
X256946Y2488184D01*
X262483Y2480259D01*
X269290Y2473452D01*
X277164Y2467914D01*
X285902Y2463850D01*
X295198Y2461361D01*
X304800Y2460548D01*
X314401Y2461361D01*
X323697Y2463850D01*
X332435Y2467914D01*
X340309Y2473452D01*
X347116Y2480259D01*
X352653Y2488184D01*
X356717Y2496921D01*
X358495Y2503424D01*
X360527Y2507335D01*
X363982Y2510028D01*
X368300Y2510942D01*
X372618Y2510028D01*
X376072Y2507335D01*
X378104Y2503424D01*
X379882Y2496921D01*
X383946Y2488184D01*
X389483Y2480259D01*
X396290Y2473452D01*
X404164Y2467914D01*
X412902Y2463850D01*
X422198Y2461361D01*
X431800Y2460548D01*
X441401Y2461361D01*
X450697Y2463850D01*
X459435Y2467914D01*
X467309Y2473452D01*
X474116Y2480259D01*
X479653Y2488184D01*
X483717Y2496921D01*
X485495Y2503424D01*
X487527Y2507335D01*
X490982Y2510028D01*
X495300Y2510942D01*
X499618Y2510028D01*
X503072Y2507335D01*
X505104Y2503424D01*
X506882Y2496921D01*
X510946Y2488184D01*
X519430Y2476246D01*
X520192Y2472334D01*
X520192Y2337308D01*
X521004Y2329281D01*
X523189Y2322068D01*
X526745Y2315362D01*
X531876Y2309164D01*
X644194Y2196795D01*
X646430Y2193493D01*
X647192Y2189581D01*
X647192Y2150465D01*
X646430Y2146554D01*
X637946Y2134616D01*
X633882Y2125878D01*
X632104Y2119376D01*
X630072Y2115464D01*
X626618Y2112772D01*
X622300Y2111857D01*
X617982Y2112772D01*
X614527Y2115464D01*
X612495Y2119376D01*
X610717Y2125878D01*
X606653Y2134616D01*
X601116Y2142540D01*
X594309Y2149348D01*
X586435Y2154885D01*
X577697Y2158949D01*
X568401Y2161438D01*
X558800Y2162251D01*
X549198Y2161438D01*
X539902Y2158949D01*
X531164Y2154885D01*
X523290Y2149348D01*
X516483Y2142540D01*
X510946Y2134616D01*
X506882Y2125878D01*
X505104Y2119376D01*
X503072Y2115464D01*
X499618Y2112772D01*
G37*

%LPD*%
G36*
X226821Y2041499D02*
G01*
X222758Y2042363D01*
X219405Y2044750D01*
X217220Y2048306D01*
X215239Y2054047D01*
X214680Y2057400D01*
X215239Y2060752D01*
X217271Y2066645D01*
X218033Y2072995D01*
X218033Y2099208D01*
X177800Y2099208D01*
X177800Y2078482D01*
X177038Y2074570D01*
X174802Y2071268D01*
X171551Y2069084D01*
X167640Y2068322D01*
X162560Y2068322D01*
X158648Y2069084D01*
X155397Y2071268D01*
X153162Y2074570D01*
X152400Y2078482D01*
X152400Y2099208D01*
X112217Y2099208D01*
X112217Y2072995D01*
X112928Y2066645D01*
X114604Y2061819D01*
X115112Y2057603D01*
X113893Y2053589D01*
X111150Y2050389D01*
X107289Y2048560D01*
X103073Y2048510D01*
X99161Y2050135D01*
X91694Y2055418D01*
X82753Y2059533D01*
X73304Y2062073D01*
X63500Y2062937D01*
X53695Y2062073D01*
X44246Y2059533D01*
X40386Y2057755D01*
X36423Y2056790D01*
X32410Y2057450D01*
X29006Y2059635D01*
X26720Y2062988D01*
X25908Y2066950D01*
X25908Y3009341D01*
X26720Y3013303D01*
X29006Y3016656D01*
X32410Y3018840D01*
X36423Y3019501D01*
X40386Y3018536D01*
X44246Y3016758D01*
X53695Y3014218D01*
X63500Y3013354D01*
X73304Y3014218D01*
X82753Y3016758D01*
X91694Y3020872D01*
X98755Y3025851D01*
X102108Y3027375D01*
X105867Y3027578D01*
X109423Y3026460D01*
X112318Y3024124D01*
X114147Y3020872D01*
X114808Y3018993D01*
X117906Y3014065D01*
X121970Y3010001D01*
X126898Y3006902D01*
X132334Y3004972D01*
X138684Y3004261D01*
X191516Y3004261D01*
X197866Y3004972D01*
X203301Y3006902D01*
X208229Y3010001D01*
X212293Y3014065D01*
X215392Y3018993D01*
X217220Y3024276D01*
X219405Y3027832D01*
X222758Y3030220D01*
X226821Y3031083D01*
X239979Y3031083D01*
X243636Y3030372D01*
X246837Y3028391D01*
X249072Y3025394D01*
X250088Y3021787D01*
X250393Y3018485D01*
X252882Y3009188D01*
X256946Y3000451D01*
X262483Y2992577D01*
X269290Y2985770D01*
X277164Y2980232D01*
X279958Y2978912D01*
X283108Y2976626D01*
X285140Y2973374D01*
X285851Y2969564D01*
X285038Y2965754D01*
X282854Y2962554D01*
X127406Y2807055D01*
X122326Y2800807D01*
X118922Y2794152D01*
X116941Y2786786D01*
X116484Y2780893D01*
X116484Y2413508D01*
X117348Y2405532D01*
X119633Y2398420D01*
X123444Y2391816D01*
X127304Y2387346D01*
X329438Y2185212D01*
X331622Y2181910D01*
X332384Y2177999D01*
X332384Y2169871D01*
X331724Y2166213D01*
X329793Y2163064D01*
X326847Y2160778D01*
X323291Y2159762D01*
X319582Y2160016D01*
X314401Y2161438D01*
X304800Y2162251D01*
X295198Y2161438D01*
X285902Y2158949D01*
X277164Y2154885D01*
X269290Y2149348D01*
X262483Y2142540D01*
X256946Y2134616D01*
X252882Y2125878D01*
X250393Y2116582D01*
X249478Y2106574D01*
X249478Y2051659D01*
X248716Y2047748D01*
X246532Y2044496D01*
X243230Y2042261D01*
X239318Y2041499D01*
G37*

%LPC*%
G36*
X177800Y2124608D02*
G01*
X218033Y2124608D01*
X218033Y2150821D01*
X217271Y2157171D01*
X215392Y2162606D01*
X212293Y2167534D01*
X208229Y2171598D01*
X203301Y2174697D01*
X197866Y2176627D01*
X191516Y2177338D01*
X177800Y2177338D01*
G37*
G36*
X112217Y2124608D02*
G01*
X152400Y2124608D01*
X152400Y2177338D01*
X138684Y2177338D01*
X132334Y2176627D01*
X126898Y2174697D01*
X121970Y2171598D01*
X117906Y2167534D01*
X114808Y2162606D01*
X112928Y2157171D01*
X112217Y2150821D01*
G37*

%LPD*%
G36*
X641350Y1885340D02*
G01*
X637438Y1886102D01*
X633780Y1888693D01*
X628853Y1891792D01*
X623417Y1893671D01*
X617118Y1894382D01*
X604875Y1894382D01*
X600964Y1895195D01*
X597662Y1897380D01*
X595477Y1900682D01*
X594715Y1904542D01*
X594715Y1915109D01*
X595477Y1919020D01*
X597662Y1922322D01*
X601116Y1925777D01*
X606653Y1933651D01*
X610717Y1942388D01*
X612495Y1948942D01*
X614527Y1952802D01*
X617982Y1955495D01*
X622300Y1956460D01*
X626618Y1955495D01*
X630072Y1952802D01*
X632104Y1948942D01*
X633882Y1942388D01*
X637946Y1933651D01*
X643483Y1925777D01*
X650290Y1918970D01*
X658164Y1913432D01*
X660196Y1912467D01*
X663397Y1910130D01*
X665480Y1906727D01*
X666038Y1902764D01*
X665073Y1898904D01*
X662686Y1895703D01*
X659282Y1893671D01*
X653846Y1891792D01*
X645261Y1886102D01*
G37*

%LPD*%
G36*
X36068Y1295908D02*
G01*
X32156Y1296670D01*
X28905Y1298905D01*
X26670Y1302156D01*
X25908Y1306068D01*
X25908Y1583537D01*
X26670Y1587398D01*
X28854Y1590649D01*
X32105Y1592884D01*
X35966Y1593697D01*
X39827Y1592986D01*
X43129Y1590852D01*
X48412Y1585722D01*
X59385Y1577644D01*
X71323Y1571091D01*
X84074Y1566214D01*
X97332Y1563014D01*
X110896Y1561693D01*
X124510Y1562150D01*
X137972Y1564386D01*
X150977Y1568450D01*
X163372Y1574190D01*
X174853Y1581505D01*
X185267Y1590294D01*
X194411Y1600454D01*
X202133Y1611680D01*
X206095Y1619504D01*
X208330Y1622450D01*
X211531Y1624431D01*
X215188Y1625092D01*
X217220Y1625092D01*
X220827Y1624431D01*
X223977Y1622501D01*
X226263Y1619605D01*
X227431Y1614728D01*
X229362Y1609293D01*
X232460Y1604365D01*
X236524Y1600301D01*
X241452Y1597202D01*
X246888Y1595323D01*
X253238Y1594612D01*
X332740Y1594612D01*
X339039Y1595323D01*
X344525Y1597202D01*
X349402Y1600301D01*
X353517Y1604365D01*
X356565Y1609293D01*
X358698Y1615338D01*
X360832Y1618894D01*
X364236Y1621332D01*
X368300Y1622145D01*
X372364Y1621332D01*
X375767Y1618894D01*
X377901Y1615338D01*
X380034Y1609293D01*
X383082Y1604365D01*
X387197Y1600301D01*
X389788Y1598676D01*
X392480Y1596186D01*
X394157Y1592935D01*
X394512Y1589278D01*
X393598Y1585772D01*
X391566Y1581353D01*
X389026Y1571904D01*
X388162Y1562100D01*
X389026Y1552295D01*
X391566Y1542846D01*
X395681Y1533906D01*
X401320Y1525879D01*
X408279Y1518920D01*
X416306Y1513281D01*
X425246Y1509166D01*
X434695Y1506626D01*
X444500Y1505762D01*
X454304Y1506626D01*
X463753Y1509166D01*
X472693Y1513281D01*
X480720Y1518920D01*
X487680Y1525879D01*
X493318Y1533906D01*
X497433Y1542846D01*
X499973Y1552295D01*
X500837Y1562100D01*
X499973Y1571904D01*
X497433Y1581353D01*
X494995Y1586636D01*
X494080Y1590141D01*
X494487Y1593799D01*
X496112Y1597050D01*
X500075Y1600301D01*
X504139Y1604365D01*
X507238Y1609293D01*
X509168Y1614728D01*
X509676Y1619656D01*
X511149Y1623822D01*
X514197Y1626971D01*
X518312Y1628546D01*
X522732Y1628241D01*
X526592Y1626057D01*
X529132Y1622450D01*
X531164Y1617675D01*
X538124Y1605940D01*
X546608Y1595221D01*
X556412Y1585722D01*
X567385Y1577644D01*
X579323Y1571091D01*
X592074Y1566214D01*
X605332Y1563014D01*
X609600Y1562608D01*
X609600Y1651000D01*
X520039Y1651000D01*
X516128Y1651762D01*
X512826Y1653997D01*
X510641Y1657248D01*
X509879Y1661160D01*
X509879Y1666239D01*
X510641Y1670151D01*
X512826Y1673402D01*
X516128Y1675638D01*
X520039Y1676400D01*
X609600Y1676400D01*
X609600Y1764792D01*
X605332Y1764385D01*
X592074Y1761185D01*
X579323Y1756308D01*
X567385Y1749755D01*
X556412Y1741678D01*
X546608Y1732178D01*
X538124Y1721459D01*
X531164Y1709724D01*
X529132Y1704949D01*
X526592Y1701342D01*
X522732Y1699158D01*
X518312Y1698853D01*
X514197Y1700428D01*
X511149Y1703578D01*
X509676Y1707743D01*
X509168Y1712671D01*
X507238Y1718106D01*
X504139Y1723034D01*
X500075Y1727098D01*
X495147Y1730197D01*
X489712Y1732076D01*
X483362Y1732788D01*
X403860Y1732788D01*
X397560Y1732076D01*
X392074Y1730197D01*
X387197Y1727098D01*
X383082Y1723034D01*
X380034Y1718106D01*
X377901Y1712061D01*
X375767Y1708505D01*
X372364Y1706067D01*
X368300Y1705254D01*
X364236Y1706067D01*
X360832Y1708505D01*
X358698Y1712061D01*
X356565Y1718106D01*
X353517Y1723034D01*
X349402Y1727098D01*
X344525Y1730197D01*
X339039Y1732076D01*
X332740Y1732788D01*
X253238Y1732788D01*
X246888Y1732076D01*
X241452Y1730197D01*
X236524Y1727098D01*
X232460Y1723034D01*
X229362Y1718106D01*
X227431Y1712671D01*
X226263Y1707794D01*
X223977Y1704898D01*
X220827Y1702968D01*
X217220Y1702307D01*
X215188Y1702307D01*
X211531Y1702968D01*
X208330Y1704949D01*
X206095Y1707896D01*
X202133Y1715719D01*
X194411Y1726946D01*
X185267Y1737106D01*
X174853Y1745894D01*
X163372Y1753209D01*
X150977Y1758950D01*
X137972Y1763014D01*
X124510Y1765249D01*
X110896Y1765706D01*
X97332Y1764385D01*
X84074Y1761185D01*
X71323Y1756308D01*
X59385Y1749755D01*
X48412Y1741678D01*
X43129Y1736547D01*
X39827Y1734413D01*
X35966Y1733702D01*
X32105Y1734515D01*
X28854Y1736750D01*
X26670Y1740001D01*
X25908Y1743862D01*
X25908Y1946249D01*
X26720Y1950212D01*
X29006Y1953564D01*
X32410Y1955749D01*
X36423Y1956409D01*
X40386Y1955444D01*
X44246Y1953666D01*
X53695Y1951126D01*
X63500Y1950262D01*
X73304Y1951126D01*
X82753Y1953666D01*
X91694Y1957781D01*
X97688Y1961997D01*
X101092Y1963572D01*
X104800Y1963775D01*
X108356Y1962607D01*
X111252Y1960270D01*
X113131Y1957070D01*
X114808Y1952193D01*
X117906Y1947265D01*
X121970Y1943201D01*
X126898Y1940102D01*
X132334Y1938172D01*
X138684Y1937461D01*
X191516Y1937461D01*
X197866Y1938172D01*
X203301Y1940102D01*
X208229Y1943201D01*
X212293Y1947265D01*
X215392Y1952193D01*
X217220Y1957476D01*
X219405Y1961032D01*
X222758Y1963420D01*
X226821Y1964283D01*
X239979Y1964283D01*
X243636Y1963572D01*
X246837Y1961591D01*
X249072Y1958593D01*
X250088Y1954987D01*
X250393Y1951685D01*
X252882Y1942388D01*
X256946Y1933651D01*
X262483Y1925777D01*
X269290Y1918970D01*
X277164Y1913432D01*
X279196Y1912467D01*
X282397Y1910130D01*
X284480Y1906727D01*
X285038Y1902764D01*
X284073Y1898904D01*
X281686Y1895703D01*
X278282Y1893671D01*
X272846Y1891792D01*
X267919Y1888693D01*
X263855Y1884629D01*
X260756Y1879701D01*
X258825Y1874266D01*
X258114Y1867916D01*
X258114Y1815084D01*
X258825Y1808734D01*
X260756Y1803298D01*
X263855Y1798370D01*
X267919Y1794306D01*
X272846Y1791207D01*
X278282Y1789328D01*
X284581Y1788566D01*
X340055Y1788566D01*
X346354Y1789328D01*
X352247Y1791360D01*
X355600Y1791919D01*
X358952Y1791360D01*
X364845Y1789328D01*
X371144Y1788566D01*
X426618Y1788566D01*
X432917Y1789328D01*
X438353Y1791207D01*
X446938Y1796897D01*
X450850Y1797659D01*
X454761Y1796897D01*
X458419Y1794306D01*
X463346Y1791207D01*
X468782Y1789328D01*
X475081Y1788566D01*
X530555Y1788566D01*
X536854Y1789328D01*
X542747Y1791360D01*
X546100Y1791919D01*
X549452Y1791360D01*
X555345Y1789328D01*
X561644Y1788566D01*
X617118Y1788566D01*
X623417Y1789328D01*
X628853Y1791207D01*
X637438Y1796897D01*
X641350Y1797659D01*
X645261Y1796897D01*
X648919Y1794306D01*
X653846Y1791207D01*
X659282Y1789328D01*
X665581Y1788566D01*
X721055Y1788566D01*
X727354Y1789328D01*
X733247Y1791360D01*
X736600Y1791919D01*
X739952Y1791360D01*
X745845Y1789328D01*
X752144Y1788566D01*
X767181Y1788566D01*
X767181Y1828800D01*
X757682Y1828800D01*
X753770Y1829562D01*
X750468Y1831797D01*
X748284Y1835048D01*
X747522Y1838960D01*
X747522Y1844039D01*
X748284Y1847951D01*
X750468Y1851202D01*
X753770Y1853438D01*
X757682Y1854200D01*
X767181Y1854200D01*
X767181Y1894382D01*
X752144Y1894382D01*
X745845Y1893671D01*
X739952Y1891639D01*
X736600Y1891080D01*
X733247Y1891639D01*
X727354Y1893671D01*
X720953Y1894433D01*
X718413Y1894433D01*
X714298Y1895348D01*
X710895Y1897888D01*
X708812Y1901596D01*
X708456Y1905812D01*
X709828Y1909825D01*
X712724Y1912924D01*
X721309Y1918970D01*
X728116Y1925777D01*
X733653Y1933651D01*
X737717Y1942388D01*
X740206Y1951685D01*
X741121Y1961743D01*
X741121Y2106574D01*
X740206Y2116582D01*
X737717Y2125878D01*
X733653Y2134616D01*
X725170Y2146554D01*
X724408Y2150465D01*
X724408Y2209292D01*
X723595Y2217318D01*
X721410Y2224532D01*
X717854Y2231237D01*
X712724Y2237435D01*
X600405Y2349804D01*
X598170Y2353106D01*
X597408Y2357018D01*
X597408Y2472334D01*
X598170Y2476246D01*
X606653Y2488184D01*
X610717Y2496921D01*
X612495Y2503424D01*
X614527Y2507335D01*
X617982Y2510028D01*
X622300Y2510942D01*
X626618Y2510028D01*
X630072Y2507335D01*
X632104Y2503424D01*
X633882Y2496921D01*
X637946Y2488184D01*
X643483Y2480259D01*
X650290Y2473452D01*
X658164Y2467914D01*
X666902Y2463850D01*
X676198Y2461361D01*
X685800Y2460548D01*
X695401Y2461361D01*
X704697Y2463850D01*
X713435Y2467914D01*
X721309Y2473452D01*
X728116Y2480259D01*
X733653Y2488184D01*
X737717Y2496921D01*
X740206Y2506218D01*
X741121Y2516225D01*
X741121Y2571140D01*
X741883Y2575052D01*
X744067Y2578303D01*
X747369Y2580538D01*
X751281Y2581300D01*
X763778Y2581300D01*
X767842Y2580436D01*
X771194Y2578049D01*
X773379Y2574493D01*
X775360Y2568752D01*
X775919Y2565400D01*
X775360Y2562047D01*
X773328Y2556154D01*
X772617Y2549804D01*
X772617Y2523591D01*
X812800Y2523591D01*
X812800Y2544318D01*
X813562Y2548229D01*
X815797Y2551531D01*
X819048Y2553716D01*
X822960Y2554478D01*
X828040Y2554478D01*
X831951Y2553716D01*
X835202Y2551531D01*
X837437Y2548229D01*
X838200Y2544318D01*
X838200Y2523591D01*
X878382Y2523591D01*
X878382Y2549804D01*
X877671Y2556154D01*
X875995Y2560980D01*
X875487Y2565196D01*
X876706Y2569210D01*
X879449Y2572410D01*
X883310Y2574239D01*
X887526Y2574290D01*
X891438Y2572664D01*
X898906Y2567381D01*
X907846Y2563266D01*
X917295Y2560726D01*
X927100Y2559862D01*
X936904Y2560726D01*
X946353Y2563266D01*
X950214Y2565044D01*
X954176Y2566009D01*
X958189Y2565349D01*
X961593Y2563164D01*
X963879Y2559812D01*
X964692Y2555849D01*
X964692Y1306068D01*
X963930Y1302156D01*
X961694Y1298905D01*
X958443Y1296670D01*
X954532Y1295908D01*
G37*

%LPC*%
G36*
X635000Y1562557D02*
G01*
X645972Y1564386D01*
X658977Y1568450D01*
X671372Y1574190D01*
X682853Y1581505D01*
X693267Y1590294D01*
X702411Y1600454D01*
X710133Y1611680D01*
X716280Y1623822D01*
X720750Y1636725D01*
X723544Y1651000D01*
X635000Y1651000D01*
G37*
G36*
X792581Y1788566D02*
G01*
X807618Y1788566D01*
X813917Y1789328D01*
X819353Y1791207D01*
X824280Y1794306D01*
X828344Y1798370D01*
X831443Y1803298D01*
X833374Y1808734D01*
X834085Y1815084D01*
X834085Y1828800D01*
X792581Y1828800D01*
G37*
G36*
X792581Y1854200D02*
G01*
X834085Y1854200D01*
X834085Y1867916D01*
X833374Y1874266D01*
X831443Y1879701D01*
X828344Y1884629D01*
X824280Y1888693D01*
X819353Y1891792D01*
X813917Y1893671D01*
X807618Y1894382D01*
X792581Y1894382D01*
G37*
G36*
X635000Y1676400D02*
G01*
X723544Y1676400D01*
X720750Y1690674D01*
X716280Y1703578D01*
X710133Y1715719D01*
X702411Y1726946D01*
X693267Y1737106D01*
X682853Y1745894D01*
X671372Y1753209D01*
X658977Y1758950D01*
X645972Y1763014D01*
X635000Y1764842D01*
G37*
G36*
X799084Y2445461D02*
G01*
X812800Y2445461D01*
X812800Y2498191D01*
X772617Y2498191D01*
X772617Y2471978D01*
X773328Y2465628D01*
X775208Y2460193D01*
X778306Y2455265D01*
X782370Y2451201D01*
X787298Y2448102D01*
X792734Y2446172D01*
G37*
G36*
X838200Y2445461D02*
G01*
X851916Y2445461D01*
X858266Y2446172D01*
X863701Y2448102D01*
X868629Y2451201D01*
X872693Y2455265D01*
X875792Y2460193D01*
X877671Y2465628D01*
X878382Y2471978D01*
X878382Y2498191D01*
X838200Y2498191D01*
G37*

%LPD*%
D10*
X431800Y2034031D02*
G01*
X431800Y1841500D01*
X398779Y1841500D01*
X493521Y6038087D02*
G01*
X215900Y5760465D01*
X215900Y4064000D01*
X50800Y3898900D01*
X50800Y3302000D01*
X76200Y3276600D01*
X342900Y3276600D01*
X368300Y3251200D01*
X368300Y2997200D01*
X152400Y2781300D01*
X152400Y2413000D01*
X368300Y2197100D01*
X368300Y1930400D01*
X312420Y1874520D01*
X312420Y1841500D01*
X558800Y3492500D02*
G01*
X622300Y3556000D01*
X622300Y3771900D01*
X660400Y3810000D01*
X723900Y3810000D01*
X749300Y3784600D01*
D11*
X876300Y4163821D02*
G01*
X876300Y4127500D01*
X952500Y4051300D01*
X952500Y2768600D01*
X914400Y2730500D01*
X635000Y2730500D01*
X558800Y2654300D01*
X558800Y2588768D01*
D10*
X622300Y2933700D02*
G01*
X622300Y3251200D01*
X261518Y2768600D02*
G01*
X261518Y2826918D01*
X279400Y2844800D01*
X673100Y2844800D01*
X744118Y2915818D01*
X744118Y2921000D01*
X493519Y7562087D02*
G01*
X774700Y7280907D01*
X774700Y4089400D01*
X812800Y4051300D01*
X876300Y4051300D01*
X901700Y4025900D01*
X901700Y2946400D01*
X876300Y2921000D01*
X830681Y2921000D01*
X558800Y3100959D02*
G01*
X558800Y2959100D01*
X538581Y2938881D01*
X538581Y2921000D01*
X431800Y3100959D02*
G01*
X431800Y2959100D01*
X452018Y2938881D01*
X452018Y2921000D01*
X558800Y2209800D02*
G01*
X495300Y2273300D01*
X495300Y2705100D01*
X538581Y2748381D01*
X538581Y2768600D01*
X431800Y2588640D02*
G01*
X431800Y2717800D01*
X452018Y2738018D01*
X452018Y2768600D01*
X348081Y2768600D02*
G01*
X452018Y2768600D01*
X304800Y2588640D02*
G01*
X304800Y2692400D01*
X261518Y2735681D01*
X261518Y2768600D01*
X558800Y2209800D02*
G01*
X622300Y2146300D01*
X622300Y1917700D01*
X635000Y1905000D01*
X736600Y1905000D01*
X693318Y1841500D02*
G01*
X589384Y1841500D01*
X558800Y2034159D02*
G01*
X558800Y1879600D01*
X589381Y1849018D01*
X589381Y1841500D01*
X431800Y1841500D02*
G01*
X502818Y1841500D01*
D11*
X355600Y4495037D02*
G01*
X355600Y5308600D01*
X304800Y5359400D01*
X304800Y5664200D01*
X622300Y5981700D01*
X622300Y6769100D01*
X546100Y6845300D01*
X266700Y6845300D01*
X241300Y6870700D01*
X241300Y8382000D01*
X127000Y8496300D01*
X127000Y11264900D01*
X191770Y11329670D01*
X292100Y11329670D01*
X495300Y4495037D02*
G01*
X495300Y4622800D01*
X723900Y4851400D01*
X723900Y7251700D01*
X571500Y7404100D01*
X348234Y7404100D01*
X304800Y7447534D01*
X304800Y3655440D02*
G01*
X304800Y3847236D01*
X431800Y3962400D02*
G01*
X292100Y3962400D01*
X254000Y4000500D01*
X254000Y5702300D01*
X419100Y5867400D01*
X685800Y4013200D02*
G01*
X685800Y4051300D01*
X736600Y4102100D01*
X736600Y4279900D01*
X698500Y4318000D01*
X622300Y4318000D01*
X304800Y7447460D02*
G01*
X304800Y7950200D01*
X495300Y8140700D01*
X495300Y8356600D01*
X292100Y8559800D01*
X292100Y9805670D01*
X152400Y3847236D02*
G01*
X419097Y3847236D01*
X419961Y3848100D01*
X495300Y4344162D02*
G01*
X495300Y3454400D01*
X558800Y3390900D01*
X558800Y3100831D01*
X152400Y3366262D02*
G01*
X380237Y3366262D01*
X431800Y3314700D01*
X431800Y3100831D01*
X355600Y4344263D02*
G01*
X495300Y4344263D01*
X622300Y4163695D02*
G01*
X622300Y3899763D01*
X570636Y3848100D01*
X152400Y3696563D02*
G01*
X152400Y3517038D01*
X152400Y3517036D02*
G01*
X405536Y3517036D01*
X431800Y3543300D01*
X431800Y3655440D01*
X165100Y2002891D02*
G01*
X266700Y2002891D01*
X297967Y2034159D01*
X304800Y2034159D01*
X63500Y2006600D02*
G01*
X67208Y2002891D01*
X165100Y2002891D01*
X825500Y3686708D02*
G01*
X825500Y3975100D01*
X825500Y2619908D02*
G01*
X723900Y2619908D01*
X692632Y2588640D01*
X685800Y2588640D01*
X825500Y3686708D02*
G01*
X723900Y3686708D01*
X692632Y3655440D01*
X685800Y3655440D01*
X825500Y2616200D02*
G01*
X927100Y2616200D01*
X165100Y3069691D02*
G01*
X266700Y3069691D01*
X297967Y3100959D01*
X304800Y3100959D01*
X165100Y3069691D02*
G01*
X63500Y3069691D01*
X685800Y2034159D02*
G01*
X685800Y2209800D01*
X558800Y2336800D01*
X558800Y2588640D01*
X444500Y1562100D02*
G01*
X444500Y1662838D01*
X443638Y1663700D01*
X292963Y1663700D02*
G01*
X114300Y1663700D01*
X493519Y9809888D02*
G01*
X489379Y9805746D01*
X292100Y9805746D01*
X493519Y11333863D02*
G01*
X489402Y11329746D01*
X254000Y11329746D01*
D12*
G01*
X312317Y1841500D03*
G01*
X398882Y1841500D03*
G01*
X502817Y1841500D03*
G01*
X589382Y1841500D03*
G01*
X693317Y1841500D03*
G01*
X779882Y1841500D03*
G01*
X744117Y2921000D03*
G01*
X830682Y2921000D03*
G01*
X261517Y2768600D03*
G01*
X348082Y2768600D03*
G01*
X452017Y2768600D03*
G01*
X538582Y2768600D03*
G01*
X452017Y2921000D03*
G01*
X538582Y2921000D03*
D13*
G01*
X419975Y3848100D03*
G01*
X570624Y3848100D03*
D14*
G01*
X165100Y2002891D03*
D15*
G01*
X165100Y2111905D03*
D16*
G01*
X355600Y4344263D03*
D17*
G01*
X355600Y4494924D03*
D16*
G01*
X495300Y4494936D03*
D17*
G01*
X495300Y4344275D03*
D16*
G01*
X152400Y3366363D03*
D17*
G01*
X152400Y3517024D03*
D16*
G01*
X152400Y3696563D03*
D17*
G01*
X152400Y3847224D03*
D13*
G01*
X292975Y1663700D03*
G01*
X443624Y1663700D03*
D14*
G01*
X825500Y2619908D03*
D15*
G01*
X825500Y2510894D03*
D14*
G01*
X825500Y3686708D03*
D15*
G01*
X825500Y3577694D03*
D14*
G01*
X165100Y3069691D03*
D15*
G01*
X165100Y3178705D03*
D18*
G01*
X304800Y3655440D03*
G01*
X431800Y3655440D03*
G01*
X558800Y3655440D03*
G01*
X685800Y3655440D03*
G01*
X304800Y3100959D03*
G01*
X431800Y3100959D03*
G01*
X558800Y3100959D03*
G01*
X685800Y3100959D03*
G01*
X304800Y2588640D03*
G01*
X431800Y2588640D03*
G01*
X558800Y2588640D03*
G01*
X685800Y2588640D03*
G01*
X304800Y2034159D03*
G01*
X431800Y2034159D03*
G01*
X558800Y2034159D03*
G01*
X685800Y2034159D03*
D19*
G01*
X292100Y11329746D03*
D20*
G01*
X292100Y11454056D03*
D19*
G01*
X292100Y9805746D03*
D20*
G01*
X292100Y9930056D03*
D21*
G01*
X999997Y12337999D03*
G01*
X12505994Y12337999D03*
G01*
X1499997Y870000D03*
G01*
X12005995Y870000D03*
D22*
G01*
X114300Y8255000D03*
D23*
G01*
X368300Y8255000D03*
G01*
X622300Y8255000D03*
G01*
X876300Y8255000D03*
D22*
G01*
X114300Y11811000D03*
D23*
G01*
X368300Y11811000D03*
G01*
X622300Y11811000D03*
G01*
X876300Y11811000D03*
D24*
G01*
X493521Y7561986D03*
G01*
X493521Y6712000D03*
G01*
X493521Y6411976D03*
G01*
X493521Y6037986D03*
G01*
X493521Y5188000D03*
G01*
X493521Y4887976D03*
G01*
X493521Y11333861D03*
G01*
X493521Y10483875D03*
G01*
X493521Y10183850D03*
G01*
X493521Y9809886D03*
G01*
X493521Y8959900D03*
G01*
X493521Y8659876D03*
D25*
G01*
X114300Y4163695D03*
G01*
X368300Y4163695D03*
G01*
X622300Y4163695D03*
G01*
X876300Y4163695D03*
G01*
X622300Y1663700D03*
G01*
X114300Y1663700D03*
D26*
G01*
X444500Y1562100D03*
G01*
X63500Y2006600D03*
G01*
X927100Y2616200D03*
G01*
X228600Y2146300D03*
G01*
X787400Y3492500D03*
G01*
X228600Y3213100D03*
G01*
X63500Y3069691D03*
G01*
X825500Y3975100D03*
G01*
X787400Y2425700D03*
G01*
X558800Y3492500D03*
G01*
X622300Y3251200D03*
G01*
X228600Y1930400D03*
G01*
X63500Y1803400D03*
G01*
X304800Y2388311D03*
G01*
X558800Y2209800D03*
G01*
X266700Y3441700D03*
G01*
X495300Y3276600D03*
G01*
X558800Y4013200D03*
G01*
X431800Y3962400D03*
G01*
X622300Y4318000D03*
G01*
X622300Y4635500D03*
G01*
X63500Y4038600D03*
G01*
X685800Y4013200D03*
G01*
X749300Y3784600D03*
G01*
X419100Y5867400D03*
G01*
X241300Y3771900D03*
G01*
X635000Y5867400D03*
G01*
X495300Y7315200D03*
G01*
X660400Y6845300D03*
G01*
X406400Y9931400D03*
G01*
X406400Y11455400D03*
G01*
X850900Y2819400D03*
G01*
X787400Y3022600D03*
G01*
X622300Y2933700D03*
G01*
X215900Y2679700D03*
G01*
X495300Y2451100D03*
G01*
X215900Y3606800D03*
M02*
