M48
METRIC,LZ,000.000
;FILE_FORMAT=3:3
;TYPE=PLATED
;Layer: PTH_Through_Via
;EasyEDA v6.5.34, 2023-08-10 19:30:07
;4c2b3f1c2568491fb8cb17246f5809ed,5a6b42c53f6a479593ecc07194224c93,10
;Gerber Generator version 0.2
;Holesize 1 = 0.305 mm
T01C0.305
;Holesize 2 = 0.310 mm
T02C0.310
%
G05
G90
T01
X443103Y078486
X430911Y078486
X418719Y078486
X406527Y078486
X394335Y078486
X382143Y078486
X369951Y078486
X357759Y078486
X329311Y078486
X317119Y078486
X304927Y078486
X292735Y078486
X280543Y078486
X268351Y078486
X256159Y078486
X243967Y078486
X443103Y063246
X430911Y063246
X418719Y063246
X406527Y063246
X394335Y063246
X382143Y063246
X369951Y063246
X357759Y063246
X329311Y063246
X317119Y063246
X304927Y063246
X292735Y063246
X280543Y063246
X268351Y063246
X256159Y063246
X243967Y063246
T02
X301752Y063246
X240792Y063246
X252984Y063246
X265176Y063246
X277368Y063246
X289560Y063246
X313944Y063246
X326136Y063246
X241017Y076233
X253209Y076233
X265401Y076233
X277593Y076233
X289785Y076233
X301977Y076233
X314169Y076233
X326361Y076233
X241017Y060993
X253209Y060993
X265401Y060993
X277593Y060993
X289785Y060993
X301977Y060993
X314169Y060993
X326361Y060993
X391385Y076233
X379193Y076233
X367001Y076233
X354809Y076233
X440153Y076233
X427961Y076233
X415769Y076233
X403577Y076233
X440153Y060993
X439928Y063246
X427736Y063246
X427961Y060993
X415769Y060993
X415544Y063246
X403352Y063246
X403577Y060993
X391385Y060993
X391160Y063246
X378968Y063246
X379193Y060993
X367001Y060993
X366776Y063246
X354584Y063246
X354809Y060993
M30
