G04 Layer: TopSolderMaskLayer*
G04 EasyEDA v6.5.34, 2023-08-10 19:30:07*
G04 4c2b3f1c2568491fb8cb17246f5809ed,5a6b42c53f6a479593ecc07194224c93,10*
G04 Gerber Generator version 0.2*
G04 Scale: 100 percent, Rotated: No, Reflected: No *
G04 Dimensions in millimeters *
G04 leading zeros omitted , absolute positions ,4 integer and 5 decimal *
%FSLAX45Y45*%
%MOMM*%

%AMMACRO1*1,1,$1,$2,$3*1,1,$1,$4,$5*1,1,$1,0-$2,0-$3*1,1,$1,0-$4,0-$5*20,1,$1,$2,$3,$4,$5,0*20,1,$1,$4,$5,0-$2,0-$3,0*20,1,$1,0-$2,0-$3,0-$4,0-$5,0*20,1,$1,0-$4,0-$5,$2,$3,0*4,1,4,$2,$3,$4,$5,0-$2,0-$3,0-$4,0-$5,$2,$3,0*%
%ADD10MACRO1,0.1016X-0.4X0.45X0.4X0.45*%
%ADD11MACRO1,0.1016X-0.275X-0.275X-0.275X0.275*%
%ADD12C,1.5016*%
%ADD13MACRO1,0.1016X-0.7X0.762X-0.7X-0.762*%
%ADD14C,3.1016*%

%LPD*%
D10*
G01*
X44227899Y7848600D03*
G01*
X44087900Y7848600D03*
D11*
G01*
X44110376Y7623298D03*
G01*
X44205392Y7623298D03*
G01*
X44205398Y7718320D03*
G01*
X44110376Y7718319D03*
G01*
X42891176Y7623298D03*
G01*
X42986192Y7623298D03*
G01*
X42986198Y7718320D03*
G01*
X42891176Y7718319D03*
D10*
G01*
X43008699Y7848600D03*
G01*
X42868700Y7848600D03*
G01*
X41789499Y7848600D03*
G01*
X41649500Y7848600D03*
D11*
G01*
X41671976Y7623298D03*
G01*
X41766992Y7623298D03*
G01*
X41766998Y7718320D03*
G01*
X41671976Y7718319D03*
D10*
G01*
X40570299Y7848600D03*
G01*
X40430300Y7848600D03*
D11*
G01*
X40452776Y7623298D03*
G01*
X40547792Y7623298D03*
G01*
X40547798Y7718320D03*
G01*
X40452776Y7718319D03*
D10*
G01*
X39351099Y7848600D03*
G01*
X39211100Y7848600D03*
D11*
G01*
X39233576Y7623298D03*
G01*
X39328592Y7623298D03*
G01*
X39328598Y7718320D03*
G01*
X39233576Y7718319D03*
D10*
G01*
X38131899Y7848600D03*
G01*
X37991900Y7848600D03*
D11*
G01*
X38014376Y7623298D03*
G01*
X38109392Y7623298D03*
G01*
X38109398Y7718320D03*
G01*
X38014376Y7718319D03*
D10*
G01*
X36912699Y7848600D03*
G01*
X36772700Y7848600D03*
D11*
G01*
X36795176Y7623298D03*
G01*
X36890192Y7623298D03*
G01*
X36890198Y7718320D03*
G01*
X36795176Y7718319D03*
D10*
G01*
X35693499Y7848600D03*
G01*
X35553500Y7848600D03*
D11*
G01*
X35575976Y7623298D03*
G01*
X35670992Y7623298D03*
G01*
X35670998Y7718320D03*
G01*
X35575976Y7718319D03*
D10*
G01*
X32848699Y7848600D03*
G01*
X32708700Y7848600D03*
D11*
G01*
X32731176Y7623298D03*
G01*
X32826192Y7623298D03*
G01*
X32826198Y7718320D03*
G01*
X32731176Y7718319D03*
D10*
G01*
X31629499Y7848600D03*
G01*
X31489500Y7848600D03*
D11*
G01*
X31511976Y7623298D03*
G01*
X31606992Y7623298D03*
G01*
X31606998Y7718320D03*
G01*
X31511976Y7718319D03*
D10*
G01*
X30410299Y7848600D03*
G01*
X30270300Y7848600D03*
D11*
G01*
X30292776Y7623298D03*
G01*
X30387792Y7623298D03*
G01*
X30387798Y7718320D03*
G01*
X30292776Y7718319D03*
D10*
G01*
X29191099Y7848600D03*
G01*
X29051100Y7848600D03*
D11*
G01*
X29073576Y7623298D03*
G01*
X29168592Y7623298D03*
G01*
X29168598Y7718320D03*
G01*
X29073576Y7718319D03*
D10*
G01*
X27971899Y7848600D03*
G01*
X27831900Y7848600D03*
D11*
G01*
X27854376Y7623298D03*
G01*
X27949392Y7623298D03*
G01*
X27949398Y7718320D03*
G01*
X27854376Y7718319D03*
D10*
G01*
X26752699Y7848600D03*
G01*
X26612700Y7848600D03*
D11*
G01*
X26635176Y7623298D03*
G01*
X26730192Y7623298D03*
G01*
X26730198Y7718320D03*
G01*
X26635176Y7718319D03*
D10*
G01*
X25533499Y7848600D03*
G01*
X25393500Y7848600D03*
D11*
G01*
X25415976Y7623298D03*
G01*
X25510992Y7623298D03*
G01*
X25510998Y7718320D03*
G01*
X25415976Y7718319D03*
D10*
G01*
X24314299Y7848600D03*
G01*
X24174300Y7848600D03*
D11*
G01*
X24196776Y7623298D03*
G01*
X24291792Y7623298D03*
G01*
X24291798Y7718320D03*
G01*
X24196776Y7718319D03*
D10*
G01*
X44227899Y6324600D03*
G01*
X44087900Y6324600D03*
D11*
G01*
X44110376Y6099298D03*
G01*
X44205392Y6099298D03*
G01*
X44205398Y6194320D03*
G01*
X44110376Y6194319D03*
D10*
G01*
X43008699Y6324600D03*
G01*
X42868700Y6324600D03*
D11*
G01*
X42891176Y6099298D03*
G01*
X42986192Y6099298D03*
G01*
X42986198Y6194320D03*
G01*
X42891176Y6194319D03*
D10*
G01*
X41789499Y6324600D03*
G01*
X41649500Y6324600D03*
D11*
G01*
X41671976Y6099298D03*
G01*
X41766992Y6099298D03*
G01*
X41766998Y6194320D03*
G01*
X41671976Y6194319D03*
D10*
G01*
X40570299Y6324600D03*
G01*
X40430300Y6324600D03*
D11*
G01*
X40452776Y6099298D03*
G01*
X40547792Y6099298D03*
G01*
X40547798Y6194320D03*
G01*
X40452776Y6194319D03*
D10*
G01*
X39351099Y6324600D03*
G01*
X39211100Y6324600D03*
D11*
G01*
X39233576Y6099298D03*
G01*
X39328592Y6099298D03*
G01*
X39328598Y6194320D03*
G01*
X39233576Y6194319D03*
D10*
G01*
X38131899Y6324600D03*
G01*
X37991900Y6324600D03*
D11*
G01*
X38014376Y6099298D03*
G01*
X38109392Y6099298D03*
G01*
X38109398Y6194320D03*
G01*
X38014376Y6194319D03*
D10*
G01*
X36912699Y6324600D03*
G01*
X36772700Y6324600D03*
D11*
G01*
X36795176Y6099298D03*
G01*
X36890192Y6099298D03*
G01*
X36890198Y6194320D03*
G01*
X36795176Y6194319D03*
D10*
G01*
X35693499Y6324600D03*
G01*
X35553500Y6324600D03*
D11*
G01*
X35575976Y6099298D03*
G01*
X35670992Y6099298D03*
G01*
X35670998Y6194320D03*
G01*
X35575976Y6194319D03*
D10*
G01*
X32848699Y6324600D03*
G01*
X32708700Y6324600D03*
D11*
G01*
X32731176Y6099298D03*
G01*
X32826192Y6099298D03*
G01*
X32826198Y6194320D03*
G01*
X32731176Y6194319D03*
D10*
G01*
X31629499Y6324600D03*
G01*
X31489500Y6324600D03*
D11*
G01*
X31511976Y6099298D03*
G01*
X31606992Y6099298D03*
G01*
X31606998Y6194320D03*
G01*
X31511976Y6194319D03*
D10*
G01*
X30410299Y6324600D03*
G01*
X30270300Y6324600D03*
D11*
G01*
X30292776Y6099298D03*
G01*
X30387792Y6099298D03*
G01*
X30387798Y6194320D03*
G01*
X30292776Y6194319D03*
D10*
G01*
X29191099Y6324600D03*
G01*
X29051100Y6324600D03*
D11*
G01*
X29073576Y6099298D03*
G01*
X29168592Y6099298D03*
G01*
X29168598Y6194320D03*
G01*
X29073576Y6194319D03*
D10*
G01*
X27971899Y6324600D03*
G01*
X27831900Y6324600D03*
D11*
G01*
X27854376Y6099298D03*
G01*
X27949392Y6099298D03*
G01*
X27949398Y6194320D03*
G01*
X27854376Y6194319D03*
D10*
G01*
X26752699Y6324600D03*
G01*
X26612700Y6324600D03*
D11*
G01*
X26635176Y6099298D03*
G01*
X26730192Y6099298D03*
G01*
X26730198Y6194320D03*
G01*
X26635176Y6194319D03*
D10*
G01*
X25533499Y6324600D03*
G01*
X25393500Y6324600D03*
D11*
G01*
X25415976Y6099298D03*
G01*
X25510992Y6099298D03*
G01*
X25510998Y6194320D03*
G01*
X25415976Y6194319D03*
D10*
G01*
X24314299Y6324600D03*
G01*
X24174300Y6324600D03*
D11*
G01*
X24196776Y6099298D03*
G01*
X24291792Y6099298D03*
G01*
X24291798Y6194320D03*
G01*
X24196776Y6194319D03*
D12*
G01*
X45466000Y5910300D03*
G01*
X45466000Y6110300D03*
G01*
X45466000Y6310299D03*
D13*
G01*
X45466000Y6510299D03*
D14*
G01*
X33883600Y5435574D03*
G01*
X33883600Y6972300D03*
G01*
X45466000Y6972300D03*
G01*
X45466000Y5435600D03*
M02*
