G04 Layer: BottomSilkscreenLayer*
G04 EasyEDA v6.5.34, 2023-08-10 19:30:07*
G04 4c2b3f1c2568491fb8cb17246f5809ed,5a6b42c53f6a479593ecc07194224c93,10*
G04 Gerber Generator version 0.2*
G04 Scale: 100 percent, Rotated: No, Reflected: No *
G04 Dimensions in millimeters *
G04 leading zeros omitted , absolute positions ,4 integer and 5 decimal *
%FSLAX45Y45*%
%MOMM*%

%ADD10C,0.2032*%
%ADD11C,0.1520*%
%ADD12C,0.1524*%
%ADD13C,0.2540*%

%LPD*%
D10*
X34843186Y4742017D02*
G01*
X34848642Y4752926D01*
X34859551Y4763836D01*
X34870458Y4769289D01*
X34892277Y4769289D01*
X34903186Y4763836D01*
X34914095Y4752926D01*
X34919551Y4742017D01*
X34925005Y4725654D01*
X34925005Y4698382D01*
X34919551Y4682017D01*
X34914095Y4671108D01*
X34903186Y4660198D01*
X34892277Y4654745D01*
X34870458Y4654745D01*
X34859551Y4660198D01*
X34848642Y4671108D01*
X34843186Y4682017D01*
X34774459Y4769289D02*
G01*
X34785368Y4763836D01*
X34796277Y4752926D01*
X34801733Y4742017D01*
X34807187Y4725654D01*
X34807187Y4698382D01*
X34801733Y4682017D01*
X34796277Y4671108D01*
X34785368Y4660198D01*
X34774459Y4654745D01*
X34752640Y4654745D01*
X34741733Y4660198D01*
X34730824Y4671108D01*
X34725368Y4682017D01*
X34719915Y4698382D01*
X34719915Y4725654D01*
X34725368Y4742017D01*
X34730824Y4752926D01*
X34741733Y4763836D01*
X34752640Y4769289D01*
X34774459Y4769289D01*
X34683915Y4769289D02*
G01*
X34683915Y4654745D01*
X34683915Y4769289D02*
G01*
X34634822Y4769289D01*
X34618460Y4763836D01*
X34613006Y4758382D01*
X34607550Y4747473D01*
X34607550Y4731108D01*
X34613006Y4720198D01*
X34618460Y4714745D01*
X34634822Y4709289D01*
X34683915Y4709289D01*
X34571551Y4769289D02*
G01*
X34527914Y4714745D01*
X34527914Y4654745D01*
X34484279Y4769289D02*
G01*
X34527914Y4714745D01*
X34448277Y4769289D02*
G01*
X34448277Y4654745D01*
X34448277Y4769289D02*
G01*
X34399186Y4769289D01*
X34382824Y4763836D01*
X34377370Y4758382D01*
X34371915Y4747473D01*
X34371915Y4736564D01*
X34377370Y4725654D01*
X34382824Y4720198D01*
X34399186Y4714745D01*
X34448277Y4714745D01*
X34410096Y4714745D02*
G01*
X34371915Y4654745D01*
X34335915Y4769289D02*
G01*
X34335915Y4654745D01*
X34218097Y4742017D02*
G01*
X34223551Y4752926D01*
X34234460Y4763836D01*
X34245369Y4769289D01*
X34267188Y4769289D01*
X34278097Y4763836D01*
X34289006Y4752926D01*
X34294460Y4742017D01*
X34299916Y4725654D01*
X34299916Y4698382D01*
X34294460Y4682017D01*
X34289006Y4671108D01*
X34278097Y4660198D01*
X34267188Y4654745D01*
X34245369Y4654745D01*
X34234460Y4660198D01*
X34223551Y4671108D01*
X34218097Y4682017D01*
X34218097Y4698382D01*
X34245369Y4698382D02*
G01*
X34218097Y4698382D01*
X34182098Y4769289D02*
G01*
X34182098Y4654745D01*
X34105733Y4769289D02*
G01*
X34105733Y4654745D01*
X34182098Y4714745D02*
G01*
X34105733Y4714745D01*
X34031552Y4769289D02*
G01*
X34031552Y4654745D01*
X34069733Y4769289D02*
G01*
X33993371Y4769289D01*
X33867915Y4742017D02*
G01*
X33867915Y4747473D01*
X33862462Y4758382D01*
X33857006Y4763836D01*
X33846096Y4769289D01*
X33824280Y4769289D01*
X33813371Y4763836D01*
X33807915Y4758382D01*
X33802462Y4747473D01*
X33802462Y4736564D01*
X33807915Y4725654D01*
X33818824Y4709289D01*
X33873371Y4654745D01*
X33797006Y4654745D01*
X33728279Y4769289D02*
G01*
X33744644Y4763836D01*
X33755553Y4747473D01*
X33761006Y4720198D01*
X33761006Y4703836D01*
X33755553Y4676564D01*
X33744644Y4660198D01*
X33728279Y4654745D01*
X33717372Y4654745D01*
X33701007Y4660198D01*
X33690097Y4676564D01*
X33684644Y4703836D01*
X33684644Y4720198D01*
X33690097Y4747473D01*
X33701007Y4763836D01*
X33717372Y4769289D01*
X33728279Y4769289D01*
X33643188Y4742017D02*
G01*
X33643188Y4747473D01*
X33637735Y4758382D01*
X33632279Y4763836D01*
X33621370Y4769289D01*
X33599554Y4769289D01*
X33588645Y4763836D01*
X33583189Y4758382D01*
X33577735Y4747473D01*
X33577735Y4736564D01*
X33583189Y4725654D01*
X33594098Y4709289D01*
X33648644Y4654745D01*
X33572279Y4654745D01*
X33525371Y4769289D02*
G01*
X33465371Y4769289D01*
X33498099Y4725654D01*
X33481736Y4725654D01*
X33470827Y4720198D01*
X33465371Y4714745D01*
X33459917Y4698382D01*
X33459917Y4687473D01*
X33465371Y4671108D01*
X33476280Y4660198D01*
X33492643Y4654745D01*
X33509008Y4654745D01*
X33525371Y4660198D01*
X33530827Y4665654D01*
X33536280Y4676564D01*
X33339918Y4769289D02*
G01*
X33296280Y4654745D01*
X33252643Y4769289D02*
G01*
X33296280Y4654745D01*
X33216644Y4769289D02*
G01*
X33216644Y4654745D01*
X33216644Y4769289D02*
G01*
X33145735Y4769289D01*
X33216644Y4714745D02*
G01*
X33173009Y4714745D01*
X33216644Y4654745D02*
G01*
X33145735Y4654745D01*
X33033373Y4769289D02*
G01*
X33087917Y4654745D01*
X33109735Y4769289D02*
G01*
X33033373Y4769289D01*
X32997373Y4769289D02*
G01*
X32997373Y4654745D01*
X32997373Y4769289D02*
G01*
X32926464Y4769289D01*
X32997373Y4714745D02*
G01*
X32953736Y4714745D01*
X32890462Y4769289D02*
G01*
X32890462Y4654745D01*
X32854463Y4769289D02*
G01*
X32854463Y4654745D01*
X32854463Y4769289D02*
G01*
X32810828Y4654745D01*
X32767191Y4769289D02*
G01*
X32810828Y4654745D01*
X32767191Y4769289D02*
G01*
X32767191Y4654745D01*
D11*
X45896657Y4852451D02*
G01*
X45896657Y4769324D01*
X45901853Y4753737D01*
X45907048Y4748542D01*
X45917439Y4743348D01*
X45927830Y4743348D01*
X45938221Y4748542D01*
X45943418Y4753737D01*
X45948612Y4769324D01*
X45948612Y4779716D01*
X45862366Y4852451D02*
G01*
X45862366Y4743348D01*
X45862366Y4743348D02*
G01*
X45800022Y4743348D01*
X45687800Y4826474D02*
G01*
X45692997Y4836866D01*
X45703388Y4847257D01*
X45713777Y4852451D01*
X45734559Y4852451D01*
X45744950Y4847257D01*
X45755341Y4836866D01*
X45760538Y4826474D01*
X45765732Y4810887D01*
X45765732Y4784910D01*
X45760538Y4769324D01*
X45755341Y4758933D01*
X45744950Y4748542D01*
X45734559Y4743348D01*
X45713777Y4743348D01*
X45703388Y4748542D01*
X45692997Y4758933D01*
X45687800Y4769324D01*
X45601557Y4852451D02*
G01*
X45601557Y4769324D01*
X45606751Y4753737D01*
X45611948Y4748542D01*
X45622336Y4743348D01*
X45632728Y4743348D01*
X45643119Y4748542D01*
X45648316Y4753737D01*
X45653510Y4769324D01*
X45653510Y4779716D01*
X45567267Y4852451D02*
G01*
X45567267Y4743348D01*
X45567267Y4743348D02*
G01*
X45504920Y4743348D01*
X45392698Y4826474D02*
G01*
X45397894Y4836866D01*
X45408286Y4847257D01*
X45418677Y4852451D01*
X45439457Y4852451D01*
X45449848Y4847257D01*
X45460239Y4836866D01*
X45465436Y4826474D01*
X45470630Y4810887D01*
X45470630Y4784910D01*
X45465436Y4769324D01*
X45460239Y4758933D01*
X45449848Y4748542D01*
X45439457Y4743348D01*
X45418677Y4743348D01*
X45408286Y4748542D01*
X45397894Y4758933D01*
X45392698Y4769324D01*
X45306454Y4852451D02*
G01*
X45306454Y4769324D01*
X45311649Y4753737D01*
X45316846Y4748542D01*
X45327237Y4743348D01*
X45337628Y4743348D01*
X45348016Y4748542D01*
X45353213Y4753737D01*
X45358408Y4769324D01*
X45358408Y4779716D01*
X45272164Y4852451D02*
G01*
X45272164Y4743348D01*
X45272164Y4743348D02*
G01*
X45209818Y4743348D01*
X45097598Y4826474D02*
G01*
X45102792Y4836866D01*
X45113183Y4847257D01*
X45123574Y4852451D01*
X45144357Y4852451D01*
X45154748Y4847257D01*
X45165136Y4836866D01*
X45170333Y4826474D01*
X45175528Y4810887D01*
X45175528Y4784910D01*
X45170333Y4769324D01*
X45165136Y4758933D01*
X45154748Y4748542D01*
X45144357Y4743348D01*
X45123574Y4743348D01*
X45113183Y4748542D01*
X45102792Y4758933D01*
X45097598Y4769324D01*
X45011352Y4852451D02*
G01*
X45011352Y4769324D01*
X45016547Y4753737D01*
X45021743Y4748542D01*
X45032134Y4743348D01*
X45042526Y4743348D01*
X45052917Y4748542D01*
X45058111Y4753737D01*
X45063308Y4769324D01*
X45063308Y4779716D01*
X44977062Y4852451D02*
G01*
X44977062Y4743348D01*
X44977062Y4743348D02*
G01*
X44914718Y4743348D01*
X44802496Y4826474D02*
G01*
X44807690Y4836866D01*
X44818081Y4847257D01*
X44828472Y4852451D01*
X44849254Y4852451D01*
X44859646Y4847257D01*
X44870037Y4836866D01*
X44875231Y4826474D01*
X44880428Y4810887D01*
X44880428Y4784910D01*
X44875231Y4769324D01*
X44870037Y4758933D01*
X44859646Y4748542D01*
X44849254Y4743348D01*
X44828472Y4743348D01*
X44818081Y4748542D01*
X44807690Y4758933D01*
X44802496Y4769324D01*
D10*
X34505900Y6737789D02*
G01*
X34505900Y6623245D01*
X34505900Y6737789D02*
G01*
X34456809Y6737789D01*
X34440446Y6732336D01*
X34434990Y6726882D01*
X34429537Y6715973D01*
X34429537Y6699608D01*
X34434990Y6688698D01*
X34440446Y6683245D01*
X34456809Y6677789D01*
X34505900Y6677789D01*
X34349900Y6737789D02*
G01*
X34393535Y6623245D01*
X34349900Y6737789D02*
G01*
X34306263Y6623245D01*
X34377172Y6661426D02*
G01*
X34322628Y6661426D01*
X34270264Y6737789D02*
G01*
X34270264Y6623245D01*
X34270264Y6737789D02*
G01*
X34221173Y6737789D01*
X34204810Y6732336D01*
X34199355Y6726882D01*
X34193901Y6715973D01*
X34193901Y6705064D01*
X34199355Y6694154D01*
X34204810Y6688698D01*
X34221173Y6683245D01*
X34270264Y6683245D01*
X34232082Y6683245D02*
G01*
X34193901Y6623245D01*
X34119718Y6737789D02*
G01*
X34119718Y6623245D01*
X34157899Y6737789D02*
G01*
X34081537Y6737789D01*
X33961537Y6737789D02*
G01*
X33961537Y6623245D01*
X33961537Y6737789D02*
G01*
X33885174Y6623245D01*
X33885174Y6737789D02*
G01*
X33885174Y6623245D01*
X33849172Y6737789D02*
G01*
X33849172Y6655973D01*
X33843719Y6639608D01*
X33832810Y6628698D01*
X33816447Y6623245D01*
X33805538Y6623245D01*
X33789172Y6628698D01*
X33778266Y6639608D01*
X33772810Y6655973D01*
X33772810Y6737789D01*
X33736810Y6737789D02*
G01*
X33736810Y6623245D01*
X33736810Y6737789D02*
G01*
X33693173Y6623245D01*
X33649538Y6737789D02*
G01*
X33693173Y6623245D01*
X33649538Y6737789D02*
G01*
X33649538Y6623245D01*
X33613537Y6737789D02*
G01*
X33613537Y6623245D01*
X33613537Y6737789D02*
G01*
X33564446Y6737789D01*
X33548083Y6732336D01*
X33542630Y6726882D01*
X33537174Y6715973D01*
X33537174Y6705064D01*
X33542630Y6694154D01*
X33548083Y6688698D01*
X33564446Y6683245D01*
X33613537Y6683245D02*
G01*
X33564446Y6683245D01*
X33548083Y6677789D01*
X33542630Y6672336D01*
X33537174Y6661426D01*
X33537174Y6645064D01*
X33542630Y6634154D01*
X33548083Y6628698D01*
X33564446Y6623245D01*
X33613537Y6623245D01*
X33501175Y6737789D02*
G01*
X33501175Y6623245D01*
X33501175Y6737789D02*
G01*
X33430265Y6737789D01*
X33501175Y6683245D02*
G01*
X33457537Y6683245D01*
X33501175Y6623245D02*
G01*
X33430265Y6623245D01*
X33394266Y6737789D02*
G01*
X33394266Y6623245D01*
X33394266Y6737789D02*
G01*
X33345175Y6737789D01*
X33328810Y6732336D01*
X33323357Y6726882D01*
X33317901Y6715973D01*
X33317901Y6705064D01*
X33323357Y6694154D01*
X33328810Y6688698D01*
X33345175Y6683245D01*
X33394266Y6683245D01*
X33356085Y6683245D02*
G01*
X33317901Y6623245D01*
X34696400Y7347389D02*
G01*
X34696400Y7232845D01*
X34696400Y7232845D02*
G01*
X34630946Y7232845D01*
X34594944Y7347389D02*
G01*
X34594944Y7232845D01*
X34594944Y7347389D02*
G01*
X34524035Y7347389D01*
X34594944Y7292845D02*
G01*
X34551310Y7292845D01*
X34594944Y7232845D02*
G01*
X34524035Y7232845D01*
X34488036Y7347389D02*
G01*
X34488036Y7232845D01*
X34488036Y7347389D02*
G01*
X34449854Y7347389D01*
X34433492Y7341936D01*
X34422582Y7331026D01*
X34417127Y7320117D01*
X34411673Y7303754D01*
X34411673Y7276482D01*
X34417127Y7260117D01*
X34422582Y7249208D01*
X34433492Y7238298D01*
X34449854Y7232845D01*
X34488036Y7232845D01*
X34291673Y7347389D02*
G01*
X34291673Y7232845D01*
X34291673Y7347389D02*
G01*
X34242583Y7347389D01*
X34226218Y7341936D01*
X34220764Y7336482D01*
X34215311Y7325573D01*
X34215311Y7314664D01*
X34220764Y7303754D01*
X34226218Y7298298D01*
X34242583Y7292845D01*
X34291673Y7292845D01*
X34253492Y7292845D02*
G01*
X34215311Y7232845D01*
X34179309Y7347389D02*
G01*
X34179309Y7232845D01*
X34061491Y7320117D02*
G01*
X34066947Y7331026D01*
X34077856Y7341936D01*
X34088765Y7347389D01*
X34110582Y7347389D01*
X34121491Y7341936D01*
X34132400Y7331026D01*
X34137856Y7320117D01*
X34143309Y7303754D01*
X34143309Y7276482D01*
X34137856Y7260117D01*
X34132400Y7249208D01*
X34121491Y7238298D01*
X34110582Y7232845D01*
X34088765Y7232845D01*
X34077856Y7238298D01*
X34066947Y7249208D01*
X34061491Y7260117D01*
X34061491Y7276482D01*
X34088765Y7276482D02*
G01*
X34061491Y7276482D01*
X34025492Y7347389D02*
G01*
X34025492Y7232845D01*
X33949129Y7347389D02*
G01*
X33949129Y7232845D01*
X34025492Y7292845D02*
G01*
X33949129Y7292845D01*
X33874946Y7347389D02*
G01*
X33874946Y7232845D01*
X33913130Y7347389D02*
G01*
X33836764Y7347389D01*
X33716765Y7347389D02*
G01*
X33716765Y7232845D01*
X33716765Y7347389D02*
G01*
X33667674Y7347389D01*
X33651311Y7341936D01*
X33645856Y7336482D01*
X33640402Y7325573D01*
X33640402Y7314664D01*
X33645856Y7303754D01*
X33651311Y7298298D01*
X33667674Y7292845D01*
X33716765Y7292845D02*
G01*
X33667674Y7292845D01*
X33651311Y7287389D01*
X33645856Y7281936D01*
X33640402Y7271026D01*
X33640402Y7254664D01*
X33645856Y7243754D01*
X33651311Y7238298D01*
X33667674Y7232845D01*
X33716765Y7232845D01*
X33571675Y7347389D02*
G01*
X33582584Y7341936D01*
X33593493Y7331026D01*
X33598947Y7320117D01*
X33604403Y7303754D01*
X33604403Y7276482D01*
X33598947Y7260117D01*
X33593493Y7249208D01*
X33582584Y7238298D01*
X33571675Y7232845D01*
X33549856Y7232845D01*
X33538947Y7238298D01*
X33528038Y7249208D01*
X33522584Y7260117D01*
X33517128Y7276482D01*
X33517128Y7303754D01*
X33522584Y7320117D01*
X33528038Y7331026D01*
X33538947Y7341936D01*
X33549856Y7347389D01*
X33571675Y7347389D01*
X33437492Y7347389D02*
G01*
X33481129Y7232845D01*
X33437492Y7347389D02*
G01*
X33393857Y7232845D01*
X33464766Y7271026D02*
G01*
X33410220Y7271026D01*
X33357858Y7347389D02*
G01*
X33357858Y7232845D01*
X33357858Y7347389D02*
G01*
X33308767Y7347389D01*
X33292402Y7341936D01*
X33286948Y7336482D01*
X33281493Y7325573D01*
X33281493Y7314664D01*
X33286948Y7303754D01*
X33292402Y7298298D01*
X33308767Y7292845D01*
X33357858Y7292845D01*
X33319674Y7292845D02*
G01*
X33281493Y7232845D01*
X33245493Y7347389D02*
G01*
X33245493Y7232845D01*
X33245493Y7347389D02*
G01*
X33207312Y7347389D01*
X33190949Y7341936D01*
X33180040Y7331026D01*
X33174584Y7320117D01*
X33169131Y7303754D01*
X33169131Y7276482D01*
X33174584Y7260117D01*
X33180040Y7249208D01*
X33190949Y7238298D01*
X33207312Y7232845D01*
X33245493Y7232845D01*
X34589346Y6532717D02*
G01*
X34589346Y6538173D01*
X34583890Y6549082D01*
X34578437Y6554536D01*
X34567528Y6559989D01*
X34545709Y6559989D01*
X34534800Y6554536D01*
X34529346Y6549082D01*
X34523890Y6538173D01*
X34523890Y6527264D01*
X34529346Y6516354D01*
X34540253Y6499989D01*
X34594800Y6445445D01*
X34518437Y6445445D01*
X34427891Y6559989D02*
G01*
X34482435Y6483626D01*
X34400619Y6483626D01*
X34427891Y6559989D02*
G01*
X34427891Y6445445D01*
X34293710Y6521808D02*
G01*
X34299164Y6505445D01*
X34310073Y6494536D01*
X34326436Y6489082D01*
X34331892Y6489082D01*
X34348254Y6494536D01*
X34359164Y6505445D01*
X34364617Y6521808D01*
X34364617Y6527264D01*
X34359164Y6543626D01*
X34348254Y6554536D01*
X34331892Y6559989D01*
X34326436Y6559989D01*
X34310073Y6554536D01*
X34299164Y6543626D01*
X34293710Y6521808D01*
X34293710Y6494536D01*
X34299164Y6467264D01*
X34310073Y6450898D01*
X34326436Y6445445D01*
X34337345Y6445445D01*
X34353710Y6450898D01*
X34359164Y6461808D01*
X34224983Y6559989D02*
G01*
X34241346Y6554536D01*
X34252255Y6538173D01*
X34257708Y6510898D01*
X34257708Y6494536D01*
X34252255Y6467264D01*
X34241346Y6450898D01*
X34224983Y6445445D01*
X34214074Y6445445D01*
X34197709Y6450898D01*
X34186799Y6467264D01*
X34181346Y6494536D01*
X34181346Y6510898D01*
X34186799Y6538173D01*
X34197709Y6554536D01*
X34214074Y6559989D01*
X34224983Y6559989D01*
X34145347Y6494536D02*
G01*
X34047165Y6494536D01*
X33978438Y6559989D02*
G01*
X33994801Y6554536D01*
X34005710Y6538173D01*
X34011163Y6510898D01*
X34011163Y6494536D01*
X34005710Y6467264D01*
X33994801Y6450898D01*
X33978438Y6445445D01*
X33967529Y6445445D01*
X33951163Y6450898D01*
X33940254Y6467264D01*
X33934801Y6494536D01*
X33934801Y6510898D01*
X33940254Y6538173D01*
X33951163Y6554536D01*
X33967529Y6559989D01*
X33978438Y6559989D01*
X33887892Y6559989D02*
G01*
X33827892Y6559989D01*
X33860620Y6516354D01*
X33844255Y6516354D01*
X33833346Y6510898D01*
X33827892Y6505445D01*
X33822436Y6489082D01*
X33822436Y6478173D01*
X33827892Y6461808D01*
X33838802Y6450898D01*
X33855164Y6445445D01*
X33871529Y6445445D01*
X33887892Y6450898D01*
X33893345Y6456354D01*
X33898801Y6467264D01*
X33753712Y6559989D02*
G01*
X33770074Y6554536D01*
X33780984Y6538173D01*
X33786437Y6510898D01*
X33786437Y6494536D01*
X33780984Y6467264D01*
X33770074Y6450898D01*
X33753712Y6445445D01*
X33742802Y6445445D01*
X33726437Y6450898D01*
X33715528Y6467264D01*
X33710074Y6494536D01*
X33710074Y6510898D01*
X33715528Y6538173D01*
X33726437Y6554536D01*
X33742802Y6559989D01*
X33753712Y6559989D01*
X33668619Y6532717D02*
G01*
X33668619Y6538173D01*
X33663166Y6549082D01*
X33657710Y6554536D01*
X33646800Y6559989D01*
X33624984Y6559989D01*
X33614075Y6554536D01*
X33608619Y6549082D01*
X33603166Y6538173D01*
X33603166Y6527264D01*
X33608619Y6516354D01*
X33619528Y6499989D01*
X33674075Y6445445D01*
X33597710Y6445445D01*
X33477710Y6559989D02*
G01*
X33434075Y6445445D01*
X33390438Y6559989D02*
G01*
X33434075Y6445445D01*
X33321711Y6559989D02*
G01*
X33338074Y6554536D01*
X33348983Y6538173D01*
X33354439Y6510898D01*
X33354439Y6494536D01*
X33348983Y6467264D01*
X33338074Y6450898D01*
X33321711Y6445445D01*
X33310802Y6445445D01*
X33294439Y6450898D01*
X33283530Y6467264D01*
X33278074Y6494536D01*
X33278074Y6510898D01*
X33283530Y6538173D01*
X33294439Y6554536D01*
X33310802Y6559989D01*
X33321711Y6559989D01*
X33236621Y6472717D02*
G01*
X33242074Y6467264D01*
X33236621Y6461808D01*
X33231165Y6467264D01*
X33236621Y6472717D01*
X33195166Y6538173D02*
G01*
X33184256Y6543626D01*
X33167894Y6559989D01*
X33167894Y6445445D01*
X33667700Y7042589D02*
G01*
X33667700Y6928045D01*
X33667700Y7042589D02*
G01*
X33618609Y7042589D01*
X33602246Y7037136D01*
X33596790Y7031682D01*
X33591337Y7020773D01*
X33591337Y7009864D01*
X33596790Y6998954D01*
X33602246Y6993498D01*
X33618609Y6988045D01*
X33667700Y6988045D02*
G01*
X33618609Y6988045D01*
X33602246Y6982589D01*
X33596790Y6977136D01*
X33591337Y6966226D01*
X33591337Y6949864D01*
X33596790Y6938954D01*
X33602246Y6933498D01*
X33618609Y6928045D01*
X33667700Y6928045D01*
X33522610Y7042589D02*
G01*
X33533519Y7037136D01*
X33544428Y7026226D01*
X33549882Y7015317D01*
X33555335Y6998954D01*
X33555335Y6971682D01*
X33549882Y6955317D01*
X33544428Y6944408D01*
X33533519Y6933498D01*
X33522610Y6928045D01*
X33500791Y6928045D01*
X33489882Y6933498D01*
X33478972Y6944408D01*
X33473519Y6955317D01*
X33468063Y6971682D01*
X33468063Y6998954D01*
X33473519Y7015317D01*
X33478972Y7026226D01*
X33489882Y7037136D01*
X33500791Y7042589D01*
X33522610Y7042589D01*
X33393882Y7042589D02*
G01*
X33393882Y6928045D01*
X33432064Y7042589D02*
G01*
X33355701Y7042589D01*
X33281518Y7042589D02*
G01*
X33281518Y6928045D01*
X33319699Y7042589D02*
G01*
X33243337Y7042589D01*
X33174609Y7042589D02*
G01*
X33185519Y7037136D01*
X33196428Y7026226D01*
X33201881Y7015317D01*
X33207337Y6998954D01*
X33207337Y6971682D01*
X33201881Y6955317D01*
X33196428Y6944408D01*
X33185519Y6933498D01*
X33174609Y6928045D01*
X33152791Y6928045D01*
X33141881Y6933498D01*
X33130972Y6944408D01*
X33125519Y6955317D01*
X33120065Y6971682D01*
X33120065Y6998954D01*
X33125519Y7015317D01*
X33130972Y7026226D01*
X33141881Y7037136D01*
X33152791Y7042589D01*
X33174609Y7042589D01*
X33084063Y7042589D02*
G01*
X33084063Y6928045D01*
X33084063Y7042589D02*
G01*
X33040429Y6928045D01*
X32996792Y7042589D02*
G01*
X33040429Y6928045D01*
X32996792Y7042589D02*
G01*
X32996792Y6928045D01*
X34747200Y7537889D02*
G01*
X34747200Y7423345D01*
X34747200Y7537889D02*
G01*
X34670837Y7423345D01*
X34670837Y7537889D02*
G01*
X34670837Y7423345D01*
X34591200Y7537889D02*
G01*
X34634835Y7423345D01*
X34591200Y7537889D02*
G01*
X34547563Y7423345D01*
X34618472Y7461526D02*
G01*
X34563928Y7461526D01*
X34511564Y7537889D02*
G01*
X34511564Y7423345D01*
X34511564Y7537889D02*
G01*
X34435201Y7423345D01*
X34435201Y7537889D02*
G01*
X34435201Y7423345D01*
X34366474Y7537889D02*
G01*
X34377383Y7532436D01*
X34388290Y7521526D01*
X34393746Y7510617D01*
X34399199Y7494254D01*
X34399199Y7466982D01*
X34393746Y7450617D01*
X34388290Y7439708D01*
X34377383Y7428798D01*
X34366474Y7423345D01*
X34344655Y7423345D01*
X34333746Y7428798D01*
X34322837Y7439708D01*
X34317383Y7450617D01*
X34311927Y7466982D01*
X34311927Y7494254D01*
X34317383Y7510617D01*
X34322837Y7521526D01*
X34333746Y7532436D01*
X34344655Y7537889D01*
X34366474Y7537889D01*
X34275928Y7537889D02*
G01*
X34275928Y7423345D01*
X34275928Y7537889D02*
G01*
X34232291Y7423345D01*
X34188656Y7537889D02*
G01*
X34232291Y7423345D01*
X34188656Y7537889D02*
G01*
X34188656Y7423345D01*
X34152654Y7537889D02*
G01*
X34152654Y7423345D01*
X34073020Y7537889D02*
G01*
X34116655Y7423345D01*
X34073020Y7537889D02*
G01*
X34029383Y7423345D01*
X34100292Y7461526D02*
G01*
X34045745Y7461526D01*
X33909383Y7537889D02*
G01*
X33909383Y7456073D01*
X33903930Y7439708D01*
X33893020Y7428798D01*
X33876655Y7423345D01*
X33865746Y7423345D01*
X33849383Y7428798D01*
X33838474Y7439708D01*
X33833020Y7456073D01*
X33833020Y7537889D01*
X33797019Y7537889D02*
G01*
X33797019Y7423345D01*
X33797019Y7423345D02*
G01*
X33731565Y7423345D01*
X33657385Y7537889D02*
G01*
X33657385Y7423345D01*
X33695566Y7537889D02*
G01*
X33619201Y7537889D01*
X33583201Y7537889D02*
G01*
X33583201Y7423345D01*
X33583201Y7537889D02*
G01*
X33534111Y7537889D01*
X33517748Y7532436D01*
X33512292Y7526982D01*
X33506839Y7516073D01*
X33506839Y7505164D01*
X33512292Y7494254D01*
X33517748Y7488798D01*
X33534111Y7483345D01*
X33583201Y7483345D01*
X33545020Y7483345D02*
G01*
X33506839Y7423345D01*
X33427202Y7537889D02*
G01*
X33470839Y7423345D01*
X33427202Y7537889D02*
G01*
X33383565Y7423345D01*
X33454474Y7461526D02*
G01*
X33399930Y7461526D01*
X33271203Y7521526D02*
G01*
X33282112Y7532436D01*
X33298475Y7537889D01*
X33320294Y7537889D01*
X33336656Y7532436D01*
X33347566Y7521526D01*
X33347566Y7510617D01*
X33342112Y7499708D01*
X33336656Y7494254D01*
X33325747Y7488798D01*
X33293022Y7477889D01*
X33282112Y7472436D01*
X33276656Y7466982D01*
X33271203Y7456073D01*
X33271203Y7439708D01*
X33282112Y7428798D01*
X33298475Y7423345D01*
X33320294Y7423345D01*
X33336656Y7428798D01*
X33347566Y7439708D01*
X33235204Y7537889D02*
G01*
X33235204Y7423345D01*
X33235204Y7537889D02*
G01*
X33164294Y7537889D01*
X33235204Y7483345D02*
G01*
X33191566Y7483345D01*
X33235204Y7423345D02*
G01*
X33164294Y7423345D01*
X33095567Y7537889D02*
G01*
X33106476Y7532436D01*
X33117386Y7521526D01*
X33122839Y7510617D01*
X33128292Y7494254D01*
X33128292Y7466982D01*
X33122839Y7450617D01*
X33117386Y7439708D01*
X33106476Y7428798D01*
X33095567Y7423345D01*
X33073748Y7423345D01*
X33062839Y7428798D01*
X33051930Y7439708D01*
X33046476Y7450617D01*
X33041021Y7466982D01*
X33041021Y7494254D01*
X33046476Y7510617D01*
X33051930Y7521526D01*
X33062839Y7532436D01*
X33073748Y7537889D01*
X33095567Y7537889D01*
X33079202Y7445164D02*
G01*
X33046476Y7412436D01*
X34505900Y5201064D02*
G01*
X34505900Y5086520D01*
X34505900Y5201064D02*
G01*
X34456809Y5201064D01*
X34440446Y5195610D01*
X34434990Y5190157D01*
X34429537Y5179247D01*
X34429537Y5162882D01*
X34434990Y5151973D01*
X34440446Y5146520D01*
X34456809Y5141064D01*
X34505900Y5141064D01*
X34349900Y5201064D02*
G01*
X34393535Y5086520D01*
X34349900Y5201064D02*
G01*
X34306263Y5086520D01*
X34377172Y5124701D02*
G01*
X34322628Y5124701D01*
X34270264Y5201064D02*
G01*
X34270264Y5086520D01*
X34270264Y5201064D02*
G01*
X34221173Y5201064D01*
X34204810Y5195610D01*
X34199355Y5190157D01*
X34193901Y5179247D01*
X34193901Y5168338D01*
X34199355Y5157429D01*
X34204810Y5151973D01*
X34221173Y5146520D01*
X34270264Y5146520D01*
X34232082Y5146520D02*
G01*
X34193901Y5086520D01*
X34119718Y5201064D02*
G01*
X34119718Y5086520D01*
X34157899Y5201064D02*
G01*
X34081537Y5201064D01*
X33961537Y5201064D02*
G01*
X33961537Y5086520D01*
X33961537Y5201064D02*
G01*
X33885174Y5086520D01*
X33885174Y5201064D02*
G01*
X33885174Y5086520D01*
X33849172Y5201064D02*
G01*
X33849172Y5119248D01*
X33843719Y5102882D01*
X33832810Y5091973D01*
X33816447Y5086520D01*
X33805538Y5086520D01*
X33789172Y5091973D01*
X33778266Y5102882D01*
X33772810Y5119248D01*
X33772810Y5201064D01*
X33736810Y5201064D02*
G01*
X33736810Y5086520D01*
X33736810Y5201064D02*
G01*
X33693173Y5086520D01*
X33649538Y5201064D02*
G01*
X33693173Y5086520D01*
X33649538Y5201064D02*
G01*
X33649538Y5086520D01*
X33613537Y5201064D02*
G01*
X33613537Y5086520D01*
X33613537Y5201064D02*
G01*
X33564446Y5201064D01*
X33548083Y5195610D01*
X33542630Y5190157D01*
X33537174Y5179247D01*
X33537174Y5168338D01*
X33542630Y5157429D01*
X33548083Y5151973D01*
X33564446Y5146520D01*
X33613537Y5146520D02*
G01*
X33564446Y5146520D01*
X33548083Y5141064D01*
X33542630Y5135610D01*
X33537174Y5124701D01*
X33537174Y5108338D01*
X33542630Y5097429D01*
X33548083Y5091973D01*
X33564446Y5086520D01*
X33613537Y5086520D01*
X33501175Y5201064D02*
G01*
X33501175Y5086520D01*
X33501175Y5201064D02*
G01*
X33430265Y5201064D01*
X33501175Y5146520D02*
G01*
X33457537Y5146520D01*
X33501175Y5086520D02*
G01*
X33430265Y5086520D01*
X33394266Y5201064D02*
G01*
X33394266Y5086520D01*
X33394266Y5201064D02*
G01*
X33345175Y5201064D01*
X33328810Y5195610D01*
X33323357Y5190157D01*
X33317901Y5179247D01*
X33317901Y5168338D01*
X33323357Y5157429D01*
X33328810Y5151973D01*
X33345175Y5146520D01*
X33394266Y5146520D01*
X33356085Y5146520D02*
G01*
X33317901Y5086520D01*
X34589346Y4995992D02*
G01*
X34589346Y5001447D01*
X34583890Y5012357D01*
X34578437Y5017810D01*
X34567528Y5023264D01*
X34545709Y5023264D01*
X34534800Y5017810D01*
X34529346Y5012357D01*
X34523890Y5001447D01*
X34523890Y4990538D01*
X34529346Y4979629D01*
X34540253Y4963264D01*
X34594800Y4908720D01*
X34518437Y4908720D01*
X34427891Y5023264D02*
G01*
X34482435Y4946901D01*
X34400619Y4946901D01*
X34427891Y5023264D02*
G01*
X34427891Y4908720D01*
X34293710Y4985082D02*
G01*
X34299164Y4968720D01*
X34310073Y4957810D01*
X34326436Y4952357D01*
X34331892Y4952357D01*
X34348254Y4957810D01*
X34359164Y4968720D01*
X34364617Y4985082D01*
X34364617Y4990538D01*
X34359164Y5006901D01*
X34348254Y5017810D01*
X34331892Y5023264D01*
X34326436Y5023264D01*
X34310073Y5017810D01*
X34299164Y5006901D01*
X34293710Y4985082D01*
X34293710Y4957810D01*
X34299164Y4930538D01*
X34310073Y4914173D01*
X34326436Y4908720D01*
X34337345Y4908720D01*
X34353710Y4914173D01*
X34359164Y4925082D01*
X34224983Y5023264D02*
G01*
X34241346Y5017810D01*
X34252255Y5001447D01*
X34257708Y4974173D01*
X34257708Y4957810D01*
X34252255Y4930538D01*
X34241346Y4914173D01*
X34224983Y4908720D01*
X34214074Y4908720D01*
X34197709Y4914173D01*
X34186799Y4930538D01*
X34181346Y4957810D01*
X34181346Y4974173D01*
X34186799Y5001447D01*
X34197709Y5017810D01*
X34214074Y5023264D01*
X34224983Y5023264D01*
X34145347Y4957810D02*
G01*
X34047165Y4957810D01*
X33978438Y5023264D02*
G01*
X33994801Y5017810D01*
X34005710Y5001447D01*
X34011163Y4974173D01*
X34011163Y4957810D01*
X34005710Y4930538D01*
X33994801Y4914173D01*
X33978438Y4908720D01*
X33967529Y4908720D01*
X33951163Y4914173D01*
X33940254Y4930538D01*
X33934801Y4957810D01*
X33934801Y4974173D01*
X33940254Y5001447D01*
X33951163Y5017810D01*
X33967529Y5023264D01*
X33978438Y5023264D01*
X33887892Y5023264D02*
G01*
X33827892Y5023264D01*
X33860620Y4979629D01*
X33844255Y4979629D01*
X33833346Y4974173D01*
X33827892Y4968720D01*
X33822436Y4952357D01*
X33822436Y4941448D01*
X33827892Y4925082D01*
X33838802Y4914173D01*
X33855164Y4908720D01*
X33871529Y4908720D01*
X33887892Y4914173D01*
X33893345Y4919629D01*
X33898801Y4930538D01*
X33753712Y5023264D02*
G01*
X33770074Y5017810D01*
X33780984Y5001447D01*
X33786437Y4974173D01*
X33786437Y4957810D01*
X33780984Y4930538D01*
X33770074Y4914173D01*
X33753712Y4908720D01*
X33742802Y4908720D01*
X33726437Y4914173D01*
X33715528Y4930538D01*
X33710074Y4957810D01*
X33710074Y4974173D01*
X33715528Y5001447D01*
X33726437Y5017810D01*
X33742802Y5023264D01*
X33753712Y5023264D01*
X33668619Y4995992D02*
G01*
X33668619Y5001447D01*
X33663166Y5012357D01*
X33657710Y5017810D01*
X33646800Y5023264D01*
X33624984Y5023264D01*
X33614075Y5017810D01*
X33608619Y5012357D01*
X33603166Y5001447D01*
X33603166Y4990538D01*
X33608619Y4979629D01*
X33619528Y4963264D01*
X33674075Y4908720D01*
X33597710Y4908720D01*
X33477710Y5023264D02*
G01*
X33434075Y4908720D01*
X33390438Y5023264D02*
G01*
X33434075Y4908720D01*
X33321711Y5023264D02*
G01*
X33338074Y5017810D01*
X33348983Y5001447D01*
X33354439Y4974173D01*
X33354439Y4957810D01*
X33348983Y4930538D01*
X33338074Y4914173D01*
X33321711Y4908720D01*
X33310802Y4908720D01*
X33294439Y4914173D01*
X33283530Y4930538D01*
X33278074Y4957810D01*
X33278074Y4974173D01*
X33283530Y5001447D01*
X33294439Y5017810D01*
X33310802Y5023264D01*
X33321711Y5023264D01*
X33236621Y4935992D02*
G01*
X33242074Y4930538D01*
X33236621Y4925082D01*
X33231165Y4930538D01*
X33236621Y4935992D01*
X33195166Y5001447D02*
G01*
X33184256Y5006901D01*
X33167894Y5023264D01*
X33167894Y4908720D01*
D12*
X45484046Y6755709D02*
G01*
X45484046Y6682981D01*
X45488590Y6669346D01*
X45493137Y6664799D01*
X45502228Y6660253D01*
X45511318Y6660253D01*
X45520409Y6664799D01*
X45524953Y6669346D01*
X45529500Y6682981D01*
X45529500Y6692071D01*
X45454046Y6737527D02*
G01*
X45444953Y6742071D01*
X45431318Y6755709D01*
X45431318Y6660253D01*
D13*
X45364400Y6407200D02*
G01*
X45554900Y6407200D01*
X45366000Y6610299D02*
G01*
X45366000Y5810300D01*
X45565999Y5810300D01*
X45565999Y6610299D01*
X45366000Y6610299D01*
M02*
