M48
METRIC,LZ,000.000
;FILE_FORMAT=3:3
;TYPE=PLATED
;Layer: PTH_Through
;EasyEDA v6.5.34, 2023-08-10 19:26:28
;b0001c0d98ad43d6911fc97ed176d0b1,5a6b42c53f6a479593ecc07194224c93,10
;Gerber Generator version 0.2
;Holesize 1 = 0.305 mm
T01C0.305
;Holesize 2 = 0.310 mm
T02C0.310
;Holesize 3 = 0.901 mm
T03C0.901
;Holesize 4 = 2.120 mm
T04C2.120
%
G05
G90
T01
X174879Y078486
X162687Y078486
X134239Y078486
X122047Y078486
X109855Y078486
X097663Y078486
X085471Y078486
X073279Y078486
X061087Y078486
X048895Y078486
T02
X171929Y076233
X159737Y076233
X131289Y076233
X119097Y076233
X106905Y076233
X094713Y076233
X082521Y076233
X070329Y076233
X058137Y076233
X045945Y076233
T03
X143764Y059103
X143764Y061103
X143764Y063103
X143764Y065103
T04
X143764Y069723
X143764Y054356
X027940Y069723
X027940Y054356
M30
