M48
METRIC,LZ,000.000
;FILE_FORMAT=3:3
;TYPE=PLATED
;Layer: PTH_Through_Via
;EasyEDA v6.5.29, 2023-07-19 20:11:26
;d82c07e130dc4937808a739b57af0cf3,5a6b42c53f6a479593ecc07194224c93,10
;Gerber Generator version 0.2
;Holesize 1 = 0.305 mm
T01C0.305
%
G05
G90
T01
X013843Y117221
X025908Y117221
X037973Y117221
X037973Y101981
X025781Y101981
X013843Y101981
X037338Y114766
X025273Y114766
X033782Y115866
X021717Y115866
X009652Y115866
X027432Y116459
X014901Y116459
X013208Y099526
X025146Y099526
X037338Y099441
X033528Y100076
X021336Y100203
X009398Y100203
X038735Y085471
X002540Y085471
X014605Y098522
X013716Y098552
X020955Y024892
X019939Y013970
X026035Y018796
X014859Y020066
X028855Y017780
X030480Y011049
X010160Y011049
X018161Y102616
X015875Y099568
X027178Y098806
X018161Y115062
X010160Y087376
X030480Y087376
X034417Y087376
X005969Y087376
X017780Y087376
X022860Y087376
M30
