G04 Layer: BottomLayer*
G04 EasyEDA v6.5.34, 2023-08-10 18:14:54*
G04 9b39919d3bca49e6becb9180a70721ca,5a6b42c53f6a479593ecc07194224c93,10*
G04 Gerber Generator version 0.2*
G04 Scale: 100 percent, Rotated: No, Reflected: No *
G04 Dimensions in millimeters *
G04 leading zeros omitted , absolute positions ,4 integer and 5 decimal *
%FSLAX45Y45*%
%MOMM*%

%ADD10C,3.0000*%

%LPD*%
G36*
X2068068Y25908D02*
G01*
X2064156Y26670D01*
X2060905Y28905D01*
X2058670Y32156D01*
X2057907Y36068D01*
X2057907Y8066531D01*
X2058670Y8070443D01*
X2060905Y8073694D01*
X2064156Y8075930D01*
X2068068Y8076692D01*
X46191932Y8076692D01*
X46195843Y8075930D01*
X46199094Y8073694D01*
X46201330Y8070443D01*
X46202092Y8066531D01*
X46202092Y36068D01*
X46201330Y32156D01*
X46199094Y28905D01*
X46195843Y26670D01*
X46191932Y25908D01*
G37*

%LPC*%
G36*
X18144540Y7646517D02*
G01*
X18159679Y7647431D01*
X18174665Y7650175D01*
X18189143Y7654696D01*
X18203011Y7660944D01*
X18216016Y7668818D01*
X18228005Y7678166D01*
X18238724Y7688935D01*
X18248122Y7700873D01*
X18255996Y7713878D01*
X18262244Y7727746D01*
X18266765Y7742275D01*
X18269508Y7757210D01*
X18270423Y7772400D01*
X18269508Y7787589D01*
X18266765Y7802524D01*
X18262244Y7817053D01*
X18255996Y7830921D01*
X18248122Y7843926D01*
X18238724Y7855864D01*
X18228005Y7866634D01*
X18216016Y7875981D01*
X18203011Y7883855D01*
X18189143Y7890103D01*
X18174665Y7894624D01*
X18159679Y7897368D01*
X18144540Y7898282D01*
X18129351Y7897368D01*
X18114365Y7894624D01*
X18099887Y7890103D01*
X18086019Y7883855D01*
X18073014Y7875981D01*
X18061025Y7866634D01*
X18050306Y7855864D01*
X18040908Y7843926D01*
X18033034Y7830921D01*
X18026786Y7817053D01*
X18022265Y7802524D01*
X18019522Y7787589D01*
X18018607Y7772400D01*
X18019522Y7757210D01*
X18022265Y7742275D01*
X18026786Y7727746D01*
X18033034Y7713878D01*
X18040908Y7700873D01*
X18050306Y7688935D01*
X18061025Y7678166D01*
X18073014Y7668818D01*
X18086019Y7660944D01*
X18099887Y7654696D01*
X18114365Y7650175D01*
X18129351Y7647431D01*
G37*
G36*
X43752058Y4714341D02*
G01*
X43922391Y4714341D01*
X43928690Y4715103D01*
X43934176Y4716983D01*
X43939053Y4720082D01*
X43943168Y4724146D01*
X43946216Y4729073D01*
X43948146Y4734509D01*
X43948858Y4740859D01*
X43948858Y4939131D01*
X43949620Y4943043D01*
X43951855Y4946345D01*
X43955106Y4948529D01*
X43959018Y4949291D01*
X44297041Y4949291D01*
X44303340Y4950053D01*
X44308826Y4951933D01*
X44313703Y4955032D01*
X44317818Y4959096D01*
X44320866Y4964023D01*
X44322796Y4969459D01*
X44323508Y4975809D01*
X44323508Y6035090D01*
X44322796Y6041440D01*
X44320866Y6046876D01*
X44317818Y6051804D01*
X44313703Y6055868D01*
X44308826Y6058966D01*
X44303340Y6060846D01*
X44297041Y6061557D01*
X43383758Y6061557D01*
X43377459Y6060846D01*
X43371973Y6058966D01*
X43367096Y6055868D01*
X43362981Y6051804D01*
X43359933Y6046876D01*
X43358003Y6041440D01*
X43357292Y6035090D01*
X43357292Y4975809D01*
X43358003Y4969459D01*
X43359933Y4964023D01*
X43362981Y4959096D01*
X43367096Y4955032D01*
X43371973Y4951933D01*
X43377459Y4950053D01*
X43383758Y4949291D01*
X43715432Y4949291D01*
X43719343Y4948529D01*
X43722594Y4946345D01*
X43724830Y4943043D01*
X43725592Y4939131D01*
X43725592Y4740859D01*
X43726303Y4734509D01*
X43728233Y4729073D01*
X43731281Y4724146D01*
X43735396Y4720082D01*
X43740273Y4716983D01*
X43745759Y4715103D01*
G37*
G36*
X42532858Y4714341D02*
G01*
X42703191Y4714341D01*
X42709490Y4715103D01*
X42714976Y4716983D01*
X42719853Y4720082D01*
X42723968Y4724146D01*
X42727016Y4729073D01*
X42728946Y4734509D01*
X42729658Y4740859D01*
X42729658Y4939131D01*
X42730420Y4943043D01*
X42732655Y4946345D01*
X42735906Y4948529D01*
X42739818Y4949291D01*
X43077841Y4949291D01*
X43084140Y4950053D01*
X43089626Y4951933D01*
X43094503Y4955032D01*
X43098618Y4959096D01*
X43101666Y4964023D01*
X43103596Y4969459D01*
X43104308Y4975809D01*
X43104308Y6035090D01*
X43103596Y6041440D01*
X43101666Y6046876D01*
X43098618Y6051804D01*
X43094503Y6055868D01*
X43089626Y6058966D01*
X43084140Y6060846D01*
X43077841Y6061557D01*
X42164558Y6061557D01*
X42158259Y6060846D01*
X42152773Y6058966D01*
X42147896Y6055868D01*
X42143781Y6051804D01*
X42140733Y6046876D01*
X42138803Y6041440D01*
X42138092Y6035090D01*
X42138092Y4975809D01*
X42138803Y4969459D01*
X42140733Y4964023D01*
X42143781Y4959096D01*
X42147896Y4955032D01*
X42152773Y4951933D01*
X42158259Y4950053D01*
X42164558Y4949291D01*
X42496232Y4949291D01*
X42500143Y4948529D01*
X42503394Y4946345D01*
X42505630Y4943043D01*
X42506392Y4939131D01*
X42506392Y4740859D01*
X42507103Y4734509D01*
X42509033Y4729073D01*
X42512081Y4724146D01*
X42516196Y4720082D01*
X42521073Y4716983D01*
X42526559Y4715103D01*
G37*
G36*
X41313658Y4714341D02*
G01*
X41483991Y4714341D01*
X41490290Y4715103D01*
X41495776Y4716983D01*
X41500653Y4720082D01*
X41504768Y4724146D01*
X41507816Y4729073D01*
X41509746Y4734509D01*
X41510458Y4740859D01*
X41510458Y4939131D01*
X41511220Y4943043D01*
X41513455Y4946345D01*
X41516706Y4948529D01*
X41520618Y4949291D01*
X41858641Y4949291D01*
X41864940Y4950053D01*
X41870426Y4951933D01*
X41875303Y4955032D01*
X41879418Y4959096D01*
X41882466Y4964023D01*
X41884396Y4969459D01*
X41885108Y4975809D01*
X41885108Y6035090D01*
X41884396Y6041440D01*
X41882466Y6046876D01*
X41879418Y6051804D01*
X41875303Y6055868D01*
X41870426Y6058966D01*
X41864940Y6060846D01*
X41858641Y6061557D01*
X40945358Y6061557D01*
X40939059Y6060846D01*
X40933573Y6058966D01*
X40928696Y6055868D01*
X40924581Y6051804D01*
X40921533Y6046876D01*
X40919603Y6041440D01*
X40918892Y6035090D01*
X40918892Y4975809D01*
X40919603Y4969459D01*
X40921533Y4964023D01*
X40924581Y4959096D01*
X40928696Y4955032D01*
X40933573Y4951933D01*
X40939059Y4950053D01*
X40945358Y4949291D01*
X41277032Y4949291D01*
X41280943Y4948529D01*
X41284194Y4946345D01*
X41286430Y4943043D01*
X41287192Y4939131D01*
X41287192Y4740859D01*
X41287903Y4734509D01*
X41289833Y4729073D01*
X41292881Y4724146D01*
X41296996Y4720082D01*
X41301873Y4716983D01*
X41307359Y4715103D01*
G37*
G36*
X40094458Y4714341D02*
G01*
X40264791Y4714341D01*
X40271090Y4715103D01*
X40276576Y4716983D01*
X40281453Y4720082D01*
X40285568Y4724146D01*
X40288616Y4729073D01*
X40290546Y4734509D01*
X40291258Y4740859D01*
X40291258Y4939131D01*
X40292020Y4943043D01*
X40294255Y4946345D01*
X40297506Y4948529D01*
X40301418Y4949291D01*
X40639441Y4949291D01*
X40645740Y4950053D01*
X40651226Y4951933D01*
X40656103Y4955032D01*
X40660218Y4959096D01*
X40663266Y4964023D01*
X40665196Y4969459D01*
X40665908Y4975809D01*
X40665908Y6035090D01*
X40665196Y6041440D01*
X40663266Y6046876D01*
X40660218Y6051804D01*
X40656103Y6055868D01*
X40651226Y6058966D01*
X40645740Y6060846D01*
X40639441Y6061557D01*
X39726158Y6061557D01*
X39719859Y6060846D01*
X39714373Y6058966D01*
X39709496Y6055868D01*
X39705381Y6051804D01*
X39702333Y6046876D01*
X39700403Y6041440D01*
X39699692Y6035090D01*
X39699692Y4975809D01*
X39700403Y4969459D01*
X39702333Y4964023D01*
X39705381Y4959096D01*
X39709496Y4955032D01*
X39714373Y4951933D01*
X39719859Y4950053D01*
X39726158Y4949291D01*
X40057832Y4949291D01*
X40061743Y4948529D01*
X40064994Y4946345D01*
X40067230Y4943043D01*
X40067992Y4939131D01*
X40067992Y4740859D01*
X40068703Y4734509D01*
X40070633Y4729073D01*
X40073681Y4724146D01*
X40077796Y4720082D01*
X40082673Y4716983D01*
X40088159Y4715103D01*
G37*
G36*
X38875258Y4714341D02*
G01*
X39045591Y4714341D01*
X39051890Y4715103D01*
X39057376Y4716983D01*
X39062253Y4720082D01*
X39066368Y4724146D01*
X39069416Y4729073D01*
X39071346Y4734509D01*
X39072058Y4740859D01*
X39072058Y4939131D01*
X39072820Y4943043D01*
X39075055Y4946345D01*
X39078306Y4948529D01*
X39082218Y4949291D01*
X39420241Y4949291D01*
X39426540Y4950053D01*
X39432026Y4951933D01*
X39436903Y4955032D01*
X39441018Y4959096D01*
X39444066Y4964023D01*
X39445996Y4969459D01*
X39446708Y4975809D01*
X39446708Y6035090D01*
X39445996Y6041440D01*
X39444066Y6046876D01*
X39441018Y6051804D01*
X39436903Y6055868D01*
X39432026Y6058966D01*
X39426540Y6060846D01*
X39420241Y6061557D01*
X38506958Y6061557D01*
X38500659Y6060846D01*
X38495173Y6058966D01*
X38490296Y6055868D01*
X38486181Y6051804D01*
X38483133Y6046876D01*
X38481203Y6041440D01*
X38480492Y6035090D01*
X38480492Y4975809D01*
X38481203Y4969459D01*
X38483133Y4964023D01*
X38486181Y4959096D01*
X38490296Y4955032D01*
X38495173Y4951933D01*
X38500659Y4950053D01*
X38506958Y4949291D01*
X38838632Y4949291D01*
X38842543Y4948529D01*
X38845794Y4946345D01*
X38848030Y4943043D01*
X38848792Y4939131D01*
X38848792Y4740859D01*
X38849503Y4734509D01*
X38851433Y4729073D01*
X38854481Y4724146D01*
X38858596Y4720082D01*
X38863473Y4716983D01*
X38868959Y4715103D01*
G37*
G36*
X37656058Y4714341D02*
G01*
X37826391Y4714341D01*
X37832690Y4715103D01*
X37838176Y4716983D01*
X37843053Y4720082D01*
X37847168Y4724146D01*
X37850216Y4729073D01*
X37852146Y4734509D01*
X37852858Y4740859D01*
X37852858Y4939131D01*
X37853620Y4943043D01*
X37855855Y4946345D01*
X37859106Y4948529D01*
X37863018Y4949291D01*
X38201041Y4949291D01*
X38207340Y4950053D01*
X38212826Y4951933D01*
X38217703Y4955032D01*
X38221818Y4959096D01*
X38224866Y4964023D01*
X38226796Y4969459D01*
X38227508Y4975809D01*
X38227508Y6035090D01*
X38226796Y6041440D01*
X38224866Y6046876D01*
X38221818Y6051804D01*
X38217703Y6055868D01*
X38212826Y6058966D01*
X38207340Y6060846D01*
X38201041Y6061557D01*
X37287758Y6061557D01*
X37281459Y6060846D01*
X37275973Y6058966D01*
X37271096Y6055868D01*
X37266981Y6051804D01*
X37263933Y6046876D01*
X37262003Y6041440D01*
X37261292Y6035090D01*
X37261292Y4975809D01*
X37262003Y4969459D01*
X37263933Y4964023D01*
X37266981Y4959096D01*
X37271096Y4955032D01*
X37275973Y4951933D01*
X37281459Y4950053D01*
X37287758Y4949291D01*
X37619432Y4949291D01*
X37623343Y4948529D01*
X37626594Y4946345D01*
X37628830Y4943043D01*
X37629592Y4939131D01*
X37629592Y4740859D01*
X37630303Y4734509D01*
X37632233Y4729073D01*
X37635281Y4724146D01*
X37639396Y4720082D01*
X37644273Y4716983D01*
X37649759Y4715103D01*
G37*
G36*
X32372858Y4714341D02*
G01*
X32543191Y4714341D01*
X32549490Y4715103D01*
X32554976Y4716983D01*
X32559853Y4720082D01*
X32563968Y4724146D01*
X32567016Y4729073D01*
X32568946Y4734509D01*
X32569658Y4740859D01*
X32569658Y4942332D01*
X32570420Y4946243D01*
X32572655Y4949494D01*
X32575906Y4951730D01*
X32579818Y4952492D01*
X32917841Y4952492D01*
X32924140Y4953203D01*
X32929626Y4955133D01*
X32934503Y4958181D01*
X32938618Y4962296D01*
X32941666Y4967173D01*
X32943596Y4972659D01*
X32944308Y4978958D01*
X32944308Y6038291D01*
X32943596Y6044590D01*
X32941666Y6050076D01*
X32938618Y6054953D01*
X32934503Y6059068D01*
X32929626Y6062116D01*
X32924140Y6064046D01*
X32917841Y6064758D01*
X32004558Y6064758D01*
X31998259Y6064046D01*
X31992773Y6062116D01*
X31987896Y6059068D01*
X31983781Y6054953D01*
X31980733Y6050076D01*
X31978803Y6044590D01*
X31978092Y6038291D01*
X31978092Y4978958D01*
X31978803Y4972659D01*
X31980733Y4967173D01*
X31983781Y4962296D01*
X31987896Y4958181D01*
X31992773Y4955133D01*
X31998259Y4953203D01*
X32004558Y4952492D01*
X32336232Y4952492D01*
X32340143Y4951730D01*
X32343394Y4949494D01*
X32345630Y4946243D01*
X32346392Y4942332D01*
X32346392Y4740859D01*
X32347103Y4734509D01*
X32349033Y4729073D01*
X32352081Y4724146D01*
X32356196Y4720082D01*
X32361073Y4716983D01*
X32366559Y4715103D01*
G37*
G36*
X29934458Y4714341D02*
G01*
X30104791Y4714341D01*
X30111090Y4715103D01*
X30116576Y4716983D01*
X30121453Y4720082D01*
X30125568Y4724146D01*
X30128616Y4729073D01*
X30130546Y4734509D01*
X30131258Y4740859D01*
X30131258Y4942332D01*
X30132020Y4946243D01*
X30134255Y4949494D01*
X30137506Y4951730D01*
X30141418Y4952492D01*
X30479441Y4952492D01*
X30485740Y4953203D01*
X30491226Y4955133D01*
X30496103Y4958181D01*
X30500218Y4962296D01*
X30503266Y4967173D01*
X30505196Y4972659D01*
X30505908Y4978958D01*
X30505908Y6038291D01*
X30505196Y6044590D01*
X30503266Y6050076D01*
X30500218Y6054953D01*
X30496103Y6059068D01*
X30491226Y6062116D01*
X30485740Y6064046D01*
X30479441Y6064758D01*
X29566158Y6064758D01*
X29559859Y6064046D01*
X29554373Y6062116D01*
X29549496Y6059068D01*
X29545381Y6054953D01*
X29542333Y6050076D01*
X29540403Y6044590D01*
X29539692Y6038291D01*
X29539692Y4978958D01*
X29540403Y4972659D01*
X29542333Y4967173D01*
X29545381Y4962296D01*
X29549496Y4958181D01*
X29554373Y4955133D01*
X29559859Y4953203D01*
X29566158Y4952492D01*
X29897832Y4952492D01*
X29901743Y4951730D01*
X29904994Y4949494D01*
X29907230Y4946243D01*
X29907992Y4942332D01*
X29907992Y4740859D01*
X29908703Y4734509D01*
X29910633Y4729073D01*
X29913681Y4724146D01*
X29917796Y4720082D01*
X29922673Y4716983D01*
X29928159Y4715103D01*
G37*
G36*
X27496058Y4714341D02*
G01*
X27666391Y4714341D01*
X27672690Y4715103D01*
X27678176Y4716983D01*
X27683053Y4720082D01*
X27687168Y4724146D01*
X27690216Y4729073D01*
X27692146Y4734509D01*
X27692858Y4740859D01*
X27692858Y4942332D01*
X27693620Y4946243D01*
X27695855Y4949494D01*
X27699106Y4951730D01*
X27703018Y4952492D01*
X28041041Y4952492D01*
X28047340Y4953203D01*
X28052826Y4955133D01*
X28057703Y4958181D01*
X28061818Y4962296D01*
X28064866Y4967173D01*
X28066796Y4972659D01*
X28067508Y4978958D01*
X28067508Y6038291D01*
X28066796Y6044590D01*
X28064866Y6050076D01*
X28061818Y6054953D01*
X28057703Y6059068D01*
X28052826Y6062116D01*
X28047340Y6064046D01*
X28041041Y6064758D01*
X27127758Y6064758D01*
X27121459Y6064046D01*
X27115973Y6062116D01*
X27111096Y6059068D01*
X27106981Y6054953D01*
X27103933Y6050076D01*
X27102003Y6044590D01*
X27101292Y6038291D01*
X27101292Y4978958D01*
X27102003Y4972659D01*
X27103933Y4967173D01*
X27106981Y4962296D01*
X27111096Y4958181D01*
X27115973Y4955133D01*
X27121459Y4953203D01*
X27127758Y4952492D01*
X27459432Y4952492D01*
X27463343Y4951730D01*
X27466594Y4949494D01*
X27468830Y4946243D01*
X27469592Y4942332D01*
X27469592Y4740859D01*
X27470303Y4734509D01*
X27472233Y4729073D01*
X27475281Y4724146D01*
X27479396Y4720082D01*
X27484273Y4716983D01*
X27489759Y4715103D01*
G37*
G36*
X31153658Y4714341D02*
G01*
X31323991Y4714341D01*
X31330290Y4715103D01*
X31335776Y4716983D01*
X31340653Y4720082D01*
X31344768Y4724146D01*
X31347816Y4729073D01*
X31349746Y4734509D01*
X31350458Y4740859D01*
X31350458Y4942332D01*
X31351220Y4946243D01*
X31353455Y4949494D01*
X31356706Y4951730D01*
X31360618Y4952492D01*
X31698641Y4952492D01*
X31704940Y4953203D01*
X31710426Y4955133D01*
X31715303Y4958181D01*
X31719418Y4962296D01*
X31722466Y4967173D01*
X31724396Y4972659D01*
X31725108Y4978958D01*
X31725108Y6038291D01*
X31724396Y6044590D01*
X31722466Y6050076D01*
X31719418Y6054953D01*
X31715303Y6059068D01*
X31710426Y6062116D01*
X31704940Y6064046D01*
X31698641Y6064758D01*
X30785358Y6064758D01*
X30779059Y6064046D01*
X30773573Y6062116D01*
X30768696Y6059068D01*
X30764581Y6054953D01*
X30761533Y6050076D01*
X30759603Y6044590D01*
X30758892Y6038291D01*
X30758892Y4978958D01*
X30759603Y4972659D01*
X30761533Y4967173D01*
X30764581Y4962296D01*
X30768696Y4958181D01*
X30773573Y4955133D01*
X30779059Y4953203D01*
X30785358Y4952492D01*
X31117032Y4952492D01*
X31120943Y4951730D01*
X31124194Y4949494D01*
X31126430Y4946243D01*
X31127192Y4942332D01*
X31127192Y4740859D01*
X31127903Y4734509D01*
X31129833Y4729073D01*
X31132881Y4724146D01*
X31136996Y4720082D01*
X31141873Y4716983D01*
X31147359Y4715103D01*
G37*
G36*
X28715258Y4714341D02*
G01*
X28885591Y4714341D01*
X28891890Y4715103D01*
X28897376Y4716983D01*
X28902253Y4720082D01*
X28906368Y4724146D01*
X28909416Y4729073D01*
X28911346Y4734509D01*
X28912058Y4740859D01*
X28912058Y4942332D01*
X28912820Y4946243D01*
X28915055Y4949494D01*
X28918306Y4951730D01*
X28922218Y4952492D01*
X29260241Y4952492D01*
X29266540Y4953203D01*
X29272026Y4955133D01*
X29276903Y4958181D01*
X29281018Y4962296D01*
X29284066Y4967173D01*
X29285996Y4972659D01*
X29286708Y4978958D01*
X29286708Y6038291D01*
X29285996Y6044590D01*
X29284066Y6050076D01*
X29281018Y6054953D01*
X29276903Y6059068D01*
X29272026Y6062116D01*
X29266540Y6064046D01*
X29260241Y6064758D01*
X28346958Y6064758D01*
X28340659Y6064046D01*
X28335173Y6062116D01*
X28330296Y6059068D01*
X28326181Y6054953D01*
X28323133Y6050076D01*
X28321203Y6044590D01*
X28320492Y6038291D01*
X28320492Y4978958D01*
X28321203Y4972659D01*
X28323133Y4967173D01*
X28326181Y4962296D01*
X28330296Y4958181D01*
X28335173Y4955133D01*
X28340659Y4953203D01*
X28346958Y4952492D01*
X28678632Y4952492D01*
X28682543Y4951730D01*
X28685794Y4949494D01*
X28688030Y4946243D01*
X28688792Y4942332D01*
X28688792Y4740859D01*
X28689503Y4734509D01*
X28691433Y4729073D01*
X28694481Y4724146D01*
X28698596Y4720082D01*
X28703473Y4716983D01*
X28708959Y4715103D01*
G37*
G36*
X36436858Y4714341D02*
G01*
X36607191Y4714341D01*
X36613490Y4715103D01*
X36618976Y4716983D01*
X36623853Y4720082D01*
X36627968Y4724146D01*
X36631016Y4729073D01*
X36632946Y4734509D01*
X36633658Y4740859D01*
X36633658Y4942332D01*
X36634420Y4946243D01*
X36636655Y4949494D01*
X36639906Y4951730D01*
X36643818Y4952492D01*
X36981841Y4952492D01*
X36988140Y4953203D01*
X36993626Y4955133D01*
X36998503Y4958181D01*
X37002618Y4962296D01*
X37005666Y4967173D01*
X37007596Y4972659D01*
X37008308Y4978958D01*
X37008308Y6038291D01*
X37007596Y6044590D01*
X37005666Y6050076D01*
X37002618Y6054953D01*
X36998503Y6059068D01*
X36993626Y6062116D01*
X36988140Y6064046D01*
X36981841Y6064758D01*
X36068558Y6064758D01*
X36062259Y6064046D01*
X36056773Y6062116D01*
X36051896Y6059068D01*
X36047781Y6054953D01*
X36044733Y6050076D01*
X36042803Y6044590D01*
X36042092Y6038291D01*
X36042092Y4978958D01*
X36042803Y4972659D01*
X36044733Y4967173D01*
X36047781Y4962296D01*
X36051896Y4958181D01*
X36056773Y4955133D01*
X36062259Y4953203D01*
X36068558Y4952492D01*
X36400232Y4952492D01*
X36404143Y4951730D01*
X36407394Y4949494D01*
X36409630Y4946243D01*
X36410392Y4942332D01*
X36410392Y4740859D01*
X36411103Y4734509D01*
X36413033Y4729073D01*
X36416081Y4724146D01*
X36420196Y4720082D01*
X36425073Y4716983D01*
X36430559Y4715103D01*
G37*
G36*
X26276858Y4714341D02*
G01*
X26447191Y4714341D01*
X26453490Y4715103D01*
X26458976Y4716983D01*
X26463853Y4720082D01*
X26467968Y4724146D01*
X26471016Y4729073D01*
X26472946Y4734509D01*
X26473658Y4740859D01*
X26473658Y4942332D01*
X26474420Y4946243D01*
X26476655Y4949494D01*
X26479906Y4951730D01*
X26483818Y4952492D01*
X26821841Y4952492D01*
X26828140Y4953203D01*
X26833626Y4955133D01*
X26838503Y4958181D01*
X26842618Y4962296D01*
X26845666Y4967173D01*
X26847596Y4972659D01*
X26848308Y4978958D01*
X26848308Y6038291D01*
X26847596Y6044590D01*
X26845666Y6050076D01*
X26842618Y6054953D01*
X26838503Y6059068D01*
X26833626Y6062116D01*
X26828140Y6064046D01*
X26821841Y6064758D01*
X25908558Y6064758D01*
X25902259Y6064046D01*
X25896773Y6062116D01*
X25891896Y6059068D01*
X25887781Y6054953D01*
X25884733Y6050076D01*
X25882803Y6044590D01*
X25882092Y6038291D01*
X25882092Y4978958D01*
X25882803Y4972659D01*
X25884733Y4967173D01*
X25887781Y4962296D01*
X25891896Y4958181D01*
X25896773Y4955133D01*
X25902259Y4953203D01*
X25908558Y4952492D01*
X26240232Y4952492D01*
X26244143Y4951730D01*
X26247394Y4949494D01*
X26249630Y4946243D01*
X26250392Y4942332D01*
X26250392Y4740859D01*
X26251103Y4734509D01*
X26253033Y4729073D01*
X26256081Y4724146D01*
X26260196Y4720082D01*
X26265073Y4716983D01*
X26270559Y4715103D01*
G37*
G36*
X35217658Y4714341D02*
G01*
X35387991Y4714341D01*
X35394290Y4715103D01*
X35399776Y4716983D01*
X35404653Y4720082D01*
X35408768Y4724146D01*
X35411816Y4729073D01*
X35413746Y4734509D01*
X35414458Y4740859D01*
X35414458Y4942332D01*
X35415220Y4946243D01*
X35417455Y4949494D01*
X35420706Y4951730D01*
X35424618Y4952492D01*
X35762641Y4952492D01*
X35768940Y4953203D01*
X35774426Y4955133D01*
X35779303Y4958181D01*
X35783418Y4962296D01*
X35786466Y4967173D01*
X35788396Y4972659D01*
X35789108Y4978958D01*
X35789108Y6038291D01*
X35788396Y6044590D01*
X35786466Y6050076D01*
X35783418Y6054953D01*
X35779303Y6059068D01*
X35774426Y6062116D01*
X35768940Y6064046D01*
X35762641Y6064758D01*
X34849358Y6064758D01*
X34843059Y6064046D01*
X34837573Y6062116D01*
X34832696Y6059068D01*
X34828581Y6054953D01*
X34825533Y6050076D01*
X34823603Y6044590D01*
X34822892Y6038291D01*
X34822892Y4978958D01*
X34823603Y4972659D01*
X34825533Y4967173D01*
X34828581Y4962296D01*
X34832696Y4958181D01*
X34837573Y4955133D01*
X34843059Y4953203D01*
X34849358Y4952492D01*
X35181032Y4952492D01*
X35184943Y4951730D01*
X35188194Y4949494D01*
X35190430Y4946243D01*
X35191192Y4942332D01*
X35191192Y4740859D01*
X35191903Y4734509D01*
X35193833Y4729073D01*
X35196881Y4724146D01*
X35200996Y4720082D01*
X35205873Y4716983D01*
X35211359Y4715103D01*
G37*
G36*
X25057658Y4714341D02*
G01*
X25227991Y4714341D01*
X25234290Y4715103D01*
X25239776Y4716983D01*
X25244653Y4720082D01*
X25248768Y4724146D01*
X25251816Y4729073D01*
X25253746Y4734509D01*
X25254458Y4740859D01*
X25254458Y4945481D01*
X25255220Y4949393D01*
X25257455Y4952695D01*
X25260706Y4954879D01*
X25264618Y4955641D01*
X25602641Y4955641D01*
X25608940Y4956403D01*
X25614426Y4958283D01*
X25619303Y4961382D01*
X25623418Y4965446D01*
X25626466Y4970373D01*
X25628396Y4975809D01*
X25629108Y4982159D01*
X25629108Y6041440D01*
X25628396Y6047790D01*
X25626466Y6053226D01*
X25623418Y6058154D01*
X25619303Y6062218D01*
X25614426Y6065316D01*
X25608940Y6067196D01*
X25602641Y6067907D01*
X24689358Y6067907D01*
X24683059Y6067196D01*
X24677573Y6065316D01*
X24672696Y6062218D01*
X24668581Y6058154D01*
X24665533Y6053226D01*
X24663603Y6047790D01*
X24662892Y6041440D01*
X24662892Y4982159D01*
X24663603Y4975809D01*
X24665533Y4970373D01*
X24668581Y4965446D01*
X24672696Y4961382D01*
X24677573Y4958283D01*
X24683059Y4956403D01*
X24689358Y4955641D01*
X25021032Y4955641D01*
X25024943Y4954879D01*
X25028194Y4952695D01*
X25030430Y4949393D01*
X25031192Y4945481D01*
X25031192Y4740859D01*
X25031903Y4734509D01*
X25033833Y4729073D01*
X25036881Y4724146D01*
X25040996Y4720082D01*
X25045873Y4716983D01*
X25051359Y4715103D01*
G37*
G36*
X23838458Y4714341D02*
G01*
X24008791Y4714341D01*
X24015090Y4715103D01*
X24020576Y4716983D01*
X24025453Y4720082D01*
X24029568Y4724146D01*
X24032616Y4729073D01*
X24034546Y4734509D01*
X24035258Y4740859D01*
X24035258Y4945481D01*
X24036020Y4949393D01*
X24038255Y4952695D01*
X24041506Y4954879D01*
X24045418Y4955641D01*
X24383441Y4955641D01*
X24389740Y4956403D01*
X24395226Y4958283D01*
X24400103Y4961382D01*
X24404218Y4965446D01*
X24407266Y4970373D01*
X24409196Y4975809D01*
X24409908Y4982159D01*
X24409908Y6041440D01*
X24409196Y6047790D01*
X24407266Y6053226D01*
X24404218Y6058154D01*
X24400103Y6062218D01*
X24395226Y6065316D01*
X24389740Y6067196D01*
X24383441Y6067907D01*
X23470158Y6067907D01*
X23463859Y6067196D01*
X23458373Y6065316D01*
X23453496Y6062218D01*
X23449381Y6058154D01*
X23446333Y6053226D01*
X23444403Y6047790D01*
X23443692Y6041440D01*
X23443692Y4982159D01*
X23444403Y4975809D01*
X23446333Y4970373D01*
X23449381Y4965446D01*
X23453496Y4961382D01*
X23458373Y4958283D01*
X23463859Y4956403D01*
X23470158Y4955641D01*
X23801832Y4955641D01*
X23805743Y4954879D01*
X23808994Y4952695D01*
X23811230Y4949393D01*
X23811992Y4945481D01*
X23811992Y4740859D01*
X23812703Y4734509D01*
X23814633Y4729073D01*
X23817681Y4724146D01*
X23821796Y4720082D01*
X23826673Y4716983D01*
X23832159Y4715103D01*
G37*
G36*
X18144540Y4931511D02*
G01*
X18159679Y4932426D01*
X18174665Y4935169D01*
X18189143Y4939690D01*
X18203011Y4945938D01*
X18216016Y4953812D01*
X18228005Y4963160D01*
X18238724Y4973929D01*
X18248122Y4985867D01*
X18255996Y4998872D01*
X18262244Y5012740D01*
X18266765Y5027269D01*
X18269508Y5042204D01*
X18270423Y5057394D01*
X18269508Y5072583D01*
X18266765Y5087518D01*
X18262244Y5102047D01*
X18255996Y5115915D01*
X18248122Y5128920D01*
X18238724Y5140858D01*
X18228005Y5151628D01*
X18216016Y5160975D01*
X18203011Y5168849D01*
X18189143Y5175097D01*
X18174665Y5179618D01*
X18159679Y5182362D01*
X18144540Y5183276D01*
X18129351Y5182362D01*
X18114365Y5179618D01*
X18099887Y5175097D01*
X18086019Y5168849D01*
X18073014Y5160975D01*
X18061025Y5151628D01*
X18050306Y5140858D01*
X18040908Y5128920D01*
X18033034Y5115915D01*
X18026786Y5102047D01*
X18022265Y5087518D01*
X18019522Y5072583D01*
X18018607Y5057394D01*
X18019522Y5042204D01*
X18022265Y5027269D01*
X18026786Y5012740D01*
X18033034Y4998872D01*
X18040908Y4985867D01*
X18050306Y4973929D01*
X18061025Y4963160D01*
X18073014Y4953812D01*
X18086019Y4945938D01*
X18099887Y4939690D01*
X18114365Y4935169D01*
X18129351Y4932426D01*
G37*
G36*
X22034500Y4931511D02*
G01*
X22049689Y4932426D01*
X22064624Y4935169D01*
X22079153Y4939690D01*
X22093021Y4945938D01*
X22106026Y4953812D01*
X22117964Y4963160D01*
X22128734Y4973929D01*
X22138081Y4985867D01*
X22145955Y4998872D01*
X22152203Y5012740D01*
X22156724Y5027269D01*
X22159468Y5042204D01*
X22160382Y5057394D01*
X22159468Y5072583D01*
X22156724Y5087518D01*
X22152203Y5102047D01*
X22145955Y5115915D01*
X22138081Y5128920D01*
X22128734Y5140858D01*
X22117964Y5151628D01*
X22106026Y5160975D01*
X22093021Y5168849D01*
X22080778Y5174386D01*
X22077578Y5176621D01*
X22075495Y5179923D01*
X22074784Y5183784D01*
X22075597Y5187645D01*
X22077832Y5190896D01*
X22081083Y5193030D01*
X22084944Y5193792D01*
X22249841Y5193792D01*
X22256140Y5194503D01*
X22261626Y5196433D01*
X22266503Y5199481D01*
X22270618Y5203596D01*
X22273666Y5208473D01*
X22275596Y5213959D01*
X22276308Y5220258D01*
X22276308Y7606741D01*
X22275596Y7613040D01*
X22273666Y7618526D01*
X22270618Y7623403D01*
X22266503Y7627518D01*
X22261626Y7630566D01*
X22256140Y7632496D01*
X22249841Y7633208D01*
X22076968Y7633208D01*
X22072955Y7634020D01*
X22069602Y7636357D01*
X22067418Y7639862D01*
X22066808Y7643875D01*
X22067824Y7647838D01*
X22070364Y7651089D01*
X22073920Y7653070D01*
X22079153Y7654696D01*
X22093021Y7660944D01*
X22106026Y7668818D01*
X22117964Y7678166D01*
X22128734Y7688935D01*
X22138081Y7700873D01*
X22145955Y7713878D01*
X22152203Y7727746D01*
X22156724Y7742275D01*
X22159468Y7757210D01*
X22160382Y7772400D01*
X22159468Y7787589D01*
X22156724Y7802524D01*
X22152203Y7817053D01*
X22145955Y7830921D01*
X22138081Y7843926D01*
X22128734Y7855864D01*
X22117964Y7866634D01*
X22106026Y7875981D01*
X22093021Y7883855D01*
X22079153Y7890103D01*
X22064624Y7894624D01*
X22049689Y7897368D01*
X22034500Y7898282D01*
X22019310Y7897368D01*
X22004375Y7894624D01*
X21989846Y7890103D01*
X21975978Y7883855D01*
X21962973Y7875981D01*
X21951035Y7866634D01*
X21940266Y7855864D01*
X21930918Y7843926D01*
X21923044Y7830921D01*
X21916796Y7817053D01*
X21912275Y7802524D01*
X21909532Y7787589D01*
X21908617Y7772400D01*
X21909532Y7757210D01*
X21912275Y7742275D01*
X21916796Y7727746D01*
X21923044Y7713878D01*
X21930918Y7700873D01*
X21940266Y7688935D01*
X21951035Y7678166D01*
X21962973Y7668818D01*
X21975978Y7660944D01*
X21989846Y7654696D01*
X21995079Y7653070D01*
X21998635Y7651089D01*
X22001175Y7647838D01*
X22002191Y7643875D01*
X22001581Y7639862D01*
X21999397Y7636357D01*
X21996044Y7634020D01*
X21992031Y7633208D01*
X18313958Y7633208D01*
X18307659Y7632496D01*
X18302173Y7630566D01*
X18297296Y7627518D01*
X18293181Y7623403D01*
X18290133Y7618526D01*
X18288203Y7613040D01*
X18287492Y7606741D01*
X18287492Y5220258D01*
X18288203Y5213959D01*
X18290133Y5208473D01*
X18293181Y5203596D01*
X18297296Y5199481D01*
X18302173Y5196433D01*
X18307659Y5194503D01*
X18313958Y5193792D01*
X21984055Y5193792D01*
X21987916Y5193030D01*
X21991167Y5190896D01*
X21993402Y5187645D01*
X21994215Y5183784D01*
X21993504Y5179923D01*
X21991421Y5176621D01*
X21988221Y5174386D01*
X21975978Y5168849D01*
X21962973Y5160975D01*
X21951035Y5151628D01*
X21940266Y5140858D01*
X21930918Y5128920D01*
X21923044Y5115915D01*
X21916796Y5102047D01*
X21912275Y5087518D01*
X21909532Y5072583D01*
X21908617Y5057394D01*
X21909532Y5042204D01*
X21912275Y5027269D01*
X21916796Y5012740D01*
X21923044Y4998872D01*
X21930918Y4985867D01*
X21940266Y4973929D01*
X21951035Y4963160D01*
X21962973Y4953812D01*
X21975978Y4945938D01*
X21989846Y4939690D01*
X22004375Y4935169D01*
X22019310Y4932426D01*
G37*
G36*
X14262658Y5765292D02*
G01*
X14490141Y5765292D01*
X14496440Y5766003D01*
X14501926Y5767933D01*
X14506803Y5770981D01*
X14510918Y5775096D01*
X14513966Y5779973D01*
X14515896Y5785459D01*
X14516607Y5791758D01*
X14516607Y6628841D01*
X14515896Y6635140D01*
X14513966Y6640626D01*
X14510918Y6645503D01*
X14506803Y6649618D01*
X14501926Y6652666D01*
X14496440Y6654596D01*
X14490141Y6655308D01*
X14262658Y6655308D01*
X14256359Y6654596D01*
X14250873Y6652666D01*
X14245996Y6649618D01*
X14241881Y6645503D01*
X14238833Y6640626D01*
X14236903Y6635140D01*
X14236192Y6628841D01*
X14236192Y5791758D01*
X14236903Y5785459D01*
X14238833Y5779973D01*
X14241881Y5775096D01*
X14245996Y5770981D01*
X14250873Y5767933D01*
X14256359Y5766003D01*
G37*
G36*
X45352258Y5765292D02*
G01*
X45579741Y5765292D01*
X45586040Y5766003D01*
X45591526Y5767933D01*
X45596403Y5770981D01*
X45600518Y5775096D01*
X45603566Y5779973D01*
X45605496Y5785459D01*
X45606208Y5791758D01*
X45606208Y6628841D01*
X45605496Y6635140D01*
X45603566Y6640626D01*
X45600518Y6645503D01*
X45596403Y6649618D01*
X45591526Y6652666D01*
X45586040Y6654596D01*
X45579741Y6655308D01*
X45352258Y6655308D01*
X45345959Y6654596D01*
X45340473Y6652666D01*
X45335596Y6649618D01*
X45331481Y6645503D01*
X45328433Y6640626D01*
X45326503Y6635140D01*
X45325792Y6628841D01*
X45325792Y5791758D01*
X45326503Y5785459D01*
X45328433Y5779973D01*
X45331481Y5775096D01*
X45335596Y5770981D01*
X45340473Y5767933D01*
X45345959Y5766003D01*
G37*
G36*
X40094458Y6228842D02*
G01*
X40264791Y6228842D01*
X40271090Y6229553D01*
X40276576Y6231483D01*
X40281453Y6234531D01*
X40285568Y6238646D01*
X40288616Y6243523D01*
X40290546Y6249009D01*
X40291258Y6255308D01*
X40291258Y6459982D01*
X40292020Y6463893D01*
X40294255Y6467144D01*
X40297506Y6469380D01*
X40301418Y6470142D01*
X40639441Y6470142D01*
X40645740Y6470853D01*
X40651226Y6472783D01*
X40656103Y6475831D01*
X40660218Y6479946D01*
X40663266Y6484823D01*
X40665196Y6490309D01*
X40665908Y6496608D01*
X40665908Y7555941D01*
X40665196Y7562240D01*
X40663266Y7567726D01*
X40660218Y7572603D01*
X40656103Y7576718D01*
X40651226Y7579766D01*
X40645740Y7581696D01*
X40639441Y7582408D01*
X39726158Y7582408D01*
X39719859Y7581696D01*
X39714373Y7579766D01*
X39709496Y7576718D01*
X39705381Y7572603D01*
X39702333Y7567726D01*
X39700403Y7562240D01*
X39699692Y7555941D01*
X39699692Y6496608D01*
X39700403Y6490309D01*
X39702333Y6484823D01*
X39705381Y6479946D01*
X39709496Y6475831D01*
X39714373Y6472783D01*
X39719859Y6470853D01*
X39726158Y6470142D01*
X40057832Y6470142D01*
X40061743Y6469380D01*
X40064994Y6467144D01*
X40067230Y6463893D01*
X40067992Y6459982D01*
X40067992Y6255308D01*
X40068703Y6249009D01*
X40070633Y6243523D01*
X40073681Y6238646D01*
X40077796Y6234531D01*
X40082673Y6231483D01*
X40088159Y6229553D01*
G37*
G36*
X38875258Y6228842D02*
G01*
X39045591Y6228842D01*
X39051890Y6229553D01*
X39057376Y6231483D01*
X39062253Y6234531D01*
X39066368Y6238646D01*
X39069416Y6243523D01*
X39071346Y6249009D01*
X39072058Y6255308D01*
X39072058Y6459982D01*
X39072820Y6463893D01*
X39075055Y6467144D01*
X39078306Y6469380D01*
X39082218Y6470142D01*
X39420241Y6470142D01*
X39426540Y6470853D01*
X39432026Y6472783D01*
X39436903Y6475831D01*
X39441018Y6479946D01*
X39444066Y6484823D01*
X39445996Y6490309D01*
X39446708Y6496608D01*
X39446708Y7555941D01*
X39445996Y7562240D01*
X39444066Y7567726D01*
X39441018Y7572603D01*
X39436903Y7576718D01*
X39432026Y7579766D01*
X39426540Y7581696D01*
X39420241Y7582408D01*
X38506958Y7582408D01*
X38500659Y7581696D01*
X38495173Y7579766D01*
X38490296Y7576718D01*
X38486181Y7572603D01*
X38483133Y7567726D01*
X38481203Y7562240D01*
X38480492Y7555941D01*
X38480492Y6496608D01*
X38481203Y6490309D01*
X38483133Y6484823D01*
X38486181Y6479946D01*
X38490296Y6475831D01*
X38495173Y6472783D01*
X38500659Y6470853D01*
X38506958Y6470142D01*
X38838632Y6470142D01*
X38842543Y6469380D01*
X38845794Y6467144D01*
X38848030Y6463893D01*
X38848792Y6459982D01*
X38848792Y6255308D01*
X38849503Y6249009D01*
X38851433Y6243523D01*
X38854481Y6238646D01*
X38858596Y6234531D01*
X38863473Y6231483D01*
X38868959Y6229553D01*
G37*
G36*
X45314158Y1117092D02*
G01*
X45617841Y1117092D01*
X45624140Y1117803D01*
X45629626Y1119733D01*
X45634503Y1122781D01*
X45638618Y1126896D01*
X45641666Y1131773D01*
X45643596Y1137259D01*
X45644308Y1143558D01*
X45644308Y3301441D01*
X45643596Y3307740D01*
X45641666Y3313226D01*
X45638618Y3318103D01*
X45634503Y3322218D01*
X45629626Y3325266D01*
X45624140Y3327196D01*
X45617841Y3327908D01*
X45314158Y3327908D01*
X45307859Y3327196D01*
X45302373Y3325266D01*
X45297496Y3322218D01*
X45293381Y3318103D01*
X45290333Y3313226D01*
X45288403Y3307740D01*
X45287692Y3301441D01*
X45287692Y1143558D01*
X45288403Y1137259D01*
X45290333Y1131773D01*
X45293381Y1126896D01*
X45297496Y1122781D01*
X45302373Y1119733D01*
X45307859Y1117803D01*
G37*
G36*
X41313658Y6228842D02*
G01*
X41483991Y6228842D01*
X41490290Y6229553D01*
X41495776Y6231483D01*
X41500653Y6234531D01*
X41504768Y6238646D01*
X41507816Y6243523D01*
X41509746Y6249009D01*
X41510458Y6255308D01*
X41510458Y6459982D01*
X41511220Y6463893D01*
X41513455Y6467144D01*
X41516706Y6469380D01*
X41520618Y6470142D01*
X41858641Y6470142D01*
X41864940Y6470853D01*
X41870426Y6472783D01*
X41875303Y6475831D01*
X41879418Y6479946D01*
X41882466Y6484823D01*
X41884396Y6490309D01*
X41885108Y6496608D01*
X41885108Y7555941D01*
X41884396Y7562240D01*
X41882466Y7567726D01*
X41879418Y7572603D01*
X41875303Y7576718D01*
X41870426Y7579766D01*
X41864940Y7581696D01*
X41858641Y7582408D01*
X40945358Y7582408D01*
X40939059Y7581696D01*
X40933573Y7579766D01*
X40928696Y7576718D01*
X40924581Y7572603D01*
X40921533Y7567726D01*
X40919603Y7562240D01*
X40918892Y7555941D01*
X40918892Y6496608D01*
X40919603Y6490309D01*
X40921533Y6484823D01*
X40924581Y6479946D01*
X40928696Y6475831D01*
X40933573Y6472783D01*
X40939059Y6470853D01*
X40945358Y6470142D01*
X41277032Y6470142D01*
X41280943Y6469380D01*
X41284194Y6467144D01*
X41286430Y6463893D01*
X41287192Y6459982D01*
X41287192Y6255308D01*
X41287903Y6249009D01*
X41289833Y6243523D01*
X41292881Y6238646D01*
X41296996Y6234531D01*
X41301873Y6231483D01*
X41307359Y6229553D01*
G37*
G36*
X37656058Y6228842D02*
G01*
X37826391Y6228842D01*
X37832690Y6229553D01*
X37838176Y6231483D01*
X37843053Y6234531D01*
X37847168Y6238646D01*
X37850216Y6243523D01*
X37852146Y6249009D01*
X37852858Y6255308D01*
X37852858Y6459982D01*
X37853620Y6463893D01*
X37855855Y6467144D01*
X37859106Y6469380D01*
X37863018Y6470142D01*
X38201041Y6470142D01*
X38207340Y6470853D01*
X38212826Y6472783D01*
X38217703Y6475831D01*
X38221818Y6479946D01*
X38224866Y6484823D01*
X38226796Y6490309D01*
X38227508Y6496608D01*
X38227508Y7555941D01*
X38226796Y7562240D01*
X38224866Y7567726D01*
X38221818Y7572603D01*
X38217703Y7576718D01*
X38212826Y7579766D01*
X38207340Y7581696D01*
X38201041Y7582408D01*
X37287758Y7582408D01*
X37281459Y7581696D01*
X37275973Y7579766D01*
X37271096Y7576718D01*
X37266981Y7572603D01*
X37263933Y7567726D01*
X37262003Y7562240D01*
X37261292Y7555941D01*
X37261292Y6496608D01*
X37262003Y6490309D01*
X37263933Y6484823D01*
X37266981Y6479946D01*
X37271096Y6475831D01*
X37275973Y6472783D01*
X37281459Y6470853D01*
X37287758Y6470142D01*
X37619432Y6470142D01*
X37623343Y6469380D01*
X37626594Y6467144D01*
X37628830Y6463893D01*
X37629592Y6459982D01*
X37629592Y6255308D01*
X37630303Y6249009D01*
X37632233Y6243523D01*
X37635281Y6238646D01*
X37639396Y6234531D01*
X37644273Y6231483D01*
X37649759Y6229553D01*
G37*
G36*
X43752058Y6228842D02*
G01*
X43922391Y6228842D01*
X43928690Y6229553D01*
X43934176Y6231483D01*
X43939053Y6234531D01*
X43943168Y6238646D01*
X43946216Y6243523D01*
X43948146Y6249009D01*
X43948858Y6255308D01*
X43948858Y6459982D01*
X43949620Y6463893D01*
X43951855Y6467144D01*
X43955106Y6469380D01*
X43959018Y6470142D01*
X44297041Y6470142D01*
X44303340Y6470853D01*
X44308826Y6472783D01*
X44313703Y6475831D01*
X44317818Y6479946D01*
X44320866Y6484823D01*
X44322796Y6490309D01*
X44323508Y6496608D01*
X44323508Y7555941D01*
X44322796Y7562240D01*
X44320866Y7567726D01*
X44317818Y7572603D01*
X44313703Y7576718D01*
X44308826Y7579766D01*
X44303340Y7581696D01*
X44297041Y7582408D01*
X43383758Y7582408D01*
X43377459Y7581696D01*
X43371973Y7579766D01*
X43367096Y7576718D01*
X43362981Y7572603D01*
X43359933Y7567726D01*
X43358003Y7562240D01*
X43357292Y7555941D01*
X43357292Y6496608D01*
X43358003Y6490309D01*
X43359933Y6484823D01*
X43362981Y6479946D01*
X43367096Y6475831D01*
X43371973Y6472783D01*
X43377459Y6470853D01*
X43383758Y6470142D01*
X43715432Y6470142D01*
X43719343Y6469380D01*
X43722594Y6467144D01*
X43724830Y6463893D01*
X43725592Y6459982D01*
X43725592Y6255308D01*
X43726303Y6249009D01*
X43728233Y6243523D01*
X43731281Y6238646D01*
X43735396Y6234531D01*
X43740273Y6231483D01*
X43745759Y6229553D01*
G37*
G36*
X27496058Y6231991D02*
G01*
X27666391Y6231991D01*
X27672690Y6232753D01*
X27678176Y6234633D01*
X27683053Y6237732D01*
X27687168Y6241796D01*
X27690216Y6246723D01*
X27692146Y6252159D01*
X27692858Y6258509D01*
X27692858Y6463131D01*
X27693620Y6467043D01*
X27695855Y6470345D01*
X27699106Y6472529D01*
X27703018Y6473291D01*
X28041041Y6473291D01*
X28047340Y6474053D01*
X28052826Y6475933D01*
X28057703Y6479032D01*
X28061818Y6483096D01*
X28064866Y6488023D01*
X28066796Y6493459D01*
X28067508Y6499809D01*
X28067508Y7559090D01*
X28066796Y7565440D01*
X28064866Y7570876D01*
X28061818Y7575803D01*
X28057703Y7579868D01*
X28052826Y7582966D01*
X28047340Y7584846D01*
X28041041Y7585557D01*
X27127758Y7585557D01*
X27121459Y7584846D01*
X27115973Y7582966D01*
X27111096Y7579868D01*
X27106981Y7575803D01*
X27103933Y7570876D01*
X27102003Y7565440D01*
X27101292Y7559090D01*
X27101292Y6499809D01*
X27102003Y6493459D01*
X27103933Y6488023D01*
X27106981Y6483096D01*
X27111096Y6479032D01*
X27115973Y6475933D01*
X27121459Y6474053D01*
X27127758Y6473291D01*
X27459432Y6473291D01*
X27463343Y6472529D01*
X27466594Y6470345D01*
X27468830Y6467043D01*
X27469592Y6463131D01*
X27469592Y6258509D01*
X27470303Y6252159D01*
X27472233Y6246723D01*
X27475281Y6241796D01*
X27479396Y6237732D01*
X27484273Y6234633D01*
X27489759Y6232753D01*
G37*
G36*
X28715258Y6231991D02*
G01*
X28885591Y6231991D01*
X28891890Y6232753D01*
X28897376Y6234633D01*
X28902253Y6237732D01*
X28906368Y6241796D01*
X28909416Y6246723D01*
X28911346Y6252159D01*
X28912058Y6258509D01*
X28912058Y6463131D01*
X28912820Y6467043D01*
X28915055Y6470345D01*
X28918306Y6472529D01*
X28922218Y6473291D01*
X29260241Y6473291D01*
X29266540Y6474053D01*
X29272026Y6475933D01*
X29276903Y6479032D01*
X29281018Y6483096D01*
X29284066Y6488023D01*
X29285996Y6493459D01*
X29286708Y6499809D01*
X29286708Y7559090D01*
X29285996Y7565440D01*
X29284066Y7570876D01*
X29281018Y7575803D01*
X29276903Y7579868D01*
X29272026Y7582966D01*
X29266540Y7584846D01*
X29260241Y7585557D01*
X28346958Y7585557D01*
X28340659Y7584846D01*
X28335173Y7582966D01*
X28330296Y7579868D01*
X28326181Y7575803D01*
X28323133Y7570876D01*
X28321203Y7565440D01*
X28320492Y7559090D01*
X28320492Y6499809D01*
X28321203Y6493459D01*
X28323133Y6488023D01*
X28326181Y6483096D01*
X28330296Y6479032D01*
X28335173Y6475933D01*
X28340659Y6474053D01*
X28346958Y6473291D01*
X28678632Y6473291D01*
X28682543Y6472529D01*
X28685794Y6470345D01*
X28688030Y6467043D01*
X28688792Y6463131D01*
X28688792Y6258509D01*
X28689503Y6252159D01*
X28691433Y6246723D01*
X28694481Y6241796D01*
X28698596Y6237732D01*
X28703473Y6234633D01*
X28708959Y6232753D01*
G37*
G36*
X35217658Y6231991D02*
G01*
X35387991Y6231991D01*
X35394290Y6232753D01*
X35399776Y6234633D01*
X35404653Y6237732D01*
X35408768Y6241796D01*
X35411816Y6246723D01*
X35413746Y6252159D01*
X35414458Y6258509D01*
X35414458Y6463131D01*
X35415220Y6467043D01*
X35417455Y6470345D01*
X35420706Y6472529D01*
X35424618Y6473291D01*
X35762641Y6473291D01*
X35768940Y6474053D01*
X35774426Y6475933D01*
X35779303Y6479032D01*
X35783418Y6483096D01*
X35786466Y6488023D01*
X35788396Y6493459D01*
X35789108Y6499809D01*
X35789108Y7559090D01*
X35788396Y7565440D01*
X35786466Y7570876D01*
X35783418Y7575803D01*
X35779303Y7579868D01*
X35774426Y7582966D01*
X35768940Y7584846D01*
X35762641Y7585557D01*
X34849358Y7585557D01*
X34843059Y7584846D01*
X34837573Y7582966D01*
X34832696Y7579868D01*
X34828581Y7575803D01*
X34825533Y7570876D01*
X34823603Y7565440D01*
X34822892Y7559090D01*
X34822892Y6499809D01*
X34823603Y6493459D01*
X34825533Y6488023D01*
X34828581Y6483096D01*
X34832696Y6479032D01*
X34837573Y6475933D01*
X34843059Y6474053D01*
X34849358Y6473291D01*
X35181032Y6473291D01*
X35184943Y6472529D01*
X35188194Y6470345D01*
X35190430Y6467043D01*
X35191192Y6463131D01*
X35191192Y6258509D01*
X35191903Y6252159D01*
X35193833Y6246723D01*
X35196881Y6241796D01*
X35200996Y6237732D01*
X35205873Y6234633D01*
X35211359Y6232753D01*
G37*
G36*
X26276858Y6231991D02*
G01*
X26447191Y6231991D01*
X26453490Y6232753D01*
X26458976Y6234633D01*
X26463853Y6237732D01*
X26467968Y6241796D01*
X26471016Y6246723D01*
X26472946Y6252159D01*
X26473658Y6258509D01*
X26473658Y6463131D01*
X26474420Y6467043D01*
X26476655Y6470345D01*
X26479906Y6472529D01*
X26483818Y6473291D01*
X26821841Y6473291D01*
X26828140Y6474053D01*
X26833626Y6475933D01*
X26838503Y6479032D01*
X26842618Y6483096D01*
X26845666Y6488023D01*
X26847596Y6493459D01*
X26848308Y6499809D01*
X26848308Y7559090D01*
X26847596Y7565440D01*
X26845666Y7570876D01*
X26842618Y7575803D01*
X26838503Y7579868D01*
X26833626Y7582966D01*
X26828140Y7584846D01*
X26821841Y7585557D01*
X25908558Y7585557D01*
X25902259Y7584846D01*
X25896773Y7582966D01*
X25891896Y7579868D01*
X25887781Y7575803D01*
X25884733Y7570876D01*
X25882803Y7565440D01*
X25882092Y7559090D01*
X25882092Y6499809D01*
X25882803Y6493459D01*
X25884733Y6488023D01*
X25887781Y6483096D01*
X25891896Y6479032D01*
X25896773Y6475933D01*
X25902259Y6474053D01*
X25908558Y6473291D01*
X26240232Y6473291D01*
X26244143Y6472529D01*
X26247394Y6470345D01*
X26249630Y6467043D01*
X26250392Y6463131D01*
X26250392Y6258509D01*
X26251103Y6252159D01*
X26253033Y6246723D01*
X26256081Y6241796D01*
X26260196Y6237732D01*
X26265073Y6234633D01*
X26270559Y6232753D01*
G37*
G36*
X32372858Y6231991D02*
G01*
X32543191Y6231991D01*
X32549490Y6232753D01*
X32554976Y6234633D01*
X32559853Y6237732D01*
X32563968Y6241796D01*
X32567016Y6246723D01*
X32568946Y6252159D01*
X32569658Y6258509D01*
X32569658Y6463131D01*
X32570420Y6467043D01*
X32572655Y6470345D01*
X32575906Y6472529D01*
X32579818Y6473291D01*
X32917841Y6473291D01*
X32924140Y6474053D01*
X32929626Y6475933D01*
X32934503Y6479032D01*
X32938618Y6483096D01*
X32941666Y6488023D01*
X32943596Y6493459D01*
X32944308Y6499809D01*
X32944308Y7559090D01*
X32943596Y7565440D01*
X32941666Y7570876D01*
X32938618Y7575803D01*
X32934503Y7579868D01*
X32929626Y7582966D01*
X32924140Y7584846D01*
X32917841Y7585557D01*
X32004558Y7585557D01*
X31998259Y7584846D01*
X31992773Y7582966D01*
X31987896Y7579868D01*
X31983781Y7575803D01*
X31980733Y7570876D01*
X31978803Y7565440D01*
X31978092Y7559090D01*
X31978092Y6499809D01*
X31978803Y6493459D01*
X31980733Y6488023D01*
X31983781Y6483096D01*
X31987896Y6479032D01*
X31992773Y6475933D01*
X31998259Y6474053D01*
X32004558Y6473291D01*
X32336232Y6473291D01*
X32340143Y6472529D01*
X32343394Y6470345D01*
X32345630Y6467043D01*
X32346392Y6463131D01*
X32346392Y6258509D01*
X32347103Y6252159D01*
X32349033Y6246723D01*
X32352081Y6241796D01*
X32356196Y6237732D01*
X32361073Y6234633D01*
X32366559Y6232753D01*
G37*
G36*
X36436858Y6231991D02*
G01*
X36607191Y6231991D01*
X36613490Y6232753D01*
X36618976Y6234633D01*
X36623853Y6237732D01*
X36627968Y6241796D01*
X36631016Y6246723D01*
X36632946Y6252159D01*
X36633658Y6258509D01*
X36633658Y6463131D01*
X36634420Y6467043D01*
X36636655Y6470345D01*
X36639906Y6472529D01*
X36643818Y6473291D01*
X36981841Y6473291D01*
X36988140Y6474053D01*
X36993626Y6475933D01*
X36998503Y6479032D01*
X37002618Y6483096D01*
X37005666Y6488023D01*
X37007596Y6493459D01*
X37008308Y6499809D01*
X37008308Y7559090D01*
X37007596Y7565440D01*
X37005666Y7570876D01*
X37002618Y7575803D01*
X36998503Y7579868D01*
X36993626Y7582966D01*
X36988140Y7584846D01*
X36981841Y7585557D01*
X36068558Y7585557D01*
X36062259Y7584846D01*
X36056773Y7582966D01*
X36051896Y7579868D01*
X36047781Y7575803D01*
X36044733Y7570876D01*
X36042803Y7565440D01*
X36042092Y7559090D01*
X36042092Y6499809D01*
X36042803Y6493459D01*
X36044733Y6488023D01*
X36047781Y6483096D01*
X36051896Y6479032D01*
X36056773Y6475933D01*
X36062259Y6474053D01*
X36068558Y6473291D01*
X36400232Y6473291D01*
X36404143Y6472529D01*
X36407394Y6470345D01*
X36409630Y6467043D01*
X36410392Y6463131D01*
X36410392Y6258509D01*
X36411103Y6252159D01*
X36413033Y6246723D01*
X36416081Y6241796D01*
X36420196Y6237732D01*
X36425073Y6234633D01*
X36430559Y6232753D01*
G37*
G36*
X29934458Y6231991D02*
G01*
X30104791Y6231991D01*
X30111090Y6232753D01*
X30116576Y6234633D01*
X30121453Y6237732D01*
X30125568Y6241796D01*
X30128616Y6246723D01*
X30130546Y6252159D01*
X30131258Y6258509D01*
X30131258Y6463131D01*
X30132020Y6467043D01*
X30134255Y6470345D01*
X30137506Y6472529D01*
X30141418Y6473291D01*
X30479441Y6473291D01*
X30485740Y6474053D01*
X30491226Y6475933D01*
X30496103Y6479032D01*
X30500218Y6483096D01*
X30503266Y6488023D01*
X30505196Y6493459D01*
X30505908Y6499809D01*
X30505908Y7559090D01*
X30505196Y7565440D01*
X30503266Y7570876D01*
X30500218Y7575803D01*
X30496103Y7579868D01*
X30491226Y7582966D01*
X30485740Y7584846D01*
X30479441Y7585557D01*
X29566158Y7585557D01*
X29559859Y7584846D01*
X29554373Y7582966D01*
X29549496Y7579868D01*
X29545381Y7575803D01*
X29542333Y7570876D01*
X29540403Y7565440D01*
X29539692Y7559090D01*
X29539692Y6499809D01*
X29540403Y6493459D01*
X29542333Y6488023D01*
X29545381Y6483096D01*
X29549496Y6479032D01*
X29554373Y6475933D01*
X29559859Y6474053D01*
X29566158Y6473291D01*
X29897832Y6473291D01*
X29901743Y6472529D01*
X29904994Y6470345D01*
X29907230Y6467043D01*
X29907992Y6463131D01*
X29907992Y6258509D01*
X29908703Y6252159D01*
X29910633Y6246723D01*
X29913681Y6241796D01*
X29917796Y6237732D01*
X29922673Y6234633D01*
X29928159Y6232753D01*
G37*
G36*
X31153658Y6231991D02*
G01*
X31323991Y6231991D01*
X31330290Y6232753D01*
X31335776Y6234633D01*
X31340653Y6237732D01*
X31344768Y6241796D01*
X31347816Y6246723D01*
X31349746Y6252159D01*
X31350458Y6258509D01*
X31350458Y6463131D01*
X31351220Y6467043D01*
X31353455Y6470345D01*
X31356706Y6472529D01*
X31360618Y6473291D01*
X31698641Y6473291D01*
X31704940Y6474053D01*
X31710426Y6475933D01*
X31715303Y6479032D01*
X31719418Y6483096D01*
X31722466Y6488023D01*
X31724396Y6493459D01*
X31725108Y6499809D01*
X31725108Y7559090D01*
X31724396Y7565440D01*
X31722466Y7570876D01*
X31719418Y7575803D01*
X31715303Y7579868D01*
X31710426Y7582966D01*
X31704940Y7584846D01*
X31698641Y7585557D01*
X30785358Y7585557D01*
X30779059Y7584846D01*
X30773573Y7582966D01*
X30768696Y7579868D01*
X30764581Y7575803D01*
X30761533Y7570876D01*
X30759603Y7565440D01*
X30758892Y7559090D01*
X30758892Y6499809D01*
X30759603Y6493459D01*
X30761533Y6488023D01*
X30764581Y6483096D01*
X30768696Y6479032D01*
X30773573Y6475933D01*
X30779059Y6474053D01*
X30785358Y6473291D01*
X31117032Y6473291D01*
X31120943Y6472529D01*
X31124194Y6470345D01*
X31126430Y6467043D01*
X31127192Y6463131D01*
X31127192Y6258509D01*
X31127903Y6252159D01*
X31129833Y6246723D01*
X31132881Y6241796D01*
X31136996Y6237732D01*
X31141873Y6234633D01*
X31147359Y6232753D01*
G37*
G36*
X23838458Y6235192D02*
G01*
X24008791Y6235192D01*
X24015090Y6235903D01*
X24020576Y6237833D01*
X24025453Y6240881D01*
X24029568Y6244996D01*
X24032616Y6249873D01*
X24034546Y6255359D01*
X24035258Y6261658D01*
X24035258Y6466332D01*
X24036020Y6470243D01*
X24038255Y6473494D01*
X24041506Y6475730D01*
X24045418Y6476492D01*
X24383441Y6476492D01*
X24389740Y6477203D01*
X24395226Y6479133D01*
X24400103Y6482181D01*
X24404218Y6486296D01*
X24407266Y6491173D01*
X24409196Y6496659D01*
X24409908Y6502958D01*
X24409908Y7562291D01*
X24409196Y7568590D01*
X24407266Y7574076D01*
X24404218Y7578953D01*
X24400103Y7583068D01*
X24395226Y7586116D01*
X24389740Y7588046D01*
X24383441Y7588758D01*
X23470158Y7588758D01*
X23463859Y7588046D01*
X23458373Y7586116D01*
X23453496Y7583068D01*
X23449381Y7578953D01*
X23446333Y7574076D01*
X23444403Y7568590D01*
X23443692Y7562291D01*
X23443692Y6502958D01*
X23444403Y6496659D01*
X23446333Y6491173D01*
X23449381Y6486296D01*
X23453496Y6482181D01*
X23458373Y6479133D01*
X23463859Y6477203D01*
X23470158Y6476492D01*
X23801832Y6476492D01*
X23805743Y6475730D01*
X23808994Y6473494D01*
X23811230Y6470243D01*
X23811992Y6466332D01*
X23811992Y6261658D01*
X23812703Y6255359D01*
X23814633Y6249873D01*
X23817681Y6244996D01*
X23821796Y6240881D01*
X23826673Y6237833D01*
X23832159Y6235903D01*
G37*
G36*
X25057658Y6235192D02*
G01*
X25227991Y6235192D01*
X25234290Y6235903D01*
X25239776Y6237833D01*
X25244653Y6240881D01*
X25248768Y6244996D01*
X25251816Y6249873D01*
X25253746Y6255359D01*
X25254458Y6261658D01*
X25254458Y6466332D01*
X25255220Y6470243D01*
X25257455Y6473494D01*
X25260706Y6475730D01*
X25264618Y6476492D01*
X25602641Y6476492D01*
X25608940Y6477203D01*
X25614426Y6479133D01*
X25619303Y6482181D01*
X25623418Y6486296D01*
X25626466Y6491173D01*
X25628396Y6496659D01*
X25629108Y6502958D01*
X25629108Y7562291D01*
X25628396Y7568590D01*
X25626466Y7574076D01*
X25623418Y7578953D01*
X25619303Y7583068D01*
X25614426Y7586116D01*
X25608940Y7588046D01*
X25602641Y7588758D01*
X24689358Y7588758D01*
X24683059Y7588046D01*
X24677573Y7586116D01*
X24672696Y7583068D01*
X24668581Y7578953D01*
X24665533Y7574076D01*
X24663603Y7568590D01*
X24662892Y7562291D01*
X24662892Y6502958D01*
X24663603Y6496659D01*
X24665533Y6491173D01*
X24668581Y6486296D01*
X24672696Y6482181D01*
X24677573Y6479133D01*
X24683059Y6477203D01*
X24689358Y6476492D01*
X25021032Y6476492D01*
X25024943Y6475730D01*
X25028194Y6473494D01*
X25030430Y6470243D01*
X25031192Y6466332D01*
X25031192Y6261658D01*
X25031903Y6255359D01*
X25033833Y6249873D01*
X25036881Y6244996D01*
X25040996Y6240881D01*
X25045873Y6237833D01*
X25051359Y6235903D01*
G37*
G36*
X11646458Y6238341D02*
G01*
X11816791Y6238341D01*
X11823090Y6239103D01*
X11828576Y6240983D01*
X11833453Y6244082D01*
X11837568Y6248146D01*
X11840616Y6253073D01*
X11842546Y6258509D01*
X11843258Y6264859D01*
X11843258Y6469481D01*
X11844020Y6473393D01*
X11846255Y6476695D01*
X11849506Y6478879D01*
X11853418Y6479641D01*
X12191441Y6479641D01*
X12197740Y6480403D01*
X12203226Y6482283D01*
X12208103Y6485382D01*
X12212218Y6489446D01*
X12215266Y6494373D01*
X12217196Y6499809D01*
X12217908Y6506159D01*
X12217908Y7565440D01*
X12217196Y7571790D01*
X12215266Y7577226D01*
X12212218Y7582153D01*
X12208103Y7586218D01*
X12203226Y7589316D01*
X12197740Y7591196D01*
X12191441Y7591907D01*
X11278158Y7591907D01*
X11271859Y7591196D01*
X11266373Y7589316D01*
X11261496Y7586218D01*
X11257381Y7582153D01*
X11254333Y7577226D01*
X11252403Y7571790D01*
X11251692Y7565440D01*
X11251692Y6506159D01*
X11252403Y6499809D01*
X11254333Y6494373D01*
X11257381Y6489446D01*
X11261496Y6485382D01*
X11266373Y6482283D01*
X11271859Y6480403D01*
X11278158Y6479641D01*
X11609832Y6479641D01*
X11613743Y6478879D01*
X11616994Y6476695D01*
X11619230Y6473393D01*
X11619992Y6469481D01*
X11619992Y6264859D01*
X11620703Y6258509D01*
X11622633Y6253073D01*
X11625681Y6248146D01*
X11629796Y6244082D01*
X11634673Y6240983D01*
X11640159Y6239103D01*
G37*
G36*
X5550458Y6238341D02*
G01*
X5720791Y6238341D01*
X5727090Y6239103D01*
X5732576Y6240983D01*
X5737453Y6244082D01*
X5741568Y6248146D01*
X5744616Y6253073D01*
X5746546Y6258509D01*
X5747258Y6264859D01*
X5747258Y6469481D01*
X5748020Y6473393D01*
X5750255Y6476695D01*
X5753506Y6478879D01*
X5757418Y6479641D01*
X6095441Y6479641D01*
X6101740Y6480403D01*
X6107226Y6482283D01*
X6112103Y6485382D01*
X6116218Y6489446D01*
X6119266Y6494373D01*
X6121196Y6499809D01*
X6121908Y6506159D01*
X6121908Y7565440D01*
X6121196Y7571790D01*
X6119266Y7577226D01*
X6116218Y7582153D01*
X6112103Y7586218D01*
X6107226Y7589316D01*
X6101740Y7591196D01*
X6095441Y7591907D01*
X5182158Y7591907D01*
X5175859Y7591196D01*
X5170373Y7589316D01*
X5165496Y7586218D01*
X5161381Y7582153D01*
X5158333Y7577226D01*
X5156403Y7571790D01*
X5155692Y7565440D01*
X5155692Y6506159D01*
X5156403Y6499809D01*
X5158333Y6494373D01*
X5161381Y6489446D01*
X5165496Y6485382D01*
X5170373Y6482283D01*
X5175859Y6480403D01*
X5182158Y6479641D01*
X5513832Y6479641D01*
X5517743Y6478879D01*
X5520994Y6476695D01*
X5523230Y6473393D01*
X5523992Y6469481D01*
X5523992Y6264859D01*
X5524703Y6258509D01*
X5526633Y6253073D01*
X5529681Y6248146D01*
X5533796Y6244082D01*
X5538673Y6240983D01*
X5544159Y6239103D01*
G37*
G36*
X12865658Y6238341D02*
G01*
X13035991Y6238341D01*
X13042290Y6239103D01*
X13047776Y6240983D01*
X13052653Y6244082D01*
X13056768Y6248146D01*
X13059816Y6253073D01*
X13061746Y6258509D01*
X13062458Y6264859D01*
X13062458Y6469481D01*
X13063219Y6473393D01*
X13065455Y6476695D01*
X13068706Y6478879D01*
X13072618Y6479641D01*
X13410641Y6479641D01*
X13416940Y6480403D01*
X13422426Y6482283D01*
X13427303Y6485382D01*
X13431418Y6489446D01*
X13434466Y6494373D01*
X13436396Y6499809D01*
X13437107Y6506159D01*
X13437107Y7565440D01*
X13436396Y7571790D01*
X13434466Y7577226D01*
X13431418Y7582153D01*
X13427303Y7586218D01*
X13422426Y7589316D01*
X13416940Y7591196D01*
X13410641Y7591907D01*
X12497358Y7591907D01*
X12491059Y7591196D01*
X12485573Y7589316D01*
X12480696Y7586218D01*
X12476581Y7582153D01*
X12473533Y7577226D01*
X12471603Y7571790D01*
X12470892Y7565440D01*
X12470892Y6506159D01*
X12471603Y6499809D01*
X12473533Y6494373D01*
X12476581Y6489446D01*
X12480696Y6485382D01*
X12485573Y6482283D01*
X12491059Y6480403D01*
X12497358Y6479641D01*
X12829032Y6479641D01*
X12832943Y6478879D01*
X12836194Y6476695D01*
X12838430Y6473393D01*
X12839192Y6469481D01*
X12839192Y6264859D01*
X12839903Y6258509D01*
X12841833Y6253073D01*
X12844881Y6248146D01*
X12848996Y6244082D01*
X12853873Y6240983D01*
X12859359Y6239103D01*
G37*
G36*
X15710458Y6238341D02*
G01*
X15880791Y6238341D01*
X15887090Y6239103D01*
X15892576Y6240983D01*
X15897453Y6244082D01*
X15901568Y6248146D01*
X15904616Y6253073D01*
X15906546Y6258509D01*
X15907257Y6264859D01*
X15907257Y6469481D01*
X15908019Y6473393D01*
X15910255Y6476695D01*
X15913506Y6478879D01*
X15917418Y6479641D01*
X16255441Y6479641D01*
X16261740Y6480403D01*
X16267226Y6482283D01*
X16272103Y6485382D01*
X16276218Y6489446D01*
X16279266Y6494373D01*
X16281196Y6499809D01*
X16281907Y6506159D01*
X16281907Y7565440D01*
X16281196Y7571790D01*
X16279266Y7577226D01*
X16276218Y7582153D01*
X16272103Y7586218D01*
X16267226Y7589316D01*
X16261740Y7591196D01*
X16255441Y7591907D01*
X15342158Y7591907D01*
X15335859Y7591196D01*
X15330373Y7589316D01*
X15325496Y7586218D01*
X15321381Y7582153D01*
X15318333Y7577226D01*
X15316403Y7571790D01*
X15315692Y7565440D01*
X15315692Y6506159D01*
X15316403Y6499809D01*
X15318333Y6494373D01*
X15321381Y6489446D01*
X15325496Y6485382D01*
X15330373Y6482283D01*
X15335859Y6480403D01*
X15342158Y6479641D01*
X15673832Y6479641D01*
X15677743Y6478879D01*
X15680994Y6476695D01*
X15683230Y6473393D01*
X15683992Y6469481D01*
X15683992Y6264859D01*
X15684703Y6258509D01*
X15686633Y6253073D01*
X15689681Y6248146D01*
X15693796Y6244082D01*
X15698673Y6240983D01*
X15704159Y6239103D01*
G37*
G36*
X16929658Y6238341D02*
G01*
X17099991Y6238341D01*
X17106290Y6239103D01*
X17111776Y6240983D01*
X17116653Y6244082D01*
X17120768Y6248146D01*
X17123816Y6253073D01*
X17125746Y6258509D01*
X17126458Y6264859D01*
X17126458Y6469481D01*
X17127220Y6473393D01*
X17129455Y6476695D01*
X17132706Y6478879D01*
X17136618Y6479641D01*
X17474641Y6479641D01*
X17480940Y6480403D01*
X17486426Y6482283D01*
X17491303Y6485382D01*
X17495418Y6489446D01*
X17498466Y6494373D01*
X17500396Y6499809D01*
X17501108Y6506159D01*
X17501108Y7565440D01*
X17500396Y7571790D01*
X17498466Y7577226D01*
X17495418Y7582153D01*
X17491303Y7586218D01*
X17486426Y7589316D01*
X17480940Y7591196D01*
X17474641Y7591907D01*
X16561358Y7591907D01*
X16555059Y7591196D01*
X16549573Y7589316D01*
X16544696Y7586218D01*
X16540581Y7582153D01*
X16537533Y7577226D01*
X16535603Y7571790D01*
X16534892Y7565440D01*
X16534892Y6506159D01*
X16535603Y6499809D01*
X16537533Y6494373D01*
X16540581Y6489446D01*
X16544696Y6485382D01*
X16549573Y6482283D01*
X16555059Y6480403D01*
X16561358Y6479641D01*
X16893032Y6479641D01*
X16896943Y6478879D01*
X16900194Y6476695D01*
X16902430Y6473393D01*
X16903192Y6469481D01*
X16903192Y6264859D01*
X16903903Y6258509D01*
X16905833Y6253073D01*
X16908881Y6248146D01*
X16912996Y6244082D01*
X16917873Y6240983D01*
X16923359Y6239103D01*
G37*
G36*
X10427258Y6238341D02*
G01*
X10597591Y6238341D01*
X10603890Y6239103D01*
X10609376Y6240983D01*
X10614253Y6244082D01*
X10618368Y6248146D01*
X10621416Y6253073D01*
X10623346Y6258509D01*
X10624058Y6264859D01*
X10624058Y6469481D01*
X10624820Y6473393D01*
X10627055Y6476695D01*
X10630306Y6478879D01*
X10634218Y6479641D01*
X10972241Y6479641D01*
X10978540Y6480403D01*
X10984026Y6482283D01*
X10988903Y6485382D01*
X10993018Y6489446D01*
X10996066Y6494373D01*
X10997996Y6499809D01*
X10998708Y6506159D01*
X10998708Y7565440D01*
X10997996Y7571790D01*
X10996066Y7577226D01*
X10993018Y7582153D01*
X10988903Y7586218D01*
X10984026Y7589316D01*
X10978540Y7591196D01*
X10972241Y7591907D01*
X10058958Y7591907D01*
X10052659Y7591196D01*
X10047173Y7589316D01*
X10042296Y7586218D01*
X10038181Y7582153D01*
X10035133Y7577226D01*
X10033203Y7571790D01*
X10032492Y7565440D01*
X10032492Y6506159D01*
X10033203Y6499809D01*
X10035133Y6494373D01*
X10038181Y6489446D01*
X10042296Y6485382D01*
X10047173Y6482283D01*
X10052659Y6480403D01*
X10058958Y6479641D01*
X10390632Y6479641D01*
X10394543Y6478879D01*
X10397794Y6476695D01*
X10400030Y6473393D01*
X10400792Y6469481D01*
X10400792Y6264859D01*
X10401503Y6258509D01*
X10403433Y6253073D01*
X10406481Y6248146D01*
X10410596Y6244082D01*
X10415473Y6240983D01*
X10420959Y6239103D01*
G37*
G36*
X4331258Y6238341D02*
G01*
X4501591Y6238341D01*
X4507890Y6239103D01*
X4513376Y6240983D01*
X4518253Y6244082D01*
X4522368Y6248146D01*
X4525416Y6253073D01*
X4527346Y6258509D01*
X4528058Y6264859D01*
X4528058Y6469481D01*
X4528820Y6473393D01*
X4531055Y6476695D01*
X4534306Y6478879D01*
X4538218Y6479641D01*
X4876241Y6479641D01*
X4882540Y6480403D01*
X4888026Y6482283D01*
X4892903Y6485382D01*
X4897018Y6489446D01*
X4900066Y6494373D01*
X4901996Y6499809D01*
X4902708Y6506159D01*
X4902708Y7565440D01*
X4901996Y7571790D01*
X4900066Y7577226D01*
X4897018Y7582153D01*
X4892903Y7586218D01*
X4888026Y7589316D01*
X4882540Y7591196D01*
X4876241Y7591907D01*
X3962958Y7591907D01*
X3956659Y7591196D01*
X3951173Y7589316D01*
X3946296Y7586218D01*
X3942181Y7582153D01*
X3939133Y7577226D01*
X3937203Y7571790D01*
X3936492Y7565440D01*
X3936492Y6506159D01*
X3937203Y6499809D01*
X3939133Y6494373D01*
X3942181Y6489446D01*
X3946296Y6485382D01*
X3951173Y6482283D01*
X3956659Y6480403D01*
X3962958Y6479641D01*
X4294632Y6479641D01*
X4298543Y6478879D01*
X4301794Y6476695D01*
X4304030Y6473393D01*
X4304792Y6469481D01*
X4304792Y6264859D01*
X4305503Y6258509D01*
X4307433Y6253073D01*
X4310481Y6248146D01*
X4314596Y6244082D01*
X4319473Y6240983D01*
X4324959Y6239103D01*
G37*
G36*
X6769658Y6238341D02*
G01*
X6939991Y6238341D01*
X6946290Y6239103D01*
X6951776Y6240983D01*
X6956653Y6244082D01*
X6960768Y6248146D01*
X6963816Y6253073D01*
X6965746Y6258509D01*
X6966458Y6264859D01*
X6966458Y6469481D01*
X6967220Y6473393D01*
X6969455Y6476695D01*
X6972706Y6478879D01*
X6976618Y6479641D01*
X7314641Y6479641D01*
X7320940Y6480403D01*
X7326426Y6482283D01*
X7331303Y6485382D01*
X7335418Y6489446D01*
X7338466Y6494373D01*
X7340396Y6499809D01*
X7341108Y6506159D01*
X7341108Y7565440D01*
X7340396Y7571790D01*
X7338466Y7577226D01*
X7335418Y7582153D01*
X7331303Y7586218D01*
X7326426Y7589316D01*
X7320940Y7591196D01*
X7314641Y7591907D01*
X6401358Y7591907D01*
X6395059Y7591196D01*
X6389573Y7589316D01*
X6384696Y7586218D01*
X6380581Y7582153D01*
X6377533Y7577226D01*
X6375603Y7571790D01*
X6374892Y7565440D01*
X6374892Y6506159D01*
X6375603Y6499809D01*
X6377533Y6494373D01*
X6380581Y6489446D01*
X6384696Y6485382D01*
X6389573Y6482283D01*
X6395059Y6480403D01*
X6401358Y6479641D01*
X6733031Y6479641D01*
X6736943Y6478879D01*
X6740194Y6476695D01*
X6742430Y6473393D01*
X6743192Y6469481D01*
X6743192Y6264859D01*
X6743903Y6258509D01*
X6745833Y6253073D01*
X6748881Y6248146D01*
X6752996Y6244082D01*
X6757873Y6240983D01*
X6763359Y6239103D01*
G37*
G36*
X9208058Y6238341D02*
G01*
X9378391Y6238341D01*
X9384690Y6239103D01*
X9390176Y6240983D01*
X9395053Y6244082D01*
X9399168Y6248146D01*
X9402216Y6253073D01*
X9404146Y6258509D01*
X9404858Y6264859D01*
X9404858Y6469481D01*
X9405620Y6473393D01*
X9407855Y6476695D01*
X9411106Y6478879D01*
X9415018Y6479641D01*
X9753041Y6479641D01*
X9759340Y6480403D01*
X9764826Y6482283D01*
X9769703Y6485382D01*
X9773818Y6489446D01*
X9776866Y6494373D01*
X9778796Y6499809D01*
X9779508Y6506159D01*
X9779508Y7565440D01*
X9778796Y7571790D01*
X9776866Y7577226D01*
X9773818Y7582153D01*
X9769703Y7586218D01*
X9764826Y7589316D01*
X9759340Y7591196D01*
X9753041Y7591907D01*
X8839758Y7591907D01*
X8833459Y7591196D01*
X8827973Y7589316D01*
X8823096Y7586218D01*
X8818981Y7582153D01*
X8815933Y7577226D01*
X8814003Y7571790D01*
X8813292Y7565440D01*
X8813292Y6506159D01*
X8814003Y6499809D01*
X8815933Y6494373D01*
X8818981Y6489446D01*
X8823096Y6485382D01*
X8827973Y6482283D01*
X8833459Y6480403D01*
X8839758Y6479641D01*
X9171432Y6479641D01*
X9175343Y6478879D01*
X9178594Y6476695D01*
X9180830Y6473393D01*
X9181592Y6469481D01*
X9181592Y6264859D01*
X9182303Y6258509D01*
X9184233Y6253073D01*
X9187281Y6248146D01*
X9191396Y6244082D01*
X9196273Y6240983D01*
X9201759Y6239103D01*
G37*
G36*
X7988858Y6238341D02*
G01*
X8159191Y6238341D01*
X8165490Y6239103D01*
X8170976Y6240983D01*
X8175853Y6244082D01*
X8179968Y6248146D01*
X8183016Y6253073D01*
X8184946Y6258509D01*
X8185658Y6264859D01*
X8185658Y6469481D01*
X8186420Y6473393D01*
X8188655Y6476695D01*
X8191906Y6478879D01*
X8195818Y6479641D01*
X8533841Y6479641D01*
X8540140Y6480403D01*
X8545626Y6482283D01*
X8550503Y6485382D01*
X8554618Y6489446D01*
X8557666Y6494373D01*
X8559596Y6499809D01*
X8560308Y6506159D01*
X8560308Y7565440D01*
X8559596Y7571790D01*
X8557666Y7577226D01*
X8554618Y7582153D01*
X8550503Y7586218D01*
X8545626Y7589316D01*
X8540140Y7591196D01*
X8533841Y7591907D01*
X7620558Y7591907D01*
X7614259Y7591196D01*
X7608773Y7589316D01*
X7603896Y7586218D01*
X7599781Y7582153D01*
X7596733Y7577226D01*
X7594803Y7571790D01*
X7594092Y7565440D01*
X7594092Y6506159D01*
X7594803Y6499809D01*
X7596733Y6494373D01*
X7599781Y6489446D01*
X7603896Y6485382D01*
X7608773Y6482283D01*
X7614259Y6480403D01*
X7620558Y6479641D01*
X7952231Y6479641D01*
X7956143Y6478879D01*
X7959394Y6476695D01*
X7961630Y6473393D01*
X7962392Y6469481D01*
X7962392Y6264859D01*
X7963103Y6258509D01*
X7965033Y6253073D01*
X7968081Y6248146D01*
X7972196Y6244082D01*
X7977073Y6240983D01*
X7982559Y6239103D01*
G37*
G36*
X42532858Y6228842D02*
G01*
X42703191Y6228842D01*
X42709490Y6229553D01*
X42714976Y6231483D01*
X42719853Y6234531D01*
X42723968Y6238646D01*
X42727016Y6243523D01*
X42728946Y6249009D01*
X42729658Y6255308D01*
X42729658Y6459982D01*
X42730420Y6463893D01*
X42732655Y6467144D01*
X42735906Y6469380D01*
X42739818Y6470142D01*
X43077841Y6470142D01*
X43084140Y6470853D01*
X43089626Y6472783D01*
X43094503Y6475831D01*
X43098618Y6479946D01*
X43101666Y6484823D01*
X43103596Y6490309D01*
X43104308Y6496608D01*
X43104308Y7555941D01*
X43103596Y7562240D01*
X43101666Y7567726D01*
X43098618Y7572603D01*
X43094503Y7576718D01*
X43089626Y7579766D01*
X43084140Y7581696D01*
X43077841Y7582408D01*
X42164558Y7582408D01*
X42158259Y7581696D01*
X42152773Y7579766D01*
X42147896Y7576718D01*
X42143781Y7572603D01*
X42140733Y7567726D01*
X42138803Y7562240D01*
X42138092Y7555941D01*
X42138092Y6496608D01*
X42138803Y6490309D01*
X42140733Y6484823D01*
X42143781Y6479946D01*
X42147896Y6475831D01*
X42152773Y6472783D01*
X42158259Y6470853D01*
X42164558Y6470142D01*
X42496232Y6470142D01*
X42500143Y6469380D01*
X42503394Y6467144D01*
X42505630Y6463893D01*
X42506392Y6459982D01*
X42506392Y6255308D01*
X42507103Y6249009D01*
X42509033Y6243523D01*
X42512081Y6238646D01*
X42516196Y6234531D01*
X42521073Y6231483D01*
X42526559Y6229553D01*
G37*

%LPD*%
D10*
G01*
X2794000Y3810000D03*
G01*
X2794000Y635000D03*
G01*
X45466000Y635000D03*
G01*
X45466000Y3810000D03*
G01*
X14376400Y6972300D03*
G01*
X14376400Y5435574D03*
G01*
X2794000Y6972300D03*
G01*
X2794000Y5435600D03*
G01*
X33883600Y5435574D03*
G01*
X33883600Y6972300D03*
G01*
X45466000Y6972300D03*
G01*
X45466000Y5435600D03*
M02*
