M48
METRIC,LZ,000.000
;FILE_FORMAT=3:3
;TYPE=PLATED
;Layer: PTH_Through_Via
;EasyEDA v6.5.29, 2023-07-19 20:14:37
;41db7a399fb243939f9e48431119433e,5a6b42c53f6a479593ecc07194224c93,10
;Gerber Generator version 0.2
;Holesize 1 = 0.305 mm
T01C0.305
%
G05
G90
T01
X-020320Y-022479
X-021583Y-026233
X-021463Y-015240
X-012573Y-020701
X-013257Y-020320
X-017448Y-015240
X-014654Y-019431
X-012573Y-028448
X-024892Y-027432
X-012573Y-024384
X-025068Y-016383
X-016940Y-022479
X-019226Y-022479
X-019226Y-023876
X-016940Y-023876
X-015543Y-022479
X-023671Y-024638
X-024814Y-021082
X-022274Y-019085
X-019734Y-020320
X-020623Y-020320
X-023671Y-019304
X-022401Y-017907
X-018718Y-017907
X-019480Y-017526
X-023671Y-018542
X-023671Y-017780
X-017956Y-024765
X-017702Y-020320
X-016432Y-016435
X-016686Y-027235
X-016940Y-025273
X-015162Y-027940
X-023163Y-029718
X-015543Y-020320
X-018718Y-024765
X-018845Y-020320
X-025019Y-043053
X-025019Y-041021
X-025019Y-034544
X-025019Y-036576
X-009779Y-002540
X-013843Y-010795
X-026162Y001270
X-026924Y-002667
X-022606Y-008517
X-021336Y001270
X-020701Y-008509
X-013970Y-009144
X-014224Y-008255
X-019558Y-008255
X-020066Y003302
X-021336Y-011938
X-020066Y-011938
X-026543Y-006858
X-021336Y-006858
X-023241Y-007747
X-017907Y-006096
X-009779Y-012700
X-006653Y-012079
X-001192Y-012065
X-001192Y-019177
X-006541Y-019191
X006223Y000000
X-026924Y018796
X-026162Y034036
X-013970Y034027
X-013970Y018787
X-014732Y003302
X-016002Y001270
X-014733Y002121
X-020066Y002032
X-024638Y-002159
X-004572Y000000
X-024511Y002032
X-025273Y001143
X-017907Y-007239
X-025273Y004191
X-013335Y004191
X-025019Y-000254
X-001143Y003302
X-021336Y-007747
X-024511Y-011938
X-009779Y002121
X008388Y018787
X008373Y034027
X-022606Y011684
X-003937Y008763
X-021844Y008763
X-024511Y020828
X009525Y020828
X-023242Y024130
X-015367Y024130
X-016002Y006858
X009525Y005715
X-017272Y006858
X-016637Y015748
X-017907Y017351
X-005719Y030591
X-028194Y-021844
X-028194Y027051
X-020574Y-021463
X-024257Y-007747
X-003937Y014351
X-018669Y-017145
X-011811Y-026543
X-004875Y-029416
X-011811Y-027305
X-007366Y-027559
X-011811Y-025019
X-009955Y-025019
X-011811Y-025781
X-010541Y-033401
X-012495Y-033401
X-010542Y-025781
X-015875Y-025146
X-015875Y-030099
X-028194Y-022733
X-027559Y-023241
X-026797Y-023622
X-026035Y-024003
X-025273Y-024384
X-025273Y-025273
X-028194Y-045974
X-003120Y-047752
X-028194Y-047752
X-027178Y-058420
X-026162Y-052324
X-025781Y-051308
X-025400Y-050292
X-017145Y-030099
X-019431Y-046990
X-019431Y-048514
X-013462Y-027813
X-012192Y-023114
X-024511Y-024638
X-018923Y-030988
M30
