G04 Layer: TopPasteMaskLayer*
G04 EasyEDA v6.5.29, 2023-07-19 20:14:37*
G04 41db7a399fb243939f9e48431119433e,5a6b42c53f6a479593ecc07194224c93,10*
G04 Gerber Generator version 0.2*
G04 Scale: 100 percent, Rotated: No, Reflected: No *
G04 Dimensions in millimeters *
G04 leading zeros omitted , absolute positions ,4 integer and 5 decimal *
%FSLAX45Y45*%
%MOMM*%

%AMMACRO1*21,1,$1,$2,0,0,$3*%
%ADD10O,0.58801X2.0450048*%
%ADD11R,0.8000X0.8000*%
%ADD12MACRO1,2.592X2.2075X-90.0000*%
%ADD13MACRO1,1.2X1.4X90.0000*%
%ADD14R,1.4000X1.2000*%
%ADD15MACRO1,1.2X1.4X-90.0000*%
%ADD16R,0.6000X0.2800*%
%ADD17R,0.3000X1.7000*%
%ADD18R,0.5500X0.5500*%
%ADD19R,1.5500X0.6000*%
%ADD20R,2.0000X1.5000*%
%ADD21R,1.0700X0.6000*%
%ADD22MACRO1,0.532X1.0375X-90.0000*%
%ADD23R,1.2000X0.9500*%
%ADD24R,2.5000X1.1000*%
%ADD25MACRO1,3.6X2.34X90.0000*%
%ADD26MACRO1,1.05X2.465X-90.0000*%
%ADD27MACRO1,3.54X2.465X90.0000*%
%ADD28C,0.0140*%

%LPD*%
G36*
X673252Y-2449423D02*
G01*
X663244Y-2459431D01*
X663244Y-2580081D01*
X673252Y-2590088D01*
X768705Y-2590088D01*
X778713Y-2580081D01*
X778713Y-2552293D01*
X788720Y-2542286D01*
X887679Y-2542286D01*
X897686Y-2552293D01*
X897686Y-2580081D01*
X907694Y-2590088D01*
X1003147Y-2590088D01*
X1013155Y-2580081D01*
X1013155Y-2459431D01*
X1003147Y-2449423D01*
G37*
G36*
X673252Y-2820111D02*
G01*
X663244Y-2830118D01*
X663244Y-2950768D01*
X673252Y-2960776D01*
X1003147Y-2960776D01*
X1013155Y-2950768D01*
X1013155Y-2830118D01*
X1003147Y-2820111D01*
X907694Y-2820111D01*
X897686Y-2830118D01*
X897686Y-2857906D01*
X887679Y-2867914D01*
X788720Y-2867914D01*
X778713Y-2857906D01*
X778713Y-2830118D01*
X768705Y-2820111D01*
G37*
G36*
X-1157630Y-3882593D02*
G01*
X-1162608Y-3887622D01*
X-1162608Y-3967581D01*
X-1157630Y-3972610D01*
X-1077620Y-3972610D01*
X-1072591Y-3967581D01*
X-1072591Y-3887622D01*
X-1077620Y-3882593D01*
X-1100378Y-3882593D01*
X-1100378Y-3919626D01*
X-1133398Y-3919626D01*
X-1133398Y-3882593D01*
G37*
G36*
X-1157630Y-3723589D02*
G01*
X-1162608Y-3728618D01*
X-1162608Y-3807612D01*
X-1157630Y-3812590D01*
X-1133398Y-3812590D01*
X-1133398Y-3774592D01*
X-1100378Y-3774592D01*
X-1100378Y-3812590D01*
X-1077620Y-3812590D01*
X-1072591Y-3807612D01*
X-1072591Y-3728618D01*
X-1077620Y-3723589D01*
G37*
G36*
X-1005230Y-3882593D02*
G01*
X-1010208Y-3887622D01*
X-1010208Y-3967581D01*
X-1005230Y-3972610D01*
X-925220Y-3972610D01*
X-920191Y-3967581D01*
X-920191Y-3887622D01*
X-925220Y-3882593D01*
X-947978Y-3882593D01*
X-947978Y-3919626D01*
X-980998Y-3919626D01*
X-980998Y-3882593D01*
G37*
G36*
X-1005230Y-3723589D02*
G01*
X-1010208Y-3728618D01*
X-1010208Y-3807612D01*
X-1005230Y-3812590D01*
X-980998Y-3812590D01*
X-980998Y-3774592D01*
X-947978Y-3774592D01*
X-947978Y-3812590D01*
X-925220Y-3812590D01*
X-920191Y-3807612D01*
X-920191Y-3728618D01*
X-925220Y-3723589D01*
G37*
G36*
X-649630Y-3882593D02*
G01*
X-654608Y-3887622D01*
X-654608Y-3967581D01*
X-649630Y-3972610D01*
X-569620Y-3972610D01*
X-564591Y-3967581D01*
X-564591Y-3887622D01*
X-569620Y-3882593D01*
X-592378Y-3882593D01*
X-592378Y-3919626D01*
X-625398Y-3919626D01*
X-625398Y-3882593D01*
G37*
G36*
X-649630Y-3723589D02*
G01*
X-654608Y-3728618D01*
X-654608Y-3807612D01*
X-649630Y-3812590D01*
X-625398Y-3812590D01*
X-625398Y-3774592D01*
X-592378Y-3774592D01*
X-592378Y-3812590D01*
X-569620Y-3812590D01*
X-564591Y-3807612D01*
X-564591Y-3728618D01*
X-569620Y-3723589D01*
G37*
G36*
X-802030Y-3882593D02*
G01*
X-807008Y-3887622D01*
X-807008Y-3967581D01*
X-802030Y-3972610D01*
X-722020Y-3972610D01*
X-716991Y-3967581D01*
X-716991Y-3887622D01*
X-722020Y-3882593D01*
X-744778Y-3882593D01*
X-744778Y-3919626D01*
X-777798Y-3919626D01*
X-777798Y-3882593D01*
G37*
G36*
X-802030Y-3723589D02*
G01*
X-807008Y-3728618D01*
X-807008Y-3807612D01*
X-802030Y-3812590D01*
X-777798Y-3812590D01*
X-777798Y-3774592D01*
X-744778Y-3774592D01*
X-744778Y-3812590D01*
X-722020Y-3812590D01*
X-716991Y-3807612D01*
X-716991Y-3728618D01*
X-722020Y-3723589D01*
G37*
G36*
X-332079Y975410D02*
G01*
X-337108Y970381D01*
X-337108Y890422D01*
X-332079Y885393D01*
X-309321Y885393D01*
X-309321Y922426D01*
X-276301Y922426D01*
X-276301Y885393D01*
X-252120Y885393D01*
X-247091Y890422D01*
X-247091Y970381D01*
X-252120Y975410D01*
G37*
G36*
X-332079Y815390D02*
G01*
X-337108Y810412D01*
X-337108Y731418D01*
X-332079Y726389D01*
X-252120Y726389D01*
X-247091Y731418D01*
X-247091Y810412D01*
X-252120Y815390D01*
X-276301Y815390D01*
X-276301Y777392D01*
X-309321Y777392D01*
X-309321Y815390D01*
G37*
G36*
X-332079Y2296210D02*
G01*
X-337108Y2291181D01*
X-337108Y2211222D01*
X-332079Y2206193D01*
X-309321Y2206193D01*
X-309321Y2243226D01*
X-276301Y2243226D01*
X-276301Y2206193D01*
X-252120Y2206193D01*
X-247091Y2211222D01*
X-247091Y2291181D01*
X-252120Y2296210D01*
G37*
G36*
X-332079Y2136190D02*
G01*
X-337108Y2131212D01*
X-337108Y2052218D01*
X-332079Y2047189D01*
X-252120Y2047189D01*
X-247091Y2052218D01*
X-247091Y2131212D01*
X-252120Y2136190D01*
X-276301Y2136190D01*
X-276301Y2098192D01*
X-309321Y2098192D01*
X-309321Y2136190D01*
G37*
G36*
X-1892706Y-188417D02*
G01*
X-1897684Y-193395D01*
X-1897684Y-238404D01*
X-1892706Y-243382D01*
X-1839722Y-243382D01*
X-1834692Y-238404D01*
X-1834692Y-193395D01*
X-1839722Y-188417D01*
G37*
G36*
X-1995678Y-188417D02*
G01*
X-2000707Y-193395D01*
X-2000707Y-238404D01*
X-1995678Y-243382D01*
X-1942693Y-243382D01*
X-1937715Y-238404D01*
X-1937715Y-193395D01*
X-1942693Y-188417D01*
G37*
G36*
X-2287828Y-188417D02*
G01*
X-2292807Y-193395D01*
X-2292807Y-238404D01*
X-2287828Y-243382D01*
X-2234793Y-243382D01*
X-2229815Y-238404D01*
X-2229815Y-193395D01*
X-2234793Y-188417D01*
G37*
G36*
X-2184806Y-188417D02*
G01*
X-2189784Y-193395D01*
X-2189784Y-238404D01*
X-2184806Y-243382D01*
X-2131822Y-243382D01*
X-2126792Y-238404D01*
X-2126792Y-193395D01*
X-2131822Y-188417D01*
G37*
G36*
X-2549804Y246684D02*
G01*
X-2554782Y241706D01*
X-2554782Y188722D01*
X-2549804Y183692D01*
X-2504795Y183692D01*
X-2499817Y188722D01*
X-2499817Y241706D01*
X-2504795Y246684D01*
G37*
G36*
X-2549804Y349707D02*
G01*
X-2554782Y344678D01*
X-2554782Y291693D01*
X-2549804Y286715D01*
X-2504795Y286715D01*
X-2499817Y291693D01*
X-2499817Y344678D01*
X-2504795Y349707D01*
G37*
G36*
X-865479Y-777189D02*
G01*
X-870508Y-782218D01*
X-870508Y-862177D01*
X-865479Y-867206D01*
X-842721Y-867206D01*
X-842721Y-830173D01*
X-809701Y-830173D01*
X-809701Y-867206D01*
X-785520Y-867206D01*
X-780491Y-862177D01*
X-780491Y-782218D01*
X-785520Y-777189D01*
G37*
G36*
X-865479Y-937209D02*
G01*
X-870508Y-942187D01*
X-870508Y-1021181D01*
X-865479Y-1026210D01*
X-785520Y-1026210D01*
X-780491Y-1021181D01*
X-780491Y-942187D01*
X-785520Y-937209D01*
X-809701Y-937209D01*
X-809701Y-975207D01*
X-842721Y-975207D01*
X-842721Y-937209D01*
G37*
G36*
X-1356004Y246684D02*
G01*
X-1360982Y241706D01*
X-1360982Y188722D01*
X-1356004Y183692D01*
X-1310995Y183692D01*
X-1306017Y188722D01*
X-1306017Y241706D01*
X-1310995Y246684D01*
G37*
G36*
X-1356004Y349707D02*
G01*
X-1360982Y344678D01*
X-1360982Y291693D01*
X-1356004Y286715D01*
X-1310995Y286715D01*
X-1306017Y291693D01*
X-1306017Y344678D01*
X-1310995Y349707D01*
G37*
G36*
X912520Y1927910D02*
G01*
X907491Y1922881D01*
X907491Y1842922D01*
X912520Y1837893D01*
X935278Y1837893D01*
X935278Y1874926D01*
X968298Y1874926D01*
X968298Y1837893D01*
X992479Y1837893D01*
X997508Y1842922D01*
X997508Y1922881D01*
X992479Y1927910D01*
G37*
G36*
X912520Y1767890D02*
G01*
X907491Y1762912D01*
X907491Y1683918D01*
X912520Y1678889D01*
X992479Y1678889D01*
X997508Y1683918D01*
X997508Y1762912D01*
X992479Y1767890D01*
X968298Y1767890D01*
X968298Y1729892D01*
X935278Y1729892D01*
X935278Y1767890D01*
G37*
G36*
X912520Y3451910D02*
G01*
X907491Y3446881D01*
X907491Y3366922D01*
X912520Y3361893D01*
X935278Y3361893D01*
X935278Y3398926D01*
X968298Y3398926D01*
X968298Y3361893D01*
X992479Y3361893D01*
X997508Y3366922D01*
X997508Y3446881D01*
X992479Y3451910D01*
G37*
G36*
X912520Y3291890D02*
G01*
X907491Y3286912D01*
X907491Y3207918D01*
X912520Y3202889D01*
X992479Y3202889D01*
X997508Y3207918D01*
X997508Y3286912D01*
X992479Y3291890D01*
X968298Y3291890D01*
X968298Y3253892D01*
X935278Y3253892D01*
X935278Y3291890D01*
G37*
G36*
X-1487881Y-1783283D02*
G01*
X-1492910Y-1790293D01*
X-1492910Y-1838299D01*
X-1487881Y-1843278D01*
X-1442923Y-1843278D01*
X-1437894Y-1838299D01*
X-1437894Y-1790293D01*
X-1442923Y-1783283D01*
G37*
G36*
X-1487881Y-1687322D02*
G01*
X-1492910Y-1692300D01*
X-1492910Y-1740306D01*
X-1487881Y-1747316D01*
X-1442923Y-1747316D01*
X-1437894Y-1740306D01*
X-1437894Y-1692300D01*
X-1442923Y-1687322D01*
G37*
G36*
X-1694383Y-1775917D02*
G01*
X-1701393Y-1780895D01*
X-1701393Y-1825904D01*
X-1694383Y-1830882D01*
X-1646377Y-1830882D01*
X-1641398Y-1825904D01*
X-1641398Y-1780895D01*
X-1646377Y-1775917D01*
G37*
G36*
X-1792376Y-1775917D02*
G01*
X-1797405Y-1780895D01*
X-1797405Y-1825904D01*
X-1792376Y-1830882D01*
X-1744421Y-1830882D01*
X-1737410Y-1825904D01*
X-1737410Y-1780895D01*
X-1744421Y-1775917D01*
G37*
G36*
X-1386281Y-1785315D02*
G01*
X-1391310Y-1790293D01*
X-1391310Y-1843278D01*
X-1386281Y-1848307D01*
X-1341323Y-1848307D01*
X-1336294Y-1843278D01*
X-1336294Y-1790293D01*
X-1341323Y-1785315D01*
G37*
G36*
X-1386332Y-1682292D02*
G01*
X-1391310Y-1687322D01*
X-1391310Y-1740306D01*
X-1386281Y-1745284D01*
X-1341323Y-1745284D01*
X-1336294Y-1740306D01*
X-1336294Y-1687322D01*
X-1341323Y-1682292D01*
G37*
G36*
X-2457805Y-2868117D02*
G01*
X-2462784Y-2873095D01*
X-2462784Y-2918104D01*
X-2457805Y-2923082D01*
X-2404821Y-2923082D01*
X-2399792Y-2918104D01*
X-2399792Y-2873095D01*
X-2404821Y-2868117D01*
G37*
G36*
X-2354783Y-2868117D02*
G01*
X-2359812Y-2873095D01*
X-2359812Y-2918104D01*
X-2354783Y-2923082D01*
X-2301798Y-2923082D01*
X-2296820Y-2918104D01*
X-2296820Y-2873095D01*
X-2301798Y-2868117D01*
G37*
G36*
X-1733905Y-2880817D02*
G01*
X-1738884Y-2885795D01*
X-1738884Y-2930804D01*
X-1733905Y-2935782D01*
X-1680921Y-2935782D01*
X-1675892Y-2930804D01*
X-1675892Y-2885795D01*
X-1680921Y-2880817D01*
G37*
G36*
X-1630883Y-2880817D02*
G01*
X-1635912Y-2885795D01*
X-1635912Y-2930804D01*
X-1630883Y-2935782D01*
X-1577898Y-2935782D01*
X-1572920Y-2930804D01*
X-1572920Y-2885795D01*
X-1577898Y-2880817D01*
G37*
G36*
X-1733905Y-2779217D02*
G01*
X-1738884Y-2784195D01*
X-1738884Y-2829204D01*
X-1733905Y-2834182D01*
X-1680921Y-2834182D01*
X-1675892Y-2829204D01*
X-1675892Y-2784195D01*
X-1680921Y-2779217D01*
G37*
G36*
X-1630883Y-2779217D02*
G01*
X-1635912Y-2784195D01*
X-1635912Y-2829204D01*
X-1630883Y-2834182D01*
X-1577898Y-2834182D01*
X-1572920Y-2829204D01*
X-1572920Y-2784195D01*
X-1577898Y-2779217D01*
G37*
G36*
X-2218334Y-2003298D02*
G01*
X-2218334Y-2023313D01*
X-2108301Y-2023313D01*
X-2108301Y-2003298D01*
G37*
G36*
X-2218334Y-2043277D02*
G01*
X-2218334Y-2063292D01*
X-2108301Y-2063292D01*
X-2108301Y-2043277D01*
G37*
G36*
X-2218334Y-2083307D02*
G01*
X-2218334Y-2103323D01*
X-2108301Y-2103323D01*
X-2108301Y-2083307D01*
G37*
G36*
X-2218334Y-2123338D02*
G01*
X-2218334Y-2143302D01*
X-2108301Y-2143302D01*
X-2108301Y-2123338D01*
G37*
G36*
X-2218334Y-2163267D02*
G01*
X-2218334Y-2183282D01*
X-2108301Y-2183282D01*
X-2108301Y-2163267D01*
G37*
G36*
X-2218334Y-2203297D02*
G01*
X-2218334Y-2223312D01*
X-2108301Y-2223312D01*
X-2108301Y-2203297D01*
G37*
G36*
X-2218334Y-2243277D02*
G01*
X-2218334Y-2263292D01*
X-2108301Y-2263292D01*
X-2108301Y-2243277D01*
G37*
G36*
X-2218334Y-2283307D02*
G01*
X-2218334Y-2303322D01*
X-2108301Y-2303322D01*
X-2108301Y-2283307D01*
G37*
G36*
X-2218334Y-2323287D02*
G01*
X-2218334Y-2343302D01*
X-2108301Y-2343302D01*
X-2108301Y-2323287D01*
G37*
G36*
X-2218334Y-2363266D02*
G01*
X-2218334Y-2383282D01*
X-2108301Y-2383282D01*
X-2108301Y-2363266D01*
G37*
G36*
X-2218334Y-2403297D02*
G01*
X-2218334Y-2423312D01*
X-2108301Y-2423312D01*
X-2108301Y-2403297D01*
G37*
G36*
X-2218334Y-2443327D02*
G01*
X-2218334Y-2463292D01*
X-2108301Y-2463292D01*
X-2108301Y-2443327D01*
G37*
G36*
X-2218334Y-2483307D02*
G01*
X-2218334Y-2503322D01*
X-2108301Y-2503322D01*
X-2108301Y-2483307D01*
G37*
G36*
X-2218334Y-2523286D02*
G01*
X-2218334Y-2543302D01*
X-2108301Y-2543302D01*
X-2108301Y-2523286D01*
G37*
G36*
X-2078278Y-2573274D02*
G01*
X-2078278Y-2683306D01*
X-2058314Y-2683306D01*
X-2058314Y-2573274D01*
G37*
G36*
X-2038299Y-2573274D02*
G01*
X-2038299Y-2683306D01*
X-2018334Y-2683306D01*
X-2018334Y-2573274D01*
G37*
G36*
X-1998319Y-2573274D02*
G01*
X-1998319Y-2683306D01*
X-1978304Y-2683306D01*
X-1978304Y-2573274D01*
G37*
G36*
X-1958289Y-2573274D02*
G01*
X-1958289Y-2683306D01*
X-1938324Y-2683306D01*
X-1938324Y-2573274D01*
G37*
G36*
X-1918309Y-2573274D02*
G01*
X-1918309Y-2683306D01*
X-1898294Y-2683306D01*
X-1898294Y-2573274D01*
G37*
G36*
X-1878279Y-2573274D02*
G01*
X-1878279Y-2683306D01*
X-1858314Y-2683306D01*
X-1858314Y-2573274D01*
G37*
G36*
X-1838299Y-2573274D02*
G01*
X-1838299Y-2683306D01*
X-1818335Y-2683306D01*
X-1818335Y-2573274D01*
G37*
G36*
X-1798320Y-2573274D02*
G01*
X-1798320Y-2683306D01*
X-1778304Y-2683306D01*
X-1778304Y-2573274D01*
G37*
G36*
X-1758289Y-2573274D02*
G01*
X-1758289Y-2683306D01*
X-1738325Y-2683306D01*
X-1738325Y-2573274D01*
G37*
G36*
X-1718310Y-2573274D02*
G01*
X-1718310Y-2683306D01*
X-1698294Y-2683306D01*
X-1698294Y-2573274D01*
G37*
G36*
X-1678279Y-2573274D02*
G01*
X-1678279Y-2683306D01*
X-1658315Y-2683306D01*
X-1658315Y-2573274D01*
G37*
G36*
X-1638300Y-2573274D02*
G01*
X-1638300Y-2683306D01*
X-1618335Y-2683306D01*
X-1618335Y-2573274D01*
G37*
G36*
X-1598320Y-2573274D02*
G01*
X-1598320Y-2683306D01*
X-1578305Y-2683306D01*
X-1578305Y-2573274D01*
G37*
G36*
X-1558290Y-2573274D02*
G01*
X-1558290Y-2683306D01*
X-1538325Y-2683306D01*
X-1538325Y-2573274D01*
G37*
G36*
X-1508302Y-2523286D02*
G01*
X-1508302Y-2543302D01*
X-1398270Y-2543302D01*
X-1398270Y-2523286D01*
G37*
G36*
X-1508302Y-2483307D02*
G01*
X-1508302Y-2503322D01*
X-1398270Y-2503322D01*
X-1398270Y-2483307D01*
G37*
G36*
X-1508302Y-2443327D02*
G01*
X-1508302Y-2463292D01*
X-1398270Y-2463292D01*
X-1398270Y-2443327D01*
G37*
G36*
X-1508302Y-2403297D02*
G01*
X-1508302Y-2423312D01*
X-1398270Y-2423312D01*
X-1398270Y-2403297D01*
G37*
G36*
X-1508302Y-2363266D02*
G01*
X-1508302Y-2383282D01*
X-1398270Y-2383282D01*
X-1398270Y-2363266D01*
G37*
G36*
X-1508302Y-2323287D02*
G01*
X-1508302Y-2343302D01*
X-1398270Y-2343302D01*
X-1398270Y-2323287D01*
G37*
G36*
X-1508302Y-2283307D02*
G01*
X-1508302Y-2303322D01*
X-1398270Y-2303322D01*
X-1398270Y-2283307D01*
G37*
G36*
X-1508302Y-2243277D02*
G01*
X-1508302Y-2263292D01*
X-1398270Y-2263292D01*
X-1398270Y-2243277D01*
G37*
G36*
X-1508302Y-2203297D02*
G01*
X-1508302Y-2223312D01*
X-1398270Y-2223312D01*
X-1398270Y-2203297D01*
G37*
G36*
X-1508302Y-2163267D02*
G01*
X-1508302Y-2183282D01*
X-1398270Y-2183282D01*
X-1398270Y-2163267D01*
G37*
G36*
X-1508302Y-2123338D02*
G01*
X-1508302Y-2143302D01*
X-1398270Y-2143302D01*
X-1398270Y-2123338D01*
G37*
G36*
X-1508302Y-2083307D02*
G01*
X-1508302Y-2103323D01*
X-1398270Y-2103323D01*
X-1398270Y-2083307D01*
G37*
G36*
X-1508302Y-2043277D02*
G01*
X-1508302Y-2063292D01*
X-1398270Y-2063292D01*
X-1398270Y-2043277D01*
G37*
G36*
X-1508302Y-2003298D02*
G01*
X-1508302Y-2023313D01*
X-1398270Y-2023313D01*
X-1398270Y-2003298D01*
G37*
G36*
X-1558290Y-1863293D02*
G01*
X-1558290Y-1973325D01*
X-1538325Y-1973325D01*
X-1538325Y-1863293D01*
G37*
G36*
X-1598320Y-1863293D02*
G01*
X-1598320Y-1973325D01*
X-1578305Y-1973325D01*
X-1578305Y-1863293D01*
G37*
G36*
X-1638300Y-1863293D02*
G01*
X-1638300Y-1973325D01*
X-1618335Y-1973325D01*
X-1618335Y-1863293D01*
G37*
G36*
X-1678279Y-1863293D02*
G01*
X-1678279Y-1973325D01*
X-1658315Y-1973325D01*
X-1658315Y-1863293D01*
G37*
G36*
X-1718310Y-1863293D02*
G01*
X-1718310Y-1973325D01*
X-1698294Y-1973325D01*
X-1698294Y-1863293D01*
G37*
G36*
X-1758289Y-1863293D02*
G01*
X-1758289Y-1973325D01*
X-1738325Y-1973325D01*
X-1738325Y-1863293D01*
G37*
G36*
X-1798320Y-1863293D02*
G01*
X-1798320Y-1973325D01*
X-1778304Y-1973325D01*
X-1778304Y-1863293D01*
G37*
G36*
X-1838299Y-1863293D02*
G01*
X-1838299Y-1973325D01*
X-1818335Y-1973325D01*
X-1818335Y-1863293D01*
G37*
G36*
X-1878279Y-1863293D02*
G01*
X-1878279Y-1973325D01*
X-1858314Y-1973325D01*
X-1858314Y-1863293D01*
G37*
G36*
X-1918309Y-1863293D02*
G01*
X-1918309Y-1973325D01*
X-1898294Y-1973325D01*
X-1898294Y-1863293D01*
G37*
G36*
X-1958289Y-1863293D02*
G01*
X-1958289Y-1973325D01*
X-1938324Y-1973325D01*
X-1938324Y-1863293D01*
G37*
G36*
X-1998319Y-1863293D02*
G01*
X-1998319Y-1973325D01*
X-1978304Y-1973325D01*
X-1978304Y-1863293D01*
G37*
G36*
X-2038299Y-1863293D02*
G01*
X-2038299Y-1973325D01*
X-2018334Y-1973325D01*
X-2018334Y-1863293D01*
G37*
G36*
X-2078278Y-1863293D02*
G01*
X-2078278Y-1973325D01*
X-2058314Y-1973325D01*
X-2058314Y-1863293D01*
G37*
G36*
X-1743303Y-2128316D02*
G01*
X-1743303Y-2208276D01*
X-1663293Y-2208276D01*
X-1663293Y-2128316D01*
G37*
G36*
X-1953310Y-2128316D02*
G01*
X-1953310Y-2208276D01*
X-1873300Y-2208276D01*
X-1873300Y-2128316D01*
G37*
G36*
X-1953310Y-2338273D02*
G01*
X-1953310Y-2418283D01*
X-1873300Y-2418283D01*
X-1873300Y-2338273D01*
G37*
G36*
X-1743303Y-2338273D02*
G01*
X-1743303Y-2418283D01*
X-1663293Y-2418283D01*
X-1663293Y-2338273D01*
G37*
G36*
X-1743303Y-2233320D02*
G01*
X-1743303Y-2313330D01*
X-1663344Y-2313330D01*
X-1663344Y-2233320D01*
G37*
G36*
X-1848307Y-2128266D02*
G01*
X-1848307Y-2208276D01*
X-1768297Y-2208276D01*
X-1768297Y-2128266D01*
G37*
G36*
X-1953310Y-2233320D02*
G01*
X-1953310Y-2313330D01*
X-1873300Y-2313330D01*
X-1873300Y-2233320D01*
G37*
G36*
X-1848307Y-2233320D02*
G01*
X-1848307Y-2313279D01*
X-1768297Y-2313279D01*
X-1768297Y-2233320D01*
G37*
G36*
X-1848307Y-2338781D02*
G01*
X-1848307Y-2418791D01*
X-1768297Y-2418791D01*
X-1768297Y-2338781D01*
G37*
G36*
X-1694383Y-1674317D02*
G01*
X-1699412Y-1679295D01*
X-1699412Y-1724304D01*
X-1694383Y-1729282D01*
X-1641398Y-1729282D01*
X-1636420Y-1724304D01*
X-1636420Y-1679295D01*
X-1641398Y-1674317D01*
G37*
G36*
X-1797405Y-1674317D02*
G01*
X-1802384Y-1679295D01*
X-1802384Y-1724304D01*
X-1797405Y-1729282D01*
X-1744421Y-1729282D01*
X-1739392Y-1724304D01*
X-1739392Y-1679295D01*
X-1744421Y-1674317D01*
G37*
G36*
X-1492605Y-2677617D02*
G01*
X-1497584Y-2682595D01*
X-1497584Y-2727604D01*
X-1492605Y-2732582D01*
X-1439621Y-2732582D01*
X-1434592Y-2727604D01*
X-1434592Y-2682595D01*
X-1439621Y-2677617D01*
G37*
G36*
X-1389583Y-2677617D02*
G01*
X-1394612Y-2682595D01*
X-1394612Y-2727604D01*
X-1389583Y-2732582D01*
X-1336598Y-2732582D01*
X-1331620Y-2727604D01*
X-1331620Y-2682595D01*
X-1336598Y-2677617D01*
G37*
G36*
X-1314805Y-2347417D02*
G01*
X-1319784Y-2352395D01*
X-1319784Y-2397404D01*
X-1314805Y-2402382D01*
X-1261821Y-2402382D01*
X-1256792Y-2397404D01*
X-1256792Y-2352395D01*
X-1261821Y-2347417D01*
G37*
G36*
X-1211783Y-2347417D02*
G01*
X-1216812Y-2352395D01*
X-1216812Y-2397404D01*
X-1211783Y-2402382D01*
X-1158798Y-2402382D01*
X-1153820Y-2397404D01*
X-1153820Y-2352395D01*
X-1158798Y-2347417D01*
G37*
G36*
X-2326081Y-1974392D02*
G01*
X-2331110Y-1979422D01*
X-2331110Y-2032406D01*
X-2326081Y-2037384D01*
X-2281123Y-2037384D01*
X-2276094Y-2032406D01*
X-2276094Y-1979422D01*
X-2281123Y-1974392D01*
G37*
G36*
X-2326081Y-2077415D02*
G01*
X-2331110Y-2082393D01*
X-2331110Y-2135378D01*
X-2326081Y-2140407D01*
X-2281072Y-2140407D01*
X-2276094Y-2135378D01*
X-2276094Y-2082393D01*
X-2281123Y-2077415D01*
G37*
G36*
X-2427681Y-1974392D02*
G01*
X-2432710Y-1979422D01*
X-2432710Y-2032406D01*
X-2427681Y-2037384D01*
X-2382723Y-2037384D01*
X-2377694Y-2032406D01*
X-2377694Y-1979422D01*
X-2382723Y-1974392D01*
G37*
G36*
X-2427681Y-2077415D02*
G01*
X-2432710Y-2082393D01*
X-2432710Y-2135378D01*
X-2427681Y-2140407D01*
X-2382672Y-2140407D01*
X-2377694Y-2135378D01*
X-2377694Y-2082393D01*
X-2382723Y-2077415D01*
G37*
G36*
X-2342083Y-2360117D02*
G01*
X-2347112Y-2365095D01*
X-2347112Y-2410104D01*
X-2342083Y-2415082D01*
X-2289098Y-2415082D01*
X-2284120Y-2410104D01*
X-2284120Y-2365095D01*
X-2289098Y-2360117D01*
G37*
G36*
X-2445105Y-2360117D02*
G01*
X-2450084Y-2365095D01*
X-2450084Y-2410104D01*
X-2445105Y-2415082D01*
X-2392121Y-2415082D01*
X-2387092Y-2410104D01*
X-2387092Y-2365095D01*
X-2392121Y-2360117D01*
G37*
G36*
X-2545283Y-2639517D02*
G01*
X-2550312Y-2644495D01*
X-2550312Y-2689504D01*
X-2545283Y-2694482D01*
X-2492298Y-2694482D01*
X-2487320Y-2689504D01*
X-2487320Y-2644495D01*
X-2492298Y-2639517D01*
G37*
G36*
X-2648305Y-2639517D02*
G01*
X-2653284Y-2644495D01*
X-2653284Y-2689504D01*
X-2648305Y-2694482D01*
X-2595321Y-2694482D01*
X-2590292Y-2689504D01*
X-2590292Y-2644495D01*
X-2595321Y-2639517D01*
G37*
G36*
X-865479Y-1799793D02*
G01*
X-870508Y-1804822D01*
X-870508Y-1884781D01*
X-865479Y-1889810D01*
X-785520Y-1889810D01*
X-780491Y-1884781D01*
X-780491Y-1804822D01*
X-785520Y-1799793D01*
X-808278Y-1799793D01*
X-808278Y-1836826D01*
X-841298Y-1836826D01*
X-841298Y-1799793D01*
G37*
G36*
X-865479Y-1640789D02*
G01*
X-870508Y-1645818D01*
X-870508Y-1724812D01*
X-865479Y-1729790D01*
X-841298Y-1729790D01*
X-841298Y-1691792D01*
X-808278Y-1691792D01*
X-808278Y-1729790D01*
X-785520Y-1729790D01*
X-780491Y-1724812D01*
X-780491Y-1645818D01*
X-785520Y-1640789D01*
G37*
G36*
X-1527505Y-1478991D02*
G01*
X-1532483Y-1484020D01*
X-1532483Y-1506778D01*
X-1495501Y-1506778D01*
X-1495501Y-1539798D01*
X-1532483Y-1539798D01*
X-1532483Y-1563979D01*
X-1527505Y-1569008D01*
X-1447495Y-1569008D01*
X-1442516Y-1563979D01*
X-1442516Y-1484020D01*
X-1447495Y-1478991D01*
G37*
G36*
X-1686509Y-1478991D02*
G01*
X-1691487Y-1484020D01*
X-1691487Y-1563979D01*
X-1686509Y-1569008D01*
X-1607515Y-1569008D01*
X-1602486Y-1563979D01*
X-1602486Y-1539798D01*
X-1640484Y-1539798D01*
X-1640484Y-1506778D01*
X-1602486Y-1506778D01*
X-1602486Y-1484020D01*
X-1607515Y-1478991D01*
G37*
G36*
X-1870405Y-1478991D02*
G01*
X-1875383Y-1484020D01*
X-1875383Y-1506778D01*
X-1838401Y-1506778D01*
X-1838401Y-1539798D01*
X-1875383Y-1539798D01*
X-1875383Y-1563979D01*
X-1870405Y-1569008D01*
X-1790395Y-1569008D01*
X-1785416Y-1563979D01*
X-1785416Y-1484020D01*
X-1790395Y-1478991D01*
G37*
G36*
X-2029409Y-1478991D02*
G01*
X-2034387Y-1484020D01*
X-2034387Y-1563979D01*
X-2029409Y-1569008D01*
X-1950415Y-1569008D01*
X-1945386Y-1563979D01*
X-1945386Y-1539798D01*
X-1983384Y-1539798D01*
X-1983384Y-1506778D01*
X-1945386Y-1506778D01*
X-1945386Y-1484020D01*
X-1950415Y-1478991D01*
G37*
G36*
X-2271877Y-1478991D02*
G01*
X-2276906Y-1484020D01*
X-2276906Y-1506778D01*
X-2239924Y-1506778D01*
X-2239924Y-1539798D01*
X-2276906Y-1539798D01*
X-2276906Y-1563979D01*
X-2271877Y-1569008D01*
X-2191918Y-1569008D01*
X-2186889Y-1563979D01*
X-2186889Y-1484020D01*
X-2191918Y-1478991D01*
G37*
G36*
X-2430881Y-1478991D02*
G01*
X-2435910Y-1484020D01*
X-2435910Y-1563979D01*
X-2430881Y-1569008D01*
X-2351887Y-1569008D01*
X-2346909Y-1563979D01*
X-2346909Y-1539798D01*
X-2384907Y-1539798D01*
X-2384907Y-1506778D01*
X-2346909Y-1506778D01*
X-2346909Y-1484020D01*
X-2351887Y-1478991D01*
G37*
G36*
X-2184806Y-290017D02*
G01*
X-2189784Y-294995D01*
X-2189784Y-340004D01*
X-2184806Y-344982D01*
X-2131822Y-344982D01*
X-2126792Y-340004D01*
X-2126792Y-294995D01*
X-2131822Y-290017D01*
G37*
G36*
X-2287778Y-290017D02*
G01*
X-2292807Y-294995D01*
X-2292807Y-340004D01*
X-2287778Y-344982D01*
X-2234793Y-344982D01*
X-2229815Y-340004D01*
X-2229815Y-294995D01*
X-2234793Y-290017D01*
G37*
G36*
X-2702204Y-919683D02*
G01*
X-2707182Y-926693D01*
X-2707182Y-974699D01*
X-2702204Y-979678D01*
X-2657195Y-979678D01*
X-2652217Y-974699D01*
X-2652217Y-926693D01*
X-2657195Y-919683D01*
G37*
G36*
X-2702204Y-823721D02*
G01*
X-2707182Y-828700D01*
X-2707182Y-876706D01*
X-2702204Y-883716D01*
X-2657195Y-883716D01*
X-2652217Y-876706D01*
X-2652217Y-828700D01*
X-2657195Y-823721D01*
G37*
G36*
X-1203604Y-798322D02*
G01*
X-1208582Y-803300D01*
X-1208582Y-851306D01*
X-1203604Y-858316D01*
X-1158595Y-858316D01*
X-1153617Y-851306D01*
X-1153617Y-803300D01*
X-1158595Y-798322D01*
G37*
G36*
X-1203604Y-894283D02*
G01*
X-1208582Y-901293D01*
X-1208582Y-949299D01*
X-1203604Y-954278D01*
X-1158595Y-954278D01*
X-1153617Y-949299D01*
X-1153617Y-901293D01*
X-1158595Y-894283D01*
G37*
G36*
X-1360779Y-777189D02*
G01*
X-1365808Y-782218D01*
X-1365808Y-862177D01*
X-1360779Y-867206D01*
X-1338021Y-867206D01*
X-1338021Y-830173D01*
X-1305001Y-830173D01*
X-1305001Y-867206D01*
X-1280820Y-867206D01*
X-1275791Y-862177D01*
X-1275791Y-782218D01*
X-1280820Y-777189D01*
G37*
G36*
X-1360779Y-937209D02*
G01*
X-1365808Y-942187D01*
X-1365808Y-1021181D01*
X-1360779Y-1026210D01*
X-1280820Y-1026210D01*
X-1275791Y-1021181D01*
X-1275791Y-942187D01*
X-1280820Y-937209D01*
X-1305001Y-937209D01*
X-1305001Y-975207D01*
X-1338021Y-975207D01*
X-1338021Y-937209D01*
G37*
G36*
X-2579979Y-961593D02*
G01*
X-2585008Y-966622D01*
X-2585008Y-1046581D01*
X-2579979Y-1051610D01*
X-2500020Y-1051610D01*
X-2494991Y-1046581D01*
X-2494991Y-966622D01*
X-2500020Y-961593D01*
X-2522778Y-961593D01*
X-2522778Y-998626D01*
X-2555798Y-998626D01*
X-2555798Y-961593D01*
G37*
G36*
X-2579979Y-802589D02*
G01*
X-2585008Y-807618D01*
X-2585008Y-886612D01*
X-2579979Y-891590D01*
X-2555798Y-891590D01*
X-2555798Y-853592D01*
X-2522778Y-853592D01*
X-2522778Y-891590D01*
X-2500020Y-891590D01*
X-2494991Y-886612D01*
X-2494991Y-807618D01*
X-2500020Y-802589D01*
G37*
G36*
X-2656179Y-218389D02*
G01*
X-2661208Y-223418D01*
X-2661208Y-303377D01*
X-2656179Y-308406D01*
X-2633421Y-308406D01*
X-2633421Y-271373D01*
X-2600401Y-271373D01*
X-2600401Y-308406D01*
X-2576220Y-308406D01*
X-2571191Y-303377D01*
X-2571191Y-223418D01*
X-2576220Y-218389D01*
G37*
G36*
X-2656179Y-378409D02*
G01*
X-2661208Y-383387D01*
X-2661208Y-462381D01*
X-2656179Y-467410D01*
X-2576220Y-467410D01*
X-2571191Y-462381D01*
X-2571191Y-383387D01*
X-2576220Y-378409D01*
X-2600401Y-378409D01*
X-2600401Y-416407D01*
X-2633421Y-416407D01*
X-2633421Y-378409D01*
G37*
G36*
X-1576679Y3451910D02*
G01*
X-1581708Y3446881D01*
X-1581708Y3366922D01*
X-1576679Y3361893D01*
X-1553921Y3361893D01*
X-1553921Y3398926D01*
X-1520901Y3398926D01*
X-1520901Y3361893D01*
X-1496720Y3361893D01*
X-1491691Y3366922D01*
X-1491691Y3446881D01*
X-1496720Y3451910D01*
G37*
G36*
X-1576679Y3291890D02*
G01*
X-1581708Y3286912D01*
X-1581708Y3207918D01*
X-1576679Y3202889D01*
X-1496720Y3202889D01*
X-1491691Y3207918D01*
X-1491691Y3286912D01*
X-1496720Y3291890D01*
X-1520901Y3291890D01*
X-1520901Y3253892D01*
X-1553921Y3253892D01*
X-1553921Y3291890D01*
G37*
G36*
X-1576679Y1927910D02*
G01*
X-1581708Y1922881D01*
X-1581708Y1842922D01*
X-1576679Y1837893D01*
X-1553921Y1837893D01*
X-1553921Y1874926D01*
X-1520901Y1874926D01*
X-1520901Y1837893D01*
X-1496720Y1837893D01*
X-1491691Y1842922D01*
X-1491691Y1922881D01*
X-1496720Y1927910D01*
G37*
G36*
X-1576679Y1767890D02*
G01*
X-1581708Y1762912D01*
X-1581708Y1683918D01*
X-1576679Y1678889D01*
X-1496720Y1678889D01*
X-1491691Y1683918D01*
X-1491691Y1762912D01*
X-1496720Y1767890D01*
X-1520901Y1767890D01*
X-1520901Y1729892D01*
X-1553921Y1729892D01*
X-1553921Y1767890D01*
G37*
G36*
X-1116177Y-208991D02*
G01*
X-1121206Y-214020D01*
X-1121206Y-236778D01*
X-1084224Y-236778D01*
X-1084224Y-269798D01*
X-1121206Y-269798D01*
X-1121206Y-293979D01*
X-1116177Y-299008D01*
X-1036218Y-299008D01*
X-1031189Y-293979D01*
X-1031189Y-214020D01*
X-1036218Y-208991D01*
G37*
G36*
X-1275181Y-208991D02*
G01*
X-1280210Y-214020D01*
X-1280210Y-293979D01*
X-1275181Y-299008D01*
X-1196187Y-299008D01*
X-1191209Y-293979D01*
X-1191209Y-269798D01*
X-1229207Y-269798D01*
X-1229207Y-236778D01*
X-1191209Y-236778D01*
X-1191209Y-214020D01*
X-1196187Y-208991D01*
G37*
G36*
X-2656179Y99110D02*
G01*
X-2661208Y94081D01*
X-2661208Y14122D01*
X-2656179Y9093D01*
X-2633421Y9093D01*
X-2633421Y46126D01*
X-2600401Y46126D01*
X-2600401Y9093D01*
X-2576220Y9093D01*
X-2571191Y14122D01*
X-2571191Y94081D01*
X-2576220Y99110D01*
G37*
G36*
X-2656179Y-60909D02*
G01*
X-2661208Y-65887D01*
X-2661208Y-144881D01*
X-2656179Y-149910D01*
X-2576220Y-149910D01*
X-2571191Y-144881D01*
X-2571191Y-65887D01*
X-2576220Y-60909D01*
X-2600401Y-60909D01*
X-2600401Y-98907D01*
X-2633421Y-98907D01*
X-2633421Y-60909D01*
G37*
G36*
X-1360779Y-472389D02*
G01*
X-1365808Y-477418D01*
X-1365808Y-557377D01*
X-1360779Y-562406D01*
X-1338021Y-562406D01*
X-1338021Y-525373D01*
X-1305001Y-525373D01*
X-1305001Y-562406D01*
X-1280820Y-562406D01*
X-1275791Y-557377D01*
X-1275791Y-477418D01*
X-1280820Y-472389D01*
G37*
G36*
X-1360779Y-632409D02*
G01*
X-1365808Y-637387D01*
X-1365808Y-716381D01*
X-1360779Y-721410D01*
X-1280820Y-721410D01*
X-1275791Y-716381D01*
X-1275791Y-637387D01*
X-1280820Y-632409D01*
X-1305001Y-632409D01*
X-1305001Y-670407D01*
X-1338021Y-670407D01*
X-1338021Y-632409D01*
G37*
G36*
X-1132179Y-472389D02*
G01*
X-1137208Y-477418D01*
X-1137208Y-557377D01*
X-1132179Y-562406D01*
X-1109421Y-562406D01*
X-1109421Y-525373D01*
X-1076401Y-525373D01*
X-1076401Y-562406D01*
X-1052220Y-562406D01*
X-1047191Y-557377D01*
X-1047191Y-477418D01*
X-1052220Y-472389D01*
G37*
G36*
X-1132179Y-632409D02*
G01*
X-1137208Y-637387D01*
X-1137208Y-716381D01*
X-1132179Y-721410D01*
X-1052220Y-721410D01*
X-1047191Y-716381D01*
X-1047191Y-637387D01*
X-1052220Y-632409D01*
X-1076401Y-632409D01*
X-1076401Y-670407D01*
X-1109421Y-670407D01*
X-1109421Y-632409D01*
G37*
G36*
X-1356004Y-20015D02*
G01*
X-1360982Y-24993D01*
X-1360982Y-77978D01*
X-1356004Y-83007D01*
X-1310995Y-83007D01*
X-1306017Y-77978D01*
X-1306017Y-24993D01*
X-1310995Y-20015D01*
G37*
G36*
X-1356004Y83007D02*
G01*
X-1360982Y77978D01*
X-1360982Y24993D01*
X-1356004Y20015D01*
X-1310995Y20015D01*
X-1306017Y24993D01*
X-1306017Y77978D01*
X-1310995Y83007D01*
G37*
G36*
X-1651406Y-1166317D02*
G01*
X-1656384Y-1171295D01*
X-1656384Y-1216304D01*
X-1651406Y-1221282D01*
X-1598422Y-1221282D01*
X-1593392Y-1216304D01*
X-1593392Y-1171295D01*
X-1598422Y-1166317D01*
G37*
G36*
X-1754378Y-1166317D02*
G01*
X-1759407Y-1171295D01*
X-1759407Y-1216304D01*
X-1754378Y-1221282D01*
X-1701393Y-1221282D01*
X-1696415Y-1216304D01*
X-1696415Y-1171295D01*
X-1701393Y-1166317D01*
G37*
G36*
X-1892706Y-290017D02*
G01*
X-1897684Y-294995D01*
X-1897684Y-340004D01*
X-1892706Y-344982D01*
X-1839722Y-344982D01*
X-1834692Y-340004D01*
X-1834692Y-294995D01*
X-1839722Y-290017D01*
G37*
G36*
X-1995678Y-290017D02*
G01*
X-2000707Y-294995D01*
X-2000707Y-340004D01*
X-1995678Y-344982D01*
X-1942693Y-344982D01*
X-1937715Y-340004D01*
X-1937715Y-294995D01*
X-1942693Y-290017D01*
G37*
G36*
X437896Y-2598166D02*
G01*
X399389Y-2644952D01*
X399389Y-2689047D01*
X437896Y-2735834D01*
X506628Y-2735834D01*
X516635Y-2725826D01*
X516635Y-2608173D01*
X506628Y-2598166D01*
G37*
G36*
X220167Y-2598166D02*
G01*
X210159Y-2608173D01*
X210159Y-2725826D01*
X220167Y-2735834D01*
X288899Y-2735834D01*
X327406Y-2689047D01*
X327406Y-2644952D01*
X288899Y-2598166D01*
G37*
G36*
X442823Y68834D02*
G01*
X404317Y22047D01*
X404317Y-22047D01*
X442823Y-68834D01*
X511556Y-68834D01*
X521563Y-58877D01*
X521563Y58826D01*
X511556Y68834D01*
G37*
G36*
X225044Y68834D02*
G01*
X215036Y58826D01*
X215036Y-58877D01*
X225044Y-68834D01*
X293776Y-68834D01*
X332282Y-22047D01*
X332282Y22047D01*
X293776Y68834D01*
G37*
D10*
G01*
X-1854200Y-48640D03*
G01*
X-1727200Y-48640D03*
G01*
X-1600200Y-48640D03*
G01*
X-1473200Y-48640D03*
G01*
X-1854200Y505840D03*
G01*
X-1727200Y505840D03*
G01*
X-1600200Y505840D03*
G01*
X-1473200Y505840D03*
G01*
X-2387600Y-48640D03*
G01*
X-2260600Y-48640D03*
G01*
X-2133600Y-48640D03*
G01*
X-2006600Y-48640D03*
G01*
X-2387600Y505840D03*
G01*
X-2260600Y505840D03*
G01*
X-2133600Y505840D03*
G01*
X-2006600Y505840D03*
D11*
G01*
X-825500Y-631189D03*
G01*
X-825500Y-461010D03*
D12*
G01*
X-571926Y-2311400D03*
G01*
X130322Y-2311400D03*
D13*
G01*
X-2121499Y-2955190D03*
G01*
X-1901499Y-2955190D03*
D14*
G01*
X-1901494Y-2785186D03*
D15*
G01*
X-2121499Y-2785188D03*
D16*
G01*
X-2152853Y-1865706D03*
G01*
X-2152853Y-1815693D03*
G01*
X-2152853Y-1765706D03*
G01*
X-2152853Y-1715693D03*
G01*
X-2454351Y-1865706D03*
G01*
X-2454351Y-1815693D03*
G01*
X-2454351Y-1765706D03*
G01*
X-2454351Y-1715693D03*
D17*
G01*
X-2303602Y-1790700D03*
D18*
G01*
X-2294204Y-2765323D03*
G01*
X-2294204Y-2670302D03*
G01*
X-2389225Y-2670302D03*
G01*
X-2389225Y-2765323D03*
D19*
G01*
X-2384348Y-3456000D03*
G01*
X-2384348Y-3556000D03*
G01*
X-2384348Y-3655999D03*
D20*
G01*
X-2771851Y-3785996D03*
G01*
X-2771851Y-3326003D03*
D21*
G01*
X-1075207Y-1618995D03*
G01*
X-1075207Y-1429004D03*
G01*
X-1322197Y-1524000D03*
D19*
G01*
X-2384348Y-4103700D03*
G01*
X-2384348Y-4203700D03*
G01*
X-2384348Y-4303699D03*
D20*
G01*
X-2771851Y-4433696D03*
G01*
X-2771851Y-3973703D03*
D11*
G01*
X-825500Y-2035810D03*
G01*
X-825500Y-2205989D03*
D10*
G01*
X-1854200Y-1026540D03*
G01*
X-1727200Y-1026540D03*
G01*
X-1600200Y-1026540D03*
G01*
X-1473200Y-1026540D03*
G01*
X-1854200Y-472059D03*
G01*
X-1727200Y-472059D03*
G01*
X-1600200Y-472059D03*
G01*
X-1473200Y-472059D03*
G01*
X-2387600Y-1026540D03*
G01*
X-2260600Y-1026540D03*
G01*
X-2133600Y-1026540D03*
G01*
X-2006600Y-1026540D03*
G01*
X-2387600Y-472059D03*
G01*
X-2260600Y-472059D03*
G01*
X-2133600Y-472059D03*
G01*
X-2006600Y-472059D03*
D22*
G01*
X-1215025Y94999D03*
G01*
X-1215025Y-94999D03*
G01*
X-994774Y0D03*
D23*
G01*
X-340004Y0D03*
G01*
X0Y0D03*
G01*
X25400Y-2667000D03*
G01*
X-314604Y-2667000D03*
D24*
G01*
X-492404Y-747903D03*
G01*
X-492404Y-977900D03*
G01*
X-492404Y-1207896D03*
D25*
G01*
X101599Y-977900D03*
D26*
G01*
X-481152Y-1459100D03*
G01*
X-481152Y-1689100D03*
G01*
X-481152Y-1919099D03*
D27*
G01*
X90347Y-1689100D03*
D12*
G01*
X-571926Y-355600D03*
G01*
X130322Y-355600D03*
M02*
