G04 Layer: BottomLayer*
G04 EasyEDA v6.5.29, 2023-07-19 20:14:37*
G04 41db7a399fb243939f9e48431119433e,5a6b42c53f6a479593ecc07194224c93,10*
G04 Gerber Generator version 0.2*
G04 Scale: 100 percent, Rotated: No, Reflected: No *
G04 Dimensions in millimeters *
G04 leading zeros omitted , absolute positions ,4 integer and 5 decimal *
%FSLAX45Y45*%
%MOMM*%

%AMMACRO1*21,1,$1,$2,0,0,$3*%
%ADD10C,0.1270*%
%ADD11C,0.2540*%
%ADD12C,0.5000*%
%ADD13MACRO1,1.7X1.7X90.0000*%
%ADD14C,1.7000*%
%ADD15MACRO1,1.8X1.8X90.0000*%
%ADD16C,1.8000*%
%ADD17C,1.6500*%
%ADD18MACRO1,1.7X1.7X0.0000*%
%ADD19C,1.4000*%
%ADD20R,1.4000X1.5240*%
%ADD21C,0.6096*%
%ADD22C,0.0184*%

%LPD*%
G36*
X-2309825Y-1821942D02*
G01*
X-2313838Y-1821129D01*
X-2317191Y-1818792D01*
X-2319375Y-1815388D01*
X-2319934Y-1811375D01*
X-2319020Y-1807413D01*
X-2314143Y-1797253D01*
X-2311654Y-1787804D01*
X-2310790Y-1778000D01*
X-2311247Y-1772869D01*
X-2310638Y-1768500D01*
X-2308301Y-1764792D01*
X-2305964Y-1762455D01*
X-2302662Y-1760220D01*
X-2298750Y-1759457D01*
X-2012086Y-1759457D01*
X-2007819Y-1760423D01*
X-2004314Y-1763064D01*
X-2002282Y-1766976D01*
X-2000961Y-1771853D01*
X-1996795Y-1780793D01*
X-1991207Y-1788820D01*
X-1984248Y-1795780D01*
X-1976170Y-1801418D01*
X-1973681Y-1802587D01*
X-1970532Y-1804873D01*
X-1968449Y-1808175D01*
X-1967788Y-1812036D01*
X-1968652Y-1815846D01*
X-1970836Y-1819046D01*
X-1974138Y-1821180D01*
X-1977999Y-1821942D01*
G37*

%LPD*%
G36*
X-1725218Y-1993392D02*
G01*
X-1729079Y-1992630D01*
X-1732381Y-1990445D01*
X-1733956Y-1988820D01*
X-1742033Y-1983181D01*
X-1750974Y-1979066D01*
X-1760372Y-1976526D01*
X-1768398Y-1975815D01*
X-1771802Y-1974900D01*
X-1774698Y-1972868D01*
X-1806092Y-1941525D01*
X-1812289Y-1936394D01*
X-1818995Y-1932838D01*
X-1826158Y-1930654D01*
X-1834235Y-1929841D01*
X-2270709Y-1929841D01*
X-2274620Y-1929079D01*
X-2277922Y-1926894D01*
X-2300986Y-1903780D01*
X-2303170Y-1900478D01*
X-2303983Y-1896618D01*
X-2303170Y-1892706D01*
X-2300986Y-1889404D01*
X-2297684Y-1887220D01*
X-2293823Y-1886457D01*
X-1948535Y-1886457D01*
X-1941322Y-1885696D01*
X-1934921Y-1883613D01*
X-1928977Y-1880158D01*
X-1924913Y-1876704D01*
X-1895856Y-1847646D01*
X-1892960Y-1845614D01*
X-1889556Y-1844700D01*
X-1886051Y-1845005D01*
X-1881632Y-1846173D01*
X-1871827Y-1847037D01*
X-1861972Y-1846173D01*
X-1852574Y-1843633D01*
X-1843633Y-1839518D01*
X-1835556Y-1833880D01*
X-1828647Y-1826920D01*
X-1823008Y-1818893D01*
X-1818893Y-1809953D01*
X-1816354Y-1800504D01*
X-1815490Y-1790700D01*
X-1816354Y-1780895D01*
X-1818893Y-1771446D01*
X-1823008Y-1762506D01*
X-1828647Y-1754479D01*
X-1835556Y-1747520D01*
X-1843633Y-1741881D01*
X-1852574Y-1737766D01*
X-1861972Y-1735226D01*
X-1871827Y-1734362D01*
X-1881632Y-1735226D01*
X-1884578Y-1735988D01*
X-1888083Y-1736293D01*
X-1891487Y-1735378D01*
X-1894382Y-1733346D01*
X-1896414Y-1730502D01*
X-1899208Y-1724406D01*
X-1904847Y-1716379D01*
X-1911756Y-1709420D01*
X-1919833Y-1703781D01*
X-1924557Y-1701596D01*
X-1927707Y-1699310D01*
X-1929688Y-1696008D01*
X-1930349Y-1692148D01*
X-1929587Y-1688338D01*
X-1927301Y-1685137D01*
X-1924100Y-1683004D01*
X-1920239Y-1682242D01*
X-1688033Y-1682242D01*
X-1684172Y-1683004D01*
X-1680921Y-1685239D01*
X-1679448Y-1686661D01*
X-1671370Y-1692300D01*
X-1662480Y-1696466D01*
X-1653032Y-1699006D01*
X-1643227Y-1699869D01*
X-1641551Y-1699717D01*
X-1637131Y-1700275D01*
X-1633474Y-1702663D01*
X-1595932Y-1740204D01*
X-1593697Y-1743506D01*
X-1592935Y-1747418D01*
X-1592935Y-1983232D01*
X-1593697Y-1987143D01*
X-1595932Y-1990445D01*
X-1599133Y-1992630D01*
X-1603095Y-1993392D01*
G37*

%LPD*%
G36*
X-1746859Y-2272792D02*
G01*
X-1750771Y-2272030D01*
X-1754022Y-2269794D01*
X-1756257Y-2266543D01*
X-1756968Y-2262632D01*
X-1756968Y-2248408D01*
X-1757781Y-2240381D01*
X-1760016Y-2233117D01*
X-1760829Y-2231593D01*
X-1761998Y-2227630D01*
X-1761439Y-2223465D01*
X-1759254Y-2219909D01*
X-1755952Y-2217521D01*
X-1751838Y-2216658D01*
X-1617268Y-2216658D01*
X-1613662Y-2217318D01*
X-1610512Y-2219248D01*
X-1608277Y-2222195D01*
X-1607210Y-2225751D01*
X-1607515Y-2229459D01*
X-1609801Y-2238095D01*
X-1610664Y-2247900D01*
X-1609801Y-2257704D01*
X-1609191Y-2259990D01*
X-1608886Y-2263698D01*
X-1609902Y-2267254D01*
X-1612188Y-2270201D01*
X-1615389Y-2272131D01*
X-1618996Y-2272792D01*
G37*

%LPD*%
G36*
X-1645716Y-2492248D02*
G01*
X-1649475Y-2491435D01*
X-1652676Y-2489250D01*
X-1657756Y-2484120D01*
X-1665833Y-2478481D01*
X-1674774Y-2474366D01*
X-1684172Y-2471826D01*
X-1694027Y-2470962D01*
X-1703832Y-2471826D01*
X-1713280Y-2474366D01*
X-1722170Y-2478481D01*
X-1723643Y-2479548D01*
X-1727606Y-2481224D01*
X-1731822Y-2481122D01*
X-1735632Y-2479344D01*
X-1738375Y-2476144D01*
X-1739646Y-2472131D01*
X-1740154Y-2466695D01*
X-1742693Y-2457246D01*
X-1746808Y-2448306D01*
X-1752447Y-2440279D01*
X-1754022Y-2438704D01*
X-1756257Y-2435402D01*
X-1756968Y-2431491D01*
X-1756968Y-2360168D01*
X-1756257Y-2356256D01*
X-1754022Y-2353005D01*
X-1750771Y-2350770D01*
X-1746859Y-2350008D01*
X-1603095Y-2350008D01*
X-1599133Y-2350770D01*
X-1595932Y-2353005D01*
X-1593697Y-2356256D01*
X-1592935Y-2360168D01*
X-1592935Y-2374341D01*
X-1592122Y-2382418D01*
X-1589938Y-2389632D01*
X-1586331Y-2396337D01*
X-1581251Y-2402535D01*
X-1557832Y-2426004D01*
X-1555597Y-2429306D01*
X-1554835Y-2433218D01*
X-1554835Y-2452014D01*
X-1555496Y-2455621D01*
X-1557426Y-2458821D01*
X-1560372Y-2461056D01*
X-1563878Y-2462123D01*
X-1567637Y-2461818D01*
X-1577695Y-2459126D01*
X-1587449Y-2458262D01*
X-1597304Y-2459126D01*
X-1606804Y-2461666D01*
X-1615694Y-2465781D01*
X-1623771Y-2471420D01*
X-1630680Y-2478379D01*
X-1638604Y-2489555D01*
X-1641906Y-2491587D01*
G37*

%LPD*%
G36*
X-2561437Y-3434791D02*
G01*
X-2565247Y-3433927D01*
X-2568448Y-3431692D01*
X-2570581Y-3428441D01*
X-2571343Y-3424631D01*
X-2571343Y-2621076D01*
X-2570581Y-2617165D01*
X-2568346Y-2613863D01*
X-2540609Y-2586126D01*
X-2536901Y-2583789D01*
X-2532532Y-2583180D01*
X-2527300Y-2583637D01*
X-2517546Y-2582773D01*
X-2507996Y-2580233D01*
X-2499156Y-2576118D01*
X-2491079Y-2570480D01*
X-2484170Y-2563520D01*
X-2478532Y-2555494D01*
X-2474366Y-2546553D01*
X-2471826Y-2537104D01*
X-2470962Y-2527300D01*
X-2471826Y-2517495D01*
X-2474366Y-2508046D01*
X-2478532Y-2499106D01*
X-2487422Y-2486761D01*
X-2488184Y-2482850D01*
X-2487422Y-2478938D01*
X-2478532Y-2466594D01*
X-2474366Y-2457653D01*
X-2471826Y-2448204D01*
X-2470962Y-2438400D01*
X-2471826Y-2428595D01*
X-2474366Y-2419146D01*
X-2478532Y-2410206D01*
X-2484170Y-2402179D01*
X-2491079Y-2395220D01*
X-2499156Y-2389581D01*
X-2507996Y-2385466D01*
X-2517546Y-2382926D01*
X-2527300Y-2382062D01*
X-2537104Y-2382926D01*
X-2540050Y-2383688D01*
X-2543556Y-2383993D01*
X-2547010Y-2383078D01*
X-2549855Y-2381046D01*
X-2551887Y-2378202D01*
X-2554732Y-2372106D01*
X-2560370Y-2364079D01*
X-2567279Y-2357120D01*
X-2575356Y-2351481D01*
X-2584196Y-2347366D01*
X-2593746Y-2344826D01*
X-2603500Y-2343962D01*
X-2613304Y-2344826D01*
X-2616250Y-2345588D01*
X-2619756Y-2345893D01*
X-2623210Y-2344978D01*
X-2626055Y-2342946D01*
X-2628087Y-2340102D01*
X-2630932Y-2334006D01*
X-2636570Y-2325979D01*
X-2643479Y-2319020D01*
X-2651556Y-2313381D01*
X-2660396Y-2309266D01*
X-2669946Y-2306726D01*
X-2679700Y-2305862D01*
X-2689504Y-2306726D01*
X-2692450Y-2307488D01*
X-2695956Y-2307793D01*
X-2699410Y-2306878D01*
X-2702255Y-2304846D01*
X-2704287Y-2302002D01*
X-2707132Y-2295906D01*
X-2712770Y-2287879D01*
X-2719679Y-2280920D01*
X-2727756Y-2275281D01*
X-2736596Y-2271166D01*
X-2746146Y-2268626D01*
X-2755900Y-2267762D01*
X-2759811Y-2266594D01*
X-2762961Y-2263952D01*
X-2764790Y-2260244D01*
X-2766466Y-2254046D01*
X-2770632Y-2245106D01*
X-2774899Y-2239010D01*
X-2776575Y-2234946D01*
X-2776423Y-2230526D01*
X-2774391Y-2226614D01*
X-2770886Y-2223973D01*
X-2766618Y-2223008D01*
X-2096007Y-2223008D01*
X-2087981Y-2222195D01*
X-2080717Y-2220010D01*
X-2074113Y-2216454D01*
X-2067864Y-2211324D01*
X-2061972Y-2205431D01*
X-2059076Y-2203399D01*
X-2055672Y-2202484D01*
X-2047595Y-2201773D01*
X-2038096Y-2199233D01*
X-2029256Y-2195118D01*
X-2021179Y-2189480D01*
X-2014270Y-2182520D01*
X-2008632Y-2174494D01*
X-2004415Y-2165553D01*
X-2002688Y-2158847D01*
X-2000757Y-2155088D01*
X-1997456Y-2152396D01*
X-1993392Y-2151329D01*
X-1989226Y-2151989D01*
X-1985670Y-2154275D01*
X-1933092Y-2206853D01*
X-1927402Y-2211425D01*
X-1921408Y-2214473D01*
X-1914855Y-2216251D01*
X-1909521Y-2216658D01*
X-1839417Y-2216658D01*
X-1835302Y-2217521D01*
X-1831949Y-2219909D01*
X-1829765Y-2223465D01*
X-1829206Y-2227630D01*
X-1830425Y-2231593D01*
X-1831238Y-2233117D01*
X-1833422Y-2240381D01*
X-1834235Y-2248408D01*
X-1834235Y-2262632D01*
X-1834997Y-2266543D01*
X-1837232Y-2269794D01*
X-1840433Y-2272030D01*
X-1844395Y-2272792D01*
X-2214168Y-2272792D01*
X-2222246Y-2273604D01*
X-2229459Y-2275789D01*
X-2236165Y-2279345D01*
X-2242312Y-2284476D01*
X-2362606Y-2404668D01*
X-2365502Y-2406700D01*
X-2368905Y-2407615D01*
X-2376932Y-2408326D01*
X-2386380Y-2410866D01*
X-2395321Y-2414981D01*
X-2403348Y-2420620D01*
X-2410307Y-2427579D01*
X-2415946Y-2435606D01*
X-2420061Y-2444546D01*
X-2422601Y-2453995D01*
X-2423464Y-2463800D01*
X-2422601Y-2473604D01*
X-2420061Y-2483053D01*
X-2415946Y-2491994D01*
X-2410307Y-2500020D01*
X-2408732Y-2501595D01*
X-2406497Y-2504897D01*
X-2405735Y-2508808D01*
X-2405735Y-2600909D01*
X-2406497Y-2604770D01*
X-2408732Y-2608072D01*
X-2484678Y-2684068D01*
X-2487574Y-2686100D01*
X-2490978Y-2687015D01*
X-2499004Y-2687726D01*
X-2508504Y-2690266D01*
X-2517394Y-2694381D01*
X-2525471Y-2700020D01*
X-2532380Y-2706979D01*
X-2538018Y-2715006D01*
X-2542184Y-2723946D01*
X-2544724Y-2733395D01*
X-2545588Y-2743200D01*
X-2544724Y-2753004D01*
X-2542184Y-2762453D01*
X-2538018Y-2771394D01*
X-2532380Y-2779420D01*
X-2530805Y-2780995D01*
X-2528620Y-2784297D01*
X-2527808Y-2788208D01*
X-2527808Y-2887319D01*
X-2527046Y-2895346D01*
X-2524861Y-2902559D01*
X-2521305Y-2909214D01*
X-2516174Y-2915462D01*
X-2432862Y-2998724D01*
X-2426665Y-3003854D01*
X-2419959Y-3007410D01*
X-2412746Y-3009595D01*
X-2404719Y-3010408D01*
X-2361336Y-3010408D01*
X-2357424Y-3011170D01*
X-2354122Y-3013405D01*
X-2352548Y-3014980D01*
X-2344521Y-3020618D01*
X-2335580Y-3024733D01*
X-2326132Y-3027273D01*
X-2316327Y-3028137D01*
X-2306523Y-3027273D01*
X-2297074Y-3024733D01*
X-2288133Y-3020618D01*
X-2280107Y-3014980D01*
X-2273147Y-3008020D01*
X-2267508Y-2999994D01*
X-2263394Y-2991053D01*
X-2260854Y-2981604D01*
X-2259990Y-2971800D01*
X-2260854Y-2961995D01*
X-2263394Y-2952546D01*
X-2267508Y-2943606D01*
X-2273147Y-2935579D01*
X-2280107Y-2928620D01*
X-2288133Y-2922981D01*
X-2297074Y-2918866D01*
X-2306523Y-2916326D01*
X-2316327Y-2915462D01*
X-2326132Y-2916326D01*
X-2335580Y-2918866D01*
X-2344521Y-2922981D01*
X-2352548Y-2928620D01*
X-2354122Y-2930194D01*
X-2357424Y-2932430D01*
X-2361336Y-2933192D01*
X-2385009Y-2933192D01*
X-2388920Y-2932430D01*
X-2392222Y-2930194D01*
X-2447645Y-2874772D01*
X-2449830Y-2871470D01*
X-2450592Y-2867609D01*
X-2450592Y-2788208D01*
X-2449830Y-2784297D01*
X-2447645Y-2780995D01*
X-2446070Y-2779420D01*
X-2440432Y-2771394D01*
X-2436266Y-2762453D01*
X-2433726Y-2753004D01*
X-2433015Y-2744978D01*
X-2432100Y-2741574D01*
X-2430068Y-2738678D01*
X-2340203Y-2648762D01*
X-2335072Y-2642514D01*
X-2331516Y-2635859D01*
X-2329332Y-2628646D01*
X-2328519Y-2620619D01*
X-2328519Y-2508808D01*
X-2327757Y-2504897D01*
X-2325522Y-2501595D01*
X-2323947Y-2500020D01*
X-2318308Y-2491994D01*
X-2314194Y-2483053D01*
X-2311654Y-2473604D01*
X-2310942Y-2465578D01*
X-2310028Y-2462174D01*
X-2307996Y-2459278D01*
X-2201722Y-2353005D01*
X-2198420Y-2350770D01*
X-2194458Y-2350008D01*
X-1844395Y-2350008D01*
X-1840433Y-2350770D01*
X-1837232Y-2353005D01*
X-1834997Y-2356256D01*
X-1834235Y-2360168D01*
X-1834235Y-2431491D01*
X-1834997Y-2435402D01*
X-1837232Y-2438704D01*
X-1838807Y-2440279D01*
X-1844395Y-2448306D01*
X-1848561Y-2457246D01*
X-1851101Y-2466695D01*
X-1851964Y-2476500D01*
X-1851101Y-2486304D01*
X-1848561Y-2495753D01*
X-1844395Y-2504694D01*
X-1838807Y-2512720D01*
X-1831848Y-2519680D01*
X-1823770Y-2525318D01*
X-1814880Y-2529433D01*
X-1805432Y-2531973D01*
X-1795627Y-2532837D01*
X-1785772Y-2531973D01*
X-1776374Y-2529433D01*
X-1767433Y-2525318D01*
X-1765960Y-2524252D01*
X-1762048Y-2522575D01*
X-1757781Y-2522677D01*
X-1754022Y-2524455D01*
X-1751228Y-2527655D01*
X-1749958Y-2531668D01*
X-1749501Y-2537104D01*
X-1746961Y-2546553D01*
X-1742795Y-2555494D01*
X-1737207Y-2563469D01*
X-1729282Y-2571292D01*
X-1727047Y-2574594D01*
X-1726285Y-2578506D01*
X-1726285Y-2636723D01*
X-1727047Y-2640634D01*
X-1729282Y-2643936D01*
X-2481783Y-3396437D01*
X-2484678Y-3398469D01*
X-2488082Y-3399383D01*
X-2501900Y-3398062D01*
X-2511704Y-3398926D01*
X-2521204Y-3401466D01*
X-2530094Y-3405581D01*
X-2538171Y-3411220D01*
X-2545080Y-3418179D01*
X-2550718Y-3426206D01*
X-2551938Y-3428898D01*
X-2554274Y-3432048D01*
X-2557576Y-3434130D01*
G37*

%LPD*%
G36*
X-2561183Y-4022547D02*
G01*
X-2565095Y-4021785D01*
X-2568346Y-4019600D01*
X-2570581Y-4016298D01*
X-2571343Y-4012387D01*
X-2571343Y-3687368D01*
X-2570581Y-3683558D01*
X-2568448Y-3680307D01*
X-2565247Y-3678072D01*
X-2561437Y-3677208D01*
X-2557576Y-3677869D01*
X-2554274Y-3679951D01*
X-2551938Y-3683101D01*
X-2550718Y-3685794D01*
X-2545080Y-3693820D01*
X-2538171Y-3700779D01*
X-2530094Y-3706418D01*
X-2521204Y-3710533D01*
X-2511704Y-3713073D01*
X-2501900Y-3713937D01*
X-2492146Y-3713073D01*
X-2482596Y-3710533D01*
X-2473756Y-3706418D01*
X-2465679Y-3700779D01*
X-2458770Y-3693820D01*
X-2453132Y-3685794D01*
X-2448966Y-3676853D01*
X-2446426Y-3667404D01*
X-2445562Y-3657600D01*
X-2446426Y-3647795D01*
X-2448966Y-3638346D01*
X-2453132Y-3629406D01*
X-2458720Y-3621430D01*
X-2466644Y-3613607D01*
X-2468880Y-3610305D01*
X-2469642Y-3606393D01*
X-2469642Y-3574389D01*
X-2468880Y-3570478D01*
X-2466695Y-3567176D01*
X-1681835Y-2782366D01*
X-1678076Y-2779979D01*
X-1673758Y-2779420D01*
X-1668627Y-2779877D01*
X-1658772Y-2779014D01*
X-1649374Y-2776474D01*
X-1640433Y-2772308D01*
X-1635760Y-2769057D01*
X-1631696Y-2767330D01*
X-1627327Y-2767533D01*
X-1623415Y-2769565D01*
X-1620672Y-2773070D01*
X-1619758Y-2777337D01*
X-1619758Y-2958693D01*
X-1620570Y-2962605D01*
X-1622806Y-2965907D01*
X-1630730Y-2973730D01*
X-1636318Y-2981706D01*
X-1640484Y-2990646D01*
X-1643024Y-3000095D01*
X-1643888Y-3009900D01*
X-1643024Y-3019704D01*
X-1640484Y-3029153D01*
X-1636318Y-3038094D01*
X-1630680Y-3046120D01*
X-1623771Y-3053080D01*
X-1615694Y-3058718D01*
X-1613458Y-3059734D01*
X-1610258Y-3062020D01*
X-1608277Y-3065322D01*
X-1607515Y-3069132D01*
X-1608328Y-3072942D01*
X-1610563Y-3076143D01*
X-2554020Y-4019600D01*
X-2557322Y-4021785D01*
G37*

%LPD*%
G36*
X-2839059Y-6997192D02*
G01*
X-2842971Y-6996430D01*
X-2846222Y-6994194D01*
X-2848457Y-6990943D01*
X-2849219Y-6987031D01*
X-2849219Y-4838547D01*
X-2848559Y-4834940D01*
X-2846628Y-4831791D01*
X-2843682Y-4829505D01*
X-2840126Y-4828489D01*
X-2836418Y-4828743D01*
X-2829204Y-4830673D01*
X-2819400Y-4831537D01*
X-2809646Y-4830673D01*
X-2800096Y-4828133D01*
X-2791256Y-4824018D01*
X-2783179Y-4818380D01*
X-2776270Y-4811420D01*
X-2770632Y-4803394D01*
X-2769463Y-4800854D01*
X-2767177Y-4797704D01*
X-2763824Y-4795672D01*
X-2760014Y-4795012D01*
X-2756204Y-4795824D01*
X-2752953Y-4798060D01*
X-2750820Y-4801311D01*
X-2750058Y-4805172D01*
X-2750058Y-5790793D01*
X-2750870Y-5794705D01*
X-2753106Y-5798007D01*
X-2761030Y-5805830D01*
X-2766618Y-5813806D01*
X-2770784Y-5822746D01*
X-2773324Y-5832195D01*
X-2774188Y-5842000D01*
X-2773324Y-5851804D01*
X-2770784Y-5861253D01*
X-2766618Y-5870194D01*
X-2760980Y-5878220D01*
X-2754071Y-5885180D01*
X-2745994Y-5890818D01*
X-2737104Y-5894933D01*
X-2727604Y-5897473D01*
X-2717800Y-5898337D01*
X-2708046Y-5897473D01*
X-2698496Y-5894933D01*
X-2689656Y-5890818D01*
X-2681579Y-5885180D01*
X-2674670Y-5878220D01*
X-2669032Y-5870194D01*
X-2664866Y-5861253D01*
X-2662326Y-5851804D01*
X-2661462Y-5842000D01*
X-2662326Y-5832195D01*
X-2664866Y-5822746D01*
X-2669032Y-5813806D01*
X-2674620Y-5805830D01*
X-2682544Y-5798007D01*
X-2684780Y-5794705D01*
X-2685542Y-5790793D01*
X-2685542Y-5262372D01*
X-2684830Y-5258511D01*
X-2682697Y-5255260D01*
X-2679446Y-5253024D01*
X-2675636Y-5252212D01*
X-2671826Y-5252872D01*
X-2668473Y-5254904D01*
X-2666187Y-5258054D01*
X-2665018Y-5260594D01*
X-2659380Y-5268620D01*
X-2652471Y-5275580D01*
X-2644394Y-5281218D01*
X-2635504Y-5285333D01*
X-2626004Y-5287873D01*
X-2616200Y-5288737D01*
X-2606446Y-5287873D01*
X-2596896Y-5285333D01*
X-2588056Y-5281218D01*
X-2579979Y-5275580D01*
X-2573070Y-5268620D01*
X-2567432Y-5260594D01*
X-2563266Y-5251653D01*
X-2560726Y-5242204D01*
X-2559862Y-5232400D01*
X-2560726Y-5222595D01*
X-2563266Y-5213146D01*
X-2567432Y-5204206D01*
X-2569819Y-5200802D01*
X-2571394Y-5197246D01*
X-2571496Y-5193385D01*
X-2570226Y-5189728D01*
X-2567584Y-5186883D01*
X-2564130Y-5185156D01*
X-2558796Y-5183733D01*
X-2549956Y-5179618D01*
X-2541879Y-5173980D01*
X-2534970Y-5167020D01*
X-2529332Y-5158994D01*
X-2525166Y-5150053D01*
X-2522626Y-5140604D01*
X-2521762Y-5130800D01*
X-2522626Y-5120995D01*
X-2525166Y-5111546D01*
X-2529332Y-5102606D01*
X-2531719Y-5099202D01*
X-2533294Y-5095646D01*
X-2533396Y-5091785D01*
X-2532126Y-5088128D01*
X-2529484Y-5085283D01*
X-2526030Y-5083556D01*
X-2520696Y-5082133D01*
X-2511856Y-5078018D01*
X-2503779Y-5072380D01*
X-2496870Y-5065420D01*
X-2491232Y-5057394D01*
X-2487066Y-5048453D01*
X-2484526Y-5039004D01*
X-2483662Y-5029200D01*
X-2484526Y-5019395D01*
X-2487066Y-5009946D01*
X-2491232Y-5001006D01*
X-2496870Y-4992979D01*
X-2503779Y-4986020D01*
X-2511856Y-4980381D01*
X-2520696Y-4976266D01*
X-2530246Y-4973726D01*
X-2540000Y-4972862D01*
X-2545080Y-4973269D01*
X-2549448Y-4972710D01*
X-2553157Y-4970373D01*
X-2568346Y-4955133D01*
X-2570581Y-4951882D01*
X-2571343Y-4947970D01*
X-2571343Y-4335068D01*
X-2570581Y-4331258D01*
X-2568448Y-4328007D01*
X-2565247Y-4325772D01*
X-2561437Y-4324908D01*
X-2557576Y-4325569D01*
X-2554274Y-4327652D01*
X-2551938Y-4330801D01*
X-2550718Y-4333494D01*
X-2545080Y-4341520D01*
X-2538171Y-4348480D01*
X-2530094Y-4354118D01*
X-2521204Y-4358233D01*
X-2511704Y-4360773D01*
X-2501900Y-4361637D01*
X-2492146Y-4360773D01*
X-2482596Y-4358233D01*
X-2473756Y-4354118D01*
X-2465679Y-4348480D01*
X-2458770Y-4341520D01*
X-2453132Y-4333494D01*
X-2448966Y-4324553D01*
X-2446426Y-4315104D01*
X-2445562Y-4305300D01*
X-2446426Y-4295495D01*
X-2448966Y-4286046D01*
X-2453132Y-4277106D01*
X-2458770Y-4269079D01*
X-2465679Y-4262120D01*
X-2473756Y-4256481D01*
X-2482596Y-4252366D01*
X-2492146Y-4249826D01*
X-2501900Y-4248962D01*
X-2507081Y-4249420D01*
X-2511399Y-4248810D01*
X-2515158Y-4246473D01*
X-2530246Y-4231335D01*
X-2532481Y-4228033D01*
X-2533243Y-4224172D01*
X-2533243Y-4165041D01*
X-2532583Y-4161434D01*
X-2530652Y-4158284D01*
X-2527706Y-4155998D01*
X-2524099Y-4154982D01*
X-2520442Y-4155236D01*
X-2511704Y-4157573D01*
X-2501900Y-4158437D01*
X-2492146Y-4157573D01*
X-2482596Y-4155033D01*
X-2473756Y-4150918D01*
X-2465679Y-4145279D01*
X-2458770Y-4138320D01*
X-2453132Y-4130294D01*
X-2448966Y-4121353D01*
X-2446426Y-4111904D01*
X-2445562Y-4102100D01*
X-2446020Y-4096969D01*
X-2445461Y-4092600D01*
X-2443022Y-4088892D01*
X-1885442Y-3531260D01*
X-1882089Y-3529025D01*
X-1878075Y-3528314D01*
X-1874113Y-3529177D01*
X-1870811Y-3531565D01*
X-1868678Y-3535070D01*
X-1868119Y-3539083D01*
X-1868424Y-3543300D01*
X-1867509Y-3557473D01*
X-1864715Y-3571443D01*
X-1860296Y-3584905D01*
X-1854149Y-3597706D01*
X-1846325Y-3609644D01*
X-1837182Y-3620465D01*
X-1826615Y-3630015D01*
X-1815033Y-3638143D01*
X-1802434Y-3644696D01*
X-1789074Y-3649624D01*
X-1775206Y-3652774D01*
X-1761083Y-3654145D01*
X-1746859Y-3653688D01*
X-1732838Y-3651402D01*
X-1719224Y-3647389D01*
X-1706168Y-3641598D01*
X-1694078Y-3634232D01*
X-1682953Y-3625392D01*
X-1673098Y-3615182D01*
X-1664563Y-3603802D01*
X-1657604Y-3591407D01*
X-1652219Y-3578250D01*
X-1648663Y-3564483D01*
X-1646885Y-3550412D01*
X-1646885Y-3536187D01*
X-1648663Y-3522116D01*
X-1652219Y-3508349D01*
X-1657604Y-3495192D01*
X-1664563Y-3482797D01*
X-1673098Y-3471418D01*
X-1682953Y-3461207D01*
X-1694078Y-3452368D01*
X-1706168Y-3445001D01*
X-1719224Y-3439261D01*
X-1732838Y-3435197D01*
X-1746859Y-3432911D01*
X-1761185Y-3432505D01*
X-1765350Y-3432048D01*
X-1768906Y-3430015D01*
X-1771396Y-3426714D01*
X-1772361Y-3422700D01*
X-1771599Y-3418636D01*
X-1769414Y-3415182D01*
X-1379474Y-3025292D01*
X-1374851Y-3019653D01*
X-1371854Y-3013659D01*
X-1370076Y-3007004D01*
X-1369618Y-3001721D01*
X-1369618Y-2235708D01*
X-1370431Y-2228494D01*
X-1372463Y-2222093D01*
X-1375867Y-2216150D01*
X-1379372Y-2212086D01*
X-1467612Y-2123846D01*
X-1473301Y-2119274D01*
X-1479296Y-2116226D01*
X-1485849Y-2114448D01*
X-1491183Y-2114042D01*
X-1879650Y-2114042D01*
X-1883562Y-2113280D01*
X-1886813Y-2111044D01*
X-1923999Y-2073910D01*
X-1926031Y-2071014D01*
X-1926945Y-2067610D01*
X-1926640Y-2064105D01*
X-1924608Y-2060193D01*
X-1920493Y-2051253D01*
X-1917954Y-2041804D01*
X-1917090Y-2032000D01*
X-1917954Y-2022195D01*
X-1918563Y-2019858D01*
X-1918868Y-2016150D01*
X-1917801Y-2012594D01*
X-1915515Y-2009698D01*
X-1912416Y-2007717D01*
X-1908708Y-2007057D01*
X-1853946Y-2007057D01*
X-1850034Y-2007819D01*
X-1846681Y-2010054D01*
X-1829358Y-2027428D01*
X-1827275Y-2030323D01*
X-1826412Y-2033727D01*
X-1825701Y-2041804D01*
X-1823161Y-2051253D01*
X-1818995Y-2060193D01*
X-1813407Y-2068220D01*
X-1806448Y-2075180D01*
X-1798370Y-2080818D01*
X-1789480Y-2084933D01*
X-1780032Y-2087473D01*
X-1770227Y-2088337D01*
X-1760372Y-2087473D01*
X-1750974Y-2084933D01*
X-1742033Y-2080818D01*
X-1733956Y-2075180D01*
X-1732381Y-2073605D01*
X-1729079Y-2071370D01*
X-1725218Y-2070607D01*
X-1599285Y-2070607D01*
X-1595424Y-2071370D01*
X-1592122Y-2073605D01*
X-1590548Y-2075180D01*
X-1582470Y-2080818D01*
X-1573580Y-2084933D01*
X-1564132Y-2087473D01*
X-1554327Y-2088337D01*
X-1544472Y-2087473D01*
X-1535074Y-2084933D01*
X-1526133Y-2080818D01*
X-1518056Y-2075180D01*
X-1511147Y-2068220D01*
X-1505508Y-2060193D01*
X-1501394Y-2051253D01*
X-1498854Y-2041804D01*
X-1497990Y-2032000D01*
X-1498854Y-2022195D01*
X-1501394Y-2012746D01*
X-1504137Y-2006803D01*
X-1505102Y-2002789D01*
X-1504340Y-1998725D01*
X-1502105Y-1995322D01*
X-1498701Y-1993036D01*
X-1494586Y-1992325D01*
X-1490624Y-1993290D01*
X-1484680Y-1996033D01*
X-1475232Y-1998573D01*
X-1465427Y-1999437D01*
X-1455572Y-1998573D01*
X-1446174Y-1996033D01*
X-1437233Y-1991918D01*
X-1429156Y-1986280D01*
X-1422247Y-1979320D01*
X-1416608Y-1971293D01*
X-1412494Y-1962353D01*
X-1409954Y-1952904D01*
X-1409090Y-1943100D01*
X-1409954Y-1933295D01*
X-1412494Y-1923846D01*
X-1416608Y-1914906D01*
X-1422247Y-1906879D01*
X-1429156Y-1899920D01*
X-1437233Y-1894281D01*
X-1446174Y-1890166D01*
X-1455572Y-1887626D01*
X-1465427Y-1886762D01*
X-1475232Y-1887626D01*
X-1484680Y-1890166D01*
X-1493570Y-1894281D01*
X-1499717Y-1898599D01*
X-1503781Y-1900275D01*
X-1508201Y-1900072D01*
X-1512062Y-1898040D01*
X-1514754Y-1894586D01*
X-1515668Y-1890268D01*
X-1515668Y-1727707D01*
X-1516481Y-1719681D01*
X-1518716Y-1712468D01*
X-1522272Y-1705762D01*
X-1527352Y-1699564D01*
X-1584604Y-1642313D01*
X-1586433Y-1639773D01*
X-1587449Y-1636725D01*
X-1588262Y-1631492D01*
X-1588008Y-1627174D01*
X-1585976Y-1623314D01*
X-1582470Y-1620672D01*
X-1578254Y-1619758D01*
X-1368704Y-1619758D01*
X-1364742Y-1620520D01*
X-1360982Y-1623263D01*
X-1358747Y-1626565D01*
X-1357985Y-1630476D01*
X-1357985Y-1980793D01*
X-1358747Y-1984705D01*
X-1360982Y-1988007D01*
X-1368907Y-1995830D01*
X-1374495Y-2003806D01*
X-1378661Y-2012746D01*
X-1381201Y-2022195D01*
X-1382064Y-2032000D01*
X-1381201Y-2041804D01*
X-1378661Y-2051253D01*
X-1374495Y-2060193D01*
X-1368907Y-2068220D01*
X-1361948Y-2075180D01*
X-1353870Y-2080818D01*
X-1344980Y-2084933D01*
X-1335532Y-2087473D01*
X-1325727Y-2088337D01*
X-1318412Y-2087727D01*
X-1314297Y-2088184D01*
X-1310792Y-2090267D01*
X-1308354Y-2093518D01*
X-1306118Y-2098294D01*
X-1300480Y-2106320D01*
X-1293571Y-2113280D01*
X-1285494Y-2118918D01*
X-1276604Y-2123033D01*
X-1267104Y-2125573D01*
X-1257249Y-2126437D01*
X-1247495Y-2125573D01*
X-1237996Y-2123033D01*
X-1229156Y-2118918D01*
X-1221079Y-2113280D01*
X-1214170Y-2106320D01*
X-1208532Y-2098294D01*
X-1204315Y-2089353D01*
X-1201826Y-2079904D01*
X-1200912Y-2070100D01*
X-1201826Y-2060295D01*
X-1204315Y-2050846D01*
X-1208532Y-2041906D01*
X-1214170Y-2033879D01*
X-1221079Y-2026920D01*
X-1225651Y-2023770D01*
X-1227886Y-2021484D01*
X-1229461Y-2018639D01*
X-1229918Y-2015439D01*
X-1229918Y-1562608D01*
X-1230731Y-1555394D01*
X-1232763Y-1548993D01*
X-1236167Y-1543050D01*
X-1239672Y-1538986D01*
X-1277112Y-1501546D01*
X-1282801Y-1496974D01*
X-1288796Y-1493926D01*
X-1295349Y-1492148D01*
X-1300683Y-1491742D01*
X-1693621Y-1491742D01*
X-1697532Y-1490980D01*
X-1700834Y-1488744D01*
X-1708657Y-1480820D01*
X-1716633Y-1475181D01*
X-1725574Y-1471066D01*
X-1734972Y-1468526D01*
X-1744827Y-1467662D01*
X-1754632Y-1468526D01*
X-1764080Y-1471066D01*
X-1772970Y-1475181D01*
X-1781048Y-1480820D01*
X-1788007Y-1487779D01*
X-1793595Y-1495806D01*
X-1797761Y-1504746D01*
X-1800301Y-1514195D01*
X-1801164Y-1524000D01*
X-1800301Y-1533804D01*
X-1798015Y-1542440D01*
X-1797710Y-1546148D01*
X-1798726Y-1549704D01*
X-1801012Y-1552651D01*
X-1804162Y-1554581D01*
X-1807768Y-1555242D01*
X-2065274Y-1555242D01*
X-2069134Y-1554480D01*
X-2072436Y-1552244D01*
X-2087422Y-1537208D01*
X-2089861Y-1533499D01*
X-2090369Y-1529130D01*
X-2089912Y-1524000D01*
X-2090826Y-1514195D01*
X-2093315Y-1504746D01*
X-2097532Y-1495806D01*
X-2103170Y-1487779D01*
X-2110079Y-1480820D01*
X-2118156Y-1475181D01*
X-2126996Y-1471066D01*
X-2136495Y-1468526D01*
X-2146249Y-1467662D01*
X-2156104Y-1468526D01*
X-2165604Y-1471066D01*
X-2174494Y-1475181D01*
X-2182571Y-1480820D01*
X-2189480Y-1487779D01*
X-2195118Y-1495806D01*
X-2199284Y-1504746D01*
X-2201824Y-1514195D01*
X-2202688Y-1524000D01*
X-2201824Y-1533804D01*
X-2199284Y-1543253D01*
X-2195118Y-1552194D01*
X-2189480Y-1560220D01*
X-2182571Y-1567180D01*
X-2174494Y-1572818D01*
X-2165604Y-1576933D01*
X-2156104Y-1579473D01*
X-2146249Y-1580337D01*
X-2141169Y-1579880D01*
X-2136749Y-1580489D01*
X-2133092Y-1582826D01*
X-2128215Y-1587703D01*
X-2126081Y-1590954D01*
X-2125268Y-1594866D01*
X-2126081Y-1598777D01*
X-2128215Y-1602028D01*
X-2131517Y-1604264D01*
X-2135378Y-1605026D01*
X-2260549Y-1605026D01*
X-2264460Y-1604264D01*
X-2267762Y-1602028D01*
X-2282596Y-1587195D01*
X-2284831Y-1583893D01*
X-2285593Y-1579981D01*
X-2285593Y-916330D01*
X-2284933Y-912672D01*
X-2283002Y-909523D01*
X-2280056Y-907287D01*
X-2276449Y-906221D01*
X-2272792Y-906526D01*
X-2270404Y-907135D01*
X-2262378Y-907846D01*
X-2258974Y-908761D01*
X-2256078Y-910793D01*
X-2060448Y-1106424D01*
X-2054199Y-1111554D01*
X-2047493Y-1115110D01*
X-2040331Y-1117295D01*
X-2032304Y-1118108D01*
X-1429308Y-1118108D01*
X-1425448Y-1118870D01*
X-1422146Y-1121105D01*
X-1420571Y-1122680D01*
X-1412494Y-1128318D01*
X-1403604Y-1132433D01*
X-1394104Y-1134973D01*
X-1384249Y-1135837D01*
X-1374495Y-1134973D01*
X-1364996Y-1132433D01*
X-1356156Y-1128318D01*
X-1348079Y-1122680D01*
X-1341170Y-1115720D01*
X-1335532Y-1107694D01*
X-1331315Y-1098753D01*
X-1328826Y-1089304D01*
X-1327912Y-1079500D01*
X-1328826Y-1069695D01*
X-1331315Y-1060246D01*
X-1335532Y-1051306D01*
X-1341170Y-1043279D01*
X-1348079Y-1036319D01*
X-1356156Y-1030681D01*
X-1364996Y-1026566D01*
X-1374495Y-1024026D01*
X-1384249Y-1023162D01*
X-1394104Y-1024026D01*
X-1403604Y-1026566D01*
X-1412494Y-1030681D01*
X-1420571Y-1036319D01*
X-1422146Y-1037894D01*
X-1425448Y-1040130D01*
X-1429308Y-1040892D01*
X-2012594Y-1040892D01*
X-2016455Y-1040130D01*
X-2019706Y-1037894D01*
X-2201468Y-856183D01*
X-2203500Y-853287D01*
X-2204415Y-849884D01*
X-2205126Y-841857D01*
X-2207615Y-832408D01*
X-2211832Y-823468D01*
X-2217470Y-815441D01*
X-2224379Y-808482D01*
X-2232456Y-802843D01*
X-2241296Y-798728D01*
X-2250795Y-796188D01*
X-2259380Y-795426D01*
X-2263190Y-794308D01*
X-2266289Y-791819D01*
X-2268169Y-788365D01*
X-2268626Y-784402D01*
X-2267762Y-774700D01*
X-2268626Y-764895D01*
X-2271166Y-755446D01*
X-2275332Y-746506D01*
X-2279599Y-740410D01*
X-2281275Y-736346D01*
X-2281123Y-731926D01*
X-2279091Y-728014D01*
X-2275586Y-725373D01*
X-2271318Y-724408D01*
X-2178608Y-724408D01*
X-2174748Y-725170D01*
X-2171446Y-727405D01*
X-2169871Y-728980D01*
X-2161794Y-734618D01*
X-2152904Y-738733D01*
X-2143404Y-741273D01*
X-2133549Y-742137D01*
X-2123795Y-741273D01*
X-2114296Y-738733D01*
X-2105456Y-734618D01*
X-2097379Y-728980D01*
X-2090470Y-722020D01*
X-2084832Y-713994D01*
X-2080615Y-705053D01*
X-2078126Y-695604D01*
X-2077212Y-685800D01*
X-2078126Y-675995D01*
X-2080615Y-666546D01*
X-2082495Y-662686D01*
X-2083409Y-658723D01*
X-2082749Y-654710D01*
X-2080564Y-651306D01*
X-2077212Y-649020D01*
X-2073249Y-648208D01*
X-1835708Y-648208D01*
X-1831848Y-648970D01*
X-1828546Y-651205D01*
X-1826971Y-652780D01*
X-1818893Y-658418D01*
X-1810004Y-662533D01*
X-1800504Y-665073D01*
X-1790649Y-665937D01*
X-1780895Y-665073D01*
X-1771396Y-662533D01*
X-1769110Y-661466D01*
X-1764792Y-660501D01*
X-1194054Y-660501D01*
X-1189329Y-660298D01*
X-1185011Y-659739D01*
X-1180592Y-658774D01*
X-1176426Y-657453D01*
X-1172311Y-655726D01*
X-1168349Y-653694D01*
X-1164640Y-651306D01*
X-1161084Y-648614D01*
X-1157681Y-645464D01*
X-1094435Y-582269D01*
X-1091336Y-578815D01*
X-1088644Y-575310D01*
X-1086256Y-571550D01*
X-1084122Y-567588D01*
X-1082497Y-563524D01*
X-1081176Y-559257D01*
X-1080211Y-554939D01*
X-1079601Y-550519D01*
X-1079347Y-545896D01*
X-1079347Y254101D01*
X-1078636Y258013D01*
X-1076401Y261264D01*
X-1061415Y276301D01*
X-1058113Y278536D01*
X-1054252Y279298D01*
X-1011986Y279298D01*
X-1007871Y278384D01*
X-1004468Y275894D01*
X-1002334Y272186D01*
X-1001928Y267970D01*
X-1003249Y263906D01*
X-1006195Y260807D01*
X-1014171Y255270D01*
X-1021080Y248310D01*
X-1026718Y240284D01*
X-1030884Y231343D01*
X-1033424Y221894D01*
X-1034287Y212090D01*
X-1033424Y202285D01*
X-1030884Y192836D01*
X-1029766Y190449D01*
X-1028852Y186182D01*
X-1028852Y-228092D01*
X-1029766Y-232410D01*
X-1030884Y-234746D01*
X-1033424Y-244195D01*
X-1034287Y-254000D01*
X-1033424Y-263804D01*
X-1030884Y-273253D01*
X-1029766Y-275590D01*
X-1028852Y-279908D01*
X-1028852Y-1244092D01*
X-1029766Y-1248410D01*
X-1030884Y-1250746D01*
X-1033424Y-1260195D01*
X-1034287Y-1270000D01*
X-1033424Y-1279804D01*
X-1030884Y-1289253D01*
X-1026718Y-1298194D01*
X-1021080Y-1306220D01*
X-1014171Y-1313180D01*
X-1006094Y-1318818D01*
X-997203Y-1322933D01*
X-987704Y-1325473D01*
X-977849Y-1326337D01*
X-968095Y-1325473D01*
X-958596Y-1322933D01*
X-949756Y-1318818D01*
X-941679Y-1313180D01*
X-934770Y-1306220D01*
X-929132Y-1298194D01*
X-924915Y-1289253D01*
X-922426Y-1279804D01*
X-921512Y-1270000D01*
X-922426Y-1260195D01*
X-924915Y-1250746D01*
X-926033Y-1248359D01*
X-926947Y-1244092D01*
X-926947Y-279908D01*
X-926033Y-275640D01*
X-924915Y-273253D01*
X-922426Y-263804D01*
X-921512Y-254000D01*
X-922426Y-244195D01*
X-924915Y-234746D01*
X-926033Y-232410D01*
X-926947Y-228092D01*
X-926947Y-61061D01*
X-926236Y-57200D01*
X-924001Y-53898D01*
X-920699Y-51663D01*
X-916838Y-50901D01*
X-483108Y-50901D01*
X-478840Y-51866D01*
X-476504Y-52933D01*
X-467004Y-55473D01*
X-457149Y-56337D01*
X-447395Y-55473D01*
X-437896Y-52933D01*
X-429056Y-48818D01*
X-420979Y-43180D01*
X-414070Y-36220D01*
X-408432Y-28194D01*
X-404215Y-19253D01*
X-401726Y-9804D01*
X-400812Y0D01*
X-401726Y9804D01*
X-404215Y19253D01*
X-408432Y28194D01*
X-414070Y36220D01*
X-420979Y43180D01*
X-429056Y48818D01*
X-437896Y52933D01*
X-447395Y55473D01*
X-457149Y56337D01*
X-467004Y55473D01*
X-476504Y52933D01*
X-478840Y51866D01*
X-483108Y50901D01*
X-916838Y50901D01*
X-920699Y51663D01*
X-924001Y53898D01*
X-926236Y57200D01*
X-926947Y61061D01*
X-926947Y186182D01*
X-926033Y190500D01*
X-924915Y192836D01*
X-922426Y202285D01*
X-921512Y212090D01*
X-922426Y221894D01*
X-924915Y231343D01*
X-929132Y240284D01*
X-934770Y248310D01*
X-941679Y255270D01*
X-949655Y260807D01*
X-952550Y263906D01*
X-953922Y267970D01*
X-953465Y272186D01*
X-951331Y275894D01*
X-947928Y278384D01*
X-943813Y279298D01*
X-140208Y279298D01*
X-135940Y278333D01*
X-133604Y277266D01*
X-124104Y274726D01*
X-114249Y273862D01*
X-104495Y274726D01*
X-94996Y277266D01*
X-86156Y281381D01*
X-78079Y287020D01*
X-71170Y293979D01*
X-65532Y302006D01*
X-61315Y310946D01*
X-58826Y320395D01*
X-57912Y330200D01*
X-58826Y340004D01*
X-61315Y349453D01*
X-65532Y358394D01*
X-71170Y366420D01*
X-78079Y373380D01*
X-86156Y379018D01*
X-94996Y383133D01*
X-104495Y385673D01*
X-114249Y386537D01*
X-124104Y385673D01*
X-133604Y383133D01*
X-135940Y382066D01*
X-140208Y381101D01*
X-1079246Y381101D01*
X-1083970Y380898D01*
X-1088339Y380339D01*
X-1092708Y379374D01*
X-1096924Y378053D01*
X-1101039Y376326D01*
X-1104950Y374294D01*
X-1108710Y371906D01*
X-1112215Y369214D01*
X-1115618Y366064D01*
X-1166164Y315569D01*
X-1169263Y312115D01*
X-1172006Y308610D01*
X-1174394Y304850D01*
X-1176477Y300888D01*
X-1178102Y296824D01*
X-1179474Y292557D01*
X-1180388Y288239D01*
X-1181049Y283819D01*
X-1181252Y279196D01*
X-1181252Y-520801D01*
X-1181963Y-524713D01*
X-1184198Y-527964D01*
X-1211935Y-555701D01*
X-1215186Y-557936D01*
X-1219047Y-558698D01*
X-1764792Y-558698D01*
X-1769110Y-557733D01*
X-1771396Y-556666D01*
X-1780895Y-554126D01*
X-1790649Y-553262D01*
X-1800504Y-554126D01*
X-1810004Y-556666D01*
X-1818893Y-560781D01*
X-1826971Y-566420D01*
X-1828546Y-567994D01*
X-1831848Y-570230D01*
X-1835708Y-570992D01*
X-2415032Y-570992D01*
X-2418943Y-570230D01*
X-2422245Y-567994D01*
X-2424430Y-564743D01*
X-2425192Y-560832D01*
X-2425192Y-260908D01*
X-2424430Y-256997D01*
X-2422245Y-253695D01*
X-2420670Y-252120D01*
X-2415032Y-244094D01*
X-2410866Y-235153D01*
X-2408326Y-225704D01*
X-2407462Y-215900D01*
X-2408326Y-206095D01*
X-2410866Y-196646D01*
X-2415032Y-187706D01*
X-2420670Y-179679D01*
X-2427579Y-172720D01*
X-2435656Y-167081D01*
X-2444496Y-162966D01*
X-2454046Y-160426D01*
X-2463800Y-159562D01*
X-2473604Y-160426D01*
X-2483104Y-162966D01*
X-2491994Y-167081D01*
X-2500071Y-172720D01*
X-2506980Y-179679D01*
X-2512618Y-187706D01*
X-2516784Y-196646D01*
X-2519324Y-206095D01*
X-2520188Y-215900D01*
X-2519324Y-225704D01*
X-2516784Y-235153D01*
X-2512618Y-244094D01*
X-2506980Y-252120D01*
X-2505405Y-253695D01*
X-2503220Y-256997D01*
X-2502408Y-260908D01*
X-2502408Y-583692D01*
X-2501646Y-591718D01*
X-2499461Y-598932D01*
X-2495905Y-605637D01*
X-2490774Y-611835D01*
X-2472791Y-629869D01*
X-2470556Y-633120D01*
X-2469794Y-637032D01*
X-2470556Y-640943D01*
X-2472791Y-644194D01*
X-2476093Y-646430D01*
X-2479954Y-647192D01*
X-2609342Y-647192D01*
X-2613202Y-646430D01*
X-2616504Y-644194D01*
X-2618079Y-642620D01*
X-2626156Y-636981D01*
X-2634996Y-632866D01*
X-2644546Y-630326D01*
X-2654300Y-629462D01*
X-2664104Y-630326D01*
X-2673604Y-632866D01*
X-2682494Y-636981D01*
X-2690571Y-642620D01*
X-2697480Y-649579D01*
X-2703118Y-657606D01*
X-2707284Y-666546D01*
X-2709824Y-675995D01*
X-2710688Y-685800D01*
X-2709824Y-695604D01*
X-2707284Y-705053D01*
X-2703118Y-713994D01*
X-2697480Y-722020D01*
X-2690571Y-728980D01*
X-2682494Y-734618D01*
X-2673604Y-738733D01*
X-2664104Y-741273D01*
X-2654300Y-742137D01*
X-2644546Y-741273D01*
X-2634996Y-738733D01*
X-2626156Y-734618D01*
X-2618079Y-728980D01*
X-2616504Y-727405D01*
X-2613202Y-725170D01*
X-2609342Y-724408D01*
X-2376932Y-724408D01*
X-2372664Y-725373D01*
X-2369159Y-728014D01*
X-2367127Y-731926D01*
X-2366975Y-736346D01*
X-2368651Y-740410D01*
X-2372918Y-746506D01*
X-2377084Y-755446D01*
X-2379624Y-764895D01*
X-2380488Y-774700D01*
X-2379624Y-784504D01*
X-2377084Y-793953D01*
X-2372918Y-802894D01*
X-2367280Y-810920D01*
X-2365806Y-812444D01*
X-2363571Y-815746D01*
X-2362809Y-819607D01*
X-2362809Y-1599692D01*
X-2361946Y-1607718D01*
X-2359812Y-1614932D01*
X-2356256Y-1621637D01*
X-2351125Y-1627835D01*
X-2308402Y-1670557D01*
X-2298598Y-1678736D01*
X-2296769Y-1682800D01*
X-2296871Y-1687271D01*
X-2298903Y-1691233D01*
X-2302408Y-1693976D01*
X-2306726Y-1694942D01*
X-2315819Y-1694942D01*
X-2323033Y-1695704D01*
X-2329434Y-1697786D01*
X-2335377Y-1701190D01*
X-2339441Y-1704695D01*
X-2353919Y-1719173D01*
X-2357628Y-1721510D01*
X-2361946Y-1722120D01*
X-2367127Y-1721662D01*
X-2376932Y-1722526D01*
X-2386380Y-1725066D01*
X-2395321Y-1729181D01*
X-2403348Y-1734820D01*
X-2410307Y-1741779D01*
X-2415946Y-1749806D01*
X-2420061Y-1758746D01*
X-2422601Y-1768195D01*
X-2423464Y-1778000D01*
X-2422601Y-1787804D01*
X-2420061Y-1797253D01*
X-2415946Y-1806193D01*
X-2413050Y-1810257D01*
X-2411425Y-1814068D01*
X-2411425Y-1818132D01*
X-2413050Y-1821942D01*
X-2415946Y-1826006D01*
X-2420061Y-1834946D01*
X-2422601Y-1844395D01*
X-2423464Y-1854200D01*
X-2422601Y-1864004D01*
X-2420061Y-1873453D01*
X-2415946Y-1882393D01*
X-2413050Y-1886457D01*
X-2411425Y-1890268D01*
X-2411425Y-1894332D01*
X-2413050Y-1898142D01*
X-2415946Y-1902206D01*
X-2420061Y-1911146D01*
X-2422601Y-1920595D01*
X-2423464Y-1930400D01*
X-2422601Y-1940204D01*
X-2420061Y-1949653D01*
X-2415946Y-1958593D01*
X-2410307Y-1966620D01*
X-2403348Y-1973580D01*
X-2395321Y-1979218D01*
X-2386380Y-1983333D01*
X-2376932Y-1985873D01*
X-2367127Y-1986737D01*
X-2357323Y-1985873D01*
X-2347874Y-1983333D01*
X-2342540Y-1980895D01*
X-2338578Y-1979930D01*
X-2334514Y-1980641D01*
X-2331059Y-1982927D01*
X-2318562Y-1995424D01*
X-2312365Y-2000504D01*
X-2305659Y-2004060D01*
X-2298446Y-2006295D01*
X-2290419Y-2007057D01*
X-2126996Y-2007057D01*
X-2123338Y-2007717D01*
X-2120188Y-2009698D01*
X-2117902Y-2012594D01*
X-2116886Y-2016150D01*
X-2117191Y-2019858D01*
X-2117801Y-2022195D01*
X-2118664Y-2032000D01*
X-2117801Y-2041804D01*
X-2115261Y-2051253D01*
X-2111095Y-2060193D01*
X-2105507Y-2068220D01*
X-2098548Y-2075180D01*
X-2085797Y-2083968D01*
X-2083765Y-2087625D01*
X-2083409Y-2091842D01*
X-2084781Y-2095855D01*
X-2087625Y-2098954D01*
X-2093671Y-2103120D01*
X-2100580Y-2110079D01*
X-2106218Y-2118106D01*
X-2110384Y-2127046D01*
X-2113940Y-2140102D01*
X-2116175Y-2143099D01*
X-2119376Y-2145080D01*
X-2123033Y-2145792D01*
X-2774442Y-2145792D01*
X-2778302Y-2145030D01*
X-2781604Y-2142794D01*
X-2783179Y-2141220D01*
X-2791256Y-2135581D01*
X-2800096Y-2131466D01*
X-2809646Y-2128926D01*
X-2819400Y-2128062D01*
X-2829204Y-2128926D01*
X-2836418Y-2130856D01*
X-2840126Y-2131110D01*
X-2843682Y-2130094D01*
X-2846628Y-2127808D01*
X-2848559Y-2124659D01*
X-2849219Y-2121052D01*
X-2849219Y2641752D01*
X-2848559Y2645359D01*
X-2846628Y2648508D01*
X-2843682Y2650794D01*
X-2840126Y2651810D01*
X-2836418Y2651556D01*
X-2829204Y2649626D01*
X-2819400Y2648762D01*
X-2809646Y2649626D01*
X-2800096Y2652166D01*
X-2791256Y2656281D01*
X-2783179Y2661920D01*
X-2781604Y2663494D01*
X-2778302Y2665730D01*
X-2774442Y2666492D01*
X-2153970Y2666492D01*
X-2149805Y2665577D01*
X-2146350Y2663037D01*
X-2144217Y2659278D01*
X-2143912Y2655011D01*
X-2145385Y2650947D01*
X-2148332Y2647899D01*
X-2153716Y2644292D01*
X-2164384Y2634945D01*
X-2173732Y2624277D01*
X-2181606Y2612491D01*
X-2187854Y2599791D01*
X-2192426Y2586380D01*
X-2195271Y2570988D01*
X-2100427Y2570988D01*
X-2100427Y2656332D01*
X-2099665Y2660243D01*
X-2097379Y2663494D01*
X-2094179Y2665730D01*
X-2090267Y2666492D01*
X-2085136Y2666492D01*
X-2081275Y2665730D01*
X-2078024Y2663494D01*
X-2075738Y2660243D01*
X-2075027Y2656332D01*
X-2075027Y2570988D01*
X-1980133Y2570988D01*
X-1982978Y2586380D01*
X-1987600Y2599791D01*
X-1993849Y2612491D01*
X-2001672Y2624277D01*
X-2011070Y2634945D01*
X-2021738Y2644292D01*
X-2027072Y2647899D01*
X-2030018Y2650947D01*
X-2031492Y2655011D01*
X-2031187Y2659278D01*
X-2029104Y2663037D01*
X-2025599Y2665577D01*
X-2021484Y2666492D01*
X-947470Y2666492D01*
X-943305Y2665577D01*
X-939850Y2663037D01*
X-937717Y2659278D01*
X-937412Y2655011D01*
X-938885Y2650947D01*
X-941832Y2647899D01*
X-947216Y2644292D01*
X-957884Y2634945D01*
X-967232Y2624277D01*
X-975106Y2612491D01*
X-981354Y2599791D01*
X-985926Y2586380D01*
X-988618Y2572461D01*
X-989634Y2558288D01*
X-988618Y2544165D01*
X-985926Y2530246D01*
X-981354Y2516835D01*
X-975106Y2504135D01*
X-967232Y2492349D01*
X-957884Y2481681D01*
X-947216Y2472334D01*
X-935431Y2464460D01*
X-922629Y2458161D01*
X-909269Y2453640D01*
X-895299Y2450846D01*
X-881227Y2449931D01*
X-867105Y2450846D01*
X-853135Y2453640D01*
X-839774Y2458161D01*
X-827024Y2464460D01*
X-815238Y2472334D01*
X-804570Y2481681D01*
X-795172Y2492349D01*
X-787349Y2504135D01*
X-781100Y2516835D01*
X-776478Y2530246D01*
X-773785Y2544165D01*
X-772820Y2558288D01*
X-773785Y2572461D01*
X-776478Y2586380D01*
X-781100Y2599791D01*
X-787349Y2612491D01*
X-795172Y2624277D01*
X-804570Y2634945D01*
X-815238Y2644292D01*
X-820572Y2647899D01*
X-823518Y2650947D01*
X-824992Y2655011D01*
X-824687Y2659278D01*
X-822604Y2663037D01*
X-819099Y2665577D01*
X-814984Y2666492D01*
X-438810Y2666492D01*
X-430733Y2667304D01*
X-423570Y2669489D01*
X-416915Y2673045D01*
X-410667Y2678176D01*
X-393192Y2695651D01*
X-389432Y2698038D01*
X-385064Y2698597D01*
X-380847Y2697226D01*
X-377647Y2694228D01*
X-375970Y2690114D01*
X-376224Y2685745D01*
X-378206Y2678633D01*
X-379120Y2671775D01*
X-297027Y2671775D01*
X-297027Y2753207D01*
X-296265Y2757119D01*
X-293979Y2760370D01*
X-290779Y2762605D01*
X-286867Y2763367D01*
X-281736Y2763367D01*
X-277876Y2762605D01*
X-274624Y2760370D01*
X-272338Y2757119D01*
X-271627Y2753207D01*
X-271627Y2671775D01*
X-189534Y2671775D01*
X-190449Y2678633D01*
X-193954Y2691231D01*
X-199186Y2703220D01*
X-205994Y2714396D01*
X-214274Y2724556D01*
X-223824Y2733497D01*
X-234442Y2741015D01*
X-246125Y2747060D01*
X-253085Y2749550D01*
X-256641Y2751683D01*
X-259029Y2755036D01*
X-259842Y2759100D01*
X-259029Y2763164D01*
X-256641Y2766517D01*
X-253085Y2768650D01*
X-246125Y2771140D01*
X-234442Y2777185D01*
X-223824Y2784703D01*
X-214274Y2793644D01*
X-205994Y2803804D01*
X-199186Y2814980D01*
X-193954Y2826969D01*
X-190449Y2839567D01*
X-188671Y2852572D01*
X-188671Y2865628D01*
X-190449Y2878632D01*
X-193954Y2891231D01*
X-199186Y2903220D01*
X-205994Y2914396D01*
X-214274Y2924556D01*
X-223824Y2933496D01*
X-234442Y2941015D01*
X-246125Y2947060D01*
X-253085Y2949549D01*
X-256641Y2951683D01*
X-259029Y2955036D01*
X-259842Y2959100D01*
X-259029Y2963164D01*
X-256641Y2966516D01*
X-253085Y2968650D01*
X-246125Y2971139D01*
X-234442Y2977184D01*
X-223824Y2984703D01*
X-214274Y2993644D01*
X-205994Y3003804D01*
X-199186Y3014980D01*
X-193954Y3026968D01*
X-190449Y3039567D01*
X-188671Y3052572D01*
X-188671Y3065627D01*
X-190449Y3078632D01*
X-193954Y3091230D01*
X-199186Y3103219D01*
X-205994Y3114395D01*
X-214274Y3124555D01*
X-223824Y3133496D01*
X-230936Y3138525D01*
X-233781Y3141675D01*
X-235204Y3145688D01*
X-234797Y3149904D01*
X-232714Y3153613D01*
X-229260Y3156102D01*
X-225044Y3156966D01*
X-214833Y3156966D01*
X-208584Y3157728D01*
X-203047Y3159607D01*
X-198170Y3162706D01*
X-194106Y3166770D01*
X-191058Y3171698D01*
X-189128Y3177133D01*
X-188417Y3183483D01*
X-188417Y3246374D01*
X-271627Y3246374D01*
X-271627Y3164992D01*
X-272338Y3161080D01*
X-274624Y3157829D01*
X-277876Y3155594D01*
X-281736Y3154832D01*
X-286867Y3154832D01*
X-290779Y3155594D01*
X-293979Y3157829D01*
X-296265Y3161080D01*
X-297027Y3164992D01*
X-297027Y3246374D01*
X-380238Y3246374D01*
X-380238Y3183483D01*
X-379476Y3177133D01*
X-377545Y3171698D01*
X-374497Y3166770D01*
X-370433Y3162706D01*
X-365556Y3159607D01*
X-360070Y3157728D01*
X-353771Y3156966D01*
X-343560Y3156966D01*
X-339344Y3156102D01*
X-335940Y3153613D01*
X-333857Y3149904D01*
X-333451Y3145688D01*
X-334822Y3141675D01*
X-337667Y3138525D01*
X-344779Y3133496D01*
X-354380Y3124555D01*
X-363169Y3113786D01*
X-366674Y3110992D01*
X-370992Y3110026D01*
X-546049Y3110026D01*
X-550367Y3110941D01*
X-552704Y3112058D01*
X-562152Y3114598D01*
X-571906Y3115462D01*
X-581761Y3114598D01*
X-591210Y3112058D01*
X-600151Y3107893D01*
X-608177Y3102254D01*
X-615137Y3095345D01*
X-620776Y3087268D01*
X-624890Y3078378D01*
X-627430Y3068878D01*
X-628294Y3059074D01*
X-627430Y3049320D01*
X-624890Y3039821D01*
X-620776Y3030931D01*
X-615137Y3022854D01*
X-608177Y3015945D01*
X-600151Y3010306D01*
X-591210Y3006140D01*
X-581761Y3003600D01*
X-571906Y3002737D01*
X-562152Y3003600D01*
X-552704Y3006140D01*
X-550367Y3007258D01*
X-546049Y3008172D01*
X-370992Y3008172D01*
X-366674Y3007207D01*
X-363169Y3004413D01*
X-354380Y2993644D01*
X-344779Y2984703D01*
X-334162Y2977184D01*
X-322529Y2971139D01*
X-315518Y2968650D01*
X-312013Y2966516D01*
X-309626Y2963164D01*
X-308813Y2959100D01*
X-309626Y2955036D01*
X-312013Y2951683D01*
X-315518Y2949549D01*
X-322529Y2947060D01*
X-334162Y2941015D01*
X-344779Y2933496D01*
X-354380Y2924556D01*
X-362661Y2914396D01*
X-369468Y2903220D01*
X-374599Y2891231D01*
X-378206Y2878632D01*
X-379933Y2865628D01*
X-379933Y2852572D01*
X-378206Y2839567D01*
X-375412Y2829864D01*
X-375158Y2826308D01*
X-375970Y2822854D01*
X-378104Y2819958D01*
X-451358Y2746705D01*
X-454659Y2744470D01*
X-458520Y2743708D01*
X-777849Y2743708D01*
X-782015Y2744622D01*
X-785418Y2747162D01*
X-787552Y2750921D01*
X-787908Y2755188D01*
X-786485Y2759202D01*
X-783539Y2762300D01*
X-775563Y2767634D01*
X-761746Y2779217D01*
X-749046Y2792171D01*
X-737819Y2806395D01*
X-728065Y2821686D01*
X-720039Y2837840D01*
X-713638Y2854807D01*
X-709015Y2872333D01*
X-706170Y2890215D01*
X-705256Y2908300D01*
X-706170Y2926384D01*
X-709015Y2944266D01*
X-713638Y2961792D01*
X-720039Y2978759D01*
X-728065Y2994914D01*
X-737819Y3010204D01*
X-749046Y3024428D01*
X-761746Y3037382D01*
X-775563Y3048965D01*
X-790651Y3059074D01*
X-806653Y3067608D01*
X-823417Y3074416D01*
X-840790Y3079496D01*
X-858570Y3082747D01*
X-876604Y3084118D01*
X-894740Y3083661D01*
X-912672Y3081324D01*
X-930351Y3077210D01*
X-947470Y3071215D01*
X-963879Y3063544D01*
X-979322Y3054248D01*
X-993851Y3043377D01*
X-1007110Y3031083D01*
X-1019149Y3017469D01*
X-1029563Y3002686D01*
X-1038555Y2986938D01*
X-1045768Y2970326D01*
X-1051306Y2953105D01*
X-1054963Y2935376D01*
X-1056792Y2917342D01*
X-1056792Y2899257D01*
X-1054963Y2881223D01*
X-1051306Y2863494D01*
X-1045768Y2846273D01*
X-1038555Y2829661D01*
X-1029563Y2813913D01*
X-1019149Y2799130D01*
X-1007110Y2785516D01*
X-993851Y2773222D01*
X-978865Y2761996D01*
X-976121Y2758846D01*
X-974801Y2754833D01*
X-975360Y2750667D01*
X-977392Y2747010D01*
X-980795Y2744571D01*
X-984961Y2743708D01*
X-1984349Y2743708D01*
X-1988515Y2744622D01*
X-1991918Y2747162D01*
X-1994052Y2750921D01*
X-1994407Y2755188D01*
X-1992985Y2759202D01*
X-1990039Y2762300D01*
X-1982063Y2767634D01*
X-1968246Y2779217D01*
X-1955546Y2792171D01*
X-1944319Y2806395D01*
X-1934565Y2821686D01*
X-1926539Y2837840D01*
X-1920138Y2854807D01*
X-1915515Y2872333D01*
X-1912670Y2890215D01*
X-1911756Y2908300D01*
X-1912670Y2926384D01*
X-1915515Y2944266D01*
X-1920138Y2961792D01*
X-1926539Y2978759D01*
X-1934565Y2994914D01*
X-1944319Y3010204D01*
X-1955546Y3024428D01*
X-1968246Y3037382D01*
X-1982063Y3048965D01*
X-1997151Y3059074D01*
X-2013153Y3067608D01*
X-2029917Y3074416D01*
X-2047290Y3079496D01*
X-2065070Y3082747D01*
X-2083104Y3084118D01*
X-2101240Y3083661D01*
X-2119172Y3081324D01*
X-2136851Y3077210D01*
X-2153970Y3071215D01*
X-2170379Y3063544D01*
X-2185822Y3054248D01*
X-2200351Y3043377D01*
X-2213610Y3031083D01*
X-2225649Y3017469D01*
X-2236063Y3002686D01*
X-2245055Y2986938D01*
X-2252268Y2970326D01*
X-2257806Y2953105D01*
X-2261514Y2935376D01*
X-2263343Y2917342D01*
X-2263343Y2899257D01*
X-2261514Y2881223D01*
X-2257806Y2863494D01*
X-2252268Y2846273D01*
X-2245055Y2829661D01*
X-2236063Y2813913D01*
X-2225649Y2799130D01*
X-2213610Y2785516D01*
X-2200351Y2773222D01*
X-2185365Y2761996D01*
X-2182622Y2758846D01*
X-2181301Y2754833D01*
X-2181860Y2750667D01*
X-2183892Y2747010D01*
X-2187295Y2744571D01*
X-2191461Y2743708D01*
X-2774442Y2743708D01*
X-2778302Y2744470D01*
X-2781604Y2746705D01*
X-2783179Y2748280D01*
X-2791256Y2753918D01*
X-2800096Y2758033D01*
X-2809646Y2760573D01*
X-2819400Y2761437D01*
X-2829204Y2760573D01*
X-2836418Y2758643D01*
X-2840126Y2758389D01*
X-2843682Y2759405D01*
X-2846628Y2761691D01*
X-2848559Y2764840D01*
X-2849219Y2768447D01*
X-2849219Y3989832D01*
X-2848457Y3993743D01*
X-2846222Y3996994D01*
X-2842971Y3999229D01*
X-2839059Y3999992D01*
X1076604Y3999992D01*
X1080566Y3999229D01*
X1083767Y3996994D01*
X1086002Y3993743D01*
X1086764Y3989832D01*
X1086764Y-6987031D01*
X1086002Y-6990943D01*
X1083767Y-6994194D01*
X1080566Y-6996430D01*
X1076604Y-6997192D01*
G37*

%LPC*%
G36*
X-2087727Y3299917D02*
G01*
X-2073605Y3300831D01*
X-2059635Y3303625D01*
X-2046274Y3308146D01*
X-2033524Y3314446D01*
X-2021738Y3322320D01*
X-2011070Y3331667D01*
X-2001672Y3342335D01*
X-1993849Y3354120D01*
X-1987600Y3366820D01*
X-1982978Y3380232D01*
X-1980285Y3394151D01*
X-1979320Y3408273D01*
X-1980285Y3422446D01*
X-1982978Y3436365D01*
X-1987600Y3449777D01*
X-1993849Y3462477D01*
X-2001672Y3474262D01*
X-2011070Y3484930D01*
X-2021738Y3494278D01*
X-2033524Y3502151D01*
X-2046274Y3508451D01*
X-2059635Y3512972D01*
X-2073605Y3515766D01*
X-2087727Y3516680D01*
X-2101799Y3515766D01*
X-2115769Y3512972D01*
X-2129129Y3508451D01*
X-2141931Y3502151D01*
X-2153716Y3494278D01*
X-2164384Y3484930D01*
X-2173732Y3474262D01*
X-2181606Y3462477D01*
X-2187854Y3449777D01*
X-2190242Y3445510D01*
X-2193645Y3443071D01*
X-2197709Y3442208D01*
X-2571242Y3442208D01*
X-2575102Y3442970D01*
X-2578404Y3445205D01*
X-2579979Y3446779D01*
X-2588056Y3452418D01*
X-2596896Y3456533D01*
X-2606446Y3459073D01*
X-2616200Y3459937D01*
X-2626004Y3459073D01*
X-2635504Y3456533D01*
X-2644394Y3452418D01*
X-2652471Y3446779D01*
X-2659380Y3439820D01*
X-2665018Y3431794D01*
X-2669184Y3422853D01*
X-2671724Y3413404D01*
X-2672588Y3403600D01*
X-2671724Y3393795D01*
X-2669184Y3384346D01*
X-2665018Y3375406D01*
X-2659380Y3367379D01*
X-2652471Y3360420D01*
X-2644394Y3354781D01*
X-2635504Y3350666D01*
X-2626004Y3348126D01*
X-2616200Y3347262D01*
X-2606446Y3348126D01*
X-2596896Y3350666D01*
X-2588056Y3354781D01*
X-2579979Y3360420D01*
X-2578404Y3361994D01*
X-2575102Y3364229D01*
X-2571242Y3364992D01*
X-2193290Y3364992D01*
X-2189581Y3364280D01*
X-2186432Y3362299D01*
X-2184146Y3359302D01*
X-2181606Y3354120D01*
X-2173732Y3342335D01*
X-2164384Y3331667D01*
X-2153716Y3322320D01*
X-2141931Y3314446D01*
X-2129129Y3308146D01*
X-2115769Y3303625D01*
X-2101799Y3300831D01*
G37*
G36*
X90424Y-6460896D02*
G01*
X162102Y-6460896D01*
X168402Y-6460185D01*
X173888Y-6458305D01*
X178765Y-6455206D01*
X182930Y-6451092D01*
X185928Y-6446215D01*
X187858Y-6440728D01*
X188620Y-6434429D01*
X188620Y-6362700D01*
X90424Y-6362700D01*
G37*
G36*
X-6756Y-6460896D02*
G01*
X65024Y-6460896D01*
X65024Y-6362700D01*
X-33172Y-6362700D01*
X-33172Y-6434429D01*
X-32512Y-6440728D01*
X-30581Y-6446215D01*
X-27533Y-6451092D01*
X-23418Y-6455206D01*
X-18542Y-6458305D01*
X-13106Y-6460185D01*
G37*
G36*
X-1941575Y-6460083D02*
G01*
X-1940102Y-6459982D01*
X-1926183Y-6457238D01*
X-1912670Y-6452768D01*
X-1899869Y-6446621D01*
X-1888032Y-6438849D01*
X-1877212Y-6429654D01*
X-1867662Y-6419138D01*
X-1859483Y-6407505D01*
X-1852930Y-6394907D01*
X-1848053Y-6381546D01*
X-1844852Y-6367678D01*
X-1844395Y-6362700D01*
X-1941575Y-6362700D01*
G37*
G36*
X-1966975Y-6460083D02*
G01*
X-1966975Y-6362700D01*
X-2064257Y-6362700D01*
X-2063800Y-6367678D01*
X-2060651Y-6381546D01*
X-2055672Y-6394907D01*
X-2049170Y-6407505D01*
X-2041042Y-6419138D01*
X-2031492Y-6429654D01*
X-2020620Y-6438849D01*
X-2008733Y-6446621D01*
X-1995932Y-6452768D01*
X-1982419Y-6457238D01*
X-1968449Y-6459982D01*
G37*
G36*
X-874776Y-6407607D02*
G01*
X-845515Y-6406642D01*
X-816356Y-6403695D01*
X-787450Y-6398818D01*
X-758901Y-6392011D01*
X-730961Y-6383324D01*
X-703630Y-6372809D01*
X-677011Y-6360464D01*
X-651306Y-6346393D01*
X-626567Y-6330594D01*
X-602996Y-6313220D01*
X-580644Y-6294272D01*
X-559562Y-6273901D01*
X-539902Y-6252159D01*
X-521665Y-6229146D01*
X-505155Y-6205016D01*
X-490169Y-6179769D01*
X-476961Y-6153607D01*
X-465531Y-6126632D01*
X-455930Y-6098946D01*
X-448157Y-6070701D01*
X-442315Y-6041948D01*
X-438454Y-6012891D01*
X-436422Y-5983681D01*
X-436422Y-5954369D01*
X-438454Y-5925108D01*
X-442315Y-5896051D01*
X-448157Y-5867298D01*
X-455930Y-5839053D01*
X-465531Y-5811367D01*
X-476961Y-5784392D01*
X-490169Y-5758230D01*
X-505155Y-5732983D01*
X-521665Y-5708853D01*
X-539902Y-5685840D01*
X-559562Y-5664098D01*
X-580644Y-5643727D01*
X-602996Y-5624779D01*
X-626567Y-5607405D01*
X-651306Y-5591606D01*
X-677011Y-5577535D01*
X-703630Y-5565190D01*
X-730961Y-5554675D01*
X-758901Y-5545988D01*
X-787450Y-5539181D01*
X-816356Y-5534304D01*
X-845515Y-5531358D01*
X-874776Y-5530392D01*
X-904138Y-5531358D01*
X-933297Y-5534304D01*
X-962202Y-5539181D01*
X-990701Y-5545988D01*
X-1018692Y-5554675D01*
X-1046022Y-5565190D01*
X-1072642Y-5577535D01*
X-1098296Y-5591606D01*
X-1123035Y-5607405D01*
X-1146657Y-5624779D01*
X-1169060Y-5643727D01*
X-1190091Y-5664098D01*
X-1209751Y-5685840D01*
X-1227886Y-5708853D01*
X-1244549Y-5732983D01*
X-1259484Y-5758230D01*
X-1272692Y-5784392D01*
X-1284122Y-5811367D01*
X-1293672Y-5839053D01*
X-1301496Y-5867298D01*
X-1307338Y-5896051D01*
X-1311249Y-5925108D01*
X-1313180Y-5954369D01*
X-1313180Y-5983681D01*
X-1311249Y-6012891D01*
X-1307338Y-6041948D01*
X-1301496Y-6070701D01*
X-1293672Y-6098946D01*
X-1284122Y-6126632D01*
X-1272692Y-6153607D01*
X-1259484Y-6179769D01*
X-1244549Y-6205016D01*
X-1227886Y-6229146D01*
X-1209751Y-6252159D01*
X-1190091Y-6273901D01*
X-1169060Y-6294272D01*
X-1146657Y-6313220D01*
X-1123035Y-6330594D01*
X-1098296Y-6346393D01*
X-1072642Y-6360464D01*
X-1046022Y-6372809D01*
X-1018692Y-6383324D01*
X-990701Y-6392011D01*
X-962202Y-6398818D01*
X-933297Y-6403695D01*
X-904138Y-6406642D01*
G37*
G36*
X-2064359Y-6337300D02*
G01*
X-1966975Y-6337300D01*
X-1966975Y-6240068D01*
X-1975510Y-6241135D01*
X-1989226Y-6244742D01*
X-2002434Y-6250076D01*
X-2014829Y-6257086D01*
X-2026208Y-6265570D01*
X-2036368Y-6275425D01*
X-2045258Y-6286550D01*
X-2052624Y-6298692D01*
X-2058365Y-6311696D01*
X-2062429Y-6325311D01*
G37*
G36*
X-1941575Y-6337300D02*
G01*
X-1844293Y-6337300D01*
X-1846224Y-6325311D01*
X-1850288Y-6311696D01*
X-1855978Y-6298692D01*
X-1863343Y-6286550D01*
X-1872183Y-6275425D01*
X-1882393Y-6265570D01*
X-1893824Y-6257086D01*
X-1906219Y-6250076D01*
X-1919376Y-6244742D01*
X-1933092Y-6241135D01*
X-1941575Y-6240068D01*
G37*
G36*
X-33172Y-6337300D02*
G01*
X65024Y-6337300D01*
X65024Y-6239103D01*
X-6756Y-6239103D01*
X-13106Y-6239814D01*
X-18542Y-6241694D01*
X-23418Y-6244793D01*
X-27533Y-6248908D01*
X-30581Y-6253784D01*
X-32512Y-6259271D01*
X-33172Y-6265570D01*
G37*
G36*
X90424Y-6337300D02*
G01*
X188620Y-6337300D01*
X188620Y-6265570D01*
X187858Y-6259271D01*
X185928Y-6253784D01*
X182930Y-6248908D01*
X178765Y-6244793D01*
X173888Y-6241694D01*
X168402Y-6239814D01*
X162102Y-6239103D01*
X90424Y-6239103D01*
G37*
G36*
X77724Y-6206896D02*
G01*
X91897Y-6205982D01*
X105816Y-6203238D01*
X119329Y-6198768D01*
X132130Y-6192621D01*
X143967Y-6184849D01*
X154787Y-6175654D01*
X164338Y-6165138D01*
X172516Y-6153505D01*
X179070Y-6140907D01*
X183946Y-6127546D01*
X187147Y-6113678D01*
X188518Y-6099556D01*
X188061Y-6085332D01*
X185775Y-6071311D01*
X181711Y-6057696D01*
X176022Y-6044692D01*
X168656Y-6032550D01*
X159816Y-6021425D01*
X149606Y-6011570D01*
X138176Y-6003086D01*
X125780Y-5996076D01*
X112623Y-5990742D01*
X98907Y-5987135D01*
X84785Y-5985357D01*
X70561Y-5985357D01*
X56489Y-5987135D01*
X42722Y-5990742D01*
X29565Y-5996076D01*
X17170Y-6003086D01*
X5791Y-6011570D01*
X-4368Y-6021425D01*
X-13258Y-6032550D01*
X-20624Y-6044692D01*
X-26365Y-6057696D01*
X-30429Y-6071311D01*
X-32715Y-6085332D01*
X-33172Y-6099556D01*
X-31800Y-6113678D01*
X-28651Y-6127546D01*
X-23672Y-6140907D01*
X-17170Y-6153505D01*
X-9042Y-6165138D01*
X508Y-6175654D01*
X11379Y-6184849D01*
X23266Y-6192621D01*
X36068Y-6198768D01*
X49580Y-6203238D01*
X63550Y-6205982D01*
G37*
G36*
X-1941575Y-6206083D02*
G01*
X-1940102Y-6205982D01*
X-1926183Y-6203238D01*
X-1912670Y-6198768D01*
X-1899869Y-6192621D01*
X-1888032Y-6184849D01*
X-1877212Y-6175654D01*
X-1867662Y-6165138D01*
X-1859483Y-6153505D01*
X-1852930Y-6140907D01*
X-1848053Y-6127546D01*
X-1844852Y-6113678D01*
X-1844395Y-6108700D01*
X-1941575Y-6108700D01*
G37*
G36*
X-1966975Y-6206083D02*
G01*
X-1966975Y-6108700D01*
X-2064257Y-6108700D01*
X-2063800Y-6113678D01*
X-2060651Y-6127546D01*
X-2055672Y-6140907D01*
X-2049170Y-6153505D01*
X-2041042Y-6165138D01*
X-2031492Y-6175654D01*
X-2020620Y-6184849D01*
X-2008733Y-6192621D01*
X-1995932Y-6198768D01*
X-1982419Y-6203238D01*
X-1968449Y-6205982D01*
G37*
G36*
X-1941575Y-6083300D02*
G01*
X-1844293Y-6083300D01*
X-1846224Y-6071311D01*
X-1850288Y-6057696D01*
X-1855978Y-6044692D01*
X-1863343Y-6032550D01*
X-1872183Y-6021425D01*
X-1882393Y-6011570D01*
X-1893824Y-6003086D01*
X-1906219Y-5996076D01*
X-1919376Y-5990742D01*
X-1933092Y-5987135D01*
X-1941575Y-5986068D01*
G37*
G36*
X-2064359Y-6083300D02*
G01*
X-1966975Y-6083300D01*
X-1966975Y-5986068D01*
X-1975510Y-5987135D01*
X-1989226Y-5990742D01*
X-2002434Y-5996076D01*
X-2014829Y-6003086D01*
X-2026208Y-6011570D01*
X-2036368Y-6021425D01*
X-2045258Y-6032550D01*
X-2052624Y-6044692D01*
X-2058365Y-6057696D01*
X-2062429Y-6071311D01*
G37*
G36*
X77724Y-5952896D02*
G01*
X91897Y-5951982D01*
X105816Y-5949238D01*
X119329Y-5944768D01*
X132130Y-5938621D01*
X143967Y-5930849D01*
X154787Y-5921654D01*
X164338Y-5911138D01*
X172516Y-5899505D01*
X179070Y-5886907D01*
X183946Y-5873546D01*
X187147Y-5859678D01*
X188518Y-5845556D01*
X188061Y-5831332D01*
X185775Y-5817311D01*
X181711Y-5803696D01*
X176022Y-5790692D01*
X168656Y-5778550D01*
X159816Y-5767425D01*
X149606Y-5757570D01*
X138176Y-5749086D01*
X125780Y-5742076D01*
X112623Y-5736742D01*
X98907Y-5733135D01*
X84785Y-5731357D01*
X70561Y-5731357D01*
X56489Y-5733135D01*
X42722Y-5736742D01*
X29565Y-5742076D01*
X17170Y-5749086D01*
X5791Y-5757570D01*
X-4368Y-5767425D01*
X-13258Y-5778550D01*
X-20624Y-5790692D01*
X-26365Y-5803696D01*
X-30429Y-5817311D01*
X-32715Y-5831332D01*
X-33172Y-5845556D01*
X-31800Y-5859678D01*
X-28651Y-5873546D01*
X-23672Y-5886907D01*
X-17170Y-5899505D01*
X-9042Y-5911138D01*
X508Y-5921654D01*
X11379Y-5930849D01*
X23266Y-5938621D01*
X36068Y-5944768D01*
X49580Y-5949238D01*
X63550Y-5951982D01*
G37*
G36*
X-1954275Y-5952896D02*
G01*
X-1940102Y-5951982D01*
X-1926183Y-5949238D01*
X-1912670Y-5944768D01*
X-1899869Y-5938621D01*
X-1888032Y-5930849D01*
X-1877212Y-5921654D01*
X-1867662Y-5911138D01*
X-1859483Y-5899505D01*
X-1852930Y-5886907D01*
X-1848053Y-5873546D01*
X-1844852Y-5859678D01*
X-1843481Y-5845556D01*
X-1843938Y-5831332D01*
X-1846224Y-5817311D01*
X-1850288Y-5803696D01*
X-1855978Y-5790692D01*
X-1863343Y-5778550D01*
X-1872183Y-5767425D01*
X-1882393Y-5757570D01*
X-1893824Y-5749086D01*
X-1906219Y-5742076D01*
X-1919376Y-5736742D01*
X-1933092Y-5733135D01*
X-1947214Y-5731357D01*
X-1961438Y-5731357D01*
X-1975510Y-5733135D01*
X-1989226Y-5736742D01*
X-2002434Y-5742076D01*
X-2014829Y-5749086D01*
X-2026208Y-5757570D01*
X-2036368Y-5767425D01*
X-2045258Y-5778550D01*
X-2052624Y-5790692D01*
X-2058365Y-5803696D01*
X-2062429Y-5817311D01*
X-2064715Y-5831332D01*
X-2065172Y-5845556D01*
X-2063800Y-5859678D01*
X-2060651Y-5873546D01*
X-2055672Y-5886907D01*
X-2049170Y-5899505D01*
X-2041042Y-5911138D01*
X-2031492Y-5921654D01*
X-2020620Y-5930849D01*
X-2008733Y-5938621D01*
X-1995932Y-5944768D01*
X-1982419Y-5949238D01*
X-1968449Y-5951982D01*
G37*
G36*
X77724Y-5698896D02*
G01*
X91897Y-5697982D01*
X105816Y-5695238D01*
X119329Y-5690768D01*
X132130Y-5684621D01*
X143967Y-5676849D01*
X154787Y-5667654D01*
X164338Y-5657138D01*
X172516Y-5645505D01*
X179070Y-5632907D01*
X183946Y-5619546D01*
X187147Y-5605678D01*
X188518Y-5591556D01*
X188061Y-5577332D01*
X185775Y-5563311D01*
X181711Y-5549696D01*
X176022Y-5536692D01*
X168656Y-5524550D01*
X159816Y-5513425D01*
X149606Y-5503570D01*
X138176Y-5495086D01*
X125780Y-5488076D01*
X112623Y-5482742D01*
X98907Y-5479135D01*
X84785Y-5477357D01*
X70561Y-5477357D01*
X56489Y-5479135D01*
X42722Y-5482742D01*
X29565Y-5488076D01*
X17170Y-5495086D01*
X5791Y-5503570D01*
X-4368Y-5513425D01*
X-13258Y-5524550D01*
X-20624Y-5536692D01*
X-26365Y-5549696D01*
X-30429Y-5563311D01*
X-32715Y-5577332D01*
X-33172Y-5591556D01*
X-31800Y-5605678D01*
X-28651Y-5619546D01*
X-23672Y-5632907D01*
X-17170Y-5645505D01*
X-9042Y-5657138D01*
X508Y-5667654D01*
X11379Y-5676849D01*
X23266Y-5684621D01*
X36068Y-5690768D01*
X49580Y-5695238D01*
X63550Y-5697982D01*
G37*
G36*
X-1941575Y-5698083D02*
G01*
X-1940102Y-5697982D01*
X-1926183Y-5695238D01*
X-1912670Y-5690768D01*
X-1899869Y-5684621D01*
X-1888032Y-5676849D01*
X-1877212Y-5667654D01*
X-1867662Y-5657138D01*
X-1859483Y-5645505D01*
X-1852930Y-5632907D01*
X-1848053Y-5619546D01*
X-1844852Y-5605678D01*
X-1844395Y-5600700D01*
X-1941575Y-5600700D01*
G37*
G36*
X-1966975Y-5698083D02*
G01*
X-1966975Y-5600700D01*
X-2064257Y-5600700D01*
X-2063800Y-5605678D01*
X-2060651Y-5619546D01*
X-2055672Y-5632907D01*
X-2049170Y-5645505D01*
X-2041042Y-5657138D01*
X-2031492Y-5667654D01*
X-2020620Y-5676849D01*
X-2008733Y-5684621D01*
X-1995932Y-5690768D01*
X-1982419Y-5695238D01*
X-1968449Y-5697982D01*
G37*
G36*
X-1941575Y-5575300D02*
G01*
X-1844293Y-5575300D01*
X-1846224Y-5563311D01*
X-1850288Y-5549696D01*
X-1855978Y-5536692D01*
X-1863343Y-5524550D01*
X-1872183Y-5513425D01*
X-1882393Y-5503570D01*
X-1893824Y-5495086D01*
X-1906219Y-5488076D01*
X-1919376Y-5482742D01*
X-1933092Y-5479135D01*
X-1941575Y-5478068D01*
G37*
G36*
X-2064359Y-5575300D02*
G01*
X-1966975Y-5575300D01*
X-1966975Y-5478068D01*
X-1975510Y-5479135D01*
X-1989226Y-5482742D01*
X-2002434Y-5488076D01*
X-2014829Y-5495086D01*
X-2026208Y-5503570D01*
X-2036368Y-5513425D01*
X-2045258Y-5524550D01*
X-2052624Y-5536692D01*
X-2058365Y-5549696D01*
X-2062429Y-5563311D01*
G37*
G36*
X-312013Y-4831537D02*
G01*
X-302260Y-4830673D01*
X-292760Y-4828133D01*
X-283870Y-4824018D01*
X-275742Y-4818380D01*
X-268884Y-4811420D01*
X-263245Y-4803394D01*
X-259079Y-4794453D01*
X-256540Y-4785004D01*
X-255676Y-4775200D01*
X-256540Y-4765395D01*
X-259079Y-4755946D01*
X-263245Y-4747006D01*
X-268833Y-4739030D01*
X-276758Y-4731207D01*
X-278993Y-4727905D01*
X-279704Y-4723993D01*
X-279704Y-4619040D01*
X-278892Y-4614976D01*
X-276504Y-4611573D01*
X-272897Y-4609439D01*
X-270510Y-4608626D01*
X-257810Y-4602378D01*
X-246024Y-4594504D01*
X-235356Y-4585157D01*
X-225958Y-4574489D01*
X-218135Y-4562703D01*
X-211886Y-4549952D01*
X-207314Y-4536541D01*
X-204520Y-4522622D01*
X-203606Y-4508500D01*
X-204520Y-4494377D01*
X-207314Y-4480458D01*
X-211886Y-4467047D01*
X-218135Y-4454296D01*
X-225958Y-4442510D01*
X-235356Y-4431842D01*
X-246024Y-4422495D01*
X-257810Y-4414621D01*
X-270510Y-4408373D01*
X-283972Y-4403801D01*
X-297840Y-4401058D01*
X-305866Y-4400499D01*
X-309727Y-4399483D01*
X-312877Y-4397095D01*
X-314858Y-4393641D01*
X-315315Y-4389729D01*
X-314299Y-4385868D01*
X-311912Y-4382719D01*
X-308457Y-4380738D01*
X-306374Y-4380026D01*
X-293624Y-4373778D01*
X-281838Y-4365904D01*
X-271170Y-4356557D01*
X-261772Y-4345889D01*
X-253949Y-4334103D01*
X-247700Y-4321352D01*
X-243078Y-4307941D01*
X-240233Y-4292600D01*
X-335127Y-4292600D01*
X-335127Y-4394860D01*
X-335940Y-4398924D01*
X-338429Y-4402328D01*
X-342036Y-4404461D01*
X-347065Y-4406188D01*
X-349402Y-4406493D01*
X-366217Y-4414621D01*
X-378002Y-4422495D01*
X-388670Y-4431842D01*
X-397967Y-4442510D01*
X-405892Y-4454296D01*
X-412140Y-4467047D01*
X-416712Y-4480458D01*
X-419404Y-4494377D01*
X-420420Y-4508500D01*
X-419404Y-4522622D01*
X-416712Y-4536541D01*
X-412140Y-4549952D01*
X-405892Y-4562703D01*
X-397967Y-4574489D01*
X-388670Y-4585157D01*
X-378002Y-4594504D01*
X-366217Y-4602378D01*
X-353415Y-4608626D01*
X-351129Y-4609439D01*
X-347522Y-4611522D01*
X-345135Y-4614926D01*
X-344220Y-4619040D01*
X-344220Y-4723942D01*
X-345084Y-4727905D01*
X-347268Y-4731207D01*
X-355244Y-4739030D01*
X-360781Y-4747006D01*
X-364998Y-4755946D01*
X-367538Y-4765395D01*
X-368401Y-4775200D01*
X-367538Y-4785004D01*
X-364998Y-4794453D01*
X-360781Y-4803394D01*
X-355193Y-4811420D01*
X-348284Y-4818380D01*
X-340207Y-4824018D01*
X-331317Y-4828133D01*
X-321767Y-4830673D01*
G37*
G36*
X-1744827Y-4743907D02*
G01*
X-1730705Y-4742942D01*
X-1716735Y-4740198D01*
X-1703374Y-4735626D01*
X-1690624Y-4729378D01*
X-1678838Y-4721504D01*
X-1668170Y-4712157D01*
X-1658772Y-4701489D01*
X-1650949Y-4689703D01*
X-1644700Y-4676952D01*
X-1640078Y-4663541D01*
X-1637385Y-4649622D01*
X-1636420Y-4635500D01*
X-1637385Y-4621377D01*
X-1640078Y-4607458D01*
X-1644700Y-4594047D01*
X-1650949Y-4581296D01*
X-1658772Y-4569510D01*
X-1668170Y-4558842D01*
X-1678838Y-4549495D01*
X-1690624Y-4541621D01*
X-1703374Y-4535373D01*
X-1716735Y-4530801D01*
X-1730705Y-4528058D01*
X-1744827Y-4527092D01*
X-1758899Y-4528058D01*
X-1772869Y-4530801D01*
X-1786229Y-4535373D01*
X-1799031Y-4541621D01*
X-1810816Y-4549495D01*
X-1821484Y-4558842D01*
X-1830832Y-4569510D01*
X-1838706Y-4581296D01*
X-1844954Y-4594047D01*
X-1849526Y-4607458D01*
X-1852218Y-4621377D01*
X-1853234Y-4635500D01*
X-1852218Y-4649622D01*
X-1849526Y-4663541D01*
X-1844954Y-4676952D01*
X-1838706Y-4689703D01*
X-1830832Y-4701489D01*
X-1821484Y-4712157D01*
X-1810816Y-4721504D01*
X-1799031Y-4729378D01*
X-1786229Y-4735626D01*
X-1772869Y-4740198D01*
X-1758899Y-4742942D01*
G37*
G36*
X33172Y-4743907D02*
G01*
X47294Y-4742942D01*
X61264Y-4740198D01*
X74625Y-4735626D01*
X87376Y-4729378D01*
X99161Y-4721504D01*
X109829Y-4712157D01*
X119227Y-4701489D01*
X127050Y-4689703D01*
X133299Y-4676952D01*
X137922Y-4663541D01*
X140614Y-4649622D01*
X141579Y-4635500D01*
X140614Y-4621377D01*
X137922Y-4607458D01*
X133299Y-4594047D01*
X127050Y-4581296D01*
X119227Y-4569510D01*
X109829Y-4558842D01*
X99161Y-4549495D01*
X87376Y-4541621D01*
X74625Y-4535373D01*
X61264Y-4530801D01*
X47294Y-4528058D01*
X33172Y-4527092D01*
X19100Y-4528058D01*
X5130Y-4530801D01*
X-8229Y-4535373D01*
X-21031Y-4541621D01*
X-32816Y-4549495D01*
X-43484Y-4558842D01*
X-52832Y-4569510D01*
X-60706Y-4581296D01*
X-66954Y-4594047D01*
X-71526Y-4607458D01*
X-74218Y-4621377D01*
X-75234Y-4635500D01*
X-74218Y-4649622D01*
X-71526Y-4663541D01*
X-66954Y-4676952D01*
X-60706Y-4689703D01*
X-52832Y-4701489D01*
X-43484Y-4712157D01*
X-32816Y-4721504D01*
X-21031Y-4729378D01*
X-8229Y-4735626D01*
X5130Y-4740198D01*
X19100Y-4742942D01*
G37*
G36*
X-1440027Y-4616907D02*
G01*
X-1425905Y-4615942D01*
X-1411935Y-4613198D01*
X-1398574Y-4608626D01*
X-1385824Y-4602378D01*
X-1374038Y-4594504D01*
X-1363370Y-4585157D01*
X-1353972Y-4574489D01*
X-1346149Y-4562703D01*
X-1339900Y-4549952D01*
X-1335278Y-4536541D01*
X-1332585Y-4522622D01*
X-1331620Y-4508500D01*
X-1332585Y-4494377D01*
X-1335278Y-4480458D01*
X-1339900Y-4467047D01*
X-1346149Y-4454296D01*
X-1353972Y-4442510D01*
X-1363370Y-4431842D01*
X-1374038Y-4422495D01*
X-1385824Y-4414621D01*
X-1394815Y-4410202D01*
X-1398320Y-4407408D01*
X-1399133Y-4405782D01*
X-1401927Y-4406442D01*
X-1405686Y-4405934D01*
X-1410766Y-4404207D01*
X-1414322Y-4402074D01*
X-1416812Y-4398670D01*
X-1417675Y-4394606D01*
X-1417675Y-4296156D01*
X-1512519Y-4296156D01*
X-1512417Y-4297578D01*
X-1509674Y-4311497D01*
X-1505102Y-4324908D01*
X-1498854Y-4337659D01*
X-1490980Y-4349445D01*
X-1481632Y-4360113D01*
X-1470964Y-4369460D01*
X-1459179Y-4377334D01*
X-1450136Y-4381754D01*
X-1446631Y-4384548D01*
X-1444701Y-4388459D01*
X-1444599Y-4392879D01*
X-1446428Y-4396892D01*
X-1449679Y-4399788D01*
X-1454099Y-4401058D01*
X-1468069Y-4403801D01*
X-1481429Y-4408373D01*
X-1494231Y-4414621D01*
X-1506016Y-4422495D01*
X-1516684Y-4431842D01*
X-1526032Y-4442510D01*
X-1533906Y-4454296D01*
X-1540154Y-4467047D01*
X-1544726Y-4480458D01*
X-1547418Y-4494377D01*
X-1548434Y-4508500D01*
X-1547418Y-4522622D01*
X-1544726Y-4536541D01*
X-1540154Y-4549952D01*
X-1533906Y-4562703D01*
X-1526032Y-4574489D01*
X-1516684Y-4585157D01*
X-1506016Y-4594504D01*
X-1494231Y-4602378D01*
X-1481429Y-4608626D01*
X-1468069Y-4613198D01*
X-1454099Y-4615942D01*
G37*
G36*
X337972Y-4616907D02*
G01*
X352094Y-4615942D01*
X366064Y-4613198D01*
X379425Y-4608626D01*
X392176Y-4602378D01*
X403961Y-4594504D01*
X414629Y-4585157D01*
X424027Y-4574489D01*
X431850Y-4562703D01*
X438099Y-4549952D01*
X442722Y-4536541D01*
X445414Y-4522622D01*
X446379Y-4508500D01*
X445414Y-4494377D01*
X442722Y-4480458D01*
X438099Y-4467047D01*
X431850Y-4454296D01*
X424027Y-4442510D01*
X414629Y-4431842D01*
X403961Y-4422495D01*
X392176Y-4414621D01*
X383184Y-4410202D01*
X379679Y-4407408D01*
X378866Y-4405782D01*
X376072Y-4406442D01*
X372313Y-4405934D01*
X367233Y-4404207D01*
X363677Y-4402074D01*
X361188Y-4398670D01*
X360324Y-4394606D01*
X360324Y-4296156D01*
X265480Y-4296156D01*
X265582Y-4297578D01*
X268325Y-4311497D01*
X272897Y-4324908D01*
X279146Y-4337659D01*
X287020Y-4349445D01*
X296367Y-4360113D01*
X307035Y-4369460D01*
X318820Y-4377334D01*
X327863Y-4381754D01*
X331368Y-4384548D01*
X333298Y-4388459D01*
X333400Y-4392879D01*
X331571Y-4396892D01*
X328320Y-4399788D01*
X323900Y-4401058D01*
X309930Y-4403801D01*
X296570Y-4408373D01*
X283768Y-4414621D01*
X271983Y-4422495D01*
X261315Y-4431842D01*
X251967Y-4442510D01*
X244094Y-4454296D01*
X237845Y-4467047D01*
X233273Y-4480458D01*
X230581Y-4494377D01*
X229565Y-4508500D01*
X230581Y-4522622D01*
X233273Y-4536541D01*
X237845Y-4549952D01*
X244094Y-4562703D01*
X251967Y-4574489D01*
X261315Y-4585157D01*
X271983Y-4594504D01*
X283768Y-4602378D01*
X296570Y-4608626D01*
X309930Y-4613198D01*
X323900Y-4615942D01*
G37*
G36*
X-2090013Y-4616907D02*
G01*
X-2075840Y-4615942D01*
X-2061972Y-4613198D01*
X-2048510Y-4608626D01*
X-2035810Y-4602378D01*
X-2024024Y-4594504D01*
X-2013356Y-4585157D01*
X-2003958Y-4574489D01*
X-1996135Y-4562703D01*
X-1989886Y-4549952D01*
X-1985314Y-4536541D01*
X-1982520Y-4522622D01*
X-1981606Y-4508500D01*
X-1982520Y-4494377D01*
X-1985314Y-4480458D01*
X-1989886Y-4467047D01*
X-1996135Y-4454296D01*
X-2003958Y-4442510D01*
X-2013356Y-4431842D01*
X-2024024Y-4422495D01*
X-2035810Y-4414621D01*
X-2048510Y-4408373D01*
X-2061972Y-4403801D01*
X-2075840Y-4401058D01*
X-2083866Y-4400499D01*
X-2087727Y-4399483D01*
X-2090826Y-4397095D01*
X-2092858Y-4393641D01*
X-2093315Y-4389729D01*
X-2092299Y-4385868D01*
X-2089912Y-4382719D01*
X-2086457Y-4380738D01*
X-2084374Y-4380026D01*
X-2071624Y-4373778D01*
X-2059838Y-4365904D01*
X-2049170Y-4356557D01*
X-2039772Y-4345889D01*
X-2031949Y-4334103D01*
X-2025700Y-4321352D01*
X-2021078Y-4307941D01*
X-2018233Y-4292600D01*
X-2113127Y-4292600D01*
X-2113127Y-4394860D01*
X-2113940Y-4398924D01*
X-2116429Y-4402328D01*
X-2120036Y-4404461D01*
X-2125065Y-4406188D01*
X-2127402Y-4406493D01*
X-2144217Y-4414621D01*
X-2156002Y-4422495D01*
X-2166670Y-4431842D01*
X-2175967Y-4442510D01*
X-2183892Y-4454296D01*
X-2190140Y-4467047D01*
X-2194712Y-4480458D01*
X-2197404Y-4494377D01*
X-2198420Y-4508500D01*
X-2197404Y-4522622D01*
X-2194712Y-4536541D01*
X-2190140Y-4549952D01*
X-2183892Y-4562703D01*
X-2175967Y-4574489D01*
X-2166670Y-4585157D01*
X-2156002Y-4594504D01*
X-2144217Y-4602378D01*
X-2131415Y-4608626D01*
X-2118055Y-4613198D01*
X-2104085Y-4615942D01*
G37*
G36*
X385724Y-4391304D02*
G01*
X401116Y-4388154D01*
X414477Y-4383582D01*
X427228Y-4377334D01*
X439013Y-4369460D01*
X449681Y-4360113D01*
X459028Y-4349445D01*
X466902Y-4337659D01*
X473151Y-4324908D01*
X477774Y-4311497D01*
X480466Y-4297578D01*
X480568Y-4296156D01*
X385724Y-4296156D01*
G37*
G36*
X-1392275Y-4391304D02*
G01*
X-1376883Y-4388154D01*
X-1363522Y-4383582D01*
X-1350772Y-4377334D01*
X-1338986Y-4369460D01*
X-1328318Y-4360113D01*
X-1318971Y-4349445D01*
X-1311097Y-4337659D01*
X-1304848Y-4324908D01*
X-1300226Y-4311497D01*
X-1297533Y-4297578D01*
X-1297432Y-4296156D01*
X-1392275Y-4296156D01*
G37*
G36*
X-2138527Y-4387443D02*
G01*
X-2138527Y-4292600D01*
X-2233371Y-4292600D01*
X-2230526Y-4307941D01*
X-2225954Y-4321352D01*
X-2219706Y-4334103D01*
X-2211832Y-4345889D01*
X-2202484Y-4356557D01*
X-2191816Y-4365904D01*
X-2180031Y-4373778D01*
X-2167229Y-4380026D01*
X-2153869Y-4384598D01*
X-2139899Y-4387342D01*
G37*
G36*
X-360527Y-4387443D02*
G01*
X-360527Y-4292600D01*
X-455371Y-4292600D01*
X-452526Y-4307941D01*
X-447954Y-4321352D01*
X-441706Y-4334103D01*
X-433832Y-4345889D01*
X-424484Y-4356557D01*
X-413816Y-4365904D01*
X-402031Y-4373778D01*
X-389229Y-4380026D01*
X-375869Y-4384598D01*
X-361899Y-4387342D01*
G37*
G36*
X-1392275Y-4270756D02*
G01*
X-1297432Y-4270756D01*
X-1297533Y-4269333D01*
X-1300226Y-4255414D01*
X-1304848Y-4242003D01*
X-1311097Y-4229252D01*
X-1318971Y-4217466D01*
X-1328318Y-4206798D01*
X-1338986Y-4197451D01*
X-1350772Y-4189577D01*
X-1363522Y-4183329D01*
X-1376883Y-4178757D01*
X-1392275Y-4175607D01*
G37*
G36*
X385724Y-4270756D02*
G01*
X480568Y-4270756D01*
X480466Y-4269333D01*
X477774Y-4255414D01*
X473151Y-4242003D01*
X466902Y-4229252D01*
X459028Y-4217466D01*
X449681Y-4206798D01*
X439013Y-4197451D01*
X427228Y-4189577D01*
X414477Y-4183329D01*
X401116Y-4178757D01*
X385724Y-4175607D01*
G37*
G36*
X-1512519Y-4270756D02*
G01*
X-1417675Y-4270756D01*
X-1417675Y-4165041D01*
X-1416913Y-4161180D01*
X-1414678Y-4157878D01*
X-1411427Y-4155694D01*
X-1407515Y-4154881D01*
X-1402435Y-4154881D01*
X-1398524Y-4155694D01*
X-1395831Y-4157472D01*
X-1394815Y-4156710D01*
X-1385824Y-4152290D01*
X-1374038Y-4144416D01*
X-1363370Y-4135069D01*
X-1353972Y-4124401D01*
X-1346149Y-4112615D01*
X-1339900Y-4099864D01*
X-1335278Y-4086453D01*
X-1332433Y-4071112D01*
X-1427327Y-4071112D01*
X-1427327Y-4176826D01*
X-1428038Y-4180687D01*
X-1430324Y-4183989D01*
X-1433576Y-4186224D01*
X-1437436Y-4186986D01*
X-1442567Y-4186986D01*
X-1446479Y-4186224D01*
X-1449120Y-4184396D01*
X-1450136Y-4185158D01*
X-1459179Y-4189577D01*
X-1470964Y-4197451D01*
X-1481632Y-4206798D01*
X-1490980Y-4217466D01*
X-1498854Y-4229252D01*
X-1505102Y-4242003D01*
X-1509674Y-4255414D01*
X-1512417Y-4269333D01*
G37*
G36*
X265480Y-4270756D02*
G01*
X360324Y-4270756D01*
X360324Y-4165041D01*
X361086Y-4161180D01*
X363321Y-4157878D01*
X366572Y-4155694D01*
X370484Y-4154881D01*
X375564Y-4154881D01*
X379476Y-4155694D01*
X382168Y-4157472D01*
X383184Y-4156710D01*
X392176Y-4152290D01*
X403961Y-4144416D01*
X414629Y-4135069D01*
X424027Y-4124401D01*
X431850Y-4112615D01*
X438099Y-4099864D01*
X442722Y-4086453D01*
X445566Y-4071112D01*
X350672Y-4071112D01*
X350672Y-4176826D01*
X349961Y-4180687D01*
X347675Y-4183989D01*
X344424Y-4186224D01*
X340563Y-4186986D01*
X335432Y-4186986D01*
X331520Y-4186224D01*
X328879Y-4184396D01*
X327863Y-4185158D01*
X318820Y-4189577D01*
X307035Y-4197451D01*
X296367Y-4206798D01*
X287020Y-4217466D01*
X279146Y-4229252D01*
X272897Y-4242003D01*
X268325Y-4255414D01*
X265582Y-4269333D01*
G37*
G36*
X-455371Y-4267200D02*
G01*
X-360527Y-4267200D01*
X-360527Y-4170527D01*
X-361340Y-4171442D01*
X-365201Y-4173067D01*
X-375869Y-4175201D01*
X-389229Y-4179773D01*
X-402031Y-4186021D01*
X-413816Y-4193895D01*
X-424484Y-4203242D01*
X-433832Y-4213910D01*
X-441706Y-4225696D01*
X-447954Y-4238447D01*
X-452526Y-4251858D01*
G37*
G36*
X-2233371Y-4267200D02*
G01*
X-2138527Y-4267200D01*
X-2138527Y-4170527D01*
X-2139340Y-4171442D01*
X-2143201Y-4173067D01*
X-2153869Y-4175201D01*
X-2167229Y-4179773D01*
X-2180031Y-4186021D01*
X-2191816Y-4193895D01*
X-2202484Y-4203242D01*
X-2211832Y-4213910D01*
X-2219706Y-4225696D01*
X-2225954Y-4238447D01*
X-2230526Y-4251858D01*
G37*
G36*
X-2113127Y-4267200D02*
G01*
X-2018233Y-4267200D01*
X-2021078Y-4251858D01*
X-2025700Y-4238447D01*
X-2031949Y-4225696D01*
X-2039772Y-4213910D01*
X-2049170Y-4203242D01*
X-2059838Y-4193895D01*
X-2071624Y-4186021D01*
X-2075129Y-4184294D01*
X-2078431Y-4181703D01*
X-2080412Y-4178046D01*
X-2080717Y-4173880D01*
X-2079345Y-4169918D01*
X-2076500Y-4166870D01*
X-2072639Y-4165244D01*
X-2061972Y-4163110D01*
X-2048510Y-4158538D01*
X-2035810Y-4152290D01*
X-2024024Y-4144416D01*
X-2013356Y-4135069D01*
X-2003958Y-4124401D01*
X-1996135Y-4112615D01*
X-1989886Y-4099864D01*
X-1985314Y-4086453D01*
X-1982520Y-4072534D01*
X-1981606Y-4058412D01*
X-1982520Y-4044289D01*
X-1985314Y-4030370D01*
X-1989886Y-4016959D01*
X-1996135Y-4004208D01*
X-2003958Y-3992422D01*
X-2013356Y-3981754D01*
X-2024024Y-3972407D01*
X-2035810Y-3964533D01*
X-2048510Y-3958285D01*
X-2061972Y-3953713D01*
X-2075840Y-3950970D01*
X-2090013Y-3950004D01*
X-2104085Y-3950970D01*
X-2118055Y-3953713D01*
X-2131415Y-3958285D01*
X-2144217Y-3964533D01*
X-2156002Y-3972407D01*
X-2166670Y-3981754D01*
X-2175967Y-3992422D01*
X-2183892Y-4004208D01*
X-2190140Y-4016959D01*
X-2194712Y-4030370D01*
X-2197404Y-4044289D01*
X-2198420Y-4058412D01*
X-2197404Y-4072534D01*
X-2194712Y-4086453D01*
X-2190140Y-4099864D01*
X-2183892Y-4112615D01*
X-2175967Y-4124401D01*
X-2166670Y-4135069D01*
X-2156002Y-4144416D01*
X-2144217Y-4152290D01*
X-2140712Y-4154017D01*
X-2137410Y-4156608D01*
X-2135378Y-4160265D01*
X-2135225Y-4162958D01*
X-2132634Y-4161129D01*
X-2128875Y-4160215D01*
X-2125065Y-4160723D01*
X-2120036Y-4162450D01*
X-2116429Y-4164584D01*
X-2113940Y-4167987D01*
X-2113127Y-4172051D01*
G37*
G36*
X-335127Y-4267200D02*
G01*
X-240233Y-4267200D01*
X-243078Y-4251858D01*
X-247700Y-4238447D01*
X-253949Y-4225696D01*
X-261772Y-4213910D01*
X-271170Y-4203242D01*
X-281838Y-4193895D01*
X-293624Y-4186021D01*
X-297129Y-4184294D01*
X-300431Y-4181703D01*
X-302412Y-4178046D01*
X-302717Y-4173880D01*
X-301345Y-4169918D01*
X-298500Y-4166870D01*
X-294640Y-4165244D01*
X-283972Y-4163110D01*
X-270510Y-4158538D01*
X-257810Y-4152290D01*
X-246024Y-4144416D01*
X-235356Y-4135069D01*
X-225958Y-4124401D01*
X-218135Y-4112615D01*
X-211886Y-4099864D01*
X-207314Y-4086453D01*
X-204520Y-4072534D01*
X-203606Y-4058412D01*
X-204520Y-4044289D01*
X-207314Y-4030370D01*
X-211886Y-4016959D01*
X-218135Y-4004208D01*
X-225958Y-3992422D01*
X-235356Y-3981754D01*
X-246024Y-3972407D01*
X-257810Y-3964533D01*
X-270510Y-3958285D01*
X-283972Y-3953713D01*
X-297840Y-3950970D01*
X-312013Y-3950004D01*
X-326085Y-3950970D01*
X-340055Y-3953713D01*
X-353415Y-3958285D01*
X-366217Y-3964533D01*
X-378002Y-3972407D01*
X-388670Y-3981754D01*
X-397967Y-3992422D01*
X-405892Y-4004208D01*
X-412140Y-4016959D01*
X-416712Y-4030370D01*
X-419404Y-4044289D01*
X-420420Y-4058412D01*
X-419404Y-4072534D01*
X-416712Y-4086453D01*
X-412140Y-4099864D01*
X-405892Y-4112615D01*
X-397967Y-4124401D01*
X-388670Y-4135069D01*
X-378002Y-4144416D01*
X-366217Y-4152290D01*
X-362712Y-4154017D01*
X-359410Y-4156608D01*
X-357378Y-4160265D01*
X-357225Y-4162958D01*
X-354634Y-4161129D01*
X-350875Y-4160215D01*
X-347065Y-4160723D01*
X-342036Y-4162450D01*
X-338429Y-4164584D01*
X-335940Y-4167987D01*
X-335127Y-4172051D01*
G37*
G36*
X-1452727Y-4166260D02*
G01*
X-1452727Y-4071112D01*
X-1547571Y-4071112D01*
X-1544726Y-4086453D01*
X-1540154Y-4099864D01*
X-1533906Y-4112615D01*
X-1526032Y-4124401D01*
X-1516684Y-4135069D01*
X-1506016Y-4144416D01*
X-1494231Y-4152290D01*
X-1481429Y-4158538D01*
X-1468069Y-4163110D01*
G37*
G36*
X325272Y-4166260D02*
G01*
X325272Y-4071112D01*
X230428Y-4071112D01*
X233273Y-4086453D01*
X237845Y-4099864D01*
X244094Y-4112615D01*
X251967Y-4124401D01*
X261315Y-4135069D01*
X271983Y-4144416D01*
X283768Y-4152290D01*
X296570Y-4158538D01*
X309930Y-4163110D01*
G37*
G36*
X-1547571Y-4045712D02*
G01*
X-1452727Y-4045712D01*
X-1452727Y-3950868D01*
X-1454099Y-3950970D01*
X-1468069Y-3953713D01*
X-1481429Y-3958285D01*
X-1494231Y-3964533D01*
X-1506016Y-3972407D01*
X-1516684Y-3981754D01*
X-1526032Y-3992422D01*
X-1533906Y-4004208D01*
X-1540154Y-4016959D01*
X-1544726Y-4030370D01*
G37*
G36*
X-1427327Y-4045712D02*
G01*
X-1332433Y-4045712D01*
X-1335278Y-4030370D01*
X-1339900Y-4016959D01*
X-1346149Y-4004208D01*
X-1353972Y-3992422D01*
X-1363370Y-3981754D01*
X-1374038Y-3972407D01*
X-1385824Y-3964533D01*
X-1398574Y-3958285D01*
X-1411935Y-3953713D01*
X-1425905Y-3950970D01*
X-1427327Y-3950868D01*
G37*
G36*
X230428Y-4045712D02*
G01*
X325272Y-4045712D01*
X325272Y-3950868D01*
X323900Y-3950970D01*
X309930Y-3953713D01*
X296570Y-3958285D01*
X283768Y-3964533D01*
X271983Y-3972407D01*
X261315Y-3981754D01*
X251967Y-3992422D01*
X244094Y-4004208D01*
X237845Y-4016959D01*
X233273Y-4030370D01*
G37*
G36*
X350672Y-4045712D02*
G01*
X445566Y-4045712D01*
X442722Y-4030370D01*
X438099Y-4016959D01*
X431850Y-4004208D01*
X424027Y-3992422D01*
X414629Y-3981754D01*
X403961Y-3972407D01*
X392176Y-3964533D01*
X379425Y-3958285D01*
X366064Y-3953713D01*
X352094Y-3950970D01*
X350672Y-3950868D01*
G37*
G36*
X-1764995Y-4031945D02*
G01*
X-1750872Y-4030979D01*
X-1736902Y-4028236D01*
X-1723542Y-4023664D01*
X-1710842Y-4017416D01*
X-1699056Y-4009542D01*
X-1688388Y-4000195D01*
X-1679041Y-3989527D01*
X-1671167Y-3977741D01*
X-1664868Y-3964990D01*
X-1660347Y-3951579D01*
X-1657553Y-3937660D01*
X-1656638Y-3923537D01*
X-1657553Y-3909415D01*
X-1660347Y-3895496D01*
X-1664868Y-3882085D01*
X-1671167Y-3869334D01*
X-1679041Y-3857548D01*
X-1688388Y-3846880D01*
X-1699056Y-3837533D01*
X-1710842Y-3829659D01*
X-1723542Y-3823411D01*
X-1736902Y-3818839D01*
X-1750872Y-3816096D01*
X-1764995Y-3815130D01*
X-1779168Y-3816096D01*
X-1793036Y-3818839D01*
X-1806498Y-3823411D01*
X-1819198Y-3829659D01*
X-1830984Y-3837533D01*
X-1841652Y-3846880D01*
X-1850999Y-3857548D01*
X-1858822Y-3869334D01*
X-1865172Y-3882085D01*
X-1869693Y-3895496D01*
X-1872488Y-3909415D01*
X-1873402Y-3923537D01*
X-1872488Y-3937660D01*
X-1869693Y-3951579D01*
X-1865172Y-3964990D01*
X-1858822Y-3977741D01*
X-1850999Y-3989527D01*
X-1841652Y-4000195D01*
X-1830984Y-4009542D01*
X-1819198Y-4017416D01*
X-1806498Y-4023664D01*
X-1793036Y-4028236D01*
X-1779168Y-4030979D01*
G37*
G36*
X13004Y-4031945D02*
G01*
X27127Y-4030979D01*
X41097Y-4028236D01*
X54457Y-4023664D01*
X67157Y-4017416D01*
X78943Y-4009542D01*
X89611Y-4000195D01*
X98958Y-3989527D01*
X106832Y-3977741D01*
X113131Y-3964990D01*
X117652Y-3951579D01*
X120446Y-3937660D01*
X121361Y-3923537D01*
X120446Y-3909415D01*
X117652Y-3895496D01*
X113131Y-3882085D01*
X106832Y-3869334D01*
X98958Y-3857548D01*
X89611Y-3846880D01*
X78943Y-3837533D01*
X67157Y-3829659D01*
X54457Y-3823411D01*
X41097Y-3818839D01*
X27127Y-3816096D01*
X13004Y-3815130D01*
X-1168Y-3816096D01*
X-15036Y-3818839D01*
X-28498Y-3823411D01*
X-41198Y-3829659D01*
X-52984Y-3837533D01*
X-63652Y-3846880D01*
X-72999Y-3857548D01*
X-80822Y-3869334D01*
X-87172Y-3882085D01*
X-91694Y-3895496D01*
X-94488Y-3909415D01*
X-95402Y-3923537D01*
X-94488Y-3937660D01*
X-91694Y-3951579D01*
X-87172Y-3964990D01*
X-80822Y-3977741D01*
X-72999Y-3989527D01*
X-63652Y-4000195D01*
X-52984Y-4009542D01*
X-41198Y-4017416D01*
X-28498Y-4023664D01*
X-15036Y-4028236D01*
X-1168Y-4030979D01*
G37*
G36*
X-881227Y3299917D02*
G01*
X-867105Y3300831D01*
X-853135Y3303625D01*
X-839774Y3308146D01*
X-827024Y3314446D01*
X-815238Y3322320D01*
X-804570Y3331667D01*
X-795172Y3342335D01*
X-787349Y3354120D01*
X-781100Y3366820D01*
X-776478Y3380232D01*
X-773785Y3394151D01*
X-772820Y3408273D01*
X-773785Y3422446D01*
X-776478Y3436365D01*
X-781100Y3449777D01*
X-787349Y3462477D01*
X-795172Y3474262D01*
X-804570Y3484930D01*
X-815238Y3494278D01*
X-827024Y3502151D01*
X-839774Y3508451D01*
X-853135Y3512972D01*
X-867105Y3515766D01*
X-881227Y3516680D01*
X-895299Y3515766D01*
X-909269Y3512972D01*
X-922629Y3508451D01*
X-935431Y3502151D01*
X-947216Y3494278D01*
X-957884Y3484930D01*
X-967232Y3474262D01*
X-975106Y3462477D01*
X-981354Y3449777D01*
X-981862Y3448253D01*
X-983996Y3444646D01*
X-987399Y3442208D01*
X-991463Y3441344D01*
X-1352042Y3441344D01*
X-1355902Y3442106D01*
X-1359204Y3444341D01*
X-1360779Y3445916D01*
X-1368856Y3451555D01*
X-1377696Y3455670D01*
X-1387195Y3458210D01*
X-1396949Y3459073D01*
X-1406804Y3458210D01*
X-1416304Y3455670D01*
X-1425194Y3451555D01*
X-1433271Y3445916D01*
X-1440180Y3438956D01*
X-1445818Y3430930D01*
X-1449984Y3421989D01*
X-1452524Y3412540D01*
X-1453388Y3402736D01*
X-1452524Y3392932D01*
X-1449984Y3383483D01*
X-1445818Y3374542D01*
X-1440180Y3366515D01*
X-1433271Y3359556D01*
X-1425194Y3353917D01*
X-1416304Y3349802D01*
X-1406804Y3347262D01*
X-1396949Y3346399D01*
X-1387195Y3347262D01*
X-1377696Y3349802D01*
X-1368856Y3353917D01*
X-1360779Y3359556D01*
X-1359204Y3361131D01*
X-1355902Y3363366D01*
X-1352042Y3364128D01*
X-986332Y3364128D01*
X-982624Y3363417D01*
X-979474Y3361436D01*
X-977188Y3358438D01*
X-975106Y3354120D01*
X-967232Y3342335D01*
X-957884Y3331667D01*
X-947216Y3322320D01*
X-935431Y3314446D01*
X-922629Y3308146D01*
X-909269Y3303625D01*
X-895299Y3300831D01*
G37*
G36*
X33172Y-3654196D02*
G01*
X104902Y-3654196D01*
X111201Y-3653485D01*
X116687Y-3651605D01*
X121564Y-3648506D01*
X125679Y-3644392D01*
X128778Y-3639515D01*
X130657Y-3634028D01*
X131368Y-3627729D01*
X131368Y-3556000D01*
X33172Y-3556000D01*
G37*
G36*
X-63906Y-3654196D02*
G01*
X7772Y-3654196D01*
X7772Y-3556000D01*
X-90424Y-3556000D01*
X-90424Y-3627729D01*
X-89662Y-3634028D01*
X-87833Y-3639515D01*
X-84734Y-3644392D01*
X-80568Y-3648506D01*
X-75692Y-3651605D01*
X-70256Y-3653485D01*
G37*
G36*
X-999083Y-3654145D02*
G01*
X-984859Y-3653688D01*
X-970838Y-3651402D01*
X-957224Y-3647389D01*
X-944168Y-3641598D01*
X-932078Y-3634232D01*
X-920953Y-3625392D01*
X-911098Y-3615182D01*
X-902563Y-3603802D01*
X-895603Y-3591407D01*
X-890219Y-3578250D01*
X-886663Y-3564483D01*
X-884885Y-3550412D01*
X-884885Y-3536187D01*
X-886663Y-3522116D01*
X-890219Y-3508349D01*
X-895603Y-3495192D01*
X-902563Y-3482797D01*
X-911098Y-3471418D01*
X-920953Y-3461207D01*
X-932078Y-3452368D01*
X-944168Y-3445001D01*
X-957224Y-3439261D01*
X-970838Y-3435197D01*
X-984859Y-3432911D01*
X-999083Y-3432454D01*
X-1013206Y-3433826D01*
X-1027074Y-3436975D01*
X-1040434Y-3441903D01*
X-1053033Y-3448456D01*
X-1064615Y-3456584D01*
X-1075182Y-3466134D01*
X-1084326Y-3476955D01*
X-1092149Y-3488893D01*
X-1098296Y-3501694D01*
X-1102715Y-3515156D01*
X-1105509Y-3529126D01*
X-1106424Y-3543300D01*
X-1105509Y-3557473D01*
X-1102715Y-3571443D01*
X-1098296Y-3584905D01*
X-1092149Y-3597706D01*
X-1084326Y-3609644D01*
X-1075182Y-3620465D01*
X-1064615Y-3630015D01*
X-1053033Y-3638143D01*
X-1040434Y-3644696D01*
X-1027074Y-3649624D01*
X-1013206Y-3652774D01*
G37*
G36*
X-1507083Y-3654145D02*
G01*
X-1492859Y-3653688D01*
X-1478838Y-3651402D01*
X-1465224Y-3647389D01*
X-1452168Y-3641598D01*
X-1440078Y-3634232D01*
X-1428953Y-3625392D01*
X-1419098Y-3615182D01*
X-1410563Y-3603802D01*
X-1403604Y-3591407D01*
X-1398219Y-3578250D01*
X-1394663Y-3564483D01*
X-1392885Y-3550412D01*
X-1392885Y-3536187D01*
X-1394663Y-3522116D01*
X-1398219Y-3508349D01*
X-1403604Y-3495192D01*
X-1410563Y-3482797D01*
X-1419098Y-3471418D01*
X-1428953Y-3461207D01*
X-1440078Y-3452368D01*
X-1452168Y-3445001D01*
X-1465224Y-3439261D01*
X-1478838Y-3435197D01*
X-1492859Y-3432911D01*
X-1507083Y-3432454D01*
X-1521206Y-3433826D01*
X-1535074Y-3436975D01*
X-1548434Y-3441903D01*
X-1561033Y-3448456D01*
X-1572615Y-3456584D01*
X-1583182Y-3466134D01*
X-1592326Y-3476955D01*
X-1600149Y-3488893D01*
X-1606296Y-3501694D01*
X-1610715Y-3515156D01*
X-1613509Y-3529126D01*
X-1614424Y-3543300D01*
X-1613509Y-3557473D01*
X-1610715Y-3571443D01*
X-1606296Y-3584905D01*
X-1600149Y-3597706D01*
X-1592326Y-3609644D01*
X-1583182Y-3620465D01*
X-1572615Y-3630015D01*
X-1561033Y-3638143D01*
X-1548434Y-3644696D01*
X-1535074Y-3649624D01*
X-1521206Y-3652774D01*
G37*
G36*
X-491083Y-3654145D02*
G01*
X-476859Y-3653688D01*
X-462838Y-3651402D01*
X-449224Y-3647389D01*
X-436168Y-3641598D01*
X-424078Y-3634232D01*
X-412953Y-3625392D01*
X-403098Y-3615182D01*
X-394563Y-3603802D01*
X-387604Y-3591407D01*
X-382219Y-3578250D01*
X-378663Y-3564483D01*
X-376885Y-3550412D01*
X-376885Y-3536187D01*
X-378663Y-3522116D01*
X-382219Y-3508349D01*
X-387604Y-3495192D01*
X-394563Y-3482797D01*
X-403098Y-3471418D01*
X-412953Y-3461207D01*
X-424078Y-3452368D01*
X-436168Y-3445001D01*
X-449224Y-3439261D01*
X-462838Y-3435197D01*
X-476859Y-3432911D01*
X-491083Y-3432454D01*
X-505206Y-3433826D01*
X-519074Y-3436975D01*
X-532434Y-3441903D01*
X-545033Y-3448456D01*
X-556615Y-3456584D01*
X-567182Y-3466134D01*
X-576326Y-3476955D01*
X-584149Y-3488893D01*
X-590296Y-3501694D01*
X-594715Y-3515156D01*
X-597509Y-3529126D01*
X-598424Y-3543300D01*
X-597509Y-3557473D01*
X-594715Y-3571443D01*
X-590296Y-3584905D01*
X-584149Y-3597706D01*
X-576326Y-3609644D01*
X-567182Y-3620465D01*
X-556615Y-3630015D01*
X-545033Y-3638143D01*
X-532434Y-3644696D01*
X-519074Y-3649624D01*
X-505206Y-3652774D01*
G37*
G36*
X-745083Y-3654145D02*
G01*
X-730859Y-3653688D01*
X-716838Y-3651402D01*
X-703224Y-3647389D01*
X-690168Y-3641598D01*
X-678078Y-3634232D01*
X-666953Y-3625392D01*
X-657098Y-3615182D01*
X-648563Y-3603802D01*
X-641604Y-3591407D01*
X-636219Y-3578250D01*
X-632663Y-3564483D01*
X-630885Y-3550412D01*
X-630885Y-3536187D01*
X-632663Y-3522116D01*
X-636219Y-3508349D01*
X-641604Y-3495192D01*
X-648563Y-3482797D01*
X-657098Y-3471418D01*
X-666953Y-3461207D01*
X-678078Y-3452368D01*
X-690168Y-3445001D01*
X-703224Y-3439261D01*
X-716838Y-3435197D01*
X-730859Y-3432911D01*
X-745083Y-3432454D01*
X-759206Y-3433826D01*
X-773074Y-3436975D01*
X-786434Y-3441903D01*
X-799033Y-3448456D01*
X-810615Y-3456584D01*
X-821182Y-3466134D01*
X-830326Y-3476955D01*
X-838149Y-3488893D01*
X-844296Y-3501694D01*
X-848715Y-3515156D01*
X-851509Y-3529126D01*
X-852424Y-3543300D01*
X-851509Y-3557473D01*
X-848715Y-3571443D01*
X-844296Y-3584905D01*
X-838149Y-3597706D01*
X-830326Y-3609644D01*
X-821182Y-3620465D01*
X-810615Y-3630015D01*
X-799033Y-3638143D01*
X-786434Y-3644696D01*
X-773074Y-3649624D01*
X-759206Y-3652774D01*
G37*
G36*
X-237083Y-3654145D02*
G01*
X-222859Y-3653688D01*
X-208838Y-3651402D01*
X-195224Y-3647389D01*
X-182168Y-3641598D01*
X-170078Y-3634232D01*
X-158953Y-3625392D01*
X-149098Y-3615182D01*
X-140563Y-3603802D01*
X-133604Y-3591407D01*
X-128219Y-3578250D01*
X-124663Y-3564483D01*
X-122885Y-3550412D01*
X-122885Y-3536187D01*
X-124663Y-3522116D01*
X-128219Y-3508349D01*
X-133604Y-3495192D01*
X-140563Y-3482797D01*
X-149098Y-3471418D01*
X-158953Y-3461207D01*
X-170078Y-3452368D01*
X-182168Y-3445001D01*
X-195224Y-3439261D01*
X-208838Y-3435197D01*
X-222859Y-3432911D01*
X-237083Y-3432454D01*
X-251206Y-3433826D01*
X-265074Y-3436975D01*
X-278434Y-3441903D01*
X-291033Y-3448456D01*
X-302615Y-3456584D01*
X-313182Y-3466134D01*
X-322326Y-3476955D01*
X-330149Y-3488893D01*
X-336296Y-3501694D01*
X-340715Y-3515156D01*
X-343509Y-3529126D01*
X-344424Y-3543300D01*
X-343509Y-3557473D01*
X-340715Y-3571443D01*
X-336296Y-3584905D01*
X-330149Y-3597706D01*
X-322326Y-3609644D01*
X-313182Y-3620465D01*
X-302615Y-3630015D01*
X-291033Y-3638143D01*
X-278434Y-3644696D01*
X-265074Y-3649624D01*
X-251206Y-3652774D01*
G37*
G36*
X-1253083Y-3654145D02*
G01*
X-1238859Y-3653688D01*
X-1224838Y-3651402D01*
X-1211224Y-3647389D01*
X-1198168Y-3641598D01*
X-1186078Y-3634232D01*
X-1174953Y-3625392D01*
X-1165098Y-3615182D01*
X-1156563Y-3603802D01*
X-1149604Y-3591407D01*
X-1144219Y-3578250D01*
X-1140663Y-3564483D01*
X-1138885Y-3550412D01*
X-1138885Y-3536187D01*
X-1140663Y-3522116D01*
X-1144219Y-3508349D01*
X-1149604Y-3495192D01*
X-1156563Y-3482797D01*
X-1165098Y-3471418D01*
X-1174953Y-3461207D01*
X-1186078Y-3452368D01*
X-1198168Y-3445001D01*
X-1211224Y-3439261D01*
X-1224838Y-3435197D01*
X-1238859Y-3432911D01*
X-1253083Y-3432454D01*
X-1267206Y-3433826D01*
X-1281074Y-3436975D01*
X-1294434Y-3441903D01*
X-1307033Y-3448456D01*
X-1318615Y-3456584D01*
X-1329182Y-3466134D01*
X-1338326Y-3476955D01*
X-1346149Y-3488893D01*
X-1352296Y-3501694D01*
X-1356715Y-3515156D01*
X-1359509Y-3529126D01*
X-1360424Y-3543300D01*
X-1359509Y-3557473D01*
X-1356715Y-3571443D01*
X-1352296Y-3584905D01*
X-1346149Y-3597706D01*
X-1338326Y-3609644D01*
X-1329182Y-3620465D01*
X-1318615Y-3630015D01*
X-1307033Y-3638143D01*
X-1294434Y-3644696D01*
X-1281074Y-3649624D01*
X-1267206Y-3652774D01*
G37*
G36*
X33172Y-3530600D02*
G01*
X131368Y-3530600D01*
X131368Y-3458870D01*
X130657Y-3452571D01*
X128778Y-3447084D01*
X125679Y-3442208D01*
X121564Y-3438093D01*
X116687Y-3434994D01*
X111201Y-3433114D01*
X104902Y-3432403D01*
X33172Y-3432403D01*
G37*
G36*
X-90424Y-3530600D02*
G01*
X7772Y-3530600D01*
X7772Y-3432403D01*
X-63906Y-3432403D01*
X-70256Y-3433114D01*
X-75692Y-3434994D01*
X-80568Y-3438093D01*
X-84734Y-3442208D01*
X-87833Y-3447084D01*
X-89662Y-3452571D01*
X-90424Y-3458870D01*
G37*
G36*
X325272Y3299917D02*
G01*
X339394Y3300831D01*
X353364Y3303625D01*
X366725Y3308146D01*
X379476Y3314446D01*
X391261Y3322320D01*
X401929Y3331667D01*
X411327Y3342335D01*
X419150Y3354120D01*
X421284Y3358438D01*
X423570Y3361436D01*
X426720Y3363417D01*
X430377Y3364128D01*
X792327Y3364128D01*
X796188Y3363366D01*
X799490Y3361131D01*
X801065Y3359556D01*
X809142Y3353917D01*
X818032Y3349802D01*
X827582Y3347262D01*
X837336Y3346399D01*
X847090Y3347262D01*
X856589Y3349802D01*
X865479Y3353917D01*
X873607Y3359556D01*
X880465Y3366515D01*
X886104Y3374542D01*
X890269Y3383483D01*
X892810Y3392932D01*
X893673Y3402736D01*
X892810Y3412540D01*
X890269Y3421989D01*
X886104Y3430930D01*
X880465Y3438956D01*
X873607Y3445916D01*
X865479Y3451555D01*
X856589Y3455670D01*
X847090Y3458210D01*
X837336Y3459073D01*
X827582Y3458210D01*
X818032Y3455670D01*
X809142Y3451555D01*
X801065Y3445916D01*
X799490Y3444341D01*
X796188Y3442106D01*
X792327Y3441344D01*
X435559Y3441344D01*
X431495Y3442208D01*
X428091Y3444646D01*
X425958Y3448253D01*
X425399Y3449777D01*
X419150Y3462477D01*
X411327Y3474262D01*
X401929Y3484930D01*
X391261Y3494278D01*
X379476Y3502151D01*
X366725Y3508451D01*
X353364Y3512972D01*
X339394Y3515766D01*
X325272Y3516680D01*
X311200Y3515766D01*
X297230Y3512972D01*
X283870Y3508451D01*
X271068Y3502151D01*
X259283Y3494278D01*
X248615Y3484930D01*
X239267Y3474262D01*
X231394Y3462477D01*
X225145Y3449777D01*
X220573Y3436365D01*
X217881Y3422446D01*
X216865Y3408273D01*
X217881Y3394151D01*
X220573Y3380232D01*
X225145Y3366820D01*
X231394Y3354120D01*
X239267Y3342335D01*
X248615Y3331667D01*
X259283Y3322320D01*
X271068Y3314446D01*
X283870Y3308146D01*
X297230Y3303625D01*
X311200Y3300831D01*
G37*
G36*
X-1249527Y-3396437D02*
G01*
X-1239672Y-3395573D01*
X-1230274Y-3393033D01*
X-1221333Y-3388918D01*
X-1213358Y-3383279D01*
X-1205534Y-3375355D01*
X-1202232Y-3373120D01*
X-1198321Y-3372358D01*
X-1105306Y-3372358D01*
X-1101445Y-3373120D01*
X-1098143Y-3375355D01*
X-1090320Y-3383279D01*
X-1082294Y-3388918D01*
X-1073404Y-3393033D01*
X-1063904Y-3395573D01*
X-1054049Y-3396437D01*
X-1044295Y-3395573D01*
X-1034796Y-3393033D01*
X-1025956Y-3388918D01*
X-1017879Y-3383279D01*
X-1010970Y-3376320D01*
X-1005332Y-3368294D01*
X-1001115Y-3359353D01*
X-998626Y-3349904D01*
X-997712Y-3340100D01*
X-998626Y-3330295D01*
X-1001115Y-3320846D01*
X-1005332Y-3311906D01*
X-1010970Y-3303879D01*
X-1017879Y-3296920D01*
X-1025956Y-3291281D01*
X-1034796Y-3287166D01*
X-1044295Y-3284626D01*
X-1054049Y-3283762D01*
X-1063904Y-3284626D01*
X-1073404Y-3287166D01*
X-1082294Y-3291281D01*
X-1090320Y-3296920D01*
X-1098143Y-3304844D01*
X-1101445Y-3307079D01*
X-1105306Y-3307842D01*
X-1198321Y-3307842D01*
X-1202232Y-3307079D01*
X-1205534Y-3304844D01*
X-1213358Y-3296920D01*
X-1221333Y-3291281D01*
X-1230274Y-3287166D01*
X-1239672Y-3284626D01*
X-1249527Y-3283762D01*
X-1259332Y-3284626D01*
X-1268780Y-3287166D01*
X-1277670Y-3291281D01*
X-1285748Y-3296920D01*
X-1292707Y-3303879D01*
X-1298295Y-3311906D01*
X-1302461Y-3320846D01*
X-1305001Y-3330295D01*
X-1305864Y-3340100D01*
X-1305001Y-3349904D01*
X-1302461Y-3359353D01*
X-1298295Y-3368294D01*
X-1292707Y-3376320D01*
X-1285748Y-3383279D01*
X-1277670Y-3388918D01*
X-1268780Y-3393033D01*
X-1259332Y-3395573D01*
G37*
G36*
X-487527Y-2997911D02*
G01*
X-477672Y-2997047D01*
X-468274Y-2994507D01*
X-459333Y-2990392D01*
X-451256Y-2984754D01*
X-444347Y-2977794D01*
X-438708Y-2969768D01*
X-434593Y-2960827D01*
X-432054Y-2951378D01*
X-431190Y-2941574D01*
X-432054Y-2931769D01*
X-434593Y-2922320D01*
X-438708Y-2913380D01*
X-444347Y-2905404D01*
X-452272Y-2897530D01*
X-454304Y-2894736D01*
X-455218Y-2891383D01*
X-456031Y-2884017D01*
X-458063Y-2877616D01*
X-461467Y-2871673D01*
X-464972Y-2867609D01*
X-700735Y-2631846D01*
X-706374Y-2627274D01*
X-712368Y-2624226D01*
X-718972Y-2622448D01*
X-724306Y-2622042D01*
X-996899Y-2622042D01*
X-1000912Y-2621229D01*
X-1004265Y-2618892D01*
X-1006449Y-2615488D01*
X-1007008Y-2611475D01*
X-1006094Y-2607513D01*
X-1001217Y-2597353D01*
X-998728Y-2587904D01*
X-997813Y-2578100D01*
X-998677Y-2568702D01*
X-998169Y-2564790D01*
X-996340Y-2561285D01*
X-993241Y-2558846D01*
X-989431Y-2557729D01*
X-985672Y-2557373D01*
X-976274Y-2554833D01*
X-967333Y-2550718D01*
X-959256Y-2545080D01*
X-952347Y-2538120D01*
X-946708Y-2530094D01*
X-942594Y-2521153D01*
X-940053Y-2511704D01*
X-939190Y-2501900D01*
X-940053Y-2492095D01*
X-942594Y-2482646D01*
X-946708Y-2473706D01*
X-952347Y-2465679D01*
X-959256Y-2458720D01*
X-967333Y-2453081D01*
X-976274Y-2448966D01*
X-985672Y-2446426D01*
X-995527Y-2445562D01*
X-1005332Y-2446426D01*
X-1014780Y-2448966D01*
X-1023670Y-2453081D01*
X-1031697Y-2458720D01*
X-1039520Y-2466644D01*
X-1042822Y-2468880D01*
X-1046683Y-2469642D01*
X-1129893Y-2469642D01*
X-1133805Y-2468880D01*
X-1137056Y-2466644D01*
X-1144879Y-2458720D01*
X-1152956Y-2453081D01*
X-1161796Y-2448966D01*
X-1171295Y-2446426D01*
X-1181049Y-2445562D01*
X-1190091Y-2446324D01*
X-1194003Y-2445918D01*
X-1197508Y-2443988D01*
X-1199997Y-2440889D01*
X-1201115Y-2437079D01*
X-1201826Y-2428595D01*
X-1204315Y-2419146D01*
X-1208532Y-2410206D01*
X-1214170Y-2402179D01*
X-1221079Y-2395220D01*
X-1229156Y-2389581D01*
X-1237996Y-2385466D01*
X-1247495Y-2382926D01*
X-1257249Y-2382062D01*
X-1267104Y-2382926D01*
X-1276604Y-2385466D01*
X-1285494Y-2389581D01*
X-1293571Y-2395220D01*
X-1300480Y-2402179D01*
X-1306118Y-2410206D01*
X-1310284Y-2419146D01*
X-1312824Y-2428595D01*
X-1313688Y-2438400D01*
X-1312824Y-2448204D01*
X-1310284Y-2457653D01*
X-1306118Y-2466594D01*
X-1300480Y-2474620D01*
X-1298905Y-2476195D01*
X-1296720Y-2479497D01*
X-1295908Y-2483408D01*
X-1295908Y-2799791D01*
X-1296720Y-2803702D01*
X-1298905Y-2807004D01*
X-1300480Y-2808579D01*
X-1306118Y-2816606D01*
X-1310284Y-2825546D01*
X-1312824Y-2834995D01*
X-1313688Y-2844800D01*
X-1312824Y-2854604D01*
X-1310284Y-2864053D01*
X-1306118Y-2872994D01*
X-1300480Y-2881020D01*
X-1293571Y-2887980D01*
X-1285494Y-2893618D01*
X-1276604Y-2897733D01*
X-1267104Y-2900273D01*
X-1257249Y-2901137D01*
X-1247495Y-2900273D01*
X-1237996Y-2897733D01*
X-1229156Y-2893618D01*
X-1221079Y-2887980D01*
X-1214170Y-2881020D01*
X-1208532Y-2872994D01*
X-1204315Y-2864053D01*
X-1201826Y-2854604D01*
X-1200912Y-2844800D01*
X-1201826Y-2834995D01*
X-1204315Y-2825546D01*
X-1208532Y-2816606D01*
X-1214170Y-2808579D01*
X-1215745Y-2807004D01*
X-1217930Y-2803702D01*
X-1218692Y-2799791D01*
X-1218692Y-2790850D01*
X-1217930Y-2786888D01*
X-1215542Y-2783535D01*
X-1212138Y-2781350D01*
X-1208227Y-2780690D01*
X-1204264Y-2781655D01*
X-1200404Y-2783433D01*
X-1190904Y-2785973D01*
X-1181049Y-2786837D01*
X-1171295Y-2785973D01*
X-1161796Y-2783433D01*
X-1152956Y-2779318D01*
X-1144879Y-2773680D01*
X-1137056Y-2765755D01*
X-1133805Y-2763520D01*
X-1129893Y-2762758D01*
X-800709Y-2762758D01*
X-796391Y-2763723D01*
X-792937Y-2766364D01*
X-790905Y-2770276D01*
X-789584Y-2775153D01*
X-785418Y-2784094D01*
X-779780Y-2792120D01*
X-772871Y-2799080D01*
X-764794Y-2804718D01*
X-755904Y-2808833D01*
X-746404Y-2811373D01*
X-736549Y-2812237D01*
X-726795Y-2811373D01*
X-717296Y-2808833D01*
X-708456Y-2804718D01*
X-700379Y-2799080D01*
X-693470Y-2792120D01*
X-687832Y-2784094D01*
X-683615Y-2775204D01*
X-680872Y-2764586D01*
X-678942Y-2760776D01*
X-675690Y-2758084D01*
X-671576Y-2757017D01*
X-667410Y-2757678D01*
X-663854Y-2759964D01*
X-531672Y-2892145D01*
X-529691Y-2895041D01*
X-528777Y-2898444D01*
X-529082Y-2901950D01*
X-530555Y-2905150D01*
X-536295Y-2913380D01*
X-540461Y-2922320D01*
X-543001Y-2931769D01*
X-543864Y-2941574D01*
X-543001Y-2951378D01*
X-540461Y-2960827D01*
X-536295Y-2969768D01*
X-530707Y-2977794D01*
X-523748Y-2984754D01*
X-515670Y-2990392D01*
X-506780Y-2994507D01*
X-497332Y-2997047D01*
G37*
G36*
X-271627Y3271774D02*
G01*
X-188417Y3271774D01*
X-188417Y3334715D01*
X-189128Y3341065D01*
X-191058Y3346500D01*
X-194106Y3351428D01*
X-198170Y3355492D01*
X-203047Y3358591D01*
X-208584Y3360470D01*
X-214833Y3361182D01*
X-271627Y3361182D01*
G37*
G36*
X388264Y-2351125D02*
G01*
X567131Y-2351125D01*
X573481Y-2350414D01*
X578916Y-2348484D01*
X583793Y-2345385D01*
X587857Y-2341321D01*
X590956Y-2336393D01*
X592886Y-2330958D01*
X593648Y-2324608D01*
X593648Y-2145792D01*
X592886Y-2139442D01*
X590956Y-2134006D01*
X587857Y-2129078D01*
X583793Y-2125014D01*
X578916Y-2121916D01*
X573481Y-2119985D01*
X567131Y-2119274D01*
X388264Y-2119274D01*
X381914Y-2119985D01*
X376478Y-2121916D01*
X371551Y-2125014D01*
X367538Y-2129078D01*
X364388Y-2134006D01*
X362458Y-2139442D01*
X361746Y-2145792D01*
X361746Y-2324608D01*
X362458Y-2330958D01*
X364388Y-2336393D01*
X367538Y-2341321D01*
X371551Y-2345385D01*
X376478Y-2348484D01*
X381914Y-2350414D01*
G37*
G36*
X731672Y-2351074D02*
G01*
X746201Y-2350160D01*
X760476Y-2347468D01*
X774395Y-2342946D01*
X787552Y-2336749D01*
X799795Y-2328976D01*
X811022Y-2319680D01*
X820978Y-2309063D01*
X829513Y-2297277D01*
X832764Y-2291384D01*
X835050Y-2288590D01*
X838149Y-2286762D01*
X841654Y-2286101D01*
X939546Y-2286101D01*
X944270Y-2285898D01*
X948588Y-2285339D01*
X953008Y-2284374D01*
X957173Y-2283053D01*
X961288Y-2281326D01*
X965250Y-2279294D01*
X968959Y-2276906D01*
X972515Y-2274214D01*
X975918Y-2271064D01*
X1026464Y-2220569D01*
X1029563Y-2217115D01*
X1032256Y-2213610D01*
X1034643Y-2209850D01*
X1036777Y-2205888D01*
X1038402Y-2201824D01*
X1039723Y-2197557D01*
X1040688Y-2193239D01*
X1041298Y-2188819D01*
X1041552Y-2184196D01*
X1041552Y-51003D01*
X1041298Y-46380D01*
X1040688Y-41960D01*
X1039723Y-37642D01*
X1038402Y-33375D01*
X1036777Y-29311D01*
X1034643Y-25349D01*
X1032256Y-21590D01*
X1029563Y-18084D01*
X1026464Y-14630D01*
X975918Y35864D01*
X972515Y39014D01*
X968959Y41706D01*
X965250Y44094D01*
X961288Y46126D01*
X957173Y47853D01*
X953008Y49174D01*
X948588Y50139D01*
X944270Y50698D01*
X939546Y50901D01*
X648208Y50901D01*
X643890Y51866D01*
X641604Y52933D01*
X632104Y55473D01*
X622350Y56337D01*
X612495Y55473D01*
X602996Y52933D01*
X594106Y48818D01*
X586028Y43180D01*
X579120Y36220D01*
X573481Y28194D01*
X569315Y19253D01*
X566775Y9804D01*
X565912Y0D01*
X566775Y-9804D01*
X569315Y-19253D01*
X573481Y-28194D01*
X579120Y-36220D01*
X586028Y-43180D01*
X594106Y-48818D01*
X602996Y-52933D01*
X612495Y-55473D01*
X622350Y-56337D01*
X632104Y-55473D01*
X641604Y-52933D01*
X643890Y-51866D01*
X648208Y-50901D01*
X914552Y-50901D01*
X918413Y-51663D01*
X921664Y-53898D01*
X936701Y-68935D01*
X938936Y-72186D01*
X939647Y-76098D01*
X939647Y-2159101D01*
X938936Y-2163013D01*
X936701Y-2166264D01*
X921664Y-2181301D01*
X918413Y-2183536D01*
X914552Y-2184298D01*
X841654Y-2184298D01*
X838149Y-2183638D01*
X835050Y-2181809D01*
X832764Y-2179015D01*
X829513Y-2173122D01*
X820978Y-2161336D01*
X811022Y-2150719D01*
X799795Y-2141423D01*
X787552Y-2133650D01*
X774395Y-2127453D01*
X760476Y-2122932D01*
X746201Y-2120239D01*
X731672Y-2119325D01*
X717143Y-2120239D01*
X702868Y-2122932D01*
X689000Y-2127453D01*
X675843Y-2133650D01*
X663600Y-2141423D01*
X652322Y-2150719D01*
X642416Y-2161336D01*
X633831Y-2173122D01*
X626872Y-2185873D01*
X621436Y-2199386D01*
X617829Y-2213508D01*
X616000Y-2227935D01*
X616000Y-2242464D01*
X617829Y-2256891D01*
X621436Y-2271014D01*
X626872Y-2284526D01*
X633831Y-2297277D01*
X642416Y-2309063D01*
X652322Y-2319680D01*
X663600Y-2328976D01*
X675843Y-2336749D01*
X689000Y-2342946D01*
X702868Y-2347468D01*
X717143Y-2350160D01*
G37*
G36*
X-380238Y3271774D02*
G01*
X-297027Y3271774D01*
X-297027Y3361182D01*
X-353771Y3361182D01*
X-360070Y3360470D01*
X-365556Y3358591D01*
X-370433Y3355492D01*
X-374497Y3351428D01*
X-377545Y3346500D01*
X-379476Y3341065D01*
X-380238Y3334715D01*
G37*
G36*
X718972Y-2096312D02*
G01*
X718972Y-1993900D01*
X616712Y-1993900D01*
X617829Y-2002891D01*
X621436Y-2017014D01*
X626872Y-2030526D01*
X633831Y-2043277D01*
X642416Y-2055063D01*
X652322Y-2065680D01*
X663600Y-2074976D01*
X675843Y-2082749D01*
X689000Y-2088946D01*
X702868Y-2093468D01*
X717143Y-2096160D01*
G37*
G36*
X464972Y-2096312D02*
G01*
X464972Y-1993900D01*
X362712Y-1993900D01*
X363829Y-2002891D01*
X367436Y-2017014D01*
X372872Y-2030526D01*
X379831Y-2043277D01*
X388416Y-2055063D01*
X398322Y-2065680D01*
X409600Y-2074976D01*
X421843Y-2082749D01*
X435000Y-2088946D01*
X448868Y-2093468D01*
X463143Y-2096160D01*
G37*
G36*
X-2224633Y-6894982D02*
G01*
X-2209444Y-6894068D01*
X-2194458Y-6891324D01*
X-2179929Y-6886803D01*
X-2166112Y-6880555D01*
X-2153056Y-6872681D01*
X-2141169Y-6863334D01*
X-2130399Y-6852564D01*
X-2121052Y-6840575D01*
X-2113178Y-6827570D01*
X-2106930Y-6813753D01*
X-2102408Y-6799224D01*
X-2099665Y-6784238D01*
X-2098751Y-6769100D01*
X-2099665Y-6753910D01*
X-2102408Y-6738975D01*
X-2106930Y-6724446D01*
X-2113178Y-6710578D01*
X-2121052Y-6697573D01*
X-2130399Y-6685584D01*
X-2141169Y-6674866D01*
X-2153056Y-6665468D01*
X-2166112Y-6657594D01*
X-2179929Y-6651396D01*
X-2194458Y-6646875D01*
X-2209444Y-6644131D01*
X-2224633Y-6643217D01*
X-2239822Y-6644131D01*
X-2254758Y-6646875D01*
X-2269286Y-6651396D01*
X-2283155Y-6657594D01*
X-2296160Y-6665468D01*
X-2308098Y-6674866D01*
X-2318867Y-6685584D01*
X-2328214Y-6697573D01*
X-2336038Y-6710578D01*
X-2342337Y-6724446D01*
X-2346858Y-6738975D01*
X-2349601Y-6753910D01*
X-2350516Y-6769100D01*
X-2349601Y-6784238D01*
X-2346858Y-6799224D01*
X-2342337Y-6813753D01*
X-2336038Y-6827570D01*
X-2328214Y-6840575D01*
X-2318867Y-6852564D01*
X-2308098Y-6863334D01*
X-2296160Y-6872681D01*
X-2283155Y-6880555D01*
X-2269286Y-6886803D01*
X-2254758Y-6891324D01*
X-2239822Y-6894068D01*
G37*
G36*
X744372Y-2096312D02*
G01*
X746201Y-2096160D01*
X760476Y-2093468D01*
X774395Y-2088946D01*
X787552Y-2082749D01*
X799795Y-2074976D01*
X811022Y-2065680D01*
X820978Y-2055063D01*
X829513Y-2043277D01*
X836523Y-2030526D01*
X841908Y-2017014D01*
X845515Y-2002891D01*
X846632Y-1993900D01*
X744372Y-1993900D01*
G37*
G36*
X329895Y2732481D02*
G01*
X347929Y2733852D01*
X365709Y2737104D01*
X383082Y2742184D01*
X399846Y2748991D01*
X415848Y2757525D01*
X430936Y2767634D01*
X444754Y2779217D01*
X457454Y2792171D01*
X468680Y2806395D01*
X478434Y2821686D01*
X486460Y2837840D01*
X492861Y2854807D01*
X497484Y2872333D01*
X500329Y2890215D01*
X501243Y2908300D01*
X500329Y2926384D01*
X497484Y2944266D01*
X492861Y2961792D01*
X486460Y2978759D01*
X478434Y2994914D01*
X468680Y3010204D01*
X457454Y3024428D01*
X444754Y3037382D01*
X430936Y3048965D01*
X415848Y3059074D01*
X399846Y3067608D01*
X383082Y3074416D01*
X365709Y3079496D01*
X347929Y3082747D01*
X329895Y3084118D01*
X311759Y3083661D01*
X293827Y3081324D01*
X276148Y3077210D01*
X259029Y3071215D01*
X242620Y3063544D01*
X227177Y3054248D01*
X212648Y3043377D01*
X199390Y3031083D01*
X187350Y3017469D01*
X176936Y3002686D01*
X167944Y2986938D01*
X160731Y2970326D01*
X155194Y2953105D01*
X151536Y2935376D01*
X149707Y2917342D01*
X149707Y2899257D01*
X151536Y2881223D01*
X155194Y2863494D01*
X160731Y2846273D01*
X167944Y2829661D01*
X176936Y2813913D01*
X187350Y2799130D01*
X199390Y2785516D01*
X212648Y2773222D01*
X227177Y2762351D01*
X242620Y2753055D01*
X259029Y2745384D01*
X276148Y2739390D01*
X293827Y2735275D01*
X311759Y2732938D01*
G37*
G36*
X-653999Y-1975459D02*
G01*
X-644245Y-1974596D01*
X-634746Y-1972056D01*
X-632307Y-1970887D01*
X-628040Y-1969922D01*
X-144881Y-1968703D01*
X-140563Y-1969668D01*
X-138480Y-1970633D01*
X-129032Y-1973173D01*
X-119227Y-1974037D01*
X-109372Y-1973173D01*
X-99974Y-1970633D01*
X-91033Y-1966518D01*
X-86918Y-1963826D01*
X-82397Y-1961692D01*
X-75133Y-1956562D01*
X-68935Y-1950313D01*
X-63804Y-1942998D01*
X-60147Y-1934972D01*
X-57861Y-1926386D01*
X-57099Y-1917547D01*
X-57912Y-1908759D01*
X-60198Y-1900174D01*
X-64008Y-1892147D01*
X-69088Y-1884883D01*
X-75387Y-1878634D01*
X-82651Y-1873605D01*
X-88392Y-1870710D01*
X-91033Y-1868881D01*
X-99974Y-1864766D01*
X-109372Y-1862226D01*
X-119227Y-1861362D01*
X-129032Y-1862226D01*
X-138480Y-1864766D01*
X-141020Y-1865934D01*
X-145288Y-1866900D01*
X-628294Y-1868119D01*
X-632612Y-1867154D01*
X-634746Y-1866138D01*
X-644245Y-1863598D01*
X-653999Y-1862734D01*
X-663854Y-1863598D01*
X-673354Y-1866138D01*
X-682244Y-1870303D01*
X-690321Y-1875942D01*
X-697230Y-1882851D01*
X-702868Y-1890928D01*
X-707034Y-1899818D01*
X-709574Y-1909318D01*
X-710438Y-1919122D01*
X-709574Y-1928875D01*
X-707034Y-1938375D01*
X-702868Y-1947265D01*
X-697230Y-1955342D01*
X-690321Y-1962251D01*
X-682244Y-1967890D01*
X-673354Y-1972056D01*
X-663854Y-1974596D01*
G37*
G36*
X616712Y-1968500D02*
G01*
X718972Y-1968500D01*
X718972Y-1866087D01*
X717143Y-1866239D01*
X702868Y-1868932D01*
X689000Y-1873453D01*
X675843Y-1879650D01*
X663600Y-1887423D01*
X652322Y-1896719D01*
X642416Y-1907336D01*
X633831Y-1919122D01*
X626872Y-1931873D01*
X621436Y-1945386D01*
X617829Y-1959508D01*
G37*
G36*
X490372Y-1968500D02*
G01*
X592632Y-1968500D01*
X591515Y-1959508D01*
X587908Y-1945386D01*
X582523Y-1931873D01*
X575513Y-1919122D01*
X566978Y-1907336D01*
X557022Y-1896719D01*
X545795Y-1887423D01*
X533552Y-1879650D01*
X520395Y-1873453D01*
X506476Y-1868932D01*
X492201Y-1866239D01*
X490372Y-1866087D01*
G37*
G36*
X362712Y-1968500D02*
G01*
X464972Y-1968500D01*
X464972Y-1866087D01*
X463143Y-1866239D01*
X448868Y-1868932D01*
X435000Y-1873453D01*
X421843Y-1879650D01*
X409600Y-1887423D01*
X398322Y-1896719D01*
X388416Y-1907336D01*
X379831Y-1919122D01*
X372872Y-1931873D01*
X367436Y-1945386D01*
X363829Y-1959508D01*
G37*
G36*
X744372Y-1968500D02*
G01*
X846632Y-1968500D01*
X845515Y-1959508D01*
X841908Y-1945386D01*
X836523Y-1931873D01*
X829513Y-1919122D01*
X820978Y-1907336D01*
X811022Y-1896719D01*
X799795Y-1887423D01*
X787552Y-1879650D01*
X774395Y-1873453D01*
X760476Y-1868932D01*
X746201Y-1866239D01*
X744372Y-1866087D01*
G37*
G36*
X718972Y-1842312D02*
G01*
X718972Y-1739900D01*
X616712Y-1739900D01*
X617829Y-1748891D01*
X621436Y-1763014D01*
X626872Y-1776526D01*
X633831Y-1789277D01*
X642416Y-1801063D01*
X652322Y-1811680D01*
X663600Y-1820976D01*
X675843Y-1828749D01*
X689000Y-1834946D01*
X702868Y-1839468D01*
X717143Y-1842160D01*
G37*
G36*
X490372Y-1842312D02*
G01*
X492201Y-1842160D01*
X506476Y-1839468D01*
X520395Y-1834946D01*
X533552Y-1828749D01*
X545795Y-1820976D01*
X557022Y-1811680D01*
X566978Y-1801063D01*
X575513Y-1789277D01*
X582523Y-1776526D01*
X587908Y-1763014D01*
X591515Y-1748891D01*
X592632Y-1739900D01*
X490372Y-1739900D01*
G37*
G36*
X744372Y-1842312D02*
G01*
X746201Y-1842160D01*
X760476Y-1839468D01*
X774395Y-1834946D01*
X787552Y-1828749D01*
X799795Y-1820976D01*
X811022Y-1811680D01*
X820978Y-1801063D01*
X829513Y-1789277D01*
X836523Y-1776526D01*
X841908Y-1763014D01*
X845515Y-1748891D01*
X846632Y-1739900D01*
X744372Y-1739900D01*
G37*
G36*
X464972Y-1842312D02*
G01*
X464972Y-1739900D01*
X362712Y-1739900D01*
X363829Y-1748891D01*
X367436Y-1763014D01*
X372872Y-1776526D01*
X379831Y-1789277D01*
X388416Y-1801063D01*
X398322Y-1811680D01*
X409600Y-1820976D01*
X421843Y-1828749D01*
X435000Y-1834946D01*
X448868Y-1839468D01*
X463143Y-1842160D01*
G37*
G36*
X-297027Y2564079D02*
G01*
X-297027Y2646375D01*
X-379120Y2646375D01*
X-378206Y2639568D01*
X-374599Y2626969D01*
X-369468Y2614980D01*
X-362661Y2603804D01*
X-354380Y2593644D01*
X-344779Y2584704D01*
X-334162Y2577185D01*
X-322529Y2571140D01*
X-310184Y2566771D01*
G37*
G36*
X616712Y-1714500D02*
G01*
X718972Y-1714500D01*
X718972Y-1612087D01*
X717143Y-1612239D01*
X702868Y-1614932D01*
X689000Y-1619453D01*
X675843Y-1625650D01*
X663600Y-1633423D01*
X652322Y-1642719D01*
X642416Y-1653336D01*
X633831Y-1665122D01*
X626872Y-1677873D01*
X621436Y-1691386D01*
X617829Y-1705508D01*
G37*
G36*
X744372Y-1714500D02*
G01*
X846632Y-1714500D01*
X845515Y-1705508D01*
X841908Y-1691386D01*
X836523Y-1677873D01*
X829513Y-1665122D01*
X820978Y-1653336D01*
X811022Y-1642719D01*
X799795Y-1633423D01*
X787552Y-1625650D01*
X774395Y-1619453D01*
X760476Y-1614932D01*
X746201Y-1612239D01*
X744372Y-1612087D01*
G37*
G36*
X490372Y-1714500D02*
G01*
X592632Y-1714500D01*
X591515Y-1705508D01*
X587908Y-1691386D01*
X582523Y-1677873D01*
X575513Y-1665122D01*
X566978Y-1653336D01*
X557022Y-1642719D01*
X545795Y-1633423D01*
X533552Y-1625650D01*
X520395Y-1619453D01*
X506476Y-1614932D01*
X492201Y-1612239D01*
X490372Y-1612087D01*
G37*
G36*
X362712Y-1714500D02*
G01*
X464972Y-1714500D01*
X464972Y-1612087D01*
X463143Y-1612239D01*
X448868Y-1614932D01*
X435000Y-1619453D01*
X421843Y-1625650D01*
X409600Y-1633423D01*
X398322Y-1642719D01*
X388416Y-1653336D01*
X379831Y-1665122D01*
X372872Y-1677873D01*
X367436Y-1691386D01*
X363829Y-1705508D01*
G37*
G36*
X490372Y-6894982D02*
G01*
X505561Y-6894068D01*
X520496Y-6891324D01*
X535025Y-6886803D01*
X548894Y-6880555D01*
X561898Y-6872681D01*
X573836Y-6863334D01*
X584606Y-6852564D01*
X594004Y-6840575D01*
X601827Y-6827570D01*
X608076Y-6813753D01*
X612597Y-6799224D01*
X615340Y-6784238D01*
X616254Y-6769100D01*
X615340Y-6753910D01*
X612597Y-6738975D01*
X608076Y-6724446D01*
X601827Y-6710578D01*
X594004Y-6697573D01*
X584606Y-6685584D01*
X573836Y-6674866D01*
X561898Y-6665468D01*
X548894Y-6657594D01*
X535025Y-6651396D01*
X520496Y-6646875D01*
X505561Y-6644131D01*
X490372Y-6643217D01*
X475183Y-6644131D01*
X460298Y-6646875D01*
X445719Y-6651396D01*
X431850Y-6657594D01*
X418846Y-6665468D01*
X406908Y-6674866D01*
X396138Y-6685584D01*
X386791Y-6697573D01*
X378917Y-6710578D01*
X372668Y-6724446D01*
X368147Y-6738975D01*
X365404Y-6753910D01*
X364490Y-6769100D01*
X365404Y-6784238D01*
X368147Y-6799224D01*
X372668Y-6813753D01*
X378917Y-6827570D01*
X386791Y-6840575D01*
X396138Y-6852564D01*
X406908Y-6863334D01*
X418846Y-6872681D01*
X431850Y-6880555D01*
X445719Y-6886803D01*
X460298Y-6891324D01*
X475183Y-6894068D01*
G37*
G36*
X718972Y-1588312D02*
G01*
X718972Y-1485900D01*
X616712Y-1485900D01*
X617829Y-1494891D01*
X621436Y-1509014D01*
X626872Y-1522526D01*
X633831Y-1535277D01*
X642416Y-1547063D01*
X652322Y-1557680D01*
X663600Y-1566976D01*
X675843Y-1574749D01*
X689000Y-1580946D01*
X702868Y-1585468D01*
X717143Y-1588160D01*
G37*
G36*
X744372Y-1588312D02*
G01*
X746201Y-1588160D01*
X760476Y-1585468D01*
X774395Y-1580946D01*
X787552Y-1574749D01*
X799795Y-1566976D01*
X811022Y-1557680D01*
X820978Y-1547063D01*
X829513Y-1535277D01*
X836523Y-1522526D01*
X841908Y-1509014D01*
X845515Y-1494891D01*
X846632Y-1485900D01*
X744372Y-1485900D01*
G37*
G36*
X490372Y-1588312D02*
G01*
X492201Y-1588160D01*
X506476Y-1585468D01*
X520395Y-1580946D01*
X533552Y-1574749D01*
X545795Y-1566976D01*
X557022Y-1557680D01*
X566978Y-1547063D01*
X575513Y-1535277D01*
X582523Y-1522526D01*
X587908Y-1509014D01*
X591515Y-1494891D01*
X592632Y-1485900D01*
X490372Y-1485900D01*
G37*
G36*
X464972Y-1588312D02*
G01*
X464972Y-1485900D01*
X362712Y-1485900D01*
X363829Y-1494891D01*
X367436Y-1509014D01*
X372872Y-1522526D01*
X379831Y-1535277D01*
X388416Y-1547063D01*
X398322Y-1557680D01*
X409600Y-1566976D01*
X421843Y-1574749D01*
X435000Y-1580946D01*
X448868Y-1585468D01*
X463143Y-1588160D01*
G37*
G36*
X616712Y-1460500D02*
G01*
X718972Y-1460500D01*
X718972Y-1358087D01*
X717143Y-1358239D01*
X702868Y-1360932D01*
X689000Y-1365453D01*
X675843Y-1371650D01*
X663600Y-1379423D01*
X652322Y-1388719D01*
X642416Y-1399336D01*
X633831Y-1411122D01*
X626872Y-1423873D01*
X621436Y-1437386D01*
X617829Y-1451508D01*
G37*
G36*
X744372Y-1460500D02*
G01*
X846632Y-1460500D01*
X845515Y-1451508D01*
X841908Y-1437386D01*
X836523Y-1423873D01*
X829513Y-1411122D01*
X820978Y-1399336D01*
X811022Y-1388719D01*
X799795Y-1379423D01*
X787552Y-1371650D01*
X774395Y-1365453D01*
X760476Y-1360932D01*
X746201Y-1358239D01*
X744372Y-1358087D01*
G37*
G36*
X490372Y-1460500D02*
G01*
X592632Y-1460500D01*
X591515Y-1451508D01*
X587908Y-1437386D01*
X582523Y-1423873D01*
X575513Y-1411122D01*
X566978Y-1399336D01*
X557022Y-1388719D01*
X545795Y-1379423D01*
X533552Y-1371650D01*
X520395Y-1365453D01*
X506476Y-1360932D01*
X492201Y-1358239D01*
X490372Y-1358087D01*
G37*
G36*
X362712Y-1460500D02*
G01*
X464972Y-1460500D01*
X464972Y-1358087D01*
X463143Y-1358239D01*
X448868Y-1360932D01*
X435000Y-1365453D01*
X421843Y-1371650D01*
X409600Y-1379423D01*
X398322Y-1388719D01*
X388416Y-1399336D01*
X379831Y-1411122D01*
X372872Y-1423873D01*
X367436Y-1437386D01*
X363829Y-1451508D01*
G37*
G36*
X731672Y-1335074D02*
G01*
X746201Y-1334160D01*
X760476Y-1331468D01*
X774395Y-1326946D01*
X787552Y-1320749D01*
X799795Y-1312976D01*
X811022Y-1303680D01*
X820978Y-1293063D01*
X829513Y-1281277D01*
X836523Y-1268526D01*
X841908Y-1255014D01*
X845515Y-1240891D01*
X847344Y-1226464D01*
X847344Y-1211935D01*
X845515Y-1197508D01*
X841908Y-1183386D01*
X836523Y-1169873D01*
X829513Y-1157122D01*
X820978Y-1145336D01*
X811022Y-1134719D01*
X799795Y-1125423D01*
X787552Y-1117650D01*
X774395Y-1111453D01*
X760476Y-1106932D01*
X746201Y-1104239D01*
X731672Y-1103325D01*
X717143Y-1104239D01*
X702868Y-1106932D01*
X689000Y-1111453D01*
X675843Y-1117650D01*
X663600Y-1125423D01*
X652322Y-1134719D01*
X642416Y-1145336D01*
X633831Y-1157122D01*
X626872Y-1169873D01*
X621436Y-1183386D01*
X617829Y-1197508D01*
X616000Y-1211935D01*
X616000Y-1226464D01*
X617829Y-1240891D01*
X621436Y-1255014D01*
X626872Y-1268526D01*
X633831Y-1281277D01*
X642416Y-1293063D01*
X652322Y-1303680D01*
X663600Y-1312976D01*
X675843Y-1320749D01*
X689000Y-1326946D01*
X702868Y-1331468D01*
X717143Y-1334160D01*
G37*
G36*
X477672Y-1335074D02*
G01*
X492201Y-1334160D01*
X506476Y-1331468D01*
X520395Y-1326946D01*
X533552Y-1320749D01*
X545795Y-1312976D01*
X557022Y-1303680D01*
X566978Y-1293063D01*
X575513Y-1281277D01*
X582523Y-1268526D01*
X587908Y-1255014D01*
X591515Y-1240891D01*
X593344Y-1226464D01*
X593344Y-1211935D01*
X591515Y-1197508D01*
X587908Y-1183386D01*
X582523Y-1169873D01*
X575513Y-1157122D01*
X566978Y-1145336D01*
X557022Y-1134719D01*
X545795Y-1125423D01*
X533552Y-1117650D01*
X520395Y-1111453D01*
X506476Y-1106932D01*
X492201Y-1104239D01*
X477672Y-1103325D01*
X463143Y-1104239D01*
X448868Y-1106932D01*
X435000Y-1111453D01*
X421843Y-1117650D01*
X409600Y-1125423D01*
X398322Y-1134719D01*
X388416Y-1145336D01*
X379831Y-1157122D01*
X372872Y-1169873D01*
X367436Y-1183386D01*
X363829Y-1197508D01*
X362000Y-1211935D01*
X362000Y-1226464D01*
X363829Y-1240891D01*
X367436Y-1255014D01*
X372872Y-1268526D01*
X379831Y-1281277D01*
X388416Y-1293063D01*
X398322Y-1303680D01*
X409600Y-1312976D01*
X421843Y-1320749D01*
X435000Y-1326946D01*
X448868Y-1331468D01*
X463143Y-1334160D01*
G37*
G36*
X-665327Y-1264259D02*
G01*
X-655472Y-1263396D01*
X-646074Y-1260856D01*
X-643585Y-1259687D01*
X-639267Y-1258722D01*
X-144983Y-1257452D01*
X-140665Y-1258417D01*
X-138480Y-1259433D01*
X-129032Y-1261973D01*
X-119227Y-1262837D01*
X-109372Y-1261973D01*
X-99974Y-1259433D01*
X-91033Y-1255318D01*
X-82956Y-1249680D01*
X-76047Y-1242720D01*
X-70408Y-1234694D01*
X-66294Y-1225753D01*
X-63754Y-1216304D01*
X-62890Y-1206500D01*
X-63754Y-1196695D01*
X-66294Y-1187246D01*
X-70408Y-1178306D01*
X-76047Y-1170279D01*
X-82956Y-1163320D01*
X-91033Y-1157681D01*
X-99974Y-1153566D01*
X-109372Y-1151026D01*
X-119227Y-1150162D01*
X-129032Y-1151026D01*
X-138480Y-1153566D01*
X-140919Y-1154684D01*
X-145237Y-1155649D01*
X-639521Y-1156919D01*
X-643839Y-1155954D01*
X-646074Y-1154938D01*
X-655472Y-1152398D01*
X-665327Y-1151534D01*
X-675132Y-1152398D01*
X-684580Y-1154938D01*
X-693470Y-1159103D01*
X-701548Y-1164742D01*
X-708507Y-1171651D01*
X-714095Y-1179728D01*
X-718261Y-1188618D01*
X-720801Y-1198118D01*
X-721664Y-1207922D01*
X-720801Y-1217676D01*
X-718261Y-1227175D01*
X-714095Y-1236065D01*
X-708507Y-1244142D01*
X-701548Y-1251051D01*
X-693470Y-1256690D01*
X-684580Y-1260856D01*
X-675132Y-1263396D01*
G37*
G36*
X731672Y-1081074D02*
G01*
X746201Y-1080160D01*
X760476Y-1077468D01*
X774395Y-1072946D01*
X787552Y-1066749D01*
X799795Y-1058976D01*
X811022Y-1049680D01*
X820978Y-1039063D01*
X829513Y-1027277D01*
X836523Y-1014526D01*
X841908Y-1001014D01*
X845515Y-986891D01*
X847344Y-972464D01*
X847344Y-957935D01*
X845515Y-943508D01*
X841908Y-929386D01*
X836523Y-915873D01*
X829513Y-903122D01*
X820978Y-891336D01*
X811022Y-880719D01*
X799795Y-871423D01*
X787552Y-863650D01*
X774395Y-857453D01*
X760476Y-852932D01*
X746201Y-850239D01*
X731672Y-849325D01*
X717143Y-850239D01*
X702868Y-852932D01*
X689000Y-857453D01*
X675843Y-863650D01*
X663600Y-871423D01*
X652322Y-880719D01*
X642416Y-891336D01*
X633831Y-903122D01*
X626872Y-915873D01*
X621436Y-929386D01*
X617829Y-943508D01*
X616000Y-957935D01*
X616000Y-972464D01*
X617829Y-986891D01*
X621436Y-1001014D01*
X626872Y-1014526D01*
X633831Y-1027277D01*
X642416Y-1039063D01*
X652322Y-1049680D01*
X663600Y-1058976D01*
X675843Y-1066749D01*
X689000Y-1072946D01*
X702868Y-1077468D01*
X717143Y-1080160D01*
G37*
G36*
X477672Y-1081074D02*
G01*
X492201Y-1080160D01*
X506476Y-1077468D01*
X520395Y-1072946D01*
X533552Y-1066749D01*
X545795Y-1058976D01*
X557022Y-1049680D01*
X566978Y-1039063D01*
X575513Y-1027277D01*
X582523Y-1014526D01*
X587908Y-1001014D01*
X591515Y-986891D01*
X593344Y-972464D01*
X593344Y-957935D01*
X591515Y-943508D01*
X587908Y-929386D01*
X582523Y-915873D01*
X575513Y-903122D01*
X566978Y-891336D01*
X557022Y-880719D01*
X545795Y-871423D01*
X533552Y-863650D01*
X520395Y-857453D01*
X506476Y-852932D01*
X492201Y-850239D01*
X477672Y-849325D01*
X463143Y-850239D01*
X448868Y-852932D01*
X435000Y-857453D01*
X421843Y-863650D01*
X409600Y-871423D01*
X398322Y-880719D01*
X388416Y-891336D01*
X379831Y-903122D01*
X372872Y-915873D01*
X367436Y-929386D01*
X363829Y-943508D01*
X362000Y-957935D01*
X362000Y-972464D01*
X363829Y-986891D01*
X367436Y-1001014D01*
X372872Y-1014526D01*
X379831Y-1027277D01*
X388416Y-1039063D01*
X398322Y-1049680D01*
X409600Y-1058976D01*
X421843Y-1066749D01*
X435000Y-1072946D01*
X448868Y-1077468D01*
X463143Y-1080160D01*
G37*
G36*
X-1396949Y-970737D02*
G01*
X-1387195Y-969873D01*
X-1377696Y-967333D01*
X-1368856Y-963218D01*
X-1360779Y-957580D01*
X-1353870Y-950620D01*
X-1348232Y-942594D01*
X-1344015Y-933653D01*
X-1341526Y-924204D01*
X-1340612Y-914400D01*
X-1341526Y-904595D01*
X-1344015Y-895146D01*
X-1348232Y-886206D01*
X-1353870Y-878179D01*
X-1360779Y-871219D01*
X-1369618Y-865073D01*
X-1372158Y-862584D01*
X-1373632Y-859383D01*
X-1373936Y-855827D01*
X-1373022Y-852424D01*
X-1369415Y-844753D01*
X-1366926Y-835304D01*
X-1366012Y-825500D01*
X-1366926Y-815695D01*
X-1369415Y-806246D01*
X-1373632Y-797306D01*
X-1379270Y-789279D01*
X-1386179Y-782320D01*
X-1394256Y-776681D01*
X-1403096Y-772566D01*
X-1412595Y-770026D01*
X-1422349Y-769162D01*
X-1432204Y-770026D01*
X-1441704Y-772566D01*
X-1450594Y-776681D01*
X-1458671Y-782320D01*
X-1460246Y-783894D01*
X-1463548Y-786130D01*
X-1467408Y-786892D01*
X-1910842Y-786892D01*
X-1914702Y-786130D01*
X-1918004Y-783894D01*
X-1919579Y-782320D01*
X-1927656Y-776681D01*
X-1936496Y-772566D01*
X-1945995Y-770026D01*
X-1955749Y-769162D01*
X-1965604Y-770026D01*
X-1975104Y-772566D01*
X-1983993Y-776681D01*
X-1992071Y-782320D01*
X-1998980Y-789279D01*
X-2004618Y-797306D01*
X-2008784Y-806246D01*
X-2009851Y-810260D01*
X-2011781Y-814019D01*
X-2015032Y-816660D01*
X-2019147Y-817727D01*
X-2023313Y-817067D01*
X-2026869Y-814781D01*
X-2033879Y-807720D01*
X-2041956Y-802081D01*
X-2050796Y-797966D01*
X-2060295Y-795426D01*
X-2070049Y-794562D01*
X-2079904Y-795426D01*
X-2089404Y-797966D01*
X-2098294Y-802081D01*
X-2106371Y-807720D01*
X-2113280Y-814679D01*
X-2118918Y-822706D01*
X-2123084Y-831646D01*
X-2125624Y-841095D01*
X-2126488Y-850900D01*
X-2125624Y-860704D01*
X-2123084Y-870153D01*
X-2118918Y-879094D01*
X-2113280Y-887120D01*
X-2106371Y-894080D01*
X-2098294Y-899718D01*
X-2089404Y-903833D01*
X-2079904Y-906373D01*
X-2071878Y-907084D01*
X-2068474Y-907999D01*
X-2065528Y-910031D01*
X-2034235Y-941324D01*
X-2027986Y-946454D01*
X-2021382Y-950010D01*
X-2014169Y-952195D01*
X-2006092Y-953008D01*
X-1442008Y-953008D01*
X-1438148Y-953769D01*
X-1434846Y-956005D01*
X-1433271Y-957580D01*
X-1425194Y-963218D01*
X-1416304Y-967333D01*
X-1406804Y-969873D01*
G37*
G36*
X731672Y-827074D02*
G01*
X746201Y-826160D01*
X760476Y-823468D01*
X774395Y-818946D01*
X787552Y-812749D01*
X799795Y-804976D01*
X811022Y-795680D01*
X820978Y-785063D01*
X829513Y-773277D01*
X836523Y-760526D01*
X841908Y-747014D01*
X845515Y-732891D01*
X847344Y-718464D01*
X847344Y-703935D01*
X845515Y-689508D01*
X841908Y-675386D01*
X836523Y-661873D01*
X829513Y-649122D01*
X820978Y-637336D01*
X811022Y-626719D01*
X799795Y-617423D01*
X787552Y-609650D01*
X774395Y-603453D01*
X760476Y-598932D01*
X746201Y-596239D01*
X731672Y-595325D01*
X717143Y-596239D01*
X702868Y-598932D01*
X689000Y-603453D01*
X675843Y-609650D01*
X663600Y-617423D01*
X652322Y-626719D01*
X642416Y-637336D01*
X633831Y-649122D01*
X626872Y-661873D01*
X621436Y-675386D01*
X617829Y-689508D01*
X616000Y-703935D01*
X616000Y-718464D01*
X617829Y-732891D01*
X621436Y-747014D01*
X626872Y-760526D01*
X633831Y-773277D01*
X642416Y-785063D01*
X652322Y-795680D01*
X663600Y-804976D01*
X675843Y-812749D01*
X689000Y-818946D01*
X702868Y-823468D01*
X717143Y-826160D01*
G37*
G36*
X477672Y-827074D02*
G01*
X492201Y-826160D01*
X506476Y-823468D01*
X520395Y-818946D01*
X533552Y-812749D01*
X545795Y-804976D01*
X557022Y-795680D01*
X566978Y-785063D01*
X575513Y-773277D01*
X582523Y-760526D01*
X587908Y-747014D01*
X591515Y-732891D01*
X593344Y-718464D01*
X593344Y-703935D01*
X591515Y-689508D01*
X587908Y-675386D01*
X582523Y-661873D01*
X575513Y-649122D01*
X566978Y-637336D01*
X557022Y-626719D01*
X545795Y-617423D01*
X533552Y-609650D01*
X520395Y-603453D01*
X506476Y-598932D01*
X492201Y-596239D01*
X477672Y-595325D01*
X463143Y-596239D01*
X448868Y-598932D01*
X435000Y-603453D01*
X421843Y-609650D01*
X409600Y-617423D01*
X398322Y-626719D01*
X388416Y-637336D01*
X379831Y-649122D01*
X372872Y-661873D01*
X367436Y-675386D01*
X363829Y-689508D01*
X362000Y-703935D01*
X362000Y-718464D01*
X363829Y-732891D01*
X367436Y-747014D01*
X372872Y-760526D01*
X379831Y-773277D01*
X388416Y-785063D01*
X398322Y-795680D01*
X409600Y-804976D01*
X421843Y-812749D01*
X435000Y-818946D01*
X448868Y-823468D01*
X463143Y-826160D01*
G37*
G36*
X731672Y-573074D02*
G01*
X746201Y-572160D01*
X760476Y-569468D01*
X774395Y-564946D01*
X787552Y-558749D01*
X799795Y-550976D01*
X811022Y-541680D01*
X820978Y-531063D01*
X829513Y-519277D01*
X836523Y-506526D01*
X841908Y-493014D01*
X845515Y-478891D01*
X847344Y-464464D01*
X847344Y-449935D01*
X845515Y-435508D01*
X841908Y-421385D01*
X836523Y-407873D01*
X829513Y-395122D01*
X820978Y-383336D01*
X811022Y-372719D01*
X799795Y-363423D01*
X787552Y-355650D01*
X774395Y-349453D01*
X760476Y-344932D01*
X746201Y-342239D01*
X731672Y-341325D01*
X717143Y-342239D01*
X702868Y-344932D01*
X689000Y-349453D01*
X675843Y-355650D01*
X663600Y-363423D01*
X652322Y-372719D01*
X642416Y-383336D01*
X633831Y-395122D01*
X626872Y-407873D01*
X621436Y-421385D01*
X617829Y-435508D01*
X616000Y-449935D01*
X616000Y-464464D01*
X617829Y-478891D01*
X621436Y-493014D01*
X626872Y-506526D01*
X633831Y-519277D01*
X642416Y-531063D01*
X652322Y-541680D01*
X663600Y-550976D01*
X675843Y-558749D01*
X689000Y-564946D01*
X702868Y-569468D01*
X717143Y-572160D01*
G37*
G36*
X477672Y-573074D02*
G01*
X492201Y-572160D01*
X506476Y-569468D01*
X520395Y-564946D01*
X533552Y-558749D01*
X545795Y-550976D01*
X557022Y-541680D01*
X566978Y-531063D01*
X575513Y-519277D01*
X582523Y-506526D01*
X587908Y-493014D01*
X591515Y-478891D01*
X593344Y-464464D01*
X593344Y-449935D01*
X591515Y-435508D01*
X587908Y-421385D01*
X582523Y-407873D01*
X575513Y-395122D01*
X566978Y-383336D01*
X557022Y-372719D01*
X545795Y-363423D01*
X533552Y-355650D01*
X520395Y-349453D01*
X506476Y-344932D01*
X492201Y-342239D01*
X477672Y-341325D01*
X463143Y-342239D01*
X448868Y-344932D01*
X435000Y-349453D01*
X421843Y-355650D01*
X409600Y-363423D01*
X398322Y-372719D01*
X388416Y-383336D01*
X379831Y-395122D01*
X372872Y-407873D01*
X367436Y-421385D01*
X363829Y-435508D01*
X362000Y-449935D01*
X362000Y-464464D01*
X363829Y-478891D01*
X367436Y-493014D01*
X372872Y-506526D01*
X379831Y-519277D01*
X388416Y-531063D01*
X398322Y-541680D01*
X409600Y-550976D01*
X421843Y-558749D01*
X435000Y-564946D01*
X448868Y-569468D01*
X463143Y-572160D01*
G37*
G36*
X-2692400Y-323037D02*
G01*
X-2682646Y-322173D01*
X-2673096Y-319633D01*
X-2664256Y-315518D01*
X-2656179Y-309880D01*
X-2649270Y-302920D01*
X-2643632Y-294894D01*
X-2639466Y-285953D01*
X-2636926Y-276504D01*
X-2636062Y-266700D01*
X-2636926Y-256895D01*
X-2639466Y-247446D01*
X-2643632Y-238506D01*
X-2649270Y-230479D01*
X-2650896Y-228803D01*
X-2653131Y-225501D01*
X-2653893Y-221640D01*
X-2653893Y34747D01*
X-2653131Y38608D01*
X-2650896Y41910D01*
X-2647645Y44145D01*
X-2643733Y44907D01*
X-2639822Y44145D01*
X-2636570Y41910D01*
X-2618486Y23876D01*
X-2612237Y18745D01*
X-2605582Y15189D01*
X-2598369Y13004D01*
X-2590342Y12192D01*
X-2210308Y12192D01*
X-2202281Y13004D01*
X-2195017Y15189D01*
X-2188413Y18745D01*
X-2182164Y23876D01*
X-2138172Y67868D01*
X-2135276Y69900D01*
X-2131872Y70815D01*
X-2123795Y71526D01*
X-2114296Y74066D01*
X-2105456Y78181D01*
X-2097379Y83820D01*
X-2095804Y85394D01*
X-2092502Y87630D01*
X-2088642Y88392D01*
X-1645208Y88392D01*
X-1641348Y87630D01*
X-1638046Y85394D01*
X-1636471Y83820D01*
X-1628394Y78181D01*
X-1619504Y74066D01*
X-1610004Y71526D01*
X-1600149Y70662D01*
X-1590395Y71526D01*
X-1580896Y74066D01*
X-1572056Y78181D01*
X-1563979Y83820D01*
X-1557070Y90779D01*
X-1551432Y98806D01*
X-1547215Y107746D01*
X-1544726Y117195D01*
X-1543812Y127000D01*
X-1544726Y136804D01*
X-1547215Y146253D01*
X-1551432Y155194D01*
X-1553057Y157480D01*
X-1554683Y161544D01*
X-1554530Y165963D01*
X-1552498Y169875D01*
X-1549044Y172516D01*
X-1544726Y173482D01*
X-1518310Y173482D01*
X-1514398Y172720D01*
X-1511046Y170484D01*
X-1509522Y168910D01*
X-1501495Y163271D01*
X-1492554Y159156D01*
X-1483106Y156616D01*
X-1473301Y155752D01*
X-1463497Y156616D01*
X-1453997Y159156D01*
X-1445107Y163271D01*
X-1437081Y168910D01*
X-1430070Y175869D01*
X-1424482Y183896D01*
X-1420317Y192836D01*
X-1417828Y202285D01*
X-1416913Y212090D01*
X-1417828Y221894D01*
X-1420317Y231343D01*
X-1424482Y240284D01*
X-1430070Y248310D01*
X-1437081Y255270D01*
X-1445107Y260908D01*
X-1447292Y261924D01*
X-1450441Y264160D01*
X-1452422Y267360D01*
X-1453184Y271119D01*
X-1452422Y274878D01*
X-1450441Y278079D01*
X-1447292Y280314D01*
X-1445056Y281381D01*
X-1436979Y287020D01*
X-1430070Y293979D01*
X-1424432Y302006D01*
X-1420215Y310946D01*
X-1417726Y320395D01*
X-1416812Y330200D01*
X-1417726Y340004D01*
X-1420215Y349453D01*
X-1424432Y358394D01*
X-1430070Y366420D01*
X-1436979Y373380D01*
X-1445056Y379018D01*
X-1453896Y383133D01*
X-1463395Y385673D01*
X-1473149Y386537D01*
X-1483004Y385673D01*
X-1492504Y383133D01*
X-1501394Y379018D01*
X-1509471Y373380D01*
X-1511046Y371805D01*
X-1514348Y369570D01*
X-1518208Y368808D01*
X-1961642Y368808D01*
X-1965502Y369570D01*
X-1968804Y371805D01*
X-1970379Y373380D01*
X-1978456Y379018D01*
X-1987296Y383133D01*
X-1996795Y385673D01*
X-2006549Y386537D01*
X-2016404Y385673D01*
X-2025904Y383133D01*
X-2034793Y379018D01*
X-2042871Y373380D01*
X-2044446Y371805D01*
X-2047748Y369570D01*
X-2051608Y368808D01*
X-2653893Y368808D01*
X-2661920Y367995D01*
X-2669133Y365810D01*
X-2675839Y362254D01*
X-2682036Y357124D01*
X-2719425Y319735D01*
X-2724556Y313537D01*
X-2728112Y306832D01*
X-2730246Y299618D01*
X-2731109Y291592D01*
X-2731109Y-221792D01*
X-2731871Y-225653D01*
X-2734106Y-228955D01*
X-2735580Y-230479D01*
X-2741218Y-238506D01*
X-2745384Y-247446D01*
X-2747924Y-256895D01*
X-2748788Y-266700D01*
X-2747924Y-276504D01*
X-2745384Y-285953D01*
X-2741218Y-294894D01*
X-2735580Y-302920D01*
X-2728671Y-309880D01*
X-2720594Y-315518D01*
X-2711704Y-319633D01*
X-2702204Y-322173D01*
G37*
G36*
X952550Y515162D02*
G01*
X962304Y516026D01*
X971803Y518566D01*
X980643Y522681D01*
X988720Y528320D01*
X995629Y535279D01*
X1001268Y543306D01*
X1005484Y552246D01*
X1007973Y561695D01*
X1008887Y571500D01*
X1007973Y581304D01*
X1005484Y590753D01*
X1001268Y599694D01*
X995629Y607720D01*
X988720Y614680D01*
X980643Y620318D01*
X971803Y624433D01*
X962304Y626973D01*
X952550Y627837D01*
X942695Y626973D01*
X933196Y624433D01*
X924306Y620318D01*
X916228Y614680D01*
X914653Y613105D01*
X911352Y610870D01*
X907491Y610108D01*
X357428Y610108D01*
X353466Y610920D01*
X350113Y613206D01*
X348030Y616661D01*
X347370Y620623D01*
X348284Y624586D01*
X350672Y627837D01*
X354177Y629869D01*
X366725Y634136D01*
X379476Y640435D01*
X391261Y648309D01*
X401929Y657656D01*
X411327Y668324D01*
X419150Y680110D01*
X425399Y692810D01*
X430022Y706221D01*
X432866Y721563D01*
X337972Y721563D01*
X337972Y620268D01*
X337261Y616356D01*
X334975Y613105D01*
X331724Y610870D01*
X327863Y610108D01*
X322732Y610108D01*
X318820Y610870D01*
X315620Y613105D01*
X313334Y616356D01*
X312572Y620268D01*
X312572Y721563D01*
X217728Y721563D01*
X220573Y706221D01*
X225145Y692810D01*
X231394Y680110D01*
X239267Y668324D01*
X248615Y657656D01*
X259283Y648309D01*
X271068Y640435D01*
X283870Y634136D01*
X296367Y629869D01*
X299872Y627837D01*
X302310Y624586D01*
X303225Y620623D01*
X302564Y616661D01*
X300431Y613206D01*
X297129Y610920D01*
X293166Y610108D01*
X-861771Y610108D01*
X-865733Y610920D01*
X-869086Y613206D01*
X-871169Y616661D01*
X-871829Y620623D01*
X-870915Y624586D01*
X-868527Y627837D01*
X-865022Y629869D01*
X-852474Y634136D01*
X-839724Y640435D01*
X-827938Y648309D01*
X-817270Y657656D01*
X-807872Y668324D01*
X-800049Y680110D01*
X-793800Y692810D01*
X-789178Y706221D01*
X-786333Y721563D01*
X-881227Y721563D01*
X-881227Y620268D01*
X-881938Y616356D01*
X-884224Y613105D01*
X-887476Y610870D01*
X-891336Y610108D01*
X-896467Y610108D01*
X-900379Y610870D01*
X-903579Y613105D01*
X-905865Y616356D01*
X-906627Y620268D01*
X-906627Y721563D01*
X-1001471Y721563D01*
X-998626Y706221D01*
X-994054Y692810D01*
X-987806Y680110D01*
X-979932Y668324D01*
X-970584Y657656D01*
X-959916Y648309D01*
X-948131Y640435D01*
X-935329Y634136D01*
X-922832Y629869D01*
X-919327Y627837D01*
X-916889Y624586D01*
X-915974Y620623D01*
X-916635Y616661D01*
X-918768Y613206D01*
X-922070Y610920D01*
X-926033Y610108D01*
X-1033881Y610108D01*
X-1037742Y610870D01*
X-1041095Y613105D01*
X-1140764Y712724D01*
X-1147013Y717854D01*
X-1153617Y721410D01*
X-1160881Y723595D01*
X-1168908Y724408D01*
X-1555242Y724408D01*
X-1559102Y725170D01*
X-1562404Y727405D01*
X-1563979Y728980D01*
X-1572056Y734618D01*
X-1580896Y738733D01*
X-1590395Y741273D01*
X-1600149Y742137D01*
X-1610004Y741273D01*
X-1619504Y738733D01*
X-1628394Y734618D01*
X-1636471Y728980D01*
X-1638046Y727405D01*
X-1641348Y725170D01*
X-1645208Y724408D01*
X-1682242Y724408D01*
X-1686102Y725170D01*
X-1689404Y727405D01*
X-1690979Y728980D01*
X-1699056Y734618D01*
X-1707896Y738733D01*
X-1717395Y741273D01*
X-1727149Y742137D01*
X-1737004Y741273D01*
X-1746504Y738733D01*
X-1755393Y734618D01*
X-1763471Y728980D01*
X-1770380Y722020D01*
X-1776018Y713994D01*
X-1780184Y705053D01*
X-1782724Y695604D01*
X-1783588Y685800D01*
X-1782724Y675995D01*
X-1780184Y666546D01*
X-1776018Y657606D01*
X-1770380Y649579D01*
X-1763471Y642620D01*
X-1755393Y636981D01*
X-1746504Y632866D01*
X-1737004Y630326D01*
X-1727149Y629462D01*
X-1717395Y630326D01*
X-1707896Y632866D01*
X-1699056Y636981D01*
X-1690979Y642620D01*
X-1689404Y644194D01*
X-1686102Y646430D01*
X-1682242Y647192D01*
X-1645208Y647192D01*
X-1641348Y646430D01*
X-1638046Y644194D01*
X-1636471Y642620D01*
X-1628394Y636981D01*
X-1619504Y632866D01*
X-1610004Y630326D01*
X-1600149Y629462D01*
X-1590395Y630326D01*
X-1580896Y632866D01*
X-1572056Y636981D01*
X-1563979Y642620D01*
X-1562404Y644194D01*
X-1559102Y646430D01*
X-1555242Y647192D01*
X-1188618Y647192D01*
X-1184757Y646430D01*
X-1181404Y644194D01*
X-1081735Y544576D01*
X-1075486Y539445D01*
X-1068882Y535889D01*
X-1061669Y533704D01*
X-1053592Y532892D01*
X907491Y532892D01*
X911352Y532130D01*
X914653Y529894D01*
X916228Y528320D01*
X924306Y522681D01*
X933196Y518566D01*
X942695Y516026D01*
G37*
G36*
X-2075027Y626719D02*
G01*
X-2073605Y626821D01*
X-2059635Y629615D01*
X-2046274Y634136D01*
X-2033524Y640435D01*
X-2021738Y648309D01*
X-2011070Y657656D01*
X-2001672Y668324D01*
X-1993849Y680110D01*
X-1987600Y692810D01*
X-1982978Y706221D01*
X-1980133Y721563D01*
X-2075027Y721563D01*
G37*
G36*
X-2100427Y626719D02*
G01*
X-2100427Y721563D01*
X-2195271Y721563D01*
X-2192426Y706221D01*
X-2187854Y692810D01*
X-2181606Y680110D01*
X-2173732Y668324D01*
X-2164384Y657656D01*
X-2153716Y648309D01*
X-2141931Y640435D01*
X-2129129Y634136D01*
X-2115769Y629615D01*
X-2101799Y626821D01*
G37*
G36*
X217728Y746963D02*
G01*
X312572Y746963D01*
X312572Y841857D01*
X311200Y841756D01*
X297230Y838962D01*
X283870Y834440D01*
X271068Y828141D01*
X259283Y820267D01*
X248615Y810920D01*
X239267Y800252D01*
X231394Y788466D01*
X225145Y775766D01*
X220573Y762355D01*
G37*
G36*
X337972Y746963D02*
G01*
X432866Y746963D01*
X430022Y762355D01*
X425399Y775766D01*
X419150Y788466D01*
X411327Y800252D01*
X401929Y810920D01*
X391261Y820267D01*
X379476Y828141D01*
X366725Y834440D01*
X353364Y838962D01*
X339394Y841756D01*
X337972Y841857D01*
G37*
G36*
X-2195271Y746963D02*
G01*
X-2100427Y746963D01*
X-2100427Y827532D01*
X-2099665Y831443D01*
X-2097379Y834694D01*
X-2094179Y836930D01*
X-2090267Y837692D01*
X-2085136Y837692D01*
X-2081275Y836930D01*
X-2078024Y834694D01*
X-2075738Y831443D01*
X-2075027Y827532D01*
X-2075027Y746963D01*
X-1980133Y746963D01*
X-1982978Y762355D01*
X-1987600Y775766D01*
X-1993849Y788466D01*
X-2001672Y800252D01*
X-2011070Y810920D01*
X-2021332Y819912D01*
X-2023770Y823163D01*
X-2024786Y827074D01*
X-2024125Y831087D01*
X-2021941Y834542D01*
X-2018588Y836879D01*
X-2014626Y837692D01*
X-966978Y837692D01*
X-963015Y836879D01*
X-959713Y834542D01*
X-957529Y831087D01*
X-956868Y827074D01*
X-957884Y823163D01*
X-960272Y819912D01*
X-970584Y810920D01*
X-979932Y800252D01*
X-987806Y788466D01*
X-994054Y775766D01*
X-998626Y762355D01*
X-1001471Y746963D01*
X-906627Y746963D01*
X-906627Y827532D01*
X-905865Y831443D01*
X-903579Y834694D01*
X-900379Y836930D01*
X-896467Y837692D01*
X-891336Y837692D01*
X-887476Y836930D01*
X-884224Y834694D01*
X-881938Y831443D01*
X-881227Y827532D01*
X-881227Y746963D01*
X-786333Y746963D01*
X-789178Y762355D01*
X-793800Y775766D01*
X-800049Y788466D01*
X-807872Y800252D01*
X-817270Y810920D01*
X-827532Y819912D01*
X-829970Y823163D01*
X-830986Y827074D01*
X-830326Y831087D01*
X-828141Y834542D01*
X-824788Y836879D01*
X-820826Y837692D01*
X-438708Y837692D01*
X-434848Y836930D01*
X-431546Y834694D01*
X-429971Y833119D01*
X-421893Y827481D01*
X-413004Y823366D01*
X-403504Y820826D01*
X-393649Y819962D01*
X-383895Y820826D01*
X-374396Y823366D01*
X-365556Y827481D01*
X-357479Y833119D01*
X-350570Y840079D01*
X-344932Y848106D01*
X-340715Y857046D01*
X-338226Y866495D01*
X-337312Y876300D01*
X-338226Y886104D01*
X-340715Y895553D01*
X-344932Y904494D01*
X-350570Y912520D01*
X-357479Y919480D01*
X-365556Y925118D01*
X-374396Y929233D01*
X-383895Y931773D01*
X-393649Y932637D01*
X-403504Y931773D01*
X-413004Y929233D01*
X-421893Y925118D01*
X-429971Y919480D01*
X-431546Y917905D01*
X-434848Y915669D01*
X-438708Y914908D01*
X-847902Y914908D01*
X-852322Y915924D01*
X-855878Y918718D01*
X-857859Y922782D01*
X-857859Y927252D01*
X-855929Y931316D01*
X-852424Y934161D01*
X-839724Y940460D01*
X-827938Y948334D01*
X-817270Y957681D01*
X-807872Y968349D01*
X-800049Y980135D01*
X-793800Y992835D01*
X-789178Y1006246D01*
X-786485Y1020165D01*
X-785520Y1034287D01*
X-786485Y1048461D01*
X-789178Y1062380D01*
X-793800Y1075791D01*
X-800049Y1088491D01*
X-807872Y1100277D01*
X-820928Y1115263D01*
X-821944Y1119174D01*
X-821283Y1123188D01*
X-819099Y1126642D01*
X-815695Y1128979D01*
X-811733Y1129792D01*
X-464210Y1129792D01*
X-456133Y1130604D01*
X-448970Y1132789D01*
X-442315Y1136345D01*
X-436067Y1141476D01*
X-405892Y1171651D01*
X-402132Y1174038D01*
X-397764Y1174597D01*
X-393547Y1173226D01*
X-390347Y1170228D01*
X-388670Y1166114D01*
X-388924Y1161745D01*
X-390906Y1154633D01*
X-392633Y1141628D01*
X-392633Y1128572D01*
X-390906Y1115568D01*
X-387299Y1102969D01*
X-382168Y1090980D01*
X-375361Y1079804D01*
X-367080Y1069644D01*
X-357479Y1060704D01*
X-346862Y1053185D01*
X-335229Y1047140D01*
X-322884Y1042771D01*
X-310083Y1040130D01*
X-297027Y1039215D01*
X-283972Y1040130D01*
X-271170Y1042771D01*
X-258825Y1047140D01*
X-247142Y1053185D01*
X-236524Y1060704D01*
X-226974Y1069644D01*
X-218694Y1079804D01*
X-211886Y1090980D01*
X-206654Y1102969D01*
X-203149Y1115568D01*
X-201371Y1128572D01*
X-201371Y1141628D01*
X-203149Y1154633D01*
X-206654Y1167231D01*
X-211886Y1179220D01*
X-218694Y1190396D01*
X-226974Y1200556D01*
X-236524Y1209497D01*
X-247142Y1217015D01*
X-258825Y1223060D01*
X-265785Y1225550D01*
X-269341Y1227683D01*
X-271729Y1231036D01*
X-272542Y1235100D01*
X-271729Y1239164D01*
X-269341Y1242517D01*
X-265785Y1244650D01*
X-258825Y1247140D01*
X-247142Y1253185D01*
X-236524Y1260703D01*
X-226974Y1269644D01*
X-218694Y1279804D01*
X-211886Y1290980D01*
X-206654Y1302969D01*
X-203149Y1315567D01*
X-201371Y1328572D01*
X-201371Y1341628D01*
X-203149Y1354632D01*
X-206654Y1367231D01*
X-211886Y1379220D01*
X-218694Y1390396D01*
X-226974Y1400556D01*
X-236524Y1409496D01*
X-247142Y1417015D01*
X-258825Y1423060D01*
X-265785Y1425549D01*
X-269341Y1427683D01*
X-271729Y1431036D01*
X-272542Y1435100D01*
X-271729Y1439164D01*
X-269341Y1442516D01*
X-265785Y1444650D01*
X-258825Y1447139D01*
X-247142Y1453184D01*
X-236524Y1460703D01*
X-226974Y1469644D01*
X-218694Y1479804D01*
X-211886Y1490980D01*
X-206654Y1502968D01*
X-203149Y1515567D01*
X-201371Y1528572D01*
X-201371Y1541627D01*
X-203149Y1554632D01*
X-206654Y1567230D01*
X-211886Y1579219D01*
X-218694Y1590395D01*
X-226974Y1600555D01*
X-236524Y1609496D01*
X-243636Y1614525D01*
X-246481Y1617675D01*
X-247904Y1621688D01*
X-247497Y1625904D01*
X-245414Y1629613D01*
X-241960Y1632102D01*
X-237744Y1632966D01*
X-227533Y1632966D01*
X-221284Y1633728D01*
X-215747Y1635607D01*
X-210870Y1638706D01*
X-206806Y1642770D01*
X-203758Y1647698D01*
X-201828Y1653133D01*
X-201117Y1659483D01*
X-201117Y1810715D01*
X-201828Y1817065D01*
X-203758Y1822500D01*
X-206806Y1827428D01*
X-210870Y1831492D01*
X-215747Y1834591D01*
X-221284Y1836470D01*
X-227533Y1837182D01*
X-366471Y1837182D01*
X-372770Y1836470D01*
X-378256Y1834591D01*
X-383133Y1831492D01*
X-387197Y1827428D01*
X-390245Y1822500D01*
X-392176Y1817065D01*
X-392938Y1810715D01*
X-392938Y1783842D01*
X-393649Y1779981D01*
X-395935Y1776679D01*
X-399186Y1774494D01*
X-403098Y1773682D01*
X-831240Y1773682D01*
X-835456Y1774596D01*
X-838911Y1777187D01*
X-840994Y1780895D01*
X-841349Y1785213D01*
X-839927Y1789226D01*
X-836930Y1792325D01*
X-827938Y1798320D01*
X-817270Y1807667D01*
X-807872Y1818335D01*
X-800049Y1830120D01*
X-793800Y1842820D01*
X-789178Y1856232D01*
X-786485Y1870151D01*
X-785520Y1884273D01*
X-786485Y1898446D01*
X-789178Y1912366D01*
X-793800Y1925777D01*
X-800049Y1938477D01*
X-807872Y1950262D01*
X-817270Y1960930D01*
X-827938Y1970278D01*
X-839724Y1978152D01*
X-852474Y1984451D01*
X-865835Y1988972D01*
X-879805Y1991766D01*
X-893927Y1992680D01*
X-907999Y1991766D01*
X-921969Y1988972D01*
X-935329Y1984451D01*
X-948131Y1978152D01*
X-959916Y1970278D01*
X-970584Y1960930D01*
X-979932Y1950262D01*
X-987806Y1938477D01*
X-994054Y1925777D01*
X-994562Y1924253D01*
X-996696Y1920646D01*
X-1000099Y1918207D01*
X-1004163Y1917344D01*
X-1352042Y1917344D01*
X-1355902Y1918106D01*
X-1359204Y1920341D01*
X-1360779Y1921916D01*
X-1368856Y1927555D01*
X-1377696Y1931670D01*
X-1387195Y1934210D01*
X-1396949Y1935073D01*
X-1406804Y1934210D01*
X-1416304Y1931670D01*
X-1425194Y1927555D01*
X-1433271Y1921916D01*
X-1440180Y1914956D01*
X-1445818Y1906930D01*
X-1449984Y1897989D01*
X-1452524Y1888540D01*
X-1453388Y1878736D01*
X-1452524Y1868932D01*
X-1449984Y1859483D01*
X-1445818Y1850542D01*
X-1440180Y1842516D01*
X-1433271Y1835556D01*
X-1425194Y1829917D01*
X-1416304Y1825802D01*
X-1406804Y1823262D01*
X-1396949Y1822399D01*
X-1387195Y1823262D01*
X-1377696Y1825802D01*
X-1368856Y1829917D01*
X-1360779Y1835556D01*
X-1359204Y1837131D01*
X-1355902Y1839366D01*
X-1352042Y1840128D01*
X-999032Y1840128D01*
X-995324Y1839417D01*
X-992174Y1837436D01*
X-989888Y1834438D01*
X-987806Y1830120D01*
X-979932Y1818335D01*
X-970584Y1807667D01*
X-959916Y1798320D01*
X-950874Y1792325D01*
X-947928Y1789226D01*
X-946454Y1785213D01*
X-946861Y1780895D01*
X-948944Y1777187D01*
X-952347Y1774596D01*
X-956564Y1773682D01*
X-1745742Y1773682D01*
X-1749602Y1774494D01*
X-1752904Y1776679D01*
X-1754479Y1778254D01*
X-1762556Y1783892D01*
X-1771396Y1788058D01*
X-1780895Y1790598D01*
X-1790649Y1791462D01*
X-1800504Y1790598D01*
X-1810004Y1788058D01*
X-1818893Y1783892D01*
X-1826971Y1778254D01*
X-1833880Y1771345D01*
X-1839518Y1763268D01*
X-1843684Y1754378D01*
X-1846224Y1744878D01*
X-1847088Y1735074D01*
X-1846224Y1725320D01*
X-1843684Y1715820D01*
X-1839518Y1706930D01*
X-1833880Y1698853D01*
X-1826971Y1691944D01*
X-1818893Y1686306D01*
X-1810004Y1682140D01*
X-1800504Y1679600D01*
X-1790649Y1678736D01*
X-1780895Y1679600D01*
X-1771396Y1682140D01*
X-1762556Y1686306D01*
X-1754479Y1691944D01*
X-1752904Y1693519D01*
X-1749602Y1695704D01*
X-1745742Y1696466D01*
X-403098Y1696466D01*
X-399186Y1695704D01*
X-395935Y1693519D01*
X-393649Y1690217D01*
X-392938Y1686306D01*
X-392938Y1659483D01*
X-392176Y1653133D01*
X-390245Y1647698D01*
X-387197Y1642770D01*
X-383133Y1638706D01*
X-378256Y1635607D01*
X-368249Y1632254D01*
X-365099Y1629257D01*
X-363524Y1625193D01*
X-363728Y1620824D01*
X-365760Y1616964D01*
X-369265Y1614322D01*
X-373583Y1613408D01*
X-1618742Y1613408D01*
X-1622602Y1614170D01*
X-1625904Y1616405D01*
X-1627479Y1617980D01*
X-1635556Y1623618D01*
X-1644396Y1627733D01*
X-1653895Y1630273D01*
X-1663649Y1631137D01*
X-1673504Y1630273D01*
X-1683004Y1627733D01*
X-1691893Y1623618D01*
X-1699971Y1617980D01*
X-1706880Y1611020D01*
X-1712518Y1602994D01*
X-1716684Y1594053D01*
X-1719224Y1584604D01*
X-1720088Y1574800D01*
X-1719224Y1564995D01*
X-1716684Y1555546D01*
X-1712518Y1546606D01*
X-1706880Y1538579D01*
X-1699971Y1531620D01*
X-1691893Y1525981D01*
X-1683004Y1521866D01*
X-1673504Y1519326D01*
X-1663649Y1518462D01*
X-1653895Y1519326D01*
X-1644396Y1521866D01*
X-1635556Y1525981D01*
X-1627479Y1531620D01*
X-1625904Y1533194D01*
X-1622602Y1535430D01*
X-1618742Y1536192D01*
X-1014272Y1536192D01*
X-1010361Y1535379D01*
X-1007008Y1533144D01*
X-1004874Y1529740D01*
X-1004163Y1525778D01*
X-1005078Y1521866D01*
X-1007414Y1518564D01*
X-1019810Y1507083D01*
X-1031849Y1493469D01*
X-1042263Y1478686D01*
X-1051255Y1462938D01*
X-1058468Y1446326D01*
X-1064006Y1429105D01*
X-1067663Y1411376D01*
X-1069492Y1393342D01*
X-1069492Y1375257D01*
X-1067663Y1357223D01*
X-1064006Y1339494D01*
X-1058468Y1322273D01*
X-1051255Y1305661D01*
X-1042263Y1289913D01*
X-1031849Y1275130D01*
X-1019810Y1261516D01*
X-1006551Y1249222D01*
X-992022Y1238351D01*
X-976579Y1229055D01*
X-970838Y1226362D01*
X-967689Y1224076D01*
X-965606Y1220774D01*
X-964946Y1216914D01*
X-965860Y1213104D01*
X-968095Y1209903D01*
X-971296Y1207770D01*
X-975156Y1207008D01*
X-2006193Y1207008D01*
X-2010562Y1207973D01*
X-2014067Y1210716D01*
X-2016048Y1214729D01*
X-2016201Y1219149D01*
X-2014372Y1223213D01*
X-2010968Y1226159D01*
X-1997151Y1233525D01*
X-1982063Y1243634D01*
X-1968246Y1255217D01*
X-1955546Y1268171D01*
X-1944319Y1282395D01*
X-1934565Y1297686D01*
X-1926539Y1313840D01*
X-1920138Y1330807D01*
X-1915515Y1348333D01*
X-1912670Y1366215D01*
X-1911756Y1384300D01*
X-1912670Y1402384D01*
X-1915515Y1420266D01*
X-1920138Y1437792D01*
X-1926539Y1454759D01*
X-1934565Y1470914D01*
X-1944319Y1486204D01*
X-1955546Y1500428D01*
X-1968246Y1513382D01*
X-1982063Y1524965D01*
X-1997151Y1535074D01*
X-2013153Y1543608D01*
X-2029917Y1550416D01*
X-2047290Y1555496D01*
X-2065070Y1558747D01*
X-2083104Y1560118D01*
X-2101240Y1559661D01*
X-2119172Y1557324D01*
X-2136851Y1553210D01*
X-2153970Y1547215D01*
X-2170379Y1539544D01*
X-2185822Y1530248D01*
X-2200351Y1519377D01*
X-2213610Y1507083D01*
X-2225649Y1493469D01*
X-2236063Y1478686D01*
X-2245055Y1462938D01*
X-2252268Y1446326D01*
X-2257806Y1429105D01*
X-2261514Y1411376D01*
X-2263343Y1393342D01*
X-2263343Y1375257D01*
X-2261514Y1357223D01*
X-2257806Y1339494D01*
X-2252268Y1322273D01*
X-2245055Y1305661D01*
X-2236063Y1289913D01*
X-2225649Y1275130D01*
X-2213610Y1261516D01*
X-2200351Y1249222D01*
X-2185822Y1238351D01*
X-2170379Y1229055D01*
X-2164638Y1226362D01*
X-2161489Y1224076D01*
X-2159406Y1220774D01*
X-2158746Y1216914D01*
X-2159660Y1213104D01*
X-2161895Y1209903D01*
X-2165096Y1207770D01*
X-2168956Y1207008D01*
X-2215642Y1207008D01*
X-2219502Y1207770D01*
X-2222804Y1210005D01*
X-2224379Y1211580D01*
X-2232456Y1217218D01*
X-2241296Y1221333D01*
X-2250795Y1223873D01*
X-2260600Y1224737D01*
X-2270404Y1223873D01*
X-2279904Y1221333D01*
X-2288794Y1217218D01*
X-2296871Y1211580D01*
X-2303780Y1204620D01*
X-2309418Y1196594D01*
X-2313584Y1187653D01*
X-2316124Y1178204D01*
X-2316988Y1168400D01*
X-2316124Y1158595D01*
X-2313584Y1149146D01*
X-2309418Y1140206D01*
X-2303780Y1132179D01*
X-2296871Y1125220D01*
X-2288794Y1119581D01*
X-2279904Y1115466D01*
X-2270404Y1112926D01*
X-2260600Y1112062D01*
X-2250795Y1112926D01*
X-2241296Y1115466D01*
X-2232456Y1119581D01*
X-2224379Y1125220D01*
X-2222804Y1126794D01*
X-2219502Y1129030D01*
X-2215642Y1129792D01*
X-2169871Y1129792D01*
X-2165908Y1128979D01*
X-2162556Y1126642D01*
X-2160320Y1123188D01*
X-2159711Y1119174D01*
X-2160676Y1115263D01*
X-2173732Y1100277D01*
X-2181606Y1088491D01*
X-2187854Y1075791D01*
X-2192426Y1062380D01*
X-2195271Y1046987D01*
X-2100427Y1046987D01*
X-2100427Y1119632D01*
X-2099665Y1123543D01*
X-2097379Y1126794D01*
X-2094179Y1129030D01*
X-2090267Y1129792D01*
X-2085136Y1129792D01*
X-2081275Y1129030D01*
X-2078024Y1126794D01*
X-2075738Y1123543D01*
X-2075027Y1119632D01*
X-2075027Y1046987D01*
X-1980133Y1046987D01*
X-1982978Y1062380D01*
X-1987600Y1075791D01*
X-1993849Y1088491D01*
X-2001672Y1100277D01*
X-2014728Y1115263D01*
X-2015743Y1119174D01*
X-2015083Y1123188D01*
X-2012899Y1126642D01*
X-2009495Y1128979D01*
X-2005533Y1129792D01*
X-976071Y1129792D01*
X-972108Y1128979D01*
X-968756Y1126642D01*
X-966520Y1123188D01*
X-965911Y1119174D01*
X-966927Y1115263D01*
X-979932Y1100277D01*
X-987806Y1088491D01*
X-994054Y1075791D01*
X-998626Y1062380D01*
X-1001318Y1048461D01*
X-1002334Y1034287D01*
X-1001318Y1020165D01*
X-998626Y1006246D01*
X-994054Y992835D01*
X-987806Y980135D01*
X-979932Y968349D01*
X-970584Y957681D01*
X-959916Y948334D01*
X-948131Y940460D01*
X-935431Y934161D01*
X-931926Y931316D01*
X-929995Y927252D01*
X-929995Y922782D01*
X-931926Y918718D01*
X-935532Y915924D01*
X-939901Y914908D01*
X-2041702Y914908D01*
X-2046122Y915924D01*
X-2049678Y918718D01*
X-2051659Y922782D01*
X-2051659Y927252D01*
X-2049729Y931316D01*
X-2046224Y934161D01*
X-2033524Y940460D01*
X-2021738Y948334D01*
X-2011070Y957681D01*
X-2001672Y968349D01*
X-1993849Y980135D01*
X-1987600Y992835D01*
X-1982978Y1006246D01*
X-1980133Y1021587D01*
X-2075027Y1021587D01*
X-2075027Y925068D01*
X-2075738Y921156D01*
X-2078024Y917905D01*
X-2081275Y915669D01*
X-2085136Y914908D01*
X-2090267Y914908D01*
X-2094179Y915669D01*
X-2097379Y917905D01*
X-2099665Y921156D01*
X-2100427Y925068D01*
X-2100427Y1021587D01*
X-2195271Y1021587D01*
X-2192426Y1006246D01*
X-2187854Y992835D01*
X-2181606Y980135D01*
X-2173732Y968349D01*
X-2164384Y957681D01*
X-2153716Y948334D01*
X-2141931Y940460D01*
X-2129231Y934161D01*
X-2125726Y931316D01*
X-2123795Y927252D01*
X-2123795Y922782D01*
X-2125726Y918718D01*
X-2129332Y915924D01*
X-2133701Y914908D01*
X-2139442Y914908D01*
X-2143302Y915669D01*
X-2146604Y917905D01*
X-2148179Y919480D01*
X-2156256Y925118D01*
X-2165096Y929233D01*
X-2174595Y931773D01*
X-2184349Y932637D01*
X-2194204Y931773D01*
X-2203704Y929233D01*
X-2212594Y925118D01*
X-2220671Y919480D01*
X-2227580Y912520D01*
X-2233218Y904494D01*
X-2237384Y895553D01*
X-2239924Y886104D01*
X-2240788Y876300D01*
X-2239924Y866495D01*
X-2237384Y857046D01*
X-2233218Y848106D01*
X-2227580Y840079D01*
X-2220671Y833119D01*
X-2212594Y827481D01*
X-2203704Y823366D01*
X-2194204Y820826D01*
X-2184349Y819962D01*
X-2179269Y820419D01*
X-2175357Y819962D01*
X-2171852Y818032D01*
X-2169414Y814882D01*
X-2168245Y811022D01*
X-2168804Y807059D01*
X-2170836Y803554D01*
X-2173732Y800252D01*
X-2181606Y788466D01*
X-2187854Y775766D01*
X-2192426Y762355D01*
G37*
G36*
X325272Y925931D02*
G01*
X339394Y926846D01*
X353364Y929640D01*
X366725Y934161D01*
X379476Y940460D01*
X391261Y948334D01*
X401929Y957681D01*
X411327Y968349D01*
X419150Y980135D01*
X425399Y992835D01*
X430022Y1006246D01*
X432714Y1020165D01*
X433679Y1034287D01*
X432714Y1048461D01*
X430022Y1062380D01*
X425399Y1075791D01*
X419150Y1088491D01*
X411327Y1100277D01*
X401929Y1110945D01*
X391261Y1120292D01*
X379476Y1128166D01*
X366725Y1134465D01*
X353364Y1138986D01*
X339394Y1141780D01*
X325272Y1142695D01*
X311200Y1141780D01*
X297230Y1138986D01*
X283870Y1134465D01*
X271068Y1128166D01*
X259283Y1120292D01*
X248615Y1110945D01*
X239267Y1100277D01*
X231394Y1088491D01*
X225145Y1075791D01*
X220573Y1062380D01*
X217881Y1048461D01*
X216865Y1034287D01*
X217881Y1020165D01*
X220573Y1006246D01*
X225145Y992835D01*
X231394Y980135D01*
X239267Y968349D01*
X248615Y957681D01*
X259283Y948334D01*
X271068Y940460D01*
X283870Y934161D01*
X297230Y929640D01*
X311200Y926846D01*
G37*
G36*
X-271627Y2564079D02*
G01*
X-258470Y2566771D01*
X-246125Y2571140D01*
X-234442Y2577185D01*
X-223824Y2584704D01*
X-214274Y2593644D01*
X-205994Y2603804D01*
X-199186Y2614980D01*
X-193954Y2626969D01*
X-190449Y2639568D01*
X-189534Y2646375D01*
X-271627Y2646375D01*
G37*
G36*
X329895Y1208481D02*
G01*
X347929Y1209852D01*
X365709Y1213104D01*
X383082Y1218184D01*
X399846Y1224991D01*
X415848Y1233525D01*
X430936Y1243634D01*
X444754Y1255217D01*
X457454Y1268171D01*
X468680Y1282395D01*
X478434Y1297686D01*
X486460Y1313840D01*
X492861Y1330807D01*
X497484Y1348333D01*
X500329Y1366215D01*
X501243Y1384300D01*
X500329Y1402384D01*
X497484Y1420266D01*
X492861Y1437792D01*
X486460Y1454759D01*
X478434Y1470914D01*
X468680Y1486204D01*
X457454Y1500428D01*
X444754Y1513382D01*
X430936Y1524965D01*
X415848Y1535074D01*
X399846Y1543608D01*
X383082Y1550416D01*
X365709Y1555496D01*
X347929Y1558747D01*
X329895Y1560118D01*
X311759Y1559661D01*
X293827Y1557324D01*
X276148Y1553210D01*
X259029Y1547215D01*
X242620Y1539544D01*
X227177Y1530248D01*
X212648Y1519377D01*
X199390Y1507083D01*
X187350Y1493469D01*
X176936Y1478686D01*
X167944Y1462938D01*
X160731Y1446326D01*
X155194Y1429105D01*
X151536Y1411376D01*
X149707Y1393342D01*
X149707Y1375257D01*
X151536Y1357223D01*
X155194Y1339494D01*
X160731Y1322273D01*
X167944Y1305661D01*
X176936Y1289913D01*
X187350Y1275130D01*
X199390Y1261516D01*
X212648Y1249222D01*
X227177Y1238351D01*
X242620Y1229055D01*
X259029Y1221384D01*
X276148Y1215390D01*
X293827Y1211275D01*
X311759Y1208938D01*
G37*
G36*
X325272Y1775917D02*
G01*
X339394Y1776831D01*
X353364Y1779625D01*
X366725Y1784146D01*
X379476Y1790446D01*
X391261Y1798320D01*
X401929Y1807667D01*
X411327Y1818335D01*
X419150Y1830120D01*
X421284Y1834438D01*
X423570Y1837436D01*
X426720Y1839417D01*
X430377Y1840128D01*
X793800Y1840128D01*
X797763Y1839366D01*
X801014Y1837131D01*
X802640Y1835556D01*
X810615Y1829917D01*
X819556Y1825802D01*
X829056Y1823262D01*
X838809Y1822399D01*
X848664Y1823262D01*
X858062Y1825802D01*
X867054Y1829917D01*
X875080Y1835556D01*
X881989Y1842516D01*
X887679Y1850542D01*
X891743Y1859483D01*
X894283Y1868932D01*
X895146Y1878736D01*
X894283Y1888540D01*
X891743Y1897989D01*
X887679Y1906930D01*
X881989Y1914956D01*
X875080Y1921916D01*
X867054Y1927555D01*
X858062Y1931670D01*
X848664Y1934210D01*
X838809Y1935073D01*
X829056Y1934210D01*
X819556Y1931670D01*
X810615Y1927555D01*
X802640Y1921916D01*
X801014Y1920341D01*
X797763Y1918106D01*
X793800Y1917344D01*
X435559Y1917344D01*
X431495Y1918207D01*
X428091Y1920646D01*
X425958Y1924253D01*
X425399Y1925777D01*
X419150Y1938477D01*
X411327Y1950262D01*
X401929Y1960930D01*
X391261Y1970278D01*
X379476Y1978152D01*
X366725Y1984451D01*
X353364Y1988972D01*
X339394Y1991766D01*
X325272Y1992680D01*
X311200Y1991766D01*
X297230Y1988972D01*
X283870Y1984451D01*
X271068Y1978152D01*
X259283Y1970278D01*
X248615Y1960930D01*
X239267Y1950262D01*
X231394Y1938477D01*
X225145Y1925777D01*
X220573Y1912366D01*
X217881Y1898446D01*
X216865Y1884273D01*
X217881Y1870151D01*
X220573Y1856232D01*
X225145Y1842820D01*
X231394Y1830120D01*
X239267Y1818335D01*
X248615Y1807667D01*
X259283Y1798320D01*
X271068Y1790446D01*
X283870Y1784146D01*
X297230Y1779625D01*
X311200Y1776831D01*
G37*
G36*
X-2087727Y1775917D02*
G01*
X-2073605Y1776831D01*
X-2059635Y1779625D01*
X-2046274Y1784146D01*
X-2033524Y1790446D01*
X-2021738Y1798320D01*
X-2011070Y1807667D01*
X-2001672Y1818335D01*
X-1993849Y1830120D01*
X-1987600Y1842820D01*
X-1982978Y1856232D01*
X-1980285Y1870151D01*
X-1979320Y1884273D01*
X-1980285Y1898446D01*
X-1982978Y1912366D01*
X-1987600Y1925777D01*
X-1993849Y1938477D01*
X-2001672Y1950262D01*
X-2011070Y1960930D01*
X-2021738Y1970278D01*
X-2033524Y1978152D01*
X-2046274Y1984451D01*
X-2059635Y1988972D01*
X-2073605Y1991766D01*
X-2087727Y1992680D01*
X-2101799Y1991766D01*
X-2115769Y1988972D01*
X-2129129Y1984451D01*
X-2141931Y1978152D01*
X-2153716Y1970278D01*
X-2164384Y1960930D01*
X-2173732Y1950262D01*
X-2181606Y1938477D01*
X-2187854Y1925777D01*
X-2190242Y1921510D01*
X-2193645Y1919071D01*
X-2197709Y1918207D01*
X-2647442Y1918207D01*
X-2651302Y1918970D01*
X-2654604Y1921205D01*
X-2656179Y1922780D01*
X-2664256Y1928418D01*
X-2673096Y1932533D01*
X-2682646Y1935073D01*
X-2692400Y1935937D01*
X-2702204Y1935073D01*
X-2711704Y1932533D01*
X-2720594Y1928418D01*
X-2728671Y1922780D01*
X-2735580Y1915820D01*
X-2741218Y1907793D01*
X-2745384Y1898853D01*
X-2747924Y1889404D01*
X-2748788Y1879600D01*
X-2747924Y1869795D01*
X-2745384Y1860346D01*
X-2741218Y1851406D01*
X-2735580Y1843379D01*
X-2728671Y1836420D01*
X-2720594Y1830781D01*
X-2711704Y1826666D01*
X-2702204Y1824126D01*
X-2692400Y1823262D01*
X-2682646Y1824126D01*
X-2673096Y1826666D01*
X-2664256Y1830781D01*
X-2656179Y1836420D01*
X-2654604Y1837994D01*
X-2651302Y1840230D01*
X-2647442Y1840992D01*
X-2193290Y1840992D01*
X-2189581Y1840280D01*
X-2186432Y1838299D01*
X-2184146Y1835302D01*
X-2181606Y1830120D01*
X-2173732Y1818335D01*
X-2164384Y1807667D01*
X-2153716Y1798320D01*
X-2141931Y1790446D01*
X-2129129Y1784146D01*
X-2115769Y1779625D01*
X-2101799Y1776831D01*
G37*
G36*
X-2451100Y2026462D02*
G01*
X-2441346Y2027326D01*
X-2431796Y2029866D01*
X-2422956Y2033981D01*
X-2414879Y2039620D01*
X-2413304Y2041194D01*
X-2410002Y2043430D01*
X-2406142Y2044192D01*
X907491Y2044192D01*
X911352Y2043430D01*
X914653Y2041194D01*
X916228Y2039620D01*
X924306Y2033981D01*
X933196Y2029866D01*
X942695Y2027326D01*
X952550Y2026462D01*
X962304Y2027326D01*
X971803Y2029866D01*
X980643Y2033981D01*
X988720Y2039620D01*
X995629Y2046579D01*
X1001268Y2054606D01*
X1005484Y2063546D01*
X1007973Y2072995D01*
X1008887Y2082800D01*
X1007973Y2092604D01*
X1005484Y2102053D01*
X1001268Y2110994D01*
X995629Y2119020D01*
X988720Y2125980D01*
X980643Y2131618D01*
X971803Y2135733D01*
X962304Y2138273D01*
X952550Y2139137D01*
X942695Y2138273D01*
X933196Y2135733D01*
X924306Y2131618D01*
X916228Y2125980D01*
X914653Y2124405D01*
X911352Y2122170D01*
X907491Y2121408D01*
X-2406142Y2121408D01*
X-2410002Y2122170D01*
X-2413304Y2124405D01*
X-2414879Y2125980D01*
X-2422956Y2131618D01*
X-2431796Y2135733D01*
X-2441346Y2138273D01*
X-2451100Y2139137D01*
X-2460904Y2138273D01*
X-2470404Y2135733D01*
X-2479294Y2131618D01*
X-2487371Y2125980D01*
X-2494280Y2119020D01*
X-2499918Y2110994D01*
X-2504084Y2102053D01*
X-2506624Y2092604D01*
X-2507488Y2082800D01*
X-2506624Y2072995D01*
X-2504084Y2063546D01*
X-2499918Y2054606D01*
X-2494280Y2046579D01*
X-2487371Y2039620D01*
X-2479294Y2033981D01*
X-2470404Y2029866D01*
X-2460904Y2027326D01*
G37*
G36*
X-893927Y2150719D02*
G01*
X-893927Y2245563D01*
X-988771Y2245563D01*
X-985926Y2230221D01*
X-981354Y2216810D01*
X-975106Y2204110D01*
X-967232Y2192324D01*
X-957884Y2181656D01*
X-947216Y2172309D01*
X-935431Y2164435D01*
X-922629Y2158136D01*
X-909269Y2153615D01*
X-895299Y2150821D01*
G37*
G36*
X-868527Y2150719D02*
G01*
X-867105Y2150821D01*
X-853135Y2153615D01*
X-839774Y2158136D01*
X-827024Y2164435D01*
X-815238Y2172309D01*
X-804570Y2181656D01*
X-795172Y2192324D01*
X-787349Y2204110D01*
X-781100Y2216810D01*
X-776478Y2230221D01*
X-773633Y2245563D01*
X-868527Y2245563D01*
G37*
G36*
X337972Y2150719D02*
G01*
X339394Y2150821D01*
X353364Y2153615D01*
X366725Y2158136D01*
X379476Y2164435D01*
X391261Y2172309D01*
X401929Y2181656D01*
X411327Y2192324D01*
X419150Y2204110D01*
X425399Y2216810D01*
X430022Y2230221D01*
X432866Y2245563D01*
X337972Y2245563D01*
G37*
G36*
X-2075027Y2150719D02*
G01*
X-2073605Y2150821D01*
X-2059635Y2153615D01*
X-2046274Y2158136D01*
X-2033524Y2164435D01*
X-2021738Y2172309D01*
X-2011070Y2181656D01*
X-2001672Y2192324D01*
X-1993849Y2204110D01*
X-1987600Y2216810D01*
X-1982978Y2230221D01*
X-1980133Y2245563D01*
X-2075027Y2245563D01*
G37*
G36*
X-2100427Y2150719D02*
G01*
X-2100427Y2245563D01*
X-2195271Y2245563D01*
X-2192426Y2230221D01*
X-2187854Y2216810D01*
X-2181606Y2204110D01*
X-2173732Y2192324D01*
X-2164384Y2181656D01*
X-2153716Y2172309D01*
X-2141931Y2164435D01*
X-2129129Y2158136D01*
X-2115769Y2153615D01*
X-2101799Y2150821D01*
G37*
G36*
X312572Y2150719D02*
G01*
X312572Y2245563D01*
X217728Y2245563D01*
X220573Y2230221D01*
X225145Y2216810D01*
X231394Y2204110D01*
X239267Y2192324D01*
X248615Y2181656D01*
X259283Y2172309D01*
X271068Y2164435D01*
X283870Y2158136D01*
X297230Y2153615D01*
X311200Y2150821D01*
G37*
G36*
X-868527Y2270963D02*
G01*
X-773633Y2270963D01*
X-776478Y2286355D01*
X-781100Y2299766D01*
X-787349Y2312466D01*
X-795172Y2324252D01*
X-804570Y2334920D01*
X-815238Y2344267D01*
X-827024Y2352141D01*
X-839774Y2358440D01*
X-853135Y2362962D01*
X-867105Y2365756D01*
X-868527Y2365857D01*
G37*
G36*
X-988771Y2270963D02*
G01*
X-893927Y2270963D01*
X-893927Y2365857D01*
X-895299Y2365756D01*
X-909269Y2362962D01*
X-922629Y2358440D01*
X-935431Y2352141D01*
X-947216Y2344267D01*
X-957884Y2334920D01*
X-967232Y2324252D01*
X-975106Y2312466D01*
X-981354Y2299766D01*
X-985926Y2286355D01*
G37*
G36*
X217728Y2270963D02*
G01*
X312572Y2270963D01*
X312572Y2365857D01*
X311200Y2365756D01*
X297230Y2362962D01*
X283870Y2358440D01*
X271068Y2352141D01*
X259283Y2344267D01*
X248615Y2334920D01*
X239267Y2324252D01*
X231394Y2312466D01*
X225145Y2299766D01*
X220573Y2286355D01*
G37*
G36*
X337972Y2270963D02*
G01*
X432866Y2270963D01*
X430022Y2286355D01*
X425399Y2299766D01*
X419150Y2312466D01*
X411327Y2324252D01*
X401929Y2334920D01*
X391261Y2344267D01*
X379476Y2352141D01*
X366725Y2358440D01*
X353364Y2362962D01*
X339394Y2365756D01*
X337972Y2365857D01*
G37*
G36*
X-2195271Y2270963D02*
G01*
X-2100427Y2270963D01*
X-2100427Y2364232D01*
X-2099665Y2368143D01*
X-2097379Y2371394D01*
X-2094179Y2373630D01*
X-2090267Y2374392D01*
X-2085136Y2374392D01*
X-2081275Y2373630D01*
X-2078024Y2371394D01*
X-2075738Y2368143D01*
X-2075027Y2364232D01*
X-2075027Y2270963D01*
X-1980133Y2270963D01*
X-1982978Y2286355D01*
X-1987600Y2299766D01*
X-1993849Y2312466D01*
X-2001672Y2324252D01*
X-2011070Y2334920D01*
X-2021738Y2344267D01*
X-2033524Y2352141D01*
X-2039569Y2355138D01*
X-2043074Y2357983D01*
X-2044954Y2362047D01*
X-2044954Y2366518D01*
X-2042972Y2370582D01*
X-2039467Y2373376D01*
X-2035048Y2374392D01*
X-1581708Y2374392D01*
X-1577848Y2373630D01*
X-1574546Y2371394D01*
X-1572971Y2369820D01*
X-1564894Y2364181D01*
X-1556004Y2360066D01*
X-1546504Y2357526D01*
X-1536649Y2356662D01*
X-1526895Y2357526D01*
X-1517396Y2360066D01*
X-1508556Y2364181D01*
X-1500479Y2369820D01*
X-1493570Y2376779D01*
X-1487932Y2384806D01*
X-1483715Y2393746D01*
X-1481226Y2403195D01*
X-1480312Y2413000D01*
X-1481226Y2422804D01*
X-1483715Y2432253D01*
X-1487932Y2441194D01*
X-1493570Y2449220D01*
X-1500479Y2456180D01*
X-1508556Y2461818D01*
X-1517396Y2465933D01*
X-1526895Y2468473D01*
X-1536649Y2469337D01*
X-1546504Y2468473D01*
X-1556004Y2465933D01*
X-1564894Y2461818D01*
X-1572971Y2456180D01*
X-1574546Y2454605D01*
X-1577848Y2452370D01*
X-1581708Y2451608D01*
X-2019249Y2451608D01*
X-2023465Y2452522D01*
X-2026869Y2455062D01*
X-2029002Y2458821D01*
X-2029307Y2463088D01*
X-2027885Y2467152D01*
X-2024888Y2470200D01*
X-2021738Y2472334D01*
X-2011070Y2481681D01*
X-2001672Y2492349D01*
X-1993849Y2504135D01*
X-1987600Y2516835D01*
X-1982978Y2530246D01*
X-1980133Y2545588D01*
X-2075027Y2545588D01*
X-2075027Y2461768D01*
X-2075738Y2457856D01*
X-2078024Y2454605D01*
X-2081275Y2452370D01*
X-2085136Y2451608D01*
X-2090267Y2451608D01*
X-2094179Y2452370D01*
X-2097379Y2454605D01*
X-2099665Y2457856D01*
X-2100427Y2461768D01*
X-2100427Y2545588D01*
X-2195271Y2545588D01*
X-2192426Y2530246D01*
X-2187854Y2516835D01*
X-2181606Y2504135D01*
X-2173732Y2492349D01*
X-2164384Y2481681D01*
X-2153716Y2472334D01*
X-2150567Y2470200D01*
X-2147519Y2467152D01*
X-2146147Y2463088D01*
X-2146452Y2458821D01*
X-2148535Y2455062D01*
X-2151938Y2452522D01*
X-2156206Y2451608D01*
X-2279192Y2451608D01*
X-2283104Y2452370D01*
X-2286406Y2454605D01*
X-2287981Y2456180D01*
X-2296007Y2461818D01*
X-2304948Y2465933D01*
X-2314397Y2468473D01*
X-2324201Y2469337D01*
X-2334006Y2468473D01*
X-2343454Y2465933D01*
X-2352395Y2461818D01*
X-2360422Y2456180D01*
X-2367381Y2449220D01*
X-2373020Y2441194D01*
X-2377084Y2432253D01*
X-2379675Y2422804D01*
X-2380488Y2413000D01*
X-2379675Y2403195D01*
X-2377084Y2393746D01*
X-2373020Y2384806D01*
X-2367381Y2376779D01*
X-2360422Y2369820D01*
X-2352395Y2364181D01*
X-2343454Y2360066D01*
X-2334006Y2357526D01*
X-2324201Y2356662D01*
X-2314397Y2357526D01*
X-2304948Y2360066D01*
X-2296007Y2364181D01*
X-2287981Y2369820D01*
X-2286406Y2371394D01*
X-2283104Y2373630D01*
X-2279192Y2374392D01*
X-2140356Y2374392D01*
X-2135936Y2373376D01*
X-2132431Y2370582D01*
X-2130501Y2366518D01*
X-2130501Y2362047D01*
X-2132380Y2357983D01*
X-2135835Y2355138D01*
X-2141931Y2352141D01*
X-2153716Y2344267D01*
X-2164384Y2334920D01*
X-2173732Y2324252D01*
X-2181606Y2312466D01*
X-2187854Y2299766D01*
X-2192426Y2286355D01*
G37*
G36*
X325272Y2449931D02*
G01*
X339394Y2450846D01*
X353364Y2453640D01*
X366725Y2458161D01*
X379476Y2464460D01*
X391261Y2472334D01*
X401929Y2481681D01*
X411327Y2492349D01*
X419150Y2504135D01*
X425399Y2516835D01*
X430022Y2530246D01*
X432714Y2544165D01*
X433679Y2558288D01*
X432714Y2572461D01*
X430022Y2586380D01*
X425399Y2599791D01*
X419150Y2612491D01*
X411327Y2624277D01*
X401929Y2634945D01*
X391261Y2644292D01*
X379476Y2652166D01*
X366725Y2658465D01*
X353364Y2662986D01*
X339394Y2665780D01*
X325272Y2666695D01*
X311200Y2665780D01*
X297230Y2662986D01*
X283870Y2658465D01*
X271068Y2652166D01*
X259283Y2644292D01*
X248615Y2634945D01*
X239267Y2624277D01*
X231394Y2612491D01*
X225145Y2599791D01*
X220573Y2586380D01*
X217881Y2572461D01*
X216865Y2558288D01*
X217881Y2544165D01*
X220573Y2530246D01*
X225145Y2516835D01*
X231394Y2504135D01*
X239267Y2492349D01*
X248615Y2481681D01*
X259283Y2472334D01*
X271068Y2464460D01*
X283870Y2458161D01*
X297230Y2453640D01*
X311200Y2450846D01*
G37*
G36*
X490372Y-2096312D02*
G01*
X492201Y-2096160D01*
X506476Y-2093468D01*
X520395Y-2088946D01*
X533552Y-2082749D01*
X545795Y-2074976D01*
X557022Y-2065680D01*
X566978Y-2055063D01*
X575513Y-2043277D01*
X582523Y-2030526D01*
X587908Y-2017014D01*
X591515Y-2002891D01*
X592632Y-1993900D01*
X490372Y-1993900D01*
G37*

%LPD*%
G36*
X-812393Y1207008D02*
G01*
X-816762Y1207973D01*
X-820267Y1210716D01*
X-822248Y1214729D01*
X-822401Y1219149D01*
X-820572Y1223213D01*
X-817168Y1226159D01*
X-803351Y1233525D01*
X-788263Y1243634D01*
X-774446Y1255217D01*
X-761746Y1268171D01*
X-750519Y1282395D01*
X-740765Y1297686D01*
X-732739Y1313840D01*
X-726338Y1330807D01*
X-721715Y1348333D01*
X-718870Y1366215D01*
X-717956Y1384300D01*
X-718870Y1402384D01*
X-721715Y1420266D01*
X-726338Y1437792D01*
X-732739Y1454759D01*
X-740765Y1470914D01*
X-750519Y1486204D01*
X-761746Y1500428D01*
X-774446Y1513382D01*
X-780237Y1518208D01*
X-782777Y1521460D01*
X-783844Y1525422D01*
X-783285Y1529486D01*
X-781100Y1532991D01*
X-777748Y1535379D01*
X-773734Y1536192D01*
X-402590Y1536192D01*
X-398983Y1535531D01*
X-395935Y1533702D01*
X-393649Y1530858D01*
X-392531Y1527403D01*
X-390906Y1515567D01*
X-387299Y1502968D01*
X-382168Y1490980D01*
X-375361Y1479804D01*
X-367080Y1469644D01*
X-357479Y1460703D01*
X-346862Y1453184D01*
X-335229Y1447139D01*
X-328218Y1444650D01*
X-324713Y1442516D01*
X-322326Y1439164D01*
X-321513Y1435100D01*
X-322326Y1431036D01*
X-324713Y1427683D01*
X-328218Y1425549D01*
X-335229Y1423060D01*
X-346862Y1417015D01*
X-357479Y1409496D01*
X-367080Y1400556D01*
X-375361Y1390396D01*
X-382168Y1379220D01*
X-387299Y1367231D01*
X-390906Y1354632D01*
X-392633Y1341628D01*
X-392633Y1328572D01*
X-390906Y1315567D01*
X-388112Y1305864D01*
X-387858Y1302308D01*
X-388670Y1298854D01*
X-390804Y1295958D01*
X-476758Y1210005D01*
X-480059Y1207770D01*
X-483920Y1207008D01*
G37*

%LPD*%
D10*
X-1452702Y-2857500D02*
G01*
X-1452702Y-2260600D01*
X-1528902Y-2184400D01*
X-1909902Y-2184400D01*
X-1960702Y-2133600D01*
X-1948002Y-1752600D02*
G01*
X-1973402Y-1727200D01*
X-2316302Y-1727200D01*
X-2367102Y-1778000D01*
D11*
X-1643202Y-1638300D02*
G01*
X-1554302Y-1727200D01*
X-1554302Y-2032000D01*
D10*
X-1401902Y-2882900D02*
G01*
X-1401902Y-2235200D01*
X-1490802Y-2146300D01*
X-1897202Y-2146300D01*
X-1951809Y-2091692D01*
X-2501900Y-4102100D02*
G01*
X-1401902Y-3002102D01*
X-1401902Y-2882905D01*
D11*
X-1465402Y-1943100D02*
G01*
X-1554302Y-1943100D01*
X-1257300Y-2844800D02*
G01*
X-1257300Y-2438402D01*
X-1257302Y-2438400D01*
D10*
X-1948002Y-2095500D02*
G01*
X-1973402Y-2070100D01*
X-1973402Y-2032000D01*
D11*
X-2489200Y-2743200D02*
G01*
X-2489200Y-2887802D01*
X-2405202Y-2971800D01*
X-2316302Y-2971800D01*
X-2367102Y-2463800D02*
G01*
X-2214702Y-2311400D01*
X-1554302Y-2311400D01*
X-2367102Y-1930356D02*
G01*
X-2329002Y-1930356D01*
X-2290902Y-1968456D01*
X-1833702Y-1968456D01*
X-1770202Y-2031956D01*
D10*
X-1960702Y-2133594D02*
G01*
X-2062302Y-2031994D01*
D11*
X-1554302Y-2247900D02*
G01*
X-1554302Y-2374856D01*
X-1770202Y-2032005D02*
G01*
X-1554302Y-2032005D01*
X-1554302Y-2374894D02*
G01*
X-1516202Y-2412994D01*
X-1516202Y-2794000D01*
D10*
X-1871802Y-1790700D02*
G01*
X-1884502Y-1790700D01*
X-1948002Y-1854194D01*
X-2367102Y-1854194D01*
D11*
X-1795602Y-2476494D02*
G01*
X-1795602Y-2247894D01*
D12*
X-119202Y-1206500D02*
G01*
X-665302Y-1207894D01*
X-107950Y-1917700D02*
G01*
X-654050Y-1919094D01*
X731697Y-2235200D02*
G01*
X939800Y-2235200D01*
X990600Y-2184400D01*
X990600Y-50800D01*
X939800Y0D01*
X622300Y0D01*
D11*
X-2133602Y-685800D02*
G01*
X-2654300Y-685800D01*
X-2070102Y-850900D02*
G01*
X-2006602Y-914400D01*
X-1397002Y-914400D01*
X-2260602Y-851662D02*
G01*
X-2032759Y-1079500D01*
X-1384302Y-1079500D01*
X-1955802Y-825500D02*
G01*
X-1422402Y-825500D01*
D12*
X-977902Y-1270000D02*
G01*
X-977902Y-254002D01*
X-977900Y-254000D01*
D11*
X-2692400Y1879600D02*
G01*
X-2092378Y1879600D01*
X-2087676Y1884301D01*
X-2616200Y3403600D02*
G01*
X-2092378Y3403600D01*
X-2087676Y3408301D01*
X-1397000Y3402736D02*
G01*
X-886739Y3402736D01*
X-881176Y3408298D01*
X-1397000Y1878736D02*
G01*
X-899439Y1878736D01*
X-893876Y1884298D01*
D10*
X-1257300Y-2070100D02*
G01*
X-1262202Y-2065197D01*
X-1262202Y-1562100D01*
X-1300302Y-1524000D01*
X-1744802Y-1524000D01*
X-1325702Y-2032000D02*
G01*
X-1325702Y-1612900D01*
X-1351102Y-1587500D01*
X-2082800Y-1587500D01*
X-2146300Y-1524000D01*
D11*
X-2006602Y330200D02*
G01*
X-1473200Y330200D01*
X-2133600Y127000D02*
G01*
X-1600202Y127000D01*
X-1790700Y-609600D02*
G01*
X-2438400Y-609600D01*
X-2463800Y-584200D01*
X-2463800Y-215900D01*
D12*
X-457278Y0D02*
G01*
X-977900Y0D01*
X-977900Y-254000D01*
D11*
X-2451100Y203200D02*
G01*
X-2006602Y203200D01*
X-1643202Y-1643634D02*
G01*
X-2280742Y-1643634D01*
X-2324176Y-1600200D01*
X-2324176Y-774700D01*
D12*
X-977897Y0D02*
G01*
X-977897Y212089D01*
X-1790700Y-609600D02*
G01*
X-1193800Y-609600D01*
X-1130300Y-546100D01*
X-1130300Y279400D01*
X-1079500Y330200D01*
X-114300Y330200D01*
D11*
X838822Y1878736D02*
G01*
X330885Y1878736D01*
X325323Y1884298D01*
X837328Y3402736D02*
G01*
X330885Y3402736D01*
X325323Y3408298D01*
X-2260600Y1168400D02*
G01*
X-463702Y1168400D01*
X-297002Y1335100D01*
X-2184402Y876300D02*
G01*
X-393700Y876300D01*
X-2451100Y2082800D02*
G01*
X952497Y2082800D01*
X-2324178Y2413000D02*
G01*
X-1536702Y2413000D01*
X-1600200Y685800D02*
G01*
X-1168402Y685800D01*
X-1054102Y571500D01*
X952497Y571500D01*
X-1600202Y685800D02*
G01*
X-1727202Y685800D01*
X-1663700Y1574800D02*
G01*
X-1663700Y1574800D01*
X-336702Y1574800D01*
X-297002Y1535099D01*
X-1790702Y1735099D02*
G01*
X-297002Y1735099D01*
D12*
X-571936Y3059099D02*
G01*
X-284302Y3059099D01*
D11*
X-2819400Y2705100D02*
G01*
X-438302Y2705100D01*
X-284302Y2859100D01*
X-2819400Y-2184400D02*
G01*
X-2095502Y-2184400D01*
X-2057402Y-2146300D01*
X-1473276Y212089D02*
G01*
X-1888566Y212089D01*
X-1943176Y266700D01*
X-2489276Y266700D01*
X-2527376Y228600D01*
X-2527376Y114300D01*
D10*
X-1694002Y-2527300D02*
G01*
X-1694002Y-2654300D01*
X-2494102Y-3454400D01*
X-2501900Y-3454400D01*
D11*
X-2616200Y127000D02*
G01*
X-2616200Y76200D01*
X-2590800Y50800D01*
X-2209800Y50800D01*
X-2133600Y127000D01*
X-2006676Y330200D02*
G01*
X-2654376Y330200D01*
X-2692476Y292100D01*
X-2692476Y-266700D01*
D10*
X-1181100Y-2730500D02*
G01*
X-762002Y-2730500D01*
X-736602Y-2755900D01*
X-1181100Y-2654300D02*
G01*
X-723897Y-2654300D01*
X-487502Y-2890695D01*
X-487502Y-2941576D01*
X-995502Y-2501900D02*
G01*
X-1181102Y-2501900D01*
X-1054102Y-3340100D02*
G01*
X-1249514Y-3340100D01*
X-1181178Y-2578100D02*
G01*
X-1054178Y-2578100D01*
X-1587500Y-3009900D02*
G01*
X-1587500Y-2514600D01*
X-2819400Y-2273300D02*
G01*
X-2819400Y-4597400D01*
X-312008Y-4775200D02*
G01*
X-312008Y-4508500D01*
X-2755900Y-2324100D02*
G01*
X-2755900Y-4711702D01*
X-2819397Y-4775200D01*
X-2679522Y-2362200D02*
G01*
X-2717800Y-2400302D01*
X-2717800Y-4686300D01*
X-1452702Y-2857500D02*
G01*
X-1452702Y-2963923D01*
X-2565478Y-4076700D01*
X-2565478Y-4241721D01*
X-2501900Y-4305300D01*
X-2527378Y-2527300D02*
G01*
X-2603578Y-2603500D01*
X-2603578Y-4965539D01*
X-2540000Y-5029116D01*
X-2540000Y-5029200D01*
X-2527376Y-2438400D02*
G01*
X-2641676Y-2552700D01*
X-2641676Y-5067300D01*
X-2578176Y-5130800D01*
X-2603576Y-2400300D02*
G01*
X-2679776Y-2476500D01*
X-2679776Y-5168900D01*
X-2616276Y-5232400D01*
X-2501900Y-3657600D02*
G01*
X-2501900Y-3556810D01*
X-1668602Y-2723512D01*
X-2717800Y-5842000D02*
G01*
X-2717800Y-4775202D01*
X-2717622Y-4775200D01*
X-2717800Y-4686300D01*
D11*
X-2367102Y-2463800D02*
G01*
X-2367102Y-2621102D01*
X-2489200Y-2743200D01*
D13*
G01*
X77693Y-6350000D03*
D14*
G01*
X77698Y-6096000D03*
G01*
X77698Y-5842000D03*
G01*
X77698Y-5588000D03*
G01*
X-1954301Y-5588000D03*
G01*
X-1954301Y-6350000D03*
G01*
X-1954301Y-6096000D03*
G01*
X-1954301Y-5842000D03*
D15*
G01*
X477697Y-2235197D03*
D16*
G01*
X731697Y-2235200D03*
G01*
X477697Y-1981200D03*
G01*
X731697Y-1981200D03*
G01*
X477697Y-1727200D03*
G01*
X731697Y-1727200D03*
G01*
X477697Y-1473200D03*
G01*
X731697Y-1473200D03*
G01*
X477697Y-1219200D03*
G01*
X731697Y-1219200D03*
G01*
X477697Y-965200D03*
G01*
X731697Y-965200D03*
G01*
X477697Y-711200D03*
G01*
X731697Y-711200D03*
G01*
X477697Y-457200D03*
G01*
X731697Y-457200D03*
D17*
G01*
X-2087676Y3408298D03*
G01*
X-2087676Y2558313D03*
G01*
X-2087676Y2258288D03*
G01*
X-881176Y3408298D03*
G01*
X-881176Y2558313D03*
G01*
X-881176Y2258288D03*
G01*
X325323Y3408298D03*
G01*
X325323Y2558313D03*
G01*
X325323Y2258288D03*
G01*
X-2087676Y1884298D03*
G01*
X-2087676Y1034313D03*
G01*
X-2087676Y734288D03*
G01*
X-893876Y1884298D03*
G01*
X-893876Y1034313D03*
G01*
X-893876Y734288D03*
G01*
X325323Y1884298D03*
G01*
X325323Y1034313D03*
G01*
X325323Y734288D03*
G01*
X-1440002Y-4508500D03*
G01*
X-2090013Y-4508500D03*
G01*
X-1440002Y-4058488D03*
G01*
X-2090013Y-4058488D03*
G01*
X-1764995Y-3923512D03*
G01*
X-1405001Y-4283506D03*
G01*
X-1744802Y-4635500D03*
G01*
X-2125802Y-4279900D03*
G01*
X337997Y-4508500D03*
G01*
X-312013Y-4508500D03*
G01*
X337997Y-4058488D03*
G01*
X-312013Y-4058488D03*
G01*
X13004Y-3923512D03*
G01*
X372998Y-4283506D03*
G01*
X33197Y-4635500D03*
G01*
X-347802Y-4279900D03*
D18*
G01*
X20502Y-3543292D03*
D14*
G01*
X-233502Y-3543300D03*
G01*
X-487502Y-3543300D03*
G01*
X-741502Y-3543300D03*
G01*
X-995502Y-3543300D03*
G01*
X-1249502Y-3543300D03*
G01*
X-1503502Y-3543300D03*
G01*
X-1757502Y-3543300D03*
D19*
G01*
X-284302Y2659100D03*
G01*
X-284302Y2859100D03*
G01*
X-284302Y3059099D03*
D20*
G01*
X-284302Y3259099D03*
D19*
G01*
X-297002Y1135100D03*
G01*
X-297002Y1335100D03*
G01*
X-297002Y1535099D03*
D20*
G01*
X-297002Y1735099D03*
D21*
G01*
X-2032000Y-2247900D03*
G01*
X-2158314Y-2623286D03*
G01*
X-2146300Y-1524000D03*
G01*
X-1257300Y-2070100D03*
G01*
X-1325702Y-2032000D03*
G01*
X-1744802Y-1524000D03*
G01*
X-1465402Y-1943100D03*
G01*
X-1257300Y-2844800D03*
G01*
X-2489200Y-2743200D03*
G01*
X-1257300Y-2438400D03*
G01*
X-2506802Y-1638300D03*
G01*
X-1694002Y-2247900D03*
G01*
X-1922602Y-2247900D03*
G01*
X-1922602Y-2387600D03*
G01*
X-1694002Y-2387600D03*
G01*
X-1554302Y-2247900D03*
G01*
X-2367102Y-2463800D03*
G01*
X-2481402Y-2108200D03*
G01*
X-2227402Y-1908505D03*
G01*
X-1973402Y-2032000D03*
G01*
X-2062302Y-2032000D03*
G01*
X-2367102Y-1930400D03*
G01*
X-2240102Y-1790700D03*
G01*
X-1871802Y-1790700D03*
G01*
X-1948002Y-1752600D03*
G01*
X-2367102Y-1854200D03*
G01*
X-2367102Y-1778000D03*
G01*
X-1795602Y-2476500D03*
G01*
X-1770202Y-2032000D03*
G01*
X-1643202Y-1643506D03*
G01*
X-1668602Y-2723514D03*
G01*
X-1694002Y-2527300D03*
G01*
X-1516202Y-2794000D03*
G01*
X-2316302Y-2971800D03*
G01*
X-1554302Y-2032000D03*
G01*
X-1871802Y-2476500D03*
G01*
X-1884502Y-2032000D03*
G01*
X-2501900Y-4305300D03*
G01*
X-2501900Y-4102100D03*
G01*
X-2501900Y-3454400D03*
G01*
X-2501900Y-3657600D03*
G01*
X-977900Y-254000D03*
G01*
X-1384300Y-1079500D03*
G01*
X-2616200Y127000D03*
G01*
X-2692400Y-266700D03*
G01*
X-2260600Y-851662D03*
G01*
X-2133600Y127000D03*
G01*
X-2070100Y-850900D03*
G01*
X-1397000Y-914400D03*
G01*
X-1422400Y-825500D03*
G01*
X-1955800Y-825500D03*
G01*
X-2006600Y330200D03*
G01*
X-2133600Y-1193800D03*
G01*
X-2006600Y-1193800D03*
G01*
X-2654300Y-685800D03*
G01*
X-2133600Y-685800D03*
G01*
X-2324100Y-774700D03*
G01*
X-1790700Y-609600D03*
G01*
X-977900Y-1270000D03*
G01*
X-665302Y-1207896D03*
G01*
X-119202Y-1206500D03*
G01*
X-119202Y-1917700D03*
G01*
X-654050Y-1919096D03*
G01*
X622300Y0D03*
G01*
X-2692400Y1879600D03*
G01*
X-2616200Y3403600D03*
G01*
X-1397000Y3402736D03*
G01*
X-1397000Y1878736D03*
G01*
X-1473200Y330200D03*
G01*
X-1600200Y127000D03*
G01*
X-1473276Y212089D03*
G01*
X-2006600Y203200D03*
G01*
X-2463800Y-215900D03*
G01*
X-457200Y0D03*
G01*
X-2451100Y203200D03*
G01*
X-2527300Y114300D03*
G01*
X-1790700Y-723900D03*
G01*
X-2527300Y419100D03*
G01*
X-1333500Y419100D03*
G01*
X-2501900Y-25400D03*
G01*
X-114300Y330200D03*
G01*
X-2133600Y-774700D03*
G01*
X-2451100Y-1193800D03*
G01*
X-977900Y212089D03*
G01*
X838834Y1878736D03*
G01*
X837336Y3402736D03*
G01*
X-2260600Y1168400D03*
G01*
X-393700Y876300D03*
G01*
X-2184400Y876300D03*
G01*
X-2451100Y2082800D03*
G01*
X952500Y2082800D03*
G01*
X-2324176Y2413000D03*
G01*
X-1536700Y2413000D03*
G01*
X-1600200Y685800D03*
G01*
X952500Y571500D03*
G01*
X-1727200Y685800D03*
G01*
X-1663700Y1574800D03*
G01*
X-1790700Y1735099D03*
G01*
X-571931Y3059099D03*
G01*
X-2819400Y-2184400D03*
G01*
X-2819400Y2705100D03*
G01*
X-2057400Y-2146300D03*
G01*
X-2425700Y-774700D03*
G01*
X-393700Y1435100D03*
G01*
X-1866900Y-1714500D03*
G01*
X-1181100Y-2654300D03*
G01*
X-487502Y-2941573D03*
G01*
X-1181100Y-2730500D03*
G01*
X-736600Y-2755900D03*
G01*
X-1181100Y-2501900D03*
G01*
X-995502Y-2501900D03*
G01*
X-1181100Y-2578100D03*
G01*
X-1054100Y-3340100D03*
G01*
X-1249502Y-3340100D03*
G01*
X-1054176Y-2578100D03*
G01*
X-1587500Y-2514600D03*
G01*
X-1587500Y-3009900D03*
G01*
X-2819400Y-2273300D03*
G01*
X-2755900Y-2324100D03*
G01*
X-2679700Y-2362200D03*
G01*
X-2603500Y-2400300D03*
G01*
X-2527300Y-2438400D03*
G01*
X-2527300Y-2527300D03*
G01*
X-2819400Y-4597400D03*
G01*
X-312013Y-4775200D03*
G01*
X-2819400Y-4775200D03*
G01*
X-2717800Y-5842000D03*
G01*
X-2616200Y-5232400D03*
G01*
X-2578100Y-5130800D03*
G01*
X-2540000Y-5029200D03*
G01*
X-1714500Y-3009900D03*
G01*
X-1943100Y-4699000D03*
G01*
X-1943100Y-4851400D03*
G01*
X-1346200Y-2781300D03*
G01*
X-1219200Y-2311400D03*
G01*
X-2451100Y-2463800D03*
G01*
X-1892300Y-3098800D03*
M02*
