G04 Layer: BottomSolderMaskLayer*
G04 EasyEDA v6.5.22, 2023-04-24 22:23:56*
G04 8fb2b6a2d3ec4a02888dd8b65789e586,5a6b42c53f6a479593ecc07194224c93,10*
G04 Gerber Generator version 0.2*
G04 Scale: 100 percent, Rotated: No, Reflected: No *
G04 Dimensions in millimeters *
G04 leading zeros omitted , absolute positions ,4 integer and 5 decimal *
%FSLAX45Y45*%
%MOMM*%

%AMMACRO1*1,1,$1,$2,$3*1,1,$1,$4,$5*1,1,$1,0-$2,0-$3*1,1,$1,0-$4,0-$5*20,1,$1,$2,$3,$4,$5,0*20,1,$1,$4,$5,0-$2,0-$3,0*20,1,$1,0-$2,0-$3,0-$4,0-$5,0*20,1,$1,0-$4,0-$5,$2,$3,0*4,1,4,$2,$3,$4,$5,0-$2,0-$3,0-$4,0-$5,$2,$3,0*%
%ADD10MACRO1,0.1016X0.432X0.4032X-0.432X0.4032*%
%ADD11MACRO1,0.1016X0.432X-0.4032X-0.432X-0.4032*%
%ADD12MACRO1,0.1016X-0.85X-0.85X0.85X-0.85*%
%ADD13C,1.8016*%
%ADD14MACRO1,0.1016X0.3X0.4X-0.3X0.4*%
%ADD15MACRO1,0.1016X0.5X-0.35X0.5X0.35*%
%ADD16MACRO1,0.1016X-0.3X-0.4X0.3X-0.4*%
%ADD17MACRO1,0.1016X-0.5X0.35X-0.5X-0.35*%
%ADD18C,1.8532*%
%ADD19C,1.6256*%
%ADD20C,1.7272*%
%ADD21C,3.0000*%

%LPD*%
D10*
G01*
X749300Y9652875D03*
D11*
G01*
X749300Y9803524D03*
D10*
G01*
X749300Y11176875D03*
D11*
G01*
X749300Y11327524D03*
D10*
G01*
X368300Y4814175D03*
D11*
G01*
X368300Y4964824D03*
D10*
G01*
X622299Y4814175D03*
D11*
G01*
X622299Y4964824D03*
D10*
G01*
X114300Y4814175D03*
D11*
G01*
X114300Y4964824D03*
D10*
G01*
X127000Y1918575D03*
D11*
G01*
X127000Y2069224D03*
D12*
G01*
X114300Y8255000D03*
D13*
G01*
X368300Y8255000D03*
G01*
X622300Y8255000D03*
G01*
X876300Y8255000D03*
D12*
G01*
X114300Y11811000D03*
D13*
G01*
X368300Y11811000D03*
G01*
X622300Y11811000D03*
G01*
X876300Y11811000D03*
D14*
G01*
X595299Y6990740D03*
G01*
X495300Y6990740D03*
G01*
X395300Y6990740D03*
D15*
G01*
X190299Y6852240D03*
G01*
X800298Y6852239D03*
D16*
G01*
X395300Y5963259D03*
G01*
X495300Y5963259D03*
G01*
X595299Y5963259D03*
D17*
G01*
X800300Y6101759D03*
G01*
X190301Y6101760D03*
D18*
G01*
X493511Y11333873D03*
G01*
X493511Y10483888D03*
G01*
X493511Y10183863D03*
G01*
X493511Y9809878D03*
G01*
X493511Y8959893D03*
G01*
X493511Y8659868D03*
D19*
G01*
X114300Y4163695D03*
D20*
G01*
X368300Y4163695D03*
D19*
G01*
X622300Y4163695D03*
G01*
X876300Y4163695D03*
G01*
X622300Y1663700D03*
G01*
X114300Y1663700D03*
G01*
X114300Y5216194D03*
G01*
X622300Y5216194D03*
G01*
X876300Y7716189D03*
G01*
X622300Y7716189D03*
D20*
G01*
X368300Y7716189D03*
D19*
G01*
X114300Y7716189D03*
D21*
G01*
X999997Y12337999D03*
G01*
X10705998Y12337999D03*
G01*
X1499997Y870000D03*
G01*
X10205999Y870000D03*
M02*
