G04 Layer: BoardOutlineLayer*
G04 EasyEDA v6.5.22, 2023-04-24 22:23:56*
G04 8fb2b6a2d3ec4a02888dd8b65789e586,5a6b42c53f6a479593ecc07194224c93,10*
G04 Gerber Generator version 0.2*
G04 Scale: 100 percent, Rotated: No, Reflected: No *
G04 Dimensions in millimeters *
G04 leading zeros omitted , absolute positions ,4 integer and 5 decimal *
%FSLAX45Y45*%
%MOMM*%

%ADD10C,0.2540*%
D10*
X12700Y11938000D02*
G01*
X990600Y11938000D01*
X990600Y1270000D01*
X0Y1270000D01*
X0Y11938000D01*
X1203299Y11938000D02*
G01*
X2181199Y11938000D01*
X2181199Y1270000D01*
X1190599Y1270000D01*
X1190599Y11938000D01*
X2393899Y11938000D02*
G01*
X3371799Y11938000D01*
X3371799Y1270000D01*
X2381199Y1270000D01*
X2381199Y11938000D01*
X3584498Y11938000D02*
G01*
X4562398Y11938000D01*
X4562398Y1270000D01*
X3571798Y1270000D01*
X3571798Y11938000D01*
X4775098Y11938000D02*
G01*
X5752998Y11938000D01*
X5752998Y1270000D01*
X4762398Y1270000D01*
X4762398Y11938000D01*
X5965697Y11938000D02*
G01*
X6943597Y11938000D01*
X6943597Y1270000D01*
X5952997Y1270000D01*
X5952997Y11938000D01*
X7156297Y11938000D02*
G01*
X8134197Y11938000D01*
X8134197Y1270000D01*
X7143597Y1270000D01*
X7143597Y11938000D01*
X8346897Y11938000D02*
G01*
X9324797Y11938000D01*
X9324797Y1270000D01*
X8334197Y1270000D01*
X8334197Y11938000D01*
X9537496Y11938000D02*
G01*
X10515396Y11938000D01*
X10515396Y1270000D01*
X9524796Y1270000D01*
X9524796Y11938000D01*
X10728096Y11938000D02*
G01*
X11705996Y11938000D01*
X11705996Y1270000D01*
X10715396Y1270000D01*
X10715396Y11938000D01*
X0Y12737998D02*
G01*
X11705996Y12737998D01*
X11705996Y470001D01*
X0Y470001D01*
X0Y12737998D01*
X153296Y12137999D02*
G01*
X0Y12137999D01*
X153296Y1070000D02*
G01*
X0Y1070000D01*
X1343896Y12137999D02*
G01*
X837305Y12137999D01*
X1343896Y1070000D02*
G01*
X837305Y1070000D01*
X2534495Y12137999D02*
G01*
X2027905Y12137999D01*
X2534495Y1070000D02*
G01*
X2027905Y1070000D01*
X3725095Y12137999D02*
G01*
X3218505Y12137999D01*
X3725095Y1070000D02*
G01*
X3218505Y1070000D01*
X4915695Y12137999D02*
G01*
X4409104Y12137999D01*
X4915695Y1070000D02*
G01*
X4409104Y1070000D01*
X6106294Y12137999D02*
G01*
X5599704Y12137999D01*
X6106294Y1070000D02*
G01*
X5599704Y1070000D01*
X7296894Y12137999D02*
G01*
X6790303Y12137999D01*
X7296894Y1070000D02*
G01*
X6790303Y1070000D01*
X8487493Y12137999D02*
G01*
X7980903Y12137999D01*
X8487493Y1070000D02*
G01*
X7980903Y1070000D01*
X9678093Y12137999D02*
G01*
X9171503Y12137999D01*
X9678093Y1070000D02*
G01*
X9171503Y1070000D01*
X10868693Y12137999D02*
G01*
X10362102Y12137999D01*
X10868693Y1070000D02*
G01*
X10362102Y1070000D01*
X11705996Y12137999D02*
G01*
X11552702Y12137999D01*
X11705996Y1070000D02*
G01*
X11552702Y1070000D01*
X1181432Y6946003D02*
G01*
X999766Y6946003D01*
X1181432Y6261994D02*
G01*
X999766Y6261994D01*
X2372032Y6946003D02*
G01*
X2190366Y6946003D01*
X2372032Y6261994D02*
G01*
X2190366Y6261994D01*
X3562631Y6946003D02*
G01*
X3380966Y6946003D01*
X3562631Y6261994D02*
G01*
X3380966Y6261994D01*
X4753231Y6946003D02*
G01*
X4571565Y6946003D01*
X4753231Y6261994D02*
G01*
X4571565Y6261994D01*
X5943831Y6946003D02*
G01*
X5762165Y6946003D01*
X5943831Y6261994D02*
G01*
X5762165Y6261994D01*
X7134430Y6946003D02*
G01*
X6952764Y6946003D01*
X7134430Y6261994D02*
G01*
X6952764Y6261994D01*
X8325030Y6946003D02*
G01*
X8143364Y6946003D01*
X8325030Y6261994D02*
G01*
X8143364Y6261994D01*
X9515629Y6946003D02*
G01*
X9333964Y6946003D01*
X9515629Y6261994D02*
G01*
X9333964Y6261994D01*
X10706229Y6946003D02*
G01*
X10524563Y6946003D01*
X10706229Y6261994D02*
G01*
X10524563Y6261994D01*
X153296Y11947166D02*
G01*
X153296Y12137999D01*
X153296Y1070000D02*
G01*
X153296Y1260833D01*
X837305Y11947166D02*
G01*
X837305Y12137999D01*
X837305Y1070000D02*
G01*
X837305Y1260833D01*
X1343896Y11947166D02*
G01*
X1343896Y12137999D01*
X1343896Y1070000D02*
G01*
X1343896Y1260833D01*
X2027905Y11947166D02*
G01*
X2027905Y12137999D01*
X2027905Y1070000D02*
G01*
X2027905Y1260833D01*
X2534495Y11947166D02*
G01*
X2534495Y12137999D01*
X2534495Y1070000D02*
G01*
X2534495Y1260833D01*
X3218505Y11947166D02*
G01*
X3218505Y12137999D01*
X3218505Y1070000D02*
G01*
X3218505Y1260833D01*
X3725095Y11947166D02*
G01*
X3725095Y12137999D01*
X3725095Y1070000D02*
G01*
X3725095Y1260833D01*
X4409104Y11947166D02*
G01*
X4409104Y12137999D01*
X4409104Y1070000D02*
G01*
X4409104Y1260833D01*
X4915695Y11947166D02*
G01*
X4915695Y12137999D01*
X4915695Y1070000D02*
G01*
X4915695Y1260833D01*
X5599704Y11947166D02*
G01*
X5599704Y12137999D01*
X5599704Y1070000D02*
G01*
X5599704Y1260833D01*
X6106294Y11947166D02*
G01*
X6106294Y12137999D01*
X6106294Y1070000D02*
G01*
X6106294Y1260833D01*
X6790303Y11947166D02*
G01*
X6790303Y12137999D01*
X6790303Y1070000D02*
G01*
X6790303Y1260833D01*
X7296894Y11947166D02*
G01*
X7296894Y12137999D01*
X7296894Y1070000D02*
G01*
X7296894Y1260833D01*
X7980903Y11947166D02*
G01*
X7980903Y12137999D01*
X7980903Y1070000D02*
G01*
X7980903Y1260833D01*
X8487493Y11947166D02*
G01*
X8487493Y12137999D01*
X8487493Y1070000D02*
G01*
X8487493Y1260833D01*
X9171503Y11947166D02*
G01*
X9171503Y12137999D01*
X9171503Y1070000D02*
G01*
X9171503Y1260833D01*
X9678093Y11947166D02*
G01*
X9678093Y12137999D01*
X9678093Y1070000D02*
G01*
X9678093Y1260833D01*
X10362102Y11947166D02*
G01*
X10362102Y12137999D01*
X10362102Y1070000D02*
G01*
X10362102Y1260833D01*
X10868693Y11947166D02*
G01*
X10868693Y12137999D01*
X10868693Y1070000D02*
G01*
X10868693Y1260833D01*
X11552702Y11947166D02*
G01*
X11552702Y12137999D01*
X11552702Y1070000D02*
G01*
X11552702Y1260833D01*

%LPD*%
M02*
