M48
METRIC,LZ,000.000
;FILE_FORMAT=3:3
;TYPE=NON_PLATED
;Layer: NPTH_Through
;EasyEDA v6.5.34, 2023-08-10 19:24:47
;a810411b0ee44f5284a9ba5631e6e320,5a6b42c53f6a479593ecc07194224c93,10
;Gerber Generator version 0.2
;Holesize 1 = 2.000 mm
T01C2.000
;Holesize 2 = 3.000 mm
T02C3.000
%
G05
G90
T01
X220345Y077724
X220345Y050574
X181445Y077724
X181445Y050574
T02
X385572Y003810
X389636Y003810
X393700Y003810
X397764Y003810
X401828Y003810
X405892Y003810
X409956Y003810
X414020Y003810
X418084Y003810
X422148Y003810
X426212Y003810
X430276Y003810
X434340Y003810
X438404Y003810
X442468Y003810
X385572Y007874
X389636Y007874
X393700Y007874
X397764Y007874
X401828Y007874
X405892Y007874
X409956Y007874
X414020Y007874
X418084Y007874
X422148Y007874
X426212Y007874
X430276Y007874
X434340Y007874
X438404Y007874
X442468Y007874
X385572Y011938
X389636Y011938
X393700Y011938
X397764Y011938
X401828Y011938
X405892Y011938
X409956Y011938
X414020Y011938
X418084Y011938
X422148Y011938
X426212Y011938
X430276Y011938
X434340Y011938
X438404Y011938
X442468Y011938
X385572Y016002
X389636Y016002
X393700Y016002
X397764Y016002
X401828Y016002
X405892Y016002
X409956Y016002
X414020Y016002
X418084Y016002
X422148Y016002
X426212Y016002
X430276Y016002
X434340Y016002
X438404Y016002
X442468Y016002
X385572Y020066
X389636Y020066
X393700Y020066
X397764Y020066
X401828Y020066
X405892Y020066
X409956Y020066
X414020Y020066
X418084Y020066
X422148Y020066
X426212Y020066
X430276Y020066
X434340Y020066
X438404Y020066
X442468Y020066
X385572Y024130
X389636Y024130
X393700Y024130
X397764Y024130
X401828Y024130
X405892Y024130
X409956Y024130
X414020Y024130
X418084Y024130
X422148Y024130
X426212Y024130
X430276Y024130
X434340Y024130
X438404Y024130
X442468Y024130
X385572Y028194
X389636Y028194
X393700Y028194
X397764Y028194
X401828Y028194
X405892Y028194
X409956Y028194
X414020Y028194
X418084Y028194
X422148Y028194
X426212Y028194
X430276Y028194
X434340Y028194
X438404Y028194
X442468Y028194
X385572Y032258
X389636Y032258
X393700Y032258
X397764Y032258
X401828Y032258
X405892Y032258
X409956Y032258
X414020Y032258
X418084Y032258
X422148Y032258
X426212Y032258
X430276Y032258
X434340Y032258
X438404Y032258
X442468Y032258
X385572Y036322
X389636Y036322
X393700Y036322
X397764Y036322
X401828Y036322
X405892Y036322
X409956Y036322
X414020Y036322
X418084Y036322
X422148Y036322
X426212Y036322
X430276Y036322
X434340Y036322
X438404Y036322
X442468Y036322
X381508Y003810
X381508Y007874
X381508Y011938
X381508Y016002
X381508Y020066
X381508Y024130
X381508Y028194
X381508Y032258
X442468Y040386
X438404Y040386
X434340Y040386
X430276Y040386
X426212Y040386
X422148Y040386
X418084Y040386
X414020Y040386
X409956Y040386
X405892Y040386
X401828Y040386
X397764Y040386
X393700Y040386
X389636Y040386
X381508Y036322
X385572Y040386
X381508Y040386
X320548Y040386
X324612Y040386
X320548Y036322
X328676Y040386
X332740Y040386
X336804Y040386
X340868Y040386
X344932Y040386
X348996Y040386
X353060Y040386
X357124Y040386
X361188Y040386
X365252Y040386
X369316Y040386
X373380Y040386
X377444Y040386
X320548Y032258
X320548Y028194
X320548Y024130
X320548Y020066
X320548Y016002
X320548Y011938
X320548Y007874
X320548Y003810
X377444Y036322
X373380Y036322
X369316Y036322
X365252Y036322
X361188Y036322
X357124Y036322
X353060Y036322
X348996Y036322
X344932Y036322
X340868Y036322
X336804Y036322
X332740Y036322
X328676Y036322
X324612Y036322
X377444Y032258
X373380Y032258
X369316Y032258
X365252Y032258
X361188Y032258
X357124Y032258
X353060Y032258
X348996Y032258
X344932Y032258
X340868Y032258
X336804Y032258
X332740Y032258
X328676Y032258
X324612Y032258
X377444Y028194
X373380Y028194
X369316Y028194
X365252Y028194
X361188Y028194
X357124Y028194
X353060Y028194
X348996Y028194
X344932Y028194
X340868Y028194
X336804Y028194
X332740Y028194
X328676Y028194
X324612Y028194
X377444Y024130
X373380Y024130
X369316Y024130
X365252Y024130
X361188Y024130
X357124Y024130
X353060Y024130
X348996Y024130
X344932Y024130
X340868Y024130
X336804Y024130
X332740Y024130
X328676Y024130
X324612Y024130
X377444Y020066
X373380Y020066
X369316Y020066
X365252Y020066
X361188Y020066
X357124Y020066
X353060Y020066
X348996Y020066
X344932Y020066
X340868Y020066
X336804Y020066
X332740Y020066
X328676Y020066
X324612Y020066
X377444Y016002
X373380Y016002
X369316Y016002
X365252Y016002
X361188Y016002
X357124Y016002
X353060Y016002
X348996Y016002
X344932Y016002
X340868Y016002
X336804Y016002
X332740Y016002
X328676Y016002
X324612Y016002
X377444Y011938
X373380Y011938
X369316Y011938
X365252Y011938
X361188Y011938
X357124Y011938
X353060Y011938
X348996Y011938
X344932Y011938
X340868Y011938
X336804Y011938
X332740Y011938
X328676Y011938
X324612Y011938
X377444Y007874
X373380Y007874
X369316Y007874
X365252Y007874
X361188Y007874
X357124Y007874
X353060Y007874
X348996Y007874
X344932Y007874
X340868Y007874
X336804Y007874
X332740Y007874
X328676Y007874
X324612Y007874
X377444Y003810
X373380Y003810
X369316Y003810
X365252Y003810
X361188Y003810
X357124Y003810
X353060Y003810
X348996Y003810
X344932Y003810
X340868Y003810
X336804Y003810
X332740Y003810
X328676Y003810
X324612Y003810
X259588Y040386
X263652Y040386
X259588Y036322
X267716Y040386
X271780Y040386
X275844Y040386
X279908Y040386
X283972Y040386
X288036Y040386
X292100Y040386
X296164Y040386
X300228Y040386
X304292Y040386
X308356Y040386
X312420Y040386
X316484Y040386
X259588Y032258
X259588Y028194
X259588Y024130
X259588Y020066
X259588Y016002
X259588Y011938
X259588Y007874
X259588Y003810
X316484Y036322
X312420Y036322
X308356Y036322
X304292Y036322
X300228Y036322
X296164Y036322
X292100Y036322
X288036Y036322
X283972Y036322
X279908Y036322
X275844Y036322
X271780Y036322
X267716Y036322
X263652Y036322
X316484Y032258
X312420Y032258
X308356Y032258
X304292Y032258
X300228Y032258
X296164Y032258
X292100Y032258
X288036Y032258
X283972Y032258
X279908Y032258
X275844Y032258
X271780Y032258
X267716Y032258
X263652Y032258
X316484Y028194
X312420Y028194
X308356Y028194
X304292Y028194
X300228Y028194
X296164Y028194
X292100Y028194
X288036Y028194
X283972Y028194
X279908Y028194
X275844Y028194
X271780Y028194
X267716Y028194
X263652Y028194
X316484Y024130
X312420Y024130
X308356Y024130
X304292Y024130
X300228Y024130
X296164Y024130
X292100Y024130
X288036Y024130
X283972Y024130
X279908Y024130
X275844Y024130
X271780Y024130
X267716Y024130
X263652Y024130
X316484Y020066
X312420Y020066
X308356Y020066
X304292Y020066
X300228Y020066
X296164Y020066
X292100Y020066
X288036Y020066
X283972Y020066
X279908Y020066
X275844Y020066
X271780Y020066
X267716Y020066
X263652Y020066
X316484Y016002
X312420Y016002
X308356Y016002
X304292Y016002
X300228Y016002
X296164Y016002
X292100Y016002
X288036Y016002
X283972Y016002
X279908Y016002
X275844Y016002
X271780Y016002
X267716Y016002
X263652Y016002
X316484Y011938
X312420Y011938
X308356Y011938
X304292Y011938
X300228Y011938
X296164Y011938
X292100Y011938
X288036Y011938
X283972Y011938
X279908Y011938
X275844Y011938
X271780Y011938
X267716Y011938
X263652Y011938
X316484Y007874
X312420Y007874
X308356Y007874
X304292Y007874
X300228Y007874
X296164Y007874
X292100Y007874
X288036Y007874
X283972Y007874
X279908Y007874
X275844Y007874
X271780Y007874
X267716Y007874
X263652Y007874
X316484Y003810
X312420Y003810
X308356Y003810
X304292Y003810
X300228Y003810
X296164Y003810
X292100Y003810
X288036Y003810
X283972Y003810
X279908Y003810
X275844Y003810
X271780Y003810
X267716Y003810
X263652Y003810
X198628Y040386
X202692Y040386
X198628Y036322
X206756Y040386
X210820Y040386
X214884Y040386
X218948Y040386
X223012Y040386
X227076Y040386
X231140Y040386
X235204Y040386
X239268Y040386
X243332Y040386
X247396Y040386
X251460Y040386
X255524Y040386
X198628Y032258
X198628Y028194
X198628Y024130
X198628Y020066
X198628Y016002
X198628Y011938
X198628Y007874
X198628Y003810
X255524Y036322
X251460Y036322
X247396Y036322
X243332Y036322
X239268Y036322
X235204Y036322
X231140Y036322
X227076Y036322
X223012Y036322
X218948Y036322
X214884Y036322
X210820Y036322
X206756Y036322
X202692Y036322
X255524Y032258
X251460Y032258
X247396Y032258
X243332Y032258
X239268Y032258
X235204Y032258
X231140Y032258
X227076Y032258
X223012Y032258
X218948Y032258
X214884Y032258
X210820Y032258
X206756Y032258
X202692Y032258
X255524Y028194
X251460Y028194
X247396Y028194
X243332Y028194
X239268Y028194
X235204Y028194
X231140Y028194
X227076Y028194
X223012Y028194
X218948Y028194
X214884Y028194
X210820Y028194
X206756Y028194
X202692Y028194
X255524Y024130
X251460Y024130
X247396Y024130
X243332Y024130
X239268Y024130
X235204Y024130
X231140Y024130
X227076Y024130
X223012Y024130
X218948Y024130
X214884Y024130
X210820Y024130
X206756Y024130
X202692Y024130
X255524Y020066
X251460Y020066
X247396Y020066
X243332Y020066
X239268Y020066
X235204Y020066
X231140Y020066
X227076Y020066
X223012Y020066
X218948Y020066
X214884Y020066
X210820Y020066
X206756Y020066
X202692Y020066
X255524Y016002
X251460Y016002
X247396Y016002
X243332Y016002
X239268Y016002
X235204Y016002
X231140Y016002
X227076Y016002
X223012Y016002
X218948Y016002
X214884Y016002
X210820Y016002
X206756Y016002
X202692Y016002
X255524Y011938
X251460Y011938
X247396Y011938
X243332Y011938
X239268Y011938
X235204Y011938
X231140Y011938
X227076Y011938
X223012Y011938
X218948Y011938
X214884Y011938
X210820Y011938
X206756Y011938
X202692Y011938
X255524Y007874
X251460Y007874
X247396Y007874
X243332Y007874
X239268Y007874
X235204Y007874
X231140Y007874
X227076Y007874
X223012Y007874
X218948Y007874
X214884Y007874
X210820Y007874
X206756Y007874
X202692Y007874
X255524Y003810
X251460Y003810
X247396Y003810
X243332Y003810
X239268Y003810
X235204Y003810
X231140Y003810
X227076Y003810
X223012Y003810
X218948Y003810
X214884Y003810
X210820Y003810
X206756Y003810
X202692Y003810
X137668Y040386
X141732Y040386
X137668Y036322
X145796Y040386
X149860Y040386
X153924Y040386
X157988Y040386
X162052Y040386
X166116Y040386
X170180Y040386
X174244Y040386
X178308Y040386
X182372Y040386
X186436Y040386
X190500Y040386
X194564Y040386
X137668Y032258
X137668Y028194
X137668Y024130
X137668Y020066
X137668Y016002
X137668Y011938
X137668Y007874
X137668Y003810
X194564Y036322
X190500Y036322
X186436Y036322
X182372Y036322
X178308Y036322
X174244Y036322
X170180Y036322
X166116Y036322
X162052Y036322
X157988Y036322
X153924Y036322
X149860Y036322
X145796Y036322
X141732Y036322
X194564Y032258
X190500Y032258
X186436Y032258
X182372Y032258
X178308Y032258
X174244Y032258
X170180Y032258
X166116Y032258
X162052Y032258
X157988Y032258
X153924Y032258
X149860Y032258
X145796Y032258
X141732Y032258
X194564Y028194
X190500Y028194
X186436Y028194
X182372Y028194
X178308Y028194
X174244Y028194
X170180Y028194
X166116Y028194
X162052Y028194
X157988Y028194
X153924Y028194
X149860Y028194
X145796Y028194
X141732Y028194
X194564Y024130
X190500Y024130
X186436Y024130
X182372Y024130
X178308Y024130
X174244Y024130
X170180Y024130
X166116Y024130
X162052Y024130
X157988Y024130
X153924Y024130
X149860Y024130
X145796Y024130
X141732Y024130
X194564Y020066
X190500Y020066
X186436Y020066
X182372Y020066
X178308Y020066
X174244Y020066
X170180Y020066
X166116Y020066
X162052Y020066
X157988Y020066
X153924Y020066
X149860Y020066
X145796Y020066
X141732Y020066
X194564Y016002
X190500Y016002
X186436Y016002
X182372Y016002
X178308Y016002
X174244Y016002
X170180Y016002
X166116Y016002
X162052Y016002
X157988Y016002
X153924Y016002
X149860Y016002
X145796Y016002
X141732Y016002
X194564Y011938
X190500Y011938
X186436Y011938
X182372Y011938
X178308Y011938
X174244Y011938
X170180Y011938
X166116Y011938
X162052Y011938
X157988Y011938
X153924Y011938
X149860Y011938
X145796Y011938
X141732Y011938
X194564Y007874
X190500Y007874
X186436Y007874
X182372Y007874
X178308Y007874
X174244Y007874
X170180Y007874
X166116Y007874
X162052Y007874
X157988Y007874
X153924Y007874
X149860Y007874
X145796Y007874
X141732Y007874
X194564Y003810
X190500Y003810
X186436Y003810
X182372Y003810
X178308Y003810
X174244Y003810
X170180Y003810
X166116Y003810
X162052Y003810
X157988Y003810
X153924Y003810
X149860Y003810
X145796Y003810
X141732Y003810
X076708Y040386
X080772Y040386
X076708Y036322
X084836Y040386
X088900Y040386
X092964Y040386
X097028Y040386
X101092Y040386
X105156Y040386
X109220Y040386
X113284Y040386
X117348Y040386
X121412Y040386
X125476Y040386
X129540Y040386
X133604Y040386
X076708Y032258
X076708Y028194
X076708Y024130
X076708Y020066
X076708Y016002
X076708Y011938
X076708Y007874
X076708Y003810
X133604Y036322
X129540Y036322
X125476Y036322
X121412Y036322
X117348Y036322
X113284Y036322
X109220Y036322
X105156Y036322
X101092Y036322
X097028Y036322
X092964Y036322
X088900Y036322
X084836Y036322
X080772Y036322
X133604Y032258
X129540Y032258
X125476Y032258
X121412Y032258
X117348Y032258
X113284Y032258
X109220Y032258
X105156Y032258
X101092Y032258
X097028Y032258
X092964Y032258
X088900Y032258
X084836Y032258
X080772Y032258
X133604Y028194
X129540Y028194
X125476Y028194
X121412Y028194
X117348Y028194
X113284Y028194
X109220Y028194
X105156Y028194
X101092Y028194
X097028Y028194
X092964Y028194
X088900Y028194
X084836Y028194
X080772Y028194
X133604Y024130
X129540Y024130
X125476Y024130
X121412Y024130
X117348Y024130
X113284Y024130
X109220Y024130
X105156Y024130
X101092Y024130
X097028Y024130
X092964Y024130
X088900Y024130
X084836Y024130
X080772Y024130
X133604Y020066
X129540Y020066
X125476Y020066
X121412Y020066
X117348Y020066
X113284Y020066
X109220Y020066
X105156Y020066
X101092Y020066
X097028Y020066
X092964Y020066
X088900Y020066
X084836Y020066
X080772Y020066
X133604Y016002
X129540Y016002
X125476Y016002
X121412Y016002
X117348Y016002
X113284Y016002
X109220Y016002
X105156Y016002
X101092Y016002
X097028Y016002
X092964Y016002
X088900Y016002
X084836Y016002
X080772Y016002
X133604Y011938
X129540Y011938
X125476Y011938
X121412Y011938
X117348Y011938
X113284Y011938
X109220Y011938
X105156Y011938
X101092Y011938
X097028Y011938
X092964Y011938
X088900Y011938
X084836Y011938
X080772Y011938
X133604Y007874
X129540Y007874
X125476Y007874
X121412Y007874
X117348Y007874
X113284Y007874
X109220Y007874
X105156Y007874
X101092Y007874
X097028Y007874
X092964Y007874
X088900Y007874
X084836Y007874
X080772Y007874
X133604Y003810
X129540Y003810
X125476Y003810
X121412Y003810
X117348Y003810
X113284Y003810
X109220Y003810
X105156Y003810
X101092Y003810
X097028Y003810
X092964Y003810
X088900Y003810
X084836Y003810
X080772Y003810
X044196Y003810
X048260Y003810
X052324Y003810
X056388Y003810
X060452Y003810
X064516Y003810
X068580Y003810
X072644Y003810
X044196Y007874
X048260Y007874
X052324Y007874
X056388Y007874
X060452Y007874
X064516Y007874
X068580Y007874
X072644Y007874
X044196Y011938
X048260Y011938
X052324Y011938
X056388Y011938
X060452Y011938
X064516Y011938
X068580Y011938
X072644Y011938
X044196Y016002
X048260Y016002
X052324Y016002
X056388Y016002
X060452Y016002
X064516Y016002
X068580Y016002
X072644Y016002
X044196Y020066
X048260Y020066
X052324Y020066
X056388Y020066
X060452Y020066
X064516Y020066
X068580Y020066
X072644Y020066
X044196Y024130
X048260Y024130
X052324Y024130
X056388Y024130
X060452Y024130
X064516Y024130
X068580Y024130
X072644Y024130
X044196Y028194
X048260Y028194
X052324Y028194
X056388Y028194
X060452Y028194
X064516Y028194
X068580Y028194
X072644Y028194
X044196Y032258
X048260Y032258
X052324Y032258
X056388Y032258
X060452Y032258
X064516Y032258
X068580Y032258
X072644Y032258
X044196Y036322
X048260Y036322
X052324Y036322
X056388Y036322
X060452Y036322
X064516Y036322
X068580Y036322
X072644Y036322
X040132Y003810
X040132Y007874
X040132Y011938
X040132Y016002
X040132Y020066
X040132Y024130
X040132Y028194
X040132Y032258
X072644Y040386
X068580Y040386
X064516Y040386
X060452Y040386
X056388Y040386
X052324Y040386
X048260Y040386
X040132Y036322
X044196Y040386
X040132Y040386
M30
