G04 Layer: TopSilkscreenLayer*
G04 EasyEDA v6.5.34, 2023-08-10 19:24:47*
G04 a810411b0ee44f5284a9ba5631e6e320,5a6b42c53f6a479593ecc07194224c93,10*
G04 Gerber Generator version 0.2*
G04 Scale: 100 percent, Rotated: No, Reflected: No *
G04 Dimensions in millimeters *
G04 leading zeros omitted , absolute positions ,4 integer and 5 decimal *
%FSLAX45Y45*%
%MOMM*%

%ADD10C,0.2032*%

%LPD*%
D10*
X3848100Y4489957D02*
G01*
X3848100Y4375404D01*
X3848100Y4489957D02*
G01*
X3924554Y4375404D01*
X3924554Y4489957D02*
G01*
X3924554Y4375404D01*
X4004056Y4489957D02*
G01*
X3960368Y4375404D01*
X4004056Y4489957D02*
G01*
X4047743Y4375404D01*
X3976877Y4413504D02*
G01*
X4031488Y4413504D01*
X4083811Y4489957D02*
G01*
X4083811Y4375404D01*
X4083811Y4489957D02*
G01*
X4160011Y4375404D01*
X4160011Y4489957D02*
G01*
X4160011Y4375404D01*
X4228845Y4489957D02*
G01*
X4217924Y4484370D01*
X4207002Y4473447D01*
X4201668Y4462526D01*
X4196079Y4446270D01*
X4196079Y4419092D01*
X4201668Y4402581D01*
X4207002Y4391660D01*
X4217924Y4380737D01*
X4228845Y4375404D01*
X4250690Y4375404D01*
X4261611Y4380737D01*
X4272534Y4391660D01*
X4277868Y4402581D01*
X4283456Y4419092D01*
X4283456Y4446270D01*
X4277868Y4462526D01*
X4272534Y4473447D01*
X4261611Y4484370D01*
X4250690Y4489957D01*
X4228845Y4489957D01*
X4319270Y4489957D02*
G01*
X4319270Y4375404D01*
X4319270Y4489957D02*
G01*
X4362958Y4375404D01*
X4406645Y4489957D02*
G01*
X4362958Y4375404D01*
X4406645Y4489957D02*
G01*
X4406645Y4375404D01*
X4442713Y4489957D02*
G01*
X4442713Y4375404D01*
X4522215Y4489957D02*
G01*
X4478527Y4375404D01*
X4522215Y4489957D02*
G01*
X4565904Y4375404D01*
X4495038Y4413504D02*
G01*
X4549647Y4413504D01*
X4685791Y4489957D02*
G01*
X4685791Y4408170D01*
X4691379Y4391660D01*
X4702302Y4380737D01*
X4718558Y4375404D01*
X4729479Y4375404D01*
X4745990Y4380737D01*
X4756911Y4391660D01*
X4762245Y4408170D01*
X4762245Y4489957D01*
X4798313Y4489957D02*
G01*
X4798313Y4375404D01*
X4798313Y4375404D02*
G01*
X4863845Y4375404D01*
X4938013Y4489957D02*
G01*
X4938013Y4375404D01*
X4899659Y4489957D02*
G01*
X4976113Y4489957D01*
X5012181Y4489957D02*
G01*
X5012181Y4375404D01*
X5012181Y4489957D02*
G01*
X5061204Y4489957D01*
X5077459Y4484370D01*
X5083047Y4479036D01*
X5088381Y4468113D01*
X5088381Y4457192D01*
X5083047Y4446270D01*
X5077459Y4440681D01*
X5061204Y4435347D01*
X5012181Y4435347D01*
X5050281Y4435347D02*
G01*
X5088381Y4375404D01*
X5168138Y4489957D02*
G01*
X5124450Y4375404D01*
X5168138Y4489957D02*
G01*
X5211825Y4375404D01*
X5140706Y4413504D02*
G01*
X5195315Y4413504D01*
X5324093Y4473447D02*
G01*
X5313172Y4484370D01*
X5296915Y4489957D01*
X5275072Y4489957D01*
X5258561Y4484370D01*
X5247640Y4473447D01*
X5247640Y4462526D01*
X5253227Y4451604D01*
X5258561Y4446270D01*
X5269484Y4440681D01*
X5302250Y4430013D01*
X5313172Y4424426D01*
X5318759Y4419092D01*
X5324093Y4408170D01*
X5324093Y4391660D01*
X5313172Y4380737D01*
X5296915Y4375404D01*
X5275072Y4375404D01*
X5258561Y4380737D01*
X5247640Y4391660D01*
X5360161Y4489957D02*
G01*
X5360161Y4375404D01*
X5360161Y4489957D02*
G01*
X5431027Y4489957D01*
X5360161Y4435347D02*
G01*
X5403850Y4435347D01*
X5360161Y4375404D02*
G01*
X5431027Y4375404D01*
X5499608Y4489957D02*
G01*
X5488940Y4484370D01*
X5478018Y4473447D01*
X5472429Y4462526D01*
X5467095Y4446270D01*
X5467095Y4419092D01*
X5472429Y4402581D01*
X5478018Y4391660D01*
X5488940Y4380737D01*
X5499608Y4375404D01*
X5521452Y4375404D01*
X5532374Y4380737D01*
X5543295Y4391660D01*
X5548884Y4402581D01*
X5554218Y4419092D01*
X5554218Y4446270D01*
X5548884Y4462526D01*
X5543295Y4473447D01*
X5532374Y4484370D01*
X5521452Y4489957D01*
X5499608Y4489957D01*
X5516118Y4397247D02*
G01*
X5548884Y4364481D01*
X5674359Y4489957D02*
G01*
X5674359Y4375404D01*
X5674359Y4375404D02*
G01*
X5739638Y4375404D01*
X5775706Y4489957D02*
G01*
X5775706Y4375404D01*
X5775706Y4489957D02*
G01*
X5846572Y4489957D01*
X5775706Y4435347D02*
G01*
X5819393Y4435347D01*
X5775706Y4375404D02*
G01*
X5846572Y4375404D01*
X5882640Y4489957D02*
G01*
X5882640Y4375404D01*
X5882640Y4489957D02*
G01*
X5920740Y4489957D01*
X5937250Y4484370D01*
X5948172Y4473447D01*
X5953506Y4462526D01*
X5959093Y4446270D01*
X5959093Y4419092D01*
X5953506Y4402581D01*
X5948172Y4391660D01*
X5937250Y4380737D01*
X5920740Y4375404D01*
X5882640Y4375404D01*
X6155436Y4473447D02*
G01*
X6144513Y4484370D01*
X6128004Y4489957D01*
X6106159Y4489957D01*
X6089904Y4484370D01*
X6078981Y4473447D01*
X6078981Y4462526D01*
X6084570Y4451604D01*
X6089904Y4446270D01*
X6100825Y4440681D01*
X6133591Y4430013D01*
X6144513Y4424426D01*
X6149847Y4419092D01*
X6155436Y4408170D01*
X6155436Y4391660D01*
X6144513Y4380737D01*
X6128004Y4375404D01*
X6106159Y4375404D01*
X6089904Y4380737D01*
X6078981Y4391660D01*
X6191250Y4489957D02*
G01*
X6191250Y4375404D01*
X6191250Y4489957D02*
G01*
X6240525Y4489957D01*
X6256781Y4484370D01*
X6262370Y4479036D01*
X6267704Y4468113D01*
X6267704Y4451604D01*
X6262370Y4440681D01*
X6256781Y4435347D01*
X6240525Y4430013D01*
X6191250Y4430013D01*
X6347459Y4489957D02*
G01*
X6303772Y4375404D01*
X6347459Y4489957D02*
G01*
X6390893Y4375404D01*
X6320027Y4413504D02*
G01*
X6374638Y4413504D01*
X6508750Y4462526D02*
G01*
X6503415Y4473447D01*
X6492493Y4484370D01*
X6481572Y4489957D01*
X6459727Y4489957D01*
X6448806Y4484370D01*
X6437884Y4473447D01*
X6432550Y4462526D01*
X6426961Y4446270D01*
X6426961Y4419092D01*
X6432550Y4402581D01*
X6437884Y4391660D01*
X6448806Y4380737D01*
X6459727Y4375404D01*
X6481572Y4375404D01*
X6492493Y4380737D01*
X6503415Y4391660D01*
X6508750Y4402581D01*
X6544818Y4489957D02*
G01*
X6544818Y4375404D01*
X6544818Y4489957D02*
G01*
X6615684Y4489957D01*
X6544818Y4435347D02*
G01*
X6588506Y4435347D01*
X6544818Y4375404D02*
G01*
X6615684Y4375404D01*
X6651752Y4489957D02*
G01*
X6651752Y4375404D01*
X6651752Y4489957D02*
G01*
X6700774Y4489957D01*
X6717284Y4484370D01*
X6722618Y4479036D01*
X6728206Y4468113D01*
X6728206Y4457192D01*
X6722618Y4446270D01*
X6717284Y4440681D01*
X6700774Y4435347D01*
X6651752Y4435347D01*
X6689852Y4435347D02*
G01*
X6728206Y4375404D01*
X6848093Y4424426D02*
G01*
X6946391Y4424426D01*
X7104379Y4489957D02*
G01*
X7104379Y4375404D01*
X7066279Y4489957D02*
G01*
X7142734Y4489957D01*
X7211313Y4489957D02*
G01*
X7200391Y4484370D01*
X7189470Y4473447D01*
X7184136Y4462526D01*
X7178547Y4446270D01*
X7178547Y4419092D01*
X7184136Y4402581D01*
X7189470Y4391660D01*
X7200391Y4380737D01*
X7211313Y4375404D01*
X7233158Y4375404D01*
X7244079Y4380737D01*
X7255002Y4391660D01*
X7260336Y4402581D01*
X7265924Y4419092D01*
X7265924Y4446270D01*
X7260336Y4462526D01*
X7255002Y4473447D01*
X7244079Y4484370D01*
X7233158Y4489957D01*
X7211313Y4489957D01*
X7301991Y4489957D02*
G01*
X7301991Y4375404D01*
X7301991Y4489957D02*
G01*
X7351013Y4489957D01*
X7367270Y4484370D01*
X7372858Y4479036D01*
X7378191Y4468113D01*
X7378191Y4451604D01*
X7372858Y4440681D01*
X7367270Y4435347D01*
X7351013Y4430013D01*
X7301991Y4430013D01*
X3860800Y4705857D02*
G01*
X3860800Y4591304D01*
X3860800Y4705857D02*
G01*
X3909822Y4705857D01*
X3926331Y4700270D01*
X3931665Y4694936D01*
X3937254Y4684013D01*
X3937254Y4667504D01*
X3931665Y4656581D01*
X3926331Y4651247D01*
X3909822Y4645913D01*
X3860800Y4645913D01*
X4016756Y4705857D02*
G01*
X3973068Y4591304D01*
X4016756Y4705857D02*
G01*
X4060443Y4591304D01*
X3989577Y4629404D02*
G01*
X4044188Y4629404D01*
X4096511Y4705857D02*
G01*
X4096511Y4591304D01*
X4096511Y4705857D02*
G01*
X4145534Y4705857D01*
X4161790Y4700270D01*
X4167377Y4694936D01*
X4172711Y4684013D01*
X4172711Y4673092D01*
X4167377Y4662170D01*
X4161790Y4656581D01*
X4145534Y4651247D01*
X4096511Y4651247D01*
X4134611Y4651247D02*
G01*
X4172711Y4591304D01*
X4246879Y4705857D02*
G01*
X4246879Y4591304D01*
X4208779Y4705857D02*
G01*
X4285234Y4705857D01*
X4405122Y4705857D02*
G01*
X4405122Y4591304D01*
X4405122Y4705857D02*
G01*
X4481575Y4591304D01*
X4481575Y4705857D02*
G01*
X4481575Y4591304D01*
X4517643Y4705857D02*
G01*
X4517643Y4624070D01*
X4522977Y4607560D01*
X4533900Y4596637D01*
X4550156Y4591304D01*
X4561077Y4591304D01*
X4577588Y4596637D01*
X4588509Y4607560D01*
X4593843Y4624070D01*
X4593843Y4705857D01*
X4629911Y4705857D02*
G01*
X4629911Y4591304D01*
X4629911Y4705857D02*
G01*
X4673600Y4591304D01*
X4717288Y4705857D02*
G01*
X4673600Y4591304D01*
X4717288Y4705857D02*
G01*
X4717288Y4591304D01*
X4753102Y4705857D02*
G01*
X4753102Y4591304D01*
X4753102Y4705857D02*
G01*
X4802377Y4705857D01*
X4818634Y4700270D01*
X4823968Y4694936D01*
X4829556Y4684013D01*
X4829556Y4673092D01*
X4823968Y4662170D01*
X4818634Y4656581D01*
X4802377Y4651247D01*
X4753102Y4651247D02*
G01*
X4802377Y4651247D01*
X4818634Y4645913D01*
X4823968Y4640326D01*
X4829556Y4629404D01*
X4829556Y4613147D01*
X4823968Y4602226D01*
X4818634Y4596637D01*
X4802377Y4591304D01*
X4753102Y4591304D01*
X4865624Y4705857D02*
G01*
X4865624Y4591304D01*
X4865624Y4705857D02*
G01*
X4936490Y4705857D01*
X4865624Y4651247D02*
G01*
X4909058Y4651247D01*
X4865624Y4591304D02*
G01*
X4936490Y4591304D01*
X4972558Y4705857D02*
G01*
X4972558Y4591304D01*
X4972558Y4705857D02*
G01*
X5021579Y4705857D01*
X5037836Y4700270D01*
X5043424Y4694936D01*
X5048758Y4684013D01*
X5048758Y4673092D01*
X5043424Y4662170D01*
X5037836Y4656581D01*
X5021579Y4651247D01*
X4972558Y4651247D01*
X5010658Y4651247D02*
G01*
X5048758Y4591304D01*
X5174234Y4678426D02*
G01*
X5174234Y4684013D01*
X5179822Y4694936D01*
X5185156Y4700270D01*
X5196077Y4705857D01*
X5217922Y4705857D01*
X5228843Y4700270D01*
X5234177Y4694936D01*
X5239765Y4684013D01*
X5239765Y4673092D01*
X5234177Y4662170D01*
X5223256Y4645913D01*
X5168900Y4591304D01*
X5245100Y4591304D01*
X5335777Y4705857D02*
G01*
X5281168Y4629404D01*
X5362956Y4629404D01*
X5335777Y4705857D02*
G01*
X5335777Y4591304D01*
X5469890Y4667504D02*
G01*
X5464556Y4651247D01*
X5453634Y4640326D01*
X5437124Y4634992D01*
X5431790Y4634992D01*
X5415279Y4640326D01*
X5404358Y4651247D01*
X5399024Y4667504D01*
X5399024Y4673092D01*
X5404358Y4689347D01*
X5415279Y4700270D01*
X5431790Y4705857D01*
X5437124Y4705857D01*
X5453634Y4700270D01*
X5464556Y4689347D01*
X5469890Y4667504D01*
X5469890Y4640326D01*
X5464556Y4613147D01*
X5453634Y4596637D01*
X5437124Y4591304D01*
X5426202Y4591304D01*
X5409945Y4596637D01*
X5404358Y4607560D01*
X5538724Y4705857D02*
G01*
X5522213Y4700270D01*
X5511291Y4684013D01*
X5505958Y4656581D01*
X5505958Y4640326D01*
X5511291Y4613147D01*
X5522213Y4596637D01*
X5538724Y4591304D01*
X5549645Y4591304D01*
X5565902Y4596637D01*
X5576824Y4613147D01*
X5582158Y4640326D01*
X5582158Y4656581D01*
X5576824Y4684013D01*
X5565902Y4700270D01*
X5549645Y4705857D01*
X5538724Y4705857D01*
X5618225Y4640326D02*
G01*
X5716524Y4640326D01*
X5785104Y4705857D02*
G01*
X5768847Y4700270D01*
X5757925Y4684013D01*
X5752338Y4656581D01*
X5752338Y4640326D01*
X5757925Y4613147D01*
X5768847Y4596637D01*
X5785104Y4591304D01*
X5796025Y4591304D01*
X5812536Y4596637D01*
X5823458Y4613147D01*
X5828791Y4640326D01*
X5828791Y4656581D01*
X5823458Y4684013D01*
X5812536Y4700270D01*
X5796025Y4705857D01*
X5785104Y4705857D01*
X5870193Y4678426D02*
G01*
X5870193Y4684013D01*
X5875781Y4694936D01*
X5881115Y4700270D01*
X5892038Y4705857D01*
X5913881Y4705857D01*
X5924804Y4700270D01*
X5930138Y4694936D01*
X5935725Y4684013D01*
X5935725Y4673092D01*
X5930138Y4662170D01*
X5919215Y4645913D01*
X5864859Y4591304D01*
X5941059Y4591304D01*
X6009893Y4705857D02*
G01*
X5993638Y4700270D01*
X5982715Y4684013D01*
X5977127Y4656581D01*
X5977127Y4640326D01*
X5982715Y4613147D01*
X5993638Y4596637D01*
X6009893Y4591304D01*
X6020815Y4591304D01*
X6037072Y4596637D01*
X6047993Y4613147D01*
X6053581Y4640326D01*
X6053581Y4656581D01*
X6047993Y4684013D01*
X6037072Y4700270D01*
X6020815Y4705857D01*
X6009893Y4705857D01*
X6089395Y4684013D02*
G01*
X6100318Y4689347D01*
X6116827Y4705857D01*
X6116827Y4591304D01*
X6236715Y4705857D02*
G01*
X6280404Y4591304D01*
X6324091Y4705857D02*
G01*
X6280404Y4591304D01*
X6392672Y4705857D02*
G01*
X6376415Y4700270D01*
X6365493Y4684013D01*
X6360159Y4656581D01*
X6360159Y4640326D01*
X6365493Y4613147D01*
X6376415Y4596637D01*
X6392672Y4591304D01*
X6403593Y4591304D01*
X6420104Y4596637D01*
X6431025Y4613147D01*
X6436359Y4640326D01*
X6436359Y4656581D01*
X6431025Y4684013D01*
X6420104Y4700270D01*
X6403593Y4705857D01*
X6392672Y4705857D01*
X6477761Y4618481D02*
G01*
X6472427Y4613147D01*
X6477761Y4607560D01*
X6483350Y4613147D01*
X6477761Y4618481D01*
X6519418Y4684013D02*
G01*
X6530340Y4689347D01*
X6546595Y4705857D01*
X6546595Y4591304D01*
M02*
