G04 Layer: TopLayer*
G04 EasyEDA v6.5.29, 2023-07-18 11:26:45*
G04 33fdc5552a5a4075a23771e626d16e97,5a6b42c53f6a479593ecc07194224c93,10*
G04 Gerber Generator version 0.2*
G04 Scale: 100 percent, Rotated: No, Reflected: No *
G04 Dimensions in millimeters *
G04 leading zeros omitted , absolute positions ,4 integer and 5 decimal *
%FSLAX45Y45*%
%MOMM*%

%AMMACRO1*21,1,$1,$2,0,0,$3*%
%ADD10C,1.4000*%
%ADD11MACRO1,1.524X1.4X0.0000*%

%LPD*%
G36*
X36068Y10185908D02*
G01*
X32156Y10186670D01*
X28905Y10188905D01*
X26670Y10192156D01*
X25908Y10196068D01*
X25908Y11901932D01*
X26670Y11905843D01*
X28905Y11909094D01*
X32156Y11911330D01*
X36068Y11912092D01*
X4027932Y11912092D01*
X4031843Y11911330D01*
X4035094Y11909094D01*
X4037329Y11905843D01*
X4038092Y11901932D01*
X4038092Y10196068D01*
X4037329Y10192156D01*
X4035094Y10188905D01*
X4031843Y10186670D01*
X4027932Y10185908D01*
X3064916Y10185908D01*
X3060598Y10186873D01*
X3057093Y10189565D01*
X2560320Y10785703D01*
X2555595Y10790123D01*
X2549702Y10793323D01*
X2544673Y10795000D01*
X2539492Y10795508D01*
X2437384Y10795508D01*
X2433167Y10796422D01*
X2429713Y10798962D01*
X2427630Y10802721D01*
X2427325Y10807039D01*
X2428798Y10811052D01*
X2431491Y10815370D01*
X2433370Y10820857D01*
X2434132Y10827156D01*
X2434132Y10883900D01*
X2344674Y10883900D01*
X2344674Y10805668D01*
X2343912Y10801756D01*
X2341727Y10798505D01*
X2338425Y10796270D01*
X2334564Y10795508D01*
X2329484Y10795508D01*
X2325573Y10796270D01*
X2322271Y10798505D01*
X2320086Y10801756D01*
X2319274Y10805668D01*
X2319274Y10883900D01*
X2237892Y10883900D01*
X2233980Y10884662D01*
X2230729Y10886897D01*
X2228494Y10890148D01*
X2227732Y10894060D01*
X2227732Y10899140D01*
X2228494Y10903051D01*
X2230729Y10906302D01*
X2233980Y10908538D01*
X2237892Y10909300D01*
X2319274Y10909300D01*
X2319274Y10992510D01*
X2256383Y10992510D01*
X2250033Y10991799D01*
X2244598Y10989868D01*
X2239670Y10986820D01*
X2235606Y10982706D01*
X2232507Y10977829D01*
X2230628Y10972342D01*
X2229916Y10966043D01*
X2229916Y10955832D01*
X2229002Y10951667D01*
X2226513Y10948212D01*
X2222804Y10946130D01*
X2218588Y10945723D01*
X2214575Y10947095D01*
X2211425Y10949940D01*
X2206396Y10957102D01*
X2197455Y10966653D01*
X2187295Y10974933D01*
X2176119Y10981740D01*
X2164130Y10986922D01*
X2151532Y10990478D01*
X2138527Y10992256D01*
X2125472Y10992256D01*
X2112467Y10990478D01*
X2099868Y10986922D01*
X2087880Y10981740D01*
X2076704Y10974933D01*
X2066543Y10966653D01*
X2057603Y10957102D01*
X2050084Y10946434D01*
X2044039Y10934801D01*
X2041550Y10927842D01*
X2039416Y10924286D01*
X2036064Y10921898D01*
X2032000Y10921085D01*
X2027936Y10921898D01*
X2024583Y10924286D01*
X2022449Y10927842D01*
X2019960Y10934801D01*
X2013915Y10946434D01*
X2006396Y10957102D01*
X1997456Y10966653D01*
X1987296Y10974933D01*
X1976120Y10981740D01*
X1964131Y10986922D01*
X1951532Y10990478D01*
X1938528Y10992256D01*
X1925472Y10992256D01*
X1912467Y10990478D01*
X1899869Y10986922D01*
X1887880Y10981740D01*
X1876704Y10974933D01*
X1866544Y10966653D01*
X1857603Y10957102D01*
X1850085Y10946434D01*
X1844039Y10934801D01*
X1841550Y10927842D01*
X1839417Y10924286D01*
X1836064Y10921898D01*
X1832000Y10921085D01*
X1827936Y10921898D01*
X1824583Y10924286D01*
X1822450Y10927842D01*
X1819960Y10934801D01*
X1813915Y10946434D01*
X1806397Y10957102D01*
X1797456Y10966653D01*
X1787296Y10974933D01*
X1776120Y10981740D01*
X1764131Y10986922D01*
X1751533Y10990478D01*
X1738528Y10992256D01*
X1725472Y10992256D01*
X1712468Y10990478D01*
X1699869Y10986922D01*
X1687880Y10981740D01*
X1676704Y10974933D01*
X1666544Y10966653D01*
X1657604Y10957102D01*
X1650085Y10946434D01*
X1644040Y10934801D01*
X1639671Y10922457D01*
X1637030Y10909655D01*
X1636115Y10896600D01*
X1637030Y10883544D01*
X1639671Y10870742D01*
X1644040Y10858398D01*
X1650085Y10846765D01*
X1657604Y10836097D01*
X1666544Y10826546D01*
X1676704Y10818266D01*
X1683156Y10814354D01*
X1686306Y10811357D01*
X1687880Y10807293D01*
X1687626Y10802924D01*
X1685594Y10799064D01*
X1682140Y10796422D01*
X1677873Y10795508D01*
X1524609Y10795508D01*
X1518208Y10794746D01*
X1511960Y10792256D01*
X1507490Y10789462D01*
X1503781Y10785805D01*
X1006906Y10189565D01*
X1003401Y10186873D01*
X999083Y10185908D01*
G37*

%LPC*%
G36*
X2755900Y10770717D02*
G01*
X2771089Y10771632D01*
X2786024Y10774375D01*
X2800553Y10778896D01*
X2814421Y10785144D01*
X2827426Y10793018D01*
X2839364Y10802366D01*
X2850134Y10813135D01*
X2859481Y10825073D01*
X2867355Y10838078D01*
X2873603Y10851946D01*
X2878124Y10866475D01*
X2880868Y10881410D01*
X2881782Y10896600D01*
X2880868Y10911789D01*
X2878124Y10926724D01*
X2873603Y10941253D01*
X2867355Y10955121D01*
X2859481Y10968126D01*
X2850134Y10980064D01*
X2839364Y10990834D01*
X2827426Y11000181D01*
X2814421Y11008055D01*
X2800553Y11014303D01*
X2786024Y11018824D01*
X2771089Y11021568D01*
X2755900Y11022482D01*
X2740710Y11021568D01*
X2725775Y11018824D01*
X2711246Y11014303D01*
X2697378Y11008055D01*
X2684373Y11000181D01*
X2672435Y10990834D01*
X2661666Y10980064D01*
X2652318Y10968126D01*
X2644444Y10955121D01*
X2638196Y10941253D01*
X2633675Y10926724D01*
X2630932Y10911789D01*
X2630017Y10896600D01*
X2630932Y10881410D01*
X2633675Y10866475D01*
X2638196Y10851946D01*
X2644444Y10838078D01*
X2652318Y10825073D01*
X2661666Y10813135D01*
X2672435Y10802366D01*
X2684373Y10793018D01*
X2697378Y10785144D01*
X2711246Y10778896D01*
X2725775Y10774375D01*
X2740710Y10771632D01*
G37*
G36*
X1371600Y10770717D02*
G01*
X1386789Y10771632D01*
X1401724Y10774375D01*
X1416253Y10778896D01*
X1430121Y10785144D01*
X1443126Y10793018D01*
X1455064Y10802366D01*
X1465834Y10813135D01*
X1475181Y10825073D01*
X1483055Y10838078D01*
X1489303Y10851946D01*
X1493824Y10866475D01*
X1496568Y10881410D01*
X1497482Y10896600D01*
X1496568Y10911789D01*
X1493824Y10926724D01*
X1489303Y10941253D01*
X1483055Y10955121D01*
X1475181Y10968126D01*
X1465834Y10980064D01*
X1455064Y10990834D01*
X1443126Y11000181D01*
X1430121Y11008055D01*
X1416253Y11014303D01*
X1401724Y11018824D01*
X1386789Y11021568D01*
X1371600Y11022482D01*
X1356410Y11021568D01*
X1341475Y11018824D01*
X1326946Y11014303D01*
X1313078Y11008055D01*
X1300073Y11000181D01*
X1288135Y10990834D01*
X1277366Y10980064D01*
X1268018Y10968126D01*
X1260144Y10955121D01*
X1253896Y10941253D01*
X1249375Y10926724D01*
X1246632Y10911789D01*
X1245717Y10896600D01*
X1246632Y10881410D01*
X1249375Y10866475D01*
X1253896Y10851946D01*
X1260144Y10838078D01*
X1268018Y10825073D01*
X1277366Y10813135D01*
X1288135Y10802366D01*
X1300073Y10793018D01*
X1313078Y10785144D01*
X1326946Y10778896D01*
X1341475Y10774375D01*
X1356410Y10771632D01*
G37*
G36*
X2344674Y10909300D02*
G01*
X2434132Y10909300D01*
X2434132Y10966043D01*
X2433370Y10972342D01*
X2431491Y10977829D01*
X2428392Y10982706D01*
X2424328Y10986820D01*
X2419400Y10989868D01*
X2413965Y10991799D01*
X2407615Y10992510D01*
X2344674Y10992510D01*
G37*
G36*
X2032000Y11100917D02*
G01*
X2047189Y11101832D01*
X2062124Y11104575D01*
X2076653Y11109096D01*
X2090521Y11115344D01*
X2103526Y11123218D01*
X2115464Y11132566D01*
X2126234Y11143335D01*
X2135581Y11155273D01*
X2143455Y11168278D01*
X2149703Y11182146D01*
X2154224Y11196675D01*
X2156968Y11211610D01*
X2157882Y11226800D01*
X2156968Y11241989D01*
X2154224Y11256924D01*
X2149703Y11271453D01*
X2143455Y11285321D01*
X2135581Y11298326D01*
X2126234Y11310264D01*
X2115464Y11321034D01*
X2103526Y11330381D01*
X2090521Y11338255D01*
X2076653Y11344503D01*
X2062124Y11349024D01*
X2047189Y11351768D01*
X2032000Y11352682D01*
X2016810Y11351768D01*
X2001875Y11349024D01*
X1987346Y11344503D01*
X1973478Y11338255D01*
X1960473Y11330381D01*
X1948535Y11321034D01*
X1937766Y11310264D01*
X1928418Y11298326D01*
X1920544Y11285321D01*
X1914296Y11271453D01*
X1909775Y11256924D01*
X1907032Y11241989D01*
X1906117Y11226800D01*
X1907032Y11211610D01*
X1909775Y11196675D01*
X1914296Y11182146D01*
X1920544Y11168278D01*
X1928418Y11155273D01*
X1937766Y11143335D01*
X1948535Y11132566D01*
X1960473Y11123218D01*
X1973478Y11115344D01*
X1987346Y11109096D01*
X2001875Y11104575D01*
X2016810Y11101832D01*
G37*

%LPD*%
D10*
G01*
X1732000Y10896600D03*
G01*
X1932000Y10896600D03*
G01*
X2131999Y10896600D03*
D11*
G01*
X2331999Y10896600D03*
M02*
