G04 Layer: BottomSilkscreenLayer*
G04 EasyEDA v6.5.29, 2023-07-18 11:26:45*
G04 33fdc5552a5a4075a23771e626d16e97,5a6b42c53f6a479593ecc07194224c93,10*
G04 Gerber Generator version 0.2*
G04 Scale: 100 percent, Rotated: No, Reflected: No *
G04 Dimensions in millimeters *
G04 leading zeros omitted , absolute positions ,4 integer and 5 decimal *
%FSLAX45Y45*%
%MOMM*%

%ADD10C,0.2032*%
%ADD11C,0.1524*%
%ADD12C,0.2540*%

%LPD*%
D10*
X3818890Y11462258D02*
G01*
X3818890Y11374881D01*
X3824477Y11358626D01*
X3829811Y11353037D01*
X3840734Y11347704D01*
X3851656Y11347704D01*
X3862577Y11353037D01*
X3868165Y11358626D01*
X3873500Y11374881D01*
X3873500Y11385804D01*
X3783075Y11462258D02*
G01*
X3783075Y11347704D01*
X3783075Y11347704D02*
G01*
X3717543Y11347704D01*
X3599688Y11434826D02*
G01*
X3605022Y11445747D01*
X3615943Y11456670D01*
X3626865Y11462258D01*
X3648709Y11462258D01*
X3659631Y11456670D01*
X3670554Y11445747D01*
X3676141Y11434826D01*
X3681475Y11418570D01*
X3681475Y11391392D01*
X3676141Y11374881D01*
X3670554Y11363960D01*
X3659631Y11353037D01*
X3648709Y11347704D01*
X3626865Y11347704D01*
X3615943Y11353037D01*
X3605022Y11363960D01*
X3599688Y11374881D01*
X3509263Y11462258D02*
G01*
X3509263Y11374881D01*
X3514597Y11358626D01*
X3519931Y11353037D01*
X3530854Y11347704D01*
X3541775Y11347704D01*
X3552697Y11353037D01*
X3558286Y11358626D01*
X3563620Y11374881D01*
X3563620Y11385804D01*
X3473195Y11462258D02*
G01*
X3473195Y11347704D01*
X3473195Y11347704D02*
G01*
X3407663Y11347704D01*
X3289808Y11434826D02*
G01*
X3295395Y11445747D01*
X3306318Y11456670D01*
X3317240Y11462258D01*
X3338829Y11462258D01*
X3349752Y11456670D01*
X3360674Y11445747D01*
X3366261Y11434826D01*
X3371595Y11418570D01*
X3371595Y11391392D01*
X3366261Y11374881D01*
X3360674Y11363960D01*
X3349752Y11353037D01*
X3338829Y11347704D01*
X3317240Y11347704D01*
X3306318Y11353037D01*
X3295395Y11363960D01*
X3289808Y11374881D01*
X3199384Y11462258D02*
G01*
X3199384Y11374881D01*
X3204718Y11358626D01*
X3210306Y11353037D01*
X3221227Y11347704D01*
X3232150Y11347704D01*
X3243072Y11353037D01*
X3248406Y11358626D01*
X3253740Y11374881D01*
X3253740Y11385804D01*
X3163315Y11462258D02*
G01*
X3163315Y11347704D01*
X3163315Y11347704D02*
G01*
X3097784Y11347704D01*
X2979927Y11434826D02*
G01*
X2985515Y11445747D01*
X2996438Y11456670D01*
X3007359Y11462258D01*
X3029204Y11462258D01*
X3040125Y11456670D01*
X3051047Y11445747D01*
X3056381Y11434826D01*
X3061970Y11418570D01*
X3061970Y11391392D01*
X3056381Y11374881D01*
X3051047Y11363960D01*
X3040125Y11353037D01*
X3029204Y11347704D01*
X3007359Y11347704D01*
X2996438Y11353037D01*
X2985515Y11363960D01*
X2979927Y11374881D01*
X2889504Y11462258D02*
G01*
X2889504Y11374881D01*
X2894838Y11358626D01*
X2900425Y11353037D01*
X2911347Y11347704D01*
X2922270Y11347704D01*
X2933191Y11353037D01*
X2938525Y11358626D01*
X2944113Y11374881D01*
X2944113Y11385804D01*
X2853436Y11462258D02*
G01*
X2853436Y11347704D01*
X2853436Y11347704D02*
G01*
X2788158Y11347704D01*
X2670302Y11434826D02*
G01*
X2675636Y11445747D01*
X2686558Y11456670D01*
X2697479Y11462258D01*
X2719324Y11462258D01*
X2730245Y11456670D01*
X2741168Y11445747D01*
X2746502Y11434826D01*
X2752090Y11418570D01*
X2752090Y11391392D01*
X2746502Y11374881D01*
X2741168Y11363960D01*
X2730245Y11353037D01*
X2719324Y11347704D01*
X2697479Y11347704D01*
X2686558Y11353037D01*
X2675636Y11363960D01*
X2670302Y11374881D01*
X3975100Y11843189D02*
G01*
X3975100Y11728645D01*
X3975100Y11843189D02*
G01*
X3898737Y11728645D01*
X3898737Y11843189D02*
G01*
X3898737Y11728645D01*
X3819100Y11843189D02*
G01*
X3862735Y11728645D01*
X3819100Y11843189D02*
G01*
X3775463Y11728645D01*
X3846372Y11766826D02*
G01*
X3791828Y11766826D01*
X3739464Y11843189D02*
G01*
X3739464Y11728645D01*
X3739464Y11843189D02*
G01*
X3663101Y11728645D01*
X3663101Y11843189D02*
G01*
X3663101Y11728645D01*
X3594374Y11843189D02*
G01*
X3605283Y11837736D01*
X3616190Y11826826D01*
X3621646Y11815917D01*
X3627099Y11799554D01*
X3627099Y11772282D01*
X3621646Y11755917D01*
X3616190Y11745008D01*
X3605283Y11734098D01*
X3594374Y11728645D01*
X3572555Y11728645D01*
X3561646Y11734098D01*
X3550737Y11745008D01*
X3545283Y11755917D01*
X3539827Y11772282D01*
X3539827Y11799554D01*
X3545283Y11815917D01*
X3550737Y11826826D01*
X3561646Y11837736D01*
X3572555Y11843189D01*
X3594374Y11843189D01*
X3503828Y11843189D02*
G01*
X3503828Y11728645D01*
X3503828Y11843189D02*
G01*
X3460191Y11728645D01*
X3416556Y11843189D02*
G01*
X3460191Y11728645D01*
X3416556Y11843189D02*
G01*
X3416556Y11728645D01*
X3380554Y11843189D02*
G01*
X3380554Y11728645D01*
X3300920Y11843189D02*
G01*
X3344555Y11728645D01*
X3300920Y11843189D02*
G01*
X3257283Y11728645D01*
X3328192Y11766826D02*
G01*
X3273645Y11766826D01*
X3055465Y11815917D02*
G01*
X3060920Y11826826D01*
X3071830Y11837736D01*
X3082737Y11843189D01*
X3104555Y11843189D01*
X3115464Y11837736D01*
X3126374Y11826826D01*
X3131830Y11815917D01*
X3137283Y11799554D01*
X3137283Y11772282D01*
X3131830Y11755917D01*
X3126374Y11745008D01*
X3115464Y11734098D01*
X3104555Y11728645D01*
X3082737Y11728645D01*
X3071830Y11734098D01*
X3060920Y11745008D01*
X3055465Y11755917D01*
X3055465Y11772282D01*
X3082737Y11772282D02*
G01*
X3055465Y11772282D01*
X2975828Y11843189D02*
G01*
X3019465Y11728645D01*
X2975828Y11843189D02*
G01*
X2932193Y11728645D01*
X3003102Y11766826D02*
G01*
X2948556Y11766826D01*
X2858010Y11843189D02*
G01*
X2858010Y11728645D01*
X2896191Y11843189D02*
G01*
X2819829Y11843189D01*
X2783829Y11843189D02*
G01*
X2783829Y11728645D01*
X2783829Y11843189D02*
G01*
X2712920Y11843189D01*
X2783829Y11788645D02*
G01*
X2740192Y11788645D01*
X2783829Y11728645D02*
G01*
X2712920Y11728645D01*
X2676921Y11843189D02*
G01*
X2649649Y11728645D01*
X2622374Y11843189D02*
G01*
X2649649Y11728645D01*
X2622374Y11843189D02*
G01*
X2595102Y11728645D01*
X2567830Y11843189D02*
G01*
X2595102Y11728645D01*
X2488194Y11843189D02*
G01*
X2531831Y11728645D01*
X2488194Y11843189D02*
G01*
X2444556Y11728645D01*
X2515466Y11766826D02*
G01*
X2460922Y11766826D01*
X2408557Y11843189D02*
G01*
X2364920Y11788645D01*
X2364920Y11728645D01*
X2321285Y11843189D02*
G01*
X2364920Y11788645D01*
X2201285Y11843189D02*
G01*
X2201285Y11728645D01*
X2201285Y11728645D02*
G01*
X2135830Y11728645D01*
X2099830Y11843189D02*
G01*
X2099830Y11728645D01*
X2099830Y11843189D02*
G01*
X2028921Y11843189D01*
X2099830Y11788645D02*
G01*
X2056193Y11788645D01*
X2099830Y11728645D02*
G01*
X2028921Y11728645D01*
X1992922Y11843189D02*
G01*
X1992922Y11728645D01*
X1992922Y11843189D02*
G01*
X1954740Y11843189D01*
X1938375Y11837736D01*
X1927468Y11826826D01*
X1922012Y11815917D01*
X1916559Y11799554D01*
X1916559Y11772282D01*
X1922012Y11755917D01*
X1927468Y11745008D01*
X1938375Y11734098D01*
X1954740Y11728645D01*
X1992922Y11728645D01*
X1796559Y11843189D02*
G01*
X1796559Y11728645D01*
X1796559Y11843189D02*
G01*
X1725650Y11843189D01*
X1796559Y11788645D02*
G01*
X1752922Y11788645D01*
X1689651Y11843189D02*
G01*
X1689651Y11728645D01*
X1653649Y11843189D02*
G01*
X1577286Y11728645D01*
X1577286Y11843189D02*
G01*
X1653649Y11728645D01*
X1503105Y11843189D02*
G01*
X1503105Y11728645D01*
X1541287Y11843189D02*
G01*
X1464922Y11843189D01*
X1428922Y11843189D02*
G01*
X1428922Y11761373D01*
X1423469Y11745008D01*
X1412560Y11734098D01*
X1396194Y11728645D01*
X1385288Y11728645D01*
X1368922Y11734098D01*
X1358013Y11745008D01*
X1352560Y11761373D01*
X1352560Y11843189D01*
X1316560Y11843189D02*
G01*
X1316560Y11728645D01*
X1316560Y11843189D02*
G01*
X1267470Y11843189D01*
X1251104Y11837736D01*
X1245651Y11832282D01*
X1240195Y11821373D01*
X1240195Y11810464D01*
X1245651Y11799554D01*
X1251104Y11794098D01*
X1267470Y11788645D01*
X1316560Y11788645D01*
X1278376Y11788645D02*
G01*
X1240195Y11728645D01*
X1204196Y11843189D02*
G01*
X1204196Y11728645D01*
X1204196Y11843189D02*
G01*
X1133287Y11843189D01*
X1204196Y11788645D02*
G01*
X1160559Y11788645D01*
X1204196Y11728645D02*
G01*
X1133287Y11728645D01*
X1013287Y11777736D02*
G01*
X915106Y11777736D01*
X795106Y11843189D02*
G01*
X795106Y11728645D01*
X795106Y11843189D02*
G01*
X746015Y11843189D01*
X729653Y11837736D01*
X724197Y11832282D01*
X718743Y11821373D01*
X718743Y11810464D01*
X724197Y11799554D01*
X729653Y11794098D01*
X746015Y11788645D01*
X795106Y11788645D02*
G01*
X746015Y11788645D01*
X729653Y11783189D01*
X724197Y11777736D01*
X718743Y11766826D01*
X718743Y11750464D01*
X724197Y11739554D01*
X729653Y11734098D01*
X746015Y11728645D01*
X795106Y11728645D01*
X650016Y11843189D02*
G01*
X660925Y11837736D01*
X671835Y11826826D01*
X677288Y11815917D01*
X682741Y11799554D01*
X682741Y11772282D01*
X677288Y11755917D01*
X671835Y11745008D01*
X660925Y11734098D01*
X650016Y11728645D01*
X628197Y11728645D01*
X617288Y11734098D01*
X606379Y11745008D01*
X600925Y11755917D01*
X595469Y11772282D01*
X595469Y11799554D01*
X600925Y11815917D01*
X606379Y11826826D01*
X617288Y11837736D01*
X628197Y11843189D01*
X650016Y11843189D01*
X521289Y11843189D02*
G01*
X521289Y11728645D01*
X559470Y11843189D02*
G01*
X483107Y11843189D01*
X408924Y11843189D02*
G01*
X408924Y11728645D01*
X447106Y11843189D02*
G01*
X370743Y11843189D01*
X302016Y11843189D02*
G01*
X312925Y11837736D01*
X323834Y11826826D01*
X329288Y11815917D01*
X334744Y11799554D01*
X334744Y11772282D01*
X329288Y11755917D01*
X323834Y11745008D01*
X312925Y11734098D01*
X302016Y11728645D01*
X280197Y11728645D01*
X269288Y11734098D01*
X258378Y11745008D01*
X252925Y11755917D01*
X247472Y11772282D01*
X247472Y11799554D01*
X252925Y11815917D01*
X258378Y11826826D01*
X269288Y11837736D01*
X280197Y11843189D01*
X302016Y11843189D01*
X211470Y11843189D02*
G01*
X211470Y11728645D01*
X211470Y11843189D02*
G01*
X167835Y11728645D01*
X124198Y11843189D02*
G01*
X167835Y11728645D01*
X124198Y11843189D02*
G01*
X124198Y11728645D01*
X3416300Y11652689D02*
G01*
X3416300Y11538145D01*
X3416300Y11652689D02*
G01*
X3367209Y11652689D01*
X3350846Y11647236D01*
X3345390Y11641782D01*
X3339937Y11630873D01*
X3339937Y11614508D01*
X3345390Y11603598D01*
X3350846Y11598145D01*
X3367209Y11592689D01*
X3416300Y11592689D01*
X3260300Y11652689D02*
G01*
X3303935Y11538145D01*
X3260300Y11652689D02*
G01*
X3216663Y11538145D01*
X3287572Y11576326D02*
G01*
X3233028Y11576326D01*
X3180664Y11652689D02*
G01*
X3180664Y11538145D01*
X3180664Y11652689D02*
G01*
X3131573Y11652689D01*
X3115210Y11647236D01*
X3109755Y11641782D01*
X3104301Y11630873D01*
X3104301Y11619964D01*
X3109755Y11609054D01*
X3115210Y11603598D01*
X3131573Y11598145D01*
X3180664Y11598145D01*
X3142482Y11598145D02*
G01*
X3104301Y11538145D01*
X3030118Y11652689D02*
G01*
X3030118Y11538145D01*
X3068299Y11652689D02*
G01*
X2991937Y11652689D01*
X2871937Y11652689D02*
G01*
X2871937Y11538145D01*
X2871937Y11652689D02*
G01*
X2795574Y11538145D01*
X2795574Y11652689D02*
G01*
X2795574Y11538145D01*
X2759572Y11652689D02*
G01*
X2759572Y11570873D01*
X2754119Y11554508D01*
X2743210Y11543598D01*
X2726847Y11538145D01*
X2715938Y11538145D01*
X2699572Y11543598D01*
X2688666Y11554508D01*
X2683210Y11570873D01*
X2683210Y11652689D01*
X2647210Y11652689D02*
G01*
X2647210Y11538145D01*
X2647210Y11652689D02*
G01*
X2603573Y11538145D01*
X2559938Y11652689D02*
G01*
X2603573Y11538145D01*
X2559938Y11652689D02*
G01*
X2559938Y11538145D01*
X2523937Y11652689D02*
G01*
X2523937Y11538145D01*
X2523937Y11652689D02*
G01*
X2474846Y11652689D01*
X2458483Y11647236D01*
X2453030Y11641782D01*
X2447574Y11630873D01*
X2447574Y11619964D01*
X2453030Y11609054D01*
X2458483Y11603598D01*
X2474846Y11598145D01*
X2523937Y11598145D02*
G01*
X2474846Y11598145D01*
X2458483Y11592689D01*
X2453030Y11587236D01*
X2447574Y11576326D01*
X2447574Y11559964D01*
X2453030Y11549054D01*
X2458483Y11543598D01*
X2474846Y11538145D01*
X2523937Y11538145D01*
X2411575Y11652689D02*
G01*
X2411575Y11538145D01*
X2411575Y11652689D02*
G01*
X2340665Y11652689D01*
X2411575Y11598145D02*
G01*
X2367937Y11598145D01*
X2411575Y11538145D02*
G01*
X2340665Y11538145D01*
X2304666Y11652689D02*
G01*
X2304666Y11538145D01*
X2304666Y11652689D02*
G01*
X2255575Y11652689D01*
X2239210Y11647236D01*
X2233757Y11641782D01*
X2228301Y11630873D01*
X2228301Y11619964D01*
X2233757Y11609054D01*
X2239210Y11603598D01*
X2255575Y11598145D01*
X2304666Y11598145D01*
X2266485Y11598145D02*
G01*
X2228301Y11538145D01*
X2102848Y11625417D02*
G01*
X2102848Y11630873D01*
X2097392Y11641782D01*
X2091938Y11647236D01*
X2081029Y11652689D01*
X2059211Y11652689D01*
X2048301Y11647236D01*
X2042848Y11641782D01*
X2037392Y11630873D01*
X2037392Y11619964D01*
X2042848Y11609054D01*
X2053757Y11592689D01*
X2108301Y11538145D01*
X2031939Y11538145D01*
X1941393Y11652689D02*
G01*
X1995939Y11576326D01*
X1914121Y11576326D01*
X1941393Y11652689D02*
G01*
X1941393Y11538145D01*
X1801756Y11652689D02*
G01*
X1856303Y11538145D01*
X1878121Y11652689D02*
G01*
X1801756Y11652689D01*
X1733031Y11652689D02*
G01*
X1749394Y11647236D01*
X1760303Y11630873D01*
X1765757Y11603598D01*
X1765757Y11587236D01*
X1760303Y11559964D01*
X1749394Y11543598D01*
X1733031Y11538145D01*
X1722122Y11538145D01*
X1705757Y11543598D01*
X1694848Y11559964D01*
X1689394Y11587236D01*
X1689394Y11603598D01*
X1694848Y11630873D01*
X1705757Y11647236D01*
X1722122Y11652689D01*
X1733031Y11652689D01*
X1653395Y11587236D02*
G01*
X1555214Y11587236D01*
X1486486Y11652689D02*
G01*
X1502849Y11647236D01*
X1513758Y11630873D01*
X1519212Y11603598D01*
X1519212Y11587236D01*
X1513758Y11559964D01*
X1502849Y11543598D01*
X1486486Y11538145D01*
X1475577Y11538145D01*
X1459212Y11543598D01*
X1448302Y11559964D01*
X1442849Y11587236D01*
X1442849Y11603598D01*
X1448302Y11630873D01*
X1459212Y11647236D01*
X1475577Y11652689D01*
X1486486Y11652689D01*
X1395940Y11652689D02*
G01*
X1335940Y11652689D01*
X1368668Y11609054D01*
X1352303Y11609054D01*
X1341394Y11603598D01*
X1335940Y11598145D01*
X1330485Y11581782D01*
X1330485Y11570873D01*
X1335940Y11554508D01*
X1346850Y11543598D01*
X1363212Y11538145D01*
X1379575Y11538145D01*
X1395940Y11543598D01*
X1401394Y11549054D01*
X1406850Y11559964D01*
X1261757Y11652689D02*
G01*
X1278122Y11647236D01*
X1289032Y11630873D01*
X1294485Y11603598D01*
X1294485Y11587236D01*
X1289032Y11559964D01*
X1278122Y11543598D01*
X1261757Y11538145D01*
X1250850Y11538145D01*
X1234485Y11543598D01*
X1223576Y11559964D01*
X1218123Y11587236D01*
X1218123Y11603598D01*
X1223576Y11630873D01*
X1234485Y11647236D01*
X1250850Y11652689D01*
X1261757Y11652689D01*
X1176667Y11625417D02*
G01*
X1176667Y11630873D01*
X1171214Y11641782D01*
X1165758Y11647236D01*
X1154849Y11652689D01*
X1133033Y11652689D01*
X1122123Y11647236D01*
X1116667Y11641782D01*
X1111214Y11630873D01*
X1111214Y11619964D01*
X1116667Y11609054D01*
X1127577Y11592689D01*
X1182123Y11538145D01*
X1105758Y11538145D01*
X985758Y11652689D02*
G01*
X942124Y11538145D01*
X898486Y11652689D02*
G01*
X942124Y11538145D01*
X829759Y11652689D02*
G01*
X846122Y11647236D01*
X857031Y11630873D01*
X862487Y11603598D01*
X862487Y11587236D01*
X857031Y11559964D01*
X846122Y11543598D01*
X829759Y11538145D01*
X818850Y11538145D01*
X802487Y11543598D01*
X791578Y11559964D01*
X786122Y11587236D01*
X786122Y11603598D01*
X791578Y11630873D01*
X802487Y11647236D01*
X818850Y11652689D01*
X829759Y11652689D01*
X744669Y11565417D02*
G01*
X750122Y11559964D01*
X744669Y11554508D01*
X739213Y11559964D01*
X744669Y11565417D01*
X697760Y11625417D02*
G01*
X697760Y11630873D01*
X692304Y11641782D01*
X686851Y11647236D01*
X675942Y11652689D01*
X654123Y11652689D01*
X643214Y11647236D01*
X637760Y11641782D01*
X632305Y11630873D01*
X632305Y11619964D01*
X637760Y11609054D01*
X648670Y11592689D01*
X703214Y11538145D01*
X626851Y11538145D01*
D11*
X2569044Y10948438D02*
G01*
X2569044Y10865312D01*
X2574241Y10849724D01*
X2579436Y10844529D01*
X2589827Y10839335D01*
X2600218Y10839335D01*
X2610609Y10844529D01*
X2615806Y10849724D01*
X2621000Y10865312D01*
X2621000Y10875703D01*
X2534754Y10927656D02*
G01*
X2524366Y10932853D01*
X2508778Y10948438D01*
X2508778Y10839335D01*
D12*
X2228900Y10998200D02*
G01*
X2228900Y10807700D01*
X2431999Y10996599D02*
G01*
X1632000Y10996599D01*
X1632000Y10796600D01*
X2431999Y10796600D01*
X2431999Y10996599D01*
M02*
