G04 Layer: BottomLayer*
G04 EasyEDA v6.5.29, 2023-07-19 21:34:44*
G04 25dd6f9caf2f465b81daf7de5460995f,5a6b42c53f6a479593ecc07194224c93,10*
G04 Gerber Generator version 0.2*
G04 Scale: 100 percent, Rotated: No, Reflected: No *
G04 Dimensions in millimeters *
G04 leading zeros omitted , absolute positions ,4 integer and 5 decimal *
%FSLAX45Y45*%
%MOMM*%

%ADD10C,0.2540*%
%ADD11O,6.4000126X3.1999936*%

%LPD*%
G36*
X36068Y698500D02*
G01*
X32156Y699262D01*
X28905Y701497D01*
X26670Y704748D01*
X25908Y708660D01*
X25908Y4053840D01*
X26670Y4057751D01*
X28905Y4061002D01*
X32156Y4063237D01*
X36068Y4064000D01*
X32156Y4064762D01*
X28905Y4066997D01*
X26670Y4070248D01*
X25908Y4074160D01*
X25908Y5577840D01*
X26670Y5581751D01*
X28905Y5585002D01*
X32156Y5587238D01*
X36068Y5588000D01*
X32156Y5588762D01*
X28905Y5590997D01*
X26670Y5594248D01*
X25908Y5598160D01*
X25908Y7101840D01*
X26670Y7105751D01*
X28905Y7109002D01*
X32156Y7111238D01*
X36068Y7112000D01*
X32156Y7112762D01*
X28905Y7114997D01*
X26670Y7118248D01*
X25908Y7122159D01*
X25908Y8625840D01*
X26670Y8629751D01*
X28905Y8633002D01*
X32156Y8635238D01*
X36068Y8636000D01*
X32156Y8636762D01*
X28905Y8638997D01*
X26670Y8642248D01*
X25908Y8646160D01*
X25908Y10149840D01*
X26670Y10153751D01*
X28905Y10157002D01*
X32156Y10159238D01*
X36068Y10160000D01*
X32156Y10160762D01*
X28905Y10162997D01*
X26670Y10166248D01*
X25908Y10170160D01*
X25908Y12150090D01*
X26670Y12154001D01*
X28905Y12157252D01*
X32156Y12159488D01*
X36068Y12160250D01*
X11101832Y12160250D01*
X11105743Y12159488D01*
X11108994Y12157252D01*
X11111230Y12154001D01*
X11111992Y12150090D01*
X11111992Y10170160D01*
X11111230Y10166248D01*
X11108994Y10162997D01*
X11105743Y10160762D01*
X11101832Y10160000D01*
X11105743Y10159238D01*
X11108994Y10157002D01*
X11111230Y10153751D01*
X11111992Y10149840D01*
X11111992Y9801860D01*
X11111230Y9797948D01*
X11108994Y9794697D01*
X11105743Y9792462D01*
X11101832Y9791700D01*
X11105743Y9790938D01*
X11108994Y9788702D01*
X11111230Y9785451D01*
X11111992Y9781540D01*
X11111992Y8646160D01*
X11111230Y8642248D01*
X11108994Y8638997D01*
X11105743Y8636762D01*
X11101832Y8636000D01*
X11105743Y8635238D01*
X11108994Y8633002D01*
X11111230Y8629751D01*
X11111992Y8625840D01*
X11111992Y7122159D01*
X11111230Y7118248D01*
X11108994Y7114997D01*
X11105743Y7112762D01*
X11101832Y7112000D01*
X11105743Y7111238D01*
X11108994Y7109002D01*
X11111230Y7105751D01*
X11111992Y7101840D01*
X11111992Y5598160D01*
X11111230Y5594248D01*
X11108994Y5590997D01*
X11105743Y5588762D01*
X11101832Y5588000D01*
X11105743Y5587238D01*
X11108994Y5585002D01*
X11111230Y5581751D01*
X11111992Y5577840D01*
X11111992Y4074160D01*
X11111230Y4070248D01*
X11108994Y4066997D01*
X11105743Y4064762D01*
X11101832Y4064000D01*
X11105743Y4063237D01*
X11108994Y4061002D01*
X11111230Y4057751D01*
X11111992Y4053840D01*
X11111992Y708660D01*
X11111230Y704748D01*
X11108994Y701497D01*
X11105743Y699262D01*
X11101832Y698500D01*
G37*

%LPC*%
G36*
X3581400Y11356340D02*
G01*
X3581400Y11568684D01*
X3580384Y11569700D01*
X3379215Y11569700D01*
X3378200Y11568684D01*
X3378200Y11367516D01*
X3379215Y11366500D01*
X3571240Y11366500D01*
X3575151Y11365738D01*
X3578402Y11363502D01*
X3580637Y11360251D01*
G37*
G36*
X5792216Y1181100D02*
G01*
X5993384Y1181100D01*
X5994400Y1182116D01*
X5994400Y1394460D01*
X5993638Y1390548D01*
X5991402Y1387297D01*
X5988151Y1385062D01*
X5984240Y1384300D01*
X5792216Y1384300D01*
X5791200Y1383284D01*
X5791200Y1182116D01*
X5791352Y1181252D01*
G37*
G36*
X4585716Y1181100D02*
G01*
X4786884Y1181100D01*
X4787900Y1182116D01*
X4787900Y1394460D01*
X4787138Y1390548D01*
X4784902Y1387297D01*
X4781651Y1385062D01*
X4777740Y1384300D01*
X4585716Y1384300D01*
X4584700Y1383284D01*
X4584700Y1182116D01*
G37*
G36*
X6998716Y1181100D02*
G01*
X7199884Y1181100D01*
X7200900Y1182116D01*
X7201001Y1394358D01*
X7200188Y1390497D01*
X7198004Y1387246D01*
X7194702Y1385062D01*
X7190841Y1384300D01*
X6998716Y1384300D01*
X6997700Y1383284D01*
X6997700Y1182116D01*
G37*
G36*
X8205216Y1181100D02*
G01*
X8406384Y1181100D01*
X8407400Y1182116D01*
X8407501Y1394358D01*
X8406688Y1390497D01*
X8404504Y1387246D01*
X8401202Y1385062D01*
X8397341Y1384300D01*
X8205216Y1384300D01*
X8204200Y1383284D01*
X8204200Y1182116D01*
G37*
G36*
X508558Y1240078D02*
G01*
X1527454Y1240078D01*
X1533753Y1240790D01*
X1539189Y1242720D01*
X1544116Y1245819D01*
X1548180Y1249883D01*
X1551279Y1254810D01*
X1553210Y1260246D01*
X1553921Y1266545D01*
X1553921Y2285441D01*
X1553210Y2291740D01*
X1551279Y2297226D01*
X1548180Y2302103D01*
X1544116Y2306218D01*
X1539189Y2309266D01*
X1533753Y2311196D01*
X1527454Y2311908D01*
X508558Y2311908D01*
X502259Y2311196D01*
X496773Y2309266D01*
X491896Y2306218D01*
X487781Y2302103D01*
X484733Y2297226D01*
X482803Y2291740D01*
X482092Y2285441D01*
X482092Y1266545D01*
X482803Y1260246D01*
X484733Y1254810D01*
X487781Y1249883D01*
X491896Y1245819D01*
X496773Y1242720D01*
X502259Y1240790D01*
G37*
G36*
X9627158Y1240078D02*
G01*
X10646054Y1240078D01*
X10652353Y1240790D01*
X10657789Y1242720D01*
X10662716Y1245819D01*
X10666780Y1249883D01*
X10669879Y1254810D01*
X10671810Y1260246D01*
X10672521Y1266545D01*
X10672521Y2285441D01*
X10671810Y2291740D01*
X10669879Y2297226D01*
X10666780Y2302103D01*
X10662716Y2306218D01*
X10657789Y2309266D01*
X10652353Y2311196D01*
X10646054Y2311908D01*
X9627158Y2311908D01*
X9620859Y2311196D01*
X9615373Y2309266D01*
X9610496Y2306218D01*
X9606381Y2302103D01*
X9603333Y2297226D01*
X9601403Y2291740D01*
X9600692Y2285441D01*
X9600692Y1266545D01*
X9601403Y1260246D01*
X9603333Y1254810D01*
X9606381Y1249883D01*
X9610496Y1245819D01*
X9615373Y1242720D01*
X9620859Y1240790D01*
G37*
G36*
X4134764Y1655267D02*
G01*
X4602632Y1655267D01*
X4608931Y1656029D01*
X4614418Y1657908D01*
X4619244Y1660956D01*
X4625136Y1666900D01*
X4640427Y1679752D01*
X4660798Y1699463D01*
X4679746Y1720494D01*
X4697171Y1742846D01*
X4712970Y1766316D01*
X4727092Y1790852D01*
X4739487Y1816303D01*
X4750104Y1842566D01*
X4758842Y1869541D01*
X4765700Y1897024D01*
X4767732Y1908708D01*
X4769358Y1912670D01*
X4772456Y1915617D01*
X4776470Y1917039D01*
X4780737Y1916684D01*
X4784445Y1914550D01*
X4786985Y1911146D01*
X4787900Y1906930D01*
X4787900Y2055418D01*
X4786985Y2051253D01*
X4784445Y2047798D01*
X4780737Y2045716D01*
X4776470Y2045360D01*
X4772456Y2046782D01*
X4769358Y2049729D01*
X4767732Y2053691D01*
X4765598Y2065731D01*
X4758740Y2093214D01*
X4750003Y2120138D01*
X4739386Y2146350D01*
X4726940Y2171801D01*
X4712817Y2196338D01*
X4696968Y2219807D01*
X4679492Y2242159D01*
X4660544Y2263190D01*
X4640173Y2282850D01*
X4624374Y2296160D01*
X4619244Y2301443D01*
X4614418Y2304491D01*
X4608931Y2306370D01*
X4602632Y2307082D01*
X4134764Y2307082D01*
X4128465Y2306370D01*
X4122978Y2304491D01*
X4118101Y2301392D01*
X4112514Y2295855D01*
X4097020Y2282850D01*
X4076649Y2263190D01*
X4057700Y2242159D01*
X4040225Y2219807D01*
X4024426Y2196338D01*
X4010253Y2171801D01*
X3997807Y2146350D01*
X3987190Y2120138D01*
X3978452Y2093214D01*
X3971594Y2065731D01*
X3966667Y2037842D01*
X3963720Y2009648D01*
X3962704Y1981352D01*
X3963670Y1953056D01*
X3966616Y1924913D01*
X3971544Y1897024D01*
X3978351Y1869541D01*
X3987088Y1842566D01*
X3997706Y1816303D01*
X4010101Y1790852D01*
X4024223Y1766316D01*
X4040073Y1742846D01*
X4057497Y1720494D01*
X4076395Y1699463D01*
X4096765Y1679752D01*
X4113174Y1665884D01*
X4118101Y1661007D01*
X4122978Y1657908D01*
X4128465Y1656029D01*
G37*
G36*
X2928264Y1655267D02*
G01*
X3396132Y1655267D01*
X3402431Y1656029D01*
X3407918Y1657908D01*
X3412744Y1660956D01*
X3418636Y1666900D01*
X3433927Y1679752D01*
X3454298Y1699463D01*
X3473246Y1720494D01*
X3490671Y1742846D01*
X3506470Y1766316D01*
X3520592Y1790852D01*
X3532987Y1816303D01*
X3543604Y1842566D01*
X3552342Y1869541D01*
X3559200Y1897024D01*
X3561232Y1908708D01*
X3562858Y1912670D01*
X3565956Y1915617D01*
X3569970Y1917039D01*
X3574237Y1916684D01*
X3577945Y1914550D01*
X3580485Y1911146D01*
X3581400Y1906930D01*
X3581400Y2055418D01*
X3580485Y2051253D01*
X3577945Y2047798D01*
X3574237Y2045716D01*
X3569970Y2045360D01*
X3565956Y2046782D01*
X3562858Y2049729D01*
X3561232Y2053691D01*
X3559098Y2065731D01*
X3552240Y2093214D01*
X3543503Y2120138D01*
X3532886Y2146350D01*
X3520440Y2171801D01*
X3506317Y2196338D01*
X3490468Y2219807D01*
X3472992Y2242159D01*
X3454044Y2263190D01*
X3433673Y2282850D01*
X3417874Y2296160D01*
X3412744Y2301443D01*
X3407918Y2304491D01*
X3402431Y2306370D01*
X3396132Y2307082D01*
X2928264Y2307082D01*
X2921965Y2306370D01*
X2916478Y2304491D01*
X2911602Y2301392D01*
X2906014Y2295855D01*
X2890520Y2282850D01*
X2870149Y2263190D01*
X2851200Y2242159D01*
X2833725Y2219807D01*
X2817926Y2196338D01*
X2803753Y2171801D01*
X2791307Y2146350D01*
X2780690Y2120138D01*
X2771952Y2093214D01*
X2765094Y2065731D01*
X2760167Y2037842D01*
X2757220Y2009648D01*
X2756204Y1981352D01*
X2757170Y1953056D01*
X2760116Y1924913D01*
X2765044Y1897024D01*
X2771851Y1869541D01*
X2780588Y1842566D01*
X2791206Y1816303D01*
X2803601Y1790852D01*
X2817723Y1766316D01*
X2833573Y1742846D01*
X2850997Y1720494D01*
X2869895Y1699463D01*
X2890266Y1679752D01*
X2906674Y1665884D01*
X2911602Y1661007D01*
X2916478Y1657908D01*
X2921965Y1656029D01*
G37*
G36*
X5341264Y1655267D02*
G01*
X5809132Y1655267D01*
X5815431Y1656029D01*
X5820918Y1657908D01*
X5825744Y1660956D01*
X5831636Y1666900D01*
X5846927Y1679752D01*
X5867298Y1699463D01*
X5886246Y1720494D01*
X5903671Y1742846D01*
X5919470Y1766316D01*
X5933592Y1790852D01*
X5945987Y1816303D01*
X5956604Y1842566D01*
X5965342Y1869541D01*
X5972200Y1897024D01*
X5974232Y1908708D01*
X5975858Y1912670D01*
X5978956Y1915617D01*
X5982970Y1917039D01*
X5987237Y1916684D01*
X5990945Y1914550D01*
X5993485Y1911146D01*
X5994400Y1906930D01*
X5994400Y2055418D01*
X5993485Y2051253D01*
X5990945Y2047798D01*
X5987237Y2045716D01*
X5982970Y2045360D01*
X5978956Y2046782D01*
X5975858Y2049729D01*
X5974232Y2053691D01*
X5972098Y2065731D01*
X5965240Y2093214D01*
X5956503Y2120138D01*
X5945886Y2146350D01*
X5933440Y2171801D01*
X5919317Y2196338D01*
X5903468Y2219807D01*
X5885992Y2242159D01*
X5867044Y2263190D01*
X5846673Y2282850D01*
X5830874Y2296160D01*
X5825744Y2301443D01*
X5820918Y2304491D01*
X5815431Y2306370D01*
X5809132Y2307082D01*
X5341264Y2307082D01*
X5334965Y2306370D01*
X5329478Y2304491D01*
X5324602Y2301392D01*
X5319014Y2295855D01*
X5303520Y2282850D01*
X5283149Y2263190D01*
X5264200Y2242159D01*
X5246725Y2219807D01*
X5230926Y2196338D01*
X5216753Y2171801D01*
X5204307Y2146350D01*
X5193690Y2120138D01*
X5184952Y2093214D01*
X5178094Y2065731D01*
X5173167Y2037842D01*
X5170220Y2009648D01*
X5169204Y1981352D01*
X5170170Y1953056D01*
X5173116Y1924913D01*
X5178044Y1897024D01*
X5184851Y1869541D01*
X5193588Y1842566D01*
X5204206Y1816303D01*
X5216601Y1790852D01*
X5230723Y1766316D01*
X5246573Y1742846D01*
X5263997Y1720494D01*
X5282895Y1699463D01*
X5303266Y1679752D01*
X5319674Y1665884D01*
X5324602Y1661007D01*
X5329478Y1657908D01*
X5334965Y1656029D01*
G37*
G36*
X6547764Y1655267D02*
G01*
X7015632Y1655267D01*
X7021931Y1656029D01*
X7027418Y1657908D01*
X7032244Y1660956D01*
X7038136Y1666900D01*
X7053427Y1679752D01*
X7073798Y1699463D01*
X7092746Y1720494D01*
X7110171Y1742846D01*
X7125970Y1766316D01*
X7140092Y1790852D01*
X7152487Y1816303D01*
X7163104Y1842566D01*
X7171842Y1869541D01*
X7178700Y1897024D01*
X7183577Y1924913D01*
X7185710Y1945386D01*
X7187133Y1949551D01*
X7190130Y1952752D01*
X7194194Y1954377D01*
X7198563Y1954123D01*
X7202474Y1952040D01*
X7205065Y1948535D01*
X7205980Y1944268D01*
X7206589Y2012137D01*
X7205624Y2007920D01*
X7202982Y2004466D01*
X7199122Y2002434D01*
X7194753Y2002231D01*
X7190689Y2003856D01*
X7187742Y2007057D01*
X7186320Y2011172D01*
X7183526Y2037842D01*
X7178598Y2065731D01*
X7171740Y2093214D01*
X7163003Y2120138D01*
X7152386Y2146350D01*
X7139940Y2171801D01*
X7125817Y2196338D01*
X7109968Y2219807D01*
X7092492Y2242159D01*
X7073544Y2263190D01*
X7053173Y2282850D01*
X7037374Y2296160D01*
X7032244Y2301443D01*
X7027418Y2304491D01*
X7021931Y2306370D01*
X7015632Y2307082D01*
X6547764Y2307082D01*
X6541465Y2306370D01*
X6535978Y2304491D01*
X6531102Y2301392D01*
X6525514Y2295855D01*
X6510020Y2282850D01*
X6489649Y2263190D01*
X6470700Y2242159D01*
X6453225Y2219807D01*
X6437426Y2196338D01*
X6423253Y2171801D01*
X6410807Y2146350D01*
X6400190Y2120138D01*
X6391452Y2093214D01*
X6384594Y2065731D01*
X6379667Y2037842D01*
X6376720Y2009648D01*
X6375704Y1981352D01*
X6376670Y1953056D01*
X6379616Y1924913D01*
X6384544Y1897024D01*
X6391351Y1869541D01*
X6400088Y1842566D01*
X6410706Y1816303D01*
X6423101Y1790852D01*
X6437223Y1766316D01*
X6453073Y1742846D01*
X6470497Y1720494D01*
X6489395Y1699463D01*
X6509766Y1679752D01*
X6526174Y1665884D01*
X6531102Y1661007D01*
X6535978Y1657908D01*
X6541465Y1656029D01*
G37*
G36*
X7754264Y1655267D02*
G01*
X8222132Y1655267D01*
X8228431Y1656029D01*
X8233918Y1657908D01*
X8238744Y1660956D01*
X8244636Y1666900D01*
X8259927Y1679752D01*
X8280298Y1699463D01*
X8299246Y1720494D01*
X8316671Y1742846D01*
X8332470Y1766316D01*
X8346592Y1790852D01*
X8358987Y1816303D01*
X8369604Y1842566D01*
X8378342Y1869541D01*
X8385200Y1897024D01*
X8390077Y1924913D01*
X8392210Y1945386D01*
X8393633Y1949551D01*
X8396630Y1952752D01*
X8400694Y1954377D01*
X8405063Y1954123D01*
X8408974Y1952040D01*
X8411565Y1948535D01*
X8412480Y1944268D01*
X8413089Y2012137D01*
X8412124Y2007920D01*
X8409482Y2004466D01*
X8405622Y2002434D01*
X8401253Y2002231D01*
X8397189Y2003856D01*
X8394242Y2007057D01*
X8392820Y2011172D01*
X8390026Y2037842D01*
X8385098Y2065731D01*
X8378240Y2093214D01*
X8369503Y2120138D01*
X8358886Y2146350D01*
X8346440Y2171801D01*
X8332317Y2196338D01*
X8316468Y2219807D01*
X8298992Y2242159D01*
X8280044Y2263190D01*
X8259673Y2282850D01*
X8243874Y2296160D01*
X8238744Y2301443D01*
X8233918Y2304491D01*
X8228431Y2306370D01*
X8222132Y2307082D01*
X7754264Y2307082D01*
X7747965Y2306370D01*
X7742478Y2304491D01*
X7737602Y2301392D01*
X7732014Y2295855D01*
X7716520Y2282850D01*
X7696149Y2263190D01*
X7677200Y2242159D01*
X7659725Y2219807D01*
X7643926Y2196338D01*
X7629753Y2171801D01*
X7617307Y2146350D01*
X7606690Y2120138D01*
X7597952Y2093214D01*
X7591094Y2065731D01*
X7586167Y2037842D01*
X7583220Y2009648D01*
X7582204Y1981352D01*
X7583170Y1953056D01*
X7586116Y1924913D01*
X7591044Y1897024D01*
X7597851Y1869541D01*
X7606588Y1842566D01*
X7617206Y1816303D01*
X7629601Y1790852D01*
X7643723Y1766316D01*
X7659573Y1742846D01*
X7676997Y1720494D01*
X7695895Y1699463D01*
X7716266Y1679752D01*
X7732674Y1665884D01*
X7737602Y1661007D01*
X7742478Y1657908D01*
X7747965Y1656029D01*
G37*
G36*
X2159000Y1842617D02*
G01*
X2174189Y1843532D01*
X2189124Y1846275D01*
X2203653Y1850796D01*
X2217521Y1857044D01*
X2230526Y1864868D01*
X2242464Y1874266D01*
X2253234Y1885035D01*
X2262581Y1896973D01*
X2270455Y1909978D01*
X2276703Y1923846D01*
X2281224Y1938375D01*
X2283968Y1953310D01*
X2284882Y1968500D01*
X2283968Y1983689D01*
X2281224Y1998624D01*
X2276703Y2013153D01*
X2270455Y2027021D01*
X2262581Y2040026D01*
X2253234Y2051964D01*
X2242464Y2062734D01*
X2230526Y2072081D01*
X2217521Y2079955D01*
X2203653Y2086203D01*
X2189124Y2090724D01*
X2174189Y2093468D01*
X2159000Y2094382D01*
X2143810Y2093468D01*
X2128875Y2090724D01*
X2114346Y2086203D01*
X2100478Y2079955D01*
X2087473Y2072081D01*
X2075535Y2062734D01*
X2064766Y2051964D01*
X2055368Y2040026D01*
X2047544Y2027021D01*
X2041296Y2013153D01*
X2036775Y1998624D01*
X2034032Y1983689D01*
X2033117Y1968500D01*
X2034032Y1953310D01*
X2036775Y1938375D01*
X2041296Y1923846D01*
X2047544Y1909978D01*
X2055368Y1896973D01*
X2064766Y1885035D01*
X2075535Y1874266D01*
X2087473Y1864868D01*
X2100478Y1857044D01*
X2114346Y1850796D01*
X2128875Y1846275D01*
X2143810Y1843532D01*
G37*
G36*
X9004300Y1842617D02*
G01*
X9019489Y1843532D01*
X9034424Y1846275D01*
X9048953Y1850796D01*
X9062821Y1857044D01*
X9075826Y1864868D01*
X9087764Y1874266D01*
X9098534Y1885035D01*
X9107881Y1896973D01*
X9115755Y1909978D01*
X9122003Y1923846D01*
X9126524Y1938375D01*
X9129268Y1953310D01*
X9130182Y1968500D01*
X9129268Y1983689D01*
X9126524Y1998624D01*
X9122003Y2013153D01*
X9115755Y2027021D01*
X9107881Y2040026D01*
X9098534Y2051964D01*
X9087764Y2062734D01*
X9075826Y2072081D01*
X9062821Y2079955D01*
X9048953Y2086203D01*
X9034424Y2090724D01*
X9019489Y2093468D01*
X9004300Y2094382D01*
X8989110Y2093468D01*
X8974175Y2090724D01*
X8959646Y2086203D01*
X8945778Y2079955D01*
X8932773Y2072081D01*
X8920835Y2062734D01*
X8910066Y2051964D01*
X8900718Y2040026D01*
X8892844Y2027021D01*
X8886596Y2013153D01*
X8882075Y1998624D01*
X8879332Y1983689D01*
X8878417Y1968500D01*
X8879332Y1953310D01*
X8882075Y1938375D01*
X8886596Y1923846D01*
X8892844Y1909978D01*
X8900718Y1896973D01*
X8910066Y1885035D01*
X8920835Y1874266D01*
X8932773Y1864868D01*
X8945778Y1857044D01*
X8959646Y1850796D01*
X8974175Y1846275D01*
X8989110Y1843532D01*
G37*
G36*
X8407400Y11356340D02*
G01*
X8407400Y11568684D01*
X8406384Y11569700D01*
X8205216Y11569700D01*
X8204200Y11568684D01*
X8204200Y11367516D01*
X8205216Y11366500D01*
X8397240Y11366500D01*
X8401151Y11365738D01*
X8404402Y11363502D01*
X8406638Y11360251D01*
G37*
G36*
X5994400Y11356340D02*
G01*
X5994400Y11568684D01*
X5993384Y11569700D01*
X5792216Y11569700D01*
X5791200Y11568684D01*
X5791200Y11367516D01*
X5792216Y11366500D01*
X5984240Y11366500D01*
X5988151Y11365738D01*
X5991402Y11363502D01*
X5993638Y11360251D01*
G37*
G36*
X7200900Y11356340D02*
G01*
X7200900Y11568684D01*
X7199884Y11569700D01*
X6998716Y11569700D01*
X6997700Y11568684D01*
X6997700Y11367516D01*
X6998716Y11366500D01*
X7190740Y11366500D01*
X7194651Y11365738D01*
X7197902Y11363502D01*
X7200138Y11360251D01*
G37*
G36*
X4787900Y11356340D02*
G01*
X4787900Y11568684D01*
X4786884Y11569700D01*
X4585716Y11569700D01*
X4584700Y11568684D01*
X4584700Y11367516D01*
X4585716Y11366500D01*
X4777740Y11366500D01*
X4781651Y11365738D01*
X4784902Y11363502D01*
X4787138Y11360251D01*
G37*
G36*
X9004300Y10643666D02*
G01*
X9019438Y10644632D01*
X9034424Y10647324D01*
X9048902Y10651896D01*
X9062770Y10658094D01*
X9075775Y10665968D01*
X9087764Y10675366D01*
X9098534Y10686084D01*
X9107881Y10698073D01*
X9115755Y10711078D01*
X9122003Y10724946D01*
X9126524Y10739475D01*
X9129268Y10754410D01*
X9130182Y10769600D01*
X9129268Y10784738D01*
X9126524Y10799724D01*
X9122003Y10814202D01*
X9115755Y10828070D01*
X9107881Y10841075D01*
X9098534Y10853064D01*
X9087764Y10863834D01*
X9075775Y10873181D01*
X9062770Y10881055D01*
X9048902Y10887303D01*
X9034424Y10891824D01*
X9019438Y10894568D01*
X9004300Y10895482D01*
X8989110Y10894568D01*
X8974175Y10891824D01*
X8959646Y10887303D01*
X8945778Y10881055D01*
X8932773Y10873181D01*
X8920784Y10863834D01*
X8910066Y10853064D01*
X8900668Y10841075D01*
X8892794Y10828070D01*
X8886596Y10814202D01*
X8882075Y10799724D01*
X8879332Y10784738D01*
X8878417Y10769600D01*
X8879332Y10754410D01*
X8882075Y10739475D01*
X8886596Y10724946D01*
X8892794Y10711078D01*
X8900668Y10698073D01*
X8910066Y10686084D01*
X8920784Y10675366D01*
X8932773Y10665968D01*
X8945778Y10658094D01*
X8959646Y10651896D01*
X8974175Y10647324D01*
X8989110Y10644632D01*
G37*
G36*
X2159000Y10643666D02*
G01*
X2174189Y10644632D01*
X2189124Y10647324D01*
X2203653Y10651896D01*
X2217521Y10658094D01*
X2230526Y10665968D01*
X2242464Y10675366D01*
X2253234Y10686084D01*
X2262581Y10698073D01*
X2270455Y10711078D01*
X2276703Y10724946D01*
X2281224Y10739475D01*
X2283968Y10754410D01*
X2284882Y10769600D01*
X2283968Y10784738D01*
X2281224Y10799724D01*
X2276703Y10814202D01*
X2270455Y10828070D01*
X2262581Y10841075D01*
X2253234Y10853064D01*
X2242464Y10863834D01*
X2230526Y10873181D01*
X2217521Y10881055D01*
X2203653Y10887303D01*
X2189124Y10891824D01*
X2174189Y10894568D01*
X2159000Y10895482D01*
X2143810Y10894568D01*
X2128875Y10891824D01*
X2114346Y10887303D01*
X2100478Y10881055D01*
X2087473Y10873181D01*
X2075535Y10863834D01*
X2064766Y10853064D01*
X2055368Y10841075D01*
X2047544Y10828070D01*
X2041296Y10814202D01*
X2036775Y10799724D01*
X2034032Y10784738D01*
X2033117Y10769600D01*
X2034032Y10754410D01*
X2036775Y10739475D01*
X2041296Y10724946D01*
X2047544Y10711078D01*
X2055368Y10698073D01*
X2064766Y10686084D01*
X2075535Y10675366D01*
X2087473Y10665968D01*
X2100478Y10658094D01*
X2114346Y10651896D01*
X2128875Y10647324D01*
X2143810Y10644632D01*
G37*
G36*
X9627158Y10447578D02*
G01*
X10646054Y10447578D01*
X10652353Y10448290D01*
X10657789Y10450220D01*
X10662716Y10453319D01*
X10666780Y10457383D01*
X10669879Y10462310D01*
X10671810Y10467746D01*
X10672521Y10474045D01*
X10672521Y11492941D01*
X10671810Y11499240D01*
X10669879Y11504726D01*
X10666780Y11509603D01*
X10662716Y11513718D01*
X10657789Y11516766D01*
X10652353Y11518696D01*
X10646054Y11519408D01*
X9627158Y11519408D01*
X9620859Y11518696D01*
X9615373Y11516766D01*
X9610496Y11513718D01*
X9606381Y11509603D01*
X9603333Y11504726D01*
X9601403Y11499240D01*
X9600692Y11492941D01*
X9600692Y10474045D01*
X9601403Y10467746D01*
X9603333Y10462310D01*
X9606381Y10457383D01*
X9610496Y10453319D01*
X9615373Y10450220D01*
X9620859Y10448290D01*
G37*
G36*
X508558Y10447578D02*
G01*
X1527454Y10447578D01*
X1533753Y10448290D01*
X1539189Y10450220D01*
X1544116Y10453319D01*
X1548180Y10457383D01*
X1551279Y10462310D01*
X1553210Y10467746D01*
X1553921Y10474045D01*
X1553921Y11492941D01*
X1553210Y11499240D01*
X1551279Y11504726D01*
X1548180Y11509603D01*
X1544116Y11513718D01*
X1539189Y11516766D01*
X1533753Y11518696D01*
X1527454Y11519408D01*
X508558Y11519408D01*
X502259Y11518696D01*
X496773Y11516766D01*
X491896Y11513718D01*
X487781Y11509603D01*
X484733Y11504726D01*
X482803Y11499240D01*
X482092Y11492941D01*
X482092Y10474045D01*
X482803Y10467746D01*
X484733Y10462310D01*
X487781Y10457383D01*
X491896Y10453319D01*
X496773Y10450220D01*
X502259Y10448290D01*
G37*
G36*
X5341366Y10443667D02*
G01*
X5809234Y10443667D01*
X5815533Y10444429D01*
X5821019Y10446308D01*
X5825845Y10449356D01*
X5831738Y10455300D01*
X5847029Y10468152D01*
X5867400Y10487863D01*
X5886348Y10508894D01*
X5903722Y10531246D01*
X5919571Y10554716D01*
X5933694Y10579252D01*
X5946089Y10604703D01*
X5956706Y10630966D01*
X5965444Y10657941D01*
X5972251Y10685424D01*
X5974232Y10696549D01*
X5975858Y10700512D01*
X5978956Y10703458D01*
X5982970Y10704880D01*
X5987237Y10704474D01*
X5990945Y10702391D01*
X5993485Y10698988D01*
X5994400Y10694771D01*
X5994400Y10844377D01*
X5993485Y10840212D01*
X5990945Y10836757D01*
X5987237Y10834674D01*
X5982970Y10834319D01*
X5978956Y10835741D01*
X5975858Y10838688D01*
X5974232Y10842650D01*
X5972200Y10854131D01*
X5965342Y10881614D01*
X5956604Y10908538D01*
X5945987Y10934750D01*
X5933541Y10960201D01*
X5919368Y10984738D01*
X5903569Y11008207D01*
X5886094Y11030559D01*
X5867146Y11051590D01*
X5846775Y11071250D01*
X5830976Y11084560D01*
X5825845Y11089843D01*
X5821019Y11092891D01*
X5815533Y11094770D01*
X5809234Y11095482D01*
X5341366Y11095482D01*
X5335066Y11094770D01*
X5329580Y11092891D01*
X5324703Y11089792D01*
X5319115Y11084255D01*
X5303621Y11071250D01*
X5283250Y11051590D01*
X5264302Y11030559D01*
X5246827Y11008207D01*
X5231028Y10984738D01*
X5216855Y10960201D01*
X5204409Y10934750D01*
X5193792Y10908538D01*
X5185054Y10881614D01*
X5178196Y10854131D01*
X5173268Y10826242D01*
X5170322Y10798048D01*
X5169306Y10769752D01*
X5170271Y10741456D01*
X5173218Y10713313D01*
X5178145Y10685424D01*
X5184952Y10657941D01*
X5193690Y10630966D01*
X5204307Y10604703D01*
X5216702Y10579252D01*
X5230825Y10554716D01*
X5246674Y10531246D01*
X5264099Y10508894D01*
X5282996Y10487863D01*
X5303367Y10468152D01*
X5319776Y10454284D01*
X5324703Y10449407D01*
X5329580Y10446308D01*
X5335066Y10444429D01*
G37*
G36*
X4134865Y10443667D02*
G01*
X4602734Y10443667D01*
X4609033Y10444429D01*
X4614519Y10446308D01*
X4619345Y10449356D01*
X4625238Y10455300D01*
X4640529Y10468152D01*
X4660900Y10487863D01*
X4679848Y10508894D01*
X4697222Y10531246D01*
X4713071Y10554716D01*
X4727194Y10579252D01*
X4739589Y10604703D01*
X4750206Y10630966D01*
X4758944Y10657941D01*
X4765751Y10685424D01*
X4767732Y10696549D01*
X4769358Y10700512D01*
X4772456Y10703458D01*
X4776470Y10704880D01*
X4780737Y10704474D01*
X4784445Y10702391D01*
X4786985Y10698988D01*
X4787900Y10694771D01*
X4787900Y10844377D01*
X4786985Y10840212D01*
X4784445Y10836757D01*
X4780737Y10834674D01*
X4776470Y10834319D01*
X4772456Y10835741D01*
X4769358Y10838688D01*
X4767732Y10842650D01*
X4765700Y10854131D01*
X4758842Y10881614D01*
X4750104Y10908538D01*
X4739487Y10934750D01*
X4727041Y10960201D01*
X4712868Y10984738D01*
X4697069Y11008207D01*
X4679594Y11030559D01*
X4660646Y11051590D01*
X4640275Y11071250D01*
X4624476Y11084560D01*
X4619345Y11089843D01*
X4614519Y11092891D01*
X4609033Y11094770D01*
X4602734Y11095482D01*
X4134865Y11095482D01*
X4128566Y11094770D01*
X4123080Y11092891D01*
X4118203Y11089792D01*
X4112615Y11084255D01*
X4097121Y11071250D01*
X4076750Y11051590D01*
X4057802Y11030559D01*
X4040327Y11008207D01*
X4024528Y10984738D01*
X4010355Y10960201D01*
X3997909Y10934750D01*
X3987292Y10908538D01*
X3978554Y10881614D01*
X3971696Y10854131D01*
X3966768Y10826242D01*
X3963822Y10798048D01*
X3962806Y10769752D01*
X3963771Y10741456D01*
X3966718Y10713313D01*
X3971645Y10685424D01*
X3978452Y10657941D01*
X3987190Y10630966D01*
X3997807Y10604703D01*
X4010202Y10579252D01*
X4024325Y10554716D01*
X4040174Y10531246D01*
X4057599Y10508894D01*
X4076496Y10487863D01*
X4096867Y10468152D01*
X4113276Y10454284D01*
X4118203Y10449407D01*
X4123080Y10446308D01*
X4128566Y10444429D01*
G37*
G36*
X3581400Y2771140D02*
G01*
X3582162Y2775051D01*
X3584397Y2778302D01*
X3587648Y2780538D01*
X3591560Y2781300D01*
X4777740Y2781300D01*
X4781651Y2780538D01*
X4784902Y2778302D01*
X4787138Y2775051D01*
X4787900Y2771140D01*
X4788662Y2775051D01*
X4790897Y2778302D01*
X4794148Y2780538D01*
X4798060Y2781300D01*
X5984240Y2781300D01*
X5988151Y2780538D01*
X5991402Y2778302D01*
X5993638Y2775051D01*
X5994400Y2771140D01*
X5995162Y2775051D01*
X5997397Y2778302D01*
X6000648Y2780538D01*
X6004560Y2781300D01*
X7203338Y2781300D01*
X7207250Y2780538D01*
X7210552Y2778302D01*
X7212736Y2774950D01*
X7213498Y2771241D01*
X7214311Y2775102D01*
X7216495Y2778353D01*
X7219797Y2780538D01*
X7223658Y2781300D01*
X8409838Y2781300D01*
X8413750Y2780538D01*
X8417052Y2778302D01*
X8419236Y2774950D01*
X8419998Y2771241D01*
X8420811Y2775102D01*
X8422995Y2778353D01*
X8426297Y2780538D01*
X8430158Y2781300D01*
X9168384Y2781300D01*
X9169400Y2782316D01*
X9169400Y9781540D01*
X9170162Y9785451D01*
X9172397Y9788702D01*
X9175648Y9790938D01*
X9179560Y9791700D01*
X9175648Y9792462D01*
X9172397Y9794697D01*
X9170162Y9797948D01*
X9169400Y9801860D01*
X9169400Y9968484D01*
X9168384Y9969500D01*
X8417560Y9969500D01*
X8413648Y9970262D01*
X8410397Y9972497D01*
X8408162Y9975748D01*
X8407400Y9979660D01*
X8406638Y9975748D01*
X8404402Y9972497D01*
X8401151Y9970262D01*
X8397240Y9969500D01*
X7211059Y9969500D01*
X7207148Y9970262D01*
X7203897Y9972497D01*
X7201662Y9975748D01*
X7200900Y9979660D01*
X7200138Y9975748D01*
X7197902Y9972497D01*
X7194651Y9970262D01*
X7190740Y9969500D01*
X6004560Y9969500D01*
X6000648Y9970262D01*
X5997397Y9972497D01*
X5995162Y9975748D01*
X5994400Y9979660D01*
X5993638Y9975748D01*
X5991402Y9972497D01*
X5988151Y9970262D01*
X5984240Y9969500D01*
X4798060Y9969500D01*
X4794148Y9970262D01*
X4790897Y9972497D01*
X4788662Y9975748D01*
X4787900Y9979660D01*
X4787138Y9975748D01*
X4784902Y9972497D01*
X4781651Y9970262D01*
X4777740Y9969500D01*
X3591560Y9969500D01*
X3587648Y9970262D01*
X3584397Y9972497D01*
X3582162Y9975748D01*
X3581400Y9979660D01*
X3580637Y9975748D01*
X3578402Y9972497D01*
X3575151Y9970262D01*
X3571240Y9969500D01*
X1994916Y9969500D01*
X1993900Y9968484D01*
X1993900Y2782316D01*
X1994916Y2781300D01*
X3571240Y2781300D01*
X3575151Y2780538D01*
X3578402Y2778302D01*
X3580637Y2775051D01*
G37*
G36*
X2928366Y10443667D02*
G01*
X3396234Y10443667D01*
X3402533Y10444429D01*
X3408019Y10446308D01*
X3412845Y10449356D01*
X3418738Y10455300D01*
X3434029Y10468152D01*
X3454400Y10487863D01*
X3473348Y10508894D01*
X3490722Y10531246D01*
X3506571Y10554716D01*
X3520694Y10579252D01*
X3533089Y10604703D01*
X3543706Y10630966D01*
X3552444Y10657941D01*
X3559251Y10685424D01*
X3561232Y10696549D01*
X3562858Y10700512D01*
X3565956Y10703458D01*
X3569970Y10704880D01*
X3574237Y10704474D01*
X3577945Y10702391D01*
X3580485Y10698988D01*
X3581400Y10694771D01*
X3581400Y10844377D01*
X3580485Y10840212D01*
X3577945Y10836757D01*
X3574237Y10834674D01*
X3569970Y10834319D01*
X3565956Y10835741D01*
X3562858Y10838688D01*
X3561232Y10842650D01*
X3559200Y10854131D01*
X3552342Y10881614D01*
X3543604Y10908538D01*
X3532987Y10934750D01*
X3520541Y10960201D01*
X3506368Y10984738D01*
X3490569Y11008207D01*
X3473094Y11030559D01*
X3454146Y11051590D01*
X3433775Y11071250D01*
X3417976Y11084560D01*
X3412845Y11089843D01*
X3408019Y11092891D01*
X3402533Y11094770D01*
X3396234Y11095482D01*
X2928366Y11095482D01*
X2922066Y11094770D01*
X2916580Y11092891D01*
X2911703Y11089792D01*
X2906115Y11084255D01*
X2890621Y11071250D01*
X2870250Y11051590D01*
X2851302Y11030559D01*
X2833827Y11008207D01*
X2818028Y10984738D01*
X2803855Y10960201D01*
X2791409Y10934750D01*
X2780792Y10908538D01*
X2772054Y10881614D01*
X2765196Y10854131D01*
X2760268Y10826242D01*
X2757322Y10798048D01*
X2756306Y10769752D01*
X2757271Y10741456D01*
X2760218Y10713313D01*
X2765145Y10685424D01*
X2771952Y10657941D01*
X2780690Y10630966D01*
X2791307Y10604703D01*
X2803702Y10579252D01*
X2817825Y10554716D01*
X2833674Y10531246D01*
X2851099Y10508894D01*
X2869996Y10487863D01*
X2890367Y10468152D01*
X2906776Y10454284D01*
X2911703Y10449407D01*
X2916580Y10446308D01*
X2922066Y10444429D01*
G37*
G36*
X7754366Y10443667D02*
G01*
X8222234Y10443667D01*
X8228533Y10444429D01*
X8234019Y10446308D01*
X8238845Y10449356D01*
X8244738Y10455300D01*
X8260029Y10468152D01*
X8280400Y10487863D01*
X8299348Y10508894D01*
X8316722Y10531246D01*
X8332571Y10554716D01*
X8346694Y10579252D01*
X8359089Y10604703D01*
X8369706Y10630966D01*
X8378444Y10657941D01*
X8385251Y10685424D01*
X8387232Y10696549D01*
X8388858Y10700512D01*
X8391956Y10703458D01*
X8395970Y10704880D01*
X8400237Y10704474D01*
X8403945Y10702391D01*
X8406485Y10698988D01*
X8407400Y10694771D01*
X8407400Y10844377D01*
X8406485Y10840212D01*
X8403945Y10836757D01*
X8400237Y10834674D01*
X8395970Y10834319D01*
X8391956Y10835741D01*
X8388858Y10838688D01*
X8387232Y10842650D01*
X8385200Y10854131D01*
X8378342Y10881614D01*
X8369604Y10908538D01*
X8358987Y10934750D01*
X8346541Y10960201D01*
X8332368Y10984738D01*
X8316569Y11008207D01*
X8299094Y11030559D01*
X8280146Y11051590D01*
X8259775Y11071250D01*
X8243976Y11084560D01*
X8238845Y11089843D01*
X8234019Y11092891D01*
X8228533Y11094770D01*
X8222234Y11095482D01*
X7754366Y11095482D01*
X7748066Y11094770D01*
X7742580Y11092891D01*
X7737703Y11089792D01*
X7732115Y11084255D01*
X7716621Y11071250D01*
X7696250Y11051590D01*
X7677302Y11030559D01*
X7659827Y11008207D01*
X7644028Y10984738D01*
X7629855Y10960201D01*
X7617409Y10934750D01*
X7606792Y10908538D01*
X7598054Y10881614D01*
X7591196Y10854131D01*
X7586268Y10826242D01*
X7583322Y10798048D01*
X7582306Y10769752D01*
X7583271Y10741456D01*
X7586218Y10713313D01*
X7591145Y10685424D01*
X7597952Y10657941D01*
X7606690Y10630966D01*
X7617307Y10604703D01*
X7629702Y10579252D01*
X7643825Y10554716D01*
X7659674Y10531246D01*
X7677099Y10508894D01*
X7695996Y10487863D01*
X7716367Y10468152D01*
X7732775Y10454284D01*
X7737703Y10449407D01*
X7742580Y10446308D01*
X7748066Y10444429D01*
G37*
G36*
X6547866Y10443667D02*
G01*
X7015734Y10443667D01*
X7022033Y10444429D01*
X7027519Y10446308D01*
X7032345Y10449356D01*
X7038238Y10455300D01*
X7053529Y10468152D01*
X7073900Y10487863D01*
X7092848Y10508894D01*
X7110222Y10531246D01*
X7126071Y10554716D01*
X7140194Y10579252D01*
X7152589Y10604703D01*
X7163206Y10630966D01*
X7171944Y10657941D01*
X7178751Y10685424D01*
X7180732Y10696549D01*
X7182358Y10700512D01*
X7185456Y10703458D01*
X7189470Y10704880D01*
X7193737Y10704474D01*
X7197445Y10702391D01*
X7199985Y10698988D01*
X7200900Y10694771D01*
X7200900Y10844377D01*
X7199985Y10840212D01*
X7197445Y10836757D01*
X7193737Y10834674D01*
X7189470Y10834319D01*
X7185456Y10835741D01*
X7182358Y10838688D01*
X7180732Y10842650D01*
X7178700Y10854131D01*
X7171842Y10881614D01*
X7163104Y10908538D01*
X7152487Y10934750D01*
X7140041Y10960201D01*
X7125868Y10984738D01*
X7110069Y11008207D01*
X7092594Y11030559D01*
X7073646Y11051590D01*
X7053275Y11071250D01*
X7037476Y11084560D01*
X7032345Y11089843D01*
X7027519Y11092891D01*
X7022033Y11094770D01*
X7015734Y11095482D01*
X6547866Y11095482D01*
X6541566Y11094770D01*
X6536080Y11092891D01*
X6531203Y11089792D01*
X6525615Y11084255D01*
X6510121Y11071250D01*
X6489750Y11051590D01*
X6470802Y11030559D01*
X6453327Y11008207D01*
X6437528Y10984738D01*
X6423355Y10960201D01*
X6410909Y10934750D01*
X6400292Y10908538D01*
X6391554Y10881614D01*
X6384696Y10854131D01*
X6379768Y10826242D01*
X6376822Y10798048D01*
X6375806Y10769752D01*
X6376771Y10741456D01*
X6379718Y10713313D01*
X6384645Y10685424D01*
X6391452Y10657941D01*
X6400190Y10630966D01*
X6410807Y10604703D01*
X6423202Y10579252D01*
X6437325Y10554716D01*
X6453174Y10531246D01*
X6470599Y10508894D01*
X6489496Y10487863D01*
X6509867Y10468152D01*
X6526276Y10454284D01*
X6531203Y10449407D01*
X6536080Y10446308D01*
X6541566Y10444429D01*
G37*
G36*
X1105916Y9956800D02*
G01*
X1307084Y9956800D01*
X1308100Y9957816D01*
X1308100Y10158984D01*
X1307084Y10160000D01*
X1094740Y10160000D01*
X1098651Y10159238D01*
X1101902Y10157002D01*
X1104138Y10153751D01*
X1104900Y10149840D01*
X1104900Y9957816D01*
X1105052Y9956952D01*
G37*
G36*
X655066Y2937967D02*
G01*
X1122934Y2937967D01*
X1129233Y2938729D01*
X1134719Y2940608D01*
X1139545Y2943656D01*
X1145438Y2949600D01*
X1160729Y2962452D01*
X1181100Y2982163D01*
X1200048Y3003194D01*
X1217422Y3025546D01*
X1233271Y3049016D01*
X1247394Y3073552D01*
X1259789Y3099003D01*
X1270406Y3125266D01*
X1279144Y3152241D01*
X1285951Y3179724D01*
X1290878Y3207613D01*
X1293825Y3235756D01*
X1294790Y3264052D01*
X1293825Y3292348D01*
X1290828Y3320542D01*
X1285900Y3348431D01*
X1279042Y3375914D01*
X1270304Y3402837D01*
X1259687Y3429050D01*
X1247241Y3454501D01*
X1233068Y3479037D01*
X1217269Y3502507D01*
X1199794Y3524859D01*
X1180846Y3545890D01*
X1160475Y3565550D01*
X1144676Y3578860D01*
X1139545Y3584143D01*
X1134719Y3587191D01*
X1129233Y3589070D01*
X1122934Y3589782D01*
X655066Y3589782D01*
X648766Y3589070D01*
X643280Y3587191D01*
X638403Y3584092D01*
X632815Y3578555D01*
X617321Y3565550D01*
X596950Y3545890D01*
X578002Y3524859D01*
X560527Y3502507D01*
X544728Y3479037D01*
X530555Y3454501D01*
X518109Y3429050D01*
X507492Y3402837D01*
X498754Y3375914D01*
X491896Y3348431D01*
X486968Y3320542D01*
X484022Y3292348D01*
X483006Y3264052D01*
X483971Y3235756D01*
X486918Y3207613D01*
X491845Y3179724D01*
X498652Y3152241D01*
X507390Y3125266D01*
X518007Y3099003D01*
X530402Y3073552D01*
X544525Y3049016D01*
X560374Y3025546D01*
X577799Y3003194D01*
X596696Y2982163D01*
X617067Y2962452D01*
X633476Y2948584D01*
X638403Y2943707D01*
X643280Y2940608D01*
X648766Y2938729D01*
G37*
G36*
X10027666Y2937967D02*
G01*
X10495534Y2937967D01*
X10501833Y2938729D01*
X10507319Y2940608D01*
X10512145Y2943656D01*
X10518038Y2949600D01*
X10533329Y2962452D01*
X10553700Y2982163D01*
X10572648Y3003194D01*
X10590022Y3025546D01*
X10605871Y3049016D01*
X10619994Y3073552D01*
X10632389Y3099003D01*
X10643006Y3125266D01*
X10651744Y3152241D01*
X10658551Y3179724D01*
X10663478Y3207613D01*
X10666425Y3235756D01*
X10667390Y3264052D01*
X10666425Y3292348D01*
X10663428Y3320542D01*
X10658500Y3348431D01*
X10651642Y3375914D01*
X10642904Y3402837D01*
X10632287Y3429050D01*
X10619841Y3454501D01*
X10605668Y3479037D01*
X10589869Y3502507D01*
X10572394Y3524859D01*
X10553446Y3545890D01*
X10533075Y3565550D01*
X10517276Y3578860D01*
X10512145Y3584143D01*
X10507319Y3587191D01*
X10501833Y3589070D01*
X10495534Y3589782D01*
X10027666Y3589782D01*
X10021366Y3589070D01*
X10015880Y3587191D01*
X10011003Y3584092D01*
X10005415Y3578555D01*
X9989921Y3565550D01*
X9969550Y3545890D01*
X9950602Y3524859D01*
X9933127Y3502507D01*
X9917328Y3479037D01*
X9903155Y3454501D01*
X9890709Y3429050D01*
X9880092Y3402837D01*
X9871354Y3375914D01*
X9864496Y3348431D01*
X9859568Y3320542D01*
X9856622Y3292348D01*
X9855606Y3264052D01*
X9856571Y3235756D01*
X9859518Y3207613D01*
X9864445Y3179724D01*
X9871252Y3152241D01*
X9879990Y3125266D01*
X9890607Y3099003D01*
X9903002Y3073552D01*
X9917125Y3049016D01*
X9932974Y3025546D01*
X9950399Y3003194D01*
X9969296Y2982163D01*
X9989667Y2962452D01*
X10006076Y2948584D01*
X10011003Y2943707D01*
X10015880Y2940608D01*
X10021366Y2938729D01*
G37*
G36*
X10478516Y3860800D02*
G01*
X10679684Y3860800D01*
X10680700Y3861815D01*
X10680700Y4053840D01*
X10681462Y4057751D01*
X10683697Y4061002D01*
X10686948Y4063237D01*
X10690860Y4064000D01*
X10478516Y4064000D01*
X10477500Y4062984D01*
X10477500Y3861815D01*
G37*
G36*
X1105916Y3860800D02*
G01*
X1307084Y3860800D01*
X1308100Y3861815D01*
X1308100Y4062984D01*
X1307084Y4064000D01*
X1094740Y4064000D01*
X1098651Y4063237D01*
X1101902Y4061002D01*
X1104138Y4057751D01*
X1104900Y4053840D01*
X1104900Y3861815D01*
X1105052Y3860952D01*
G37*
G36*
X655066Y4461967D02*
G01*
X1122934Y4461967D01*
X1129233Y4462729D01*
X1134719Y4464608D01*
X1139545Y4467656D01*
X1145438Y4473600D01*
X1160729Y4486452D01*
X1181100Y4506163D01*
X1200048Y4527194D01*
X1217422Y4549546D01*
X1233271Y4573016D01*
X1247394Y4597552D01*
X1259789Y4623003D01*
X1270406Y4649266D01*
X1279144Y4676241D01*
X1285951Y4703724D01*
X1290878Y4731613D01*
X1293825Y4759756D01*
X1294790Y4788052D01*
X1293825Y4816348D01*
X1290828Y4844542D01*
X1285900Y4872431D01*
X1279042Y4899914D01*
X1270304Y4926838D01*
X1259687Y4953050D01*
X1247241Y4978501D01*
X1233068Y5003038D01*
X1217269Y5026507D01*
X1199794Y5048859D01*
X1180846Y5069890D01*
X1160475Y5089550D01*
X1144676Y5102860D01*
X1139545Y5108143D01*
X1134719Y5111191D01*
X1129233Y5113070D01*
X1122934Y5113782D01*
X655066Y5113782D01*
X648766Y5113070D01*
X643280Y5111191D01*
X638403Y5108092D01*
X632815Y5102555D01*
X617321Y5089550D01*
X596950Y5069890D01*
X578002Y5048859D01*
X560527Y5026507D01*
X544728Y5003038D01*
X530555Y4978501D01*
X518109Y4953050D01*
X507492Y4926838D01*
X498754Y4899914D01*
X491896Y4872431D01*
X486968Y4844542D01*
X484022Y4816348D01*
X483006Y4788052D01*
X483971Y4759756D01*
X486918Y4731613D01*
X491845Y4703724D01*
X498652Y4676241D01*
X507390Y4649266D01*
X518007Y4623003D01*
X530402Y4597552D01*
X544525Y4573016D01*
X560374Y4549546D01*
X577799Y4527194D01*
X596696Y4506163D01*
X617067Y4486452D01*
X633476Y4472584D01*
X638403Y4467707D01*
X643280Y4464608D01*
X648766Y4462729D01*
G37*
G36*
X10027666Y4461967D02*
G01*
X10495534Y4461967D01*
X10501833Y4462729D01*
X10507319Y4464608D01*
X10512145Y4467656D01*
X10518038Y4473600D01*
X10533329Y4486452D01*
X10553700Y4506163D01*
X10572648Y4527194D01*
X10590022Y4549546D01*
X10605871Y4573016D01*
X10619994Y4597552D01*
X10632389Y4623003D01*
X10643006Y4649266D01*
X10651744Y4676241D01*
X10658551Y4703724D01*
X10663478Y4731613D01*
X10666425Y4759756D01*
X10667390Y4788052D01*
X10666425Y4816348D01*
X10663428Y4844542D01*
X10658500Y4872431D01*
X10651642Y4899914D01*
X10642904Y4926838D01*
X10632287Y4953050D01*
X10619841Y4978501D01*
X10605668Y5003038D01*
X10589869Y5026507D01*
X10572394Y5048859D01*
X10553446Y5069890D01*
X10533075Y5089550D01*
X10517276Y5102860D01*
X10512145Y5108143D01*
X10507319Y5111191D01*
X10501833Y5113070D01*
X10495534Y5113782D01*
X10027666Y5113782D01*
X10021366Y5113070D01*
X10015880Y5111191D01*
X10011003Y5108092D01*
X10005415Y5102555D01*
X9989921Y5089550D01*
X9969550Y5069890D01*
X9950602Y5048859D01*
X9933127Y5026507D01*
X9917328Y5003038D01*
X9903155Y4978501D01*
X9890709Y4953050D01*
X9880092Y4926838D01*
X9871354Y4899914D01*
X9864496Y4872431D01*
X9859568Y4844542D01*
X9856622Y4816348D01*
X9855606Y4788052D01*
X9856571Y4759756D01*
X9859518Y4731613D01*
X9864445Y4703724D01*
X9871252Y4676241D01*
X9879990Y4649266D01*
X9890607Y4623003D01*
X9903002Y4597552D01*
X9917125Y4573016D01*
X9932974Y4549546D01*
X9950399Y4527194D01*
X9969296Y4506163D01*
X9989667Y4486452D01*
X10006076Y4472584D01*
X10011003Y4467707D01*
X10015880Y4464608D01*
X10021366Y4462729D01*
G37*
G36*
X10478516Y5384800D02*
G01*
X10679684Y5384800D01*
X10680700Y5385816D01*
X10680700Y5577840D01*
X10681462Y5581751D01*
X10683697Y5585002D01*
X10686948Y5587238D01*
X10690860Y5588000D01*
X10478516Y5588000D01*
X10477500Y5586984D01*
X10477500Y5385816D01*
G37*
G36*
X1105916Y5384800D02*
G01*
X1307084Y5384800D01*
X1308100Y5385816D01*
X1308100Y5586984D01*
X1307084Y5588000D01*
X1094740Y5588000D01*
X1098651Y5587238D01*
X1101902Y5585002D01*
X1104138Y5581751D01*
X1104900Y5577840D01*
X1104900Y5385816D01*
G37*
G36*
X655066Y5985967D02*
G01*
X1122934Y5985967D01*
X1129233Y5986729D01*
X1134719Y5988608D01*
X1139545Y5991656D01*
X1145438Y5997600D01*
X1160729Y6010452D01*
X1181100Y6030163D01*
X1200048Y6051194D01*
X1217422Y6073546D01*
X1233271Y6097016D01*
X1247394Y6121552D01*
X1259789Y6147003D01*
X1270406Y6173266D01*
X1279144Y6200241D01*
X1285951Y6227724D01*
X1290878Y6255613D01*
X1293825Y6283756D01*
X1294790Y6312052D01*
X1293825Y6340348D01*
X1290828Y6368542D01*
X1285900Y6396431D01*
X1279042Y6423914D01*
X1270304Y6450838D01*
X1259687Y6477050D01*
X1247241Y6502501D01*
X1233068Y6527038D01*
X1217269Y6550507D01*
X1199794Y6572859D01*
X1180846Y6593890D01*
X1160475Y6613550D01*
X1144676Y6626859D01*
X1139545Y6632143D01*
X1134719Y6635191D01*
X1129233Y6637070D01*
X1122934Y6637781D01*
X655066Y6637781D01*
X648766Y6637070D01*
X643280Y6635191D01*
X638403Y6632092D01*
X632815Y6626555D01*
X617321Y6613550D01*
X596950Y6593890D01*
X578002Y6572859D01*
X560527Y6550507D01*
X544728Y6527038D01*
X530555Y6502501D01*
X518109Y6477050D01*
X507492Y6450838D01*
X498754Y6423914D01*
X491896Y6396431D01*
X486968Y6368542D01*
X484022Y6340348D01*
X483006Y6312052D01*
X483971Y6283756D01*
X486918Y6255613D01*
X491845Y6227724D01*
X498652Y6200241D01*
X507390Y6173266D01*
X518007Y6147003D01*
X530402Y6121552D01*
X544525Y6097016D01*
X560374Y6073546D01*
X577799Y6051194D01*
X596696Y6030163D01*
X617067Y6010452D01*
X633476Y5996584D01*
X638403Y5991707D01*
X643280Y5988608D01*
X648766Y5986729D01*
G37*
G36*
X3379215Y1181100D02*
G01*
X3580384Y1181100D01*
X3581400Y1182116D01*
X3581400Y1394460D01*
X3580637Y1390548D01*
X3578402Y1387297D01*
X3575151Y1385062D01*
X3571240Y1384300D01*
X3379215Y1384300D01*
X3378200Y1383284D01*
X3378200Y1182116D01*
X3378352Y1181252D01*
G37*
G36*
X10478516Y6908800D02*
G01*
X10679684Y6908800D01*
X10680700Y6909816D01*
X10680700Y7101840D01*
X10681462Y7105751D01*
X10683697Y7109002D01*
X10686948Y7111238D01*
X10690860Y7112000D01*
X10478516Y7112000D01*
X10477500Y7110984D01*
X10477500Y6909816D01*
X10477652Y6908952D01*
G37*
G36*
X1105916Y6908800D02*
G01*
X1307084Y6908800D01*
X1308100Y6909816D01*
X1308100Y7110984D01*
X1307084Y7112000D01*
X1094740Y7112000D01*
X1098651Y7111238D01*
X1101902Y7109002D01*
X1104138Y7105751D01*
X1104900Y7101840D01*
X1104900Y6909816D01*
X1105052Y6908952D01*
G37*
G36*
X655066Y7509967D02*
G01*
X1122934Y7509967D01*
X1129233Y7510729D01*
X1134719Y7512608D01*
X1139545Y7515656D01*
X1145438Y7521600D01*
X1160729Y7534452D01*
X1181100Y7554163D01*
X1200048Y7575194D01*
X1217422Y7597546D01*
X1233271Y7621016D01*
X1247394Y7645552D01*
X1259789Y7671003D01*
X1270406Y7697266D01*
X1279144Y7724241D01*
X1285951Y7751724D01*
X1290878Y7779613D01*
X1293825Y7807756D01*
X1294790Y7836052D01*
X1293825Y7864348D01*
X1290828Y7892542D01*
X1285900Y7920431D01*
X1279042Y7947914D01*
X1270304Y7974838D01*
X1259687Y8001050D01*
X1247241Y8026501D01*
X1233068Y8051038D01*
X1217269Y8074507D01*
X1199794Y8096859D01*
X1180846Y8117890D01*
X1160475Y8137550D01*
X1144676Y8150859D01*
X1139545Y8156143D01*
X1134719Y8159191D01*
X1129233Y8161070D01*
X1122934Y8161781D01*
X655066Y8161781D01*
X648766Y8161070D01*
X643280Y8159191D01*
X638403Y8156092D01*
X632815Y8150555D01*
X617321Y8137550D01*
X596950Y8117890D01*
X578002Y8096859D01*
X560527Y8074507D01*
X544728Y8051038D01*
X530555Y8026501D01*
X518109Y8001050D01*
X507492Y7974838D01*
X498754Y7947914D01*
X491896Y7920431D01*
X486968Y7892542D01*
X484022Y7864348D01*
X483006Y7836052D01*
X483971Y7807756D01*
X486918Y7779613D01*
X491845Y7751724D01*
X498652Y7724241D01*
X507390Y7697266D01*
X518007Y7671003D01*
X530402Y7645552D01*
X544525Y7621016D01*
X560374Y7597546D01*
X577799Y7575194D01*
X596696Y7554163D01*
X617067Y7534452D01*
X633476Y7520584D01*
X638403Y7515707D01*
X643280Y7512608D01*
X648766Y7510729D01*
G37*
G36*
X10027666Y7509967D02*
G01*
X10495534Y7509967D01*
X10501833Y7510729D01*
X10507319Y7512608D01*
X10512145Y7515656D01*
X10518038Y7521600D01*
X10533329Y7534452D01*
X10553700Y7554163D01*
X10572648Y7575194D01*
X10590022Y7597546D01*
X10605871Y7621016D01*
X10619994Y7645552D01*
X10632389Y7671003D01*
X10643006Y7697266D01*
X10651744Y7724241D01*
X10658551Y7751724D01*
X10663478Y7779613D01*
X10666425Y7807756D01*
X10667390Y7836052D01*
X10666425Y7864348D01*
X10663428Y7892542D01*
X10658500Y7920431D01*
X10651642Y7947914D01*
X10642904Y7974838D01*
X10632287Y8001050D01*
X10619841Y8026501D01*
X10605668Y8051038D01*
X10589869Y8074507D01*
X10572394Y8096859D01*
X10553446Y8117890D01*
X10533075Y8137550D01*
X10517276Y8150859D01*
X10512145Y8156143D01*
X10507319Y8159191D01*
X10501833Y8161070D01*
X10495534Y8161781D01*
X10027666Y8161781D01*
X10021366Y8161070D01*
X10015880Y8159191D01*
X10011003Y8156092D01*
X10005415Y8150555D01*
X9989921Y8137550D01*
X9969550Y8117890D01*
X9950602Y8096859D01*
X9933127Y8074507D01*
X9917328Y8051038D01*
X9903155Y8026501D01*
X9890709Y8001050D01*
X9880092Y7974838D01*
X9871354Y7947914D01*
X9864496Y7920431D01*
X9859568Y7892542D01*
X9856622Y7864348D01*
X9855606Y7836052D01*
X9856571Y7807756D01*
X9859518Y7779613D01*
X9864445Y7751724D01*
X9871252Y7724241D01*
X9879990Y7697266D01*
X9890607Y7671003D01*
X9903002Y7645552D01*
X9917125Y7621016D01*
X9932974Y7597546D01*
X9950399Y7575194D01*
X9969296Y7554163D01*
X9989667Y7534452D01*
X10006076Y7520584D01*
X10011003Y7515707D01*
X10015880Y7512608D01*
X10021366Y7510729D01*
G37*
G36*
X10478516Y8432800D02*
G01*
X10679684Y8432800D01*
X10680700Y8433816D01*
X10680700Y8625840D01*
X10681462Y8629751D01*
X10683697Y8633002D01*
X10686948Y8635238D01*
X10690860Y8636000D01*
X10478516Y8636000D01*
X10477500Y8634984D01*
X10477500Y8433816D01*
X10477652Y8432952D01*
G37*
G36*
X1105916Y8432800D02*
G01*
X1307084Y8432800D01*
X1308100Y8433816D01*
X1308100Y8634984D01*
X1307084Y8636000D01*
X1094740Y8636000D01*
X1098651Y8635238D01*
X1101902Y8633002D01*
X1104138Y8629751D01*
X1104900Y8625840D01*
X1104900Y8433816D01*
X1105052Y8432952D01*
G37*
G36*
X655066Y9033967D02*
G01*
X1122934Y9033967D01*
X1129233Y9034729D01*
X1134719Y9036608D01*
X1139545Y9039656D01*
X1145438Y9045600D01*
X1160729Y9058452D01*
X1181100Y9078163D01*
X1200048Y9099194D01*
X1217422Y9121546D01*
X1233271Y9145016D01*
X1247394Y9169552D01*
X1259789Y9195003D01*
X1270406Y9221266D01*
X1279144Y9248241D01*
X1285951Y9275724D01*
X1290878Y9303613D01*
X1293825Y9331756D01*
X1294790Y9360052D01*
X1293825Y9388348D01*
X1290828Y9416542D01*
X1285900Y9444431D01*
X1279042Y9471914D01*
X1270304Y9498838D01*
X1259687Y9525050D01*
X1247241Y9550501D01*
X1233068Y9575038D01*
X1217269Y9598507D01*
X1199794Y9620859D01*
X1180846Y9641890D01*
X1160475Y9661550D01*
X1144676Y9674860D01*
X1139545Y9680143D01*
X1134719Y9683191D01*
X1129233Y9685070D01*
X1122934Y9685782D01*
X655066Y9685782D01*
X648766Y9685070D01*
X643280Y9683191D01*
X638403Y9680092D01*
X632815Y9674555D01*
X617321Y9661550D01*
X596950Y9641890D01*
X578002Y9620859D01*
X560527Y9598507D01*
X544728Y9575038D01*
X530555Y9550501D01*
X518109Y9525050D01*
X507492Y9498838D01*
X498754Y9471914D01*
X491896Y9444431D01*
X486968Y9416542D01*
X484022Y9388348D01*
X483006Y9360052D01*
X483971Y9331756D01*
X486918Y9303613D01*
X491845Y9275724D01*
X498652Y9248241D01*
X507390Y9221266D01*
X518007Y9195003D01*
X530402Y9169552D01*
X544525Y9145016D01*
X560374Y9121546D01*
X577799Y9099194D01*
X596696Y9078163D01*
X617067Y9058452D01*
X633476Y9044584D01*
X638403Y9039707D01*
X643280Y9036608D01*
X648766Y9034729D01*
G37*
G36*
X10027666Y9033967D02*
G01*
X10495534Y9033967D01*
X10501833Y9034729D01*
X10507319Y9036608D01*
X10512145Y9039656D01*
X10518038Y9045600D01*
X10533329Y9058452D01*
X10553700Y9078163D01*
X10572648Y9099194D01*
X10590022Y9121546D01*
X10605871Y9145016D01*
X10619994Y9169552D01*
X10632389Y9195003D01*
X10643006Y9221266D01*
X10651744Y9248241D01*
X10658551Y9275724D01*
X10663478Y9303613D01*
X10666425Y9331756D01*
X10667390Y9360052D01*
X10666425Y9388348D01*
X10663428Y9416542D01*
X10658500Y9444431D01*
X10651642Y9471914D01*
X10642904Y9498838D01*
X10632287Y9525050D01*
X10619841Y9550501D01*
X10605668Y9575038D01*
X10589869Y9598507D01*
X10572394Y9620859D01*
X10553446Y9641890D01*
X10533075Y9661550D01*
X10517276Y9674860D01*
X10512145Y9680143D01*
X10507319Y9683191D01*
X10501833Y9685070D01*
X10495534Y9685782D01*
X10027666Y9685782D01*
X10021366Y9685070D01*
X10015880Y9683191D01*
X10011003Y9680092D01*
X10005415Y9674555D01*
X9989921Y9661550D01*
X9969550Y9641890D01*
X9950602Y9620859D01*
X9933127Y9598507D01*
X9917328Y9575038D01*
X9903155Y9550501D01*
X9890709Y9525050D01*
X9880092Y9498838D01*
X9871354Y9471914D01*
X9864496Y9444431D01*
X9859568Y9416542D01*
X9856622Y9388348D01*
X9855606Y9360052D01*
X9856571Y9331756D01*
X9859518Y9303613D01*
X9864445Y9275724D01*
X9871252Y9248241D01*
X9879990Y9221266D01*
X9890607Y9195003D01*
X9903002Y9169552D01*
X9917125Y9145016D01*
X9932974Y9121546D01*
X9950399Y9099194D01*
X9969296Y9078163D01*
X9989667Y9058452D01*
X10006076Y9044584D01*
X10011003Y9039707D01*
X10015880Y9036608D01*
X10021366Y9034729D01*
G37*
G36*
X10478516Y9956800D02*
G01*
X10679684Y9956800D01*
X10680700Y9957816D01*
X10680700Y10149840D01*
X10681462Y10153751D01*
X10683697Y10157002D01*
X10686948Y10159238D01*
X10690860Y10160000D01*
X10478516Y10160000D01*
X10477500Y10158984D01*
X10477500Y9957816D01*
G37*
G36*
X10027666Y5985967D02*
G01*
X10495534Y5985967D01*
X10501833Y5986729D01*
X10507319Y5988608D01*
X10512145Y5991656D01*
X10518038Y5997600D01*
X10533329Y6010452D01*
X10553700Y6030163D01*
X10572648Y6051194D01*
X10590022Y6073546D01*
X10605871Y6097016D01*
X10619994Y6121552D01*
X10632389Y6147003D01*
X10643006Y6173266D01*
X10651744Y6200241D01*
X10658551Y6227724D01*
X10663478Y6255613D01*
X10666425Y6283756D01*
X10667390Y6312052D01*
X10666425Y6340348D01*
X10663428Y6368542D01*
X10658500Y6396431D01*
X10651642Y6423914D01*
X10642904Y6450838D01*
X10632287Y6477050D01*
X10619841Y6502501D01*
X10605668Y6527038D01*
X10589869Y6550507D01*
X10572394Y6572859D01*
X10553446Y6593890D01*
X10533075Y6613550D01*
X10517276Y6626859D01*
X10512145Y6632143D01*
X10507319Y6635191D01*
X10501833Y6637070D01*
X10495534Y6637781D01*
X10027666Y6637781D01*
X10021366Y6637070D01*
X10015880Y6635191D01*
X10011003Y6632092D01*
X10005415Y6626555D01*
X9989921Y6613550D01*
X9969550Y6593890D01*
X9950602Y6572859D01*
X9933127Y6550507D01*
X9917328Y6527038D01*
X9903155Y6502501D01*
X9890709Y6477050D01*
X9880092Y6450838D01*
X9871354Y6423914D01*
X9864496Y6396431D01*
X9859568Y6368542D01*
X9856622Y6340348D01*
X9855606Y6312052D01*
X9856571Y6283756D01*
X9859518Y6255613D01*
X9864445Y6227724D01*
X9871252Y6200241D01*
X9879990Y6173266D01*
X9890607Y6147003D01*
X9903002Y6121552D01*
X9917125Y6097016D01*
X9932974Y6073546D01*
X9950399Y6051194D01*
X9969296Y6030163D01*
X9989667Y6010452D01*
X10006076Y5996584D01*
X10011003Y5991707D01*
X10015880Y5988608D01*
X10021366Y5986729D01*
G37*

%LPD*%
D10*
X10985500Y12128500D02*
G01*
X10985500Y12192000D01*
X10985500Y698500D02*
G01*
X10985500Y762000D01*
X11099038Y38862D02*
G01*
X38862Y38862D01*
X38862Y38862D02*
G01*
X38862Y685545D01*
X38862Y685545D02*
G01*
X11099038Y685545D01*
X11099038Y685545D02*
G01*
X11099038Y38862D01*
X10074876Y204043D02*
G01*
X10087982Y189583D01*
X10087982Y189583D02*
G01*
X10102442Y176477D01*
X10102442Y176477D02*
G01*
X10118117Y164852D01*
X10118117Y164852D02*
G01*
X10134856Y154819D01*
X10134856Y154819D02*
G01*
X10152497Y146475D01*
X10152497Y146475D02*
G01*
X10170872Y139901D01*
X10170872Y139901D02*
G01*
X10189803Y135159D01*
X10189803Y135159D02*
G01*
X10209107Y132295D01*
X10209107Y132295D02*
G01*
X10228599Y131338D01*
X10228599Y131338D02*
G01*
X10548600Y131338D01*
X10548600Y131338D02*
G01*
X10568092Y132295D01*
X10568092Y132295D02*
G01*
X10587396Y135159D01*
X10587396Y135159D02*
G01*
X10606327Y139901D01*
X10606327Y139901D02*
G01*
X10624702Y146475D01*
X10624702Y146475D02*
G01*
X10642343Y154819D01*
X10642343Y154819D02*
G01*
X10659082Y164852D01*
X10659082Y164852D02*
G01*
X10674757Y176477D01*
X10674757Y176477D02*
G01*
X10689217Y189583D01*
X10689217Y189583D02*
G01*
X10702323Y204043D01*
X10702323Y204043D02*
G01*
X10713948Y219718D01*
X10713948Y219718D02*
G01*
X10723981Y236457D01*
X10723981Y236457D02*
G01*
X10732325Y254098D01*
X10732325Y254098D02*
G01*
X10738899Y272473D01*
X10738899Y272473D02*
G01*
X10743641Y291404D01*
X10743641Y291404D02*
G01*
X10746505Y310708D01*
X10746505Y310708D02*
G01*
X10747462Y330200D01*
X10747462Y330200D02*
G01*
X10746505Y349691D01*
X10746505Y349691D02*
G01*
X10743641Y368995D01*
X10743641Y368995D02*
G01*
X10738899Y387926D01*
X10738899Y387926D02*
G01*
X10732325Y406301D01*
X10732325Y406301D02*
G01*
X10723981Y423942D01*
X10723981Y423942D02*
G01*
X10713948Y440681D01*
X10713948Y440681D02*
G01*
X10702323Y456356D01*
X10702323Y456356D02*
G01*
X10689217Y470816D01*
X10689217Y470816D02*
G01*
X10674757Y483922D01*
X10674757Y483922D02*
G01*
X10659082Y495547D01*
X10659082Y495547D02*
G01*
X10642343Y505580D01*
X10642343Y505580D02*
G01*
X10624702Y513924D01*
X10624702Y513924D02*
G01*
X10606327Y520498D01*
X10606327Y520498D02*
G01*
X10587396Y525240D01*
X10587396Y525240D02*
G01*
X10568092Y528104D01*
X10568092Y528104D02*
G01*
X10548600Y529061D01*
X10548600Y529061D02*
G01*
X10228599Y529061D01*
X10228599Y529061D02*
G01*
X10209107Y528104D01*
X10209107Y528104D02*
G01*
X10189803Y525240D01*
X10189803Y525240D02*
G01*
X10170872Y520498D01*
X10170872Y520498D02*
G01*
X10152497Y513924D01*
X10152497Y513924D02*
G01*
X10134856Y505580D01*
X10134856Y505580D02*
G01*
X10118117Y495547D01*
X10118117Y495547D02*
G01*
X10102442Y483922D01*
X10102442Y483922D02*
G01*
X10087982Y470816D01*
X10087982Y470816D02*
G01*
X10074876Y456356D01*
X10074876Y456356D02*
G01*
X10063251Y440681D01*
X10063251Y440681D02*
G01*
X10053218Y423942D01*
X10053218Y423942D02*
G01*
X10044874Y406301D01*
X10044874Y406301D02*
G01*
X10038300Y387926D01*
X10038300Y387926D02*
G01*
X10033558Y368995D01*
X10033558Y368995D02*
G01*
X10030694Y349691D01*
X10030694Y349691D02*
G01*
X10029737Y330200D01*
X10029737Y330200D02*
G01*
X10030694Y310708D01*
X10030694Y310708D02*
G01*
X10033558Y291404D01*
X10033558Y291404D02*
G01*
X10038300Y272473D01*
X10038300Y272473D02*
G01*
X10044874Y254098D01*
X10044874Y254098D02*
G01*
X10053218Y236457D01*
X10053218Y236457D02*
G01*
X10063251Y219718D01*
X10063251Y219718D02*
G01*
X10074876Y204043D01*
X422876Y204043D02*
G01*
X435982Y189583D01*
X435982Y189583D02*
G01*
X450442Y176477D01*
X450442Y176477D02*
G01*
X466117Y164852D01*
X466117Y164852D02*
G01*
X482856Y154819D01*
X482856Y154819D02*
G01*
X500497Y146475D01*
X500497Y146475D02*
G01*
X518872Y139901D01*
X518872Y139901D02*
G01*
X537803Y135159D01*
X537803Y135159D02*
G01*
X557107Y132295D01*
X557107Y132295D02*
G01*
X576599Y131338D01*
X576599Y131338D02*
G01*
X896600Y131338D01*
X896600Y131338D02*
G01*
X916092Y132295D01*
X916092Y132295D02*
G01*
X935396Y135159D01*
X935396Y135159D02*
G01*
X954327Y139901D01*
X954327Y139901D02*
G01*
X972702Y146475D01*
X972702Y146475D02*
G01*
X990343Y154819D01*
X990343Y154819D02*
G01*
X1007082Y164852D01*
X1007082Y164852D02*
G01*
X1022757Y176477D01*
X1022757Y176477D02*
G01*
X1037217Y189583D01*
X1037217Y189583D02*
G01*
X1050323Y204043D01*
X1050323Y204043D02*
G01*
X1061948Y219718D01*
X1061948Y219718D02*
G01*
X1071981Y236457D01*
X1071981Y236457D02*
G01*
X1080325Y254098D01*
X1080325Y254098D02*
G01*
X1086899Y272473D01*
X1086899Y272473D02*
G01*
X1091641Y291404D01*
X1091641Y291404D02*
G01*
X1094505Y310708D01*
X1094505Y310708D02*
G01*
X1095462Y330200D01*
X1095462Y330200D02*
G01*
X1094505Y349691D01*
X1094505Y349691D02*
G01*
X1091641Y368995D01*
X1091641Y368995D02*
G01*
X1086899Y387926D01*
X1086899Y387926D02*
G01*
X1080325Y406301D01*
X1080325Y406301D02*
G01*
X1071981Y423942D01*
X1071981Y423942D02*
G01*
X1061948Y440681D01*
X1061948Y440681D02*
G01*
X1050323Y456356D01*
X1050323Y456356D02*
G01*
X1037217Y470816D01*
X1037217Y470816D02*
G01*
X1022757Y483922D01*
X1022757Y483922D02*
G01*
X1007082Y495547D01*
X1007082Y495547D02*
G01*
X990343Y505580D01*
X990343Y505580D02*
G01*
X972702Y513924D01*
X972702Y513924D02*
G01*
X954327Y520498D01*
X954327Y520498D02*
G01*
X935396Y525240D01*
X935396Y525240D02*
G01*
X916092Y528104D01*
X916092Y528104D02*
G01*
X896600Y529061D01*
X896600Y529061D02*
G01*
X576599Y529061D01*
X576599Y529061D02*
G01*
X557107Y528104D01*
X557107Y528104D02*
G01*
X537803Y525240D01*
X537803Y525240D02*
G01*
X518872Y520498D01*
X518872Y520498D02*
G01*
X500497Y513924D01*
X500497Y513924D02*
G01*
X482856Y505580D01*
X482856Y505580D02*
G01*
X466117Y495547D01*
X466117Y495547D02*
G01*
X450442Y483922D01*
X450442Y483922D02*
G01*
X435982Y470816D01*
X435982Y470816D02*
G01*
X422876Y456356D01*
X422876Y456356D02*
G01*
X411251Y440681D01*
X411251Y440681D02*
G01*
X401218Y423942D01*
X401218Y423942D02*
G01*
X392874Y406301D01*
X392874Y406301D02*
G01*
X386300Y387926D01*
X386300Y387926D02*
G01*
X381558Y368995D01*
X381558Y368995D02*
G01*
X378694Y349691D01*
X378694Y349691D02*
G01*
X377737Y330200D01*
X377737Y330200D02*
G01*
X378694Y310708D01*
X378694Y310708D02*
G01*
X381558Y291404D01*
X381558Y291404D02*
G01*
X386300Y272473D01*
X386300Y272473D02*
G01*
X392874Y254098D01*
X392874Y254098D02*
G01*
X401218Y236457D01*
X401218Y236457D02*
G01*
X411251Y219718D01*
X411251Y219718D02*
G01*
X422876Y204043D01*
X38862Y113319D02*
G01*
X113319Y38862D01*
X38862Y221082D02*
G01*
X221082Y38862D01*
X38862Y328845D02*
G01*
X328845Y38862D01*
X38862Y436608D02*
G01*
X436608Y38862D01*
X38862Y544371D02*
G01*
X544371Y38862D01*
X38862Y652134D02*
G01*
X378612Y312383D01*
X558782Y132213D02*
G01*
X652134Y38862D01*
X113213Y685545D02*
G01*
X392765Y405994D01*
X667421Y131338D02*
G01*
X759897Y38862D01*
X220976Y685545D02*
G01*
X435851Y470671D01*
X775184Y131338D02*
G01*
X867660Y38862D01*
X328739Y685545D02*
G01*
X500405Y513880D01*
X882947Y131338D02*
G01*
X975423Y38862D01*
X436502Y685545D02*
G01*
X592986Y529061D01*
X974651Y147397D02*
G01*
X1083186Y38862D01*
X544265Y685545D02*
G01*
X700749Y529061D01*
X1038648Y191162D02*
G01*
X1190949Y38862D01*
X652028Y685545D02*
G01*
X808513Y529061D01*
X1081155Y256419D02*
G01*
X1298712Y38862D01*
X759791Y685545D02*
G01*
X917432Y527905D01*
X1094306Y351031D02*
G01*
X1406475Y38862D01*
X867555Y685545D02*
G01*
X1514239Y38862D01*
X975318Y685545D02*
G01*
X1622002Y38862D01*
X1083081Y685545D02*
G01*
X1729765Y38862D01*
X1190844Y685545D02*
G01*
X1837528Y38862D01*
X1298607Y685545D02*
G01*
X1945291Y38862D01*
X1406370Y685545D02*
G01*
X2053054Y38862D01*
X1514133Y685545D02*
G01*
X2160817Y38862D01*
X1621896Y685545D02*
G01*
X2268580Y38862D01*
X1729659Y685545D02*
G01*
X2376343Y38862D01*
X1837422Y685545D02*
G01*
X2484106Y38862D01*
X1945185Y685545D02*
G01*
X2591869Y38862D01*
X2052948Y685545D02*
G01*
X2699632Y38862D01*
X2160711Y685545D02*
G01*
X2807395Y38862D01*
X2268475Y685545D02*
G01*
X2915159Y38862D01*
X2376238Y685545D02*
G01*
X3022922Y38862D01*
X2484001Y685545D02*
G01*
X3130685Y38862D01*
X2591764Y685545D02*
G01*
X3238448Y38862D01*
X2699527Y685545D02*
G01*
X3346211Y38862D01*
X2807290Y685545D02*
G01*
X3453974Y38862D01*
X2915053Y685545D02*
G01*
X3561737Y38862D01*
X3022816Y685545D02*
G01*
X3669500Y38862D01*
X3130579Y685545D02*
G01*
X3777263Y38862D01*
X3238342Y685545D02*
G01*
X3885026Y38862D01*
X3346105Y685545D02*
G01*
X3992789Y38862D01*
X3453868Y685545D02*
G01*
X4100552Y38862D01*
X3561631Y685545D02*
G01*
X4208315Y38862D01*
X3669394Y685545D02*
G01*
X4316078Y38862D01*
X3777158Y685545D02*
G01*
X4423842Y38862D01*
X3884921Y685545D02*
G01*
X4531605Y38862D01*
X3992684Y685545D02*
G01*
X4639368Y38862D01*
X4100447Y685545D02*
G01*
X4747131Y38862D01*
X4208210Y685545D02*
G01*
X4854894Y38862D01*
X4315973Y685545D02*
G01*
X4962657Y38862D01*
X4423736Y685545D02*
G01*
X5070420Y38862D01*
X4531499Y685545D02*
G01*
X5178183Y38862D01*
X4639262Y685545D02*
G01*
X5285946Y38862D01*
X4747025Y685545D02*
G01*
X5393709Y38862D01*
X4854788Y685545D02*
G01*
X5501472Y38862D01*
X4962551Y685545D02*
G01*
X5609235Y38862D01*
X5070314Y685545D02*
G01*
X5716998Y38862D01*
X5178077Y685545D02*
G01*
X5824761Y38862D01*
X5285841Y685545D02*
G01*
X5932525Y38862D01*
X5393604Y685545D02*
G01*
X6040288Y38862D01*
X5501367Y685545D02*
G01*
X6148051Y38862D01*
X5609130Y685545D02*
G01*
X6255814Y38862D01*
X5716893Y685545D02*
G01*
X6363577Y38862D01*
X5824656Y685545D02*
G01*
X6471340Y38862D01*
X5932419Y685545D02*
G01*
X6579103Y38862D01*
X6040182Y685545D02*
G01*
X6686866Y38862D01*
X6147945Y685545D02*
G01*
X6794629Y38862D01*
X6255708Y685545D02*
G01*
X6902392Y38862D01*
X6363471Y685545D02*
G01*
X7010155Y38862D01*
X6471234Y685545D02*
G01*
X7117918Y38862D01*
X6578997Y685545D02*
G01*
X7225681Y38862D01*
X6686760Y685545D02*
G01*
X7333444Y38862D01*
X6794523Y685545D02*
G01*
X7441207Y38862D01*
X6902287Y685545D02*
G01*
X7548971Y38862D01*
X7010050Y685545D02*
G01*
X7656734Y38862D01*
X7117813Y685545D02*
G01*
X7764497Y38862D01*
X7225576Y685545D02*
G01*
X7872260Y38862D01*
X7333339Y685545D02*
G01*
X7980023Y38862D01*
X7441102Y685545D02*
G01*
X8087786Y38862D01*
X7548865Y685545D02*
G01*
X8195549Y38862D01*
X7656628Y685545D02*
G01*
X8303312Y38862D01*
X7764391Y685545D02*
G01*
X8411075Y38862D01*
X7872154Y685545D02*
G01*
X8518838Y38862D01*
X7979917Y685545D02*
G01*
X8626601Y38862D01*
X8087680Y685545D02*
G01*
X8734364Y38862D01*
X8195443Y685545D02*
G01*
X8842127Y38862D01*
X8303206Y685545D02*
G01*
X8949890Y38862D01*
X8410970Y685545D02*
G01*
X9057654Y38862D01*
X8518733Y685545D02*
G01*
X9165417Y38862D01*
X8626496Y685545D02*
G01*
X9273180Y38862D01*
X8734259Y685545D02*
G01*
X9380943Y38862D01*
X8842022Y685545D02*
G01*
X9488706Y38862D01*
X8949785Y685545D02*
G01*
X9596469Y38862D01*
X9057548Y685545D02*
G01*
X9704232Y38862D01*
X9165311Y685545D02*
G01*
X9811995Y38862D01*
X9273074Y685545D02*
G01*
X9919758Y38862D01*
X9380837Y685545D02*
G01*
X10027521Y38862D01*
X9488600Y685545D02*
G01*
X10135284Y38862D01*
X9596363Y685545D02*
G01*
X10066294Y215615D01*
X10114014Y167895D02*
G01*
X10243047Y38862D01*
X9704126Y685545D02*
G01*
X10031894Y357778D01*
X10258334Y131338D02*
G01*
X10350810Y38862D01*
X9811889Y685545D02*
G01*
X10060816Y436619D01*
X10366097Y131338D02*
G01*
X10458573Y38862D01*
X9919653Y685545D02*
G01*
X10113256Y491942D01*
X10473860Y131338D02*
G01*
X10566337Y38862D01*
X10027416Y685545D02*
G01*
X10188138Y524823D01*
X10579042Y133919D02*
G01*
X10674100Y38862D01*
X10135179Y685545D02*
G01*
X10291663Y529061D01*
X10657075Y163649D02*
G01*
X10781863Y38862D01*
X10242942Y685545D02*
G01*
X10399426Y529061D01*
X10711743Y216745D02*
G01*
X10889626Y38862D01*
X10350705Y685545D02*
G01*
X10507189Y529061D01*
X10743797Y292454D02*
G01*
X10997389Y38862D01*
X10458468Y685545D02*
G01*
X10634925Y509088D01*
X10727489Y416524D02*
G01*
X11099038Y44976D01*
X10566231Y685545D02*
G01*
X11099038Y152739D01*
X10673994Y685545D02*
G01*
X11099038Y260502D01*
X10781757Y685545D02*
G01*
X11099038Y368265D01*
X10889520Y685545D02*
G01*
X11099038Y476028D01*
X10997283Y685545D02*
G01*
X11099038Y583791D01*
X11030370Y38862D02*
G01*
X11099038Y107529D01*
X10922607Y38862D02*
G01*
X11099038Y215292D01*
X10814844Y38862D02*
G01*
X11099038Y323055D01*
X10707080Y38862D02*
G01*
X11099038Y430819D01*
X10599317Y38862D02*
G01*
X11099038Y538582D01*
X10491554Y38862D02*
G01*
X10588004Y135311D01*
X10743489Y290796D02*
G01*
X11099038Y646345D01*
X10383791Y38862D02*
G01*
X10476268Y131338D01*
X10737307Y392377D02*
G01*
X11030475Y685545D01*
X10276028Y38862D02*
G01*
X10368505Y131338D01*
X10698139Y460972D02*
G01*
X10922712Y685545D01*
X10168265Y38862D02*
G01*
X10260741Y131338D01*
X10637347Y507943D02*
G01*
X10814949Y685545D01*
X10060502Y38862D02*
G01*
X10164000Y142360D01*
X10550603Y528963D02*
G01*
X10707186Y685545D01*
X9952739Y38862D02*
G01*
X10096101Y182224D01*
X10442939Y529061D02*
G01*
X10599423Y685545D01*
X9844976Y38862D02*
G01*
X10049800Y243685D01*
X10335176Y529061D02*
G01*
X10491660Y685545D01*
X9737213Y38862D02*
G01*
X10029798Y331447D01*
X10227351Y529000D02*
G01*
X10383897Y685545D01*
X9629450Y38862D02*
G01*
X10276134Y685545D01*
X9521687Y38862D02*
G01*
X10168371Y685545D01*
X9413924Y38862D02*
G01*
X10060608Y685545D01*
X9306160Y38862D02*
G01*
X9952844Y685545D01*
X9198397Y38862D02*
G01*
X9845081Y685545D01*
X9090634Y38862D02*
G01*
X9737318Y685545D01*
X8982871Y38862D02*
G01*
X9629555Y685545D01*
X8875108Y38862D02*
G01*
X9521792Y685545D01*
X8767345Y38862D02*
G01*
X9414029Y685545D01*
X8659582Y38862D02*
G01*
X9306266Y685545D01*
X8551819Y38862D02*
G01*
X9198503Y685545D01*
X8444056Y38862D02*
G01*
X9090740Y685545D01*
X8336293Y38862D02*
G01*
X8982977Y685545D01*
X8228530Y38862D02*
G01*
X8875214Y685545D01*
X8120767Y38862D02*
G01*
X8767451Y685545D01*
X8013004Y38862D02*
G01*
X8659688Y685545D01*
X7905240Y38862D02*
G01*
X8551924Y685545D01*
X7797477Y38862D02*
G01*
X8444161Y685545D01*
X7689714Y38862D02*
G01*
X8336398Y685545D01*
X7581951Y38862D02*
G01*
X8228635Y685545D01*
X7474188Y38862D02*
G01*
X8120872Y685545D01*
X7366425Y38862D02*
G01*
X8013109Y685545D01*
X7258662Y38862D02*
G01*
X7905346Y685545D01*
X7150899Y38862D02*
G01*
X7797583Y685545D01*
X7043136Y38862D02*
G01*
X7689820Y685545D01*
X6935373Y38862D02*
G01*
X7582057Y685545D01*
X6827610Y38862D02*
G01*
X7474294Y685545D01*
X6719847Y38862D02*
G01*
X7366531Y685545D01*
X6612084Y38862D02*
G01*
X7258768Y685545D01*
X6504321Y38862D02*
G01*
X7151005Y685545D01*
X6396557Y38862D02*
G01*
X7043241Y685545D01*
X6288794Y38862D02*
G01*
X6935478Y685545D01*
X6181031Y38862D02*
G01*
X6827715Y685545D01*
X6073268Y38862D02*
G01*
X6719952Y685545D01*
X5965505Y38862D02*
G01*
X6612189Y685545D01*
X5857742Y38862D02*
G01*
X6504426Y685545D01*
X5749979Y38862D02*
G01*
X6396663Y685545D01*
X5642216Y38862D02*
G01*
X6288900Y685545D01*
X5534453Y38862D02*
G01*
X6181137Y685545D01*
X5426690Y38862D02*
G01*
X6073374Y685545D01*
X5318927Y38862D02*
G01*
X5965611Y685545D01*
X5211164Y38862D02*
G01*
X5857848Y685545D01*
X5103401Y38862D02*
G01*
X5750085Y685545D01*
X4995638Y38862D02*
G01*
X5642322Y685545D01*
X4887874Y38862D02*
G01*
X5534558Y685545D01*
X4780111Y38862D02*
G01*
X5426795Y685545D01*
X4672348Y38862D02*
G01*
X5319032Y685545D01*
X4564585Y38862D02*
G01*
X5211269Y685545D01*
X4456822Y38862D02*
G01*
X5103506Y685545D01*
X4349059Y38862D02*
G01*
X4995743Y685545D01*
X4241296Y38862D02*
G01*
X4887980Y685545D01*
X4133533Y38862D02*
G01*
X4780217Y685545D01*
X4025770Y38862D02*
G01*
X4672454Y685545D01*
X3918007Y38862D02*
G01*
X4564691Y685545D01*
X3810244Y38862D02*
G01*
X4456928Y685545D01*
X3702481Y38862D02*
G01*
X4349165Y685545D01*
X3594718Y38862D02*
G01*
X4241402Y685545D01*
X3486955Y38862D02*
G01*
X4133639Y685545D01*
X3379192Y38862D02*
G01*
X4025876Y685545D01*
X3271428Y38862D02*
G01*
X3918112Y685545D01*
X3163665Y38862D02*
G01*
X3810349Y685545D01*
X3055902Y38862D02*
G01*
X3702586Y685545D01*
X2948139Y38862D02*
G01*
X3594823Y685545D01*
X2840376Y38862D02*
G01*
X3487060Y685545D01*
X2732613Y38862D02*
G01*
X3379297Y685545D01*
X2624850Y38862D02*
G01*
X3271534Y685545D01*
X2517087Y38862D02*
G01*
X3163771Y685545D01*
X2409324Y38862D02*
G01*
X3056008Y685545D01*
X2301561Y38862D02*
G01*
X2948245Y685545D01*
X2193798Y38862D02*
G01*
X2840482Y685545D01*
X2086035Y38862D02*
G01*
X2732719Y685545D01*
X1978272Y38862D02*
G01*
X2624956Y685545D01*
X1870509Y38862D02*
G01*
X2517193Y685545D01*
X1762745Y38862D02*
G01*
X2409429Y685545D01*
X1654982Y38862D02*
G01*
X2301666Y685545D01*
X1547219Y38862D02*
G01*
X2193903Y685545D01*
X1439456Y38862D02*
G01*
X2086140Y685545D01*
X1331693Y38862D02*
G01*
X1978377Y685545D01*
X1223930Y38862D02*
G01*
X1870614Y685545D01*
X1116167Y38862D02*
G01*
X1762851Y685545D01*
X1008404Y38862D02*
G01*
X1655088Y685545D01*
X900641Y38862D02*
G01*
X1547325Y685545D01*
X792878Y38862D02*
G01*
X885354Y131338D01*
X1094936Y340919D02*
G01*
X1439562Y685545D01*
X685115Y38862D02*
G01*
X777591Y131338D01*
X1071312Y425059D02*
G01*
X1331799Y685545D01*
X577352Y38862D02*
G01*
X669828Y131338D01*
X1022559Y484069D02*
G01*
X1224036Y685545D01*
X469589Y38862D02*
G01*
X562745Y132018D01*
X951846Y521120D02*
G01*
X1116273Y685545D01*
X361826Y38862D02*
G01*
X479684Y156720D01*
X852025Y529061D02*
G01*
X1008510Y685545D01*
X254062Y38862D02*
G01*
X421330Y206129D01*
X744262Y529061D02*
G01*
X900746Y685545D01*
X146299Y38862D02*
G01*
X385020Y277582D01*
X636499Y529061D02*
G01*
X792983Y685545D01*
X38862Y39187D02*
G01*
X385865Y386190D01*
X520608Y520933D02*
G01*
X685220Y685545D01*
X38862Y146950D02*
G01*
X577457Y685545D01*
X38862Y254713D02*
G01*
X469694Y685545D01*
X38862Y362476D02*
G01*
X361931Y685545D01*
X38862Y470239D02*
G01*
X254168Y685545D01*
X38862Y578002D02*
G01*
X146405Y685545D01*
X38862Y12173204D02*
G01*
X38862Y12813537D01*
X38862Y12813537D02*
G01*
X11099038Y12813537D01*
X11099038Y12813537D02*
G01*
X11099038Y12173204D01*
X11099038Y12173204D02*
G01*
X38862Y12173204D01*
X10074876Y12446843D02*
G01*
X10087982Y12432383D01*
X10087982Y12432383D02*
G01*
X10102442Y12419277D01*
X10102442Y12419277D02*
G01*
X10118117Y12407652D01*
X10118117Y12407652D02*
G01*
X10134856Y12397619D01*
X10134856Y12397619D02*
G01*
X10152497Y12389275D01*
X10152497Y12389275D02*
G01*
X10170872Y12382701D01*
X10170872Y12382701D02*
G01*
X10189803Y12377959D01*
X10189803Y12377959D02*
G01*
X10209107Y12375095D01*
X10209107Y12375095D02*
G01*
X10228599Y12374138D01*
X10228599Y12374138D02*
G01*
X10548600Y12374138D01*
X10548600Y12374138D02*
G01*
X10568092Y12375095D01*
X10568092Y12375095D02*
G01*
X10587396Y12377959D01*
X10587396Y12377959D02*
G01*
X10606327Y12382701D01*
X10606327Y12382701D02*
G01*
X10624702Y12389275D01*
X10624702Y12389275D02*
G01*
X10642343Y12397619D01*
X10642343Y12397619D02*
G01*
X10659082Y12407652D01*
X10659082Y12407652D02*
G01*
X10674757Y12419277D01*
X10674757Y12419277D02*
G01*
X10689217Y12432383D01*
X10689217Y12432383D02*
G01*
X10702323Y12446843D01*
X10702323Y12446843D02*
G01*
X10713948Y12462518D01*
X10713948Y12462518D02*
G01*
X10723981Y12479257D01*
X10723981Y12479257D02*
G01*
X10732325Y12496898D01*
X10732325Y12496898D02*
G01*
X10738899Y12515273D01*
X10738899Y12515273D02*
G01*
X10743641Y12534204D01*
X10743641Y12534204D02*
G01*
X10746505Y12553508D01*
X10746505Y12553508D02*
G01*
X10747462Y12573000D01*
X10747462Y12573000D02*
G01*
X10746505Y12592491D01*
X10746505Y12592491D02*
G01*
X10743641Y12611795D01*
X10743641Y12611795D02*
G01*
X10738899Y12630726D01*
X10738899Y12630726D02*
G01*
X10732325Y12649101D01*
X10732325Y12649101D02*
G01*
X10723981Y12666742D01*
X10723981Y12666742D02*
G01*
X10713948Y12683481D01*
X10713948Y12683481D02*
G01*
X10702323Y12699156D01*
X10702323Y12699156D02*
G01*
X10689217Y12713616D01*
X10689217Y12713616D02*
G01*
X10674757Y12726722D01*
X10674757Y12726722D02*
G01*
X10659082Y12738347D01*
X10659082Y12738347D02*
G01*
X10642343Y12748380D01*
X10642343Y12748380D02*
G01*
X10624702Y12756724D01*
X10624702Y12756724D02*
G01*
X10606327Y12763298D01*
X10606327Y12763298D02*
G01*
X10587396Y12768040D01*
X10587396Y12768040D02*
G01*
X10568092Y12770904D01*
X10568092Y12770904D02*
G01*
X10548600Y12771861D01*
X10548600Y12771861D02*
G01*
X10228599Y12771861D01*
X10228599Y12771861D02*
G01*
X10209107Y12770904D01*
X10209107Y12770904D02*
G01*
X10189803Y12768040D01*
X10189803Y12768040D02*
G01*
X10170872Y12763298D01*
X10170872Y12763298D02*
G01*
X10152497Y12756724D01*
X10152497Y12756724D02*
G01*
X10134856Y12748380D01*
X10134856Y12748380D02*
G01*
X10118117Y12738347D01*
X10118117Y12738347D02*
G01*
X10102442Y12726722D01*
X10102442Y12726722D02*
G01*
X10087982Y12713616D01*
X10087982Y12713616D02*
G01*
X10074876Y12699156D01*
X10074876Y12699156D02*
G01*
X10063251Y12683481D01*
X10063251Y12683481D02*
G01*
X10053218Y12666742D01*
X10053218Y12666742D02*
G01*
X10044874Y12649101D01*
X10044874Y12649101D02*
G01*
X10038300Y12630726D01*
X10038300Y12630726D02*
G01*
X10033558Y12611795D01*
X10033558Y12611795D02*
G01*
X10030694Y12592491D01*
X10030694Y12592491D02*
G01*
X10029737Y12573000D01*
X10029737Y12573000D02*
G01*
X10030694Y12553508D01*
X10030694Y12553508D02*
G01*
X10033558Y12534204D01*
X10033558Y12534204D02*
G01*
X10038300Y12515273D01*
X10038300Y12515273D02*
G01*
X10044874Y12496898D01*
X10044874Y12496898D02*
G01*
X10053218Y12479257D01*
X10053218Y12479257D02*
G01*
X10063251Y12462518D01*
X10063251Y12462518D02*
G01*
X10074876Y12446843D01*
X422876Y12446843D02*
G01*
X435982Y12432383D01*
X435982Y12432383D02*
G01*
X450442Y12419277D01*
X450442Y12419277D02*
G01*
X466117Y12407652D01*
X466117Y12407652D02*
G01*
X482856Y12397619D01*
X482856Y12397619D02*
G01*
X500497Y12389275D01*
X500497Y12389275D02*
G01*
X518872Y12382701D01*
X518872Y12382701D02*
G01*
X537803Y12377959D01*
X537803Y12377959D02*
G01*
X557107Y12375095D01*
X557107Y12375095D02*
G01*
X576599Y12374138D01*
X576599Y12374138D02*
G01*
X896600Y12374138D01*
X896600Y12374138D02*
G01*
X916092Y12375095D01*
X916092Y12375095D02*
G01*
X935396Y12377959D01*
X935396Y12377959D02*
G01*
X954327Y12382701D01*
X954327Y12382701D02*
G01*
X972702Y12389275D01*
X972702Y12389275D02*
G01*
X990343Y12397619D01*
X990343Y12397619D02*
G01*
X1007082Y12407652D01*
X1007082Y12407652D02*
G01*
X1022757Y12419277D01*
X1022757Y12419277D02*
G01*
X1037217Y12432383D01*
X1037217Y12432383D02*
G01*
X1050323Y12446843D01*
X1050323Y12446843D02*
G01*
X1061948Y12462518D01*
X1061948Y12462518D02*
G01*
X1071981Y12479257D01*
X1071981Y12479257D02*
G01*
X1080325Y12496898D01*
X1080325Y12496898D02*
G01*
X1086899Y12515273D01*
X1086899Y12515273D02*
G01*
X1091641Y12534204D01*
X1091641Y12534204D02*
G01*
X1094505Y12553508D01*
X1094505Y12553508D02*
G01*
X1095462Y12573000D01*
X1095462Y12573000D02*
G01*
X1094505Y12592491D01*
X1094505Y12592491D02*
G01*
X1091641Y12611795D01*
X1091641Y12611795D02*
G01*
X1086899Y12630726D01*
X1086899Y12630726D02*
G01*
X1080325Y12649101D01*
X1080325Y12649101D02*
G01*
X1071981Y12666742D01*
X1071981Y12666742D02*
G01*
X1061948Y12683481D01*
X1061948Y12683481D02*
G01*
X1050323Y12699156D01*
X1050323Y12699156D02*
G01*
X1037217Y12713616D01*
X1037217Y12713616D02*
G01*
X1022757Y12726722D01*
X1022757Y12726722D02*
G01*
X1007082Y12738347D01*
X1007082Y12738347D02*
G01*
X990343Y12748380D01*
X990343Y12748380D02*
G01*
X972702Y12756724D01*
X972702Y12756724D02*
G01*
X954327Y12763298D01*
X954327Y12763298D02*
G01*
X935396Y12768040D01*
X935396Y12768040D02*
G01*
X916092Y12770904D01*
X916092Y12770904D02*
G01*
X896600Y12771861D01*
X896600Y12771861D02*
G01*
X576599Y12771861D01*
X576599Y12771861D02*
G01*
X557107Y12770904D01*
X557107Y12770904D02*
G01*
X537803Y12768040D01*
X537803Y12768040D02*
G01*
X518872Y12763298D01*
X518872Y12763298D02*
G01*
X500497Y12756724D01*
X500497Y12756724D02*
G01*
X482856Y12748380D01*
X482856Y12748380D02*
G01*
X466117Y12738347D01*
X466117Y12738347D02*
G01*
X450442Y12726722D01*
X450442Y12726722D02*
G01*
X435982Y12713616D01*
X435982Y12713616D02*
G01*
X422876Y12699156D01*
X422876Y12699156D02*
G01*
X411251Y12683481D01*
X411251Y12683481D02*
G01*
X401218Y12666742D01*
X401218Y12666742D02*
G01*
X392874Y12649101D01*
X392874Y12649101D02*
G01*
X386300Y12630726D01*
X386300Y12630726D02*
G01*
X381558Y12611795D01*
X381558Y12611795D02*
G01*
X378694Y12592491D01*
X378694Y12592491D02*
G01*
X377737Y12573000D01*
X377737Y12573000D02*
G01*
X378694Y12553508D01*
X378694Y12553508D02*
G01*
X381558Y12534204D01*
X381558Y12534204D02*
G01*
X386300Y12515273D01*
X386300Y12515273D02*
G01*
X392874Y12496898D01*
X392874Y12496898D02*
G01*
X401218Y12479257D01*
X401218Y12479257D02*
G01*
X411251Y12462518D01*
X411251Y12462518D02*
G01*
X422876Y12446843D01*
X38862Y12182783D02*
G01*
X48441Y12173204D01*
X38862Y12290546D02*
G01*
X156204Y12173204D01*
X38862Y12398309D02*
G01*
X263967Y12173204D01*
X38862Y12506072D02*
G01*
X371730Y12173204D01*
X38862Y12613835D02*
G01*
X479493Y12173204D01*
X38862Y12721598D02*
G01*
X587256Y12173204D01*
X54685Y12813537D02*
G01*
X695019Y12173204D01*
X162448Y12813537D02*
G01*
X379314Y12596671D01*
X601848Y12374138D02*
G01*
X802782Y12173204D01*
X270211Y12813537D02*
G01*
X407135Y12676614D01*
X709611Y12374138D02*
G01*
X910545Y12173204D01*
X377974Y12813537D02*
G01*
X458680Y12732832D01*
X817374Y12374138D02*
G01*
X1018308Y12173204D01*
X485737Y12813537D02*
G01*
X532550Y12766725D01*
X923135Y12376140D02*
G01*
X1126071Y12173204D01*
X593500Y12813537D02*
G01*
X635177Y12771861D01*
X1002270Y12404768D02*
G01*
X1233834Y12173204D01*
X701264Y12813537D02*
G01*
X742940Y12771861D01*
X1057832Y12456969D02*
G01*
X1341598Y12173204D01*
X809027Y12813537D02*
G01*
X850703Y12771861D01*
X1090984Y12531580D02*
G01*
X1449361Y12173204D01*
X916790Y12813537D02*
G01*
X974413Y12755914D01*
X1079515Y12650812D02*
G01*
X1557124Y12173204D01*
X1024553Y12813537D02*
G01*
X1664887Y12173204D01*
X1132316Y12813537D02*
G01*
X1772650Y12173204D01*
X1240079Y12813537D02*
G01*
X1880413Y12173204D01*
X1347842Y12813537D02*
G01*
X1988176Y12173204D01*
X1455605Y12813537D02*
G01*
X2095939Y12173204D01*
X1563368Y12813537D02*
G01*
X2203702Y12173204D01*
X1671131Y12813537D02*
G01*
X2311465Y12173204D01*
X1778894Y12813537D02*
G01*
X2419228Y12173204D01*
X1886657Y12813537D02*
G01*
X2526991Y12173204D01*
X1994420Y12813537D02*
G01*
X2634754Y12173204D01*
X2102184Y12813537D02*
G01*
X2742518Y12173204D01*
X2209947Y12813537D02*
G01*
X2850281Y12173204D01*
X2317710Y12813537D02*
G01*
X2958044Y12173204D01*
X2425473Y12813537D02*
G01*
X3065807Y12173204D01*
X2533236Y12813537D02*
G01*
X3173570Y12173204D01*
X2640999Y12813537D02*
G01*
X3281333Y12173204D01*
X2748762Y12813537D02*
G01*
X3389096Y12173204D01*
X2856525Y12813537D02*
G01*
X3496859Y12173204D01*
X2964288Y12813537D02*
G01*
X3604622Y12173204D01*
X3072051Y12813537D02*
G01*
X3712385Y12173204D01*
X3179814Y12813537D02*
G01*
X3820148Y12173204D01*
X3287577Y12813537D02*
G01*
X3927911Y12173204D01*
X3395340Y12813537D02*
G01*
X4035674Y12173204D01*
X3503103Y12813537D02*
G01*
X4143437Y12173204D01*
X3610867Y12813537D02*
G01*
X4251201Y12173204D01*
X3718630Y12813537D02*
G01*
X4358964Y12173204D01*
X3826393Y12813537D02*
G01*
X4466727Y12173204D01*
X3934156Y12813537D02*
G01*
X4574490Y12173204D01*
X4041919Y12813537D02*
G01*
X4682253Y12173204D01*
X4149682Y12813537D02*
G01*
X4790016Y12173204D01*
X4257445Y12813537D02*
G01*
X4897779Y12173204D01*
X4365208Y12813537D02*
G01*
X5005542Y12173204D01*
X4472971Y12813537D02*
G01*
X5113305Y12173204D01*
X4580734Y12813537D02*
G01*
X5221068Y12173204D01*
X4688497Y12813537D02*
G01*
X5328831Y12173204D01*
X4796260Y12813537D02*
G01*
X5436594Y12173204D01*
X4904023Y12813537D02*
G01*
X5544357Y12173204D01*
X5011787Y12813537D02*
G01*
X5652121Y12173204D01*
X5119550Y12813537D02*
G01*
X5759884Y12173204D01*
X5227313Y12813537D02*
G01*
X5867647Y12173204D01*
X5335076Y12813537D02*
G01*
X5975410Y12173204D01*
X5442839Y12813537D02*
G01*
X6083173Y12173204D01*
X5550602Y12813537D02*
G01*
X6190936Y12173204D01*
X5658365Y12813537D02*
G01*
X6298699Y12173204D01*
X5766128Y12813537D02*
G01*
X6406462Y12173204D01*
X5873891Y12813537D02*
G01*
X6514225Y12173204D01*
X5981654Y12813537D02*
G01*
X6621988Y12173204D01*
X6089417Y12813537D02*
G01*
X6729751Y12173204D01*
X6197180Y12813537D02*
G01*
X6837514Y12173204D01*
X6304943Y12813537D02*
G01*
X6945277Y12173204D01*
X6412707Y12813537D02*
G01*
X7053041Y12173204D01*
X6520470Y12813537D02*
G01*
X7160804Y12173204D01*
X6628233Y12813537D02*
G01*
X7268567Y12173204D01*
X6735996Y12813537D02*
G01*
X7376330Y12173204D01*
X6843759Y12813537D02*
G01*
X7484093Y12173204D01*
X6951522Y12813537D02*
G01*
X7591856Y12173204D01*
X7059285Y12813537D02*
G01*
X7699619Y12173204D01*
X7167048Y12813537D02*
G01*
X7807382Y12173204D01*
X7274811Y12813537D02*
G01*
X7915145Y12173204D01*
X7382574Y12813537D02*
G01*
X8022908Y12173204D01*
X7490337Y12813537D02*
G01*
X8130671Y12173204D01*
X7598100Y12813537D02*
G01*
X8238434Y12173204D01*
X7705863Y12813537D02*
G01*
X8346197Y12173204D01*
X7813626Y12813537D02*
G01*
X8453960Y12173204D01*
X7921390Y12813537D02*
G01*
X8561724Y12173204D01*
X8029153Y12813537D02*
G01*
X8669487Y12173204D01*
X8136916Y12813537D02*
G01*
X8777250Y12173204D01*
X8244679Y12813537D02*
G01*
X8885013Y12173204D01*
X8352442Y12813537D02*
G01*
X8992776Y12173204D01*
X8460205Y12813537D02*
G01*
X9100539Y12173204D01*
X8567968Y12813537D02*
G01*
X9208302Y12173204D01*
X8675731Y12813537D02*
G01*
X9316065Y12173204D01*
X8783494Y12813537D02*
G01*
X9423828Y12173204D01*
X8891257Y12813537D02*
G01*
X9531591Y12173204D01*
X8999020Y12813537D02*
G01*
X9639354Y12173204D01*
X9106783Y12813537D02*
G01*
X9747117Y12173204D01*
X9214546Y12813537D02*
G01*
X9854880Y12173204D01*
X9322310Y12813537D02*
G01*
X9962644Y12173204D01*
X9430073Y12813537D02*
G01*
X10070407Y12173204D01*
X9537836Y12813537D02*
G01*
X10178170Y12173204D01*
X9645599Y12813537D02*
G01*
X10285933Y12173204D01*
X9753362Y12813537D02*
G01*
X10033846Y12533053D01*
X10188652Y12378247D02*
G01*
X10393696Y12173204D01*
X9861125Y12813537D02*
G01*
X10039785Y12634877D01*
X10300524Y12374138D02*
G01*
X10501459Y12173204D01*
X9968888Y12813537D02*
G01*
X10078867Y12703559D01*
X10408288Y12374138D02*
G01*
X10609222Y12173204D01*
X10076651Y12813537D02*
G01*
X10139576Y12750612D01*
X10516051Y12374138D02*
G01*
X10716985Y12173204D01*
X10184414Y12813537D02*
G01*
X10226208Y12771744D01*
X10612899Y12385052D02*
G01*
X10824748Y12173204D01*
X10292177Y12813537D02*
G01*
X10333853Y12771861D01*
X10680884Y12424831D02*
G01*
X10932511Y12173204D01*
X10399940Y12813537D02*
G01*
X10441617Y12771861D01*
X10727269Y12486209D02*
G01*
X11040274Y12173204D01*
X10507703Y12813537D02*
G01*
X10549420Y12771821D01*
X10747422Y12573819D02*
G01*
X11099038Y12222203D01*
X10615466Y12813537D02*
G01*
X11099038Y12329966D01*
X10723230Y12813537D02*
G01*
X11099038Y12437730D01*
X10830993Y12813537D02*
G01*
X11099038Y12545493D01*
X10938756Y12813537D02*
G01*
X11099038Y12653256D01*
X11046519Y12813537D02*
G01*
X11099038Y12761019D01*
X11095248Y12173204D02*
G01*
X11099038Y12176993D01*
X10987485Y12173204D02*
G01*
X11099038Y12284756D01*
X10879721Y12173204D02*
G01*
X11099038Y12392520D01*
X10771958Y12173204D02*
G01*
X11099038Y12500283D01*
X10664195Y12173204D02*
G01*
X11099038Y12608046D01*
X10556432Y12173204D02*
G01*
X11099038Y12715809D01*
X10448669Y12173204D02*
G01*
X11089003Y12813537D01*
X10340906Y12173204D02*
G01*
X10541840Y12374138D01*
X10747146Y12579443D02*
G01*
X10981240Y12813537D01*
X10233143Y12173204D02*
G01*
X10434077Y12374138D01*
X10724848Y12664909D02*
G01*
X10873477Y12813537D01*
X10125380Y12173204D02*
G01*
X10326314Y12374138D01*
X10676929Y12724753D02*
G01*
X10765714Y12813537D01*
X10017617Y12173204D02*
G01*
X10219021Y12374608D01*
X10607347Y12762933D02*
G01*
X10657951Y12813537D01*
X9909854Y12173204D02*
G01*
X10134489Y12397839D01*
X10508511Y12771861D02*
G01*
X10550188Y12813537D01*
X9802091Y12173204D02*
G01*
X10075282Y12446395D01*
X10400748Y12771861D02*
G01*
X10442425Y12813537D01*
X9694328Y12173204D02*
G01*
X10037919Y12516795D01*
X10292985Y12771861D02*
G01*
X10334662Y12813537D01*
X9586565Y12173204D02*
G01*
X10036366Y12623005D01*
X10178593Y12765232D02*
G01*
X10226899Y12813537D01*
X9478801Y12173204D02*
G01*
X10119135Y12813537D01*
X9371038Y12173204D02*
G01*
X10011372Y12813537D01*
X9263275Y12173204D02*
G01*
X9903609Y12813537D01*
X9155512Y12173204D02*
G01*
X9795846Y12813537D01*
X9047749Y12173204D02*
G01*
X9688083Y12813537D01*
X8939986Y12173204D02*
G01*
X9580320Y12813537D01*
X8832223Y12173204D02*
G01*
X9472557Y12813537D01*
X8724460Y12173204D02*
G01*
X9364794Y12813537D01*
X8616697Y12173204D02*
G01*
X9257031Y12813537D01*
X8508934Y12173204D02*
G01*
X9149268Y12813537D01*
X8401171Y12173204D02*
G01*
X9041505Y12813537D01*
X8293408Y12173204D02*
G01*
X8933742Y12813537D01*
X8185645Y12173204D02*
G01*
X8825979Y12813537D01*
X8077881Y12173204D02*
G01*
X8718215Y12813537D01*
X7970118Y12173204D02*
G01*
X8610452Y12813537D01*
X7862355Y12173204D02*
G01*
X8502689Y12813537D01*
X7754592Y12173204D02*
G01*
X8394926Y12813537D01*
X7646829Y12173204D02*
G01*
X8287163Y12813537D01*
X7539066Y12173204D02*
G01*
X8179400Y12813537D01*
X7431303Y12173204D02*
G01*
X8071637Y12813537D01*
X7323540Y12173204D02*
G01*
X7963874Y12813537D01*
X7215777Y12173204D02*
G01*
X7856111Y12813537D01*
X7108014Y12173204D02*
G01*
X7748348Y12813537D01*
X7000251Y12173204D02*
G01*
X7640585Y12813537D01*
X6892488Y12173204D02*
G01*
X7532822Y12813537D01*
X6784725Y12173204D02*
G01*
X7425059Y12813537D01*
X6676962Y12173204D02*
G01*
X7317296Y12813537D01*
X6569198Y12173204D02*
G01*
X7209532Y12813537D01*
X6461435Y12173204D02*
G01*
X7101769Y12813537D01*
X6353672Y12173204D02*
G01*
X6994006Y12813537D01*
X6245909Y12173204D02*
G01*
X6886243Y12813537D01*
X6138146Y12173204D02*
G01*
X6778480Y12813537D01*
X6030383Y12173204D02*
G01*
X6670717Y12813537D01*
X5922620Y12173204D02*
G01*
X6562954Y12813537D01*
X5814857Y12173204D02*
G01*
X6455191Y12813537D01*
X5707094Y12173204D02*
G01*
X6347428Y12813537D01*
X5599331Y12173204D02*
G01*
X6239665Y12813537D01*
X5491568Y12173204D02*
G01*
X6131902Y12813537D01*
X5383805Y12173204D02*
G01*
X6024139Y12813537D01*
X5276042Y12173204D02*
G01*
X5916376Y12813537D01*
X5168278Y12173204D02*
G01*
X5808612Y12813537D01*
X5060515Y12173204D02*
G01*
X5700849Y12813537D01*
X4952752Y12173204D02*
G01*
X5593086Y12813537D01*
X4844989Y12173204D02*
G01*
X5485323Y12813537D01*
X4737226Y12173204D02*
G01*
X5377560Y12813537D01*
X4629463Y12173204D02*
G01*
X5269797Y12813537D01*
X4521700Y12173204D02*
G01*
X5162034Y12813537D01*
X4413937Y12173204D02*
G01*
X5054271Y12813537D01*
X4306174Y12173204D02*
G01*
X4946508Y12813537D01*
X4198411Y12173204D02*
G01*
X4838745Y12813537D01*
X4090648Y12173204D02*
G01*
X4730982Y12813537D01*
X3982885Y12173204D02*
G01*
X4623219Y12813537D01*
X3875122Y12173204D02*
G01*
X4515456Y12813537D01*
X3767358Y12173204D02*
G01*
X4407692Y12813537D01*
X3659595Y12173204D02*
G01*
X4299929Y12813537D01*
X3551832Y12173204D02*
G01*
X4192166Y12813537D01*
X3444069Y12173204D02*
G01*
X4084403Y12813537D01*
X3336306Y12173204D02*
G01*
X3976640Y12813537D01*
X3228543Y12173204D02*
G01*
X3868877Y12813537D01*
X3120780Y12173204D02*
G01*
X3761114Y12813537D01*
X3013017Y12173204D02*
G01*
X3653351Y12813537D01*
X2905254Y12173204D02*
G01*
X3545588Y12813537D01*
X2797491Y12173204D02*
G01*
X3437825Y12813537D01*
X2689728Y12173204D02*
G01*
X3330062Y12813537D01*
X2581965Y12173204D02*
G01*
X3222299Y12813537D01*
X2474202Y12173204D02*
G01*
X3114536Y12813537D01*
X2366439Y12173204D02*
G01*
X3006773Y12813537D01*
X2258675Y12173204D02*
G01*
X2899009Y12813537D01*
X2150912Y12173204D02*
G01*
X2791246Y12813537D01*
X2043149Y12173204D02*
G01*
X2683483Y12813537D01*
X1935386Y12173204D02*
G01*
X2575720Y12813537D01*
X1827623Y12173204D02*
G01*
X2467957Y12813537D01*
X1719860Y12173204D02*
G01*
X2360194Y12813537D01*
X1612097Y12173204D02*
G01*
X2252431Y12813537D01*
X1504334Y12173204D02*
G01*
X2144668Y12813537D01*
X1396571Y12173204D02*
G01*
X2036905Y12813537D01*
X1288808Y12173204D02*
G01*
X1929142Y12813537D01*
X1181045Y12173204D02*
G01*
X1821379Y12813537D01*
X1073282Y12173204D02*
G01*
X1713616Y12813537D01*
X965519Y12173204D02*
G01*
X1605853Y12813537D01*
X857755Y12173204D02*
G01*
X1498089Y12813537D01*
X749992Y12173204D02*
G01*
X962366Y12385577D01*
X1084023Y12507234D02*
G01*
X1390326Y12813537D01*
X642229Y12173204D02*
G01*
X843164Y12374138D01*
X1089474Y12620448D02*
G01*
X1282563Y12813537D01*
X534466Y12173204D02*
G01*
X735401Y12374138D01*
X1054622Y12693359D02*
G01*
X1174800Y12813537D01*
X426703Y12173204D02*
G01*
X627638Y12374138D01*
X997556Y12744057D02*
G01*
X1067037Y12813537D01*
X318940Y12173204D02*
G01*
X526521Y12380785D01*
X916569Y12770833D02*
G01*
X959274Y12813537D01*
X211177Y12173204D02*
G01*
X454351Y12416378D01*
X809835Y12771861D02*
G01*
X851511Y12813537D01*
X103414Y12173204D02*
G01*
X404310Y12474099D01*
X702072Y12771861D02*
G01*
X743748Y12813537D01*
X38862Y12216414D02*
G01*
X378566Y12556119D01*
X594309Y12771861D02*
G01*
X635985Y12813537D01*
X38862Y12324177D02*
G01*
X528222Y12813537D01*
X38862Y12431940D02*
G01*
X420459Y12813537D01*
X38862Y12539703D02*
G01*
X312696Y12813537D01*
X38862Y12647466D02*
G01*
X204933Y12813537D01*
X38862Y12755230D02*
G01*
X97169Y12813537D01*
D11*
G01*
X736600Y12573000D03*
G01*
X736600Y330200D03*
G01*
X10388600Y12573000D03*
G01*
X10388600Y330200D03*
M02*
