G04 Layer: TopSolderMaskLayer*
G04 EasyEDA v6.5.39, 2024-01-28 22:23:05*
G04 c3fe260546394cefa430cd682b94bf32,5a6b42c53f6a479593ecc07194224c93,10*
G04 Gerber Generator version 0.2*
G04 Scale: 100 percent, Rotated: No, Reflected: No *
G04 Dimensions in millimeters *
G04 leading zeros omitted , absolute positions ,4 integer and 5 decimal *
%FSLAX45Y45*%
%MOMM*%

%AMMACRO1*1,1,$1,$2,$3*1,1,$1,$4,$5*1,1,$1,0-$2,0-$3*1,1,$1,0-$4,0-$5*20,1,$1,$2,$3,$4,$5,0*20,1,$1,$4,$5,0-$2,0-$3,0*20,1,$1,0-$2,0-$3,0-$4,0-$5,0*20,1,$1,0-$4,0-$5,$2,$3,0*4,1,4,$2,$3,$4,$5,0-$2,0-$3,0-$4,0-$5,$2,$3,0*%
%ADD10MACRO1,0.1016X0.9X-0.9X0.9X0.9*%
%ADD11C,1.9016*%
%ADD12MACRO1,0.1016X-0.85X-0.85X0.85X-0.85*%
%ADD13C,1.8016*%

%LPD*%
D10*
G01*
X889000Y9017000D03*
D11*
G01*
X1143000Y9017000D03*
G01*
X889000Y9271000D03*
G01*
X1143000Y9271000D03*
G01*
X889000Y9525000D03*
G01*
X1143000Y9525000D03*
G01*
X889000Y9779000D03*
G01*
X1143000Y9779000D03*
G01*
X889000Y10033000D03*
G01*
X1143000Y10033000D03*
G01*
X889000Y10287000D03*
G01*
X1143000Y10287000D03*
G01*
X889000Y10541000D03*
G01*
X1143000Y10541000D03*
G01*
X889000Y10795000D03*
G01*
X1143000Y10795000D03*
D10*
G01*
X2921000Y9017000D03*
D11*
G01*
X3175000Y9017000D03*
G01*
X2921000Y9271000D03*
G01*
X3175000Y9271000D03*
G01*
X2921000Y9525000D03*
G01*
X3175000Y9525000D03*
G01*
X2921000Y9779000D03*
G01*
X3175000Y9779000D03*
G01*
X2921000Y10033000D03*
G01*
X3175000Y10033000D03*
G01*
X2921000Y10287000D03*
G01*
X3175000Y10287000D03*
G01*
X2921000Y10541000D03*
G01*
X3175000Y10541000D03*
G01*
X2921000Y10795000D03*
G01*
X3175000Y10795000D03*
D12*
G01*
X2937494Y3216894D03*
D13*
G01*
X2683509Y3216910D03*
G01*
X2429509Y3216910D03*
G01*
X2175509Y3216910D03*
G01*
X1921509Y3216910D03*
G01*
X1667509Y3216910D03*
G01*
X1413509Y3216910D03*
G01*
X1159509Y3216910D03*
M02*
