M48
METRIC,LZ,000.000
;FILE_FORMAT=3:3
;TYPE=PLATED
;Layer: PTH_Through
;EasyEDA v6.5.34, 2023-08-21 18:11:39
;c862416320f94afeacbf5464a4b7dd8e,5a6b42c53f6a479593ecc07194224c93,10
;Gerber Generator version 0.2
;Holesize 1 = 0.915 mm
T01C0.915
;Holesize 2 = 1.000 mm
T02C1.000
;Holesize 3 = 1.301 mm
T03C1.301
;Holesize 4 = 2.000 mm
T04C2.000
%
G05
G90
T01
X007620Y099060
X007620Y101600
X005080Y099060
X005080Y101600
X013970Y099060
X013970Y101600
X011430Y099060
X011430Y101600
T02
X075600Y016256
X075600Y018796
X075600Y021336
X075600Y023876
X075529Y054229
X075529Y056769
X075529Y059309
X075529Y061849
X075529Y064389
X075529Y066929
X075529Y069469
X075529Y072009
X015275Y054229
X015275Y056769
X015275Y059309
X015275Y061849
X015275Y064389
X015275Y066929
X015275Y069469
X015275Y072009
X015275Y016256
X015275Y018796
X015275Y021336
X015275Y023876
X005334Y113030
X005334Y110490
X005334Y107950
X005334Y105410
X012954Y105410
X012954Y107950
X012954Y110490
X012954Y113030
T03
X084546Y061953
X084546Y064493
X084546Y067033
X084546Y059413
X084581Y016210
X084581Y023830
X084581Y021290
X084581Y018750
X006894Y021279
X006894Y018739
X006894Y016199
X006894Y023819
X006858Y067056
X006858Y059436
X006858Y061976
X006858Y064516
T04
X015875Y116713
X015875Y011303
X075565Y011303
X086360Y116713
M30
