G04 Layer: TopSilkscreenLayer*
G04 EasyEDA v6.5.34, 2023-08-21 18:11:39*
G04 c862416320f94afeacbf5464a4b7dd8e,5a6b42c53f6a479593ecc07194224c93,10*
G04 Gerber Generator version 0.2*
G04 Scale: 100 percent, Rotated: No, Reflected: No *
G04 Dimensions in millimeters *
G04 leading zeros omitted , absolute positions ,4 integer and 5 decimal *
%FSLAX45Y45*%
%MOMM*%

%ADD10C,0.1524*%
%ADD11C,0.2032*%
%ADD12C,0.2540*%

%LPD*%
D10*
X524510Y7418578D02*
G01*
X524510Y7345679D01*
X519937Y7332218D01*
X515365Y7327645D01*
X506221Y7323073D01*
X497078Y7323073D01*
X488187Y7327645D01*
X483615Y7332218D01*
X479044Y7345679D01*
X479044Y7354823D01*
X609092Y7418578D02*
G01*
X563626Y7418578D01*
X559054Y7377684D01*
X563626Y7382255D01*
X577087Y7386828D01*
X590804Y7386828D01*
X604520Y7382255D01*
X613663Y7373112D01*
X617981Y7359395D01*
X617981Y7350252D01*
X613663Y7336789D01*
X604520Y7327645D01*
X590804Y7323073D01*
X577087Y7323073D01*
X563626Y7327645D01*
X559054Y7332218D01*
X554481Y7341362D01*
X7843265Y7412736D02*
G01*
X7843265Y7340092D01*
X7838693Y7326376D01*
X7834122Y7321804D01*
X7824977Y7317231D01*
X7815834Y7317231D01*
X7806943Y7321804D01*
X7802372Y7326376D01*
X7797800Y7340092D01*
X7797800Y7349236D01*
X7927847Y7399020D02*
G01*
X7923275Y7408163D01*
X7909559Y7412736D01*
X7900415Y7412736D01*
X7886954Y7408163D01*
X7877809Y7394702D01*
X7873238Y7371842D01*
X7873238Y7349236D01*
X7877809Y7330947D01*
X7886954Y7321804D01*
X7900415Y7317231D01*
X7904988Y7317231D01*
X7918704Y7321804D01*
X7927847Y7330947D01*
X7932420Y7344663D01*
X7932420Y7349236D01*
X7927847Y7362697D01*
X7918704Y7371842D01*
X7904988Y7376413D01*
X7900415Y7376413D01*
X7886954Y7371842D01*
X7877809Y7362697D01*
X7873238Y7349236D01*
X528065Y3094736D02*
G01*
X528065Y3022092D01*
X523494Y3008376D01*
X518921Y3003804D01*
X509778Y2999231D01*
X500634Y2999231D01*
X491744Y3003804D01*
X487171Y3008376D01*
X482600Y3022092D01*
X482600Y3031236D01*
X621792Y3094736D02*
G01*
X576326Y2999231D01*
X558037Y3094736D02*
G01*
X621792Y3094736D01*
X7846822Y3092450D02*
G01*
X7846822Y3019805D01*
X7842250Y3006089D01*
X7837677Y3001518D01*
X7828534Y2996945D01*
X7819390Y2996945D01*
X7810500Y3001518D01*
X7805927Y3006089D01*
X7801356Y3019805D01*
X7801356Y3028950D01*
X7899400Y3092450D02*
G01*
X7885938Y3087878D01*
X7881365Y3078987D01*
X7881365Y3069844D01*
X7885938Y3060700D01*
X7895081Y3056128D01*
X7913115Y3051555D01*
X7926831Y3046984D01*
X7935975Y3038094D01*
X7940547Y3028950D01*
X7940547Y3015234D01*
X7935975Y3006089D01*
X7931404Y3001518D01*
X7917688Y2996945D01*
X7899400Y2996945D01*
X7885938Y3001518D01*
X7881365Y3006089D01*
X7876793Y3015234D01*
X7876793Y3028950D01*
X7881365Y3038094D01*
X7890509Y3046984D01*
X7903972Y3051555D01*
X7922259Y3056128D01*
X7931404Y3060700D01*
X7935975Y3069844D01*
X7935975Y3078987D01*
X7931404Y3087878D01*
X7917688Y3092450D01*
X7899400Y3092450D01*
D11*
X3991607Y1035557D02*
G01*
X3991607Y948181D01*
X3986019Y931926D01*
X3980685Y926337D01*
X3969763Y921004D01*
X3958841Y921004D01*
X3947919Y926337D01*
X3942331Y931926D01*
X3936997Y948181D01*
X3936997Y959104D01*
X4027421Y1035557D02*
G01*
X4027421Y921004D01*
X4027421Y921004D02*
G01*
X4092953Y921004D01*
X4210809Y1008126D02*
G01*
X4205475Y1019047D01*
X4194553Y1029970D01*
X4183631Y1035557D01*
X4161787Y1035557D01*
X4150865Y1029970D01*
X4139943Y1019047D01*
X4134355Y1008126D01*
X4129021Y991870D01*
X4129021Y964692D01*
X4134355Y948181D01*
X4139943Y937260D01*
X4150865Y926337D01*
X4161787Y921004D01*
X4183631Y921004D01*
X4194553Y926337D01*
X4205475Y937260D01*
X4210809Y948181D01*
X4301233Y1035557D02*
G01*
X4301233Y948181D01*
X4295899Y931926D01*
X4290565Y926337D01*
X4279643Y921004D01*
X4268721Y921004D01*
X4257799Y926337D01*
X4252211Y931926D01*
X4246877Y948181D01*
X4246877Y959104D01*
X4337301Y1035557D02*
G01*
X4337301Y921004D01*
X4337301Y921004D02*
G01*
X4402833Y921004D01*
X4520689Y1008126D02*
G01*
X4515101Y1019047D01*
X4504179Y1029970D01*
X4493257Y1035557D01*
X4471667Y1035557D01*
X4460745Y1029970D01*
X4449823Y1019047D01*
X4444235Y1008126D01*
X4438901Y991870D01*
X4438901Y964692D01*
X4444235Y948181D01*
X4449823Y937260D01*
X4460745Y926337D01*
X4471667Y921004D01*
X4493257Y921004D01*
X4504179Y926337D01*
X4515101Y937260D01*
X4520689Y948181D01*
X4611113Y1035557D02*
G01*
X4611113Y948181D01*
X4605779Y931926D01*
X4600191Y926337D01*
X4589269Y921004D01*
X4578347Y921004D01*
X4567425Y926337D01*
X4562091Y931926D01*
X4556757Y948181D01*
X4556757Y959104D01*
X4647181Y1035557D02*
G01*
X4647181Y921004D01*
X4647181Y921004D02*
G01*
X4712713Y921004D01*
X4830569Y1008126D02*
G01*
X4824981Y1019047D01*
X4814059Y1029970D01*
X4803137Y1035557D01*
X4781293Y1035557D01*
X4770371Y1029970D01*
X4759449Y1019047D01*
X4754115Y1008126D01*
X4748527Y991870D01*
X4748527Y964692D01*
X4754115Y948181D01*
X4759449Y937260D01*
X4770371Y926337D01*
X4781293Y921004D01*
X4803137Y921004D01*
X4814059Y926337D01*
X4824981Y937260D01*
X4830569Y948181D01*
X4920993Y1035557D02*
G01*
X4920993Y948181D01*
X4915659Y931926D01*
X4910071Y926337D01*
X4899149Y921004D01*
X4888227Y921004D01*
X4877305Y926337D01*
X4871971Y931926D01*
X4866383Y948181D01*
X4866383Y959104D01*
X4957061Y1035557D02*
G01*
X4957061Y921004D01*
X4957061Y921004D02*
G01*
X5022339Y921004D01*
X5140195Y1008126D02*
G01*
X5134861Y1019047D01*
X5123939Y1029970D01*
X5113017Y1035557D01*
X5091173Y1035557D01*
X5080251Y1029970D01*
X5069329Y1019047D01*
X5063995Y1008126D01*
X5058407Y991870D01*
X5058407Y964692D01*
X5063995Y948181D01*
X5069329Y937260D01*
X5080251Y926337D01*
X5091173Y921004D01*
X5113017Y921004D01*
X5123939Y926337D01*
X5134861Y937260D01*
X5140195Y948181D01*
X2260600Y11894058D02*
G01*
X2260600Y11779504D01*
X2260600Y11894058D02*
G01*
X2337054Y11779504D01*
X2337054Y11894058D02*
G01*
X2337054Y11779504D01*
X2416556Y11894058D02*
G01*
X2372868Y11779504D01*
X2416556Y11894058D02*
G01*
X2460243Y11779504D01*
X2389377Y11817604D02*
G01*
X2443988Y11817604D01*
X2496311Y11894058D02*
G01*
X2496311Y11779504D01*
X2496311Y11894058D02*
G01*
X2572511Y11779504D01*
X2572511Y11894058D02*
G01*
X2572511Y11779504D01*
X2641345Y11894058D02*
G01*
X2630424Y11888470D01*
X2619502Y11877547D01*
X2614168Y11866626D01*
X2608579Y11850370D01*
X2608579Y11823192D01*
X2614168Y11806681D01*
X2619502Y11795760D01*
X2630424Y11784837D01*
X2641345Y11779504D01*
X2663190Y11779504D01*
X2674111Y11784837D01*
X2685034Y11795760D01*
X2690368Y11806681D01*
X2695956Y11823192D01*
X2695956Y11850370D01*
X2690368Y11866626D01*
X2685034Y11877547D01*
X2674111Y11888470D01*
X2663190Y11894058D01*
X2641345Y11894058D01*
X2731770Y11894058D02*
G01*
X2731770Y11779504D01*
X2731770Y11894058D02*
G01*
X2775458Y11779504D01*
X2819145Y11894058D02*
G01*
X2775458Y11779504D01*
X2819145Y11894058D02*
G01*
X2819145Y11779504D01*
X2855213Y11894058D02*
G01*
X2855213Y11779504D01*
X2934715Y11894058D02*
G01*
X2891027Y11779504D01*
X2934715Y11894058D02*
G01*
X2978404Y11779504D01*
X2907538Y11817604D02*
G01*
X2962147Y11817604D01*
X3098291Y11894058D02*
G01*
X3098291Y11779504D01*
X3098291Y11894058D02*
G01*
X3147568Y11894058D01*
X3163824Y11888470D01*
X3169411Y11883136D01*
X3174745Y11872213D01*
X3174745Y11861292D01*
X3169411Y11850370D01*
X3163824Y11844781D01*
X3147568Y11839447D01*
X3098291Y11839447D02*
G01*
X3147568Y11839447D01*
X3163824Y11834113D01*
X3169411Y11828526D01*
X3174745Y11817604D01*
X3174745Y11801347D01*
X3169411Y11790426D01*
X3163824Y11784837D01*
X3147568Y11779504D01*
X3098291Y11779504D01*
X3210813Y11894058D02*
G01*
X3210813Y11779504D01*
X3210813Y11894058D02*
G01*
X3259836Y11894058D01*
X3276345Y11888470D01*
X3281679Y11883136D01*
X3287268Y11872213D01*
X3287268Y11861292D01*
X3281679Y11850370D01*
X3276345Y11844781D01*
X3259836Y11839447D01*
X3210813Y11839447D01*
X3248913Y11839447D02*
G01*
X3287268Y11779504D01*
X3323081Y11894058D02*
G01*
X3323081Y11779504D01*
X3323081Y11894058D02*
G01*
X3393947Y11894058D01*
X3323081Y11839447D02*
G01*
X3366770Y11839447D01*
X3323081Y11779504D02*
G01*
X3393947Y11779504D01*
X3473704Y11894058D02*
G01*
X3430015Y11779504D01*
X3473704Y11894058D02*
G01*
X3517391Y11779504D01*
X3446525Y11817604D02*
G01*
X3500881Y11817604D01*
X3553206Y11894058D02*
G01*
X3553206Y11779504D01*
X3553206Y11894058D02*
G01*
X3591559Y11894058D01*
X3607815Y11888470D01*
X3618738Y11877547D01*
X3624325Y11866626D01*
X3629659Y11850370D01*
X3629659Y11823192D01*
X3624325Y11806681D01*
X3618738Y11795760D01*
X3607815Y11784837D01*
X3591559Y11779504D01*
X3553206Y11779504D01*
X3665727Y11894058D02*
G01*
X3665727Y11779504D01*
X3665727Y11894058D02*
G01*
X3714750Y11894058D01*
X3731259Y11888470D01*
X3736593Y11883136D01*
X3741927Y11872213D01*
X3741927Y11861292D01*
X3736593Y11850370D01*
X3731259Y11844781D01*
X3714750Y11839447D01*
X3665727Y11839447D02*
G01*
X3714750Y11839447D01*
X3731259Y11834113D01*
X3736593Y11828526D01*
X3741927Y11817604D01*
X3741927Y11801347D01*
X3736593Y11790426D01*
X3731259Y11784837D01*
X3714750Y11779504D01*
X3665727Y11779504D01*
X3810761Y11894058D02*
G01*
X3799840Y11888470D01*
X3788918Y11877547D01*
X3783584Y11866626D01*
X3777995Y11850370D01*
X3777995Y11823192D01*
X3783584Y11806681D01*
X3788918Y11795760D01*
X3799840Y11784837D01*
X3810761Y11779504D01*
X3832606Y11779504D01*
X3843527Y11784837D01*
X3854450Y11795760D01*
X3859784Y11806681D01*
X3865372Y11823192D01*
X3865372Y11850370D01*
X3859784Y11866626D01*
X3854450Y11877547D01*
X3843527Y11888470D01*
X3832606Y11894058D01*
X3810761Y11894058D01*
X3944874Y11894058D02*
G01*
X3901440Y11779504D01*
X3944874Y11894058D02*
G01*
X3988561Y11779504D01*
X3917695Y11817604D02*
G01*
X3972306Y11817604D01*
X4024629Y11894058D02*
G01*
X4024629Y11779504D01*
X4024629Y11894058D02*
G01*
X4073652Y11894058D01*
X4090161Y11888470D01*
X4095495Y11883136D01*
X4101084Y11872213D01*
X4101084Y11861292D01*
X4095495Y11850370D01*
X4090161Y11844781D01*
X4073652Y11839447D01*
X4024629Y11839447D01*
X4062729Y11839447D02*
G01*
X4101084Y11779504D01*
X4136897Y11894058D02*
G01*
X4136897Y11779504D01*
X4136897Y11894058D02*
G01*
X4175252Y11894058D01*
X4191508Y11888470D01*
X4202429Y11877547D01*
X4207763Y11866626D01*
X4213352Y11850370D01*
X4213352Y11823192D01*
X4207763Y11806681D01*
X4202429Y11795760D01*
X4191508Y11784837D01*
X4175252Y11779504D01*
X4136897Y11779504D01*
X4366006Y11894058D02*
G01*
X4355084Y11888470D01*
X4344161Y11877547D01*
X4338827Y11866626D01*
X4333240Y11850370D01*
X4333240Y11823192D01*
X4338827Y11806681D01*
X4344161Y11795760D01*
X4355084Y11784837D01*
X4366006Y11779504D01*
X4387850Y11779504D01*
X4398772Y11784837D01*
X4409693Y11795760D01*
X4415027Y11806681D01*
X4420615Y11823192D01*
X4420615Y11850370D01*
X4415027Y11866626D01*
X4409693Y11877547D01*
X4398772Y11888470D01*
X4387850Y11894058D01*
X4366006Y11894058D01*
X4456684Y11894058D02*
G01*
X4456684Y11812270D01*
X4462018Y11795760D01*
X4472940Y11784837D01*
X4489195Y11779504D01*
X4500118Y11779504D01*
X4516627Y11784837D01*
X4527550Y11795760D01*
X4532884Y11812270D01*
X4532884Y11894058D01*
X4607052Y11894058D02*
G01*
X4607052Y11779504D01*
X4568952Y11894058D02*
G01*
X4645406Y11894058D01*
X4681220Y11894058D02*
G01*
X4681220Y11779504D01*
X4681220Y11894058D02*
G01*
X4752340Y11894058D01*
X4681220Y11839447D02*
G01*
X4724908Y11839447D01*
X4681220Y11779504D02*
G01*
X4752340Y11779504D01*
X4788154Y11894058D02*
G01*
X4788154Y11779504D01*
X4788154Y11894058D02*
G01*
X4837429Y11894058D01*
X4853686Y11888470D01*
X4859020Y11883136D01*
X4864608Y11872213D01*
X4864608Y11861292D01*
X4859020Y11850370D01*
X4853686Y11844781D01*
X4837429Y11839447D01*
X4788154Y11839447D01*
X4826508Y11839447D02*
G01*
X4864608Y11779504D01*
X5060950Y11877547D02*
G01*
X5050027Y11888470D01*
X5033772Y11894058D01*
X5011927Y11894058D01*
X4995418Y11888470D01*
X4984495Y11877547D01*
X4984495Y11866626D01*
X4990084Y11855704D01*
X4995418Y11850370D01*
X5006340Y11844781D01*
X5039106Y11834113D01*
X5050027Y11828526D01*
X5055615Y11823192D01*
X5060950Y11812270D01*
X5060950Y11795760D01*
X5050027Y11784837D01*
X5033772Y11779504D01*
X5011927Y11779504D01*
X4995418Y11784837D01*
X4984495Y11795760D01*
X5097018Y11894058D02*
G01*
X5097018Y11779504D01*
X5097018Y11894058D02*
G01*
X5146040Y11894058D01*
X5162295Y11888470D01*
X5167884Y11883136D01*
X5173218Y11872213D01*
X5173218Y11855704D01*
X5167884Y11844781D01*
X5162295Y11839447D01*
X5146040Y11834113D01*
X5097018Y11834113D01*
X5252974Y11894058D02*
G01*
X5209286Y11779504D01*
X5252974Y11894058D02*
G01*
X5296661Y11779504D01*
X5225795Y11817604D02*
G01*
X5280152Y11817604D01*
X5414518Y11866626D02*
G01*
X5408929Y11877547D01*
X5398008Y11888470D01*
X5387086Y11894058D01*
X5365241Y11894058D01*
X5354320Y11888470D01*
X5343397Y11877547D01*
X5338063Y11866626D01*
X5332475Y11850370D01*
X5332475Y11823192D01*
X5338063Y11806681D01*
X5343397Y11795760D01*
X5354320Y11784837D01*
X5365241Y11779504D01*
X5387086Y11779504D01*
X5398008Y11784837D01*
X5408929Y11795760D01*
X5414518Y11806681D01*
X5450331Y11894058D02*
G01*
X5450331Y11779504D01*
X5450331Y11894058D02*
G01*
X5521197Y11894058D01*
X5450331Y11839447D02*
G01*
X5494020Y11839447D01*
X5450331Y11779504D02*
G01*
X5521197Y11779504D01*
X5557265Y11894058D02*
G01*
X5557265Y11779504D01*
X5557265Y11894058D02*
G01*
X5606288Y11894058D01*
X5622797Y11888470D01*
X5628131Y11883136D01*
X5633720Y11872213D01*
X5633720Y11861292D01*
X5628131Y11850370D01*
X5622797Y11844781D01*
X5606288Y11839447D01*
X5557265Y11839447D01*
X5595620Y11839447D02*
G01*
X5633720Y11779504D01*
X5753608Y11894058D02*
G01*
X5797295Y11779504D01*
X5840984Y11894058D02*
G01*
X5797295Y11779504D01*
X5877052Y11872213D02*
G01*
X5887974Y11877547D01*
X5904229Y11894058D01*
X5904229Y11779504D01*
X5945631Y11806681D02*
G01*
X5940297Y11801347D01*
X5945631Y11795760D01*
X5951220Y11801347D01*
X5945631Y11806681D01*
X5992622Y11866626D02*
G01*
X5992622Y11872213D01*
X5997956Y11883136D01*
X6003543Y11888470D01*
X6014465Y11894058D01*
X6036309Y11894058D01*
X6047231Y11888470D01*
X6052565Y11883136D01*
X6058154Y11872213D01*
X6058154Y11861292D01*
X6052565Y11850370D01*
X6041643Y11834113D01*
X5987034Y11779504D01*
X6063488Y11779504D01*
X6183375Y11828526D02*
G01*
X6281674Y11828526D01*
X6401561Y11894058D02*
G01*
X6401561Y11779504D01*
X6401561Y11894058D02*
G01*
X6472681Y11894058D01*
X6401561Y11839447D02*
G01*
X6445250Y11839447D01*
X6508495Y11894058D02*
G01*
X6508495Y11779504D01*
X6508495Y11894058D02*
G01*
X6557772Y11894058D01*
X6574027Y11888470D01*
X6579615Y11883136D01*
X6584950Y11872213D01*
X6584950Y11861292D01*
X6579615Y11850370D01*
X6574027Y11844781D01*
X6557772Y11839447D01*
X6508495Y11839447D01*
X6546850Y11839447D02*
G01*
X6584950Y11779504D01*
X6653784Y11894058D02*
G01*
X6642861Y11888470D01*
X6631940Y11877547D01*
X6626352Y11866626D01*
X6621018Y11850370D01*
X6621018Y11823192D01*
X6626352Y11806681D01*
X6631940Y11795760D01*
X6642861Y11784837D01*
X6653784Y11779504D01*
X6675374Y11779504D01*
X6686295Y11784837D01*
X6697218Y11795760D01*
X6702806Y11806681D01*
X6708140Y11823192D01*
X6708140Y11850370D01*
X6702806Y11866626D01*
X6697218Y11877547D01*
X6686295Y11888470D01*
X6675374Y11894058D01*
X6653784Y11894058D01*
X6744208Y11894058D02*
G01*
X6744208Y11779504D01*
X6744208Y11894058D02*
G01*
X6820661Y11779504D01*
X6820661Y11894058D02*
G01*
X6820661Y11779504D01*
X6894829Y11894058D02*
G01*
X6894829Y11779504D01*
X6856475Y11894058D02*
G01*
X6932929Y11894058D01*
X484378Y11695937D02*
G01*
X475487Y11691365D01*
X466344Y11682476D01*
X461771Y11673331D01*
X457200Y11659615D01*
X457200Y11637010D01*
X461771Y11623294D01*
X466344Y11614150D01*
X475487Y11605005D01*
X484378Y11600434D01*
X502665Y11600434D01*
X511810Y11605005D01*
X520954Y11614150D01*
X525271Y11623294D01*
X529844Y11637010D01*
X529844Y11659615D01*
X525271Y11673331D01*
X520954Y11682476D01*
X511810Y11691365D01*
X502665Y11695937D01*
X484378Y11695937D01*
X559815Y11695937D02*
G01*
X559815Y11600434D01*
X559815Y11695937D02*
G01*
X618997Y11695937D01*
X559815Y11650471D02*
G01*
X596392Y11650471D01*
X648970Y11695937D02*
G01*
X648970Y11600434D01*
X648970Y11695937D02*
G01*
X708152Y11695937D01*
X648970Y11650471D02*
G01*
X685292Y11650471D01*
X1220978Y11695937D02*
G01*
X1212087Y11691365D01*
X1202944Y11682476D01*
X1198371Y11673331D01*
X1193800Y11659615D01*
X1193800Y11637010D01*
X1198371Y11623294D01*
X1202944Y11614150D01*
X1212087Y11605005D01*
X1220978Y11600434D01*
X1239265Y11600434D01*
X1248410Y11605005D01*
X1257554Y11614150D01*
X1261871Y11623294D01*
X1266444Y11637010D01*
X1266444Y11659615D01*
X1261871Y11673331D01*
X1257554Y11682476D01*
X1248410Y11691365D01*
X1239265Y11695937D01*
X1220978Y11695937D01*
X1296415Y11695937D02*
G01*
X1296415Y11600434D01*
X1296415Y11695937D02*
G01*
X1360170Y11600434D01*
X1360170Y11695937D02*
G01*
X1360170Y11600434D01*
G36*
X1488897Y11483797D02*
G01*
X1483055Y11483390D01*
X1480159Y11482882D01*
X1474520Y11481206D01*
X1469186Y11478768D01*
X1464259Y11475618D01*
X1459839Y11471757D01*
X1455978Y11467338D01*
X1452829Y11462410D01*
X1450390Y11457076D01*
X1448714Y11451437D01*
X1447901Y11445646D01*
X1447901Y11439753D01*
X1448714Y11433962D01*
X1450390Y11428323D01*
X1452829Y11422989D01*
X1455978Y11418062D01*
X1459839Y11413642D01*
X1464259Y11409781D01*
X1469186Y11406632D01*
X1474520Y11404193D01*
X1480159Y11402517D01*
X1485950Y11401704D01*
X1491843Y11401704D01*
X1497634Y11402517D01*
X1503273Y11404193D01*
X1508607Y11406632D01*
X1513535Y11409781D01*
X1517954Y11413642D01*
X1521815Y11418062D01*
X1524965Y11422989D01*
X1527403Y11428323D01*
X1529080Y11433962D01*
X1529892Y11439753D01*
X1529892Y11445646D01*
X1529080Y11451437D01*
X1527403Y11457076D01*
X1524965Y11462410D01*
X1521815Y11467338D01*
X1517954Y11471757D01*
X1513535Y11475618D01*
X1508607Y11478768D01*
X1503273Y11481206D01*
X1497634Y11482882D01*
X1491843Y11483695D01*
G37*
D12*
X800100Y7645400D02*
G01*
X1028700Y7645400D01*
X914400Y7454900D01*
X800100Y7645400D01*
X8118883Y7449157D02*
G01*
X8347483Y7449157D01*
X8233183Y7639657D01*
X8118883Y7449157D01*
X8347483Y5201257D02*
G01*
X8118883Y5201257D01*
X8233183Y5010757D01*
X8347483Y5201257D01*
X1028700Y5016500D02*
G01*
X800100Y5016500D01*
X914400Y5207000D01*
X1028700Y5016500D01*
X485800Y7226325D02*
G01*
X1335811Y7226325D01*
X1335811Y5426329D01*
X485800Y5426329D01*
X485800Y7226325D01*
X7804581Y7220585D02*
G01*
X8654592Y7220585D01*
X8654592Y5420588D01*
X7804581Y5420588D01*
X7804581Y7220585D01*
X489381Y2902585D02*
G01*
X1339392Y2902585D01*
X1339392Y1102588D01*
X489381Y1102588D01*
X489381Y2902585D01*
X7808137Y2900298D02*
G01*
X8658148Y2900298D01*
X8658148Y1100302D01*
X7808137Y1100302D01*
X7808137Y2900298D01*
X431800Y11544300D02*
G01*
X1397000Y11544300D01*
X1397000Y10344302D01*
X431800Y10344302D01*
X431800Y11544300D01*
M02*
