G04 Layer: TopPasteMaskLayer*
G04 EasyEDA v6.5.34, 2023-10-04 19:43:08*
G04 c11720abcaec4e6590754cbdbbe34226,5a6b42c53f6a479593ecc07194224c93,10*
G04 Gerber Generator version 0.2*
G04 Scale: 100 percent, Rotated: No, Reflected: No *
G04 Dimensions in millimeters *
G04 leading zeros omitted , absolute positions ,4 integer and 5 decimal *
%FSLAX45Y45*%
%MOMM*%

%AMMACRO1*21,1,$1,$2,0,0,$3*%
%ADD10R,0.9500X1.2000*%
%ADD11R,0.5320X1.0720*%
%ADD12R,0.6000X1.5500*%
%ADD13R,1.5000X2.0000*%
%ADD14MACRO1,1.2X1.4X90.0000*%
%ADD15R,1.4000X1.2000*%
%ADD16MACRO1,1.2X1.4X-90.0000*%
%ADD17R,0.6000X0.2800*%
%ADD18R,0.3000X1.7000*%
%ADD19R,0.5500X0.5500*%
%ADD20R,0.8000X0.8000*%
%ADD21R,1.0500X2.4650*%
%ADD22MACRO1,3.54X2.465X0.0000*%
%ADD23MACRO1,2.592X2.2075X0.0000*%
%ADD24R,2.5920X2.2075*%
%ADD25R,0.5500X1.0000*%
%ADD26R,0.0158X1.0000*%

%LPD*%
G36*
X2771952Y4485182D02*
G01*
X2725166Y4446676D01*
X2725166Y4377944D01*
X2735173Y4367936D01*
X2852826Y4367936D01*
X2862834Y4377944D01*
X2862834Y4446676D01*
X2816047Y4485182D01*
G37*
G36*
X2735173Y4674463D02*
G01*
X2725166Y4664456D01*
X2725166Y4595723D01*
X2771952Y4557217D01*
X2816047Y4557217D01*
X2862834Y4595723D01*
X2862834Y4664456D01*
X2852826Y4674463D01*
G37*
G36*
X2260752Y4484776D02*
G01*
X2250744Y4474768D01*
X2250744Y4354118D01*
X2260752Y4344111D01*
X2356205Y4344111D01*
X2366213Y4354118D01*
X2366213Y4381906D01*
X2376220Y4391914D01*
X2475179Y4391914D01*
X2485186Y4381906D01*
X2485186Y4354118D01*
X2495194Y4344111D01*
X2590647Y4344111D01*
X2600655Y4354118D01*
X2600655Y4474768D01*
X2590647Y4484776D01*
G37*
G36*
X2260752Y4114088D02*
G01*
X2250744Y4104081D01*
X2250744Y3983431D01*
X2260752Y3973423D01*
X2590647Y3973423D01*
X2600655Y3983431D01*
X2600655Y4104081D01*
X2590647Y4114088D01*
X2495194Y4114088D01*
X2485186Y4104081D01*
X2485186Y4076293D01*
X2475179Y4066286D01*
X2376220Y4066286D01*
X2366213Y4076293D01*
X2366213Y4104081D01*
X2356205Y4114088D01*
G37*
G36*
X1877720Y6544106D02*
G01*
X1872691Y6539077D01*
X1872691Y6459118D01*
X1877720Y6454089D01*
X1957679Y6454089D01*
X1962708Y6459118D01*
X1962708Y6539077D01*
X1957679Y6544106D01*
X1934921Y6544106D01*
X1934921Y6507073D01*
X1901901Y6507073D01*
X1901901Y6544106D01*
G37*
G36*
X1877720Y6703110D02*
G01*
X1872691Y6698081D01*
X1872691Y6619087D01*
X1877720Y6614109D01*
X1901901Y6614109D01*
X1901901Y6652107D01*
X1934921Y6652107D01*
X1934921Y6614109D01*
X1957679Y6614109D01*
X1962708Y6619087D01*
X1962708Y6698081D01*
X1957679Y6703110D01*
G37*
G36*
X1623720Y6544106D02*
G01*
X1618691Y6539077D01*
X1618691Y6459118D01*
X1623720Y6454089D01*
X1703679Y6454089D01*
X1708708Y6459118D01*
X1708708Y6539077D01*
X1703679Y6544106D01*
X1680921Y6544106D01*
X1680921Y6507073D01*
X1647901Y6507073D01*
X1647901Y6544106D01*
G37*
G36*
X1623720Y6703110D02*
G01*
X1618691Y6698081D01*
X1618691Y6619087D01*
X1623720Y6614109D01*
X1647901Y6614109D01*
X1647901Y6652107D01*
X1680921Y6652107D01*
X1680921Y6614109D01*
X1703679Y6614109D01*
X1708708Y6619087D01*
X1708708Y6698081D01*
X1703679Y6703110D01*
G37*
G36*
X1623720Y2797606D02*
G01*
X1618691Y2792577D01*
X1618691Y2712618D01*
X1623720Y2707589D01*
X1703679Y2707589D01*
X1708708Y2712618D01*
X1708708Y2792577D01*
X1703679Y2797606D01*
X1680921Y2797606D01*
X1680921Y2760573D01*
X1647901Y2760573D01*
X1647901Y2797606D01*
G37*
G36*
X1623720Y2956610D02*
G01*
X1618691Y2951581D01*
X1618691Y2872587D01*
X1623720Y2867609D01*
X1647901Y2867609D01*
X1647901Y2905607D01*
X1680921Y2905607D01*
X1680921Y2867609D01*
X1703679Y2867609D01*
X1708708Y2872587D01*
X1708708Y2951581D01*
X1703679Y2956610D01*
G37*
G36*
X1369720Y2797606D02*
G01*
X1364691Y2792577D01*
X1364691Y2712618D01*
X1369720Y2707589D01*
X1449679Y2707589D01*
X1454708Y2712618D01*
X1454708Y2792577D01*
X1449679Y2797606D01*
X1426921Y2797606D01*
X1426921Y2760573D01*
X1393901Y2760573D01*
X1393901Y2797606D01*
G37*
G36*
X1369720Y2956610D02*
G01*
X1364691Y2951581D01*
X1364691Y2872587D01*
X1369720Y2867609D01*
X1393901Y2867609D01*
X1393901Y2905607D01*
X1426921Y2905607D01*
X1426921Y2867609D01*
X1449679Y2867609D01*
X1454708Y2872587D01*
X1454708Y2951581D01*
X1449679Y2956610D01*
G37*
G36*
X2593695Y10116616D02*
G01*
X2588717Y10109606D01*
X2588717Y10061600D01*
X2593695Y10056622D01*
X2638704Y10056622D01*
X2643682Y10061600D01*
X2643682Y10109606D01*
X2638704Y10116616D01*
G37*
G36*
X2593695Y10212578D02*
G01*
X2588717Y10207599D01*
X2588717Y10159593D01*
X2593695Y10152583D01*
X2638704Y10152583D01*
X2643682Y10159593D01*
X2643682Y10207599D01*
X2638704Y10212578D01*
G37*
G36*
X2387193Y10123982D02*
G01*
X2380183Y10119004D01*
X2380183Y10073995D01*
X2387193Y10069017D01*
X2435199Y10069017D01*
X2440178Y10073995D01*
X2440178Y10119004D01*
X2435199Y10123982D01*
G37*
G36*
X2289200Y10123982D02*
G01*
X2284222Y10119004D01*
X2284222Y10073995D01*
X2289200Y10069017D01*
X2337206Y10069017D01*
X2344216Y10073995D01*
X2344216Y10119004D01*
X2337206Y10123982D01*
G37*
G36*
X2695295Y10114584D02*
G01*
X2690317Y10109606D01*
X2690317Y10056622D01*
X2695295Y10051592D01*
X2740304Y10051592D01*
X2745282Y10056622D01*
X2745282Y10109606D01*
X2740304Y10114584D01*
G37*
G36*
X2695295Y10217607D02*
G01*
X2690317Y10212578D01*
X2690317Y10159593D01*
X2695295Y10154615D01*
X2740304Y10154615D01*
X2745282Y10159593D01*
X2745282Y10212578D01*
X2740304Y10217607D01*
G37*
G36*
X1623822Y9031782D02*
G01*
X1618792Y9026804D01*
X1618792Y8981795D01*
X1623822Y8976817D01*
X1676806Y8976817D01*
X1681784Y8981795D01*
X1681784Y9026804D01*
X1676806Y9031782D01*
G37*
G36*
X1726793Y9031782D02*
G01*
X1721815Y9026804D01*
X1721815Y8981795D01*
X1726793Y8976817D01*
X1779778Y8976817D01*
X1784807Y8981795D01*
X1784807Y9026804D01*
X1779778Y9031782D01*
G37*
G36*
X2347671Y9019082D02*
G01*
X2342692Y9014104D01*
X2342692Y8969095D01*
X2347671Y8964117D01*
X2400706Y8964117D01*
X2405684Y8969095D01*
X2405684Y9014104D01*
X2400706Y9019082D01*
G37*
G36*
X2450693Y9019082D02*
G01*
X2445715Y9014104D01*
X2445715Y8969095D01*
X2450693Y8964117D01*
X2503678Y8964117D01*
X2508707Y8969095D01*
X2508707Y9014104D01*
X2503678Y9019082D01*
G37*
G36*
X2347671Y9120682D02*
G01*
X2342692Y9115704D01*
X2342692Y9070695D01*
X2347671Y9065717D01*
X2400706Y9065717D01*
X2405684Y9070695D01*
X2405684Y9115704D01*
X2400706Y9120682D01*
G37*
G36*
X2450693Y9120682D02*
G01*
X2445715Y9115704D01*
X2445715Y9070695D01*
X2450693Y9065717D01*
X2503678Y9065717D01*
X2508707Y9070695D01*
X2508707Y9115704D01*
X2503678Y9120682D01*
G37*
G36*
X1863293Y9896602D02*
G01*
X1863293Y9876586D01*
X1973275Y9876586D01*
X1973275Y9896602D01*
G37*
G36*
X1863293Y9856622D02*
G01*
X1863293Y9836607D01*
X1973275Y9836607D01*
X1973275Y9856622D01*
G37*
G36*
X1863293Y9816592D02*
G01*
X1863293Y9796576D01*
X1973275Y9796576D01*
X1973275Y9816592D01*
G37*
G36*
X1863293Y9776561D02*
G01*
X1863293Y9756597D01*
X1973275Y9756597D01*
X1973275Y9776561D01*
G37*
G36*
X1863293Y9736632D02*
G01*
X1863293Y9716617D01*
X1973275Y9716617D01*
X1973275Y9736632D01*
G37*
G36*
X1863293Y9696602D02*
G01*
X1863293Y9676587D01*
X1973275Y9676587D01*
X1973275Y9696602D01*
G37*
G36*
X1863293Y9656622D02*
G01*
X1863293Y9636607D01*
X1973275Y9636607D01*
X1973275Y9656622D01*
G37*
G36*
X1863293Y9616592D02*
G01*
X1863293Y9596577D01*
X1973275Y9596577D01*
X1973275Y9616592D01*
G37*
G36*
X1863293Y9576612D02*
G01*
X1863293Y9556597D01*
X1973275Y9556597D01*
X1973275Y9576612D01*
G37*
G36*
X1863293Y9536633D02*
G01*
X1863293Y9516618D01*
X1973275Y9516618D01*
X1973275Y9536633D01*
G37*
G36*
X1863293Y9496602D02*
G01*
X1863293Y9476587D01*
X1973275Y9476587D01*
X1973275Y9496602D01*
G37*
G36*
X1863293Y9456572D02*
G01*
X1863293Y9436608D01*
X1973275Y9436608D01*
X1973275Y9456572D01*
G37*
G36*
X1863293Y9416592D02*
G01*
X1863293Y9396577D01*
X1973275Y9396577D01*
X1973275Y9416592D01*
G37*
G36*
X1863293Y9376613D02*
G01*
X1863293Y9356598D01*
X1973275Y9356598D01*
X1973275Y9376613D01*
G37*
G36*
X2003298Y9326626D02*
G01*
X2003298Y9216593D01*
X2023313Y9216593D01*
X2023313Y9326626D01*
G37*
G36*
X2043277Y9326626D02*
G01*
X2043277Y9216593D01*
X2063292Y9216593D01*
X2063292Y9326626D01*
G37*
G36*
X2083307Y9326626D02*
G01*
X2083307Y9216593D01*
X2103272Y9216593D01*
X2103272Y9326626D01*
G37*
G36*
X2123287Y9326626D02*
G01*
X2123287Y9216593D01*
X2143302Y9216593D01*
X2143302Y9326626D01*
G37*
G36*
X2163318Y9326626D02*
G01*
X2163318Y9216593D01*
X2183282Y9216593D01*
X2183282Y9326626D01*
G37*
G36*
X2203297Y9326626D02*
G01*
X2203297Y9216593D01*
X2223312Y9216593D01*
X2223312Y9326626D01*
G37*
G36*
X2243277Y9326626D02*
G01*
X2243277Y9216593D01*
X2263292Y9216593D01*
X2263292Y9326626D01*
G37*
G36*
X2283307Y9326626D02*
G01*
X2283307Y9216593D01*
X2303272Y9216593D01*
X2303272Y9326626D01*
G37*
G36*
X2323287Y9326626D02*
G01*
X2323287Y9216593D01*
X2343302Y9216593D01*
X2343302Y9326626D01*
G37*
G36*
X2363317Y9326626D02*
G01*
X2363317Y9216593D01*
X2383282Y9216593D01*
X2383282Y9326626D01*
G37*
G36*
X2403297Y9326626D02*
G01*
X2403297Y9216593D01*
X2423312Y9216593D01*
X2423312Y9326626D01*
G37*
G36*
X2443276Y9326626D02*
G01*
X2443276Y9216593D01*
X2463292Y9216593D01*
X2463292Y9326626D01*
G37*
G36*
X2483307Y9326626D02*
G01*
X2483307Y9216593D01*
X2503271Y9216593D01*
X2503271Y9326626D01*
G37*
G36*
X2523286Y9326626D02*
G01*
X2523286Y9216593D01*
X2543302Y9216593D01*
X2543302Y9326626D01*
G37*
G36*
X2573324Y9376613D02*
G01*
X2573324Y9356598D01*
X2683306Y9356598D01*
X2683306Y9376613D01*
G37*
G36*
X2573324Y9416592D02*
G01*
X2573324Y9396577D01*
X2683306Y9396577D01*
X2683306Y9416592D01*
G37*
G36*
X2573324Y9456572D02*
G01*
X2573324Y9436608D01*
X2683306Y9436608D01*
X2683306Y9456572D01*
G37*
G36*
X2573324Y9496602D02*
G01*
X2573324Y9476587D01*
X2683306Y9476587D01*
X2683306Y9496602D01*
G37*
G36*
X2573324Y9536633D02*
G01*
X2573324Y9516618D01*
X2683306Y9516618D01*
X2683306Y9536633D01*
G37*
G36*
X2573324Y9576612D02*
G01*
X2573324Y9556597D01*
X2683306Y9556597D01*
X2683306Y9576612D01*
G37*
G36*
X2573324Y9616592D02*
G01*
X2573324Y9596577D01*
X2683306Y9596577D01*
X2683306Y9616592D01*
G37*
G36*
X2573324Y9656622D02*
G01*
X2573324Y9636607D01*
X2683306Y9636607D01*
X2683306Y9656622D01*
G37*
G36*
X2573324Y9696602D02*
G01*
X2573324Y9676587D01*
X2683306Y9676587D01*
X2683306Y9696602D01*
G37*
G36*
X2573324Y9736632D02*
G01*
X2573324Y9716617D01*
X2683306Y9716617D01*
X2683306Y9736632D01*
G37*
G36*
X2573324Y9776561D02*
G01*
X2573324Y9756597D01*
X2683306Y9756597D01*
X2683306Y9776561D01*
G37*
G36*
X2573324Y9816592D02*
G01*
X2573324Y9796576D01*
X2683306Y9796576D01*
X2683306Y9816592D01*
G37*
G36*
X2573324Y9856622D02*
G01*
X2573324Y9836607D01*
X2683306Y9836607D01*
X2683306Y9856622D01*
G37*
G36*
X2573324Y9896602D02*
G01*
X2573324Y9876586D01*
X2683306Y9876586D01*
X2683306Y9896602D01*
G37*
G36*
X2523286Y10036606D02*
G01*
X2523286Y9926574D01*
X2543302Y9926574D01*
X2543302Y10036606D01*
G37*
G36*
X2483307Y10036606D02*
G01*
X2483307Y9926574D01*
X2503271Y9926574D01*
X2503271Y10036606D01*
G37*
G36*
X2443276Y10036606D02*
G01*
X2443276Y9926574D01*
X2463292Y9926574D01*
X2463292Y10036606D01*
G37*
G36*
X2403297Y10036606D02*
G01*
X2403297Y9926574D01*
X2423312Y9926574D01*
X2423312Y10036606D01*
G37*
G36*
X2363317Y10036606D02*
G01*
X2363317Y9926574D01*
X2383282Y9926574D01*
X2383282Y10036606D01*
G37*
G36*
X2323287Y10036606D02*
G01*
X2323287Y9926574D01*
X2343302Y9926574D01*
X2343302Y10036606D01*
G37*
G36*
X2283307Y10036606D02*
G01*
X2283307Y9926574D01*
X2303272Y9926574D01*
X2303272Y10036606D01*
G37*
G36*
X2243277Y10036606D02*
G01*
X2243277Y9926574D01*
X2263292Y9926574D01*
X2263292Y10036606D01*
G37*
G36*
X2203297Y10036606D02*
G01*
X2203297Y9926574D01*
X2223312Y9926574D01*
X2223312Y10036606D01*
G37*
G36*
X2163318Y10036606D02*
G01*
X2163318Y9926574D01*
X2183282Y9926574D01*
X2183282Y10036606D01*
G37*
G36*
X2123287Y10036606D02*
G01*
X2123287Y9926574D01*
X2143302Y9926574D01*
X2143302Y10036606D01*
G37*
G36*
X2083307Y10036606D02*
G01*
X2083307Y9926574D01*
X2103272Y9926574D01*
X2103272Y10036606D01*
G37*
G36*
X2043277Y10036606D02*
G01*
X2043277Y9926574D01*
X2063292Y9926574D01*
X2063292Y10036606D01*
G37*
G36*
X2003298Y10036606D02*
G01*
X2003298Y9926574D01*
X2023313Y9926574D01*
X2023313Y10036606D01*
G37*
G36*
X2338324Y9771583D02*
G01*
X2338324Y9691624D01*
X2418283Y9691624D01*
X2418283Y9771583D01*
G37*
G36*
X2128316Y9771583D02*
G01*
X2128316Y9691624D01*
X2208326Y9691624D01*
X2208326Y9771583D01*
G37*
G36*
X2128316Y9561626D02*
G01*
X2128316Y9481616D01*
X2208276Y9481616D01*
X2208276Y9561626D01*
G37*
G36*
X2338273Y9561626D02*
G01*
X2338273Y9481616D01*
X2418283Y9481616D01*
X2418283Y9561626D01*
G37*
G36*
X2338273Y9666579D02*
G01*
X2338273Y9586569D01*
X2418283Y9586569D01*
X2418283Y9666579D01*
G37*
G36*
X2233320Y9771634D02*
G01*
X2233320Y9691624D01*
X2313279Y9691624D01*
X2313279Y9771634D01*
G37*
G36*
X2128316Y9666579D02*
G01*
X2128316Y9586569D01*
X2208276Y9586569D01*
X2208276Y9666579D01*
G37*
G36*
X2233320Y9666579D02*
G01*
X2233320Y9586620D01*
X2313279Y9586620D01*
X2313279Y9666579D01*
G37*
G36*
X2233320Y9561118D02*
G01*
X2233320Y9481108D01*
X2313279Y9481108D01*
X2313279Y9561118D01*
G37*
G36*
X2387193Y10225582D02*
G01*
X2382215Y10220604D01*
X2382215Y10175595D01*
X2387193Y10170617D01*
X2440178Y10170617D01*
X2445207Y10175595D01*
X2445207Y10220604D01*
X2440178Y10225582D01*
G37*
G36*
X2284222Y10225582D02*
G01*
X2279192Y10220604D01*
X2279192Y10175595D01*
X2284222Y10170617D01*
X2337206Y10170617D01*
X2342184Y10175595D01*
X2342184Y10220604D01*
X2337206Y10225582D01*
G37*
G36*
X2588971Y9222282D02*
G01*
X2583992Y9217304D01*
X2583992Y9172295D01*
X2588971Y9167317D01*
X2642006Y9167317D01*
X2646984Y9172295D01*
X2646984Y9217304D01*
X2642006Y9222282D01*
G37*
G36*
X2691993Y9222282D02*
G01*
X2687015Y9217304D01*
X2687015Y9172295D01*
X2691993Y9167317D01*
X2744978Y9167317D01*
X2750007Y9172295D01*
X2750007Y9217304D01*
X2744978Y9222282D01*
G37*
G36*
X2779522Y9552482D02*
G01*
X2774492Y9547504D01*
X2774492Y9502495D01*
X2779522Y9497517D01*
X2832506Y9497517D01*
X2837484Y9502495D01*
X2837484Y9547504D01*
X2832506Y9552482D01*
G37*
G36*
X2882493Y9552482D02*
G01*
X2877515Y9547504D01*
X2877515Y9502495D01*
X2882493Y9497517D01*
X2935478Y9497517D01*
X2940507Y9502495D01*
X2940507Y9547504D01*
X2935478Y9552482D01*
G37*
G36*
X1755495Y9925507D02*
G01*
X1750517Y9920478D01*
X1750517Y9867493D01*
X1755495Y9862515D01*
X1800504Y9862515D01*
X1805482Y9867493D01*
X1805482Y9920478D01*
X1800504Y9925507D01*
G37*
G36*
X1755495Y9822484D02*
G01*
X1750517Y9817506D01*
X1750517Y9764522D01*
X1755495Y9759492D01*
X1800504Y9759492D01*
X1805482Y9764522D01*
X1805482Y9817506D01*
X1800504Y9822484D01*
G37*
G36*
X1653895Y9925507D02*
G01*
X1648917Y9920478D01*
X1648917Y9867493D01*
X1653895Y9862515D01*
X1698904Y9862515D01*
X1703882Y9867493D01*
X1703882Y9920478D01*
X1698904Y9925507D01*
G37*
G36*
X1653895Y9822484D02*
G01*
X1648917Y9817506D01*
X1648917Y9764522D01*
X1653895Y9759492D01*
X1698904Y9759492D01*
X1703882Y9764522D01*
X1703882Y9817506D01*
X1698904Y9822484D01*
G37*
G36*
X1739493Y9539782D02*
G01*
X1734515Y9534804D01*
X1734515Y9489795D01*
X1739493Y9484817D01*
X1792478Y9484817D01*
X1797507Y9489795D01*
X1797507Y9534804D01*
X1792478Y9539782D01*
G37*
G36*
X1636522Y9539782D02*
G01*
X1631492Y9534804D01*
X1631492Y9489795D01*
X1636522Y9484817D01*
X1689506Y9484817D01*
X1694484Y9489795D01*
X1694484Y9534804D01*
X1689506Y9539782D01*
G37*
G36*
X1536293Y9260382D02*
G01*
X1531315Y9255404D01*
X1531315Y9210395D01*
X1536293Y9205417D01*
X1589278Y9205417D01*
X1594307Y9210395D01*
X1594307Y9255404D01*
X1589278Y9260382D01*
G37*
G36*
X1433322Y9260382D02*
G01*
X1428292Y9255404D01*
X1428292Y9210395D01*
X1433322Y9205417D01*
X1486306Y9205417D01*
X1491284Y9210395D01*
X1491284Y9255404D01*
X1486306Y9260382D01*
G37*
G36*
X1725320Y8494420D02*
G01*
X1720291Y8489391D01*
X1720291Y8404402D01*
X1725320Y8399373D01*
X1805279Y8399373D01*
X1810308Y8404402D01*
X1810308Y8489391D01*
X1805279Y8494420D01*
X1780286Y8494420D01*
X1780286Y8464397D01*
X1750314Y8464397D01*
X1750314Y8494420D01*
G37*
G36*
X1725320Y8669375D02*
G01*
X1720291Y8664397D01*
X1720291Y8579408D01*
X1725320Y8574379D01*
X1750314Y8574379D01*
X1750314Y8604402D01*
X1780286Y8604402D01*
X1780286Y8574379D01*
X1805279Y8574379D01*
X1810308Y8579408D01*
X1810308Y8664397D01*
X1805279Y8669375D01*
G37*
G36*
X1255420Y6544106D02*
G01*
X1250391Y6539077D01*
X1250391Y6459118D01*
X1255420Y6454089D01*
X1335379Y6454089D01*
X1340408Y6459118D01*
X1340408Y6539077D01*
X1335379Y6544106D01*
X1312621Y6544106D01*
X1312621Y6507073D01*
X1279601Y6507073D01*
X1279601Y6544106D01*
G37*
G36*
X1255420Y6703110D02*
G01*
X1250391Y6698081D01*
X1250391Y6619087D01*
X1255420Y6614109D01*
X1279601Y6614109D01*
X1279601Y6652107D01*
X1312621Y6652107D01*
X1312621Y6614109D01*
X1335379Y6614109D01*
X1340408Y6619087D01*
X1340408Y6698081D01*
X1335379Y6703110D01*
G37*
G36*
X2479395Y8514384D02*
G01*
X2474417Y8509406D01*
X2474417Y8456422D01*
X2479395Y8451392D01*
X2524404Y8451392D01*
X2529382Y8456422D01*
X2529382Y8509406D01*
X2524404Y8514384D01*
G37*
G36*
X2479395Y8617407D02*
G01*
X2474417Y8612378D01*
X2474417Y8559393D01*
X2479395Y8554415D01*
X2524404Y8554415D01*
X2529382Y8559393D01*
X2529382Y8612378D01*
X2524404Y8617407D01*
G37*
D10*
G01*
X2794000Y4922697D03*
G01*
X2794000Y5262702D03*
D11*
G01*
X1390904Y10476890D03*
G01*
X1485900Y10476890D03*
G01*
X1580895Y10476890D03*
G01*
X1580895Y10706709D03*
G01*
X1485900Y10706709D03*
G01*
X1390904Y10706709D03*
D12*
G01*
X1585899Y11350548D03*
G01*
X1485900Y11350548D03*
G01*
X1385900Y11350548D03*
D13*
G01*
X1255902Y11738051D03*
G01*
X1715897Y11738051D03*
D14*
G01*
X1960100Y8944711D03*
G01*
X2180099Y8944711D03*
D15*
G01*
X2180107Y9114713D03*
D16*
G01*
X1960100Y9114713D03*
D17*
G01*
X1928749Y10034193D03*
G01*
X1928749Y10084206D03*
G01*
X1928749Y10134193D03*
G01*
X1928749Y10184206D03*
G01*
X1627250Y10034193D03*
G01*
X1627250Y10084206D03*
G01*
X1627250Y10134193D03*
G01*
X1627250Y10184206D03*
D18*
G01*
X1778000Y10109200D03*
D19*
G01*
X1787397Y9134576D03*
G01*
X1787397Y9229597D03*
G01*
X1692376Y9229597D03*
G01*
X1692376Y9134576D03*
D20*
G01*
X1955800Y8449310D03*
G01*
X1955800Y8619489D03*
D12*
G01*
X2855899Y11350548D03*
G01*
X2755900Y11350548D03*
G01*
X2655900Y11350548D03*
D13*
G01*
X2525902Y11738051D03*
G01*
X2985897Y11738051D03*
D21*
G01*
X2335402Y5937250D03*
G01*
X2565400Y5937250D03*
G01*
X2795397Y5937250D03*
D22*
G01*
X2565400Y6508750D03*
D11*
G01*
X2660904Y10476890D03*
G01*
X2755900Y10476890D03*
G01*
X2850895Y10476890D03*
G01*
X2850895Y10706709D03*
G01*
X2755900Y10706709D03*
G01*
X2660904Y10706709D03*
D23*
G01*
X3276600Y6510624D03*
D24*
G01*
X3276600Y5808370D03*
D25*
G01*
X2660904Y8674404D03*
G01*
X2755900Y8674404D03*
G01*
X2850895Y8674404D03*
G01*
X2850895Y8394395D03*
G01*
X2755900Y8394395D03*
G01*
X2660904Y8394395D03*
M02*
