G04 Layer: TopSolderMaskLayer*
G04 EasyEDA v6.5.34, 2023-10-04 19:43:08*
G04 c11720abcaec4e6590754cbdbbe34226,5a6b42c53f6a479593ecc07194224c93,10*
G04 Gerber Generator version 0.2*
G04 Scale: 100 percent, Rotated: No, Reflected: No *
G04 Dimensions in millimeters *
G04 leading zeros omitted , absolute positions ,4 integer and 5 decimal *
%FSLAX45Y45*%
%MOMM*%

%AMMACRO1*1,1,$1,$2,$3*1,1,$1,$4,$5*1,1,$1,0-$2,0-$3*1,1,$1,0-$4,0-$5*20,1,$1,$2,$3,$4,$5,0*20,1,$1,$4,$5,0-$2,0-$3,0*20,1,$1,0-$2,0-$3,0-$4,0-$5,0*20,1,$1,0-$4,0-$5,$2,$3,0*4,1,4,$2,$3,$4,$5,0-$2,0-$3,0-$4,0-$5,$2,$3,0*%
%ADD10MACRO1,0.1016X-0.85X0.85X0.85X0.85*%
%ADD11C,1.8016*%
%ADD12MACRO1,0.1016X0.6885X0.5663X-0.6885X0.5663*%
%ADD13MACRO1,0.1016X0.6885X-0.5663X-0.6885X-0.5663*%
%ADD14MACRO1,0.1016X1.7496X-0.7033X-1.7496X-0.7033*%
%ADD15MACRO1,0.1016X1.7496X0.7033X-1.7496X0.7033*%
%ADD16MACRO1,0.1016X0.475X0.6X0.475X-0.6*%
%ADD17MACRO1,0.1016X-0.432X0.4032X0.432X0.4032*%
%ADD18MACRO1,0.1016X-0.432X-0.4032X0.432X-0.4032*%
%ADD19MACRO1,0.1016X-0.266X0.536X0.266X0.536*%
%ADD20MACRO1,0.1016X0.3X-0.775X-0.3X-0.775*%
%ADD21MACRO1,0.1016X0.75X-1X-0.75X-1*%
%ADD22MACRO1,0.1016X0.27X-0.395X-0.27X-0.395*%
%ADD23MACRO1,0.1016X0.27X0.395X-0.27X0.395*%
%ADD24MACRO1,0.1016X0.395X0.27X0.395X-0.27*%
%ADD25MACRO1,0.1016X-0.395X0.27X-0.395X-0.27*%
%ADD26MACRO1,0.1016X-0.27X0.395X0.27X0.395*%
%ADD27MACRO1,0.1016X-0.27X-0.395X0.27X-0.395*%
%ADD28MACRO1,0.1016X0.7X-0.6X0.7X0.6*%
%ADD29MACRO1,0.1016X-0.7X-0.6X-0.7X0.6*%
%ADD30MACRO1,0.1016X-0.7X0.6X-0.7X-0.6*%
%ADD31MACRO1,0.1016X0.7X0.6X0.7X-0.6*%
%ADD32MACRO1,0.1X-0.55X0.1X0.55X0.1*%
%ADD33MACRO1,0.1X-0.1X-0.55X-0.1X0.55*%
%ADD34MACRO1,0.1X0.55X-0.1X-0.55X-0.1*%
%ADD35MACRO1,0.1X0.1X0.55X0.1X-0.55*%
%ADD36MACRO1,0.1X-1.55X1.55X1.55X1.55*%
%ADD37MACRO1,0.1016X-0.395X-0.27X-0.395X0.27*%
%ADD38MACRO1,0.1016X0.395X-0.27X0.395X0.27*%
%ADD39MACRO1,0.1016X-0.3X0.14X0.3X0.14*%
%ADD40MACRO1,0.1016X0.15X-0.85X-0.15X-0.85*%
%ADD41MACRO1,0.1016X0.275X-0.275X-0.275X-0.275*%
%ADD42MACRO1,0.1016X-0.4X0.4X0.4X0.4*%
%ADD43MACRO1,0.1016X-0.525X-1.2325X0.525X-1.2325*%
%ADD44MACRO1,0.1016X1.77X-1.2325X-1.77X-1.2325*%
%ADD45MACRO1,0.1016X0.432X-0.4032X-0.432X-0.4032*%
%ADD46MACRO1,0.1016X0.432X0.4032X-0.432X0.4032*%
%ADD47MACRO1,0.1016X1.296X-1.1038X-1.296X-1.1038*%
%ADD48MACRO1,0.1016X1.296X1.1038X-1.296X1.1038*%
%ADD49MACRO1,0.1016X-0.275X-0.5X-0.275X0.5*%
%ADD50MACRO1,0.1016X-0.85X-0.85X0.85X-0.85*%
%ADD51MACRO1,0.1016X0.85X0.85X-0.85X0.85*%
%ADD52MACRO1,0.1016X0.85X-0.85X0.85X0.85*%
%ADD53C,0.0109*%

%LPD*%
D10*
G01*
X2937494Y3216894D03*
D11*
G01*
X2683497Y3216897D03*
G01*
X2429497Y3216897D03*
G01*
X2175497Y3216897D03*
G01*
X1921497Y3216897D03*
G01*
X1667497Y3216897D03*
G01*
X1413497Y3216897D03*
G01*
X1159497Y3216897D03*
D12*
G01*
X2793996Y4424573D03*
D13*
G01*
X2793996Y4617826D03*
D14*
G01*
X2425700Y4414433D03*
D15*
G01*
X2425700Y4043766D03*
D16*
G01*
X2794000Y4922697D03*
G01*
X2794000Y5262702D03*
D17*
G01*
X1917700Y6503275D03*
D18*
G01*
X1917700Y6653924D03*
D17*
G01*
X1663700Y6503275D03*
D18*
G01*
X1663700Y6653924D03*
D17*
G01*
X1663700Y2756775D03*
D18*
G01*
X1663700Y2907424D03*
D17*
G01*
X1409700Y2756775D03*
D18*
G01*
X1409700Y2907424D03*
D19*
G01*
X1390904Y10476890D03*
G01*
X1485900Y10476890D03*
G01*
X1580895Y10476890D03*
G01*
X1580895Y10706709D03*
G01*
X1485900Y10706709D03*
G01*
X1390904Y10706709D03*
D20*
G01*
X1585899Y11350548D03*
G01*
X1485900Y11350548D03*
G01*
X1385900Y11350548D03*
D21*
G01*
X1255899Y11738048D03*
G01*
X1715898Y11738048D03*
D22*
G01*
X2616197Y10189108D03*
D23*
G01*
X2616197Y10080096D03*
D24*
G01*
X2307691Y10096502D03*
D25*
G01*
X2416703Y10096502D03*
D26*
G01*
X2717797Y10080096D03*
D27*
G01*
X2717797Y10189108D03*
D28*
G01*
X1960100Y8944711D03*
D29*
G01*
X2180099Y8944711D03*
D30*
G01*
X2180099Y9114713D03*
D31*
G01*
X1960100Y9114713D03*
D24*
G01*
X1647294Y9004300D03*
D25*
G01*
X1756305Y9004300D03*
D24*
G01*
X2371191Y8991602D03*
D25*
G01*
X2480203Y8991602D03*
D24*
G01*
X2371191Y9093202D03*
D25*
G01*
X2480203Y9093202D03*
D32*
G01*
X1918290Y9886607D03*
G01*
X1918290Y9846602D03*
G01*
X1918290Y9806597D03*
G01*
X1918290Y9766592D03*
G01*
X1918290Y9726612D03*
G01*
X1918290Y9686607D03*
G01*
X1918290Y9646602D03*
G01*
X1918290Y9606597D03*
G01*
X1918290Y9566592D03*
G01*
X1918290Y9526612D03*
G01*
X1918290Y9486607D03*
G01*
X1918290Y9446602D03*
G01*
X1918290Y9406597D03*
G01*
X1918290Y9366592D03*
D33*
G01*
X2013305Y9271604D03*
G01*
X2053285Y9271604D03*
G01*
X2093290Y9271604D03*
G01*
X2133295Y9271604D03*
G01*
X2173300Y9271604D03*
G01*
X2213305Y9271604D03*
G01*
X2253284Y9271604D03*
G01*
X2293289Y9271604D03*
G01*
X2333294Y9271604D03*
G01*
X2373299Y9271604D03*
G01*
X2413304Y9271604D03*
G01*
X2453284Y9271604D03*
G01*
X2493289Y9271604D03*
G01*
X2533294Y9271604D03*
D34*
G01*
X2628308Y9366592D03*
G01*
X2628308Y9406597D03*
G01*
X2628308Y9446602D03*
G01*
X2628308Y9486607D03*
G01*
X2628308Y9526612D03*
G01*
X2628308Y9566592D03*
G01*
X2628308Y9606597D03*
G01*
X2628308Y9646602D03*
G01*
X2628308Y9686607D03*
G01*
X2628308Y9726612D03*
G01*
X2628308Y9766592D03*
G01*
X2628308Y9806597D03*
G01*
X2628308Y9846602D03*
G01*
X2628308Y9886607D03*
D35*
G01*
X2533294Y9981595D03*
G01*
X2493289Y9981595D03*
G01*
X2453284Y9981595D03*
G01*
X2413304Y9981595D03*
G01*
X2373299Y9981595D03*
G01*
X2333294Y9981595D03*
G01*
X2293289Y9981595D03*
G01*
X2253284Y9981595D03*
G01*
X2213305Y9981595D03*
G01*
X2173300Y9981595D03*
G01*
X2133295Y9981595D03*
G01*
X2093290Y9981595D03*
G01*
X2053285Y9981595D03*
G01*
X2013305Y9981595D03*
D36*
G01*
X2273294Y9626605D03*
D37*
G01*
X2416703Y10198102D03*
D38*
G01*
X2307691Y10198102D03*
D24*
G01*
X2612491Y9194802D03*
D25*
G01*
X2721503Y9194802D03*
D24*
G01*
X2802994Y9525000D03*
D25*
G01*
X2912005Y9525000D03*
D39*
G01*
X1928738Y10034198D03*
G01*
X1928738Y10084211D03*
G01*
X1928738Y10134198D03*
G01*
X1928738Y10184211D03*
G01*
X1627256Y10034198D03*
G01*
X1627256Y10084211D03*
G01*
X1627256Y10134198D03*
G01*
X1627256Y10184211D03*
D40*
G01*
X1777994Y10109202D03*
D22*
G01*
X1778000Y9897003D03*
D23*
G01*
X1778000Y9787991D03*
D22*
G01*
X1676400Y9897003D03*
D23*
G01*
X1676400Y9787991D03*
D37*
G01*
X1769003Y9512302D03*
D38*
G01*
X1659991Y9512302D03*
D37*
G01*
X1565803Y9232902D03*
D38*
G01*
X1456791Y9232902D03*
D41*
G01*
X1787401Y9134576D03*
G01*
X1787401Y9229592D03*
G01*
X1692379Y9229597D03*
G01*
X1692380Y9134576D03*
D42*
G01*
X1955797Y8449312D03*
G01*
X1955797Y8619492D03*
D20*
G01*
X2855899Y11350548D03*
G01*
X2755900Y11350548D03*
G01*
X2655900Y11350548D03*
D21*
G01*
X2525899Y11738048D03*
G01*
X2985898Y11738048D03*
D43*
G01*
X2335400Y5937250D03*
G01*
X2565400Y5937250D03*
G01*
X2795399Y5937250D03*
D44*
G01*
X2565400Y6508750D03*
D19*
G01*
X2660904Y10476890D03*
G01*
X2755900Y10476890D03*
G01*
X2850895Y10476890D03*
G01*
X2850895Y10706709D03*
G01*
X2755900Y10706709D03*
G01*
X2660904Y10706709D03*
D45*
G01*
X1765300Y8609724D03*
D46*
G01*
X1765300Y8459075D03*
D17*
G01*
X1295400Y6503275D03*
D18*
G01*
X1295400Y6653924D03*
D47*
G01*
X3276600Y6510624D03*
D48*
G01*
X3276600Y5808375D03*
D49*
G01*
X2660896Y8674402D03*
G01*
X2755892Y8674402D03*
G01*
X2850888Y8674402D03*
G01*
X2850888Y8394392D03*
G01*
X2755892Y8394392D03*
G01*
X2660896Y8394392D03*
D26*
G01*
X2501900Y8479894D03*
D27*
G01*
X2501900Y8588905D03*
D50*
G01*
X2938294Y7578498D03*
D11*
G01*
X2684297Y7578496D03*
G01*
X2430297Y7578496D03*
G01*
X2176297Y7578496D03*
G01*
X1922297Y7578496D03*
G01*
X1668297Y7578496D03*
G01*
X1414297Y7578496D03*
G01*
X1160297Y7578496D03*
D51*
G01*
X1159494Y7186470D03*
D11*
G01*
X1413492Y7186472D03*
G01*
X1667492Y7186472D03*
G01*
X1921492Y7186472D03*
G01*
X2175492Y7186472D03*
G01*
X2429492Y7186472D03*
G01*
X2683492Y7186472D03*
G01*
X2937492Y7186472D03*
D52*
G01*
X2990799Y1562100D03*
D11*
G01*
X2990799Y1816100D03*
G01*
X2990799Y2070100D03*
G01*
X2990799Y2324100D03*
G01*
X958799Y2324100D03*
G01*
X958799Y1562100D03*
G01*
X958799Y1816100D03*
G01*
X958799Y2070100D03*
M02*
